*
*
G04 PADS VX.2.3 Build Number: 9191294 generated Gerber (RS-274-X) file*
G04 PC Version=2.1*
*
%IN "uMuddMarkVLayout_3_osci"*%
*
%MOIN*%
*
%FSLAX35Y35*%
*
*
*
*
G04 PC Standard Apertures*
*
*
G04 Thermal Relief Aperture macro.*
%AMTER*
1,1,$1,0,0*
1,0,$1-$2,0,0*
21,0,$3,$4,0,0,45*
21,0,$3,$4,0,0,135*
%
*
*
G04 Annular Aperture macro.*
%AMANN*
1,1,$1,0,0*
1,0,$2,0,0*
%
*
*
G04 Odd Aperture macro.*
%AMODD*
1,1,$1,0,0*
1,0,$1-0.005,0,0*
%
*
*
G04 PC Custom Aperture Macros*
*
*
*
*
*
*
G04 PC Aperture Table*
*
%ADD010C,0.001*%
%ADD013R,0.06X0.06*%
%ADD014C,0.06*%
%ADD017R,0.02756X0.12598*%
%ADD018R,0.02756X0.16535*%
%ADD024C,0.25*%
%ADD026C,0.008*%
%ADD027C,0.01*%
%ADD028C,0.03*%
%ADD054C,0.042*%
*
*
*
*
G04 PC Circuitry*
G04 Layer Name uMuddMarkVLayout_3_osci - circuitry*
%LPD*%
*
*
G04 PC Custom Flashes*
G04 Layer Name uMuddMarkVLayout_3_osci - flashes*
%LPD*%
*
*
G04 PC Circuitry*
G04 Layer Name uMuddMarkVLayout_3_osci - circuitry*
%LPD*%
*
G54D10*
G54D13*
G01X2051400Y2125500D03*
X2013309Y2125272D03*
X1998609D03*
X2065800Y2299900D03*
X2047600Y2140700D03*
G54D14*
X2057800Y1986700D03*
Y2012291D03*
X2075517D03*
Y1986700D03*
X2075700Y1963200D03*
Y1937609D03*
X2057983D03*
Y1963200D03*
X1938700Y2177500D03*
Y2167500D03*
Y2157500D03*
Y2147500D03*
Y2137500D03*
X2051400Y2115500D03*
Y2105500D03*
Y2095500D03*
Y2085500D03*
Y2075500D03*
Y2065500D03*
Y2055500D03*
Y2045500D03*
Y2035500D03*
X2081400D03*
Y2045500D03*
Y2055500D03*
Y2065500D03*
Y2075500D03*
Y2085500D03*
Y2095500D03*
Y2105500D03*
Y2115500D03*
Y2125500D03*
X1978300Y2379700D03*
X1952709D03*
Y2397417D03*
X1978300D03*
X2013309Y2115272D03*
Y2105272D03*
Y2095272D03*
Y2085272D03*
Y2075272D03*
Y2065272D03*
Y2055272D03*
Y2045272D03*
Y2035272D03*
X1998609Y2115272D03*
Y2105272D03*
Y2095272D03*
Y2085272D03*
Y2075272D03*
Y2065272D03*
Y2055272D03*
Y2045272D03*
Y2035272D03*
X2055800Y2299900D03*
X2065800Y2309900D03*
X2055800D03*
X2065800Y2319900D03*
X2055800D03*
X2065800Y2329900D03*
X2055800D03*
X2065800Y2339900D03*
X2055800D03*
X2027400Y1916400D03*
Y1966400D03*
X1909400Y2455100D03*
Y2445100D03*
Y2435100D03*
Y2425100D03*
Y2415100D03*
Y2405100D03*
Y2395100D03*
Y2385100D03*
Y2375100D03*
Y2365100D03*
Y2355100D03*
Y2345100D03*
Y2335100D03*
Y2325100D03*
Y2315100D03*
Y2305100D03*
Y2295100D03*
Y2285100D03*
Y2275100D03*
Y2265100D03*
Y2255100D03*
Y2245100D03*
Y2235100D03*
Y2225100D03*
Y2215100D03*
Y2205100D03*
Y2195100D03*
Y2185100D03*
Y2175100D03*
Y2165100D03*
Y2155100D03*
Y2145100D03*
Y2135100D03*
Y2125100D03*
Y2115100D03*
Y2105100D03*
Y2095100D03*
Y2085100D03*
Y2075100D03*
Y2065100D03*
Y2055100D03*
Y2045100D03*
Y2035100D03*
Y2025100D03*
Y2015100D03*
Y2005100D03*
Y1995100D03*
Y1985100D03*
Y1975100D03*
Y1965100D03*
Y1955100D03*
Y1945100D03*
Y1935100D03*
Y1925100D03*
Y1915100D03*
Y1905100D03*
Y1895100D03*
Y1885100D03*
X2057600Y2140700D03*
X2067600D03*
X2077600D03*
Y2170700D03*
X2067600D03*
X2057600D03*
X2047600D03*
G54D17*
X1962598Y1845748D03*
G54D18*
X1966535Y1843780D03*
X1970472D03*
X1974409D03*
X1978346D03*
X1982283D03*
X1986220D03*
X1990157D03*
X1994094D03*
X1998031D03*
X2001969D03*
X2013780D03*
X2017717D03*
X2021654D03*
X2025591D03*
X2029528D03*
X2033465D03*
X2037402D03*
G54D24*
X2006400Y2230500D03*
G54D26*
X1970472Y1843780D02*
Y1862072D01*
X1915500Y1917044*
Y1965000*
X1966535Y1843780D02*
X1966500D01*
Y1854500*
X1962598Y1845748D02*
X1962500D01*
Y1854500*
X1990000D02*
X2001755Y1866255D01*
Y1937064*
X2003392Y1938700*
X2006539*
X1990157Y1843780D02*
X1990000D01*
Y1854500*
X1974409Y1843780D02*
Y1862072D01*
X1968000Y1868481*
Y1958877*
X1966850Y1960027*
Y1991266*
X1960486Y1997630*
Y2096373*
X1957800Y2099059*
X2001969Y1843780D02*
X2002000D01*
Y1854500*
X1994094Y1843780D02*
Y1855935D01*
X2006000Y1867840*
Y1881500*
X2024000Y1857000D02*
Y1902244D01*
X2051500Y1929744*
Y1944500*
X2029528Y1843780D02*
Y1875510D01*
X2029500Y1875537*
Y1900500*
X2025591Y1843780D02*
Y1854051D01*
X2026750Y1855211*
Y1901286*
X2028464Y1903000*
X2030536*
X2021654Y1843780D02*
Y1854429D01*
X2021500Y1854583*
Y1865000*
X2017717Y1843780D02*
X2017500D01*
Y1854500*
X2013780Y1843780D02*
Y1865280D01*
X2022300Y1873800*
Y1904252*
X2043850Y1925802*
Y2013145*
X2063000Y2032295*
Y2198060*
X2037402Y1843780D02*
X2037500D01*
Y1854500*
X2033465Y1843780D02*
Y1864756D01*
X2033500Y1864791*
Y1879000*
X1983500Y1859500D02*
Y1924278D01*
X1985144Y1925922*
X1975000Y1868000D02*
X1969400Y1873600D01*
Y1959463*
X1968250Y1960613*
Y2003874*
X1967300Y2004824*
Y2140091*
X1962000Y2145391*
X2019500Y1879000D02*
Y1883750D01*
X2017000Y1886250*
Y1891000*
X2014500Y1879000D02*
Y1895232D01*
X2013500Y1896232*
X2033500Y1879000D02*
X2042900D01*
X2063800Y1899900*
X2088500Y1872500D02*
Y2369500D01*
X2085500Y1875000D02*
Y2006218D01*
X2086000Y2006718*
Y2344500*
X2081500Y1877500D02*
Y2022389D01*
X2077400Y2026489*
X1924500Y1884500D02*
Y1900000D01*
X1909400Y1915100*
X1978000Y1896500D02*
Y1901591D01*
X1976800Y1902791*
Y1912550*
X2006000Y1881500D02*
Y1925059D01*
X2010874Y1929933*
X2013500Y1896232D02*
Y1916878D01*
X2014274Y1917652*
X2063800Y1904900D02*
X2051700Y1892800D01*
X2034382*
X2032400Y1894782*
Y1901136*
X2030536Y1903000*
X1965500Y1918000D02*
Y1924944D01*
X1966600Y1926044*
X1976800Y1912550D02*
X1979204Y1914954D01*
Y1934228*
X1974000Y1913000D02*
Y1916591D01*
X1972800Y1917791*
Y1960875*
X1971700Y1961975*
X2014274Y1917652D02*
Y1939444D01*
X2006968Y1946750*
X1999250*
X1993500Y1952500*
X2016000Y1911000D02*
Y1948000D01*
X2003500Y1960500*
X2027400Y1916400D02*
Y1958100D01*
X2023000Y1962500*
X2063800Y1904900D02*
Y1917896D01*
X2057983Y1923713*
Y1937609*
X1948500Y1935000D02*
X1951685Y1931815D01*
X1959536*
X1963800Y1936079*
X1948500Y1939000D02*
X1917400Y1970100D01*
X1908743*
X1901200Y1977643*
X1963800Y1936079D02*
Y1957073D01*
X1962650Y1958223*
Y1970402*
X1951268Y1981784*
Y2087268*
X1915095Y2123441*
Y2135234*
X1909400Y2140928*
Y2145100*
X1965200Y1931061D02*
Y1957691D01*
X1964050Y1958841*
Y1974009*
X1954204Y1983855*
Y2071204*
X1966600Y1926044D02*
Y1958290D01*
X1965450Y1959440*
Y1978658*
X1956767Y1987341*
Y2072018*
X1956063Y2074518*
X1960906Y1937000D02*
Y1939685D01*
X1962400Y1941179*
X1958500Y1934315D02*
X1952082Y1940733D01*
Y1961826*
X1941500Y1972409*
Y2026500*
X1962409Y1920000D02*
Y1928270D01*
X1965200Y1931061*
X1985144Y1925922D02*
Y1931618D01*
X1980907Y1935855*
Y1944153*
X1975601Y1949460*
Y1962035*
X1974500Y1963136*
X1979204Y1934228D02*
X1978000Y1935432D01*
Y1943000*
X1976704Y1930204D02*
Y1934228D01*
X1974200Y1936732*
Y1961455*
X1973100Y1962555*
X1989385Y1933741D02*
Y1942770D01*
X1990948Y1944333*
Y1959983*
X1992464Y1961500*
X1993818*
X1995400Y1963082*
Y2026997*
X1986190Y1937690D02*
X1987971Y1939471D01*
Y1949865*
X1989496Y1951390*
Y1961986*
X1990000Y1962490*
Y1965419*
X1993100Y1968519*
Y2027249*
X2010874Y1929933D02*
Y1938036D01*
X2007709Y1941200*
X2003500*
X2008374Y1937000D02*
X2006539Y1938700D01*
X2020500Y1929500D02*
Y1983952D01*
X2009309Y1995143*
X2057983Y1937609D02*
Y1963200D01*
X1948500Y1956500D02*
X1944116Y1960884D01*
X1943081*
X1935104Y1968861*
Y2035053*
X1910057Y2060100*
X1908743*
X1905400Y2063443*
X1948500Y1952500D02*
X1942964D01*
X1917250Y1978214*
Y2014887*
X1911337Y2020800*
X1908043*
X1904000Y2024843*
X1948500Y1943000D02*
X1915850Y1975650D01*
Y2014307*
X1910757Y2019400*
X1907463*
X1902600Y2024263*
X1961000Y1949732D02*
Y1955705D01*
X1955782Y1960923*
Y1966718*
X1945948Y1976553*
Y2078552*
X1909400Y2115100*
X1962400Y1941179D02*
Y1956389D01*
X1961225Y1957564*
Y1966720*
X1947587Y1980358*
Y2083931*
X1913547Y2117970*
Y2126781*
X1909400Y2130928*
Y2135100*
X1958500Y1954500D02*
X1953932Y1959068D01*
Y1964272*
X1944274Y1973931*
Y2050226*
X1909400Y2085100*
X1958500Y1941000D02*
Y1947232D01*
X1961000Y1949732*
X1979995Y1951050D02*
Y1959559D01*
X1981700Y1961264*
X1982495Y1952086D02*
Y1957332D01*
X1983100Y1957938*
Y1969381*
X1984000Y1948500D02*
X1981505Y1949540D01*
X1979995Y1951050*
X1993500Y1959000D02*
X1996800Y1962300D01*
Y2029200*
X2051500Y1944500D02*
Y1969387D01*
X2057800Y1975687*
Y1986700*
X1901200Y1977643D02*
Y2116900D01*
X1909400Y2125100*
X1921500Y1977500D02*
Y2013000D01*
X1909400Y2025100*
X1931500Y1967500D02*
Y2013000D01*
X1909400Y2035100*
X1941500Y1966000D02*
X1937604Y1969896D01*
Y2036896*
X1909400Y2065100*
X1971700Y1961975D02*
Y2022262D01*
X1972000Y2022562*
Y2052500*
X1973100Y1962555D02*
Y2000944D01*
X1973744Y2001588*
Y2037368*
X1975900Y2039525*
Y2065579*
X1978200Y2067879*
X1974500Y1963136D02*
Y1986166D01*
X1975409Y1987076*
Y2025081*
X1977300Y2026971*
Y2064996*
X1979600Y2067296*
X1981700Y1961264D02*
Y1967504D01*
X1979200Y1970004*
X1983100Y1969381D02*
X1980600Y1971881D01*
Y1995854*
X1979200Y1970004D02*
Y2004019D01*
X1980700Y2005519*
Y2063570*
X1983000Y2065870*
X1986260Y1960280D02*
X1984500Y1962056D01*
Y1971257*
X1982000Y1973757*
Y1987688*
X1985000Y1975500D02*
X1990300Y1980800D01*
Y2025948*
X1987500Y1965000D02*
X1991700Y1969200D01*
Y2026594*
X1982000Y1987688D02*
X1987500Y1993188D01*
Y2024670*
X1980600Y1995854D02*
X1982100Y1997354D01*
Y2062956*
X1984400Y2065256*
Y2077170*
X1984500Y1979551D02*
X1988900Y1983951D01*
Y2025309*
X2009309Y1995143D02*
Y2097101D01*
X2013309Y2101101*
Y2105272*
X2057800Y1986700D02*
Y2012291D01*
X2075000Y2018000D02*
Y2130420D01*
X2083000Y2138420*
X1902600Y2024263D02*
Y2094128D01*
X1909400Y2100928*
Y2105100*
X1904000Y2024843D02*
Y2085528D01*
X1909400Y2090928*
Y2095100*
X1991700Y2026594D02*
X1988200Y2030094D01*
Y2060305*
X1990300Y2025948D02*
X1986800Y2029448D01*
Y2061255*
X1988900Y2025309D02*
X1985400Y2028809D01*
Y2062048*
X1987500Y2024670D02*
X1984000Y2028170D01*
Y2062841*
X1996800Y2029200D02*
X1993500Y2032500D01*
X1995400Y2026997D02*
X1991000Y2031397D01*
Y2057664*
X1993100Y2027249D02*
X1989600Y2030749D01*
Y2059132*
X1993500Y2032500D02*
Y2046000D01*
X2071500Y2031000D02*
Y2086222D01*
X2073000Y2087722*
X2077400Y2026489D02*
Y2128816D01*
X2084400Y2135816*
X1989600Y2059132D02*
X1993633Y2063165D01*
Y2076125*
X1998609Y2081101*
Y2085272*
X1991000Y2057664D02*
X1998609Y2065272D01*
Y2045272D02*
Y2049444D01*
X2005409Y2056244*
Y2110159*
X2013309Y2045272D02*
X2031412D01*
X2036640Y2050500*
X2052057*
X2061600Y2060043*
Y2191900*
X2046500Y2058000D02*
Y2066257D01*
X2050743Y2070500*
X2052057*
X2055400Y2073843*
Y2087328*
X1905400Y2063443D02*
Y2071100D01*
X1909400Y2075100*
X1956000Y2074500D02*
X1956063Y2074518D01*
X1975900Y2072598D02*
Y2118500D01*
X1976000*
X1988200Y2060305D02*
X1991149Y2063254D01*
Y2115572*
X1994490Y2118913*
Y2133243*
X1996286Y2135039*
Y2142214*
X1986800Y2061255D02*
X1989175Y2063630D01*
Y2115761*
X1992995Y2119581*
Y2142459*
X1994063Y2143527*
Y2145313*
X1985400Y2062048D02*
X1987200Y2063848D01*
Y2088910*
X1984000Y2062841D02*
X1985800Y2064641D01*
Y2080439*
X1984400Y2077170D02*
X1982100Y2079470D01*
Y2113141*
X1983000Y2065870D02*
Y2073900D01*
X1980700Y2076200*
Y2113985*
X1986863Y2120149*
Y2170700*
X2001400Y2185237*
X1979600Y2067296D02*
Y2071147D01*
X1977300Y2073447*
Y2115978*
X1978500Y2117178*
X1978200Y2067879D02*
Y2070298D01*
X1975900Y2072598*
X1998609Y2065272D02*
Y2069444D01*
X2004009Y2074844*
Y2108546*
X2013309Y2065272D02*
Y2069444D01*
X2018709Y2074844*
Y2107509*
X2051400Y2075500D02*
X2034340Y2092560D01*
Y2094241*
X2013309Y2115272*
X1957800Y2099059D02*
Y2130191D01*
X1959550Y2131941*
Y2190955*
X1961700Y2193105*
X1987200Y2088910D02*
X1986000Y2090110D01*
Y2100500*
X1985800Y2080439D02*
X1983500Y2082739D01*
Y2112297*
X1998609Y2085272D02*
Y2089444D01*
X2002609Y2093444*
Y2106929*
X2013309Y2085272D02*
Y2089444D01*
X2017309Y2093444*
Y2106929*
X2055400Y2087328D02*
X2051400Y2091328D01*
Y2095500*
X2073000Y2087722D02*
Y2202109D01*
X2053500Y2221609*
Y2225500*
X1946000Y2100500D02*
Y2160200D01*
X1938700Y2167500*
X1982100Y2113141D02*
X1988632Y2119673D01*
Y2168396*
X2002800Y2182564*
Y2198947*
X1978500Y2117178D02*
Y2119536D01*
X1974500Y2123536*
X1983500Y2112297D02*
X1991500Y2120297D01*
Y2144500*
X1994609Y2116929D02*
X1997952Y2120272D01*
X2001023*
X2002961Y2122210*
Y2175162*
X2008546Y2180746*
X2013246*
X2026000Y2193500*
X2006509Y2112072D02*
Y2118511D01*
X2009068Y2121070*
Y2141696*
X2010157Y2142786*
Y2176843*
X2007909Y2117509D02*
X2011671Y2121272D01*
X2016722*
X2017486Y2122035*
Y2157805*
X2038057Y2178377*
Y2188443*
X2009309Y2116929D02*
X2012251Y2119872D01*
X2017302*
X2018886Y2121455*
Y2156646*
X2039457Y2177217*
Y2189131*
X2002609Y2106929D02*
X1999266Y2110272D01*
X1997952*
X1994609Y2113616*
Y2116929*
X2004009Y2108546D02*
X2003709Y2108846D01*
Y2120526*
X2005409Y2110159D02*
X2005109Y2110459D01*
Y2119514*
X2018709Y2107509D02*
X2014946Y2111272D01*
X2011652*
X2009309Y2113616*
Y2116929*
X2017309Y2106929D02*
X2014366Y2109872D01*
X2011072*
X2007909Y2113036*
Y2117509*
X2013309Y2105272D02*
X2006509Y2112072D01*
X2037000Y2102500D02*
X2039250Y2104750D01*
Y2172394*
X2042257Y2175401*
X2036500Y2107000D02*
Y2171885D01*
X2040857Y2176242*
X2046500Y2108500D02*
X2044616Y2110384D01*
Y2124095*
X2043600Y2125111*
X2042000Y2111000D02*
Y2172904D01*
X2043657Y2174561*
X2051400Y2115500D02*
X2055400Y2119500D01*
X1956000Y2138000D02*
Y2170982D01*
X1956314Y2171297*
Y2203850*
X1974500Y2123536D02*
Y2173731D01*
X1982700Y2181931*
X1977000Y2126000D02*
Y2173800D01*
X1984100Y2180900*
Y2187093*
X1980036Y2121536D02*
Y2129964D01*
X1979000Y2131000*
Y2173369*
X1981500Y2135500D02*
Y2173437D01*
X1986900Y2178837*
Y2184850*
X1994200Y2192150*
Y2195849*
X2003709Y2120526D02*
X2004681Y2121498D01*
Y2154929*
X2006000Y2156248*
Y2168000*
X2005109Y2119514D02*
X2007070Y2121475D01*
Y2154929*
X2008500Y2156359*
Y2172000*
X2013309Y2125272D02*
Y2157952D01*
X2035557Y2180200*
X2043600Y2125111D02*
Y2172440D01*
X2045057Y2173898*
X2055400Y2119500D02*
Y2133079D01*
X2051806Y2136672*
Y2180137*
X2047929Y2184014*
Y2218981*
X2041500Y2225409*
Y2233500*
X2084400Y2135816D02*
Y2337636D01*
X2062536Y2359500*
X2083000Y2138420D02*
Y2302700D01*
X2065800Y2319900*
X1962000Y2145391D02*
Y2179667D01*
X1963100Y2180767*
Y2228020*
X1969480Y2234400*
X1994063Y2145313D02*
X1993358Y2147813D01*
X1993296Y2147796*
X1996286Y2142214D02*
Y2171978D01*
X2020808Y2196500*
X2024000*
X2071600Y2158872D02*
Y2193420D01*
X2056510Y2208510*
X2067600Y2140700D02*
Y2154872D01*
X2071600Y2158872*
X2057600Y2140700D02*
Y2154872D01*
X2053403Y2159068*
Y2188540*
X2051000Y2190944*
X2081600Y2158872D02*
Y2204400D01*
X2071500Y2214500*
X2077600Y2140700D02*
Y2154872D01*
X2081600Y2158872*
X1916500Y2170500D02*
Y2208242D01*
X1914328Y2210414*
Y2286000*
X1909400Y2290928*
Y2295100*
X1964500Y2166500D02*
Y2216300D01*
X1967000Y2218800*
X1969500*
X1979000Y2173369D02*
X1985500Y2179869D01*
Y2189415*
X1987573Y2191488*
Y2200318*
X1972000Y2166500D02*
Y2175205D01*
X1975600Y2178805*
Y2183300*
X2007657Y2177878D02*
X2009125Y2179346D01*
X2023756*
X2027909Y2183500*
X2033500*
X2008500Y2172000D02*
X2007657Y2172843D01*
Y2177878*
X2045057Y2173898D02*
Y2201068D01*
X2038384Y2207742*
Y2263813*
X2040857Y2176242D02*
Y2195066D01*
X2030204Y2205718*
X2042257Y2175401D02*
Y2196999D01*
X2032704Y2206552*
Y2264704*
X2043657Y2174561D02*
Y2198933D01*
X2035884Y2206706*
X1961700Y2193105D02*
Y2234800D01*
X1959000Y2237500*
X1969261Y2186239D02*
X1975952Y2192931D01*
Y2214928*
X1976800Y2215776*
Y2221824*
X1977369Y2190896D02*
Y2214366D01*
X1978200Y2215196*
Y2221059*
X1978600Y2223559*
X1986173Y2196052D02*
Y2199526D01*
X1981569Y2204130*
X1982700Y2181931D02*
Y2185566D01*
X1977369Y2190896*
X1984100Y2187093D02*
X1978769Y2192423D01*
Y2213786*
X1983673Y2197088D02*
Y2199817D01*
X1980169Y2203321*
X1982156Y2193514D02*
X1984656Y2194536D01*
X1986173Y2196052*
X2002800Y2198947D02*
X2000712Y2201034D01*
Y2211961*
X1992900Y2219773*
Y2236655*
X2001400Y2185237D02*
Y2197649D01*
X1999312Y2199737*
Y2206246*
X1991500Y2214058*
X1994200Y2195849D02*
X1984369Y2205680D01*
Y2211466*
X2038057Y2188443D02*
X2030500Y2196000D01*
X2039457Y2189131D02*
X2036033Y2192555D01*
Y2195163*
X2051000Y2190944D02*
Y2201100D01*
X2053500Y2203600*
X2061600Y2191900D02*
X2053500Y2200000D01*
X2063000Y2198060D02*
X2050800Y2210260D01*
Y2214800*
X1951600Y2206400D02*
X1944100Y2213900D01*
Y2218718*
X1930718Y2232100*
X1929864*
X1916614Y2245350*
Y2323714*
X1909400Y2330928*
Y2335100*
X1949000Y2216500D02*
Y2340268D01*
X1947000Y2342268*
Y2345500*
X1953814Y2202814D02*
X1954100D01*
Y2207872*
X1951600Y2210372*
Y2321000*
X1956314Y2203850D02*
X1955750Y2204414D01*
Y2208637*
X1955000Y2209387*
Y2229668*
X1958500Y2205200D02*
X1958300D01*
Y2207700*
X1957700Y2208300*
Y2210800*
X1957500*
X1980169Y2203321D02*
Y2213206D01*
X1981000Y2214037*
Y2219778*
X1982724Y2221502*
X1981569Y2204130D02*
Y2212626D01*
X1982400Y2213457*
Y2218750*
X1984124Y2220475*
X1982969Y2212046D02*
X1983935Y2213011D01*
Y2217628*
X1985524Y2219218*
Y2236805*
X1984369Y2211466D02*
X1985335Y2212432D01*
Y2216177*
X1987680Y2218522*
Y2240559*
X1991500Y2214058D02*
Y2237799D01*
X1991580Y2237878*
X1987573Y2200318D02*
X1982969Y2204922D01*
Y2212046*
X1978769Y2213786D02*
X1979600Y2214616D01*
Y2220806*
X1981324Y2222530*
Y2229903*
X1986869Y2210431D02*
Y2214331D01*
X1989590Y2217052*
Y2238416*
X1990180Y2239006*
X1973010Y2200490D02*
Y2203528D01*
X1974535Y2205052*
Y2215491*
X1975400Y2216356*
Y2221244*
X1972000Y2206591D02*
Y2210486D01*
X1973100Y2211586*
Y2216036*
X1974000Y2216936*
Y2220664*
X2005000Y2201000D02*
X2020000Y2216000D01*
Y2291500*
X2030204Y2205718D02*
Y2265740D01*
X2031964Y2267500*
X2035000*
X2050800Y2214800D02*
X2053500Y2217500D01*
X2035884Y2206706D02*
Y2264848D01*
X2037500Y2266464*
X2040000Y2267500*
X1955000Y2229668D02*
X1956000Y2230668D01*
Y2251000*
X1959000Y2237500D02*
Y2242032D01*
X1961500Y2244532*
Y2273895*
X1969480Y2234400D02*
X1962923Y2240957D01*
X1979580Y2230405D02*
Y2239276D01*
X1976388Y2242468*
Y2274593*
X1975380Y2275601*
Y2289138*
Y2236844D02*
X1972075Y2240149D01*
Y2257122*
X1971123Y2258074*
Y2306623*
X1973524Y2230101D02*
X1975380Y2231956D01*
Y2236844*
X1975400Y2221244D02*
X1973524Y2223119D01*
Y2230101*
X1976780Y2237424D02*
X1973550Y2240653D01*
Y2262655*
X1972580Y2263626*
Y2296616*
X1974924Y2229521D02*
X1976780Y2231376D01*
Y2237424*
X1976800Y2221824D02*
X1974924Y2223699D01*
Y2229521*
X1981324Y2229903D02*
X1980980Y2230248D01*
Y2240318*
X1979001Y2242297*
Y2245490*
X1982724Y2221502D02*
Y2232015D01*
X1982380Y2232359*
Y2246421*
X1977880Y2250921*
Y2282120*
X1984124Y2220475D02*
Y2234126D01*
X1983780Y2234470*
Y2247777*
X1980400Y2251156*
Y2274766*
X1979300Y2275866*
X1985524Y2236805D02*
X1985180Y2237150D01*
Y2249240*
X1982900Y2251520*
Y2255000*
X1976324Y2225835D02*
Y2228941D01*
X1978180Y2230796*
Y2238235*
X1974988Y2241427*
Y2268529*
X1973980Y2269537*
X1990180Y2239006D02*
Y2274080D01*
X1982880Y2281380*
X1974000Y2220664D02*
X1972124Y2222540D01*
Y2230681*
X1991580Y2237878D02*
Y2276215D01*
X1982000Y2285795*
Y2289000*
X1973980Y2236264D02*
X1967000Y2243244D01*
Y2260343*
X1972124Y2230681D02*
X1973980Y2232536D01*
Y2236264*
X1978824Y2227905D02*
X1979580Y2230405D01*
X1978600Y2223559D02*
X1976324Y2225835D01*
X1992900Y2236655D02*
X1992980Y2236735D01*
Y2277249*
X2041500Y2233500D02*
Y2238841D01*
X2040800Y2239541*
Y2258406*
X2054618Y2232800D02*
X2059800Y2237982D01*
Y2348361*
X2054618Y2232800D02*
X2048541D01*
X2047841Y2233500*
X2041500*
X1905000Y2251000D02*
Y2386528D01*
X1909400Y2390928*
Y2395100*
X1902500Y2259000D02*
Y2394028D01*
X1909400Y2400928*
Y2405100*
X1922500Y2247982D02*
Y2362000D01*
X1909400Y2375100*
X1920000Y2249500D02*
Y2354500D01*
X1909400Y2365100*
X1921500Y2244000D02*
Y2246982D01*
X1922500Y2247982*
X1940000Y2251000D02*
Y2291500D01*
X1962923Y2240957D02*
Y2314459D01*
X1963000Y2314536*
Y2361500*
X1959000Y2247600D02*
Y2255500D01*
X1954518Y2259982*
Y2341518*
X1930900Y2365136*
X1929364*
X1909400Y2385100*
X1969500Y2249000D02*
Y2257296D01*
X1969723Y2257519*
Y2312959*
X1974600Y2317836*
Y2348918*
X2010500Y2246500D02*
Y2336500D01*
X2040800Y2258406D02*
X2041342Y2258948D01*
Y2264776*
X2042500Y2265934*
Y2366000*
X1945000Y2262500D02*
Y2340000D01*
X1967000Y2260343D02*
X1968323Y2261666D01*
Y2319272*
X1973200Y2324149*
Y2336209*
X1961500Y2273895D02*
X1959000Y2276395D01*
Y2336000*
Y2263000D02*
Y2273895D01*
X1956336Y2276559*
Y2368164*
X1909400Y2415100*
X1979300Y2275866D02*
Y2279312D01*
X1980380Y2280391*
X1973980Y2269537D02*
Y2292940D01*
X1978000Y2296961*
Y2305500*
X1992980Y2277249D02*
X1989367Y2280862D01*
Y2281964*
X1985165Y2286165*
X1980380Y2280391D02*
Y2283500D01*
X1979500Y2286000*
X1972580Y2296616D02*
X1973623Y2297659D01*
Y2303000*
X1975380Y2289138D02*
X1982000Y2295758D01*
Y2318268*
X1971123Y2306623D02*
X1979500Y2315000D01*
X1982000Y2318268D02*
X1981000Y2319268D01*
Y2324000*
X2065800Y2299900D02*
Y2304072D01*
X2061500Y2308372*
Y2357000*
X1973200Y2336209D02*
X1972000Y2337409D01*
Y2344000*
X1959500Y2340000D02*
Y2422000D01*
X1974600Y2348918D02*
X1973500Y2350018D01*
Y2356500*
X1985500Y2358500D02*
Y2390217D01*
X1978300Y2397417*
X2059000Y2358036D02*
X2060464Y2359500D01*
X2062536*
X2059800Y2348361D02*
X2059000Y2349161D01*
Y2358036*
G54D27*
X1986220Y1843780D02*
X1986000D01*
Y1854500*
X1982283Y1843780D02*
X1982138D01*
Y1855750*
X1981876*
X1978346Y1843780D02*
Y1875654D01*
X1971100Y1882900*
Y1960169*
X1969975Y1961294*
Y2027559*
X1969100Y2028434*
Y2174150*
X1966461Y2176789*
X1998031Y1843780D02*
Y1856830D01*
X2010250Y1869048*
Y1921468*
X2012574Y1923792*
X1990545Y1930941D02*
X1996443Y1936839D01*
Y1938102*
X2002340Y1944000*
X2007314*
X1990545Y1930941D02*
X1988225D01*
X1982998Y1936168*
Y1945004*
X1977798Y1950205*
Y1962242*
X1976200Y1963840*
X2012574Y1923792D02*
Y1938740D01*
X2007314Y1944000*
X1976200Y1963840D02*
Y1975811D01*
X1977305Y1976916*
Y2014550*
X1979000Y2016245*
Y2064283*
X1981300Y2066583*
Y2072523*
X1979000Y2074823*
Y2114982*
X1984732Y2120713*
Y2173968*
X1989600Y2178837*
Y2183500*
X1966461Y2176789D02*
Y2195392D01*
X1969169Y2198100*
Y2205136*
X1966700Y2207604*
X1989600Y2183500D02*
X1995900Y2189800D01*
Y2198080*
X1987990Y2205990*
X1966700Y2207604D02*
Y2214360D01*
X1968340Y2216000*
X1970660*
X1972300Y2217640*
Y2219960*
X1970424Y2221835*
Y2231385*
X1972280Y2233240*
Y2235560*
X1965300Y2242540*
Y2263501*
X1965623Y2263824*
Y2268877*
X2043500Y2253000D02*
Y2264000D01*
X2048000Y2268500*
X1965623Y2268877D02*
Y2326123D01*
X1970500Y2331000*
X2053500Y2263000D02*
Y2281001D01*
X2051700Y2282801*
Y2301649*
X1994500Y2280000D02*
Y2415000D01*
X2051700Y2301649D02*
X2055800Y2305749D01*
Y2309900*
Y2314051*
X2051500Y2318351*
Y2425000*
G54D28*
X1966500Y1854500D03*
X1962500D03*
X1990000D03*
X1981876Y1855750D03*
X1986000Y1854500D03*
X2002000D03*
X2024000Y1857000D03*
X2017500Y1854500D03*
X2037500D03*
X1983500Y1859500D03*
X1975000Y1868000D03*
X2019500Y1879000D03*
X2014500D03*
X2021500Y1865000D03*
X2033500Y1879000D03*
X2088500Y1872500D03*
X2085500Y1875000D03*
X2081500Y1877500D03*
X1924500Y1884500D03*
X1978000Y1896500D03*
X1980000Y1885000D03*
X2006000Y1881500D03*
X2017000Y1891000D03*
X2035500Y1895500D03*
X1965500Y1918000D03*
X1974000Y1913000D03*
X1979500Y1906500D03*
X1999000Y1907500D03*
X2029500Y1900500D03*
X2016000Y1911000D03*
X1948500Y1939000D03*
Y1935000D03*
X1960906Y1937000D03*
X1958500Y1934315D03*
X1962409Y1920000D03*
X1976704Y1930204D03*
X1989385Y1933741D03*
X1986190Y1937690D03*
X1986500Y1920000D03*
X1975500D03*
X1982444Y1930500D03*
X2008374Y1937000D03*
X2004510Y1936000D03*
X2020500Y1929500D03*
X1948500Y1956500D03*
Y1952500D03*
Y1943000D03*
X1958500Y1954500D03*
Y1941000D03*
X1978000Y1943000D03*
X1982495Y1952086D03*
X1984000Y1948500D03*
X2003500Y1941200D03*
X1993500Y1952500D03*
Y1959000D03*
X2003500Y1954500D03*
Y1950500D03*
X2051500Y1944500D03*
X1915500Y1965000D03*
X1921500Y1977500D03*
X1931500Y1967500D03*
X1941500Y1966000D03*
X1948500Y1960500D03*
X1958500Y1962500D03*
X1986260Y1960280D03*
X1985000Y1975500D03*
X1987500Y1965000D03*
X1989000Y1975500D03*
X1979000Y1965000D03*
X2003500Y1960500D03*
X1992700Y1964200D03*
X2023000Y1962500D03*
X1984500Y1979551D03*
X2036000Y1980500D03*
Y1991500D03*
X2078500Y1991000D03*
X2036000Y2003500D03*
X2075000Y2018000D03*
X1941500Y2026500D03*
X1964500Y2023500D03*
X1984800D03*
X1993500Y2032500D03*
X2071500Y2031000D03*
X1972000Y2052500D03*
X1993500Y2046000D03*
X2046500Y2058000D03*
X1954204Y2071204D03*
X1956000Y2074500D03*
X1975500Y2069000D03*
X1946000Y2100500D03*
X1986000D03*
X1976000Y2118500D03*
X2037000Y2102500D03*
X2036500Y2107000D03*
X2046500Y2108500D03*
X2042000Y2111000D03*
X1956000Y2138000D03*
X1960500Y2123000D03*
X1977000Y2126000D03*
X1980036Y2121536D03*
X1981500Y2135500D03*
X1991500Y2144500D03*
X1993296Y2147796D03*
X1996286Y2142214D03*
X1916500Y2170500D03*
X1964500Y2166500D03*
X1972000D03*
X2010157Y2176843D03*
X2006000Y2168000D03*
X1939000Y2189000D03*
X1969169Y2198100D03*
X1969261Y2186239D03*
X1969500Y2192500D03*
X1989600Y2183500D03*
X1983673Y2197088D03*
X1982156Y2193514D03*
X1975600Y2183300D03*
X1980000Y2183500D03*
X1991500Y2193500D03*
X1998700Y2195878D03*
X2009500Y2193500D03*
X2024000Y2196500D03*
X2030500Y2196000D03*
X2026000Y2193500D03*
X2021626D03*
X2011937Y2196437D03*
X2021000Y2183500D03*
X2036033Y2195163D03*
X2035557Y2180200D03*
X2033500Y2183500D03*
X1951600Y2206400D03*
X1949000Y2216500D03*
X1936500Y2208500D03*
X1969500Y2218800D03*
X1953814Y2202814D03*
X1958500Y2205200D03*
X1957500Y2210800D03*
X1969500Y2213200D03*
X1959000Y2216000D03*
X1987990Y2205990D03*
X1986869Y2210431D03*
X1973010Y2200490D03*
X1972000Y2206591D03*
X2005000Y2201000D03*
X2043500Y2208000D03*
Y2214000D03*
X2071500Y2214500D03*
X2056510Y2208510D03*
X2053500Y2203600D03*
Y2200000D03*
Y2217500D03*
X2070000Y2209500D03*
X2053500Y2212000D03*
X1939000Y2220000D03*
X1959000Y2237500D03*
X1969480Y2234400D03*
X1959000Y2229500D03*
Y2225500D03*
Y2233500D03*
X1978824Y2227905D03*
X1978600Y2223559D03*
X2041500Y2233500D03*
X2053500Y2225500D03*
Y2235500D03*
X1905000Y2251000D03*
X1902500Y2259000D03*
X1920000Y2249500D03*
X1921500Y2244000D03*
X1940000Y2251000D03*
X1936000Y2239500D03*
X1959000Y2247600D03*
X1969500Y2249000D03*
X1956000Y2251000D03*
X1979001Y2245490D03*
X1982900Y2255000D03*
X1987680Y2240559D03*
X2010500Y2246500D03*
X2043500Y2253000D03*
Y2243500D03*
X2070000Y2242500D03*
X1945000Y2262500D03*
X1935500Y2273500D03*
X1965623Y2268877D03*
X1959000Y2263000D03*
X1982000Y2277500D03*
X1997500D03*
X1999500Y2267500D03*
X2023000Y2277500D03*
X2013500D03*
X2025000Y2267500D03*
X2015500D03*
X2048000Y2268500D03*
X2032704Y2264704D03*
X2035000Y2267500D03*
X2038384Y2263813D03*
X2040000Y2267500D03*
X2053500Y2263000D03*
X2070000Y2273000D03*
X1940000Y2291500D03*
X1985165Y2286165D03*
X1982000Y2289000D03*
X1982880Y2281380D03*
X1977880Y2282120D03*
X1979500Y2286000D03*
X1994500Y2280000D03*
X2020000Y2291500D03*
X1978000Y2305500D03*
X1973623Y2303000D03*
X1979500Y2315000D03*
X1951600Y2321000D03*
X1970500Y2331000D03*
X1959000Y2336000D03*
X1981000Y2324000D03*
X2010500Y2336500D03*
X2005000Y2331000D03*
X1947000Y2345500D03*
X1945000Y2340000D03*
X1959500D03*
X1967500Y2348000D03*
X1972000Y2344000D03*
X1973500Y2356500D03*
X1985500Y2358500D03*
X2024500Y2351000D03*
X2061500Y2357000D03*
X2086000Y2344500D03*
X1963000Y2361500D03*
X2042500Y2366000D03*
X2088500Y2369500D03*
X2001000Y2385500D03*
X2029000Y2395500D03*
X2020500Y2385500D03*
X2076000Y2386500D03*
X1994500Y2415000D03*
X2021000D03*
X1907000Y2430000D03*
X1959500Y2422000D03*
X2051500Y2425000D03*
X1949000Y2447000D03*
X2020500Y2443000D03*
G54D54*
X2068800Y1884900D03*
X2063800D03*
X2068800Y1889900D03*
X2063800D03*
X2068800Y1894900D03*
X2063800D03*
X2068800Y1899900D03*
X2063800D03*
X2068800Y1904900D03*
X2063800D03*
X0Y0D02*
M02*
