*
*
G04 PADS VX.2.3 Build Number: 9191294 generated Gerber (RS-274-X) file*
G04 PC Version=2.1*
*
%IN "uMuddMarkVLayout_3_osci"*%
*
%MOIN*%
*
%FSLAX35Y35*%
*
*
*
*
G04 PC Standard Apertures*
*
*
G04 Thermal Relief Aperture macro.*
%AMTER*
1,1,$1,0,0*
1,0,$1-$2,0,0*
21,0,$3,$4,0,0,45*
21,0,$3,$4,0,0,135*
%
*
*
G04 Annular Aperture macro.*
%AMANN*
1,1,$1,0,0*
1,0,$2,0,0*
%
*
*
G04 Odd Aperture macro.*
%AMODD*
1,1,$1,0,0*
1,0,$1-0.005,0,0*
%
*
*
G04 PC Custom Aperture Macros*
*
*
*
*
*
*
G04 PC Aperture Table*
*
%ADD010C,0.001*%
%ADD014C,0.06*%
%ADD027C,0.01*%
%ADD028C,0.03*%
%ADD029C,0.015*%
%ADD054C,0.042*%
*
*
*
*
G04 PC Circuitry*
G04 Layer Name uMuddMarkVLayout_3_osci - circuitry*
%LPD*%
*
*
G04 PC Custom Flashes*
G04 Layer Name uMuddMarkVLayout_3_osci - flashes*
%LPD*%
*
*
G04 PC Circuitry*
G04 Layer Name uMuddMarkVLayout_3_osci - circuitry*
%LPD*%
*
G54D10*
G54D14*
G01X1998609Y2125272D03*
X2077600Y2170700D03*
X2067600D03*
X2057600D03*
X2047600D03*
G54D27*
X1901900Y1871900D02*
X1962100D01*
X1962600Y1871400D02*
G75*
G03X1962100Y1871900I-500J0D01*
G01X1962600Y1871400D02*
Y1857098D01*
X1964500Y1856161D02*
G03X1962600Y1857098I-2000J-1661D01*
G01X1969100Y1854500D02*
G03X1964500Y1856161I-2600J0D01*
G01Y1852839D02*
G03X1969100Y1854500I2000J1661D01*
G01X1962600Y1851902D02*
G03X1964500Y1852839I-100J2598D01*
G01X1962600Y1851902D02*
Y1832100D01*
X2000900*
Y1852144*
X1999400Y1854500D02*
G03X2000900Y1852144I2600J0D01*
G01Y1856856D02*
G03X1999400Y1854500I1100J-2356D01*
G01X2000900Y1856856D02*
Y1865500D01*
X2001400Y1866000D02*
G03X2000900Y1865500I0J-500D01*
G01X2001400Y1866000D02*
X2015000D01*
X2015500Y1865500D02*
G03X2015000Y1866000I-500J0D01*
G01X2015500Y1865500D02*
Y1856161D01*
X2020100Y1854500D02*
G03X2015500Y1856161I-2600J0D01*
G01Y1852839D02*
G03X2020100Y1854500I2000J1661D01*
G01X2015500Y1852839D02*
Y1832400D01*
X2036400*
Y1852144*
X2034900Y1854500D02*
G03X2036400Y1852144I2600J0D01*
G01Y1856856D02*
G03X2034900Y1854500I1100J-2356D01*
G01X2036400Y1856856D02*
Y1871900D01*
X2036900Y1872400D02*
G03X2036400Y1871900I0J-500D01*
G01X2036900Y1872400D02*
X2085902D01*
X2085901Y1872431D02*
G03X2085902Y1872400I2599J69D01*
G01X2082900Y1875000D02*
G03X2085901Y1872431I2600J0D01*
G01X2082920Y1875322D02*
G03X2082900Y1875000I2580J-322D01*
G01X2078900Y1877500D02*
G03X2082920Y1875322I2600J0D01*
G01X2084100Y1877500D02*
G03X2078900I-2600J0D01*
G01X2084080Y1877178D02*
G03X2084100Y1877500I-2580J322D01*
G01X2087800Y1876212D02*
G03X2084080Y1877178I-2300J-1212D01*
G01X2087800Y1876212D02*
Y2342624D01*
X2083400Y2344500D02*
G03X2087800Y2342624I2600J0D01*
G01Y2346376D02*
G03X2083400Y2344500I-1800J-1876D01*
G01X2087800Y2346376D02*
Y2366996D01*
X2085900Y2369500D02*
G03X2087800Y2366996I2600J0D01*
G01Y2372004D02*
G03X2085900Y2369500I700J-2504D01*
G01X2087800Y2372004D02*
Y2468000D01*
X1902900*
X1902600Y2468100D02*
G03X1902900Y2468000I300J400D01*
G01X1902600Y2468100D02*
X1901900D01*
Y2261530*
X1905100Y2259000D02*
G03X1901900Y2261530I-2600J0D01*
G01Y2256470D02*
G03X1905100Y2259000I600J2530D01*
G01X1901900Y2256470D02*
Y1871900D01*
X2066300Y1886897D02*
G03X2065797Y1887400I-2500J-1997D01*
G01X2066803D02*
G03X2066300Y1886897I1997J-2500D01*
G01Y1887903D02*
G03X2066803Y1887400I2500J1997D01*
G01X2065797D02*
G03X2066300Y1887903I-1997J2500D01*
G01X2085500Y2125500D02*
G03X2077300I-4100J0D01*
X2085500I4100J0*
G01Y2115500D02*
G03X2077300I-4100J0D01*
X2085500I4100J0*
G01Y2105500D02*
G03X2077300I-4100J0D01*
X2085500I4100J0*
G01Y2095500D02*
G03X2077300I-4100J0D01*
X2085500I4100J0*
G01Y2085500D02*
G03X2077300I-4100J0D01*
X2085500I4100J0*
G01Y2075500D02*
G03X2077300I-4100J0D01*
X2085500I4100J0*
G01Y2065500D02*
G03X2077300I-4100J0D01*
X2085500I4100J0*
G01Y2055500D02*
G03X2077300I-4100J0D01*
X2085500I4100J0*
G01Y2045500D02*
G03X2077300I-4100J0D01*
X2085500I4100J0*
G01Y2035500D02*
G03X2077300I-4100J0D01*
X2085500I4100J0*
G01X2081700Y2170700D02*
G03X2073500I-4100J0D01*
X2081700I4100J0*
G01Y2140700D02*
G03X2073500I-4100J0D01*
X2081700I4100J0*
G01X2078600Y2386500D02*
G03X2073400I-2600J0D01*
X2078600I2600J0*
G01X2079800Y1963200D02*
G03X2071600I-4100J0D01*
X2079800I4100J0*
G01Y1937609D02*
G03X2071600I-4100J0D01*
X2079800I4100J0*
G01X2073513Y2015867D02*
G03X2071417Y2012291I2004J-3576D01*
G01X2072400Y2018000D02*
G03X2073513Y2015867I2600J0D01*
G01X2077600Y2018000D02*
G03X2072400I-2600J0D01*
G01X2076846Y2016169D02*
G03X2077600Y2018000I-1846J1831D01*
G01X2079617Y2012291D02*
G03X2076846Y2016169I-4100J-0D01*
G01X2071417Y2012291D02*
G03X2079617I4100J-0D01*
G01X2075909Y1990781D02*
G03X2071417Y1986700I-392J-4081D01*
G01X2075900Y1991000D02*
G03X2075909Y1990781I2600J-0D01*
G01X2075900Y1991000D02*
X2075900D01*
X2081100D02*
G03X2075900I-2600J0D01*
G01X2079202Y1988497D02*
G03X2081100Y1991000I-702J2503D01*
G01X2079617Y1986700D02*
G03X2079202Y1988497I-4100J0D01*
G01X2071417Y1986700D02*
G03X2079617I4100J0D01*
G01X2074100Y2214500D02*
G03X2068900I-2600J0D01*
X2074100I2600J0*
G01Y2031000D02*
G03X2068900I-2600J0D01*
X2074100I2600J0*
G01X2072600Y2273000D02*
G03X2067400I-2600J0D01*
X2072600I2600J0*
G01Y2242500D02*
G03X2067400I-2600J0D01*
X2072600I2600J0*
G01Y2209500D02*
G03X2067400I-2600J0D01*
X2072600I2600J0*
G01X2071700Y2170700D02*
G03X2063500I-4100J0D01*
X2071700I4100J0*
G01Y2140700D02*
G03X2063500I-4100J0D01*
X2071700I4100J0*
G01X2069900Y2339900D02*
G03X2061700I-4100J0D01*
X2069900I4100J0*
G01Y2329900D02*
G03X2061700I-4100J0D01*
X2069900I4100J0*
G01Y2319900D02*
G03X2061700I-4100J0D01*
X2069900I4100J0*
G01Y2309900D02*
G03X2061700I-4100J0D01*
X2069900I4100J0*
G01X2061700Y2296300D02*
Y2303500D01*
X2062200Y2304000D02*
G03X2061700Y2303500I0J-500D01*
G01X2062200Y2304000D02*
X2069400D01*
X2069900Y2303500D02*
G03X2069400Y2304000I-500J0D01*
G01X2069900Y2303500D02*
Y2296300D01*
X2069400Y2295800D02*
G03X2069900Y2296300I0J500D01*
G01X2069400Y2295800D02*
X2062200D01*
X2061700Y2296300D02*
G03X2062200Y2295800I500J0D01*
G01X2061803Y1887400D02*
G03X2060600Y1884900I1997J-2500D01*
G01Y1889900D02*
G03X2061803Y1887400I3200J0D01*
G01Y1892400D02*
G03X2060600Y1889900I1997J-2500D01*
G01Y1894900D02*
G03X2061803Y1892400I3200J0D01*
G01Y1897400D02*
G03X2060600Y1894900I1997J-2500D01*
G01Y1899900D02*
G03X2061803Y1897400I3200J0D01*
G01Y1902400D02*
G03X2060600Y1899900I1997J-2500D01*
G01Y1904900D02*
G03X2061803Y1902400I3200J0D01*
G01X2066300Y1906897D02*
G03X2060600Y1904900I-2500J-1997D01*
G01X2072000D02*
G03X2066300Y1906897I-3200J0D01*
G01X2070797Y1902400D02*
G03X2072000Y1904900I-1997J2500D01*
G01Y1899900D02*
G03X2070797Y1902400I-3200J0D01*
G01Y1897400D02*
G03X2072000Y1899900I-1997J2500D01*
G01Y1894900D02*
G03X2070797Y1897400I-3200J0D01*
G01Y1892400D02*
G03X2072000Y1894900I-1997J2500D01*
G01Y1889900D02*
G03X2070797Y1892400I-3200J0D01*
G01Y1887400D02*
G03X2072000Y1889900I-1997J2500D01*
G01Y1884900D02*
G03X2070797Y1887400I-3200J0D01*
G01X2066300Y1882903D02*
G03X2072000Y1884900I2500J1997D01*
G01X2060600D02*
G03X2066300Y1882903I3200J0D01*
G01X2064100Y2357000D02*
G03X2058900I-2600J0D01*
X2064100I2600J0*
G01X2062083Y1963200D02*
G03X2053883I-4100J0D01*
X2062083I4100J0*
G01Y1937609D02*
G03X2053883I-4100J0D01*
X2062083I4100J0*
G01X2061900Y2012291D02*
G03X2053700I-4100J-0D01*
X2061900I4100J-0*
G01Y1986700D02*
G03X2053700I-4100J0D01*
X2061900I4100J0*
G01X2061700Y2170700D02*
G03X2053500I-4100J0D01*
X2061700I4100J0*
G01Y2140700D02*
G03X2053500I-4100J0D01*
X2061700I4100J0*
G01X2059900Y2339900D02*
G03X2051700I-4100J0D01*
X2059900I4100J0*
G01Y2329900D02*
G03X2051700I-4100J0D01*
X2059900I4100J0*
G01Y2319900D02*
G03X2051700I-4100J0D01*
X2059900I4100J0*
G01Y2309900D02*
G03X2051700I-4100J0D01*
X2059900I4100J0*
G01Y2299900D02*
G03X2051700I-4100J0D01*
X2059900I4100J0*
G01X2056100Y2263000D02*
G03X2050900I-2600J0D01*
X2056100I2600J0*
G01Y2235500D02*
G03X2050900I-2600J0D01*
X2056100I2600J0*
G01Y2225500D02*
G03X2050900I-2600J0D01*
X2056100I2600J0*
G01Y2217500D02*
G03X2050900I-2600J0D01*
X2056100I2600J0*
G01Y2212000D02*
G03X2050900I-2600J0D01*
G01X2055917Y2211041D02*
G03X2056100Y2212000I-2417J959D01*
G01X2059110Y2208510D02*
G03X2055917Y2211041I-2600J-0D01*
G01X2053910Y2208510D02*
G03X2059110I2600J-0D01*
G01X2054093Y2209469D02*
G03X2053910Y2208510I2417J-959D01*
G01X2050900Y2212000D02*
G03X2054093Y2209469I2600J0D01*
G01X2051624Y2201800D02*
G03X2050900Y2200000I1876J-1800D01*
G01Y2203600D02*
G03X2051624Y2201800I2600J0D01*
G01X2056100Y2203600D02*
G03X2050900I-2600J0D01*
G01X2055376Y2201800D02*
G03X2056100Y2203600I-1876J1800D01*
G01Y2200000D02*
G03X2055376Y2201800I-2600J0D01*
G01X2050900Y2200000D02*
G03X2056100I2600J0D01*
G01X2054100Y2425000D02*
G03X2048900I-2600J0D01*
X2054100I2600J0*
G01Y1944500D02*
G03X2048900I-2600J0D01*
X2054100I2600J0*
G01X2055500Y2125500D02*
G03X2047300I-4100J0D01*
X2055500I4100J0*
G01Y2115500D02*
G03X2047300I-4100J0D01*
X2055500I4100J0*
G01Y2095500D02*
G03X2047300I-4100J0D01*
X2055500I4100J0*
G01Y2085500D02*
G03X2047300I-4100J0D01*
X2055500I4100J0*
G01Y2075500D02*
G03X2047300I-4100J0D01*
X2055500I4100J0*
G01Y2065500D02*
G03X2047300I-4100J0D01*
X2055500I4100J0*
G01Y2045500D02*
G03X2047300I-4100J0D01*
X2055500I4100J0*
G01Y2035500D02*
G03X2047300I-4100J0D01*
X2055500I4100J0*
G01X2050600Y2268500D02*
G03X2045400I-2600J0D01*
X2050600I2600J0*
G01X2048973Y2058804D02*
G03X2043900Y2058000I-2473J-804D01*
G01X2055500Y2055500D02*
G03X2048973Y2058804I-4100J0D01*
G01X2047300Y2055500D02*
G03X2055500I4100J0D01*
G01X2047300Y2055526D02*
G03Y2055500I4100J-26D01*
G01X2043900Y2058000D02*
G03X2047300Y2055526I2600J0D01*
G01X2051700Y2170700D02*
G03X2043500I-4100J0D01*
X2051700I4100J0*
G01Y2140700D02*
G03X2043500I-4100J0D01*
X2051700I4100J0*
G01X2046100Y2253000D02*
G03X2040900I-2600J0D01*
X2046100I2600J0*
G01Y2243500D02*
G03X2040900I-2600J0D01*
X2046100I2600J0*
G01Y2214000D02*
G03X2040900I-2600J0D01*
X2046100I2600J0*
G01Y2208000D02*
G03X2040900I-2600J0D01*
X2046100I2600J0*
G01X2045100Y2366000D02*
G03X2039900I-2600J0D01*
X2045100I2600J0*
G01X2044600Y2111000D02*
G03X2039400I-2600J0D01*
G01X2044428Y2110071D02*
G03X2044600Y2111000I-2428J929D01*
G01X2049073Y2108875D02*
G03X2044428Y2110071I-2573J-375D01*
G01X2055500Y2105500D02*
G03X2049073Y2108875I-4100J0D01*
G01X2047300Y2105500D02*
G03X2055500I4100J0D01*
G01X2047335Y2106038D02*
G03X2047300Y2105500I4065J-538D01*
G01X2043900Y2108500D02*
G03X2047335Y2106038I2600J0D01*
G01X2044072Y2109429D02*
G03X2043900Y2108500I2428J-929D01*
G01X2039400Y2111000D02*
G03X2044072Y2109429I2600J0D01*
G01X2044100Y2233500D02*
G03X2038900I-2600J0D01*
X2044100I2600J0*
G01X2039100Y2107000D02*
G03X2033900I-2600J0D01*
G01X2038021Y2104891D02*
G03X2039100Y2107000I-1521J2109D01*
G01X2039600Y2102500D02*
G03X2038021Y2104891I-2600J0D01*
G01X2034400Y2102500D02*
G03X2039600I2600J0D01*
G01X2035479Y2104609D02*
G03X2034400Y2102500I1521J-2109D01*
G01X2033900Y2107000D02*
G03X2035479Y2104609I2600J0D01*
G01X2038633Y2195163D02*
G03X2033433I-2600J0D01*
X2038633I2600J0*
G01X2038600Y2003500D02*
G03X2033400I-2600J0D01*
X2038600I2600J0*
G01Y1991500D02*
G03X2033400I-2600J0D01*
X2038600I2600J0*
G01Y1980500D02*
G03X2033400I-2600J0D01*
X2038600I2600J0*
G01X2038100Y1895500D02*
G03X2032900I-2600J0D01*
X2038100I2600J0*
G01X2036100Y2183500D02*
G03X2030900I-2600J0D01*
G01X2036100D02*
X2036100D01*
X2035993Y2182763D02*
G03X2036100Y2183500I-2493J737D01*
G01X2038157Y2180200D02*
G03X2035993Y2182763I-2600J0D01*
G01X2032957Y2180200D02*
G03X2038157I2600J0D01*
G01X2032957D02*
X2032957D01*
X2033064Y2180937D02*
G03X2032957Y2180200I2493J-737D01*
G01X2030900Y2183500D02*
G03X2033064Y2180937I2600J0D01*
G01X2036100Y1879000D02*
G03X2030900I-2600J0D01*
X2036100I2600J0*
G01X2032409Y2267288D02*
G03X2030104Y2264704I295J-2584D01*
G01X2032400Y2267500D02*
G03X2032409Y2267288I2600J0D01*
G01X2037500Y2268214D02*
G03X2032400Y2267500I-2500J-714D01*
G01X2042600D02*
G03X2037500Y2268214I-2600J0D01*
G01X2040699Y2264996D02*
G03X2042600Y2267500I-699J2504D01*
G01X2040984Y2263813D02*
G03X2040699Y2264996I-2600J-0D01*
G01X2035784Y2263813D02*
G03X2040984I2600J-0D01*
G01X2036172Y2265179D02*
G03X2035784Y2263813I2212J-1366D01*
G01X2035296Y2264917D02*
G03X2036172Y2265179I-296J2583D01*
G01X2035304Y2264704D02*
G03X2035296Y2264917I-2600J0D01*
G01X2030104Y2264704D02*
G03X2035304I2600J0D01*
G01X2032100Y1900500D02*
G03X2026900I-2600J0D01*
X2032100I2600J0*
G01X2031600Y2395500D02*
G03X2026400I-2600J0D01*
X2031600I2600J0*
G01X2031500Y1916400D02*
G03X2023300I-4100J0D01*
X2031500I4100J0*
G01X2027600Y2267500D02*
G03X2022400I-2600J0D01*
X2027600I2600J0*
G01X2027100Y2351000D02*
G03X2021900I-2600J0D01*
X2027100I2600J0*
G01X2026600Y1857000D02*
G03X2021400I-2600J0D01*
X2026600I2600J0*
G01X2025600Y2277500D02*
G03X2020400I-2600J0D01*
X2025600I2600J0*
G01X2023530Y1965045D02*
G03X2020400Y1962500I-530J-2545D01*
G01X2023300Y1966400D02*
G03X2023530Y1965045I4100J0D01*
G01X2031500Y1966400D02*
G03X2023300I-4100J0D01*
G01X2025591Y1962721D02*
G03X2031500Y1966400I1809J3679D01*
G01X2025600Y1962500D02*
G03X2025591Y1962721I-2600J0D01*
G01X2025600Y1962500D02*
X2025600D01*
X2020400D02*
G03X2025600I2600J0D01*
G01X2021432Y2196093D02*
G03X2019026Y2193500I194J-2593D01*
G01X2021400Y2196500D02*
G03X2021432Y2196093I2600J0D01*
G01X2026600Y2196500D02*
G03X2021400I-2600J0D01*
G01X2026559Y2196039D02*
G03X2026600Y2196500I-2559J461D01*
G01X2028072Y2195071D02*
G03X2026559Y2196039I-2072J-1571D01*
G01X2027900Y2196000D02*
G03X2028072Y2195071I2600J0D01*
G01X2033100Y2196000D02*
G03X2027900I-2600J0D01*
G01X2028428Y2194429D02*
G03X2033100Y2196000I2072J1571D01*
G01X2028600Y2193500D02*
G03X2028428Y2194429I-2600J-0D01*
G01X2023813Y2192094D02*
G03X2028600Y2193500I2187J1406D01*
G01X2019026D02*
G03X2023813Y2192094I2600J0D01*
G01X2024100Y1865000D02*
G03X2018900I-2600J0D01*
X2024100I2600J0*
G01X2023600Y2415000D02*
G03X2018400I-2600J0D01*
X2023600I2600J0*
G01Y2183500D02*
G03X2018400I-2600J0D01*
X2023600I2600J0*
G01X2023100Y2443000D02*
G03X2017900I-2600J0D01*
X2023100I2600J0*
G01Y2385500D02*
G03X2017900I-2600J0D01*
X2023100I2600J0*
G01Y1929500D02*
G03X2017900I-2600J0D01*
X2023100I2600J0*
G01X2022600Y2291500D02*
G03X2017400I-2600J0D01*
X2022600I2600J0*
G01X2019600Y1891000D02*
G03X2014400I-2600J0D01*
X2019600I2600J0*
G01X2018600Y1911000D02*
G03X2013400I-2600J0D01*
X2018600I2600J0*
G01X2018100Y2267500D02*
G03X2012900I-2600J0D01*
X2018100I2600J0*
G01X2017000Y1879714D02*
G03X2011900Y1879000I-2500J-714D01*
G01X2022100D02*
G03X2017000Y1879714I-2600J0D01*
G01Y1878286D02*
G03X2022100Y1879000I2500J714D01*
G01X2011900D02*
G03X2017000Y1878286I2600J0D01*
G01X2016100Y2277500D02*
G03X2010900I-2600J0D01*
X2016100I2600J0*
G01X2017409Y2125272D02*
G03X2009209I-4100J0D01*
X2017409I4100J0*
G01Y2115272D02*
G03X2009209I-4100J0D01*
X2017409I4100J0*
G01Y2105272D02*
G03X2009209I-4100J0D01*
X2017409I4100J0*
G01Y2095272D02*
G03X2009209I-4100J0D01*
X2017409I4100J0*
G01Y2085272D02*
G03X2009209I-4100J0D01*
X2017409I4100J0*
G01Y2075272D02*
G03X2009209I-4100J0D01*
X2017409I4100J0*
G01Y2065272D02*
G03X2009209I-4100J0D01*
X2017409I4100J0*
G01Y2055272D02*
G03X2009209I-4100J0D01*
X2017409I4100J0*
G01Y2045272D02*
G03X2009209I-4100J0D01*
X2017409I4100J0*
G01Y2035272D02*
G03X2009209I-4100J0D01*
X2017409I4100J0*
G01X2013100Y2336500D02*
G03X2007900I-2600J0D01*
X2013100I2600J0*
G01Y2246500D02*
G03X2007900I-2600J0D01*
X2013100I2600J0*
G01X2012757Y2176843D02*
G03X2007557I-2600J-0D01*
X2012757I2600J-0*
G01X2009359Y2196096D02*
G03X2006900Y2193500I141J-2596D01*
G01X2009337Y2196437D02*
G03X2009359Y2196096I2600J0D01*
G01X2009337Y2196437D02*
X2009337D01*
X2014537D02*
G03X2009337I-2600J0D01*
G01X2012078Y2193841D02*
G03X2014537Y2196437I-141J2596D01*
G01X2012100Y2193500D02*
G03X2012078Y2193841I-2600J0D01*
G01X2012100Y2193500D02*
X2012100D01*
X2006900D02*
G03X2012100I2600J0D01*
G01X2008600Y2168000D02*
G03X2003400I-2600J0D01*
X2008600I2600J0*
G01Y1881500D02*
G03X2003400I-2600J0D01*
X2008600I2600J0*
G01X2007600Y2331000D02*
G03X2002400I-2600J0D01*
X2007600I2600J0*
G01Y2201000D02*
G03X2002400I-2600J0D01*
X2007600I2600J0*
G01X2006025Y1938114D02*
G03X2001910Y1936000I-1515J-2114D01*
G01X2010974Y1937000D02*
G03X2006025Y1938114I-2600J0D01*
G01X2006860Y1934887D02*
G03X2010974Y1937000I1514J2113D01*
G01X2001910Y1936000D02*
G03X2006860Y1934887I2600J0D01*
G01X2006100Y1960500D02*
G03X2000900I-2600J0D01*
X2006100I2600J0*
G01X2001839Y1952500D02*
G03X2000900Y1950500I1661J-2000D01*
G01Y1954500D02*
G03X2001839Y1952500I2600J0D01*
G01X2006100Y1954500D02*
G03X2000900I-2600J0D01*
G01X2005161Y1952500D02*
G03X2006100Y1954500I-1661J2000D01*
G01Y1950500D02*
G03X2005161Y1952500I-2600J0D01*
G01X2000900Y1950500D02*
G03X2006100I2600J0D01*
G01Y1941200D02*
G03X2000900I-2600J0D01*
X2006100I2600J0*
G01X2003600Y2385500D02*
G03X1998400I-2600J0D01*
X2003600I2600J0*
G01X2002100Y2267500D02*
G03X1996900I-2600J0D01*
X2002100I2600J0*
G01X2001600Y1907500D02*
G03X1996400I-2600J0D01*
X2001600I2600J0*
G01X2001300Y2195878D02*
G03X1996100I-2600J-0D01*
X2001300I2600J-0*
G01X2002709Y2125272D02*
G03X1994509I-4100J0D01*
X2002709I4100J0*
G01Y2115272D02*
G03X1994509I-4100J0D01*
X2002709I4100J0*
G01Y2105272D02*
G03X1994509I-4100J0D01*
X2002709I4100J0*
G01Y2095272D02*
G03X1994509I-4100J0D01*
X2002709I4100J0*
G01Y2085272D02*
G03X1994509I-4100J0D01*
X2002709I4100J0*
G01Y2075272D02*
G03X1994509I-4100J0D01*
X2002709I4100J0*
G01Y2065272D02*
G03X1994509I-4100J0D01*
X2002709I4100J0*
G01Y2055272D02*
G03X1994509I-4100J0D01*
X2002709I4100J0*
G01X1998886Y2142214D02*
G03X1993686I-2600J0D01*
X1998886I2600J0*
G01X2020000Y2230500D02*
G03X1992800I-13600J0D01*
X2020000I13600J0*
G01X1997100Y2415000D02*
G03X1991900I-2600J0D01*
X1997100I2600J0*
G01X1997099Y2280069D02*
G03X1991900Y2280000I-2599J-69D01*
G01X2000100Y2277500D02*
G03X1997099Y2280069I-2600J0D01*
G01X1994901Y2277431D02*
G03X2000100Y2277500I2599J69D01*
G01X1991900Y2280000D02*
G03X1994901Y2277431I2600J0D01*
G01X1995379Y2047797D02*
G03X1990900Y2046000I-1879J-1797D01*
G01X2002709Y2045272D02*
G03X1995379Y2047797I-4100J0D01*
G01X1994802Y2043750D02*
G03X2002709Y2045272I3807J1522D01*
G01X1990900Y2046000D02*
G03X1994802Y2043750I2600J0D01*
G01X1994527Y2034889D02*
G03X1990900Y2032500I-1027J-2389D01*
G01X1994509Y2035272D02*
G03X1994527Y2034889I4100J0D01*
G01X1994509Y2035272D02*
X1994509D01*
X2002709D02*
G03X1994509I-4100J0D01*
G01X1996062Y2032059D02*
G03X2002709Y2035272I2547J3213D01*
G01X1990900Y2032500D02*
G03X1996062Y2032059I2600J0D01*
G01X1996100Y1959000D02*
G03X1990900I-2600J0D01*
X1996100I2600J0*
G01Y1952500D02*
G03X1990900I-2600J0D01*
X1996100I2600J0*
G01X1995300Y1964200D02*
G03X1990100I-2600J0D01*
X1995300I2600J0*
G01X1994100Y2193500D02*
G03X1988900I-2600J0D01*
X1994100I2600J0*
G01X1990817Y2147009D02*
G03X1988900Y2144500I683J-2509D01*
G01X1990696Y2147796D02*
G03X1990817Y2147009I2600J-0D01*
G01X1995896Y2147796D02*
G03X1990696I-2600J-0D01*
G01X1993978Y2145287D02*
G03X1995896Y2147796I-682J2509D01*
G01X1994100Y2144500D02*
G03X1993978Y2145287I-2600J-0D01*
G01X1988900Y2144500D02*
G03X1994100I2600J0D01*
G01X1992200Y2183500D02*
G03X1987000I-2600J0D01*
X1992200I2600J0*
G01X1990280Y2240559D02*
G03X1985080I-2600J-0D01*
X1990280I2600J-0*
G01X1989469Y2210431D02*
G03X1984269I-2600J-0D01*
G01X1988624Y2208512D02*
G03X1989469Y2210431I-1755J1919D01*
G01X1990590Y2205990D02*
G03X1988624Y2208512I-2600J-0D01*
G01X1985390Y2205990D02*
G03X1990590I2600J-0D01*
G01X1986236Y2207909D02*
G03X1985390Y2205990I1754J-1919D01*
G01X1984269Y2210431D02*
G03X1986236Y2207909I2600J-0D01*
G01X1989100Y1920000D02*
G03X1983900I-2600J0D01*
X1989100I2600J0*
G01X1986011Y1962868D02*
G03X1983660Y1960280I249J-2588D01*
G01X1984900Y1965000D02*
G03X1986011Y1962868I2600J0D01*
G01X1990100Y1965000D02*
G03X1984900I-2600J0D01*
G01X1987748Y1962412D02*
G03X1990100Y1965000I-248J2588D01*
G01X1988860Y1960280D02*
G03X1987748Y1962412I-2600J0D01*
G01X1983660Y1960280D02*
G03X1988860I2600J0D01*
G01X1988790Y1937690D02*
G03X1983590I-2600J-0D01*
G01X1988220Y1936066D02*
G03X1988790Y1937690I-2030J1624D01*
G01X1991985Y1933741D02*
G03X1988220Y1936066I-2600J0D01*
G01X1986785Y1933741D02*
G03X1991985I2600J0D01*
G01X1987355Y1935365D02*
G03X1986785Y1933741I2030J-1624D01*
G01X1983590Y1937690D02*
G03X1987355Y1935365I2600J-0D01*
G01X1988600Y2100500D02*
G03X1983400I-2600J0D01*
X1988600I2600J0*
G01X1988100Y2358500D02*
G03X1982900I-2600J0D01*
X1988100I2600J0*
G01X1987400Y2023500D02*
G03X1982200I-2600J0D01*
X1987400I2600J0*
G01X1987100Y1979551D02*
G03X1981900I-2600J-0D01*
G01X1986349Y1977723D02*
G03X1987100Y1979551I-1849J1828D01*
G01X1987000Y1977161D02*
G03X1986349Y1977723I-2000J-1661D01*
G01X1991600Y1975500D02*
G03X1987000Y1977161I-2600J0D01*
G01Y1973839D02*
G03X1991600Y1975500I2000J1661D01*
G01X1982400D02*
G03X1987000Y1973839I2600J0D01*
G01X1983151Y1977328D02*
G03X1982400Y1975500I1849J-1828D01*
G01X1981900Y1979551D02*
G03X1983151Y1977328I2600J-0D01*
G01X1985500Y2255000D02*
G03X1980300I-2600J0D01*
X1985500I2600J0*
G01X1985095Y1952086D02*
G03X1979895I-2600J-0D01*
G01X1984839Y1950961D02*
G03X1985095Y1952086I-2344J1125D01*
G01X1986600Y1948500D02*
G03X1984839Y1950961I-2600J0D01*
G01X1981400Y1948500D02*
G03X1986600I2600J0D01*
G01X1981656Y1949625D02*
G03X1981400Y1948500I2344J-1125D01*
G01X1979895Y1952086D02*
G03X1981656Y1949625I2600J-0D01*
G01X1985044Y1930500D02*
G03X1979844I-2600J0D01*
X1985044I2600J0*
G01X1981322Y2195977D02*
G03X1979556Y2193514I834J-2463D01*
G01X1981073Y2197088D02*
G03X1981322Y2195977I2600J0D01*
G01X1986273Y2197088D02*
G03X1981073I-2600J0D01*
G01X1984506Y2194625D02*
G03X1986273Y2197088I-833J2463D01*
G01X1984756Y2193514D02*
G03X1984506Y2194625I-2600J-0D01*
G01X1979556Y2193514D02*
G03X1984756I2600J-0D01*
G01X1981213Y1858264D02*
G03X1979276Y1855750I663J-2514D01*
G01X1980900Y1859500D02*
G03X1981213Y1858264I2600J0D01*
G01X1986100Y1859500D02*
G03X1980900I-2600J0D01*
G01X1984163Y1856986D02*
G03X1986100Y1859500I-663J2514D01*
G01X1984360Y1856518D02*
G03X1984163Y1856986I-2484J-768D01*
G01X1988000Y1856161D02*
G03X1984360Y1856518I-2000J-1661D01*
G01X1992600Y1854500D02*
G03X1988000Y1856161I-2600J0D01*
G01Y1852839D02*
G03X1992600Y1854500I2000J1661D01*
G01X1983516Y1853732D02*
G03X1988000Y1852839I2484J768D01*
G01X1979276Y1855750D02*
G03X1983516Y1853732I2600J0D01*
G01X1984100Y2135500D02*
G03X1978900I-2600J0D01*
X1984100I2600J0*
G01X1983600Y2324000D02*
G03X1978400I-2600J0D01*
X1983600I2600J0*
G01X1982600Y1885000D02*
G03X1977400I-2600J0D01*
X1982600I2600J0*
G01X1982100Y2315000D02*
G03X1976900I-2600J0D01*
X1982100I2600J0*
G01Y1906500D02*
G03X1976900I-2600J0D01*
X1982100I2600J0*
G01X1981601Y2245490D02*
G03X1976401I-2600J-0D01*
X1981601I2600J-0*
G01X1981600Y1965000D02*
G03X1976400I-2600J0D01*
X1981600I2600J0*
G01X1977291Y2225806D02*
G03X1976000Y2223559I1309J-2247D01*
G01X1976224Y2227905D02*
G03X1977291Y2225806I2600J0D01*
G01X1981424Y2227905D02*
G03X1976224I-2600J0D01*
G01X1980133Y2225659D02*
G03X1981424Y2227905I-1309J2246D01*
G01X1981200Y2223559D02*
G03X1980133Y2225659I-2600J0D01*
G01X1976000Y2223559D02*
G03X1981200I2600J0D01*
G01X1980600Y1943000D02*
G03X1975400I-2600J0D01*
X1980600I2600J0*
G01Y1896500D02*
G03X1975400I-2600J0D01*
X1980600I2600J0*
G01X1977278Y2284650D02*
G03X1975280Y2282120I602J-2530D01*
G01X1976900Y2286000D02*
G03X1977278Y2284650I2600J0D01*
G01X1979431Y2288599D02*
G03X1976900Y2286000I69J-2599D01*
G01X1979400Y2289000D02*
G03X1979431Y2288599I2600J0D01*
G01X1984600Y2289000D02*
G03X1979400I-2600J0D01*
G01X1984583Y2288699D02*
G03X1984600Y2289000I-2583J301D01*
G01X1987765Y2286165D02*
G03X1984583Y2288699I-2600J0D01*
G01X1982565Y2286165D02*
G03X1987765I2600J0D01*
G01X1982583Y2286466D02*
G03X1982565Y2286165I2582J-301D01*
G01X1982069Y2286401D02*
G03X1982583Y2286466I-69J2599D01*
G01X1982100Y2286000D02*
G03X1982069Y2286401I-2600J-0D01*
G01X1980102Y2283471D02*
G03X1982100Y2286000I-602J2529D01*
G01X1980469Y2282354D02*
G03X1980102Y2283471I-2589J-234D01*
G01X1985480Y2281380D02*
G03X1980469Y2282354I-2600J-0D01*
G01X1984073Y2279070D02*
G03X1985480Y2281380I-1193J2310D01*
G01X1984600Y2277500D02*
G03X1984073Y2279070I-2600J0D01*
G01X1979400Y2277500D02*
G03X1984600I2600J0D01*
G01X1980807Y2279810D02*
G03X1979400Y2277500I1193J-2310D01*
G01X1980290Y2281146D02*
G03X1980807Y2279810I2590J234D01*
G01X1975280Y2282120D02*
G03X1980290Y2281146I2600J0D01*
G01X1979600Y2126000D02*
G03X1974400I-2600J0D01*
X1979600I2600J0*
G01X1982400Y2397417D02*
G03X1974200I-4100J-0D01*
X1982400I4100J-0*
G01Y2379700D02*
G03X1974200I-4100J0D01*
X1982400I4100J0*
G01X1979304Y1930204D02*
G03X1974104I-2600J0D01*
X1979304I2600J0*
G01X1977645Y2120514D02*
G03X1973400Y2118500I-1645J-2014D01*
G01X1977436Y2121536D02*
G03X1977645Y2120514I2600J-0D01*
G01X1982636Y2121536D02*
G03X1977436I-2600J-0D01*
G01X1978391Y2119522D02*
G03X1982636Y2121536I1645J2014D01*
G01X1978600Y2118500D02*
G03X1978391Y2119522I-2600J-0D01*
G01X1973400Y2118500D02*
G03X1978600I2600J0D01*
G01X1977737Y2184781D02*
G03X1973000Y2183300I-2137J-1481D01*
G01X1982600Y2183500D02*
G03X1977737Y2184781I-2600J0D01*
G01X1977863Y2182019D02*
G03X1982600Y2183500I2137J1481D01*
G01X1973000Y2183300D02*
G03X1977863Y2182019I2600J0D01*
G01X1978100Y2069000D02*
G03X1972900I-2600J0D01*
X1978100I2600J0*
G01Y1920000D02*
G03X1972900I-2600J0D01*
X1978100I2600J0*
G01X1977600Y1868000D02*
G03X1972400I-2600J0D01*
X1977600I2600J0*
G01X1976600Y1913000D02*
G03X1971400I-2600J0D01*
X1976600I2600J0*
G01X1975495Y2304805D02*
G03X1971023Y2303000I-1872J-1805D01*
G01X1975400Y2305500D02*
G03X1975495Y2304805I2600J0D01*
G01X1980600Y2305500D02*
G03X1975400I-2600J0D01*
G01X1976128Y2303695D02*
G03X1980600Y2305500I1872J1805D01*
G01X1976223Y2303000D02*
G03X1976128Y2303695I-2600J0D01*
G01X1971023Y2303000D02*
G03X1976223I2600J0D01*
G01X1976100Y2356500D02*
G03X1970900I-2600J0D01*
X1976100I2600J0*
G01X1974600Y2344000D02*
G03X1969400I-2600J0D01*
X1974600I2600J0*
G01Y2206591D02*
G03X1969400I-2600J0D01*
X1974600I2600J0*
G01Y2166500D02*
G03X1969400I-2600J0D01*
X1974600I2600J0*
G01Y2052500D02*
G03X1969400I-2600J0D01*
X1974600I2600J0*
G01X1973100Y2331000D02*
G03X1967900I-2600J0D01*
X1973100I2600J0*
G01X1972100Y2249000D02*
G03X1966900I-2600J0D01*
X1972100I2600J0*
G01Y2218800D02*
G03X1966900I-2600J0D01*
X1972100I2600J0*
G01Y2213200D02*
G03X1966900I-2600J0D01*
X1972100I2600J0*
G01Y2192500D02*
G03X1966900I-2600J0D01*
X1972100I2600J0*
G01X1972080Y2234400D02*
G03X1966880I-2600J0D01*
X1972080I2600J0*
G01X1971861Y2186239D02*
G03X1966661I-2600J0D01*
X1971861I2600J0*
G01X1970412Y2200383D02*
G03X1966569Y2198100I-1243J-2283D01*
G01X1970410Y2200490D02*
G03X1970412Y2200383I2600J-0D01*
G01X1975610Y2200490D02*
G03X1970410I-2600J-0D01*
G01X1971766Y2198207D02*
G03X1975610Y2200490I1244J2283D01*
G01X1971769Y2198100D02*
G03X1971766Y2198207I-2600J-0D01*
G01X1966569Y2198100D02*
G03X1971769I2600J0D01*
G01X1970100Y2348000D02*
G03X1964900I-2600J0D01*
X1970100I2600J0*
G01X1968223Y2268877D02*
G03X1963023I-2600J-0D01*
X1968223I2600J-0*
G01X1967100Y2166500D02*
G03X1961900I-2600J0D01*
X1967100I2600J0*
G01Y2023500D02*
G03X1961900I-2600J0D01*
X1967100I2600J0*
G01X1965600Y2361500D02*
G03X1960400I-2600J0D01*
X1965600I2600J0*
G01X1964952Y1920542D02*
G03X1959809Y1920000I-2543J-542D01*
G01X1968100Y1918000D02*
G03X1964952Y1920542I-2600J0D01*
G01X1962957Y1917458D02*
G03X1968100Y1918000I2543J542D01*
G01X1959809Y1920000D02*
G03X1962957Y1917458I2600J0D01*
G01X1963100Y2123000D02*
G03X1957900I-2600J0D01*
X1963100I2600J0*
G01X1962100Y2422000D02*
G03X1956900I-2600J0D01*
X1962100I2600J0*
G01X1957620Y2338204D02*
G03X1956400Y2336000I1380J-2204D01*
G01X1956900Y2340000D02*
G03X1957620Y2338204I2600J0D01*
G01X1962100Y2340000D02*
G03X1956900I-2600J0D01*
G01X1960880Y2337796D02*
G03X1962100Y2340000I-1380J2204D01*
G01X1961600Y2336000D02*
G03X1960880Y2337796I-2600J0D01*
G01X1956400Y2336000D02*
G03X1961600I2600J0D01*
G01Y2263000D02*
G03X1956400I-2600J0D01*
X1961600I2600J0*
G01X1957339Y2227500D02*
G03X1956400Y2225500I1661J-2000D01*
G01Y2229500D02*
G03X1957339Y2227500I2600J0D01*
G01Y2231500D02*
G03X1956400Y2229500I1661J-2000D01*
G01Y2233500D02*
G03X1957339Y2231500I2600J0D01*
G01Y2235500D02*
G03X1956400Y2233500I1661J-2000D01*
G01Y2237500D02*
G03X1957339Y2235500I2600J0D01*
G01X1961600Y2237500D02*
G03X1956400I-2600J0D01*
G01X1960661Y2235500D02*
G03X1961600Y2237500I-1661J2000D01*
G01Y2233500D02*
G03X1960661Y2235500I-2600J0D01*
G01Y2231500D02*
G03X1961600Y2233500I-1661J2000D01*
G01Y2229500D02*
G03X1960661Y2231500I-2600J0D01*
G01Y2227500D02*
G03X1961600Y2229500I-1661J2000D01*
G01Y2225500D02*
G03X1960661Y2227500I-2600J0D01*
G01X1956400Y2225500D02*
G03X1961600I2600J0D01*
G01Y2216000D02*
G03X1956400I-2600J0D01*
X1961600I2600J0*
G01X1961100Y2205200D02*
G03X1955900I-2600J0D01*
X1961100I2600J0*
G01Y1962500D02*
G03X1955900I-2600J0D01*
X1961100I2600J0*
G01Y1954500D02*
G03X1955900I-2600J0D01*
X1961100I2600J0*
G01X1958308Y1936908D02*
G03X1955900Y1934315I192J-2593D01*
G01X1958306Y1937000D02*
G03X1958308Y1936908I2600J-0D01*
G01X1958306Y1937000D02*
X1958306D01*
X1958721Y1938409D02*
G03X1958306Y1937000I2185J-1409D01*
G01X1955900Y1941000D02*
G03X1958721Y1938409I2600J0D01*
G01X1961100Y1941000D02*
G03X1955900I-2600J0D01*
G01X1960685Y1939591D02*
G03X1961100Y1941000I-2185J1409D01*
G01X1963506Y1937000D02*
G03X1960685Y1939591I-2600J0D01*
G01X1961098Y1934407D02*
G03X1963506Y1937000I-192J2593D01*
G01X1961100Y1934315D02*
G03X1961098Y1934407I-2600J-0D01*
G01X1961100Y1934315D02*
X1961100D01*
X1955900D02*
G03X1961100I2600J-0D01*
G01X1960100Y2210800D02*
G03X1954900I-2600J0D01*
X1960100I2600J0*
G01X1958600Y2251000D02*
G03X1953400I-2600J0D01*
G01X1958454Y2250142D02*
G03X1958600Y2251000I-2454J858D01*
G01X1961600Y2247600D02*
G03X1958454Y2250142I-2600J0D01*
G01X1956400Y2247600D02*
G03X1961600I2600J0D01*
G01X1956546Y2248458D02*
G03X1956400Y2247600I2454J-858D01*
G01X1953400Y2251000D02*
G03X1956546Y2248458I2600J0D01*
G01X1958600Y2138000D02*
G03X1953400I-2600J0D01*
X1958600I2600J0*
G01X1953522Y2073713D02*
G03X1951604Y2071204I682J-2509D01*
G01X1953400Y2074500D02*
G03X1953522Y2073713I2600J0D01*
G01X1958600Y2074500D02*
G03X1953400I-2600J0D01*
G01X1956683Y2071991D02*
G03X1958600Y2074500I-683J2509D01*
G01X1956804Y2071204D02*
G03X1956683Y2071991I-2600J0D01*
G01X1951604Y2071204D02*
G03X1956804I2600J0D01*
G01X1954200Y2321000D02*
G03X1949000I-2600J0D01*
X1954200I2600J0*
G01Y2206400D02*
G03X1949000I-2600J0D01*
G01X1954003Y2205408D02*
G03X1954200Y2206400I-2403J992D01*
G01X1956414Y2202814D02*
G03X1954003Y2205408I-2600J0D01*
G01X1951214Y2202814D02*
G03X1956414I2600J0D01*
G01X1951411Y2203807D02*
G03X1951214Y2202814I2403J-993D01*
G01X1949000Y2206400D02*
G03X1951411Y2203807I2600J0D01*
G01X1956809Y2397417D02*
G03X1948609I-4100J-0D01*
X1956809I4100J-0*
G01Y2379700D02*
G03X1948609I-4100J0D01*
X1956809I4100J0*
G01X1951600Y2447000D02*
G03X1946400I-2600J0D01*
X1951600I2600J0*
G01Y2216500D02*
G03X1946400I-2600J0D01*
X1951600I2600J0*
G01X1946839Y1954500D02*
G03X1945900Y1952500I1661J-2000D01*
G01Y1956500D02*
G03X1946839Y1954500I2600J0D01*
G01Y1958500D02*
G03X1945900Y1956500I1661J-2000D01*
G01Y1960500D02*
G03X1946839Y1958500I2600J0D01*
G01X1951100Y1960500D02*
G03X1945900I-2600J0D01*
G01X1950161Y1958500D02*
G03X1951100Y1960500I-1661J2000D01*
G01Y1956500D02*
G03X1950161Y1958500I-2600J0D01*
G01Y1954500D02*
G03X1951100Y1956500I-1661J2000D01*
G01Y1952500D02*
G03X1950161Y1954500I-2600J0D01*
G01X1945900Y1952500D02*
G03X1951100I2600J0D01*
G01X1946839Y1937000D02*
G03X1945900Y1935000I1661J-2000D01*
G01Y1939000D02*
G03X1946839Y1937000I2600J0D01*
G01Y1941000D02*
G03X1945900Y1939000I1661J-2000D01*
G01Y1943000D02*
G03X1946839Y1941000I2600J0D01*
G01X1951100Y1943000D02*
G03X1945900I-2600J0D01*
G01X1950161Y1941000D02*
G03X1951100Y1943000I-1661J2000D01*
G01Y1939000D02*
G03X1950161Y1941000I-2600J0D01*
G01Y1937000D02*
G03X1951100Y1939000I-1661J2000D01*
G01Y1935000D02*
G03X1950161Y1937000I-2600J0D01*
G01X1945900Y1935000D02*
G03X1951100I2600J0D01*
G01X1949600Y2345500D02*
G03X1944400I-2600J0D01*
X1949600I2600J0*
G01X1948600Y2100500D02*
G03X1943400I-2600J0D01*
X1948600I2600J0*
G01X1947600Y2340000D02*
G03X1942400I-2600J0D01*
X1947600I2600J0*
G01Y2262500D02*
G03X1942400I-2600J0D01*
X1947600I2600J0*
G01X1944100Y2026500D02*
G03X1938900I-2600J0D01*
X1944100I2600J0*
G01Y1966000D02*
G03X1938900I-2600J0D01*
X1944100I2600J0*
G01X1942600Y2291500D02*
G03X1937400I-2600J0D01*
X1942600I2600J0*
G01Y2251000D02*
G03X1937400I-2600J0D01*
X1942600I2600J0*
G01X1941600Y2220000D02*
G03X1936400I-2600J0D01*
X1941600I2600J0*
G01Y2189000D02*
G03X1936400I-2600J0D01*
X1941600I2600J0*
G01X1942800Y2177500D02*
G03X1934600I-4100J0D01*
X1942800I4100J0*
G01Y2167500D02*
G03X1934600I-4100J0D01*
X1942800I4100J0*
G01Y2157500D02*
G03X1934600I-4100J0D01*
X1942800I4100J0*
G01Y2147500D02*
G03X1934600I-4100J0D01*
X1942800I4100J0*
G01Y2137500D02*
G03X1934600I-4100J0D01*
X1942800I4100J0*
G01X1939100Y2208500D02*
G03X1933900I-2600J0D01*
X1939100I2600J0*
G01X1938600Y2239500D02*
G03X1933400I-2600J0D01*
X1938600I2600J0*
G01X1938100Y2273500D02*
G03X1932900I-2600J0D01*
X1938100I2600J0*
G01X1934100Y1967500D02*
G03X1928900I-2600J0D01*
X1934100I2600J0*
G01X1927100Y1884500D02*
G03X1921900I-2600J0D01*
X1927100I2600J0*
G01X1924100Y2244000D02*
G03X1918900I-2600J0D01*
X1924100I2600J0*
G01Y1977500D02*
G03X1918900I-2600J0D01*
X1924100I2600J0*
G01X1922600Y2249500D02*
G03X1917400I-2600J0D01*
X1922600I2600J0*
G01X1919100Y2170500D02*
G03X1913900I-2600J0D01*
X1919100I2600J0*
G01X1913500Y2455100D02*
G03X1905300I-4100J0D01*
X1913500I4100J0*
G01Y2445100D02*
G03X1905300I-4100J0D01*
X1913500I4100J0*
G01Y2415100D02*
G03X1905300I-4100J0D01*
X1913500I4100J0*
G01Y2405100D02*
G03X1905300I-4100J0D01*
X1913500I4100J0*
G01Y2395100D02*
G03X1905300I-4100J0D01*
X1913500I4100J0*
G01Y2385100D02*
G03X1905300I-4100J0D01*
X1913500I4100J0*
G01Y2375100D02*
G03X1905300I-4100J0D01*
X1913500I4100J0*
G01Y2365100D02*
G03X1905300I-4100J0D01*
X1913500I4100J0*
G01Y2355100D02*
G03X1905300I-4100J0D01*
X1913500I4100J0*
G01Y2345100D02*
G03X1905300I-4100J0D01*
X1913500I4100J0*
G01Y2335100D02*
G03X1905300I-4100J0D01*
X1913500I4100J0*
G01Y2325100D02*
G03X1905300I-4100J0D01*
X1913500I4100J0*
G01Y2315100D02*
G03X1905300I-4100J0D01*
X1913500I4100J0*
G01Y2305100D02*
G03X1905300I-4100J0D01*
X1913500I4100J0*
G01Y2295100D02*
G03X1905300I-4100J0D01*
X1913500I4100J0*
G01Y2285100D02*
G03X1905300I-4100J0D01*
X1913500I4100J0*
G01Y2275100D02*
G03X1905300I-4100J0D01*
X1913500I4100J0*
G01Y2265100D02*
G03X1905300I-4100J0D01*
X1913500I4100J0*
G01Y2245100D02*
G03X1905300I-4100J0D01*
X1913500I4100J0*
G01Y2235100D02*
G03X1905300I-4100J0D01*
X1913500I4100J0*
G01Y2225100D02*
G03X1905300I-4100J0D01*
X1913500I4100J0*
G01Y2215100D02*
G03X1905300I-4100J0D01*
X1913500I4100J0*
G01Y2205100D02*
G03X1905300I-4100J0D01*
X1913500I4100J0*
G01Y2195100D02*
G03X1905300I-4100J0D01*
X1913500I4100J0*
G01Y2185100D02*
G03X1905300I-4100J0D01*
X1913500I4100J0*
G01Y2175100D02*
G03X1905300I-4100J0D01*
X1913500I4100J0*
G01Y2165100D02*
G03X1905300I-4100J0D01*
X1913500I4100J0*
G01Y2155100D02*
G03X1905300I-4100J0D01*
X1913500I4100J0*
G01Y2145100D02*
G03X1905300I-4100J0D01*
X1913500I4100J0*
G01Y2135100D02*
G03X1905300I-4100J0D01*
X1913500I4100J0*
G01Y2125100D02*
G03X1905300I-4100J0D01*
X1913500I4100J0*
G01Y2115100D02*
G03X1905300I-4100J0D01*
X1913500I4100J0*
G01Y2105100D02*
G03X1905300I-4100J0D01*
X1913500I4100J0*
G01Y2095100D02*
G03X1905300I-4100J0D01*
X1913500I4100J0*
G01Y2085100D02*
G03X1905300I-4100J0D01*
X1913500I4100J0*
G01Y2075100D02*
G03X1905300I-4100J0D01*
X1913500I4100J0*
G01Y2065100D02*
G03X1905300I-4100J0D01*
X1913500I4100J0*
G01Y2055100D02*
G03X1905300I-4100J0D01*
X1913500I4100J0*
G01Y2045100D02*
G03X1905300I-4100J0D01*
X1913500I4100J0*
G01Y2035100D02*
G03X1905300I-4100J0D01*
X1913500I4100J0*
G01Y2025100D02*
G03X1905300I-4100J0D01*
X1913500I4100J0*
G01Y2015100D02*
G03X1905300I-4100J0D01*
X1913500I4100J0*
G01Y2005100D02*
G03X1905300I-4100J0D01*
X1913500I4100J0*
G01Y1995100D02*
G03X1905300I-4100J0D01*
X1913500I4100J0*
G01Y1985100D02*
G03X1905300I-4100J0D01*
X1913500I4100J0*
G01Y1975100D02*
G03X1905300I-4100J0D01*
X1913500I4100J0*
G01X1913296Y1966379D02*
G03X1905300Y1965100I-3896J-1279D01*
G01X1918100Y1965000D02*
G03X1913296Y1966379I-2600J0D01*
G01X1913252Y1963694D02*
G03X1918100Y1965000I2248J1306D01*
G01X1905300Y1965100D02*
G03X1913252Y1963694I4100J0D01*
G01X1913500Y1955100D02*
G03X1905300I-4100J0D01*
X1913500I4100J0*
G01Y1945100D02*
G03X1905300I-4100J0D01*
X1913500I4100J0*
G01Y1935100D02*
G03X1905300I-4100J0D01*
X1913500I4100J0*
G01Y1925100D02*
G03X1905300I-4100J0D01*
X1913500I4100J0*
G01Y1915100D02*
G03X1905300I-4100J0D01*
X1913500I4100J0*
G01Y1905100D02*
G03X1905300I-4100J0D01*
X1913500I4100J0*
G01Y1895100D02*
G03X1905300I-4100J0D01*
X1913500I4100J0*
G01Y1885100D02*
G03X1905300I-4100J0D01*
X1913500I4100J0*
G01X1906241Y2432487D02*
G03X1904400Y2430000I759J-2487D01*
G01X1905300Y2435100D02*
G03X1906241Y2432487I4100J0D01*
G01X1913500Y2435100D02*
G03X1905300I-4100J0D01*
G01X1909400Y2431000D02*
G03X1913500Y2435100I0J4100D01*
G01X1909600Y2430000D02*
G03X1909400Y2431000I-2600J0D01*
G01X1909474Y2429199D02*
G03X1909600Y2430000I-2474J801D01*
G01X1913500Y2425100D02*
G03X1909474Y2429199I-4100J0D01*
G01X1905300Y2425100D02*
G03X1913500I4100J0D01*
G01X1906116Y2427555D02*
G03X1905300Y2425100I3284J-2455D01*
G01X1904400Y2430000D02*
G03X1906116Y2427555I2600J0D01*
G01X1905614Y2253526D02*
G03X1902400Y2251000I-614J-2526D01*
G01X1905300Y2255100D02*
G03X1905614Y2253526I4100J0D01*
G01X1913500Y2255100D02*
G03X1905300I-4100J0D01*
G01X1907563Y2251434D02*
G03X1913500Y2255100I1837J3666D01*
G01X1907600Y2251000D02*
G03X1907563Y2251434I-2600J0D01*
G01X1907600Y2251000D02*
X1907600D01*
X1902400D02*
G03X1907600I2600J0D01*
G01X1901900Y2467499D02*
X2087800D01*
X1901900Y2466599D02*
X2087800D01*
X1901900Y2465699D02*
X2087800D01*
X1901900Y2464799D02*
X2087800D01*
X1901900Y2463899D02*
X2087800D01*
X1901900Y2462999D02*
X2087800D01*
X1901900Y2462099D02*
X2087800D01*
X1901900Y2461199D02*
X2087800D01*
X1901900Y2460299D02*
X2087800D01*
X1901900Y2459399D02*
X2087800D01*
X1911693Y2458499D02*
X2087800D01*
X1912651Y2457599D02*
X2087800D01*
X1913175Y2456699D02*
X2087800D01*
X1913440Y2455799D02*
X2087800D01*
X1913495Y2454899D02*
X2087800D01*
X1913349Y2453999D02*
X2087800D01*
X1912978Y2453099D02*
X2087800D01*
X1912297Y2452199D02*
X2087800D01*
X1910936Y2451299D02*
X2087800D01*
X1901900Y2450399D02*
X2087800D01*
X1949719Y2449499D02*
X2087800D01*
X1951050Y2448599D02*
X2087800D01*
X1951504Y2447699D02*
X2087800D01*
X1951592Y2446799D02*
X2087800D01*
X1951355Y2445899D02*
X2087800D01*
X2022163Y2444999D02*
X2087800D01*
X2022856Y2444099D02*
X2087800D01*
X2023092Y2443199D02*
X2087800D01*
X2023004Y2442299D02*
X2087800D01*
X2022548Y2441399D02*
X2087800D01*
X2021210Y2440499D02*
X2087800D01*
X1901900Y2439599D02*
X2087800D01*
X1911365Y2438699D02*
X2087800D01*
X1912487Y2437799D02*
X2087800D01*
X1913084Y2436899D02*
X2087800D01*
X1913400Y2435999D02*
X2087800D01*
X1913500Y2435099D02*
X2087800D01*
X1913400Y2434199D02*
X2087800D01*
X1913083Y2433299D02*
X2087800D01*
X1912484Y2432399D02*
X2087800D01*
X1911360Y2431499D02*
X2087800D01*
X1909530Y2430599D02*
X2087800D01*
X1909582Y2429699D02*
X2087800D01*
X1911169Y2428799D02*
X2087800D01*
X1912396Y2427899D02*
X2087800D01*
X2053163Y2426999D02*
X2087800D01*
X2053856Y2426099D02*
X2087800D01*
X2054092Y2425199D02*
X2087800D01*
X2054004Y2424299D02*
X2087800D01*
X2053548Y2423399D02*
X2087800D01*
X2052210Y2422499D02*
X2087800D01*
X1962069Y2421599D02*
X2087800D01*
X1961751Y2420699D02*
X2087800D01*
X1960884Y2419799D02*
X2087800D01*
X1910943Y2418899D02*
X2087800D01*
X1912300Y2417999D02*
X2087800D01*
X2022535Y2417099D02*
X2087800D01*
X2023307Y2416199D02*
X2087800D01*
X2023583Y2415299D02*
X2087800D01*
X2023530Y2414399D02*
X2087800D01*
X2023123Y2413499D02*
X2087800D01*
X2021997Y2412599D02*
X2087800D01*
X1911689Y2411699D02*
X2087800D01*
X1901900Y2410799D02*
X2087800D01*
X1901900Y2409899D02*
X2087800D01*
X1910669Y2408999D02*
X2087800D01*
X1912196Y2408099D02*
X2087800D01*
X1912922Y2407199D02*
X2087800D01*
X1913321Y2406299D02*
X2087800D01*
X1913489Y2405399D02*
X2087800D01*
X1913456Y2404499D02*
X2087800D01*
X1913215Y2403599D02*
X2087800D01*
X1912723Y2402699D02*
X2087800D01*
X1911831Y2401799D02*
X2087800D01*
X1980464Y2400899D02*
X2087800D01*
X1981485Y2399999D02*
X2087800D01*
X1982039Y2399099D02*
X2087800D01*
X1982325Y2398199D02*
X2087800D01*
X2030877Y2397299D02*
X2087800D01*
X2031440Y2396399D02*
X2087800D01*
X2031600Y2395499D02*
X2087800D01*
X2031439Y2394599D02*
X2087800D01*
X2030875Y2393699D02*
X2087800D01*
X1912793Y2392799D02*
X2087800D01*
X1911962Y2391899D02*
X2087800D01*
X1901900Y2390999D02*
X2087800D01*
X1901900Y2390099D02*
X2087800D01*
X1909504Y2389199D02*
X2087800D01*
X2077877Y2388299D02*
X2087800D01*
X2078440Y2387399D02*
X2087800D01*
X2078600Y2386499D02*
X2087800D01*
X2078439Y2385599D02*
X2087800D01*
X2077875Y2384699D02*
X2087800D01*
X2022466Y2383799D02*
X2087800D01*
X1980865Y2382899D02*
X2087800D01*
X1981695Y2381999D02*
X2087800D01*
X1982154Y2381099D02*
X2087800D01*
X1982370Y2380199D02*
X2087800D01*
X1982380Y2379299D02*
X2087800D01*
X1982188Y2378399D02*
X2087800D01*
X1981759Y2377499D02*
X2087800D01*
X1980982Y2376599D02*
X2087800D01*
X1979194Y2375699D02*
X2087800D01*
X1913489Y2374799D02*
X2087800D01*
X1913320Y2373899D02*
X2087800D01*
X1912921Y2372999D02*
X2087800D01*
X1912193Y2372099D02*
X2087800D01*
X2045004Y2366699D02*
X2087800D01*
X2045092Y2365799D02*
X2087800D01*
X2044855Y2364899D02*
X2087800D01*
X2044160Y2363999D02*
X2087800D01*
X1965050Y2363099D02*
X2087800D01*
X1965504Y2362199D02*
X2087800D01*
X1965592Y2361299D02*
X2087800D01*
X1987276Y2360399D02*
X2087800D01*
X2062219Y2359499D02*
X2087800D01*
X2063550Y2358599D02*
X2087800D01*
X2064004Y2357699D02*
X2087800D01*
X2064092Y2356799D02*
X2087800D01*
X2063855Y2355899D02*
X2087800D01*
X2063160Y2354999D02*
X2087800D01*
X1974497Y2354099D02*
X2087800D01*
X2025888Y2353199D02*
X2087800D01*
X2026752Y2352299D02*
X2087800D01*
X2027069Y2351399D02*
X2087800D01*
X2027051Y2350499D02*
X2087800D01*
X2026690Y2349599D02*
X2087800D01*
X2025710Y2348699D02*
X2087800D01*
X1970092Y2347799D02*
X2087800D01*
X2087003Y2346899D02*
X2087800D01*
X2087531Y2342399D02*
X2087800D01*
X2069575Y2341499D02*
X2087800D01*
X2069840Y2340599D02*
X2087800D01*
X2069895Y2339699D02*
X2087800D01*
X2069749Y2338799D02*
X2087800D01*
X2069378Y2337899D02*
X2087800D01*
X2068697Y2336999D02*
X2087800D01*
X2067336Y2336099D02*
X2087800D01*
X2012751Y2335199D02*
X2087800D01*
X2011884Y2334299D02*
X2087800D01*
X2067938Y2333399D02*
X2087800D01*
X2068971Y2332499D02*
X2087800D01*
X2069532Y2331599D02*
X2087800D01*
X2069821Y2330699D02*
X2087800D01*
X2069899Y2329799D02*
X2087800D01*
X2069776Y2328899D02*
X2087800D01*
X2069432Y2327999D02*
X2087800D01*
X2068794Y2327099D02*
X2087800D01*
X2067564Y2326199D02*
X2087800D01*
X1983252Y2325299D02*
X2087800D01*
X1983569Y2324399D02*
X2087800D01*
X2067765Y2323499D02*
X2087800D01*
X2068887Y2322599D02*
X2087800D01*
X2069484Y2321699D02*
X2087800D01*
X2069800Y2320799D02*
X2087800D01*
X2069900Y2319899D02*
X2087800D01*
X2069800Y2318999D02*
X2087800D01*
X2069483Y2318099D02*
X2087800D01*
X2068884Y2317199D02*
X2087800D01*
X2067760Y2316299D02*
X2087800D01*
X1982069Y2315399D02*
X2087800D01*
X1982051Y2314499D02*
X2087800D01*
X2067569Y2313599D02*
X2087800D01*
X2068796Y2312699D02*
X2087800D01*
X2069434Y2311799D02*
X2087800D01*
X2069777Y2310899D02*
X2087800D01*
X2069899Y2309999D02*
X2087800D01*
X2069821Y2309099D02*
X2087800D01*
X2069530Y2308199D02*
X2087800D01*
X2068969Y2307299D02*
X2087800D01*
X2067933Y2306399D02*
X2087800D01*
X1980600Y2305499D02*
X2087800D01*
X1980439Y2304599D02*
X2087800D01*
X2069859Y2303699D02*
X2087800D01*
X2069900Y2302799D02*
X2087800D01*
X2069900Y2301899D02*
X2087800D01*
X2069900Y2300999D02*
X2087800D01*
X2069900Y2300099D02*
X2087800D01*
X2069900Y2299199D02*
X2087800D01*
X2069900Y2298299D02*
X2087800D01*
X2069900Y2297399D02*
X2087800D01*
X2069900Y2296499D02*
X2087800D01*
X1913470Y2295599D02*
X2087800D01*
X1913480Y2294699D02*
X2087800D01*
X2021215Y2293799D02*
X2087800D01*
X2022192Y2292899D02*
X2087800D01*
X2022552Y2291999D02*
X2087800D01*
X2022569Y2291099D02*
X2087800D01*
X2022251Y2290199D02*
X2087800D01*
X2021384Y2289299D02*
X2087800D01*
X1986497Y2288399D02*
X2087800D01*
X1987398Y2287499D02*
X2087800D01*
X1987729Y2286599D02*
X2087800D01*
X1987723Y2285699D02*
X2087800D01*
X1987377Y2284799D02*
X2087800D01*
X1986439Y2283899D02*
X2087800D01*
X1984914Y2282999D02*
X2087800D01*
X1996035Y2282099D02*
X2087800D01*
X1996807Y2281199D02*
X2087800D01*
X1997083Y2280299D02*
X2087800D01*
X2024776Y2279399D02*
X2087800D01*
X2025401Y2278499D02*
X2087800D01*
X2025598Y2277599D02*
X2087800D01*
X2025473Y2276699D02*
X2087800D01*
X2024966Y2275799D02*
X2087800D01*
X2071776Y2274899D02*
X2087800D01*
X2072401Y2273999D02*
X2087800D01*
X2072598Y2273099D02*
X2087800D01*
X2072473Y2272199D02*
X2087800D01*
X2071966Y2271299D02*
X2087800D01*
X2049776Y2270399D02*
X2087800D01*
X2050401Y2269499D02*
X2087800D01*
X2050598Y2268599D02*
X2087800D01*
X2050473Y2267699D02*
X2087800D01*
X2049966Y2266799D02*
X2087800D01*
X2042048Y2265899D02*
X2087800D01*
X2055163Y2264999D02*
X2087800D01*
X2055856Y2264099D02*
X2087800D01*
X2056092Y2263199D02*
X2087800D01*
X2056004Y2262299D02*
X2087800D01*
X2055548Y2261399D02*
X2087800D01*
X2054210Y2260499D02*
X2087800D01*
X1905030Y2259599D02*
X2087800D01*
X1911365Y2258699D02*
X2087800D01*
X1912487Y2257799D02*
X2087800D01*
X1984676Y2256899D02*
X2087800D01*
X1985301Y2255999D02*
X2087800D01*
X2045035Y2255099D02*
X2087800D01*
X2045807Y2254199D02*
X2087800D01*
X2046083Y2253299D02*
X2087800D01*
X2046030Y2252399D02*
X2087800D01*
X2045623Y2251499D02*
X2087800D01*
X2044497Y2250599D02*
X2087800D01*
X1972004Y2249699D02*
X2087800D01*
X2011715Y2248799D02*
X2087800D01*
X2012692Y2247899D02*
X2087800D01*
X2013052Y2246999D02*
X2087800D01*
X2043583Y2246099D02*
X2087800D01*
X2045468Y2245199D02*
X2087800D01*
X2071877Y2244299D02*
X2087800D01*
X2072440Y2243399D02*
X2087800D01*
X2072600Y2242499D02*
X2087800D01*
X2072439Y2241599D02*
X2087800D01*
X2071875Y2240699D02*
X2087800D01*
X2016324Y2239799D02*
X2087800D01*
X2017097Y2238899D02*
X2087800D01*
X2054219Y2237999D02*
X2087800D01*
X2055550Y2237099D02*
X2087800D01*
X2056004Y2236199D02*
X2087800D01*
X2056092Y2235299D02*
X2087800D01*
X2055855Y2234399D02*
X2087800D01*
X2055160Y2233499D02*
X2087800D01*
X2043939Y2232599D02*
X2087800D01*
X2043375Y2231699D02*
X2087800D01*
X2019997Y2230799D02*
X2087800D01*
X2019987Y2229899D02*
X2087800D01*
X2019917Y2228999D02*
X2087800D01*
X2053583Y2228099D02*
X2087800D01*
X2055468Y2227199D02*
X2087800D01*
X2055974Y2226299D02*
X2087800D01*
X2056098Y2225399D02*
X2087800D01*
X2055899Y2224499D02*
X2087800D01*
X2055273Y2223599D02*
X2087800D01*
X2017540Y2222699D02*
X2087800D01*
X2016852Y2221799D02*
X2087800D01*
X2016032Y2220899D02*
X2087800D01*
X2054219Y2219999D02*
X2087800D01*
X2055550Y2219099D02*
X2087800D01*
X2056004Y2218199D02*
X2087800D01*
X2056092Y2217299D02*
X2087800D01*
X2073276Y2216399D02*
X2087800D01*
X2073901Y2215499D02*
X2087800D01*
X2074098Y2214599D02*
X2087800D01*
X2073973Y2213699D02*
X2087800D01*
X2073466Y2212799D02*
X2087800D01*
X2071003Y2211899D02*
X2087800D01*
X2072125Y2210999D02*
X2087800D01*
X2072530Y2210099D02*
X2087800D01*
X2072582Y2209199D02*
X2087800D01*
X2072306Y2208299D02*
X2087800D01*
X2071531Y2207399D02*
X2087800D01*
X2058158Y2206499D02*
X2087800D01*
X2055163Y2205599D02*
X2087800D01*
X2055856Y2204699D02*
X2087800D01*
X2056092Y2203799D02*
X2087800D01*
X2056004Y2202899D02*
X2087800D01*
X2055548Y2201999D02*
X2087800D01*
X2055856Y2201099D02*
X2087800D01*
X2056092Y2200199D02*
X2087800D01*
X2056004Y2199299D02*
X2087800D01*
X2055548Y2198399D02*
X2087800D01*
X2054210Y2197499D02*
X2087800D01*
X2038201Y2196599D02*
X2087800D01*
X2038578Y2195699D02*
X2087800D01*
X2038608Y2194799D02*
X2087800D01*
X2038305Y2193899D02*
X2087800D01*
X2037474Y2192999D02*
X2087800D01*
X2028190Y2192099D02*
X2087800D01*
X2027210Y2191199D02*
X2087800D01*
X1970884Y2190299D02*
X2087800D01*
X1941569Y2189399D02*
X2087800D01*
X1970547Y2188499D02*
X2087800D01*
X1971477Y2187599D02*
X2087800D01*
X1971820Y2186699D02*
X2087800D01*
X2034715Y2185799D02*
X2087800D01*
X2035692Y2184899D02*
X2087800D01*
X2036052Y2183999D02*
X2087800D01*
X2036069Y2183099D02*
X2087800D01*
X2037220Y2182199D02*
X2087800D01*
X2037914Y2181299D02*
X2087800D01*
X2038150Y2180399D02*
X2087800D01*
X2038061Y2179499D02*
X2087800D01*
X2037606Y2178599D02*
X2087800D01*
X2036267Y2177699D02*
X2087800D01*
X2012757Y2176799D02*
X2087800D01*
X2012580Y2175899D02*
X2087800D01*
X2011990Y2174999D02*
X2087800D01*
X2079893Y2174099D02*
X2087800D01*
X2080851Y2173199D02*
X2087800D01*
X2081375Y2172299D02*
X2087800D01*
X2081640Y2171399D02*
X2087800D01*
X2081695Y2170499D02*
X2087800D01*
X2081549Y2169599D02*
X2087800D01*
X2081178Y2168699D02*
X2087800D01*
X2080497Y2167799D02*
X2087800D01*
X2079136Y2166899D02*
X2087800D01*
X2007660Y2165999D02*
X2087800D01*
X1974190Y2165099D02*
X2087800D01*
X1973210Y2164199D02*
X2087800D01*
X1913083Y2163299D02*
X2087800D01*
X1912484Y2162399D02*
X2087800D01*
X1939606Y2161499D02*
X2087800D01*
X1941385Y2160599D02*
X2087800D01*
X1942161Y2159699D02*
X2087800D01*
X1942589Y2158799D02*
X2087800D01*
X1942781Y2157899D02*
X2087800D01*
X1942769Y2156999D02*
X2087800D01*
X1942553Y2156099D02*
X2087800D01*
X1942093Y2155199D02*
X2087800D01*
X1941262Y2154299D02*
X2087800D01*
X1913130Y2153399D02*
X2087800D01*
X1912569Y2152499D02*
X2087800D01*
X1938804Y2151599D02*
X2087800D01*
X1941265Y2150699D02*
X2087800D01*
X1994953Y2149799D02*
X2087800D01*
X1995650Y2148899D02*
X2087800D01*
X1995888Y2147999D02*
X2087800D01*
X1995800Y2147099D02*
X2087800D01*
X1995347Y2146199D02*
X2087800D01*
X1994021Y2145299D02*
X2087800D01*
X2079369Y2144399D02*
X2087800D01*
X2080596Y2143499D02*
X2087800D01*
X2081234Y2142599D02*
X2087800D01*
X2081577Y2141699D02*
X2087800D01*
X2081699Y2140799D02*
X2087800D01*
X2081621Y2139899D02*
X2087800D01*
X2081330Y2138999D02*
X2087800D01*
X2080769Y2138099D02*
X2087800D01*
X2079733Y2137199D02*
X2087800D01*
X1983974Y2136299D02*
X2087800D01*
X1984098Y2135399D02*
X2087800D01*
X1983899Y2134499D02*
X2087800D01*
X1983273Y2133599D02*
X2087800D01*
X1912723Y2132699D02*
X2087800D01*
X1911831Y2131799D02*
X2087800D01*
X1901900Y2130899D02*
X2087800D01*
X1901900Y2129999D02*
X2087800D01*
X2083365Y2129099D02*
X2087800D01*
X2084487Y2128199D02*
X2087800D01*
X2085084Y2127299D02*
X2087800D01*
X2085400Y2126399D02*
X2087800D01*
X2085500Y2125499D02*
X2087800D01*
X2085400Y2124599D02*
X2087800D01*
X2085083Y2123699D02*
X2087800D01*
X2084484Y2122799D02*
X2087800D01*
X2083360Y2121899D02*
X2087800D01*
X1982580Y2120999D02*
X2087800D01*
X1982202Y2120099D02*
X2087800D01*
X2083169Y2119199D02*
X2087800D01*
X2084396Y2118299D02*
X2087800D01*
X2085034Y2117399D02*
X2087800D01*
X2085377Y2116499D02*
X2087800D01*
X2085499Y2115599D02*
X2087800D01*
X2085421Y2114699D02*
X2087800D01*
X2085130Y2113799D02*
X2087800D01*
X2084569Y2112899D02*
X2087800D01*
X2083533Y2111999D02*
X2087800D01*
X2046583Y2111099D02*
X2087800D01*
X2048468Y2110199D02*
X2087800D01*
X2082943Y2109299D02*
X2087800D01*
X2084300Y2108399D02*
X2087800D01*
X2084980Y2107499D02*
X2087800D01*
X2085350Y2106599D02*
X2087800D01*
X2085495Y2105699D02*
X2087800D01*
X2085440Y2104799D02*
X2087800D01*
X2085174Y2103899D02*
X2087800D01*
X2084649Y2102999D02*
X2087800D01*
X2083689Y2102099D02*
X2087800D01*
X2039251Y2101199D02*
X2087800D01*
X2038384Y2100299D02*
X2087800D01*
X2082669Y2099399D02*
X2087800D01*
X2084196Y2098499D02*
X2087800D01*
X2084922Y2097599D02*
X2087800D01*
X2085321Y2096699D02*
X2087800D01*
X2085489Y2095799D02*
X2087800D01*
X2085456Y2094899D02*
X2087800D01*
X2085215Y2093999D02*
X2087800D01*
X2084723Y2093099D02*
X2087800D01*
X2083831Y2092199D02*
X2087800D01*
X2014319Y2091299D02*
X2087800D01*
X1901900Y2090399D02*
X2087800D01*
X2082306Y2089499D02*
X2087800D01*
X2084085Y2088599D02*
X2087800D01*
X2084861Y2087699D02*
X2087800D01*
X2085289Y2086799D02*
X2087800D01*
X2085481Y2085899D02*
X2087800D01*
X2085469Y2084999D02*
X2087800D01*
X2085253Y2084099D02*
X2087800D01*
X2084793Y2083199D02*
X2087800D01*
X2083962Y2082299D02*
X2087800D01*
X2014652Y2081399D02*
X2087800D01*
X1901900Y2080499D02*
X2087800D01*
X2081504Y2079599D02*
X2087800D01*
X2083965Y2078699D02*
X2087800D01*
X2084795Y2077799D02*
X2087800D01*
X2085254Y2076899D02*
X2087800D01*
X2085470Y2075999D02*
X2087800D01*
X2085480Y2075099D02*
X2087800D01*
X2085288Y2074199D02*
X2087800D01*
X2084859Y2073299D02*
X2087800D01*
X2084082Y2072399D02*
X2087800D01*
X2082294Y2071499D02*
X2087800D01*
X1977550Y2070599D02*
X2087800D01*
X1978004Y2069699D02*
X2087800D01*
X2083835Y2068799D02*
X2087800D01*
X2084725Y2067899D02*
X2087800D01*
X2085216Y2066999D02*
X2087800D01*
X2085456Y2066099D02*
X2087800D01*
X2085489Y2065199D02*
X2087800D01*
X2085320Y2064299D02*
X2087800D01*
X2084921Y2063399D02*
X2087800D01*
X2084193Y2062499D02*
X2087800D01*
X2082661Y2061599D02*
X2087800D01*
X1901900Y2060699D02*
X2087800D01*
X2048377Y2059799D02*
X2087800D01*
X2083693Y2058899D02*
X2087800D01*
X2084651Y2057999D02*
X2087800D01*
X2085175Y2057099D02*
X2087800D01*
X2085440Y2056199D02*
X2087800D01*
X2085495Y2055299D02*
X2087800D01*
X2085349Y2054399D02*
X2087800D01*
X2084978Y2053499D02*
X2087800D01*
X2084297Y2052599D02*
X2087800D01*
X2082936Y2051699D02*
X2087800D01*
X1973966Y2050799D02*
X2087800D01*
X1901900Y2049899D02*
X2087800D01*
X2083538Y2048999D02*
X2087800D01*
X2084571Y2048099D02*
X2087800D01*
X2085132Y2047199D02*
X2087800D01*
X2085421Y2046299D02*
X2087800D01*
X2085499Y2045399D02*
X2087800D01*
X2085376Y2044499D02*
X2087800D01*
X2085032Y2043599D02*
X2087800D01*
X2084394Y2042699D02*
X2087800D01*
X2083164Y2041799D02*
X2087800D01*
X1901900Y2040899D02*
X2087800D01*
X1901900Y2039999D02*
X2087800D01*
X2083365Y2039099D02*
X2087800D01*
X2084487Y2038199D02*
X2087800D01*
X2085084Y2037299D02*
X2087800D01*
X2085400Y2036399D02*
X2087800D01*
X2085500Y2035499D02*
X2087800D01*
X2085400Y2034599D02*
X2087800D01*
X2085083Y2033699D02*
X2087800D01*
X2084484Y2032799D02*
X2087800D01*
X2083360Y2031899D02*
X2087800D01*
X2074100Y2030999D02*
X2087800D01*
X2073939Y2030099D02*
X2087800D01*
X2073375Y2029199D02*
X2087800D01*
X1943377Y2028299D02*
X2087800D01*
X1943940Y2027399D02*
X2087800D01*
X1944100Y2026499D02*
X2087800D01*
X1986335Y2025599D02*
X2087800D01*
X1987107Y2024699D02*
X2087800D01*
X1987383Y2023799D02*
X2087800D01*
X1987330Y2022899D02*
X2087800D01*
X1986923Y2021999D02*
X2087800D01*
X1985797Y2021099D02*
X2087800D01*
X2076388Y2020199D02*
X2087800D01*
X2077252Y2019299D02*
X2087800D01*
X2077569Y2018399D02*
X2087800D01*
X2077551Y2017499D02*
X2087800D01*
X2077190Y2016599D02*
X2087800D01*
X2077796Y2015699D02*
X2087800D01*
X2078760Y2014799D02*
X2087800D01*
X2079288Y2013899D02*
X2087800D01*
X2079555Y2012999D02*
X2087800D01*
X2079612Y2012099D02*
X2087800D01*
X2079468Y2011199D02*
X2087800D01*
X2079100Y2010299D02*
X2087800D01*
X2078423Y2009399D02*
X2087800D01*
X2077076Y2008499D02*
X2087800D01*
X1912651Y2007599D02*
X2087800D01*
X1913175Y2006699D02*
X2087800D01*
X2037215Y2005799D02*
X2087800D01*
X2038192Y2004899D02*
X2087800D01*
X2038552Y2003999D02*
X2087800D01*
X2038569Y2003099D02*
X2087800D01*
X2038251Y2002199D02*
X2087800D01*
X2037384Y2001299D02*
X2087800D01*
X1901900Y2000399D02*
X2087800D01*
X1901900Y1999499D02*
X2087800D01*
X1911538Y1998599D02*
X2087800D01*
X1912571Y1997699D02*
X2087800D01*
X1913132Y1996799D02*
X2087800D01*
X1913421Y1995899D02*
X2087800D01*
X1913499Y1994999D02*
X2087800D01*
X2036083Y1994099D02*
X2087800D01*
X2079888Y1993199D02*
X2087800D01*
X2080752Y1992299D02*
X2087800D01*
X2081069Y1991399D02*
X2087800D01*
X2081051Y1990499D02*
X2087800D01*
X2080690Y1989599D02*
X2087800D01*
X2079710Y1988699D02*
X2087800D01*
X2079467Y1987799D02*
X2087800D01*
X2079612Y1986899D02*
X2087800D01*
X2079556Y1985999D02*
X2087800D01*
X2079291Y1985099D02*
X2087800D01*
X2078765Y1984199D02*
X2087800D01*
X2077806Y1983299D02*
X2087800D01*
X2037776Y1982399D02*
X2087800D01*
X2038401Y1981499D02*
X2087800D01*
X2038598Y1980599D02*
X2087800D01*
X2038473Y1979699D02*
X2087800D01*
X2037966Y1978799D02*
X2087800D01*
X1990003Y1977899D02*
X2087800D01*
X1991125Y1976999D02*
X2087800D01*
X1991530Y1976099D02*
X2087800D01*
X1991582Y1975199D02*
X2087800D01*
X1991306Y1974299D02*
X2087800D01*
X1990531Y1973399D02*
X2087800D01*
X1912569Y1972499D02*
X2087800D01*
X1911533Y1971599D02*
X2087800D01*
X1901900Y1970699D02*
X2087800D01*
X2029693Y1969799D02*
X2087800D01*
X2030651Y1968899D02*
X2087800D01*
X2031175Y1967999D02*
X2087800D01*
X2076969Y1967099D02*
X2087800D01*
X2078496Y1966199D02*
X2087800D01*
X2079222Y1965299D02*
X2087800D01*
X2079621Y1964399D02*
X2087800D01*
X2079789Y1963499D02*
X2087800D01*
X2079756Y1962599D02*
X2087800D01*
X2079515Y1961699D02*
X2087800D01*
X2079023Y1960799D02*
X2087800D01*
X2078131Y1959899D02*
X2087800D01*
X2005623Y1958999D02*
X2087800D01*
X2004497Y1958099D02*
X2087800D01*
X1995375Y1957199D02*
X2087800D01*
X2005377Y1956299D02*
X2087800D01*
X2005940Y1955399D02*
X2087800D01*
X2006100Y1954499D02*
X2087800D01*
X2005939Y1953599D02*
X2087800D01*
X2005375Y1952699D02*
X2087800D01*
X2005752Y1951799D02*
X2087800D01*
X2006069Y1950899D02*
X2087800D01*
X2006051Y1949999D02*
X2087800D01*
X2005690Y1949099D02*
X2087800D01*
X2004710Y1948199D02*
X2087800D01*
X1986306Y1947299D02*
X2087800D01*
X2053276Y1946399D02*
X2087800D01*
X2053901Y1945499D02*
X2087800D01*
X2054098Y1944599D02*
X2087800D01*
X2053973Y1943699D02*
X2087800D01*
X2053466Y1942799D02*
X2087800D01*
X2006004Y1941899D02*
X2087800D01*
X2078007Y1940999D02*
X2087800D01*
X2078958Y1940099D02*
X2087800D01*
X2079479Y1939199D02*
X2087800D01*
X2079742Y1938299D02*
X2087800D01*
X2079795Y1937399D02*
X2087800D01*
X2079647Y1936499D02*
X2087800D01*
X2079273Y1935599D02*
X2087800D01*
X2078587Y1934699D02*
X2087800D01*
X2077213Y1933799D02*
X2087800D01*
X1991845Y1932899D02*
X2087800D01*
X2021219Y1931999D02*
X2087800D01*
X2022550Y1931099D02*
X2087800D01*
X2023004Y1930199D02*
X2087800D01*
X2023092Y1929299D02*
X2087800D01*
X2022855Y1928399D02*
X2087800D01*
X2022160Y1927499D02*
X2087800D01*
X1913216Y1926599D02*
X2087800D01*
X1913456Y1925699D02*
X2087800D01*
X1913489Y1924799D02*
X2087800D01*
X1913320Y1923899D02*
X2087800D01*
X1912921Y1922999D02*
X2087800D01*
X1988035Y1922099D02*
X2087800D01*
X1988807Y1921199D02*
X2087800D01*
X2028669Y1920299D02*
X2087800D01*
X2030196Y1919399D02*
X2087800D01*
X2030922Y1918499D02*
X2087800D01*
X2031321Y1917599D02*
X2087800D01*
X2031489Y1916699D02*
X2087800D01*
X2031456Y1915799D02*
X2087800D01*
X2031215Y1914899D02*
X2087800D01*
X2030723Y1913999D02*
X2087800D01*
X2029831Y1913099D02*
X2087800D01*
X2018307Y1912199D02*
X2087800D01*
X2018583Y1911299D02*
X2087800D01*
X2018530Y1910399D02*
X2087800D01*
X2018123Y1909499D02*
X2087800D01*
X2016997Y1908599D02*
X2087800D01*
X2070352Y1907699D02*
X2087800D01*
X2071376Y1906799D02*
X2087800D01*
X2071840Y1905899D02*
X2087800D01*
X2071998Y1904999D02*
X2087800D01*
X2071898Y1904099D02*
X2087800D01*
X2071510Y1903199D02*
X2087800D01*
X2070918Y1902299D02*
X2087800D01*
X2071627Y1901399D02*
X2087800D01*
X2071943Y1900499D02*
X2087800D01*
X2071986Y1899599D02*
X2087800D01*
X2071766Y1898699D02*
X2087800D01*
X2071213Y1897799D02*
X2087800D01*
X2071299Y1896899D02*
X2087800D01*
X2071805Y1895999D02*
X2087800D01*
X2071994Y1895099D02*
X2087800D01*
X2071922Y1894199D02*
X2087800D01*
X2071571Y1893299D02*
X2087800D01*
X2070799Y1892399D02*
X2087800D01*
X2071572Y1891499D02*
X2087800D01*
X2071923Y1890599D02*
X2087800D01*
X2071994Y1889699D02*
X2087800D01*
X2071805Y1888799D02*
X2087800D01*
X2071297Y1887899D02*
X2087800D01*
X2071216Y1886999D02*
X2087800D01*
X2071767Y1886099D02*
X2087800D01*
X2071986Y1885199D02*
X2087800D01*
X2071943Y1884299D02*
X2087800D01*
X2071626Y1883399D02*
X2087800D01*
X2070915Y1882499D02*
X2087800D01*
X2033583Y1881599D02*
X2087800D01*
X2035468Y1880699D02*
X2087800D01*
X2082715Y1879799D02*
X2087800D01*
X2083692Y1878899D02*
X2087800D01*
X2084052Y1877999D02*
X2087800D01*
X2087035Y1877099D02*
X2087800D01*
X2044550Y2367599D02*
X2086727D01*
X1910661Y2371199D02*
X2086532D01*
X2043219Y2368499D02*
X2086101D01*
X1901900Y2370299D02*
X2086026D01*
X1901900Y2369399D02*
X2085902D01*
X1969855Y2346899D02*
X2084997D01*
X1901900Y1872599D02*
X2084503D01*
X2069051Y2342399D02*
X2084469D01*
X1973663Y2345999D02*
X2083875D01*
X2068093Y2343299D02*
X2083694D01*
X1974356Y2345099D02*
X2083470D01*
X1974592Y2344199D02*
X2083418D01*
X1901900Y1873499D02*
X2083377D01*
X1901900Y1874399D02*
X2082970D01*
X2082884Y1875299D02*
X2082917D01*
X2051504Y2079599D02*
X2081296D01*
X2052294Y2071499D02*
X2080506D01*
X2052306Y2089499D02*
X2080494D01*
X2035974Y1879799D02*
X2080285D01*
X2052661Y2061599D02*
X2080139D01*
X2052669Y2099399D02*
X2080131D01*
X1901900Y1875299D02*
X2080116D01*
X2052936Y2051699D02*
X2079864D01*
X2052943Y2109299D02*
X2079857D01*
X2053164Y2041799D02*
X2079636D01*
X2053169Y2119199D02*
X2079631D01*
X2053360Y2121899D02*
X2079440D01*
X2073940Y2031899D02*
X2079440D01*
X2053365Y2129099D02*
X2079435D01*
X2053365Y2039099D02*
X2079435D01*
X2036098Y1878899D02*
X2079308D01*
X2053533Y2111999D02*
X2079267D01*
X2053538Y2048999D02*
X2079262D01*
X1901900Y1876199D02*
X2079249D01*
X2053689Y2102099D02*
X2079111D01*
X2053693Y2058899D02*
X2079107D01*
X2053831Y2092199D02*
X2078969D01*
X2053835Y2068799D02*
X2078965D01*
X2035899Y1877999D02*
X2078948D01*
X2035273Y1877099D02*
X2078931D01*
X2053962Y2082299D02*
X2078838D01*
X2053965Y2078699D02*
X2078835D01*
X2054082Y2072399D02*
X2078718D01*
X2054085Y2088599D02*
X2078715D01*
X2054193Y2062499D02*
X2078607D01*
X2054196Y2098499D02*
X2078604D01*
X2054297Y2052599D02*
X2078503D01*
X2054300Y2108399D02*
X2078500D01*
X2054394Y2042699D02*
X2078406D01*
X2054396Y2118299D02*
X2078404D01*
X2054484Y2122799D02*
X2078316D01*
X2073377Y2032799D02*
X2078316D01*
X2054487Y2128199D02*
X2078313D01*
X2054487Y2038199D02*
X2078313D01*
X2054569Y2112899D02*
X2078231D01*
X2054571Y2048099D02*
X2078229D01*
X2054649Y2102999D02*
X2078151D01*
X2054651Y2057999D02*
X2078149D01*
X2054723Y2093099D02*
X2078077D01*
X2054725Y2067899D02*
X2078075D01*
X2054793Y2083199D02*
X2078007D01*
X2054795Y2077799D02*
X2078005D01*
X2054859Y2073299D02*
X2077941D01*
X2054861Y2087699D02*
X2077939D01*
X2054921Y2063399D02*
X2077879D01*
X2054922Y2097599D02*
X2077878D01*
X2054978Y2053499D02*
X2077822D01*
X2054980Y2107499D02*
X2077820D01*
X2055032Y2043599D02*
X2077768D01*
X2055034Y2117399D02*
X2077766D01*
X2055083Y2123699D02*
X2077717D01*
X2055083Y2033699D02*
X2077717D01*
X2055084Y2127299D02*
X2077716D01*
X2055084Y2037299D02*
X2077716D01*
X2055130Y2113799D02*
X2077670D01*
X2055132Y2047199D02*
X2077668D01*
X2055174Y2103899D02*
X2077626D01*
X2055175Y2057099D02*
X2077625D01*
X2055215Y2093999D02*
X2077585D01*
X2055216Y2066999D02*
X2077584D01*
X2055253Y2084099D02*
X2077547D01*
X2055254Y2076899D02*
X2077546D01*
X2055288Y2074199D02*
X2077512D01*
X2055289Y2086799D02*
X2077511D01*
X2055320Y2064299D02*
X2077480D01*
X2055321Y2096699D02*
X2077479D01*
X2055349Y2054399D02*
X2077451D01*
X2055350Y2106599D02*
X2077450D01*
X2055376Y2044499D02*
X2077424D01*
X2055377Y2116499D02*
X2077423D01*
X2055400Y2124599D02*
X2077400D01*
X2055400Y2034599D02*
X2077400D01*
X2055400Y2126399D02*
X2077400D01*
X2055400Y2036399D02*
X2077400D01*
X2055421Y2114699D02*
X2077379D01*
X2055421Y2046299D02*
X2077379D01*
X2055440Y2104799D02*
X2077360D01*
X2055440Y2056199D02*
X2077360D01*
X2055456Y2094899D02*
X2077344D01*
X2055456Y2066099D02*
X2077344D01*
X2055469Y2084999D02*
X2077331D01*
X2055470Y2075999D02*
X2077330D01*
X2055480Y2075099D02*
X2077320D01*
X2055481Y2085899D02*
X2077319D01*
X2055489Y2065199D02*
X2077311D01*
X2055489Y2095799D02*
X2077311D01*
X2055495Y2055299D02*
X2077305D01*
X2055495Y2105699D02*
X2077305D01*
X2055499Y2045399D02*
X2077301D01*
X2055499Y2115599D02*
X2077301D01*
X2055500Y2125499D02*
X2077300D01*
X2055500Y2035499D02*
X2077300D01*
X2037968Y1993199D02*
X2077112D01*
X2038474Y1992299D02*
X2076248D01*
X2069136Y2166899D02*
X2076064D01*
X2038598Y1991399D02*
X2075931D01*
X2069369Y2144399D02*
X2075831D01*
X2069733Y2137199D02*
X2075467D01*
X2069893Y2174099D02*
X2075307D01*
X2070497Y2167799D02*
X2074703D01*
X2070596Y2143499D02*
X2074604D01*
X2059252Y1967099D02*
X2074431D01*
X2070769Y2138099D02*
X2074431D01*
X2070851Y2173199D02*
X2074349D01*
X2059496Y1933799D02*
X2074187D01*
X2022973Y2384699D02*
X2074125D01*
X1911965Y2388299D02*
X2074123D01*
X2071178Y2168699D02*
X2074022D01*
X2059343Y1990499D02*
X2073974D01*
X2071234Y2142599D02*
X2073966D01*
X2059359Y2008499D02*
X2073957D01*
X2071330Y2138999D02*
X2073870D01*
X2071375Y2172299D02*
X2073825D01*
X2071549Y2169599D02*
X2073651D01*
X2071577Y2141699D02*
X2073623D01*
X1901900Y2020199D02*
X2073612D01*
X2071621Y2139899D02*
X2073579D01*
X2023098Y2385599D02*
X2073561D01*
X2022276Y2387399D02*
X2073560D01*
X2071640Y2171399D02*
X2073560D01*
X2071695Y2170499D02*
X2073505D01*
X2071699Y2140799D02*
X2073501D01*
X2022901Y2386499D02*
X2073400D01*
X2060291Y1940999D02*
X2073393D01*
X2060415Y1959899D02*
X2073269D01*
X2060079Y2015699D02*
X2073237D01*
X2060089Y1983299D02*
X2073227D01*
X2060780Y1966199D02*
X2072904D01*
X2060871Y1934699D02*
X2072813D01*
X1913216Y2016599D02*
X2072810D01*
X1901900Y2019299D02*
X2072748D01*
X2060700Y1989599D02*
X2072617D01*
X2060706Y2009399D02*
X2072610D01*
X1912725Y2017499D02*
X2072449D01*
X2061241Y1940099D02*
X2072442D01*
X1911835Y2018399D02*
X2072431D01*
X2061307Y1960799D02*
X2072377D01*
X2061043Y2014799D02*
X2072273D01*
X2061049Y1984199D02*
X2072268D01*
X2061506Y1965299D02*
X2072178D01*
X2061557Y1935599D02*
X2072127D01*
X2061380Y1988699D02*
X2071937D01*
X2061384Y2010299D02*
X2071933D01*
X2061763Y1939199D02*
X2071921D01*
X2061799Y1961699D02*
X2071885D01*
X2061904Y1964399D02*
X2071779D01*
X2061930Y1936499D02*
X2071753D01*
X2061571Y2013899D02*
X2071745D01*
X2061574Y1985099D02*
X2071742D01*
X2062025Y1938299D02*
X2071658D01*
X2062039Y1962599D02*
X2071644D01*
X2062073Y1963499D02*
X2071611D01*
X2062078Y1937399D02*
X2071605D01*
X2061750Y1987799D02*
X2071566D01*
X2061752Y2011199D02*
X2071565D01*
X2061838Y2012999D02*
X2071478D01*
X2061840Y1985999D02*
X2071477D01*
X2061895Y1986899D02*
X2071421D01*
X2061896Y2012099D02*
X2071421D01*
X2055855Y2216399D02*
X2069724D01*
X1909504Y2029199D02*
X2069625D01*
X2054484Y2032799D02*
X2069623D01*
X2055974Y2212799D02*
X2069534D01*
X2055160Y2215499D02*
X2069099D01*
X1994497Y2030099D02*
X2069061D01*
X2053360Y2031899D02*
X2069060D01*
X2055468Y2213699D02*
X2069027D01*
X2056098Y2211899D02*
X2068997D01*
X2053583Y2214599D02*
X2068902D01*
X1995623Y2030999D02*
X2068900D01*
X2058860Y2207399D02*
X2068469D01*
X1937692Y2274899D02*
X2068224D01*
X2015397Y2240699D02*
X2068125D01*
X2045974Y2244299D02*
X2068123D01*
X1966569Y2271299D02*
X2068034D01*
X2057262Y2210999D02*
X2067875D01*
X2059101Y2208299D02*
X2067694D01*
X1938052Y2273999D02*
X2067599D01*
X2045273Y2241599D02*
X2067561D01*
X2046098Y2243399D02*
X2067560D01*
X1937751Y2272199D02*
X2067527D01*
X2058568Y2210099D02*
X2067470D01*
X2059017Y2209199D02*
X2067418D01*
X1938069Y2273099D02*
X2067402D01*
X2045899Y2242499D02*
X2067400D01*
X2065352Y1907699D02*
X2067248D01*
X2065915Y1882499D02*
X2066685D01*
X2059136Y2166899D02*
X2066064D01*
X2059369Y2144399D02*
X2065831D01*
X2059733Y2137199D02*
X2065467D01*
X2059893Y2174099D02*
X2065307D01*
X2060497Y2167799D02*
X2064703D01*
X2060596Y2143499D02*
X2064604D01*
X2060769Y2138099D02*
X2064431D01*
X2060851Y2173199D02*
X2064349D01*
X2057336Y2336099D02*
X2064264D01*
X2057564Y2326199D02*
X2064036D01*
X2057569Y2313599D02*
X2064031D01*
X2061178Y2168699D02*
X2064022D01*
X2061234Y2142599D02*
X2063966D01*
X2061330Y2138999D02*
X2063870D01*
X2057760Y2316299D02*
X2063840D01*
X2057765Y2323499D02*
X2063835D01*
X2061375Y2172299D02*
X2063825D01*
X2057933Y2306399D02*
X2063667D01*
X2057938Y2333399D02*
X2063662D01*
X2061549Y2169599D02*
X2063651D01*
X2061577Y2141699D02*
X2063623D01*
X2061621Y2139899D02*
X2063579D01*
X2061640Y2171399D02*
X2063560D01*
X2058093Y2343299D02*
X2063507D01*
X2061695Y2170499D02*
X2063505D01*
X2061699Y2140799D02*
X2063501D01*
X2058697Y2336999D02*
X2062903D01*
X2058794Y2327099D02*
X2062806D01*
X2058796Y2312699D02*
X2062804D01*
X2058884Y2317199D02*
X2062716D01*
X2058887Y2322599D02*
X2062713D01*
X2058969Y2307299D02*
X2062631D01*
X2058971Y2332499D02*
X2062629D01*
X2059051Y2342399D02*
X2062549D01*
X2001592Y1907699D02*
X2062248D01*
X2059378Y2337899D02*
X2062222D01*
X2059432Y2327999D02*
X2062168D01*
X2059434Y2311799D02*
X2062166D01*
X2059483Y2318099D02*
X2062117D01*
X2059484Y2321699D02*
X2062116D01*
X2059530Y2308199D02*
X2062070D01*
X2059532Y2331599D02*
X2062068D01*
X2059575Y2341499D02*
X2062025D01*
X2059749Y2338799D02*
X2061851D01*
X2059776Y2328899D02*
X2061824D01*
X2059777Y2310899D02*
X2061823D01*
X2019192Y1892399D02*
X2061801D01*
X2059800Y2318999D02*
X2061800D01*
X2059800Y2320799D02*
X2061800D01*
X2059821Y2309099D02*
X2061779D01*
X2059821Y2330699D02*
X2061779D01*
X2059840Y2340599D02*
X2061760D01*
X2057343Y2303699D02*
X2061741D01*
X2059895Y2339699D02*
X2061705D01*
X2059899Y2329799D02*
X2061701D01*
X2059899Y2309999D02*
X2061701D01*
X2059900Y2319899D02*
X2061700D01*
X2058700Y2302799D02*
X2061700D01*
X2059380Y2301899D02*
X2061700D01*
X2059750Y2300999D02*
X2061700D01*
X2059895Y2300099D02*
X2061700D01*
X2059840Y2299199D02*
X2061700D01*
X2059574Y2298299D02*
X2061700D01*
X2059049Y2297399D02*
X2061700D01*
X2058089Y2296499D02*
X2061700D01*
X2008401Y1882499D02*
X2061685D01*
X2031377Y1902299D02*
X2061682D01*
X2036715Y1897799D02*
X2061387D01*
X1981663Y1886999D02*
X2061384D01*
X1912396Y1887899D02*
X2061303D01*
X2037692Y1896899D02*
X2061301D01*
X2001504Y1906799D02*
X2061224D01*
X1913032Y1903199D02*
X2061090D01*
X2036884Y1893299D02*
X2061029D01*
X2019552Y1891499D02*
X2061028D01*
X2007776Y1883399D02*
X2060974D01*
X2031940Y1901399D02*
X2060973D01*
X2031375Y1898699D02*
X2060834D01*
X1982356Y1886099D02*
X2060833D01*
X2018384Y1888799D02*
X2060795D01*
X2038052Y1895999D02*
X2060795D01*
X1987901Y2359499D02*
X2060781D01*
X2001048Y1905899D02*
X2060760D01*
X1980497Y1904099D02*
X2060702D01*
X2037751Y1894199D02*
X2060678D01*
X2019569Y1890599D02*
X2060677D01*
X1982504Y1884299D02*
X2060657D01*
X2032100Y1900499D02*
X2060657D01*
X2031939Y1899599D02*
X2060614D01*
X1982592Y1885199D02*
X2060614D01*
X2019251Y1889699D02*
X2060606D01*
X2038069Y1895099D02*
X2060606D01*
X1999710Y1904999D02*
X2060602D01*
X1975623Y2354999D02*
X2059840D01*
X1988098Y2358599D02*
X2059450D01*
X1976030Y2355899D02*
X2059145D01*
X1987973Y2357699D02*
X2058996D01*
X1987466Y2356799D02*
X2058908D01*
X2031440Y1967099D02*
X2056715D01*
X2005893Y1933799D02*
X2056471D01*
X2038399Y1990499D02*
X2056257D01*
X1911693Y2008499D02*
X2056241D01*
X2049136Y2166899D02*
X2056064D01*
X2049369Y2144399D02*
X2055831D01*
X2006092Y1940999D02*
X2055676D01*
X2006030Y1959899D02*
X2055552D01*
X1913456Y2015699D02*
X2055521D01*
X1913083Y1983299D02*
X2055511D01*
X2049733Y2137199D02*
X2055467D01*
X2049893Y2174099D02*
X2055307D01*
X2031495Y1966199D02*
X2055187D01*
X2009584Y1934699D02*
X2055096D01*
X2037773Y1989599D02*
X2054900D01*
X1901900Y2009399D02*
X2054894D01*
X2045623Y2206499D02*
X2054862D01*
X2005855Y1940099D02*
X2054726D01*
X2050497Y2167799D02*
X2054703D01*
X2024966Y1960799D02*
X2054660D01*
X2050596Y2143499D02*
X2054604D01*
X1913489Y2014799D02*
X2054557D01*
X1913400Y1984199D02*
X2054551D01*
X2031349Y1965299D02*
X2054461D01*
X2050769Y2138099D02*
X2054431D01*
X2010564Y1935599D02*
X2054410D01*
X2050851Y2173199D02*
X2054349D01*
X2013069Y2336099D02*
X2054264D01*
X1979875Y2303699D02*
X2054257D01*
X1911365Y1988699D02*
X2054220D01*
X1901900Y2010299D02*
X2054216D01*
X2009762Y1939199D02*
X2054204D01*
X2025473Y1961699D02*
X2054168D01*
X2046030Y2207399D02*
X2054159D01*
X2030978Y1964399D02*
X2054063D01*
X2010925Y1936499D02*
X2054037D01*
X1982388Y2326199D02*
X2054036D01*
X1981690Y2313599D02*
X2054031D01*
X1913320Y2013899D02*
X2054029D01*
X1913500Y1985099D02*
X2054026D01*
X2051178Y2168699D02*
X2054022D01*
X2045807Y2209199D02*
X2054003D01*
X2051234Y2142599D02*
X2053966D01*
X2010626Y1938299D02*
X2053942D01*
X2028936Y1962599D02*
X2053928D01*
X2046083Y2208299D02*
X2053918D01*
X2030297Y1963499D02*
X2053894D01*
X2010943Y1937399D02*
X2053889D01*
X2051330Y2138999D02*
X2053870D01*
X1912487Y1987799D02*
X2053850D01*
X1910661Y2011199D02*
X2053848D01*
X1981752Y2316299D02*
X2053840D01*
X1983551Y2323499D02*
X2053835D01*
X2051375Y2172299D02*
X2053825D01*
X1912921Y2012999D02*
X2053762D01*
X1913400Y1985999D02*
X2053760D01*
X1913084Y1986899D02*
X2053705D01*
X1912193Y2012099D02*
X2053704D01*
X1980440Y2306399D02*
X2053667D01*
X2006003Y2333399D02*
X2053662D01*
X2051549Y2169599D02*
X2053651D01*
X2051577Y2141699D02*
X2053623D01*
X2051621Y2139899D02*
X2053579D01*
X2051640Y2171399D02*
X2053560D01*
X1913254Y2296499D02*
X2053511D01*
X1974504Y2343299D02*
X2053507D01*
X2051695Y2170499D02*
X2053505D01*
X2051699Y2140799D02*
X2053501D01*
X2019786Y2228099D02*
X2053417D01*
X2046030Y2214599D02*
X2053417D01*
X2013052Y2336999D02*
X2052903D01*
X1976215Y2302799D02*
X2052900D01*
X1912980Y2327099D02*
X2052806D01*
X1980710Y2312699D02*
X2052804D01*
X1959710Y2260499D02*
X2052790D01*
X2037176Y2197499D02*
X2052790D01*
X2017746Y2237999D02*
X2052781D01*
X2015042Y2219999D02*
X2052781D01*
X1980888Y2317199D02*
X2052716D01*
X1983190Y2322599D02*
X2052713D01*
X1979877Y2307299D02*
X2052631D01*
X2007125Y2332499D02*
X2052629D01*
X1912795Y2297399D02*
X2052551D01*
X1974048Y2342399D02*
X2052549D01*
X2012692Y2337899D02*
X2052222D01*
X1975978Y2301899D02*
X2052220D01*
X1912300Y2327999D02*
X2052168D01*
X1911831Y2311799D02*
X2052166D01*
X1912196Y2318099D02*
X2052117D01*
X1982210Y2321699D02*
X2052116D01*
X1912085Y2308199D02*
X2052070D01*
X2007530Y2331599D02*
X2052068D01*
X1911965Y2298299D02*
X2052026D01*
X1972710Y2341499D02*
X2052025D01*
X2011715Y2338799D02*
X2051851D01*
X1975283Y2300999D02*
X2051850D01*
X2044100Y2233499D02*
X2051840D01*
X2045625Y2215499D02*
X2051840D01*
X2040710Y2264999D02*
X2051837D01*
X2044497Y2205599D02*
X2051837D01*
X2006531Y2328899D02*
X2051824D01*
X1901900Y2310899D02*
X2051823D01*
X1953260Y2318999D02*
X2051800D01*
X1954192Y2320799D02*
X2051800D01*
X1910306Y2309099D02*
X2051779D01*
X2007582Y2330699D02*
X2051779D01*
X1909504Y2299199D02*
X2051760D01*
X1962030Y2340599D02*
X2051760D01*
X2018119Y2223599D02*
X2051727D01*
X2045035Y2210099D02*
X2051727D01*
X1962082Y2339699D02*
X2051705D01*
X1901900Y2300099D02*
X2051705D01*
X2007306Y2329799D02*
X2051701D01*
X1901900Y2309999D02*
X2051701D01*
X1953955Y2319899D02*
X2051700D01*
X2019593Y2227199D02*
X2051532D01*
X2046082Y2213699D02*
X2051532D01*
X2039349Y2261399D02*
X2051452D01*
X2007401Y2201999D02*
X2051452D01*
X2031503Y2198399D02*
X2051452D01*
X2018292Y2237099D02*
X2051450D01*
X2013814Y2219099D02*
X2051450D01*
X1901900Y2079599D02*
X2051296D01*
X2043940Y2234399D02*
X2051145D01*
X2044503Y2216399D02*
X2051145D01*
X2040968Y2264099D02*
X2051144D01*
X1990247Y2204699D02*
X2051144D01*
X2007598Y2201099D02*
X2051144D01*
X2018604Y2224499D02*
X2051101D01*
X1989407Y2210999D02*
X2051101D01*
X2019335Y2226299D02*
X2051026D01*
X2045806Y2212799D02*
X2051026D01*
X2040498Y2262299D02*
X2050996D01*
X2006776Y2202899D02*
X2050996D01*
X2006966Y2199299D02*
X2050996D01*
X2018748Y2236199D02*
X2050996D01*
X2012200Y2218199D02*
X2050996D01*
X2043377Y2235299D02*
X2050908D01*
X2009669Y2217299D02*
X2050908D01*
X2040910Y2263199D02*
X2050908D01*
X1989389Y2203799D02*
X2050908D01*
X2007473Y2200199D02*
X2050908D01*
X2019007Y2225399D02*
X2050902D01*
X2045031Y2211899D02*
X2050902D01*
X1962052Y2422499D02*
X2050790D01*
X2014912Y2071499D02*
X2050506D01*
X1901900Y2089499D02*
X2050494D01*
X2015129Y2061599D02*
X2050139D01*
X1988355Y2099399D02*
X2050131D01*
X2015318Y2051699D02*
X2049864D01*
X2048974Y2109299D02*
X2049857D01*
X1913034Y2426999D02*
X2049837D01*
X1985531Y1946399D02*
X2049724D01*
X2015487Y2041799D02*
X2049636D01*
X2014490Y2119199D02*
X2049631D01*
X2005551Y1942799D02*
X2049534D01*
X1961692Y2423399D02*
X2049452D01*
X2015639Y2121899D02*
X2049440D01*
X2015639Y2031899D02*
X2049440D01*
X2014782Y2129099D02*
X2049435D01*
X2014782Y2039099D02*
X2049435D01*
X2044401Y2111999D02*
X2049267D01*
X2015019Y2048999D02*
X2049262D01*
X1913377Y2426099D02*
X2049144D01*
X2039569Y2102099D02*
X2049111D01*
X2048940Y2058899D02*
X2049107D01*
X1978719Y1945499D02*
X2049099D01*
X2004219Y1943699D02*
X2049027D01*
X1960715Y2424299D02*
X2048996D01*
X2016022Y2092199D02*
X2048969D01*
X2015400Y2068799D02*
X2048965D01*
X1913499Y2425199D02*
X2048908D01*
X1980050Y1944599D02*
X2048902D01*
X2016131Y2082299D02*
X2048838D01*
X2015561Y2078699D02*
X2048835D01*
X2016233Y2072399D02*
X2048718D01*
X2015706Y2088599D02*
X2048715D01*
X2016328Y2062499D02*
X2048607D01*
X2015839Y2098499D02*
X2048604D01*
X2016417Y2052599D02*
X2048503D01*
X2016500Y2042699D02*
X2048406D01*
X2016075Y2118299D02*
X2048404D01*
X2016579Y2122799D02*
X2048316D01*
X2016579Y2032799D02*
X2048316D01*
X2016181Y2128199D02*
X2048313D01*
X2016181Y2038199D02*
X2048313D01*
X2043776Y2112899D02*
X2048231D01*
X2016279Y2048099D02*
X2048229D01*
X2039552Y2102999D02*
X2048151D01*
X2016785Y2093099D02*
X2048077D01*
X2016457Y2067899D02*
X2048075D01*
X2016846Y2083199D02*
X2048007D01*
X2016538Y2077799D02*
X2048005D01*
X2016902Y2073299D02*
X2047941D01*
X2016614Y2087699D02*
X2047939D01*
X2016956Y2063399D02*
X2047879D01*
X2016685Y2097599D02*
X2047878D01*
X2017005Y2053499D02*
X2047822D01*
X2017052Y2043599D02*
X2047768D01*
X2016814Y2117399D02*
X2047766D01*
X2017095Y2123699D02*
X2047717D01*
X2017095Y2033699D02*
X2047717D01*
X2016873Y2127299D02*
X2047716D01*
X2016873Y2037299D02*
X2047716D01*
X2017135Y2113799D02*
X2047670D01*
X2016928Y2047199D02*
X2047668D01*
X2039192Y2103899D02*
X2047626D01*
X2017206Y2093999D02*
X2047585D01*
X2017028Y2066999D02*
X2047584D01*
X2017237Y2084099D02*
X2047547D01*
X2017072Y2076899D02*
X2047546D01*
X2017266Y2074199D02*
X2047512D01*
X2017114Y2086799D02*
X2047511D01*
X2017292Y2064299D02*
X2047480D01*
X2017153Y2096699D02*
X2047479D01*
X2017315Y2054399D02*
X2047451D01*
X2017335Y2044499D02*
X2047424D01*
X2017221Y2116499D02*
X2047423D01*
X2017353Y2124599D02*
X2047400D01*
X2017353Y2034599D02*
X2047400D01*
X2017251Y2126399D02*
X2047400D01*
X2017251Y2036399D02*
X2047400D01*
X2017368Y2114699D02*
X2047379D01*
X2017278Y2046299D02*
X2047379D01*
X2038215Y2104799D02*
X2047360D01*
X2017392Y2094899D02*
X2047344D01*
X2017325Y2066099D02*
X2047344D01*
X2017400Y2084999D02*
X2047331D01*
X2017344Y2075999D02*
X2047330D01*
X2017405Y2075099D02*
X2047320D01*
X2017361Y2085899D02*
X2047319D01*
X2017408Y2065199D02*
X2047311D01*
X2017375Y2095799D02*
X2047311D01*
X2017409Y2055299D02*
X2047305D01*
X2038751Y2105699D02*
X2047305D01*
X2017407Y2045399D02*
X2047301D01*
X2017396Y2115599D02*
X2047301D01*
X2017403Y2125499D02*
X2047300D01*
X2017403Y2035499D02*
X2047300D01*
X2044598Y2111099D02*
X2046417D01*
X1967731Y2270399D02*
X2046224D01*
X2008355Y2166899D02*
X2046064D01*
X2042504Y2266799D02*
X2046034D01*
X1997696Y2144399D02*
X2045831D01*
X2041663Y2269499D02*
X2045599D01*
X2042592Y2267699D02*
X2045527D01*
X1983468Y2137199D02*
X2045467D01*
X2042356Y2268599D02*
X2045402D01*
X1940989Y2174099D02*
X2045307D01*
X2039069Y2106599D02*
X2044727D01*
X2008592Y2167799D02*
X2044703D01*
X2017303Y2056199D02*
X2044625D01*
X1901900Y2059799D02*
X2044623D01*
X1998546Y2143499D02*
X2044604D01*
X2044473Y2110199D02*
X2044532D01*
X1981583Y2138099D02*
X2044431D01*
X1913032Y2173199D02*
X2044349D01*
X2039052Y2107499D02*
X2044101D01*
X2016980Y2057099D02*
X2044061D01*
X2015222Y2058899D02*
X2044060D01*
X2043966Y2109299D02*
X2044026D01*
X2008504Y2168699D02*
X2044022D01*
X1998857Y2142599D02*
X2043966D01*
X2038692Y2108399D02*
X2043902D01*
X2016371Y2057999D02*
X2043900D01*
X1958401Y2138999D02*
X2043870D01*
X1918377Y2172299D02*
X2043825D01*
X2008050Y2169599D02*
X2043651D01*
X1998834Y2141699D02*
X2043623D01*
X1997468Y2139899D02*
X2043579D01*
X1939969Y2171399D02*
X2043560D01*
X2006719Y2170499D02*
X2043505D01*
X1998466Y2140799D02*
X2043501D01*
X2013069Y2246099D02*
X2043417D01*
X1971550Y2250599D02*
X2042503D01*
X1990560Y2205599D02*
X2042503D01*
X1970497Y2216399D02*
X2042497D01*
X1989015Y2211899D02*
X2041969D01*
X1985498Y2255099D02*
X2041965D01*
X1989448Y2210099D02*
X2041965D01*
X1911693Y2368499D02*
X2041781D01*
X2014260Y2241599D02*
X2041727D01*
X2012751Y2245199D02*
X2041532D01*
X1970219Y2251499D02*
X2041377D01*
X1990540Y2206499D02*
X2041377D01*
X1970715Y2215499D02*
X2041375D01*
X1987943Y2212799D02*
X2041194D01*
X1985373Y2254199D02*
X2041193D01*
X1989159Y2209199D02*
X2041193D01*
X2012802Y2242499D02*
X2041101D01*
X2011884Y2244299D02*
X2041026D01*
X1958192Y2252399D02*
X2040970D01*
X1990175Y2207399D02*
X2040970D01*
X1971692Y2214599D02*
X2040970D01*
X1972052Y2213699D02*
X2040918D01*
X1984866Y2253299D02*
X2040917D01*
X1989186Y2208299D02*
X2040917D01*
X2010711Y2243399D02*
X2040902D01*
X1963719Y2363999D02*
X2040840D01*
X1912651Y2367599D02*
X2040450D01*
X2016652Y2112899D02*
X2040224D01*
X1913495Y2364899D02*
X2040145D01*
X2037715Y2109299D02*
X2040034D01*
X1913175Y2366699D02*
X2039996D01*
X1913440Y2365799D02*
X2039908D01*
X2019947Y2231699D02*
X2039625D01*
X2019125Y2235299D02*
X2039623D01*
X2015777Y2111999D02*
X2039599D01*
X1901900Y2110199D02*
X2039527D01*
X1910294Y2111099D02*
X2039402D01*
X2019837Y2232599D02*
X2039061D01*
X2019429Y2234399D02*
X2039060D01*
X2019665Y2233499D02*
X2038900D01*
X2036663Y2269499D02*
X2038337D01*
X2037356Y2268599D02*
X2037644D01*
X1961048Y2261399D02*
X2037418D01*
X1962501Y1871699D02*
X2036400D01*
X1962600Y1870799D02*
X2036400D01*
X1976776Y1869899D02*
X2036400D01*
X1977401Y1868999D02*
X2036400D01*
X1977598Y1868099D02*
X2036400D01*
X2022888Y1867199D02*
X2036400D01*
X2023752Y1866299D02*
X2036400D01*
X2024069Y1865399D02*
X2036400D01*
X2024051Y1864499D02*
X2036400D01*
X2023690Y1863599D02*
X2036400D01*
X2022710Y1862699D02*
X2036400D01*
X2015500Y1861799D02*
X2036400D01*
X2015500Y1860899D02*
X2036400D01*
X2015500Y1859999D02*
X2036400D01*
X2025535Y1859099D02*
X2036400D01*
X2026307Y1858199D02*
X2036400D01*
X2026583Y1857299D02*
X2036400D01*
X2015500Y1851899D02*
X2036400D01*
X2015500Y1850999D02*
X2036400D01*
X2015500Y1850099D02*
X2036400D01*
X2015500Y1849199D02*
X2036400D01*
X2015500Y1848299D02*
X2036400D01*
X2015500Y1847399D02*
X2036400D01*
X2015500Y1846499D02*
X2036400D01*
X2015500Y1845599D02*
X2036400D01*
X2015500Y1844699D02*
X2036400D01*
X2015500Y1843799D02*
X2036400D01*
X2015500Y1842899D02*
X2036400D01*
X2015500Y1841999D02*
X2036400D01*
X2015500Y1841099D02*
X2036400D01*
X2015500Y1840199D02*
X2036400D01*
X2015500Y1839299D02*
X2036400D01*
X2015500Y1838399D02*
X2036400D01*
X2015500Y1837499D02*
X2036400D01*
X2015500Y1836599D02*
X2036400D01*
X2015500Y1835699D02*
X2036400D01*
X2015500Y1834799D02*
X2036400D01*
X2015500Y1833899D02*
X2036400D01*
X2015500Y1832999D02*
X2036400D01*
X2033691Y2262299D02*
X2036270D01*
X2035710Y2264999D02*
X2036070D01*
X1913376Y1994099D02*
X2035917D01*
X2034824Y2263199D02*
X2035857D01*
X2035233Y2264099D02*
X2035800D01*
X2026530Y1856399D02*
X2035724D01*
X1988592Y2100299D02*
X2035616D01*
X2019466Y1852799D02*
X2035534D01*
X2014083Y2109299D02*
X2035285D01*
X2017381Y2104799D02*
X2035116D01*
X2026123Y1855499D02*
X2035099D01*
X2019973Y1853699D02*
X2035027D01*
X2024997Y1854599D02*
X2034902D01*
X2032625Y2197499D02*
X2034891D01*
X2012612Y2177699D02*
X2034848D01*
X2017172Y2103899D02*
X2034808D01*
X1913440Y2005799D02*
X2034785D01*
X2013773Y2101199D02*
X2034749D01*
X1910936Y2001299D02*
X2034616D01*
X2028551Y2192999D02*
X2034593D01*
X2016721Y2102999D02*
X2034448D01*
X2015905Y2102099D02*
X2034431D01*
X2015961Y2108399D02*
X2034308D01*
X1980252Y1897799D02*
X2034285D01*
X2017387Y2105699D02*
X2034249D01*
X1901900Y1989599D02*
X2034227D01*
X1912484Y1982399D02*
X2034224D01*
X2018215Y1893299D02*
X2034116D01*
X1986989Y1978799D02*
X2034034D01*
X1913032Y1993199D02*
X2034032D01*
X2016752Y2107499D02*
X2033948D01*
X2017188Y2106599D02*
X2033931D01*
X2033030Y2196599D02*
X2033865D01*
X1913495Y2004899D02*
X2033808D01*
X2032031Y2193899D02*
X2033762D01*
X1912297Y2002199D02*
X2033749D01*
X1901900Y1990499D02*
X2033601D01*
X1986222Y1981499D02*
X2033599D01*
X1987096Y1979699D02*
X2033527D01*
X1912394Y1992299D02*
X2033526D01*
X2012075Y2178599D02*
X2033509D01*
X2033082Y2195699D02*
X2033489D01*
X2032806Y2194799D02*
X2033459D01*
X1913349Y2003999D02*
X2033448D01*
X1912978Y2003099D02*
X2033431D01*
X2019583Y1881599D02*
X2033417D01*
X1911164Y1991399D02*
X2033402D01*
X1986880Y1980599D02*
X2033402D01*
X2026663Y2269499D02*
X2033337D01*
X1980569Y1896899D02*
X2033308D01*
X1979210Y1894199D02*
X2033249D01*
X1942280Y2179499D02*
X2033054D01*
X1941600Y2180399D02*
X2032965D01*
X1980551Y1895999D02*
X2032948D01*
X1980190Y1895099D02*
X2032931D01*
X2027356Y2268599D02*
X2032644D01*
X2027592Y2267699D02*
X2032408D01*
X2022215Y2185799D02*
X2032285D01*
X2022384Y2181299D02*
X2032116D01*
X2021273Y1877099D02*
X2031727D01*
X1961504Y2262299D02*
X2031718D01*
X2021468Y1880699D02*
X2031532D01*
X2023192Y2184899D02*
X2031308D01*
X2023251Y2182199D02*
X2031249D01*
X2027504Y2266799D02*
X2031164D01*
X2021899Y1877999D02*
X2031101D01*
X2021974Y1879799D02*
X2031026D01*
X2023552Y2183999D02*
X2030948D01*
X2023569Y2183099D02*
X2030931D01*
X2022098Y1878899D02*
X2030902D01*
X1961592Y2263199D02*
X2030585D01*
X2027048Y2265899D02*
X2030395D01*
X1961356Y2264099D02*
X2030176D01*
X2025710Y2264999D02*
X2030121D01*
X2025776Y2198399D02*
X2029497D01*
X2028569Y2193899D02*
X2028969D01*
X2026401Y2197499D02*
X2028375D01*
X2026598Y2196599D02*
X2027970D01*
X2027388Y2195699D02*
X2027918D01*
X1979388Y1898699D02*
X2027625D01*
X1912394Y1902299D02*
X2027623D01*
X1980028Y2393699D02*
X2027125D01*
X1982398Y2397299D02*
X2027123D01*
X1901900Y1899599D02*
X2027061D01*
X1911164Y1901399D02*
X2027060D01*
X1901900Y1900499D02*
X2026900D01*
X1981278Y2394599D02*
X2026561D01*
X1982272Y2396399D02*
X2026560D01*
X1981924Y2395499D02*
X2026400D01*
X1989083Y1920299D02*
X2026131D01*
X2025598Y1962599D02*
X2025864D01*
X1932715Y1969799D02*
X2025107D01*
X2017535Y1913099D02*
X2024969D01*
X2022836Y2191199D02*
X2024790D01*
X1989030Y1919399D02*
X2024604D01*
X2016210Y2264999D02*
X2024290D01*
X1933692Y1968899D02*
X2024149D01*
X1976401Y1913999D02*
X2024077D01*
X1988623Y1918499D02*
X2023878D01*
X1943163Y1967999D02*
X2023625D01*
X1975776Y1914899D02*
X2023585D01*
X1987497Y1917599D02*
X2023479D01*
X1995056Y1965299D02*
X2023451D01*
X1989035Y1967099D02*
X2023360D01*
X1966884Y1915799D02*
X2023344D01*
X2017163Y2269499D02*
X2023337D01*
X1967751Y1916699D02*
X2023311D01*
X1994363Y1966199D02*
X2023305D01*
X1970004Y2348699D02*
X2023290D01*
X1913032Y2353199D02*
X2023112D01*
X2020098Y1854599D02*
X2023003D01*
X2017548Y2265899D02*
X2022952D01*
X2017856Y2268599D02*
X2022644D01*
X2018004Y2266799D02*
X2022496D01*
X2015500Y1859099D02*
X2022465D01*
X2018092Y2267699D02*
X2022408D01*
X1969550Y2349599D02*
X2022310D01*
X1912394Y2352299D02*
X2022248D01*
X2013643Y2198399D02*
X2022224D01*
X1968219Y2350499D02*
X2021949D01*
X1911164Y2351399D02*
X2021931D01*
X2019901Y1855499D02*
X2021877D01*
X2015500Y1858199D02*
X2021693D01*
X2014310Y2197499D02*
X2021599D01*
X2019276Y1856399D02*
X2021470D01*
X2015500Y1857299D02*
X2021417D01*
X2014532Y2196599D02*
X2021402D01*
X2015276Y2279399D02*
X2021224D01*
X1995292Y1964399D02*
X2021224D01*
X2015466Y2275799D02*
X2021034D01*
X2006083Y1960799D02*
X2021034D01*
X2015901Y2278499D02*
X2020599D01*
X1995204Y1963499D02*
X2020599D01*
X2015973Y2276699D02*
X2020527D01*
X2005807Y1961699D02*
X2020527D01*
X2010710Y2191199D02*
X2020416D01*
X2016098Y2277599D02*
X2020402D01*
X2005035Y1962599D02*
X2020402D01*
X2015500Y1862699D02*
X2020290D01*
X2014430Y2195699D02*
X2020238D01*
X1977473Y1867199D02*
X2020112D01*
X1995497Y2412599D02*
X2020003D01*
X1901900Y2440499D02*
X2019790D01*
X1990815Y2185799D02*
X2019785D01*
X1991315Y1931999D02*
X2019781D01*
X1990984Y2181299D02*
X2019616D01*
X1996035Y2417099D02*
X2019465D01*
X2011690Y2192099D02*
X2019436D01*
X2014583Y1881599D02*
X2019417D01*
X2013956Y2194799D02*
X2019374D01*
X2015500Y1863599D02*
X2019310D01*
X1976966Y1866299D02*
X2019248D01*
X2012051Y2192999D02*
X2019075D01*
X2012500Y2193899D02*
X2019057D01*
X2015500Y1864499D02*
X2018949D01*
X2015500Y1865399D02*
X2018931D01*
X1996623Y2413499D02*
X2018877D01*
X1912725Y1927499D02*
X2018840D01*
X1950660Y2444999D02*
X2018837D01*
X1991792Y2184899D02*
X2018808D01*
X1941215Y2293799D02*
X2018785D01*
X1991851Y2182199D02*
X2018749D01*
X2002776Y2387399D02*
X2018724D01*
X1996807Y2416199D02*
X2018693D01*
X1984583Y2289299D02*
X2018616D01*
X2002966Y2383799D02*
X2018534D01*
X1997030Y2414399D02*
X2018470D01*
X1911164Y2441399D02*
X2018452D01*
X1984974Y1931099D02*
X2018450D01*
X1992152Y2183999D02*
X2018448D01*
X1992169Y2183099D02*
X2018431D01*
X1997083Y2415299D02*
X2018417D01*
X1983975Y1928399D02*
X2018145D01*
X1913376Y2444099D02*
X2018144D01*
X2003401Y2386499D02*
X2018099D01*
X2003473Y2384699D02*
X2018027D01*
X1912394Y2442299D02*
X2017996D01*
X1985026Y1930199D02*
X2017996D01*
X1984750Y1929299D02*
X2017908D01*
X1913032Y2443199D02*
X2017908D01*
X2003598Y2385599D02*
X2017902D01*
X1942192Y2292899D02*
X2017808D01*
X1984307Y2290199D02*
X2017749D01*
X2016273Y1877099D02*
X2017727D01*
X2016468Y1880699D02*
X2017532D01*
X1942552Y2291999D02*
X2017448D01*
X1983535Y2291099D02*
X2017431D01*
X2016899Y1877999D02*
X2017101D01*
X2016974Y1879799D02*
X2017026D01*
X1913083Y1893299D02*
X2015785D01*
X2015500Y1856399D02*
X2015724D01*
X1911169Y1888799D02*
X2015616D01*
X2015500Y1852799D02*
X2015534D01*
X2001356Y1908599D02*
X2015003D01*
X1912484Y1892399D02*
X2014808D01*
X2000210Y2264999D02*
X2014790D01*
X1901900Y1889699D02*
X2014749D01*
X1976598Y1913099D02*
X2014465D01*
X1911360Y1891499D02*
X2014448D01*
X1901900Y1890599D02*
X2014431D01*
X2008598Y1881599D02*
X2014417D01*
X2000663Y1909499D02*
X2013877D01*
X2001163Y2269499D02*
X2013837D01*
X1976473Y1912199D02*
X2013693D01*
X1901900Y1910399D02*
X2013470D01*
X2001548Y2265899D02*
X2013452D01*
X1975966Y1911299D02*
X2013417D01*
X2001856Y2268599D02*
X2013144D01*
X2002004Y2266799D02*
X2012996D01*
X2002092Y2267699D02*
X2012908D01*
X1999073Y2101199D02*
X2012845D01*
X1901900Y1877099D02*
X2012727D01*
X1999383Y2109299D02*
X2012535D01*
X2008473Y1880699D02*
X2012532D01*
X1999619Y2091299D02*
X2012299D01*
X1999790Y2119199D02*
X2012128D01*
X1901900Y1877999D02*
X2012101D01*
X2007966Y1879799D02*
X2012026D01*
X1999952Y2081399D02*
X2011965D01*
X1901900Y1878899D02*
X2011902D01*
X2000082Y2129099D02*
X2011836D01*
X2000082Y2039099D02*
X2011836D01*
X1999276Y2279399D02*
X2011724D01*
X2000212Y2071499D02*
X2011706D01*
X2000319Y2048999D02*
X2011599D01*
X1999466Y2275799D02*
X2011534D01*
X2000429Y2061599D02*
X2011488D01*
X2000522Y2058899D02*
X2011396D01*
X2000618Y2051699D02*
X2011299D01*
X2000700Y2068799D02*
X2011217D01*
X2000787Y2041799D02*
X2011131D01*
X1999901Y2278499D02*
X2011099D01*
X2000861Y2078699D02*
X2011057D01*
X1999973Y2276699D02*
X2011027D01*
X2000939Y2121899D02*
X2010979D01*
X2000939Y2031899D02*
X2010979D01*
X2001006Y2088599D02*
X2010912D01*
X2000098Y2277599D02*
X2010902D01*
X2001077Y2111999D02*
X2010840D01*
X2001139Y2098499D02*
X2010779D01*
X2001205Y2102099D02*
X2010713D01*
X2001261Y2108399D02*
X2010656D01*
X2001322Y2092199D02*
X2010595D01*
X2001375Y2118299D02*
X2010543D01*
X2001431Y2082299D02*
X2010486D01*
X2001481Y2128199D02*
X2010437D01*
X2001481Y2038199D02*
X2010437D01*
X2001533Y2072399D02*
X2010384D01*
X2001579Y2048099D02*
X2010339D01*
X2001628Y2062499D02*
X2010289D01*
X2001671Y2057999D02*
X2010247D01*
X1999337Y2198399D02*
X2010231D01*
X2001717Y2052599D02*
X2010201D01*
X2001757Y2067899D02*
X2010160D01*
X2001800Y2042699D02*
X2010117D01*
X2001838Y2077799D02*
X2010080D01*
X2001879Y2122799D02*
X2010039D01*
X2001879Y2032799D02*
X2010039D01*
X2001914Y2087699D02*
X2010004D01*
X2001952Y2112899D02*
X2009966D01*
X2001985Y2097599D02*
X2009933D01*
X2002021Y2102999D02*
X2009897D01*
X2002052Y2107499D02*
X2009866D01*
X2002085Y2093099D02*
X2009832D01*
X2002114Y2117399D02*
X2009803D01*
X2002146Y2083199D02*
X2009772D01*
X2002173Y2127299D02*
X2009745D01*
X2002173Y2037299D02*
X2009745D01*
X2002202Y2073299D02*
X2009715D01*
X2002228Y2047199D02*
X2009690D01*
X2002256Y2063399D02*
X2009662D01*
X2002280Y2057099D02*
X2009638D01*
X2002305Y2053499D02*
X2009612D01*
X2002328Y2066999D02*
X2009590D01*
X2002352Y2043599D02*
X2009566D01*
X2000733Y2197499D02*
X2009564D01*
X2002372Y2076899D02*
X2009545D01*
X2002395Y2123699D02*
X2009523D01*
X2002395Y2033699D02*
X2009523D01*
X2002414Y2086799D02*
X2009504D01*
X2002435Y2113799D02*
X2009483D01*
X2002453Y2096699D02*
X2009465D01*
X2002472Y2103899D02*
X2009446D01*
X2002488Y2106599D02*
X2009429D01*
X2002506Y2093999D02*
X2009412D01*
X2002521Y2116499D02*
X2009397D01*
X2002537Y2084099D02*
X2009380D01*
X2002551Y2126399D02*
X2009367D01*
X2002551Y2036399D02*
X2009367D01*
X2002566Y2074199D02*
X2009352D01*
X2001198Y2196599D02*
X2009342D01*
X2002578Y2046299D02*
X2009339D01*
X2002592Y2064299D02*
X2009326D01*
X2002603Y2056199D02*
X2009315D01*
X2002615Y2054399D02*
X2009303D01*
X2002625Y2066099D02*
X2009293D01*
X1961806Y2338799D02*
X2009285D01*
X1972092Y2248799D02*
X2009285D01*
X2002635Y2044499D02*
X2009282D01*
X2002644Y2075999D02*
X2009274D01*
X2002653Y2124599D02*
X2009265D01*
X2002653Y2034599D02*
X2009265D01*
X2002661Y2085899D02*
X2009257D01*
X2002668Y2114699D02*
X2009249D01*
X2002675Y2095799D02*
X2009243D01*
X2002681Y2104799D02*
X2009236D01*
X2002687Y2105699D02*
X2009231D01*
X2002692Y2094899D02*
X2009226D01*
X2002696Y2115599D02*
X2009222D01*
X2002700Y2084999D02*
X2009218D01*
X2002703Y2125499D02*
X2009215D01*
X2002703Y2035499D02*
X2009215D01*
X2002705Y2075099D02*
X2009212D01*
X2002707Y2045399D02*
X2009211D01*
X2002708Y2065199D02*
X2009209D01*
X2002709Y2055299D02*
X2009209D01*
X1960966Y2334299D02*
X2009116D01*
X1981312Y2244299D02*
X2009116D01*
X1941949Y2174999D02*
X2008324D01*
X1961031Y2337899D02*
X2008308D01*
X1979979Y2247899D02*
X2008308D01*
X1992710Y2191199D02*
X2008290D01*
X1961473Y2335199D02*
X2008249D01*
X1981584Y2245199D02*
X2008249D01*
X1942650Y2178599D02*
X2008240D01*
X2001294Y2195699D02*
X2008112D01*
X1961401Y2336999D02*
X2007948D01*
X1981118Y2246999D02*
X2007948D01*
X1961598Y2336099D02*
X2007931D01*
X1981528Y2246099D02*
X2007931D01*
X1942474Y2175899D02*
X2007735D01*
X1942795Y2177699D02*
X2007702D01*
X1942740Y2176799D02*
X2007558D01*
X1993690Y2192099D02*
X2007310D01*
X2001065Y2194799D02*
X2007248D01*
X2006761Y1934699D02*
X2007164D01*
X2005160Y1939199D02*
X2006986D01*
X1994051Y2192999D02*
X2006949D01*
X2000386Y2193899D02*
X2006931D01*
X2005725Y1938299D02*
X2006122D01*
X1941496Y2170499D02*
X2005281D01*
X1974551Y2165999D02*
X2004340D01*
X1982048Y1883399D02*
X2004224D01*
X1901900Y1879799D02*
X2004034D01*
X1971503Y2333399D02*
X2003997D01*
X1942222Y2169599D02*
X2003950D01*
X1974569Y2166899D02*
X2003645D01*
X1980710Y1882499D02*
X2003599D01*
X1901900Y1880699D02*
X2003527D01*
X1973388Y2168699D02*
X2003496D01*
X1972031Y2328899D02*
X2003469D01*
X1974252Y2167799D02*
X2003408D01*
X1911533Y1881599D02*
X2003402D01*
X1988717Y1938299D02*
X2003295D01*
X1973989Y2202899D02*
X2003224D01*
X1971623Y2217299D02*
X2003131D01*
X1991984Y1933799D02*
X2003127D01*
X1985041Y2199299D02*
X2003034D01*
X1972625Y2332499D02*
X2002875D01*
X1980504Y1943699D02*
X2002781D01*
X1972806Y2329799D02*
X2002694D01*
X1975128Y2201999D02*
X2002599D01*
X1975594Y2200199D02*
X2002527D01*
X1995939Y1958099D02*
X2002503D01*
X1973030Y2331599D02*
X2002470D01*
X1973082Y2330699D02*
X2002418D01*
X1975538Y2201099D02*
X2002402D01*
X1988773Y1937399D02*
X2002318D01*
X1986582Y1948199D02*
X2002290D01*
X1991802Y1934699D02*
X2002259D01*
X1980546Y2243399D02*
X2002089D01*
X1994748Y1962599D02*
X2001965D01*
X1988501Y1936499D02*
X2001958D01*
X1991204Y1935599D02*
X2001941D01*
X1988307Y1939199D02*
X2001840D01*
X1996092Y1952699D02*
X2001625D01*
X1960377Y1956299D02*
X2001623D01*
X1980592Y1942799D02*
X2001449D01*
X1996100Y1958999D02*
X2001377D01*
X1986530Y1949099D02*
X2001310D01*
X1996004Y1951799D02*
X2001248D01*
X1993410Y1961699D02*
X2001193D01*
X1987168Y1940099D02*
X2001145D01*
X1995856Y1953599D02*
X2001061D01*
X1960940Y1955399D02*
X2001060D01*
X1980355Y1941899D02*
X2000996D01*
X1995940Y1959899D02*
X2000970D01*
X1994210Y1949999D02*
X2000949D01*
X1995548Y1950899D02*
X2000931D01*
X1995377Y1960799D02*
X2000917D01*
X1979660Y1940999D02*
X2000908D01*
X1995163Y1954499D02*
X2000900D01*
X1962600Y1865399D02*
X2000900D01*
X1962600Y1864499D02*
X2000900D01*
X1962600Y1863599D02*
X2000900D01*
X1962600Y1862699D02*
X2000900D01*
X1984715Y1861799D02*
X2000900D01*
X1985692Y1860899D02*
X2000900D01*
X1986052Y1859999D02*
X2000900D01*
X1986069Y1859099D02*
X2000900D01*
X1985751Y1858199D02*
X2000900D01*
X1984884Y1857299D02*
X2000900D01*
X1962600Y1851899D02*
X2000900D01*
X1962600Y1850999D02*
X2000900D01*
X1962600Y1850099D02*
X2000900D01*
X1962600Y1849199D02*
X2000900D01*
X1962600Y1848299D02*
X2000900D01*
X1962600Y1847399D02*
X2000900D01*
X1962600Y1846499D02*
X2000900D01*
X1962600Y1845599D02*
X2000900D01*
X1962600Y1844699D02*
X2000900D01*
X1962600Y1843799D02*
X2000900D01*
X1962600Y1842899D02*
X2000900D01*
X1962600Y1841999D02*
X2000900D01*
X1962600Y1841099D02*
X2000900D01*
X1962600Y1840199D02*
X2000900D01*
X1962600Y1839299D02*
X2000900D01*
X1962600Y1838399D02*
X2000900D01*
X1962600Y1837499D02*
X2000900D01*
X1962600Y1836599D02*
X2000900D01*
X1962600Y1835699D02*
X2000900D01*
X1962600Y1834799D02*
X2000900D01*
X1962600Y1833899D02*
X2000900D01*
X1962600Y1832999D02*
X2000900D01*
X1972030Y2218199D02*
X2000600D01*
X1991776Y1856399D02*
X2000224D01*
X1991966Y1852799D02*
X2000034D01*
X1989411Y2242499D02*
X1999998D01*
X1992401Y1855499D02*
X1999599D01*
X1992473Y1853699D02*
X1999527D01*
X1992598Y1854599D02*
X1999402D01*
X1912795Y2387399D02*
X1999224D01*
X1978404Y2383799D02*
X1999034D01*
X1972083Y2219099D02*
X1998986D01*
X1960663Y2264999D02*
X1998790D01*
X1913254Y2386499D02*
X1998599D01*
X1990063Y2241599D02*
X1998540D01*
X1913480Y2384699D02*
X1998527D01*
X1913470Y2385599D02*
X1998402D01*
X1981623Y1904999D02*
X1998290D01*
X1988504Y2101199D02*
X1998145D01*
X1985918Y2198399D02*
X1998063D01*
X1968148Y2269499D02*
X1997837D01*
X1901900Y2109299D02*
X1997835D01*
X1971807Y2219999D02*
X1997758D01*
X1910936Y2091299D02*
X1997599D01*
X1913421Y2265899D02*
X1997452D01*
X1981175Y2119199D02*
X1997428D01*
X1990276Y2240699D02*
X1997403D01*
X1901900Y1909499D02*
X1997337D01*
X1911164Y2081399D02*
X1997265D01*
X1968208Y2268599D02*
X1997144D01*
X1910306Y2129099D02*
X1997136D01*
X1910306Y2039099D02*
X1997136D01*
X1994069Y2193899D02*
X1997014D01*
X1976219Y2071499D02*
X1997006D01*
X1967185Y2266799D02*
X1996996D01*
X1982030Y1905899D02*
X1996952D01*
X1967941Y2267699D02*
X1996908D01*
X1910669Y2048999D02*
X1996899D01*
X1911533Y2061599D02*
X1996788D01*
X1971035Y2220899D02*
X1996768D01*
X1910943Y2058899D02*
X1996696D01*
X1986240Y2197499D02*
X1996667D01*
X1981035Y1908599D02*
X1996644D01*
X1974473Y2051699D02*
X1996599D01*
X1978092Y2068799D02*
X1996517D01*
X1982083Y1906799D02*
X1996496D01*
X1990166Y2239799D02*
X1996476D01*
X1911831Y2041799D02*
X1996431D01*
X1981807Y1907699D02*
X1996408D01*
X1911365Y2078699D02*
X1996357D01*
X1993752Y2194799D02*
X1996335D01*
X1982610Y2121899D02*
X1996279D01*
X1996030Y2031899D02*
X1996279D01*
X1911538Y2088599D02*
X1996212D01*
X1986226Y2196599D02*
X1996202D01*
X1912082Y2111999D02*
X1996140D01*
X1992888Y2195699D02*
X1996106D01*
X1987660Y2098499D02*
X1996079D01*
X1988050Y2102099D02*
X1996013D01*
X1911835Y2108399D02*
X1995956D01*
X1980513Y2221799D02*
X1995948D01*
X1912297Y2092199D02*
X1995895D01*
X1978592Y2118299D02*
X1995843D01*
X1912394Y2082299D02*
X1995786D01*
X1978388Y2128199D02*
X1995737D01*
X1912085Y2038199D02*
X1995737D01*
X1989681Y2238899D02*
X1995703D01*
X1957531Y2072399D02*
X1995684D01*
X1995035Y2048099D02*
X1995639D01*
X1912569Y2062499D02*
X1995589D01*
X1912300Y2057999D02*
X1995547D01*
X1983966Y2275799D02*
X1995534D01*
X1974598Y2052599D02*
X1995501D01*
X1977855Y2067899D02*
X1995460D01*
X1912723Y2042699D02*
X1995417D01*
X1912487Y2077799D02*
X1995380D01*
X1982308Y2122799D02*
X1995339D01*
X1912571Y2087699D02*
X1995304D01*
X1912859Y2112899D02*
X1995266D01*
X1981053Y2222699D02*
X1995260D01*
X1912651Y2097599D02*
X1995233D01*
X1986719Y2102999D02*
X1995197D01*
X1912725Y2107499D02*
X1995166D01*
X1912978Y2093099D02*
X1995132D01*
X1957776Y2139899D02*
X1995104D01*
X1978355Y2117399D02*
X1995103D01*
X1913032Y2083199D02*
X1995072D01*
X1988135Y2237999D02*
X1995054D01*
X1979252Y2127299D02*
X1995045D01*
X1912861Y2037299D02*
X1995045D01*
X1984473Y2276699D02*
X1995027D01*
X1958306Y2073299D02*
X1995015D01*
X1913130Y2063399D02*
X1994962D01*
X1912980Y2057099D02*
X1994938D01*
X1974401Y2053499D02*
X1994912D01*
X1977160Y2066999D02*
X1994890D01*
X1994098Y2144399D02*
X1994875D01*
X1994497Y2043599D02*
X1994866D01*
X1957003Y2076899D02*
X1994845D01*
X1981478Y2123699D02*
X1994823D01*
X1913132Y2086799D02*
X1994804D01*
X1913288Y2113799D02*
X1994783D01*
X1913175Y2096699D02*
X1994765D01*
X1913320Y2103899D02*
X1994746D01*
X1913216Y2106599D02*
X1994729D01*
X1913349Y2093999D02*
X1994712D01*
X1977660Y2116499D02*
X1994697D01*
X1981200Y2223599D02*
X1994681D01*
X1913376Y2084099D02*
X1994680D01*
X1979569Y2126399D02*
X1994667D01*
X1913289Y2036399D02*
X1994667D01*
X1958582Y2074199D02*
X1994652D01*
X1913421Y2064299D02*
X1994626D01*
X1913350Y2056199D02*
X1994615D01*
X1973776Y2054399D02*
X1994603D01*
X1913377Y2066099D02*
X1994593D01*
X1958125Y2075999D02*
X1994574D01*
X1979190Y2124599D02*
X1994565D01*
X1913421Y2085899D02*
X1994557D01*
X1913480Y2114699D02*
X1994549D01*
X1913440Y2095799D02*
X1994543D01*
X1913489Y2104799D02*
X1994536D01*
X1913456Y2105699D02*
X1994531D01*
X1913495Y2094899D02*
X1994526D01*
X1913470Y2115599D02*
X1994522D01*
X1913499Y2084999D02*
X1994518D01*
X1979551Y2125499D02*
X1994515D01*
X1913481Y2035499D02*
X1994515D01*
X1958530Y2075099D02*
X1994512D01*
X1913499Y2065199D02*
X1994509D01*
X1913495Y2055299D02*
X1994509D01*
X1961569Y2237099D02*
X1994508D01*
X1981024Y2224499D02*
X1994196D01*
X1941135Y2140799D02*
X1994105D01*
X1971357Y2236199D02*
X1994052D01*
X1993899Y2143499D02*
X1994025D01*
X1980438Y2225399D02*
X1993793D01*
X1911689Y2141699D02*
X1993737D01*
X1993273Y2142599D02*
X1993714D01*
X1971920Y2235299D02*
X1993675D01*
X1912649Y2412599D02*
X1993503D01*
X1984598Y2277599D02*
X1993503D01*
X1980869Y2226299D02*
X1993465D01*
X1972080Y2234399D02*
X1993371D01*
X1981327Y2227199D02*
X1993207D01*
X1971919Y2233499D02*
X1993135D01*
X1981417Y2228099D02*
X1993014D01*
X1912980Y2417099D02*
X1992965D01*
X1985379Y2282099D02*
X1992965D01*
X1971355Y2232599D02*
X1992963D01*
X1981183Y2228999D02*
X1992883D01*
X1960875Y2231699D02*
X1992853D01*
X1980494Y2229899D02*
X1992813D01*
X1961252Y2230799D02*
X1992803D01*
X1986125Y1949999D02*
X1992790D01*
X1913215Y2043599D02*
X1992503D01*
X1901900Y2030099D02*
X1992503D01*
X1913174Y2413499D02*
X1992377D01*
X1984401Y2278499D02*
X1992377D01*
X1913350Y2416199D02*
X1992193D01*
X1985474Y2281199D02*
X1992193D01*
X1988439Y1961699D02*
X1991990D01*
X1913440Y2414399D02*
X1991970D01*
X1984564Y2279399D02*
X1991970D01*
X1912196Y2048099D02*
X1991965D01*
X1913469Y2034599D02*
X1991965D01*
X1913495Y2415299D02*
X1991917D01*
X1985244Y2280299D02*
X1991917D01*
X1983463Y1954499D02*
X1991837D01*
X1942095Y2149799D02*
X1991638D01*
X1951004Y1957199D02*
X1991625D01*
X1988807Y1960799D02*
X1991623D01*
X1985003Y1950899D02*
X1991452D01*
X1913456Y2044499D02*
X1991377D01*
X1901900Y2030999D02*
X1991377D01*
X1912922Y2047199D02*
X1991193D01*
X1913253Y2033699D02*
X1991193D01*
X1984609Y1953599D02*
X1991144D01*
X1987674Y1958099D02*
X1991061D01*
X1988832Y1959899D02*
X1991060D01*
X1989807Y1966199D02*
X1991037D01*
X1985079Y1951799D02*
X1990996D01*
X1913489Y2045399D02*
X1990970D01*
X1911962Y2031899D02*
X1990970D01*
X1942554Y2148899D02*
X1990941D01*
X1913321Y2046299D02*
X1990917D01*
X1912793Y2032799D02*
X1990917D01*
X1985021Y1952699D02*
X1990908D01*
X1988522Y1958999D02*
X1990900D01*
X1942780Y2147099D02*
X1990791D01*
X1942770Y2147999D02*
X1990704D01*
X1988497Y1962599D02*
X1990652D01*
X1990083Y1965299D02*
X1990344D01*
X1983339Y2191199D02*
X1990290D01*
X1989623Y1963499D02*
X1990196D01*
X1985871Y2195699D02*
X1990112D01*
X1990030Y1964399D02*
X1990108D01*
X1912649Y2142599D02*
X1989727D01*
X1942588Y2146199D02*
X1989532D01*
X1984337Y2192099D02*
X1989310D01*
X1984905Y2194799D02*
X1989248D01*
X1939594Y2143499D02*
X1989101D01*
X1942159Y2145299D02*
X1989026D01*
X1984704Y2192999D02*
X1988949D01*
X1984727Y2193899D02*
X1988931D01*
X1941382Y2144399D02*
X1988902D01*
X1981215Y2185799D02*
X1988385D01*
X1987776Y1856399D02*
X1988224D01*
X1981384Y2181299D02*
X1988216D01*
X1987966Y1852799D02*
X1988034D01*
X1986507Y1977899D02*
X1987997D01*
X1986531Y1973399D02*
X1987469D01*
X1984568Y1931999D02*
X1987455D01*
X1982192Y2184899D02*
X1987408D01*
X1982251Y2182199D02*
X1987349D01*
X1961552Y2237999D02*
X1987225D01*
X1982552Y2183999D02*
X1987048D01*
X1982569Y2183099D02*
X1987031D01*
X1962116Y1934699D02*
X1986968D01*
X1983447Y1932899D02*
X1986925D01*
X1961048Y1933799D02*
X1986786D01*
X1960690Y2203799D02*
X1986591D01*
X1980535Y1967099D02*
X1985965D01*
X1923623Y2242499D02*
X1985949D01*
X1974471Y2207399D02*
X1985805D01*
X1972069Y2212799D02*
X1985796D01*
X1973783Y2204699D02*
X1985733D01*
X1961192Y2238899D02*
X1985679D01*
X1976497Y1917599D02*
X1985503D01*
X1974598Y2206499D02*
X1985440D01*
X1974403Y2205599D02*
X1985420D01*
X1973961Y2208299D02*
X1985381D01*
X1981123Y1963499D02*
X1985377D01*
X1937535Y2241599D02*
X1985297D01*
X1946719Y2102999D02*
X1985281D01*
X1960939Y1940099D02*
X1985212D01*
X1960215Y2239799D02*
X1985193D01*
X1981307Y1966199D02*
X1985193D01*
X1938307Y2240699D02*
X1985084D01*
X1979997Y1962599D02*
X1985083D01*
X1981530Y1964399D02*
X1984970D01*
X1977035Y1922099D02*
X1984965D01*
X1981583Y1965299D02*
X1984917D01*
X1950550Y1958099D02*
X1984845D01*
X1971751Y2211899D02*
X1984723D01*
X1963096Y1935599D02*
X1984644D01*
X1959548Y2209199D02*
X1984580D01*
X1977623Y1918499D02*
X1984377D01*
X1947660Y2098499D02*
X1984340D01*
X1970884Y2210999D02*
X1984332D01*
X1960004Y2210099D02*
X1984291D01*
X1977807Y1921199D02*
X1984193D01*
X1960973Y1961699D02*
X1984081D01*
X1962294Y1939199D02*
X1984072D01*
X1968466Y1852799D02*
X1984034D01*
X1950623Y1958999D02*
X1983997D01*
X1978030Y1919399D02*
X1983970D01*
X1948050Y2102099D02*
X1983950D01*
X1978083Y1920299D02*
X1983917D01*
X1983525Y2283899D02*
X1983892D01*
X1963457Y1936499D02*
X1983879D01*
X1965497Y2021099D02*
X1983803D01*
X1965355Y2360399D02*
X1983724D01*
X1960466Y1960799D02*
X1983712D01*
X1951030Y1959899D02*
X1983688D01*
X1963159Y1938299D02*
X1983662D01*
X1948355Y2099399D02*
X1983645D01*
X1963475Y1937399D02*
X1983606D01*
X1976083Y2356799D02*
X1983534D01*
X1983474Y1853699D02*
X1983527D01*
X1948504Y2101199D02*
X1983496D01*
X1913130Y1973399D02*
X1983469D01*
X1948592Y2100299D02*
X1983408D01*
X1966035Y2025599D02*
X1983265D01*
X1964660Y2359499D02*
X1983099D01*
X1975807Y2357699D02*
X1983027D01*
X1981806Y2284799D02*
X1982954D01*
X1975035Y2358599D02*
X1982902D01*
X1924051Y1976999D02*
X1982875D01*
X1911360Y1981499D02*
X1982778D01*
X1913421Y1974299D02*
X1982694D01*
X1966623Y2021999D02*
X1982677D01*
X1982082Y2285699D02*
X1982608D01*
X1966807Y2024699D02*
X1982493D01*
X1924069Y1977899D02*
X1982493D01*
X1923690Y1976099D02*
X1982470D01*
X1913289Y1946399D02*
X1982469D01*
X1922710Y1975199D02*
X1982418D01*
X1975321Y2199299D02*
X1982304D01*
X1962600Y1861799D02*
X1982285D01*
X1967030Y2022899D02*
X1982270D01*
X1981031Y2283899D02*
X1982235D01*
X1967083Y2023799D02*
X1982217D01*
X1901900Y1980599D02*
X1982120D01*
X1923752Y1978799D02*
X1982011D01*
X1922888Y1979699D02*
X1981904D01*
X1912861Y1947299D02*
X1981694D01*
X1961100Y1954499D02*
X1981526D01*
X1910306Y1949099D02*
X1981470D01*
X1960680Y1932899D02*
X1981441D01*
X1974555Y2198399D02*
X1981427D01*
X1912085Y1948199D02*
X1981418D01*
X1958598Y2138099D02*
X1981417D01*
X1962600Y1860899D02*
X1981308D01*
X1913084Y2256899D02*
X1981124D01*
X1971291Y2196599D02*
X1981119D01*
X1971698Y2197499D02*
X1981105D01*
X1962600Y1858199D02*
X1981002D01*
X1971751Y2191199D02*
X1980973D01*
X1962600Y1859999D02*
X1980948D01*
X1949210Y1949999D02*
X1980944D01*
X1957215Y2253299D02*
X1980934D01*
X1962600Y1859099D02*
X1980931D01*
X1978575Y1928399D02*
X1980913D01*
X1980327Y2282999D02*
X1980845D01*
X1970165Y2195699D02*
X1980747D01*
X1979735Y2280299D02*
X1980515D01*
X1913400Y2255999D02*
X1980499D01*
X1942569Y2291099D02*
X1980465D01*
X1913400Y2254199D02*
X1980427D01*
X1960939Y1953599D02*
X1980380D01*
X1978586Y1931999D02*
X1980319D01*
X1913500Y2255099D02*
X1980302D01*
X1968973Y1853699D02*
X1980278D01*
X1901900Y2279399D02*
X1980224D01*
X1950548Y1950899D02*
X1980181D01*
X1979142Y1929299D02*
X1980138D01*
X1936715Y2275799D02*
X1980034D01*
X1972069Y2192099D02*
X1979975D01*
X1960375Y1952699D02*
X1979968D01*
X1979146Y1931099D02*
X1979914D01*
X1951004Y1951799D02*
X1979910D01*
X1970715Y2194799D02*
X1979896D01*
X1979304Y1930199D02*
X1979861D01*
X1954104Y2321699D02*
X1979790D01*
X1962600Y1857299D02*
X1979788D01*
X1939961Y2133599D02*
X1979727D01*
X1942251Y2290199D02*
X1979693D01*
X1913350Y2326199D02*
X1979612D01*
X1972052Y2192999D02*
X1979607D01*
X1911693Y2278499D02*
X1979599D01*
X1971692Y2193899D02*
X1979585D01*
X1969098Y1854599D02*
X1979545D01*
X1958473Y2137199D02*
X1979532D01*
X1913175Y2276699D02*
X1979527D01*
X1941384Y2289299D02*
X1979417D01*
X1912651Y2277599D02*
X1979402D01*
X1968276Y1856399D02*
X1979358D01*
X1926160Y1882499D02*
X1979290D01*
X1968901Y1855499D02*
X1979288D01*
X1941493Y2134499D02*
X1979101D01*
X1957966Y2136299D02*
X1979026D01*
X1942221Y2135399D02*
X1978902D01*
X1978504Y2119199D02*
X1978896D01*
X1953650Y2322599D02*
X1978810D01*
X1976319Y2185799D02*
X1978785D01*
X1913495Y2325299D02*
X1978748D01*
X1977260Y2181299D02*
X1978616D01*
X1978210Y2123699D02*
X1978593D01*
X1913376Y1904099D02*
X1978503D01*
X1911835Y2288399D02*
X1978497D01*
X1952319Y2323499D02*
X1978449D01*
X1913440Y2324399D02*
X1978431D01*
X1925219Y1886999D02*
X1978337D01*
X1912723Y2312699D02*
X1978290D01*
X1952813Y2383799D02*
X1978196D01*
X1912922Y2317199D02*
X1978112D01*
X1971855Y2247899D02*
X1978022D01*
X1961098Y1962599D02*
X1978003D01*
X1911538Y1908599D02*
X1977965D01*
X1926855Y1883399D02*
X1977952D01*
X1977650Y2184899D02*
X1977808D01*
X1963092Y2122799D02*
X1977763D01*
X1926550Y1886099D02*
X1977644D01*
X1927092Y1884299D02*
X1977496D01*
X1976719Y2120999D02*
X1977492D01*
X1943856Y1967099D02*
X1977465D01*
X1962855Y2121899D02*
X1977461D01*
X1924030Y2243399D02*
X1977456D01*
X1927004Y1885199D02*
X1977408D01*
X1953604Y2375699D02*
X1977406D01*
X1913499Y1904999D02*
X1977377D01*
X1912725Y2287499D02*
X1977375D01*
X1913215Y2313599D02*
X1977310D01*
X1949219Y1945499D02*
X1977281D01*
X1913321Y2316299D02*
X1977248D01*
X1913489Y2284799D02*
X1977194D01*
X1912571Y1907699D02*
X1977193D01*
X1961569Y2229899D02*
X1977155D01*
X1913421Y1905899D02*
X1976970D01*
X1913216Y2286599D02*
X1976970D01*
X1913456Y2314499D02*
X1976949D01*
X1913489Y2315399D02*
X1976931D01*
X1913456Y2285699D02*
X1976918D01*
X1913132Y1906799D02*
X1976917D01*
X1971160Y2246999D02*
X1976883D01*
X1960901Y1963499D02*
X1976877D01*
X1913400Y1894199D02*
X1976790D01*
X1961474Y2226299D02*
X1976780D01*
X1961598Y2225399D02*
X1976762D01*
X1944092Y1966199D02*
X1976693D01*
X1924083Y2244299D02*
X1976690D01*
X1940877Y2221799D02*
X1976687D01*
X1911365Y1898699D02*
X1976612D01*
X1954438Y2393699D02*
X1976572D01*
X1961123Y2246099D02*
X1976473D01*
X1960276Y1964399D02*
X1976470D01*
X1961551Y2228999D02*
X1976465D01*
X1944004Y1965299D02*
X1976417D01*
X1959997Y2245199D02*
X1976417D01*
X1961100Y1940999D02*
X1976340D01*
X1960968Y2227199D02*
X1976322D01*
X1961190Y2228099D02*
X1976232D01*
X1961399Y2224499D02*
X1976176D01*
X1912723Y2222699D02*
X1976147D01*
X1954874Y2400899D02*
X1976136D01*
X1912861Y2307299D02*
X1976123D01*
X1901900Y2280299D02*
X1976025D01*
X1960773Y2223599D02*
X1976000D01*
X1913320Y2283899D02*
X1975983D01*
X1950550Y1944599D02*
X1975950D01*
X1913500Y1895099D02*
X1975810D01*
X1963004Y2123699D02*
X1975790D01*
X1912487Y1897799D02*
X1975748D01*
X1955274Y2382899D02*
X1975735D01*
X1960940Y1941899D02*
X1975645D01*
X1955391Y2376599D02*
X1975618D01*
X1912085Y2128199D02*
X1975612D01*
X1913289Y2306399D02*
X1975560D01*
X1951004Y1943699D02*
X1975496D01*
X1913400Y1895999D02*
X1975449D01*
X1910661Y2281199D02*
X1975449D01*
X1912921Y2282999D02*
X1975433D01*
X1913084Y1896899D02*
X1975431D01*
X1960377Y1942799D02*
X1975408D01*
X1974342Y2305499D02*
X1975400D01*
X1955688Y2394599D02*
X1975322D01*
X1962160Y2120999D02*
X1975281D01*
X1912193Y2282099D02*
X1975280D01*
X1955894Y2399999D02*
X1975115D01*
X1956104Y2381999D02*
X1974905D01*
X1971823Y2185799D02*
X1974881D01*
X1956168Y2377499D02*
X1974841D01*
X1911835Y1928399D02*
X1974834D01*
X1959681Y1931999D02*
X1974823D01*
X1962550Y2124599D02*
X1974810D01*
X1956788Y2071499D02*
X1974781D01*
X1912861Y2127299D02*
X1974748D01*
X1956333Y2395499D02*
X1974676D01*
X1956448Y2399099D02*
X1974561D01*
X1968069Y1917599D02*
X1974503D01*
X1961219Y2125499D02*
X1974449D01*
X1956563Y2381099D02*
X1974446D01*
X1913289Y2126399D02*
X1974431D01*
X1956597Y2378399D02*
X1974412D01*
X1913254Y2116499D02*
X1974340D01*
X1956681Y2396399D02*
X1974328D01*
X1956734Y2398199D02*
X1974275D01*
X1901900Y1929299D02*
X1974267D01*
X1910294Y1931099D02*
X1974263D01*
X1956779Y2380199D02*
X1974230D01*
X1956790Y2379299D02*
X1974220D01*
X1956808Y2397299D02*
X1974202D01*
X1901900Y1930199D02*
X1974104D01*
X1963944Y1922099D02*
X1973965D01*
X1901900Y2120099D02*
X1973950D01*
X1940243Y2181299D02*
X1973940D01*
X1913034Y2066999D02*
X1973840D01*
X1912795Y2117399D02*
X1973645D01*
X1971488Y2184899D02*
X1973550D01*
X1909504Y2119199D02*
X1973496D01*
X1956733Y2070599D02*
X1973450D01*
X1911965Y2118299D02*
X1973408D01*
X1968052Y1918499D02*
X1973377D01*
X1912297Y2182199D02*
X1973245D01*
X1962600Y1869899D02*
X1973224D01*
X1964716Y1921199D02*
X1973193D01*
X1912396Y2067899D02*
X1973145D01*
X1970579Y2183999D02*
X1973096D01*
X1962600Y1866299D02*
X1973034D01*
X1912978Y2183099D02*
X1973008D01*
X1956324Y2069699D02*
X1972996D01*
X1967692Y1919399D02*
X1972970D01*
X1966715Y1920299D02*
X1972917D01*
X1955191Y2068799D02*
X1972908D01*
X1913481Y2305499D02*
X1972904D01*
X1962600Y1868999D02*
X1972599D01*
X1962600Y1867199D02*
X1972527D01*
X1913376Y2354099D02*
X1972503D01*
X1962600Y1868099D02*
X1972402D01*
X1913495Y1914899D02*
X1972224D01*
X1910936Y1911299D02*
X1972034D01*
X1959710Y2202899D02*
X1972031D01*
X1911538Y2358599D02*
X1971965D01*
X1901900Y2300999D02*
X1971963D01*
X1913349Y1913999D02*
X1971599D01*
X1913469Y2304599D02*
X1971573D01*
X1912297Y1912199D02*
X1971527D01*
X1912978Y1913099D02*
X1971402D01*
X1913499Y2354999D02*
X1971377D01*
X1961625Y2341499D02*
X1971290D01*
X1911962Y2301899D02*
X1971268D01*
X1912571Y2357699D02*
X1971193D01*
X1913253Y2303699D02*
X1971119D01*
X1912793Y2302799D02*
X1971031D01*
X1913421Y2355899D02*
X1970970D01*
X1913132Y2356799D02*
X1970917D01*
X1956283Y2201999D02*
X1970893D01*
X1965710Y2164199D02*
X1970790D01*
X1965888Y2168699D02*
X1970612D01*
X1955768Y2201099D02*
X1970482D01*
X1969160Y2345999D02*
X1970337D01*
X1913440Y2054399D02*
X1970224D01*
X1961051Y2204699D02*
X1970217D01*
X1958210Y2208299D02*
X1970039D01*
X1901900Y2050799D02*
X1970034D01*
X1960503Y2342399D02*
X1969952D01*
X1966690Y2165099D02*
X1969810D01*
X1966752Y2167799D02*
X1969748D01*
X1949569Y2345099D02*
X1969644D01*
X1913174Y2053499D02*
X1969599D01*
X1961069Y2205599D02*
X1969597D01*
X1959888Y2207399D02*
X1969529D01*
X1911689Y2051699D02*
X1969527D01*
X1913130Y2333399D02*
X1969497D01*
X1948384Y2343299D02*
X1969496D01*
X1967051Y2165999D02*
X1969449D01*
X1967069Y2166899D02*
X1969431D01*
X1949251Y2344199D02*
X1969408D01*
X1912649Y2052599D02*
X1969402D01*
X1960752Y2206499D02*
X1969402D01*
X1910943Y2328899D02*
X1968969D01*
X1958552Y2251499D02*
X1968781D01*
X1961569Y2216399D02*
X1968503D01*
X1912569Y2332499D02*
X1968375D01*
X1961551Y2215499D02*
X1968285D01*
X1913489Y2194799D02*
X1968285D01*
X1901900Y2329799D02*
X1968194D01*
X1913456Y2195699D02*
X1968172D01*
X1960092Y2210999D02*
X1968116D01*
X1941252Y2190299D02*
X1968116D01*
X1941551Y2188499D02*
X1967974D01*
X1911533Y2331599D02*
X1967970D01*
X1941440Y2220899D02*
X1967965D01*
X1913349Y2183999D02*
X1967942D01*
X1901900Y2330699D02*
X1967918D01*
X1961530Y2246999D02*
X1967840D01*
X1901900Y2200199D02*
X1967634D01*
X1961439Y2232599D02*
X1967605D01*
X1961251Y2236199D02*
X1967602D01*
X1958569Y2250599D02*
X1967450D01*
X1961252Y2217299D02*
X1967377D01*
X1961190Y2214599D02*
X1967308D01*
X1913320Y2193899D02*
X1967308D01*
X1959856Y2211899D02*
X1967249D01*
X1940388Y2191199D02*
X1967249D01*
X1941600Y2219999D02*
X1967193D01*
X1961583Y2247899D02*
X1967145D01*
X1913216Y2196599D02*
X1967046D01*
X1941190Y2187599D02*
X1967044D01*
X1961600Y2233499D02*
X1967041D01*
X1960877Y2235299D02*
X1967040D01*
X1913495Y2184899D02*
X1967033D01*
X1960535Y2249699D02*
X1966996D01*
X1960388Y2218199D02*
X1966970D01*
X1960210Y2213699D02*
X1966948D01*
X1912921Y2192999D02*
X1966948D01*
X1959163Y2212799D02*
X1966931D01*
X1912193Y2192099D02*
X1966931D01*
X1949083Y2219099D02*
X1966917D01*
X1961307Y2248799D02*
X1966908D01*
X1961440Y2234399D02*
X1966880D01*
X1901900Y2199299D02*
X1966861D01*
X1901900Y2350499D02*
X1966781D01*
X1940210Y2186699D02*
X1966702D01*
X1913440Y2185799D02*
X1966698D01*
X1912725Y2197499D02*
X1966639D01*
X1911835Y2198399D02*
X1966586D01*
X1949552Y2345999D02*
X1965840D01*
X1901900Y2349599D02*
X1965450D01*
X1949192Y2346899D02*
X1965145D01*
X1911365Y2348699D02*
X1964996D01*
X1948215Y2347799D02*
X1964908D01*
X1964276Y1856399D02*
X1964724D01*
X1936884Y2271299D02*
X1964677D01*
X1964466Y1852799D02*
X1964534D01*
X1913440Y1915799D02*
X1964116D01*
X1913132Y2266799D02*
X1964061D01*
X1901900Y2270399D02*
X1963515D01*
X1910294Y2021099D02*
X1963503D01*
X1912571Y2267699D02*
X1963305D01*
X1941131Y2164199D02*
X1963290D01*
X1913175Y1916699D02*
X1963249D01*
X1942621Y2168699D02*
X1963112D01*
X1901900Y2269499D02*
X1963098D01*
X1911538Y2268599D02*
X1963038D01*
X1943939Y2025599D02*
X1962965D01*
X1912082Y2021999D02*
X1962377D01*
X1942023Y2165099D02*
X1962310D01*
X1913349Y2363999D02*
X1962281D01*
X1942789Y2167799D02*
X1962248D01*
X1943375Y2024699D02*
X1962193D01*
X1912859Y2022899D02*
X1961970D01*
X1942515Y2165999D02*
X1961949D01*
X1942756Y2166899D02*
X1961931D01*
X1913288Y2023799D02*
X1961917D01*
X1912651Y1917599D02*
X1961412D01*
X1901900Y2359499D02*
X1961340D01*
X1912978Y2363099D02*
X1960950D01*
X1912193Y1922099D02*
X1960874D01*
X1901900Y2360399D02*
X1960645D01*
X1912297Y2362199D02*
X1960496D01*
X1910936Y2361299D02*
X1960408D01*
X1911693Y1918499D02*
X1960286D01*
X1910661Y1921199D02*
X1960102D01*
X1901900Y1919399D02*
X1959879D01*
X1901900Y1920299D02*
X1959826D01*
X1913481Y2125499D02*
X1959781D01*
X1901900Y2120999D02*
X1958840D01*
X1951004Y1938299D02*
X1958654D01*
X1946003Y2342399D02*
X1958497D01*
X1913469Y2124599D02*
X1958450D01*
X1950548Y1937399D02*
X1958337D01*
X1946660Y2260499D02*
X1958290D01*
X1913421Y2424299D02*
X1958285D01*
X1911962Y2121899D02*
X1958145D01*
X1901900Y2419799D02*
X1958116D01*
X1923807Y2245199D02*
X1958003D01*
X1913253Y2123699D02*
X1957996D01*
X1912793Y2122799D02*
X1957908D01*
X1913253Y2213699D02*
X1957790D01*
X1938583Y2239799D02*
X1957785D01*
X1950968Y2218199D02*
X1957612D01*
X1947125Y2341499D02*
X1957375D01*
X1945719Y2264999D02*
X1957337D01*
X1912082Y1931999D02*
X1957319D01*
X1913130Y2423399D02*
X1957308D01*
X1956413Y2202899D02*
X1957290D01*
X1901900Y2420699D02*
X1957249D01*
X1913215Y2223599D02*
X1957227D01*
X1946531Y2337899D02*
X1957224D01*
X1947306Y2338799D02*
X1957194D01*
X1911689Y2231699D02*
X1957125D01*
X1913495Y2235299D02*
X1957123D01*
X1954001Y2207399D02*
X1957112D01*
X1950625Y1936499D02*
X1957089D01*
X1913421Y2334299D02*
X1957034D01*
X1912922Y2227199D02*
X1957032D01*
X1947530Y2340599D02*
X1956970D01*
X1947355Y2261399D02*
X1956952D01*
X1912569Y2422499D02*
X1956948D01*
X1911533Y2421599D02*
X1956931D01*
X1947582Y2339699D02*
X1956918D01*
X1923035Y2246099D02*
X1956877D01*
X1912196Y2228099D02*
X1956810D01*
X1950773Y2214599D02*
X1956810D01*
X1938530Y2238899D02*
X1956808D01*
X1953376Y2208299D02*
X1956790D01*
X1913350Y2236199D02*
X1956749D01*
X1901900Y2230799D02*
X1956748D01*
X1951474Y2217299D02*
X1956748D01*
X1943548Y1964399D02*
X1956724D01*
X1947050Y2264099D02*
X1956644D01*
X1951092Y1952699D02*
X1956625D01*
X1951092Y1939199D02*
X1956625D01*
X1951092Y1956299D02*
X1956623D01*
X1951092Y1942799D02*
X1956623D01*
X1913456Y2224499D02*
X1956601D01*
X1913034Y2336999D02*
X1956599D01*
X1912649Y2232599D02*
X1956561D01*
X1913440Y2234399D02*
X1956560D01*
X1951083Y1960799D02*
X1956534D01*
X1913499Y2335199D02*
X1956527D01*
X1913321Y2226299D02*
X1956526D01*
X1947592Y2262299D02*
X1956496D01*
X1920710Y2246999D02*
X1956470D01*
X1910669Y2228999D02*
X1956449D01*
X1951399Y2215499D02*
X1956449D01*
X1938123Y2237999D02*
X1956448D01*
X1936997Y2237099D02*
X1956431D01*
X1901900Y2229899D02*
X1956431D01*
X1951598Y2216399D02*
X1956431D01*
X1922048Y2247899D02*
X1956417D01*
X1947504Y2263199D02*
X1956408D01*
X1913489Y2225399D02*
X1956402D01*
X1913377Y2336099D02*
X1956402D01*
X1913174Y2233499D02*
X1956400D01*
X1950031Y1932899D02*
X1956320D01*
X1956221Y2203799D02*
X1956310D01*
X1954198Y2206499D02*
X1956248D01*
X1951030Y1935599D02*
X1956239D01*
X1942210Y1963499D02*
X1956099D01*
X1950856Y1953599D02*
X1956061D01*
X1950856Y1940099D02*
X1956061D01*
X1950855Y1955399D02*
X1956060D01*
X1950855Y1941899D02*
X1956060D01*
X1950807Y1961699D02*
X1956027D01*
X1950806Y1933799D02*
X1955952D01*
X1955606Y2204699D02*
X1955949D01*
X1954073Y2205599D02*
X1955931D01*
X1951082Y1934699D02*
X1955928D01*
X1950035Y1962599D02*
X1955902D01*
X1950163Y1954499D02*
X1955900D01*
X1950163Y1940999D02*
X1955900D01*
X1912793Y2212799D02*
X1955837D01*
X1939004Y2209199D02*
X1955452D01*
X1911962Y2211899D02*
X1955144D01*
X1913084Y2076899D02*
X1954997D01*
X1938550Y2210099D02*
X1954996D01*
X1937219Y2210999D02*
X1954908D01*
X1941215Y2253299D02*
X1954785D01*
X1941384Y2248799D02*
X1954616D01*
X1942025Y2139899D02*
X1954224D01*
X1942620Y2136299D02*
X1954034D01*
X1913400Y2075999D02*
X1953875D01*
X1942192Y2252399D02*
X1953808D01*
X1942251Y2249699D02*
X1953749D01*
X1942516Y2138999D02*
X1953599D01*
X1942789Y2137199D02*
X1953527D01*
X1913500Y2075099D02*
X1953470D01*
X1942552Y2251499D02*
X1953448D01*
X1942569Y2250599D02*
X1953431D01*
X1913400Y2074199D02*
X1953418D01*
X1942756Y2138099D02*
X1953402D01*
X1911169Y2068799D02*
X1953218D01*
X1913083Y2073299D02*
X1952664D01*
X1913288Y2383799D02*
X1952606D01*
X1901900Y2069699D02*
X1952085D01*
X1912484Y2072399D02*
X1951895D01*
X1910294Y2201099D02*
X1951861D01*
X1913456Y2375699D02*
X1951815D01*
X1901900Y2070599D02*
X1951676D01*
X1911360Y2071499D02*
X1951621D01*
X1913288Y2203799D02*
X1951408D01*
X1912082Y2201999D02*
X1951346D01*
X1912859Y2202899D02*
X1951216D01*
X1913253Y2393699D02*
X1950981D01*
X1913174Y2323499D02*
X1950881D01*
X1901900Y2400899D02*
X1950545D01*
X1912859Y2382899D02*
X1950145D01*
X1913216Y2376599D02*
X1950028D01*
X1910669Y2318999D02*
X1949940D01*
X1939092Y2208299D02*
X1949824D01*
X1913469Y2394599D02*
X1949731D01*
X1913480Y2204699D02*
X1949634D01*
X1912649Y2322599D02*
X1949550D01*
X1901900Y2399999D02*
X1949525D01*
X1912082Y2381999D02*
X1949314D01*
X1912725Y2377499D02*
X1949251D01*
X1901900Y2319899D02*
X1949245D01*
X1938855Y2207399D02*
X1949199D01*
X1913470Y2205599D02*
X1949127D01*
X1911689Y2321699D02*
X1949096D01*
X1913481Y2395499D02*
X1949086D01*
X1901900Y2320799D02*
X1949008D01*
X1938160Y2206499D02*
X1949002D01*
X1910306Y2399099D02*
X1948970D01*
X1941439Y2219099D02*
X1948917D01*
X1910294Y2381099D02*
X1948855D01*
X1911835Y2378399D02*
X1948821D01*
X1913289Y2396399D02*
X1948738D01*
X1912085Y2398199D02*
X1948685D01*
X1901900Y2380199D02*
X1948640D01*
X1901900Y2379299D02*
X1948629D01*
X1912861Y2397299D02*
X1948611D01*
X1901900Y2449499D02*
X1948281D01*
X1901900Y1949999D02*
X1947790D01*
X1913481Y1945499D02*
X1947781D01*
X1913499Y2444999D02*
X1947340D01*
X1913469Y2214599D02*
X1947227D01*
X1940875Y2218199D02*
X1947032D01*
X1912859Y1932899D02*
X1946969D01*
X1916497Y1962599D02*
X1946965D01*
X1911538Y2448599D02*
X1946950D01*
X1913456Y1954499D02*
X1946837D01*
X1901900Y1940999D02*
X1946837D01*
X1913421Y2445899D02*
X1946645D01*
X1913481Y2215499D02*
X1946601D01*
X1912861Y2217299D02*
X1946526D01*
X1912571Y2447699D02*
X1946496D01*
X1901900Y1950899D02*
X1946452D01*
X1912795Y1937399D02*
X1946452D01*
X1912196Y1958099D02*
X1946450D01*
X1913469Y1944599D02*
X1946450D01*
X1913132Y2446799D02*
X1946408D01*
X1913289Y2216399D02*
X1946402D01*
X1910669Y1958999D02*
X1946377D01*
X1913254Y1936499D02*
X1946375D01*
X1913288Y1933799D02*
X1946194D01*
X1911689Y1961699D02*
X1946193D01*
X1913489Y1955399D02*
X1946145D01*
X1911962Y1941899D02*
X1946145D01*
X1913215Y1953599D02*
X1946144D01*
X1901900Y1940099D02*
X1946144D01*
X1911831Y1951799D02*
X1945996D01*
X1911965Y1938299D02*
X1945996D01*
X1912922Y1957199D02*
X1945996D01*
X1913253Y1943699D02*
X1945996D01*
X1901900Y1959899D02*
X1945970D01*
X1913470Y1935599D02*
X1945970D01*
X1913480Y1934699D02*
X1945918D01*
X1901900Y1960799D02*
X1945917D01*
X1913321Y1956299D02*
X1945908D01*
X1912793Y1942799D02*
X1945908D01*
X1912723Y1952699D02*
X1945908D01*
X1909504Y1939199D02*
X1945908D01*
X1912487Y2347799D02*
X1945785D01*
X1913083Y2343299D02*
X1945616D01*
X1912921Y2102999D02*
X1945281D01*
X1913084Y2346899D02*
X1944808D01*
X1913400Y2344199D02*
X1944749D01*
X1913400Y2345999D02*
X1944448D01*
X1913500Y2345099D02*
X1944431D01*
X1911693Y2098499D02*
X1944340D01*
X1913499Y2264999D02*
X1944281D01*
X1912484Y2342399D02*
X1943997D01*
X1912193Y2102099D02*
X1943950D01*
X1901900Y2099399D02*
X1943645D01*
X1910661Y2101199D02*
X1943496D01*
X1912396Y2337899D02*
X1943469D01*
X1901900Y2100299D02*
X1943408D01*
X1904625Y2260499D02*
X1943340D01*
X1913376Y2264099D02*
X1942950D01*
X1911360Y2341499D02*
X1942875D01*
X1911169Y2338799D02*
X1942694D01*
X1911164Y2261399D02*
X1942645D01*
X1913032Y2263199D02*
X1942496D01*
X1901900Y2340599D02*
X1942470D01*
X1901900Y2339699D02*
X1942418D01*
X1912394Y2262299D02*
X1942408D01*
X1917623Y1963499D02*
X1940790D01*
X1934052Y1967999D02*
X1939837D01*
X1913480Y2024699D02*
X1939625D01*
X1911965Y2028299D02*
X1939623D01*
X1918030Y1964399D02*
X1939452D01*
X1934069Y1967099D02*
X1939144D01*
X1913470Y2025599D02*
X1939061D01*
X1912795Y2027399D02*
X1939060D01*
X1932884Y1965299D02*
X1938996D01*
X1933751Y1966199D02*
X1938908D01*
X1913254Y2026499D02*
X1938900D01*
X1913288Y2293799D02*
X1938785D01*
X1913083Y2253299D02*
X1938785D01*
X1901900Y2289299D02*
X1938616D01*
X1922504Y2248799D02*
X1938616D01*
X1911533Y2151599D02*
X1938596D01*
X1912859Y2292899D02*
X1937808D01*
X1912484Y2252399D02*
X1937808D01*
X1913174Y2143499D02*
X1937806D01*
X1911360Y2161499D02*
X1937794D01*
X1913175Y2186699D02*
X1937790D01*
X1901900Y2290199D02*
X1937749D01*
X1922592Y2249699D02*
X1937749D01*
X1910661Y2191199D02*
X1937612D01*
X1912082Y2291999D02*
X1937448D01*
X1921663Y2251499D02*
X1937448D01*
X1913215Y2133599D02*
X1937439D01*
X1910294Y2291099D02*
X1937431D01*
X1922356Y2250599D02*
X1937431D01*
X1918940Y2171399D02*
X1937431D01*
X1910936Y2181299D02*
X1937157D01*
X1912085Y2218199D02*
X1937125D01*
X1911831Y2221799D02*
X1937123D01*
X1912651Y2187599D02*
X1936810D01*
X1901900Y2190299D02*
X1936748D01*
X1910306Y2219099D02*
X1936561D01*
X1901900Y2220899D02*
X1936560D01*
X1911693Y2188499D02*
X1936449D01*
X1901900Y2189399D02*
X1936431D01*
X1913376Y2174099D02*
X1936411D01*
X1901900Y2219999D02*
X1936400D01*
X1913400Y2164199D02*
X1936269D01*
X1901900Y2140799D02*
X1936265D01*
X1913421Y2154299D02*
X1936138D01*
X1901900Y2150699D02*
X1936135D01*
X1913440Y2144399D02*
X1936018D01*
X1901900Y2160599D02*
X1936015D01*
X1913456Y2134499D02*
X1935907D01*
X1919100Y2170499D02*
X1935904D01*
X1901900Y2180399D02*
X1935800D01*
X1901900Y2210999D02*
X1935781D01*
X1913499Y2174999D02*
X1935451D01*
X1913500Y2165099D02*
X1935377D01*
X1901900Y2139899D02*
X1935375D01*
X1913499Y2155199D02*
X1935307D01*
X1901900Y2149799D02*
X1935305D01*
X1913495Y2145299D02*
X1935241D01*
X1901900Y2159699D02*
X1935239D01*
X1913489Y2135399D02*
X1935179D01*
X1918939Y2169599D02*
X1935178D01*
X1901900Y2179499D02*
X1935120D01*
X1912980Y2237099D02*
X1935003D01*
X1913421Y2175899D02*
X1934926D01*
X1913400Y2165999D02*
X1934885D01*
X1910669Y2138999D02*
X1934884D01*
X1913377Y2156099D02*
X1934847D01*
X1910943Y2148899D02*
X1934846D01*
X1913254Y2206499D02*
X1934840D01*
X1913350Y2146199D02*
X1934812D01*
X1911169Y2158799D02*
X1934811D01*
X1913321Y2136299D02*
X1934780D01*
X1918375Y2168699D02*
X1934779D01*
X1911538Y2178599D02*
X1934750D01*
X1913132Y2176799D02*
X1934660D01*
X1913084Y2166899D02*
X1934644D01*
X1912196Y2138099D02*
X1934644D01*
X1913034Y2156999D02*
X1934631D01*
X1912300Y2147999D02*
X1934630D01*
X1912980Y2147099D02*
X1934620D01*
X1912396Y2157899D02*
X1934619D01*
X1912922Y2137199D02*
X1934611D01*
X1912487Y2167799D02*
X1934611D01*
X1912571Y2177699D02*
X1934605D01*
X1922497Y2241599D02*
X1934465D01*
X1901900Y2210099D02*
X1934450D01*
X1913440Y2275799D02*
X1934285D01*
X1912795Y2207399D02*
X1934145D01*
X1910936Y2271299D02*
X1934116D01*
X1909504Y2209199D02*
X1933996D01*
X1911965Y2208299D02*
X1933908D01*
X1912300Y2237999D02*
X1933877D01*
X1901900Y2240699D02*
X1933693D01*
X1910943Y2238899D02*
X1933470D01*
X1901900Y2239799D02*
X1933417D01*
X1913495Y2274899D02*
X1933308D01*
X1912297Y2272199D02*
X1933249D01*
X1913349Y2273999D02*
X1932948D01*
X1912978Y2273099D02*
X1932931D01*
X1901900Y1969799D02*
X1930285D01*
X1918083Y1965299D02*
X1930116D01*
X1910943Y1968899D02*
X1929308D01*
X1917807Y1966199D02*
X1929249D01*
X1912300Y1967999D02*
X1928948D01*
X1917035Y1967099D02*
X1928931D01*
X1913034Y1886999D02*
X1923781D01*
X1912569Y1882499D02*
X1922840D01*
X1913377Y1886099D02*
X1922450D01*
X1913130Y1883399D02*
X1922145D01*
X1913499Y1885199D02*
X1921996D01*
X1913421Y1884299D02*
X1921908D01*
X1911533Y2241599D02*
X1920503D01*
X1913499Y1975199D02*
X1920290D01*
X1901900Y1979699D02*
X1920112D01*
X1913377Y2246099D02*
X1919965D01*
X1912569Y2242499D02*
X1919377D01*
X1913377Y1976099D02*
X1919310D01*
X1913034Y2246999D02*
X1919290D01*
X1911169Y1978799D02*
X1919248D01*
X1913499Y2245199D02*
X1919193D01*
X1913130Y2243399D02*
X1918970D01*
X1913034Y1976999D02*
X1918949D01*
X1912396Y1977899D02*
X1918931D01*
X1913421Y2244299D02*
X1918917D01*
X1911360Y2251499D02*
X1918337D01*
X1912396Y2247899D02*
X1917952D01*
X1907569Y2250599D02*
X1917644D01*
X1911169Y2248799D02*
X1917496D01*
X1907251Y2249699D02*
X1917408D01*
X1911365Y2168699D02*
X1914625D01*
X1912394Y2172299D02*
X1914623D01*
X1912649Y1962599D02*
X1914503D01*
X1901900Y2169599D02*
X1914061D01*
X1911164Y2171399D02*
X1914060D01*
X1912980Y1967099D02*
X1913965D01*
X1901900Y2170499D02*
X1913900D01*
X1913174Y1963499D02*
X1913377D01*
X1901900Y2389199D02*
X1909296D01*
X1901900Y2299199D02*
X1909296D01*
X1901900Y2209199D02*
X1909296D01*
X1901900Y2119199D02*
X1909296D01*
X1901900Y2029199D02*
X1909296D01*
X1901900Y1939199D02*
X1909296D01*
X1901900Y2381099D02*
X1908506D01*
X1901900Y2291099D02*
X1908506D01*
X1901900Y2201099D02*
X1908506D01*
X1901900Y2111099D02*
X1908506D01*
X1901900Y2021099D02*
X1908506D01*
X1901900Y1931099D02*
X1908506D01*
X1901900Y2399099D02*
X1908494D01*
X1901900Y2309099D02*
X1908494D01*
X1901900Y2219099D02*
X1908494D01*
X1901900Y2129099D02*
X1908494D01*
X1901900Y2039099D02*
X1908494D01*
X1901900Y1949099D02*
X1908494D01*
X1901900Y2371199D02*
X1908139D01*
X1901900Y2281199D02*
X1908139D01*
X1901900Y2191199D02*
X1908139D01*
X1901900Y2101199D02*
X1908139D01*
X1901900Y2011199D02*
X1908139D01*
X1901900Y1921199D02*
X1908139D01*
X1901900Y2408999D02*
X1908131D01*
X1901900Y2318999D02*
X1908131D01*
X1901900Y2228999D02*
X1908131D01*
X1901900Y2138999D02*
X1908131D01*
X1901900Y2048999D02*
X1908131D01*
X1901900Y1958999D02*
X1908131D01*
X1901900Y2451299D02*
X1907864D01*
X1901900Y2361299D02*
X1907864D01*
X1901900Y2271299D02*
X1907864D01*
X1901900Y2181299D02*
X1907864D01*
X1901900Y2091299D02*
X1907864D01*
X1901900Y2001299D02*
X1907864D01*
X1901900Y1911299D02*
X1907864D01*
X1901900Y2418899D02*
X1907857D01*
X1901900Y2328899D02*
X1907857D01*
X1901900Y2238899D02*
X1907857D01*
X1901900Y2148899D02*
X1907857D01*
X1901900Y2058899D02*
X1907857D01*
X1901900Y1968899D02*
X1907857D01*
X1901900Y2441399D02*
X1907636D01*
X1901900Y2351399D02*
X1907636D01*
X1903503Y2261399D02*
X1907636D01*
X1901900Y2171399D02*
X1907636D01*
X1901900Y2081399D02*
X1907636D01*
X1901900Y1991399D02*
X1907636D01*
X1901900Y1901399D02*
X1907636D01*
X1901900Y2338799D02*
X1907631D01*
X1906384Y2248799D02*
X1907631D01*
X1901900Y2158799D02*
X1907631D01*
X1901900Y2068799D02*
X1907631D01*
X1901900Y1978799D02*
X1907631D01*
X1901900Y1888799D02*
X1907631D01*
X1901900Y2341499D02*
X1907440D01*
X1901900Y2161499D02*
X1907440D01*
X1901900Y2071499D02*
X1907440D01*
X1901900Y1981499D02*
X1907440D01*
X1901900Y1891499D02*
X1907440D01*
X1901900Y2438699D02*
X1907435D01*
X1901900Y2348699D02*
X1907435D01*
X1905082Y2258699D02*
X1907435D01*
X1901900Y2168699D02*
X1907435D01*
X1901900Y2078699D02*
X1907435D01*
X1901900Y1988699D02*
X1907435D01*
X1901900Y1898699D02*
X1907435D01*
X1901900Y2421599D02*
X1907267D01*
X1901900Y2331599D02*
X1907267D01*
X1901900Y2241599D02*
X1907267D01*
X1901900Y2151599D02*
X1907267D01*
X1901900Y2061599D02*
X1907267D01*
X1901900Y1971599D02*
X1907267D01*
X1901900Y1881599D02*
X1907267D01*
X1901900Y2448599D02*
X1907262D01*
X1901900Y2358599D02*
X1907262D01*
X1901900Y2268599D02*
X1907262D01*
X1901900Y2178599D02*
X1907262D01*
X1901900Y2088599D02*
X1907262D01*
X1901900Y1998599D02*
X1907262D01*
X1901900Y1908599D02*
X1907262D01*
X1901900Y2411699D02*
X1907111D01*
X1901900Y2321699D02*
X1907111D01*
X1901900Y2231699D02*
X1907111D01*
X1901900Y2141699D02*
X1907111D01*
X1901900Y2051699D02*
X1907111D01*
X1901900Y1961699D02*
X1907111D01*
X1901900Y2458499D02*
X1907107D01*
X1901900Y2368499D02*
X1907107D01*
X1901900Y2278499D02*
X1907107D01*
X1901900Y2188499D02*
X1907107D01*
X1901900Y2098499D02*
X1907107D01*
X1901900Y2008499D02*
X1907107D01*
X1901900Y1918499D02*
X1907107D01*
X1901900Y2401799D02*
X1906969D01*
X1901900Y2311799D02*
X1906969D01*
X1901900Y2221799D02*
X1906969D01*
X1901900Y2131799D02*
X1906969D01*
X1901900Y2041799D02*
X1906969D01*
X1901900Y1951799D02*
X1906969D01*
X1901900Y2378399D02*
X1906965D01*
X1901900Y2288399D02*
X1906965D01*
X1901900Y2198399D02*
X1906965D01*
X1901900Y2108399D02*
X1906965D01*
X1901900Y2018399D02*
X1906965D01*
X1901900Y1928399D02*
X1906965D01*
X1901900Y2391899D02*
X1906838D01*
X1901900Y2301899D02*
X1906838D01*
X1901900Y2211899D02*
X1906838D01*
X1901900Y2121899D02*
X1906838D01*
X1901900Y2031899D02*
X1906838D01*
X1901900Y1941899D02*
X1906838D01*
X1901900Y2388299D02*
X1906835D01*
X1901900Y2298299D02*
X1906835D01*
X1901900Y2208299D02*
X1906835D01*
X1901900Y2118299D02*
X1906835D01*
X1901900Y2028299D02*
X1906835D01*
X1901900Y1938299D02*
X1906835D01*
X1901900Y2381999D02*
X1906718D01*
X1901900Y2291999D02*
X1906718D01*
X1901900Y2201999D02*
X1906718D01*
X1901900Y2111999D02*
X1906718D01*
X1901900Y2021999D02*
X1906718D01*
X1901900Y1931999D02*
X1906718D01*
X1901900Y2398199D02*
X1906715D01*
X1901900Y2308199D02*
X1906715D01*
X1901900Y2218199D02*
X1906715D01*
X1901900Y2128199D02*
X1906715D01*
X1901900Y2038199D02*
X1906715D01*
X1901900Y1948199D02*
X1906715D01*
X1901900Y2372099D02*
X1906607D01*
X1901900Y2282099D02*
X1906607D01*
X1901900Y2192099D02*
X1906607D01*
X1901900Y2102099D02*
X1906607D01*
X1901900Y2012099D02*
X1906607D01*
X1901900Y1922099D02*
X1906607D01*
X1901900Y2408099D02*
X1906604D01*
X1901900Y2318099D02*
X1906604D01*
X1901900Y2228099D02*
X1906604D01*
X1901900Y2138099D02*
X1906604D01*
X1901900Y2048099D02*
X1906604D01*
X1901900Y1958099D02*
X1906604D01*
X1901900Y2452199D02*
X1906503D01*
X1901900Y2362199D02*
X1906503D01*
X1901900Y2272199D02*
X1906503D01*
X1901900Y2182199D02*
X1906503D01*
X1901900Y2092199D02*
X1906503D01*
X1901900Y2002199D02*
X1906503D01*
X1901900Y1912199D02*
X1906503D01*
X1901900Y2417999D02*
X1906500D01*
X1901900Y2327999D02*
X1906500D01*
X1901900Y2237999D02*
X1906500D01*
X1901900Y2147999D02*
X1906500D01*
X1901900Y2057999D02*
X1906500D01*
X1901900Y1967999D02*
X1906500D01*
X1901900Y2442299D02*
X1906406D01*
X1901900Y2352299D02*
X1906406D01*
X1901900Y2262299D02*
X1906406D01*
X1901900Y2172299D02*
X1906406D01*
X1901900Y2082299D02*
X1906406D01*
X1901900Y1992299D02*
X1906406D01*
X1901900Y1902299D02*
X1906406D01*
X1901900Y2337899D02*
X1906404D01*
X1901900Y2247899D02*
X1906404D01*
X1901900Y2157899D02*
X1906404D01*
X1901900Y2067899D02*
X1906404D01*
X1901900Y1977899D02*
X1906404D01*
X1901900Y1887899D02*
X1906404D01*
X1901900Y2342399D02*
X1906316D01*
X1901900Y2162399D02*
X1906316D01*
X1901900Y2072399D02*
X1906316D01*
X1901900Y1982399D02*
X1906316D01*
X1901900Y1892399D02*
X1906316D01*
X1901900Y2437799D02*
X1906313D01*
X1901900Y2347799D02*
X1906313D01*
X1904806Y2257799D02*
X1906313D01*
X1901900Y2167799D02*
X1906313D01*
X1901900Y2077799D02*
X1906313D01*
X1901900Y1987799D02*
X1906313D01*
X1901900Y1897799D02*
X1906313D01*
X1901900Y2422499D02*
X1906231D01*
X1901900Y2332499D02*
X1906231D01*
X1901900Y2242499D02*
X1906231D01*
X1901900Y2152499D02*
X1906231D01*
X1901900Y2062499D02*
X1906231D01*
X1901900Y1972499D02*
X1906231D01*
X1901900Y1882499D02*
X1906231D01*
X1901900Y2447699D02*
X1906229D01*
X1901900Y2357699D02*
X1906229D01*
X1901900Y2267699D02*
X1906229D01*
X1901900Y2177699D02*
X1906229D01*
X1901900Y2087699D02*
X1906229D01*
X1901900Y1997699D02*
X1906229D01*
X1901900Y1907699D02*
X1906229D01*
X1901900Y2412599D02*
X1906151D01*
X1901900Y2322599D02*
X1906151D01*
X1901900Y2232599D02*
X1906151D01*
X1901900Y2142599D02*
X1906151D01*
X1901900Y2052599D02*
X1906151D01*
X1901900Y1962599D02*
X1906151D01*
X1901900Y2457599D02*
X1906149D01*
X1901900Y2367599D02*
X1906149D01*
X1901900Y2277599D02*
X1906149D01*
X1901900Y2187599D02*
X1906149D01*
X1901900Y2097599D02*
X1906149D01*
X1901900Y2007599D02*
X1906149D01*
X1901900Y1917599D02*
X1906149D01*
X1901900Y2402699D02*
X1906077D01*
X1901900Y2312699D02*
X1906077D01*
X1901900Y2222699D02*
X1906077D01*
X1901900Y2132699D02*
X1906077D01*
X1901900Y2042699D02*
X1906077D01*
X1901900Y1952699D02*
X1906077D01*
X1901900Y2377499D02*
X1906075D01*
X1901900Y2287499D02*
X1906075D01*
X1901900Y2197499D02*
X1906075D01*
X1901900Y2107499D02*
X1906075D01*
X1901900Y2017499D02*
X1906075D01*
X1901900Y1927499D02*
X1906075D01*
X1901900Y2392799D02*
X1906007D01*
X1901900Y2302799D02*
X1906007D01*
X1901900Y2212799D02*
X1906007D01*
X1901900Y2122799D02*
X1906007D01*
X1901900Y2032799D02*
X1906007D01*
X1901900Y1942799D02*
X1906007D01*
X1901900Y2387399D02*
X1906005D01*
X1901900Y2297399D02*
X1906005D01*
X1901900Y2207399D02*
X1906005D01*
X1901900Y2117399D02*
X1906005D01*
X1901900Y2027399D02*
X1906005D01*
X1901900Y1937399D02*
X1906005D01*
X1901900Y2432399D02*
X1905997D01*
X1901900Y2382899D02*
X1905941D01*
X1901900Y2292899D02*
X1905941D01*
X1901900Y2202899D02*
X1905941D01*
X1901900Y2112899D02*
X1905941D01*
X1901900Y2022899D02*
X1905941D01*
X1901900Y1932899D02*
X1905941D01*
X1901900Y2397299D02*
X1905939D01*
X1901900Y2307299D02*
X1905939D01*
X1901900Y2217299D02*
X1905939D01*
X1901900Y2127299D02*
X1905939D01*
X1901900Y2037299D02*
X1905939D01*
X1901900Y1947299D02*
X1905939D01*
X1901900Y2372999D02*
X1905879D01*
X1901900Y2282999D02*
X1905879D01*
X1901900Y2192999D02*
X1905879D01*
X1901900Y2102999D02*
X1905879D01*
X1901900Y2012999D02*
X1905879D01*
X1901900Y1922999D02*
X1905879D01*
X1901900Y2407199D02*
X1905878D01*
X1901900Y2317199D02*
X1905878D01*
X1901900Y2227199D02*
X1905878D01*
X1901900Y2137199D02*
X1905878D01*
X1901900Y2047199D02*
X1905878D01*
X1901900Y1957199D02*
X1905878D01*
X1901900Y2453099D02*
X1905822D01*
X1901900Y2363099D02*
X1905822D01*
X1901900Y2273099D02*
X1905822D01*
X1901900Y2183099D02*
X1905822D01*
X1901900Y2093099D02*
X1905822D01*
X1901900Y2003099D02*
X1905822D01*
X1901900Y1913099D02*
X1905822D01*
X1901900Y2417099D02*
X1905820D01*
X1901900Y2327099D02*
X1905820D01*
X1901900Y2237099D02*
X1905820D01*
X1901900Y2147099D02*
X1905820D01*
X1901900Y2057099D02*
X1905820D01*
X1901900Y1967099D02*
X1905820D01*
X1901900Y2443199D02*
X1905768D01*
X1901900Y2353199D02*
X1905768D01*
X1901900Y2263199D02*
X1905768D01*
X1901900Y2173199D02*
X1905768D01*
X1901900Y2083199D02*
X1905768D01*
X1901900Y1993199D02*
X1905768D01*
X1901900Y1903199D02*
X1905768D01*
X1901900Y2426999D02*
X1905766D01*
X1901900Y2336999D02*
X1905766D01*
X1901900Y2246999D02*
X1905766D01*
X1901900Y2156999D02*
X1905766D01*
X1901900Y2066999D02*
X1905766D01*
X1901900Y1976999D02*
X1905766D01*
X1901900Y1886999D02*
X1905766D01*
X1901900Y2433299D02*
X1905717D01*
X1901900Y2343299D02*
X1905717D01*
X1901900Y2163299D02*
X1905717D01*
X1901900Y2073299D02*
X1905717D01*
X1901900Y1983299D02*
X1905717D01*
X1901900Y1893299D02*
X1905717D01*
X1901900Y2436899D02*
X1905716D01*
X1901900Y2346899D02*
X1905716D01*
X1904031Y2256899D02*
X1905716D01*
X1901900Y2166899D02*
X1905716D01*
X1901900Y2076899D02*
X1905716D01*
X1901900Y1986899D02*
X1905716D01*
X1901900Y1896899D02*
X1905716D01*
X1901900Y2423399D02*
X1905670D01*
X1901900Y2333399D02*
X1905670D01*
X1901900Y2243399D02*
X1905670D01*
X1901900Y2153399D02*
X1905670D01*
X1901900Y2063399D02*
X1905670D01*
X1901900Y1973399D02*
X1905670D01*
X1901900Y1883399D02*
X1905670D01*
X1901900Y2446799D02*
X1905668D01*
X1901900Y2356799D02*
X1905668D01*
X1901900Y2266799D02*
X1905668D01*
X1901900Y2176799D02*
X1905668D01*
X1901900Y2086799D02*
X1905668D01*
X1901900Y1996799D02*
X1905668D01*
X1901900Y1906799D02*
X1905668D01*
X1901900Y2413499D02*
X1905626D01*
X1901900Y2323499D02*
X1905626D01*
X1901900Y2233499D02*
X1905626D01*
X1901900Y2143499D02*
X1905626D01*
X1901900Y2053499D02*
X1905626D01*
X1901900Y1963499D02*
X1905626D01*
X1901900Y2456699D02*
X1905625D01*
X1901900Y2366699D02*
X1905625D01*
X1901900Y2276699D02*
X1905625D01*
X1901900Y2186699D02*
X1905625D01*
X1901900Y2096699D02*
X1905625D01*
X1901900Y2006699D02*
X1905625D01*
X1901900Y1916699D02*
X1905625D01*
X1901900Y2403599D02*
X1905585D01*
X1901900Y2313599D02*
X1905585D01*
X1901900Y2223599D02*
X1905585D01*
X1901900Y2133599D02*
X1905585D01*
X1901900Y2043599D02*
X1905585D01*
X1901900Y1953599D02*
X1905585D01*
X1901900Y2376599D02*
X1905584D01*
X1901900Y2286599D02*
X1905584D01*
X1901900Y2196599D02*
X1905584D01*
X1901900Y2106599D02*
X1905584D01*
X1901900Y2016599D02*
X1905584D01*
X1901900Y1926599D02*
X1905584D01*
X1901900Y2393699D02*
X1905547D01*
X1901900Y2303699D02*
X1905547D01*
X1901900Y2213699D02*
X1905547D01*
X1901900Y2123699D02*
X1905547D01*
X1901900Y2033699D02*
X1905547D01*
X1901900Y1943699D02*
X1905547D01*
X1901900Y2386499D02*
X1905546D01*
X1901900Y2296499D02*
X1905546D01*
X1901900Y2206499D02*
X1905546D01*
X1901900Y2116499D02*
X1905546D01*
X1901900Y2026499D02*
X1905546D01*
X1901900Y1936499D02*
X1905546D01*
X1901900Y2383799D02*
X1905512D01*
X1901900Y2293799D02*
X1905512D01*
X1901900Y2203799D02*
X1905512D01*
X1901900Y2113799D02*
X1905512D01*
X1901900Y2023799D02*
X1905512D01*
X1901900Y1933799D02*
X1905512D01*
X1901900Y2396399D02*
X1905511D01*
X1901900Y2306399D02*
X1905511D01*
X1901900Y2216399D02*
X1905511D01*
X1901900Y2126399D02*
X1905511D01*
X1901900Y2036399D02*
X1905511D01*
X1901900Y1946399D02*
X1905511D01*
X1901900Y2373899D02*
X1905480D01*
X1901900Y2283899D02*
X1905480D01*
X1901900Y2193899D02*
X1905480D01*
X1901900Y2103899D02*
X1905480D01*
X1901900Y2013899D02*
X1905480D01*
X1901900Y1923899D02*
X1905480D01*
X1901900Y2406299D02*
X1905479D01*
X1901900Y2316299D02*
X1905479D01*
X1901900Y2226299D02*
X1905479D01*
X1901900Y2136299D02*
X1905479D01*
X1901900Y2046299D02*
X1905479D01*
X1901900Y1956299D02*
X1905479D01*
X1901900Y2427899D02*
X1905469D01*
X1901900Y2453999D02*
X1905451D01*
X1901900Y2363999D02*
X1905451D01*
X1901900Y2273999D02*
X1905451D01*
X1901900Y2183999D02*
X1905451D01*
X1901900Y2093999D02*
X1905451D01*
X1901900Y2003999D02*
X1905451D01*
X1901900Y1913999D02*
X1905451D01*
X1901900Y2416199D02*
X1905450D01*
X1901900Y2326199D02*
X1905450D01*
X1901900Y2236199D02*
X1905450D01*
X1901900Y2146199D02*
X1905450D01*
X1901900Y2056199D02*
X1905450D01*
X1901900Y1966199D02*
X1905450D01*
X1901900Y2444099D02*
X1905424D01*
X1901900Y2354099D02*
X1905424D01*
X1901900Y2264099D02*
X1905424D01*
X1901900Y2174099D02*
X1905424D01*
X1901900Y2084099D02*
X1905424D01*
X1901900Y1994099D02*
X1905424D01*
X1901900Y1904099D02*
X1905424D01*
X1901900Y2426099D02*
X1905423D01*
X1901900Y2336099D02*
X1905423D01*
X1901900Y2246099D02*
X1905423D01*
X1901900Y2156099D02*
X1905423D01*
X1901900Y2066099D02*
X1905423D01*
X1901900Y1976099D02*
X1905423D01*
X1901900Y1886099D02*
X1905423D01*
X1901900Y2434199D02*
X1905400D01*
X1901900Y2344199D02*
X1905400D01*
X1901900Y2254199D02*
X1905400D01*
X1901900Y2164199D02*
X1905400D01*
X1901900Y2074199D02*
X1905400D01*
X1901900Y1984199D02*
X1905400D01*
X1901900Y1894199D02*
X1905400D01*
X1901900Y2435999D02*
X1905400D01*
X1901900Y2345999D02*
X1905400D01*
X1901900Y2255999D02*
X1905400D01*
X1901900Y2165999D02*
X1905400D01*
X1901900Y2075999D02*
X1905400D01*
X1901900Y1985999D02*
X1905400D01*
X1901900Y1895999D02*
X1905400D01*
X1901900Y2424299D02*
X1905379D01*
X1901900Y2334299D02*
X1905379D01*
X1901900Y2244299D02*
X1905379D01*
X1901900Y2154299D02*
X1905379D01*
X1901900Y2064299D02*
X1905379D01*
X1901900Y1974299D02*
X1905379D01*
X1901900Y1884299D02*
X1905379D01*
X1901900Y2445899D02*
X1905379D01*
X1901900Y2355899D02*
X1905379D01*
X1901900Y2265899D02*
X1905379D01*
X1901900Y2175899D02*
X1905379D01*
X1901900Y2085899D02*
X1905379D01*
X1901900Y1995899D02*
X1905379D01*
X1901900Y1905899D02*
X1905379D01*
X1901900Y2414399D02*
X1905360D01*
X1901900Y2324399D02*
X1905360D01*
X1901900Y2234399D02*
X1905360D01*
X1901900Y2144399D02*
X1905360D01*
X1901900Y2054399D02*
X1905360D01*
X1901900Y1964399D02*
X1905360D01*
X1901900Y2455799D02*
X1905360D01*
X1901900Y2365799D02*
X1905360D01*
X1901900Y2275799D02*
X1905360D01*
X1901900Y2185799D02*
X1905360D01*
X1901900Y2095799D02*
X1905360D01*
X1901900Y2005799D02*
X1905360D01*
X1901900Y1915799D02*
X1905360D01*
X1901900Y2404499D02*
X1905344D01*
X1901900Y2314499D02*
X1905344D01*
X1901900Y2224499D02*
X1905344D01*
X1901900Y2134499D02*
X1905344D01*
X1901900Y2044499D02*
X1905344D01*
X1901900Y1954499D02*
X1905344D01*
X1901900Y2375699D02*
X1905344D01*
X1901900Y2285699D02*
X1905344D01*
X1901900Y2195699D02*
X1905344D01*
X1901900Y2105699D02*
X1905344D01*
X1901900Y2015699D02*
X1905344D01*
X1901900Y1925699D02*
X1905344D01*
X1901900Y2394599D02*
X1905331D01*
X1901900Y2304599D02*
X1905331D01*
X1901900Y2214599D02*
X1905331D01*
X1901900Y2124599D02*
X1905331D01*
X1901900Y2034599D02*
X1905331D01*
X1901900Y1944599D02*
X1905331D01*
X1901900Y2385599D02*
X1905330D01*
X1901900Y2295599D02*
X1905330D01*
X1901900Y2205599D02*
X1905330D01*
X1901900Y2115599D02*
X1905330D01*
X1901900Y2025599D02*
X1905330D01*
X1901900Y1935599D02*
X1905330D01*
X1901900Y2384699D02*
X1905320D01*
X1901900Y2294699D02*
X1905320D01*
X1901900Y2204699D02*
X1905320D01*
X1901900Y2114699D02*
X1905320D01*
X1901900Y2024699D02*
X1905320D01*
X1901900Y1934699D02*
X1905320D01*
X1901900Y2395499D02*
X1905319D01*
X1901900Y2305499D02*
X1905319D01*
X1901900Y2215499D02*
X1905319D01*
X1901900Y2125499D02*
X1905319D01*
X1901900Y2035499D02*
X1905319D01*
X1901900Y1945499D02*
X1905319D01*
X1901900Y2374799D02*
X1905311D01*
X1901900Y2284799D02*
X1905311D01*
X1901900Y2194799D02*
X1905311D01*
X1901900Y2104799D02*
X1905311D01*
X1901900Y2014799D02*
X1905311D01*
X1901900Y1924799D02*
X1905311D01*
X1901900Y2405399D02*
X1905311D01*
X1901900Y2315399D02*
X1905311D01*
X1901900Y2225399D02*
X1905311D01*
X1901900Y2135399D02*
X1905311D01*
X1901900Y2045399D02*
X1905311D01*
X1901900Y1955399D02*
X1905311D01*
X1901900Y2454899D02*
X1905305D01*
X1901900Y2364899D02*
X1905305D01*
X1901900Y2274899D02*
X1905305D01*
X1901900Y2184899D02*
X1905305D01*
X1901900Y2094899D02*
X1905305D01*
X1901900Y2004899D02*
X1905305D01*
X1901900Y1914899D02*
X1905305D01*
X1901900Y2415299D02*
X1905305D01*
X1901900Y2325299D02*
X1905305D01*
X1901900Y2235299D02*
X1905305D01*
X1901900Y2145299D02*
X1905305D01*
X1901900Y2055299D02*
X1905305D01*
X1901900Y1965299D02*
X1905305D01*
X1901900Y2444999D02*
X1905301D01*
X1901900Y2354999D02*
X1905301D01*
X1901900Y2264999D02*
X1905301D01*
X1901900Y2174999D02*
X1905301D01*
X1901900Y2084999D02*
X1905301D01*
X1901900Y1994999D02*
X1905301D01*
X1901900Y1904999D02*
X1905301D01*
X1901900Y2425199D02*
X1905301D01*
X1901900Y2335199D02*
X1905301D01*
X1901900Y2245199D02*
X1905301D01*
X1901900Y2155199D02*
X1905301D01*
X1901900Y2065199D02*
X1905301D01*
X1901900Y1975199D02*
X1905301D01*
X1901900Y1885199D02*
X1905301D01*
X1901900Y2435099D02*
X1905300D01*
X1901900Y2345099D02*
X1905300D01*
X1901900Y2255099D02*
X1905300D01*
X1901900Y2165099D02*
X1905300D01*
X1901900Y2075099D02*
X1905300D01*
X1901900Y1985099D02*
X1905300D01*
X1901900Y1895099D02*
X1905300D01*
X1901900Y2431499D02*
X1904875D01*
X1901900Y2428799D02*
X1904694D01*
X1901900Y2430599D02*
X1904470D01*
X1901900Y2429699D02*
X1904418D01*
X1901900Y2253299D02*
X1903785D01*
X1901900Y2248799D02*
X1903616D01*
X1901900Y2252399D02*
X1902808D01*
X1901900Y2249699D02*
X1902749D01*
X1901900Y2251499D02*
X1902448D01*
X1901900Y2250599D02*
X1902431D01*
X2066211Y1887796D02*
X2066389D01*
G54D28*
X1986000Y1854500D03*
X1980000Y1885000D03*
X1979500Y1906500D03*
X1982444Y1930500D03*
X2003500Y1950500D03*
X1948500Y1960500D03*
X1979000Y1965000D03*
X1992700Y1964200D03*
X2078500Y1991000D03*
X1964500Y2023500D03*
X1975500Y2069000D03*
X1939000Y2189000D03*
X1969500Y2192500D03*
X1991500Y2193500D03*
X2009500D03*
X2021000Y2183500D03*
X1959000Y2216000D03*
X2053500Y2212000D03*
X1939000Y2220000D03*
X1959000Y2233500D03*
X2053500Y2235500D03*
X1982000Y2277500D03*
X1999500Y2267500D03*
X2025000D03*
X2015500D03*
X2005000Y2331000D03*
X1967500Y2348000D03*
X2001000Y2385500D03*
X2076000Y2386500D03*
X1907000Y2430000D03*
G54D29*
X2070285Y1886385D02*
X2071063Y1887163D01*
X2070285Y1883415D02*
X2071063Y1882637D01*
X2067315Y1883415D02*
X2066537Y1882637D01*
X2000730Y2127394D02*
X2001508Y2128172D01*
X2000730Y2123151D02*
X2001508Y2122373D01*
X1996487Y2127394D02*
X1995710Y2128172D01*
X1996487Y2123151D02*
X1995710Y2122373D01*
X2079721Y2172821D02*
X2080499Y2173599D01*
X2079721Y2168579D02*
X2080499Y2167801D01*
X2075479Y2172821D02*
X2074701Y2173599D01*
X2075479Y2168579D02*
X2074701Y2167801D01*
X2069721Y2172821D02*
X2070499Y2173599D01*
X2069721Y2168579D02*
X2070499Y2167801D01*
X2065479Y2172821D02*
X2064701Y2173599D01*
X2065479Y2168579D02*
X2064701Y2167801D01*
X2059721Y2172821D02*
X2060499Y2173599D01*
X2059721Y2168579D02*
X2060499Y2167801D01*
X2055479Y2172821D02*
X2054701Y2173599D01*
X2055479Y2168579D02*
X2054701Y2167801D01*
X2049721Y2172821D02*
X2050499Y2173599D01*
X2049721Y2168579D02*
X2050499Y2167801D01*
X2045479Y2172821D02*
X2044701Y2173599D01*
X2045479Y2168579D02*
X2044701Y2167801D01*
X2067315Y1886385D02*
X2066537Y1887163D01*
X1905939Y2431061D02*
X1905162Y2431838D01*
X1905939Y2428939D02*
X1905162Y2428162D01*
X1940061Y2221061D02*
X1940838Y2221838D01*
X1940061Y2218939D02*
X1940838Y2218162D01*
X1937939Y2221061D02*
X1937162Y2221838D01*
X1937939Y2218939D02*
X1937162Y2218162D01*
X1940061Y2190061D02*
X1940838Y2190838D01*
X1940061Y2187939D02*
X1940838Y2187162D01*
X1937939Y2190061D02*
X1937162Y2190838D01*
X1937939Y2187939D02*
X1937162Y2187162D01*
X1949561Y1961561D02*
X1950338Y1962338D01*
X1947439Y1961561D02*
X1946662Y1962338D01*
X1968561Y2349061D02*
X1969338Y2349838D01*
X1968561Y2346939D02*
X1969338Y2346162D01*
X1966439Y2349061D02*
X1965662Y2349838D01*
X1966439Y2346939D02*
X1965662Y2346162D01*
X1960061Y2217061D02*
X1960838Y2217838D01*
X1960061Y2214939D02*
X1960838Y2214162D01*
X1957939Y2217061D02*
X1957162Y2217838D01*
X1957939Y2214939D02*
X1957162Y2214162D01*
X1965561Y2024561D02*
X1966338Y2025338D01*
X1965561Y2022439D02*
X1966338Y2021662D01*
X1963439Y2024561D02*
X1962662Y2025338D01*
X1963439Y2022439D02*
X1962662Y2021662D01*
X1980061Y1966061D02*
X1980838Y1966838D01*
X1980061Y1963939D02*
X1980838Y1963162D01*
X1977939Y1966061D02*
X1977162Y1966838D01*
X1977939Y1963939D02*
X1977162Y1963162D01*
X1983061Y2276439D02*
X1983838Y2275662D01*
X1980939Y2278561D02*
X1980162Y2279338D01*
X1980939Y2276439D02*
X1980162Y2275662D01*
X1980561Y1907561D02*
X1981338Y1908338D01*
X1980561Y1905439D02*
X1981338Y1904662D01*
X1978439Y1907561D02*
X1977662Y1908338D01*
X1978439Y1905439D02*
X1977662Y1904662D01*
X1983505Y1931561D02*
X1984282Y1932338D01*
X1983505Y1929439D02*
X1984282Y1928662D01*
X1981383Y1931561D02*
X1980605Y1932338D01*
X1981383Y1929439D02*
X1980605Y1928662D01*
X1981061Y1886061D02*
X1981838Y1886838D01*
X1981061Y1883939D02*
X1981838Y1883162D01*
X1978939Y1886061D02*
X1978162Y1886838D01*
X1978939Y1883939D02*
X1978162Y1883162D01*
X1984939Y1853439D02*
X1984162Y1852662D01*
X2006061Y2332061D02*
X2006838Y2332838D01*
X2006061Y2329939D02*
X2006838Y2329162D01*
X2003939Y2332061D02*
X2003162Y2332838D01*
X2003939Y2329939D02*
X2003162Y2329162D01*
X1993761Y1965261D02*
X1994538Y1966038D01*
X1993761Y1963139D02*
X1994538Y1962362D01*
X1991639Y1965261D02*
X1990862Y1966038D01*
X1991639Y1963139D02*
X1990862Y1962362D01*
X1992561Y2194561D02*
X1993338Y2195338D01*
X1992561Y2192439D02*
X1993338Y2191662D01*
X1990439Y2194561D02*
X1989662Y2195338D01*
X1990439Y2192439D02*
X1989662Y2191662D01*
X2004561Y1949439D02*
X2005338Y1948662D01*
X2002439Y1949439D02*
X2001662Y1948662D01*
X2000561Y2268561D02*
X2001338Y2269338D01*
X2000561Y2266439D02*
X2001338Y2265662D01*
X1998439Y2268561D02*
X1997662Y2269338D01*
X1998439Y2266439D02*
X1997662Y2265662D01*
X2002061Y2386561D02*
X2002838Y2387338D01*
X2002061Y2384439D02*
X2002838Y2383662D01*
X1999939Y2386561D02*
X1999162Y2387338D01*
X1999939Y2384439D02*
X1999162Y2383662D01*
X2010561Y2192439D02*
X2011338Y2191662D01*
X2008439Y2194561D02*
X2007662Y2195338D01*
X2008439Y2192439D02*
X2007662Y2191662D01*
X2016561Y2268561D02*
X2017338Y2269338D01*
X2016561Y2266439D02*
X2017338Y2265662D01*
X2014439Y2268561D02*
X2013662Y2269338D01*
X2014439Y2266439D02*
X2013662Y2265662D01*
X2022061Y2184561D02*
X2022838Y2185338D01*
X2022061Y2182439D02*
X2022838Y2181662D01*
X2019939Y2184561D02*
X2019162Y2185338D01*
X2019939Y2182439D02*
X2019162Y2181662D01*
X2026061Y2268561D02*
X2026838Y2269338D01*
X2026061Y2266439D02*
X2026838Y2265662D01*
X2023939Y2268561D02*
X2023162Y2269338D01*
X2023939Y2266439D02*
X2023162Y2265662D01*
X2054561Y2213061D02*
X2055338Y2213838D01*
X2052439Y2213061D02*
X2051662Y2213838D01*
X2052439Y2210939D02*
X2051662Y2210162D01*
X2054561Y2236561D02*
X2055338Y2237338D01*
X2054561Y2234439D02*
X2055338Y2233662D01*
X2052439Y2236561D02*
X2051662Y2237338D01*
X2052439Y2234439D02*
X2051662Y2233662D01*
X2077061Y2387561D02*
X2077838Y2388338D01*
X2077061Y2385439D02*
X2077838Y2384662D01*
X2074939Y2387561D02*
X2074162Y2388338D01*
X2074939Y2385439D02*
X2074162Y2384662D01*
X2079561Y1992061D02*
X2080338Y1992838D01*
X2079561Y1989939D02*
X2080338Y1989162D01*
X2077439Y1992061D02*
X2076662Y1992838D01*
X1970561Y2193561D02*
X1971338Y2194338D01*
X1970561Y2191439D02*
X1971338Y2190662D01*
X1968439Y2193561D02*
X1967662Y2194338D01*
X1968439Y2191439D02*
X1967662Y2190662D01*
X1976561Y2070061D02*
X1977338Y2070838D01*
X1976561Y2067939D02*
X1977338Y2067162D01*
X1974439Y2070061D02*
X1973662Y2070838D01*
X1974439Y2067939D02*
X1973662Y2067162D01*
G54D54*
X2068800Y1884900D03*
G74*
X0Y0D02*
M02*
