*
*
G04 PADS VX.2.1 Build Number: 6554490 generated Gerber (RS-274-X) file*
G04 PC Version=2.1*
*
%IN "uMuddMarkVTesterLayout_"*%
*
%MOIN*%
*
%FSLAX35Y35*%
*
*
*
*
G04 PC Standard Apertures*
*
*
G04 Thermal Relief Aperture macro.*
%AMTER*
1,1,$1,0,0*
1,0,$1-$2,0,0*
21,0,$3,$4,0,0,45*
21,0,$3,$4,0,0,135*
%
*
*
G04 Annular Aperture macro.*
%AMANN*
1,1,$1,0,0*
1,0,$2,0,0*
%
*
*
G04 Odd Aperture macro.*
%AMODD*
1,1,$1,0,0*
1,0,$1-0.005,0,0*
%
*
*
G04 PC Custom Aperture Macros*
*
*
*
*
*
*
G04 PC Aperture Table*
*
%ADD010C,0.001*%
%ADD011C,0.01*%
*
*
*
*
G04 PC Circuitry*
G04 Layer Name uMuddMarkVTesterLayout_ - circuitry*
%LPD*%
*
*
G04 PC Custom Flashes*
G04 Layer Name uMuddMarkVTesterLayout_ - flashes*
%LPD*%
*
*
G04 PC Circuitry*
G04 Layer Name uMuddMarkVTesterLayout_ - circuitry*
%LPD*%
*
G54D10*
G01X2046100Y2234600D02*
X2046103D01*
X1845500D02*
X1845503D01*
X2045400Y1811500D02*
X2045403D01*
X2045400Y2234200D02*
X2045403D01*
G54D11*
X1962700Y1884300D02*
X1970700D01*
X1966700Y1880300D02*
Y1888300D01*
X1957700Y1884300D02*
X1965700D01*
X1961700Y1880300D02*
Y1888300D01*
X1962700Y1889300D02*
X1970700D01*
X1966700Y1885300D02*
Y1893300D01*
X1957700Y1889300D02*
X1965700D01*
X1961700Y1885300D02*
Y1893300D01*
X1962700Y1894300D02*
X1970700D01*
X1966700Y1890300D02*
Y1898300D01*
X1957700Y1894300D02*
X1965700D01*
X1961700Y1890300D02*
Y1898300D01*
X1962700Y1899300D02*
X1970700D01*
X1966700Y1895300D02*
Y1903300D01*
X1957700Y1899300D02*
X1965700D01*
X1961700Y1895300D02*
Y1903300D01*
X1962700Y1904300D02*
X1970700D01*
X1966700Y1900300D02*
Y1908300D01*
X1957700Y1904300D02*
X1965700D01*
X1961700Y1900300D02*
Y1908300D01*
X1956000Y2066000D02*
X1964000Y2074000D01*
X1956000D02*
X1964000Y2066000D01*
X1956000Y2056000D02*
X1964000Y2064000D01*
X1956000D02*
X1964000Y2056000D01*
X1956000Y2046000D02*
X1964000Y2054000D01*
X1956000D02*
X1964000Y2046000D01*
X1956000Y2036000D02*
X1964000Y2044000D01*
X1956000D02*
X1964000Y2036000D01*
X1956000Y2026000D02*
X1964000Y2034000D01*
X1956000D02*
X1964000Y2026000D01*
X1956000Y2016000D02*
X1964000Y2024000D01*
X1956000D02*
X1964000Y2016000D01*
X1956000Y2006000D02*
X1964000Y2014000D01*
X1956000D02*
X1964000Y2006000D01*
X1956000Y1996000D02*
X1964000Y2004000D01*
X1956000D02*
X1964000Y1996000D01*
X1956000Y1986000D02*
X1964000Y1994000D01*
X1956000D02*
X1964000Y1986000D01*
X1956000Y1976000D02*
X1964000Y1984000D01*
X1956000D02*
X1964000Y1976000D01*
X1986000D02*
X1994000Y1984000D01*
X1986000D02*
X1994000Y1976000D01*
X1986000Y1986000D02*
X1994000Y1994000D01*
X1986000D02*
X1994000Y1986000D01*
X1986000Y1996000D02*
X1994000Y2004000D01*
X1986000D02*
X1994000Y1996000D01*
X1986000Y2006000D02*
X1994000Y2014000D01*
X1986000D02*
X1994000Y2006000D01*
X1986000Y2016000D02*
X1994000Y2024000D01*
X1986000D02*
X1994000Y2016000D01*
X1986000Y2026000D02*
X1994000Y2034000D01*
X1986000D02*
X1994000Y2026000D01*
X1986000Y2036000D02*
X1994000Y2044000D01*
X1986000D02*
X1994000Y2036000D01*
X1986000Y2046000D02*
X1994000Y2054000D01*
X1986000D02*
X1994000Y2046000D01*
X1986000Y2056000D02*
X1994000Y2064000D01*
X1986000D02*
X1994000Y2056000D01*
X1986000Y2066000D02*
X1994000Y2074000D01*
X1986000D02*
X1994000Y2066000D01*
X1974400Y2156500D02*
X1982400D01*
Y2164500*
X1974400*
Y2156500*
X1978400Y2160500D02*
Y2164500D01*
X1974400Y2216700D02*
X1982400D01*
Y2224700*
X1974400*
Y2216700*
X1978400Y2220700D02*
Y2224700D01*
X1916000Y1976000D02*
X1924000Y1984000D01*
X1916000D02*
X1924000Y1976000D01*
X1916000Y1986000D02*
X1924000Y1994000D01*
X1916000D02*
X1924000Y1986000D01*
X1916000Y1996000D02*
X1924000Y2004000D01*
X1916000D02*
X1924000Y1996000D01*
X1916000Y2006000D02*
X1924000Y2014000D01*
X1916000D02*
X1924000Y2006000D01*
X1916000Y2016000D02*
X1924000Y2024000D01*
X1916000D02*
X1924000Y2016000D01*
X1916000Y2026000D02*
X1924000Y2034000D01*
X1916000D02*
X1924000Y2026000D01*
X1916000Y2036000D02*
X1924000Y2044000D01*
X1916000D02*
X1924000Y2036000D01*
X1916000Y2046000D02*
X1924000Y2054000D01*
X1916000D02*
X1924000Y2046000D01*
X1916000Y2056000D02*
X1924000Y2064000D01*
X1916000D02*
X1924000Y2056000D01*
X1916000Y2066000D02*
X1924000Y2074000D01*
X1916000D02*
X1924000Y2066000D01*
X1910000Y1936000D02*
X1914000Y1940000D01*
X1910000Y1944000*
X1906000Y1940000*
X1910000Y1936000*
Y1940000D02*
Y1944000D01*
X1920000Y1936000D02*
X1924000Y1940000D01*
X1920000Y1944000*
X1916000Y1940000*
X1920000Y1936000*
Y1940000D02*
Y1944000D01*
X1910000Y1926000D02*
X1914000Y1930000D01*
X1910000Y1934000*
X1906000Y1930000*
X1910000Y1926000*
Y1930000D02*
Y1934000D01*
X1920000Y1926000D02*
X1924000Y1930000D01*
X1920000Y1934000*
X1916000Y1930000*
X1920000Y1926000*
Y1930000D02*
Y1934000D01*
X1910000Y1916000D02*
X1914000Y1920000D01*
X1910000Y1924000*
X1906000Y1920000*
X1910000Y1916000*
Y1920000D02*
Y1924000D01*
X1920000Y1916000D02*
X1924000Y1920000D01*
X1920000Y1924000*
X1916000Y1920000*
X1920000Y1916000*
Y1920000D02*
Y1924000D01*
X1910000Y1906000D02*
X1914000Y1910000D01*
X1910000Y1914000*
X1906000Y1910000*
X1910000Y1906000*
Y1910000D02*
Y1914000D01*
X1920000Y1906000D02*
X1924000Y1910000D01*
X1920000Y1914000*
X1916000Y1910000*
X1920000Y1906000*
Y1910000D02*
Y1914000D01*
X1910000Y1896000D02*
X1914000Y1900000D01*
X1910000Y1904000*
X1906000Y1900000*
X1910000Y1896000*
Y1900000D02*
Y1904000D01*
X1920000Y1896000D02*
X1924000Y1900000D01*
X1920000Y1904000*
X1916000Y1900000*
X1920000Y1896000*
Y1900000D02*
Y1904000D01*
X1887600Y2157300D02*
X1895600D01*
Y2165300*
X1887600*
Y2157300*
X1891600Y2161300D02*
Y2165300D01*
X1887600Y2217500D02*
X1895600D01*
Y2225500*
X1887600*
Y2217500*
X1891600Y2221500D02*
Y2225500D01*
X1853200Y2217700D02*
X1861200D01*
X1853200Y2225700*
X1861200*
X1853200Y2217700*
X2027200Y2217800D02*
X2035200D01*
X2027200Y2225800*
X2035200*
X2027200Y2217800*
X2029900Y1820900D02*
X2037900D01*
X2029900Y1828900*
X2037900*
X2029900Y1820900*
X1853800Y1821100D02*
X1861800D01*
X1853800Y1829100*
X1861800*
X1853800Y1821100*
X1980666Y1825679D02*
X1988666Y1833679D01*
Y1825679*
X1980666Y1833679*
Y1825679*
X1976729Y1817805D02*
X1984729Y1825805D01*
Y1817805*
X1976729Y1825805*
Y1817805*
X1972792Y1825679D02*
X1980792Y1833679D01*
Y1825679*
X1972792Y1833679*
Y1825679*
X1968855Y1817805D02*
X1976855Y1825805D01*
Y1817805*
X1968855Y1825805*
Y1817805*
X1964918Y1825679D02*
X1972918Y1833679D01*
Y1825679*
X1964918Y1833679*
Y1825679*
X1960981Y1817805D02*
X1968981Y1825805D01*
Y1817805*
X1960981Y1825805*
Y1817805*
X1957044Y1825679D02*
X1965044Y1833679D01*
Y1825679*
X1957044Y1833679*
Y1825679*
X1953107Y1817805D02*
X1961107Y1825805D01*
Y1817805*
X1953107Y1825805*
Y1817805*
X1949170Y1825679D02*
X1957170Y1833679D01*
Y1825679*
X1949170Y1833679*
Y1825679*
X1945233Y1817805D02*
X1953233Y1825805D01*
Y1817805*
X1945233Y1825805*
Y1817805*
X1941296Y1825679D02*
X1949296Y1833679D01*
Y1825679*
X1941296Y1833679*
Y1825679*
X1929485Y1817805D02*
X1937485Y1825805D01*
Y1817805*
X1929485Y1825805*
Y1817805*
X1925548Y1825679D02*
X1933548Y1833679D01*
Y1825679*
X1925548Y1833679*
Y1825679*
X1921611Y1817805D02*
X1929611Y1825805D01*
Y1817805*
X1921611Y1825805*
Y1817805*
X1917674Y1825679D02*
X1925674Y1833679D01*
Y1825679*
X1917674Y1833679*
Y1825679*
X1913737Y1817805D02*
X1921737Y1825805D01*
Y1817805*
X1913737Y1825805*
Y1817805*
X1909800Y1825679D02*
X1917800Y1833679D01*
Y1825679*
X1909800Y1833679*
Y1825679*
X1905863Y1817805D02*
X1913863Y1825805D01*
Y1817805*
X1905863Y1825805*
Y1817805*
X1980666Y1835521D02*
X1988666Y1843521D01*
Y1835521*
X1980666Y1843521*
Y1835521*
X1976729Y1843395D02*
X1984729Y1851395D01*
Y1843395*
X1976729Y1851395*
Y1843395*
X1972792Y1835521D02*
X1980792Y1843521D01*
Y1835521*
X1972792Y1843521*
Y1835521*
X1968855Y1843395D02*
X1976855Y1851395D01*
Y1843395*
X1968855Y1851395*
Y1843395*
X1964918Y1835521D02*
X1972918Y1843521D01*
Y1835521*
X1964918Y1843521*
Y1835521*
X1960981Y1843395D02*
X1968981Y1851395D01*
Y1843395*
X1960981Y1851395*
Y1843395*
X1957044Y1835521D02*
X1965044Y1843521D01*
Y1835521*
X1957044Y1843521*
Y1835521*
X1953107Y1843395D02*
X1961107Y1851395D01*
Y1843395*
X1953107Y1851395*
Y1843395*
X1949170Y1835521D02*
X1957170Y1843521D01*
Y1835521*
X1949170Y1843521*
Y1835521*
X1945233Y1843395D02*
X1953233Y1851395D01*
Y1843395*
X1945233Y1851395*
Y1843395*
X1941296Y1835521D02*
X1949296Y1843521D01*
Y1835521*
X1941296Y1843521*
Y1835521*
X1929485Y1843395D02*
X1937485Y1851395D01*
Y1843395*
X1929485Y1851395*
Y1843395*
X1925548Y1835521D02*
X1933548Y1843521D01*
Y1835521*
X1925548Y1843521*
Y1835521*
X1921611Y1843395D02*
X1929611Y1851395D01*
Y1843395*
X1921611Y1851395*
Y1843395*
X1917674Y1835521D02*
X1925674Y1843521D01*
Y1835521*
X1917674Y1843521*
Y1835521*
X1913737Y1843395D02*
X1921737Y1851395D01*
Y1843395*
X1913737Y1851395*
Y1843395*
X1909800Y1835521D02*
X1917800Y1843521D01*
Y1835521*
X1909800Y1843521*
Y1835521*
X1905863Y1843395D02*
X1913863Y1851395D01*
Y1843395*
X1905863Y1851395*
Y1843395*
X1934800Y1834600D02*
X1942800D01*
X1938800Y1830600D02*
Y1838600D01*
X1941709Y1839881D02*
X1940800Y1836600D01*
X1941709Y1839881D02*
X1942618Y1836600D01*
X1941141Y1837694D02*
X1942277D01*
X1898776Y1834600D02*
X1906776D01*
X1902776Y1830600D02*
Y1838600D01*
X1905685Y1839881D02*
X1904776Y1836600D01*
X1905685Y1839881D02*
X1906595Y1836600D01*
X1905117Y1837694D02*
X1906254D01*
X1886000Y1815000D02*
X1894000D01*
X1890000Y1811000D02*
Y1819000D01*
X1892000Y1820281D02*
Y1817000D01*
Y1820281D02*
X1893023D01*
X1893364Y1820125*
X1893477Y1819969*
X1893591Y1819656*
Y1819344*
X1893477Y1819031*
X1893364Y1818875*
X1893023Y1818719*
X1892000D02*
X1893023D01*
X1893364Y1818563*
X1893364D02*
X1893477Y1818406D01*
X1893591Y1818094*
Y1817625*
X1893477Y1817313*
X1893477D02*
X1893364Y1817156D01*
X1893023Y1817000*
X1892000*
X1891000Y1817500D02*
X1899000D01*
X1895000Y1813500D02*
Y1821500D01*
X1897000Y1822781D02*
Y1819500D01*
Y1822781D02*
X1898023D01*
X1898364Y1822625*
X1898477Y1822469*
X1898591Y1822156*
Y1821844*
X1898477Y1821531*
X1898364Y1821375*
X1898023Y1821219*
X1897000D02*
X1898023D01*
X1898364Y1821063*
X1898364D02*
X1898477Y1820906D01*
X1898591Y1820594*
Y1820125*
X1898477Y1819813*
X1898477D02*
X1898364Y1819656D01*
X1898023Y1819500*
X1897000*
X1996000Y1830000D02*
X2004000D01*
X2000000Y1826000D02*
Y1834000D01*
X2002000Y1835281D02*
Y1832000D01*
Y1835281D02*
X2003023D01*
X2003364Y1835125*
X2003477Y1834969*
X2003591Y1834656*
Y1834344*
X2003477Y1834031*
X2003364Y1833875*
X2003023Y1833719*
X2002000D02*
X2003023D01*
X2003364Y1833563*
X2003364D02*
X2003477Y1833406D01*
X2003591Y1833094*
Y1832625*
X2003477Y1832313*
X2003477D02*
X2003364Y1832156D01*
X2003023Y1832000*
X2002000*
X1856000Y1860000D02*
X1864000D01*
X1860000Y1856000D02*
Y1864000D01*
X1862000Y1865281D02*
Y1862000D01*
Y1865281D02*
X1863023D01*
X1863364Y1865125*
X1863477Y1864969*
X1863591Y1864656*
Y1864344*
X1863477Y1864031*
X1863364Y1863875*
X1863023Y1863719*
X1862000D02*
X1863023D01*
X1863364Y1863563*
X1863364D02*
X1863477Y1863406D01*
X1863591Y1863094*
Y1862625*
X1863477Y1862313*
X1863477D02*
X1863364Y1862156D01*
X1863023Y1862000*
X1862000*
X1876000Y1880000D02*
X1884000D01*
X1880000Y1876000D02*
Y1884000D01*
X1882000Y1885281D02*
Y1882000D01*
Y1885281D02*
X1883023D01*
X1883364Y1885125*
X1883477Y1884969*
X1883591Y1884656*
Y1884344*
X1883477Y1884031*
X1883364Y1883875*
X1883023Y1883719*
X1882000D02*
X1883023D01*
X1883364Y1883563*
X1883364D02*
X1883477Y1883406D01*
X1883591Y1883094*
Y1882625*
X1883477Y1882313*
X1883477D02*
X1883364Y1882156D01*
X1883023Y1882000*
X1882000*
X1926000Y1885000D02*
X1934000D01*
X1930000Y1881000D02*
Y1889000D01*
X1932000Y1890281D02*
Y1887000D01*
Y1890281D02*
X1933023D01*
X1933364Y1890125*
X1933477Y1889969*
X1933591Y1889656*
Y1889344*
X1933477Y1889031*
X1933364Y1888875*
X1933023Y1888719*
X1932000D02*
X1933023D01*
X1933364Y1888563*
X1933364D02*
X1933477Y1888406D01*
X1933591Y1888094*
Y1887625*
X1933477Y1887313*
X1933477D02*
X1933364Y1887156D01*
X1933023Y1887000*
X1932000*
X1973500Y1880000D02*
X1981500D01*
X1977500Y1876000D02*
Y1884000D01*
X1979500Y1885281D02*
Y1882000D01*
Y1885281D02*
X1980523D01*
X1980864Y1885125*
X1980977Y1884969*
X1981091Y1884656*
Y1884344*
X1980977Y1884031*
X1980864Y1883875*
X1980523Y1883719*
X1979500D02*
X1980523D01*
X1980864Y1883563*
X1980864D02*
X1980977Y1883406D01*
X1981091Y1883094*
Y1882625*
X1980977Y1882313*
X1980977D02*
X1980864Y1882156D01*
X1980523Y1882000*
X1979500*
X1903500Y1892500D02*
X1911500D01*
X1907500Y1888500D02*
Y1896500D01*
X1909500Y1897781D02*
Y1894500D01*
Y1897781D02*
X1910523D01*
X1910864Y1897625*
X1910977Y1897469*
X1911091Y1897156*
Y1896844*
X1910977Y1896531*
X1910864Y1896375*
X1910523Y1896219*
X1909500D02*
X1910523D01*
X1910864Y1896063*
X1910864D02*
X1910977Y1895906D01*
X1911091Y1895594*
Y1895125*
X1910977Y1894813*
X1910977D02*
X1910864Y1894656D01*
X1910523Y1894500*
X1909500*
X1911000Y1905000D02*
X1919000D01*
X1915000Y1901000D02*
Y1909000D01*
X1917000Y1910281D02*
Y1907000D01*
Y1910281D02*
X1918023D01*
X1918364Y1910125*
X1918477Y1909969*
X1918591Y1909656*
Y1909344*
X1918477Y1909031*
X1918364Y1908875*
X1918023Y1908719*
X1917000D02*
X1918023D01*
X1918364Y1908563*
X1918364D02*
X1918477Y1908406D01*
X1918591Y1908094*
Y1907625*
X1918477Y1907313*
X1918477D02*
X1918364Y1907156D01*
X1918023Y1907000*
X1917000*
X1981000Y1925000D02*
X1989000D01*
X1985000Y1921000D02*
Y1929000D01*
X1987000Y1930281D02*
Y1927000D01*
Y1930281D02*
X1988023D01*
X1988364Y1930125*
X1988477Y1929969*
X1988591Y1929656*
Y1929344*
X1988477Y1929031*
X1988364Y1928875*
X1988023Y1928719*
X1987000D02*
X1988023D01*
X1988364Y1928563*
X1988364D02*
X1988477Y1928406D01*
X1988591Y1928094*
Y1927625*
X1988477Y1927313*
X1988477D02*
X1988364Y1927156D01*
X1988023Y1927000*
X1987000*
X1986000Y1932500D02*
X1994000D01*
X1990000Y1928500D02*
Y1936500D01*
X1992000Y1937781D02*
Y1934500D01*
Y1937781D02*
X1993023D01*
X1993364Y1937625*
X1993477Y1937469*
X1993591Y1937156*
Y1936844*
X1993477Y1936531*
X1993364Y1936375*
X1993023Y1936219*
X1992000D02*
X1993023D01*
X1993364Y1936063*
X1993364D02*
X1993477Y1935906D01*
X1993591Y1935594*
Y1935125*
X1993477Y1934813*
X1993477D02*
X1993364Y1934656D01*
X1993023Y1934500*
X1992000*
X1876000Y1940000D02*
X1884000D01*
X1880000Y1936000D02*
Y1944000D01*
X1882000Y1945281D02*
Y1942000D01*
Y1945281D02*
X1883023D01*
X1883364Y1945125*
X1883477Y1944969*
X1883591Y1944656*
Y1944344*
X1883477Y1944031*
X1883364Y1943875*
X1883023Y1943719*
X1882000D02*
X1883023D01*
X1883364Y1943563*
X1883364D02*
X1883477Y1943406D01*
X1883591Y1943094*
Y1942625*
X1883477Y1942313*
X1883477D02*
X1883364Y1942156D01*
X1883023Y1942000*
X1882000*
X1996000Y1945000D02*
X2004000D01*
X2000000Y1941000D02*
Y1949000D01*
X2002000Y1950281D02*
Y1947000D01*
Y1950281D02*
X2003023D01*
X2003364Y1950125*
X2003477Y1949969*
X2003591Y1949656*
Y1949344*
X2003477Y1949031*
X2003364Y1948875*
X2003023Y1948719*
X2002000D02*
X2003023D01*
X2003364Y1948563*
X2003364D02*
X2003477Y1948406D01*
X2003591Y1948094*
Y1947625*
X2003477Y1947313*
X2003477D02*
X2003364Y1947156D01*
X2003023Y1947000*
X2002000*
X1876000Y1957500D02*
X1884000D01*
X1880000Y1953500D02*
Y1961500D01*
X1882000Y1962781D02*
Y1959500D01*
Y1962781D02*
X1883023D01*
X1883364Y1962625*
X1883477Y1962469*
X1883591Y1962156*
Y1961844*
X1883477Y1961531*
X1883364Y1961375*
X1883023Y1961219*
X1882000D02*
X1883023D01*
X1883364Y1961063*
X1883364D02*
X1883477Y1960906D01*
X1883591Y1960594*
Y1960125*
X1883477Y1959813*
X1883477D02*
X1883364Y1959656D01*
X1883023Y1959500*
X1882000*
X1911000Y1952500D02*
X1919000D01*
X1915000Y1948500D02*
Y1956500D01*
X1917000Y1957781D02*
Y1954500D01*
Y1957781D02*
X1918023D01*
X1918364Y1957625*
X1918477Y1957469*
X1918591Y1957156*
Y1956844*
X1918477Y1956531*
X1918364Y1956375*
X1918023Y1956219*
X1917000D02*
X1918023D01*
X1918364Y1956063*
X1918364D02*
X1918477Y1955906D01*
X1918591Y1955594*
Y1955125*
X1918477Y1954813*
X1918477D02*
X1918364Y1954656D01*
X1918023Y1954500*
X1917000*
X1941000Y1950000D02*
X1949000D01*
X1945000Y1946000D02*
Y1954000D01*
X1947000Y1955281D02*
Y1952000D01*
Y1955281D02*
X1948023D01*
X1948364Y1955125*
X1948477Y1954969*
X1948591Y1954656*
Y1954344*
X1948477Y1954031*
X1948364Y1953875*
X1948023Y1953719*
X1947000D02*
X1948023D01*
X1948364Y1953563*
X1948364D02*
X1948477Y1953406D01*
X1948591Y1953094*
Y1952625*
X1948477Y1952313*
X1948477D02*
X1948364Y1952156D01*
X1948023Y1952000*
X1947000*
X1876000Y1990000D02*
X1884000D01*
X1880000Y1986000D02*
Y1994000D01*
X1882000Y1995281D02*
Y1992000D01*
Y1995281D02*
X1883023D01*
X1883364Y1995125*
X1883477Y1994969*
X1883591Y1994656*
Y1994344*
X1883477Y1994031*
X1883364Y1993875*
X1883023Y1993719*
X1882000D02*
X1883023D01*
X1883364Y1993563*
X1883364D02*
X1883477Y1993406D01*
X1883591Y1993094*
Y1992625*
X1883477Y1992313*
X1883477D02*
X1883364Y1992156D01*
X1883023Y1992000*
X1882000*
X1961000Y1995000D02*
X1969000D01*
X1965000Y1991000D02*
Y1999000D01*
X1967000Y2000281D02*
Y1997000D01*
Y2000281D02*
X1968023D01*
X1968364Y2000125*
X1968477Y1999969*
X1968591Y1999656*
Y1999344*
X1968477Y1999031*
X1968364Y1998875*
X1968023Y1998719*
X1967000D02*
X1968023D01*
X1968364Y1998563*
X1968364D02*
X1968477Y1998406D01*
X1968591Y1998094*
Y1997625*
X1968477Y1997313*
X1968477D02*
X1968364Y1997156D01*
X1968023Y1997000*
X1967000*
X1871000Y2005000D02*
X1879000D01*
X1875000Y2001000D02*
Y2009000D01*
X1877000Y2010281D02*
Y2007000D01*
Y2010281D02*
X1878023D01*
X1878364Y2010125*
X1878477Y2009969*
X1878591Y2009656*
Y2009344*
X1878477Y2009031*
X1878364Y2008875*
X1878023Y2008719*
X1877000D02*
X1878023D01*
X1878364Y2008563*
X1878364D02*
X1878477Y2008406D01*
X1878591Y2008094*
Y2007625*
X1878477Y2007313*
X1878477D02*
X1878364Y2007156D01*
X1878023Y2007000*
X1877000*
X1896000Y2010000D02*
X1904000D01*
X1900000Y2006000D02*
Y2014000D01*
X1902000Y2015281D02*
Y2012000D01*
Y2015281D02*
X1903023D01*
X1903364Y2015125*
X1903477Y2014969*
X1903591Y2014656*
Y2014344*
X1903477Y2014031*
X1903364Y2013875*
X1903023Y2013719*
X1902000D02*
X1903023D01*
X1903364Y2013563*
X1903364D02*
X1903477Y2013406D01*
X1903591Y2013094*
Y2012625*
X1903477Y2012313*
X1903477D02*
X1903364Y2012156D01*
X1903023Y2012000*
X1902000*
X1926000Y2017500D02*
X1934000D01*
X1930000Y2013500D02*
Y2021500D01*
X1932000Y2022781D02*
Y2019500D01*
Y2022781D02*
X1933023D01*
X1933364Y2022625*
X1933477Y2022469*
X1933591Y2022156*
Y2021844*
X1933477Y2021531*
X1933364Y2021375*
X1933023Y2021219*
X1932000D02*
X1933023D01*
X1933364Y2021063*
X1933364D02*
X1933477Y2020906D01*
X1933591Y2020594*
Y2020125*
X1933477Y2019813*
X1933477D02*
X1933364Y2019656D01*
X1933023Y2019500*
X1932000*
X1951000Y2015000D02*
X1959000D01*
X1955000Y2011000D02*
Y2019000D01*
X1957000Y2020281D02*
Y2017000D01*
Y2020281D02*
X1958023D01*
X1958364Y2020125*
X1958477Y2019969*
X1958591Y2019656*
Y2019344*
X1958477Y2019031*
X1958364Y2018875*
X1958023Y2018719*
X1957000D02*
X1958023D01*
X1958364Y2018563*
X1958364D02*
X1958477Y2018406D01*
X1958591Y2018094*
Y2017625*
X1958477Y2017313*
X1958477D02*
X1958364Y2017156D01*
X1958023Y2017000*
X1957000*
X1886000Y2030000D02*
X1894000D01*
X1890000Y2026000D02*
Y2034000D01*
X1892000Y2035281D02*
Y2032000D01*
Y2035281D02*
X1893023D01*
X1893364Y2035125*
X1893477Y2034969*
X1893591Y2034656*
Y2034344*
X1893477Y2034031*
X1893364Y2033875*
X1893023Y2033719*
X1892000D02*
X1893023D01*
X1893364Y2033563*
X1893364D02*
X1893477Y2033406D01*
X1893591Y2033094*
Y2032625*
X1893477Y2032313*
X1893477D02*
X1893364Y2032156D01*
X1893023Y2032000*
X1892000*
X1896000Y2050000D02*
X1904000D01*
X1900000Y2046000D02*
Y2054000D01*
X1902000Y2055281D02*
Y2052000D01*
Y2055281D02*
X1903023D01*
X1903364Y2055125*
X1903477Y2054969*
X1903591Y2054656*
Y2054344*
X1903477Y2054031*
X1903364Y2053875*
X1903023Y2053719*
X1902000D02*
X1903023D01*
X1903364Y2053563*
X1903364D02*
X1903477Y2053406D01*
X1903591Y2053094*
Y2052625*
X1903477Y2052313*
X1903477D02*
X1903364Y2052156D01*
X1903023Y2052000*
X1902000*
X1876000Y2070000D02*
X1884000D01*
X1880000Y2066000D02*
Y2074000D01*
X1882000Y2075281D02*
Y2072000D01*
Y2075281D02*
X1883023D01*
X1883364Y2075125*
X1883477Y2074969*
X1883591Y2074656*
Y2074344*
X1883477Y2074031*
X1883364Y2073875*
X1883023Y2073719*
X1882000D02*
X1883023D01*
X1883364Y2073563*
X1883364D02*
X1883477Y2073406D01*
X1883591Y2073094*
Y2072625*
X1883477Y2072313*
X1883477D02*
X1883364Y2072156D01*
X1883023Y2072000*
X1882000*
X1891000Y2070000D02*
X1899000D01*
X1895000Y2066000D02*
Y2074000D01*
X1897000Y2075281D02*
Y2072000D01*
Y2075281D02*
X1898023D01*
X1898364Y2075125*
X1898477Y2074969*
X1898591Y2074656*
Y2074344*
X1898477Y2074031*
X1898364Y2073875*
X1898023Y2073719*
X1897000D02*
X1898023D01*
X1898364Y2073563*
X1898364D02*
X1898477Y2073406D01*
X1898591Y2073094*
Y2072625*
X1898477Y2072313*
X1898477D02*
X1898364Y2072156D01*
X1898023Y2072000*
X1897000*
X1888500Y2087500D02*
X1896500D01*
X1892500Y2083500D02*
Y2091500D01*
X1894500Y2092781D02*
Y2089500D01*
Y2092781D02*
X1895523D01*
X1895864Y2092625*
X1895977Y2092469*
X1896091Y2092156*
Y2091844*
X1895977Y2091531*
X1895864Y2091375*
X1895523Y2091219*
X1894500D02*
X1895523D01*
X1895864Y2091063*
X1895864D02*
X1895977Y2090906D01*
X1896091Y2090594*
Y2090125*
X1895977Y2089813*
X1895977D02*
X1895864Y2089656D01*
X1895523Y2089500*
X1894500*
X1896000Y2080000D02*
X1904000D01*
X1900000Y2076000D02*
Y2084000D01*
X1902000Y2085281D02*
Y2082000D01*
Y2085281D02*
X1903023D01*
X1903364Y2085125*
X1903477Y2084969*
X1903591Y2084656*
Y2084344*
X1903477Y2084031*
X1903364Y2083875*
X1903023Y2083719*
X1902000D02*
X1903023D01*
X1903364Y2083563*
X1903364D02*
X1903477Y2083406D01*
X1903591Y2083094*
Y2082625*
X1903477Y2082313*
X1903477D02*
X1903364Y2082156D01*
X1903023Y2082000*
X1902000*
X1891000Y2092500D02*
X1899000D01*
X1895000Y2088500D02*
Y2096500D01*
X1897000Y2097781D02*
Y2094500D01*
Y2097781D02*
X1898023D01*
X1898364Y2097625*
X1898477Y2097469*
X1898591Y2097156*
Y2096844*
X1898477Y2096531*
X1898364Y2096375*
X1898023Y2096219*
X1897000D02*
X1898023D01*
X1898364Y2096063*
X1898364D02*
X1898477Y2095906D01*
X1898591Y2095594*
Y2095125*
X1898477Y2094813*
X1898477D02*
X1898364Y2094656D01*
X1898023Y2094500*
X1897000*
X1916000Y2090000D02*
X1924000D01*
X1920000Y2086000D02*
Y2094000D01*
X1922000Y2095281D02*
Y2092000D01*
Y2095281D02*
X1923023D01*
X1923364Y2095125*
X1923477Y2094969*
X1923591Y2094656*
Y2094344*
X1923477Y2094031*
X1923364Y2093875*
X1923023Y2093719*
X1922000D02*
X1923023D01*
X1923364Y2093563*
X1923364D02*
X1923477Y2093406D01*
X1923591Y2093094*
Y2092625*
X1923477Y2092313*
X1923477D02*
X1923364Y2092156D01*
X1923023Y2092000*
X1922000*
X1966000Y2090000D02*
X1974000D01*
X1970000Y2086000D02*
Y2094000D01*
X1972000Y2095281D02*
Y2092000D01*
Y2095281D02*
X1973023D01*
X1973364Y2095125*
X1973477Y2094969*
X1973591Y2094656*
Y2094344*
X1973477Y2094031*
X1973364Y2093875*
X1973023Y2093719*
X1972000D02*
X1973023D01*
X1973364Y2093563*
X1973364D02*
X1973477Y2093406D01*
X1973591Y2093094*
Y2092625*
X1973477Y2092313*
X1973477D02*
X1973364Y2092156D01*
X1973023Y2092000*
X1972000*
X1938500Y2105000D02*
X1946500D01*
X1942500Y2101000D02*
Y2109000D01*
X1944500Y2110281D02*
Y2107000D01*
Y2110281D02*
X1945523D01*
X1945864Y2110125*
X1945977Y2109969*
X1946091Y2109656*
Y2109344*
X1945977Y2109031*
X1945864Y2108875*
X1945523Y2108719*
X1944500D02*
X1945523D01*
X1945864Y2108563*
X1945864D02*
X1945977Y2108406D01*
X1946091Y2108094*
Y2107625*
X1945977Y2107313*
X1945977D02*
X1945864Y2107156D01*
X1945523Y2107000*
X1944500*
X1966000Y2107500D02*
X1974000D01*
X1970000Y2103500D02*
Y2111500D01*
X1972000Y2112781D02*
Y2109500D01*
Y2112781D02*
X1973023D01*
X1973364Y2112625*
X1973477Y2112469*
X1973591Y2112156*
Y2111844*
X1973477Y2111531*
X1973364Y2111375*
X1973023Y2111219*
X1972000D02*
X1973023D01*
X1973364Y2111063*
X1973364D02*
X1973477Y2110906D01*
X1973591Y2110594*
Y2110125*
X1973477Y2109813*
X1973477D02*
X1973364Y2109656D01*
X1973023Y2109500*
X1972000*
X1896000Y2110000D02*
X1904000D01*
X1900000Y2106000D02*
Y2114000D01*
X1902000Y2115281D02*
Y2112000D01*
Y2115281D02*
X1903023D01*
X1903364Y2115125*
X1903477Y2114969*
X1903591Y2114656*
Y2114344*
X1903477Y2114031*
X1903364Y2113875*
X1903023Y2113719*
X1902000D02*
X1903023D01*
X1903364Y2113563*
X1903364D02*
X1903477Y2113406D01*
X1903591Y2113094*
Y2112625*
X1903477Y2112313*
X1903477D02*
X1903364Y2112156D01*
X1903023Y2112000*
X1902000*
X1896000Y2127500D02*
X1904000D01*
X1900000Y2123500D02*
Y2131500D01*
X1902000Y2132781D02*
Y2129500D01*
Y2132781D02*
X1903023D01*
X1903364Y2132625*
X1903477Y2132469*
X1903591Y2132156*
Y2131844*
X1903477Y2131531*
X1903364Y2131375*
X1903023Y2131219*
X1902000D02*
X1903023D01*
X1903364Y2131063*
X1903364D02*
X1903477Y2130906D01*
X1903591Y2130594*
Y2130125*
X1903477Y2129813*
X1903477D02*
X1903364Y2129656D01*
X1903023Y2129500*
X1902000*
X1916000Y2127500D02*
X1924000D01*
X1920000Y2123500D02*
Y2131500D01*
X1922000Y2132781D02*
Y2129500D01*
Y2132781D02*
X1923023D01*
X1923364Y2132625*
X1923477Y2132469*
X1923591Y2132156*
Y2131844*
X1923477Y2131531*
X1923364Y2131375*
X1923023Y2131219*
X1922000D02*
X1923023D01*
X1923364Y2131063*
X1923364D02*
X1923477Y2130906D01*
X1923591Y2130594*
Y2130125*
X1923477Y2129813*
X1923477D02*
X1923364Y2129656D01*
X1923023Y2129500*
X1922000*
X1966000Y2127500D02*
X1974000D01*
X1970000Y2123500D02*
Y2131500D01*
X1972000Y2132781D02*
Y2129500D01*
Y2132781D02*
X1973023D01*
X1973364Y2132625*
X1973477Y2132469*
X1973591Y2132156*
Y2131844*
X1973477Y2131531*
X1973364Y2131375*
X1973023Y2131219*
X1972000D02*
X1973023D01*
X1973364Y2131063*
X1973364D02*
X1973477Y2130906D01*
X1973591Y2130594*
Y2130125*
X1973477Y2129813*
X1973477D02*
X1973364Y2129656D01*
X1973023Y2129500*
X1972000*
X1876000Y2130000D02*
X1884000D01*
X1880000Y2126000D02*
Y2134000D01*
X1882000Y2135281D02*
Y2132000D01*
Y2135281D02*
X1883023D01*
X1883364Y2135125*
X1883477Y2134969*
X1883591Y2134656*
Y2134344*
X1883477Y2134031*
X1883364Y2133875*
X1883023Y2133719*
X1882000D02*
X1883023D01*
X1883364Y2133563*
X1883364D02*
X1883477Y2133406D01*
X1883591Y2133094*
Y2132625*
X1883477Y2132313*
X1883477D02*
X1883364Y2132156D01*
X1883023Y2132000*
X1882000*
X1936000Y2130000D02*
X1944000D01*
X1940000Y2126000D02*
Y2134000D01*
X1942000Y2135281D02*
Y2132000D01*
Y2135281D02*
X1943023D01*
X1943364Y2135125*
X1943477Y2134969*
X1943591Y2134656*
Y2134344*
X1943477Y2134031*
X1943364Y2133875*
X1943023Y2133719*
X1942000D02*
X1943023D01*
X1943364Y2133563*
X1943364D02*
X1943477Y2133406D01*
X1943591Y2133094*
Y2132625*
X1943477Y2132313*
X1943477D02*
X1943364Y2132156D01*
X1943023Y2132000*
X1942000*
X1956000Y2130000D02*
X1964000D01*
X1960000Y2126000D02*
Y2134000D01*
X1962000Y2135281D02*
Y2132000D01*
Y2135281D02*
X1963023D01*
X1963364Y2135125*
X1963477Y2134969*
X1963591Y2134656*
Y2134344*
X1963477Y2134031*
X1963364Y2133875*
X1963023Y2133719*
X1962000D02*
X1963023D01*
X1963364Y2133563*
X1963364D02*
X1963477Y2133406D01*
X1963591Y2133094*
Y2132625*
X1963477Y2132313*
X1963477D02*
X1963364Y2132156D01*
X1963023Y2132000*
X1962000*
X1840000Y2240000D02*
X2050000D01*
Y1805000*
X1840000*
Y2240000*
X2046100Y2307200D02*
X1973459D01*
X2046100D02*
X2036100Y2304700D01*
Y2309700*
X2046100Y2307200*
X1845500D02*
X1918141D01*
X1845500D02*
X1855500Y2309700D01*
Y2304700*
X1845500Y2307200*
X2046100Y2239600D02*
Y2312200D01*
X1845500Y2239600D02*
Y2312200D01*
X1921368Y2308450D02*
Y2308763D01*
X1921368D02*
X1921595Y2309388D01*
X1921595D02*
X1921823Y2309700D01*
X1922277Y2310013*
X1922277D02*
X1923186D01*
X1923186D02*
X1923641Y2309700D01*
X1923868Y2309388*
X1923868D02*
X1924095Y2308763D01*
X1924095D02*
Y2308138D01*
X1924095D02*
X1923868Y2307513D01*
X1923868D02*
X1923414Y2306575D01*
X1921141Y2303450*
X1924323*
X1927732Y2310013D02*
X1927050Y2309700D01*
X1926595Y2308763*
X1926595D02*
X1926368Y2307200D01*
Y2306263*
X1926368D02*
X1926595Y2304700D01*
X1927050Y2303763*
X1927050D02*
X1927732Y2303450D01*
X1928186*
X1928868Y2303763*
X1928868D02*
X1929323Y2304700D01*
X1929550Y2306263*
X1929550D02*
Y2307200D01*
X1929323Y2308763*
X1929323D02*
X1928868Y2309700D01*
X1928186Y2310013*
X1928186D02*
X1927732D01*
X1932959D02*
X1932277Y2309700D01*
X1931823Y2308763*
X1931823D02*
X1931595Y2307200D01*
Y2306263*
X1931595D02*
X1931823Y2304700D01*
X1932277Y2303763*
X1932277D02*
X1932959Y2303450D01*
X1933414*
X1934095Y2303763*
X1934095D02*
X1934550Y2304700D01*
X1934777Y2306263*
X1934777D02*
Y2307200D01*
X1934550Y2308763*
X1934550D02*
X1934095Y2309700D01*
X1933414Y2310013*
X1933414D02*
X1932959D01*
X1939550Y2309075D02*
X1939323Y2309700D01*
X1938641Y2310013*
X1938641D02*
X1938186D01*
X1938186D02*
X1937505Y2309700D01*
X1937050Y2308763*
X1937050D02*
X1936823Y2307200D01*
Y2305638*
X1936823D02*
X1937050Y2304388D01*
X1937050D02*
X1937505Y2303763D01*
X1937505D02*
X1938186Y2303450D01*
X1938414*
X1939095Y2303763*
X1939095D02*
X1939550Y2304388D01*
X1939550D02*
X1939777Y2305325D01*
Y2305638*
X1939777D02*
X1939550Y2306575D01*
X1939095Y2307200*
X1938414Y2307513*
X1938414D02*
X1938186D01*
X1938186D02*
X1937505Y2307200D01*
X1937050Y2306575*
X1936823Y2305638*
X1942050Y2304075D02*
X1941823Y2303763D01*
X1941823D02*
X1942050Y2303450D01*
X1942277Y2303763*
X1942277D02*
X1942050Y2304075D01*
X1945686Y2310013D02*
X1945005Y2309700D01*
X1944550Y2308763*
X1944550D02*
X1944323Y2307200D01*
Y2306263*
X1944323D02*
X1944550Y2304700D01*
X1945005Y2303763*
X1945005D02*
X1945686Y2303450D01*
X1946141*
X1946823Y2303763*
X1946823D02*
X1947277Y2304700D01*
X1947505Y2306263*
X1947505D02*
Y2307200D01*
X1947277Y2308763*
X1947277D02*
X1946823Y2309700D01*
X1946141Y2310013*
X1946141D02*
X1945686D01*
X1950914D02*
X1950232Y2309700D01*
X1949777Y2308763*
X1949777D02*
X1949550Y2307200D01*
Y2306263*
X1949550D02*
X1949777Y2304700D01*
X1950232Y2303763*
X1950232D02*
X1950914Y2303450D01*
X1951368*
X1952050Y2303763*
X1952050D02*
X1952505Y2304700D01*
X1952732Y2306263*
X1952732D02*
Y2307200D01*
X1952505Y2308763*
X1952505D02*
X1952050Y2309700D01*
X1951368Y2310013*
X1951368D02*
X1950914D01*
X1956141D02*
X1955459Y2309700D01*
X1955005Y2308763*
X1955005D02*
X1954777Y2307200D01*
Y2306263*
X1954777D02*
X1955005Y2304700D01*
X1955459Y2303763*
X1955459D02*
X1956141Y2303450D01*
X1956595*
X1957277Y2303763*
X1957277D02*
X1957732Y2304700D01*
X1957959Y2306263*
X1957959D02*
Y2307200D01*
X1957732Y2308763*
X1957732D02*
X1957277Y2309700D01*
X1956595Y2310013*
X1956595D02*
X1956141D01*
X1960005Y2307825D02*
Y2303450D01*
Y2306575D02*
X1960686Y2307513D01*
X1960686D02*
X1961141Y2307825D01*
X1961823*
X1962277Y2307513*
X1962277D02*
X1962505Y2306575D01*
Y2303450*
Y2306575D02*
X1963186Y2307513D01*
X1963186D02*
X1963641Y2307825D01*
X1964323*
X1964777Y2307513*
X1964777D02*
X1965005Y2306575D01*
Y2303450*
X1967050Y2310013D02*
X1967277Y2309700D01*
X1967505Y2310013*
X1967505D02*
X1967277Y2310325D01*
X1967050Y2310013*
X1967277Y2307825D02*
Y2303450D01*
X1969550Y2310013D02*
Y2303450D01*
X2133200Y1811500D02*
Y2016100D01*
Y1811500D02*
X2130700Y1821500D01*
X2135700*
X2133200Y1811500*
Y2234200D02*
Y2029600D01*
Y2234200D02*
X2135700Y2224200D01*
X2130700*
X2133200Y2234200*
X2050400Y1811500D02*
X2138200D01*
X2050400Y2234200D02*
X2138200D01*
X2110586Y2025663D02*
X2108314Y2021288D01*
X2108314D02*
X2111723D01*
X2110586Y2025663D02*
Y2019100D01*
X2113995Y2024100D02*
Y2024413D01*
X2113995D02*
X2114223Y2025038D01*
X2114223D02*
X2114450Y2025350D01*
X2114905Y2025663*
X2114905D02*
X2115814D01*
X2115814D02*
X2116268Y2025350D01*
X2116495Y2025038*
X2116495D02*
X2116723Y2024413D01*
X2116723D02*
Y2023788D01*
X2116723D02*
X2116495Y2023163D01*
X2116495D02*
X2116041Y2022225D01*
X2113768Y2019100*
X2116950*
X2119223Y2024100D02*
Y2024413D01*
X2119223D02*
X2119450Y2025038D01*
X2119450D02*
X2119677Y2025350D01*
X2120132Y2025663*
X2120132D02*
X2121041D01*
X2121041D02*
X2121495Y2025350D01*
X2121723Y2025038*
X2121723D02*
X2121950Y2024413D01*
X2121950D02*
Y2023788D01*
X2121950D02*
X2121723Y2023163D01*
X2121723D02*
X2121268Y2022225D01*
X2118995Y2019100*
X2122177*
X2127405Y2025663D02*
X2125132Y2019100D01*
X2124223Y2025663D02*
X2127405D01*
X2129677Y2019725D02*
X2129450Y2019413D01*
X2129450D02*
X2129677Y2019100D01*
X2129905Y2019413*
X2129905D02*
X2129677Y2019725D01*
X2133314Y2025663D02*
X2132632Y2025350D01*
X2132177Y2024413*
X2132177D02*
X2131950Y2022850D01*
Y2021913*
X2131950D02*
X2132177Y2020350D01*
X2132632Y2019413*
X2132632D02*
X2133314Y2019100D01*
X2133768*
X2134450Y2019413*
X2134450D02*
X2134905Y2020350D01*
X2135132Y2021913*
X2135132D02*
Y2022850D01*
X2134905Y2024413*
X2134905D02*
X2134450Y2025350D01*
X2133768Y2025663*
X2133768D02*
X2133314D01*
X2138541D02*
X2137859Y2025350D01*
X2137405Y2024413*
X2137405D02*
X2137177Y2022850D01*
Y2021913*
X2137177D02*
X2137405Y2020350D01*
X2137859Y2019413*
X2137859D02*
X2138541Y2019100D01*
X2138995*
X2139677Y2019413*
X2139677D02*
X2140132Y2020350D01*
X2140359Y2021913*
X2140359D02*
Y2022850D01*
X2140132Y2024413*
X2140132D02*
X2139677Y2025350D01*
X2138995Y2025663*
X2138995D02*
X2138541D01*
X2143768D02*
X2143086Y2025350D01*
X2142632Y2024413*
X2142632D02*
X2142405Y2022850D01*
Y2021913*
X2142405D02*
X2142632Y2020350D01*
X2143086Y2019413*
X2143086D02*
X2143768Y2019100D01*
X2144223*
X2144905Y2019413*
X2144905D02*
X2145359Y2020350D01*
X2145586Y2021913*
X2145586D02*
Y2022850D01*
X2145359Y2024413*
X2145359D02*
X2144905Y2025350D01*
X2144223Y2025663*
X2144223D02*
X2143768D01*
X2147632Y2023475D02*
Y2019100D01*
Y2022225D02*
X2148314Y2023163D01*
X2148314D02*
X2148768Y2023475D01*
X2149450*
X2149905Y2023163*
X2149905D02*
X2150132Y2022225D01*
Y2019100*
Y2022225D02*
X2150814Y2023163D01*
X2150814D02*
X2151268Y2023475D01*
X2151950*
X2152405Y2023163*
X2152405D02*
X2152632Y2022225D01*
Y2019100*
X2154677Y2025663D02*
X2154905Y2025350D01*
X2155132Y2025663*
X2155132D02*
X2154905Y2025975D01*
X2154677Y2025663*
X2154905Y2023475D02*
Y2019100D01*
X2157177Y2025663D02*
Y2019100D01*
X100000Y316000D02*
X358000D01*
X100000Y292000D02*
X358000D01*
X100000Y268000D02*
X358000D01*
X100000Y244000D02*
X358000D01*
X100000Y220000D02*
X358000D01*
X100000Y196000D02*
X358000D01*
X100000Y172000D02*
X358000D01*
X100000Y148000D02*
X358000D01*
X100000Y124000D02*
X358000D01*
X100000Y100000D02*
X358000D01*
X100000Y316000D02*
Y100000D01*
X184000Y316000D02*
Y100000D01*
X220000Y316000D02*
Y100000D01*
X256000Y316000D02*
Y100000D01*
X310000Y316000D02*
Y100000D01*
X358000Y316000D02*
Y100000D01*
X135500Y304750D02*
X134955Y305500D01*
X134136Y305875*
X133045*
X132227Y305500*
X131682Y304750*
Y304000*
X131955Y303250*
X132227Y302875*
X132773Y302500*
X134409Y301750*
X134955Y301375*
X135227Y301000*
X135500Y300250*
Y299125*
X134955Y298375*
X134136Y298000*
X133045*
X132227Y298375*
X131682Y299125*
X137955Y305875D02*
Y298000D01*
X144227Y305875D02*
X140409Y298000D01*
Y305875D02*
X144227D01*
X140409Y298000D02*
X144227D01*
X146682Y305875D02*
Y298000D01*
Y305875D02*
X150227D01*
X146682Y302125D02*
X148864D01*
X146682Y298000D02*
X150227D01*
X193864Y305875D02*
X193318Y305500D01*
X192773Y304750*
X192500Y304000*
X192227Y302875*
Y301000*
X192500Y299875*
X192773Y299125*
X193318Y298375*
X193864Y298000*
X194955*
X195500Y298375*
X196045Y299125*
X196318Y299875*
X196591Y301000*
Y302875*
X196318Y304000*
X196045Y304750*
X195500Y305500*
X194955Y305875*
X193864*
X194682Y299500D02*
X196318Y297250D01*
X200955Y305875D02*
Y298000D01*
X199045Y305875D02*
X202864D01*
X205318D02*
X207500Y302125D01*
Y298000*
X209682Y305875D02*
X207500Y302125D01*
X232045Y304750D02*
X231500Y305500D01*
X230682Y305875*
X229591*
X228773Y305500*
X228227Y304750*
Y304000*
X228500Y303250*
X228773Y302875*
X229318Y302500*
X230955Y301750*
X231500Y301375*
X231773Y301000*
X232045Y300250*
Y299125*
X231500Y298375*
X230682Y298000*
X229591*
X228773Y298375*
X228227Y299125*
X234500Y305875D02*
X236682Y302125D01*
Y298000*
X238864Y305875D02*
X236682Y302125D01*
X241318Y305875D02*
Y298000D01*
Y305875D02*
X243500Y298000D01*
X245682Y305875D02*
X243500Y298000D01*
X245682Y305875D02*
Y298000D01*
X267500Y305875D02*
Y298000D01*
Y305875D02*
X269955D01*
X270773Y305500*
X271045Y305125*
X271318Y304375*
Y303250*
X271045Y302500*
X270773Y302125*
X269955Y301750*
X267500*
X273773Y305875D02*
Y298000D01*
X277045*
X281682Y305875D02*
X279500Y298000D01*
X281682Y305875D02*
X283864Y298000D01*
X280318Y300625D02*
X283045D01*
X288227Y305875D02*
Y298000D01*
X286318Y305875D02*
X290136D01*
X292591D02*
Y298000D01*
Y305875D02*
X296136D01*
X292591Y302125D02*
X294773D01*
X292591Y298000D02*
X296136D01*
X298591Y305875D02*
Y298000D01*
Y305875D02*
X300500D01*
X301318Y305500*
X301864Y304750*
X302136Y304000*
X302409Y302875*
Y301000*
X302136Y299875*
X301864Y299125*
X301318Y298375*
X300500Y298000*
X298591*
X326682Y305875D02*
Y298000D01*
X324773Y305875D02*
X328591D01*
X332682D02*
X332136Y305500D01*
X331591Y304750*
X331318Y304000*
X331045Y302875*
Y301000*
X331318Y299875*
X331591Y299125*
X332136Y298375*
X332682Y298000*
X333773*
X334318Y298375*
X334864Y299125*
X335136Y299875*
X335409Y301000*
Y302875*
X335136Y304000*
X334864Y304750*
X334318Y305500*
X333773Y305875*
X332682*
X337864D02*
Y298000D01*
X341136*
X106273Y280000D02*
Y280375D01*
X106545Y281125*
X106818Y281500*
X107364Y281875*
X108455*
X109000Y281500*
X109273Y281125*
X109545Y280375*
Y279625*
X109273Y278875*
X108727Y277750*
X106000Y274000*
X109818*
X113636Y281875D02*
X112818Y281500D01*
X112545Y280750*
Y280000*
X112818Y279250*
X113364Y278875*
X114455Y278500*
X115273Y278125*
X115818Y277375*
X116091Y276625*
Y275500*
X115818Y274750*
X115545Y274375*
X114727Y274000*
X113636*
X112818Y274375*
X112545Y274750*
X112273Y275500*
Y276625*
X112545Y277375*
X113091Y278125*
X113909Y278500*
X115000Y278875*
X115545Y279250*
X115818Y280000*
Y280750*
X115545Y281500*
X114727Y281875*
X113636*
X197136Y280375D02*
X197682Y280750D01*
X198500Y281875*
Y274000*
X202591Y281875D02*
X201773Y281500D01*
X201227Y280375*
X200955Y278500*
Y277375*
X201227Y275500*
X201773Y274375*
X202591Y274000*
X203136*
X203955Y274375*
X204500Y275500*
X204773Y277375*
Y278500*
X204500Y280375*
X203955Y281500*
X203136Y281875*
X202591*
X232000Y280000D02*
X244000D01*
X238000Y274000D02*
Y286000D01*
X264636Y281875D02*
X266818Y278125D01*
Y274000*
X269000Y281875D02*
X266818Y278125D01*
X271455Y281875D02*
Y274000D01*
Y281875D02*
X275000D01*
X271455Y278125D02*
X273636D01*
X271455Y274000D02*
X275000D01*
X281273Y280750D02*
X280727Y281500D01*
X279909Y281875*
X278818*
X278000Y281500*
X277455Y280750*
Y280000*
X277727Y279250*
X278000Y278875*
X278545Y278500*
X280182Y277750*
X280727Y277375*
X281000Y277000*
X281273Y276250*
Y275125*
X280727Y274375*
X279909Y274000*
X278818*
X278000Y274375*
X277455Y275125*
X317818Y280750D02*
Y274000D01*
X315364Y277375D02*
X320273D01*
X327636Y283375D02*
X322727Y271375D01*
X330091Y277375D02*
X335000D01*
X339091Y281875D02*
X338273Y281500D01*
X337727Y280375*
X337455Y278500*
Y277375*
X337727Y275500*
X338273Y274375*
X339091Y274000*
X339636*
X340455Y274375*
X341000Y275500*
X341273Y277375*
Y278500*
X341000Y280375*
X340455Y281500*
X339636Y281875*
X339091*
X344000Y274750D02*
X343727Y274375D01*
X344000Y274000*
X344273Y274375*
X344000Y274750*
X348364Y281875D02*
X347545Y281500D01*
X347000Y280375*
X346727Y278500*
Y277375*
X347000Y275500*
X347545Y274375*
X348364Y274000*
X348909*
X349727Y274375*
X350273Y275500*
X350545Y277375*
Y278500*
X350273Y280375*
X349727Y281500*
X348909Y281875*
X348364*
X106545Y257875D02*
X109545D01*
X107909Y254875*
X108727*
X109273Y254500*
X109545Y254125*
X109818Y253000*
Y252250*
X109545Y251125*
X109000Y250375*
X108182Y250000*
X107364*
X106545Y250375*
X106273Y250750*
X106000Y251500*
X115818Y257875D02*
X113091D01*
X112818Y254500*
X113091Y254875*
X113909Y255250*
X114727*
X115545Y254875*
X116091Y254125*
X116364Y253000*
X116091Y252250*
X115818Y251125*
X115273Y250375*
X114455Y250000*
X113636*
X112818Y250375*
X112545Y250750*
X112273Y251500*
X196455Y257875D02*
X199455D01*
X197818Y254875*
X198636*
X199182Y254500*
X199455Y254125*
X199727Y253000*
Y252250*
X199455Y251125*
X198909Y250375*
X198091Y250000*
X197273*
X196455Y250375*
X196182Y250750*
X195909Y251500*
X203818Y257875D02*
X203000Y257500D01*
X202455Y256375*
X202182Y254500*
Y253375*
X202455Y251500*
X203000Y250375*
X203818Y250000*
X204364*
X205182Y250375*
X205727Y251500*
X206000Y253375*
Y254500*
X205727Y256375*
X205182Y257500*
X204364Y257875*
X203818*
X232000Y250000D02*
X244000Y262000D01*
X232000D02*
X244000Y250000D01*
X264636Y257875D02*
X266818Y254125D01*
Y250000*
X269000Y257875D02*
X266818Y254125D01*
X271455Y257875D02*
Y250000D01*
Y257875D02*
X275000D01*
X271455Y254125D02*
X273636D01*
X271455Y250000D02*
X275000D01*
X281273Y256750D02*
X280727Y257500D01*
X279909Y257875*
X278818*
X278000Y257500*
X277455Y256750*
Y256000*
X277727Y255250*
X278000Y254875*
X278545Y254500*
X280182Y253750*
X280727Y253375*
X281000Y253000*
X281273Y252250*
Y251125*
X280727Y250375*
X279909Y250000*
X278818*
X278000Y250375*
X277455Y251125*
X317818Y256750D02*
Y250000D01*
X315364Y253375D02*
X320273D01*
X327636Y259375D02*
X322727Y247375D01*
X330091Y253375D02*
X335000D01*
X339091Y257875D02*
X338273Y257500D01*
X337727Y256375*
X337455Y254500*
Y253375*
X337727Y251500*
X338273Y250375*
X339091Y250000*
X339636*
X340455Y250375*
X341000Y251500*
X341273Y253375*
Y254500*
X341000Y256375*
X340455Y257500*
X339636Y257875*
X339091*
X344000Y250750D02*
X343727Y250375D01*
X344000Y250000*
X344273Y250375*
X344000Y250750*
X348364Y257875D02*
X347545Y257500D01*
X347000Y256375*
X346727Y254500*
Y253375*
X347000Y251500*
X347545Y250375*
X348364Y250000*
X348909*
X349727Y250375*
X350273Y251500*
X350545Y253375*
Y254500*
X350273Y256375*
X349727Y257500*
X348909Y257875*
X348364*
X109818Y233875D02*
X107091Y226000D01*
X106000Y233875D02*
X109818D01*
X115545Y232750D02*
X115273Y233500D01*
X114455Y233875*
X113909*
X113091Y233500*
X112545Y232375*
X112273Y230500*
Y228625*
X112545Y227125*
X113091Y226375*
X113909Y226000*
X114182*
X115000Y226375*
X115545Y227125*
X115818Y228250*
Y228625*
X115545Y229750*
X115000Y230500*
X114182Y230875*
X113909*
X113091Y230500*
X112545Y229750*
X112273Y228625*
X201636Y233875D02*
X198909Y228625D01*
X203000*
X201636Y233875D02*
Y226000D01*
X232000D02*
X244000D01*
Y238000*
X232000*
Y226000*
X238000Y232000D02*
Y238000D01*
X264636Y233875D02*
X266818Y230125D01*
Y226000*
X269000Y233875D02*
X266818Y230125D01*
X271455Y233875D02*
Y226000D01*
Y233875D02*
X275000D01*
X271455Y230125D02*
X273636D01*
X271455Y226000D02*
X275000D01*
X281273Y232750D02*
X280727Y233500D01*
X279909Y233875*
X278818*
X278000Y233500*
X277455Y232750*
Y232000*
X277727Y231250*
X278000Y230875*
X278545Y230500*
X280182Y229750*
X280727Y229375*
X281000Y229000*
X281273Y228250*
Y227125*
X280727Y226375*
X279909Y226000*
X278818*
X278000Y226375*
X277455Y227125*
X317818Y232750D02*
Y226000D01*
X315364Y229375D02*
X320273D01*
X327636Y235375D02*
X322727Y223375D01*
X330091Y229375D02*
X335000D01*
X339091Y233875D02*
X338273Y233500D01*
X337727Y232375*
X337455Y230500*
Y229375*
X337727Y227500*
X338273Y226375*
X339091Y226000*
X339636*
X340455Y226375*
X341000Y227500*
X341273Y229375*
Y230500*
X341000Y232375*
X340455Y233500*
X339636Y233875*
X339091*
X344000Y226750D02*
X343727Y226375D01*
X344000Y226000*
X344273Y226375*
X344000Y226750*
X348364Y233875D02*
X347545Y233500D01*
X347000Y232375*
X346727Y230500*
Y229375*
X347000Y227500*
X347545Y226375*
X348364Y226000*
X348909*
X349727Y226375*
X350273Y227500*
X350545Y229375*
Y230500*
X350273Y232375*
X349727Y233500*
X348909Y233875*
X348364*
X106545Y209875D02*
X109545D01*
X107909Y206875*
X108727*
X109273Y206500*
X109545Y206125*
X109818Y205000*
Y204250*
X109545Y203125*
X109000Y202375*
X108182Y202000*
X107364*
X106545Y202375*
X106273Y202750*
X106000Y203500*
X116091Y209875D02*
X113364Y202000D01*
X112273Y209875D02*
X116091D01*
X197136Y208375D02*
X197682Y208750D01*
X198500Y209875*
Y202000*
X202591Y209875D02*
X201773Y209500D01*
X201227Y208375*
X200955Y206500*
Y205375*
X201227Y203500*
X201773Y202375*
X202591Y202000*
X203136*
X203955Y202375*
X204500Y203500*
X204773Y205375*
Y206500*
X204500Y208375*
X203955Y209500*
X203136Y209875*
X202591*
X238000Y202000D02*
X244000Y208000D01*
X238000Y214000*
X232000Y208000*
X238000Y202000*
Y208000D02*
Y214000D01*
X264636Y209875D02*
X266818Y206125D01*
Y202000*
X269000Y209875D02*
X266818Y206125D01*
X271455Y209875D02*
Y202000D01*
Y209875D02*
X275000D01*
X271455Y206125D02*
X273636D01*
X271455Y202000D02*
X275000D01*
X281273Y208750D02*
X280727Y209500D01*
X279909Y209875*
X278818*
X278000Y209500*
X277455Y208750*
Y208000*
X277727Y207250*
X278000Y206875*
X278545Y206500*
X280182Y205750*
X280727Y205375*
X281000Y205000*
X281273Y204250*
Y203125*
X280727Y202375*
X279909Y202000*
X278818*
X278000Y202375*
X277455Y203125*
X317818Y208750D02*
Y202000D01*
X315364Y205375D02*
X320273D01*
X327636Y211375D02*
X322727Y199375D01*
X330091Y205375D02*
X335000D01*
X339091Y209875D02*
X338273Y209500D01*
X337727Y208375*
X337455Y206500*
Y205375*
X337727Y203500*
X338273Y202375*
X339091Y202000*
X339636*
X340455Y202375*
X341000Y203500*
X341273Y205375*
Y206500*
X341000Y208375*
X340455Y209500*
X339636Y209875*
X339091*
X344000Y202750D02*
X343727Y202375D01*
X344000Y202000*
X344273Y202375*
X344000Y202750*
X348364Y209875D02*
X347545Y209500D01*
X347000Y208375*
X346727Y206500*
Y205375*
X347000Y203500*
X347545Y202375*
X348364Y202000*
X348909*
X349727Y202375*
X350273Y203500*
X350545Y205375*
Y206500*
X350273Y208375*
X349727Y209500*
X348909Y209875*
X348364*
X106000Y184375D02*
X106545Y184750D01*
X107364Y185875*
Y178000*
X113091Y184750D02*
X112818Y185500D01*
X112000Y185875*
X111455*
X110636Y185500*
X110091Y184375*
X109818Y182500*
Y180625*
X110091Y179125*
X110636Y178375*
X111455Y178000*
X111727*
X112545Y178375*
X113091Y179125*
X113364Y180250*
Y180625*
X113091Y181750*
X112545Y182500*
X111727Y182875*
X111455*
X110636Y182500*
X110091Y181750*
X109818Y180625*
X119364Y185875D02*
X116636D01*
X116364Y182500*
X116636Y182875*
X117455Y183250*
X118273*
X119091Y182875*
X119636Y182125*
X119909Y181000*
X119636Y180250*
X119364Y179125*
X118818Y178375*
X118000Y178000*
X117182*
X116364Y178375*
X116091Y178750*
X115818Y179500*
X201636Y185875D02*
X198909Y180625D01*
X203000*
X201636Y185875D02*
Y178000D01*
X232000D02*
X244000D01*
X232000Y190000*
X244000*
X232000Y178000*
X264636Y185875D02*
X266818Y182125D01*
Y178000*
X269000Y185875D02*
X266818Y182125D01*
X271455Y185875D02*
Y178000D01*
Y185875D02*
X275000D01*
X271455Y182125D02*
X273636D01*
X271455Y178000D02*
X275000D01*
X281273Y184750D02*
X280727Y185500D01*
X279909Y185875*
X278818*
X278000Y185500*
X277455Y184750*
Y184000*
X277727Y183250*
X278000Y182875*
X278545Y182500*
X280182Y181750*
X280727Y181375*
X281000Y181000*
X281273Y180250*
Y179125*
X280727Y178375*
X279909Y178000*
X278818*
X278000Y178375*
X277455Y179125*
X317818Y184750D02*
Y178000D01*
X315364Y181375D02*
X320273D01*
X327636Y187375D02*
X322727Y175375D01*
X330091Y181375D02*
X335000D01*
X339091Y185875D02*
X338273Y185500D01*
X337727Y184375*
X337455Y182500*
Y181375*
X337727Y179500*
X338273Y178375*
X339091Y178000*
X339636*
X340455Y178375*
X341000Y179500*
X341273Y181375*
Y182500*
X341000Y184375*
X340455Y185500*
X339636Y185875*
X339091*
X344000Y178750D02*
X343727Y178375D01*
X344000Y178000*
X344273Y178375*
X344000Y178750*
X348364Y185875D02*
X347545Y185500D01*
X347000Y184375*
X346727Y182500*
Y181375*
X347000Y179500*
X347545Y178375*
X348364Y178000*
X348909*
X349727Y178375*
X350273Y179500*
X350545Y181375*
Y182500*
X350273Y184375*
X349727Y185500*
X348909Y185875*
X348364*
X106273Y160000D02*
Y160375D01*
X106545Y161125*
X106818Y161500*
X107364Y161875*
X108455*
X109000Y161500*
X109273Y161125*
X109545Y160375*
Y159625*
X109273Y158875*
X108727Y157750*
X106000Y154000*
X109818*
X115000Y161875D02*
X112273Y156625D01*
X116364*
X115000Y161875D02*
Y154000D01*
X196591Y161875D02*
X199591D01*
X197955Y158875*
X198773*
X199318Y158500*
X199591Y158125*
X199864Y157000*
Y156250*
X199591Y155125*
X199045Y154375*
X198227Y154000*
X197409*
X196591Y154375*
X196318Y154750*
X196045Y155500*
X205591Y160750D02*
X205318Y161500D01*
X204500Y161875*
X203955*
X203136Y161500*
X202591Y160375*
X202318Y158500*
Y156625*
X202591Y155125*
X203136Y154375*
X203955Y154000*
X204227*
X205045Y154375*
X205591Y155125*
X205864Y156250*
Y156625*
X205591Y157750*
X205045Y158500*
X204227Y158875*
X203955*
X203136Y158500*
X202591Y157750*
X202318Y156625*
X232000Y154000D02*
X244000Y166000D01*
Y154000*
X232000Y166000*
Y154000*
X264636Y161875D02*
X266818Y158125D01*
Y154000*
X269000Y161875D02*
X266818Y158125D01*
X271455Y161875D02*
Y154000D01*
Y161875D02*
X275000D01*
X271455Y158125D02*
X273636D01*
X271455Y154000D02*
X275000D01*
X281273Y160750D02*
X280727Y161500D01*
X279909Y161875*
X278818*
X278000Y161500*
X277455Y160750*
Y160000*
X277727Y159250*
X278000Y158875*
X278545Y158500*
X280182Y157750*
X280727Y157375*
X281000Y157000*
X281273Y156250*
Y155125*
X280727Y154375*
X279909Y154000*
X278818*
X278000Y154375*
X277455Y155125*
X317818Y160750D02*
Y154000D01*
X315364Y157375D02*
X320273D01*
X327636Y163375D02*
X322727Y151375D01*
X330091Y157375D02*
X335000D01*
X339091Y161875D02*
X338273Y161500D01*
X337727Y160375*
X337455Y158500*
Y157375*
X337727Y155500*
X338273Y154375*
X339091Y154000*
X339636*
X340455Y154375*
X341000Y155500*
X341273Y157375*
Y158500*
X341000Y160375*
X340455Y161500*
X339636Y161875*
X339091*
X344000Y154750D02*
X343727Y154375D01*
X344000Y154000*
X344273Y154375*
X344000Y154750*
X348364Y161875D02*
X347545Y161500D01*
X347000Y160375*
X346727Y158500*
Y157375*
X347000Y155500*
X347545Y154375*
X348364Y154000*
X348909*
X349727Y154375*
X350273Y155500*
X350545Y157375*
Y158500*
X350273Y160375*
X349727Y161500*
X348909Y161875*
X348364*
X107364Y137875D02*
X106545Y137500D01*
X106273Y136750*
Y136000*
X106545Y135250*
X107091Y134875*
X108182Y134500*
X109000Y134125*
X109545Y133375*
X109818Y132625*
Y131500*
X109545Y130750*
X109273Y130375*
X108455Y130000*
X107364*
X106545Y130375*
X106273Y130750*
X106000Y131500*
Y132625*
X106273Y133375*
X106818Y134125*
X107636Y134500*
X108727Y134875*
X109273Y135250*
X109545Y136000*
Y136750*
X109273Y137500*
X108455Y137875*
X107364*
X115818Y135250D02*
X115545Y134125D01*
X115000Y133375*
X114182Y133000*
X113909*
X113091Y133375*
X112545Y134125*
X112273Y135250*
Y135625*
X112545Y136750*
X113091Y137500*
X113909Y137875*
X114182*
X115000Y137500*
X115545Y136750*
X115818Y135250*
Y133375*
X115545Y131500*
X115000Y130375*
X114182Y130000*
X113636*
X112818Y130375*
X112545Y131125*
X118545Y130750D02*
X118273Y130375D01*
X118545Y130000*
X118818Y130375*
X118545Y130750*
X124818Y137875D02*
X122091D01*
X121818Y134500*
X122091Y134875*
X122909Y135250*
X123727*
X124545Y134875*
X125091Y134125*
X125364Y133000*
X125091Y132250*
X124818Y131125*
X124273Y130375*
X123455Y130000*
X122636*
X121818Y130375*
X121545Y130750*
X121273Y131500*
X199318Y136000D02*
Y136375D01*
X199591Y137125*
X199864Y137500*
X200409Y137875*
X201500*
X202045Y137500*
X202318Y137125*
X202591Y136375*
Y135625*
X202318Y134875*
X201773Y133750*
X199045Y130000*
X202864*
X232000Y136000D02*
X244000D01*
X238000Y130000D02*
Y142000D01*
X242745Y145300D02*
X241000Y139000D01*
X242745Y145300D02*
X244491Y139000D01*
X241655Y141100D02*
X243836D01*
X267636Y137875D02*
Y130000D01*
Y137875D02*
X271455Y130000D01*
Y137875D02*
Y130000D01*
X275545Y137875D02*
X275000Y137500D01*
X274455Y136750*
X274182Y136000*
X273909Y134875*
Y133000*
X274182Y131875*
X274455Y131125*
X275000Y130375*
X275545Y130000*
X276636*
X277182Y130375*
X277727Y131125*
X278000Y131875*
X278273Y133000*
Y134875*
X278000Y136000*
X277727Y136750*
X277182Y137500*
X276636Y137875*
X275545*
X317818Y136750D02*
Y130000D01*
X315364Y133375D02*
X320273D01*
X327636Y139375D02*
X322727Y127375D01*
X330091Y133375D02*
X335000D01*
X339091Y137875D02*
X338273Y137500D01*
X337727Y136375*
X337455Y134500*
Y133375*
X337727Y131500*
X338273Y130375*
X339091Y130000*
X339636*
X340455Y130375*
X341000Y131500*
X341273Y133375*
Y134500*
X341000Y136375*
X340455Y137500*
X339636Y137875*
X339091*
X344000Y130750D02*
X343727Y130375D01*
X344000Y130000*
X344273Y130375*
X344000Y130750*
X348364Y137875D02*
X347545Y137500D01*
X347000Y136375*
X346727Y134500*
Y133375*
X347000Y131500*
X347545Y130375*
X348364Y130000*
X348909*
X349727Y130375*
X350273Y131500*
X350545Y133375*
Y134500*
X350273Y136375*
X349727Y137500*
X348909Y137875*
X348364*
X106000Y112375D02*
X106545Y112750D01*
X107364Y113875*
Y106000*
X111455Y113875D02*
X110636Y113500D01*
X110091Y112375*
X109818Y110500*
Y109375*
X110091Y107500*
X110636Y106375*
X111455Y106000*
X112000*
X112818Y106375*
X113364Y107500*
X113636Y109375*
Y110500*
X113364Y112375*
X112818Y113500*
X112000Y113875*
X111455*
X198500D02*
X195773Y108625D01*
X199864*
X198500Y113875D02*
Y106000D01*
X203955Y113875D02*
X203136Y113500D01*
X202591Y112375*
X202318Y110500*
Y109375*
X202591Y107500*
X203136Y106375*
X203955Y106000*
X204500*
X205318Y106375*
X205864Y107500*
X206136Y109375*
Y110500*
X205864Y112375*
X205318Y113500*
X204500Y113875*
X203955*
X232000Y112000D02*
X244000D01*
X238000Y106000D02*
Y118000D01*
X241000Y121300D02*
Y115000D01*
Y121300D02*
X242964D01*
X243618Y121000*
X243836Y120700*
X244055Y120100*
Y119500*
X243836Y118900*
X243618Y118600*
X242964Y118300*
X241000D02*
X242964D01*
X243618Y118000*
X243836Y117700*
X244055Y117100*
Y116200*
X243836Y115600*
X243618Y115300*
X242964Y115000*
X241000*
X264636Y113875D02*
X266818Y110125D01*
Y106000*
X269000Y113875D02*
X266818Y110125D01*
X271455Y113875D02*
Y106000D01*
Y113875D02*
X275000D01*
X271455Y110125D02*
X273636D01*
X271455Y106000D02*
X275000D01*
X281273Y112750D02*
X280727Y113500D01*
X279909Y113875*
X278818*
X278000Y113500*
X277455Y112750*
Y112000*
X277727Y111250*
X278000Y110875*
X278545Y110500*
X280182Y109750*
X280727Y109375*
X281000Y109000*
X281273Y108250*
Y107125*
X280727Y106375*
X279909Y106000*
X278818*
X278000Y106375*
X277455Y107125*
X317818Y112750D02*
Y106000D01*
X315364Y109375D02*
X320273D01*
X327636Y115375D02*
X322727Y103375D01*
X330091Y109375D02*
X335000D01*
X339091Y113875D02*
X338273Y113500D01*
X337727Y112375*
X337455Y110500*
Y109375*
X337727Y107500*
X338273Y106375*
X339091Y106000*
X339636*
X340455Y106375*
X341000Y107500*
X341273Y109375*
Y110500*
X341000Y112375*
X340455Y113500*
X339636Y113875*
X339091*
X344000Y106750D02*
X343727Y106375D01*
X344000Y106000*
X344273Y106375*
X344000Y106750*
X348364Y113875D02*
X347545Y113500D01*
X347000Y112375*
X346727Y110500*
Y109375*
X347000Y107500*
X347545Y106375*
X348364Y106000*
X348909*
X349727Y106375*
X350273Y107500*
X350545Y109375*
Y110500*
X350273Y112375*
X349727Y113500*
X348909Y113875*
X348364*
X0Y0D02*
M02*
