*
*
G04 PADS 9.5 Build Number: 522968 generated Gerber (RS-274-X) file*
G04 PC Version=2.1*
*
%IN "E155BoardLayout2.pcb"*%
*
%MOIN*%
*
%FSLAX35Y35*%
*
*
*
*
G04 PC Standard Apertures*
*
*
G04 Thermal Relief Aperture macro.*
%AMTER*
1,1,$1,0,0*
1,0,$1-$2,0,0*
21,0,$3,$4,0,0,45*
21,0,$3,$4,0,0,135*
%
*
*
G04 Annular Aperture macro.*
%AMANN*
1,1,$1,0,0*
1,0,$2,0,0*
%
*
*
G04 Odd Aperture macro.*
%AMODD*
1,1,$1,0,0*
1,0,$1-0.005,0,0*
%
*
*
G04 PC Custom Aperture Macros*
*
*
*
*
*
*
G04 PC Aperture Table*
*
%ADD010C,0.001*%
%ADD012C,0.01*%
*
*
*
*
G04 PC Circuitry*
G04 Layer Name E155BoardLayout2.pcb - circuitry*
%LPD*%
*
*
G04 PC Custom Flashes*
G04 Layer Name E155BoardLayout2.pcb - flashes*
%LPD*%
*
*
G04 PC Circuitry*
G04 Layer Name E155BoardLayout2.pcb - circuitry*
%LPD*%
*
G54D10*
G54D12*
G01X101000Y680000D02*
X109000D01*
X105000Y676000D02*
Y684000D01*
X101000Y670000D02*
X109000D01*
X105000Y666000D02*
Y674000D01*
X101000Y660000D02*
X109000D01*
X105000Y656000D02*
Y664000D01*
X101000Y650000D02*
X109000D01*
X105000Y646000D02*
Y654000D01*
X101000Y640000D02*
X109000D01*
X105000Y636000D02*
Y644000D01*
X101000Y630000D02*
X109000D01*
X105000Y626000D02*
Y634000D01*
X101000Y620000D02*
X109000D01*
X105000Y616000D02*
Y624000D01*
X101000Y610000D02*
X109000D01*
X105000Y606000D02*
Y614000D01*
X101000Y600000D02*
X109000D01*
X105000Y596000D02*
Y604000D01*
X101000Y590000D02*
X109000D01*
X105000Y586000D02*
Y594000D01*
X101000Y580000D02*
X109000D01*
X105000Y576000D02*
Y584000D01*
X101000Y570000D02*
X109000D01*
X105000Y566000D02*
Y574000D01*
X101000Y560000D02*
X109000D01*
X105000Y556000D02*
Y564000D01*
X101000Y550000D02*
X109000D01*
X105000Y546000D02*
Y554000D01*
X101000Y540000D02*
X109000D01*
X105000Y536000D02*
Y544000D01*
X101000Y530000D02*
X109000D01*
X105000Y526000D02*
Y534000D01*
X101000Y520000D02*
X109000D01*
X105000Y516000D02*
Y524000D01*
X101000Y510000D02*
X109000D01*
X105000Y506000D02*
Y514000D01*
X101000Y500000D02*
X109000D01*
X105000Y496000D02*
Y504000D01*
X101000Y490000D02*
X109000D01*
X105000Y486000D02*
Y494000D01*
X101000Y480000D02*
X109000D01*
X105000Y476000D02*
Y484000D01*
X101000Y470000D02*
X109000D01*
X105000Y466000D02*
Y474000D01*
X101000Y460000D02*
X109000D01*
X105000Y456000D02*
Y464000D01*
X101000Y450000D02*
X109000D01*
X105000Y446000D02*
Y454000D01*
X101000Y440000D02*
X109000D01*
X105000Y436000D02*
Y444000D01*
X101000Y430000D02*
X109000D01*
X105000Y426000D02*
Y434000D01*
X101000Y420000D02*
X109000D01*
X105000Y416000D02*
Y424000D01*
X101000Y410000D02*
X109000D01*
X105000Y406000D02*
Y414000D01*
X101000Y400000D02*
X109000D01*
X105000Y396000D02*
Y404000D01*
X101000Y390000D02*
X109000D01*
X105000Y386000D02*
Y394000D01*
X101000Y380000D02*
X109000D01*
X105000Y376000D02*
Y384000D01*
X101000Y370000D02*
X109000D01*
X105000Y366000D02*
Y374000D01*
X101000Y360000D02*
X109000D01*
X105000Y356000D02*
Y364000D01*
X101000Y350000D02*
X109000D01*
X105000Y346000D02*
Y354000D01*
X101000Y340000D02*
X109000D01*
X105000Y336000D02*
Y344000D01*
X101000Y330000D02*
X109000D01*
X105000Y326000D02*
Y334000D01*
X101000Y320000D02*
X109000D01*
X105000Y316000D02*
Y324000D01*
X101000Y310000D02*
X109000D01*
X105000Y306000D02*
Y314000D01*
X101000Y300000D02*
X109000D01*
X105000Y296000D02*
Y304000D01*
X101000Y290000D02*
X109000D01*
X105000Y286000D02*
Y294000D01*
X101000Y280000D02*
X109000D01*
X105000Y276000D02*
Y284000D01*
X101000Y270000D02*
X109000D01*
X105000Y266000D02*
Y274000D01*
X101000Y260000D02*
X109000D01*
X105000Y256000D02*
Y264000D01*
X101000Y250000D02*
X109000D01*
X105000Y246000D02*
Y254000D01*
X101000Y240000D02*
X109000D01*
X105000Y236000D02*
Y244000D01*
X101000Y230000D02*
X109000D01*
X105000Y226000D02*
Y234000D01*
X101000Y220000D02*
X109000D01*
X105000Y216000D02*
Y224000D01*
X101000Y210000D02*
X109000D01*
X105000Y206000D02*
Y214000D01*
X101000Y200000D02*
X109000D01*
X105000Y196000D02*
Y204000D01*
X101000Y190000D02*
X109000D01*
X105000Y186000D02*
Y194000D01*
X101000Y180000D02*
X109000D01*
X105000Y176000D02*
Y184000D01*
X101000Y170000D02*
X109000D01*
X105000Y166000D02*
Y174000D01*
X101000Y160000D02*
X109000D01*
X105000Y156000D02*
Y164000D01*
X101000Y150000D02*
X109000D01*
X105000Y146000D02*
Y154000D01*
X101000Y140000D02*
X109000D01*
X105000Y136000D02*
Y144000D01*
X101000Y130000D02*
X109000D01*
X105000Y126000D02*
Y134000D01*
X101000Y120000D02*
X109000D01*
X105000Y116000D02*
Y124000D01*
X101000Y110000D02*
X109000D01*
X105000Y106000D02*
Y114000D01*
X126000Y430000D02*
X134000D01*
X130000Y426000D02*
Y434000D01*
X126000Y420000D02*
X134000D01*
X130000Y416000D02*
Y424000D01*
X126000Y410000D02*
X134000D01*
X130000Y406000D02*
Y414000D01*
X126000Y400000D02*
X134000D01*
X130000Y396000D02*
Y404000D01*
X156000Y400000D02*
X164000D01*
X160000Y396000D02*
Y404000D01*
X156000Y410000D02*
X164000D01*
X160000Y406000D02*
Y414000D01*
X156000Y420000D02*
X164000D01*
X160000Y416000D02*
Y424000D01*
X156000Y430000D02*
X164000D01*
X160000Y426000D02*
Y434000D01*
X133500Y116000D02*
X141500D01*
X137500Y112000D02*
Y120000D01*
X143500Y116000D02*
X151500D01*
X147500Y112000D02*
Y120000D01*
X153500Y116000D02*
X161500D01*
X157500Y112000D02*
Y120000D01*
X163500Y116000D02*
X171500D01*
X167500Y112000D02*
Y120000D01*
X163500Y146000D02*
X171500D01*
X167500Y142000D02*
Y150000D01*
X153500Y146000D02*
X161500D01*
X157500Y142000D02*
Y150000D01*
X143500Y146000D02*
X151500D01*
X147500Y142000D02*
Y150000D01*
X133500Y146000D02*
X141500D01*
X137500Y142000D02*
Y150000D01*
X168000Y159000D02*
X176000D01*
X172000Y155000D02*
Y163000D01*
X158000Y159000D02*
X166000D01*
X162000Y155000D02*
Y163000D01*
X148000Y159000D02*
X156000D01*
X152000Y155000D02*
Y163000D01*
X138000Y159000D02*
X146000D01*
X142000Y155000D02*
Y163000D01*
X128000Y159000D02*
X136000D01*
X132000Y155000D02*
Y163000D01*
X166000Y295000D02*
X174000D01*
X170000Y291000D02*
Y299000D01*
X166000Y285000D02*
X174000D01*
X170000Y281000D02*
Y289000D01*
X166000Y275000D02*
X174000D01*
X170000Y271000D02*
Y279000D01*
X166000Y265000D02*
X174000D01*
X170000Y261000D02*
Y269000D01*
X166000Y255000D02*
X174000D01*
X170000Y251000D02*
Y259000D01*
X166000Y245000D02*
X174000D01*
X170000Y241000D02*
Y249000D01*
X166000Y235000D02*
X174000D01*
X170000Y231000D02*
Y239000D01*
X166000Y225000D02*
X174000D01*
X170000Y221000D02*
Y229000D01*
X196000Y225000D02*
X204000D01*
X200000Y221000D02*
Y229000D01*
X196000Y235000D02*
X204000D01*
X200000Y231000D02*
Y239000D01*
X196000Y245000D02*
X204000D01*
X200000Y241000D02*
Y249000D01*
X196000Y255000D02*
X204000D01*
X200000Y251000D02*
Y259000D01*
X196000Y265000D02*
X204000D01*
X200000Y261000D02*
Y269000D01*
X196000Y275000D02*
X204000D01*
X200000Y271000D02*
Y279000D01*
X196000Y285000D02*
X204000D01*
X200000Y281000D02*
Y289000D01*
X196000Y295000D02*
X204000D01*
X200000Y291000D02*
Y299000D01*
X186000Y422000D02*
X194000D01*
X190000Y418000D02*
Y426000D01*
X186000Y412000D02*
X194000D01*
X190000Y408000D02*
Y416000D01*
X186000Y402000D02*
X194000D01*
X190000Y398000D02*
Y406000D01*
X186000Y392000D02*
X194000D01*
X190000Y388000D02*
Y396000D01*
X186000Y382000D02*
X194000D01*
X190000Y378000D02*
Y386000D01*
X186000Y372000D02*
X194000D01*
X190000Y368000D02*
Y376000D01*
X186000Y362000D02*
X194000D01*
X190000Y358000D02*
Y366000D01*
X186000Y352000D02*
X194000D01*
X190000Y348000D02*
Y356000D01*
X186000Y342000D02*
X194000D01*
X190000Y338000D02*
Y346000D01*
X186000Y332000D02*
X194000D01*
X190000Y328000D02*
Y336000D01*
X192000Y186000D02*
X200000D01*
X196000Y182000D02*
Y190000D01*
X192000Y176000D02*
X200000D01*
X196000Y172000D02*
Y180000D01*
X192000Y166000D02*
X200000D01*
X196000Y162000D02*
Y170000D01*
X192000Y156000D02*
X200000D01*
X196000Y152000D02*
Y160000D01*
X192000Y146000D02*
X200000D01*
X196000Y142000D02*
Y150000D01*
X192000Y136000D02*
X200000D01*
X196000Y132000D02*
Y140000D01*
X192000Y126000D02*
X200000D01*
X196000Y122000D02*
Y130000D01*
X192000Y116000D02*
X200000D01*
X196000Y112000D02*
Y120000D01*
X192000Y106000D02*
X200000D01*
X196000Y102000D02*
Y110000D01*
X202000Y106000D02*
X210000D01*
X206000Y102000D02*
Y110000D01*
X202000Y116000D02*
X210000D01*
X206000Y112000D02*
Y120000D01*
X202000Y126000D02*
X210000D01*
X206000Y122000D02*
Y130000D01*
X202000Y136000D02*
X210000D01*
X206000Y132000D02*
Y140000D01*
X202000Y146000D02*
X210000D01*
X206000Y142000D02*
Y150000D01*
X202000Y156000D02*
X210000D01*
X206000Y152000D02*
Y160000D01*
X202000Y166000D02*
X210000D01*
X206000Y162000D02*
Y170000D01*
X202000Y176000D02*
X210000D01*
X206000Y172000D02*
Y180000D01*
X202000Y186000D02*
X210000D01*
X206000Y182000D02*
Y190000D01*
X191000Y565000D02*
X199000D01*
X195000Y561000D02*
Y569000D01*
X191000Y590591D02*
X199000D01*
X195000Y586591D02*
Y594591D01*
X208717Y590591D02*
X216717D01*
X212717Y586591D02*
Y594591D01*
X208717Y565000D02*
X216717D01*
X212717Y561000D02*
Y569000D01*
X199000Y422000D02*
X207000D01*
X203000Y418000D02*
Y426000D01*
X199000Y412000D02*
X207000D01*
X203000Y408000D02*
Y416000D01*
X199000Y402000D02*
X207000D01*
X203000Y398000D02*
Y406000D01*
X199000Y392000D02*
X207000D01*
X203000Y388000D02*
Y396000D01*
X199000Y382000D02*
X207000D01*
X203000Y378000D02*
Y386000D01*
X199000Y372000D02*
X207000D01*
X203000Y368000D02*
Y376000D01*
X199000Y362000D02*
X207000D01*
X203000Y358000D02*
Y366000D01*
X199000Y352000D02*
X207000D01*
X203000Y348000D02*
Y356000D01*
X199000Y342000D02*
X207000D01*
X203000Y338000D02*
Y346000D01*
X199000Y332000D02*
X207000D01*
X203000Y328000D02*
Y336000D01*
X214000Y295000D02*
X222000D01*
X218000Y291000D02*
Y299000D01*
X214000Y285000D02*
X222000D01*
X218000Y281000D02*
Y289000D01*
X214000Y275000D02*
X222000D01*
X218000Y271000D02*
Y279000D01*
X214000Y265000D02*
X222000D01*
X218000Y261000D02*
Y269000D01*
X214000Y255000D02*
X222000D01*
X218000Y251000D02*
Y259000D01*
X214000Y245000D02*
X222000D01*
X218000Y241000D02*
Y249000D01*
X214000Y235000D02*
X222000D01*
X218000Y231000D02*
Y239000D01*
X214000Y225000D02*
X222000D01*
X218000Y221000D02*
Y229000D01*
X244000Y225000D02*
X252000D01*
X248000Y221000D02*
Y229000D01*
X244000Y235000D02*
X252000D01*
X248000Y231000D02*
Y239000D01*
X244000Y245000D02*
X252000D01*
X248000Y241000D02*
Y249000D01*
X244000Y255000D02*
X252000D01*
X248000Y251000D02*
Y259000D01*
X244000Y265000D02*
X252000D01*
X248000Y261000D02*
Y269000D01*
X244000Y275000D02*
X252000D01*
X248000Y271000D02*
Y279000D01*
X244000Y285000D02*
X252000D01*
X248000Y281000D02*
Y289000D01*
X244000Y295000D02*
X252000D01*
X248000Y291000D02*
Y299000D01*
X216000Y422000D02*
X224000D01*
X220000Y418000D02*
Y426000D01*
X216000Y412000D02*
X224000D01*
X220000Y408000D02*
Y416000D01*
X216000Y402000D02*
X224000D01*
X220000Y398000D02*
Y406000D01*
X216000Y392000D02*
X224000D01*
X220000Y388000D02*
Y396000D01*
X216000Y382000D02*
X224000D01*
X220000Y378000D02*
Y386000D01*
X216000Y372000D02*
X224000D01*
X220000Y368000D02*
Y376000D01*
X216000Y362000D02*
X224000D01*
X220000Y358000D02*
Y366000D01*
X216000Y352000D02*
X224000D01*
X220000Y348000D02*
Y356000D01*
X216000Y342000D02*
X224000D01*
X220000Y338000D02*
Y346000D01*
X216000Y332000D02*
X224000D01*
X220000Y328000D02*
Y336000D01*
X246000Y332000D02*
X254000D01*
X250000Y328000D02*
Y336000D01*
X246000Y342000D02*
X254000D01*
X250000Y338000D02*
Y346000D01*
X246000Y352000D02*
X254000D01*
X250000Y348000D02*
Y356000D01*
X246000Y362000D02*
X254000D01*
X250000Y358000D02*
Y366000D01*
X246000Y372000D02*
X254000D01*
X250000Y368000D02*
Y376000D01*
X246000Y382000D02*
X254000D01*
X250000Y378000D02*
Y386000D01*
X246000Y392000D02*
X254000D01*
X250000Y388000D02*
Y396000D01*
X246000Y402000D02*
X254000D01*
X250000Y398000D02*
Y406000D01*
X246000Y412000D02*
X254000D01*
X250000Y408000D02*
Y416000D01*
X246000Y422000D02*
X254000D01*
X250000Y418000D02*
Y426000D01*
X236000Y105900D02*
X244000Y113900D01*
X236000D02*
X244000Y105900D01*
X236000Y115900D02*
X244000Y123900D01*
X236000D02*
X244000Y115900D01*
X236000Y125900D02*
X244000Y133900D01*
X236000D02*
X244000Y125900D01*
X236000Y135900D02*
X244000Y143900D01*
X236000D02*
X244000Y135900D01*
X236000Y145900D02*
X244000Y153900D01*
X236000D02*
X244000Y145900D01*
X236000Y155900D02*
X244000Y163900D01*
X236000D02*
X244000Y155900D01*
X236000Y165900D02*
X244000Y173900D01*
X236000D02*
X244000Y165900D01*
X236000Y175900D02*
X244000Y183900D01*
X236000D02*
X244000Y175900D01*
X236000Y185900D02*
X244000Y193900D01*
X236000D02*
X244000Y185900D01*
X236000Y195900D02*
X244000Y203900D01*
X236000D02*
X244000Y195900D01*
X239500Y624500D02*
X247500D01*
Y632500*
X239500*
Y624500*
X243500Y628500D02*
Y632500D01*
X229500Y624500D02*
X237500D01*
Y632500*
X229500*
Y624500*
X233500Y628500D02*
Y632500D01*
X239500Y634500D02*
X247500D01*
Y642500*
X239500*
Y634500*
X243500Y638500D02*
Y642500D01*
X229500Y634500D02*
X237500D01*
Y642500*
X229500*
Y634500*
X233500Y638500D02*
Y642500D01*
X239500Y644500D02*
X247500D01*
Y652500*
X239500*
Y644500*
X243500Y648500D02*
Y652500D01*
X229500Y644500D02*
X237500D01*
Y652500*
X229500*
Y644500*
X233500Y648500D02*
Y652500D01*
X239500Y654500D02*
X247500D01*
Y662500*
X239500*
Y654500*
X243500Y658500D02*
Y662500D01*
X229500Y654500D02*
X237500D01*
Y662500*
X229500*
Y654500*
X233500Y658500D02*
Y662500D01*
X239500Y664500D02*
X247500D01*
Y672500*
X239500*
Y664500*
X243500Y668500D02*
Y672500D01*
X229500Y664500D02*
X237500D01*
Y672500*
X229500*
Y664500*
X233500Y668500D02*
Y672500D01*
X180000Y486000D02*
X184000Y490000D01*
X180000Y494000*
X176000Y490000*
X180000Y486000*
Y490000D02*
Y494000D01*
X163500Y125000D02*
X171500D01*
X163500Y133000*
X171500*
X163500Y125000*
X149000Y164500D02*
X157000D01*
X149000Y172500*
X157000*
X149000Y164500*
X140000Y161500D02*
X148000D01*
X140000Y169500*
X148000*
X140000Y161500*
X154000Y148500D02*
X162000D01*
X154000Y156500*
X162000*
X154000Y148500*
X150000Y175000D02*
X158000D01*
X150000Y183000*
X158000*
X150000Y175000*
X144313Y187313D02*
X152313D01*
X144313Y195313*
X152313*
X144313Y187313*
X147500Y194500D02*
X155500D01*
X147500Y202500*
X155500*
X147500Y194500*
Y189500D02*
X155500D01*
X147500Y197500*
X155500*
X147500Y189500*
X139500Y201500D02*
X147500D01*
X139500Y209500*
X147500*
X139500Y201500*
X181000Y203000D02*
X189000D01*
X181000Y211000*
X189000*
X181000Y203000*
X186000Y200000D02*
X194000D01*
X186000Y208000*
X194000*
X186000Y200000*
X187500Y195000D02*
X195500D01*
X187500Y203000*
X195500*
X187500Y195000*
X189800Y200000D02*
X197800D01*
X189800Y208000*
X197800*
X189800Y200000*
X204500Y198000D02*
X212500D01*
X204500Y206000*
X212500*
X204500Y198000*
X105500Y210500D02*
X113500D01*
X105500Y218500*
X113500*
X105500Y210500*
X111000Y209000D02*
X119000D01*
X111000Y217000*
X119000*
X111000Y209000*
X104000Y220500D02*
X112000D01*
X104000Y228500*
X112000*
X104000Y220500*
X134000Y216000D02*
X142000D01*
X134000Y224000*
X142000*
X134000Y216000*
X151000Y206000D02*
X159000D01*
X151000Y214000*
X159000*
X151000Y206000*
X179000Y211500D02*
X187000D01*
X179000Y219500*
X187000*
X179000Y211500*
X201360Y215020D02*
X209360D01*
X201360Y223020*
X209360*
X201360Y215020*
X216432Y285932D02*
X224432D01*
X216432Y293932*
X224432*
X216432Y285932*
X158526Y299850D02*
X166526D01*
X158526Y307850*
X166526*
X158526Y299850*
X175000Y303000D02*
X183000D01*
X175000Y311000*
X183000*
X175000Y303000*
X171500Y295500D02*
X179500D01*
X171500Y303500*
X179500*
X171500Y295500*
X220000Y295000D02*
X228000D01*
X220000Y303000*
X228000*
X220000Y295000*
X124000Y321500D02*
X132000D01*
X124000Y329500*
X132000*
X124000Y321500*
X123500Y341500D02*
X131500D01*
X123500Y349500*
X131500*
X123500Y341500*
X133400Y336000D02*
X141400D01*
X133400Y344000*
X141400*
X133400Y336000*
X140700Y341800D02*
X148700D01*
X140700Y349800*
X148700*
X140700Y341800*
X137500Y361000D02*
X145500D01*
X137500Y369000*
X145500*
X137500Y361000*
X116225Y377275D02*
X124225D01*
X116225Y385275*
X124225*
X116225Y377275*
X138300Y371000D02*
X146300D01*
X138300Y379000*
X146300*
X138300Y371000*
X134500Y371500D02*
X142500D01*
X134500Y379500*
X142500*
X134500Y371500*
X145500Y381500D02*
X153500D01*
X145500Y389500*
X153500*
X145500Y381500*
X131000Y386000D02*
X139000D01*
X131000Y394000*
X139000*
X131000Y386000*
X154100Y390000D02*
X162100D01*
X154100Y398000*
X162100*
X154100Y390000*
X167000Y395000D02*
X175000D01*
X167000Y403000*
X175000*
X167000Y395000*
X168600Y410000D02*
X176600D01*
X168600Y418000*
X176600*
X168600Y410000*
X197000Y423500D02*
X205000D01*
X197000Y431500*
X205000*
X197000Y423500*
X133100Y436000D02*
X141100D01*
X133100Y444000*
X141100*
X133100Y436000*
X135000Y441000D02*
X143000D01*
X135000Y449000*
X143000*
X135000Y441000*
X138500Y436500D02*
X146500D01*
X138500Y444500*
X146500*
X138500Y436500*
Y444000D02*
X146500D01*
X138500Y452000*
X146500*
X138500Y444000*
X153700Y438600D02*
X161700D01*
X153700Y446600*
X161700*
X153700Y438600*
X141359Y433985D02*
X149359D01*
X141359Y441985*
X149359*
X141359Y433985*
X148000Y438000D02*
X156000D01*
X148000Y446000*
X156000*
X148000Y438000*
X148500Y434000D02*
X156500D01*
X148500Y442000*
X156500*
X148500Y434000*
X157500Y439000D02*
X165500D01*
X157500Y447000*
X165500*
X157500Y439000*
X195000Y428000D02*
X203000D01*
X195000Y436000*
X203000*
X195000Y428000*
X185001Y438007D02*
X193001D01*
X185001Y446007*
X193001*
X185001Y438007*
X189000Y433000D02*
X197000D01*
X189000Y441000*
X197000*
X189000Y433000*
X196200Y437500D02*
X204200D01*
X196200Y445500*
X204200*
X196200Y437500*
X181029Y439000D02*
X189029D01*
X181029Y447000*
X189029*
X181029Y439000*
X206500Y430000D02*
X214500D01*
X206500Y438000*
X214500*
X206500Y430000*
X200000Y437218D02*
X208000D01*
X200000Y445218*
X208000*
X200000Y437218*
X204700Y435700D02*
X212700D01*
X204700Y443700*
X212700*
X204700Y435700*
X221700Y439000D02*
X229700D01*
X221700Y447000*
X229700*
X221700Y439000*
X117594Y446000D02*
X125594D01*
X117594Y454000*
X125594*
X117594Y446000*
X121500Y464000D02*
X129500D01*
X121500Y472000*
X129500*
X121500Y464000*
X124800Y461926D02*
X132800D01*
X124800Y469926*
X132800*
X124800Y461926*
X128800Y463500D02*
X136800D01*
X128800Y471500*
X136800*
X128800Y463500*
X159263Y449249D02*
X167263D01*
X159263Y457249*
X167263*
X159263Y449249*
X140766Y465000D02*
X148766D01*
X140766Y473000*
X148766*
X140766Y465000*
X140553Y460899D02*
X148553D01*
X140553Y468899*
X148553*
X140553Y460899*
X146500Y457500D02*
X154500D01*
X146500Y465500*
X154500*
X146500Y457500*
X140000Y453500D02*
X148000D01*
X140000Y461500*
X148000*
X140000Y453500*
X147346Y449146D02*
X155346D01*
X147346Y457146*
X155346*
X147346Y449146*
X155282Y449163D02*
X163282D01*
X155282Y457163*
X163282*
X155282Y449163*
X165300Y449000D02*
X173300D01*
X165300Y457000*
X173300*
X165300Y449000*
X169000Y454000D02*
X177000D01*
X169000Y462000*
X177000*
X169000Y454000*
X171318Y449500D02*
X179318D01*
X171318Y457500*
X179318*
X171318Y449500*
X176309Y454509D02*
X184309D01*
X176309Y462509*
X184309*
X176309Y454509*
X172000Y456374D02*
X180000D01*
X172000Y464374*
X180000*
X172000Y456374*
X187384Y449434D02*
X195384D01*
X187384Y457434*
X195384*
X187384Y449434*
X212874Y460000D02*
X220874D01*
X212874Y468000*
X220874*
X212874Y460000*
X213187Y463800D02*
X221187D01*
X213187Y471800*
X221187*
X213187Y463800*
X211000Y454000D02*
X219000D01*
X211000Y462000*
X219000*
X211000Y454000*
X207200Y454500D02*
X215200D01*
X207200Y462500*
X215200*
X207200Y454500*
X224000Y461500D02*
X232000D01*
X224000Y469500*
X232000*
X224000Y461500*
X226187Y464687D02*
X234187D01*
X226187Y472687*
X234187*
X226187Y464687*
X241000Y456000D02*
X249000D01*
X241000Y464000*
X249000*
X241000Y456000*
Y451000D02*
X249000D01*
X241000Y459000*
X249000*
X241000Y451000*
X117396Y477104D02*
X125396D01*
X117396Y485104*
X125396*
X117396Y477104*
X116000Y470000D02*
X124000D01*
X116000Y478000*
X124000*
X116000Y470000*
X129000Y481374D02*
X137000D01*
X129000Y489374*
X137000*
X129000Y481374*
X124126Y468600D02*
X132126D01*
X124126Y476600*
X132126*
X124126Y468600*
X122465Y474535D02*
X130465D01*
X122465Y482535*
X130465*
X122465Y474535*
X127721Y472155D02*
X135721D01*
X127721Y480155*
X135721*
X127721Y472155*
X139000Y483000D02*
X147000D01*
X139000Y491000*
X147000*
X139000Y483000*
X139500Y477000D02*
X147500D01*
X139500Y485000*
X147500*
X139500Y477000*
X212124Y479185D02*
X220124D01*
X212124Y487185*
X220124*
X212124Y479185*
X213000Y469800D02*
X221000D01*
X213000Y477800*
X221000*
X213000Y469800*
X212097Y483027D02*
X220097D01*
X212097Y491027*
X220097*
X212097Y483027*
X213000Y474000D02*
X221000D01*
X213000Y482000*
X221000*
X213000Y474000*
X231500D02*
X239500D01*
X231500Y482000*
X239500*
X231500Y474000*
X236000Y484000D02*
X244000D01*
X236000Y492000*
X244000*
X236000Y484000*
X223000Y467500D02*
X231000D01*
X223000Y475500*
X231000*
X223000Y467500*
Y477000D02*
X231000D01*
X223000Y485000*
X231000*
X223000Y477000*
X241000Y481000D02*
X249000D01*
X241000Y489000*
X249000*
X241000Y481000*
Y476000D02*
X249000D01*
X241000Y484000*
X249000*
X241000Y476000*
X129000Y499000D02*
X137000D01*
X129000Y507000*
X137000*
X129000Y499000*
X139000Y501000D02*
X147000D01*
X139000Y509000*
X147000*
X139000Y501000*
X213000Y495000D02*
X221000D01*
X213000Y503000*
X221000*
X213000Y495000*
X211000Y487500D02*
X219000D01*
X211000Y495500*
X219000*
X211000Y487500*
X233000Y489000D02*
X241000D01*
X233000Y497000*
X241000*
X233000Y489000*
X223000Y493000D02*
X231000D01*
X223000Y501000*
X231000*
X223000Y493000*
X129000Y512500D02*
X137000D01*
X129000Y520500*
X137000*
X129000Y512500*
X138781Y514281D02*
X146781D01*
X138781Y522281*
X146781*
X138781Y514281*
X150581Y518063D02*
X158581D01*
X150581Y526063*
X158581*
X150581Y518063*
X148440Y521309D02*
X156440D01*
X148440Y529309*
X156440*
X148440Y521309*
X155981Y518500D02*
X163981D01*
X155981Y526500*
X163981*
X155981Y518500*
X142000Y509000D02*
X150000D01*
X142000Y517000*
X150000*
X142000Y509000*
X159500Y523000D02*
X167500D01*
X159500Y531000*
X167500*
X159500Y523000*
X173500Y520100D02*
X181500D01*
X173500Y528100*
X181500*
X173500Y520100*
X176970Y522759D02*
X184970D01*
X176970Y530759*
X184970*
X176970Y522759*
X193225Y507275D02*
X201225D01*
X193225Y515275*
X201225*
X193225Y507275*
X187500Y520500D02*
X195500D01*
X187500Y528500*
X195500*
X187500Y520500*
X190500Y523000D02*
X198500D01*
X190500Y531000*
X198500*
X190500Y523000*
X183381Y522260D02*
X191381D01*
X183381Y530260*
X191381*
X183381Y522260*
X213000Y512500D02*
X221000D01*
X213000Y520500*
X221000*
X213000Y512500*
X200980Y519020D02*
X208980D01*
X200980Y527020*
X208980*
X200980Y519020*
X223372Y510128D02*
X231372D01*
X223372Y518128*
X231372*
X223372Y510128*
X139000Y532500D02*
X147000D01*
X139000Y540500*
X147000*
X139000Y532500*
X136126Y529500D02*
X144126D01*
X136126Y537500*
X144126*
X136126Y529500*
X145600Y545500D02*
X153600D01*
X145600Y553500*
X153600*
X145600Y545500*
X151000Y544000D02*
X159000D01*
X151000Y552000*
X159000*
X151000Y544000*
X171000Y533000D02*
X179000D01*
X171000Y541000*
X179000*
X171000Y533000*
X179000D02*
X187000D01*
X179000Y541000*
X187000*
X179000Y533000*
X161000D02*
X169000D01*
X161000Y541000*
X169000*
X161000Y533000*
X209800Y538300D02*
X217800D01*
X209800Y546300*
X217800*
X209800Y538300*
X200000Y539000D02*
X208000D01*
X200000Y547000*
X208000*
X200000Y539000*
X244500Y540000D02*
X252500D01*
X244500Y548000*
X252500*
X244500Y540000*
X136156Y552744D02*
X144156D01*
X136156Y560744*
X144156*
X136156Y552744*
X187000Y554000D02*
X195000D01*
X187000Y562000*
X195000*
X187000Y554000*
X205500Y551000D02*
X213500D01*
X205500Y559000*
X213500*
X205500Y551000*
X221000Y546000D02*
X229000D01*
X221000Y554000*
X229000*
X221000Y546000*
X176000Y576000D02*
X184000D01*
X176000Y584000*
X184000*
X176000Y576000*
X232500Y570500D02*
X240500D01*
X232500Y578500*
X240500*
X232500Y570500*
X123500Y595000D02*
X131500D01*
X123500Y603000*
X131500*
X123500Y595000*
X179000Y596000D02*
X187000D01*
X179000Y604000*
X187000*
X179000Y596000*
X206000Y601000D02*
X214000D01*
X206000Y609000*
X214000*
X206000Y601000*
X227500Y591500D02*
X235500D01*
X227500Y599500*
X235500*
X227500Y591500*
X123500Y635000D02*
X131500D01*
X123500Y643000*
X131500*
X123500Y635000*
X173500Y636000D02*
X181500D01*
X173500Y644000*
X181500*
X173500Y636000*
X185563Y643937D02*
X193563D01*
X185563Y651937*
X193563*
X185563Y643937*
X193000Y641000D02*
X201000D01*
X193000Y649000*
X201000*
X193000Y641000*
X182000Y635500D02*
X190000D01*
X182000Y643500*
X190000*
X182000Y635500*
X232500Y629000D02*
X240500D01*
X232500Y637000*
X240500*
X232500Y629000*
X186000Y661000D02*
X194000D01*
X186000Y669000*
X194000*
X186000Y661000*
X204500Y656500D02*
X212500D01*
X204500Y664500*
X212500*
X204500Y656500*
X123500Y675000D02*
X131500D01*
X123500Y683000*
X131500*
X123500Y675000*
X151000Y678500D02*
X159000D01*
X151000Y686500*
X159000*
X151000Y678500*
X176000Y676000D02*
X184000D01*
X176000Y684000*
X184000*
X176000Y676000*
X186000D02*
X194000D01*
X186000Y684000*
X194000*
X186000Y676000*
X200000Y671000D02*
X208000D01*
X200000Y679000*
X208000*
X200000Y671000*
X232500Y669000D02*
X240500D01*
X232500Y677000*
X240500*
X232500Y669000*
X100000Y100000D02*
X260000D01*
Y690000*
X100000*
Y100000*
X260000Y244000D02*
X518000D01*
X260000Y220000D02*
X518000D01*
X260000Y196000D02*
X518000D01*
X260000Y172000D02*
X518000D01*
X260000Y148000D02*
X518000D01*
X260000Y124000D02*
X518000D01*
X260000Y100000D02*
X518000D01*
X260000Y244000D02*
Y100000D01*
X344000Y244000D02*
Y100000D01*
X380000Y244000D02*
Y100000D01*
X416000Y244000D02*
Y100000D01*
X470000Y244000D02*
Y100000D01*
X518000Y244000D02*
Y100000D01*
X295500Y232750D02*
X294955Y233500D01*
X294136Y233875*
X293045*
X292227Y233500*
X291682Y232750*
Y232000*
X291955Y231250*
X292227Y230875*
X292773Y230500*
X294409Y229750*
X294955Y229375*
X295227Y229000*
X295500Y228250*
Y227125*
X294955Y226375*
X294136Y226000*
X293045*
X292227Y226375*
X291682Y227125*
X297955Y233875D02*
Y226000D01*
X304227Y233875D02*
X300409Y226000D01*
Y233875D02*
X304227D01*
X300409Y226000D02*
X304227D01*
X306682Y233875D02*
Y226000D01*
Y233875D02*
X310227D01*
X306682Y230125D02*
X308864D01*
X306682Y226000D02*
X310227D01*
X353864Y233875D02*
X353318Y233500D01*
X352773Y232750*
X352500Y232000*
X352227Y230875*
Y229000*
X352500Y227875*
X352773Y227125*
X353318Y226375*
X353864Y226000*
X354955*
X355500Y226375*
X356045Y227125*
X356318Y227875*
X356591Y229000*
Y230875*
X356318Y232000*
X356045Y232750*
X355500Y233500*
X354955Y233875*
X353864*
X354682Y227500D02*
X356318Y225250D01*
X360955Y233875D02*
Y226000D01*
X359045Y233875D02*
X362864D01*
X365318D02*
X367500Y230125D01*
Y226000*
X369682Y233875D02*
X367500Y230125D01*
X392045Y232750D02*
X391500Y233500D01*
X390682Y233875*
X389591*
X388773Y233500*
X388227Y232750*
Y232000*
X388500Y231250*
X388773Y230875*
X389318Y230500*
X390955Y229750*
X391500Y229375*
X391773Y229000*
X392045Y228250*
Y227125*
X391500Y226375*
X390682Y226000*
X389591*
X388773Y226375*
X388227Y227125*
X394500Y233875D02*
X396682Y230125D01*
Y226000*
X398864Y233875D02*
X396682Y230125D01*
X401318Y233875D02*
Y226000D01*
Y233875D02*
X403500Y226000D01*
X405682Y233875D02*
X403500Y226000D01*
X405682Y233875D02*
Y226000D01*
X427500Y233875D02*
Y226000D01*
Y233875D02*
X429955D01*
X430773Y233500*
X431045Y233125*
X431318Y232375*
Y231250*
X431045Y230500*
X430773Y230125*
X429955Y229750*
X427500*
X433773Y233875D02*
Y226000D01*
X437045*
X441682Y233875D02*
X439500Y226000D01*
X441682Y233875D02*
X443864Y226000D01*
X440318Y228625D02*
X443045D01*
X448227Y233875D02*
Y226000D01*
X446318Y233875D02*
X450136D01*
X452591D02*
Y226000D01*
Y233875D02*
X456136D01*
X452591Y230125D02*
X454773D01*
X452591Y226000D02*
X456136D01*
X458591Y233875D02*
Y226000D01*
Y233875D02*
X460500D01*
X461318Y233500*
X461864Y232750*
X462136Y232000*
X462409Y230875*
Y229000*
X462136Y227875*
X461864Y227125*
X461318Y226375*
X460500Y226000*
X458591*
X486682Y233875D02*
Y226000D01*
X484773Y233875D02*
X488591D01*
X492682D02*
X492136Y233500D01*
X491591Y232750*
X491318Y232000*
X491045Y230875*
Y229000*
X491318Y227875*
X491591Y227125*
X492136Y226375*
X492682Y226000*
X493773*
X494318Y226375*
X494864Y227125*
X495136Y227875*
X495409Y229000*
Y230875*
X495136Y232000*
X494864Y232750*
X494318Y233500*
X493773Y233875*
X492682*
X497864D02*
Y226000D01*
X501136*
X266545Y209875D02*
X269545D01*
X267909Y206875*
X268727*
X269273Y206500*
X269545Y206125*
X269818Y205000*
Y204250*
X269545Y203125*
X269000Y202375*
X268182Y202000*
X267364*
X266545Y202375*
X266273Y202750*
X266000Y203500*
X275818Y209875D02*
X273091D01*
X272818Y206500*
X273091Y206875*
X273909Y207250*
X274727*
X275545Y206875*
X276091Y206125*
X276364Y205000*
X276091Y204250*
X275818Y203125*
X275273Y202375*
X274455Y202000*
X273636*
X272818Y202375*
X272545Y202750*
X272273Y203500*
X354000Y208375D02*
X354545Y208750D01*
X355364Y209875*
Y202000*
X361636Y209875D02*
X358909Y202000D01*
X357818Y209875D02*
X361636D01*
X364636D02*
X367636D01*
X366000Y206875*
X366818*
X367364Y206500*
X367636Y206125*
X367909Y205000*
Y204250*
X367636Y203125*
X367091Y202375*
X366273Y202000*
X365455*
X364636Y202375*
X364364Y202750*
X364091Y203500*
X392000Y208000D02*
X404000D01*
X398000Y202000D02*
Y214000D01*
X424636Y209875D02*
X426818Y206125D01*
Y202000*
X429000Y209875D02*
X426818Y206125D01*
X431455Y209875D02*
Y202000D01*
Y209875D02*
X435000D01*
X431455Y206125D02*
X433636D01*
X431455Y202000D02*
X435000D01*
X441273Y208750D02*
X440727Y209500D01*
X439909Y209875*
X438818*
X438000Y209500*
X437455Y208750*
Y208000*
X437727Y207250*
X438000Y206875*
X438545Y206500*
X440182Y205750*
X440727Y205375*
X441000Y205000*
X441273Y204250*
Y203125*
X440727Y202375*
X439909Y202000*
X438818*
X438000Y202375*
X437455Y203125*
X477818Y208750D02*
Y202000D01*
X475364Y205375D02*
X480273D01*
X487636Y211375D02*
X482727Y199375D01*
X490091Y205375D02*
X495000D01*
X499091Y209875D02*
X498273Y209500D01*
X497727Y208375*
X497455Y206500*
Y205375*
X497727Y203500*
X498273Y202375*
X499091Y202000*
X499636*
X500455Y202375*
X501000Y203500*
X501273Y205375*
Y206500*
X501000Y208375*
X500455Y209500*
X499636Y209875*
X499091*
X504000Y202750D02*
X503727Y202375D01*
X504000Y202000*
X504273Y202375*
X504000Y202750*
X508364Y209875D02*
X507545Y209500D01*
X507000Y208375*
X506727Y206500*
Y205375*
X507000Y203500*
X507545Y202375*
X508364Y202000*
X508909*
X509727Y202375*
X510273Y203500*
X510545Y205375*
Y206500*
X510273Y208375*
X509727Y209500*
X508909Y209875*
X508364*
X269545Y185875D02*
X266818D01*
X266545Y182500*
X266818Y182875*
X267636Y183250*
X268455*
X269273Y182875*
X269818Y182125*
X270091Y181000*
X269818Y180250*
X269545Y179125*
X269000Y178375*
X268182Y178000*
X267364*
X266545Y178375*
X266273Y178750*
X266000Y179500*
X272545Y184375D02*
X273091Y184750D01*
X273909Y185875*
Y178000*
X276636Y178750D02*
X276364Y178375D01*
X276636Y178000*
X276909Y178375*
X276636Y178750*
X279364Y184375D02*
X279909Y184750D01*
X280727Y185875*
Y178000*
X284545Y185875D02*
X283727Y185500D01*
X283455Y184750*
Y184000*
X283727Y183250*
X284273Y182875*
X285364Y182500*
X286182Y182125*
X286727Y181375*
X287000Y180625*
Y179500*
X286727Y178750*
X286455Y178375*
X285636Y178000*
X284545*
X283727Y178375*
X283455Y178750*
X283182Y179500*
Y180625*
X283455Y181375*
X284000Y182125*
X284818Y182500*
X285909Y182875*
X286455Y183250*
X286727Y184000*
Y184750*
X286455Y185500*
X285636Y185875*
X284545*
X357136Y184375D02*
X357682Y184750D01*
X358500Y185875*
Y178000*
X362591Y185875D02*
X361773Y185500D01*
X361227Y184375*
X360955Y182500*
Y181375*
X361227Y179500*
X361773Y178375*
X362591Y178000*
X363136*
X363955Y178375*
X364500Y179500*
X364773Y181375*
Y182500*
X364500Y184375*
X363955Y185500*
X363136Y185875*
X362591*
X392000Y178000D02*
X404000Y190000D01*
X392000D02*
X404000Y178000D01*
X424636Y185875D02*
X426818Y182125D01*
Y178000*
X429000Y185875D02*
X426818Y182125D01*
X431455Y185875D02*
Y178000D01*
Y185875D02*
X435000D01*
X431455Y182125D02*
X433636D01*
X431455Y178000D02*
X435000D01*
X441273Y184750D02*
X440727Y185500D01*
X439909Y185875*
X438818*
X438000Y185500*
X437455Y184750*
Y184000*
X437727Y183250*
X438000Y182875*
X438545Y182500*
X440182Y181750*
X440727Y181375*
X441000Y181000*
X441273Y180250*
Y179125*
X440727Y178375*
X439909Y178000*
X438818*
X438000Y178375*
X437455Y179125*
X477818Y184750D02*
Y178000D01*
X475364Y181375D02*
X480273D01*
X487636Y187375D02*
X482727Y175375D01*
X490091Y181375D02*
X495000D01*
X499091Y185875D02*
X498273Y185500D01*
X497727Y184375*
X497455Y182500*
Y181375*
X497727Y179500*
X498273Y178375*
X499091Y178000*
X499636*
X500455Y178375*
X501000Y179500*
X501273Y181375*
Y182500*
X501000Y184375*
X500455Y185500*
X499636Y185875*
X499091*
X504000Y178750D02*
X503727Y178375D01*
X504000Y178000*
X504273Y178375*
X504000Y178750*
X508364Y185875D02*
X507545Y185500D01*
X507000Y184375*
X506727Y182500*
Y181375*
X507000Y179500*
X507545Y178375*
X508364Y178000*
X508909*
X509727Y178375*
X510273Y179500*
X510545Y181375*
Y182500*
X510273Y184375*
X509727Y185500*
X508909Y185875*
X508364*
X266545Y161875D02*
X269545D01*
X267909Y158875*
X268727*
X269273Y158500*
X269545Y158125*
X269818Y157000*
Y156250*
X269545Y155125*
X269000Y154375*
X268182Y154000*
X267364*
X266545Y154375*
X266273Y154750*
X266000Y155500*
X276091Y161875D02*
X273364Y154000D01*
X272273Y161875D02*
X276091D01*
X357136Y160375D02*
X357682Y160750D01*
X358500Y161875*
Y154000*
X362591Y161875D02*
X361773Y161500D01*
X361227Y160375*
X360955Y158500*
Y157375*
X361227Y155500*
X361773Y154375*
X362591Y154000*
X363136*
X363955Y154375*
X364500Y155500*
X364773Y157375*
Y158500*
X364500Y160375*
X363955Y161500*
X363136Y161875*
X362591*
X392000Y154000D02*
X404000D01*
Y166000*
X392000*
Y154000*
X398000Y160000D02*
Y166000D01*
X424636Y161875D02*
X426818Y158125D01*
Y154000*
X429000Y161875D02*
X426818Y158125D01*
X431455Y161875D02*
Y154000D01*
Y161875D02*
X435000D01*
X431455Y158125D02*
X433636D01*
X431455Y154000D02*
X435000D01*
X441273Y160750D02*
X440727Y161500D01*
X439909Y161875*
X438818*
X438000Y161500*
X437455Y160750*
Y160000*
X437727Y159250*
X438000Y158875*
X438545Y158500*
X440182Y157750*
X440727Y157375*
X441000Y157000*
X441273Y156250*
Y155125*
X440727Y154375*
X439909Y154000*
X438818*
X438000Y154375*
X437455Y155125*
X477818Y160750D02*
Y154000D01*
X475364Y157375D02*
X480273D01*
X487636Y163375D02*
X482727Y151375D01*
X490091Y157375D02*
X495000D01*
X499091Y161875D02*
X498273Y161500D01*
X497727Y160375*
X497455Y158500*
Y157375*
X497727Y155500*
X498273Y154375*
X499091Y154000*
X499636*
X500455Y154375*
X501000Y155500*
X501273Y157375*
Y158500*
X501000Y160375*
X500455Y161500*
X499636Y161875*
X499091*
X504000Y154750D02*
X503727Y154375D01*
X504000Y154000*
X504273Y154375*
X504000Y154750*
X508364Y161875D02*
X507545Y161500D01*
X507000Y160375*
X506727Y158500*
Y157375*
X507000Y155500*
X507545Y154375*
X508364Y154000*
X508909*
X509727Y154375*
X510273Y155500*
X510545Y157375*
Y158500*
X510273Y160375*
X509727Y161500*
X508909Y161875*
X508364*
X266000Y136375D02*
X266545Y136750D01*
X267364Y137875*
Y130000*
X271182Y137875D02*
X270364Y137500D01*
X270091Y136750*
Y136000*
X270364Y135250*
X270909Y134875*
X272000Y134500*
X272818Y134125*
X273364Y133375*
X273636Y132625*
Y131500*
X273364Y130750*
X273091Y130375*
X272273Y130000*
X271182*
X270364Y130375*
X270091Y130750*
X269818Y131500*
Y132625*
X270091Y133375*
X270636Y134125*
X271455Y134500*
X272545Y134875*
X273091Y135250*
X273364Y136000*
Y136750*
X273091Y137500*
X272273Y137875*
X271182*
X279909D02*
X277182Y130000D01*
X276091Y137875D02*
X279909D01*
X282636Y130750D02*
X282364Y130375D01*
X282636Y130000*
X282909Y130375*
X282636Y130750*
X288909Y137875D02*
X286182D01*
X285909Y134500*
X286182Y134875*
X287000Y135250*
X287818*
X288636Y134875*
X289182Y134125*
X289455Y133000*
X289182Y132250*
X288909Y131125*
X288364Y130375*
X287545Y130000*
X286727*
X285909Y130375*
X285636Y130750*
X285364Y131500*
X360273Y136375D02*
X360818Y136750D01*
X361636Y137875*
Y130000*
X398000D02*
X404000Y136000D01*
X398000Y142000*
X392000Y136000*
X398000Y130000*
Y136000D02*
Y142000D01*
X424636Y137875D02*
X426818Y134125D01*
Y130000*
X429000Y137875D02*
X426818Y134125D01*
X431455Y137875D02*
Y130000D01*
Y137875D02*
X435000D01*
X431455Y134125D02*
X433636D01*
X431455Y130000D02*
X435000D01*
X441273Y136750D02*
X440727Y137500D01*
X439909Y137875*
X438818*
X438000Y137500*
X437455Y136750*
Y136000*
X437727Y135250*
X438000Y134875*
X438545Y134500*
X440182Y133750*
X440727Y133375*
X441000Y133000*
X441273Y132250*
Y131125*
X440727Y130375*
X439909Y130000*
X438818*
X438000Y130375*
X437455Y131125*
X477818Y136750D02*
Y130000D01*
X475364Y133375D02*
X480273D01*
X487636Y139375D02*
X482727Y127375D01*
X490091Y133375D02*
X495000D01*
X499091Y137875D02*
X498273Y137500D01*
X497727Y136375*
X497455Y134500*
Y133375*
X497727Y131500*
X498273Y130375*
X499091Y130000*
X499636*
X500455Y130375*
X501000Y131500*
X501273Y133375*
Y134500*
X501000Y136375*
X500455Y137500*
X499636Y137875*
X499091*
X504000Y130750D02*
X503727Y130375D01*
X504000Y130000*
X504273Y130375*
X504000Y130750*
X508364Y137875D02*
X507545Y137500D01*
X507000Y136375*
X506727Y134500*
Y133375*
X507000Y131500*
X507545Y130375*
X508364Y130000*
X508909*
X509727Y130375*
X510273Y131500*
X510545Y133375*
Y134500*
X510273Y136375*
X509727Y137500*
X508909Y137875*
X508364*
X266000Y112375D02*
X266545Y112750D01*
X267364Y113875*
Y106000*
X273364Y113875D02*
X270636D01*
X270364Y110500*
X270636Y110875*
X271455Y111250*
X272273*
X273091Y110875*
X273636Y110125*
X273909Y109000*
X273636Y108250*
X273364Y107125*
X272818Y106375*
X272000Y106000*
X271182*
X270364Y106375*
X270091Y106750*
X269818Y107500*
X353864Y112375D02*
X354409Y112750D01*
X355227Y113875*
Y106000*
X361227Y113875D02*
X358500D01*
X358227Y110500*
X358500Y110875*
X359318Y111250*
X360136*
X360955Y110875*
X361500Y110125*
X361773Y109000*
X361500Y108250*
X361227Y107125*
X360682Y106375*
X359864Y106000*
X359045*
X358227Y106375*
X357955Y106750*
X357682Y107500*
X368045Y113875D02*
X365318Y106000D01*
X364227Y113875D02*
X368045D01*
X392000Y106000D02*
X404000D01*
X392000Y118000*
X404000*
X392000Y106000*
X424636Y113875D02*
X426818Y110125D01*
Y106000*
X429000Y113875D02*
X426818Y110125D01*
X431455Y113875D02*
Y106000D01*
Y113875D02*
X435000D01*
X431455Y110125D02*
X433636D01*
X431455Y106000D02*
X435000D01*
X441273Y112750D02*
X440727Y113500D01*
X439909Y113875*
X438818*
X438000Y113500*
X437455Y112750*
Y112000*
X437727Y111250*
X438000Y110875*
X438545Y110500*
X440182Y109750*
X440727Y109375*
X441000Y109000*
X441273Y108250*
Y107125*
X440727Y106375*
X439909Y106000*
X438818*
X438000Y106375*
X437455Y107125*
X477818Y112750D02*
Y106000D01*
X475364Y109375D02*
X480273D01*
X487636Y115375D02*
X482727Y103375D01*
X490091Y109375D02*
X495000D01*
X499091Y113875D02*
X498273Y113500D01*
X497727Y112375*
X497455Y110500*
Y109375*
X497727Y107500*
X498273Y106375*
X499091Y106000*
X499636*
X500455Y106375*
X501000Y107500*
X501273Y109375*
Y110500*
X501000Y112375*
X500455Y113500*
X499636Y113875*
X499091*
X504000Y106750D02*
X503727Y106375D01*
X504000Y106000*
X504273Y106375*
X504000Y106750*
X508364Y113875D02*
X507545Y113500D01*
X507000Y112375*
X506727Y110500*
Y109375*
X507000Y107500*
X507545Y106375*
X508364Y106000*
X508909*
X509727Y106375*
X510273Y107500*
X510545Y109375*
Y110500*
X510273Y112375*
X509727Y113500*
X508909Y113875*
X508364*
X0Y0D02*
M02*
