%
T1C.015F095S3
X0144Y01655
X0153Y01685
X0154Y0179
X0158Y01525
X01675Y0129
X02085Y0202
X01938Y0204
X01915Y0199
X019Y0204
X01515Y01935
X01515Y01985
X014831Y019131
X01435Y02055
X0108Y02245
X01095Y02145
X0115Y0213
X0138Y022
X0155Y021
X0183Y02155
X0185Y0207
X020536Y021902
X0224Y0299
X022043Y028993
X01755Y02995
X016253Y030385
X01275Y03455
X0128Y03255
X01374Y034
X01447Y03458
X0179Y0307
X0171Y0399
X01581Y0394
X01495Y03855
X01423Y0375
X01415Y0365
X01385Y03755
X0135Y039
X012022Y038128
X012159Y045
X01371Y044
X0139Y0445
X01425Y04405
X01425Y0448
X014536Y043798
X015135Y045315
X0152Y0442
X01525Y0438
X01577Y04426
X015928Y045316
X01615Y0443
X016326Y045325
X01693Y0453
X01726Y0414
X017532Y04535
X018503Y0443
X0189Y044201
X019138Y045343
X0193Y0437
X0199Y0432
X02002Y04415
X0201Y04275
X0204Y044122
X02087Y04397
X02105Y0434
X02257Y0443
X0245Y0455
X0245Y046
X0245Y048
X02355Y0478
X023019Y046869
X0228Y04655
X0227Y04715
X021719Y04678
X0217Y04738
X0217Y0478
X021687Y0464
X0215Y0458
X02112Y04585
X018031Y045851
X0176Y046037
X0173Y0458
X01505Y04615
X014477Y0469
X014455Y04649
X0144Y04575
X01328Y04675
X013172Y047615
X01288Y046593
X012813Y04726
X012646Y047854
X01255Y0468
X012Y0474
X01214Y04811
X0133Y048537
X0133Y0503
X0143Y0487
X0143Y0505
X01435Y0481
X0215Y04915
X02161Y048703
X021612Y048319
X0217Y0499
X0227Y0481
X0227Y0497
X0237Y0493
X024Y0488
X0245Y0485
X022737Y051413
X0217Y05165
X020498Y052302
X019723Y051127
X01945Y0527
X01915Y05245
X018738Y052626
X018097Y052676
X01775Y05241
X01635Y0527
X015998Y05225
X015458Y052206
X015244Y052531
X0146Y0513
X014278Y051828
X0133Y05165
X014013Y05335
X0143Y05365
X01496Y05495
X0155Y0548
X0165Y0537
X0175Y0537
X0183Y0537
X0204Y0543
X02095Y0555
X02138Y05423
X0225Y055
X02485Y0544
X02365Y05745
X02315Y05955
X021Y0605
X0191Y0558
X0183Y06
X018Y058
X014016Y055674
X01275Y0599
X01275Y0639
X01775Y064
X0186Y06395
X018956Y064794
X0197Y0645
X02365Y0633
X02365Y0673
X02085Y06605
X0204Y0675
X019Y068
X019Y0665
X018Y068
X01275Y0679
X0155Y06825
T2C.035F197S55
X0105Y013
X0105Y012
X0105Y011
X01375Y0116
X01475Y0116
X01575Y0116
X01675Y0116
X0196Y0126
X0196Y0116
X0196Y0106
X0206Y0106
X0206Y0116
X0206Y0126
X0206Y0136
X0206Y0146
X0196Y0146
X0196Y0136
X01675Y0146
X01575Y0146
X01475Y0146
X01375Y0146
X0105Y015
X0105Y014
X0105Y018
X0105Y017
X0105Y016
X0132Y0159
X0142Y0159
X0152Y0159
X0162Y0159
X0172Y0159
X0196Y0176
X0196Y0166
X0196Y0156
X0206Y0156
X0206Y0166
X0206Y0176
X0248Y0225
X0218Y0225
X0206Y0186
X02Y0225
X0196Y0186
X017Y0225
X0105Y021
X0105Y022
X0105Y023
X0105Y019
X0105Y02
X0105Y024
X0105Y025
X017Y0235
X017Y0255
X017Y0245
X02Y0245
X02Y0255
X02Y0235
X0218Y0245
X0218Y0235
X0218Y0255
X0248Y0235
X0248Y0245
X0248Y0255
X0248Y0265
X0248Y0275
X0218Y0275
X0218Y0265
X02Y0275
X02Y0265
X017Y0275
X017Y0265
X0105Y026
X0105Y027
X0105Y028
X0105Y03
X0105Y029
X017Y0295
X017Y0285
X02Y0295
X02Y0285
X0218Y0295
X0218Y0285
X0248Y0285
X0248Y0295
X025Y0332
X025Y0342
X025Y0352
X022Y0352
X022Y0342
X022Y0332
X0203Y0352
X0203Y0342
X0203Y0332
X019Y0352
X019Y0342
X019Y0332
X0105Y035
X0105Y034
X0105Y031
X0105Y033
X0105Y032
X0105Y038
X0105Y037
X0105Y036
X019Y0362
X019Y0372
X0203Y0372
X0203Y0362
X022Y0372
X022Y0362
X025Y0362
X025Y0372
X025Y0382
X025Y0392
X025Y0402
X022Y0402
X022Y0392
X022Y0382
X0203Y0402
X0203Y0392
X0203Y0382
X019Y0402
X019Y0392
X019Y0382
X016Y04
X013Y04
X0105Y04
X0105Y039
X0105Y042
X0105Y043
X0105Y041
X013Y043
X013Y042
X013Y041
X016Y043
X016Y041
X016Y042
X019Y0422
X019Y0412
X0203Y0412
X0203Y0422
X022Y0422
X022Y0412
X025Y0412
X025Y0422
X0105Y044
X0105Y045
X0105Y047
X0105Y046
X0105Y048
X0105Y05
X0105Y049
X0105Y052
X0105Y053
X0105Y051
X021272Y0565
X0195Y0565
X0105Y056
X0105Y055
X0105Y058
X0105Y057
X0105Y054
X0105Y06
X0105Y059
X0105Y062
X0105Y061
X0105Y063
X0195Y059059
X021272Y059059
X0105Y065
X0105Y064
X0105Y068
X0105Y067
X0105Y066
T3C.037F197S55
X02335Y06285
X02435Y06285
X02435Y06385
X02435Y06485
X02435Y06585
X02435Y06685
X02335Y06385
X02335Y06585
X02335Y06485
X02335Y06685
T4C.05118F107S55
X024Y01099
X024Y01199
X024Y01299
X024Y01399
X024Y01499
X024Y01599
X024Y01699
X024Y01799
X024Y01899
X024Y01999
T5C.1875F035S1033
X018Y049
M30
