*
*
G04 PADS 9.5 Build Number: 522968 generated Gerber (RS-274-X) file*
G04 PC Version=2.1*
*
%IN "E155BoardLayout2.pcb"*%
*
%MOIN*%
*
%FSLAX35Y35*%
*
*
*
*
G04 PC Standard Apertures*
*
*
G04 Thermal Relief Aperture macro.*
%AMTER*
1,1,$1,0,0*
1,0,$1-$2,0,0*
21,0,$3,$4,0,0,45*
21,0,$3,$4,0,0,135*
%
*
*
G04 Annular Aperture macro.*
%AMANN*
1,1,$1,0,0*
1,0,$2,0,0*
%
*
*
G04 Odd Aperture macro.*
%AMODD*
1,1,$1,0,0*
1,0,$1-0.005,0,0*
%
*
*
G04 PC Custom Aperture Macros*
*
*
*
*
*
*
G04 PC Aperture Table*
*
%ADD010C,0.001*%
%ADD011C,0.005*%
%ADD012C,0.01*%
%ADD028C,0.00787*%
%ADD030C,0.012*%
%ADD031C,0.00787*%
*
*
*
*
G04 PC Circuitry*
G04 Layer Name E155BoardLayout2.pcb - circuitry*
%LPD*%
*
G54D10*
G01X214400Y519952D02*
X214001Y521547D01*
X213201Y523148*
X212410Y523939*
X210823Y524336*
X209235Y523939*
X208444Y523148*
X207644Y521547*
X207245Y519952*
X208044Y516757*
X209230Y515966*
X210821Y515568*
X212010Y515965*
X213203Y516760*
X214001Y518356*
X214400Y519952*
X207300Y519732D02*
Y520171D01*
X207400Y519332D02*
Y520571D01*
X207500Y518932D02*
Y520971D01*
X207600Y518532D02*
Y521371D01*
X207700Y518132D02*
Y521659D01*
X207800Y517732D02*
Y521859D01*
X207900Y517332D02*
Y522059D01*
X208000Y516932D02*
Y522259D01*
X208100Y516719D02*
Y522459D01*
X208200Y516653D02*
Y522659D01*
X208300Y516586D02*
Y522859D01*
X208400Y516519D02*
Y523059D01*
X208500Y516453D02*
Y523203D01*
X208600Y516386D02*
Y523303D01*
X208700Y516319D02*
Y523403D01*
X208800Y516253D02*
Y523503D01*
X208900Y516186D02*
Y523603D01*
X209000Y516119D02*
Y523703D01*
X209100Y516053D02*
Y523803D01*
X209200Y515986D02*
Y523903D01*
X209300Y515948D02*
Y523955D01*
X209400Y515923D02*
Y523980D01*
X209500Y515898D02*
Y524005D01*
X209600Y515873D02*
Y524030D01*
X209700Y515848D02*
Y524055D01*
X209800Y515823D02*
Y524080D01*
X209900Y515798D02*
Y524105D01*
X210000Y515773D02*
Y524130D01*
X210100Y515748D02*
Y524155D01*
X210200Y515723D02*
Y524180D01*
X210300Y515698D02*
Y524205D01*
X210400Y515673D02*
Y524230D01*
X210500Y515648D02*
Y524255D01*
X210600Y515623D02*
Y524280D01*
X210700Y515598D02*
Y524305D01*
X210800Y515573D02*
Y524330D01*
X210900Y515595D02*
Y524316D01*
X211000Y515628D02*
Y524291D01*
X211100Y515661D02*
Y524266D01*
X211200Y515695D02*
Y524241D01*
X211300Y515728D02*
Y524216D01*
X211400Y515761D02*
Y524191D01*
X211500Y515795D02*
Y524166D01*
X211600Y515828D02*
Y524141D01*
X211700Y515861D02*
Y524116D01*
X211800Y515895D02*
Y524091D01*
X211900Y515928D02*
Y524066D01*
X212000Y515961D02*
Y524041D01*
X212100Y516025D02*
Y524016D01*
X212200Y516091D02*
Y523991D01*
X212300Y516158D02*
Y523966D01*
X212400Y516225D02*
Y523941D01*
X212500Y516291D02*
Y523849D01*
X212600Y516358D02*
Y523749D01*
X212700Y516425D02*
Y523649D01*
X212800Y516491D02*
Y523549D01*
X212900Y516558D02*
Y523449D01*
X213000Y516625D02*
Y523349D01*
X213100Y516691D02*
Y523249D01*
X213200Y516758D02*
Y523149D01*
X213300Y516954D02*
Y522949D01*
X213400Y517154D02*
Y522749D01*
X213500Y517354D02*
Y522549D01*
X213600Y517554D02*
Y522349D01*
X213700Y517754D02*
Y522149D01*
X213800Y517954D02*
Y521949D01*
X213900Y518154D02*
Y521749D01*
X214000Y518354D02*
Y521549D01*
X214100Y518751D02*
Y521152D01*
X214200Y519151D02*
Y520752D01*
X214300Y519551D02*
Y520352D01*
X214400Y519951D02*
Y519952D01*
*
G04 PC Custom Flashes*
G04 Layer Name E155BoardLayout2.pcb - flashes*
%LPD*%
*
*
G04 PC Circuitry*
G04 Layer Name E155BoardLayout2.pcb - circuitry*
%LPD*%
*
G54D10*
G54D11*
X103000Y688281D02*
Y685000D01*
X104591Y688281D02*
Y685000D01*
X103000Y686719D02*
X104591D01*
X105614Y687656D02*
X105841Y687813D01*
X105841D02*
X106182Y688281D01*
Y685000*
X152000Y167281D02*
Y164000D01*
Y167281D02*
X153023D01*
X153364Y167125*
X153477Y166969*
X153591Y166656*
Y166344*
X153477Y166031*
X153364Y165875*
X153023Y165719*
X152000*
X152795D02*
X153591Y164000D01*
X156091Y166187D02*
X155977Y165719D01*
X155750Y165406*
X155409Y165250*
X155295*
X154955Y165406*
X154727Y165719*
X154614Y166187*
X154614D02*
Y166344D01*
X154727Y166812*
X154727D02*
X154955Y167125D01*
X155295Y167281*
X155409*
X155750Y167125*
X155977Y166812*
X155977D02*
X156091Y166187D01*
X156091D02*
Y165406D01*
X155977Y164625*
X155750Y164156*
X155409Y164000*
X155182*
X154841Y164156*
X154727Y164469*
X173705Y200500D02*
X173591Y200813D01*
X173591D02*
X173364Y201125D01*
X173136Y201281*
X172682*
X172455Y201125*
X172227Y200813*
X172227D02*
X172114Y200500D01*
X172000Y200031*
Y199250*
X172114Y198781*
X172227Y198469*
X172455Y198156*
X172682Y198000*
X173136*
X173364Y198156*
X173591Y198469*
X173705Y198781*
X174727Y200656D02*
X174955Y200813D01*
X174955D02*
X175295Y201281D01*
Y198000*
X176545Y201281D02*
X177795D01*
X177114Y200031*
X177455*
X177682Y199875*
X177795Y199719*
X177909Y199250*
Y198938*
X177909D02*
X177795Y198469D01*
X177568Y198156*
X177227Y198000*
X176886*
X176545Y198156*
X176432Y198313*
X176432D02*
X176318Y198625D01*
X179500Y422705D02*
X179187Y422591D01*
X179187D02*
X178875Y422364D01*
X178719Y422136*
Y421682*
X178875Y421455*
X179187Y421227*
X179187D02*
X179500Y421114D01*
X179969Y421000*
X180750*
X181219Y421114*
X181531Y421227*
X181844Y421455*
X182000Y421682*
Y422136*
X181844Y422364*
X181531Y422591*
X181219Y422705*
X179344Y423727D02*
X179187Y423955D01*
X179187D02*
X178719Y424295D01*
X182000*
X179344Y425318D02*
X179187Y425545D01*
X179187D02*
X178719Y425886D01*
X182000*
X186500Y589705D02*
X186187Y589591D01*
X186187D02*
X185875Y589364D01*
X185719Y589136*
Y588682*
X185875Y588455*
X186187Y588227*
X186187D02*
X186500Y588114D01*
X186969Y588000*
X187750*
X188219Y588114*
X188531Y588227*
X188844Y588455*
X189000Y588682*
Y589136*
X188844Y589364*
X188531Y589591*
X188219Y589705*
X186812Y592205D02*
X187281Y592091D01*
X187594Y591864*
X187750Y591523*
Y591409*
X187594Y591068*
X187281Y590841*
X186812Y590727*
X186812D02*
X186656D01*
X186187Y590841*
X186187D02*
X185875Y591068D01*
X185719Y591409*
Y591523*
X185875Y591864*
X186187Y592091*
X186187D02*
X186812Y592205D01*
X186812D02*
X187594D01*
X188375Y592091*
X188844Y591864*
X189000Y591523*
Y591295*
X188844Y590955*
X188531Y590841*
X186500Y629705D02*
X186187Y629591D01*
X186187D02*
X185875Y629364D01*
X185719Y629136*
Y628682*
X185875Y628455*
X186187Y628227*
X186187D02*
X186500Y628114D01*
X186969Y628000*
X187750*
X188219Y628114*
X188531Y628227*
X188844Y628455*
X189000Y628682*
Y629136*
X188844Y629364*
X188531Y629591*
X188219Y629705*
X186187Y632091D02*
X185875Y631977D01*
X185719Y631636*
Y631409*
X185875Y631068*
X186344Y630841*
X187125Y630727*
X187906*
X188531Y630841*
X188844Y631068*
X189000Y631409*
Y631523*
X188844Y631864*
X188531Y632091*
X188062Y632205*
X188062D02*
X187906D01*
X187437Y632091*
X187437D02*
X187125Y631864D01*
X186969Y631523*
Y631409*
X187125Y631068*
X187437Y630841*
X187437D02*
X187906Y630727D01*
X186500Y669705D02*
X186187Y669591D01*
X186187D02*
X185875Y669364D01*
X185719Y669136*
Y668682*
X185875Y668455*
X186187Y668227*
X186187D02*
X186500Y668114D01*
X186969Y668000*
X187750*
X188219Y668114*
X188531Y668227*
X188844Y668455*
X189000Y668682*
Y669136*
X188844Y669364*
X188531Y669591*
X188219Y669705*
X185719Y670955D02*
Y672205D01*
X186969Y671523*
Y671864*
X187125Y672091*
X187281Y672205*
X187750Y672318*
X188062*
X188062D02*
X188531Y672205D01*
X188844Y671977*
X189000Y671636*
Y671295*
X188844Y670955*
X188687Y670841*
X188687D02*
X188375Y670727D01*
X188000Y325281D02*
Y322000D01*
Y325281D02*
X189023D01*
X189364Y325125*
X189477Y324969*
X189591Y324656*
Y324344*
X189477Y324031*
X189364Y323875*
X189023Y323719*
X188000*
X188795D02*
X189591Y322000D01*
X192205Y325281D02*
X191068Y322000D01*
X190614Y325281D02*
X192205D01*
X198000Y599281D02*
Y596000D01*
Y599281D02*
X199023D01*
X199364Y599125*
X199477Y598969*
X199591Y598656*
Y598344*
X199477Y598031*
X199364Y597875*
X199023Y597719*
X198000*
X198795D02*
X199591Y596000D01*
X201977Y598813D02*
X201864Y599125D01*
X201523Y599281*
X201295*
X200955Y599125*
X200727Y598656*
X200614Y597875*
Y597094*
X200727Y596469*
X200955Y596156*
X201295Y596000*
X201409*
X201750Y596156*
X201977Y596469*
X202091Y596938*
X202091D02*
Y597094D01*
X201977Y597563*
X201977D02*
X201750Y597875D01*
X201409Y598031*
X201295*
X200955Y597875*
X200727Y597563*
X200727D02*
X200614Y597094D01*
X198000Y614281D02*
Y611000D01*
Y614281D02*
X199023D01*
X199364Y614125*
X199477Y613969*
X199591Y613656*
Y613344*
X199477Y613031*
X199364Y612875*
X199023Y612719*
X198000*
X198795D02*
X199591Y611000D01*
X202091Y614281D02*
X200955D01*
X200841Y612875*
X200955Y613031*
X201295Y613188*
X201295D02*
X201636D01*
X201636D02*
X201977Y613031D01*
X202205Y612719*
X202318Y612250*
X202205Y611938*
X202205D02*
X202091Y611469D01*
X201864Y611156*
X201523Y611000*
X201182*
X200841Y611156*
X200727Y611313*
X200727D02*
X200614Y611625D01*
X198000Y629281D02*
Y626000D01*
Y629281D02*
X199023D01*
X199364Y629125*
X199477Y628969*
X199591Y628656*
Y628344*
X199477Y628031*
X199364Y627875*
X199023Y627719*
X198000*
X198795D02*
X199591Y626000D01*
X201750Y629281D02*
X200614Y627094D01*
X202318*
X201750Y629281D02*
Y626000D01*
X198000Y644281D02*
Y641000D01*
Y644281D02*
X199023D01*
X199364Y644125*
X199477Y643969*
X199591Y643656*
Y643344*
X199477Y643031*
X199364Y642875*
X199023Y642719*
X198000*
X198795D02*
X199591Y641000D01*
X200841Y644281D02*
X202091D01*
X201409Y643031*
X201750*
X201977Y642875*
X202091Y642719*
X202205Y642250*
Y641938*
X202205D02*
X202091Y641469D01*
X201864Y641156*
X201523Y641000*
X201182*
X200841Y641156*
X200727Y641313*
X200727D02*
X200614Y641625D01*
X198000Y659281D02*
Y656000D01*
Y659281D02*
X199023D01*
X199364Y659125*
X199477Y658969*
X199591Y658656*
Y658344*
X199477Y658031*
X199364Y657875*
X199023Y657719*
X198000*
X198795D02*
X199591Y656000D01*
X200727Y658500D02*
Y658656D01*
X200841Y658969*
X200955Y659125*
X201182Y659281*
X201636*
X201864Y659125*
X201977Y658969*
X202091Y658656*
Y658344*
X201977Y658031*
X201750Y657563*
X201750D02*
X200614Y656000D01*
X202205*
X198000Y674281D02*
Y671000D01*
Y674281D02*
X199023D01*
X199364Y674125*
X199477Y673969*
X199591Y673656*
Y673344*
X199477Y673031*
X199364Y672875*
X199023Y672719*
X198000*
X198795D02*
X199591Y671000D01*
X200614Y673656D02*
X200841Y673813D01*
X200841D02*
X201182Y674281D01*
Y671000*
X199000Y104281D02*
Y101000D01*
X200591Y104281D02*
Y101000D01*
X199000Y102719D02*
X200591D01*
X201841Y104281D02*
X203091D01*
X202409Y103031*
X202750*
X202977Y102875*
X203091Y102719*
X203205Y102250*
Y101938*
X203205D02*
X203091Y101469D01*
X202864Y101156*
X202523Y101000*
X202182*
X201841Y101156*
X201727Y101313*
X201727D02*
X201614Y101625D01*
X201000Y325281D02*
Y322000D01*
Y325281D02*
X202023D01*
X202364Y325125*
X202477Y324969*
X202591Y324656*
Y324344*
X202477Y324031*
X202364Y323875*
X202023Y323719*
X201000*
X201795D02*
X202591Y322000D01*
X204182Y325281D02*
X203841Y325125D01*
X203727Y324813*
X203727D02*
Y324500D01*
X203841Y324188*
X203841D02*
X204068Y324031D01*
X204523Y323875*
X204864Y323719*
X205091Y323406*
X205205Y323094*
Y322625*
X205091Y322313*
X205091D02*
X204977Y322156D01*
X204636Y322000*
X204182*
X203841Y322156*
X203727Y322313*
X203727D02*
X203614Y322625D01*
Y323094*
X203727Y323406*
X203955Y323719*
X204295Y323875*
X204750Y324031*
X204977Y324188*
X204977D02*
X205091Y324500D01*
Y324813*
X205091D02*
X204977Y325125D01*
X204636Y325281*
X204182*
X207705Y200500D02*
X207591Y200813D01*
X207591D02*
X207364Y201125D01*
X207136Y201281*
X206682*
X206455Y201125*
X206227Y200813*
X206227D02*
X206114Y200500D01*
X206000Y200031*
Y199250*
X206114Y198781*
X206227Y198469*
X206455Y198156*
X206682Y198000*
X207136*
X207364Y198156*
X207591Y198469*
X207705Y198781*
X208727Y200656D02*
X208955Y200813D01*
X208955D02*
X209295Y201281D01*
Y198000*
X210432Y200500D02*
Y200656D01*
X210545Y200969*
X210659Y201125*
X210886Y201281*
X211341*
X211568Y201125*
X211682Y200969*
X211795Y200656*
Y200344*
X211682Y200031*
X211455Y199563*
X211455D02*
X210318Y198000D01*
X211909*
X229000Y109281D02*
Y106000D01*
X230591Y109281D02*
Y106000D01*
X229000Y107719D02*
X230591D01*
X232750Y109281D02*
X231614Y107094D01*
X233318*
X232750Y109281D02*
Y106000D01*
X179000Y503281D02*
Y500938D01*
X179000D02*
X179114Y500469D01*
X179341Y500156*
X179682Y500000*
X179909*
X180250Y500156*
X180477Y500469*
X180591Y500938*
X180591D02*
Y503281D01*
X183205D02*
X182068Y500000D01*
X181614Y503281D02*
X183205D01*
X255344Y128000D02*
X255187Y128227D01*
X255187D02*
X254719Y128568D01*
X258000*
X254719Y129591D02*
X256281Y130500D01*
X258000*
X254719Y131409D02*
X256281Y130500D01*
X255500Y138114D02*
X255344D01*
X255031Y138227*
X254875Y138341*
X254719Y138568*
Y139023*
X254875Y139250*
X255031Y139364*
X255344Y139477*
X255656*
X255969Y139364*
X256437Y139136*
X256437D02*
X258000Y138000D01*
Y139591*
X254719Y140614D02*
X256281Y141523D01*
X258000*
X254719Y142432D02*
X256281Y141523D01*
X254719Y116000D02*
X258000Y116909D01*
X254719Y117818D02*
X258000Y116909D01*
X254719Y118841D02*
X258000D01*
X254719D02*
X258000Y119750D01*
X254719Y120659D02*
X258000Y119750D01*
X254719Y120659D02*
X258000D01*
X255812Y122250D02*
X255969Y122023D01*
X256281Y121795*
X256750Y121682*
X257062*
X257062D02*
X257531Y121795D01*
X257844Y122023*
X258000Y122250*
Y122591*
X257844Y122818*
X257531Y123045*
X257062Y123159*
X257062D02*
X256750D01*
X256281Y123045*
X255969Y122818*
X255812Y122591*
X255812D02*
Y122250D01*
X254719Y124523D02*
X257375D01*
X257844Y124636*
X258000Y124864*
Y125091*
X255812Y124182D02*
Y124977D01*
X255500Y107705D02*
X255187Y107591D01*
X255187D02*
X254875Y107364D01*
X254719Y107136*
Y106682*
X254875Y106455*
X255187Y106227*
X255187D02*
X255500Y106114D01*
X255969Y106000*
X256750*
X257219Y106114*
X257531Y106227*
X257844Y106455*
X258000Y106682*
Y107136*
X257844Y107364*
X257531Y107591*
X257219Y107705*
X256750*
Y107136D02*
Y107705D01*
X254719Y108727D02*
X258000D01*
X254719D02*
X258000Y110318D01*
X254719D02*
X258000D01*
X254719Y111341D02*
X258000D01*
X254719D02*
Y112136D01*
X254875Y112477*
X255187Y112705*
X255187D02*
X255500Y112818D01*
X255969Y112932*
X256750*
X257219Y112818*
X257531Y112705*
X257844Y112477*
X258000Y112136*
Y111341*
X254719Y148227D02*
Y149477D01*
X255969Y148795*
Y149136*
X256125Y149364*
X256281Y149477*
X256750Y149591*
X257062*
X257062D02*
X257531Y149477D01*
X257844Y149250*
X258000Y148909*
Y148568*
X257844Y148227*
X257687Y148114*
X257687D02*
X257375Y148000D01*
X254719Y150614D02*
X256281Y151523D01*
X258000*
X254719Y152432D02*
X256281Y151523D01*
X254719Y159136D02*
X256906Y158000D01*
Y159705*
X254719Y159136D02*
X258000D01*
X254719Y160727D02*
X256281Y161636D01*
X258000*
X254719Y162545D02*
X256281Y161636D01*
X254719Y169477D02*
Y168341D01*
X256125Y168227*
X255969Y168341*
X255812Y168682*
X255812D02*
Y169023D01*
X255812D02*
X255969Y169364D01*
X256281Y169591*
X256750Y169705*
X257062Y169591*
X257062D02*
X257531Y169477D01*
X257844Y169250*
X258000Y168909*
Y168568*
X257844Y168227*
X257687Y168114*
X257687D02*
X257375Y168000D01*
X254719Y170727D02*
X256281Y171636D01*
X258000*
X254719Y172545D02*
X256281Y171636D01*
X255187Y179364D02*
X254875Y179250D01*
X254719Y178909*
Y178682*
X254875Y178341*
X255344Y178114*
X256125Y178000*
X256906*
X257531Y178114*
X257844Y178341*
X258000Y178682*
Y178795*
X257844Y179136*
X257531Y179364*
X257062Y179477*
X257062D02*
X256906D01*
X256437Y179364*
X256437D02*
X256125Y179136D01*
X255969Y178795*
Y178682*
X256125Y178341*
X256437Y178114*
X256437D02*
X256906Y178000D01*
X254719Y180500D02*
X256281Y181409D01*
X258000*
X254719Y182318D02*
X256281Y181409D01*
X254719Y189591D02*
X258000Y188455D01*
X254719Y188000D02*
Y189591D01*
Y190614D02*
X256281Y191523D01*
X258000*
X254719Y192432D02*
X256281Y191523D01*
X254719Y198568D02*
X254875Y198227D01*
X255187Y198114*
X255187D02*
X255500D01*
X255812Y198227*
X255812D02*
X255969Y198455D01*
X256125Y198909*
X256281Y199250*
X256594Y199477*
X256906Y199591*
X257375*
X257687Y199477*
X257687D02*
X257844Y199364D01*
X258000Y199023*
Y198568*
X257844Y198227*
X257687Y198114*
X257687D02*
X257375Y198000D01*
X256906*
X256594Y198114*
X256281Y198341*
X256125Y198682*
X255969Y199136*
X255812Y199364*
X255812D02*
X255500Y199477D01*
X255187*
X255187D02*
X254875Y199364D01*
X254719Y199023*
Y198568*
Y200614D02*
X256281Y201523D01*
X258000*
X254719Y202432D02*
X256281Y201523D01*
X228000Y325281D02*
Y322000D01*
X229364*
X230386Y325281D02*
Y322000D01*
Y325281D02*
X231864D01*
X230386Y323719D02*
X231295D01*
X230386Y322000D02*
X231864D01*
X232886Y325281D02*
Y322000D01*
Y325281D02*
X233682D01*
X234023Y325125*
X234250Y324813*
X234250D02*
X234364Y324500D01*
X234477Y324031*
Y323250*
X234364Y322781*
X234250Y322469*
X234023Y322156*
X233682Y322000*
X232886*
X235500Y324656D02*
X235727Y324813D01*
X235727D02*
X236068Y325281D01*
Y322000*
X237773Y325281D02*
X237432Y325125D01*
X237205Y324656*
X237091Y323875*
Y323406*
X237205Y322625*
X237432Y322156*
X237773Y322000*
X238000*
X238341Y322156*
X238568Y322625*
X238682Y323406*
Y323875*
X238568Y324656*
X238341Y325125*
X238000Y325281*
X237773*
X148909Y393281D02*
X148000Y390000D01*
X148909Y393281D02*
X149818Y390000D01*
X148341Y391094D02*
X149477D01*
X152886Y393906D02*
X150841Y388906D01*
X153909Y393281D02*
Y390000D01*
Y393281D02*
X154705D01*
X155045Y393125*
X155273Y392813*
X155273D02*
X155386Y392500D01*
X155500Y392031*
Y391250*
X155386Y390781*
X155273Y390469*
X155045Y390156*
X154705Y390000*
X153909*
X195000Y559188D02*
Y557000D01*
Y558250D02*
X195114Y558719D01*
X195341Y559031*
X195568Y559188*
X195568D02*
X195909D01*
X196932Y558250D02*
X198295D01*
Y558563*
X198295D02*
X198182Y558875D01*
X198068Y559031*
X197841Y559188*
X197841D02*
X197500D01*
X197500D02*
X197273Y559031D01*
X197045Y558719*
X196932Y558250*
Y557938*
X196932D02*
X197045Y557469D01*
X197273Y557156*
X197500Y557000*
X197841*
X198068Y557156*
X198295Y557469*
X200568Y558719D02*
X200455Y559031D01*
X200114Y559188*
X200114D02*
X199773D01*
X199773D02*
X199432Y559031D01*
X199318Y558719*
X199432Y558406*
X199659Y558250*
X200227Y558094*
X200455Y557938*
X200455D02*
X200568Y557625D01*
Y557469*
X200455Y557156*
X200114Y557000*
X199773*
X199432Y557156*
X199318Y557469*
X201591Y558250D02*
X202955D01*
Y558563*
X202955D02*
X202841Y558875D01*
X202727Y559031*
X202500Y559188*
X202500D02*
X202159D01*
X202159D02*
X201932Y559031D01*
X201705Y558719*
X201591Y558250*
Y557938*
X201591D02*
X201705Y557469D01*
X201932Y557156*
X202159Y557000*
X202500*
X202727Y557156*
X202955Y557469*
X204318Y560281D02*
Y557625D01*
X204432Y557156*
X204659Y557000*
X204886*
X203977Y559188D02*
X204773D01*
X213719Y642136D02*
X216219D01*
X216687Y642023*
X216687D02*
X216844Y641909D01*
X217000Y641682*
Y641455*
X216844Y641227*
X216687Y641114*
X216687D02*
X216219Y641000D01*
X215906*
X213719Y643955D02*
X217000D01*
X213719Y643159D02*
Y644750D01*
Y646682D02*
X217000Y645773D01*
X213719Y646682D02*
X217000Y647591D01*
X215906Y646114D02*
Y647250D01*
X214500Y650318D02*
X214187Y650205D01*
X214187D02*
X213875Y649977D01*
X213719Y649750*
Y649295*
X213875Y649068*
X214187Y648841*
X214187D02*
X214500Y648727D01*
X214969Y648614*
X215750*
X216219Y648727*
X216531Y648841*
X216844Y649068*
X217000Y649295*
Y649750*
X216844Y649977*
X216531Y650205*
X216219Y650318*
X215750*
Y649750D02*
Y650318D01*
X232281Y529364D02*
X231969Y529136D01*
X231812Y528909*
X231812D02*
Y528568D01*
X231812D02*
X231969Y528341D01*
X232281Y528114*
X232750Y528000*
X233062*
X233062D02*
X233531Y528114D01*
X233844Y528341*
X234000Y528568*
Y528909*
X233844Y529136*
X233531Y529364*
X230719Y530386D02*
X234000D01*
X231812Y531977D02*
X231969Y531750D01*
X232281Y531523*
X232750Y531409*
X233062*
X233062D02*
X233531Y531523D01*
X233844Y531750*
X234000Y531977*
Y532318*
X233844Y532545*
X233531Y532773*
X233062Y532886*
X233062D02*
X232750D01*
X232281Y532773*
X231969Y532545*
X231812Y532318*
X231812D02*
Y531977D01*
X232281Y535273D02*
X231969Y535045D01*
X231812Y534818*
X231812D02*
Y534477D01*
X231812D02*
X231969Y534250D01*
X232281Y534023*
X232750Y533909*
X233062*
X233062D02*
X233531Y534023D01*
X233844Y534250*
X234000Y534477*
Y534818*
X233844Y535045*
X233531Y535273*
X230719Y536295D02*
X234000D01*
X231812Y537432D02*
X233375Y536295D01*
X232750Y536750D02*
X234000Y537545D01*
X233947Y597357D02*
Y594076D01*
Y597357D02*
X234856Y594076D01*
X235765Y597357D02*
X234856Y594076D01*
X235765Y597357D02*
Y594076D01*
X236788Y597357D02*
Y594076D01*
Y597357D02*
X238265D01*
X236788Y595794D02*
X237697D01*
X236788Y594076D02*
X238265D01*
X239288Y597357D02*
Y594076D01*
Y597357D02*
X240197Y594076D01*
X241106Y597357D02*
X240197Y594076D01*
X241106Y597357D02*
Y594076D01*
X174000Y218281D02*
Y215000D01*
X175591Y218281D02*
Y215000D01*
X174000Y216719D02*
X175591D01*
X176614Y216406D02*
X178659D01*
X179682Y218281D02*
Y215000D01*
Y218281D02*
X180705D01*
X181045Y218125*
X181159Y217969*
X181273Y217656*
Y217344*
X181159Y217031*
X181045Y216875*
X180705Y216719*
X179682D02*
X180705D01*
X181045Y216563*
X181045D02*
X181159Y216406D01*
X181273Y216094*
Y215625*
X181159Y215313*
X181159D02*
X181045Y215156D01*
X180705Y215000*
X179682*
X182295Y217188D02*
Y215000D01*
Y216250D02*
X182409Y216719D01*
X182636Y217031*
X182864Y217188*
X182864D02*
X183205D01*
X184227Y218281D02*
X184341Y218125D01*
X184455Y218281*
X184341Y218438*
X184341D02*
X184227Y218281D01*
X184341Y217188D02*
Y215000D01*
X186841Y218281D02*
Y215000D01*
Y216719D02*
X186614Y217031D01*
X186386Y217188*
X186386D02*
X186045D01*
X186045D02*
X185818Y217031D01*
X185591Y216719*
X185477Y216250*
Y215938*
X185477D02*
X185591Y215469D01*
X185818Y215156*
X186045Y215000*
X186386*
X186614Y215156*
X186841Y215469*
X189227Y217188D02*
Y214687D01*
X189227D02*
X189114Y214219D01*
X189000Y214062*
X189000D02*
X188773Y213906D01*
X188432*
X188205Y214062*
X189227Y216719D02*
X189000Y217031D01*
X188773Y217188*
X188773D02*
X188432D01*
X188432D02*
X188205Y217031D01*
X187977Y216719*
X187864Y216250*
Y215938*
X187864D02*
X187977Y215469D01*
X188205Y215156*
X188432Y215000*
X188773*
X189000Y215156*
X189227Y215469*
X190250Y216250D02*
X191614D01*
Y216563*
X191614D02*
X191500Y216875D01*
X191386Y217031*
X191159Y217188*
X191159D02*
X190818D01*
X190818D02*
X190591Y217031D01*
X190364Y216719*
X190250Y216250*
Y215938*
X190250D02*
X190364Y215469D01*
X190591Y215156*
X190818Y215000*
X191159*
X191386Y215156*
X191614Y215469*
X195250Y217656D02*
X195477Y217813D01*
X195477D02*
X195818Y218281D01*
Y215000*
X222000Y218281D02*
Y215000D01*
X223591Y218281D02*
Y215000D01*
X222000Y216719D02*
X223591D01*
X224614Y216406D02*
X226659D01*
X227682Y218281D02*
Y215000D01*
Y218281D02*
X228705D01*
X229045Y218125*
X229159Y217969*
X229273Y217656*
Y217344*
X229159Y217031*
X229045Y216875*
X228705Y216719*
X227682D02*
X228705D01*
X229045Y216563*
X229045D02*
X229159Y216406D01*
X229273Y216094*
Y215625*
X229159Y215313*
X229159D02*
X229045Y215156D01*
X228705Y215000*
X227682*
X230295Y217188D02*
Y215000D01*
Y216250D02*
X230409Y216719D01*
X230636Y217031*
X230864Y217188*
X230864D02*
X231205D01*
X232227Y218281D02*
X232341Y218125D01*
X232455Y218281*
X232341Y218438*
X232341D02*
X232227Y218281D01*
X232341Y217188D02*
Y215000D01*
X234841Y218281D02*
Y215000D01*
Y216719D02*
X234614Y217031D01*
X234386Y217188*
X234386D02*
X234045D01*
X234045D02*
X233818Y217031D01*
X233591Y216719*
X233477Y216250*
Y215938*
X233477D02*
X233591Y215469D01*
X233818Y215156*
X234045Y215000*
X234386*
X234614Y215156*
X234841Y215469*
X237227Y217188D02*
Y214687D01*
X237227D02*
X237114Y214219D01*
X237000Y214062*
X237000D02*
X236773Y213906D01*
X236432*
X236205Y214062*
X237227Y216719D02*
X237000Y217031D01*
X236773Y217188*
X236773D02*
X236432D01*
X236432D02*
X236205Y217031D01*
X235977Y216719*
X235864Y216250*
Y215938*
X235864D02*
X235977Y215469D01*
X236205Y215156*
X236432Y215000*
X236773*
X237000Y215156*
X237227Y215469*
X238250Y216250D02*
X239614D01*
Y216563*
X239614D02*
X239500Y216875D01*
X239386Y217031*
X239159Y217188*
X239159D02*
X238818D01*
X238818D02*
X238591Y217031D01*
X238364Y216719*
X238250Y216250*
Y215938*
X238250D02*
X238364Y215469D01*
X238591Y215156*
X238818Y215000*
X239159*
X239386Y215156*
X239614Y215469*
X243364Y217500D02*
Y217656D01*
X243477Y217969*
X243591Y218125*
X243818Y218281*
X244273*
X244500Y218125*
X244614Y217969*
X244727Y217656*
Y217344*
X244614Y217031*
X244386Y216563*
X244386D02*
X243250Y215000D01*
X244841*
G54D12*
X249500Y471500D02*
Y479500D01*
X240500*
Y471500*
X249500Y468500D02*
Y460500D01*
X240500*
Y468500*
X165000Y656250D02*
Y652500D01*
X140000*
Y656250*
Y683750D02*
Y687500D01*
X165000*
Y683750*
Y616250D02*
Y612500D01*
X140000*
Y616250*
Y643750D02*
Y647500D01*
X165000*
Y643750*
Y576250D02*
Y572500D01*
X140000*
Y576250*
Y603750D02*
Y607500D01*
X165000*
Y603750*
X138500Y554500D02*
X130500D01*
Y545500*
X138500*
X141500Y554500D02*
X149500D01*
Y545500*
X141500*
X126000Y435000D02*
Y395000D01*
X164000*
Y435000*
X150000*
Y431000*
X142000*
Y435000*
X126000*
X128500Y112000D02*
X176500D01*
Y150000*
X128500*
Y136000*
X132500*
Y128000*
X128500*
Y112000*
X163500Y554500D02*
X155500D01*
Y545500*
X163500*
X166500Y554500D02*
X174500D01*
Y545500*
X166500*
X173500Y211500D02*
X165500D01*
Y202500*
X173500*
X176500Y211500D02*
X184500D01*
Y202500*
X176500*
X168500Y422500D02*
Y414500D01*
X177500*
Y422500*
X168500Y425500D02*
Y433500D01*
X177500*
Y425500*
X165000Y220000D02*
Y300000D01*
X182000*
Y295000*
X188000*
Y300000*
X205000*
Y220000*
X165000*
X188500Y554500D02*
X180500D01*
Y545500*
X188500*
X191500Y554500D02*
X199500D01*
Y545500*
X191500*
X175500Y588500D02*
Y580500D01*
X184500*
Y588500*
X175500Y591500D02*
Y599500D01*
X184500*
Y591500*
X175500Y628500D02*
Y620500D01*
X184500*
Y628500*
X175500Y631500D02*
Y639500D01*
X184500*
Y631500*
X175500Y668500D02*
Y660500D01*
X184500*
Y668500*
X175500Y671500D02*
Y679500D01*
X184500*
Y671500*
X195000Y427000D02*
Y327000D01*
X185000*
Y427000*
X195000*
X201500Y600500D02*
X209500D01*
Y609500*
X201500*
X198500Y600500D02*
X190500D01*
Y609500*
X198500*
X201500Y615500D02*
X209500D01*
Y624500*
X201500*
X198500Y615500D02*
X190500D01*
Y624500*
X198500*
X201500Y630500D02*
X209500D01*
Y639500*
X201500*
X198500Y630500D02*
X190500D01*
Y639500*
X198500*
X201500Y645500D02*
X209500D01*
Y654500*
X201500*
X198500Y645500D02*
X190500D01*
Y654500*
X198500*
X201500Y660500D02*
X209500D01*
Y669500*
X201500*
X198500Y660500D02*
X190500D01*
Y669500*
X198500*
X201500Y675500D02*
X209500D01*
Y684500*
X201500*
X198500Y675500D02*
X190500D01*
Y684500*
X198500*
X191000Y100000D02*
X211000D01*
Y192000*
X191000*
Y100000*
X191063Y594528D02*
X216654D01*
Y561063*
X191063*
Y594528*
X208000Y427000D02*
Y327000D01*
X198000*
Y427000*
X208000*
X207500Y211500D02*
X199500D01*
Y202500*
X207500*
X210500Y211500D02*
X218500D01*
Y202500*
X210500*
X213500Y554500D02*
X205500D01*
Y545500*
X213500*
X216500Y554500D02*
X224500D01*
Y545500*
X216500*
X224354Y573701D02*
Y579213D01*
X225560*
Y580787*
X224354*
Y586299*
X243646*
Y573701*
X224354*
X213000Y220000D02*
Y300000D01*
X230000*
Y295000*
X236000*
Y300000*
X253000*
Y220000*
X213000*
X255000Y427000D02*
X218000D01*
X215000Y424000*
Y327000*
X255000*
Y427000*
X227000Y104000D02*
X253000D01*
Y205575*
X227000*
Y104000*
X236000Y553000D02*
X244661D01*
Y551031*
X247024*
Y553000*
X255685*
Y511661*
X236000*
Y553000*
X249500Y446500D02*
Y454500D01*
X240500*
Y446500*
X249500Y443500D02*
Y435500D01*
X240500*
Y443500*
X249500Y496500D02*
Y504500D01*
X240500*
Y496500*
X249500Y493500D02*
Y485500D01*
X240500*
Y493500*
X253000Y468409D02*
X252375Y468182D01*
X251750Y467727*
X251437Y467273*
X251437D02*
Y466364D01*
X251437D02*
X251750Y465909D01*
X252375Y465455*
X253000Y465227*
X253937Y465000*
X253937D02*
X255500D01*
X256437Y465227*
X256437D02*
X257062Y465455D01*
X257062D02*
X257687Y465909D01*
X257687D02*
X258000Y466364D01*
Y467273*
X257687Y467727*
X257687D02*
X257062Y468182D01*
X257062D02*
X256437Y468409D01*
X251437Y471591D02*
X251750Y470909D01*
X252375Y470682*
X253000*
X253625Y470909*
X253937Y471364*
X253937D02*
X254250Y472273D01*
X254562Y472955*
X254562D02*
X255187Y473409D01*
X255187D02*
X255812Y473636D01*
X255812D02*
X256750D01*
X257375Y473409*
X257687Y473182*
X257687D02*
X258000Y472500D01*
Y471591*
X257687Y470909*
X257687D02*
X257375Y470682D01*
X256750Y470455*
X255812*
X255812D02*
X255187Y470682D01*
X255187D02*
X254562Y471136D01*
X254562D02*
X254250Y471818D01*
X253937Y472727*
X253937D02*
X253625Y473182D01*
X253000Y473409*
X252375*
X251750Y473182*
X251437Y472500*
X251437D02*
Y471591D01*
X139409Y542000D02*
X139182Y542625D01*
X138727Y543250*
X138273Y543563*
X138273D02*
X137364D01*
X137364D02*
X136909Y543250D01*
X136455Y542625*
X136227Y542000*
X136000Y541063*
X136000D02*
Y539500D01*
X136227Y538563*
X136227D02*
X136455Y537938D01*
X136455D02*
X136909Y537313D01*
X136909D02*
X137364Y537000D01*
X138273*
X138727Y537313*
X138727D02*
X139182Y537938D01*
X139182D02*
X139409Y538563D01*
X141455Y542313D02*
X141909Y542625D01*
X142591Y543563*
X142591D02*
Y537000D01*
X142000Y429563D02*
Y424875D01*
X142227Y423938*
X142682Y423313*
X143364Y423000*
X143818*
X144500Y423313*
X144955Y423938*
X145182Y424875*
Y429563*
X148364D02*
X147682Y429250D01*
X147455Y428625*
Y428000*
X147682Y427375*
X148136Y427063*
X149045Y426750*
X149727Y426438*
X150182Y425813*
X150409Y425188*
Y424250*
X150182Y423625*
X149955Y423313*
X149273Y423000*
X148364*
X147682Y423313*
X147455Y423625*
X147227Y424250*
Y425188*
X147455Y425813*
X147909Y426438*
X148591Y426750*
X149500Y427063*
X149955Y427375*
X150182Y428000*
Y428625*
X149955Y429250*
X149273Y429563*
X148364*
X148500Y133563D02*
Y128875D01*
X148727Y127938*
X148727D02*
X149182Y127313D01*
X149182D02*
X149864Y127000D01*
X150318*
X151000Y127313*
X151000D02*
X151455Y127938D01*
X151455D02*
X151682Y128875D01*
Y133563*
X153727Y132313D02*
X154182Y132625D01*
X154864Y133563*
X154864D02*
Y127000D01*
X157136Y132000D02*
Y132313D01*
X157136D02*
X157364Y132938D01*
X157364D02*
X157591Y133250D01*
X158045Y133563*
X158045D02*
X158955D01*
X158955D02*
X159409Y133250D01*
X159636Y132938*
X159636D02*
X159864Y132313D01*
X159864D02*
Y131688D01*
X159864D02*
X159636Y131063D01*
X159636D02*
X159182Y130125D01*
X156909Y127000*
X160091*
X163409Y543000D02*
X163182Y543625D01*
X162727Y544250*
X162273Y544563*
X162273D02*
X161364D01*
X161364D02*
X160909Y544250D01*
X160455Y543625*
X160227Y543000*
X160000Y542063*
X160000D02*
Y540500D01*
X160227Y539563*
X160227D02*
X160455Y538938D01*
X160455D02*
X160909Y538313D01*
X160909D02*
X161364Y538000D01*
X162273*
X162727Y538313*
X162727D02*
X163182Y538938D01*
X163182D02*
X163409Y539563D01*
X165682Y543000D02*
Y543313D01*
X165682D02*
X165909Y543938D01*
X165909D02*
X166136Y544250D01*
X166591Y544563*
X166591D02*
X167500D01*
X167500D02*
X167955Y544250D01*
X168182Y543938*
X168182D02*
X168409Y543313D01*
X168409D02*
Y542688D01*
X168409D02*
X168182Y542063D01*
X168182D02*
X167727Y541125D01*
X165455Y538000*
X168636*
X179000Y308563D02*
Y303875D01*
X179227Y302938*
X179227D02*
X179682Y302313D01*
X179682D02*
X180364Y302000D01*
X180818*
X181500Y302313*
X181500D02*
X181955Y302938D01*
X181955D02*
X182182Y303875D01*
Y308563*
X184227Y307313D02*
X184682Y307625D01*
X185364Y308563*
X185364D02*
Y302000D01*
X188773Y308563D02*
X188091Y308250D01*
X187636Y307313*
X187636D02*
X187409Y305750D01*
Y304813*
X187409D02*
X187636Y303250D01*
X188091Y302313*
X188091D02*
X188773Y302000D01*
X189227*
X189909Y302313*
X189909D02*
X190364Y303250D01*
X190591Y304813*
X190591D02*
Y305750D01*
X190364Y307313*
X190364D02*
X189909Y308250D01*
X189227Y308563*
X189227D02*
X188773D01*
X188409Y543000D02*
X188182Y543625D01*
X187727Y544250*
X187273Y544563*
X187273D02*
X186364D01*
X186364D02*
X185909Y544250D01*
X185455Y543625*
X185227Y543000*
X185000Y542063*
X185000D02*
Y540500D01*
X185227Y539563*
X185227D02*
X185455Y538938D01*
X185455D02*
X185909Y538313D01*
X185909D02*
X186364Y538000D01*
X187273*
X187727Y538313*
X187727D02*
X188182Y538938D01*
X188182D02*
X188409Y539563D01*
X192727Y544563D02*
X190455Y540188D01*
X190455D02*
X193864D01*
X192727Y544563D02*
Y538000D01*
X200000Y580563D02*
Y575875D01*
X200227Y574938*
X200227D02*
X200682Y574313D01*
X200682D02*
X201364Y574000D01*
X201818*
X202500Y574313*
X202500D02*
X202955Y574938D01*
X202955D02*
X203182Y575875D01*
Y580563*
X208182D02*
X205909D01*
X205909D02*
X205682Y577750D01*
X205909Y578063*
X205909D02*
X206591Y578375D01*
X207273*
X207955Y578063*
X207955D02*
X208409Y577438D01*
X208409D02*
X208636Y576500D01*
X208409Y575875*
X208182Y574938*
X208182D02*
X207727Y574313D01*
X207727D02*
X207045Y574000D01*
X206364*
X205682Y574313*
X205682D02*
X205455Y574625D01*
X205227Y575250*
X213409Y543000D02*
X213182Y543625D01*
X212727Y544250*
X212273Y544563*
X212273D02*
X211364D01*
X211364D02*
X210909Y544250D01*
X210455Y543625*
X210227Y543000*
X210000Y542063*
X210000D02*
Y540500D01*
X210227Y539563*
X210227D02*
X210455Y538938D01*
X210455D02*
X210909Y538313D01*
X210909D02*
X211364Y538000D01*
X212273*
X212727Y538313*
X212727D02*
X213182Y538938D01*
X213182D02*
X213409Y539563D01*
X218409Y544563D02*
X216136D01*
X216136D02*
X215909Y541750D01*
X216136Y542063*
X216136D02*
X216818Y542375D01*
X217500*
X218182Y542063*
X218182D02*
X218636Y541438D01*
X218636D02*
X218864Y540500D01*
X218636Y539875*
X218409Y538938*
X218409D02*
X217955Y538313D01*
X217955D02*
X217273Y538000D01*
X216591*
X215909Y538313*
X215909D02*
X215682Y538625D01*
X215455Y539250*
X227000Y308563D02*
Y303875D01*
X227227Y302938*
X227227D02*
X227682Y302313D01*
X227682D02*
X228364Y302000D01*
X228818*
X229500Y302313*
X229500D02*
X229955Y302938D01*
X229955D02*
X230182Y303875D01*
Y308563*
X232227Y307313D02*
X232682Y307625D01*
X233364Y308563*
X233364D02*
Y302000D01*
X235409Y307313D02*
X235864Y307625D01*
X236545Y308563*
X236545D02*
Y302000D01*
X229000Y424563D02*
Y419875D01*
X229227Y418938*
X229682Y418313*
X230364Y418000*
X230818*
X231500Y418313*
X231955Y418938*
X232182Y419875*
Y424563*
X237182Y422375D02*
X236955Y421438D01*
X236500Y420813*
X235818Y420500*
X235591*
X234909Y420813*
X234455Y421438*
X234227Y422375*
Y422688*
X234455Y423625*
X234909Y424250*
X235591Y424563*
X235818*
X236500Y424250*
X236955Y423625*
X237182Y422375*
Y420813*
X236955Y419250*
X236500Y418313*
X235818Y418000*
X235364*
X234682Y418313*
X234455Y418938*
X234500Y617063D02*
Y610500D01*
X237682Y617063D02*
Y610500D01*
X234500Y613938D02*
X237682D01*
X239955Y615500D02*
Y615813D01*
X239955D02*
X240182Y616438D01*
X240182D02*
X240409Y616750D01*
X240864Y617063*
X240864D02*
X241773D01*
X241773D02*
X242227Y616750D01*
X242455Y616438*
X242455D02*
X242682Y615813D01*
X242682D02*
Y615188D01*
X242682D02*
X242455Y614563D01*
X242455D02*
X242000Y613625D01*
X239727Y610500*
X242909*
X242000Y536563D02*
Y531875D01*
X242227Y530938*
X242227D02*
X242682Y530313D01*
X242682D02*
X243364Y530000D01*
X243818*
X244500Y530313*
X244500D02*
X244955Y530938D01*
X244955D02*
X245182Y531875D01*
Y536563*
X249955Y535625D02*
X249727Y536250D01*
X249045Y536563*
X249045D02*
X248591D01*
X248591D02*
X247909Y536250D01*
X247455Y535313*
X247455D02*
X247227Y533750D01*
Y532188*
X247227D02*
X247455Y530938D01*
X247455D02*
X247909Y530313D01*
X247909D02*
X248591Y530000D01*
X248818*
X249500Y530313*
X249500D02*
X249955Y530938D01*
X249955D02*
X250182Y531875D01*
Y532188*
X250182D02*
X249955Y533125D01*
X249500Y533750*
X248818Y534063*
X248818D02*
X248591D01*
X248591D02*
X247909Y533750D01*
X247455Y533125*
X247227Y532188*
X253000Y444409D02*
X252375Y444182D01*
X251750Y443727*
X251437Y443273*
X251437D02*
Y442364D01*
X251437D02*
X251750Y441909D01*
X252375Y441455*
X253000Y441227*
X253937Y441000*
X253937D02*
X255500D01*
X256437Y441227*
X256437D02*
X257062Y441455D01*
X257062D02*
X257687Y441909D01*
X257687D02*
X258000Y442364D01*
Y443273*
X257687Y443727*
X257687D02*
X257062Y444182D01*
X257062D02*
X256437Y444409D01*
X251437Y449636D02*
X258000Y447364D01*
X251437Y446455D02*
Y449636D01*
X253000Y492409D02*
X252375Y492182D01*
X251750Y491727*
X251437Y491273*
X251437D02*
Y490364D01*
X251437D02*
X251750Y489909D01*
X252375Y489455*
X253000Y489227*
X253937Y489000*
X253937D02*
X255500D01*
X256437Y489227*
X256437D02*
X257062Y489455D01*
X257062D02*
X257687Y489909D01*
X257687D02*
X258000Y490364D01*
Y491273*
X257687Y491727*
X257687D02*
X257062Y492182D01*
X257062D02*
X256437Y492409D01*
X252687Y494455D02*
X252375Y494909D01*
X251437Y495591*
X251437D02*
X258000D01*
X251437Y499000D02*
X251750Y498318D01*
X252687Y497864*
X252687D02*
X254250Y497636D01*
X255187*
X255187D02*
X256750Y497864D01*
X257687Y498318*
X257687D02*
X258000Y499000D01*
Y499455*
X257687Y500136*
X257687D02*
X256750Y500591D01*
X255187Y500818*
X255187D02*
X254250D01*
X252687Y500591*
X252687D02*
X251750Y500136D01*
X251437Y499455*
X251437D02*
Y499000D01*
X110000Y682563D02*
X111818Y676000D01*
X113636Y682563D02*
X111818Y676000D01*
X115682Y682563D02*
X115909Y682250D01*
X116136Y682563*
X116136D02*
X115909Y682875D01*
X115682Y682563*
X115909Y680375D02*
Y676000D01*
X118182Y680375D02*
Y676000D01*
Y679125D02*
X118864Y680063D01*
X118864D02*
X119318Y680375D01*
X120000*
X120455Y680063*
X120455D02*
X120682Y679125D01*
Y676000*
X113409Y671000D02*
X113182Y671625D01*
X112727Y672250*
X112273Y672563*
X112273D02*
X111364D01*
X111364D02*
X110909Y672250D01*
X110455Y671625*
X110227Y671000*
X110000Y670063*
X110000D02*
Y668500D01*
X110227Y667563*
X110227D02*
X110455Y666938D01*
X110455D02*
X110909Y666313D01*
X110909D02*
X111364Y666000D01*
X112273*
X112727Y666313*
X112727D02*
X113182Y666938D01*
X113182D02*
X113409Y667563D01*
X113409D02*
Y668500D01*
X112273D02*
X113409D01*
X115455Y672563D02*
Y666000D01*
Y672563D02*
X118636Y666000D01*
Y672563D02*
Y666000D01*
X120682Y672563D02*
Y666000D01*
Y672563D02*
X122273D01*
X122273D02*
X122955Y672250D01*
X123409Y671625*
X123636Y671000*
X123864Y670063*
X123864D02*
Y668500D01*
X123636Y667563*
X123636D02*
X123409Y666938D01*
X123409D02*
X122955Y666313D01*
X122955D02*
X122273Y666000D01*
X120682*
X110000Y652563D02*
Y646000D01*
Y652563D02*
X112045D01*
X112045D02*
X112727Y652250D01*
X112955Y651938*
X112955D02*
X113182Y651313D01*
X113182D02*
Y650375D01*
X112955Y649750*
X112727Y649438*
X112727D02*
X112045Y649125D01*
X110000*
X115227Y651313D02*
X115682Y651625D01*
X116364Y652563*
X116364D02*
Y646000D01*
X110000Y642563D02*
Y636000D01*
Y642563D02*
X112045D01*
X112045D02*
X112727Y642250D01*
X112955Y641938*
X112955D02*
X113182Y641313D01*
X113182D02*
Y640375D01*
X112955Y639750*
X112727Y639438*
X112727D02*
X112045Y639125D01*
X110000*
X115455Y641000D02*
Y641313D01*
X115455D02*
X115682Y641938D01*
X115682D02*
X115909Y642250D01*
X116364Y642563*
X116364D02*
X117273D01*
X117273D02*
X117727Y642250D01*
X117955Y641938*
X117955D02*
X118182Y641313D01*
X118182D02*
Y640688D01*
X118182D02*
X117955Y640063D01*
X117955D02*
X117500Y639125D01*
X115227Y636000*
X118409*
X110000Y632563D02*
Y626000D01*
Y632563D02*
X112045D01*
X112045D02*
X112727Y632250D01*
X112955Y631938*
X112955D02*
X113182Y631313D01*
X113182D02*
Y630375D01*
X112955Y629750*
X112727Y629438*
X112727D02*
X112045Y629125D01*
X110000*
X115682Y632563D02*
X118182D01*
X118182D02*
X116818Y630063D01*
X116818D02*
X117500D01*
X117500D02*
X117955Y629750D01*
X118182Y629438*
X118182D02*
X118409Y628500D01*
Y627875*
X118182Y626938*
X118182D02*
X117727Y626313D01*
X117727D02*
X117045Y626000D01*
X116364*
X115682Y626313*
X115682D02*
X115455Y626625D01*
X115227Y627250*
X110000Y622563D02*
Y616000D01*
Y622563D02*
X112045D01*
X112045D02*
X112727Y622250D01*
X112955Y621938*
X112955D02*
X113182Y621313D01*
X113182D02*
Y620375D01*
X112955Y619750*
X112727Y619438*
X112727D02*
X112045Y619125D01*
X110000*
X118409Y622563D02*
X116136Y616000D01*
X115227Y622563D02*
X118409D01*
X110000Y612563D02*
Y606000D01*
Y612563D02*
X112045D01*
X112045D02*
X112727Y612250D01*
X112955Y611938*
X112955D02*
X113182Y611313D01*
X113182D02*
Y610375D01*
X112955Y609750*
X112727Y609438*
X112727D02*
X112045Y609125D01*
X110000*
X115227Y611313D02*
X115682Y611625D01*
X116364Y612563*
X116364D02*
Y606000D01*
X119773Y612563D02*
X119091Y612250D01*
X118636Y611313*
X118636D02*
X118409Y609750D01*
Y608813*
X118409D02*
X118636Y607250D01*
X119091Y606313*
X119091D02*
X119773Y606000D01*
X120227*
X120909Y606313*
X120909D02*
X121364Y607250D01*
X121591Y608813*
X121591D02*
Y609750D01*
X121364Y611313*
X121364D02*
X120909Y612250D01*
X120227Y612563*
X120227D02*
X119773D01*
X110000Y602563D02*
Y596000D01*
Y602563D02*
X112045D01*
X112045D02*
X112727Y602250D01*
X112955Y601938*
X112955D02*
X113182Y601313D01*
X113182D02*
Y600375D01*
X112955Y599750*
X112727Y599438*
X112727D02*
X112045Y599125D01*
X110000*
X115227Y601313D02*
X115682Y601625D01*
X116364Y602563*
X116364D02*
Y596000D01*
X118409Y601313D02*
X118864Y601625D01*
X119545Y602563*
X119545D02*
Y596000D01*
X110000Y592563D02*
Y586000D01*
Y592563D02*
X112045D01*
X112045D02*
X112727Y592250D01*
X112955Y591938*
X112955D02*
X113182Y591313D01*
X113182D02*
Y590375D01*
X112955Y589750*
X112727Y589438*
X112727D02*
X112045Y589125D01*
X110000*
X115455Y591000D02*
Y591313D01*
X115455D02*
X115682Y591938D01*
X115682D02*
X115909Y592250D01*
X116364Y592563*
X116364D02*
X117273D01*
X117273D02*
X117727Y592250D01*
X117955Y591938*
X117955D02*
X118182Y591313D01*
X118182D02*
Y590688D01*
X118182D02*
X117955Y590063D01*
X117955D02*
X117500Y589125D01*
X115227Y586000*
X118409*
X121591Y592563D02*
X120909Y592250D01*
X120682Y591625*
Y591000*
X120909Y590375*
X121364Y590063*
X121364D02*
X122273Y589750D01*
X122955Y589438*
X122955D02*
X123409Y588813D01*
X123409D02*
X123636Y588188D01*
X123636D02*
Y587250D01*
X123409Y586625*
X123182Y586313*
X123182D02*
X122500Y586000D01*
X121591*
X120909Y586313*
X120909D02*
X120682Y586625D01*
X120455Y587250*
Y588188*
X120455D02*
X120682Y588813D01*
X120682D02*
X121136Y589438D01*
X121136D02*
X121818Y589750D01*
X122727Y590063*
X122727D02*
X123182Y590375D01*
X123409Y591000*
Y591625*
X123182Y592250*
X122500Y592563*
X122500D02*
X121591D01*
X110000Y582563D02*
Y576000D01*
Y582563D02*
X112045D01*
X112045D02*
X112727Y582250D01*
X112955Y581938*
X112955D02*
X113182Y581313D01*
X113182D02*
Y580375D01*
X112955Y579750*
X112727Y579438*
X112727D02*
X112045Y579125D01*
X110000*
X115682Y582563D02*
X118182D01*
X118182D02*
X116818Y580063D01*
X116818D02*
X117500D01*
X117500D02*
X117955Y579750D01*
X118182Y579438*
X118182D02*
X118409Y578500D01*
Y577875*
X118182Y576938*
X118182D02*
X117727Y576313D01*
X117727D02*
X117045Y576000D01*
X116364*
X115682Y576313*
X115682D02*
X115455Y576625D01*
X115227Y577250*
X121818Y582563D02*
X121136Y582250D01*
X120682Y581313*
X120682D02*
X120455Y579750D01*
Y578813*
X120455D02*
X120682Y577250D01*
X121136Y576313*
X121136D02*
X121818Y576000D01*
X122273*
X122955Y576313*
X122955D02*
X123409Y577250D01*
X123636Y578813*
X123636D02*
Y579750D01*
X123409Y581313*
X123409D02*
X122955Y582250D01*
X122273Y582563*
X122273D02*
X121818D01*
X110000Y572563D02*
Y566000D01*
Y572563D02*
X112045D01*
X112045D02*
X112727Y572250D01*
X112955Y571938*
X112955D02*
X113182Y571313D01*
X113182D02*
Y570375D01*
X112955Y569750*
X112727Y569438*
X112727D02*
X112045Y569125D01*
X110000*
X115682Y572563D02*
X118182D01*
X118182D02*
X116818Y570063D01*
X116818D02*
X117500D01*
X117500D02*
X117955Y569750D01*
X118182Y569438*
X118182D02*
X118409Y568500D01*
Y567875*
X118182Y566938*
X118182D02*
X117727Y566313D01*
X117727D02*
X117045Y566000D01*
X116364*
X115682Y566313*
X115682D02*
X115455Y566625D01*
X115227Y567250*
X120455Y571313D02*
X120909Y571625D01*
X121591Y572563*
X121591D02*
Y566000D01*
X110000Y562563D02*
Y556000D01*
Y562563D02*
X112045D01*
X112045D02*
X112727Y562250D01*
X112955Y561938*
X112955D02*
X113182Y561313D01*
X113182D02*
Y560375D01*
X112955Y559750*
X112727Y559438*
X112727D02*
X112045Y559125D01*
X110000*
X115682Y562563D02*
X118182D01*
X118182D02*
X116818Y560063D01*
X116818D02*
X117500D01*
X117500D02*
X117955Y559750D01*
X118182Y559438*
X118182D02*
X118409Y558500D01*
Y557875*
X118182Y556938*
X118182D02*
X117727Y556313D01*
X117727D02*
X117045Y556000D01*
X116364*
X115682Y556313*
X115682D02*
X115455Y556625D01*
X115227Y557250*
X120682Y561000D02*
Y561313D01*
X120682D02*
X120909Y561938D01*
X120909D02*
X121136Y562250D01*
X121591Y562563*
X121591D02*
X122500D01*
X122500D02*
X122955Y562250D01*
X123182Y561938*
X123182D02*
X123409Y561313D01*
X123409D02*
Y560688D01*
X123409D02*
X123182Y560063D01*
X123182D02*
X122727Y559125D01*
X120455Y556000*
X123636*
X110000Y552563D02*
Y546000D01*
Y552563D02*
X112045D01*
X112045D02*
X112727Y552250D01*
X112955Y551938*
X112955D02*
X113182Y551313D01*
X113182D02*
Y550375D01*
X112955Y549750*
X112727Y549438*
X112727D02*
X112045Y549125D01*
X110000*
X115682Y552563D02*
X118182D01*
X118182D02*
X116818Y550063D01*
X116818D02*
X117500D01*
X117500D02*
X117955Y549750D01*
X118182Y549438*
X118182D02*
X118409Y548500D01*
Y547875*
X118182Y546938*
X118182D02*
X117727Y546313D01*
X117727D02*
X117045Y546000D01*
X116364*
X115682Y546313*
X115682D02*
X115455Y546625D01*
X115227Y547250*
X120909Y552563D02*
X123409D01*
X123409D02*
X122045Y550063D01*
X122045D02*
X122727D01*
X122727D02*
X123182Y549750D01*
X123409Y549438*
X123409D02*
X123636Y548500D01*
Y547875*
X123409Y546938*
X123409D02*
X122955Y546313D01*
X122955D02*
X122273Y546000D01*
X121591*
X120909Y546313*
X120909D02*
X120682Y546625D01*
X120455Y547250*
X110000Y542563D02*
Y536000D01*
Y542563D02*
X112045D01*
X112045D02*
X112727Y542250D01*
X112955Y541938*
X112955D02*
X113182Y541313D01*
X113182D02*
Y540375D01*
X112955Y539750*
X112727Y539438*
X112727D02*
X112045Y539125D01*
X110000*
X115682Y542563D02*
X118182D01*
X118182D02*
X116818Y540063D01*
X116818D02*
X117500D01*
X117500D02*
X117955Y539750D01*
X118182Y539438*
X118182D02*
X118409Y538500D01*
Y537875*
X118182Y536938*
X118182D02*
X117727Y536313D01*
X117727D02*
X117045Y536000D01*
X116364*
X115682Y536313*
X115682D02*
X115455Y536625D01*
X115227Y537250*
X122727Y542563D02*
X120455Y538188D01*
X120455D02*
X123864D01*
X122727Y542563D02*
Y536000D01*
X110000Y532563D02*
Y526000D01*
Y532563D02*
X112045D01*
X112045D02*
X112727Y532250D01*
X112955Y531938*
X112955D02*
X113182Y531313D01*
X113182D02*
Y530375D01*
X112955Y529750*
X112727Y529438*
X112727D02*
X112045Y529125D01*
X110000*
X115682Y532563D02*
X118182D01*
X118182D02*
X116818Y530063D01*
X116818D02*
X117500D01*
X117500D02*
X117955Y529750D01*
X118182Y529438*
X118182D02*
X118409Y528500D01*
Y527875*
X118182Y526938*
X118182D02*
X117727Y526313D01*
X117727D02*
X117045Y526000D01*
X116364*
X115682Y526313*
X115682D02*
X115455Y526625D01*
X115227Y527250*
X121591Y532563D02*
X120909Y532250D01*
X120682Y531625*
Y531000*
X120909Y530375*
X121364Y530063*
X121364D02*
X122273Y529750D01*
X122955Y529438*
X122955D02*
X123409Y528813D01*
X123409D02*
X123636Y528188D01*
X123636D02*
Y527250D01*
X123409Y526625*
X123182Y526313*
X123182D02*
X122500Y526000D01*
X121591*
X120909Y526313*
X120909D02*
X120682Y526625D01*
X120455Y527250*
Y528188*
X120455D02*
X120682Y528813D01*
X120682D02*
X121136Y529438D01*
X121136D02*
X121818Y529750D01*
X122727Y530063*
X122727D02*
X123182Y530375D01*
X123409Y531000*
Y531625*
X123182Y532250*
X122500Y532563*
X122500D02*
X121591D01*
X110000Y522563D02*
Y516000D01*
Y522563D02*
X112045D01*
X112045D02*
X112727Y522250D01*
X112955Y521938*
X112955D02*
X113182Y521313D01*
X113182D02*
Y520375D01*
X112955Y519750*
X112727Y519438*
X112727D02*
X112045Y519125D01*
X110000*
X115682Y522563D02*
X118182D01*
X118182D02*
X116818Y520063D01*
X116818D02*
X117500D01*
X117500D02*
X117955Y519750D01*
X118182Y519438*
X118182D02*
X118409Y518500D01*
Y517875*
X118182Y516938*
X118182D02*
X117727Y516313D01*
X117727D02*
X117045Y516000D01*
X116364*
X115682Y516313*
X115682D02*
X115455Y516625D01*
X115227Y517250*
X123409Y520375D02*
X123182Y519438D01*
X123182D02*
X122727Y518813D01*
X122727D02*
X122045Y518500D01*
X121818*
X121136Y518813*
X121136D02*
X120682Y519438D01*
X120682D02*
X120455Y520375D01*
Y520688*
X120455D02*
X120682Y521625D01*
X121136Y522250*
X121818Y522563*
X121818D02*
X122045D01*
X122045D02*
X122727Y522250D01*
X123182Y521625*
X123409Y520375*
Y518813*
X123409D02*
X123182Y517250D01*
X122727Y516313*
X122727D02*
X122045Y516000D01*
X121591*
X120909Y516313*
X120909D02*
X120682Y516938D01*
X110000Y512563D02*
Y506000D01*
Y512563D02*
X112045D01*
X112045D02*
X112727Y512250D01*
X112955Y511938*
X112955D02*
X113182Y511313D01*
X113182D02*
Y510375D01*
X112955Y509750*
X112727Y509438*
X112727D02*
X112045Y509125D01*
X110000*
X117500Y512563D02*
X115227Y508188D01*
X115227D02*
X118636D01*
X117500Y512563D02*
Y506000D01*
X120909Y511000D02*
Y511313D01*
X120909D02*
X121136Y511938D01*
X121136D02*
X121364Y512250D01*
X121818Y512563*
X121818D02*
X122727D01*
X122727D02*
X123182Y512250D01*
X123409Y511938*
X123409D02*
X123636Y511313D01*
X123636D02*
Y510688D01*
X123636D02*
X123409Y510063D01*
X123409D02*
X122955Y509125D01*
X120682Y506000*
X123864*
X110000Y502563D02*
Y496000D01*
Y502563D02*
X112045D01*
X112045D02*
X112727Y502250D01*
X112955Y501938*
X112955D02*
X113182Y501313D01*
X113182D02*
Y500375D01*
X112955Y499750*
X112727Y499438*
X112727D02*
X112045Y499125D01*
X110000*
X117500Y502563D02*
X115227Y498188D01*
X115227D02*
X118636D01*
X117500Y502563D02*
Y496000D01*
X121136Y502563D02*
X123636D01*
X123636D02*
X122273Y500063D01*
X122273D02*
X122955D01*
X122955D02*
X123409Y499750D01*
X123636Y499438*
X123636D02*
X123864Y498500D01*
Y497875*
X123636Y496938*
X123636D02*
X123182Y496313D01*
X123182D02*
X122500Y496000D01*
X121818*
X121136Y496313*
X121136D02*
X120909Y496625D01*
X120682Y497250*
X110000Y492563D02*
Y486000D01*
Y492563D02*
X112045D01*
X112045D02*
X112727Y492250D01*
X112955Y491938*
X112955D02*
X113182Y491313D01*
X113182D02*
Y490375D01*
X112955Y489750*
X112727Y489438*
X112727D02*
X112045Y489125D01*
X110000*
X117500Y492563D02*
X115227Y488188D01*
X115227D02*
X118636D01*
X117500Y492563D02*
Y486000D01*
X122955Y492563D02*
X120682Y488188D01*
X120682D02*
X124091D01*
X122955Y492563D02*
Y486000D01*
X110000Y482563D02*
Y476000D01*
Y482563D02*
X112045D01*
X112045D02*
X112727Y482250D01*
X112955Y481938*
X112955D02*
X113182Y481313D01*
X113182D02*
Y480375D01*
X112955Y479750*
X112727Y479438*
X112727D02*
X112045Y479125D01*
X110000*
X117500Y482563D02*
X115227Y478188D01*
X115227D02*
X118636D01*
X117500Y482563D02*
Y476000D01*
X123409Y481625D02*
X123182Y482250D01*
X122500Y482563*
X122500D02*
X122045D01*
X122045D02*
X121364Y482250D01*
X120909Y481313*
X120909D02*
X120682Y479750D01*
Y478188*
X120682D02*
X120909Y476938D01*
X120909D02*
X121364Y476313D01*
X121364D02*
X122045Y476000D01*
X122273*
X122955Y476313*
X122955D02*
X123409Y476938D01*
X123409D02*
X123636Y477875D01*
Y478188*
X123636D02*
X123409Y479125D01*
X122955Y479750*
X122273Y480063*
X122273D02*
X122045D01*
X122045D02*
X121364Y479750D01*
X120909Y479125*
X120682Y478188*
X110000Y472563D02*
Y466000D01*
Y472563D02*
X112045D01*
X112045D02*
X112727Y472250D01*
X112955Y471938*
X112955D02*
X113182Y471313D01*
X113182D02*
Y470375D01*
X112955Y469750*
X112727Y469438*
X112727D02*
X112045Y469125D01*
X110000*
X117500Y472563D02*
X115227Y468188D01*
X115227D02*
X118636D01*
X117500Y472563D02*
Y466000D01*
X123636Y470375D02*
X123409Y469438D01*
X123409D02*
X122955Y468813D01*
X122955D02*
X122273Y468500D01*
X122045*
X121364Y468813*
X121364D02*
X120909Y469438D01*
X120909D02*
X120682Y470375D01*
Y470688*
X120682D02*
X120909Y471625D01*
X121364Y472250*
X122045Y472563*
X122045D02*
X122273D01*
X122273D02*
X122955Y472250D01*
X123409Y471625*
X123636Y470375*
Y468813*
X123636D02*
X123409Y467250D01*
X122955Y466313*
X122955D02*
X122273Y466000D01*
X121818*
X121136Y466313*
X121136D02*
X120909Y466938D01*
X110000Y462563D02*
Y456000D01*
Y462563D02*
X112045D01*
X112045D02*
X112727Y462250D01*
X112955Y461938*
X112955D02*
X113182Y461313D01*
X113182D02*
Y460375D01*
X112955Y459750*
X112727Y459438*
X112727D02*
X112045Y459125D01*
X110000*
X118182Y462563D02*
X115909D01*
X115909D02*
X115682Y459750D01*
X115909Y460063*
X115909D02*
X116591Y460375D01*
X117273*
X117955Y460063*
X117955D02*
X118409Y459438D01*
X118409D02*
X118636Y458500D01*
X118409Y457875*
X118182Y456938*
X118182D02*
X117727Y456313D01*
X117727D02*
X117045Y456000D01*
X116364*
X115682Y456313*
X115682D02*
X115455Y456625D01*
X115227Y457250*
X122045Y462563D02*
X121364Y462250D01*
X120909Y461313*
X120909D02*
X120682Y459750D01*
Y458813*
X120682D02*
X120909Y457250D01*
X121364Y456313*
X121364D02*
X122045Y456000D01*
X122500*
X123182Y456313*
X123182D02*
X123636Y457250D01*
X123864Y458813*
X123864D02*
Y459750D01*
X123636Y461313*
X123636D02*
X123182Y462250D01*
X122500Y462563*
X122500D02*
X122045D01*
X113409Y421000D02*
X113182Y421625D01*
X112727Y422250*
X112273Y422563*
X112273D02*
X111364D01*
X111364D02*
X110909Y422250D01*
X110455Y421625*
X110227Y421000*
X110000Y420063*
X110000D02*
Y418500D01*
X110227Y417563*
X110227D02*
X110455Y416938D01*
X110455D02*
X110909Y416313D01*
X110909D02*
X111364Y416000D01*
X112273*
X112727Y416313*
X112727D02*
X113182Y416938D01*
X113182D02*
X113409Y417563D01*
X115455Y422563D02*
Y416000D01*
X118636Y422563D02*
Y416000D01*
X115455Y419438D02*
X118636D01*
X122045Y422563D02*
X121364Y422250D01*
X120909Y421313*
X120909D02*
X120682Y419750D01*
Y418813*
X120682D02*
X120909Y417250D01*
X121364Y416313*
X121364D02*
X122045Y416000D01*
X122500*
X123182Y416313*
X123182D02*
X123636Y417250D01*
X123864Y418813*
X123864D02*
Y419750D01*
X123636Y421313*
X123636D02*
X123182Y422250D01*
X122500Y422563*
X122500D02*
X122045D01*
X113409Y411000D02*
X113182Y411625D01*
X112727Y412250*
X112273Y412563*
X112273D02*
X111364D01*
X111364D02*
X110909Y412250D01*
X110455Y411625*
X110227Y411000*
X110000Y410063*
X110000D02*
Y408500D01*
X110227Y407563*
X110227D02*
X110455Y406938D01*
X110455D02*
X110909Y406313D01*
X110909D02*
X111364Y406000D01*
X112273*
X112727Y406313*
X112727D02*
X113182Y406938D01*
X113182D02*
X113409Y407563D01*
X115455Y412563D02*
Y406000D01*
X118636Y412563D02*
Y406000D01*
X115455Y409438D02*
X118636D01*
X120682Y411313D02*
X121136Y411625D01*
X121818Y412563*
X121818D02*
Y406000D01*
X110000Y452563D02*
Y446000D01*
Y452563D02*
X112045D01*
X112045D02*
X112727Y452250D01*
X112955Y451938*
X112955D02*
X113182Y451313D01*
X113182D02*
Y450375D01*
X112955Y449750*
X112727Y449438*
X112727D02*
X112045Y449125D01*
X110000*
X118182Y452563D02*
X115909D01*
X115909D02*
X115682Y449750D01*
X115909Y450063*
X115909D02*
X116591Y450375D01*
X117273*
X117955Y450063*
X117955D02*
X118409Y449438D01*
X118409D02*
X118636Y448500D01*
X118409Y447875*
X118182Y446938*
X118182D02*
X117727Y446313D01*
X117727D02*
X117045Y446000D01*
X116364*
X115682Y446313*
X115682D02*
X115455Y446625D01*
X115227Y447250*
X120682Y451313D02*
X121136Y451625D01*
X121818Y452563*
X121818D02*
Y446000D01*
X110000Y442563D02*
Y436000D01*
Y442563D02*
X112045D01*
X112045D02*
X112727Y442250D01*
X112955Y441938*
X112955D02*
X113182Y441313D01*
X113182D02*
Y440375D01*
X112955Y439750*
X112727Y439438*
X112727D02*
X112045Y439125D01*
X110000*
X118182Y442563D02*
X115909D01*
X115909D02*
X115682Y439750D01*
X115909Y440063*
X115909D02*
X116591Y440375D01*
X117273*
X117955Y440063*
X117955D02*
X118409Y439438D01*
X118409D02*
X118636Y438500D01*
X118409Y437875*
X118182Y436938*
X118182D02*
X117727Y436313D01*
X117727D02*
X117045Y436000D01*
X116364*
X115682Y436313*
X115682D02*
X115455Y436625D01*
X115227Y437250*
X120909Y441000D02*
Y441313D01*
X120909D02*
X121136Y441938D01*
X121136D02*
X121364Y442250D01*
X121818Y442563*
X121818D02*
X122727D01*
X122727D02*
X123182Y442250D01*
X123409Y441938*
X123409D02*
X123636Y441313D01*
X123636D02*
Y440688D01*
X123636D02*
X123409Y440063D01*
X123409D02*
X122955Y439125D01*
X120682Y436000*
X123864*
X110000Y432563D02*
Y426000D01*
Y432563D02*
X112045D01*
X112045D02*
X112727Y432250D01*
X112955Y431938*
X112955D02*
X113182Y431313D01*
X113182D02*
Y430375D01*
X112955Y429750*
X112727Y429438*
X112727D02*
X112045Y429125D01*
X110000*
X118182Y432563D02*
X115909D01*
X115909D02*
X115682Y429750D01*
X115909Y430063*
X115909D02*
X116591Y430375D01*
X117273*
X117955Y430063*
X117955D02*
X118409Y429438D01*
X118409D02*
X118636Y428500D01*
X118409Y427875*
X118182Y426938*
X118182D02*
X117727Y426313D01*
X117727D02*
X117045Y426000D01*
X116364*
X115682Y426313*
X115682D02*
X115455Y426625D01*
X115227Y427250*
X121136Y432563D02*
X123636D01*
X123636D02*
X122273Y430063D01*
X122273D02*
X122955D01*
X122955D02*
X123409Y429750D01*
X123636Y429438*
X123636D02*
X123864Y428500D01*
Y427875*
X123636Y426938*
X123636D02*
X123182Y426313D01*
X123182D02*
X122500Y426000D01*
X121818*
X121136Y426313*
X121136D02*
X120909Y426625D01*
X120682Y427250*
X110000Y402563D02*
Y396000D01*
Y402563D02*
X112045D01*
X112045D02*
X112727Y402250D01*
X112955Y401938*
X112955D02*
X113182Y401313D01*
X113182D02*
Y400375D01*
X112955Y399750*
X112727Y399438*
X112727D02*
X112045Y399125D01*
X110000*
X118182Y402563D02*
X115909D01*
X115909D02*
X115682Y399750D01*
X115909Y400063*
X115909D02*
X116591Y400375D01*
X117273*
X117955Y400063*
X117955D02*
X118409Y399438D01*
X118409D02*
X118636Y398500D01*
X118409Y397875*
X118182Y396938*
X118182D02*
X117727Y396313D01*
X117727D02*
X117045Y396000D01*
X116364*
X115682Y396313*
X115682D02*
X115455Y396625D01*
X115227Y397250*
X122955Y402563D02*
X120682Y398188D01*
X120682D02*
X124091D01*
X122955Y402563D02*
Y396000D01*
X110000Y392563D02*
Y386000D01*
Y392563D02*
X112045D01*
X112045D02*
X112727Y392250D01*
X112955Y391938*
X112955D02*
X113182Y391313D01*
X113182D02*
Y390375D01*
X112955Y389750*
X112727Y389438*
X112727D02*
X112045Y389125D01*
X110000*
X118182Y392563D02*
X115909D01*
X115909D02*
X115682Y389750D01*
X115909Y390063*
X115909D02*
X116591Y390375D01*
X117273*
X117955Y390063*
X117955D02*
X118409Y389438D01*
X118409D02*
X118636Y388500D01*
X118409Y387875*
X118182Y386938*
X118182D02*
X117727Y386313D01*
X117727D02*
X117045Y386000D01*
X116364*
X115682Y386313*
X115682D02*
X115455Y386625D01*
X115227Y387250*
X123636Y392563D02*
X121364D01*
X121364D02*
X121136Y389750D01*
X121364Y390063*
X121364D02*
X122045Y390375D01*
X122727*
X123409Y390063*
X123409D02*
X123864Y389438D01*
X123864D02*
X124091Y388500D01*
X123864Y387875*
X123636Y386938*
X123636D02*
X123182Y386313D01*
X123182D02*
X122500Y386000D01*
X121818*
X121136Y386313*
X121136D02*
X120909Y386625D01*
X120682Y387250*
X110000Y382563D02*
Y376000D01*
Y382563D02*
X112045D01*
X112045D02*
X112727Y382250D01*
X112955Y381938*
X112955D02*
X113182Y381313D01*
X113182D02*
Y380375D01*
X112955Y379750*
X112727Y379438*
X112727D02*
X112045Y379125D01*
X110000*
X118182Y382563D02*
X115909D01*
X115909D02*
X115682Y379750D01*
X115909Y380063*
X115909D02*
X116591Y380375D01*
X117273*
X117955Y380063*
X117955D02*
X118409Y379438D01*
X118409D02*
X118636Y378500D01*
X118409Y377875*
X118182Y376938*
X118182D02*
X117727Y376313D01*
X117727D02*
X117045Y376000D01*
X116364*
X115682Y376313*
X115682D02*
X115455Y376625D01*
X115227Y377250*
X121818Y382563D02*
X121136Y382250D01*
X120909Y381625*
Y381000*
X121136Y380375*
X121591Y380063*
X121591D02*
X122500Y379750D01*
X123182Y379438*
X123182D02*
X123636Y378813D01*
X123636D02*
X123864Y378188D01*
X123864D02*
Y377250D01*
X123636Y376625*
X123409Y376313*
X123409D02*
X122727Y376000D01*
X121818*
X121136Y376313*
X121136D02*
X120909Y376625D01*
X120682Y377250*
Y378188*
X120682D02*
X120909Y378813D01*
X120909D02*
X121364Y379438D01*
X121364D02*
X122045Y379750D01*
X122955Y380063*
X122955D02*
X123409Y380375D01*
X123636Y381000*
Y381625*
X123409Y382250*
X122727Y382563*
X122727D02*
X121818D01*
X110000Y372563D02*
Y366000D01*
Y372563D02*
X112045D01*
X112045D02*
X112727Y372250D01*
X112955Y371938*
X112955D02*
X113182Y371313D01*
X113182D02*
Y370375D01*
X112955Y369750*
X112727Y369438*
X112727D02*
X112045Y369125D01*
X110000*
X118182Y372563D02*
X115909D01*
X115909D02*
X115682Y369750D01*
X115909Y370063*
X115909D02*
X116591Y370375D01*
X117273*
X117955Y370063*
X117955D02*
X118409Y369438D01*
X118409D02*
X118636Y368500D01*
X118409Y367875*
X118182Y366938*
X118182D02*
X117727Y366313D01*
X117727D02*
X117045Y366000D01*
X116364*
X115682Y366313*
X115682D02*
X115455Y366625D01*
X115227Y367250*
X123636Y370375D02*
X123409Y369438D01*
X123409D02*
X122955Y368813D01*
X122955D02*
X122273Y368500D01*
X122045*
X121364Y368813*
X121364D02*
X120909Y369438D01*
X120909D02*
X120682Y370375D01*
Y370688*
X120682D02*
X120909Y371625D01*
X121364Y372250*
X122045Y372563*
X122045D02*
X122273D01*
X122273D02*
X122955Y372250D01*
X123409Y371625*
X123636Y370375*
Y368813*
X123636D02*
X123409Y367250D01*
X122955Y366313*
X122955D02*
X122273Y366000D01*
X121818*
X121136Y366313*
X121136D02*
X120909Y366938D01*
X110000Y362563D02*
Y356000D01*
Y362563D02*
X112045D01*
X112045D02*
X112727Y362250D01*
X112955Y361938*
X112955D02*
X113182Y361313D01*
X113182D02*
Y360375D01*
X112955Y359750*
X112727Y359438*
X112727D02*
X112045Y359125D01*
X110000*
X117955Y361625D02*
X117727Y362250D01*
X117045Y362563*
X117045D02*
X116591D01*
X116591D02*
X115909Y362250D01*
X115455Y361313*
X115455D02*
X115227Y359750D01*
Y358188*
X115227D02*
X115455Y356938D01*
X115455D02*
X115909Y356313D01*
X115909D02*
X116591Y356000D01*
X116818*
X117500Y356313*
X117500D02*
X117955Y356938D01*
X117955D02*
X118182Y357875D01*
Y358188*
X118182D02*
X117955Y359125D01*
X117500Y359750*
X116818Y360063*
X116818D02*
X116591D01*
X116591D02*
X115909Y359750D01*
X115455Y359125*
X115227Y358188*
X121591Y362563D02*
X120909Y362250D01*
X120455Y361313*
X120455D02*
X120227Y359750D01*
Y358813*
X120227D02*
X120455Y357250D01*
X120909Y356313*
X120909D02*
X121591Y356000D01*
X122045*
X122727Y356313*
X122727D02*
X123182Y357250D01*
X123409Y358813*
X123409D02*
Y359750D01*
X123182Y361313*
X123182D02*
X122727Y362250D01*
X122045Y362563*
X122045D02*
X121591D01*
X110000Y352563D02*
Y346000D01*
Y352563D02*
X112045D01*
X112045D02*
X112727Y352250D01*
X112955Y351938*
X112955D02*
X113182Y351313D01*
X113182D02*
Y350375D01*
X112955Y349750*
X112727Y349438*
X112727D02*
X112045Y349125D01*
X110000*
X117955Y351625D02*
X117727Y352250D01*
X117045Y352563*
X117045D02*
X116591D01*
X116591D02*
X115909Y352250D01*
X115455Y351313*
X115455D02*
X115227Y349750D01*
Y348188*
X115227D02*
X115455Y346938D01*
X115455D02*
X115909Y346313D01*
X115909D02*
X116591Y346000D01*
X116818*
X117500Y346313*
X117500D02*
X117955Y346938D01*
X117955D02*
X118182Y347875D01*
Y348188*
X118182D02*
X117955Y349125D01*
X117500Y349750*
X116818Y350063*
X116818D02*
X116591D01*
X116591D02*
X115909Y349750D01*
X115455Y349125*
X115227Y348188*
X122500Y352563D02*
X120227Y348188D01*
X120227D02*
X123636D01*
X122500Y352563D02*
Y346000D01*
X110000Y342563D02*
Y336000D01*
Y342563D02*
X112045D01*
X112045D02*
X112727Y342250D01*
X112955Y341938*
X112955D02*
X113182Y341313D01*
X113182D02*
Y340375D01*
X112955Y339750*
X112727Y339438*
X112727D02*
X112045Y339125D01*
X110000*
X117955Y341625D02*
X117727Y342250D01*
X117045Y342563*
X117045D02*
X116591D01*
X116591D02*
X115909Y342250D01*
X115455Y341313*
X115455D02*
X115227Y339750D01*
Y338188*
X115227D02*
X115455Y336938D01*
X115455D02*
X115909Y336313D01*
X115909D02*
X116591Y336000D01*
X116818*
X117500Y336313*
X117500D02*
X117955Y336938D01*
X117955D02*
X118182Y337875D01*
Y338188*
X118182D02*
X117955Y339125D01*
X117500Y339750*
X116818Y340063*
X116818D02*
X116591D01*
X116591D02*
X115909Y339750D01*
X115455Y339125*
X115227Y338188*
X123182Y342563D02*
X120909D01*
X120909D02*
X120682Y339750D01*
X120909Y340063*
X120909D02*
X121591Y340375D01*
X122273*
X122955Y340063*
X122955D02*
X123409Y339438D01*
X123409D02*
X123636Y338500D01*
X123409Y337875*
X123182Y336938*
X123182D02*
X122727Y336313D01*
X122727D02*
X122045Y336000D01*
X121364*
X120682Y336313*
X120682D02*
X120455Y336625D01*
X120227Y337250*
X110000Y332563D02*
Y326000D01*
Y332563D02*
X112045D01*
X112045D02*
X112727Y332250D01*
X112955Y331938*
X112955D02*
X113182Y331313D01*
X113182D02*
Y330375D01*
X112955Y329750*
X112727Y329438*
X112727D02*
X112045Y329125D01*
X110000*
X117955Y331625D02*
X117727Y332250D01*
X117045Y332563*
X117045D02*
X116591D01*
X116591D02*
X115909Y332250D01*
X115455Y331313*
X115455D02*
X115227Y329750D01*
Y328188*
X115227D02*
X115455Y326938D01*
X115455D02*
X115909Y326313D01*
X115909D02*
X116591Y326000D01*
X116818*
X117500Y326313*
X117500D02*
X117955Y326938D01*
X117955D02*
X118182Y327875D01*
Y328188*
X118182D02*
X117955Y329125D01*
X117500Y329750*
X116818Y330063*
X116818D02*
X116591D01*
X116591D02*
X115909Y329750D01*
X115455Y329125*
X115227Y328188*
X122955Y331625D02*
X122727Y332250D01*
X122045Y332563*
X122045D02*
X121591D01*
X121591D02*
X120909Y332250D01*
X120455Y331313*
X120455D02*
X120227Y329750D01*
Y328188*
X120227D02*
X120455Y326938D01*
X120455D02*
X120909Y326313D01*
X120909D02*
X121591Y326000D01*
X121818*
X122500Y326313*
X122500D02*
X122955Y326938D01*
X122955D02*
X123182Y327875D01*
Y328188*
X123182D02*
X122955Y329125D01*
X122500Y329750*
X121818Y330063*
X121818D02*
X121591D01*
X121591D02*
X120909Y329750D01*
X120455Y329125*
X120227Y328188*
X110000Y322563D02*
Y316000D01*
Y322563D02*
X112045D01*
X112045D02*
X112727Y322250D01*
X112955Y321938*
X112955D02*
X113182Y321313D01*
X113182D02*
Y320375D01*
X112955Y319750*
X112727Y319438*
X112727D02*
X112045Y319125D01*
X110000*
X117955Y321625D02*
X117727Y322250D01*
X117045Y322563*
X117045D02*
X116591D01*
X116591D02*
X115909Y322250D01*
X115455Y321313*
X115455D02*
X115227Y319750D01*
Y318188*
X115227D02*
X115455Y316938D01*
X115455D02*
X115909Y316313D01*
X115909D02*
X116591Y316000D01*
X116818*
X117500Y316313*
X117500D02*
X117955Y316938D01*
X117955D02*
X118182Y317875D01*
Y318188*
X118182D02*
X117955Y319125D01*
X117500Y319750*
X116818Y320063*
X116818D02*
X116591D01*
X116591D02*
X115909Y319750D01*
X115455Y319125*
X115227Y318188*
X123409Y322563D02*
X121136Y316000D01*
X120227Y322563D02*
X123409D01*
X110000Y312563D02*
Y306000D01*
Y312563D02*
X112045D01*
X112045D02*
X112727Y312250D01*
X112955Y311938*
X112955D02*
X113182Y311313D01*
X113182D02*
Y310375D01*
X112955Y309750*
X112727Y309438*
X112727D02*
X112045Y309125D01*
X110000*
X117955Y311625D02*
X117727Y312250D01*
X117045Y312563*
X117045D02*
X116591D01*
X116591D02*
X115909Y312250D01*
X115455Y311313*
X115455D02*
X115227Y309750D01*
Y308188*
X115227D02*
X115455Y306938D01*
X115455D02*
X115909Y306313D01*
X115909D02*
X116591Y306000D01*
X116818*
X117500Y306313*
X117500D02*
X117955Y306938D01*
X117955D02*
X118182Y307875D01*
Y308188*
X118182D02*
X117955Y309125D01*
X117500Y309750*
X116818Y310063*
X116818D02*
X116591D01*
X116591D02*
X115909Y309750D01*
X115455Y309125*
X115227Y308188*
X121364Y312563D02*
X120682Y312250D01*
X120455Y311625*
Y311000*
X120682Y310375*
X121136Y310063*
X121136D02*
X122045Y309750D01*
X122727Y309438*
X122727D02*
X123182Y308813D01*
X123182D02*
X123409Y308188D01*
X123409D02*
Y307250D01*
X123182Y306625*
X122955Y306313*
X122955D02*
X122273Y306000D01*
X121364*
X120682Y306313*
X120682D02*
X120455Y306625D01*
X120227Y307250*
Y308188*
X120227D02*
X120455Y308813D01*
X120455D02*
X120909Y309438D01*
X120909D02*
X121591Y309750D01*
X122500Y310063*
X122500D02*
X122955Y310375D01*
X123182Y311000*
Y311625*
X122955Y312250*
X122273Y312563*
X122273D02*
X121364D01*
X129545Y313813D02*
X125455Y303812D01*
X131591Y312563D02*
Y306000D01*
X134318*
X136364Y312563D02*
Y306000D01*
Y312563D02*
X139318D01*
X136364Y309438D02*
X138182D01*
X136364Y306000D02*
X139318D01*
X141364Y312563D02*
Y306000D01*
Y312563D02*
X142955D01*
X142955D02*
X143636Y312250D01*
X144091Y311625*
X144318Y311000*
X144545Y310063*
X144545D02*
Y308500D01*
X144318Y307563*
X144318D02*
X144091Y306938D01*
X144091D02*
X143636Y306313D01*
X143636D02*
X142955Y306000D01*
X141364*
X147955Y312563D02*
X147273Y312250D01*
X146818Y311313*
X146818D02*
X146591Y309750D01*
Y308813*
X146591D02*
X146818Y307250D01*
X147273Y306313*
X147273D02*
X147955Y306000D01*
X148409*
X149091Y306313*
X149091D02*
X149545Y307250D01*
X149773Y308813*
X149773D02*
Y309750D01*
X149545Y311313*
X149545D02*
X149091Y312250D01*
X148409Y312563*
X148409D02*
X147955D01*
X110000Y302563D02*
Y296000D01*
Y302563D02*
X112045D01*
X112045D02*
X112727Y302250D01*
X112955Y301938*
X112955D02*
X113182Y301313D01*
X113182D02*
Y300375D01*
X112955Y299750*
X112727Y299438*
X112727D02*
X112045Y299125D01*
X110000*
X117955Y301625D02*
X117727Y302250D01*
X117045Y302563*
X117045D02*
X116591D01*
X116591D02*
X115909Y302250D01*
X115455Y301313*
X115455D02*
X115227Y299750D01*
Y298188*
X115227D02*
X115455Y296938D01*
X115455D02*
X115909Y296313D01*
X115909D02*
X116591Y296000D01*
X116818*
X117500Y296313*
X117500D02*
X117955Y296938D01*
X117955D02*
X118182Y297875D01*
Y298188*
X118182D02*
X117955Y299125D01*
X117500Y299750*
X116818Y300063*
X116818D02*
X116591D01*
X116591D02*
X115909Y299750D01*
X115455Y299125*
X115227Y298188*
X123182Y300375D02*
X122955Y299438D01*
X122955D02*
X122500Y298813D01*
X122500D02*
X121818Y298500D01*
X121591*
X120909Y298813*
X120909D02*
X120455Y299438D01*
X120455D02*
X120227Y300375D01*
Y300688*
X120227D02*
X120455Y301625D01*
X120909Y302250*
X121591Y302563*
X121591D02*
X121818D01*
X121818D02*
X122500Y302250D01*
X122955Y301625*
X123182Y300375*
Y298813*
X123182D02*
X122955Y297250D01*
X122500Y296313*
X122500D02*
X121818Y296000D01*
X121364*
X120682Y296313*
X120682D02*
X120455Y296938D01*
X129318Y303813D02*
X125227Y293812D01*
X131364Y302563D02*
Y296000D01*
X134091*
X136136Y302563D02*
Y296000D01*
Y302563D02*
X139091D01*
X136136Y299438D02*
X137955D01*
X136136Y296000D02*
X139091D01*
X141136Y302563D02*
Y296000D01*
Y302563D02*
X142727D01*
X142727D02*
X143409Y302250D01*
X143864Y301625*
X144091Y301000*
X144318Y300063*
X144318D02*
Y298500D01*
X144091Y297563*
X144091D02*
X143864Y296938D01*
X143864D02*
X143409Y296313D01*
X143409D02*
X142727Y296000D01*
X141136*
X146364Y301313D02*
X146818Y301625D01*
X147500Y302563*
X147500D02*
Y296000D01*
X110000Y292563D02*
Y286000D01*
Y292563D02*
X112045D01*
X112045D02*
X112727Y292250D01*
X112955Y291938*
X112955D02*
X113182Y291313D01*
X113182D02*
Y290375D01*
X112955Y289750*
X112727Y289438*
X112727D02*
X112045Y289125D01*
X110000*
X118409Y292563D02*
X116136Y286000D01*
X115227Y292563D02*
X118409D01*
X121818D02*
X121136Y292250D01*
X120682Y291313*
X120682D02*
X120455Y289750D01*
Y288813*
X120455D02*
X120682Y287250D01*
X121136Y286313*
X121136D02*
X121818Y286000D01*
X122273*
X122955Y286313*
X122955D02*
X123409Y287250D01*
X123636Y288813*
X123636D02*
Y289750D01*
X123409Y291313*
X123409D02*
X122955Y292250D01*
X122273Y292563*
X122273D02*
X121818D01*
X129773Y293813D02*
X125682Y283812D01*
X131818Y292563D02*
Y286000D01*
X134545*
X136591Y292563D02*
Y286000D01*
Y292563D02*
X139545D01*
X136591Y289438D02*
X138409D01*
X136591Y286000D02*
X139545D01*
X141591Y292563D02*
Y286000D01*
Y292563D02*
X143182D01*
X143182D02*
X143864Y292250D01*
X144318Y291625*
X144545Y291000*
X144773Y290063*
X144773D02*
Y288500D01*
X144545Y287563*
X144545D02*
X144318Y286938D01*
X144318D02*
X143864Y286313D01*
X143864D02*
X143182Y286000D01*
X141591*
X147045Y291000D02*
Y291313D01*
X147045D02*
X147273Y291938D01*
X147273D02*
X147500Y292250D01*
X147955Y292563*
X147955D02*
X148864D01*
X148864D02*
X149318Y292250D01*
X149545Y291938*
X149545D02*
X149773Y291313D01*
X149773D02*
Y290688D01*
X149773D02*
X149545Y290063D01*
X149545D02*
X149091Y289125D01*
X146818Y286000*
X150000*
X110000Y282563D02*
Y276000D01*
Y282563D02*
X112045D01*
X112045D02*
X112727Y282250D01*
X112955Y281938*
X112955D02*
X113182Y281313D01*
X113182D02*
Y280375D01*
X112955Y279750*
X112727Y279438*
X112727D02*
X112045Y279125D01*
X110000*
X118409Y282563D02*
X116136Y276000D01*
X115227Y282563D02*
X118409D01*
X120455Y281313D02*
X120909Y281625D01*
X121591Y282563*
X121591D02*
Y276000D01*
X127727Y283813D02*
X123636Y273812D01*
X129773Y282563D02*
Y276000D01*
X132500*
X134545Y282563D02*
Y276000D01*
Y282563D02*
X137500D01*
X134545Y279438D02*
X136364D01*
X134545Y276000D02*
X137500D01*
X139545Y282563D02*
Y276000D01*
Y282563D02*
X141136D01*
X141136D02*
X141818Y282250D01*
X142273Y281625*
X142500Y281000*
X142727Y280063*
X142727D02*
Y278500D01*
X142500Y277563*
X142500D02*
X142273Y276938D01*
X142273D02*
X141818Y276313D01*
X141818D02*
X141136Y276000D01*
X139545*
X145227Y282563D02*
X147727D01*
X147727D02*
X146364Y280063D01*
X146364D02*
X147045D01*
X147045D02*
X147500Y279750D01*
X147727Y279438*
X147727D02*
X147955Y278500D01*
Y277875*
X147727Y276938*
X147727D02*
X147273Y276313D01*
X147273D02*
X146591Y276000D01*
X145909*
X145227Y276313*
X145227D02*
X145000Y276625D01*
X144773Y277250*
X110000Y272563D02*
Y266000D01*
Y272563D02*
X112045D01*
X112045D02*
X112727Y272250D01*
X112955Y271938*
X112955D02*
X113182Y271313D01*
X113182D02*
Y270375D01*
X112955Y269750*
X112727Y269438*
X112727D02*
X112045Y269125D01*
X110000*
X118409Y272563D02*
X116136Y266000D01*
X115227Y272563D02*
X118409D01*
X120682Y271000D02*
Y271313D01*
X120682D02*
X120909Y271938D01*
X120909D02*
X121136Y272250D01*
X121591Y272563*
X121591D02*
X122500D01*
X122500D02*
X122955Y272250D01*
X123182Y271938*
X123182D02*
X123409Y271313D01*
X123409D02*
Y270688D01*
X123409D02*
X123182Y270063D01*
X123182D02*
X122727Y269125D01*
X120455Y266000*
X123636*
X129773Y273813D02*
X125682Y263812D01*
X131818Y272563D02*
Y266000D01*
X134545*
X136591Y272563D02*
Y266000D01*
Y272563D02*
X139545D01*
X136591Y269438D02*
X138409D01*
X136591Y266000D02*
X139545D01*
X141591Y272563D02*
Y266000D01*
Y272563D02*
X143182D01*
X143182D02*
X143864Y272250D01*
X144318Y271625*
X144545Y271000*
X144773Y270063*
X144773D02*
Y268500D01*
X144545Y267563*
X144545D02*
X144318Y266938D01*
X144318D02*
X143864Y266313D01*
X143864D02*
X143182Y266000D01*
X141591*
X149091Y272563D02*
X146818Y268188D01*
X146818D02*
X150227D01*
X149091Y272563D02*
Y266000D01*
X110000Y262563D02*
Y256000D01*
Y262563D02*
X112045D01*
X112045D02*
X112727Y262250D01*
X112955Y261938*
X112955D02*
X113182Y261313D01*
X113182D02*
Y260375D01*
X112955Y259750*
X112727Y259438*
X112727D02*
X112045Y259125D01*
X110000*
X118409Y262563D02*
X116136Y256000D01*
X115227Y262563D02*
X118409D01*
X120909D02*
X123409D01*
X123409D02*
X122045Y260063D01*
X122045D02*
X122727D01*
X122727D02*
X123182Y259750D01*
X123409Y259438*
X123409D02*
X123636Y258500D01*
Y257875*
X123409Y256938*
X123409D02*
X122955Y256313D01*
X122955D02*
X122273Y256000D01*
X121591*
X120909Y256313*
X120909D02*
X120682Y256625D01*
X120455Y257250*
X129773Y263813D02*
X125682Y253812D01*
X131818Y262563D02*
Y256000D01*
X134545*
X136591Y262563D02*
Y256000D01*
Y262563D02*
X139545D01*
X136591Y259438D02*
X138409D01*
X136591Y256000D02*
X139545D01*
X141591Y262563D02*
Y256000D01*
Y262563D02*
X143182D01*
X143182D02*
X143864Y262250D01*
X144318Y261625*
X144545Y261000*
X144773Y260063*
X144773D02*
Y258500D01*
X144545Y257563*
X144545D02*
X144318Y256938D01*
X144318D02*
X143864Y256313D01*
X143864D02*
X143182Y256000D01*
X141591*
X149773Y262563D02*
X147500D01*
X147500D02*
X147273Y259750D01*
X147500Y260063*
X147500D02*
X148182Y260375D01*
X148864*
X149545Y260063*
X149545D02*
X150000Y259438D01*
X150000D02*
X150227Y258500D01*
X150000Y257875*
X149773Y256938*
X149773D02*
X149318Y256313D01*
X149318D02*
X148636Y256000D01*
X147955*
X147273Y256313*
X147273D02*
X147045Y256625D01*
X146818Y257250*
X110000Y252563D02*
Y246000D01*
Y252563D02*
X112045D01*
X112045D02*
X112727Y252250D01*
X112955Y251938*
X112955D02*
X113182Y251313D01*
X113182D02*
Y250375D01*
X112955Y249750*
X112727Y249438*
X112727D02*
X112045Y249125D01*
X110000*
X118409Y252563D02*
X116136Y246000D01*
X115227Y252563D02*
X118409D01*
X122727D02*
X120455Y248188D01*
X120455D02*
X123864D01*
X122727Y252563D02*
Y246000D01*
X130000Y253813D02*
X125909Y243812D01*
X132045Y252563D02*
Y246000D01*
X134773*
X136818Y252563D02*
Y246000D01*
Y252563D02*
X139773D01*
X136818Y249438D02*
X138636D01*
X136818Y246000D02*
X139773D01*
X141818Y252563D02*
Y246000D01*
Y252563D02*
X143409D01*
X143409D02*
X144091Y252250D01*
X144545Y251625*
X144773Y251000*
X145000Y250063*
X145000D02*
Y248500D01*
X144773Y247563*
X144773D02*
X144545Y246938D01*
X144545D02*
X144091Y246313D01*
X144091D02*
X143409Y246000D01*
X141818*
X149773Y251625D02*
X149545Y252250D01*
X148864Y252563*
X148864D02*
X148409D01*
X148409D02*
X147727Y252250D01*
X147273Y251313*
X147273D02*
X147045Y249750D01*
Y248188*
X147045D02*
X147273Y246938D01*
X147273D02*
X147727Y246313D01*
X147727D02*
X148409Y246000D01*
X148636*
X149318Y246313*
X149318D02*
X149773Y246938D01*
X149773D02*
X150000Y247875D01*
Y248188*
X150000D02*
X149773Y249125D01*
X149318Y249750*
X148636Y250063*
X148636D02*
X148409D01*
X148409D02*
X147727Y249750D01*
X147273Y249125*
X147045Y248188*
X110000Y242563D02*
Y236000D01*
Y242563D02*
X112045D01*
X112045D02*
X112727Y242250D01*
X112955Y241938*
X112955D02*
X113182Y241313D01*
X113182D02*
Y240375D01*
X112955Y239750*
X112727Y239438*
X112727D02*
X112045Y239125D01*
X110000*
X118409Y242563D02*
X116136Y236000D01*
X115227Y242563D02*
X118409D01*
X123409D02*
X121136D01*
X121136D02*
X120909Y239750D01*
X121136Y240063*
X121136D02*
X121818Y240375D01*
X122500*
X123182Y240063*
X123182D02*
X123636Y239438D01*
X123636D02*
X123864Y238500D01*
X123636Y237875*
X123409Y236938*
X123409D02*
X122955Y236313D01*
X122955D02*
X122273Y236000D01*
X121591*
X120909Y236313*
X120909D02*
X120682Y236625D01*
X120455Y237250*
X130000Y243813D02*
X125909Y233812D01*
X132045Y242563D02*
Y236000D01*
X134773*
X136818Y242563D02*
Y236000D01*
Y242563D02*
X139773D01*
X136818Y239438D02*
X138636D01*
X136818Y236000D02*
X139773D01*
X141818Y242563D02*
Y236000D01*
Y242563D02*
X143409D01*
X143409D02*
X144091Y242250D01*
X144545Y241625*
X144773Y241000*
X145000Y240063*
X145000D02*
Y238500D01*
X144773Y237563*
X144773D02*
X144545Y236938D01*
X144545D02*
X144091Y236313D01*
X144091D02*
X143409Y236000D01*
X141818*
X150227Y242563D02*
X147955Y236000D01*
X147045Y242563D02*
X150227D01*
X110000Y232563D02*
Y226000D01*
Y232563D02*
X112045D01*
X112045D02*
X112727Y232250D01*
X112955Y231938*
X112955D02*
X113182Y231313D01*
X113182D02*
Y230375D01*
X112955Y229750*
X112727Y229438*
X112727D02*
X112045Y229125D01*
X110000*
X118409Y232563D02*
X116136Y226000D01*
X115227Y232563D02*
X118409D01*
X123182Y231625D02*
X122955Y232250D01*
X122273Y232563*
X122273D02*
X121818D01*
X121818D02*
X121136Y232250D01*
X120682Y231313*
X120682D02*
X120455Y229750D01*
Y228188*
X120455D02*
X120682Y226938D01*
X120682D02*
X121136Y226313D01*
X121136D02*
X121818Y226000D01*
X122045*
X122727Y226313*
X122727D02*
X123182Y226938D01*
X123182D02*
X123409Y227875D01*
Y228188*
X123409D02*
X123182Y229125D01*
X122727Y229750*
X122045Y230063*
X122045D02*
X121818D01*
X121818D02*
X121136Y229750D01*
X120682Y229125*
X120455Y228188*
X129545Y233813D02*
X125455Y223812D01*
X134773Y231625D02*
X134318Y232250D01*
X133636Y232563*
X133636D02*
X132727D01*
X132727D02*
X132045Y232250D01*
X131591Y231625*
Y231000*
X131818Y230375*
X132045Y230063*
X132045D02*
X132500Y229750D01*
X133864Y229125*
X134318Y228813*
X134318D02*
X134545Y228500D01*
X134773Y227875*
Y226938*
X134773D02*
X134318Y226313D01*
X134318D02*
X133636Y226000D01*
X132727*
X132045Y226313*
X132045D02*
X131591Y226938D01*
X136818Y232563D02*
X137955Y226000D01*
X139091Y232563D02*
X137955Y226000D01*
X139091Y232563D02*
X140227Y226000D01*
X141364Y232563D02*
X140227Y226000D01*
X144773Y232563D02*
X144091Y232250D01*
X143636Y231313*
X143636D02*
X143409Y229750D01*
Y228813*
X143409D02*
X143636Y227250D01*
X144091Y226313*
X144091D02*
X144773Y226000D01*
X145227*
X145909Y226313*
X145909D02*
X146364Y227250D01*
X146591Y228813*
X146591D02*
Y229750D01*
X146364Y231313*
X146364D02*
X145909Y232250D01*
X145227Y232563*
X145227D02*
X144773D01*
X110000Y222563D02*
Y216000D01*
Y222563D02*
X112045D01*
X112045D02*
X112727Y222250D01*
X112955Y221938*
X112955D02*
X113182Y221313D01*
X113182D02*
Y220375D01*
X112955Y219750*
X112727Y219438*
X112727D02*
X112045Y219125D01*
X110000*
X118409Y222563D02*
X116136Y216000D01*
X115227Y222563D02*
X118409D01*
X123636D02*
X121364Y216000D01*
X120455Y222563D02*
X123636D01*
X129773Y223813D02*
X125682Y213812D01*
X135000Y221625D02*
X134545Y222250D01*
X133864Y222563*
X133864D02*
X132955D01*
X132955D02*
X132273Y222250D01*
X131818Y221625*
Y221000*
X132045Y220375*
X132273Y220063*
X132273D02*
X132727Y219750D01*
X134091Y219125*
X134545Y218813*
X134545D02*
X134773Y218500D01*
X135000Y217875*
Y216938*
X135000D02*
X134545Y216313D01*
X134545D02*
X133864Y216000D01*
X132955*
X132273Y216313*
X132273D02*
X131818Y216938D01*
X137045Y222563D02*
X138182Y216000D01*
X139318Y222563D02*
X138182Y216000D01*
X139318Y222563D02*
X140455Y216000D01*
X141591Y222563D02*
X140455Y216000D01*
X143636Y221313D02*
X144091Y221625D01*
X144773Y222563*
X144773D02*
Y216000D01*
X110000Y212563D02*
Y206000D01*
Y212563D02*
X112045D01*
X112045D02*
X112727Y212250D01*
X112955Y211938*
X112955D02*
X113182Y211313D01*
X113182D02*
Y210375D01*
X112955Y209750*
X112727Y209438*
X112727D02*
X112045Y209125D01*
X110000*
X116364Y212563D02*
X115682Y212250D01*
X115455Y211625*
Y211000*
X115682Y210375*
X116136Y210063*
X116136D02*
X117045Y209750D01*
X117727Y209438*
X117727D02*
X118182Y208813D01*
X118182D02*
X118409Y208188D01*
X118409D02*
Y207250D01*
X118182Y206625*
X117955Y206313*
X117955D02*
X117273Y206000D01*
X116364*
X115682Y206313*
X115682D02*
X115455Y206625D01*
X115227Y207250*
Y208188*
X115227D02*
X115455Y208813D01*
X115455D02*
X115909Y209438D01*
X115909D02*
X116591Y209750D01*
X117500Y210063*
X117500D02*
X117955Y210375D01*
X118182Y211000*
Y211625*
X117955Y212250*
X117273Y212563*
X117273D02*
X116364D01*
X121818D02*
X121136Y212250D01*
X120682Y211313*
X120682D02*
X120455Y209750D01*
Y208813*
X120455D02*
X120682Y207250D01*
X121136Y206313*
X121136D02*
X121818Y206000D01*
X122273*
X122955Y206313*
X122955D02*
X123409Y207250D01*
X123636Y208813*
X123636D02*
Y209750D01*
X123409Y211313*
X123409D02*
X122955Y212250D01*
X122273Y212563*
X122273D02*
X121818D01*
X129773Y213813D02*
X125682Y203812D01*
X135000Y211625D02*
X134545Y212250D01*
X133864Y212563*
X133864D02*
X132955D01*
X132955D02*
X132273Y212250D01*
X131818Y211625*
Y211000*
X132045Y210375*
X132273Y210063*
X132273D02*
X132727Y209750D01*
X134091Y209125*
X134545Y208813*
X134545D02*
X134773Y208500D01*
X135000Y207875*
Y206938*
X135000D02*
X134545Y206313D01*
X134545D02*
X133864Y206000D01*
X132955*
X132273Y206313*
X132273D02*
X131818Y206938D01*
X137045Y212563D02*
X138182Y206000D01*
X139318Y212563D02*
X138182Y206000D01*
X139318Y212563D02*
X140455Y206000D01*
X141591Y212563D02*
X140455Y206000D01*
X143864Y211000D02*
Y211313D01*
X143864D02*
X144091Y211938D01*
X144091D02*
X144318Y212250D01*
X144773Y212563*
X144773D02*
X145682D01*
X145682D02*
X146136Y212250D01*
X146364Y211938*
X146364D02*
X146591Y211313D01*
X146591D02*
Y210688D01*
X146591D02*
X146364Y210063D01*
X146364D02*
X145909Y209125D01*
X143636Y206000*
X146818*
X110000Y202563D02*
Y196000D01*
Y202563D02*
X112045D01*
X112045D02*
X112727Y202250D01*
X112955Y201938*
X112955D02*
X113182Y201313D01*
X113182D02*
Y200375D01*
X112955Y199750*
X112727Y199438*
X112727D02*
X112045Y199125D01*
X110000*
X116364Y202563D02*
X115682Y202250D01*
X115455Y201625*
Y201000*
X115682Y200375*
X116136Y200063*
X116136D02*
X117045Y199750D01*
X117727Y199438*
X117727D02*
X118182Y198813D01*
X118182D02*
X118409Y198188D01*
X118409D02*
Y197250D01*
X118182Y196625*
X117955Y196313*
X117955D02*
X117273Y196000D01*
X116364*
X115682Y196313*
X115682D02*
X115455Y196625D01*
X115227Y197250*
Y198188*
X115227D02*
X115455Y198813D01*
X115455D02*
X115909Y199438D01*
X115909D02*
X116591Y199750D01*
X117500Y200063*
X117500D02*
X117955Y200375D01*
X118182Y201000*
Y201625*
X117955Y202250*
X117273Y202563*
X117273D02*
X116364D01*
X120909D02*
X123409D01*
X123409D02*
X122045Y200063D01*
X122045D02*
X122727D01*
X122727D02*
X123182Y199750D01*
X123409Y199438*
X123409D02*
X123636Y198500D01*
Y197875*
X123409Y196938*
X123409D02*
X122955Y196313D01*
X122955D02*
X122273Y196000D01*
X121591*
X120909Y196313*
X120909D02*
X120682Y196625D01*
X120455Y197250*
X129773Y203813D02*
X125682Y193812D01*
X135000Y201625D02*
X134545Y202250D01*
X133864Y202563*
X133864D02*
X132955D01*
X132955D02*
X132273Y202250D01*
X131818Y201625*
Y201000*
X132045Y200375*
X132273Y200063*
X132273D02*
X132727Y199750D01*
X134091Y199125*
X134545Y198813*
X134545D02*
X134773Y198500D01*
X135000Y197875*
Y196938*
X135000D02*
X134545Y196313D01*
X134545D02*
X133864Y196000D01*
X132955*
X132273Y196313*
X132273D02*
X131818Y196938D01*
X137045Y202563D02*
X138182Y196000D01*
X139318Y202563D02*
X138182Y196000D01*
X139318Y202563D02*
X140455Y196000D01*
X141591Y202563D02*
X140455Y196000D01*
X144091Y202563D02*
X146591D01*
X146591D02*
X145227Y200063D01*
X145227D02*
X145909D01*
X145909D02*
X146364Y199750D01*
X146591Y199438*
X146591D02*
X146818Y198500D01*
Y197875*
X146591Y196938*
X146591D02*
X146136Y196313D01*
X146136D02*
X145455Y196000D01*
X144773*
X144091Y196313*
X144091D02*
X143864Y196625D01*
X143636Y197250*
X110000Y192563D02*
Y186000D01*
Y192563D02*
X112045D01*
X112045D02*
X112727Y192250D01*
X112955Y191938*
X112955D02*
X113182Y191313D01*
X113182D02*
Y190375D01*
X112955Y189750*
X112727Y189438*
X112727D02*
X112045Y189125D01*
X110000*
X118182Y190375D02*
X117955Y189438D01*
X117955D02*
X117500Y188813D01*
X117500D02*
X116818Y188500D01*
X116591*
X115909Y188813*
X115909D02*
X115455Y189438D01*
X115455D02*
X115227Y190375D01*
Y190688*
X115227D02*
X115455Y191625D01*
X115909Y192250*
X116591Y192563*
X116591D02*
X116818D01*
X116818D02*
X117500Y192250D01*
X117955Y191625*
X118182Y190375*
Y188813*
X118182D02*
X117955Y187250D01*
X117500Y186313*
X117500D02*
X116818Y186000D01*
X116364*
X115682Y186313*
X115682D02*
X115455Y186938D01*
X121364Y192563D02*
X120682Y192250D01*
X120455Y191625*
Y191000*
X120682Y190375*
X121136Y190063*
X121136D02*
X122045Y189750D01*
X122727Y189438*
X122727D02*
X123182Y188813D01*
X123182D02*
X123409Y188188D01*
X123409D02*
Y187250D01*
X123182Y186625*
X122955Y186313*
X122955D02*
X122273Y186000D01*
X121364*
X120682Y186313*
X120682D02*
X120455Y186625D01*
X120227Y187250*
Y188188*
X120227D02*
X120455Y188813D01*
X120455D02*
X120909Y189438D01*
X120909D02*
X121591Y189750D01*
X122500Y190063*
X122500D02*
X122955Y190375D01*
X123182Y191000*
Y191625*
X122955Y192250*
X122273Y192563*
X122273D02*
X121364D01*
X110000Y182563D02*
Y176000D01*
Y182563D02*
X112045D01*
X112045D02*
X112727Y182250D01*
X112955Y181938*
X112955D02*
X113182Y181313D01*
X113182D02*
Y180375D01*
X112955Y179750*
X112727Y179438*
X112727D02*
X112045Y179125D01*
X110000*
X118182Y180375D02*
X117955Y179438D01*
X117955D02*
X117500Y178813D01*
X117500D02*
X116818Y178500D01*
X116591*
X115909Y178813*
X115909D02*
X115455Y179438D01*
X115455D02*
X115227Y180375D01*
Y180688*
X115227D02*
X115455Y181625D01*
X115909Y182250*
X116591Y182563*
X116591D02*
X116818D01*
X116818D02*
X117500Y182250D01*
X117955Y181625*
X118182Y180375*
Y178813*
X118182D02*
X117955Y177250D01*
X117500Y176313*
X117500D02*
X116818Y176000D01*
X116364*
X115682Y176313*
X115682D02*
X115455Y176938D01*
X123182Y180375D02*
X122955Y179438D01*
X122955D02*
X122500Y178813D01*
X122500D02*
X121818Y178500D01*
X121591*
X120909Y178813*
X120909D02*
X120455Y179438D01*
X120455D02*
X120227Y180375D01*
Y180688*
X120227D02*
X120455Y181625D01*
X120909Y182250*
X121591Y182563*
X121591D02*
X121818D01*
X121818D02*
X122500Y182250D01*
X122955Y181625*
X123182Y180375*
Y178813*
X123182D02*
X122955Y177250D01*
X122500Y176313*
X122500D02*
X121818Y176000D01*
X121364*
X120682Y176313*
X120682D02*
X120455Y176938D01*
X110000Y172563D02*
Y166000D01*
Y172563D02*
X112045D01*
X112045D02*
X112727Y172250D01*
X112955Y171938*
X112955D02*
X113182Y171313D01*
X113182D02*
Y170375D01*
X112955Y169750*
X112727Y169438*
X112727D02*
X112045Y169125D01*
X110000*
X115227Y171313D02*
X115682Y171625D01*
X116364Y172563*
X116364D02*
Y166000D01*
X119773Y172563D02*
X119091Y172250D01*
X118636Y171313*
X118636D02*
X118409Y169750D01*
Y168813*
X118409D02*
X118636Y167250D01*
X119091Y166313*
X119091D02*
X119773Y166000D01*
X120227*
X120909Y166313*
X120909D02*
X121364Y167250D01*
X121591Y168813*
X121591D02*
Y169750D01*
X121364Y171313*
X121364D02*
X120909Y172250D01*
X120227Y172563*
X120227D02*
X119773D01*
X125000D02*
X124318Y172250D01*
X123864Y171313*
X123864D02*
X123636Y169750D01*
Y168813*
X123636D02*
X123864Y167250D01*
X124318Y166313*
X124318D02*
X125000Y166000D01*
X125455*
X126136Y166313*
X126136D02*
X126591Y167250D01*
X126818Y168813*
X126818D02*
Y169750D01*
X126591Y171313*
X126591D02*
X126136Y172250D01*
X125455Y172563*
X125455D02*
X125000D01*
X110455Y662563D02*
X112955D01*
X112955D02*
X111591Y660063D01*
X111591D02*
X112273D01*
X112273D02*
X112727Y659750D01*
X112955Y659438*
X112955D02*
X113182Y658500D01*
Y657875*
X112955Y656938*
X112955D02*
X112500Y656313D01*
X112500D02*
X111818Y656000D01*
X111136*
X110455Y656313*
X110455D02*
X110227Y656625D01*
X110000Y657250*
X115455Y656625D02*
X115227Y656313D01*
X115227D02*
X115455Y656000D01*
X115682Y656313*
X115682D02*
X115455Y656625D01*
X118182Y662563D02*
X120682D01*
X120682D02*
X119318Y660063D01*
X119318D02*
X120000D01*
X120000D02*
X120455Y659750D01*
X120682Y659438*
X120682D02*
X120909Y658500D01*
Y657875*
X120682Y656938*
X120682D02*
X120227Y656313D01*
X120227D02*
X119545Y656000D01*
X118864*
X118182Y656313*
X118182D02*
X117955Y656625D01*
X117727Y657250*
X122955Y662563D02*
X124773Y656000D01*
X126591Y662563D02*
X124773Y656000D01*
X147000Y657938D02*
Y654000D01*
X148636*
X149864Y657188D02*
X150136Y657375D01*
X150545Y657938*
X150545D02*
Y654000D01*
X151773Y657188D02*
X152045Y657375D01*
X152455Y657938*
X152455D02*
Y654000D01*
X155591Y657938D02*
X154227Y654000D01*
X153682Y657938D02*
X155591D01*
X156818Y657188D02*
X157091Y657375D01*
X157500Y657938*
X157500D02*
Y654000D01*
X158864Y657000D02*
Y657188D01*
X158864D02*
X159000Y657563D01*
X159000D02*
X159136Y657750D01*
X159409Y657938*
X159409D02*
X159955D01*
X159955D02*
X160227Y657750D01*
X160364Y657563*
X160364D02*
X160500Y657188D01*
X160500D02*
Y656813D01*
X160500D02*
X160364Y656438D01*
X160364D02*
X160091Y655875D01*
X158727Y654000*
X160636*
X146000Y617938D02*
Y614000D01*
X147636*
X148864Y617188D02*
X149136Y617375D01*
X149545Y617938*
X149545D02*
Y614000D01*
X150773Y617188D02*
X151045Y617375D01*
X151455Y617938*
X151455D02*
Y614000D01*
X154591Y617938D02*
X153227Y614000D01*
X152682Y617938D02*
X154591D01*
X155955Y617000D02*
Y617188D01*
X155955D02*
X156091Y617563D01*
X156091D02*
X156227Y617750D01*
X156500Y617938*
X156500D02*
X157045D01*
X157045D02*
X157318Y617750D01*
X157455Y617563*
X157455D02*
X157591Y617188D01*
X157591D02*
Y616813D01*
X157591D02*
X157455Y616438D01*
X157455D02*
X157182Y615875D01*
X155818Y614000*
X157727*
X160727Y617938D02*
X159364D01*
X159364D02*
X159227Y616250D01*
X159364Y616438*
X159364D02*
X159773Y616625D01*
X160182*
X160591Y616438*
X160591D02*
X160864Y616063D01*
X160864D02*
X161000Y615500D01*
X160864Y615125*
X160727Y614563*
X160727D02*
X160455Y614188D01*
X160455D02*
X160045Y614000D01*
X159636*
X159227Y614188*
X159227D02*
X159091Y614375D01*
X158955Y614750*
X146000Y577938D02*
Y574000D01*
X147636*
X148864Y577188D02*
X149136Y577375D01*
X149545Y577938*
X149545D02*
Y574000D01*
X150773Y577188D02*
X151045Y577375D01*
X151455Y577938*
X151455D02*
Y574000D01*
X154591Y577938D02*
X153227Y574000D01*
X152682Y577938D02*
X154591D01*
X156091D02*
X157591D01*
X157591D02*
X156773Y576438D01*
X156773D02*
X157182D01*
X157182D02*
X157455Y576250D01*
X157591Y576063*
X157591D02*
X157727Y575500D01*
Y575125*
X157591Y574563*
X157591D02*
X157318Y574188D01*
X157318D02*
X156909Y574000D01*
X156500*
X156091Y574188*
X156091D02*
X155955Y574375D01*
X155818Y574750*
X159227Y577938D02*
X160727D01*
X160727D02*
X159909Y576438D01*
X159909D02*
X160318D01*
X160318D02*
X160591Y576250D01*
X160727Y576063*
X160727D02*
X160864Y575500D01*
Y575125*
X160727Y574563*
X160727D02*
X160455Y574188D01*
X160455D02*
X160045Y574000D01*
X159636*
X159227Y574188*
X159227D02*
X159091Y574375D01*
X158955Y574750*
X137364Y109563D02*
X136682Y109250D01*
X136227Y108313*
X136227D02*
X136000Y106750D01*
Y105813*
X136000D02*
X136227Y104250D01*
X136682Y103313*
X136682D02*
X137364Y103000D01*
X137818*
X138500Y103313*
X138500D02*
X138955Y104250D01*
X139182Y105813*
X139182D02*
Y106750D01*
X138955Y108313*
X138955D02*
X138500Y109250D01*
X137818Y109563*
X137818D02*
X137364D01*
X146000Y108313D02*
X146455Y108625D01*
X147136Y109563*
X147136D02*
Y103000D01*
X156227Y108000D02*
Y108313D01*
X156227D02*
X156455Y108938D01*
X156455D02*
X156682Y109250D01*
X157136Y109563*
X157136D02*
X158045D01*
X158045D02*
X158500Y109250D01*
X158727Y108938*
X158727D02*
X158955Y108313D01*
X158955D02*
Y107688D01*
X158955D02*
X158727Y107063D01*
X158727D02*
X158273Y106125D01*
X156000Y103000*
X159182*
X166455Y109563D02*
X168955D01*
X168955D02*
X167591Y107063D01*
X167591D02*
X168273D01*
X168273D02*
X168727Y106750D01*
X168955Y106438*
X168955D02*
X169182Y105500D01*
Y104875*
X168955Y103938*
X168955D02*
X168500Y103313D01*
X168500D02*
X167818Y103000D01*
X167136*
X166455Y103313*
X166455D02*
X166227Y103625D01*
X166000Y104250*
X135000Y367812D02*
Y374271D01*
Y371250D02*
X135076Y370833D01*
X135379Y370417*
X135758Y370104*
X136136Y370000*
X136364*
X136742Y370104*
X137121Y370417*
X137424Y370833*
X137500Y371250*
Y374271*
Y371250D02*
Y370000D01*
X139394Y376563D02*
Y370000D01*
Y376563D02*
X141212Y370000D01*
X143030Y376563D02*
X141212Y370000D01*
X143030Y376563D02*
Y370000D01*
X145076Y374375D02*
Y371250D01*
X145303Y370313*
X145303D02*
X145758Y370000D01*
X146439*
X146894Y370313*
X146894D02*
X147576Y371250D01*
Y374375D02*
Y370000D01*
X152348Y376563D02*
Y370000D01*
Y373438D02*
X151894Y374063D01*
X151894D02*
X151439Y374375D01*
X150758*
X150303Y374063*
X150303D02*
X149848Y373438D01*
X149848D02*
X149621Y372500D01*
Y371875*
X149848Y370938*
X149848D02*
X150303Y370313D01*
X150303D02*
X150758Y370000D01*
X151439*
X151894Y370313*
X151894D02*
X152348Y370938D01*
X157121Y376563D02*
Y370000D01*
Y373438D02*
X156667Y374063D01*
X156667D02*
X156212Y374375D01*
X155530*
X155076Y374063*
X155076D02*
X154621Y373438D01*
X154621D02*
X154394Y372500D01*
Y371875*
X154621Y370938*
X154621D02*
X155076Y370313D01*
X155076D02*
X155530Y370000D01*
X156212*
X156667Y370313*
X156667D02*
X157121Y370938D01*
X135000Y365563D02*
Y359000D01*
Y365563D02*
X136818Y359000D01*
X138636Y365563D02*
X136818Y359000D01*
X138636Y365563D02*
Y359000D01*
X143409Y363375D02*
Y359000D01*
Y362438D02*
X142955Y363063D01*
X142955D02*
X142500Y363375D01*
X141818*
X141364Y363063*
X141364D02*
X140909Y362438D01*
X140909D02*
X140682Y361500D01*
Y360875*
X140909Y359938*
X140909D02*
X141364Y359313D01*
X141364D02*
X141818Y359000D01*
X142500*
X142955Y359313*
X142955D02*
X143409Y359938D01*
X145455Y363375D02*
Y359000D01*
Y361500D02*
X145682Y362438D01*
X145682D02*
X146136Y363063D01*
X146136D02*
X146591Y363375D01*
X147273*
X149318Y365563D02*
Y359000D01*
X151591Y363375D02*
X149318Y360250D01*
X150227Y361500D02*
X151818Y359000D01*
X159091Y365563D02*
Y359000D01*
X161136Y365563D02*
X162955Y359000D01*
X164773Y365563D02*
X162955Y359000D01*
X138409Y354000D02*
X138182Y354625D01*
X137727Y355250*
X137273Y355563*
X137273D02*
X136364D01*
X136364D02*
X135909Y355250D01*
X135455Y354625*
X135227Y354000*
X135000Y353063*
X135000D02*
Y351500D01*
X135227Y350563*
X135227D02*
X135455Y349938D01*
X135455D02*
X135909Y349313D01*
X135909D02*
X136364Y349000D01*
X137273*
X137727Y349313*
X137727D02*
X138182Y349938D01*
X138182D02*
X138409Y350563D01*
X138409D02*
Y351500D01*
X137273D02*
X138409D01*
X140682Y349625D02*
X140455Y349313D01*
X140455D02*
X140682Y349000D01*
X140909Y349313*
X140909D02*
X140682Y349625D01*
X148182Y355563D02*
Y349000D01*
X151364Y355563D02*
X148182Y351188D01*
X149318Y352750D02*
X151364Y349000D01*
X153409Y355563D02*
Y349000D01*
Y352125D02*
X154091Y353063D01*
X154091D02*
X154545Y353375D01*
X155227*
X155682Y353063*
X155682D02*
X155909Y352125D01*
Y349000*
X160682Y353375D02*
Y349000D01*
Y352438D02*
X160227Y353063D01*
X160227D02*
X159773Y353375D01*
X159091*
X158636Y353063*
X158636D02*
X158182Y352438D01*
X158182D02*
X157955Y351500D01*
Y350875*
X158182Y349938*
X158182D02*
X158636Y349313D01*
X158636D02*
X159091Y349000D01*
X159773*
X160227Y349313*
X160227D02*
X160682Y349938D01*
X165455Y355563D02*
Y349000D01*
Y352438D02*
X165000Y353063D01*
X165000D02*
X164545Y353375D01*
X163864*
X163409Y353063*
X163409D02*
X162955Y352438D01*
X162955D02*
X162727Y351500D01*
Y350875*
X162955Y349938*
X162955D02*
X163409Y349313D01*
X163409D02*
X163864Y349000D01*
X164545*
X165000Y349313*
X165000D02*
X165455Y349938D01*
X170227Y353375D02*
Y348375D01*
X170000Y347437*
X170000D02*
X169773Y347125D01*
X169318Y346812*
X169318D02*
X168636D01*
X168636D02*
X168182Y347125D01*
X170227Y352438D02*
X169773Y353063D01*
X169773D02*
X169318Y353375D01*
X168636*
X168182Y353063*
X168182D02*
X167727Y352438D01*
X167727D02*
X167500Y351500D01*
Y350875*
X167727Y349938*
X167727D02*
X168182Y349313D01*
X168182D02*
X168636Y349000D01*
X169318*
X169773Y349313*
X169773D02*
X170227Y349938D01*
X172273Y351500D02*
X175000D01*
Y352125*
X174773Y352750*
X174545Y353063*
X174545D02*
X174091Y353375D01*
X173409*
X172955Y353063*
X172955D02*
X172500Y352438D01*
X172500D02*
X172273Y351500D01*
Y350875*
X172500Y349938*
X172500D02*
X172955Y349313D01*
X172955D02*
X173409Y349000D01*
X174091*
X174545Y349313*
X174545D02*
X175000Y349938D01*
X136818Y345563D02*
X135000Y339000D01*
X136818Y345563D02*
X138636Y339000D01*
X135682Y341188D02*
X137955D01*
X140909Y339625D02*
X140682Y339313D01*
X140682D02*
X140909Y339000D01*
X141136Y339313*
X141136D02*
X140909Y339625D01*
X150227Y345563D02*
X148409Y339000D01*
X150227Y345563D02*
X152045Y339000D01*
X149091Y341188D02*
X151364D01*
X154091Y345563D02*
Y339000D01*
X156136Y343375D02*
X157500Y339000D01*
X158864Y343375D02*
X157500Y339000D01*
X160909Y341500D02*
X163636D01*
Y342125*
X163409Y342750*
X163182Y343063*
X163182D02*
X162727Y343375D01*
X162045*
X161591Y343063*
X161591D02*
X161136Y342438D01*
X161136D02*
X160909Y341500D01*
Y340875*
X161136Y339938*
X161136D02*
X161591Y339313D01*
X161591D02*
X162045Y339000D01*
X162727*
X163182Y339313*
X163182D02*
X163636Y339938D01*
X168182Y342438D02*
X167955Y343063D01*
X167955D02*
X167273Y343375D01*
X166591*
X165909Y343063*
X165909D02*
X165682Y342438D01*
X165682D02*
X165909Y341813D01*
X165909D02*
X166364Y341500D01*
X167500Y341188*
X167500D02*
X167955Y340875D01*
X168182Y340250*
Y339938*
X168182D02*
X167955Y339313D01*
X167955D02*
X167273Y339000D01*
X166591*
X165909Y339313*
X165909D02*
X165682Y339938D01*
X135227Y334000D02*
Y334313D01*
X135227D02*
X135455Y334938D01*
X135455D02*
X135682Y335250D01*
X136136Y335563*
X136136D02*
X137045D01*
X137045D02*
X137500Y335250D01*
X137727Y334938*
X137727D02*
X137955Y334313D01*
X137955D02*
Y333688D01*
X137955D02*
X137727Y333063D01*
X137727D02*
X137273Y332125D01*
X135000Y329000*
X138182*
X141591Y335563D02*
X140909Y335250D01*
X140455Y334313*
X140455D02*
X140227Y332750D01*
Y331813*
X140227D02*
X140455Y330250D01*
X140909Y329313*
X140909D02*
X141591Y329000D01*
X142045*
X142727Y329313*
X142727D02*
X143182Y330250D01*
X143409Y331813*
X143409D02*
Y332750D01*
X143182Y334313*
X143182D02*
X142727Y335250D01*
X142045Y335563*
X142045D02*
X141591D01*
X145455Y334313D02*
X145909Y334625D01*
X146591Y335563*
X146591D02*
Y329000D01*
X151591Y335563D02*
X149318D01*
X149318D02*
X149091Y332750D01*
X149318Y333063*
X149318D02*
X150000Y333375D01*
X150682*
X151364Y333063*
X151364D02*
X151818Y332438D01*
X151818D02*
X152045Y331500D01*
X151818Y330875*
X151591Y329938*
X151591D02*
X151136Y329313D01*
X151136D02*
X150455Y329000D01*
X149773*
X149091Y329313*
X149091D02*
X148864Y329625D01*
X148636Y330250*
X246437Y566000D02*
X253000D01*
X246437D02*
Y568955D01*
X249562Y566000D02*
Y567818D01*
X253000Y566000D02*
Y568955D01*
X246437Y571000D02*
X253000D01*
X246437D02*
Y573045D01*
X246437D02*
X246750Y573727D01*
X247062Y573955*
X247062D02*
X247687Y574182D01*
X247687D02*
X248625D01*
X249250Y573955*
X249562Y573727*
X249562D02*
X249875Y573045D01*
Y571000*
X248000Y579636D02*
X247375Y579409D01*
X246750Y578955*
X246437Y578500*
X246437D02*
Y577591D01*
X246437D02*
X246750Y577136D01*
X247375Y576682*
X248000Y576455*
X248937Y576227*
X248937D02*
X250500D01*
X251437Y576455*
X251437D02*
X252062Y576682D01*
X252062D02*
X252687Y577136D01*
X252687D02*
X253000Y577591D01*
Y578500*
X252687Y578955*
X252687D02*
X252062Y579409D01*
X252062D02*
X251437Y579636D01*
X246437Y583045D02*
X246750Y582591D01*
X247375Y582136*
X248000Y581909*
X248937Y581682*
X248937D02*
X250500D01*
X251437Y581909*
X251437D02*
X252062Y582136D01*
X252062D02*
X252687Y582591D01*
X252687D02*
X253000Y583045D01*
Y583955*
X252687Y584409*
X252687D02*
X252062Y584864D01*
X252062D02*
X251437Y585091D01*
X251437D02*
X250500Y585318D01*
X248937*
X248937D02*
X248000Y585091D01*
X247375Y584864*
X246750Y584409*
X246437Y583955*
X246437D02*
Y583045D01*
X251750Y583727D02*
X253625Y585091D01*
X247687Y587364D02*
X247375Y587818D01*
X246437Y588500*
X246437D02*
X253000D01*
X247375Y593273D02*
X246750Y593045D01*
X246437Y592364*
X246437D02*
Y591909D01*
X246437D02*
X246750Y591227D01*
X247687Y590773*
X247687D02*
X249250Y590545D01*
X250812*
X250812D02*
X252062Y590773D01*
X252062D02*
X252687Y591227D01*
X252687D02*
X253000Y591909D01*
Y592136*
X252687Y592818*
X252687D02*
X252062Y593273D01*
X252062D02*
X251125Y593500D01*
X250812*
X250812D02*
X249875Y593273D01*
X249250Y592818*
X248937Y592136*
X248937D02*
Y591909D01*
X248937D02*
X249250Y591227D01*
X249875Y590773*
X250812Y590545*
X215709Y178000D02*
X215482Y178625D01*
X215027Y179250*
X214573Y179563*
X214573D02*
X213664D01*
X213664D02*
X213209Y179250D01*
X212755Y178625*
X212527Y178000*
X212300Y177063*
X212300D02*
Y175500D01*
X212527Y174563*
X212527D02*
X212755Y173938D01*
X212755D02*
X213209Y173313D01*
X213209D02*
X213664Y173000D01*
X214573*
X215027Y173313*
X215027D02*
X215482Y173938D01*
X215482D02*
X215709Y174563D01*
X217755Y179563D02*
Y173000D01*
X220482*
X222527Y179563D02*
Y173000D01*
X225709Y179563D02*
X222527Y175188D01*
X223664Y176750D02*
X225709Y173000D01*
X171000Y189563D02*
Y183000D01*
Y189563D02*
X172591D01*
X172591D02*
X173273Y189250D01*
X173727Y188625*
X173955Y188000*
X174182Y187063*
X174182D02*
Y185500D01*
X173955Y184563*
X173955D02*
X173727Y183938D01*
X173727D02*
X173273Y183313D01*
X173273D02*
X172591Y183000D01*
X171000*
X177591Y189563D02*
X177136Y189250D01*
X176682Y188625*
X176455Y188000*
X176227Y187063*
X176227D02*
Y185500D01*
X176455Y184563*
X176455D02*
X176682Y183938D01*
X176682D02*
X177136Y183313D01*
X177136D02*
X177591Y183000D01*
X178500*
X178955Y183313*
X178955D02*
X179409Y183938D01*
X179409D02*
X179636Y184563D01*
X179636D02*
X179864Y185500D01*
Y187063*
X179864D02*
X179636Y188000D01*
X179409Y188625*
X178955Y189250*
X178500Y189563*
X178500D02*
X177591D01*
X181909D02*
Y184875D01*
X182136Y183938*
X182136D02*
X182591Y183313D01*
X182591D02*
X183273Y183000D01*
X183727*
X184409Y183313*
X184409D02*
X184864Y183938D01*
X184864D02*
X185091Y184875D01*
Y189563*
X188727D02*
Y183000D01*
X187136Y189563D02*
X190318D01*
X179000Y179563D02*
Y173000D01*
Y179563D02*
X180591D01*
X180591D02*
X181273Y179250D01*
X181727Y178625*
X181955Y178000*
X182182Y177063*
X182182D02*
Y175500D01*
X181955Y174563*
X181955D02*
X181727Y173938D01*
X181727D02*
X181273Y173313D01*
X181273D02*
X180591Y173000D01*
X179000*
X184227Y179563D02*
Y173000D01*
X186273Y179563D02*
Y173000D01*
Y179563D02*
X189455Y173000D01*
Y179563D02*
Y173000D01*
X214527Y158594D02*
X212936Y154000D01*
X212300Y158594D02*
X214527D01*
X216755D02*
X216277Y158375D01*
X216118Y157938*
X216118D02*
Y157500D01*
X216277Y157063*
X216277D02*
X216595Y156844D01*
X217232Y156625*
X217709Y156406*
X218027Y155969*
X218186Y155531*
Y154875*
X218027Y154438*
X218027D02*
X217868Y154219D01*
X217391Y154000*
X216755*
X216277Y154219*
X216118Y154438*
X216118D02*
X215959Y154875D01*
Y155531*
X216118Y155969*
X216436Y156406*
X216914Y156625*
X217550Y156844*
X217868Y157063*
X217868D02*
X218027Y157500D01*
Y157938*
X218027D02*
X217868Y158375D01*
X217391Y158594*
X216755*
X219618D02*
Y154000D01*
Y158594D02*
X221686D01*
X219618Y156406D02*
X220891D01*
X219618Y154000D02*
X221686D01*
X223118Y158594D02*
Y154000D01*
Y158594D02*
X225345Y154000D01*
Y158594D02*
Y154000D01*
X213436Y149563D02*
X212755Y149250D01*
X212527Y148625*
Y148000*
X212755Y147375*
X213209Y147063*
X213209D02*
X214118Y146750D01*
X214800Y146438*
X214800D02*
X215255Y145813D01*
X215255D02*
X215482Y145188D01*
X215482D02*
Y144250D01*
X215255Y143625*
X215027Y143313*
X215027D02*
X214345Y143000D01*
X213436*
X212755Y143313*
X212755D02*
X212527Y143625D01*
X212300Y144250*
Y145188*
X212300D02*
X212527Y145813D01*
X212527D02*
X212982Y146438D01*
X212982D02*
X213664Y146750D01*
X214573Y147063*
X214573D02*
X215027Y147375D01*
X215255Y148000*
Y148625*
X215027Y149250*
X214345Y149563*
X214345D02*
X213436D01*
X219345D02*
X217527Y143000D01*
X219345Y149563D02*
X221164Y143000D01*
X218209Y145188D02*
X220482D01*
X215482Y139563D02*
X213209Y133000D01*
X212300Y139563D02*
X215482D01*
X219345D02*
X217527Y133000D01*
X219345Y139563D02*
X221164Y133000D01*
X218209Y135188D02*
X220482D01*
X178668Y158594D02*
X177077D01*
X176918Y156625*
X177077Y156844*
X177555Y157063*
X177555D02*
X178032D01*
X178032D02*
X178509Y156844D01*
X178827Y156406*
X178986Y155750*
X178827Y155313*
X178827D02*
X178668Y154656D01*
X178350Y154219*
X177873Y154000*
X177395*
X176918Y154219*
X176759Y154438*
X176759D02*
X176600Y154875D01*
X182327Y157938D02*
X182168Y158375D01*
X181691Y158594*
X181373*
X180895Y158375*
X180577Y157719*
X180418Y156625*
Y155531*
X180577Y154656*
X180895Y154219*
X181373Y154000*
X181532*
X182009Y154219*
X182327Y154656*
X182486Y155313*
X182486D02*
Y155531D01*
X182327Y156188*
X182327D02*
X182009Y156625D01*
X181532Y156844*
X181373*
X180895Y156625*
X180577Y156188*
X180577D02*
X180418Y155531D01*
X183918Y158594D02*
Y154000D01*
Y158594D02*
X185986D01*
X183918Y156406D02*
X185191D01*
X183918Y154000D02*
X185986D01*
X187418Y158594D02*
Y154000D01*
Y158594D02*
X189645Y154000D01*
Y158594D02*
Y154000D01*
X183227Y148625D02*
X183000Y149250D01*
X182318Y149563*
X182318D02*
X181864D01*
X181864D02*
X181182Y149250D01*
X180727Y148313*
X180727D02*
X180500Y146750D01*
Y145188*
X180500D02*
X180727Y143938D01*
X180727D02*
X181182Y143313D01*
X181182D02*
X181864Y143000D01*
X182091*
X182773Y143313*
X182773D02*
X183227Y143938D01*
X183227D02*
X183455Y144875D01*
Y145188*
X183455D02*
X183227Y146125D01*
X182773Y146750*
X182091Y147063*
X182091D02*
X181864D01*
X181864D02*
X181182Y146750D01*
X180727Y146125*
X180500Y145188*
X187318Y149563D02*
X185500Y143000D01*
X187318Y149563D02*
X189136Y143000D01*
X186182Y145188D02*
X188455D01*
X183455Y139563D02*
X181182D01*
X181182D02*
X180955Y136750D01*
X181182Y137063*
X181182D02*
X181864Y137375D01*
X182545*
X183227Y137063*
X183227D02*
X183682Y136438D01*
X183682D02*
X183909Y135500D01*
X183682Y134875*
X183455Y133938*
X183455D02*
X183000Y133313D01*
X183000D02*
X182318Y133000D01*
X181636*
X180955Y133313*
X180955D02*
X180727Y133625D01*
X180500Y134250*
X187773Y139563D02*
X185955Y133000D01*
X187773Y139563D02*
X189591Y133000D01*
X186636Y135188D02*
X188909D01*
X212618Y128594D02*
X214368D01*
X213414Y126844*
X213891*
X214209Y126625*
X214368Y126406*
X214527Y125750*
Y125313*
X214527D02*
X214368Y124656D01*
X214050Y124219*
X213573Y124000*
X213095*
X212618Y124219*
X212459Y124438*
X212459D02*
X212300Y124875D01*
X217550Y128594D02*
X215959Y125531D01*
X218345*
X217550Y128594D02*
Y124000D01*
X219777Y128594D02*
Y124000D01*
Y128594D02*
X221845D01*
X219777Y126406D02*
X221050D01*
X219777Y124000D02*
X221845D01*
X223277Y128594D02*
Y124000D01*
Y128594D02*
X225505Y124000D01*
Y128594D02*
Y124000D01*
X214573Y119563D02*
X212300Y115188D01*
X212300D02*
X215709D01*
X214573Y119563D02*
Y113000D01*
X219573Y119563D02*
X217755Y113000D01*
X219573Y119563D02*
X221391Y113000D01*
X218436Y115188D02*
X220709D01*
X212755Y109563D02*
X215255D01*
X215255D02*
X213891Y107063D01*
X213891D02*
X214573D01*
X214573D02*
X215027Y106750D01*
X215255Y106438*
X215255D02*
X215482Y105500D01*
Y104875*
X215255Y103938*
X215255D02*
X214800Y103313D01*
X214800D02*
X214118Y103000D01*
X213436*
X212755Y103313*
X212755D02*
X212527Y103625D01*
X212300Y104250*
X219345Y109563D02*
X217527Y103000D01*
X219345Y109563D02*
X221164Y103000D01*
X218209Y105188D02*
X220482D01*
X178000Y127719D02*
X178318Y127938D01*
X178318D02*
X178795Y128594D01*
Y124000*
X180386Y127500D02*
Y127719D01*
X180545Y128156*
X180705Y128375*
X181023Y128594*
X181659*
X181977Y128375*
X182136Y128156*
X182295Y127719*
Y127281*
X182136Y126844*
X181818Y126188*
X181818D02*
X180227Y124000D01*
X182455*
X183886Y128594D02*
Y124000D01*
Y128594D02*
X185955D01*
X183886Y126406D02*
X185159D01*
X183886Y124000D02*
X185955D01*
X187386Y128594D02*
Y124000D01*
Y128594D02*
X189614Y124000D01*
Y128594D02*
Y124000D01*
X181227Y118000D02*
Y118313D01*
X181227D02*
X181455Y118938D01*
X181455D02*
X181682Y119250D01*
X182136Y119563*
X182136D02*
X183045D01*
X183045D02*
X183500Y119250D01*
X183727Y118938*
X183727D02*
X183955Y118313D01*
X183955D02*
Y117688D01*
X183955D02*
X183727Y117063D01*
X183727D02*
X183273Y116125D01*
X181000Y113000*
X184182*
X188045Y119563D02*
X186227Y113000D01*
X188045Y119563D02*
X189864Y113000D01*
X186909Y115188D02*
X189182D01*
X183000Y108313D02*
X183455Y108625D01*
X184136Y109563*
X184136D02*
Y103000D01*
X188000Y109563D02*
X186182Y103000D01*
X188000Y109563D02*
X189818Y103000D01*
X186864Y105188D02*
X189136D01*
X212300Y189563D02*
Y183000D01*
Y189563D02*
X215482Y183000D01*
Y189563D02*
Y183000D01*
X220936Y188000D02*
X220709Y188625D01*
X220255Y189250*
X219800Y189563*
X219800D02*
X218891D01*
X218891D02*
X218436Y189250D01*
X217982Y188625*
X217755Y188000*
X217527Y187063*
X217527D02*
Y185500D01*
X217755Y184563*
X217755D02*
X217982Y183938D01*
X217982D02*
X218436Y183313D01*
X218436D02*
X218891Y183000D01*
X219800*
X220255Y183313*
X220255D02*
X220709Y183938D01*
X220709D02*
X220936Y184563D01*
X226164Y188625D02*
X225709Y189250D01*
X225027Y189563*
X225027D02*
X224118D01*
X224118D02*
X223436Y189250D01*
X222982Y188625*
Y188000*
X223209Y187375*
X223436Y187063*
X223436D02*
X223891Y186750D01*
X225255Y186125*
X225709Y185813*
X225709D02*
X225936Y185500D01*
X226164Y184875*
Y183938*
X226164D02*
X225709Y183313D01*
X225709D02*
X225027Y183000D01*
X224118*
X223436Y183313*
X223436D02*
X222982Y183938D01*
X215509Y168000D02*
X215282Y168625D01*
X214827Y169250*
X214373Y169563*
X214373D02*
X213464D01*
X213464D02*
X213009Y169250D01*
X212555Y168625*
X212327Y168000*
X212100Y167063*
X212100D02*
Y165500D01*
X212327Y164563*
X212327D02*
X212555Y163938D01*
X212555D02*
X213009Y163313D01*
X213009D02*
X213464Y163000D01*
X214373*
X214827Y163313*
X214827D02*
X215282Y163938D01*
X215282D02*
X215509Y164563D01*
X215509D02*
Y165500D01*
X214373D02*
X215509D01*
X217555Y169563D02*
Y163000D01*
Y169563D02*
X220736Y163000D01*
Y169563D02*
Y163000D01*
X222782Y169563D02*
Y163000D01*
Y169563D02*
X224373D01*
X224373D02*
X225055Y169250D01*
X225509Y168625*
X225736Y168000*
X225964Y167063*
X225964D02*
Y165500D01*
X225736Y164563*
X225736D02*
X225509Y163938D01*
X225509D02*
X225055Y163313D01*
X225055D02*
X224373Y163000D01*
X222782*
X173000Y169563D02*
X174818Y163000D01*
X176636Y169563D02*
X174818Y163000D01*
X178682Y165500D02*
X181409D01*
Y166125*
X181182Y166750*
X180955Y167063*
X180955D02*
X180500Y167375D01*
X179818*
X179364Y167063*
X179364D02*
X178909Y166438D01*
X178909D02*
X178682Y165500D01*
Y164875*
X178909Y163938*
X178909D02*
X179364Y163313D01*
X179364D02*
X179818Y163000D01*
X180500*
X180955Y163313*
X180955D02*
X181409Y163938D01*
X183455Y167375D02*
X185955Y163000D01*
Y167375D02*
X183455Y163000D01*
X188682Y169563D02*
Y164250D01*
X188909Y163313*
X188909D02*
X189364Y163000D01*
X189818*
X188000Y167375D02*
X189591D01*
X110000Y162563D02*
Y156000D01*
Y162563D02*
X112045D01*
X112045D02*
X112727Y162250D01*
X112955Y161938*
X112955D02*
X113182Y161313D01*
X113182D02*
Y160375D01*
X112955Y159750*
X112727Y159438*
X112727D02*
X112045Y159125D01*
X110000*
X115227Y161313D02*
X115682Y161625D01*
X116364Y162563*
X116364D02*
Y156000D01*
X119773Y162563D02*
X119091Y162250D01*
X118636Y161313*
X118636D02*
X118409Y159750D01*
Y158813*
X118409D02*
X118636Y157250D01*
X119091Y156313*
X119091D02*
X119773Y156000D01*
X120227*
X120909Y156313*
X120909D02*
X121364Y157250D01*
X121591Y158813*
X121591D02*
Y159750D01*
X121364Y161313*
X121364D02*
X120909Y162250D01*
X120227Y162563*
X120227D02*
X119773D01*
X124091D02*
X126591D01*
X126591D02*
X125227Y160063D01*
X125227D02*
X125909D01*
X125909D02*
X126364Y159750D01*
X126591Y159438*
X126591D02*
X126818Y158500D01*
Y157875*
X126591Y156938*
X126591D02*
X126136Y156313D01*
X126136D02*
X125455Y156000D01*
X124773*
X124091Y156313*
X124091D02*
X123864Y156625D01*
X123636Y157250*
X110000Y152563D02*
Y146000D01*
Y152563D02*
X112045D01*
X112045D02*
X112727Y152250D01*
X112955Y151938*
X112955D02*
X113182Y151313D01*
X113182D02*
Y150375D01*
X112955Y149750*
X112727Y149438*
X112727D02*
X112045Y149125D01*
X110000*
X115227Y151313D02*
X115682Y151625D01*
X116364Y152563*
X116364D02*
Y146000D01*
X119773Y152563D02*
X119091Y152250D01*
X118636Y151313*
X118636D02*
X118409Y149750D01*
Y148813*
X118409D02*
X118636Y147250D01*
X119091Y146313*
X119091D02*
X119773Y146000D01*
X120227*
X120909Y146313*
X120909D02*
X121364Y147250D01*
X121591Y148813*
X121591D02*
Y149750D01*
X121364Y151313*
X121364D02*
X120909Y152250D01*
X120227Y152563*
X120227D02*
X119773D01*
X125909D02*
X123636Y148188D01*
X123636D02*
X127045D01*
X125909Y152563D02*
Y146000D01*
X110000Y142563D02*
Y136000D01*
Y142563D02*
X112045D01*
X112045D02*
X112727Y142250D01*
X112955Y141938*
X112955D02*
X113182Y141313D01*
X113182D02*
Y140375D01*
X112955Y139750*
X112727Y139438*
X112727D02*
X112045Y139125D01*
X110000*
X115227Y141313D02*
X115682Y141625D01*
X116364Y142563*
X116364D02*
Y136000D01*
X119773Y142563D02*
X119091Y142250D01*
X118636Y141313*
X118636D02*
X118409Y139750D01*
Y138813*
X118409D02*
X118636Y137250D01*
X119091Y136313*
X119091D02*
X119773Y136000D01*
X120227*
X120909Y136313*
X120909D02*
X121364Y137250D01*
X121591Y138813*
X121591D02*
Y139750D01*
X121364Y141313*
X121364D02*
X120909Y142250D01*
X120227Y142563*
X120227D02*
X119773D01*
X126591D02*
X124318D01*
X124318D02*
X124091Y139750D01*
X124318Y140063*
X124318D02*
X125000Y140375D01*
X125682*
X126364Y140063*
X126364D02*
X126818Y139438D01*
X126818D02*
X127045Y138500D01*
X126818Y137875*
X126591Y136938*
X126591D02*
X126136Y136313D01*
X126136D02*
X125455Y136000D01*
X124773*
X124091Y136313*
X124091D02*
X123864Y136625D01*
X123636Y137250*
X110000Y132563D02*
Y126000D01*
Y132563D02*
X112045D01*
X112045D02*
X112727Y132250D01*
X112955Y131938*
X112955D02*
X113182Y131313D01*
X113182D02*
Y130375D01*
X112955Y129750*
X112727Y129438*
X112727D02*
X112045Y129125D01*
X110000*
X115227Y131313D02*
X115682Y131625D01*
X116364Y132563*
X116364D02*
Y126000D01*
X119773Y132563D02*
X119091Y132250D01*
X118636Y131313*
X118636D02*
X118409Y129750D01*
Y128813*
X118409D02*
X118636Y127250D01*
X119091Y126313*
X119091D02*
X119773Y126000D01*
X120227*
X120909Y126313*
X120909D02*
X121364Y127250D01*
X121591Y128813*
X121591D02*
Y129750D01*
X121364Y131313*
X121364D02*
X120909Y132250D01*
X120227Y132563*
X120227D02*
X119773D01*
X126364Y131625D02*
X126136Y132250D01*
X125455Y132563*
X125455D02*
X125000D01*
X125000D02*
X124318Y132250D01*
X123864Y131313*
X123864D02*
X123636Y129750D01*
Y128188*
X123636D02*
X123864Y126938D01*
X123864D02*
X124318Y126313D01*
X124318D02*
X125000Y126000D01*
X125227*
X125909Y126313*
X125909D02*
X126364Y126938D01*
X126364D02*
X126591Y127875D01*
Y128188*
X126591D02*
X126364Y129125D01*
X125909Y129750*
X125227Y130063*
X125227D02*
X125000D01*
X125000D02*
X124318Y129750D01*
X123864Y129125*
X123636Y128188*
X110000Y122563D02*
Y116000D01*
Y122563D02*
X112045D01*
X112045D02*
X112727Y122250D01*
X112955Y121938*
X112955D02*
X113182Y121313D01*
X113182D02*
Y120375D01*
X112955Y119750*
X112727Y119438*
X112727D02*
X112045Y119125D01*
X110000*
X115227Y121313D02*
X115682Y121625D01*
X116364Y122563*
X116364D02*
Y116000D01*
X118409Y121313D02*
X118864Y121625D01*
X119545Y122563*
X119545D02*
Y116000D01*
X122955Y122563D02*
X122273Y122250D01*
X121818Y121313*
X121818D02*
X121591Y119750D01*
Y118813*
X121591D02*
X121818Y117250D01*
X122273Y116313*
X122273D02*
X122955Y116000D01*
X123409*
X124091Y116313*
X124091D02*
X124545Y117250D01*
X124773Y118813*
X124773D02*
Y119750D01*
X124545Y121313*
X124545D02*
X124091Y122250D01*
X123409Y122563*
X123409D02*
X122955D01*
X110000Y112563D02*
Y106000D01*
Y112563D02*
X112045D01*
X112045D02*
X112727Y112250D01*
X112955Y111938*
X112955D02*
X113182Y111313D01*
X113182D02*
Y110375D01*
X112955Y109750*
X112727Y109438*
X112727D02*
X112045Y109125D01*
X110000*
X115227Y111313D02*
X115682Y111625D01*
X116364Y112563*
X116364D02*
Y106000D01*
X118409Y111313D02*
X118864Y111625D01*
X119545Y112563*
X119545D02*
Y106000D01*
X121591Y111313D02*
X122045Y111625D01*
X122727Y112563*
X122727D02*
Y106000D01*
G54D28*
X142008Y527992D02*
Y452008D01*
X217992*
Y527992*
X215039*
X214449Y526811*
X213858Y527992*
X142008*
G54D30*
X218500Y608500D02*
Y688500D01*
X258500*
Y658500*
X253500*
Y638500*
X258500*
Y608500*
X218500*
G54D31*
X176000Y163000D02*
X128000D01*
Y155000*
X176000*
Y163000*
X0Y0D02*
M02*
