*
*
G04 PADS 9.5 Build Number: 522968 generated Gerber (RS-274-X) file*
G04 PC Version=2.1*
*
%IN "E155BoardLayout2.pcb"*%
*
%MOIN*%
*
%FSLAX35Y35*%
*
*
*
*
G04 PC Standard Apertures*
*
*
G04 Thermal Relief Aperture macro.*
%AMTER*
1,1,$1,0,0*
1,0,$1-$2,0,0*
21,0,$3,$4,0,0,45*
21,0,$3,$4,0,0,135*
%
*
*
G04 Annular Aperture macro.*
%AMANN*
1,1,$1,0,0*
1,0,$2,0,0*
%
*
*
G04 Odd Aperture macro.*
%AMODD*
1,1,$1,0,0*
1,0,$1-0.005,0,0*
%
*
*
G04 PC Custom Aperture Macros*
*
*
*
*
*
*
G04 PC Aperture Table*
*
%ADD010C,0.001*%
%ADD012C,0.01*%
%ADD013R,0.02362X0.05709*%
%ADD014R,0.01181X0.05512*%
%ADD015R,0.05512X0.01181*%
%ADD017R,0.06X0.06*%
%ADD018C,0.06*%
%ADD019R,0.05X0.06*%
%ADD020R,0.06X0.05*%
%ADD021R,0.08268X0.05118*%
%ADD022R,0.08X0.04*%
%ADD025C,0.016*%
%ADD026C,0.03*%
%ADD044C,0.008*%
%ADD047R,0.3X0.2*%
%ADD048C,0.06693*%
%ADD049C,0.25*%
*
*
*
*
G04 PC Circuitry*
G04 Layer Name E155BoardLayout2.pcb - circuitry*
%LPD*%
*
*
G04 PC Custom Flashes*
G04 Layer Name E155BoardLayout2.pcb - flashes*
%LPD*%
*
*
G04 PC Circuitry*
G04 Layer Name E155BoardLayout2.pcb - circuitry*
%LPD*%
*
G54D10*
G54D12*
G01X196000Y166000D02*
X201000Y171000D01*
X206798*
X208226Y171835*
X210300Y173909*
Y187781*
X200000Y213660D02*
Y197798D01*
X204798Y193000*
X205081*
X210300Y187781*
X200000Y213660D02*
X205360Y219020D01*
X162526Y303850D02*
X191150D01*
X200000Y295000*
X160000Y430000D02*
X165700D01*
X167200Y428500*
X173000*
X133500Y581000D02*
X133900D01*
Y587631*
X139200Y592931*
X157500Y590000D02*
X173600D01*
X176400Y587200*
Y585500*
X180000*
X133500Y621000D02*
X133900D01*
Y627631*
X139200Y632931*
X133500Y621000D02*
X133900D01*
Y612369*
X139200Y607069*
Y592931*
X133500Y661000D02*
X133900D01*
Y652369*
X139200Y647069*
Y632931*
X105000Y680000D02*
X112900D01*
X131900Y661000*
X133500*
G54D13*
X226500Y569469D03*
X231500D03*
X236500D03*
X241500D03*
Y590531D03*
X236500D03*
X231500D03*
X226500D03*
G54D14*
X214449Y532126D03*
X212480D03*
X210512D03*
X208543D03*
X206575D03*
X204606D03*
X202638D03*
X200669D03*
X198701D03*
X196732D03*
X194764D03*
X192795D03*
X190827D03*
X188858D03*
X186890D03*
X184921D03*
X182953D03*
X180984D03*
X179016D03*
X177047D03*
X175079D03*
X173110D03*
X171142D03*
X169173D03*
X167205D03*
X165236D03*
X163268D03*
X161299D03*
X159331D03*
X157362D03*
X155394D03*
X153425D03*
X151457D03*
X149488D03*
X147520D03*
X145551D03*
Y447874D03*
X147520D03*
X149488D03*
X151457D03*
X153425D03*
X155394D03*
X157362D03*
X159331D03*
X161299D03*
X163268D03*
X165236D03*
X167205D03*
X169173D03*
X171142D03*
X173110D03*
X175079D03*
X177047D03*
X179016D03*
X180984D03*
X182953D03*
X184921D03*
X186890D03*
X188858D03*
X190827D03*
X192795D03*
X194764D03*
X196732D03*
X198701D03*
X200669D03*
X202638D03*
X204606D03*
X206575D03*
X208543D03*
X210512D03*
X212480D03*
X214449D03*
G54D15*
X137874Y524449D03*
Y522480D03*
Y520512D03*
Y518543D03*
Y516575D03*
Y514606D03*
Y512638D03*
Y510669D03*
Y508701D03*
Y506732D03*
Y504764D03*
Y502795D03*
Y500827D03*
Y498858D03*
Y496890D03*
Y494921D03*
Y492953D03*
Y490984D03*
Y489016D03*
Y487047D03*
Y485079D03*
Y483110D03*
Y481142D03*
Y479173D03*
Y477205D03*
Y475236D03*
Y473268D03*
Y471299D03*
Y469331D03*
Y467362D03*
Y465394D03*
Y463425D03*
Y461457D03*
Y459488D03*
Y457520D03*
Y455551D03*
X222126D03*
Y457520D03*
Y459488D03*
Y461457D03*
Y463425D03*
Y465394D03*
Y467362D03*
Y469331D03*
Y471299D03*
Y473268D03*
Y475236D03*
Y477205D03*
Y479173D03*
Y481142D03*
Y483110D03*
Y485079D03*
Y487047D03*
Y489016D03*
Y490984D03*
Y492953D03*
Y494921D03*
Y496890D03*
Y498858D03*
Y500827D03*
Y502795D03*
Y504764D03*
Y506732D03*
Y508701D03*
Y510669D03*
Y512638D03*
Y514606D03*
Y516575D03*
Y518543D03*
Y520512D03*
Y522480D03*
Y524449D03*
G54D17*
X130000Y430000D03*
X137500Y116000D03*
X172000Y159000D03*
X190000Y422000D03*
X195000Y590591D03*
X203000Y422000D03*
X220000D03*
X243500Y628500D03*
G54D18*
X105000Y680000D03*
Y670000D03*
Y660000D03*
Y650000D03*
Y640000D03*
Y630000D03*
Y620000D03*
Y610000D03*
Y600000D03*
Y590000D03*
Y580000D03*
Y570000D03*
Y560000D03*
Y550000D03*
Y540000D03*
Y530000D03*
Y520000D03*
Y510000D03*
Y500000D03*
Y490000D03*
Y480000D03*
Y470000D03*
Y460000D03*
Y450000D03*
Y440000D03*
Y430000D03*
Y420000D03*
Y410000D03*
Y400000D03*
Y390000D03*
Y380000D03*
Y370000D03*
Y360000D03*
Y350000D03*
Y340000D03*
Y330000D03*
Y320000D03*
Y310000D03*
Y300000D03*
Y290000D03*
Y280000D03*
Y270000D03*
Y260000D03*
Y250000D03*
Y240000D03*
Y230000D03*
Y220000D03*
Y210000D03*
Y200000D03*
Y190000D03*
Y180000D03*
Y170000D03*
Y160000D03*
Y150000D03*
Y140000D03*
Y130000D03*
Y120000D03*
Y110000D03*
X130000Y420000D03*
Y410000D03*
Y400000D03*
X160000D03*
Y410000D03*
Y420000D03*
Y430000D03*
X147500Y116000D03*
X157500D03*
X167500D03*
Y146000D03*
X157500D03*
X147500D03*
X137500D03*
X162000Y159000D03*
X152000D03*
X142000D03*
X132000D03*
X170000Y295000D03*
Y285000D03*
Y275000D03*
Y265000D03*
Y255000D03*
Y245000D03*
Y235000D03*
Y225000D03*
X200000D03*
Y235000D03*
Y245000D03*
Y255000D03*
Y265000D03*
Y275000D03*
Y285000D03*
Y295000D03*
X190000Y412000D03*
Y402000D03*
Y392000D03*
Y382000D03*
Y372000D03*
Y362000D03*
Y352000D03*
Y342000D03*
Y332000D03*
X196000Y186000D03*
Y176000D03*
Y166000D03*
Y156000D03*
Y146000D03*
Y136000D03*
Y126000D03*
Y116000D03*
Y106000D03*
X206000D03*
Y116000D03*
Y126000D03*
Y136000D03*
Y146000D03*
Y156000D03*
Y166000D03*
Y176000D03*
Y186000D03*
X195000Y565000D03*
X212717Y590591D03*
Y565000D03*
X203000Y412000D03*
Y402000D03*
Y392000D03*
Y382000D03*
Y372000D03*
Y362000D03*
Y352000D03*
Y342000D03*
Y332000D03*
X218000Y295000D03*
Y285000D03*
Y275000D03*
Y265000D03*
Y255000D03*
Y245000D03*
Y235000D03*
Y225000D03*
X248000D03*
Y235000D03*
Y245000D03*
Y255000D03*
Y265000D03*
Y275000D03*
Y285000D03*
Y295000D03*
X220000Y412000D03*
Y402000D03*
Y392000D03*
Y382000D03*
Y372000D03*
Y362000D03*
Y352000D03*
Y342000D03*
Y332000D03*
X250000D03*
Y342000D03*
Y352000D03*
Y362000D03*
Y372000D03*
Y382000D03*
Y392000D03*
Y402000D03*
Y412000D03*
Y422000D03*
X233500Y628500D03*
X243500Y638500D03*
X233500D03*
X243500Y648500D03*
X233500D03*
X243500Y658500D03*
X233500D03*
X243500Y668500D03*
X233500D03*
G54D19*
X245000Y474500D03*
Y465500D03*
X173000Y419500D03*
Y428500D03*
X180000Y585500D03*
Y594500D03*
Y625500D03*
Y634500D03*
Y665500D03*
Y674500D03*
X245000Y449500D03*
Y440500D03*
Y499500D03*
Y490500D03*
G54D20*
X135500Y550000D03*
X144500D03*
X160500D03*
X169500D03*
X170500Y207000D03*
X179500D03*
X185500Y550000D03*
X194500D03*
X204500Y605000D03*
X195500D03*
X204500Y620000D03*
X195500D03*
X204500Y635000D03*
X195500D03*
X204500Y650000D03*
X195500D03*
X204500Y665000D03*
X195500D03*
X204500Y680000D03*
X195500D03*
X204500Y207000D03*
X213500D03*
X210500Y550000D03*
X219500D03*
G54D21*
X236787Y542331D03*
Y522331D03*
X254898D03*
Y542331D03*
G54D22*
X133900Y679000D03*
Y661000D03*
Y639000D03*
Y621000D03*
Y599000D03*
Y581000D03*
G54D25*
X204500Y207000D02*
Y211500D01*
X218000Y225000*
X170000D02*
Y216000D01*
X170500Y215500*
Y207000*
G54D26*
X167500Y129000D03*
X153000Y168500D03*
X144000Y165500D03*
X158000Y152500D03*
X154000Y179000D03*
X148313Y191313D03*
X151500Y198500D03*
Y193500D03*
X143500Y205500D03*
X185000Y207000D03*
X190000Y204000D03*
X191500Y199000D03*
X193800Y204000D03*
X208500Y202000D03*
X109500Y214500D03*
X115000Y213000D03*
X108000Y224500D03*
X138000Y220000D03*
X155000Y210000D03*
X183000Y215500D03*
X205360Y219020D03*
X220432Y289932D03*
X162526Y303850D03*
X179000Y307000D03*
X175500Y299500D03*
X224000Y299000D03*
X128000Y325500D03*
X127500Y345500D03*
X137400Y340000D03*
X144700Y345800D03*
X141500Y365000D03*
X120225Y381275D03*
X142300Y375000D03*
X138500Y375500D03*
X149500Y385500D03*
X135000Y390000D03*
X158100Y394000D03*
X171000Y399000D03*
X172600Y414000D03*
X201000Y427500D03*
X137100Y440000D03*
X139000Y445000D03*
X142500Y440500D03*
Y448000D03*
X157700Y442600D03*
X145359Y437985D03*
X152000Y442000D03*
X152500Y438000D03*
X161500Y443000D03*
X199000Y432000D03*
X189001Y442007D03*
X193000Y437000D03*
X200200Y441500D03*
X185029Y443000D03*
X210500Y434000D03*
X204000Y441218D03*
X208700Y439700D03*
X225700Y443000D03*
X121594Y450000D03*
X125500Y468000D03*
X128800Y465926D03*
X132800Y467500D03*
X163263Y453249D03*
X144766Y469000D03*
X144553Y464899D03*
X150500Y461500D03*
X144000Y457500D03*
X151346Y453146D03*
X159282Y453163D03*
X169300Y453000D03*
X173000Y458000D03*
X175318Y453500D03*
X180309Y458509D03*
X176000Y460374D03*
X191384Y453434D03*
X216874Y464000D03*
X217187Y467800D03*
X215000Y458000D03*
X211200Y458500D03*
X228000Y465500D03*
X230187Y468687D03*
X245000Y460000D03*
Y455000D03*
X121396Y481104D03*
X120000Y474000D03*
X133000Y485374D03*
X128126Y472600D03*
X126465Y478535D03*
X131721Y476155D03*
X143000Y487000D03*
X143500Y481000D03*
X216124Y483185D03*
X217000Y473800D03*
X216097Y487027D03*
X217000Y478000D03*
X235500D03*
X240000Y488000D03*
X227000Y471500D03*
Y481000D03*
X245000Y485000D03*
Y480000D03*
X133000Y503000D03*
X143000Y505000D03*
X217000Y499000D03*
X215000Y491500D03*
X237000Y493000D03*
X227000Y497000D03*
X133000Y516500D03*
X142781Y518281D03*
X154581Y522063D03*
X152440Y525309D03*
X159981Y522500D03*
X146000Y513000D03*
X163500Y527000D03*
X177500Y524100D03*
X180970Y526759D03*
X197225Y511275D03*
X191500Y524500D03*
X194500Y527000D03*
X187381Y526260D03*
X217000Y516500D03*
X204980Y523020D03*
X227372Y514128D03*
X143000Y536500D03*
X140126Y533500D03*
X149600Y549500D03*
X155000Y548000D03*
X175000Y537000D03*
X183000D03*
X165000D03*
X213800Y542300D03*
X204000Y543000D03*
X248500Y544000D03*
X140156Y556744D03*
X191000Y558000D03*
X209500Y555000D03*
X225000Y550000D03*
X180000Y580000D03*
X236500Y574500D03*
X127500Y599000D03*
X183000Y600000D03*
X210000Y605000D03*
X231500Y595500D03*
X127500Y639000D03*
X177500Y640000D03*
X189563Y647937D03*
X197000Y645000D03*
X186000Y639500D03*
X236500Y633000D03*
X190000Y665000D03*
X208500Y660500D03*
X127500Y679000D03*
X155000Y682500D03*
X180000Y680000D03*
X190000D03*
X204000Y675000D03*
X236500Y673000D03*
G54D44*
X105000Y120000D02*
X121101D01*
X132101Y131000*
X148440*
X162000Y144560*
Y146440*
X167560Y152000*
X172697*
X176200Y155503*
Y162497*
X167500Y129000D02*
X179500D01*
X182500Y126000*
X196000*
X201800Y123930D02*
Y157740D01*
X204260Y160200*
X208402*
X226400Y178198*
Y251622*
X226700Y251922*
Y302000*
X201800Y123930D02*
X206000Y119730D01*
Y116000*
X105000Y140000D02*
X117500Y152500D01*
X158000*
X206000Y146000D02*
X231000Y171000D01*
Y199695*
X252200Y220895*
X206000Y136000D02*
X234000Y164000D01*
Y190330*
X238670Y195000*
X241530*
X253800Y207270*
X105000Y160000D02*
X118000D01*
X123500Y165500*
X144000*
X196000Y156000D02*
X201800Y161800D01*
X207740*
X224000Y178060*
Y290275*
X206000Y156000D02*
X208600Y158600D01*
X209065*
X228000Y177535*
Y205000*
X248000Y225000*
X154000Y179000D02*
X172750D01*
X175750Y176000*
X196000*
X105000Y190000D02*
X131500D01*
X153000Y168500*
X105000Y200000D02*
X122000D01*
X127500Y205500*
X143500*
X145613Y196613D02*
Y183569D01*
X159182Y170000*
X168697*
X176200Y162497*
X145613Y196613D02*
X162000Y213000D01*
Y232940*
X169060Y240000*
X170940*
X182000Y251060*
Y272940*
X199060Y290000*
X200940*
X228000Y317060*
Y434390*
X148313Y191313D02*
X158626Y181000D01*
X197270*
X202270Y176000*
X206000*
X151500Y198500D02*
X157000Y193000D01*
X195270*
X202270Y186000*
X206000*
X151500Y193500D02*
X159000Y186000D01*
X196000*
X143500Y205500D02*
Y182619D01*
X162000Y164119*
Y159000*
X179500Y207000D02*
X185000D01*
X190000Y204000D02*
Y220940D01*
X199060Y230000*
X200940*
X209000Y238060*
Y272270*
X218000Y281270*
Y285000*
X191500Y199000D02*
X193322Y200822D01*
X194440*
X197000Y203382*
Y214479*
X209679Y227158*
X210158*
X218000Y235000*
X193800Y204000D02*
Y218800D01*
X200000Y225000*
X208500Y202000D02*
X212638Y207000D01*
X213500*
X109500Y214500D02*
X112500D01*
X114000Y216000*
X137818*
X157000Y235182*
Y302142*
X161858Y307000*
X179000*
X115000Y213000D02*
X137081D01*
X159000Y234919*
Y289940*
X169060Y300000*
X171000*
X171500Y299500*
X175500*
X108000Y224500D02*
X155000Y271500D01*
Y302405*
X170595Y318000*
X182500*
X201500Y337000*
X220940*
X226000Y342060*
Y431463*
X105000Y210000D02*
X155000D01*
X105000Y220000D02*
X138000D01*
X183000Y215500D02*
Y218000D01*
X200000Y235000*
X170000D02*
X185000Y250000D01*
Y265940*
X199060Y280000*
X200940*
X213000Y292060*
Y295940*
X217060Y300000*
X220000*
X221000Y299000*
X224000*
X218000Y235000D02*
Y238730D01*
X222200Y242930*
Y288163*
X248000Y235000D02*
X253800Y229200D01*
Y207270*
X248000Y235000D02*
X254200Y241200D01*
Y488497*
X200000Y285000D02*
X211400Y296400D01*
Y296602*
X216798Y302000*
X226700*
X220432Y289932D02*
X222200Y288163D01*
X243800Y277070D02*
Y232599D01*
X246399Y230000*
X248940*
X252200Y226740*
Y220895*
X243800Y277070D02*
X248000Y281270D01*
Y285000*
X105000Y290000D02*
X137400Y322400D01*
Y340000*
X105000Y300000D02*
X117602Y312602D01*
X118920*
X133000Y326682*
Y339418*
X155582Y362000*
X190000*
X218000Y295000D02*
X222000D01*
X224000Y293000*
Y290275*
X226700Y302000D02*
X235000Y310300D01*
X105000Y320000D02*
X115000D01*
X120500Y325500*
X128000*
X105000Y340000D02*
X114000D01*
X119500Y345500*
X127500*
X137400Y340000D02*
X161950D01*
X163950Y342000*
X190000*
X144700Y345800D02*
X167230D01*
X168430Y347000*
X192770*
X197770Y342000*
X203000*
Y332000D02*
X220000D01*
X141500Y365000D02*
X165230D01*
X167230Y367000*
X192770*
X197770Y362000*
X203000*
Y352000D02*
X210000D01*
X220000Y342000*
X120225Y381275D02*
X131793D01*
X133069Y380000*
X175401*
X177401Y382000*
X190000*
X142300Y375000D02*
X165630D01*
X167630Y377000*
X191838*
X196838Y382000*
X203000*
X138500Y375500D02*
Y368000D01*
X141500Y365000*
X149500Y385500D02*
X153702D01*
X168300Y400098*
Y400118*
X169882Y401700*
X171172*
X186472Y417000*
X192697*
X196500Y420803*
Y423197*
X200901Y427599*
X201000Y427500*
X203000Y372000D02*
X211500Y363500D01*
Y360500*
X220000Y352000*
X190000Y372000D02*
X195000Y377000D01*
X203940*
X211000Y384060*
Y393000*
X220000Y402000*
X135000Y390000D02*
X143000Y382000D01*
X165939*
X180939Y397000*
X198000*
X203000Y402000*
X158100Y394000D02*
X159672Y395572D01*
X161511*
X166700Y400760*
Y400781*
X169219Y403300*
X170244*
X181500Y414556*
X160000Y400000D02*
X165000Y405000D01*
X169681*
X179900Y415219*
Y434172*
X171000Y399000D02*
X179000Y407000D01*
X206500*
X216500Y417000*
X222697*
X224200Y418503*
Y428335*
X105000Y410000D02*
X130000D01*
X105000Y420000D02*
X130000D01*
X160000D02*
X164851D01*
X168851Y424000*
X175697*
X176700Y425003*
Y432268*
X160000Y410000D02*
X172418D01*
X178300Y415882*
Y433215*
X172600Y414000D02*
Y419500D01*
X173000*
X190000Y412000D02*
X195230D01*
X200230Y417000*
X209967*
X211626Y418659*
X216659*
X220000Y422000*
X105000Y430000D02*
X117200Y442200D01*
Y480726*
X123876Y487402*
X125144*
X130695Y492953*
X137874*
X105000Y440000D02*
X115600Y450600D01*
Y481389*
X123213Y489002*
X124164*
X130083Y494921*
X137874*
X142500Y440500D02*
X145551Y443551D01*
Y447874*
X142500Y448000D02*
Y449900D01*
X144600Y452000*
X147000*
X147520Y451480*
Y447874*
X145359Y437985D02*
X148001Y440627D01*
Y442225*
X149488Y443712*
Y447874*
X152000Y442000D02*
X153425Y443425D01*
Y447874*
X152500Y438000D02*
X160318D01*
X165236Y442918*
Y447874*
X161299D02*
Y443000D01*
X161500*
X157362Y447874D02*
Y442600D01*
X157700*
X182329Y441853D02*
Y444103D01*
X182953Y444726*
Y447874*
X182329Y441853D02*
X190182Y434000D01*
X195500*
X196500Y435000*
X203709*
X204709Y434000*
X210500*
X175079Y447874D02*
Y444118D01*
X187197Y432000*
X199000*
X173110Y447874D02*
Y443524D01*
X181500Y435134*
Y414556*
X171142Y447874D02*
Y442930D01*
X179900Y434172*
X169173Y447874D02*
Y442342D01*
X178300Y433215*
X167205Y447874D02*
Y441763D01*
X176700Y432268*
X193000Y437000D02*
X198000D01*
X198082Y436918*
X209736*
X214449Y441631*
Y447874*
X200200Y441500D02*
X202618Y443918D01*
X204406*
X204606Y444118*
Y447874*
X202638D02*
Y451630D01*
X207101Y456093*
X208793*
X211200Y458500*
X190827Y447874D02*
Y444000D01*
X193568Y441259*
X196313*
X199054Y438518*
X205368*
X206550Y439700*
X208700*
X188858Y447874D02*
Y442007D01*
X189001*
X186890Y447874D02*
Y451147D01*
X187279Y451536*
X188474*
X188858Y451152*
Y447874*
X184921D02*
Y443000D01*
X185029*
X223000Y447750D02*
Y439390D01*
X228000Y434390*
X223000Y447750D02*
X226082Y450832D01*
Y457320*
X204000Y441218D02*
X205782Y443000D01*
X209394*
X210512Y444118*
Y447874*
X208700Y439700D02*
X212480Y443481D01*
Y447874*
X208543D02*
Y451630D01*
X208743Y451830*
X215536*
X217920Y449447*
Y434615*
X224200Y428335*
X206575Y447874D02*
Y451924D01*
X208081Y453430*
X216199*
X219520Y450109*
Y437943*
X226000Y431463*
X225700Y443000D02*
X232887Y450187D01*
X245000Y440500D02*
Y433450D01*
X250000Y428450*
Y422000*
X121594Y450000D02*
X128428Y456834D01*
Y457735*
X134118Y463425*
X137874*
X105000Y450000D02*
X114000Y459000D01*
Y482051*
X126149Y494200*
X126782*
X129471Y496890*
X137874*
X105000Y460000D02*
X112400Y467400D01*
Y482714*
X128386Y498700*
X137874*
Y498858*
X128800Y465926D02*
X128656Y466069D01*
X130050Y467463*
Y468568*
X132781Y471299*
X137874*
X133918Y459288D02*
Y443182D01*
X137100Y440000*
X133918Y459288D02*
X134118Y459488D01*
X137874*
X132800Y467500D02*
Y467362D01*
X137874*
Y455551D02*
Y450993D01*
X139000Y449867*
Y445000*
X137874Y457520D02*
X144000D01*
Y457500*
X137874Y461457D02*
X145093D01*
X145137Y461500*
X150500*
X137874Y465394D02*
X141894D01*
X142389Y464899*
X144553*
X137874Y469331D02*
X142083D01*
X142413Y469000*
X144766*
X163263Y453249D02*
X163268D01*
Y447874*
X151346Y453146D02*
X151457D01*
Y447874*
X159282Y453163D02*
X159331D01*
Y447874*
X169300Y453000D02*
X172000D01*
X173110Y451890*
Y447874*
X173000Y458000D02*
Y461192D01*
X175408Y463600*
X202608*
X204908Y461300*
X218103*
X218260Y461457*
X222126*
X175318Y453500D02*
X185079D01*
X188579Y457000*
X191636*
X194764Y453873*
Y447874*
X180309Y458509D02*
X185272D01*
X185763Y459000*
X191899*
X196732Y454167*
Y447874*
X176000Y460374D02*
X178000D01*
X179626Y462000*
X191162*
X198701Y454461*
Y447874*
X191384Y453434D02*
X192795Y452023D01*
Y447874*
X211200Y458500D02*
X210941Y458241D01*
X213882Y455300*
X217119*
X217370Y455551*
X222126*
X216874Y464000D02*
Y463603D01*
X222126*
Y463425*
X217187Y467800D02*
Y467540D01*
X222126*
Y467362*
X215000Y458000D02*
X216900D01*
X218000Y459100*
Y459118*
X218370Y459488*
X222126*
Y469331D02*
X225276D01*
X225920Y468687*
X230187*
X222126Y465394D02*
X228000D01*
Y465500*
X222126Y457520D02*
X225882D01*
X226082Y457320*
X245000Y460000D02*
Y465500D01*
Y455000D02*
Y449500D01*
X121396Y481104D02*
X131293Y491000D01*
X134002*
X134018Y490984*
X137874*
X120000Y474000D02*
X122554Y476554D01*
Y478443*
X127000Y482889*
Y483192*
X132823Y489016*
X137874*
X105000Y470000D02*
X110800Y475800D01*
Y483588*
X127512Y500300*
X134195*
X134722Y500827*
X137874*
X105000Y480000D02*
X109200Y484200D01*
Y484251*
X131681Y506732*
X137874*
X125426Y473718D02*
Y470574D01*
X125500Y470500*
Y468000*
X125426Y473718D02*
X127275Y475568D01*
X127315*
X130921Y479173*
X137874*
X133000Y485374D02*
Y485079D01*
X137874*
X128126Y472600D02*
X130922D01*
X131322Y473000*
X133908*
X134000Y473092*
Y473150*
X134118Y473268*
X137874*
X126465Y478535D02*
X129929Y482000D01*
X133567*
X134567Y483000*
X137764*
X137874Y483110*
X131721Y476155D02*
X134000Y475236D01*
X137874*
Y477205D02*
X155216D01*
X137874Y481142D02*
X143500D01*
Y481000*
X137874Y487047D02*
X143000D01*
Y487000*
X155216Y477205D02*
Y463806D01*
X155394Y463628*
Y447874*
X155216Y477205D02*
Y504000D01*
X216124Y483185D02*
Y483110D01*
X222126*
X217000Y473800D02*
Y473446D01*
X222126*
Y473268*
X216097Y487027D02*
Y487047D01*
X222126*
X217000Y478000D02*
X218344Y479344D01*
X222126*
Y479173*
Y489016D02*
X225984D01*
X226000Y489000*
X227000*
X227016Y489016*
X228984*
X230000Y488000*
X240000*
X222126Y485079D02*
X228421D01*
X235500Y478000*
X222126Y481142D02*
X227000D01*
Y481000*
X222126Y477205D02*
X227750D01*
X235000Y469955*
Y310300*
X222126Y475236D02*
X227456D01*
X232887Y469805*
Y450187*
X222126Y471299D02*
X227000D01*
Y471500*
X245000Y485000D02*
Y490500D01*
Y480000D02*
Y474500D01*
X105000Y490000D02*
X125669Y510669D01*
X137874*
X105000Y500000D02*
X118000Y513000D01*
X125878*
X126240Y512638*
X137874*
X133000Y503000D02*
Y502795D01*
X137874*
Y504764D02*
X143000D01*
Y505000*
X137874Y508701D02*
X143701D01*
X144954Y509954*
X149262*
X155216Y504000*
X210394*
X214000Y500394*
Y496291*
X215000Y495291*
Y491500*
X214000Y500394D02*
X218370Y504764D01*
X222126*
X217000Y499000D02*
Y498858D01*
X222126*
Y496890D02*
X227000D01*
Y497000*
X222126Y492953D02*
X230467D01*
X230515Y493000*
X237000*
X222126Y490984D02*
X227564D01*
X227580Y491000*
X232222*
X233222Y490000*
X237818*
X240000Y492182*
Y492697*
X242303Y495000*
X247697*
X254200Y488497*
X227000Y497000D02*
X234000D01*
X236500Y499500*
X245000*
X105000Y520000D02*
X133728D01*
X134000Y520272*
Y520394*
X134118Y520512*
X137874*
X133000Y516500D02*
Y516575D01*
X137874*
Y514606D02*
X142062D01*
X143668Y513000*
X146000*
X137874Y518543D02*
X142781D01*
Y518281*
X137874Y524449D02*
X141777D01*
X143000Y523225*
X146407*
X159331Y532126D02*
Y528122D01*
X160560Y526893*
Y526121*
X168082Y518600*
X193944*
X194669Y519325*
X205104*
X207680Y521901*
Y525320*
X146407Y523225D02*
X147689Y524508D01*
X147821*
X151435Y528122*
X159331*
X146407Y523225D02*
X149262Y520371D01*
Y509954*
X154581Y522063D02*
X154459Y521941D01*
X163400Y513000*
X195132*
X196132Y514000*
X206567*
X214449Y521882*
Y532126*
X152440Y525309D02*
X155153D01*
X157281Y523181*
Y521382*
X163262Y515400*
X195269*
X195994Y516125*
X206429*
X206429D02*
X212480Y522176D01*
Y532126*
X159981Y522500D02*
X165481Y517000D01*
X194607*
X195332Y517725*
X205767*
X210512Y522470*
Y532126*
X174800Y522982D02*
Y525671D01*
X177047Y527918*
Y532126*
X174800Y522982D02*
X177582Y520200D01*
X193281*
X194006Y520925*
X199221*
X201315Y523020*
X204980*
X177500Y524100D02*
X179606D01*
X181906Y521800*
X192618*
X193343Y522525*
X196793*
X202638Y528370*
Y532126*
X180970Y526759D02*
X180984D01*
Y532126*
X197225Y511275D02*
X206105D01*
X217000Y522170*
Y524366*
X219634Y527000*
X242801*
X247471Y522331*
X254898*
X191500Y524500D02*
Y524300D01*
X195618*
X197200Y525882*
Y528351*
X194500Y527000D02*
X194764D01*
Y532126*
X217000Y516500D02*
Y516575D01*
X222126*
X226000*
X231756Y522331*
X236787*
X222126Y514606D02*
Y514428D01*
X227372*
Y514128*
X105000Y530000D02*
X126728D01*
X130000Y526728*
Y526598*
X134118Y522480*
X137874*
X105000Y540000D02*
X112529Y532471D01*
X131928*
X137999Y526400*
X147450*
X149420Y528370*
Y532126*
X149488*
X143000Y536500D02*
X145551Y534319D01*
Y532126*
X140126Y533500D02*
X142615Y531011D01*
Y530019*
X144634Y528000*
X146787*
X147520Y528732*
Y532126*
X155000Y548000D02*
X159331Y543669D01*
Y532126*
X155000Y548000D02*
Y547900D01*
X160500*
Y550000*
X161299Y532126D02*
Y540360D01*
X164700Y543761*
X163268Y532126D02*
Y527000D01*
X163500*
X175000Y537000D02*
X175079D01*
Y532126*
X175000Y537000D02*
X178000D01*
X179016Y535984*
Y532126*
X165000Y537000D02*
X165236D01*
Y532126*
X173110D02*
Y536203D01*
X175000Y537000*
X182953Y532126D02*
Y537000D01*
X183000*
X184921Y532126D02*
Y528370D01*
X187206Y526085*
X187381Y526260*
X186890Y532126D02*
Y540725D01*
X190000Y543835*
Y552939*
X193700Y556639*
Y559920*
X188858Y532126D02*
Y536976D01*
X200000Y548117*
Y577874*
X212717Y590591*
X190827Y532126D02*
Y536509D01*
X202000Y547682*
Y560223*
X217777Y576000*
X228823*
X231500Y573323*
Y569469*
X192795Y532126D02*
Y536042D01*
X204000Y547246*
Y555581*
X208419Y560000*
X213656*
X221000Y567344*
Y569701*
X225299Y574000*
X227701*
X229000Y572701*
Y566236*
X230236Y565000*
X232764*
X234000Y566236*
Y572941*
X196732Y532126D02*
Y528819D01*
X197200Y528351*
X198701Y532126D02*
Y537701D01*
X204000Y543000*
X200669Y532126D02*
Y535882D01*
X202787Y538000*
X202818*
X207000Y542182*
Y545061*
X204606Y532126D02*
Y536925D01*
X213682Y546000*
X213697*
X215000Y547303*
Y552697*
X221303Y559000*
X231764*
X239000Y566236*
Y572941*
X241500Y575441*
Y590531*
X206575Y532126D02*
Y526425D01*
X207680Y525320*
X208543Y532126D02*
Y537043D01*
X213800Y542300*
X236787Y542331D02*
X243426D01*
X245095Y544000*
X248500*
Y543659*
X254898*
Y542331*
X105000Y550000D02*
X115458Y539542D01*
X143884*
X147332Y536094*
X150694*
X151457Y535331*
Y532126*
X105000Y560000D02*
X123851Y541149D01*
X148158*
X153425Y535882*
Y532126*
X140156Y556744D02*
X178256D01*
X185000Y550000*
X185500*
X135500D02*
X136750D01*
X139000Y546500*
X139500Y546000*
X151000*
X153000Y548000*
X155000*
X144500Y550000D02*
Y549500D01*
X149600*
X169500Y550000D02*
X170000D01*
X175000Y545000*
Y537000*
X195000Y565000D02*
Y561240D01*
X195300Y560940*
Y555138*
X194500Y550000D02*
Y554338D01*
X195300Y555138*
X185500Y550000D02*
Y553500D01*
X187078Y555078*
X188078*
X191000Y558000*
X206000Y555318D02*
Y546061D01*
X207000Y545061*
X206000Y555318D02*
X208682Y558000D01*
X216705*
X226500Y567795*
Y569469*
X209500Y555000D02*
Y550000D01*
X210500*
X219500D02*
X220000D01*
X227000Y557000*
X232886*
X241500Y565614*
Y569469*
X219500Y550000D02*
X225000D01*
X105000Y570000D02*
X132251Y542749D01*
X148821*
X155394Y536176*
Y532126*
X105000Y580000D02*
X120250Y564750D01*
Y558053*
X133954Y544349*
X149483*
X157362Y536470*
Y532126*
X180000Y580000D02*
Y585500D01*
X233800Y579798D02*
Y573141D01*
X234000Y572941*
X233800Y579798D02*
X236500Y582498D01*
Y590531*
Y574500D02*
Y569469D01*
X105000Y590000D02*
X122430Y572570D01*
Y570651*
X139082Y554000*
X163697*
X164700Y552997*
Y543761*
X127500Y599000D02*
X133500D01*
X180000Y594500D02*
X182100D01*
Y597100*
X183000Y600000*
X190000Y606697D02*
Y563620D01*
X193700Y559920*
X190000Y606697D02*
X196303Y613000D01*
X197000*
X204000Y620000*
X204500*
X195500Y605000D02*
X196000D01*
X203853Y597147*
X206160*
X212717Y590591*
X204500Y605000D02*
X210000D01*
X231500Y595500D02*
Y590531D01*
X226500*
X180000Y625500D02*
Y626000D01*
X189000Y635000*
X195500*
X180000Y625500D02*
X189500D01*
X195000Y620000*
X195500*
X188400Y613400D02*
Y562600D01*
X191000Y560000*
Y558000*
X188400Y613400D02*
X195000Y620000D01*
X195500*
X204500D02*
X242697D01*
X249300Y626603*
Y658700*
X233500Y628500D02*
X236500Y633000D01*
X243500Y628500D02*
Y632500D01*
X247700Y636700*
X127500Y639000D02*
X133500D01*
X157500Y630000D02*
X173500D01*
X176500Y627000*
Y625500*
X180000*
X177500Y640000D02*
X177900Y637100D01*
Y634500*
X180000*
X189563Y647937D02*
Y647900D01*
X195500*
Y650000*
X197000Y645000D02*
X199000D01*
X204000Y650000*
X204500*
X186000Y639500D02*
X200000D01*
X201000Y638500*
X203250Y635000*
X204500*
X195500D02*
X196750D01*
X199000Y631500*
X199500Y631000*
X226000*
X233500Y638500*
X204500Y635000D02*
X205000D01*
X213000Y643000*
X234000*
X239500Y648500*
X243500*
X190000Y665000D02*
X195500D01*
X204500D02*
X205875D01*
X208500Y660500*
X204500Y650000D02*
X218780D01*
X221780Y653000*
X244940*
X247700Y650240*
Y636700*
X233500Y668500D02*
X236500Y673000D01*
X243500Y668500D02*
Y664500D01*
X249300Y658700*
X127500Y679000D02*
X133500D01*
X155000Y682500D02*
Y670000D01*
X157500*
X173500*
X176500Y667000*
Y665500*
X180000*
Y680000D02*
Y674500D01*
X190000Y680000D02*
X195500D01*
X204000Y675000D02*
Y680000D01*
X204500*
G54D47*
X157500Y670000D03*
Y630000D03*
Y590000D03*
G54D48*
X240000Y109900D03*
Y119900D03*
Y129900D03*
Y139900D03*
Y149900D03*
Y159900D03*
Y169900D03*
Y179900D03*
Y189900D03*
Y199900D03*
G54D49*
X180000Y490000D03*
X0Y0D02*
M02*
