*
*
G04 PADS 9.5 Build Number: 522968 generated Gerber (RS-274-X) file*
G04 PC Version=2.1*
*
%IN "E155BoardLayout2.pcb"*%
*
%MOIN*%
*
%FSLAX35Y35*%
*
*
*
*
G04 PC Standard Apertures*
*
*
G04 Thermal Relief Aperture macro.*
%AMTER*
1,1,$1,0,0*
1,0,$1-$2,0,0*
21,0,$3,$4,0,0,45*
21,0,$3,$4,0,0,135*
%
*
*
G04 Annular Aperture macro.*
%AMANN*
1,1,$1,0,0*
1,0,$2,0,0*
%
*
*
G04 Odd Aperture macro.*
%AMODD*
1,1,$1,0,0*
1,0,$1-0.005,0,0*
%
*
*
G04 PC Custom Aperture Macros*
*
*
*
*
*
*
G04 PC Aperture Table*
*
%ADD010C,0.001*%
%ADD034R,0.07X0.07*%
%ADD035C,0.07*%
%ADD036R,0.06X0.07*%
%ADD037R,0.07X0.06*%
%ADD038R,0.09X0.05*%
%ADD040R,0.03362X0.06709*%
%ADD041R,0.02181X0.06512*%
%ADD042R,0.06512X0.02181*%
%ADD043R,0.09268X0.06118*%
%ADD050R,0.31X0.21*%
%ADD051C,0.07693*%
%ADD052C,0.26*%
*
*
*
*
G04 PC Circuitry*
G04 Layer Name E155BoardLayout2.pcb - circuitry*
%LPD*%
*
*
G04 PC Custom Flashes*
G04 Layer Name E155BoardLayout2.pcb - flashes*
%LPD*%
*
*
G04 PC Circuitry*
G04 Layer Name E155BoardLayout2.pcb - circuitry*
%LPD*%
*
G54D10*
G54D34*
G01X130000Y430000D03*
X137500Y116000D03*
X172000Y159000D03*
X190000Y422000D03*
X195000Y590591D03*
X203000Y422000D03*
X220000D03*
X243500Y628500D03*
G54D35*
X105000Y680000D03*
Y670000D03*
Y660000D03*
Y650000D03*
Y640000D03*
Y630000D03*
Y620000D03*
Y610000D03*
Y600000D03*
Y590000D03*
Y580000D03*
Y570000D03*
Y560000D03*
Y550000D03*
Y540000D03*
Y530000D03*
Y520000D03*
Y510000D03*
Y500000D03*
Y490000D03*
Y480000D03*
Y470000D03*
Y460000D03*
Y450000D03*
Y440000D03*
Y430000D03*
Y420000D03*
Y410000D03*
Y400000D03*
Y390000D03*
Y380000D03*
Y370000D03*
Y360000D03*
Y350000D03*
Y340000D03*
Y330000D03*
Y320000D03*
Y310000D03*
Y300000D03*
Y290000D03*
Y280000D03*
Y270000D03*
Y260000D03*
Y250000D03*
Y240000D03*
Y230000D03*
Y220000D03*
Y210000D03*
Y200000D03*
Y190000D03*
Y180000D03*
Y170000D03*
Y160000D03*
Y150000D03*
Y140000D03*
Y130000D03*
Y120000D03*
Y110000D03*
X130000Y420000D03*
Y410000D03*
Y400000D03*
X160000D03*
Y410000D03*
Y420000D03*
Y430000D03*
X147500Y116000D03*
X157500D03*
X167500D03*
Y146000D03*
X157500D03*
X147500D03*
X137500D03*
X162000Y159000D03*
X152000D03*
X142000D03*
X132000D03*
X190000Y412000D03*
Y402000D03*
Y392000D03*
Y382000D03*
Y372000D03*
Y362000D03*
Y352000D03*
Y342000D03*
Y332000D03*
X196000Y186000D03*
Y176000D03*
Y166000D03*
Y156000D03*
Y146000D03*
Y136000D03*
Y126000D03*
Y116000D03*
Y106000D03*
X206000D03*
Y116000D03*
Y126000D03*
Y136000D03*
Y146000D03*
Y156000D03*
Y166000D03*
Y176000D03*
Y186000D03*
X195000Y565000D03*
X212717Y590591D03*
Y565000D03*
X203000Y412000D03*
Y402000D03*
Y392000D03*
Y382000D03*
Y372000D03*
Y362000D03*
Y352000D03*
Y342000D03*
Y332000D03*
X220000Y412000D03*
Y402000D03*
Y392000D03*
Y382000D03*
Y372000D03*
Y362000D03*
Y352000D03*
Y342000D03*
Y332000D03*
X250000D03*
Y342000D03*
Y352000D03*
Y362000D03*
Y372000D03*
Y382000D03*
Y392000D03*
Y402000D03*
Y412000D03*
Y422000D03*
X233500Y628500D03*
X243500Y638500D03*
X233500D03*
X243500Y648500D03*
X233500D03*
X243500Y658500D03*
X233500D03*
X243500Y668500D03*
X233500D03*
X170000Y295000D03*
Y285000D03*
Y275000D03*
Y265000D03*
Y255000D03*
Y245000D03*
Y235000D03*
Y225000D03*
X200000D03*
Y235000D03*
Y245000D03*
Y255000D03*
Y265000D03*
Y275000D03*
Y285000D03*
Y295000D03*
X218000D03*
Y285000D03*
Y275000D03*
Y265000D03*
Y255000D03*
Y245000D03*
Y235000D03*
Y225000D03*
X248000D03*
Y235000D03*
Y245000D03*
Y255000D03*
Y265000D03*
Y275000D03*
Y285000D03*
Y295000D03*
G54D36*
X245000Y474500D03*
Y465500D03*
X173000Y419500D03*
Y428500D03*
X180000Y585500D03*
Y594500D03*
Y625500D03*
Y634500D03*
Y665500D03*
Y674500D03*
X245000Y449500D03*
Y440500D03*
Y499500D03*
Y490500D03*
G54D37*
X135500Y550000D03*
X144500D03*
X160500D03*
X169500D03*
X170500Y207000D03*
X179500D03*
X185500Y550000D03*
X194500D03*
X204500Y605000D03*
X195500D03*
X204500Y620000D03*
X195500D03*
X204500Y635000D03*
X195500D03*
X204500Y650000D03*
X195500D03*
X204500Y665000D03*
X195500D03*
X204500Y680000D03*
X195500D03*
X204500Y207000D03*
X213500D03*
X210500Y550000D03*
X219500D03*
G54D38*
X133900Y679000D03*
Y661000D03*
Y639000D03*
Y621000D03*
Y599000D03*
Y581000D03*
G54D40*
X226500Y569469D03*
X231500D03*
X236500D03*
X241500D03*
Y590531D03*
X236500D03*
X231500D03*
X226500D03*
G54D41*
X214449Y532126D03*
X212480D03*
X210512D03*
X208543D03*
X206575D03*
X204606D03*
X202638D03*
X200669D03*
X198701D03*
X196732D03*
X194764D03*
X192795D03*
X190827D03*
X188858D03*
X186890D03*
X184921D03*
X182953D03*
X180984D03*
X179016D03*
X177047D03*
X175079D03*
X173110D03*
X171142D03*
X169173D03*
X167205D03*
X165236D03*
X163268D03*
X161299D03*
X159331D03*
X157362D03*
X155394D03*
X153425D03*
X151457D03*
X149488D03*
X147520D03*
X145551D03*
Y447874D03*
X147520D03*
X149488D03*
X151457D03*
X153425D03*
X155394D03*
X157362D03*
X159331D03*
X161299D03*
X163268D03*
X165236D03*
X167205D03*
X169173D03*
X171142D03*
X173110D03*
X175079D03*
X177047D03*
X179016D03*
X180984D03*
X182953D03*
X184921D03*
X186890D03*
X188858D03*
X190827D03*
X192795D03*
X194764D03*
X196732D03*
X198701D03*
X200669D03*
X202638D03*
X204606D03*
X206575D03*
X208543D03*
X210512D03*
X212480D03*
X214449D03*
G54D42*
X137874Y524449D03*
Y522480D03*
Y520512D03*
Y518543D03*
Y516575D03*
Y514606D03*
Y512638D03*
Y510669D03*
Y508701D03*
Y506732D03*
Y504764D03*
Y502795D03*
Y500827D03*
Y498858D03*
Y496890D03*
Y494921D03*
Y492953D03*
Y490984D03*
Y489016D03*
Y487047D03*
Y485079D03*
Y483110D03*
Y481142D03*
Y479173D03*
Y477205D03*
Y475236D03*
Y473268D03*
Y471299D03*
Y469331D03*
Y467362D03*
Y465394D03*
Y463425D03*
Y461457D03*
Y459488D03*
Y457520D03*
Y455551D03*
X222126D03*
Y457520D03*
Y459488D03*
Y461457D03*
Y463425D03*
Y465394D03*
Y467362D03*
Y469331D03*
Y471299D03*
Y473268D03*
Y475236D03*
Y477205D03*
Y479173D03*
Y481142D03*
Y483110D03*
Y485079D03*
Y487047D03*
Y489016D03*
Y490984D03*
Y492953D03*
Y494921D03*
Y496890D03*
Y498858D03*
Y500827D03*
Y502795D03*
Y504764D03*
Y506732D03*
Y508701D03*
Y510669D03*
Y512638D03*
Y514606D03*
Y516575D03*
Y518543D03*
Y520512D03*
Y522480D03*
Y524449D03*
G54D43*
X236787Y542331D03*
Y522331D03*
X254898D03*
Y542331D03*
G54D50*
X157500Y670000D03*
Y630000D03*
Y590000D03*
G54D51*
X240000Y109900D03*
Y119900D03*
Y129900D03*
Y139900D03*
Y149900D03*
Y159900D03*
Y169900D03*
Y179900D03*
Y189900D03*
Y199900D03*
G54D52*
X180000Y490000D03*
X0Y0D02*
M02*
