*
*
G04 PADS VX.2.1 Build Number: 6554490 generated Gerber (RS-274-X) file*
G04 PC Version=2.1*
*
%IN "uMuddMarkVTesterLayout_"*%
*
%MOIN*%
*
%FSLAX35Y35*%
*
*
*
*
G04 PC Standard Apertures*
*
*
G04 Thermal Relief Aperture macro.*
%AMTER*
1,1,$1,0,0*
1,0,$1-$2,0,0*
21,0,$3,$4,0,0,45*
21,0,$3,$4,0,0,135*
%
*
*
G04 Annular Aperture macro.*
%AMANN*
1,1,$1,0,0*
1,0,$2,0,0*
%
*
*
G04 Odd Aperture macro.*
%AMODD*
1,1,$1,0,0*
1,0,$1-0.005,0,0*
%
*
*
G04 PC Custom Aperture Macros*
*
*
*
*
*
*
G04 PC Aperture Table*
*
%ADD010C,0.001*%
%ADD011C,0.01*%
%ADD015C,0.06*%
%ADD024C,0.03*%
%ADD025C,0.015*%
%ADD029C,0.03937*%
%ADD041C,0.181*%
%ADD046C,0.042*%
%ADD051C,0.1*%
*
*
*
*
G04 PC Circuitry*
G04 Layer Name uMuddMarkVTesterLayout_ - circuitry*
%LPD*%
*
*
G04 PC Custom Flashes*
G04 Layer Name uMuddMarkVTesterLayout_ - flashes*
%LPD*%
*
*
G04 PC Circuitry*
G04 Layer Name uMuddMarkVTesterLayout_ - circuitry*
%LPD*%
*
G54D10*
G54D11*
G01X1845500Y1811500D02*
X2046100D01*
Y2234600*
X1845500*
Y1811500*
X2044050Y1824900D02*
G75*
G03X2023750I-10150J0D01*
X2044050I10150J0*
G01X2041350Y2221800D02*
G03X2021050I-10150J0D01*
X2041350I10150J0*
G01X2003000Y1945000D02*
G03X1997000I-3000J0D01*
X2003000I3000J0*
G01Y1830000D02*
G03X1997000I-3000J0D01*
X2003000I3000J0*
G01X1993000Y1932500D02*
G03X1987000I-3000J0D01*
X1993000I3000J0*
G01X1994100Y2070000D02*
G03X1985900I-4100J0D01*
X1994100I4100J0*
G01Y2060000D02*
G03X1985900I-4100J0D01*
X1994100I4100J0*
G01Y2050000D02*
G03X1985900I-4100J0D01*
X1994100I4100J0*
G01Y2040000D02*
G03X1985900I-4100J0D01*
X1994100I4100J0*
G01Y2030000D02*
G03X1985900I-4100J0D01*
X1994100I4100J0*
G01Y2020000D02*
G03X1985900I-4100J0D01*
X1994100I4100J0*
G01Y2010000D02*
G03X1985900I-4100J0D01*
X1994100I4100J0*
G01Y2000000D02*
G03X1985900I-4100J0D01*
X1994100I4100J0*
G01Y1990000D02*
G03X1985900I-4100J0D01*
X1994100I4100J0*
G01Y1980000D02*
G03X1985900I-4100J0D01*
X1994100I4100J0*
G01X1988000Y1925000D02*
G03X1982000I-3000J0D01*
X1988000I3000J0*
G01X1988135Y1839521D02*
G03X1981198I-3469J0D01*
X1988135I3468J0*
G01Y1829679D02*
G03X1981198I-3469J-0D01*
X1988135I3468J-0*
G01X1984198Y1847395D02*
G03X1977261I-3469J0D01*
X1984198I3468J0*
G01Y1821805D02*
G03X1977261I-3469J-0D01*
X1984198I3468J-0*
G01X1980500Y1880000D02*
G03X1974500I-3000J0D01*
X1980500I3000J0*
G01X1980261Y1839521D02*
G03X1973324I-3469J0D01*
X1980261I3468J0*
G01Y1829679D02*
G03X1973324I-3469J-0D01*
X1980261I3468J-0*
G01X1984500Y2220700D02*
G03X1972300I-6100J0D01*
X1984500I6100J0*
G01Y2160500D02*
G03X1972300I-6100J0D01*
X1984500I6100J0*
G01X1976324Y1847395D02*
G03X1969387I-3469J0D01*
X1976324I3468J0*
G01Y1821805D02*
G03X1969387I-3469J-0D01*
X1976324I3468J-0*
G01X1973000Y2127500D02*
G03X1967000I-3000J0D01*
X1973000I3000J0*
G01Y2107500D02*
G03X1967000I-3000J0D01*
X1973000I3000J0*
G01Y2090000D02*
G03X1967000I-3000J0D01*
X1973000I3000J0*
G01X1972387Y1839521D02*
G03X1965450I-3469J0D01*
X1972387I3468J0*
G01Y1829679D02*
G03X1965450I-3469J-0D01*
X1972387I3468J-0*
G01X1968050Y1821805D02*
G03X1961913I-3069J-0D01*
X1968050I3068J-0*
G01X1968450Y1847395D02*
G03X1961513I-3469J0D01*
X1968450I3468J0*
G01X1959110Y1886800D02*
G03X1958100Y1884300I2590J-2500D01*
G01Y1889300D02*
G03X1959110Y1886800I3600J0D01*
G01Y1891800D02*
G03X1958100Y1889300I2590J-2500D01*
G01Y1894300D02*
G03X1959110Y1891800I3600J0D01*
G01Y1896800D02*
G03X1958100Y1894300I2590J-2500D01*
G01Y1899300D02*
G03X1959110Y1896800I3600J0D01*
G01Y1901800D02*
G03X1958100Y1899300I2590J-2500D01*
G01Y1904300D02*
G03X1959110Y1901800I3600J0D01*
G01X1964472Y1906597D02*
G03X1958100Y1904300I-2772J-2297D01*
G01X1969900D02*
G03X1964472Y1906597I-3200J0D01*
G01X1968997Y1902072D02*
G03X1969900Y1904300I-2297J2228D01*
G01X1970300Y1899300D02*
G03X1968997Y1902072I-3600J0D01*
G01Y1896528D02*
G03X1970300Y1899300I-2297J2772D01*
G01X1969900Y1894300D02*
G03X1968997Y1896528I-3200J0D01*
G01X1968697Y1891800D02*
G03X1969900Y1894300I-1997J2500D01*
G01Y1889300D02*
G03X1968697Y1891800I-3200J0D01*
G01X1968997Y1887072D02*
G03X1969900Y1889300I-2297J2228D01*
G01X1970300Y1884300D02*
G03X1968997Y1887072I-3600J0D01*
G01X1964200Y1881710D02*
G03X1970300Y1884300I2500J2590D01*
G01X1958100D02*
G03X1964200Y1881710I3600J0D01*
G01X1964513Y1839521D02*
G03X1957576I-3469J0D01*
X1964513I3468J0*
G01Y1829679D02*
G03X1957576I-3469J-0D01*
X1964513I3468J-0*
G01X1962600Y2130000D02*
G03X1957400I-2600J0D01*
X1962600I2600J0*
G01X1964500Y2070000D02*
G03X1955500I-4500J0D01*
X1964500I4500J0*
G01Y2060000D02*
G03X1955500I-4500J0D01*
X1964500I4500J0*
G01Y2050000D02*
G03X1955500I-4500J0D01*
X1964500I4500J0*
G01Y2040000D02*
G03X1955500I-4500J0D01*
X1964500I4500J0*
G01Y2030000D02*
G03X1955500I-4500J0D01*
X1964500I4500J0*
G01X1962199Y1993926D02*
G03X1955500Y1990000I-2199J-3926D01*
G01X1962000Y1995000D02*
G03X1962199Y1993926I3000J0D01*
G01Y1996074D02*
G03X1962000Y1995000I2801J-1074D01*
G01X1955500Y2000000D02*
G03X1962199Y1996074I4500J0D01*
G01X1964500Y2000000D02*
G03X1955500I-4500J0D01*
G01X1963926Y1997801D02*
G03X1964500Y2000000I-3926J2199D01*
G01X1968000Y1995000D02*
G03X1963926Y1997801I-3000J0D01*
G01Y1992199D02*
G03X1968000Y1995000I1074J2801D01*
G01X1964500Y1990000D02*
G03X1963926Y1992199I-4500J0D01*
G01X1955500Y1990000D02*
G03X1964500I4500J0D01*
G01Y1980000D02*
G03X1955500I-4500J0D01*
X1964500I4500J0*
G01X1960576Y1847395D02*
G03X1953639I-3469J0D01*
X1960576I3468J0*
G01Y1821805D02*
G03X1953639I-3469J-0D01*
X1960576I3468J-0*
G01X1956074Y2017801D02*
G03X1952000Y2015000I-1074J-2801D01*
G01X1955500Y2020000D02*
G03X1956074Y2017801I4500J0D01*
G01X1964500Y2020000D02*
G03X1955500I-4500J0D01*
G01X1957801Y2016074D02*
G03X1964500Y2020000I2199J3926D01*
G01X1958000Y2015000D02*
G03X1957801Y2016074I-3000J0D01*
G01Y2013926D02*
G03X1958000Y2015000I-2801J1074D01*
G01X1964500Y2010000D02*
G03X1957801Y2013926I-4500J0D01*
G01X1955500Y2010000D02*
G03X1964500I4500J0D01*
G01X1956074Y2012199D02*
G03X1955500Y2010000I3926J-2199D01*
G01X1952000Y2015000D02*
G03X1956074Y2012199I3000J0D01*
G01X1956639Y1839521D02*
G03X1949702I-3469J0D01*
X1956639I3468J0*
G01Y1829679D02*
G03X1949702I-3469J-0D01*
X1956639I3468J-0*
G01X1952702Y1847395D02*
G03X1945765I-3469J0D01*
X1952702I3468J0*
G01Y1821805D02*
G03X1945765I-3469J-0D01*
X1952702I3468J-0*
G01X1948000Y1950000D02*
G03X1942000I-3000J0D01*
X1948000I3000J0*
G01X1945500Y2105000D02*
G03X1939500I-3000J0D01*
X1945500I3000J0*
G01X1943000Y2130000D02*
G03X1937000I-3000J0D01*
X1943000I3000J0*
G01X1944500Y2070000D02*
G03X1935500I-4500J0D01*
X1944500I4500J0*
G01Y2060000D02*
G03X1935500I-4500J0D01*
X1944500I4500J0*
G01Y2050000D02*
G03X1935500I-4500J0D01*
X1944500I4500J0*
G01Y2040000D02*
G03X1935500I-4500J0D01*
X1944500I4500J0*
G01Y2030000D02*
G03X1935500I-4500J0D01*
X1944500I4500J0*
G01Y2020000D02*
G03X1935500I-4500J0D01*
X1944500I4500J0*
G01Y2010000D02*
G03X1935500I-4500J0D01*
X1944500I4500J0*
G01Y2000000D02*
G03X1935500I-4500J0D01*
X1944500I4500J0*
G01Y1990000D02*
G03X1935500I-4500J0D01*
X1944500I4500J0*
G01Y1980000D02*
G03X1935500I-4500J0D01*
X1944500I4500J0*
G01X1941835Y1839747D02*
G03X1932825Y1834600I-3035J-5147D01*
G01X1948765Y1839521D02*
G03X1941835Y1839747I-3469J0D01*
G01X1944576Y1836128D02*
G03X1948765Y1839521I720J3393D01*
G01X1944775Y1834600D02*
G03X1944576Y1836128I-5975J0D01*
G01X1944775Y1834600D02*
X1944775D01*
X1944775*
X1944576Y1833072D02*
G03X1944775Y1834600I-5776J1528D01*
G01X1948765Y1829679D02*
G03X1944576Y1833072I-3469J-0D01*
G01X1941835Y1829453D02*
G03X1948765Y1829679I3461J226D01*
G01X1932825Y1834600D02*
G03X1941835Y1829453I5975J0D01*
G01X1936954Y1847395D02*
G03X1930017I-3469J0D01*
X1936954I3468J0*
G01Y1821805D02*
G03X1930017I-3469J-0D01*
X1936954I3468J-0*
G01X1933000Y2017500D02*
G03X1927000I-3000J0D01*
X1933000I3000J0*
G01Y1885000D02*
G03X1927000I-3000J0D01*
X1933000I3000J0*
G01X1933017Y1839521D02*
G03X1926080I-3469J0D01*
X1933017I3468J0*
G01Y1829679D02*
G03X1926080I-3469J-0D01*
X1933017I3468J-0*
G01X1929080Y1847395D02*
G03X1922143I-3469J0D01*
X1929080I3468J0*
G01Y1821805D02*
G03X1922143I-3469J-0D01*
X1929080I3468J-0*
G01X1925143Y1839521D02*
G03X1918206I-3469J0D01*
X1925143I3468J0*
G01Y1829679D02*
G03X1918206I-3469J-0D01*
X1925143I3468J-0*
G01X1922600Y2127500D02*
G03X1917400I-2600J0D01*
X1922600I2600J0*
G01Y2090000D02*
G03X1917400I-2600J0D01*
X1922600I2600J0*
G01X1924100Y1940000D02*
G03X1915900I-4100J0D01*
X1924100I4100J0*
G01X1924500Y2070000D02*
G03X1915500I-4500J0D01*
X1924500I4500J0*
G01Y2060000D02*
G03X1915500I-4500J0D01*
X1924500I4500J0*
G01Y2050000D02*
G03X1915500I-4500J0D01*
X1924500I4500J0*
G01Y2040000D02*
G03X1915500I-4500J0D01*
X1924500I4500J0*
G01Y2030000D02*
G03X1915500I-4500J0D01*
X1924500I4500J0*
G01Y2020000D02*
G03X1915500I-4500J0D01*
X1924500I4500J0*
G01Y2010000D02*
G03X1915500I-4500J0D01*
X1924500I4500J0*
G01Y2000000D02*
G03X1915500I-4500J0D01*
X1924500I4500J0*
G01Y1990000D02*
G03X1915500I-4500J0D01*
X1924500I4500J0*
G01Y1980000D02*
G03X1915500I-4500J0D01*
X1924500I4500J0*
G01Y1930000D02*
G03X1915500I-4500J0D01*
X1924500I4500J0*
G01Y1920000D02*
G03X1915500I-4500J0D01*
X1924500I4500J0*
G01X1921206Y1847395D02*
G03X1914269I-3469J0D01*
X1921206I3468J0*
G01Y1821805D02*
G03X1914269I-3469J-0D01*
X1921206I3468J-0*
G01X1918000Y1952500D02*
G03X1912000I-3000J0D01*
X1918000I3000J0*
G01X1917269Y1839521D02*
G03X1910331I-3469J0D01*
X1917269I3469J0*
G01Y1829679D02*
G03X1910331I-3469J-0D01*
X1917269I3469J-0*
G01X1913331Y1847395D02*
G03X1906394I-3468J0D01*
X1913331I3469J0*
G01Y1821805D02*
G03X1906394I-3468J-0D01*
X1913331I3469J-0*
G01X1905500Y1936000D02*
Y1944000D01*
X1906000Y1944500D02*
G03X1905500Y1944000I0J-500D01*
G01X1906000Y1944500D02*
X1914000D01*
X1914500Y1944000D02*
G03X1914000Y1944500I-500J0D01*
G01X1914500Y1944000D02*
Y1936000D01*
X1914000Y1935500D02*
G03X1914500Y1936000I0J500D01*
G01X1914000Y1935500D02*
X1906000D01*
X1905500Y1936000D02*
G03X1906000Y1935500I500J0D01*
G01X1914500Y1930000D02*
G03X1905500I-4500J0D01*
X1914500I4500J0*
G01Y1920000D02*
G03X1905500I-4500J0D01*
X1914500I4500J0*
G01X1912199Y1903926D02*
G03X1905500Y1900000I-2199J-3926D01*
G01X1912000Y1905000D02*
G03X1912199Y1903926I3000J0D01*
G01Y1906074D02*
G03X1912000Y1905000I2801J-1074D01*
G01X1905500Y1910000D02*
G03X1912199Y1906074I4500J0D01*
G01X1914500Y1910000D02*
G03X1905500I-4500J0D01*
G01X1913926Y1907801D02*
G03X1914500Y1910000I-3926J2199D01*
G01X1916074Y1907801D02*
G03X1913926I-1074J-2801D01*
G01X1915500Y1910000D02*
G03X1916074Y1907801I4500J0D01*
G01X1924500Y1910000D02*
G03X1915500I-4500J0D01*
G01X1917801Y1906074D02*
G03X1924500Y1910000I2199J3926D01*
G01X1918000Y1905000D02*
G03X1917801Y1906074I-3000J0D01*
G01X1917333Y1903114D02*
G03X1918000Y1905000I-2333J1886D01*
G01X1924100Y1900000D02*
G03X1917333Y1903114I-4100J0D01*
G01X1915900Y1900000D02*
G03X1924100I4100J0D01*
G01X1916886Y1902667D02*
G03X1915900Y1900000I3114J-2667D01*
G01X1913926Y1902199D02*
G03X1916886Y1902667I1074J2801D01*
G01X1914500Y1900000D02*
G03X1913926Y1902199I-4500J0D01*
G01X1905500Y1900000D02*
G03X1914500I4500J0D01*
G01X1910500Y1892500D02*
G03X1904500I-3000J0D01*
X1910500I3000J0*
G01X1902600Y2110000D02*
G03X1897400I-2600J0D01*
X1902600I2600J0*
G01Y2080000D02*
G03X1897400I-2600J0D01*
X1902600I2600J0*
G01Y2050000D02*
G03X1897400I-2600J0D01*
X1902600I2600J0*
G01Y2010000D02*
G03X1897400I-2600J0D01*
X1902600I2600J0*
G01X1903000Y2127500D02*
G03X1897000I-3000J0D01*
X1903000I3000J0*
G01X1908751Y1834600D02*
G03X1896801I-5975J0D01*
X1908751I5975J0*
G01X1898000Y2070000D02*
G03X1892000I-3000J0D01*
X1898000I3000J0*
G01X1892775Y2090487D02*
G03X1889500Y2087500I-275J-2987D01*
G01X1892000Y2092500D02*
G03X1892775Y2090487I3000J-0D01*
G01X1892000Y2092500D02*
X1892000D01*
X1898000D02*
G03X1892000I-3000J0D01*
G01X1894725Y2089513D02*
G03X1898000Y2092500I275J2987D01*
G01X1895500Y2087500D02*
G03X1894725Y2089513I-3000J0D01*
G01X1895500Y2087500D02*
X1895500D01*
X1889500D02*
G03X1895500I3000J0D01*
G01X1893000Y2030000D02*
G03X1887000I-3000J0D01*
X1893000I3000J0*
G01X1892013Y1817225D02*
G03X1887000Y1815000I-2013J-2225D01*
G01X1892000Y1817500D02*
G03X1892013Y1817225I3000J0D01*
G01X1898000Y1817500D02*
G03X1892000I-3000J0D01*
G01X1892987Y1815275D02*
G03X1898000Y1817500I2013J2225D01*
G01X1893000Y1815000D02*
G03X1892987Y1815275I-3000J-0D01*
G01X1887000Y1815000D02*
G03X1893000I3000J0D01*
G01X1898100Y2221500D02*
G03X1885100I-6500J0D01*
X1898100I6500J0*
G01Y2161300D02*
G03X1885100I-6500J0D01*
X1898100I6500J0*
G01X1882600Y2130000D02*
G03X1877400I-2600J0D01*
X1882600I2600J0*
G01Y2070000D02*
G03X1877400I-2600J0D01*
X1882600I2600J0*
G01Y1990000D02*
G03X1877400I-2600J0D01*
X1882600I2600J0*
G01Y1940000D02*
G03X1877400I-2600J0D01*
X1882600I2600J0*
G01X1883000Y1957500D02*
G03X1877000I-3000J0D01*
X1883000I3000J0*
G01Y1880000D02*
G03X1877000I-3000J0D01*
X1883000I3000J0*
G01X1877600Y2005000D02*
G03X1872400I-2600J0D01*
X1877600I2600J0*
G01X1863000Y1860000D02*
G03X1857000I-3000J0D01*
X1863000I3000J0*
G01X1867950Y1825100D02*
G03X1847650I-10150J0D01*
X1867950I10150J0*
G01X1867350Y2221700D02*
G03X1847050I-10150J0D01*
X1867350I10150J0*
G01X1845500Y2234499D02*
X2046100D01*
X1845500Y2233599D02*
X2046100D01*
X1845500Y2232699D02*
X2046100D01*
X2032946Y2231799D02*
X2046100D01*
X2035698Y2230899D02*
X2046100D01*
X2037184Y2229999D02*
X2046100D01*
X2038253Y2229099D02*
X2046100D01*
X2039079Y2228199D02*
X2046100D01*
X2039732Y2227299D02*
X2046100D01*
X2040248Y2226399D02*
X2046100D01*
X2040652Y2225499D02*
X2046100D01*
X2040957Y2224599D02*
X2046100D01*
X2041171Y2223699D02*
X2046100D01*
X2041301Y2222799D02*
X2046100D01*
X2041350Y2221899D02*
X2046100D01*
X2041318Y2220999D02*
X2046100D01*
X2041206Y2220099D02*
X2046100D01*
X2041011Y2219199D02*
X2046100D01*
X2040727Y2218299D02*
X2046100D01*
X2040346Y2217399D02*
X2046100D01*
X2039856Y2216499D02*
X2046100D01*
X2039235Y2215599D02*
X2046100D01*
X2038452Y2214699D02*
X2046100D01*
X2037445Y2213799D02*
X2046100D01*
X2036077Y2212899D02*
X2046100D01*
X2033838Y2211999D02*
X2046100D01*
X1845500Y2211099D02*
X2046100D01*
X1845500Y2210199D02*
X2046100D01*
X1845500Y2209299D02*
X2046100D01*
X1845500Y2208399D02*
X2046100D01*
X1845500Y2207499D02*
X2046100D01*
X1845500Y2206599D02*
X2046100D01*
X1845500Y2205699D02*
X2046100D01*
X1845500Y2204799D02*
X2046100D01*
X1845500Y2203899D02*
X2046100D01*
X1845500Y2202999D02*
X2046100D01*
X1845500Y2202099D02*
X2046100D01*
X1845500Y2201199D02*
X2046100D01*
X1845500Y2200299D02*
X2046100D01*
X1845500Y2199399D02*
X2046100D01*
X1845500Y2198499D02*
X2046100D01*
X1845500Y2197599D02*
X2046100D01*
X1845500Y2196699D02*
X2046100D01*
X1845500Y2195799D02*
X2046100D01*
X1845500Y2194899D02*
X2046100D01*
X1845500Y2193999D02*
X2046100D01*
X1845500Y2193099D02*
X2046100D01*
X1845500Y2192199D02*
X2046100D01*
X1845500Y2191299D02*
X2046100D01*
X1845500Y2190399D02*
X2046100D01*
X1845500Y2189499D02*
X2046100D01*
X1845500Y2188599D02*
X2046100D01*
X1845500Y2187699D02*
X2046100D01*
X1845500Y2186799D02*
X2046100D01*
X1845500Y2185899D02*
X2046100D01*
X1845500Y2184999D02*
X2046100D01*
X1845500Y2184099D02*
X2046100D01*
X1845500Y2183199D02*
X2046100D01*
X1845500Y2182299D02*
X2046100D01*
X1845500Y2181399D02*
X2046100D01*
X1845500Y2180499D02*
X2046100D01*
X1845500Y2179599D02*
X2046100D01*
X1845500Y2178699D02*
X2046100D01*
X1845500Y2177799D02*
X2046100D01*
X1845500Y2176899D02*
X2046100D01*
X1845500Y2175999D02*
X2046100D01*
X1845500Y2175099D02*
X2046100D01*
X1845500Y2174199D02*
X2046100D01*
X1845500Y2173299D02*
X2046100D01*
X1845500Y2172399D02*
X2046100D01*
X1845500Y2171499D02*
X2046100D01*
X1845500Y2170599D02*
X2046100D01*
X1845500Y2169699D02*
X2046100D01*
X1845500Y2168799D02*
X2046100D01*
X1845500Y2167899D02*
X2046100D01*
X1894726Y2166999D02*
X2046100D01*
X1980822Y2166099D02*
X2046100D01*
X1982290Y2165199D02*
X2046100D01*
X1983173Y2164299D02*
X2046100D01*
X1983767Y2163399D02*
X2046100D01*
X1984163Y2162499D02*
X2046100D01*
X1984400Y2161599D02*
X2046100D01*
X1984497Y2160699D02*
X2046100D01*
X1984460Y2159799D02*
X2046100D01*
X1984286Y2158899D02*
X2046100D01*
X1983964Y2157999D02*
X2046100D01*
X1983464Y2157099D02*
X2046100D01*
X1982725Y2156199D02*
X2046100D01*
X1981587Y2155299D02*
X2046100D01*
X1845500Y2154399D02*
X2046100D01*
X1845500Y2153499D02*
X2046100D01*
X1845500Y2152599D02*
X2046100D01*
X1845500Y2151699D02*
X2046100D01*
X1845500Y2150799D02*
X2046100D01*
X1845500Y2149899D02*
X2046100D01*
X1845500Y2148999D02*
X2046100D01*
X1845500Y2148099D02*
X2046100D01*
X1845500Y2147199D02*
X2046100D01*
X1845500Y2146299D02*
X2046100D01*
X1845500Y2145399D02*
X2046100D01*
X1845500Y2144499D02*
X2046100D01*
X1845500Y2143599D02*
X2046100D01*
X1845500Y2142699D02*
X2046100D01*
X1845500Y2141799D02*
X2046100D01*
X1845500Y2140899D02*
X2046100D01*
X1845500Y2139999D02*
X2046100D01*
X1845500Y2139099D02*
X2046100D01*
X1845500Y2138199D02*
X2046100D01*
X1845500Y2137299D02*
X2046100D01*
X1845500Y2136399D02*
X2046100D01*
X1845500Y2135499D02*
X2046100D01*
X1845500Y2134599D02*
X2046100D01*
X1845500Y2133699D02*
X2046100D01*
X1941080Y2132799D02*
X2046100D01*
X1961776Y2131899D02*
X2046100D01*
X1962401Y2130999D02*
X2046100D01*
X1971499Y2130099D02*
X2046100D01*
X1972473Y2129199D02*
X2046100D01*
X1972892Y2128299D02*
X2046100D01*
X1972998Y2127399D02*
X2046100D01*
X1972828Y2126499D02*
X2046100D01*
X1972321Y2125599D02*
X2046100D01*
X1971074Y2124699D02*
X2046100D01*
X1845500Y2123799D02*
X2046100D01*
X1845500Y2122899D02*
X2046100D01*
X1845500Y2121999D02*
X2046100D01*
X1845500Y2121099D02*
X2046100D01*
X1845500Y2120199D02*
X2046100D01*
X1845500Y2119299D02*
X2046100D01*
X1845500Y2118399D02*
X2046100D01*
X1845500Y2117499D02*
X2046100D01*
X1845500Y2116599D02*
X2046100D01*
X1845500Y2115699D02*
X2046100D01*
X1845500Y2114799D02*
X2046100D01*
X1845500Y2113899D02*
X2046100D01*
X1845500Y2112999D02*
X2046100D01*
X1901535Y2112099D02*
X2046100D01*
X1902307Y2111199D02*
X2046100D01*
X1971080Y2110299D02*
X2046100D01*
X1972323Y2109399D02*
X2046100D01*
X1972829Y2108499D02*
X2046100D01*
X1972998Y2107599D02*
X2046100D01*
X1972891Y2106699D02*
X2046100D01*
X1972471Y2105799D02*
X2046100D01*
X1971494Y2104899D02*
X2046100D01*
X1945328Y2103999D02*
X2046100D01*
X1944821Y2103099D02*
X2046100D01*
X1943574Y2102199D02*
X2046100D01*
X1845500Y2101299D02*
X2046100D01*
X1845500Y2100399D02*
X2046100D01*
X1845500Y2099499D02*
X2046100D01*
X1845500Y2098599D02*
X2046100D01*
X1845500Y2097699D02*
X2046100D01*
X1845500Y2096799D02*
X2046100D01*
X1845500Y2095899D02*
X2046100D01*
X1896660Y2094999D02*
X2046100D01*
X1897539Y2094099D02*
X2046100D01*
X1897918Y2093199D02*
X2046100D01*
X1971928Y2092299D02*
X2046100D01*
X1972654Y2091399D02*
X2046100D01*
X1972958Y2090499D02*
X2046100D01*
X1972973Y2089599D02*
X2046100D01*
X1972703Y2088699D02*
X2046100D01*
X1972038Y2087799D02*
X2046100D01*
X1895439Y2086899D02*
X2046100D01*
X1895097Y2085999D02*
X2046100D01*
X1894298Y2085099D02*
X2046100D01*
X1845500Y2084199D02*
X2046100D01*
X1845500Y2083299D02*
X2046100D01*
X1901003Y2082399D02*
X2046100D01*
X1902125Y2081499D02*
X2046100D01*
X1902530Y2080599D02*
X2046100D01*
X1902582Y2079699D02*
X2046100D01*
X1902306Y2078799D02*
X2046100D01*
X1901531Y2077899D02*
X2046100D01*
X1845500Y2076999D02*
X2046100D01*
X1845500Y2076099D02*
X2046100D01*
X1845500Y2075199D02*
X2046100D01*
X1961331Y2074299D02*
X2046100D01*
X1992293Y2073399D02*
X2046100D01*
X1993251Y2072499D02*
X2046100D01*
X1993775Y2071599D02*
X2046100D01*
X1994040Y2070699D02*
X2046100D01*
X1994095Y2069799D02*
X2046100D01*
X1993949Y2068899D02*
X2046100D01*
X1993578Y2067999D02*
X2046100D01*
X1992897Y2067099D02*
X2046100D01*
X1991536Y2066199D02*
X2046100D01*
X1845500Y2065299D02*
X2046100D01*
X1960949Y2064399D02*
X2046100D01*
X1992138Y2063499D02*
X2046100D01*
X1993171Y2062599D02*
X2046100D01*
X1993732Y2061699D02*
X2046100D01*
X1994021Y2060799D02*
X2046100D01*
X1994099Y2059899D02*
X2046100D01*
X1993976Y2058999D02*
X2046100D01*
X1993632Y2058099D02*
X2046100D01*
X1992994Y2057199D02*
X2046100D01*
X1991764Y2056299D02*
X2046100D01*
X1845500Y2055399D02*
X2046100D01*
X1960109Y2054499D02*
X2046100D01*
X1991965Y2053599D02*
X2046100D01*
X1993087Y2052699D02*
X2046100D01*
X1993684Y2051799D02*
X2046100D01*
X1994000Y2050899D02*
X2046100D01*
X1994100Y2049999D02*
X2046100D01*
X1994000Y2049099D02*
X2046100D01*
X1993683Y2048199D02*
X2046100D01*
X1993084Y2047299D02*
X2046100D01*
X1991960Y2046399D02*
X2046100D01*
X1845500Y2045499D02*
X2046100D01*
X1845500Y2044599D02*
X2046100D01*
X1991769Y2043699D02*
X2046100D01*
X1992996Y2042799D02*
X2046100D01*
X1993634Y2041899D02*
X2046100D01*
X1993977Y2040999D02*
X2046100D01*
X1994099Y2040099D02*
X2046100D01*
X1994021Y2039199D02*
X2046100D01*
X1993730Y2038299D02*
X2046100D01*
X1993169Y2037399D02*
X2046100D01*
X1992133Y2036499D02*
X2046100D01*
X1960937Y2035599D02*
X2046100D01*
X1845500Y2034699D02*
X2046100D01*
X1991543Y2033799D02*
X2046100D01*
X1992900Y2032899D02*
X2046100D01*
X1993580Y2031999D02*
X2046100D01*
X1993950Y2031099D02*
X2046100D01*
X1994095Y2030199D02*
X2046100D01*
X1994040Y2029299D02*
X2046100D01*
X1993774Y2028399D02*
X2046100D01*
X1993249Y2027499D02*
X2046100D01*
X1992289Y2026599D02*
X2046100D01*
X1961322Y2025699D02*
X2046100D01*
X1845500Y2024799D02*
X2046100D01*
X1991269Y2023899D02*
X2046100D01*
X1992796Y2022999D02*
X2046100D01*
X1993522Y2022099D02*
X2046100D01*
X1993921Y2021199D02*
X2046100D01*
X1994089Y2020299D02*
X2046100D01*
X1994056Y2019399D02*
X2046100D01*
X1993815Y2018499D02*
X2046100D01*
X1993323Y2017599D02*
X2046100D01*
X1992431Y2016699D02*
X2046100D01*
X1961612Y2015799D02*
X2046100D01*
X1957998Y2014899D02*
X2046100D01*
X1990906Y2013999D02*
X2046100D01*
X1992685Y2013099D02*
X2046100D01*
X1993461Y2012199D02*
X2046100D01*
X1993889Y2011299D02*
X2046100D01*
X1994081Y2010399D02*
X2046100D01*
X1994069Y2009499D02*
X2046100D01*
X1993853Y2008599D02*
X2046100D01*
X1993393Y2007699D02*
X2046100D01*
X1992562Y2006799D02*
X2046100D01*
X1961852Y2005899D02*
X2046100D01*
X1877600Y2004999D02*
X2046100D01*
X1990104Y2004099D02*
X2046100D01*
X1992565Y2003199D02*
X2046100D01*
X1993395Y2002299D02*
X2046100D01*
X1993854Y2001399D02*
X2046100D01*
X1994070Y2000499D02*
X2046100D01*
X1994080Y1999599D02*
X2046100D01*
X1993888Y1998699D02*
X2046100D01*
X1993459Y1997799D02*
X2046100D01*
X1992682Y1996899D02*
X2046100D01*
X1990894Y1995999D02*
X2046100D01*
X1967998Y1995099D02*
X2046100D01*
X1967891Y1994199D02*
X2046100D01*
X1992435Y1993299D02*
X2046100D01*
X1993325Y1992399D02*
X2046100D01*
X1993816Y1991499D02*
X2046100D01*
X1994056Y1990599D02*
X2046100D01*
X1994089Y1989699D02*
X2046100D01*
X1993920Y1988799D02*
X2046100D01*
X1993521Y1987899D02*
X2046100D01*
X1992793Y1986999D02*
X2046100D01*
X1991261Y1986099D02*
X2046100D01*
X1845500Y1985199D02*
X2046100D01*
X1961331Y1984299D02*
X2046100D01*
X1992293Y1983399D02*
X2046100D01*
X1993251Y1982499D02*
X2046100D01*
X1993775Y1981599D02*
X2046100D01*
X1994040Y1980699D02*
X2046100D01*
X1994095Y1979799D02*
X2046100D01*
X1993949Y1978899D02*
X2046100D01*
X1993578Y1977999D02*
X2046100D01*
X1992897Y1977099D02*
X2046100D01*
X1991536Y1976199D02*
X2046100D01*
X1845500Y1975299D02*
X2046100D01*
X1845500Y1974399D02*
X2046100D01*
X1845500Y1973499D02*
X2046100D01*
X1845500Y1972599D02*
X2046100D01*
X1845500Y1971699D02*
X2046100D01*
X1845500Y1970799D02*
X2046100D01*
X1845500Y1969899D02*
X2046100D01*
X1845500Y1968999D02*
X2046100D01*
X1845500Y1968099D02*
X2046100D01*
X1845500Y1967199D02*
X2046100D01*
X1845500Y1966299D02*
X2046100D01*
X1845500Y1965399D02*
X2046100D01*
X1845500Y1964499D02*
X2046100D01*
X1845500Y1963599D02*
X2046100D01*
X1845500Y1962699D02*
X2046100D01*
X1845500Y1961799D02*
X2046100D01*
X1845500Y1960899D02*
X2046100D01*
X1881660Y1959999D02*
X2046100D01*
X1882539Y1959099D02*
X2046100D01*
X1882918Y1958199D02*
X2046100D01*
X1882993Y1957299D02*
X2046100D01*
X1882791Y1956399D02*
X2046100D01*
X1915089Y1955499D02*
X2046100D01*
X1917144Y1954599D02*
X2046100D01*
X1917750Y1953699D02*
X2046100D01*
X1946080Y1952799D02*
X2046100D01*
X1947323Y1951899D02*
X2046100D01*
X1947829Y1950999D02*
X2046100D01*
X1947998Y1950099D02*
X2046100D01*
X1947891Y1949199D02*
X2046100D01*
X1947471Y1948299D02*
X2046100D01*
X2001802Y1947399D02*
X2046100D01*
X2002599Y1946499D02*
X2046100D01*
X2002940Y1945599D02*
X2046100D01*
X2002985Y1944699D02*
X2046100D01*
X2002749Y1943799D02*
X2046100D01*
X2002141Y1942899D02*
X2046100D01*
X1923580Y1941999D02*
X2046100D01*
X1923950Y1941099D02*
X2046100D01*
X1924095Y1940199D02*
X2046100D01*
X1924040Y1939299D02*
X2046100D01*
X1923774Y1938399D02*
X2046100D01*
X1923249Y1937499D02*
X2046100D01*
X1922289Y1936599D02*
X2046100D01*
X1914399Y1935699D02*
X2046100D01*
X1991928Y1934799D02*
X2046100D01*
X1992654Y1933899D02*
X2046100D01*
X1992958Y1932999D02*
X2046100D01*
X1992973Y1932099D02*
X2046100D01*
X1992703Y1931199D02*
X2046100D01*
X1992038Y1930299D02*
X2046100D01*
X1924460Y1929399D02*
X2046100D01*
X1924242Y1928499D02*
X2046100D01*
X1986499Y1927599D02*
X2046100D01*
X1987473Y1926699D02*
X2046100D01*
X1987892Y1925799D02*
X2046100D01*
X1987998Y1924899D02*
X2046100D01*
X1987828Y1923999D02*
X2046100D01*
X1987321Y1923099D02*
X2046100D01*
X1986074Y1922199D02*
X2046100D01*
X1924309Y1921299D02*
X2046100D01*
X1924482Y1920399D02*
X2046100D01*
X1924472Y1919499D02*
X2046100D01*
X1924276Y1918599D02*
X2046100D01*
X1923867Y1917699D02*
X2046100D01*
X1923163Y1916799D02*
X2046100D01*
X1921852Y1915899D02*
X2046100D01*
X1845500Y1914999D02*
X2046100D01*
X1921858Y1914099D02*
X2046100D01*
X1923165Y1913199D02*
X2046100D01*
X1923869Y1912299D02*
X2046100D01*
X1924277Y1911399D02*
X2046100D01*
X1924472Y1910499D02*
X2046100D01*
X1924482Y1909599D02*
X2046100D01*
X1924308Y1908699D02*
X2046100D01*
X1962548Y1907799D02*
X2046100D01*
X1968567Y1906899D02*
X2046100D01*
X1969412Y1905999D02*
X2046100D01*
X1969799Y1905099D02*
X2046100D01*
X1969898Y1904199D02*
X2046100D01*
X1969739Y1903299D02*
X2046100D01*
X1969274Y1902399D02*
X2046100D01*
X1969551Y1901499D02*
X2046100D01*
X1970058Y1900599D02*
X2046100D01*
X1970278Y1899699D02*
X2046100D01*
X1970265Y1898799D02*
X2046100D01*
X1970016Y1897899D02*
X2046100D01*
X1969468Y1896999D02*
X2046100D01*
X1969347Y1896099D02*
X2046100D01*
X1969771Y1895199D02*
X2046100D01*
X1969900Y1894299D02*
X2046100D01*
X1969770Y1893399D02*
X2046100D01*
X1969345Y1892499D02*
X2046100D01*
X1968926Y1891599D02*
X2046100D01*
X1969578Y1890699D02*
X2046100D01*
X1969861Y1889799D02*
X2046100D01*
X1969875Y1888899D02*
X2046100D01*
X1969623Y1887999D02*
X2046100D01*
X1969023Y1887099D02*
X2046100D01*
X1969759Y1886199D02*
X2046100D01*
X1970159Y1885299D02*
X2046100D01*
X1970299Y1884399D02*
X2046100D01*
X1970210Y1883499D02*
X2046100D01*
X1978999Y1882599D02*
X2046100D01*
X1979973Y1881699D02*
X2046100D01*
X1980392Y1880799D02*
X2046100D01*
X1980498Y1879899D02*
X2046100D01*
X1980328Y1878999D02*
X2046100D01*
X1979821Y1878099D02*
X2046100D01*
X1978574Y1877199D02*
X2046100D01*
X1845500Y1876299D02*
X2046100D01*
X1845500Y1875399D02*
X2046100D01*
X1845500Y1874499D02*
X2046100D01*
X1845500Y1873599D02*
X2046100D01*
X1845500Y1872699D02*
X2046100D01*
X1845500Y1871799D02*
X2046100D01*
X1845500Y1870899D02*
X2046100D01*
X1845500Y1869999D02*
X2046100D01*
X1845500Y1869099D02*
X2046100D01*
X1845500Y1868199D02*
X2046100D01*
X1845500Y1867299D02*
X2046100D01*
X1845500Y1866399D02*
X2046100D01*
X1845500Y1865499D02*
X2046100D01*
X1845500Y1864599D02*
X2046100D01*
X1845500Y1863699D02*
X2046100D01*
X1861080Y1862799D02*
X2046100D01*
X1862323Y1861899D02*
X2046100D01*
X1862829Y1860999D02*
X2046100D01*
X1862998Y1860099D02*
X2046100D01*
X1862891Y1859199D02*
X2046100D01*
X1862471Y1858299D02*
X2046100D01*
X1861494Y1857399D02*
X2046100D01*
X1845500Y1856499D02*
X2046100D01*
X1845500Y1855599D02*
X2046100D01*
X1845500Y1854699D02*
X2046100D01*
X1845500Y1853799D02*
X2046100D01*
X1845500Y1852899D02*
X2046100D01*
X1845500Y1851999D02*
X2046100D01*
X1845500Y1851099D02*
X2046100D01*
X1982772Y1850199D02*
X2046100D01*
X1983629Y1849299D02*
X2046100D01*
X1984049Y1848399D02*
X2046100D01*
X1984196Y1847499D02*
X2046100D01*
X1984105Y1846599D02*
X2046100D01*
X1983754Y1845699D02*
X2046100D01*
X1983029Y1844799D02*
X2046100D01*
X1845500Y1843899D02*
X2046100D01*
X1845500Y1842999D02*
X2046100D01*
X1986987Y1842099D02*
X2046100D01*
X1987702Y1841199D02*
X2046100D01*
X1988046Y1840299D02*
X2046100D01*
X1988132Y1839399D02*
X2046100D01*
X1987980Y1838499D02*
X2046100D01*
X1987553Y1837599D02*
X2046100D01*
X1986682Y1836699D02*
X2046100D01*
X1944654Y1835799D02*
X2046100D01*
X2035646Y1834899D02*
X2046100D01*
X2038398Y1833999D02*
X2046100D01*
X2039884Y1833099D02*
X2046100D01*
X2040953Y1832199D02*
X2046100D01*
X2041779Y1831299D02*
X2046100D01*
X2042432Y1830399D02*
X2046100D01*
X2042948Y1829499D02*
X2046100D01*
X2043352Y1828599D02*
X2046100D01*
X2043657Y1827699D02*
X2046100D01*
X2043871Y1826799D02*
X2046100D01*
X2044001Y1825899D02*
X2046100D01*
X2044050Y1824999D02*
X2046100D01*
X2044018Y1824099D02*
X2046100D01*
X2043906Y1823199D02*
X2046100D01*
X2043711Y1822299D02*
X2046100D01*
X2043427Y1821399D02*
X2046100D01*
X2043046Y1820499D02*
X2046100D01*
X2042556Y1819599D02*
X2046100D01*
X2041935Y1818699D02*
X2046100D01*
X2041152Y1817799D02*
X2046100D01*
X2040145Y1816899D02*
X2046100D01*
X2038777Y1815999D02*
X2046100D01*
X2036538Y1815099D02*
X2046100D01*
X1892891Y1814199D02*
X2046100D01*
X1892471Y1813299D02*
X2046100D01*
X1891494Y1812399D02*
X2046100D01*
X1944768Y1834899D02*
X2032154D01*
X1896798Y1815099D02*
X2031262D01*
X1858219Y2231799D02*
X2029454D01*
X1944745Y1833999D02*
X2029402D01*
X1897597Y1815999D02*
X2029023D01*
X1860184Y2211999D02*
X2028562D01*
X1985244Y1833099D02*
X2027916D01*
X1897939Y1816899D02*
X2027655D01*
X2002041Y1832199D02*
X2026847D01*
X1861490Y2230899D02*
X2026702D01*
X1897985Y1817799D02*
X2026648D01*
X1862256Y2212899D02*
X2026323D01*
X2002704Y1831299D02*
X2026021D01*
X1982273Y1818699D02*
X2025865D01*
X2002973Y1830399D02*
X2025368D01*
X1983406Y1819599D02*
X2025244D01*
X1863044Y2229999D02*
X2025216D01*
X1863571Y2213799D02*
X2024955D01*
X2002958Y1829499D02*
X2024852D01*
X1983942Y1820499D02*
X2024754D01*
X2002653Y1828599D02*
X2024448D01*
X1984174Y1821399D02*
X2024373D01*
X1864149Y2229099D02*
X2024147D01*
X2001925Y1827699D02*
X2024143D01*
X1984162Y1822299D02*
X2024089D01*
X1979493Y2214699D02*
X2023948D01*
X1986599Y1826799D02*
X2023929D01*
X1983905Y1823199D02*
X2023894D01*
X1867919Y1825899D02*
X2023799D01*
X1983331Y1824099D02*
X2023782D01*
X1982082Y1824999D02*
X2023750D01*
X1864997Y2228199D02*
X2023321D01*
X1981745Y2215599D02*
X2023165D01*
X1894537Y2227299D02*
X2022668D01*
X1982823Y2216499D02*
X2022544D01*
X1980576Y2226399D02*
X2022152D01*
X1983529Y2217399D02*
X2022054D01*
X1982166Y2225499D02*
X2021748D01*
X1984007Y2218299D02*
X2021673D01*
X1983092Y2224599D02*
X2021443D01*
X1984312Y2219199D02*
X2021389D01*
X1983712Y2223699D02*
X2021229D01*
X1984470Y2220099D02*
X2021194D01*
X1984128Y2222799D02*
X2021099D01*
X1984493Y2220999D02*
X2021082D01*
X1984381Y2221899D02*
X2021050D01*
X1946494Y1947399D02*
X1998198D01*
X1987514Y1827699D02*
X1998075D01*
X1987049Y1832199D02*
X1997959D01*
X1922900Y1942899D02*
X1997859D01*
X1845500Y1946499D02*
X1997401D01*
X1987962Y1828599D02*
X1997347D01*
X1987733Y1831299D02*
X1997296D01*
X1921543Y1943799D02*
X1997251D01*
X1845500Y1945599D02*
X1997060D01*
X1988130Y1829499D02*
X1997042D01*
X1988059Y1830399D02*
X1997027D01*
X1845500Y1944699D02*
X1997015D01*
X1961858Y2004099D02*
X1989896D01*
X1967829Y1995999D02*
X1989106D01*
X1962064Y2013999D02*
X1989094D01*
X1962243Y1986099D02*
X1988739D01*
X1962247Y2023899D02*
X1988731D01*
X1962408Y2066199D02*
X1988464D01*
X1962408Y1976199D02*
X1988464D01*
X1962412Y2033799D02*
X1988457D01*
X1962559Y2056299D02*
X1988236D01*
X1962563Y2043699D02*
X1988231D01*
X1845500Y1934799D02*
X1988072D01*
X1962698Y2046399D02*
X1988040D01*
X1962702Y2053599D02*
X1988035D01*
X1924490Y1930299D02*
X1987962D01*
X1962827Y2036499D02*
X1987867D01*
X1962830Y2063499D02*
X1987862D01*
X1962946Y2026599D02*
X1987711D01*
X1962949Y2073399D02*
X1987707D01*
X1962949Y1983399D02*
X1987707D01*
X1963058Y2016699D02*
X1987569D01*
X1967471Y1993299D02*
X1987565D01*
X1963163Y2006799D02*
X1987438D01*
X1963165Y2003199D02*
X1987435D01*
X1922247Y1933899D02*
X1987346D01*
X1967323Y1996899D02*
X1987318D01*
X1963263Y2013099D02*
X1987315D01*
X1924337Y1931199D02*
X1987297D01*
X1963353Y1986999D02*
X1987207D01*
X1963355Y2022999D02*
X1987204D01*
X1963440Y2067099D02*
X1987103D01*
X1963440Y1977099D02*
X1987103D01*
X1963442Y2032899D02*
X1987100D01*
X1923355Y1932999D02*
X1987042D01*
X1923981Y1932099D02*
X1987027D01*
X1963522Y2057199D02*
X1987006D01*
X1963524Y2042799D02*
X1987004D01*
X1963599Y2047299D02*
X1986916D01*
X1963601Y2052699D02*
X1986913D01*
X1963672Y2037399D02*
X1986831D01*
X1963674Y2062599D02*
X1986829D01*
X1963741Y2027499D02*
X1986751D01*
X1963743Y2072499D02*
X1986749D01*
X1963743Y1982499D02*
X1986749D01*
X1963806Y2017599D02*
X1986677D01*
X1966494Y1992399D02*
X1986675D01*
X1963867Y2007699D02*
X1986607D01*
X1963869Y2002299D02*
X1986605D01*
X1966080Y1997799D02*
X1986541D01*
X1963926Y2012199D02*
X1986539D01*
X1963979Y1987899D02*
X1986479D01*
X1963981Y2022099D02*
X1986478D01*
X1964030Y2067999D02*
X1986422D01*
X1964030Y1977999D02*
X1986422D01*
X1964032Y2031999D02*
X1986420D01*
X1964079Y2058099D02*
X1986368D01*
X1964080Y2041899D02*
X1986366D01*
X1964124Y2048199D02*
X1986317D01*
X1964125Y2051799D02*
X1986316D01*
X1964166Y2038299D02*
X1986270D01*
X1964167Y2061699D02*
X1986268D01*
X1964205Y2028399D02*
X1986226D01*
X1964206Y2071599D02*
X1986225D01*
X1964206Y1981599D02*
X1986225D01*
X1964242Y2018499D02*
X1986185D01*
X1964243Y1991499D02*
X1986184D01*
X1964276Y2008599D02*
X1986147D01*
X1964277Y2001399D02*
X1986146D01*
X1964308Y1998699D02*
X1986112D01*
X1964309Y2011299D02*
X1986111D01*
X1964337Y1988799D02*
X1986080D01*
X1964337Y2021199D02*
X1986079D01*
X1964363Y2068899D02*
X1986051D01*
X1964363Y1978899D02*
X1986051D01*
X1964364Y2031099D02*
X1986050D01*
X1964387Y2058999D02*
X1986024D01*
X1964388Y2040999D02*
X1986023D01*
X1964409Y2049099D02*
X1986000D01*
X1964409Y2050899D02*
X1986000D01*
X1964428Y2039199D02*
X1985979D01*
X1964429Y2060799D02*
X1985979D01*
X1964445Y2029299D02*
X1985960D01*
X1964445Y2070699D02*
X1985960D01*
X1964445Y1980699D02*
X1985960D01*
X1964460Y2019399D02*
X1985944D01*
X1964460Y1990599D02*
X1985944D01*
X1964472Y2009499D02*
X1985931D01*
X1964472Y2000499D02*
X1985930D01*
X1964482Y1999599D02*
X1985920D01*
X1964482Y2010399D02*
X1985919D01*
X1964490Y1989699D02*
X1985911D01*
X1964490Y2020299D02*
X1985911D01*
X1964495Y2069799D02*
X1985905D01*
X1964495Y1979799D02*
X1985905D01*
X1964496Y2030199D02*
X1985905D01*
X1964499Y2059899D02*
X1985901D01*
X1964499Y2040099D02*
X1985901D01*
X1964500Y2049999D02*
X1985900D01*
X1977370Y1833099D02*
X1984088D01*
X1923926Y1922199D02*
X1983926D01*
X1923806Y1927599D02*
X1983501D01*
X1978725Y1826799D02*
X1982733D01*
X1923263Y1923099D02*
X1982679D01*
X1978808Y1836699D02*
X1982650D01*
X1923058Y1926699D02*
X1982527D01*
X1979113Y1842099D02*
X1982345D01*
X1979175Y1832199D02*
X1982283D01*
X1922064Y1923999D02*
X1982172D01*
X1921612Y1925799D02*
X1982108D01*
X1845500Y1924899D02*
X1982002D01*
X1979640Y1827699D02*
X1981818D01*
X1979679Y1837599D02*
X1981779D01*
X1979828Y1841199D02*
X1981630D01*
X1979859Y1831299D02*
X1981599D01*
X1980088Y1828599D02*
X1981370D01*
X1980106Y1838499D02*
X1981352D01*
X1980172Y1840299D02*
X1981286D01*
X1980185Y1830399D02*
X1981273D01*
X1980256Y1829499D02*
X1981202D01*
X1980258Y1839399D02*
X1981200D01*
X1974208Y1824999D02*
X1979377D01*
X1974399Y1818699D02*
X1979185D01*
X1974898Y1850199D02*
X1978687D01*
X1975155Y1844799D02*
X1978430D01*
X1975457Y1824099D02*
X1978128D01*
X1975532Y1819599D02*
X1978053D01*
X1975755Y1849299D02*
X1977830D01*
X1975880Y1845699D02*
X1977704D01*
X1976031Y1823199D02*
X1977553D01*
X1976068Y1820499D02*
X1977516D01*
X1976175Y1848399D02*
X1977409D01*
X1976231Y1846599D02*
X1977353D01*
X1864549Y2214699D02*
X1977307D01*
X1976288Y1822299D02*
X1977296D01*
X1976300Y1821399D02*
X1977284D01*
X1976322Y1847499D02*
X1977262D01*
X1881074Y1877199D02*
X1976426D01*
X1895872Y2226399D02*
X1976224D01*
X1969496Y1833099D02*
X1976214D01*
X1969873Y1882599D02*
X1976001D01*
X1895984Y2166099D02*
X1975978D01*
X1894097Y2155299D02*
X1975213D01*
X1882321Y1878099D02*
X1975179D01*
X1894325Y2215599D02*
X1975055D01*
X1969189Y1881699D02*
X1975027D01*
X1970851Y1826799D02*
X1974859D01*
X1970934Y1836699D02*
X1974776D01*
X1882828Y1878999D02*
X1974672D01*
X1896724Y2225499D02*
X1974634D01*
X1967537Y1880799D02*
X1974608D01*
X1896801Y2165199D02*
X1974510D01*
X1882998Y1879899D02*
X1974502D01*
X1971239Y1842099D02*
X1974471D01*
X1971301Y1832199D02*
X1974409D01*
X1895628Y2156199D02*
X1974075D01*
X1895752Y2216499D02*
X1973977D01*
X1971766Y1827699D02*
X1973944D01*
X1971805Y1837599D02*
X1973905D01*
X1971954Y1841199D02*
X1973756D01*
X1971985Y1831299D02*
X1973725D01*
X1897314Y2224599D02*
X1973708D01*
X1897367Y2164299D02*
X1973627D01*
X1972214Y1828599D02*
X1973496D01*
X1972232Y1838499D02*
X1973478D01*
X1972298Y1840299D02*
X1973412D01*
X1972311Y1830399D02*
X1973399D01*
X1896560Y2157099D02*
X1973336D01*
X1972382Y1829499D02*
X1973328D01*
X1972384Y1839399D02*
X1973326D01*
X1896643Y2217399D02*
X1973271D01*
X1897717Y2223699D02*
X1973088D01*
X1897752Y2163399D02*
X1973033D01*
X1897199Y2157999D02*
X1972836D01*
X1897257Y2218299D02*
X1972793D01*
X1897969Y2222799D02*
X1972672D01*
X1897989Y2162499D02*
X1972637D01*
X1897640Y2158899D02*
X1972514D01*
X1897679Y2219199D02*
X1972488D01*
X1898088Y2221899D02*
X1972419D01*
X1898093Y2161599D02*
X1972400D01*
X1897924Y2159799D02*
X1972340D01*
X1897947Y2220099D02*
X1972330D01*
X1898081Y2220999D02*
X1972307D01*
X1898072Y2160699D02*
X1972303D01*
X1958460Y1824999D02*
X1971503D01*
X1958651Y1818699D02*
X1971311D01*
X1967024Y1850199D02*
X1970813D01*
X1967281Y1844799D02*
X1970555D01*
X1967019Y1824099D02*
X1970254D01*
X1967114Y1819599D02*
X1970179D01*
X1967881Y1849299D02*
X1969956D01*
X1968006Y1845699D02*
X1969830D01*
X1967715Y1823199D02*
X1969679D01*
X1967758Y1820499D02*
X1969642D01*
X1968301Y1848399D02*
X1969535D01*
X1968357Y1846599D02*
X1969479D01*
X1968010Y1822299D02*
X1969422D01*
X1968023Y1821399D02*
X1969410D01*
X1968448Y1847499D02*
X1969388D01*
X1901074Y2124699D02*
X1968926D01*
X1902583Y2110299D02*
X1968920D01*
X1945498Y2104899D02*
X1968506D01*
X1962598Y2130099D02*
X1968501D01*
X1961622Y1833099D02*
X1968340D01*
X1921215Y2092299D02*
X1968072D01*
X1921384Y2087799D02*
X1967962D01*
X1921773Y2125599D02*
X1967679D01*
X1902530Y2109399D02*
X1967677D01*
X1945392Y2105799D02*
X1967529D01*
X1962473Y2129199D02*
X1967527D01*
X1922192Y2091399D02*
X1967346D01*
X1922251Y2088699D02*
X1967297D01*
X1922399Y2126499D02*
X1967172D01*
X1902123Y2108499D02*
X1967171D01*
X1944973Y2106699D02*
X1967109D01*
X1961966Y2128299D02*
X1967108D01*
X1922552Y2090499D02*
X1967042D01*
X1922569Y2089599D02*
X1967027D01*
X1941494Y2127399D02*
X1967002D01*
X1943999Y2107599D02*
X1967002D01*
X1962977Y1826799D02*
X1966985D01*
X1963060Y1836699D02*
X1966902D01*
X1963365Y1842099D02*
X1966597D01*
X1963427Y1832199D02*
X1966535D01*
X1963892Y1827699D02*
X1966070D01*
X1963931Y1837599D02*
X1966031D01*
X1964080Y1841199D02*
X1965882D01*
X1962537Y1880799D02*
X1965863D01*
X1964111Y1831299D02*
X1965851D01*
X1964340Y1828599D02*
X1965622D01*
X1964358Y1838499D02*
X1965604D01*
X1964424Y1840299D02*
X1965538D01*
X1964437Y1830399D02*
X1965525D01*
X1964508Y1829499D02*
X1965454D01*
X1964510Y1839399D02*
X1965452D01*
X1964191Y1906899D02*
X1964833D01*
X1964189Y1881699D02*
X1964211D01*
X1959709Y1824099D02*
X1962943D01*
X1959149Y1850199D02*
X1962939D01*
X1959784Y1819599D02*
X1962848D01*
X1959407Y1844799D02*
X1962681D01*
X1960283Y1823199D02*
X1962247D01*
X1960320Y1820499D02*
X1962204D01*
X1962059Y1995999D02*
X1962171D01*
X1961619Y1994199D02*
X1962109D01*
X1960007Y1849299D02*
X1962082D01*
X1845500Y1995099D02*
X1962002D01*
X1960132Y1845699D02*
X1961956D01*
X1960540Y1822299D02*
X1961953D01*
X1960552Y1821399D02*
X1961940D01*
X1960427Y1848399D02*
X1961661D01*
X1960483Y1846599D02*
X1961605D01*
X1960574Y1847499D02*
X1961514D01*
X1882892Y1880799D02*
X1960863D01*
X1923925Y1907799D02*
X1960852D01*
X1953748Y1833099D02*
X1960466D01*
X1940109Y2054499D02*
X1959891D01*
X1882473Y1881699D02*
X1959211D01*
X1923261Y1906899D02*
X1959209D01*
X1955103Y1826799D02*
X1959111D01*
X1940937Y2035599D02*
X1959063D01*
X1940949Y2064399D02*
X1959051D01*
X1955186Y1836699D02*
X1959028D01*
X1922793Y1896999D02*
X1958932D01*
X1910361Y1891599D02*
X1958929D01*
X1932144Y1887099D02*
X1958851D01*
X1923816Y1901499D02*
X1958849D01*
X1955491Y1842099D02*
X1958723D01*
X1941322Y2025699D02*
X1958678D01*
X1941331Y2074299D02*
X1958669D01*
X1941331Y1984299D02*
X1958669D01*
X1955553Y1832199D02*
X1958661D01*
X1923325Y1902399D02*
X1958643D01*
X1932750Y1886199D02*
X1958641D01*
X1910500Y1892499D02*
X1958583D01*
X1921261Y1896099D02*
X1958582D01*
X1931798Y1882599D02*
X1958527D01*
X1922059Y1905999D02*
X1958526D01*
X1957892Y2015799D02*
X1958388D01*
X1923521Y1897899D02*
X1958384D01*
X1909899Y1890699D02*
X1958383D01*
X1941619Y1994199D02*
X1958381D01*
X1930089Y1887999D02*
X1958343D01*
X1924056Y1900599D02*
X1958342D01*
X1922435Y1903299D02*
X1958242D01*
X1932985Y1885299D02*
X1958241D01*
X1942323Y2131899D02*
X1958224D01*
X1910362Y1893399D02*
X1958215D01*
X1908810Y1895199D02*
X1958214D01*
X1956018Y1827699D02*
X1958196D01*
X1932597Y1883499D02*
X1958190D01*
X1917998Y1905099D02*
X1958190D01*
X1956057Y1837599D02*
X1958157D01*
X1941852Y2005899D02*
X1958148D01*
X1941858Y2004099D02*
X1958142D01*
X1923920Y1898799D02*
X1958135D01*
X1908805Y1889799D02*
X1958135D01*
X1845500Y1888899D02*
X1958122D01*
X1924089Y1899699D02*
X1958122D01*
X1917891Y1904199D02*
X1958101D01*
X1932939Y1884399D02*
X1958101D01*
X1909901Y1894299D02*
X1958100D01*
X1942471Y2128299D02*
X1958034D01*
X1956206Y1841199D02*
X1958008D01*
X1956237Y1831299D02*
X1957977D01*
X1942059Y1995999D02*
X1957941D01*
X1957828Y2013999D02*
X1957936D01*
X1942243Y1986099D02*
X1957757D01*
X1942247Y2023899D02*
X1957753D01*
X1956466Y1828599D02*
X1957748D01*
X1956484Y1838499D02*
X1957730D01*
X1956550Y1840299D02*
X1957664D01*
X1956563Y1830399D02*
X1957651D01*
X1942829Y2130999D02*
X1957599D01*
X1942408Y2066199D02*
X1957592D01*
X1942408Y1976199D02*
X1957592D01*
X1942412Y2033799D02*
X1957588D01*
X1956634Y1829499D02*
X1957580D01*
X1956636Y1839399D02*
X1957578D01*
X1942891Y2129199D02*
X1957527D01*
X1942559Y2056299D02*
X1957441D01*
X1942563Y2043699D02*
X1957437D01*
X1942998Y2130099D02*
X1957402D01*
X1942698Y2046399D02*
X1957302D01*
X1942702Y2053599D02*
X1957298D01*
X1942827Y2036499D02*
X1957173D01*
X1942830Y2063499D02*
X1957170D01*
X1942946Y2026599D02*
X1957054D01*
X1942949Y2073399D02*
X1957051D01*
X1942949Y1983399D02*
X1957051D01*
X1943061Y1993299D02*
X1956939D01*
X1943163Y2006799D02*
X1956837D01*
X1943165Y2003199D02*
X1956835D01*
X1943261Y1996899D02*
X1956739D01*
X1943353Y1986999D02*
X1956647D01*
X1943355Y2022999D02*
X1956645D01*
X1943440Y2067099D02*
X1956560D01*
X1943440Y1977099D02*
X1956560D01*
X1943442Y2032899D02*
X1956558D01*
X1943522Y2057199D02*
X1956478D01*
X1943524Y2042799D02*
X1956476D01*
X1943599Y2047299D02*
X1956401D01*
X1943601Y2052699D02*
X1956399D01*
X1943672Y2037399D02*
X1956328D01*
X1943674Y2062599D02*
X1956326D01*
X1943741Y2027499D02*
X1956259D01*
X1943743Y2072499D02*
X1956257D01*
X1943743Y1982499D02*
X1956257D01*
X1943807Y1992399D02*
X1956193D01*
X1943867Y2007699D02*
X1956133D01*
X1943869Y2002299D02*
X1956131D01*
X1943925Y1997799D02*
X1956075D01*
X1956074Y2012199D02*
X1956074D01*
X1943979Y1987899D02*
X1956021D01*
X1943981Y2022099D02*
X1956019D01*
X1944030Y2067999D02*
X1955970D01*
X1944030Y1977999D02*
X1955970D01*
X1944032Y2031999D02*
X1955968D01*
X1944079Y2058099D02*
X1955921D01*
X1944080Y2041899D02*
X1955920D01*
X1944124Y2048199D02*
X1955876D01*
X1944125Y2051799D02*
X1955875D01*
X1944166Y2038299D02*
X1955834D01*
X1944167Y2061699D02*
X1955833D01*
X1944205Y2028399D02*
X1955795D01*
X1944206Y2071599D02*
X1955794D01*
X1944206Y1981599D02*
X1955794D01*
X1944242Y2018499D02*
X1955758D01*
X1944243Y1991499D02*
X1955757D01*
X1950586Y1824999D02*
X1955755D01*
X1944276Y2008599D02*
X1955724D01*
X1944277Y2001399D02*
X1955723D01*
X1944308Y1998699D02*
X1955692D01*
X1944309Y2011299D02*
X1955691D01*
X1944337Y1988799D02*
X1955663D01*
X1944337Y2021199D02*
X1955663D01*
X1944363Y2068899D02*
X1955637D01*
X1944363Y1978899D02*
X1955637D01*
X1944364Y2031099D02*
X1955636D01*
X1944387Y2058999D02*
X1955613D01*
X1944388Y2040999D02*
X1955612D01*
X1944409Y2049099D02*
X1955591D01*
X1944409Y2050899D02*
X1955591D01*
X1944428Y2039199D02*
X1955572D01*
X1944429Y2060799D02*
X1955571D01*
X1950777Y1818699D02*
X1955563D01*
X1944445Y2029299D02*
X1955555D01*
X1944445Y2070699D02*
X1955555D01*
X1944445Y1980699D02*
X1955555D01*
X1944460Y2019399D02*
X1955540D01*
X1944460Y1990599D02*
X1955540D01*
X1944472Y2009499D02*
X1955528D01*
X1944472Y2000499D02*
X1955528D01*
X1944482Y1999599D02*
X1955518D01*
X1944482Y2010399D02*
X1955518D01*
X1944490Y1989699D02*
X1955510D01*
X1944490Y2020299D02*
X1955510D01*
X1944495Y2069799D02*
X1955505D01*
X1944495Y1979799D02*
X1955505D01*
X1944496Y2030199D02*
X1955504D01*
X1944499Y2059899D02*
X1955501D01*
X1944499Y2040099D02*
X1955501D01*
X1944500Y2049999D02*
X1955500D01*
X1951275Y1850199D02*
X1955065D01*
X1951533Y1844799D02*
X1954807D01*
X1951835Y1824099D02*
X1954506D01*
X1951910Y1819599D02*
X1954431D01*
X1952133Y1849299D02*
X1954208D01*
X1952258Y1845699D02*
X1954082D01*
X1952409Y1823199D02*
X1953931D01*
X1943926Y2012199D02*
X1953926D01*
X1952446Y1820499D02*
X1953894D01*
X1952553Y1848399D02*
X1953787D01*
X1952609Y1846599D02*
X1953731D01*
X1952666Y1822299D02*
X1953674D01*
X1952678Y1821399D02*
X1953662D01*
X1952700Y1847499D02*
X1953640D01*
X1943806Y2017599D02*
X1953501D01*
X1943263Y2013099D02*
X1952679D01*
X1945874Y1833099D02*
X1952592D01*
X1943058Y2016699D02*
X1952527D01*
X1942064Y2013999D02*
X1952172D01*
X1941612Y2015799D02*
X1952108D01*
X1931494Y2014899D02*
X1952002D01*
X1947229Y1826799D02*
X1951237D01*
X1947312Y1836699D02*
X1951154D01*
X1947617Y1842099D02*
X1950849D01*
X1947679Y1832199D02*
X1950787D01*
X1948144Y1827699D02*
X1950322D01*
X1948183Y1837599D02*
X1950283D01*
X1948332Y1841199D02*
X1950134D01*
X1948363Y1831299D02*
X1950103D01*
X1948592Y1828599D02*
X1949874D01*
X1948610Y1838499D02*
X1949856D01*
X1948676Y1840299D02*
X1949790D01*
X1948689Y1830399D02*
X1949777D01*
X1948760Y1829499D02*
X1949706D01*
X1948762Y1839399D02*
X1949704D01*
X1934837Y1824999D02*
X1947881D01*
X1935029Y1818699D02*
X1947689D01*
X1935527Y1850199D02*
X1947191D01*
X1935785Y1844799D02*
X1946933D01*
X1936087Y1824099D02*
X1946631D01*
X1936162Y1819599D02*
X1946557D01*
X1936385Y1849299D02*
X1946333D01*
X1936510Y1845699D02*
X1946208D01*
X1936661Y1823199D02*
X1946057D01*
X1936698Y1820499D02*
X1946020D01*
X1936805Y1848399D02*
X1945913D01*
X1936861Y1846599D02*
X1945857D01*
X1936918Y1822299D02*
X1945800D01*
X1936930Y1821399D02*
X1945788D01*
X1936952Y1847499D02*
X1945766D01*
X1944583Y1833099D02*
X1944718D01*
X1917985Y1952799D02*
X1943920D01*
X1845500Y1947399D02*
X1943506D01*
X1931481Y1826799D02*
X1943363D01*
X1931869Y1842099D02*
X1942975D01*
X1917939Y1951899D02*
X1942677D01*
X1845500Y1948299D02*
X1942529D01*
X1932396Y1827699D02*
X1942448D01*
X1932584Y1841199D02*
X1942260D01*
X1917597Y1950999D02*
X1942171D01*
X1845500Y1949199D02*
X1942109D01*
X1916798Y1950099D02*
X1942002D01*
X1932844Y1828599D02*
X1942000D01*
X1940596Y1840299D02*
X1941916D01*
X1845500Y2102199D02*
X1941426D01*
X1900997Y2107599D02*
X1941001D01*
X1845500Y2103099D02*
X1940179D01*
X1845500Y2106699D02*
X1940027D01*
X1920109Y2054499D02*
X1939891D01*
X1845500Y2103999D02*
X1939672D01*
X1845500Y2105799D02*
X1939608D01*
X1845500Y2104899D02*
X1939502D01*
X1920937Y2035599D02*
X1939063D01*
X1920949Y2064399D02*
X1939051D01*
X1845500Y2132799D02*
X1938920D01*
X1921322Y2025699D02*
X1938678D01*
X1921331Y2074299D02*
X1938669D01*
X1921331Y1984299D02*
X1938669D01*
X1922598Y2127399D02*
X1938506D01*
X1932471Y2015799D02*
X1938388D01*
X1921619Y1994199D02*
X1938381D01*
X1921852Y2005899D02*
X1938148D01*
X1921858Y2004099D02*
X1938142D01*
X1922059Y1995999D02*
X1937941D01*
X1922064Y2013999D02*
X1937936D01*
X1922243Y1986099D02*
X1937757D01*
X1922247Y2023899D02*
X1937753D01*
X1881776Y2131899D02*
X1937677D01*
X1922408Y2066199D02*
X1937592D01*
X1922408Y1976199D02*
X1937592D01*
X1922412Y2033799D02*
X1937588D01*
X1922474Y2128299D02*
X1937529D01*
X1922559Y2056299D02*
X1937441D01*
X1922563Y2043699D02*
X1937437D01*
X1922698Y2046399D02*
X1937302D01*
X1922702Y2053599D02*
X1937298D01*
X1922827Y2036499D02*
X1937173D01*
X1882401Y2130999D02*
X1937171D01*
X1922830Y2063499D02*
X1937170D01*
X1921968Y2129199D02*
X1937109D01*
X1922946Y2026599D02*
X1937054D01*
X1922949Y2073399D02*
X1937051D01*
X1922949Y1983399D02*
X1937051D01*
X1932928Y1840299D02*
X1937004D01*
X1920083Y2130099D02*
X1937002D01*
X1932891Y2016699D02*
X1936942D01*
X1923061Y1993299D02*
X1936939D01*
X1923163Y2006799D02*
X1936837D01*
X1923165Y2003199D02*
X1936835D01*
X1923261Y1996899D02*
X1936739D01*
X1923263Y2013099D02*
X1936737D01*
X1923353Y1986999D02*
X1936647D01*
X1923355Y2022999D02*
X1936645D01*
X1923440Y2067099D02*
X1936560D01*
X1923440Y1977099D02*
X1936560D01*
X1923442Y2032899D02*
X1936558D01*
X1923522Y2057199D02*
X1936478D01*
X1923524Y2042799D02*
X1936476D01*
X1923599Y2047299D02*
X1936401D01*
X1923601Y2052699D02*
X1936399D01*
X1923672Y2037399D02*
X1936328D01*
X1923674Y2062599D02*
X1936326D01*
X1923741Y2027499D02*
X1936259D01*
X1923743Y2072499D02*
X1936257D01*
X1923743Y1982499D02*
X1936257D01*
X1932998Y2017599D02*
X1936194D01*
X1923807Y1992399D02*
X1936193D01*
X1923867Y2007699D02*
X1936133D01*
X1923869Y2002299D02*
X1936131D01*
X1923925Y1997799D02*
X1936075D01*
X1923926Y2012199D02*
X1936074D01*
X1923979Y1987899D02*
X1936021D01*
X1923981Y2022099D02*
X1936019D01*
X1924030Y2067999D02*
X1935970D01*
X1924030Y1977999D02*
X1935970D01*
X1924032Y2031999D02*
X1935968D01*
X1924079Y2058099D02*
X1935921D01*
X1924080Y2041899D02*
X1935920D01*
X1924124Y2048199D02*
X1935876D01*
X1924125Y2051799D02*
X1935875D01*
X1924166Y2038299D02*
X1935834D01*
X1924167Y2061699D02*
X1935833D01*
X1924205Y2028399D02*
X1935795D01*
X1924206Y2071599D02*
X1935794D01*
X1924206Y1981599D02*
X1935794D01*
X1932829Y2018499D02*
X1935758D01*
X1924243Y1991499D02*
X1935757D01*
X1924276Y2008599D02*
X1935724D01*
X1924277Y2001399D02*
X1935723D01*
X1924308Y1998699D02*
X1935692D01*
X1924309Y2011299D02*
X1935691D01*
X1933012Y1829499D02*
X1935689D01*
X1924337Y1988799D02*
X1935663D01*
X1924337Y2021199D02*
X1935663D01*
X1924363Y2068899D02*
X1935637D01*
X1924363Y1978899D02*
X1935637D01*
X1924364Y2031099D02*
X1935636D01*
X1924387Y2058999D02*
X1935613D01*
X1924388Y2040999D02*
X1935612D01*
X1924409Y2049099D02*
X1935591D01*
X1924409Y2050899D02*
X1935591D01*
X1924428Y2039199D02*
X1935572D01*
X1924429Y2060799D02*
X1935571D01*
X1924445Y2029299D02*
X1935555D01*
X1924445Y2070699D02*
X1935555D01*
X1924445Y1980699D02*
X1935555D01*
X1932323Y2019399D02*
X1935540D01*
X1924460Y1990599D02*
X1935540D01*
X1924472Y2009499D02*
X1935528D01*
X1924472Y2000499D02*
X1935528D01*
X1924482Y1999599D02*
X1935518D01*
X1924482Y2010399D02*
X1935518D01*
X1924490Y1989699D02*
X1935510D01*
X1931080Y2020299D02*
X1935510D01*
X1924495Y2069799D02*
X1935505D01*
X1924495Y1979799D02*
X1935505D01*
X1924496Y2030199D02*
X1935504D01*
X1924499Y2059899D02*
X1935501D01*
X1924499Y2040099D02*
X1935501D01*
X1924500Y2049999D02*
X1935500D01*
X1933014Y1839399D02*
X1935240D01*
X1932941Y1830399D02*
X1934552D01*
X1932862Y1838499D02*
X1934272D01*
X1932615Y1831299D02*
X1933820D01*
X1932435Y1837599D02*
X1933632D01*
X1931931Y1832199D02*
X1933329D01*
X1931564Y1836699D02*
X1933206D01*
X1930126Y1833099D02*
X1933017D01*
X1908630Y1835799D02*
X1932946D01*
X1908721Y1833999D02*
X1932855D01*
X1908744Y1834899D02*
X1932832D01*
X1926963Y1824999D02*
X1932133D01*
X1927155Y1818699D02*
X1931941D01*
X1927653Y1850199D02*
X1931443D01*
X1927911Y1844799D02*
X1931185D01*
X1928213Y1824099D02*
X1930883D01*
X1928288Y1819599D02*
X1930808D01*
X1928511Y1849299D02*
X1930585D01*
X1928636Y1845699D02*
X1930460D01*
X1928787Y1823199D02*
X1930309D01*
X1928824Y1820499D02*
X1930272D01*
X1928931Y1848399D02*
X1930165D01*
X1928987Y1846599D02*
X1930109D01*
X1929044Y1822299D02*
X1930052D01*
X1929056Y1821399D02*
X1930040D01*
X1929078Y1847499D02*
X1930018D01*
X1845500Y1887999D02*
X1929911D01*
X1922252Y1833099D02*
X1928970D01*
X1924490Y2020299D02*
X1928920D01*
X1845500Y2014899D02*
X1928506D01*
X1881499Y1882599D02*
X1928202D01*
X1845500Y1887099D02*
X1927856D01*
X1924460Y2019399D02*
X1927677D01*
X1923607Y1826799D02*
X1927615D01*
X1923690Y1836699D02*
X1927532D01*
X1921612Y2015799D02*
X1927529D01*
X1845500Y1883499D02*
X1927403D01*
X1845500Y1886199D02*
X1927250D01*
X1923995Y1842099D02*
X1927227D01*
X1924242Y2018499D02*
X1927171D01*
X1924057Y1832199D02*
X1927165D01*
X1923058Y2016699D02*
X1927109D01*
X1845500Y1884399D02*
X1927061D01*
X1845500Y1885299D02*
X1927015D01*
X1923806Y2017599D02*
X1927002D01*
X1924522Y1827699D02*
X1926700D01*
X1924561Y1837599D02*
X1926661D01*
X1924710Y1841199D02*
X1926512D01*
X1924741Y1831299D02*
X1926481D01*
X1924970Y1828599D02*
X1926252D01*
X1924988Y1838499D02*
X1926234D01*
X1925054Y1840299D02*
X1926168D01*
X1925067Y1830399D02*
X1926155D01*
X1925138Y1829499D02*
X1926084D01*
X1925140Y1839399D02*
X1926082D01*
X1919089Y1824999D02*
X1924259D01*
X1919281Y1818699D02*
X1924067D01*
X1919779Y1850199D02*
X1923569D01*
X1920037Y1844799D02*
X1923311D01*
X1920339Y1824099D02*
X1923009D01*
X1920414Y1819599D02*
X1922934D01*
X1920637Y1849299D02*
X1922711D01*
X1920762Y1845699D02*
X1922586D01*
X1920913Y1823199D02*
X1922435D01*
X1920950Y1820499D02*
X1922398D01*
X1921057Y1848399D02*
X1922291D01*
X1921113Y1846599D02*
X1922235D01*
X1921170Y1822299D02*
X1922178D01*
X1921182Y1821399D02*
X1922166D01*
X1921204Y1847499D02*
X1922144D01*
X1914378Y1833099D02*
X1921096D01*
X1901499Y2130099D02*
X1919917D01*
X1845500Y2054499D02*
X1919891D01*
X1915733Y1826799D02*
X1919741D01*
X1915816Y1836699D02*
X1919658D01*
X1916121Y1842099D02*
X1919353D01*
X1916183Y1832199D02*
X1919291D01*
X1845500Y2035599D02*
X1919063D01*
X1845500Y2064399D02*
X1919051D01*
X1916648Y1827699D02*
X1918826D01*
X1916687Y1837599D02*
X1918787D01*
X1897993Y2092299D02*
X1918785D01*
X1912243Y1896099D02*
X1918739D01*
X1845500Y2025699D02*
X1918678D01*
X1845500Y2074299D02*
X1918669D01*
X1845500Y1984299D02*
X1918669D01*
X1916836Y1841199D02*
X1918638D01*
X1895485Y2087799D02*
X1918616D01*
X1916867Y1831299D02*
X1918607D01*
X1914500Y1943799D02*
X1918457D01*
X1845500Y2015799D02*
X1918388D01*
X1911612Y1925799D02*
X1918388D01*
X1845500Y1994199D02*
X1918381D01*
X1917096Y1828599D02*
X1918378D01*
X1917114Y1838499D02*
X1918360D01*
X1917180Y1840299D02*
X1918294D01*
X1917193Y1830399D02*
X1918281D01*
X1902321Y2125599D02*
X1918227D01*
X1917264Y1829499D02*
X1918210D01*
X1917266Y1839399D02*
X1918208D01*
X1877440Y2005899D02*
X1918148D01*
X1911852Y1915899D02*
X1918148D01*
X1877439Y2004099D02*
X1918142D01*
X1911858Y1914099D02*
X1918142D01*
X1902473Y2129199D02*
X1918032D01*
X1845500Y1995999D02*
X1917941D01*
X1917829Y1905999D02*
X1917941D01*
X1845500Y2013999D02*
X1917936D01*
X1912064Y1923999D02*
X1917936D01*
X1897791Y2091399D02*
X1917808D01*
X1845500Y1986099D02*
X1917757D01*
X1845500Y2023899D02*
X1917753D01*
X1912247Y1933899D02*
X1917753D01*
X1895250Y2088699D02*
X1917749D01*
X1914500Y1936599D02*
X1917711D01*
X1902828Y2126499D02*
X1917601D01*
X1845500Y2066199D02*
X1917592D01*
X1845500Y1976199D02*
X1917592D01*
X1845500Y2033799D02*
X1917588D01*
X1917471Y1903299D02*
X1917565D01*
X1902892Y2128299D02*
X1917526D01*
X1897235Y2090499D02*
X1917448D01*
X1845500Y2056299D02*
X1917441D01*
X1845500Y2043699D02*
X1917437D01*
X1895763Y2089599D02*
X1917431D01*
X1902998Y2127399D02*
X1917402D01*
X1845500Y2046399D02*
X1917302D01*
X1845500Y2053599D02*
X1917298D01*
X1913353Y1896999D02*
X1917207D01*
X1845500Y2036499D02*
X1917173D01*
X1845500Y2063499D02*
X1917170D01*
X1914500Y1942899D02*
X1917100D01*
X1845500Y2026599D02*
X1917054D01*
X1845500Y2073399D02*
X1917051D01*
X1845500Y1983399D02*
X1917051D01*
X1845500Y2016699D02*
X1916942D01*
X1913058Y1926699D02*
X1916942D01*
X1845500Y1993299D02*
X1916939D01*
X1876877Y2006799D02*
X1916837D01*
X1913163Y1916799D02*
X1916837D01*
X1876875Y2003199D02*
X1916835D01*
X1913165Y1913199D02*
X1916835D01*
X1914500Y1937499D02*
X1916751D01*
X1845500Y1996899D02*
X1916739D01*
X1845500Y2013099D02*
X1916737D01*
X1913263Y1923099D02*
X1916737D01*
X1916494Y1902399D02*
X1916675D01*
X1845500Y1986999D02*
X1916647D01*
X1845500Y2022999D02*
X1916645D01*
X1913355Y1932999D02*
X1916645D01*
X1895763Y2067099D02*
X1916560D01*
X1845500Y1977099D02*
X1916560D01*
X1890773Y2032899D02*
X1916558D01*
X1913979Y1897899D02*
X1916479D01*
X1845500Y2057199D02*
X1916478D01*
X1845500Y2042799D02*
X1916476D01*
X1914500Y1941999D02*
X1916420D01*
X1845500Y2047299D02*
X1916401D01*
X1845500Y2052699D02*
X1916399D01*
X1911215Y1824999D02*
X1916385D01*
X1845500Y2037399D02*
X1916328D01*
X1845500Y2062599D02*
X1916326D01*
X1891656Y2027499D02*
X1916259D01*
X1896660Y2072499D02*
X1916257D01*
X1845500Y1982499D02*
X1916257D01*
X1914500Y1938399D02*
X1916226D01*
X1845500Y2017599D02*
X1916194D01*
X1913806Y1927599D02*
X1916194D01*
X1911407Y1818699D02*
X1916193D01*
X1881003Y1992399D02*
X1916193D01*
X1914243Y1901499D02*
X1916184D01*
X1901210Y2007699D02*
X1916133D01*
X1913867Y1917699D02*
X1916133D01*
X1845500Y2002299D02*
X1916131D01*
X1913869Y1912299D02*
X1916131D01*
X1914337Y1898799D02*
X1916080D01*
X1845500Y1997799D02*
X1916075D01*
X1901388Y2012199D02*
X1916074D01*
X1913926Y1922199D02*
X1916074D01*
X1914500Y1941099D02*
X1916050D01*
X1881531Y1987899D02*
X1916021D01*
X1845500Y2022099D02*
X1916019D01*
X1913981Y1932099D02*
X1916019D01*
X1897235Y2067999D02*
X1915970D01*
X1845500Y1977999D02*
X1915970D01*
X1892237Y2031999D02*
X1915968D01*
X1914500Y1939299D02*
X1915960D01*
X1914460Y1900599D02*
X1915944D01*
X1845500Y2058099D02*
X1915921D01*
X1845500Y2041899D02*
X1915920D01*
X1914490Y1899699D02*
X1915911D01*
X1914500Y1940199D02*
X1915905D01*
X1901875Y2048199D02*
X1915876D01*
X1901877Y2051799D02*
X1915875D01*
X1845500Y2038299D02*
X1915834D01*
X1845500Y2061699D02*
X1915833D01*
X1892537Y2028399D02*
X1915795D01*
X1897539Y2071599D02*
X1915794D01*
X1845500Y1981599D02*
X1915794D01*
X1845500Y2018499D02*
X1915758D01*
X1914242Y1928499D02*
X1915758D01*
X1882125Y1991499D02*
X1915757D01*
X1902190Y2008599D02*
X1915724D01*
X1914276Y1918599D02*
X1915724D01*
X1845500Y2001399D02*
X1915723D01*
X1914277Y1911399D02*
X1915723D01*
X1911905Y1850199D02*
X1915695D01*
X1845500Y1998699D02*
X1915692D01*
X1914308Y1908699D02*
X1915692D01*
X1902252Y2011299D02*
X1915691D01*
X1914309Y1921299D02*
X1915691D01*
X1882306Y1988799D02*
X1915663D01*
X1845500Y2021199D02*
X1915663D01*
X1914337Y1931199D02*
X1915663D01*
X1897791Y2068899D02*
X1915637D01*
X1845500Y1978899D02*
X1915637D01*
X1892792Y2031099D02*
X1915636D01*
X1845500Y2058999D02*
X1915613D01*
X1845500Y2040999D02*
X1915612D01*
X1902439Y2049099D02*
X1915591D01*
X1902440Y2050899D02*
X1915591D01*
X1845500Y2039199D02*
X1915572D01*
X1845500Y2060799D02*
X1915571D01*
X1892917Y2029299D02*
X1915555D01*
X1897918Y2070699D02*
X1915555D01*
X1845500Y1980699D02*
X1915555D01*
X1845500Y2019399D02*
X1915540D01*
X1914460Y1929399D02*
X1915540D01*
X1882530Y1990599D02*
X1915540D01*
X1902551Y2009499D02*
X1915528D01*
X1914472Y1919499D02*
X1915528D01*
X1845500Y2000499D02*
X1915528D01*
X1914472Y1910499D02*
X1915528D01*
X1845500Y1999599D02*
X1915518D01*
X1914482Y1909599D02*
X1915518D01*
X1902569Y2010399D02*
X1915518D01*
X1914482Y1920399D02*
X1915518D01*
X1882582Y1989699D02*
X1915510D01*
X1845500Y2020299D02*
X1915510D01*
X1914490Y1930299D02*
X1915510D01*
X1897993Y2069799D02*
X1915505D01*
X1845500Y1979799D02*
X1915505D01*
X1892993Y2030199D02*
X1915504D01*
X1845500Y2059899D02*
X1915501D01*
X1845500Y2040099D02*
X1915501D01*
X1902600Y2049999D02*
X1915500D01*
X1912163Y1844799D02*
X1915437D01*
X1912465Y1824099D02*
X1915135D01*
X1912540Y1819599D02*
X1915060D01*
X1882235Y1955499D02*
X1914911D01*
X1912763Y1849299D02*
X1914837D01*
X1912888Y1845699D02*
X1914712D01*
X1913039Y1823199D02*
X1914561D01*
X1913076Y1820499D02*
X1914524D01*
X1913183Y1848399D02*
X1914417D01*
X1913239Y1846599D02*
X1914361D01*
X1913296Y1822299D02*
X1914304D01*
X1913308Y1821399D02*
X1914292D01*
X1913330Y1847499D02*
X1914270D01*
X1908560Y1833099D02*
X1913222D01*
X1845500Y1950099D02*
X1913202D01*
X1880763Y1954599D02*
X1912856D01*
X1845500Y1950999D02*
X1912403D01*
X1845500Y1953699D02*
X1912250D01*
X1912059Y1905999D02*
X1912171D01*
X1911619Y1904199D02*
X1912109D01*
X1845500Y1951899D02*
X1912061D01*
X1845500Y1952799D02*
X1912015D01*
X1845500Y1905099D02*
X1912002D01*
X1867807Y1826799D02*
X1911867D01*
X1908371Y1836699D02*
X1911784D01*
X1845500Y1842099D02*
X1911479D01*
X1908248Y1832199D02*
X1911417D01*
X1867612Y1827699D02*
X1910952D01*
X1907944Y1837599D02*
X1910913D01*
X1845500Y1841199D02*
X1910764D01*
X1907757Y1831299D02*
X1910733D01*
X1867328Y1828599D02*
X1910504D01*
X1907304Y1838499D02*
X1910486D01*
X1904572Y1840299D02*
X1910420D01*
X1907025Y1830399D02*
X1910407D01*
X1905887Y1829499D02*
X1910336D01*
X1906336Y1839399D02*
X1910334D01*
X1867949Y1824999D02*
X1908511D01*
X1845500Y1925799D02*
X1908388D01*
X1845500Y1904199D02*
X1908381D01*
X1897750Y1818699D02*
X1908319D01*
X1845500Y1915899D02*
X1908148D01*
X1845500Y1914099D02*
X1908142D01*
X1845500Y1905999D02*
X1907941D01*
X1845500Y1923999D02*
X1907936D01*
X1845500Y1850199D02*
X1907821D01*
X1845500Y1896099D02*
X1907757D01*
X1845500Y1933899D02*
X1907753D01*
X1845500Y1844799D02*
X1907563D01*
X1867900Y1824099D02*
X1907261D01*
X1897144Y1819599D02*
X1907186D01*
X1845500Y1849299D02*
X1906963D01*
X1845500Y1926699D02*
X1906942D01*
X1845500Y1903299D02*
X1906939D01*
X1845500Y1845699D02*
X1906838D01*
X1845500Y1916799D02*
X1906837D01*
X1845500Y1913199D02*
X1906835D01*
X1845500Y1906899D02*
X1906739D01*
X1845500Y1923099D02*
X1906737D01*
X1867770Y1823199D02*
X1906687D01*
X1895089Y1820499D02*
X1906650D01*
X1845500Y1896999D02*
X1906647D01*
X1845500Y1932999D02*
X1906645D01*
X1845500Y1848399D02*
X1906543D01*
X1845500Y1846599D02*
X1906487D01*
X1867556Y1822299D02*
X1906430D01*
X1867251Y1821399D02*
X1906418D01*
X1845500Y1847499D02*
X1906396D01*
X1845500Y1889799D02*
X1906195D01*
X1845500Y1927599D02*
X1906194D01*
X1845500Y1902399D02*
X1906193D01*
X1845500Y1895199D02*
X1906190D01*
X1845500Y1917699D02*
X1906133D01*
X1845500Y1912299D02*
X1906131D01*
X1845500Y1907799D02*
X1906075D01*
X1845500Y1922199D02*
X1906074D01*
X1845500Y1897899D02*
X1906021D01*
X1845500Y1932099D02*
X1906019D01*
X1845500Y1928499D02*
X1905758D01*
X1845500Y1901499D02*
X1905757D01*
X1845500Y1918599D02*
X1905724D01*
X1845500Y1911399D02*
X1905723D01*
X1845500Y1908699D02*
X1905692D01*
X1845500Y1921299D02*
X1905691D01*
X1845500Y1898799D02*
X1905663D01*
X1845500Y1931199D02*
X1905663D01*
X1845500Y1935699D02*
X1905601D01*
X1845500Y1929399D02*
X1905540D01*
X1845500Y1900599D02*
X1905540D01*
X1845500Y1919499D02*
X1905528D01*
X1845500Y1910499D02*
X1905528D01*
X1845500Y1909599D02*
X1905518D01*
X1845500Y1920399D02*
X1905518D01*
X1845500Y1899699D02*
X1905510D01*
X1845500Y1930299D02*
X1905510D01*
X1845500Y1943799D02*
X1905500D01*
X1845500Y1942899D02*
X1905500D01*
X1881663Y1941999D02*
X1905500D01*
X1882356Y1941099D02*
X1905500D01*
X1882592Y1940199D02*
X1905500D01*
X1882504Y1939299D02*
X1905500D01*
X1882048Y1938399D02*
X1905500D01*
X1880710Y1937499D02*
X1905500D01*
X1845500Y1936599D02*
X1905500D01*
X1845500Y1890699D02*
X1905101D01*
X1845500Y1894299D02*
X1905099D01*
X1845500Y1891599D02*
X1904639D01*
X1845500Y1893399D02*
X1904638D01*
X1845500Y1892499D02*
X1904500D01*
X1845500Y1840299D02*
X1900980D01*
X1866947Y1829499D02*
X1899666D01*
X1845500Y1839399D02*
X1899216D01*
X1845500Y2107599D02*
X1899003D01*
X1845500Y2082399D02*
X1898997D01*
X1845500Y2124699D02*
X1898926D01*
X1845500Y2007699D02*
X1898790D01*
X1845500Y2012199D02*
X1898612D01*
X1866457Y1830399D02*
X1898528D01*
X1882598Y2130099D02*
X1898501D01*
X1845500Y2077899D02*
X1898469D01*
X1845500Y2112099D02*
X1898465D01*
X1845500Y1838499D02*
X1898249D01*
X1845500Y2048199D02*
X1898125D01*
X1845500Y2051799D02*
X1898123D01*
X1845500Y2108499D02*
X1897877D01*
X1845500Y2081499D02*
X1897875D01*
X1845500Y2008599D02*
X1897810D01*
X1865837Y1831299D02*
X1897796D01*
X1845500Y2011299D02*
X1897748D01*
X1845500Y2078799D02*
X1897694D01*
X1845500Y2111199D02*
X1897693D01*
X1845500Y2125599D02*
X1897679D01*
X1845500Y1837599D02*
X1897608D01*
X1845500Y2049099D02*
X1897561D01*
X1845500Y2050899D02*
X1897560D01*
X1882473Y2129199D02*
X1897527D01*
X1845500Y2109399D02*
X1897470D01*
X1845500Y2080599D02*
X1897470D01*
X1845500Y2009499D02*
X1897449D01*
X1845500Y2010399D02*
X1897431D01*
X1845500Y2079699D02*
X1897418D01*
X1845500Y2110299D02*
X1897417D01*
X1845500Y2049999D02*
X1897400D01*
X1865055Y1832199D02*
X1897305D01*
X1845500Y1836699D02*
X1897182D01*
X1845500Y2126499D02*
X1897172D01*
X1881966Y2128299D02*
X1897108D01*
X1845500Y2127399D02*
X1897002D01*
X1864048Y1833099D02*
X1896993D01*
X1845500Y1835799D02*
X1896923D01*
X1862682Y1833999D02*
X1896832D01*
X1860447Y1834899D02*
X1896809D01*
X1866847Y1820499D02*
X1894911D01*
X1845500Y2067099D02*
X1894237D01*
X1845500Y2094999D02*
X1893340D01*
X1880719Y2072499D02*
X1893340D01*
X1892998Y1815099D02*
X1893202D01*
X1866330Y1819599D02*
X1892856D01*
X1881660Y2067999D02*
X1892765D01*
X1892589Y2090499D02*
X1892765D01*
X1845500Y2094099D02*
X1892461D01*
X1882050Y2071599D02*
X1892461D01*
X1845500Y2090499D02*
X1892411D01*
X1865677Y1818699D02*
X1892250D01*
X1845500Y2091399D02*
X1892209D01*
X1882355Y2068899D02*
X1892209D01*
X1845500Y2093199D02*
X1892082D01*
X1882504Y2070699D02*
X1892082D01*
X1891080Y1817799D02*
X1892015D01*
X1845500Y2092299D02*
X1892007D01*
X1882592Y2069799D02*
X1892007D01*
X1845500Y2085099D02*
X1890702D01*
X1845500Y2089599D02*
X1890356D01*
X1845500Y2085999D02*
X1889903D01*
X1845500Y2088699D02*
X1889750D01*
X1845500Y2086899D02*
X1889561D01*
X1845500Y2087799D02*
X1889515D01*
X1845500Y2032899D02*
X1889227D01*
X1845500Y2155299D02*
X1889103D01*
X1864851Y1817799D02*
X1888920D01*
X1865312Y2215599D02*
X1888875D01*
X1865666Y2227299D02*
X1888663D01*
X1845500Y1812399D02*
X1888506D01*
X1845500Y2166999D02*
X1888474D01*
X1845500Y2027499D02*
X1888344D01*
X1845500Y2031999D02*
X1887763D01*
X1863780Y1816899D02*
X1887677D01*
X1845500Y2156199D02*
X1887572D01*
X1845500Y1813299D02*
X1887529D01*
X1845500Y2028399D02*
X1887463D01*
X1865916Y2216499D02*
X1887448D01*
X1866197Y2226399D02*
X1887328D01*
X1845500Y2166099D02*
X1887216D01*
X1845500Y2031099D02*
X1887208D01*
X1862293Y1815999D02*
X1887171D01*
X1845500Y1814199D02*
X1887109D01*
X1845500Y2029299D02*
X1887083D01*
X1845500Y2030199D02*
X1887007D01*
X1859531Y1815099D02*
X1887002D01*
X1845500Y2157099D02*
X1886640D01*
X1866394Y2217399D02*
X1886557D01*
X1866612Y2225499D02*
X1886476D01*
X1845500Y2165199D02*
X1886399D01*
X1845500Y2157999D02*
X1886001D01*
X1866763Y2218299D02*
X1885943D01*
X1866927Y2224599D02*
X1885886D01*
X1845500Y2164299D02*
X1885833D01*
X1845500Y2158899D02*
X1885560D01*
X1867037Y2219199D02*
X1885521D01*
X1867151Y2223699D02*
X1885483D01*
X1845500Y2163399D02*
X1885448D01*
X1845500Y2159799D02*
X1885276D01*
X1867223Y2220099D02*
X1885253D01*
X1867290Y2222799D02*
X1885231D01*
X1845500Y2162499D02*
X1885211D01*
X1845500Y2160699D02*
X1885128D01*
X1867326Y2220999D02*
X1885119D01*
X1867348Y2221899D02*
X1885112D01*
X1845500Y2161599D02*
X1885107D01*
X1845500Y1937499D02*
X1879290D01*
X1845500Y2072499D02*
X1879281D01*
X1845500Y1954599D02*
X1879237D01*
X1845500Y1992399D02*
X1878997D01*
X1845500Y1877199D02*
X1878926D01*
X1845500Y1882599D02*
X1878501D01*
X1845500Y1987899D02*
X1878469D01*
X1845500Y2067999D02*
X1878340D01*
X1845500Y1959999D02*
X1878340D01*
X1845500Y1941999D02*
X1878337D01*
X1845500Y2131899D02*
X1878224D01*
X1845500Y2128299D02*
X1878034D01*
X1845500Y1938399D02*
X1877952D01*
X1845500Y2071599D02*
X1877950D01*
X1845500Y1991499D02*
X1877875D01*
X1845500Y1955499D02*
X1877765D01*
X1845500Y1988799D02*
X1877694D01*
X1845500Y1878099D02*
X1877679D01*
X1845500Y2068899D02*
X1877645D01*
X1845500Y1941099D02*
X1877644D01*
X1845500Y2130999D02*
X1877599D01*
X1845500Y1881699D02*
X1877527D01*
X1845500Y2129199D02*
X1877527D01*
X1845500Y1939299D02*
X1877496D01*
X1845500Y2070699D02*
X1877496D01*
X1845500Y1990599D02*
X1877470D01*
X1845500Y1959099D02*
X1877461D01*
X1845500Y1989699D02*
X1877418D01*
X1845500Y2069799D02*
X1877408D01*
X1845500Y1940199D02*
X1877408D01*
X1845500Y2130099D02*
X1877402D01*
X1845500Y1956399D02*
X1877209D01*
X1845500Y1878999D02*
X1877172D01*
X1845500Y1880799D02*
X1877108D01*
X1845500Y1958199D02*
X1877082D01*
X1845500Y1957299D02*
X1877007D01*
X1845500Y1879899D02*
X1877002D01*
X1845500Y2003199D02*
X1873125D01*
X1845500Y2006799D02*
X1873123D01*
X1845500Y2004099D02*
X1872561D01*
X1845500Y2005899D02*
X1872560D01*
X1845500Y2004999D02*
X1872400D01*
X1845500Y1862799D02*
X1858920D01*
X1845500Y1857399D02*
X1858506D01*
X1845500Y1861899D02*
X1857677D01*
X1845500Y1858299D02*
X1857529D01*
X1845500Y1860999D02*
X1857171D01*
X1845500Y1859199D02*
X1857109D01*
X1845500Y1860099D02*
X1857002D01*
X1845500Y2231799D02*
X1856181D01*
X1845500Y1815099D02*
X1856069D01*
X1845500Y1834899D02*
X1855153D01*
X1845500Y2211999D02*
X1854216D01*
X1845500Y1815999D02*
X1853307D01*
X1845500Y1833999D02*
X1852918D01*
X1845500Y2230899D02*
X1852910D01*
X1845500Y2212899D02*
X1852144D01*
X1845500Y1816899D02*
X1851820D01*
X1845500Y1833099D02*
X1851552D01*
X1845500Y2229999D02*
X1851356D01*
X1845500Y2213799D02*
X1850829D01*
X1845500Y1817799D02*
X1850749D01*
X1845500Y1832199D02*
X1850545D01*
X1845500Y2229099D02*
X1850251D01*
X1845500Y1818699D02*
X1849923D01*
X1845500Y2214699D02*
X1849851D01*
X1845500Y1831299D02*
X1849763D01*
X1845500Y2228199D02*
X1849403D01*
X1845500Y1819599D02*
X1849270D01*
X1845500Y1830399D02*
X1849143D01*
X1845500Y2215599D02*
X1849088D01*
X1845500Y1820499D02*
X1848753D01*
X1845500Y2227299D02*
X1848734D01*
X1845500Y1829499D02*
X1848653D01*
X1845500Y2216499D02*
X1848484D01*
X1845500Y1821399D02*
X1848349D01*
X1845500Y1828599D02*
X1848272D01*
X1845500Y2226399D02*
X1848203D01*
X1845500Y1822299D02*
X1848044D01*
X1845500Y2217399D02*
X1848006D01*
X1845500Y1827699D02*
X1847988D01*
X1845500Y1823199D02*
X1847830D01*
X1845500Y1826799D02*
X1847793D01*
X1845500Y2225499D02*
X1847788D01*
X1845500Y1824099D02*
X1847700D01*
X1845500Y1825899D02*
X1847681D01*
X1845500Y1824999D02*
X1847651D01*
X1845500Y2218299D02*
X1847637D01*
X1845500Y2224599D02*
X1847473D01*
X1845500Y2219199D02*
X1847363D01*
X1845500Y2223699D02*
X1847249D01*
X1845500Y2220099D02*
X1847177D01*
X1845500Y2222799D02*
X1847110D01*
X1845500Y2220999D02*
X1847074D01*
X1845500Y2221899D02*
X1847052D01*
G54D15*
X1990000Y1980000D03*
Y1990000D03*
Y2000000D03*
Y2010000D03*
Y2020000D03*
Y2030000D03*
Y2040000D03*
Y2050000D03*
Y2060000D03*
Y2070000D03*
X1920000Y1940000D03*
Y1900000D03*
G54D24*
X1880000Y1940000D03*
Y1990000D03*
X1875000Y2005000D03*
X1900000Y2010000D03*
Y2050000D03*
X1880000Y2070000D03*
X1900000Y2080000D03*
X1920000Y2090000D03*
X1900000Y2110000D03*
X1920000Y2127500D03*
X1880000Y2130000D03*
X1960000D03*
G54D25*
X1968185Y1890785D02*
X1968963Y1891563D01*
X1968185Y1892815D02*
X1968963Y1892037D01*
X1968185Y1905785D02*
X1968963Y1906563D01*
X1992121Y1982121D02*
X1992899Y1982899D01*
X1992121Y1977879D02*
X1992899Y1977101D01*
X1987879Y1982121D02*
X1987101Y1982899D01*
X1987879Y1977879D02*
X1987101Y1977101D01*
X1992121Y1992121D02*
X1992899Y1992899D01*
X1992121Y1987879D02*
X1992899Y1987101D01*
X1987879Y1992121D02*
X1987101Y1992899D01*
X1987879Y1987879D02*
X1987101Y1987101D01*
X1992121Y2002121D02*
X1992899Y2002899D01*
X1992121Y1997879D02*
X1992899Y1997101D01*
X1987879Y2002121D02*
X1987101Y2002899D01*
X1987879Y1997879D02*
X1987101Y1997101D01*
X1992121Y2012121D02*
X1992899Y2012899D01*
X1992121Y2007879D02*
X1992899Y2007101D01*
X1987879Y2012121D02*
X1987101Y2012899D01*
X1987879Y2007879D02*
X1987101Y2007101D01*
X1992121Y2022121D02*
X1992899Y2022899D01*
X1992121Y2017879D02*
X1992899Y2017101D01*
X1987879Y2022121D02*
X1987101Y2022899D01*
X1987879Y2017879D02*
X1987101Y2017101D01*
X1992121Y2032121D02*
X1992899Y2032899D01*
X1992121Y2027879D02*
X1992899Y2027101D01*
X1987879Y2032121D02*
X1987101Y2032899D01*
X1987879Y2027879D02*
X1987101Y2027101D01*
X1992121Y2042121D02*
X1992899Y2042899D01*
X1992121Y2037879D02*
X1992899Y2037101D01*
X1987879Y2042121D02*
X1987101Y2042899D01*
X1987879Y2037879D02*
X1987101Y2037101D01*
X1992121Y2052121D02*
X1992899Y2052899D01*
X1992121Y2047879D02*
X1992899Y2047101D01*
X1987879Y2052121D02*
X1987101Y2052899D01*
X1987879Y2047879D02*
X1987101Y2047101D01*
X1992121Y2062121D02*
X1992899Y2062899D01*
X1992121Y2057879D02*
X1992899Y2057101D01*
X1987879Y2062121D02*
X1987101Y2062899D01*
X1987879Y2057879D02*
X1987101Y2057101D01*
X1992121Y2072121D02*
X1992899Y2072899D01*
X1992121Y2067879D02*
X1992899Y2067101D01*
X1987879Y2072121D02*
X1987101Y2072899D01*
X1987879Y2067879D02*
X1987101Y2067101D01*
X1981936Y2164036D02*
X1982713Y2164813D01*
X1981936Y2156964D02*
X1982713Y2156187D01*
X1974864Y2164036D02*
X1974087Y2164813D01*
X1974864Y2156964D02*
X1974087Y2156187D01*
X1981936Y2224236D02*
X1982713Y2225013D01*
X1981936Y2217164D02*
X1982713Y2216387D01*
X1974864Y2224236D02*
X1974087Y2225013D01*
X1974864Y2217164D02*
X1974087Y2216387D01*
X1922121Y1942121D02*
X1922899Y1942899D01*
X1922121Y1937879D02*
X1922899Y1937101D01*
X1917879Y1942121D02*
X1917101Y1942899D01*
X1917879Y1937879D02*
X1917101Y1937101D01*
X1922121Y1902121D02*
X1922899Y1902899D01*
X1922121Y1897879D02*
X1922899Y1897101D01*
X1917879Y1897879D02*
X1917101Y1897101D01*
X1863599Y2228099D02*
X1864377Y2228877D01*
X1863599Y2215301D02*
X1864377Y2214523D01*
X1850801Y2228099D02*
X1850023Y2228877D01*
X1850801Y2215301D02*
X1850023Y2214523D01*
X2037599Y2228199D02*
X2038377Y2228977D01*
X2037599Y2215401D02*
X2038377Y2214623D01*
X2024801Y2228199D02*
X2024023Y2228977D01*
X2024801Y2215401D02*
X2024023Y2214623D01*
X2040299Y1831299D02*
X2041077Y1832077D01*
X2040299Y1818501D02*
X2041077Y1817723D01*
X2027501Y1831299D02*
X2026723Y1832077D01*
X2027501Y1818501D02*
X2026723Y1817723D01*
X1864199Y1831499D02*
X1864977Y1832277D01*
X1864199Y1818701D02*
X1864977Y1817923D01*
X1851401Y1831499D02*
X1850623Y1832277D01*
X1851401Y1818701D02*
X1850623Y1817923D01*
X1966373Y1823197D02*
X1967151Y1823974D01*
X1966373Y1820413D02*
X1967151Y1819635D01*
X1963589Y1823197D02*
X1962811Y1823974D01*
X1963589Y1820413D02*
X1962811Y1819635D01*
X1876061Y2006061D02*
X1876838Y2006838D01*
X1876061Y2003939D02*
X1876838Y2003162D01*
X1873939Y2006061D02*
X1873162Y2006838D01*
X1873939Y2003939D02*
X1873162Y2003162D01*
X1881061Y1941061D02*
X1881838Y1941838D01*
X1881061Y1938939D02*
X1881838Y1938162D01*
X1878939Y1941061D02*
X1878162Y1941838D01*
X1878939Y1938939D02*
X1878162Y1938162D01*
X1881061Y1991061D02*
X1881838Y1991838D01*
X1881061Y1988939D02*
X1881838Y1988162D01*
X1878939Y1991061D02*
X1878162Y1991838D01*
X1878939Y1988939D02*
X1878162Y1988162D01*
X1881061Y2071061D02*
X1881838Y2071838D01*
X1881061Y2068939D02*
X1881838Y2068162D01*
X1878939Y2071061D02*
X1878162Y2071838D01*
X1878939Y2068939D02*
X1878162Y2068162D01*
X1881061Y2131061D02*
X1881838Y2131838D01*
X1881061Y2128939D02*
X1881838Y2128162D01*
X1878939Y2131061D02*
X1878162Y2131838D01*
X1878939Y2128939D02*
X1878162Y2128162D01*
X1901061Y2011061D02*
X1901838Y2011838D01*
X1901061Y2008939D02*
X1901838Y2008162D01*
X1898939Y2011061D02*
X1898162Y2011838D01*
X1898939Y2008939D02*
X1898162Y2008162D01*
X1901061Y2051061D02*
X1901838Y2051838D01*
X1901061Y2048939D02*
X1901838Y2048162D01*
X1898939Y2051061D02*
X1898162Y2051838D01*
X1898939Y2048939D02*
X1898162Y2048162D01*
X1901061Y2081061D02*
X1901838Y2081838D01*
X1901061Y2078939D02*
X1901838Y2078162D01*
X1898939Y2081061D02*
X1898162Y2081838D01*
X1898939Y2078939D02*
X1898162Y2078162D01*
X1901061Y2111061D02*
X1901838Y2111838D01*
X1901061Y2108939D02*
X1901838Y2108162D01*
X1898939Y2111061D02*
X1898162Y2111838D01*
X1898939Y2108939D02*
X1898162Y2108162D01*
X1921061Y2128561D02*
X1921838Y2129338D01*
X1921061Y2126439D02*
X1921838Y2125662D01*
X1918939Y2128561D02*
X1918162Y2129338D01*
X1918939Y2126439D02*
X1918162Y2125662D01*
X1921061Y2091061D02*
X1921838Y2091838D01*
X1921061Y2088939D02*
X1921838Y2088162D01*
X1918939Y2091061D02*
X1918162Y2091838D01*
X1918939Y2088939D02*
X1918162Y2088162D01*
X1961061Y2131061D02*
X1961838Y2131838D01*
X1961061Y2128939D02*
X1961838Y2128162D01*
X1958939Y2131061D02*
X1958162Y2131838D01*
X1958939Y2128939D02*
X1958162Y2128162D01*
G54D29*
X1964981Y1821805D03*
G54D41*
X1857200Y2221700D03*
X2031200Y2221800D03*
X2033900Y1824900D03*
X1857800Y1825100D03*
G54D46*
X1966700Y1889300D03*
Y1894300D03*
Y1904300D03*
G54D51*
X1978400Y2160500D03*
Y2220700D03*
G74*
X0Y0D02*
M02*
