M48
;FILE_FORMAT=2:4
INCH,LZ
FMAT,2
ICI,OFF
;TYPE=PLATED
T1C.01
T2C.024
T3C.028
T4C.035
T5C.037
T6C.076
T8C.165
;TYPE=NON_PLATED
T7C.0895
%
M72
G90
G93X0Y0
T1C.01F095S3
X189Y1815
X1895Y18175
X186Y186
X188Y188
X188Y194
X188Y19575
X188Y199
X1875Y2005
X19Y201
X189Y203
X19Y205
X188Y207
X1895Y207
X19Y208
X18925Y20875
X1895Y20925
X19Y211
X19Y21275
X188Y213
X194Y213
X192Y21275
X19425Y2105
X192Y209
X193Y20175
X1955Y2015
X1915Y19525
X1945Y195
X1915Y1905
X19075Y18925
X193Y1885
X2Y183
X19775Y188
X1985Y1925
X199Y19325
X2Y1945
X1965Y1995
X197Y209
X197Y21075
X197Y21275
X196Y213
T2C.024F197S55
X192561Y18218
X191774Y18218
X190986Y18218
X192955Y182968
X19138Y182968
X192167Y182968
X192955Y183952
X192167Y183952
X19138Y183952
X191774Y18474
X192561Y18474
X190986Y18474
X195711Y18474
X194923Y18474
X193349Y18474
X196498Y18474
X198073Y18474
X197286Y18474
X196892Y183952
X19453Y183952
X196104Y183952
X195317Y183952
X197679Y183952
X19453Y182968
X197679Y182968
X196892Y182968
X196104Y182968
X195317Y182968
X198073Y18218
X194923Y18218
X196498Y18218
X193349Y18218
X197286Y18218
X195711Y18218
X198467Y182968
X198467Y183952
T3C.028F197S55
X19667Y18843
X19617Y18843
X19667Y18893
X19617Y18893
X19667Y18943
X19617Y18943
X19667Y18993
X19617Y18993
X19667Y19043
X19617Y19043
T4C.035F197S55
X192Y198
X192Y199
X192Y2
X192Y201
X192Y202
X192Y203
X192Y204
X192Y205
X192Y206
X192Y207
X196Y207
X196Y206
X196Y205
X196Y204
X196Y203
X196Y202
X196Y201
X196Y2
X196Y199
X196Y198
X199Y198
X199Y199
X199Y2
X199Y201
X199Y202
X199Y203
X199Y204
X199Y205
X199Y206
X199Y207
T5C.037F197S55
X191Y19
X192Y19
X191Y191
X192Y191
X191Y192
X192Y192
X191Y193
X192Y193
X191Y194
X192Y194
T6C.076F081S55
X19784Y21605
X18916Y21613
X19784Y22207
X18916Y22215
T7C.0895F074S55
X190278Y18346
X19388Y18346
T8C.165F035S1033
X18578Y18251
X18572Y22217
X20312Y22218
X20339Y18249
M30
