*
*
G04 PADS VX.2.1 Build Number: 6554490 generated Gerber (RS-274-X) file*
G04 PC Version=2.1*
*
%IN "uMuddMarkVTesterLayout_"*%
*
%MOIN*%
*
%FSLAX35Y35*%
*
*
*
*
G04 PC Standard Apertures*
*
*
G04 Thermal Relief Aperture macro.*
%AMTER*
1,1,$1,0,0*
1,0,$1-$2,0,0*
21,0,$3,$4,0,0,45*
21,0,$3,$4,0,0,135*
%
*
*
G04 Annular Aperture macro.*
%AMANN*
1,1,$1,0,0*
1,0,$2,0,0*
%
*
*
G04 Odd Aperture macro.*
%AMODD*
1,1,$1,0,0*
1,0,$1-0.005,0,0*
%
*
*
G04 PC Custom Aperture Macros*
*
*
*
*
*
*
G04 PC Aperture Table*
*
%ADD010C,0.001*%
%ADD011C,0.01*%
%ADD015C,0.06*%
%ADD024C,0.03*%
%ADD025C,0.015*%
%ADD029C,0.03937*%
%ADD046C,0.042*%
*
*
*
*
G04 PC Circuitry*
G04 Layer Name uMuddMarkVTesterLayout_ - circuitry*
%LPD*%
*
*
G04 PC Custom Flashes*
G04 Layer Name uMuddMarkVTesterLayout_ - flashes*
%LPD*%
*
*
G04 PC Circuitry*
G04 Layer Name uMuddMarkVTesterLayout_ - circuitry*
%LPD*%
*
G54D10*
G54D11*
G01X1845300Y1811500D02*
X2045400D01*
Y2234200*
X1845300*
Y1811500*
X2044450Y1824900D02*
G75*
G03X2023350I-10550J0D01*
X2044450I10550J0*
G01X2041750Y2221800D02*
G03X2020650I-10550J0D01*
X2041750I10550J0*
G01X2003000Y1945000D02*
G03X1997000I-3000J0D01*
X2003000I3000J0*
G01Y1830000D02*
G03X1997000I-3000J0D01*
X2003000I3000J0*
G01X1993000Y1932500D02*
G03X1987000I-3000J0D01*
X1993000I3000J0*
G01X1994500Y2070000D02*
G03X1985500I-4500J0D01*
X1994500I4500J0*
G01Y2060000D02*
G03X1985500I-4500J0D01*
X1994500I4500J0*
G01Y2050000D02*
G03X1985500I-4500J0D01*
X1994500I4500J0*
G01Y2040000D02*
G03X1985500I-4500J0D01*
X1994500I4500J0*
G01Y2030000D02*
G03X1985500I-4500J0D01*
X1994500I4500J0*
G01Y2020000D02*
G03X1985500I-4500J0D01*
X1994500I4500J0*
G01Y2010000D02*
G03X1985500I-4500J0D01*
X1994500I4500J0*
G01Y2000000D02*
G03X1985500I-4500J0D01*
X1994500I4500J0*
G01Y1990000D02*
G03X1985500I-4500J0D01*
X1994500I4500J0*
G01Y1980000D02*
G03X1985500I-4500J0D01*
X1994500I4500J0*
G01X1988000Y1925000D02*
G03X1982000I-3000J0D01*
X1988000I3000J0*
G01X1988135Y1839521D02*
G03X1981198I-3469J0D01*
X1988135I3468J0*
G01Y1829679D02*
G03X1981198I-3469J-0D01*
X1988135I3468J-0*
G01X1984198Y1847395D02*
G03X1977261I-3469J0D01*
X1984198I3468J0*
G01Y1821805D02*
G03X1977261I-3469J-0D01*
X1984198I3468J-0*
G01X1980500Y1880000D02*
G03X1974500I-3000J0D01*
X1980500I3000J0*
G01X1980261Y1839521D02*
G03X1973324I-3469J0D01*
X1980261I3468J0*
G01Y1829679D02*
G03X1973324I-3469J-0D01*
X1980261I3468J-0*
G01X1984900Y2220700D02*
G03X1971900I-6500J0D01*
X1984900I6500J0*
G01Y2160500D02*
G03X1971900I-6500J0D01*
X1984900I6500J0*
G01X1976324Y1847395D02*
G03X1969387I-3469J0D01*
X1976324I3468J0*
G01Y1821805D02*
G03X1969387I-3469J-0D01*
X1976324I3468J-0*
G01X1972600Y2127500D02*
G03X1967400I-2600J0D01*
X1972600I2600J0*
G01Y2107500D02*
G03X1967400I-2600J0D01*
X1972600I2600J0*
G01Y2090000D02*
G03X1967400I-2600J0D01*
X1972600I2600J0*
G01X1972387Y1839521D02*
G03X1965450I-3469J0D01*
X1972387I3468J0*
G01Y1829679D02*
G03X1965450I-3469J-0D01*
X1972387I3468J-0*
G01X1968450Y1847395D02*
G03X1961513I-3469J0D01*
X1968450I3468J0*
G01Y1821805D02*
G03X1961513I-3469J-0D01*
X1968450I3468J-0*
G01X1959110Y1886800D02*
G03X1958100Y1884300I2590J-2500D01*
G01Y1889300D02*
G03X1959110Y1886800I3600J0D01*
G01Y1891800D02*
G03X1958100Y1889300I2590J-2500D01*
G01Y1894300D02*
G03X1959110Y1891800I3600J0D01*
G01Y1896800D02*
G03X1958100Y1894300I2590J-2500D01*
G01Y1899300D02*
G03X1959110Y1896800I3600J0D01*
G01Y1901800D02*
G03X1958100Y1899300I2590J-2500D01*
G01Y1904300D02*
G03X1959110Y1901800I3600J0D01*
G01X1964200Y1906890D02*
G03X1958100Y1904300I-2500J-2590D01*
G01X1970300D02*
G03X1964200Y1906890I-3600J0D01*
G01X1969290Y1901800D02*
G03X1970300Y1904300I-2590J2500D01*
G01Y1899300D02*
G03X1969290Y1901800I-3600J0D01*
G01Y1896800D02*
G03X1970300Y1899300I-2590J2500D01*
G01Y1894300D02*
G03X1969290Y1896800I-3600J0D01*
G01Y1891800D02*
G03X1970300Y1894300I-2590J2500D01*
G01Y1889300D02*
G03X1969290Y1891800I-3600J0D01*
G01X1968997Y1886528D02*
G03X1970300Y1889300I-2297J2772D01*
G01X1969900Y1884300D02*
G03X1968997Y1886528I-3200J0D01*
G01X1964472Y1882003D02*
G03X1969900Y1884300I2228J2297D01*
G01X1958100D02*
G03X1964472Y1882003I3600J0D01*
G01X1964113Y1829679D02*
G03X1957976I-3069J-0D01*
X1964113I3068J-0*
G01X1964513Y1839521D02*
G03X1957576I-3469J0D01*
X1964513I3468J0*
G01X1963000Y2130000D02*
G03X1957000I-3000J0D01*
X1963000I3000J0*
G01X1964500Y2070000D02*
G03X1955500I-4500J0D01*
X1964500I4500J0*
G01Y2060000D02*
G03X1955500I-4500J0D01*
X1964500I4500J0*
G01Y2050000D02*
G03X1955500I-4500J0D01*
X1964500I4500J0*
G01Y2040000D02*
G03X1955500I-4500J0D01*
X1964500I4500J0*
G01Y2030000D02*
G03X1955500I-4500J0D01*
X1964500I4500J0*
G01X1962199Y1993926D02*
G03X1955500Y1990000I-2199J-3926D01*
G01X1962000Y1995000D02*
G03X1962199Y1993926I3000J0D01*
G01Y1996074D02*
G03X1962000Y1995000I2801J-1074D01*
G01X1955500Y2000000D02*
G03X1962199Y1996074I4500J0D01*
G01X1964500Y2000000D02*
G03X1955500I-4500J0D01*
G01X1963926Y1997801D02*
G03X1964500Y2000000I-3926J2199D01*
G01X1968000Y1995000D02*
G03X1963926Y1997801I-3000J0D01*
G01Y1992199D02*
G03X1968000Y1995000I1074J2801D01*
G01X1964500Y1990000D02*
G03X1963926Y1992199I-4500J0D01*
G01X1955500Y1990000D02*
G03X1964500I4500J0D01*
G01Y1980000D02*
G03X1955500I-4500J0D01*
X1964500I4500J0*
G01X1960576Y1847395D02*
G03X1953639I-3469J0D01*
X1960576I3468J0*
G01Y1821805D02*
G03X1953639I-3469J-0D01*
X1960576I3468J-0*
G01X1956074Y2017801D02*
G03X1952000Y2015000I-1074J-2801D01*
G01X1955500Y2020000D02*
G03X1956074Y2017801I4500J0D01*
G01X1964500Y2020000D02*
G03X1955500I-4500J0D01*
G01X1957801Y2016074D02*
G03X1964500Y2020000I2199J3926D01*
G01X1958000Y2015000D02*
G03X1957801Y2016074I-3000J0D01*
G01Y2013926D02*
G03X1958000Y2015000I-2801J1074D01*
G01X1964500Y2010000D02*
G03X1957801Y2013926I-4500J0D01*
G01X1955500Y2010000D02*
G03X1964500I4500J0D01*
G01X1956074Y2012199D02*
G03X1955500Y2010000I3926J-2199D01*
G01X1952000Y2015000D02*
G03X1956074Y2012199I3000J0D01*
G01X1956639Y1839521D02*
G03X1949702I-3469J0D01*
X1956639I3468J0*
G01Y1829679D02*
G03X1949702I-3469J-0D01*
X1956639I3468J-0*
G01X1952702Y1847395D02*
G03X1945765I-3469J0D01*
X1952702I3468J0*
G01Y1821805D02*
G03X1945765I-3469J-0D01*
X1952702I3468J-0*
G01X1948000Y1950000D02*
G03X1942000I-3000J0D01*
X1948000I3000J0*
G01X1945100Y2105000D02*
G03X1939900I-2600J0D01*
X1945100I2600J0*
G01X1942600Y2130000D02*
G03X1937400I-2600J0D01*
X1942600I2600J0*
G01X1944500Y2070000D02*
G03X1935500I-4500J0D01*
X1944500I4500J0*
G01Y2060000D02*
G03X1935500I-4500J0D01*
X1944500I4500J0*
G01Y2050000D02*
G03X1935500I-4500J0D01*
X1944500I4500J0*
G01Y2040000D02*
G03X1935500I-4500J0D01*
X1944500I4500J0*
G01Y2030000D02*
G03X1935500I-4500J0D01*
X1944500I4500J0*
G01Y2020000D02*
G03X1935500I-4500J0D01*
X1944500I4500J0*
G01Y2010000D02*
G03X1935500I-4500J0D01*
X1944500I4500J0*
G01Y2000000D02*
G03X1935500I-4500J0D01*
X1944500I4500J0*
G01Y1990000D02*
G03X1935500I-4500J0D01*
X1944500I4500J0*
G01Y1980000D02*
G03X1935500I-4500J0D01*
X1944500I4500J0*
G01X1941835Y1839747D02*
G03X1932825Y1834600I-3035J-5147D01*
G01X1948765Y1839521D02*
G03X1941835Y1839747I-3469J0D01*
G01X1944576Y1836128D02*
G03X1948765Y1839521I720J3393D01*
G01X1944775Y1834600D02*
G03X1944576Y1836128I-5975J0D01*
G01X1944775Y1834600D02*
X1944775D01*
X1944775*
X1944576Y1833072D02*
G03X1944775Y1834600I-5776J1528D01*
G01X1948765Y1829679D02*
G03X1944576Y1833072I-3469J-0D01*
G01X1941835Y1829453D02*
G03X1948765Y1829679I3461J226D01*
G01X1932825Y1834600D02*
G03X1941835Y1829453I5975J0D01*
G01X1936954Y1847395D02*
G03X1930017I-3469J0D01*
X1936954I3468J0*
G01Y1821805D02*
G03X1930017I-3469J-0D01*
X1936954I3468J-0*
G01X1933000Y2017500D02*
G03X1927000I-3000J0D01*
X1933000I3000J0*
G01Y1885000D02*
G03X1927000I-3000J0D01*
X1933000I3000J0*
G01X1933017Y1839521D02*
G03X1926080I-3469J0D01*
X1933017I3468J0*
G01Y1829679D02*
G03X1926080I-3469J-0D01*
X1933017I3468J-0*
G01X1929080Y1847395D02*
G03X1922143I-3469J0D01*
X1929080I3468J0*
G01Y1821805D02*
G03X1922143I-3469J-0D01*
X1929080I3468J-0*
G01X1925143Y1839521D02*
G03X1918206I-3469J0D01*
X1925143I3468J0*
G01Y1829679D02*
G03X1918206I-3469J-0D01*
X1925143I3468J-0*
G01X1923000Y2127500D02*
G03X1917000I-3000J0D01*
X1923000I3000J0*
G01Y2090000D02*
G03X1917000I-3000J0D01*
X1923000I3000J0*
G01X1924100Y1980000D02*
G03X1915900I-4100J0D01*
X1924100I4100J0*
G01X1924500Y2070000D02*
G03X1915500I-4500J0D01*
X1924500I4500J0*
G01Y2060000D02*
G03X1915500I-4500J0D01*
X1924500I4500J0*
G01Y2050000D02*
G03X1915500I-4500J0D01*
X1924500I4500J0*
G01Y2040000D02*
G03X1915500I-4500J0D01*
X1924500I4500J0*
G01Y2030000D02*
G03X1915500I-4500J0D01*
X1924500I4500J0*
G01Y2020000D02*
G03X1915500I-4500J0D01*
X1924500I4500J0*
G01Y2010000D02*
G03X1915500I-4500J0D01*
X1924500I4500J0*
G01Y2000000D02*
G03X1915500I-4500J0D01*
X1924500I4500J0*
G01Y1990000D02*
G03X1915500I-4500J0D01*
X1924500I4500J0*
G01Y1940000D02*
G03X1915500I-4500J0D01*
X1924500I4500J0*
G01Y1930000D02*
G03X1915500I-4500J0D01*
X1924500I4500J0*
G01Y1920000D02*
G03X1915500I-4500J0D01*
X1924500I4500J0*
G01X1921206Y1847395D02*
G03X1914269I-3469J0D01*
X1921206I3468J0*
G01Y1821805D02*
G03X1914269I-3469J-0D01*
X1921206I3468J-0*
G01X1918000Y1952500D02*
G03X1912000I-3000J0D01*
X1918000I3000J0*
G01X1917269Y1839521D02*
G03X1910331I-3469J0D01*
X1917269I3469J0*
G01Y1829679D02*
G03X1910331I-3469J-0D01*
X1917269I3469J-0*
G01X1913331Y1847395D02*
G03X1906394I-3468J0D01*
X1913331I3469J0*
G01Y1821805D02*
G03X1906394I-3468J-0D01*
X1913331I3469J-0*
G01X1905500Y1936000D02*
Y1944000D01*
X1906000Y1944500D02*
G03X1905500Y1944000I0J-500D01*
G01X1906000Y1944500D02*
X1914000D01*
X1914500Y1944000D02*
G03X1914000Y1944500I-500J0D01*
G01X1914500Y1944000D02*
Y1936000D01*
X1914000Y1935500D02*
G03X1914500Y1936000I0J500D01*
G01X1914000Y1935500D02*
X1906000D01*
X1905500Y1936000D02*
G03X1906000Y1935500I500J0D01*
G01X1914500Y1930000D02*
G03X1905500I-4500J0D01*
X1914500I4500J0*
G01Y1920000D02*
G03X1905500I-4500J0D01*
X1914500I4500J0*
G01X1912199Y1903926D02*
G03X1905500Y1900000I-2199J-3926D01*
G01X1912000Y1905000D02*
G03X1912199Y1903926I3000J0D01*
G01Y1906074D02*
G03X1912000Y1905000I2801J-1074D01*
G01X1905500Y1910000D02*
G03X1912199Y1906074I4500J0D01*
G01X1914500Y1910000D02*
G03X1905500I-4500J0D01*
G01X1913926Y1907801D02*
G03X1914500Y1910000I-3926J2199D01*
G01X1916074Y1907801D02*
G03X1913926I-1074J-2801D01*
G01X1915500Y1910000D02*
G03X1916074Y1907801I4500J0D01*
G01X1924500Y1910000D02*
G03X1915500I-4500J0D01*
G01X1917801Y1906074D02*
G03X1924500Y1910000I2199J3926D01*
G01X1918000Y1905000D02*
G03X1917801Y1906074I-3000J0D01*
G01Y1903926D02*
G03X1918000Y1905000I-2801J1074D01*
G01X1924500Y1900000D02*
G03X1917801Y1903926I-4500J0D01*
G01X1915500Y1900000D02*
G03X1924500I4500J0D01*
G01X1916074Y1902199D02*
G03X1915500Y1900000I3926J-2199D01*
G01X1913926Y1902199D02*
G03X1916074I1074J2801D01*
G01X1914500Y1900000D02*
G03X1913926Y1902199I-4500J0D01*
G01X1905500Y1900000D02*
G03X1914500I4500J0D01*
G01X1910500Y1892500D02*
G03X1904500I-3000J0D01*
X1910500I3000J0*
G01X1902600Y2127500D02*
G03X1897400I-2600J0D01*
X1902600I2600J0*
G01X1903000Y2110000D02*
G03X1897000I-3000J0D01*
X1903000I3000J0*
G01Y2080000D02*
G03X1897000I-3000J0D01*
X1903000I3000J0*
G01Y2050000D02*
G03X1897000I-3000J0D01*
X1903000I3000J0*
G01Y2010000D02*
G03X1897000I-3000J0D01*
X1903000I3000J0*
G01X1908751Y1834600D02*
G03X1896801I-5975J0D01*
X1908751I5975J0*
G01X1898000Y2070000D02*
G03X1892000I-3000J0D01*
X1898000I3000J0*
G01X1892775Y2090487D02*
G03X1889500Y2087500I-275J-2987D01*
G01X1892000Y2092500D02*
G03X1892775Y2090487I3000J-0D01*
G01X1892000Y2092500D02*
X1892000D01*
X1898000D02*
G03X1892000I-3000J0D01*
G01X1894725Y2089513D02*
G03X1898000Y2092500I275J2987D01*
G01X1895500Y2087500D02*
G03X1894725Y2089513I-3000J0D01*
G01X1895500Y2087500D02*
X1895500D01*
X1889500D02*
G03X1895500I3000J0D01*
G01X1893000Y2030000D02*
G03X1887000I-3000J0D01*
X1893000I3000J0*
G01X1892013Y1817225D02*
G03X1887000Y1815000I-2013J-2225D01*
G01X1892000Y1817500D02*
G03X1892013Y1817225I3000J0D01*
G01X1898000Y1817500D02*
G03X1892000I-3000J0D01*
G01X1892987Y1815275D02*
G03X1898000Y1817500I2013J2225D01*
G01X1893000Y1815000D02*
G03X1892987Y1815275I-3000J-0D01*
G01X1887000Y1815000D02*
G03X1893000I3000J0D01*
G01X1898100Y2221500D02*
G03X1885100I-6500J0D01*
X1898100I6500J0*
G01Y2161300D02*
G03X1885100I-6500J0D01*
X1898100I6500J0*
G01X1882600Y1957500D02*
G03X1877400I-2600J0D01*
X1882600I2600J0*
G01Y1880000D02*
G03X1877400I-2600J0D01*
X1882600I2600J0*
G01X1883000Y2130000D02*
G03X1877000I-3000J0D01*
X1883000I3000J0*
G01Y2070000D02*
G03X1877000I-3000J0D01*
X1883000I3000J0*
G01Y1990000D02*
G03X1877000I-3000J0D01*
X1883000I3000J0*
G01Y1940000D02*
G03X1877000I-3000J0D01*
X1883000I3000J0*
G01X1878000Y2005000D02*
G03X1872000I-3000J0D01*
X1878000I3000J0*
G01X1862600Y1860000D02*
G03X1857400I-2600J0D01*
X1862600I2600J0*
G01X1868350Y1825100D02*
G03X1847250I-10550J0D01*
X1868350I10550J0*
G01X1867750Y2221700D02*
G03X1846650I-10550J0D01*
X1867750I10550J0*
G01X1845300Y2233599D02*
X2045400D01*
X1845300Y2232699D02*
X2045400D01*
X2034566Y2231799D02*
X2045400D01*
X2036540Y2230899D02*
X2045400D01*
X2037840Y2229999D02*
X2045400D01*
X2038818Y2229099D02*
X2045400D01*
X2039588Y2228199D02*
X2045400D01*
X2040204Y2227299D02*
X2045400D01*
X2040695Y2226399D02*
X2045400D01*
X2041080Y2225499D02*
X2045400D01*
X2041372Y2224599D02*
X2045400D01*
X2041578Y2223699D02*
X2045400D01*
X2041703Y2222799D02*
X2045400D01*
X2041750Y2221899D02*
X2045400D01*
X2041720Y2220999D02*
X2045400D01*
X2041612Y2220099D02*
X2045400D01*
X2041424Y2219199D02*
X2045400D01*
X2041152Y2218299D02*
X2045400D01*
X2040788Y2217399D02*
X2045400D01*
X2040321Y2216499D02*
X2045400D01*
X2039735Y2215599D02*
X2045400D01*
X2039002Y2214699D02*
X2045400D01*
X2038076Y2213799D02*
X2045400D01*
X2036863Y2212899D02*
X2045400D01*
X2035103Y2211999D02*
X2045400D01*
X1845300Y2211099D02*
X2045400D01*
X1845300Y2210199D02*
X2045400D01*
X1845300Y2209299D02*
X2045400D01*
X1845300Y2208399D02*
X2045400D01*
X1845300Y2207499D02*
X2045400D01*
X1845300Y2206599D02*
X2045400D01*
X1845300Y2205699D02*
X2045400D01*
X1845300Y2204799D02*
X2045400D01*
X1845300Y2203899D02*
X2045400D01*
X1845300Y2202999D02*
X2045400D01*
X1845300Y2202099D02*
X2045400D01*
X1845300Y2201199D02*
X2045400D01*
X1845300Y2200299D02*
X2045400D01*
X1845300Y2199399D02*
X2045400D01*
X1845300Y2198499D02*
X2045400D01*
X1845300Y2197599D02*
X2045400D01*
X1845300Y2196699D02*
X2045400D01*
X1845300Y2195799D02*
X2045400D01*
X1845300Y2194899D02*
X2045400D01*
X1845300Y2193999D02*
X2045400D01*
X1845300Y2193099D02*
X2045400D01*
X1845300Y2192199D02*
X2045400D01*
X1845300Y2191299D02*
X2045400D01*
X1845300Y2190399D02*
X2045400D01*
X1845300Y2189499D02*
X2045400D01*
X1845300Y2188599D02*
X2045400D01*
X1845300Y2187699D02*
X2045400D01*
X1845300Y2186799D02*
X2045400D01*
X1845300Y2185899D02*
X2045400D01*
X1845300Y2184999D02*
X2045400D01*
X1845300Y2184099D02*
X2045400D01*
X1845300Y2183199D02*
X2045400D01*
X1845300Y2182299D02*
X2045400D01*
X1845300Y2181399D02*
X2045400D01*
X1845300Y2180499D02*
X2045400D01*
X1845300Y2179599D02*
X2045400D01*
X1845300Y2178699D02*
X2045400D01*
X1845300Y2177799D02*
X2045400D01*
X1845300Y2176899D02*
X2045400D01*
X1845300Y2175999D02*
X2045400D01*
X1845300Y2175099D02*
X2045400D01*
X1845300Y2174199D02*
X2045400D01*
X1845300Y2173299D02*
X2045400D01*
X1845300Y2172399D02*
X2045400D01*
X1845300Y2171499D02*
X2045400D01*
X1845300Y2170599D02*
X2045400D01*
X1845300Y2169699D02*
X2045400D01*
X1845300Y2168799D02*
X2045400D01*
X1845300Y2167899D02*
X2045400D01*
X1978531Y2166999D02*
X2045400D01*
X1981702Y2166099D02*
X2045400D01*
X1982891Y2165199D02*
X2045400D01*
X1983674Y2164299D02*
X2045400D01*
X1984218Y2163399D02*
X2045400D01*
X1984585Y2162499D02*
X2045400D01*
X1984806Y2161599D02*
X2045400D01*
X1984897Y2160699D02*
X2045400D01*
X1984862Y2159799D02*
X2045400D01*
X1984700Y2158899D02*
X2045400D01*
X1984399Y2157999D02*
X2045400D01*
X1983939Y2157099D02*
X2045400D01*
X1983273Y2156199D02*
X2045400D01*
X1982298Y2155299D02*
X2045400D01*
X1980641Y2154399D02*
X2045400D01*
X1845300Y2153499D02*
X2045400D01*
X1845300Y2152599D02*
X2045400D01*
X1845300Y2151699D02*
X2045400D01*
X1845300Y2150799D02*
X2045400D01*
X1845300Y2149899D02*
X2045400D01*
X1845300Y2148999D02*
X2045400D01*
X1845300Y2148099D02*
X2045400D01*
X1845300Y2147199D02*
X2045400D01*
X1845300Y2146299D02*
X2045400D01*
X1845300Y2145399D02*
X2045400D01*
X1845300Y2144499D02*
X2045400D01*
X1845300Y2143599D02*
X2045400D01*
X1845300Y2142699D02*
X2045400D01*
X1845300Y2141799D02*
X2045400D01*
X1845300Y2140899D02*
X2045400D01*
X1845300Y2139999D02*
X2045400D01*
X1845300Y2139099D02*
X2045400D01*
X1845300Y2138199D02*
X2045400D01*
X1845300Y2137299D02*
X2045400D01*
X1845300Y2136399D02*
X2045400D01*
X1845300Y2135499D02*
X2045400D01*
X1845300Y2134599D02*
X2045400D01*
X1845300Y2133699D02*
X2045400D01*
X1961080Y2132799D02*
X2045400D01*
X1962323Y2131899D02*
X2045400D01*
X1962829Y2130999D02*
X2045400D01*
X1970083Y2130099D02*
X2045400D01*
X1971968Y2129199D02*
X2045400D01*
X1972474Y2128299D02*
X2045400D01*
X1972598Y2127399D02*
X2045400D01*
X1972399Y2126499D02*
X2045400D01*
X1971773Y2125599D02*
X2045400D01*
X1921074Y2124699D02*
X2045400D01*
X1845300Y2123799D02*
X2045400D01*
X1845300Y2122899D02*
X2045400D01*
X1845300Y2121999D02*
X2045400D01*
X1845300Y2121099D02*
X2045400D01*
X1845300Y2120199D02*
X2045400D01*
X1845300Y2119299D02*
X2045400D01*
X1845300Y2118399D02*
X2045400D01*
X1845300Y2117499D02*
X2045400D01*
X1845300Y2116599D02*
X2045400D01*
X1845300Y2115699D02*
X2045400D01*
X1845300Y2114799D02*
X2045400D01*
X1845300Y2113899D02*
X2045400D01*
X1900089Y2112999D02*
X2045400D01*
X1902144Y2112099D02*
X2045400D01*
X1902750Y2111199D02*
X2045400D01*
X1902985Y2110299D02*
X2045400D01*
X1971776Y2109399D02*
X2045400D01*
X1972401Y2108499D02*
X2045400D01*
X1972598Y2107599D02*
X2045400D01*
X1972473Y2106699D02*
X2045400D01*
X1971966Y2105799D02*
X2045400D01*
X1945098Y2104899D02*
X2045400D01*
X1944899Y2103999D02*
X2045400D01*
X1944273Y2103099D02*
X2045400D01*
X1845300Y2102199D02*
X2045400D01*
X1845300Y2101299D02*
X2045400D01*
X1845300Y2100399D02*
X2045400D01*
X1845300Y2099499D02*
X2045400D01*
X1845300Y2098599D02*
X2045400D01*
X1845300Y2097699D02*
X2045400D01*
X1845300Y2096799D02*
X2045400D01*
X1845300Y2095899D02*
X2045400D01*
X1896660Y2094999D02*
X2045400D01*
X1897539Y2094099D02*
X2045400D01*
X1897918Y2093199D02*
X2045400D01*
X1971215Y2092299D02*
X2045400D01*
X1972192Y2091399D02*
X2045400D01*
X1972552Y2090499D02*
X2045400D01*
X1972569Y2089599D02*
X2045400D01*
X1972251Y2088699D02*
X2045400D01*
X1971384Y2087799D02*
X2045400D01*
X1895439Y2086899D02*
X2045400D01*
X1895097Y2085999D02*
X2045400D01*
X1894298Y2085099D02*
X2045400D01*
X1845300Y2084199D02*
X2045400D01*
X1845300Y2083299D02*
X2045400D01*
X1901802Y2082399D02*
X2045400D01*
X1902599Y2081499D02*
X2045400D01*
X1902940Y2080599D02*
X2045400D01*
X1902985Y2079699D02*
X2045400D01*
X1902749Y2078799D02*
X2045400D01*
X1902141Y2077899D02*
X2045400D01*
X1845300Y2076999D02*
X2045400D01*
X1845300Y2076099D02*
X2045400D01*
X1845300Y2075199D02*
X2045400D01*
X1991331Y2074299D02*
X2045400D01*
X1992949Y2073399D02*
X2045400D01*
X1993743Y2072499D02*
X2045400D01*
X1994206Y2071599D02*
X2045400D01*
X1994445Y2070699D02*
X2045400D01*
X1994495Y2069799D02*
X2045400D01*
X1994363Y2068899D02*
X2045400D01*
X1994030Y2067999D02*
X2045400D01*
X1993440Y2067099D02*
X2045400D01*
X1992408Y2066199D02*
X2045400D01*
X1845300Y2065299D02*
X2045400D01*
X1990949Y2064399D02*
X2045400D01*
X1992830Y2063499D02*
X2045400D01*
X1993674Y2062599D02*
X2045400D01*
X1994167Y2061699D02*
X2045400D01*
X1994429Y2060799D02*
X2045400D01*
X1994499Y2059899D02*
X2045400D01*
X1994387Y2058999D02*
X2045400D01*
X1994079Y2058099D02*
X2045400D01*
X1993522Y2057199D02*
X2045400D01*
X1992559Y2056299D02*
X2045400D01*
X1845300Y2055399D02*
X2045400D01*
X1990109Y2054499D02*
X2045400D01*
X1992702Y2053599D02*
X2045400D01*
X1993601Y2052699D02*
X2045400D01*
X1994125Y2051799D02*
X2045400D01*
X1994409Y2050899D02*
X2045400D01*
X1994500Y2049999D02*
X2045400D01*
X1994409Y2049099D02*
X2045400D01*
X1994124Y2048199D02*
X2045400D01*
X1993599Y2047299D02*
X2045400D01*
X1992698Y2046399D02*
X2045400D01*
X1845300Y2045499D02*
X2045400D01*
X1845300Y2044599D02*
X2045400D01*
X1992563Y2043699D02*
X2045400D01*
X1993524Y2042799D02*
X2045400D01*
X1994080Y2041899D02*
X2045400D01*
X1994388Y2040999D02*
X2045400D01*
X1994499Y2040099D02*
X2045400D01*
X1994428Y2039199D02*
X2045400D01*
X1994166Y2038299D02*
X2045400D01*
X1993672Y2037399D02*
X2045400D01*
X1992827Y2036499D02*
X2045400D01*
X1990937Y2035599D02*
X2045400D01*
X1845300Y2034699D02*
X2045400D01*
X1992412Y2033799D02*
X2045400D01*
X1993442Y2032899D02*
X2045400D01*
X1994032Y2031999D02*
X2045400D01*
X1994364Y2031099D02*
X2045400D01*
X1994496Y2030199D02*
X2045400D01*
X1994445Y2029299D02*
X2045400D01*
X1994205Y2028399D02*
X2045400D01*
X1993741Y2027499D02*
X2045400D01*
X1992946Y2026599D02*
X2045400D01*
X1991322Y2025699D02*
X2045400D01*
X1845300Y2024799D02*
X2045400D01*
X1992247Y2023899D02*
X2045400D01*
X1993355Y2022999D02*
X2045400D01*
X1993981Y2022099D02*
X2045400D01*
X1994337Y2021199D02*
X2045400D01*
X1994490Y2020299D02*
X2045400D01*
X1994460Y2019399D02*
X2045400D01*
X1994242Y2018499D02*
X2045400D01*
X1993806Y2017599D02*
X2045400D01*
X1993058Y2016699D02*
X2045400D01*
X1991612Y2015799D02*
X2045400D01*
X1957998Y2014899D02*
X2045400D01*
X1992064Y2013999D02*
X2045400D01*
X1993263Y2013099D02*
X2045400D01*
X1993926Y2012199D02*
X2045400D01*
X1994309Y2011299D02*
X2045400D01*
X1994482Y2010399D02*
X2045400D01*
X1994472Y2009499D02*
X2045400D01*
X1994276Y2008599D02*
X2045400D01*
X1993867Y2007699D02*
X2045400D01*
X1993163Y2006799D02*
X2045400D01*
X1991852Y2005899D02*
X2045400D01*
X1878000Y2004999D02*
X2045400D01*
X1991858Y2004099D02*
X2045400D01*
X1993165Y2003199D02*
X2045400D01*
X1993869Y2002299D02*
X2045400D01*
X1994277Y2001399D02*
X2045400D01*
X1994472Y2000499D02*
X2045400D01*
X1994482Y1999599D02*
X2045400D01*
X1994308Y1998699D02*
X2045400D01*
X1993925Y1997799D02*
X2045400D01*
X1993261Y1996899D02*
X2045400D01*
X1992059Y1995999D02*
X2045400D01*
X1967998Y1995099D02*
X2045400D01*
X1991619Y1994199D02*
X2045400D01*
X1993061Y1993299D02*
X2045400D01*
X1993807Y1992399D02*
X2045400D01*
X1994243Y1991499D02*
X2045400D01*
X1994460Y1990599D02*
X2045400D01*
X1994490Y1989699D02*
X2045400D01*
X1994337Y1988799D02*
X2045400D01*
X1993979Y1987899D02*
X2045400D01*
X1993353Y1986999D02*
X2045400D01*
X1992243Y1986099D02*
X2045400D01*
X1845300Y1985199D02*
X2045400D01*
X1991331Y1984299D02*
X2045400D01*
X1992949Y1983399D02*
X2045400D01*
X1993743Y1982499D02*
X2045400D01*
X1994206Y1981599D02*
X2045400D01*
X1994445Y1980699D02*
X2045400D01*
X1994495Y1979799D02*
X2045400D01*
X1994363Y1978899D02*
X2045400D01*
X1994030Y1977999D02*
X2045400D01*
X1993440Y1977099D02*
X2045400D01*
X1992408Y1976199D02*
X2045400D01*
X1845300Y1975299D02*
X2045400D01*
X1845300Y1974399D02*
X2045400D01*
X1845300Y1973499D02*
X2045400D01*
X1845300Y1972599D02*
X2045400D01*
X1845300Y1971699D02*
X2045400D01*
X1845300Y1970799D02*
X2045400D01*
X1845300Y1969899D02*
X2045400D01*
X1845300Y1968999D02*
X2045400D01*
X1845300Y1968099D02*
X2045400D01*
X1845300Y1967199D02*
X2045400D01*
X1845300Y1966299D02*
X2045400D01*
X1845300Y1965399D02*
X2045400D01*
X1845300Y1964499D02*
X2045400D01*
X1845300Y1963599D02*
X2045400D01*
X1845300Y1962699D02*
X2045400D01*
X1845300Y1961799D02*
X2045400D01*
X1845300Y1960899D02*
X2045400D01*
X1880719Y1959999D02*
X2045400D01*
X1882050Y1959099D02*
X2045400D01*
X1882504Y1958199D02*
X2045400D01*
X1882592Y1957299D02*
X2045400D01*
X1882355Y1956399D02*
X2045400D01*
X1915089Y1955499D02*
X2045400D01*
X1917144Y1954599D02*
X2045400D01*
X1917750Y1953699D02*
X2045400D01*
X1946080Y1952799D02*
X2045400D01*
X1947323Y1951899D02*
X2045400D01*
X1947829Y1950999D02*
X2045400D01*
X1947998Y1950099D02*
X2045400D01*
X1947891Y1949199D02*
X2045400D01*
X1947471Y1948299D02*
X2045400D01*
X2001802Y1947399D02*
X2045400D01*
X2002599Y1946499D02*
X2045400D01*
X2002940Y1945599D02*
X2045400D01*
X2002985Y1944699D02*
X2045400D01*
X2002749Y1943799D02*
X2045400D01*
X2002141Y1942899D02*
X2045400D01*
X1924032Y1941999D02*
X2045400D01*
X1924364Y1941099D02*
X2045400D01*
X1924496Y1940199D02*
X2045400D01*
X1924445Y1939299D02*
X2045400D01*
X1924205Y1938399D02*
X2045400D01*
X1923741Y1937499D02*
X2045400D01*
X1922946Y1936599D02*
X2045400D01*
X1921322Y1935699D02*
X2045400D01*
X1991928Y1934799D02*
X2045400D01*
X1992654Y1933899D02*
X2045400D01*
X1992958Y1932999D02*
X2045400D01*
X1992973Y1932099D02*
X2045400D01*
X1992703Y1931199D02*
X2045400D01*
X1992038Y1930299D02*
X2045400D01*
X1924460Y1929399D02*
X2045400D01*
X1924242Y1928499D02*
X2045400D01*
X1986499Y1927599D02*
X2045400D01*
X1987473Y1926699D02*
X2045400D01*
X1987892Y1925799D02*
X2045400D01*
X1987998Y1924899D02*
X2045400D01*
X1987828Y1923999D02*
X2045400D01*
X1987321Y1923099D02*
X2045400D01*
X1986074Y1922199D02*
X2045400D01*
X1924309Y1921299D02*
X2045400D01*
X1924482Y1920399D02*
X2045400D01*
X1924472Y1919499D02*
X2045400D01*
X1924276Y1918599D02*
X2045400D01*
X1923867Y1917699D02*
X2045400D01*
X1923163Y1916799D02*
X2045400D01*
X1921852Y1915899D02*
X2045400D01*
X1845300Y1914999D02*
X2045400D01*
X1921858Y1914099D02*
X2045400D01*
X1923165Y1913199D02*
X2045400D01*
X1923869Y1912299D02*
X2045400D01*
X1924277Y1911399D02*
X2045400D01*
X1924472Y1910499D02*
X2045400D01*
X1924482Y1909599D02*
X2045400D01*
X1924308Y1908699D02*
X2045400D01*
X1967548Y1907799D02*
X2045400D01*
X1969191Y1906899D02*
X2045400D01*
X1969874Y1905999D02*
X2045400D01*
X1970210Y1905099D02*
X2045400D01*
X1970299Y1904199D02*
X2045400D01*
X1970158Y1903299D02*
X2045400D01*
X1969757Y1902399D02*
X2045400D01*
X1969551Y1901499D02*
X2045400D01*
X1970058Y1900599D02*
X2045400D01*
X1970278Y1899699D02*
X2045400D01*
X1970265Y1898799D02*
X2045400D01*
X1970016Y1897899D02*
X2045400D01*
X1969468Y1896999D02*
X2045400D01*
X1969818Y1896099D02*
X2045400D01*
X1970186Y1895199D02*
X2045400D01*
X1970300Y1894299D02*
X2045400D01*
X1970185Y1893399D02*
X2045400D01*
X1969817Y1892499D02*
X2045400D01*
X1969471Y1891599D02*
X2045400D01*
X1970017Y1890699D02*
X2045400D01*
X1970265Y1889799D02*
X2045400D01*
X1970278Y1888899D02*
X2045400D01*
X1970057Y1887999D02*
X2045400D01*
X1969549Y1887099D02*
X2045400D01*
X1969276Y1886199D02*
X2045400D01*
X1969740Y1885299D02*
X2045400D01*
X1969898Y1884399D02*
X2045400D01*
X1969798Y1883499D02*
X2045400D01*
X1978999Y1882599D02*
X2045400D01*
X1979973Y1881699D02*
X2045400D01*
X1980392Y1880799D02*
X2045400D01*
X1980498Y1879899D02*
X2045400D01*
X1980328Y1878999D02*
X2045400D01*
X1979821Y1878099D02*
X2045400D01*
X1978574Y1877199D02*
X2045400D01*
X1845300Y1876299D02*
X2045400D01*
X1845300Y1875399D02*
X2045400D01*
X1845300Y1874499D02*
X2045400D01*
X1845300Y1873599D02*
X2045400D01*
X1845300Y1872699D02*
X2045400D01*
X1845300Y1871799D02*
X2045400D01*
X1845300Y1870899D02*
X2045400D01*
X1845300Y1869999D02*
X2045400D01*
X1845300Y1869099D02*
X2045400D01*
X1845300Y1868199D02*
X2045400D01*
X1845300Y1867299D02*
X2045400D01*
X1845300Y1866399D02*
X2045400D01*
X1845300Y1865499D02*
X2045400D01*
X1845300Y1864599D02*
X2045400D01*
X1845300Y1863699D02*
X2045400D01*
X1845300Y1862799D02*
X2045400D01*
X1861776Y1861899D02*
X2045400D01*
X1862401Y1860999D02*
X2045400D01*
X1862598Y1860099D02*
X2045400D01*
X1862473Y1859199D02*
X2045400D01*
X1861966Y1858299D02*
X2045400D01*
X1845300Y1857399D02*
X2045400D01*
X1845300Y1856499D02*
X2045400D01*
X1845300Y1855599D02*
X2045400D01*
X1845300Y1854699D02*
X2045400D01*
X1845300Y1853799D02*
X2045400D01*
X1845300Y1852899D02*
X2045400D01*
X1845300Y1851999D02*
X2045400D01*
X1845300Y1851099D02*
X2045400D01*
X1982772Y1850199D02*
X2045400D01*
X1983629Y1849299D02*
X2045400D01*
X1984049Y1848399D02*
X2045400D01*
X1984196Y1847499D02*
X2045400D01*
X1984105Y1846599D02*
X2045400D01*
X1983754Y1845699D02*
X2045400D01*
X1983029Y1844799D02*
X2045400D01*
X1845300Y1843899D02*
X2045400D01*
X1845300Y1842999D02*
X2045400D01*
X1986987Y1842099D02*
X2045400D01*
X1987702Y1841199D02*
X2045400D01*
X1988046Y1840299D02*
X2045400D01*
X1988132Y1839399D02*
X2045400D01*
X1987980Y1838499D02*
X2045400D01*
X1987553Y1837599D02*
X2045400D01*
X1986682Y1836699D02*
X2045400D01*
X1944654Y1835799D02*
X2045400D01*
X2037266Y1834899D02*
X2045400D01*
X2039240Y1833999D02*
X2045400D01*
X2040540Y1833099D02*
X2045400D01*
X2041518Y1832199D02*
X2045400D01*
X2042288Y1831299D02*
X2045400D01*
X2042904Y1830399D02*
X2045400D01*
X2043395Y1829499D02*
X2045400D01*
X2043780Y1828599D02*
X2045400D01*
X2044072Y1827699D02*
X2045400D01*
X2044278Y1826799D02*
X2045400D01*
X2044403Y1825899D02*
X2045400D01*
X2044450Y1824999D02*
X2045400D01*
X2044420Y1824099D02*
X2045400D01*
X2044312Y1823199D02*
X2045400D01*
X2044124Y1822299D02*
X2045400D01*
X2043852Y1821399D02*
X2045400D01*
X2043488Y1820499D02*
X2045400D01*
X2043021Y1819599D02*
X2045400D01*
X2042435Y1818699D02*
X2045400D01*
X2041702Y1817799D02*
X2045400D01*
X2040776Y1816899D02*
X2045400D01*
X2039563Y1815999D02*
X2045400D01*
X2037803Y1815099D02*
X2045400D01*
X1892891Y1814199D02*
X2045400D01*
X1892471Y1813299D02*
X2045400D01*
X1891494Y1812399D02*
X2045400D01*
X1944768Y1834899D02*
X2030534D01*
X1896798Y1815099D02*
X2029997D01*
X1944745Y1833999D02*
X2028560D01*
X1897597Y1815999D02*
X2028237D01*
X1860253Y2231799D02*
X2027834D01*
X1861346Y2211999D02*
X2027297D01*
X1985244Y1833099D02*
X2027260D01*
X1897939Y1816899D02*
X2027024D01*
X2002041Y1832199D02*
X2026282D01*
X1897985Y1817799D02*
X2026098D01*
X1862366Y2230899D02*
X2025860D01*
X1863017Y2212899D02*
X2025537D01*
X2002704Y1831299D02*
X2025512D01*
X1982273Y1818699D02*
X2025365D01*
X2002973Y1830399D02*
X2024896D01*
X1983406Y1819599D02*
X2024779D01*
X1863714Y2229999D02*
X2024560D01*
X2002958Y1829499D02*
X2024405D01*
X1864191Y2213799D02*
X2024324D01*
X1983942Y1820499D02*
X2024312D01*
X2002653Y1828599D02*
X2024020D01*
X1984174Y1821399D02*
X2023948D01*
X2001925Y1827699D02*
X2023728D01*
X1984162Y1822299D02*
X2023676D01*
X1864721Y2229099D02*
X2023582D01*
X1986599Y1826799D02*
X2023522D01*
X1983905Y1823199D02*
X2023488D01*
X1980897Y2214699D02*
X2023398D01*
X1868320Y1825899D02*
X2023397D01*
X1983331Y1824099D02*
X2023380D01*
X1982082Y1824999D02*
X2023350D01*
X1865511Y2228199D02*
X2022812D01*
X1982428Y2215599D02*
X2022665D01*
X1894537Y2227299D02*
X2022196D01*
X1983360Y2216499D02*
X2022079D01*
X1981526Y2226399D02*
X2021705D01*
X1983999Y2217399D02*
X2021612D01*
X1982784Y2225499D02*
X2021320D01*
X1984440Y2218299D02*
X2021248D01*
X1983601Y2224599D02*
X2021028D01*
X1984724Y2219199D02*
X2020976D01*
X1984167Y2223699D02*
X2020822D01*
X1984872Y2220099D02*
X2020788D01*
X1984552Y2222799D02*
X2020697D01*
X1984893Y2220999D02*
X2020680D01*
X1984789Y2221899D02*
X2020650D01*
X1946494Y1947399D02*
X1998198D01*
X1987514Y1827699D02*
X1998075D01*
X1987049Y1832199D02*
X1997959D01*
X1923442Y1942899D02*
X1997859D01*
X1845300Y1946499D02*
X1997401D01*
X1987962Y1828599D02*
X1997347D01*
X1987733Y1831299D02*
X1997296D01*
X1922412Y1943799D02*
X1997251D01*
X1845300Y1945599D02*
X1997060D01*
X1988130Y1829499D02*
X1997042D01*
X1988059Y1830399D02*
X1997027D01*
X1845300Y1944699D02*
X1997015D01*
X1960109Y2054499D02*
X1989891D01*
X1960937Y2035599D02*
X1989063D01*
X1960949Y2064399D02*
X1989051D01*
X1961322Y2025699D02*
X1988678D01*
X1961331Y2074299D02*
X1988669D01*
X1961331Y1984299D02*
X1988669D01*
X1961612Y2015799D02*
X1988388D01*
X1967891Y1994199D02*
X1988381D01*
X1961852Y2005899D02*
X1988148D01*
X1961858Y2004099D02*
X1988142D01*
X1845300Y1934799D02*
X1988072D01*
X1924490Y1930299D02*
X1987962D01*
X1967829Y1995999D02*
X1987941D01*
X1962064Y2013999D02*
X1987936D01*
X1962243Y1986099D02*
X1987757D01*
X1962247Y2023899D02*
X1987753D01*
X1962408Y2066199D02*
X1987592D01*
X1962408Y1976199D02*
X1987592D01*
X1962412Y2033799D02*
X1987588D01*
X1962559Y2056299D02*
X1987441D01*
X1962563Y2043699D02*
X1987437D01*
X1922247Y1933899D02*
X1987346D01*
X1962698Y2046399D02*
X1987302D01*
X1962702Y2053599D02*
X1987298D01*
X1924337Y1931199D02*
X1987297D01*
X1962827Y2036499D02*
X1987173D01*
X1962830Y2063499D02*
X1987170D01*
X1962946Y2026599D02*
X1987054D01*
X1962949Y2073399D02*
X1987051D01*
X1962949Y1983399D02*
X1987051D01*
X1923355Y1932999D02*
X1987042D01*
X1923981Y1932099D02*
X1987027D01*
X1963058Y2016699D02*
X1986942D01*
X1967471Y1993299D02*
X1986939D01*
X1963163Y2006799D02*
X1986837D01*
X1963165Y2003199D02*
X1986835D01*
X1967323Y1996899D02*
X1986739D01*
X1963263Y2013099D02*
X1986737D01*
X1963353Y1986999D02*
X1986647D01*
X1963355Y2022999D02*
X1986645D01*
X1963440Y2067099D02*
X1986560D01*
X1963440Y1977099D02*
X1986560D01*
X1963442Y2032899D02*
X1986558D01*
X1963522Y2057199D02*
X1986478D01*
X1963524Y2042799D02*
X1986476D01*
X1963599Y2047299D02*
X1986401D01*
X1963601Y2052699D02*
X1986399D01*
X1963672Y2037399D02*
X1986328D01*
X1963674Y2062599D02*
X1986326D01*
X1963741Y2027499D02*
X1986259D01*
X1963743Y2072499D02*
X1986257D01*
X1963743Y1982499D02*
X1986257D01*
X1963806Y2017599D02*
X1986194D01*
X1966494Y1992399D02*
X1986193D01*
X1963867Y2007699D02*
X1986133D01*
X1963869Y2002299D02*
X1986131D01*
X1966080Y1997799D02*
X1986075D01*
X1963926Y2012199D02*
X1986074D01*
X1963979Y1987899D02*
X1986021D01*
X1963981Y2022099D02*
X1986019D01*
X1964030Y2067999D02*
X1985970D01*
X1964030Y1977999D02*
X1985970D01*
X1964032Y2031999D02*
X1985968D01*
X1964079Y2058099D02*
X1985921D01*
X1964080Y2041899D02*
X1985920D01*
X1964124Y2048199D02*
X1985876D01*
X1964125Y2051799D02*
X1985875D01*
X1964166Y2038299D02*
X1985834D01*
X1964167Y2061699D02*
X1985833D01*
X1964205Y2028399D02*
X1985795D01*
X1964206Y2071599D02*
X1985794D01*
X1964206Y1981599D02*
X1985794D01*
X1964242Y2018499D02*
X1985758D01*
X1964243Y1991499D02*
X1985757D01*
X1964276Y2008599D02*
X1985724D01*
X1964277Y2001399D02*
X1985723D01*
X1964308Y1998699D02*
X1985692D01*
X1964309Y2011299D02*
X1985691D01*
X1964337Y1988799D02*
X1985663D01*
X1964337Y2021199D02*
X1985663D01*
X1964363Y2068899D02*
X1985637D01*
X1964363Y1978899D02*
X1985637D01*
X1964364Y2031099D02*
X1985636D01*
X1964387Y2058999D02*
X1985613D01*
X1964388Y2040999D02*
X1985612D01*
X1964409Y2049099D02*
X1985591D01*
X1964409Y2050899D02*
X1985591D01*
X1964428Y2039199D02*
X1985572D01*
X1964429Y2060799D02*
X1985571D01*
X1964445Y2029299D02*
X1985555D01*
X1964445Y2070699D02*
X1985555D01*
X1964445Y1980699D02*
X1985555D01*
X1964460Y2019399D02*
X1985540D01*
X1964460Y1990599D02*
X1985540D01*
X1964472Y2009499D02*
X1985528D01*
X1964472Y2000499D02*
X1985528D01*
X1964482Y1999599D02*
X1985518D01*
X1964482Y2010399D02*
X1985518D01*
X1964490Y1989699D02*
X1985510D01*
X1964490Y2020299D02*
X1985510D01*
X1964495Y2069799D02*
X1985505D01*
X1964495Y1979799D02*
X1985505D01*
X1964496Y2030199D02*
X1985504D01*
X1964499Y2059899D02*
X1985501D01*
X1964499Y2040099D02*
X1985501D01*
X1964500Y2049999D02*
X1985500D01*
X1977370Y1833099D02*
X1984088D01*
X1923926Y1922199D02*
X1983926D01*
X1923806Y1927599D02*
X1983501D01*
X1978725Y1826799D02*
X1982733D01*
X1923263Y1923099D02*
X1982679D01*
X1978808Y1836699D02*
X1982650D01*
X1923058Y1926699D02*
X1982527D01*
X1979113Y1842099D02*
X1982345D01*
X1979175Y1832199D02*
X1982283D01*
X1922064Y1923999D02*
X1982172D01*
X1921612Y1925799D02*
X1982108D01*
X1845300Y1924899D02*
X1982002D01*
X1979640Y1827699D02*
X1981818D01*
X1979679Y1837599D02*
X1981779D01*
X1979828Y1841199D02*
X1981630D01*
X1979859Y1831299D02*
X1981599D01*
X1980088Y1828599D02*
X1981370D01*
X1980106Y1838499D02*
X1981352D01*
X1980172Y1840299D02*
X1981286D01*
X1980185Y1830399D02*
X1981273D01*
X1980256Y1829499D02*
X1981202D01*
X1980258Y1839399D02*
X1981200D01*
X1974208Y1824999D02*
X1979377D01*
X1974399Y1818699D02*
X1979185D01*
X1974898Y1850199D02*
X1978687D01*
X1975155Y1844799D02*
X1978430D01*
X1894726Y2166999D02*
X1978269D01*
X1975457Y1824099D02*
X1978128D01*
X1975532Y1819599D02*
X1978053D01*
X1975755Y1849299D02*
X1977830D01*
X1975880Y1845699D02*
X1977704D01*
X1976031Y1823199D02*
X1977553D01*
X1976068Y1820499D02*
X1977516D01*
X1976175Y1848399D02*
X1977409D01*
X1976231Y1846599D02*
X1977353D01*
X1976288Y1822299D02*
X1977296D01*
X1976300Y1821399D02*
X1977284D01*
X1976322Y1847499D02*
X1977262D01*
X1845300Y1877199D02*
X1976426D01*
X1969496Y1833099D02*
X1976214D01*
X1845300Y2154399D02*
X1976159D01*
X1969410Y1882599D02*
X1976001D01*
X1865092Y2214699D02*
X1975903D01*
X1895872Y2226399D02*
X1975274D01*
X1881773Y1878099D02*
X1975179D01*
X1895984Y2166099D02*
X1975098D01*
X1968564Y1881699D02*
X1975027D01*
X1970851Y1826799D02*
X1974859D01*
X1970934Y1836699D02*
X1974776D01*
X1882399Y1878999D02*
X1974672D01*
X1962537Y1880799D02*
X1974608D01*
X1894097Y2155299D02*
X1974502D01*
X1882598Y1879899D02*
X1974502D01*
X1971239Y1842099D02*
X1974471D01*
X1971301Y1832199D02*
X1974409D01*
X1894325Y2215599D02*
X1974372D01*
X1896724Y2225499D02*
X1974016D01*
X1971766Y1827699D02*
X1973944D01*
X1896801Y2165199D02*
X1973909D01*
X1971805Y1837599D02*
X1973905D01*
X1971954Y1841199D02*
X1973756D01*
X1971985Y1831299D02*
X1973725D01*
X1895628Y2156199D02*
X1973527D01*
X1972214Y1828599D02*
X1973496D01*
X1972232Y1838499D02*
X1973478D01*
X1895752Y2216499D02*
X1973440D01*
X1972298Y1840299D02*
X1973412D01*
X1972311Y1830399D02*
X1973399D01*
X1972382Y1829499D02*
X1973328D01*
X1972384Y1839399D02*
X1973326D01*
X1897314Y2224599D02*
X1973199D01*
X1897367Y2164299D02*
X1973126D01*
X1896560Y2157099D02*
X1972861D01*
X1896643Y2217399D02*
X1972801D01*
X1897717Y2223699D02*
X1972633D01*
X1897752Y2163399D02*
X1972582D01*
X1897199Y2157999D02*
X1972401D01*
X1897257Y2218299D02*
X1972360D01*
X1897969Y2222799D02*
X1972248D01*
X1897989Y2162499D02*
X1972215D01*
X1897640Y2158899D02*
X1972100D01*
X1897679Y2219199D02*
X1972076D01*
X1898088Y2221899D02*
X1972011D01*
X1898093Y2161599D02*
X1971994D01*
X1897924Y2159799D02*
X1971938D01*
X1897947Y2220099D02*
X1971928D01*
X1898081Y2220999D02*
X1971907D01*
X1898072Y2160699D02*
X1971903D01*
X1966334Y1824999D02*
X1971503D01*
X1966525Y1818699D02*
X1971311D01*
X1967024Y1850199D02*
X1970813D01*
X1967281Y1844799D02*
X1970555D01*
X1967583Y1824099D02*
X1970254D01*
X1967658Y1819599D02*
X1970179D01*
X1967881Y1849299D02*
X1969956D01*
X1962998Y2130099D02*
X1969917D01*
X1968006Y1845699D02*
X1969830D01*
X1968157Y1823199D02*
X1969679D01*
X1968194Y1820499D02*
X1969642D01*
X1968301Y1848399D02*
X1969535D01*
X1968357Y1846599D02*
X1969479D01*
X1968414Y1822299D02*
X1969422D01*
X1968426Y1821399D02*
X1969410D01*
X1968448Y1847499D02*
X1969388D01*
X1921928Y2092299D02*
X1968785D01*
X1922038Y2087799D02*
X1968616D01*
X1953748Y1833099D02*
X1968340D01*
X1922321Y2125599D02*
X1968227D01*
X1902939Y2109399D02*
X1968224D01*
X1944974Y2105799D02*
X1968034D01*
X1962891Y2129199D02*
X1968032D01*
X1922654Y2091399D02*
X1967808D01*
X1922703Y2088699D02*
X1967749D01*
X1922828Y2126499D02*
X1967601D01*
X1902597Y2108499D02*
X1967599D01*
X1944468Y2106699D02*
X1967527D01*
X1962471Y2128299D02*
X1967526D01*
X1922958Y2090499D02*
X1967448D01*
X1922973Y2089599D02*
X1967431D01*
X1961494Y2127399D02*
X1967402D01*
X1942583Y2107599D02*
X1967402D01*
X1962103Y1826799D02*
X1966985D01*
X1963060Y1836699D02*
X1966902D01*
X1963365Y1842099D02*
X1966597D01*
X1962795Y1832199D02*
X1966535D01*
X1963388Y1827699D02*
X1966070D01*
X1963931Y1837599D02*
X1966031D01*
X1964080Y1841199D02*
X1965882D01*
X1962548Y1907799D02*
X1965852D01*
X1963650Y1831299D02*
X1965851D01*
X1963916Y1828599D02*
X1965622D01*
X1964358Y1838499D02*
X1965604D01*
X1964424Y1840299D02*
X1965538D01*
X1964027Y1830399D02*
X1965525D01*
X1964107Y1829499D02*
X1965454D01*
X1964510Y1839399D02*
X1965452D01*
X1964189Y1881699D02*
X1964836D01*
X1964191Y1906899D02*
X1964209D01*
X1958460Y1824999D02*
X1963629D01*
X1958651Y1818699D02*
X1963437D01*
X1959149Y1850199D02*
X1962939D01*
X1959407Y1844799D02*
X1962681D01*
X1959709Y1824099D02*
X1962380D01*
X1959784Y1819599D02*
X1962305D01*
X1962059Y1995999D02*
X1962171D01*
X1961619Y1994199D02*
X1962109D01*
X1960007Y1849299D02*
X1962082D01*
X1845300Y1995099D02*
X1962002D01*
X1960132Y1845699D02*
X1961956D01*
X1960283Y1823199D02*
X1961805D01*
X1960320Y1820499D02*
X1961768D01*
X1960427Y1848399D02*
X1961661D01*
X1960483Y1846599D02*
X1961605D01*
X1960540Y1822299D02*
X1961548D01*
X1960552Y1821399D02*
X1961536D01*
X1960574Y1847499D02*
X1961514D01*
X1882474Y1880799D02*
X1960863D01*
X1923925Y1907799D02*
X1960852D01*
X1955103Y1826799D02*
X1959985D01*
X1940109Y2054499D02*
X1959891D01*
X1955553Y1832199D02*
X1959293D01*
X1881968Y1881699D02*
X1959211D01*
X1923261Y1906899D02*
X1959209D01*
X1940937Y2035599D02*
X1959063D01*
X1940949Y2064399D02*
X1959051D01*
X1955186Y1836699D02*
X1959028D01*
X1923353Y1896999D02*
X1958932D01*
X1910361Y1891599D02*
X1958929D01*
X1881080Y2132799D02*
X1958920D01*
X1932144Y1887099D02*
X1958851D01*
X1924243Y1901499D02*
X1958849D01*
X1955491Y1842099D02*
X1958723D01*
X1956018Y1827699D02*
X1958700D01*
X1941322Y2025699D02*
X1958678D01*
X1941331Y2074299D02*
X1958669D01*
X1941331Y1984299D02*
X1958669D01*
X1923807Y1902399D02*
X1958643D01*
X1932750Y1886199D02*
X1958641D01*
X1910500Y1892499D02*
X1958583D01*
X1922243Y1896099D02*
X1958582D01*
X1931798Y1882599D02*
X1958527D01*
X1922059Y1905999D02*
X1958526D01*
X1922998Y2127399D02*
X1958506D01*
X1956237Y1831299D02*
X1958438D01*
X1957892Y2015799D02*
X1958388D01*
X1923979Y1897899D02*
X1958384D01*
X1909899Y1890699D02*
X1958383D01*
X1941619Y1994199D02*
X1958381D01*
X1930089Y1887999D02*
X1958343D01*
X1924460Y1900599D02*
X1958342D01*
X1923061Y1903299D02*
X1958242D01*
X1932985Y1885299D02*
X1958241D01*
X1910362Y1893399D02*
X1958215D01*
X1908810Y1895199D02*
X1958214D01*
X1932597Y1883499D02*
X1958190D01*
X1917998Y1905099D02*
X1958190D01*
X1956466Y1828599D02*
X1958172D01*
X1956057Y1837599D02*
X1958157D01*
X1941852Y2005899D02*
X1958148D01*
X1941858Y2004099D02*
X1958142D01*
X1924337Y1898799D02*
X1958135D01*
X1908805Y1889799D02*
X1958135D01*
X1845300Y1888899D02*
X1958122D01*
X1924490Y1899699D02*
X1958122D01*
X1921619Y1904199D02*
X1958101D01*
X1932939Y1884399D02*
X1958101D01*
X1909901Y1894299D02*
X1958100D01*
X1956563Y1830399D02*
X1958061D01*
X1956206Y1841199D02*
X1958008D01*
X1956634Y1829499D02*
X1957981D01*
X1942059Y1995999D02*
X1957941D01*
X1957828Y2013999D02*
X1957936D01*
X1942243Y1986099D02*
X1957757D01*
X1942247Y2023899D02*
X1957753D01*
X1956484Y1838499D02*
X1957730D01*
X1941776Y2131899D02*
X1957677D01*
X1956550Y1840299D02*
X1957664D01*
X1942408Y2066199D02*
X1957592D01*
X1942408Y1976199D02*
X1957592D01*
X1942412Y2033799D02*
X1957588D01*
X1956636Y1839399D02*
X1957578D01*
X1941966Y2128299D02*
X1957529D01*
X1942559Y2056299D02*
X1957441D01*
X1942563Y2043699D02*
X1957437D01*
X1942698Y2046399D02*
X1957302D01*
X1942702Y2053599D02*
X1957298D01*
X1942827Y2036499D02*
X1957173D01*
X1942401Y2130999D02*
X1957171D01*
X1942830Y2063499D02*
X1957170D01*
X1942473Y2129199D02*
X1957109D01*
X1942946Y2026599D02*
X1957054D01*
X1942949Y2073399D02*
X1957051D01*
X1942949Y1983399D02*
X1957051D01*
X1942598Y2130099D02*
X1957002D01*
X1943061Y1993299D02*
X1956939D01*
X1943163Y2006799D02*
X1956837D01*
X1943165Y2003199D02*
X1956835D01*
X1943261Y1996899D02*
X1956739D01*
X1943353Y1986999D02*
X1956647D01*
X1943355Y2022999D02*
X1956645D01*
X1943440Y2067099D02*
X1956560D01*
X1943440Y1977099D02*
X1956560D01*
X1943442Y2032899D02*
X1956558D01*
X1943522Y2057199D02*
X1956478D01*
X1943524Y2042799D02*
X1956476D01*
X1943599Y2047299D02*
X1956401D01*
X1943601Y2052699D02*
X1956399D01*
X1943672Y2037399D02*
X1956328D01*
X1943674Y2062599D02*
X1956326D01*
X1943741Y2027499D02*
X1956259D01*
X1943743Y2072499D02*
X1956257D01*
X1943743Y1982499D02*
X1956257D01*
X1943807Y1992399D02*
X1956193D01*
X1943867Y2007699D02*
X1956133D01*
X1943869Y2002299D02*
X1956131D01*
X1943925Y1997799D02*
X1956075D01*
X1956074Y2012199D02*
X1956074D01*
X1943979Y1987899D02*
X1956021D01*
X1943981Y2022099D02*
X1956019D01*
X1944030Y2067999D02*
X1955970D01*
X1944030Y1977999D02*
X1955970D01*
X1944032Y2031999D02*
X1955968D01*
X1944079Y2058099D02*
X1955921D01*
X1944080Y2041899D02*
X1955920D01*
X1944124Y2048199D02*
X1955876D01*
X1944125Y2051799D02*
X1955875D01*
X1944166Y2038299D02*
X1955834D01*
X1944167Y2061699D02*
X1955833D01*
X1944205Y2028399D02*
X1955795D01*
X1944206Y2071599D02*
X1955794D01*
X1944206Y1981599D02*
X1955794D01*
X1944242Y2018499D02*
X1955758D01*
X1944243Y1991499D02*
X1955757D01*
X1950586Y1824999D02*
X1955755D01*
X1944276Y2008599D02*
X1955724D01*
X1944277Y2001399D02*
X1955723D01*
X1944308Y1998699D02*
X1955692D01*
X1944309Y2011299D02*
X1955691D01*
X1944337Y1988799D02*
X1955663D01*
X1944337Y2021199D02*
X1955663D01*
X1944363Y2068899D02*
X1955637D01*
X1944363Y1978899D02*
X1955637D01*
X1944364Y2031099D02*
X1955636D01*
X1944387Y2058999D02*
X1955613D01*
X1944388Y2040999D02*
X1955612D01*
X1944409Y2049099D02*
X1955591D01*
X1944409Y2050899D02*
X1955591D01*
X1944428Y2039199D02*
X1955572D01*
X1944429Y2060799D02*
X1955571D01*
X1950777Y1818699D02*
X1955563D01*
X1944445Y2029299D02*
X1955555D01*
X1944445Y2070699D02*
X1955555D01*
X1944445Y1980699D02*
X1955555D01*
X1944460Y2019399D02*
X1955540D01*
X1944460Y1990599D02*
X1955540D01*
X1944472Y2009499D02*
X1955528D01*
X1944472Y2000499D02*
X1955528D01*
X1944482Y1999599D02*
X1955518D01*
X1944482Y2010399D02*
X1955518D01*
X1944490Y1989699D02*
X1955510D01*
X1944490Y2020299D02*
X1955510D01*
X1944495Y2069799D02*
X1955505D01*
X1944495Y1979799D02*
X1955505D01*
X1944496Y2030199D02*
X1955504D01*
X1944499Y2059899D02*
X1955501D01*
X1944499Y2040099D02*
X1955501D01*
X1944500Y2049999D02*
X1955500D01*
X1951275Y1850199D02*
X1955065D01*
X1951533Y1844799D02*
X1954807D01*
X1951835Y1824099D02*
X1954506D01*
X1951910Y1819599D02*
X1954431D01*
X1952133Y1849299D02*
X1954208D01*
X1952258Y1845699D02*
X1954082D01*
X1952409Y1823199D02*
X1953931D01*
X1943926Y2012199D02*
X1953926D01*
X1952446Y1820499D02*
X1953894D01*
X1952553Y1848399D02*
X1953787D01*
X1952609Y1846599D02*
X1953731D01*
X1952666Y1822299D02*
X1953674D01*
X1952678Y1821399D02*
X1953662D01*
X1952700Y1847499D02*
X1953640D01*
X1943806Y2017599D02*
X1953501D01*
X1943263Y2013099D02*
X1952679D01*
X1945874Y1833099D02*
X1952592D01*
X1943058Y2016699D02*
X1952527D01*
X1942064Y2013999D02*
X1952172D01*
X1941612Y2015799D02*
X1952108D01*
X1931494Y2014899D02*
X1952002D01*
X1947229Y1826799D02*
X1951237D01*
X1947312Y1836699D02*
X1951154D01*
X1947617Y1842099D02*
X1950849D01*
X1947679Y1832199D02*
X1950787D01*
X1948144Y1827699D02*
X1950322D01*
X1948183Y1837599D02*
X1950283D01*
X1948332Y1841199D02*
X1950134D01*
X1948363Y1831299D02*
X1950103D01*
X1948592Y1828599D02*
X1949874D01*
X1948610Y1838499D02*
X1949856D01*
X1948676Y1840299D02*
X1949790D01*
X1948689Y1830399D02*
X1949777D01*
X1948760Y1829499D02*
X1949706D01*
X1948762Y1839399D02*
X1949704D01*
X1934837Y1824999D02*
X1947881D01*
X1935029Y1818699D02*
X1947689D01*
X1935527Y1850199D02*
X1947191D01*
X1935785Y1844799D02*
X1946933D01*
X1936087Y1824099D02*
X1946631D01*
X1936162Y1819599D02*
X1946557D01*
X1936385Y1849299D02*
X1946333D01*
X1936510Y1845699D02*
X1946208D01*
X1936661Y1823199D02*
X1946057D01*
X1936698Y1820499D02*
X1946020D01*
X1936805Y1848399D02*
X1945913D01*
X1936861Y1846599D02*
X1945857D01*
X1936918Y1822299D02*
X1945800D01*
X1936930Y1821399D02*
X1945788D01*
X1936952Y1847499D02*
X1945766D01*
X1944583Y1833099D02*
X1944718D01*
X1917985Y1952799D02*
X1943920D01*
X1845300Y1947399D02*
X1943506D01*
X1931481Y1826799D02*
X1943363D01*
X1931869Y1842099D02*
X1942975D01*
X1917939Y1951899D02*
X1942677D01*
X1845300Y1948299D02*
X1942529D01*
X1932396Y1827699D02*
X1942448D01*
X1901798Y2107599D02*
X1942417D01*
X1932584Y1841199D02*
X1942260D01*
X1917597Y1950999D02*
X1942171D01*
X1845300Y1949199D02*
X1942109D01*
X1916798Y1950099D02*
X1942002D01*
X1932844Y1828599D02*
X1942000D01*
X1940596Y1840299D02*
X1941916D01*
X1845300Y2103099D02*
X1940727D01*
X1845300Y2106699D02*
X1940532D01*
X1845300Y2103999D02*
X1940101D01*
X1845300Y2105799D02*
X1940026D01*
X1845300Y2104899D02*
X1939902D01*
X1920109Y2054499D02*
X1939891D01*
X1920937Y2035599D02*
X1939063D01*
X1920949Y2064399D02*
X1939051D01*
X1921322Y2025699D02*
X1938678D01*
X1921331Y2074299D02*
X1938669D01*
X1845300Y1984299D02*
X1938669D01*
X1932471Y2015799D02*
X1938388D01*
X1921619Y1994199D02*
X1938381D01*
X1882323Y2131899D02*
X1938224D01*
X1921852Y2005899D02*
X1938148D01*
X1921858Y2004099D02*
X1938142D01*
X1922892Y2128299D02*
X1938034D01*
X1922059Y1995999D02*
X1937941D01*
X1922064Y2013999D02*
X1937936D01*
X1922243Y1986099D02*
X1937757D01*
X1922247Y2023899D02*
X1937753D01*
X1882829Y2130999D02*
X1937599D01*
X1922408Y2066199D02*
X1937592D01*
X1921536Y1976199D02*
X1937592D01*
X1922412Y2033799D02*
X1937588D01*
X1922473Y2129199D02*
X1937527D01*
X1922559Y2056299D02*
X1937441D01*
X1922563Y2043699D02*
X1937437D01*
X1921499Y2130099D02*
X1937402D01*
X1922698Y2046399D02*
X1937302D01*
X1922702Y2053599D02*
X1937298D01*
X1922827Y2036499D02*
X1937173D01*
X1922830Y2063499D02*
X1937170D01*
X1922946Y2026599D02*
X1937054D01*
X1922949Y2073399D02*
X1937051D01*
X1922293Y1983399D02*
X1937051D01*
X1932928Y1840299D02*
X1937004D01*
X1932891Y2016699D02*
X1936942D01*
X1923061Y1993299D02*
X1936939D01*
X1923163Y2006799D02*
X1936837D01*
X1923165Y2003199D02*
X1936835D01*
X1923261Y1996899D02*
X1936739D01*
X1923263Y2013099D02*
X1936737D01*
X1923353Y1986999D02*
X1936647D01*
X1923355Y2022999D02*
X1936645D01*
X1923440Y2067099D02*
X1936560D01*
X1922897Y1977099D02*
X1936560D01*
X1923442Y2032899D02*
X1936558D01*
X1923522Y2057199D02*
X1936478D01*
X1923524Y2042799D02*
X1936476D01*
X1923599Y2047299D02*
X1936401D01*
X1923601Y2052699D02*
X1936399D01*
X1923672Y2037399D02*
X1936328D01*
X1923674Y2062599D02*
X1936326D01*
X1923741Y2027499D02*
X1936259D01*
X1923743Y2072499D02*
X1936257D01*
X1923251Y1982499D02*
X1936257D01*
X1932998Y2017599D02*
X1936194D01*
X1923807Y1992399D02*
X1936193D01*
X1923867Y2007699D02*
X1936133D01*
X1923869Y2002299D02*
X1936131D01*
X1923925Y1997799D02*
X1936075D01*
X1923926Y2012199D02*
X1936074D01*
X1923979Y1987899D02*
X1936021D01*
X1923981Y2022099D02*
X1936019D01*
X1924030Y2067999D02*
X1935970D01*
X1923578Y1977999D02*
X1935970D01*
X1924032Y2031999D02*
X1935968D01*
X1924079Y2058099D02*
X1935921D01*
X1924080Y2041899D02*
X1935920D01*
X1924124Y2048199D02*
X1935876D01*
X1924125Y2051799D02*
X1935875D01*
X1924166Y2038299D02*
X1935834D01*
X1924167Y2061699D02*
X1935833D01*
X1924205Y2028399D02*
X1935795D01*
X1924206Y2071599D02*
X1935794D01*
X1923775Y1981599D02*
X1935794D01*
X1932829Y2018499D02*
X1935758D01*
X1924243Y1991499D02*
X1935757D01*
X1924276Y2008599D02*
X1935724D01*
X1924277Y2001399D02*
X1935723D01*
X1924308Y1998699D02*
X1935692D01*
X1924309Y2011299D02*
X1935691D01*
X1933012Y1829499D02*
X1935689D01*
X1924337Y1988799D02*
X1935663D01*
X1924337Y2021199D02*
X1935663D01*
X1924363Y2068899D02*
X1935637D01*
X1923949Y1978899D02*
X1935637D01*
X1924364Y2031099D02*
X1935636D01*
X1924387Y2058999D02*
X1935613D01*
X1924388Y2040999D02*
X1935612D01*
X1924409Y2049099D02*
X1935591D01*
X1924409Y2050899D02*
X1935591D01*
X1924428Y2039199D02*
X1935572D01*
X1924429Y2060799D02*
X1935571D01*
X1924445Y2029299D02*
X1935555D01*
X1924445Y2070699D02*
X1935555D01*
X1924040Y1980699D02*
X1935555D01*
X1932323Y2019399D02*
X1935540D01*
X1924460Y1990599D02*
X1935540D01*
X1924472Y2009499D02*
X1935528D01*
X1924472Y2000499D02*
X1935528D01*
X1924482Y1999599D02*
X1935518D01*
X1924482Y2010399D02*
X1935518D01*
X1924490Y1989699D02*
X1935510D01*
X1931080Y2020299D02*
X1935510D01*
X1924495Y2069799D02*
X1935505D01*
X1924095Y1979799D02*
X1935505D01*
X1924496Y2030199D02*
X1935504D01*
X1924499Y2059899D02*
X1935501D01*
X1924499Y2040099D02*
X1935501D01*
X1924500Y2049999D02*
X1935500D01*
X1933014Y1839399D02*
X1935240D01*
X1932941Y1830399D02*
X1934552D01*
X1932862Y1838499D02*
X1934272D01*
X1932615Y1831299D02*
X1933820D01*
X1932435Y1837599D02*
X1933632D01*
X1931931Y1832199D02*
X1933329D01*
X1931564Y1836699D02*
X1933206D01*
X1930126Y1833099D02*
X1933017D01*
X1908630Y1835799D02*
X1932946D01*
X1908721Y1833999D02*
X1932855D01*
X1908744Y1834899D02*
X1932832D01*
X1926963Y1824999D02*
X1932133D01*
X1927155Y1818699D02*
X1931941D01*
X1927653Y1850199D02*
X1931443D01*
X1927911Y1844799D02*
X1931185D01*
X1928213Y1824099D02*
X1930883D01*
X1928288Y1819599D02*
X1930808D01*
X1928511Y1849299D02*
X1930585D01*
X1928636Y1845699D02*
X1930460D01*
X1928787Y1823199D02*
X1930309D01*
X1928824Y1820499D02*
X1930272D01*
X1928931Y1848399D02*
X1930165D01*
X1928987Y1846599D02*
X1930109D01*
X1929044Y1822299D02*
X1930052D01*
X1929056Y1821399D02*
X1930040D01*
X1929078Y1847499D02*
X1930018D01*
X1845300Y1887999D02*
X1929911D01*
X1922252Y1833099D02*
X1928970D01*
X1924490Y2020299D02*
X1928920D01*
X1845300Y2014899D02*
X1928506D01*
X1880083Y1882599D02*
X1928202D01*
X1845300Y1887099D02*
X1927856D01*
X1924460Y2019399D02*
X1927677D01*
X1923607Y1826799D02*
X1927615D01*
X1923690Y1836699D02*
X1927532D01*
X1921612Y2015799D02*
X1927529D01*
X1845300Y1883499D02*
X1927403D01*
X1845300Y1886199D02*
X1927250D01*
X1923995Y1842099D02*
X1927227D01*
X1924242Y2018499D02*
X1927171D01*
X1924057Y1832199D02*
X1927165D01*
X1923058Y2016699D02*
X1927109D01*
X1845300Y1884399D02*
X1927061D01*
X1845300Y1885299D02*
X1927015D01*
X1923806Y2017599D02*
X1927002D01*
X1924522Y1827699D02*
X1926700D01*
X1924561Y1837599D02*
X1926661D01*
X1924710Y1841199D02*
X1926512D01*
X1924741Y1831299D02*
X1926481D01*
X1924970Y1828599D02*
X1926252D01*
X1924988Y1838499D02*
X1926234D01*
X1925054Y1840299D02*
X1926168D01*
X1925067Y1830399D02*
X1926155D01*
X1925138Y1829499D02*
X1926084D01*
X1925140Y1839399D02*
X1926082D01*
X1919089Y1824999D02*
X1924259D01*
X1919281Y1818699D02*
X1924067D01*
X1919779Y1850199D02*
X1923569D01*
X1920037Y1844799D02*
X1923311D01*
X1920339Y1824099D02*
X1923009D01*
X1920414Y1819599D02*
X1922934D01*
X1920637Y1849299D02*
X1922711D01*
X1920762Y1845699D02*
X1922586D01*
X1920913Y1823199D02*
X1922435D01*
X1920950Y1820499D02*
X1922398D01*
X1921057Y1848399D02*
X1922291D01*
X1921113Y1846599D02*
X1922235D01*
X1921170Y1822299D02*
X1922178D01*
X1921182Y1821399D02*
X1922166D01*
X1921204Y1847499D02*
X1922144D01*
X1914378Y1833099D02*
X1921096D01*
X1845300Y2054499D02*
X1919891D01*
X1915733Y1826799D02*
X1919741D01*
X1915816Y1836699D02*
X1919658D01*
X1916121Y1842099D02*
X1919353D01*
X1916183Y1832199D02*
X1919291D01*
X1845300Y2035599D02*
X1919063D01*
X1845300Y2064399D02*
X1919051D01*
X1845300Y2124699D02*
X1918926D01*
X1916648Y1827699D02*
X1918826D01*
X1916687Y1837599D02*
X1918787D01*
X1845300Y2025699D02*
X1918678D01*
X1914399Y1935699D02*
X1918678D01*
X1845300Y2074299D02*
X1918669D01*
X1916836Y1841199D02*
X1918638D01*
X1916867Y1831299D02*
X1918607D01*
X1900083Y2130099D02*
X1918501D01*
X1845300Y1976199D02*
X1918464D01*
X1845300Y2015799D02*
X1918388D01*
X1911612Y1925799D02*
X1918388D01*
X1845300Y1994199D02*
X1918381D01*
X1917891Y1904199D02*
X1918381D01*
X1917096Y1828599D02*
X1918378D01*
X1917114Y1838499D02*
X1918360D01*
X1917180Y1840299D02*
X1918294D01*
X1917193Y1830399D02*
X1918281D01*
X1917264Y1829499D02*
X1918210D01*
X1917266Y1839399D02*
X1918208D01*
X1877862Y2005899D02*
X1918148D01*
X1911852Y1915899D02*
X1918148D01*
X1877861Y2004099D02*
X1918142D01*
X1911858Y1914099D02*
X1918142D01*
X1897993Y2092299D02*
X1918072D01*
X1895485Y2087799D02*
X1917962D01*
X1845300Y1995999D02*
X1917941D01*
X1917829Y1905999D02*
X1917941D01*
X1845300Y2013999D02*
X1917936D01*
X1912064Y1923999D02*
X1917936D01*
X1845300Y1986099D02*
X1917757D01*
X1912243Y1896099D02*
X1917757D01*
X1845300Y2023899D02*
X1917753D01*
X1912247Y1933899D02*
X1917753D01*
X1845300Y1983399D02*
X1917707D01*
X1901773Y2125599D02*
X1917679D01*
X1845300Y2066199D02*
X1917592D01*
X1845300Y2033799D02*
X1917588D01*
X1914500Y1943799D02*
X1917588D01*
X1901968Y2129199D02*
X1917527D01*
X1845300Y2056299D02*
X1917441D01*
X1845300Y2043699D02*
X1917437D01*
X1897791Y2091399D02*
X1917346D01*
X1845300Y2046399D02*
X1917302D01*
X1845300Y2053599D02*
X1917298D01*
X1895250Y2088699D02*
X1917297D01*
X1845300Y2036499D02*
X1917173D01*
X1902399Y2126499D02*
X1917172D01*
X1845300Y2063499D02*
X1917170D01*
X1902474Y2128299D02*
X1917108D01*
X1845300Y1977099D02*
X1917103D01*
X1845300Y2026599D02*
X1917054D01*
X1914500Y1936599D02*
X1917054D01*
X1845300Y2073399D02*
X1917051D01*
X1897235Y2090499D02*
X1917042D01*
X1895763Y2089599D02*
X1917027D01*
X1902598Y2127399D02*
X1917002D01*
X1845300Y2016699D02*
X1916942D01*
X1913058Y1926699D02*
X1916942D01*
X1845300Y1993299D02*
X1916939D01*
X1877401Y2006799D02*
X1916837D01*
X1913163Y1916799D02*
X1916837D01*
X1877399Y2003199D02*
X1916835D01*
X1913165Y1913199D02*
X1916835D01*
X1845300Y1982499D02*
X1916749D01*
X1845300Y1996899D02*
X1916739D01*
X1845300Y2013099D02*
X1916737D01*
X1913263Y1923099D02*
X1916737D01*
X1845300Y1986999D02*
X1916647D01*
X1913353Y1896999D02*
X1916647D01*
X1845300Y2022999D02*
X1916645D01*
X1913355Y1932999D02*
X1916645D01*
X1895763Y2067099D02*
X1916560D01*
X1890773Y2032899D02*
X1916558D01*
X1914500Y1942899D02*
X1916558D01*
X1845300Y2057199D02*
X1916478D01*
X1845300Y2042799D02*
X1916476D01*
X1845300Y1977999D02*
X1916422D01*
X1901305Y2047299D02*
X1916401D01*
X1901310Y2052699D02*
X1916399D01*
X1911215Y1824999D02*
X1916385D01*
X1845300Y2037399D02*
X1916328D01*
X1845300Y2062599D02*
X1916326D01*
X1891656Y2027499D02*
X1916259D01*
X1914500Y1937499D02*
X1916259D01*
X1896660Y2072499D02*
X1916257D01*
X1845300Y1981599D02*
X1916225D01*
X1845300Y2017599D02*
X1916194D01*
X1913806Y1927599D02*
X1916194D01*
X1911407Y1818699D02*
X1916193D01*
X1881802Y1992399D02*
X1916193D01*
X1901925Y2007699D02*
X1916133D01*
X1913867Y1917699D02*
X1916133D01*
X1876305Y2002299D02*
X1916131D01*
X1913869Y1912299D02*
X1916131D01*
X1845300Y1997799D02*
X1916075D01*
X1902041Y2012199D02*
X1916074D01*
X1913926Y1922199D02*
X1916074D01*
X1845300Y1978899D02*
X1916051D01*
X1882141Y1987899D02*
X1916021D01*
X1913979Y1897899D02*
X1916021D01*
X1845300Y2022099D02*
X1916019D01*
X1913981Y1932099D02*
X1916019D01*
X1897235Y2067999D02*
X1915970D01*
X1892237Y2031999D02*
X1915968D01*
X1914500Y1941999D02*
X1915968D01*
X1845300Y1980699D02*
X1915960D01*
X1845300Y2058099D02*
X1915921D01*
X1845300Y2041899D02*
X1915920D01*
X1845300Y1979799D02*
X1915905D01*
X1902399Y2048199D02*
X1915876D01*
X1902401Y2051799D02*
X1915875D01*
X1845300Y2038299D02*
X1915834D01*
X1845300Y2061699D02*
X1915833D01*
X1892537Y2028399D02*
X1915795D01*
X1914500Y1938399D02*
X1915795D01*
X1897539Y2071599D02*
X1915794D01*
X1845300Y2018499D02*
X1915758D01*
X1914242Y1928499D02*
X1915758D01*
X1882599Y1991499D02*
X1915757D01*
X1914243Y1901499D02*
X1915757D01*
X1902653Y2008599D02*
X1915724D01*
X1914276Y1918599D02*
X1915724D01*
X1845300Y2001399D02*
X1915723D01*
X1914277Y1911399D02*
X1915723D01*
X1911905Y1850199D02*
X1915695D01*
X1845300Y1998699D02*
X1915692D01*
X1914308Y1908699D02*
X1915692D01*
X1902704Y2011299D02*
X1915691D01*
X1914309Y1921299D02*
X1915691D01*
X1882749Y1988799D02*
X1915663D01*
X1914337Y1898799D02*
X1915663D01*
X1845300Y2021199D02*
X1915663D01*
X1914337Y1931199D02*
X1915663D01*
X1897791Y2068899D02*
X1915637D01*
X1892792Y2031099D02*
X1915636D01*
X1914500Y1941099D02*
X1915636D01*
X1845300Y2058999D02*
X1915613D01*
X1845300Y2040999D02*
X1915612D01*
X1902861Y2049099D02*
X1915591D01*
X1902862Y2050899D02*
X1915591D01*
X1845300Y2039199D02*
X1915572D01*
X1845300Y2060799D02*
X1915571D01*
X1892917Y2029299D02*
X1915555D01*
X1914500Y1939299D02*
X1915555D01*
X1897918Y2070699D02*
X1915555D01*
X1845300Y2019399D02*
X1915540D01*
X1914460Y1929399D02*
X1915540D01*
X1882940Y1990599D02*
X1915540D01*
X1914460Y1900599D02*
X1915540D01*
X1902958Y2009499D02*
X1915528D01*
X1914472Y1919499D02*
X1915528D01*
X1845300Y2000499D02*
X1915528D01*
X1914472Y1910499D02*
X1915528D01*
X1845300Y1999599D02*
X1915518D01*
X1914482Y1909599D02*
X1915518D01*
X1902973Y2010399D02*
X1915518D01*
X1914482Y1920399D02*
X1915518D01*
X1882985Y1989699D02*
X1915510D01*
X1914490Y1899699D02*
X1915510D01*
X1845300Y2020299D02*
X1915510D01*
X1914490Y1930299D02*
X1915510D01*
X1897993Y2069799D02*
X1915505D01*
X1892993Y2030199D02*
X1915504D01*
X1914500Y1940199D02*
X1915504D01*
X1845300Y2059899D02*
X1915501D01*
X1845300Y2040099D02*
X1915501D01*
X1903000Y2049999D02*
X1915500D01*
X1912163Y1844799D02*
X1915437D01*
X1912465Y1824099D02*
X1915135D01*
X1912540Y1819599D02*
X1915060D01*
X1881660Y1955499D02*
X1914911D01*
X1912763Y1849299D02*
X1914837D01*
X1912888Y1845699D02*
X1914712D01*
X1913039Y1823199D02*
X1914561D01*
X1913076Y1820499D02*
X1914524D01*
X1913183Y1848399D02*
X1914417D01*
X1913239Y1846599D02*
X1914361D01*
X1913296Y1822299D02*
X1914304D01*
X1913308Y1821399D02*
X1914292D01*
X1913330Y1847499D02*
X1914270D01*
X1908560Y1833099D02*
X1913222D01*
X1845300Y1950099D02*
X1913202D01*
X1845300Y1954599D02*
X1912856D01*
X1845300Y1950999D02*
X1912403D01*
X1845300Y1953699D02*
X1912250D01*
X1912059Y1905999D02*
X1912171D01*
X1911619Y1904199D02*
X1912109D01*
X1845300Y1951899D02*
X1912061D01*
X1845300Y1952799D02*
X1912015D01*
X1845300Y1905099D02*
X1912002D01*
X1868212Y1826799D02*
X1911867D01*
X1908371Y1836699D02*
X1911784D01*
X1845300Y1842099D02*
X1911479D01*
X1908248Y1832199D02*
X1911417D01*
X1868025Y1827699D02*
X1910952D01*
X1907944Y1837599D02*
X1910913D01*
X1845300Y1841199D02*
X1910764D01*
X1907757Y1831299D02*
X1910733D01*
X1867753Y1828599D02*
X1910504D01*
X1907304Y1838499D02*
X1910486D01*
X1904572Y1840299D02*
X1910420D01*
X1907025Y1830399D02*
X1910407D01*
X1905887Y1829499D02*
X1910336D01*
X1906336Y1839399D02*
X1910334D01*
X1868350Y1824999D02*
X1908511D01*
X1845300Y1925799D02*
X1908388D01*
X1845300Y1904199D02*
X1908381D01*
X1897750Y1818699D02*
X1908319D01*
X1845300Y1915899D02*
X1908148D01*
X1845300Y1914099D02*
X1908142D01*
X1845300Y1905999D02*
X1907941D01*
X1845300Y1923999D02*
X1907936D01*
X1845300Y1850199D02*
X1907821D01*
X1845300Y1896099D02*
X1907757D01*
X1845300Y1933899D02*
X1907753D01*
X1845300Y1844799D02*
X1907563D01*
X1868302Y1824099D02*
X1907261D01*
X1897144Y1819599D02*
X1907186D01*
X1845300Y1849299D02*
X1906963D01*
X1845300Y1926699D02*
X1906942D01*
X1845300Y1903299D02*
X1906939D01*
X1845300Y1845699D02*
X1906838D01*
X1845300Y1916799D02*
X1906837D01*
X1845300Y1913199D02*
X1906835D01*
X1845300Y1906899D02*
X1906739D01*
X1845300Y1923099D02*
X1906737D01*
X1868177Y1823199D02*
X1906687D01*
X1895089Y1820499D02*
X1906650D01*
X1845300Y1896999D02*
X1906647D01*
X1845300Y1932999D02*
X1906645D01*
X1845300Y1848399D02*
X1906543D01*
X1845300Y1846599D02*
X1906487D01*
X1867971Y1822299D02*
X1906430D01*
X1867679Y1821399D02*
X1906418D01*
X1845300Y1847499D02*
X1906396D01*
X1845300Y1889799D02*
X1906195D01*
X1845300Y1927599D02*
X1906194D01*
X1845300Y1902399D02*
X1906193D01*
X1845300Y1895199D02*
X1906190D01*
X1845300Y1917699D02*
X1906133D01*
X1845300Y1912299D02*
X1906131D01*
X1845300Y1907799D02*
X1906075D01*
X1845300Y1922199D02*
X1906074D01*
X1845300Y1897899D02*
X1906021D01*
X1845300Y1932099D02*
X1906019D01*
X1845300Y1928499D02*
X1905758D01*
X1845300Y1901499D02*
X1905757D01*
X1845300Y1918599D02*
X1905724D01*
X1845300Y1911399D02*
X1905723D01*
X1845300Y1908699D02*
X1905692D01*
X1845300Y1921299D02*
X1905691D01*
X1845300Y1898799D02*
X1905663D01*
X1845300Y1931199D02*
X1905663D01*
X1845300Y1935699D02*
X1905601D01*
X1845300Y1929399D02*
X1905540D01*
X1845300Y1900599D02*
X1905540D01*
X1845300Y1919499D02*
X1905528D01*
X1845300Y1910499D02*
X1905528D01*
X1845300Y1909599D02*
X1905518D01*
X1845300Y1920399D02*
X1905518D01*
X1845300Y1899699D02*
X1905510D01*
X1845300Y1930299D02*
X1905510D01*
X1845300Y1943799D02*
X1905500D01*
X1880773Y1942899D02*
X1905500D01*
X1882237Y1941999D02*
X1905500D01*
X1882792Y1941099D02*
X1905500D01*
X1882993Y1940199D02*
X1905500D01*
X1882917Y1939299D02*
X1905500D01*
X1882537Y1938399D02*
X1905500D01*
X1881656Y1937499D02*
X1905500D01*
X1845300Y1936599D02*
X1905500D01*
X1845300Y1890699D02*
X1905101D01*
X1845300Y1894299D02*
X1905099D01*
X1845300Y1891599D02*
X1904639D01*
X1845300Y1893399D02*
X1904638D01*
X1845300Y1892499D02*
X1904500D01*
X1845300Y1840299D02*
X1900980D01*
X1882998Y2130099D02*
X1899917D01*
X1845300Y2112999D02*
X1899911D01*
X1867389Y1829499D02*
X1899666D01*
X1845300Y1839399D02*
X1899216D01*
X1845300Y2047299D02*
X1898695D01*
X1845300Y2052699D02*
X1898690D01*
X1866923Y1830399D02*
X1898528D01*
X1845300Y1838499D02*
X1898249D01*
X1845300Y2125599D02*
X1898227D01*
X1845300Y2107599D02*
X1898202D01*
X1845300Y2082399D02*
X1898198D01*
X1876310Y2007699D02*
X1898075D01*
X1882891Y2129199D02*
X1898032D01*
X1845300Y2012199D02*
X1897959D01*
X1845300Y2077899D02*
X1897859D01*
X1845300Y2112099D02*
X1897856D01*
X1866337Y1831299D02*
X1897796D01*
X1845300Y1837599D02*
X1897608D01*
X1845300Y2048199D02*
X1897601D01*
X1845300Y2126499D02*
X1897601D01*
X1845300Y2051799D02*
X1897599D01*
X1882471Y2128299D02*
X1897526D01*
X1845300Y2108499D02*
X1897403D01*
X1881494Y2127399D02*
X1897402D01*
X1845300Y2081499D02*
X1897401D01*
X1845300Y2008599D02*
X1897347D01*
X1865605Y1832199D02*
X1897305D01*
X1845300Y2011299D02*
X1897296D01*
X1845300Y2078799D02*
X1897251D01*
X1845300Y2111199D02*
X1897250D01*
X1845300Y1836699D02*
X1897182D01*
X1845300Y2049099D02*
X1897139D01*
X1845300Y2050899D02*
X1897138D01*
X1845300Y2109399D02*
X1897061D01*
X1845300Y2080599D02*
X1897060D01*
X1845300Y2009499D02*
X1897042D01*
X1845300Y2010399D02*
X1897027D01*
X1845300Y2079699D02*
X1897015D01*
X1845300Y2110299D02*
X1897015D01*
X1845300Y2049999D02*
X1897000D01*
X1864679Y1833099D02*
X1896993D01*
X1845300Y1835799D02*
X1896923D01*
X1863467Y1833999D02*
X1896832D01*
X1861710Y1834899D02*
X1896809D01*
X1867294Y1820499D02*
X1894911D01*
X1880763Y2067099D02*
X1894237D01*
X1845300Y2094999D02*
X1893340D01*
X1881660Y2072499D02*
X1893340D01*
X1892998Y1815099D02*
X1893202D01*
X1866802Y1819599D02*
X1892856D01*
X1882235Y2067999D02*
X1892765D01*
X1892589Y2090499D02*
X1892765D01*
X1845300Y2094099D02*
X1892461D01*
X1882539Y2071599D02*
X1892461D01*
X1845300Y2090499D02*
X1892411D01*
X1866186Y1818699D02*
X1892250D01*
X1845300Y2091399D02*
X1892209D01*
X1882791Y2068899D02*
X1892209D01*
X1845300Y2093199D02*
X1892082D01*
X1882918Y2070699D02*
X1892082D01*
X1891080Y1817799D02*
X1892015D01*
X1845300Y2092299D02*
X1892007D01*
X1882993Y2069799D02*
X1892007D01*
X1845300Y2085099D02*
X1890702D01*
X1845300Y2089599D02*
X1890356D01*
X1845300Y2085999D02*
X1889903D01*
X1845300Y2088699D02*
X1889750D01*
X1845300Y2086899D02*
X1889561D01*
X1845300Y2087799D02*
X1889515D01*
X1845300Y2032899D02*
X1889227D01*
X1845300Y2155299D02*
X1889103D01*
X1865415Y1817799D02*
X1888920D01*
X1865807Y2215599D02*
X1888875D01*
X1866142Y2227299D02*
X1888663D01*
X1845300Y1812399D02*
X1888506D01*
X1845300Y2166999D02*
X1888474D01*
X1845300Y2027499D02*
X1888344D01*
X1845300Y2031999D02*
X1887763D01*
X1864436Y1816899D02*
X1887677D01*
X1845300Y2156199D02*
X1887572D01*
X1845300Y1813299D02*
X1887529D01*
X1845300Y2028399D02*
X1887463D01*
X1866379Y2216499D02*
X1887448D01*
X1866646Y2226399D02*
X1887328D01*
X1845300Y2166099D02*
X1887216D01*
X1845300Y2031099D02*
X1887208D01*
X1863136Y1815999D02*
X1887171D01*
X1845300Y1814199D02*
X1887109D01*
X1845300Y2029299D02*
X1887083D01*
X1845300Y2030199D02*
X1887007D01*
X1861158Y1815099D02*
X1887002D01*
X1845300Y2157099D02*
X1886640D01*
X1866833Y2217399D02*
X1886557D01*
X1867042Y2225499D02*
X1886476D01*
X1845300Y2165199D02*
X1886399D01*
X1845300Y2157999D02*
X1886001D01*
X1867187Y2218299D02*
X1885943D01*
X1867344Y2224599D02*
X1885886D01*
X1845300Y2164299D02*
X1885833D01*
X1845300Y2158899D02*
X1885560D01*
X1867449Y2219199D02*
X1885521D01*
X1867559Y2223699D02*
X1885483D01*
X1845300Y2163399D02*
X1885448D01*
X1845300Y2159799D02*
X1885276D01*
X1867628Y2220099D02*
X1885253D01*
X1867693Y2222799D02*
X1885231D01*
X1845300Y2162499D02*
X1885211D01*
X1845300Y2160699D02*
X1885128D01*
X1867727Y2220999D02*
X1885119D01*
X1867748Y2221899D02*
X1885112D01*
X1845300Y2161599D02*
X1885107D01*
X1845300Y1882599D02*
X1879917D01*
X1845300Y1959999D02*
X1879281D01*
X1845300Y2067099D02*
X1879237D01*
X1845300Y1942899D02*
X1879227D01*
X1845300Y2132799D02*
X1878920D01*
X1845300Y2127399D02*
X1878506D01*
X1845300Y1937499D02*
X1878344D01*
X1845300Y1955499D02*
X1878340D01*
X1845300Y2072499D02*
X1878340D01*
X1845300Y1878099D02*
X1878227D01*
X1845300Y1992399D02*
X1878198D01*
X1845300Y1881699D02*
X1878032D01*
X1845300Y1959099D02*
X1877950D01*
X1845300Y1987899D02*
X1877859D01*
X1845300Y2067999D02*
X1877765D01*
X1845300Y1941999D02*
X1877763D01*
X1845300Y2131899D02*
X1877677D01*
X1845300Y1956399D02*
X1877645D01*
X1845300Y1878999D02*
X1877601D01*
X1845300Y2128299D02*
X1877529D01*
X1845300Y1880799D02*
X1877526D01*
X1845300Y1958199D02*
X1877496D01*
X1845300Y1938399D02*
X1877463D01*
X1845300Y2071599D02*
X1877461D01*
X1845300Y1957299D02*
X1877408D01*
X1845300Y1879899D02*
X1877402D01*
X1845300Y1991499D02*
X1877401D01*
X1845300Y1988799D02*
X1877251D01*
X1845300Y2068899D02*
X1877209D01*
X1845300Y1941099D02*
X1877208D01*
X1845300Y2130999D02*
X1877171D01*
X1845300Y2129199D02*
X1877109D01*
X1845300Y1939299D02*
X1877083D01*
X1845300Y2070699D02*
X1877082D01*
X1845300Y1990599D02*
X1877060D01*
X1845300Y1989699D02*
X1877015D01*
X1845300Y2069799D02*
X1877007D01*
X1845300Y1940199D02*
X1877007D01*
X1845300Y2130099D02*
X1877002D01*
X1845300Y2002299D02*
X1873695D01*
X1845300Y2007699D02*
X1873690D01*
X1845300Y2003199D02*
X1872601D01*
X1845300Y2006799D02*
X1872599D01*
X1845300Y2004099D02*
X1872139D01*
X1845300Y2005899D02*
X1872138D01*
X1845300Y2004999D02*
X1872000D01*
X1845300Y1861899D02*
X1858224D01*
X1845300Y1858299D02*
X1858034D01*
X1845300Y1860999D02*
X1857599D01*
X1845300Y1859199D02*
X1857527D01*
X1845300Y1860099D02*
X1857402D01*
X1845300Y1815099D02*
X1854442D01*
X1845300Y2231799D02*
X1854147D01*
X1845300Y1834899D02*
X1853890D01*
X1845300Y2211999D02*
X1853054D01*
X1845300Y1815999D02*
X1852464D01*
X1845300Y1833999D02*
X1852133D01*
X1845300Y2230899D02*
X1852034D01*
X1845300Y2212899D02*
X1851383D01*
X1845300Y1816899D02*
X1851164D01*
X1845300Y1833099D02*
X1850921D01*
X1845300Y2229999D02*
X1850686D01*
X1845300Y2213799D02*
X1850209D01*
X1845300Y1817799D02*
X1850185D01*
X1845300Y1832199D02*
X1849995D01*
X1845300Y2229099D02*
X1849679D01*
X1845300Y1818699D02*
X1849414D01*
X1845300Y2214699D02*
X1849308D01*
X1845300Y1831299D02*
X1849263D01*
X1845300Y2228199D02*
X1848889D01*
X1845300Y1819599D02*
X1848798D01*
X1845300Y1830399D02*
X1848677D01*
X1845300Y2215599D02*
X1848593D01*
X1845300Y1820499D02*
X1848306D01*
X1845300Y2227299D02*
X1848258D01*
X1845300Y1829499D02*
X1848211D01*
X1845300Y2216499D02*
X1848021D01*
X1845300Y1821399D02*
X1847921D01*
X1845300Y1828599D02*
X1847847D01*
X1845300Y2226399D02*
X1847754D01*
X1845300Y1822299D02*
X1847629D01*
X1845300Y1827699D02*
X1847575D01*
X1845300Y2217399D02*
X1847567D01*
X1845300Y1823199D02*
X1847423D01*
X1845300Y1826799D02*
X1847388D01*
X1845300Y2225499D02*
X1847358D01*
X1845300Y1824099D02*
X1847298D01*
X1845300Y1825899D02*
X1847280D01*
X1845300Y1824999D02*
X1847250D01*
X1845300Y2218299D02*
X1847213D01*
X1845300Y2224599D02*
X1847056D01*
X1845300Y2219199D02*
X1846951D01*
X1845300Y2223699D02*
X1846841D01*
X1845300Y2220099D02*
X1846772D01*
X1845300Y2222799D02*
X1846707D01*
X1845300Y2220999D02*
X1846673D01*
X1845300Y2221899D02*
X1846652D01*
G54D15*
X1920000Y1980000D03*
G54D24*
X1860000Y1860000D03*
X1880000Y1880000D03*
Y1957500D03*
X1970000Y2090000D03*
X1942500Y2105000D03*
X1970000Y2107500D03*
X1900000Y2127500D03*
X1970000D03*
X1940000Y2130000D03*
G54D25*
X1968185Y1882815D02*
X1968963Y1882037D01*
X1922121Y1982121D02*
X1922899Y1982899D01*
X1922121Y1977879D02*
X1922899Y1977101D01*
X1917879Y1982121D02*
X1917101Y1982899D01*
X1917879Y1977879D02*
X1917101Y1977101D01*
X1962436Y1831071D02*
X1963214Y1831848D01*
X1962436Y1828287D02*
X1963214Y1827509D01*
X1959652Y1831071D02*
X1958874Y1831848D01*
X1959652Y1828287D02*
X1958874Y1827509D01*
X1861061Y1861061D02*
X1861838Y1861838D01*
X1861061Y1858939D02*
X1861838Y1858162D01*
X1858939Y1861061D02*
X1858162Y1861838D01*
X1858939Y1858939D02*
X1858162Y1858162D01*
X1881061Y1958561D02*
X1881838Y1959338D01*
X1881061Y1956439D02*
X1881838Y1955662D01*
X1878939Y1958561D02*
X1878162Y1959338D01*
X1878939Y1956439D02*
X1878162Y1955662D01*
X1881061Y1881061D02*
X1881838Y1881838D01*
X1881061Y1878939D02*
X1881838Y1878162D01*
X1878939Y1881061D02*
X1878162Y1881838D01*
X1878939Y1878939D02*
X1878162Y1878162D01*
X1901061Y2128561D02*
X1901838Y2129338D01*
X1901061Y2126439D02*
X1901838Y2125662D01*
X1898939Y2128561D02*
X1898162Y2129338D01*
X1898939Y2126439D02*
X1898162Y2125662D01*
X1943561Y2106061D02*
X1944338Y2106838D01*
X1943561Y2103939D02*
X1944338Y2103162D01*
X1941439Y2106061D02*
X1940662Y2106838D01*
X1941439Y2103939D02*
X1940662Y2103162D01*
X1941061Y2131061D02*
X1941838Y2131838D01*
X1941061Y2128939D02*
X1941838Y2128162D01*
X1938939Y2131061D02*
X1938162Y2131838D01*
X1938939Y2128939D02*
X1938162Y2128162D01*
X1971061Y2091061D02*
X1971838Y2091838D01*
X1971061Y2088939D02*
X1971838Y2088162D01*
X1968939Y2091061D02*
X1968162Y2091838D01*
X1968939Y2088939D02*
X1968162Y2088162D01*
X1971061Y2108561D02*
X1971838Y2109338D01*
X1971061Y2106439D02*
X1971838Y2105662D01*
X1968939Y2108561D02*
X1968162Y2109338D01*
X1968939Y2106439D02*
X1968162Y2105662D01*
X1971061Y2128561D02*
X1971838Y2129338D01*
X1971061Y2126439D02*
X1971838Y2125662D01*
X1968939Y2128561D02*
X1968162Y2129338D01*
X1968939Y2126439D02*
X1968162Y2125662D01*
G54D29*
X1961044Y1829679D03*
G54D46*
X1966700Y1884300D03*
G74*
X0Y0D02*
M02*
