*
*
G04 PADS VX.2.1 Build Number: 6554490 generated Gerber (RS-274-X) file*
G04 PC Version=2.1*
*
%IN "uMuddMarkVLayout_3.pcb"*%
*
%MOIN*%
*
%FSLAX35Y35*%
*
*
*
*
G04 PC Standard Apertures*
*
*
G04 Thermal Relief Aperture macro.*
%AMTER*
1,1,$1,0,0*
1,0,$1-$2,0,0*
21,0,$3,$4,0,0,45*
21,0,$3,$4,0,0,135*
%
*
*
G04 Annular Aperture macro.*
%AMANN*
1,1,$1,0,0*
1,0,$2,0,0*
%
*
*
G04 Odd Aperture macro.*
%AMODD*
1,1,$1,0,0*
1,0,$1-0.005,0,0*
%
*
*
G04 PC Custom Aperture Macros*
*
*
*
*
*
*
G04 PC Aperture Table*
*
%ADD010C,0.001*%
%ADD013R,0.06X0.06*%
%ADD014C,0.06*%
%ADD017R,0.02756X0.12598*%
%ADD018R,0.02756X0.16535*%
%ADD024C,0.25*%
%ADD026C,0.008*%
%ADD027C,0.01*%
%ADD028C,0.03*%
%ADD054C,0.042*%
*
*
*
*
G04 PC Circuitry*
G04 Layer Name uMuddMarkVLayout_3.pcb - circuitry*
%LPD*%
*
*
G04 PC Custom Flashes*
G04 Layer Name uMuddMarkVLayout_3.pcb - flashes*
%LPD*%
*
*
G04 PC Circuitry*
G04 Layer Name uMuddMarkVLayout_3.pcb - circuitry*
%LPD*%
*
G54D10*
G54D13*
G01X2051400Y2125500D03*
X1991300Y2123300D03*
X1977000Y2123400D03*
X2065800Y2299900D03*
X2047600Y2140700D03*
G54D14*
X2075700Y1963200D03*
Y1937609D03*
X2057983D03*
Y1963200D03*
X2057800Y1986700D03*
Y2012291D03*
X2075517D03*
Y1986700D03*
X1949100Y2177100D03*
Y2167100D03*
Y2157100D03*
Y2147100D03*
Y2137100D03*
X2051400Y2115500D03*
Y2105500D03*
Y2095500D03*
Y2085500D03*
Y2075500D03*
Y2065500D03*
Y2055500D03*
Y2045500D03*
Y2035500D03*
X2081400D03*
Y2045500D03*
Y2055500D03*
Y2065500D03*
Y2075500D03*
Y2085500D03*
Y2095500D03*
Y2105500D03*
Y2115500D03*
Y2125500D03*
X1978300Y2379700D03*
X1952709D03*
Y2397417D03*
X1978300D03*
X1991300Y2113300D03*
Y2103300D03*
Y2093300D03*
Y2083300D03*
Y2073300D03*
Y2063300D03*
Y2053300D03*
Y2043300D03*
Y2033300D03*
X1977000Y2113400D03*
Y2103400D03*
Y2093400D03*
Y2083400D03*
Y2073400D03*
Y2063400D03*
Y2053400D03*
Y2043400D03*
Y2033400D03*
X2055800Y2299900D03*
X2065800Y2309900D03*
X2055800D03*
X2065800Y2319900D03*
X2055800D03*
X2065800Y2329900D03*
X2055800D03*
X2065800Y2339900D03*
X2055800D03*
X2027400Y1916400D03*
Y1966400D03*
X1909400Y2455100D03*
Y2445100D03*
Y2435100D03*
Y2425100D03*
Y2415100D03*
Y2405100D03*
Y2395100D03*
Y2385100D03*
Y2375100D03*
Y2365100D03*
Y2355100D03*
Y2345100D03*
Y2335100D03*
Y2325100D03*
Y2315100D03*
Y2305100D03*
Y2295100D03*
Y2285100D03*
Y2275100D03*
Y2265100D03*
Y2255100D03*
Y2245100D03*
Y2235100D03*
Y2225100D03*
Y2215100D03*
Y2205100D03*
Y2195100D03*
Y2185100D03*
Y2175100D03*
Y2165100D03*
Y2155100D03*
Y2145100D03*
Y2135100D03*
Y2125100D03*
Y2115100D03*
Y2105100D03*
Y2095100D03*
Y2085100D03*
Y2075100D03*
Y2065100D03*
Y2055100D03*
Y2045100D03*
Y2035100D03*
Y2025100D03*
Y2015100D03*
Y2005100D03*
Y1995100D03*
Y1985100D03*
Y1975100D03*
Y1965100D03*
Y1955100D03*
Y1945100D03*
Y1935100D03*
Y1925100D03*
Y1915100D03*
Y1905100D03*
Y1895100D03*
Y1885100D03*
X2057600Y2140700D03*
X2067600D03*
X2077600D03*
Y2170700D03*
X2067600D03*
X2057600D03*
X2047600D03*
G54D17*
X1962598Y1845748D03*
G54D18*
X1966535Y1843780D03*
X1970472D03*
X1974409D03*
X1978346D03*
X1982283D03*
X1986220D03*
X1990157D03*
X1994094D03*
X1998031D03*
X2001969D03*
X2013780D03*
X2017717D03*
X2021654D03*
X2025591D03*
X2029528D03*
X2033465D03*
X2037402D03*
G54D24*
X2006400Y2230500D03*
G54D26*
X1976500Y1854500D02*
Y1875565D01*
X1963200Y1888865*
X1974409Y1843780D02*
Y1853051D01*
X1973500Y1853961*
Y1864036*
X1960036Y1877500*
X1959464*
X1955700Y1881264*
Y1921067*
X1954000Y1922767*
Y1959871*
X1953000Y1960871*
X1970472Y1843780D02*
X1970500D01*
Y1854500*
X1966535Y1843780D02*
X1966500D01*
Y1854500*
X1962598Y1845748D02*
Y1868902D01*
X1960500Y1871000*
Y1873500*
X1990000Y1854500D02*
X2003500Y1868000D01*
Y1936936*
X1994094Y1843780D02*
Y1856055D01*
X2008400Y1870360*
Y1879100*
X1990157Y1843780D02*
X1990000D01*
Y1854500*
X2013780Y1843780D02*
Y1862780D01*
X2021500Y1870500*
Y1903452*
X2031400Y1913352*
X2001969Y1843780D02*
X2002000D01*
Y1854500*
X2037402Y1843780D02*
X2037500D01*
Y1854500*
X2033465Y1843780D02*
Y1876965D01*
X2043500Y1887000*
X2029528Y1843780D02*
Y1875472D01*
X2029500Y1875500*
Y1900500*
X2025591Y1843780D02*
Y1854051D01*
X2026700Y1855161*
Y1901236*
X2028464Y1903000*
X2030536*
X2021654Y1843780D02*
Y1854429D01*
X2021500Y1854583*
Y1865000*
X2017717Y1843780D02*
X2017500D01*
Y1854500*
X1953500Y1876000D02*
Y1898500D01*
X1952500Y1899500*
Y1959035*
X1951600Y1959935*
X2015000Y1869400D02*
Y1899200D01*
X2015500Y1899700*
Y1929500*
X2024000Y1857000D02*
Y1902244D01*
X2036500Y1914744*
Y1942107*
X2038893Y1944500*
X2041500*
X2088500Y1872500D02*
Y2369500D01*
X2085500Y1875000D02*
Y2114500D01*
X2086000Y2115000*
Y2354500*
X1963200Y1888865D02*
Y1934930D01*
X1964600Y1936330*
Y1946792*
X1965400Y1947592*
X1971500Y1892500D02*
Y1906500D01*
X1970500Y1907500*
Y1921036*
X1964000Y1878000D02*
Y1883300D01*
X1961800Y1885500*
Y1936502*
X1959000Y1881500D02*
Y1920500D01*
X2008400Y1879100D02*
Y1905600D01*
X2006607Y1907393*
Y1941400*
X2018000Y1891000D02*
Y1955000D01*
X2024286Y1961286*
Y1963286*
X2027400Y1966400*
X2063800Y1904900D02*
X2051700Y1892800D01*
X2034382*
X2032400Y1894782*
Y1901136*
X2030536Y1903000*
X2043500Y1887000D02*
X2050900D01*
X2063800Y1899900*
X1916500Y1914000D02*
Y1933800D01*
X1909400Y1940900*
Y1945100*
X1993958Y1914500D02*
X1997400Y1917942D01*
Y1954400*
X2003500Y1960500*
X1993958Y1914500D02*
X1989516D01*
X1989316Y1914700*
X1985865Y1914400D02*
X1986165Y1914700D01*
X1989316*
X1985865Y1914400D02*
X1982270D01*
X1974170Y1922500*
X1990738Y1909300D02*
X1998900Y1917462D01*
Y1951419*
X2002481Y1955000*
X2004536*
X1990738Y1909300D02*
X1983700D01*
X1973000Y1920000*
X1993378Y1915900D02*
X1995900Y1918422D01*
Y1956300*
X1998100Y1958500*
Y2052300*
X1993378Y1915900D02*
X1990793D01*
X1990593Y1916100*
X1985069Y1915800D02*
X1985369Y1916100D01*
X1990593*
X1985069Y1915800D02*
X1982985D01*
X1973400Y1925385*
Y1931000*
X1992000Y1902000D02*
X2000600Y1910600D01*
Y1942327*
X2003508Y1945236*
Y1952492*
X2031400Y1913352D02*
Y1926235D01*
X2030700Y1926935*
X2027400Y1916400D02*
Y1930200D01*
X2027000Y1930600*
Y1959000*
X2063800Y1904900D02*
X2057983Y1910717D01*
Y1937609*
X1921500Y1919000D02*
Y1943000D01*
X1909400Y1955100*
X1945524Y1934434D02*
X1926500Y1953458D01*
Y2013657*
X1910057Y2030100*
X1908743*
X1902600Y2036243*
X1970500Y1921036D02*
X1971964Y1922500D01*
X1974170*
X1970500Y1933196D02*
X1973000Y1935696D01*
Y1972731*
X1967731Y1930229D02*
Y1932931D01*
X1968000Y1933200*
Y1934598*
X1971600Y1938198*
Y1971065*
X1985900Y1926639D02*
Y1949979D01*
X1982400Y1953479*
X1989000Y1929198D02*
Y1955300D01*
X1991700Y1958000*
Y1983164*
X1991500Y1935000D02*
Y1955300D01*
X1996700Y1960500*
Y2037900*
X1983348Y1931397D02*
Y1942224D01*
X1981000Y1944572*
X1983928Y1918392D02*
Y1924667D01*
X1985900Y1926639*
X1992437Y1918495D02*
Y1925761D01*
X1989000Y1929198*
X2009500Y1932000D02*
Y1942573D01*
X2006300Y1945773*
Y1953236*
X2004536Y1955000*
X2030700Y1926935D02*
Y1938479D01*
X2035847Y1943626*
Y1970205*
X2044642Y1978999*
Y1997670*
X2051900Y2004928*
Y2021195*
X2061600Y2030895*
X2064500Y1929500D02*
Y2111500D01*
X1948500Y1956500D02*
X1948477Y1956463D01*
X1946300Y1957822*
X1941800Y1962322*
Y2042700*
X1909400Y2075100*
X1951000Y1955223D02*
Y1958045D01*
X1950200Y1958845*
Y2054300*
X1909400Y2095100*
X1944741Y1940045D02*
X1935000Y1949787D01*
Y2035157*
X1910057Y2060100*
X1908743*
X1904000Y2064843*
X1943612Y1946390D02*
X1938700Y1951301D01*
Y2041457*
X1910057Y2070100*
X1908743*
X1905400Y2073443*
X1948500Y1952723D02*
X1951000Y1955223D01*
X1961800Y1936502D02*
X1963200Y1937902D01*
Y1950130*
X1963200D02*
X1964000Y1950930D01*
X1964000D02*
Y1966895D01*
X1960440Y1945607D02*
Y1952719D01*
X1962600Y1954879*
Y1965737*
X1965400Y1947592D02*
Y1968158D01*
X1963354Y1970205*
X1960612Y1940922D02*
X1955600Y1945934D01*
Y1960608*
X1954400Y1961808*
X1960441Y1945607D02*
X1960440D01*
X1969100Y1939600D02*
Y1970700D01*
X1966754Y1973047*
Y2042563*
X1958500Y1954500D02*
X1961200Y1957200D01*
X1981000Y1944572D02*
Y1963863D01*
X1981200Y1964063*
X1982400Y1953479D02*
Y1963225D01*
X1982600Y1963425*
X2011000Y1948500D02*
Y2036869D01*
X2010000Y2037869*
Y2091029*
X2014000Y1946000D02*
Y2012000D01*
X2015000Y2013000*
Y2073184*
X2041500Y1944500D02*
X2044642Y1947642D01*
Y1957670*
X2057800Y1970828*
Y1986700*
X2057983Y1937609D02*
Y1963200D01*
X1931500Y1967500D02*
Y2013000D01*
X1909400Y2035100*
X1955800Y1962651D02*
Y2060700D01*
X1960100Y2065000*
X1951600Y1959935D02*
Y2129970D01*
X1953100Y2131470*
X1953000Y1960871D02*
Y2125463D01*
X1954500Y2126963*
X1954400Y1961808D02*
Y2089100D01*
X1956000Y2090700*
Y2121000*
X1955800Y1962651D02*
X1958468Y1959983D01*
X1958500Y1960015*
X1973000Y1972731D02*
X1969554Y1976177D01*
Y2040223*
X1971600Y1971065D02*
X1968154Y1974511D01*
Y2041090*
X1962600Y1965737D02*
X1960554Y1967784D01*
X1975296Y1975204D02*
X1975600D01*
Y2001500*
X1974504Y2002596*
Y2027604*
X1964000Y1966895D02*
X1961954Y1968942D01*
Y2049068*
X1961200Y1957200D02*
Y1965046D01*
X1959154Y1967092*
Y2056366*
X1962600Y2059812*
X1960554Y1967784D02*
Y2051633D01*
X1964000Y2055080*
X1963354Y1970205D02*
Y2046906D01*
X1966800Y2050353*
X1982600Y1963425D02*
Y1971007D01*
X1979196Y1974411*
X1981200Y1964063D02*
Y1968273D01*
X1977796Y1971677*
Y2026772*
X1981000Y2029976*
X1979196Y1974411D02*
Y2024425D01*
X1982400Y2027630*
X1984925Y1962385D02*
Y1975531D01*
X1989162Y1979768*
X2016500Y1958500D02*
Y2079314D01*
X2016000Y2079814*
Y2106671*
X2021500Y1964000D02*
Y2007700D01*
X2020500Y2008700*
Y2068500*
X1921500Y1977500D02*
Y2013000D01*
X1909400Y2025100*
X1973000Y1978000D02*
Y2003000D01*
X1972004Y2003996*
X1984894Y1982859D02*
X1986000Y1983964D01*
Y2007610*
X1986600Y2008210*
X1991700Y1983164D02*
X1990000Y1985000D01*
X1989162Y1979768D02*
Y1982214D01*
X1987500Y1983877*
Y1997878*
X1995300Y2005678*
X1981000Y1982400D02*
Y2020035D01*
X1983800Y2022835*
X1981696Y1977600D02*
Y1981704D01*
X1981000Y1982400*
X1983500Y1985000D02*
Y2016341D01*
X1985200Y2018041*
X1986662Y1981091D02*
X1984894Y1982859D01*
X2006500Y1978500D02*
Y2142000D01*
X2057800Y1986700D02*
Y2012291D01*
X1972004Y2003996D02*
Y2032622D01*
X1972054Y2032672*
Y2039154*
X1995300Y2005678D02*
Y2034957D01*
X1991957Y2038300*
X1990643*
X1987300Y2041643*
X1986600Y2008210D02*
Y2039552D01*
X1985900Y2040252*
X2041036Y2015000D02*
X2051400Y2025364D01*
Y2035500*
X2041036Y2015000D02*
X2038964D01*
X2035000Y2018964*
Y2024500*
X1902600Y2036243D02*
Y2134100D01*
X1909400Y2140900*
Y2145100*
X1985200Y2018041D02*
Y2038162D01*
X1984500Y2038862*
Y2075900*
X1977000Y2083400*
X1983800Y2022835D02*
Y2037121D01*
X1983100Y2037821*
Y2060200*
X1982000Y2061300*
Y2069000*
X1982400Y2027630D02*
Y2036081D01*
X1981700Y2036781*
Y2054500*
X1977000Y2059200*
Y2063400*
X1981000Y2029976D02*
Y2035268D01*
X1980065Y2036203*
Y2040335*
X1977000Y2043400*
X2041000Y2022200D02*
X2040060Y2023140D01*
Y2074160*
X2040000Y2017500D02*
X2041000Y2020000D01*
Y2022200*
X2061600Y2030895D02*
Y2144050D01*
X2056600Y2149050*
Y2163767*
X2053600Y2166767*
X1969554Y2040223D02*
X1973000Y2043669D01*
Y2085057*
X1975343Y2087400*
X1980900*
X1964000Y2055080D02*
Y2095500D01*
X1962000Y2097500*
Y2109500*
X1961954Y2049068D02*
X1965400Y2052515D01*
Y2157468*
X1966754Y2042563D02*
X1970200Y2046010D01*
Y2092257*
X1976343Y2098400*
X1977657*
X1984100Y2104843*
Y2116100*
X1991300Y2123300*
X1968154Y2041090D02*
X1971600Y2044536D01*
Y2085637*
X1975063Y2089100*
X1978357*
X1984736Y2095479*
Y2096736*
X1991300Y2103300*
X1966800Y2050353D02*
Y2159216D01*
X1964200Y2161816*
X1977000Y2043400D02*
X1979200Y2048484D01*
X1996700Y2037900D02*
X1991300Y2043300D01*
X1987300Y2041643D02*
Y2064957D01*
X1990643Y2068300*
X1991957*
X2001000Y2077343*
Y2137000*
X1985900Y2040252D02*
Y2073557D01*
X1990643Y2078300*
X1991957*
X1997900Y2084243*
Y2145200*
X2001500Y2148800*
Y2159000*
X1998100Y2052300D02*
X1991300Y2059100D01*
Y2063300*
X2023000Y2051000D02*
Y2165004D01*
X2028200Y2170204*
Y2195200*
X2033500Y2200500*
X2025296Y2048204D02*
X2025600D01*
Y2058116*
X2032900Y2065416*
Y2073629*
X2038985Y2079714*
Y2163915*
X2037500Y2055500D02*
Y2058700D01*
X2038500Y2059700*
Y2076714*
X2041500Y2079714*
Y2093000*
X2037500Y2045500D02*
X2032334Y2050666D01*
Y2051166*
X2030000Y2053500*
X1904000Y2064843D02*
Y2115500D01*
X1909400Y2120900*
Y2125100*
X1905400Y2073443D02*
Y2096900D01*
X1909400Y2100900*
Y2105100*
X1945000Y2069000D02*
Y2158800D01*
X1949100Y2162900*
Y2167100*
X1962600Y2059812D02*
Y2073700D01*
X1961500Y2074800*
Y2085000*
X2015000Y2073184D02*
X2014600Y2073584D01*
Y2126386*
X2012500Y2066500D02*
Y2142155D01*
X2014094Y2143749*
X2030132Y2074368D02*
X2032900Y2077136D01*
Y2094522*
X2033129Y2094752*
Y2099522*
X2030132Y2074368D02*
X2030000Y2074500D01*
X2020500Y2068500D02*
X2021300Y2069300D01*
Y2166293*
X2026000Y2170993*
Y2264500*
X2049743Y2061500D02*
X2047400Y2063843D01*
Y2071500*
X2049743Y2061500D02*
X2053057D01*
X2056800Y2065243*
X2047400Y2071500D02*
X2051400Y2075500D01*
X2056800Y2065243D02*
Y2115757D01*
X2052157Y2120400*
X2048600*
X2046000Y2123000*
X2055400Y2073700D02*
Y2087157D01*
X2052057Y2090500*
X2050743*
X2044000Y2097243*
Y2107000*
X2040060Y2074160D02*
X2051400Y2085500D01*
Y2065500D02*
Y2069700D01*
X2055400Y2073700*
X1991300Y2083300D02*
X1985000D01*
X1980900Y2087400*
X2010000Y2091029D02*
X2011000Y2092029D01*
Y2155177*
X2012694Y2156871*
Y2171461*
X2018500Y2086500D02*
Y2173843D01*
X2017200Y2175143*
Y2189200*
X2027500Y2095500D02*
Y2166804D01*
X2030900Y2170204*
Y2181016*
X2031309Y2183516*
X1991300Y2103300D02*
Y2107500D01*
X1995900Y2112100*
Y2156936*
X2001228Y2162264*
X2002173*
X2004705Y2164795*
X2016000Y2106671D02*
X2016894Y2107565D01*
Y2173465*
X2033129Y2099522D02*
X2032900Y2099752D01*
Y2150919*
X2029510Y2154309*
Y2166310*
X2051400Y2115500D02*
X2047486Y2119414D01*
X2046050*
X2040385Y2125080*
Y2190900*
X2038000Y2193285*
Y2233500*
X1953100Y2131470D02*
Y2186454D01*
X1948800Y2190754*
X1954500Y2126963D02*
Y2194723D01*
X1950200Y2199023*
X1991300Y2123300D02*
Y2154926D01*
X2004659Y2168285*
X2008194*
X2014600Y2126386D02*
X2015494Y2127280D01*
Y2172881*
X1961500Y2154500D02*
Y2158200D01*
X1960000Y2159700*
X1981790Y2147210D02*
Y2151732D01*
X1984000Y2153942*
Y2164717*
X1987000Y2144500D02*
X1980964D01*
X1975100Y2150364*
Y2166507*
X1969800Y2171807*
X2014094Y2143749D02*
Y2172297D01*
X2012600Y2173791*
Y2186400*
X2008500Y2190500*
Y2205500*
X2042900Y2153697D02*
X2045785Y2156582D01*
Y2162838*
X2047600Y2140700D02*
X2042900Y2145400D01*
Y2153697*
X2072853Y2145447D02*
Y2153972D01*
X2075000Y2156120*
Y2163185*
X2072600Y2165585*
Y2191400*
X2071500Y2192500*
Y2215000*
X2062853Y2145447D02*
Y2153972D01*
X2065000Y2156120*
Y2163185*
X2062600Y2165585*
Y2188100*
X2061500Y2189200*
Y2208500*
X2067600Y2140700D02*
X2062853Y2145447D01*
X2057600Y2140700D02*
Y2145400D01*
X2055100Y2147900*
Y2161011*
X2051900Y2164211*
Y2199600*
X2043500Y2208000*
X2077600Y2140700D02*
X2072853Y2145447D01*
X1969800Y2171807D02*
Y2185253D01*
X1972500Y2187953*
Y2195778*
X1978000Y2201278*
X1964200Y2161816D02*
Y2186932D01*
X1966500Y2189232*
Y2224580*
X1972874Y2230954*
X1960000Y2159700D02*
Y2192909D01*
X1961100Y2194009*
X1965400Y2157468D02*
X1962800Y2160068D01*
Y2187641*
X1968700Y2166000D02*
Y2169600D01*
X1968400Y2169900*
Y2186056*
X1984000Y2164717D02*
X1972600Y2176117D01*
Y2183135*
X1981500Y2157000D02*
Y2163546D01*
X1971200Y2173846*
Y2184407*
X1986222Y2167722D02*
X1989996Y2171496D01*
Y2179041*
X1992101Y2181146*
X1993270*
X1995562Y2183438*
X2016894Y2173465D02*
X2015800Y2174560D01*
Y2198807*
X2015494Y2172881D02*
X2014400Y2173976D01*
Y2206859*
X2012694Y2171461D02*
X2006000Y2178155D01*
Y2208772*
X2029510Y2166310D02*
X2033500Y2170300D01*
Y2180500*
X2053600Y2166767D02*
Y2190319D01*
X2056200Y2192919*
X2038985Y2163915D02*
X2037100Y2165800D01*
Y2180500*
X2045785Y2162838D02*
X2042700Y2165923D01*
Y2190900*
X2040500Y2193100*
Y2202000*
X1916500Y2180500D02*
Y2233800D01*
X1909400Y2240900*
Y2245100*
X1948800Y2190754D02*
Y2211095D01*
X1951200Y2213495*
Y2220900*
X1952000Y2221700*
Y2227500*
X1972600Y2183135D02*
X1975300Y2185835D01*
Y2194618*
X1983000Y2202318*
Y2244000*
X1971200Y2184407D02*
X1973900Y2187107D01*
Y2195198*
X1979900Y2201198*
Y2245900*
X1981500Y2247500*
Y2251500*
X1968400Y2186056D02*
X1971000Y2188656D01*
Y2196258*
X1975500Y2200758*
Y2217000*
X1961100Y2194009D02*
Y2197791D01*
X1951600Y2207291*
X1962800Y2187641D02*
X1965100Y2189941D01*
Y2226900*
X1969164Y2230964*
Y2235164*
X1975121Y2180509D02*
X1977400Y2182788D01*
X1977400D02*
Y2188031D01*
X1980700Y2191331*
Y2197518*
X1985500Y2202318*
Y2264509*
X1962500Y2191000D02*
Y2268964D01*
X1961812Y2269652*
X1987131Y2176904D02*
X1988596Y2178369D01*
Y2180094*
X1996300Y2187798*
X1987131Y2176904D02*
X1985060D01*
X1983400Y2178564*
Y2180024*
X1984000Y2182524*
X1985968Y2179532D02*
X1994900Y2188464D01*
X1996300Y2187798D02*
Y2215916D01*
X1992900Y2219316*
X1994900Y2188464D02*
Y2209745D01*
X1990500Y2214145*
Y2286500*
X1979674Y2179807D02*
X1980500Y2183500D01*
Y2188100*
X1982200Y2189800*
Y2194939*
X1986900Y2199639*
X1984100Y2182500D02*
X1984000Y2182524D01*
X1986096Y2179404D02*
X1985968Y2179532D01*
X2017200Y2189200D02*
X2023500Y2195500D01*
X2031409Y2183500D02*
X2031309Y2183516D01*
X2056200Y2192919D02*
Y2214800D01*
X2053500Y2217500*
X1950200Y2199023D02*
Y2210515D01*
X1952600Y2212915*
Y2217880*
X1954500Y2219780*
X1957300Y2215008D02*
Y2230772D01*
X1955700Y2232372*
X1951600Y2207291D02*
Y2209936D01*
X1954000Y2212336*
Y2214860*
X1955900Y2216760*
X1946200Y2209500D02*
Y2288300D01*
X1909400Y2325100*
X1954150Y2208950D02*
X1956200Y2211000D01*
Y2213908*
X1957300Y2215008*
X1948700Y2214531D02*
Y2295800D01*
X1909400Y2335100*
X1959000Y2212000D02*
Y2222400D01*
X1961100Y2224500*
X1978000Y2201278D02*
Y2235100D01*
X1977600Y2235500*
Y2255000*
X1986900Y2199639D02*
Y2265088D01*
X1975012Y2276976*
X1992400Y2197800D02*
Y2205000D01*
X1988700Y2208700*
Y2266824*
X1977512Y2278012*
X2015800Y2198807D02*
X2022700Y2205707D01*
Y2265407*
X2014400Y2206859D02*
X2021300Y2213759D01*
Y2254253*
X2006000Y2208772D02*
X2019900Y2222672D01*
Y2243100*
X1931500Y2222500D02*
Y2293000D01*
X1909400Y2315100*
X1954300Y2231782D02*
Y2235198D01*
X1957000Y2237898*
Y2241500*
X1955700Y2232372D02*
Y2234618D01*
X1959700Y2238618*
X1954500Y2219780D02*
Y2229591D01*
X1952811Y2231280*
Y2236800*
X1955900Y2216760D02*
Y2230182D01*
X1954300Y2231782*
X1941500Y2217000D02*
X1933464D01*
X1924000Y2226464*
Y2296157*
X1910057Y2310100*
X1908743*
X1905400Y2313443*
X1952000Y2227500D02*
Y2230100D01*
X1951400Y2230700*
Y2305500*
X1961100Y2224500D02*
Y2267222D01*
X1960200Y2268122*
Y2293660*
X1959500Y2294360*
X1972874Y2230954D02*
Y2237407D01*
X1972874D02*
X1975100Y2239632D01*
X1969164Y2235164D02*
X1963900Y2240429D01*
Y2270004*
X1963212Y2270692*
Y2289871*
X1992900Y2219316D02*
Y2271509D01*
X1996500Y2275109*
Y2290000*
X2038000Y2233500D02*
Y2366000D01*
X1954356Y2238790D02*
X1954578Y2238568D01*
X1952811Y2236800*
X1954356Y2238790D02*
Y2248327D01*
X1953300Y2249383*
Y2290679*
X1937500Y2254000D02*
Y2293000D01*
X1930000Y2300500*
X1957200Y2247000D02*
Y2254500D01*
X1954700Y2257000*
X1973700Y2246836D02*
Y2272349D01*
X1970812Y2275237*
X1975100Y2239632D02*
Y2272929D01*
X1972212Y2275817*
X1959700Y2238618D02*
Y2265479D01*
X1958700Y2266479*
Y2285575*
X1958100Y2286175*
X1967300Y2250200D02*
Y2262803D01*
X1969300Y2264803*
X1969204Y2248296D02*
X1967300Y2250200D01*
X1969164Y2240764D02*
Y2244720D01*
X1972300Y2247856*
Y2271769*
X1972490Y2244510D02*
X1973700Y2246836D01*
X1969800Y2253296D02*
Y2259559D01*
X1970700Y2260459*
X2021300Y2254253D02*
X2019500Y2256053D01*
Y2280846*
X2018000Y2282346*
Y2287500*
X2019900Y2243100D02*
X1995500Y2267500D01*
X1916500Y2260000D02*
Y2293657D01*
X1910057Y2300100*
X1908743*
X1904000Y2304843*
X1956700Y2275800D02*
Y2312711D01*
X1958400Y2314411*
X1954700Y2257000D02*
Y2276914D01*
X1955300Y2277514*
Y2319055*
X1957000Y2320755*
X1957200Y2263000D02*
Y2275300D01*
X1956700Y2275800*
X1961812Y2269652D02*
Y2294412D01*
X1962000Y2294600*
Y2303000*
X1966612Y2273497D02*
Y2283514D01*
X1967200Y2284102*
Y2299735*
X1968000Y2300535*
Y2326344*
X1972400Y2330744*
Y2348800*
X1973500Y2349900*
Y2356500*
X1968012Y2274077D02*
Y2282441D01*
X1968600Y2283029*
Y2299022*
X1969700Y2300122*
Y2325979*
X1973800Y2330079*
Y2343725*
X1976000Y2345925*
X1970812Y2275237D02*
Y2280787D01*
X1971500Y2281475*
Y2297577*
X1972700Y2298777*
Y2324834*
X1978900Y2331034*
X1972212Y2275817D02*
Y2280207D01*
X1972900Y2280895*
Y2296716*
X1975500Y2299316*
Y2324000*
X1972300Y2271769D02*
X1969412Y2274657D01*
Y2281367*
X1970700Y2260459D02*
Y2271389D01*
X1968012Y2274077*
X1969300Y2264803D02*
Y2270809D01*
X1966612Y2273497*
X1985500Y2264509D02*
X1973612Y2276397D01*
Y2279627*
X2022700Y2265407D02*
X2021296Y2266812D01*
Y2285704*
X1953300Y2290679D02*
X1953900Y2291279D01*
Y2326300*
X1954500Y2326900*
Y2336000*
X1958100Y2286175D02*
Y2308030D01*
X1959800Y2309730*
X1959500Y2294360D02*
Y2305743D01*
X1961200Y2307443*
X1963212Y2289871D02*
X1963500Y2290159D01*
Y2300941*
X1964500Y2301941*
Y2357900*
X1969412Y2281367D02*
X1970100Y2282055D01*
Y2298408*
X1971200Y2299508*
Y2325413*
X1976302Y2330515*
Y2338198*
X1973612Y2279627D02*
X1974700Y2280715D01*
Y2292900*
X1975400Y2295400*
X1975012Y2276976D02*
Y2279048D01*
X1977296Y2281331*
Y2292204*
X1904000Y2304843D02*
Y2395500D01*
X1909400Y2400900*
Y2405100*
X1905400Y2313443D02*
Y2336900D01*
X1909400Y2340900*
Y2345100*
X1902500Y2301000D02*
Y2414000D01*
X1909400Y2420900*
Y2425100*
X1958400Y2314411D02*
Y2342750D01*
X1933900Y2367250*
Y2386400*
X1909400Y2410900*
Y2415100*
X1959800Y2309730D02*
Y2348000D01*
X1957000Y2350800*
Y2358000*
X1961200Y2307443D02*
Y2358078D01*
X1959384Y2359894*
Y2362116*
X1957000Y2364500*
X2065800Y2299900D02*
Y2304100D01*
X2061500Y2308400*
Y2357000*
X1957000Y2320755D02*
Y2337500D01*
X1909400Y2385100*
X1978900Y2331034D02*
Y2360800D01*
X1977000Y2362700*
Y2374500*
X1976000Y2345925D02*
Y2360800D01*
X1972000Y2364800*
Y2393000*
X1964500Y2357900D02*
X1962500Y2359900D01*
Y2362500*
X1985500Y2358500D02*
Y2390217D01*
X1978300Y2397417*
G54D27*
X1979300Y1853200D02*
Y1877955D01*
X1964900Y1892355*
X1986220Y1843780D02*
X1986000D01*
Y1856374*
X1982283Y1843780D02*
X1982500D01*
Y1854500*
X1978346Y1843780D02*
X1979224D01*
Y1851547*
X1979300Y1853200*
X1998031Y1843780D02*
Y1856989D01*
X2012300Y1871258*
Y1942709*
X2008200Y1946809*
X1964900Y1892355D02*
Y1933233D01*
X1966300Y1934633*
Y1943329*
X1967100Y1944129*
Y1969546*
X1965054Y1971592*
X2008200Y1946809D02*
Y1962950D01*
X2009300Y1964050*
X1965054Y1971592D02*
Y2044620D01*
X1968500Y2048066*
Y2103200*
X1969500Y2104200*
Y2117000*
X2009300Y1964050D02*
Y2007912D01*
X2008300Y2008912*
Y2115787*
X2009300Y2116787*
Y2160656*
X2010994Y2162350*
X1942000Y2117000D02*
Y2211400D01*
X1944300Y2213700*
X1969500Y2117000D02*
Y2160080D01*
X1965900Y2163680*
Y2186097*
X2010994Y2162350D02*
Y2169445D01*
X2006840Y2173600*
X1997018*
X1992696Y2177922*
X1965900Y2186097D02*
X1969212Y2189409D01*
Y2198288*
X2064500Y2192500D02*
Y2227000D01*
X1944300Y2213700D02*
Y2241900D01*
X1943000Y2243200*
Y2269500*
X1966771Y2269862D02*
X1964912Y2271720D01*
Y2286692*
X1966600Y2269691D02*
X1966771Y2269862D01*
X2053500Y2263000D02*
Y2281000D01*
X2051700Y2282800*
Y2301600*
X1964912Y2286692D02*
X1965300Y2287080D01*
Y2300288*
X1966200Y2301188*
Y2328444*
X1969628Y2331872*
X1993200Y2278700D02*
Y2283300D01*
X1993300Y2283400*
Y2318450*
X2051700Y2301600D02*
X2055800Y2305700D01*
Y2309900*
Y2314100*
X2051500Y2318400*
Y2425000*
X1993300Y2318450D02*
X1993200Y2318550D01*
Y2381400*
X1994500Y2382700*
Y2415000*
G54D28*
X1976500Y1854500D03*
X1970500D03*
X1966500D03*
X1986000Y1856374D03*
X1990000Y1854500D03*
X1982500D03*
X2002000D03*
X2017500D03*
X2037500D03*
X1953500Y1876000D03*
X1960500Y1873500D03*
X2015000Y1869400D03*
X2024000Y1857000D03*
X2021500Y1865000D03*
X2088500Y1872500D03*
X2085500Y1875000D03*
X1971500Y1892500D03*
X1964000Y1878000D03*
X1959000Y1881500D03*
X1980000Y1885000D03*
X2008400Y1879100D03*
X2018000Y1891000D03*
X2035500Y1895500D03*
X2043500Y1887000D03*
X1916500Y1914000D03*
X1992000Y1902000D03*
X1987500Y1912000D03*
X2029500Y1900500D03*
X1921500Y1919000D03*
X1945524Y1934434D03*
X1973400Y1931000D03*
X1970500Y1933196D03*
X1967731Y1930229D03*
X1973000Y1920000D03*
X1959000Y1920500D03*
X1976000Y1934000D03*
X1991500Y1935000D03*
X1983348Y1931397D03*
X1983928Y1918392D03*
X1992437Y1918495D03*
X2015500Y1929500D03*
X2009500Y1932000D03*
X2033489Y1936142D03*
X2023489D03*
X2043489D03*
X2064500Y1929500D03*
X1944741Y1940045D03*
X1943612Y1946390D03*
X1948500Y1952723D03*
X1960612Y1940922D03*
X1960441Y1945607D03*
X1969100Y1939600D03*
X1958500Y1954500D03*
X2003508Y1952492D03*
X2011000Y1948500D03*
X2014000Y1946000D03*
X2006607Y1941400D03*
X2003500Y1936936D03*
X2029753Y1941542D03*
X2041500Y1944500D03*
X2047342Y1955370D03*
Y1945370D03*
X2039418Y1941208D03*
X2041942Y1951299D03*
X1931500Y1967500D03*
X1947500Y1960500D03*
X1948500Y1956500D03*
X1975296Y1975204D03*
X1958500Y1960015D03*
Y1963815D03*
X1984925Y1962385D03*
X1978500Y1965000D03*
X1989000Y1975500D03*
X2003500Y1960500D03*
X2016500Y1958500D03*
X2027000Y1959000D03*
X2021500Y1964000D03*
X2047342Y1975370D03*
Y1965370D03*
X2041942Y1961299D03*
Y1971299D03*
X1921500Y1977500D03*
X1973000Y1978000D03*
X1981696Y1977600D03*
X1990000Y1985000D03*
X1983500D03*
X1986662Y1981091D03*
X2006500Y1978500D03*
X2047342Y1995370D03*
Y1985370D03*
X2041942Y1981299D03*
Y1991299D03*
X2078500Y1991000D03*
X2047342Y2015370D03*
Y2005370D03*
X2041942Y2001299D03*
Y2011299D03*
X1974504Y2027604D03*
X2035000Y2024500D03*
X2035689Y2031329D03*
X2031571Y2027810D03*
X2040000Y2017500D03*
X2042760Y2024258D03*
X2038254Y2021128D03*
X1972054Y2039154D03*
X1979200Y2048484D03*
X2023000Y2051000D03*
X2025296Y2048204D03*
X2030000Y2053500D03*
X2035600Y2051329D03*
Y2041329D03*
X2030200Y2037716D03*
X2030496Y2047716D03*
X2037500Y2055500D03*
Y2045500D03*
X1945000Y2069000D03*
X1960100Y2065000D03*
X1982000Y2069000D03*
X2012500Y2066500D03*
X2030000Y2074500D03*
X2035600Y2071329D03*
Y2061329D03*
X2030200Y2057716D03*
Y2067716D03*
X1961500Y2085000D03*
X2018500Y2086500D03*
X2027500Y2095500D03*
X2035600Y2091329D03*
Y2081329D03*
X2030200Y2078300D03*
Y2087716D03*
X2041500Y2093000D03*
X1962000Y2109500D03*
X2035600Y2111329D03*
Y2101329D03*
X2030429Y2097945D03*
X2030200Y2107716D03*
X2044000Y2107000D03*
X2064500Y2111500D03*
X1956000Y2121000D03*
X1942000Y2117000D03*
X1969500D03*
X2035600Y2131329D03*
Y2121329D03*
X2030200Y2117716D03*
Y2127716D03*
X2046000Y2123000D03*
X1961500Y2154500D03*
X1981790Y2147210D03*
X1987000Y2144500D03*
X2006500Y2142000D03*
X2001000Y2137000D03*
X2035600Y2151329D03*
X2036285Y2142014D03*
X2030200Y2137716D03*
Y2147716D03*
X2045652Y2152630D03*
X2075553Y2152300D03*
X2065553D03*
X2059435D03*
X1968700Y2166000D03*
X1981500Y2157000D03*
X1986222Y2167722D03*
X2004705Y2164795D03*
X2008194Y2168285D03*
X2001500Y2159000D03*
X2019976Y2176188D03*
X2023290Y2173111D03*
X2032210Y2157512D03*
X2043085Y2157700D03*
X2052208D03*
X2062208D03*
X2072208D03*
X1916500Y2180500D03*
X1939000Y2189000D03*
X1975121Y2180509D03*
X1962500Y2191000D03*
X1958400Y2196000D03*
X1979674Y2179807D03*
X1978000Y2193500D03*
X1992200Y2194000D03*
X1992696Y2177922D03*
X1984100Y2182500D03*
X1986096Y2179404D03*
X1995562Y2183438D03*
X1985000Y2193500D03*
X1996354Y2179638D03*
X2009500Y2183500D03*
X2011500Y2193500D03*
X2023500Y2195500D03*
X2037100Y2180500D03*
X2033500D03*
X2031409Y2183500D03*
X2064500Y2192500D03*
X2082200Y2185125D03*
Y2195125D03*
X1946200Y2209500D03*
X1954150Y2208950D03*
X1948700Y2214531D03*
X1939000Y2208500D03*
X1970500Y2215500D03*
X1969212Y2198288D03*
X1959000Y2212000D03*
X1992400Y2197800D03*
X2008500Y2205500D03*
X2033500Y2200500D03*
X2043500Y2208000D03*
X2040500Y2202000D03*
X2053500Y2212000D03*
X2043500Y2214000D03*
X2071500Y2215000D03*
X2061500Y2208500D03*
X2082200Y2205125D03*
X2081026Y2215055D03*
X1931500Y2222500D03*
X1939000Y2220000D03*
X1941500Y2217000D03*
X1952000Y2227500D03*
X1975500Y2217000D03*
X1958400Y2233500D03*
X1972874Y2230954D03*
X1969164Y2235164D03*
X2053500Y2217500D03*
X2038000Y2233500D03*
X2053500Y2235500D03*
X2064500Y2227000D03*
X2065500Y2233000D03*
X1957000Y2241500D03*
X1954356Y2238790D03*
X1937500Y2254000D03*
X1957200Y2247000D03*
X1969204Y2248296D03*
X1969164Y2240764D03*
X1972490Y2244510D03*
X1969800Y2253296D03*
X1983000Y2244000D03*
X1977600Y2255000D03*
X1981500Y2251500D03*
X1916500Y2260000D03*
X1943000Y2269500D03*
X1957200Y2263000D03*
X1966600Y2269691D03*
X1995500Y2267500D03*
X2026000Y2264500D03*
X2053500Y2263000D03*
X2043500Y2264000D03*
X2065500Y2267500D03*
X1977296Y2292204D03*
X1975400Y2295400D03*
X1983112Y2277500D03*
X1993200Y2278700D03*
X1996500Y2290000D03*
X1990500Y2286500D03*
X1977512Y2278012D03*
X2016374Y2277500D03*
X1999752D03*
X2013000Y2279500D03*
X2018000Y2287500D03*
X2021296Y2285704D03*
X2025000Y2277500D03*
X1902500Y2301000D03*
X1930000Y2300500D03*
X1951400Y2305500D03*
X1962000Y2303000D03*
X1954500Y2336000D03*
X1969628Y2331872D03*
X1975500Y2324000D03*
X2005000Y2331000D03*
X1976302Y2338198D03*
X1967500Y2348000D03*
X1996000Y2350500D03*
X2086000Y2354500D03*
X1957000Y2364500D03*
Y2358000D03*
X1973500Y2356500D03*
X1962500Y2362500D03*
X1977000Y2374500D03*
X1985500Y2358500D03*
X2038000Y2366000D03*
X2061500Y2357000D03*
X2088500Y2369500D03*
X1972000Y2393000D03*
X2001000Y2385500D03*
X2020500Y2383500D03*
X2041500Y2395500D03*
X2076000Y2386500D03*
X1994500Y2415000D03*
X1907000Y2430000D03*
X2051500Y2425000D03*
X2020500Y2443500D03*
G54D54*
X2068800Y1884900D03*
X2063800D03*
X2068800Y1889900D03*
X2063800D03*
X2068800Y1894900D03*
X2063800D03*
X2068800Y1899900D03*
X2063800D03*
X2068800Y1904900D03*
X2063800D03*
X0Y0D02*
M02*
