M48
;FILE_FORMAT=2:4
INCH,LZ
FMAT,2
ICI,OFF
;TYPE=PLATED
T1C.01
T2C.028
T3C.035
T4C.037
T5C.1875
%
M72
G90
G93X0Y0
T1C.01F0S0
X19535Y1876
X19605Y18735
X1964Y1878
X19665Y18545
X19705Y18545
X19765Y18545
X19825Y18545
X1986Y185637
X199Y18545
X2002Y18545
X20084Y18791
X2015Y18694
X20175Y18545
X20215Y1865
X2024Y1857
X20375Y18545
X20855Y1875
X20885Y18725
X20435Y1887
X20355Y18955
X20295Y19005
X2018Y1891
X1992Y1902
X198Y1885
X19715Y18925
X1959Y18815
X19165Y1914
X19215Y1919
X194361Y194639
X194474Y194005
X194552Y193443
X19485Y195272
X1959Y19205
X196044Y194561
X196061Y194092
X196773Y193023
X19691Y19396
X19705Y19332
X1973Y192
X19734Y1931
X1976Y1934
X198335Y19314
X198393Y191839
X19875Y1912
X19915Y1935
X199244Y191849
X20035Y193694
X200351Y195249
X200661Y19414
X20095Y1932
X2011Y19485
X2014Y1946
X20155Y19295
X202349Y193614
X202975Y194154
X203349Y193614
X203942Y194121
X20415Y19445
X204194Y19513
X204349Y193614
X204734Y194537
X20645Y19295
X204734Y195537
X204734Y197537
X204734Y196537
X204194Y19613
X204194Y19713
X2027Y1959
X20215Y1964
X20165Y19585
X20065Y19785
X20035Y19605
X1989Y19755
X198493Y196239
X19817Y19776
X19785Y1965
X19753Y19752
X1973Y1978
X19585Y19545
X19585Y196382
X19585Y196002
X19485Y19565
X19475Y19605
X19315Y19675
X19215Y19775
X19835Y1985
X198666Y198109
X199Y1985
X204194Y19813
X204194Y19913
X204194Y20013
X204734Y198537
X204734Y199537
X20785Y1991
X204734Y200537
X204734Y201537
X204276Y202426
X204194Y20113
X204Y20175
X203825Y202113
X2035Y20245
X203157Y202781
X19745Y20276
X197205Y203915
X19792Y204848
X2023Y2051
X20253Y20482
X203Y20535
X20302Y203772
X20305Y204772
X20356Y204133
X20356Y205133
X203569Y203133
X20375Y20455
X20375Y20555
X20356Y207133
X20356Y206133
X20302Y205772
X20302Y206772
X20302Y20783
X203Y20745
X20125Y20665
X1982Y2069
X19601Y2065
X1945Y2069
X19615Y2085
X20185Y20865
X20275Y20955
X20302Y208772
X203043Y209794
X20356Y208133
X20356Y210133
X20356Y209133
X20415Y2093
X20645Y21115
X2046Y2123
X2044Y2107
X20356Y212133
X20356Y211133
X20302Y210772
X20302Y211772
X20302Y212772
X19695Y2117
X1962Y21095
X1956Y2121
X1942Y2117
X198179Y214721
X1987Y21445
X2001Y2137
X20065Y2142
X20302Y213772
X20302Y214772
X20356Y213133
X20356Y215133
X203628Y214201
X204565Y215263
X205944Y21523
X206555Y21523
X207555Y21523
X207221Y21577
X206221Y21577
X205221Y21577
X204308Y21577
X203221Y215751
X202329Y217311
X201998Y217619
X200819Y216829
X20047Y21648
X20015Y2159
X19927Y217792
X198622Y216772
X19861Y21794
X19815Y2157
X19687Y2166
X19615Y21545
X19165Y21805
X1939Y2189
X19584Y2196
X19625Y2191
X196921Y219829
X197512Y218051
X1978Y21935
X197967Y217981
X19841Y21825
X1985Y21935
X19922Y2194
X19924Y21978
X199556Y218344
X199635Y217964
X20095Y21835
X20115Y21935
X20235Y21955
X203141Y21835
X20335Y21805
X20335Y22005
X20371Y21805
X20405Y2202
X20645Y21925
X20822Y218512
X20822Y219512
X20822Y220512
X208103Y221506
X20715Y2215
X20645Y2227
X20615Y22085
X20535Y2212
X20535Y22175
X20435Y2214
X20435Y2208
X20085Y22055
X19755Y2217
X19705Y22155
X1959Y2212
X195415Y220895
X1952Y22275
X19487Y221453
X19462Y22095
X19415Y2217
X1939Y22085
X1939Y222
X19315Y22225
X19375Y2254
X195436Y223879
X1957Y22415
X19572Y2247
X19584Y22335
X196916Y223516
X196916Y224076
X19692Y22483
X19698Y22533
X197249Y224451
X197287Y223095
X19815Y22515
X1983Y2244
X2038Y22335
X20535Y22355
X20655Y2233
X20655Y22675
X20535Y2263
X20435Y2264
X2026Y22645
X2025Y22775
X201637Y22775
X199975Y22775
X19955Y22675
X19932Y22787
X198311Y22775
X19776Y2255
X197751Y227801
X19666Y226969
X19572Y2263
X1943Y22695
X19165Y226
X19025Y2301
X193Y23005
X1962Y2303
X19754Y22954
X19773Y22922
X19905Y22865
X19965Y229
X2013Y22795
X2018Y22875
X20213Y22857
X2005Y2331
X1996Y23505
X19763Y23382
X19755Y2324
X196963Y233187
X19675Y2348
X19545Y2336
X19514Y23055
X1957Y23645
X1957Y2358
X19625Y23625
X19735Y23565
X1977Y23745
X19855Y23585
X2038Y2366
X20615Y2357
X2086Y23545
X20885Y23695
X2076Y23865
X20515Y2425
X20415Y23955
X20205Y23835
X2001Y23855
X19945Y2415
X1972Y2393
X1907Y243
X20205Y24435
T2C.028F0S0
X20638Y18849
X20638Y18899
X20638Y18949
X20638Y18999
X20688Y18949
X20688Y18899
X20688Y18999
X20688Y18849
X20688Y19049
X20638Y19049
T3C.035F0S0
X19094Y18951
X19094Y18851
X19094Y19251
X19094Y19151
X19094Y19051
X20757Y193761
X20757Y19632
X205798Y193761
X205798Y19632
X19094Y19751
X19094Y19651
X19094Y19551
X19094Y19451
X19094Y19351
X19094Y19951
X19094Y19851
X19094Y20251
X19094Y20151
X19094Y20051
X20578Y19867
X20578Y201229
X207552Y19867
X207552Y201229
X20814Y20355
X20814Y20455
X20514Y20455
X20514Y20355
X19913Y20333
X19913Y20533
X19913Y20433
X1977Y20334
X1977Y20534
X1977Y20434
X19094Y20451
X19094Y20351
X19094Y20751
X19094Y20651
X19094Y20551
X1977Y20734
X1977Y20634
X19913Y20733
X19913Y20633
X20514Y20755
X20514Y20655
X20514Y20555
X20814Y20655
X20814Y20755
X20814Y20555
X20814Y20855
X20814Y20955
X20514Y20955
X20514Y20855
X19913Y20833
X19913Y21033
X19913Y20933
X1977Y21034
X1977Y20834
X1977Y20934
X19094Y20851
X19094Y20951
X19094Y21251
X19094Y21151
X19094Y21051
X1977Y21134
X1977Y21234
X19913Y21233
X19913Y21133
X20514Y21155
X20514Y21055
X20514Y21255
X20814Y21255
X20814Y21155
X20814Y21055
X20776Y21407
X20676Y21407
X20576Y21407
X20476Y21407
X19491Y21371
X19491Y21471
X19094Y21351
X19094Y21451
X19094Y21751
X19094Y21651
X19094Y21551
X19491Y21671
X19491Y21571
X19491Y21771
X20476Y21707
X20576Y21707
X20676Y21707
X20776Y21707
X19094Y21851
X19094Y21951
X19094Y22151
X19094Y22051
X19094Y22251
X19094Y22451
X19094Y22351
X19094Y22751
X19094Y22651
X19094Y22551
X19094Y22951
X19094Y22851
X19094Y23251
X19094Y23151
X19094Y23051
X19094Y23451
X19094Y23351
X19094Y23551
X19094Y23751
X19094Y23651
X19783Y23797
X19783Y239742
X195271Y23797
X195271Y239742
X19094Y23951
X19094Y23851
X19094Y24151
X19094Y24051
X19094Y24251
X19094Y24451
X19094Y24351
X19094Y24551
T4C.037F0S0
X20274Y19164
X20274Y19664
X20658Y22999
X20558Y22999
X20558Y23199
X20558Y23099
X20558Y23399
X20558Y23299
X20658Y23399
X20658Y23099
X20658Y23299
X20658Y23199
T5C.1875F0S0
X20064Y22305
M30
