*
*
G04 PADS VX.2.1 Build Number: 6554490 generated Gerber (RS-274-X) file*
G04 PC Version=2.1*
*
%IN "uMuddMarkVLayout_3.pcb"*%
*
%MOIN*%
*
%FSLAX35Y35*%
*
*
*
*
G04 PC Standard Apertures*
*
*
G04 Thermal Relief Aperture macro.*
%AMTER*
1,1,$1,0,0*
1,0,$1-$2,0,0*
21,0,$3,$4,0,0,45*
21,0,$3,$4,0,0,135*
%
*
*
G04 Annular Aperture macro.*
%AMANN*
1,1,$1,0,0*
1,0,$2,0,0*
%
*
*
G04 Odd Aperture macro.*
%AMODD*
1,1,$1,0,0*
1,0,$1-0.005,0,0*
%
*
*
G04 PC Custom Aperture Macros*
*
*
*
*
*
*
G04 PC Aperture Table*
*
%ADD010C,0.001*%
%ADD014C,0.06*%
%ADD027C,0.01*%
%ADD028C,0.03*%
%ADD029C,0.015*%
%ADD054C,0.042*%
*
*
*
*
G04 PC Circuitry*
G04 Layer Name uMuddMarkVLayout_3.pcb - circuitry*
%LPD*%
*
*
G04 PC Custom Flashes*
G04 Layer Name uMuddMarkVLayout_3.pcb - flashes*
%LPD*%
*
*
G04 PC Circuitry*
G04 Layer Name uMuddMarkVLayout_3.pcb - circuitry*
%LPD*%
*
G54D10*
G54D14*
G01X1977000Y2123400D03*
X2077600Y2170700D03*
X2067600D03*
X2057600D03*
X2047600D03*
G54D27*
X2079800Y1937609D02*
G75*
G03X2079800I-4100J0D01*
G01Y1963200D02*
G03X2079800I-4100J0D01*
G01X2079617Y2012291D02*
G03X2079617I-4100J0D01*
G01X2085500Y2035500D02*
G03X2085500I-4100J0D01*
G01Y2045500D02*
G03X2085500I-4100J0D01*
G01Y2055500D02*
G03X2085500I-4100J0D01*
G01Y2065500D02*
G03X2085500I-4100J0D01*
G01Y2075500D02*
G03X2085500I-4100J0D01*
G01Y2085500D02*
G03X2085500I-4100J0D01*
G01Y2095500D02*
G03X2085500I-4100J0D01*
G01Y2105500D02*
G03X2085500I-4100J0D01*
G01Y2115500D02*
G03X2085500I-4100J0D01*
G01Y2125500D02*
G03X2085500I-4100J0D01*
G01X2081700Y2140700D02*
G03X2081700I-4100J0D01*
G01X2078153Y2152300D02*
G03X2078153I-2600J0D01*
G01X2067100Y1929500D02*
G03X2067100I-2600J0D01*
G01X2062083Y1937609D02*
G03X2062083I-4100J0D01*
G01Y1963200D02*
G03X2062083I-4100J0D01*
G01X2061900Y1986700D02*
G03X2061900I-4100J0D01*
G01Y2012291D02*
G03X2061900I-4100J0D01*
G01X2067100Y2111500D02*
G03X2067100I-2600J0D01*
G01X2071700Y2140700D02*
G03X2071700I-4100J0D01*
G01X2074808Y2157700D02*
G03X2074808I-2600J0D01*
G01X2081700Y2170700D02*
G03X2081700I-4100J0D01*
G01X2084800Y2185125D02*
G03X2084800I-2600J0D01*
G01Y2195125D02*
G03X2084800I-2600J0D01*
G01Y2205125D02*
G03X2084800I-2600J0D01*
G01X2083626Y2215055D02*
G03X2083626I-2600J0D01*
G01X2068153Y2152300D02*
G03X2068153I-2600J0D01*
G01X2046100Y1887000D02*
G03X2046100I-2600J0D01*
G01X2046089Y1936142D02*
G03X2046089I-2600J0D01*
G01X2049942Y1945370D02*
G03X2049942I-2600J0D01*
G01Y1955370D02*
G03X2049942I-2600J0D01*
G01Y1965370D02*
G03X2049942I-2600J0D01*
G01Y1975370D02*
G03X2049942I-2600J0D01*
G01Y1985370D02*
G03X2049942I-2600J0D01*
G01Y1995370D02*
G03X2049942I-2600J0D01*
G01Y2005370D02*
G03X2049942I-2600J0D01*
G01Y2015370D02*
G03X2049942I-2600J0D01*
G01X2055500Y2035500D02*
G03X2055500I-4100J0D01*
G01Y2045500D02*
G03X2055500I-4100J0D01*
G01Y2055500D02*
G03X2055500I-4100J0D01*
G01Y2065500D02*
G03X2055500I-4100J0D01*
G01Y2075500D02*
G03X2055500I-4100J0D01*
G01Y2085500D02*
G03X2055500I-4100J0D01*
G01Y2095500D02*
G03X2055500I-4100J0D01*
G01Y2105500D02*
G03X2055500I-4100J0D01*
G01Y2115500D02*
G03X2055500I-4100J0D01*
G01X2038100Y1895500D02*
G03X2038100I-2600J0D01*
G01X2044542Y1951299D02*
G03X2044542I-2600J0D01*
G01Y1961299D02*
G03X2044542I-2600J0D01*
G01Y1971299D02*
G03X2044542I-2600J0D01*
G01Y1981299D02*
G03X2044542I-2600J0D01*
G01Y1991299D02*
G03X2044542I-2600J0D01*
G01Y2001299D02*
G03X2044542I-2600J0D01*
G01Y2011299D02*
G03X2044542I-2600J0D01*
G01X2045360Y2024258D02*
G03X2045360I-2600J0D01*
G01X2032100Y1900500D02*
G03X2032100I-2600J0D01*
G01X2026600Y1857000D02*
G03X2026600I-2600J0D01*
G01X2024100Y1865000D02*
G03X2024100I-2600J0D01*
G01X2031500Y1916400D02*
G03X2031500I-4100J0D01*
G01X2036089Y1936142D02*
G03X2036089I-2600J0D01*
G01X2038289Y2031329D02*
G03X2038289I-2600J0D01*
G01X2032353Y1941542D02*
G03X2032353I-2600J0D01*
G01X2026089Y1936142D02*
G03X2026089I-2600J0D01*
G01X2029600Y1959000D02*
G03X2029600I-2600J0D01*
G01X2017600Y1869400D02*
G03X2017600I-2600J0D01*
G01X2020600Y1891000D02*
G03X2020600I-2600J0D01*
G01X2018100Y1929500D02*
G03X2018100I-2600J0D01*
G01X2011000Y1879100D02*
G03X2011000I-2600J0D01*
G01X2012100Y1932000D02*
G03X2012100I-2600J0D01*
G01X2006100Y1936936D02*
G03X2006100I-2600J0D01*
G01X2009207Y1941400D02*
G03X2009207I-2600J0D01*
G01X2019100Y1958500D02*
G03X2019100I-2600J0D01*
G01X2032800Y2037716D02*
G03X2032800I-2600J0D01*
G01X2033096Y2047716D02*
G03X2033096I-2600J0D01*
G01X2044100Y2093000D02*
G03X2044100I-2600J0D01*
G01X2046600Y2107000D02*
G03X2046600I-2600J0D01*
G01X2061700Y2140700D02*
G03X2061700I-4100J0D01*
G01X2062035Y2152300D02*
G03X2062035I-2600J0D01*
G01X2064808Y2157700D02*
G03X2064808I-2600J0D01*
G01X2071700Y2170700D02*
G03X2071700I-4100J0D01*
G01X2074100Y2215000D02*
G03X2074100I-2600J0D01*
G01X2078600Y2386500D02*
G03X2078600I-2600J0D01*
G01X2067100Y2192500D02*
G03X2067100I-2600J0D01*
G01X2051700Y2140700D02*
G03X2051700I-4100J0D01*
G01X2054808Y2157700D02*
G03X2054808I-2600J0D01*
G01X2061700Y2170700D02*
G03X2061700I-4100J0D01*
G01X2064100Y2208500D02*
G03X2064100I-2600J0D01*
G01X2067100Y2227000D02*
G03X2067100I-2600J0D01*
G01X2068100Y2233000D02*
G03X2068100I-2600J0D01*
G01Y2267500D02*
G03X2068100I-2600J0D01*
G01X2069900Y2309900D02*
G03X2069900I-4100J0D01*
G01Y2319900D02*
G03X2069900I-4100J0D01*
G01Y2329900D02*
G03X2069900I-4100J0D01*
G01Y2339900D02*
G03X2069900I-4100J0D01*
G01X2048252Y2152630D02*
G03X2048252I-2600J0D01*
G01X2045685Y2157700D02*
G03X2045685I-2600J0D01*
G01X2051700Y2170700D02*
G03X2051700I-4100J0D01*
G01X2056100Y2212000D02*
G03X2056100I-2600J0D01*
G01Y2217500D02*
G03X2056100I-2600J0D01*
G01Y2235500D02*
G03X2056100I-2600J0D01*
G01Y2263000D02*
G03X2056100I-2600J0D01*
G01X2059900Y2299900D02*
G03X2059900I-4100J0D01*
G01Y2309900D02*
G03X2059900I-4100J0D01*
G01Y2319900D02*
G03X2059900I-4100J0D01*
G01Y2329900D02*
G03X2059900I-4100J0D01*
G01Y2339900D02*
G03X2059900I-4100J0D01*
G01X2064100Y2357000D02*
G03X2064100I-2600J0D01*
G01X2054100Y2425000D02*
G03X2054100I-2600J0D01*
G01X2038200Y2061329D02*
G03X2038200I-2600J0D01*
G01Y2071329D02*
G03X2038200I-2600J0D01*
G01Y2081329D02*
G03X2038200I-2600J0D01*
G01Y2091329D02*
G03X2038200I-2600J0D01*
G01X2032800Y2067716D02*
G03X2032800I-2600J0D01*
G01Y2087716D02*
G03X2032800I-2600J0D01*
G01X2038200Y2101329D02*
G03X2038200I-2600J0D01*
G01Y2111329D02*
G03X2038200I-2600J0D01*
G01Y2121329D02*
G03X2038200I-2600J0D01*
G01Y2131329D02*
G03X2038200I-2600J0D01*
G01X2038885Y2142014D02*
G03X2038885I-2600J0D01*
G01X2038200Y2151329D02*
G03X2038200I-2600J0D01*
G01X2032800Y2107716D02*
G03X2032800I-2600J0D01*
G01Y2117716D02*
G03X2032800I-2600J0D01*
G01Y2127716D02*
G03X2032800I-2600J0D01*
G01Y2137716D02*
G03X2032800I-2600J0D01*
G01Y2147716D02*
G03X2032800I-2600J0D01*
G01X2034810Y2157512D02*
G03X2034810I-2600J0D01*
G01X2043100Y2202000D02*
G03X2043100I-2600J0D01*
G01X2046100Y2208000D02*
G03X2046100I-2600J0D01*
G01Y2214000D02*
G03X2046100I-2600J0D01*
G01Y2264000D02*
G03X2046100I-2600J0D01*
G01X2036100Y2200500D02*
G03X2036100I-2600J0D01*
G01X2040600Y2233500D02*
G03X2040600I-2600J0D01*
G01Y2366000D02*
G03X2040600I-2600J0D01*
G01X2044100Y2395500D02*
G03X2044100I-2600J0D01*
G01X2021100Y2086500D02*
G03X2021100I-2600J0D01*
G01X2026100Y2195500D02*
G03X2026100I-2600J0D01*
G01X2028600Y2264500D02*
G03X2028600I-2600J0D01*
G01X2027600Y2277500D02*
G03X2027600I-2600J0D01*
G01X2015100Y2066500D02*
G03X2015100I-2600J0D01*
G01X2006108Y1952492D02*
G03X2006108I-2600J0D01*
G01X2006100Y1960500D02*
G03X2006100I-2600J0D01*
G01X2009100Y1978500D02*
G03X2009100I-2600J0D01*
G01Y2142000D02*
G03X2009100I-2600J0D01*
G01X2003600Y2137000D02*
G03X2003600I-2600J0D01*
G01X2004100Y2159000D02*
G03X2004100I-2600J0D01*
G01X2012100Y2183500D02*
G03X2012100I-2600J0D01*
G01X2014100Y2193500D02*
G03X2014100I-2600J0D01*
G01X2011100Y2205500D02*
G03X2011100I-2600J0D01*
G01X1994600Y1902000D02*
G03X1994600I-2600J0D01*
G01X1990100Y1912000D02*
G03X1990100I-2600J0D01*
G01X1995037Y1918495D02*
G03X1995037I-2600J0D01*
G01X1994100Y1935000D02*
G03X1994100I-2600J0D01*
G01X1979100Y1854500D02*
G03X1979100I-2600J0D01*
G01X1982600Y1885000D02*
G03X1982600I-2600J0D01*
G01X1986528Y1918392D02*
G03X1986528I-2600J0D01*
G01X1985948Y1931397D02*
G03X1985948I-2600J0D01*
G01X1987525Y1962385D02*
G03X1987525I-2600J0D01*
G01X1991600Y1975500D02*
G03X1991600I-2600J0D01*
G01X1974100Y1892500D02*
G03X1974100I-2600J0D01*
G01X1975600Y1920000D02*
G03X1975600I-2600J0D01*
G01X1966600Y1878000D02*
G03X1966600I-2600J0D01*
G01X1981100Y1965000D02*
G03X1981100I-2600J0D01*
G01X1984296Y1977600D02*
G03X1984296I-2600J0D01*
G01X1995400Y2033300D02*
G03X1995400I-4100J0D01*
G01Y2043300D02*
G03X1995400I-4100J0D01*
G01Y2053300D02*
G03X1995400I-4100J0D01*
G01Y2063300D02*
G03X1995400I-4100J0D01*
G01Y2073300D02*
G03X1995400I-4100J0D01*
G01Y2083300D02*
G03X1995400I-4100J0D01*
G01Y2093300D02*
G03X1995400I-4100J0D01*
G01Y2103300D02*
G03X1995400I-4100J0D01*
G01Y2113300D02*
G03X1995400I-4100J0D01*
G01Y2123300D02*
G03X1995400I-4100J0D01*
G01X1971700Y1939600D02*
G03X1971700I-2600J0D01*
G01X1981100Y2063400D02*
G03X1981100I-4100J0D01*
G01X1989600Y2144500D02*
G03X1989600I-2600J0D01*
G01X2020000Y2230500D02*
G03X2020000I-13600J0D01*
G01X2023100Y2383500D02*
G03X2023100I-2600J0D01*
G01Y2443500D02*
G03X2023100I-2600J0D01*
G01X2007600Y2331000D02*
G03X2007600I-2600J0D01*
G01X1998100Y2267500D02*
G03X1998100I-2600J0D01*
G01X2002352Y2277500D02*
G03X2002352I-2600J0D01*
G01X1995800Y2278700D02*
G03X1995800I-2600J0D01*
G01X1999100Y2290000D02*
G03X1999100I-2600J0D01*
G01X1998600Y2350500D02*
G03X1998600I-2600J0D01*
G01X2003600Y2385500D02*
G03X2003600I-2600J0D01*
G01X1981100Y2083400D02*
G03X1981100I-4100J0D01*
G01Y2093400D02*
G03X1981100I-4100J0D01*
G01Y2103400D02*
G03X1981100I-4100J0D01*
G01Y2113400D02*
G03X1981100I-4100J0D01*
G01Y2123400D02*
G03X1981100I-4100J0D01*
G01X1984390Y2147210D02*
G03X1984390I-2600J0D01*
G01X1984100Y2157000D02*
G03X1984100I-2600J0D01*
G01X1988822Y2167722D02*
G03X1988822I-2600J0D01*
G01X1993100Y2286500D02*
G03X1993100I-2600J0D01*
G01X1997100Y2415000D02*
G03X1997100I-2600J0D01*
G01X1987600Y2193500D02*
G03X1987600I-2600J0D01*
G01X1980600D02*
G03X1980600I-2600J0D01*
G01X1985600Y2244000D02*
G03X1985600I-2600J0D01*
G01X1984100Y2251500D02*
G03X1984100I-2600J0D01*
G01X1985712Y2277500D02*
G03X1985712I-2600J0D01*
G01X1988100Y2358500D02*
G03X1988100I-2600J0D01*
G01X1972100Y2117000D02*
G03X1972100I-2600J0D01*
G01X1971300Y2166000D02*
G03X1971300I-2600J0D01*
G01X1971812Y2198288D02*
G03X1971812I-2600J0D01*
G01X1973100Y2215500D02*
G03X1973100I-2600J0D01*
G01X1978100Y2217000D02*
G03X1978100I-2600J0D01*
G01X1975474Y2230954D02*
G03X1975474I-2600J0D01*
G01X1971764Y2235164D02*
G03X1971764I-2600J0D01*
G01X1980200Y2255000D02*
G03X1980200I-2600J0D01*
G01X1980112Y2278012D02*
G03X1980112I-2600J0D01*
G01X1978100Y2324000D02*
G03X1978100I-2600J0D01*
G01X1978902Y2338198D02*
G03X1978902I-2600J0D01*
G01X1961600Y1881500D02*
G03X1961600I-2600J0D01*
G01Y1920500D02*
G03X1961600I-2600J0D01*
G01X1956100Y1876000D02*
G03X1956100I-2600J0D01*
G01X1961100Y1954500D02*
G03X1961100I-2600J0D01*
G01X1962700Y2065000D02*
G03X1962700I-2600J0D01*
G01X1964100Y2085000D02*
G03X1964100I-2600J0D01*
G01X1964600Y2109500D02*
G03X1964600I-2600J0D01*
G01X1964100Y2154500D02*
G03X1964100I-2600J0D01*
G01X1965100Y2191000D02*
G03X1965100I-2600J0D01*
G01X1969200Y2269691D02*
G03X1969200I-2600J0D01*
G01X1972228Y2331872D02*
G03X1972228I-2600J0D01*
G01X1976100Y2356500D02*
G03X1976100I-2600J0D01*
G01X1970100Y2348000D02*
G03X1970100I-2600J0D01*
G01X1974600Y2393000D02*
G03X1974600I-2600J0D01*
G01X1982400Y2397417D02*
G03X1982400I-4100J0D01*
G01X1958600Y2121000D02*
G03X1958600I-2600J0D01*
G01X1961000Y2196000D02*
G03X1961000I-2600J0D01*
G01X1948124Y1934434D02*
G03X1948124I-2600J0D01*
G01X1947341Y1940045D02*
G03X1947341I-2600J0D01*
G01X1946212Y1946390D02*
G03X1946212I-2600J0D01*
G01X1947600Y2069000D02*
G03X1947600I-2600J0D01*
G01X1953200Y2137100D02*
G03X1953200I-4100J0D01*
G01Y2147100D02*
G03X1953200I-4100J0D01*
G01Y2157100D02*
G03X1953200I-4100J0D01*
G01Y2167100D02*
G03X1953200I-4100J0D01*
G01Y2177100D02*
G03X1953200I-4100J0D01*
G01X1956750Y2208950D02*
G03X1956750I-2600J0D01*
G01X1961600Y2212000D02*
G03X1961600I-2600J0D01*
G01X1961000Y2233500D02*
G03X1961000I-2600J0D01*
G01X1944600Y2117000D02*
G03X1944600I-2600J0D01*
G01X1948800Y2209500D02*
G03X1948800I-2600J0D01*
G01X1951300Y2214531D02*
G03X1951300I-2600J0D01*
G01X1954600Y2227500D02*
G03X1954600I-2600J0D01*
G01X1959800Y2247000D02*
G03X1959800I-2600J0D01*
G01Y2263000D02*
G03X1959800I-2600J0D01*
G01X1964600Y2303000D02*
G03X1964600I-2600J0D01*
G01X1965100Y2362500D02*
G03X1965100I-2600J0D01*
G01X1954000Y2305500D02*
G03X1954000I-2600J0D01*
G01X1957100Y2336000D02*
G03X1957100I-2600J0D01*
G01X1959600Y2358000D02*
G03X1959600I-2600J0D01*
G01Y2364500D02*
G03X1959600I-2600J0D01*
G01X1956809Y2379700D02*
G03X1956809I-4100J0D01*
G01Y2397417D02*
G03X1956809I-4100J0D01*
G01X1941600Y2189000D02*
G03X1941600I-2600J0D01*
G01Y2208500D02*
G03X1941600I-2600J0D01*
G01X1945600Y2269500D02*
G03X1945600I-2600J0D01*
G01X1940100Y2254000D02*
G03X1940100I-2600J0D01*
G01X1934100Y1967500D02*
G03X1934100I-2600J0D01*
G01Y2222500D02*
G03X1934100I-2600J0D01*
G01X1932600Y2300500D02*
G03X1932600I-2600J0D01*
G01X1919100Y1914000D02*
G03X1919100I-2600J0D01*
G01X1924100Y1919000D02*
G03X1924100I-2600J0D01*
G01Y1977500D02*
G03X1924100I-2600J0D01*
G01X1919100Y2180500D02*
G03X1919100I-2600J0D01*
G01Y2260000D02*
G03X1919100I-2600J0D01*
G01X1913500Y1885100D02*
G03X1913500I-4100J0D01*
G01Y1895100D02*
G03X1913500I-4100J0D01*
G01Y1905100D02*
G03X1913500I-4100J0D01*
G01Y1915100D02*
G03X1913500I-4100J0D01*
G01Y1925100D02*
G03X1913500I-4100J0D01*
G01Y1935100D02*
G03X1913500I-4100J0D01*
G01Y1945100D02*
G03X1913500I-4100J0D01*
G01Y1955100D02*
G03X1913500I-4100J0D01*
G01Y1965100D02*
G03X1913500I-4100J0D01*
G01Y1975100D02*
G03X1913500I-4100J0D01*
G01Y1985100D02*
G03X1913500I-4100J0D01*
G01Y1995100D02*
G03X1913500I-4100J0D01*
G01Y2005100D02*
G03X1913500I-4100J0D01*
G01Y2015100D02*
G03X1913500I-4100J0D01*
G01Y2025100D02*
G03X1913500I-4100J0D01*
G01Y2035100D02*
G03X1913500I-4100J0D01*
G01Y2045100D02*
G03X1913500I-4100J0D01*
G01Y2055100D02*
G03X1913500I-4100J0D01*
G01Y2065100D02*
G03X1913500I-4100J0D01*
G01Y2075100D02*
G03X1913500I-4100J0D01*
G01Y2085100D02*
G03X1913500I-4100J0D01*
G01Y2095100D02*
G03X1913500I-4100J0D01*
G01Y2105100D02*
G03X1913500I-4100J0D01*
G01Y2115100D02*
G03X1913500I-4100J0D01*
G01Y2125100D02*
G03X1913500I-4100J0D01*
G01Y2135100D02*
G03X1913500I-4100J0D01*
G01Y2145100D02*
G03X1913500I-4100J0D01*
G01Y2155100D02*
G03X1913500I-4100J0D01*
G01Y2165100D02*
G03X1913500I-4100J0D01*
G01Y2175100D02*
G03X1913500I-4100J0D01*
G01Y2185100D02*
G03X1913500I-4100J0D01*
G01Y2195100D02*
G03X1913500I-4100J0D01*
G01Y2205100D02*
G03X1913500I-4100J0D01*
G01Y2215100D02*
G03X1913500I-4100J0D01*
G01Y2225100D02*
G03X1913500I-4100J0D01*
G01Y2235100D02*
G03X1913500I-4100J0D01*
G01Y2245100D02*
G03X1913500I-4100J0D01*
G01Y2255100D02*
G03X1913500I-4100J0D01*
G01Y2265100D02*
G03X1913500I-4100J0D01*
G01Y2275100D02*
G03X1913500I-4100J0D01*
G01Y2285100D02*
G03X1913500I-4100J0D01*
G01Y2295100D02*
G03X1913500I-4100J0D01*
G01Y2305100D02*
G03X1913500I-4100J0D01*
G01Y2315100D02*
G03X1913500I-4100J0D01*
G01Y2325100D02*
G03X1913500I-4100J0D01*
G01Y2335100D02*
G03X1913500I-4100J0D01*
G01Y2345100D02*
G03X1913500I-4100J0D01*
G01Y2355100D02*
G03X1913500I-4100J0D01*
G01Y2365100D02*
G03X1913500I-4100J0D01*
G01Y2375100D02*
G03X1913500I-4100J0D01*
G01Y2385100D02*
G03X1913500I-4100J0D01*
G01Y2395100D02*
G03X1913500I-4100J0D01*
G01Y2405100D02*
G03X1913500I-4100J0D01*
G01Y2415100D02*
G03X1913500I-4100J0D01*
G01Y2445100D02*
G03X1913500I-4100J0D01*
G01Y2455100D02*
G03X1913500I-4100J0D01*
G01X2085901Y1872431D02*
G03X2085902Y1872400I2599J69D01*
G01X2085510D02*
G03X2085901Y1872431I-10J2600D01*
G01X2085510Y1872400D02*
X2085902D01*
X2087800Y2468000D02*
X1902400D01*
Y2468100*
X1901900*
Y2303530*
Y2298470D02*
G03Y2303530I600J2530D01*
G01Y2298470D02*
Y1871900D01*
X1958451*
X1962549D02*
G03X1958451I-2049J1600D01*
G01X1962549D02*
X1962600D01*
Y1832100*
X2000900*
Y1852144*
Y1856856D02*
G03Y1852144I1100J-2356D01*
G01Y1856856D02*
Y1866000D01*
X2015500*
Y1856161*
Y1852839D02*
G03Y1856161I2000J1661D01*
G01Y1852839D02*
Y1832400D01*
X2036400*
Y1852144*
Y1856856D02*
G03Y1852144I1100J-2356D01*
G01Y1856856D02*
Y1872400D01*
X2085490*
X2087800Y1876212D02*
G03X2085490Y1872400I-2300J-1212D01*
G01X2087800Y1876212D02*
Y2352624D01*
Y2356376D02*
G03Y2352624I-1800J-1876D01*
G01Y2356376D02*
Y2366996D01*
Y2372004D02*
G03Y2366996I700J-2504D01*
G01Y2372004D02*
Y2468000D01*
X2066300Y1887902D02*
G03X2066802Y1887400I2500J1998D01*
G01X2065798D02*
G03X2066300Y1887902I-1998J2500D01*
G01Y1886898D02*
G03X2065798Y1887400I-2500J-1998D01*
G01X2066802D02*
G03X2066300Y1886898I1998J-2500D01*
G01X2070798Y1897400D02*
G03Y1902400I-1998J2500D01*
G01Y1892400D02*
G03Y1897400I-1998J2500D01*
G01Y1887400D02*
G03Y1892400I-1998J2500D01*
G01X2066300Y1882902D02*
G03X2070798Y1887400I2500J1998D01*
G01X2061802D02*
G03X2066300Y1882902I1998J-2500D01*
G01X2061802Y1892400D02*
G03Y1887400I1998J-2500D01*
G01Y1897400D02*
G03Y1892400I1998J-2500D01*
G01Y1902400D02*
G03Y1897400I1998J-2500D01*
G01X2066300Y1906898D02*
G03X2061802Y1902400I-2500J-1998D01*
G01X2070798D02*
G03X2066300Y1906898I-1998J2500D01*
G01X2079800Y1937609D02*
G03X2079800I-4100J0D01*
G01Y1963200D02*
G03X2079800I-4100J0D01*
G01X2075909Y1990781D02*
G03X2079202Y1988497I-392J-4081D01*
X2075909Y1990781I-702J2503*
G01X2079617Y2012291D02*
G03X2079617I-4100J0D01*
G01X2085500Y2035500D02*
G03X2085500I-4100J0D01*
G01Y2045500D02*
G03X2085500I-4100J0D01*
G01Y2055500D02*
G03X2085500I-4100J0D01*
G01Y2065500D02*
G03X2085500I-4100J0D01*
G01Y2075500D02*
G03X2085500I-4100J0D01*
G01Y2085500D02*
G03X2085500I-4100J0D01*
G01Y2095500D02*
G03X2085500I-4100J0D01*
G01Y2105500D02*
G03X2085500I-4100J0D01*
G01Y2115500D02*
G03X2085500I-4100J0D01*
G01Y2125500D02*
G03X2085500I-4100J0D01*
G01X2081700Y2140700D02*
G03X2081700I-4100J0D01*
G01X2078153Y2152300D02*
G03X2078153I-2600J0D01*
G01X2067100Y1929500D02*
G03X2067100I-2600J0D01*
G01X2062083Y1937609D02*
G03X2062083I-4100J0D01*
G01Y1963200D02*
G03X2062083I-4100J0D01*
G01X2061900Y1986700D02*
G03X2061900I-4100J0D01*
G01Y2012291D02*
G03X2061900I-4100J0D01*
G01X2067100Y2111500D02*
G03X2067100I-2600J0D01*
G01X2071700Y2140700D02*
G03X2071700I-4100J0D01*
G01X2074808Y2157700D02*
G03X2074808I-2600J0D01*
G01X2081700Y2170700D02*
G03X2081700I-4100J0D01*
G01X2084800Y2185125D02*
G03X2084800I-2600J0D01*
G01Y2195125D02*
G03X2084800I-2600J0D01*
G01Y2205125D02*
G03X2084800I-2600J0D01*
G01X2083626Y2215055D02*
G03X2083626I-2600J0D01*
G01X2068153Y2152300D02*
G03X2068153I-2600J0D01*
G01X2046100Y1887000D02*
G03X2046100I-2600J0D01*
G01X2046089Y1936142D02*
G03X2046089I-2600J0D01*
G01X2049942Y1945370D02*
G03X2049942I-2600J0D01*
G01Y1955370D02*
G03X2049942I-2600J0D01*
G01Y1965370D02*
G03X2049942I-2600J0D01*
G01Y1975370D02*
G03X2049942I-2600J0D01*
G01Y1985370D02*
G03X2049942I-2600J0D01*
G01Y1995370D02*
G03X2049942I-2600J0D01*
G01Y2005370D02*
G03X2049942I-2600J0D01*
G01Y2015370D02*
G03X2049942I-2600J0D01*
G01X2055500Y2035500D02*
G03X2055500I-4100J0D01*
G01Y2045500D02*
G03X2055500I-4100J0D01*
G01Y2055500D02*
G03X2055500I-4100J0D01*
G01Y2065500D02*
G03X2055500I-4100J0D01*
G01Y2075500D02*
G03X2055500I-4100J0D01*
G01Y2085500D02*
G03X2055500I-4100J0D01*
G01Y2095500D02*
G03X2055500I-4100J0D01*
G01Y2105500D02*
G03X2055500I-4100J0D01*
G01Y2115500D02*
G03X2055500I-4100J0D01*
G01X2038100Y1895500D02*
G03X2038100I-2600J0D01*
G01X2039003Y1943774D02*
G03X2041915Y1941933I415J-2566D01*
X2039003Y1943774I-415J2567*
G01X2044542Y1951299D02*
G03X2044542I-2600J0D01*
G01Y1961299D02*
G03X2044542I-2600J0D01*
G01Y1971299D02*
G03X2044542I-2600J0D01*
G01Y1981299D02*
G03X2044542I-2600J0D01*
G01Y1991299D02*
G03X2044542I-2600J0D01*
G01Y2001299D02*
G03X2044542I-2600J0D01*
G01Y2011299D02*
G03X2044542I-2600J0D01*
G01X2035816Y2022031D02*
G03X2037644Y2018600I2438J-903D01*
G01X2032563Y2025407D02*
G03X2035816Y2022031I2437J-907D01*
G01X2034008Y2026903D02*
G03X2032563Y2025407I-2437J907D01*
G01X2037438Y2023597D02*
G03X2034008Y2026903I-2438J903D01*
G01X2040610Y2020028D02*
G03X2037438Y2023597I-2356J1100D01*
G01X2037644Y2018600D02*
G03X2040610Y2020028I2356J-1100D01*
G01X2045360Y2024258D02*
G03X2045360I-2600J0D01*
G01X2032100Y1900500D02*
G03X2032100I-2600J0D01*
G01X2026600Y1857000D02*
G03X2026600I-2600J0D01*
G01X2024100Y1865000D02*
G03X2024100I-2600J0D01*
G01X2031500Y1916400D02*
G03X2031500I-4100J0D01*
G01X2036089Y1936142D02*
G03X2036089I-2600J0D01*
G01X2038289Y2031329D02*
G03X2038289I-2600J0D01*
G01X2035432Y2043924D02*
G03X2037668Y2042905I168J-2595D01*
X2035432Y2043924I-168J2595*
G01X2032353Y1941542D02*
G03X2032353I-2600J0D01*
G01X2026089Y1936142D02*
G03X2026089I-2600J0D01*
G01X2029600Y1959000D02*
G03X2029600I-2600J0D01*
G01X2017600Y1869400D02*
G03X2017600I-2600J0D01*
G01X2020600Y1891000D02*
G03X2020600I-2600J0D01*
G01X2018100Y1929500D02*
G03X2018100I-2600J0D01*
G01X2011000Y1879100D02*
G03X2011000I-2600J0D01*
G01X2012100Y1932000D02*
G03X2012100I-2600J0D01*
G01X2006100Y1936936D02*
G03X2006100I-2600J0D01*
G01X2009207Y1941400D02*
G03X2009207I-2600J0D01*
G01X2013599Y1948569D02*
G03X2011401Y1945931I-2599J-69D01*
X2013599Y1948569I2599J69*
G01X2019100Y1958500D02*
G03X2019100I-2600J0D01*
G01X2023339Y1965838D02*
G03X2024100Y1963967I-1839J-1838D01*
X2023339Y1965838I3300J2433*
G01X2032800Y2037716D02*
G03X2032800I-2600J0D01*
G01X2033096Y2047716D02*
G03X2033096I-2600J0D01*
G01X2035432Y2053924D02*
G03X2037668Y2052905I168J-2595D01*
X2035432Y2053924I-168J2595*
G01X2044100Y2093000D02*
G03X2044100I-2600J0D01*
G01X2046600Y2107000D02*
G03X2046600I-2600J0D01*
G01X2047308Y2125247D02*
G03X2048560Y2122543I-1308J-2247D01*
G01X2047300Y2125500D02*
G03X2047308Y2125247I4100J0D01*
G01X2048560Y2122543D02*
G03X2047300Y2125500I2840J2957D01*
G01X2061700Y2140700D02*
G03X2061700I-4100J0D01*
G01X2062035Y2152300D02*
G03X2062035I-2600J0D01*
G01X2064808Y2157700D02*
G03X2064808I-2600J0D01*
G01X2071700Y2170700D02*
G03X2071700I-4100J0D01*
G01X2074100Y2215000D02*
G03X2074100I-2600J0D01*
G01X2078600Y2386500D02*
G03X2078600I-2600J0D01*
G01X2067100Y2192500D02*
G03X2067100I-2600J0D01*
G01X2051700Y2140700D02*
G03X2051700I-4100J0D01*
G01X2054808Y2157700D02*
G03X2054808I-2600J0D01*
G01X2061700Y2170700D02*
G03X2061700I-4100J0D01*
G01X2064100Y2208500D02*
G03X2064100I-2600J0D01*
G01X2067100Y2227000D02*
G03X2067100I-2600J0D01*
G01X2068100Y2233000D02*
G03X2068100I-2600J0D01*
G01Y2267500D02*
G03X2068100I-2600J0D01*
G01X2069900Y2303500D02*
Y2296300D01*
X2069400Y2295800D02*
G03X2069900Y2296300I0J500D01*
G01X2069400Y2295800D02*
X2062200D01*
X2061700Y2296300D02*
G03X2062200Y2295800I500J0D01*
G01X2061700Y2296300D02*
Y2303500D01*
X2062200Y2304000D02*
G03X2061700Y2303500I0J-500D01*
G01X2062200Y2304000D02*
X2069400D01*
X2069900Y2303500D02*
G03X2069400Y2304000I-500J0D01*
G01X2069900Y2309900D02*
G03X2069900I-4100J0D01*
G01Y2319900D02*
G03X2069900I-4100J0D01*
G01Y2329900D02*
G03X2069900I-4100J0D01*
G01Y2339900D02*
G03X2069900I-4100J0D01*
G01X2048252Y2152630D02*
G03X2048252I-2600J0D01*
G01X2045685Y2157700D02*
G03X2045685I-2600J0D01*
G01X2051700Y2170700D02*
G03X2051700I-4100J0D01*
G01X2056100Y2212000D02*
G03X2056100I-2600J0D01*
G01Y2217500D02*
G03X2056100I-2600J0D01*
G01Y2235500D02*
G03X2056100I-2600J0D01*
G01Y2263000D02*
G03X2056100I-2600J0D01*
G01X2059900Y2299900D02*
G03X2059900I-4100J0D01*
G01Y2309900D02*
G03X2059900I-4100J0D01*
G01Y2319900D02*
G03X2059900I-4100J0D01*
G01Y2329900D02*
G03X2059900I-4100J0D01*
G01Y2339900D02*
G03X2059900I-4100J0D01*
G01X2064100Y2357000D02*
G03X2064100I-2600J0D01*
G01X2054100Y2425000D02*
G03X2054100I-2600J0D01*
G01X2038200Y2061329D02*
G03X2038200I-2600J0D01*
G01Y2071329D02*
G03X2038200I-2600J0D01*
G01Y2081329D02*
G03X2038200I-2600J0D01*
G01Y2091329D02*
G03X2038200I-2600J0D01*
G01X2025591Y2050788D02*
G03X2022704Y2048417I-2591J212D01*
X2025591Y2050788I2592J-213*
G01X2028583Y2055680D02*
G03X2031617Y2055536I1417J-2180D01*
X2028583Y2055680I-1417J2180*
G01X2032800Y2067716D02*
G03X2032800I-2600J0D01*
G01X2028330Y2076493D02*
G03X2031870Y2076307I1670J-1993D01*
X2028330Y2076493I-1670J1993*
G01X2032800Y2087716D02*
G03X2032800I-2600J0D01*
G01X2027833Y2098079D02*
G03X2030097Y2095366I-333J-2579D01*
X2027833Y2098079I332J2579*
G01X2038200Y2101329D02*
G03X2038200I-2600J0D01*
G01Y2111329D02*
G03X2038200I-2600J0D01*
G01Y2121329D02*
G03X2038200I-2600J0D01*
G01Y2131329D02*
G03X2038200I-2600J0D01*
G01X2038885Y2142014D02*
G03X2038885I-2600J0D01*
G01X2038200Y2151329D02*
G03X2038200I-2600J0D01*
G01X2032800Y2107716D02*
G03X2032800I-2600J0D01*
G01Y2117716D02*
G03X2032800I-2600J0D01*
G01Y2127716D02*
G03X2032800I-2600J0D01*
G01Y2137716D02*
G03X2032800I-2600J0D01*
G01Y2147716D02*
G03X2032800I-2600J0D01*
G01X2034810Y2157512D02*
G03X2034810I-2600J0D01*
G01X2030938Y2180943D02*
G03X2035300Y2178624I2562J-443D01*
G01X2033971Y2183057D02*
G03X2030938Y2180943I-2562J443D01*
G01X2035300Y2182376D02*
G03X2033971Y2183057I-1800J-1876D01*
G01X2035300Y2178624D02*
G03Y2182376I1800J1876D01*
G01X2043100Y2202000D02*
G03X2043100I-2600J0D01*
G01X2046100Y2208000D02*
G03X2046100I-2600J0D01*
G01Y2214000D02*
G03X2046100I-2600J0D01*
G01Y2264000D02*
G03X2046100I-2600J0D01*
G01X2036100Y2200500D02*
G03X2036100I-2600J0D01*
G01X2040600Y2233500D02*
G03X2040600I-2600J0D01*
G01Y2366000D02*
G03X2040600I-2600J0D01*
G01X2044100Y2395500D02*
G03X2044100I-2600J0D01*
G01X2021100Y2086500D02*
G03X2021100I-2600J0D01*
G01X2022506Y2175591D02*
G03X2020759Y2173709I-2530J597D01*
G01X2020760D02*
G03X2022506Y2175591I2530J-598D01*
G01X2026100Y2195500D02*
G03X2026100I-2600J0D01*
G01X2028600Y2264500D02*
G03X2028600I-2600J0D01*
G01X2027600Y2277500D02*
G03X2027600I-2600J0D01*
G01X2015100Y2066500D02*
G03X2015100I-2600J0D01*
G01X2006108Y1952492D02*
G03X2006108I-2600J0D01*
G01X2006100Y1960500D02*
G03X2006100I-2600J0D01*
G01X2009100Y1978500D02*
G03X2009100I-2600J0D01*
G01Y2142000D02*
G03X2009100I-2600J0D01*
G01X2003600Y2137000D02*
G03X2003600I-2600J0D01*
G01X2004100Y2159000D02*
G03X2004100I-2600J0D01*
G01X2005871Y2167119D02*
G03X2007028Y2165962I-1166J-2324D01*
X2005871Y2167119I1166J2323*
G01X2012100Y2183500D02*
G03X2012100I-2600J0D01*
G01X2014100Y2193500D02*
G03X2014100I-2600J0D01*
G01X2011100Y2205500D02*
G03X2011100I-2600J0D01*
G01X1985043Y1853957D02*
G03X1987418Y1854195I957J2417D01*
G01X1983457Y1856917D02*
G03X1985043Y1853957I-957J-2417D01*
G01X1988582Y1856679D02*
G03X1983457Y1856917I-2582J-305D01*
G01X1987418Y1854195D02*
G03X1988582Y1856679I2582J305D01*
G01X1994600Y1902000D02*
G03X1994600I-2600J0D01*
G01X1990100Y1912000D02*
G03X1990100I-2600J0D01*
G01X1995037Y1918495D02*
G03X1995037I-2600J0D01*
G01X1994100Y1935000D02*
G03X1994100I-2600J0D01*
G01X1979100Y1854500D02*
G03X1979100I-2600J0D01*
G01X1982600Y1885000D02*
G03X1982600I-2600J0D01*
G01X1986528Y1918392D02*
G03X1986528I-2600J0D01*
G01X1985948Y1931397D02*
G03X1985948I-2600J0D01*
G01X1987525Y1962385D02*
G03X1987525I-2600J0D01*
G01X1991600Y1975500D02*
G03X1991600I-2600J0D01*
G01X1968500Y1856161D02*
G03Y1852839I-2000J-1661D01*
Y1856161I2000J1661*
G01X1974100Y1892500D02*
G03X1974100I-2600J0D01*
G01X1975600Y1920000D02*
G03X1975600I-2600J0D01*
G01X1966600Y1878000D02*
G03X1966600I-2600J0D01*
G01X1970828Y1930617D02*
G03X1975969Y1931400I2572J383D01*
G01X1970304Y1930603D02*
G03X1970828Y1930617I196J2593D01*
G01X1967927Y1932822D02*
G03X1970304Y1930603I-196J-2593D01*
G01X1973072Y1933579D02*
G03X1967927Y1932822I-2572J-383D01*
G01X1973431Y1933600D02*
G03X1973072Y1933579I-31J-2600D01*
G01X1975969Y1931400D02*
G03X1973431Y1933600I31J2600D01*
G01X1981100Y1965000D02*
G03X1981100I-2600J0D01*
G01X1984296Y1977600D02*
G03X1984296I-2600J0D01*
G01X1984565Y1982628D02*
G03X1988631Y1982790I2097J-1537D01*
G01X1985597Y1983463D02*
G03X1984565Y1982628I-2097J1537D01*
G01X1988032Y1983301D02*
G03X1985597Y1983463I-1370J-2210D01*
G01X1988631Y1982790D02*
G03X1988032Y1983301I1369J2210D01*
G01X1995400Y2033300D02*
G03X1995400I-4100J0D01*
G01Y2043300D02*
G03X1995400I-4100J0D01*
G01Y2053300D02*
G03X1995400I-4100J0D01*
G01Y2063300D02*
G03X1995400I-4100J0D01*
G01Y2073300D02*
G03X1995400I-4100J0D01*
G01Y2083300D02*
G03X1995400I-4100J0D01*
G01Y2093300D02*
G03X1995400I-4100J0D01*
G01Y2103300D02*
G03X1995400I-4100J0D01*
G01Y2113300D02*
G03X1995400I-4100J0D01*
G01Y2123300D02*
G03X1995400I-4100J0D01*
G01X1993830Y2180262D02*
G03X1995220Y2177298I-1134J-2340D01*
G01X1994264Y2181185D02*
G03X1993830Y2180262I2090J-1547D01*
G01X1997652Y2181891D02*
G03X1994264Y2181185I-2090J1547D01*
G01X1995220Y2177298D02*
G03X1997652Y2181891I1134J2340D01*
G01X1975591Y1977788D02*
G03X1972704Y1975417I-2591J212D01*
X1975591Y1977788I2592J-213*
G01X1971700Y1939600D02*
G03X1971700I-2600J0D01*
G01X1974433Y2030203D02*
G03X1976441Y2029338I71J-2599D01*
X1974433Y2030203I559J4062*
G01Y2040203D02*
G03X1980125Y2046054I2567J3197D01*
G01X1973451Y2041346D02*
G03X1974433Y2040203I-1397J-2192D01*
G01X1976795Y2047495D02*
G03X1973451Y2041346I205J-4095D01*
G01X1976734Y2049309D02*
G03X1976795Y2047495I2466J-825D01*
G01X1980228Y2050872D02*
G03X1976734Y2049309I-3228J2528D01*
G01X1980125Y2046054D02*
G03X1980228Y2050872I-925J2430D01*
G01X1981100Y2063400D02*
G03X1981100I-4100J0D01*
G01X1980301Y2070968D02*
G03X1979832Y2070435I-3301J2432D01*
X1980301Y2070968I2168J-1435*
G01X1989600Y2144500D02*
G03X1989600I-2600J0D01*
G01X1990530Y2195993D02*
G03X1994070Y2195807I1670J-1993D01*
X1990530Y2195993I-1670J1993*
G01X2020000Y2230500D02*
G03X2020000I-13600J0D01*
G01X2015557Y2279968D02*
G03X2013817Y2277032I-2557J-468D01*
X2015557Y2279968I2557J468*
G01X2020509Y2288183D02*
G03X2018787Y2285022I-2509J-683D01*
X2020509Y2288183I2509J682*
G01X2023100Y2383500D02*
G03X2023100I-2600J0D01*
G01Y2443500D02*
G03X2023100I-2600J0D01*
G01X2007600Y2331000D02*
G03X2007600I-2600J0D01*
G01X1998100Y2267500D02*
G03X1998100I-2600J0D01*
G01X2002352Y2277500D02*
G03X2002352I-2600J0D01*
G01X1995800Y2278700D02*
G03X1995800I-2600J0D01*
G01X1999100Y2290000D02*
G03X1999100I-2600J0D01*
G01X1998600Y2350500D02*
G03X1998600I-2600J0D01*
G01X2003600Y2385500D02*
G03X2003600I-2600J0D01*
G01X1981100Y2083400D02*
G03X1981100I-4100J0D01*
G01Y2093400D02*
G03X1981100I-4100J0D01*
G01Y2103400D02*
G03X1981100I-4100J0D01*
G01Y2113400D02*
G03X1981100I-4100J0D01*
G01Y2123400D02*
G03X1981100I-4100J0D01*
G01X1984390Y2147210D02*
G03X1984390I-2600J0D01*
G01X1984100Y2157000D02*
G03X1984100I-2600J0D01*
G01X1988822Y2167722D02*
G03X1988822I-2600J0D01*
G01X1982004Y2180962D02*
G03X1983555Y2179958I2096J1538D01*
G01X1977214Y2178967D02*
G03X1982004Y2180962I2460J840D01*
G01X1977581Y2181350D02*
G03X1977214Y2178967I-2460J-841D01*
G01X1981770Y2181346D02*
G03X1977581Y2181350I-2096J-1539D01*
G01X1986640Y2181947D02*
G03X1981770Y2181346I-2540J553D01*
G01X1983555Y2179958D02*
G03X1986640Y2181947I2541J-554D01*
G01X1993100Y2286500D02*
G03X1993100I-2600J0D01*
G01X1997100Y2415000D02*
G03X1997100I-2600J0D01*
G01X1987600Y2193500D02*
G03X1987600I-2600J0D01*
G01X1980600D02*
G03X1980600I-2600J0D01*
G01X1985600Y2244000D02*
G03X1985600I-2600J0D01*
G01X1984100Y2251500D02*
G03X1984100I-2600J0D01*
G01X1985712Y2277500D02*
G03X1985712I-2600J0D01*
G01X1988100Y2358500D02*
G03X1988100I-2600J0D01*
G01X1972100Y2117000D02*
G03X1972100I-2600J0D01*
G01X1971300Y2166000D02*
G03X1971300I-2600J0D01*
G01X1971812Y2198288D02*
G03X1971812I-2600J0D01*
G01X1973100Y2215500D02*
G03X1973100I-2600J0D01*
G01X1978100Y2217000D02*
G03X1978100I-2600J0D01*
G01X1975474Y2230954D02*
G03X1975474I-2600J0D01*
G01X1971764Y2235164D02*
G03X1971764I-2600J0D01*
G01X1970305Y2243101D02*
G03X1971350Y2242173I-1141J-2337D01*
G01X1970325Y2245949D02*
G03X1970305Y2243101I2165J-1439D01*
G01X1968858Y2250872D02*
G03X1970325Y2245949I346J-2576D01*
G01X1970147Y2250719D02*
G03X1968858Y2250872I-347J2577D01*
G01X1971370Y2246856D02*
G03X1970147Y2250719I-2166J1440D01*
G01X1971350Y2242173D02*
G03X1971370Y2246856I1140J2337D01*
G01X1980200Y2255000D02*
G03X1980200I-2600J0D01*
G01X1980112Y2278012D02*
G03X1980112I-2600J0D01*
G01X1977912Y2294730D02*
G03X1974783Y2292874I-2512J670D01*
X1977912Y2294730I2513J-670*
G01X1978100Y2324000D02*
G03X1978100I-2600J0D01*
G01X1978902Y2338198D02*
G03X1978902I-2600J0D01*
G01X1961600Y1881500D02*
G03X1961600I-2600J0D01*
G01Y1920500D02*
G03X1961600I-2600J0D01*
G01X1961651Y1943306D02*
G03X1959402Y1943224I-1210J2301D01*
G01Y1943223D02*
G03X1961651Y1943306I1210J-2301D01*
G01X1956100Y1876000D02*
G03X1956100I-2600J0D01*
G01X1961100Y1954500D02*
G03X1961100I-2600J0D01*
G01X1956725Y1961915D02*
G03X1960275I1775J-1900D01*
X1956725I-1775J1900*
G01X1962700Y2065000D02*
G03X1962700I-2600J0D01*
G01X1964100Y2085000D02*
G03X1964100I-2600J0D01*
G01X1964600Y2109500D02*
G03X1964600I-2600J0D01*
G01X1964100Y2154500D02*
G03X1964100I-2600J0D01*
G01X1965100Y2191000D02*
G03X1965100I-2600J0D01*
G01X1969200Y2269691D02*
G03X1969200I-2600J0D01*
G01X1972228Y2331872D02*
G03X1972228I-2600J0D01*
G01X1976100Y2356500D02*
G03X1976100I-2600J0D01*
G01X1975551Y2376659D02*
G03X1979295Y2375722I1449J-2159D01*
X1975551Y2376659I-995J3978*
G01X1970100Y2348000D02*
G03X1970100I-2600J0D01*
G01X1974600Y2393000D02*
G03X1974600I-2600J0D01*
G01X1982400Y2397417D02*
G03X1982400I-4100J0D01*
G01X1958600Y2121000D02*
G03X1958600I-2600J0D01*
G01X1961000Y2196000D02*
G03X1961000I-2600J0D01*
G01X1948124Y1934434D02*
G03X1948124I-2600J0D01*
G01X1947341Y1940045D02*
G03X1947341I-2600J0D01*
G01X1946212Y1946390D02*
G03X1946212I-2600J0D01*
G01X1946713Y1954611D02*
G03X1950287I1787J-1888D01*
G01X1946463Y1958116D02*
G03X1946713Y1954611I2037J-1616D01*
G01X1949537Y1958884D02*
G03X1946463Y1958116I-2037J1616D01*
G01X1950287Y1954611D02*
G03X1949537Y1958884I-1787J1889D01*
G01X1947600Y2069000D02*
G03X1947600I-2600J0D01*
G01X1953200Y2137100D02*
G03X1953200I-4100J0D01*
G01Y2147100D02*
G03X1953200I-4100J0D01*
G01Y2157100D02*
G03X1953200I-4100J0D01*
G01Y2167100D02*
G03X1953200I-4100J0D01*
G01Y2177100D02*
G03X1953200I-4100J0D01*
G01X1956750Y2208950D02*
G03X1956750I-2600J0D01*
G01X1961600Y2212000D02*
G03X1961600I-2600J0D01*
G01X1961000Y2233500D02*
G03X1961000I-2600J0D01*
G01X1944600Y2117000D02*
G03X1944600I-2600J0D01*
G01X1948800Y2209500D02*
G03X1948800I-2600J0D01*
G01X1951300Y2214531D02*
G03X1951300I-2600J0D01*
G01X1954600Y2227500D02*
G03X1954600I-2600J0D01*
G01X1954402Y2241390D02*
G03X1956954Y2238900I-46J-2600D01*
X1954402Y2241390I46J2600*
G01X1959800Y2247000D02*
G03X1959800I-2600J0D01*
G01Y2263000D02*
G03X1959800I-2600J0D01*
G01X1964600Y2303000D02*
G03X1964600I-2600J0D01*
G01X1965100Y2362500D02*
G03X1965100I-2600J0D01*
G01X1954000Y2305500D02*
G03X1954000I-2600J0D01*
G01X1957100Y2336000D02*
G03X1957100I-2600J0D01*
G01X1959600Y2358000D02*
G03X1959600I-2600J0D01*
G01Y2364500D02*
G03X1959600I-2600J0D01*
G01X1956809Y2379700D02*
G03X1956809I-4100J0D01*
G01Y2397417D02*
G03X1956809I-4100J0D01*
G01X1941600Y2189000D02*
G03X1941600I-2600J0D01*
G01Y2208500D02*
G03X1941600I-2600J0D01*
G01X1941569Y2219599D02*
G03X1938931Y2217401I-2569J401D01*
X1941569Y2219599I2569J-401*
G01X1945600Y2269500D02*
G03X1945600I-2600J0D01*
G01X1940100Y2254000D02*
G03X1940100I-2600J0D01*
G01X1934100Y1967500D02*
G03X1934100I-2600J0D01*
G01Y2222500D02*
G03X1934100I-2600J0D01*
G01X1932600Y2300500D02*
G03X1932600I-2600J0D01*
G01X1919100Y1914000D02*
G03X1919100I-2600J0D01*
G01X1924100Y1919000D02*
G03X1924100I-2600J0D01*
G01Y1977500D02*
G03X1924100I-2600J0D01*
G01X1919100Y2180500D02*
G03X1919100I-2600J0D01*
G01Y2260000D02*
G03X1919100I-2600J0D01*
G01X1913500Y1885100D02*
G03X1913500I-4100J0D01*
G01Y1895100D02*
G03X1913500I-4100J0D01*
G01Y1905100D02*
G03X1913500I-4100J0D01*
G01Y1915100D02*
G03X1913500I-4100J0D01*
G01Y1925100D02*
G03X1913500I-4100J0D01*
G01Y1935100D02*
G03X1913500I-4100J0D01*
G01Y1945100D02*
G03X1913500I-4100J0D01*
G01Y1955100D02*
G03X1913500I-4100J0D01*
G01Y1965100D02*
G03X1913500I-4100J0D01*
G01Y1975100D02*
G03X1913500I-4100J0D01*
G01Y1985100D02*
G03X1913500I-4100J0D01*
G01Y1995100D02*
G03X1913500I-4100J0D01*
G01Y2005100D02*
G03X1913500I-4100J0D01*
G01Y2015100D02*
G03X1913500I-4100J0D01*
G01Y2025100D02*
G03X1913500I-4100J0D01*
G01Y2035100D02*
G03X1913500I-4100J0D01*
G01Y2045100D02*
G03X1913500I-4100J0D01*
G01Y2055100D02*
G03X1913500I-4100J0D01*
G01Y2065100D02*
G03X1913500I-4100J0D01*
G01Y2075100D02*
G03X1913500I-4100J0D01*
G01Y2085100D02*
G03X1913500I-4100J0D01*
G01Y2095100D02*
G03X1913500I-4100J0D01*
G01Y2105100D02*
G03X1913500I-4100J0D01*
G01Y2115100D02*
G03X1913500I-4100J0D01*
G01Y2125100D02*
G03X1913500I-4100J0D01*
G01Y2135100D02*
G03X1913500I-4100J0D01*
G01Y2145100D02*
G03X1913500I-4100J0D01*
G01Y2155100D02*
G03X1913500I-4100J0D01*
G01Y2165100D02*
G03X1913500I-4100J0D01*
G01Y2175100D02*
G03X1913500I-4100J0D01*
G01Y2185100D02*
G03X1913500I-4100J0D01*
G01Y2195100D02*
G03X1913500I-4100J0D01*
G01Y2205100D02*
G03X1913500I-4100J0D01*
G01Y2215100D02*
G03X1913500I-4100J0D01*
G01Y2225100D02*
G03X1913500I-4100J0D01*
G01Y2235100D02*
G03X1913500I-4100J0D01*
G01Y2245100D02*
G03X1913500I-4100J0D01*
G01Y2255100D02*
G03X1913500I-4100J0D01*
G01Y2265100D02*
G03X1913500I-4100J0D01*
G01Y2275100D02*
G03X1913500I-4100J0D01*
G01Y2285100D02*
G03X1913500I-4100J0D01*
G01Y2295100D02*
G03X1913500I-4100J0D01*
G01Y2305100D02*
G03X1913500I-4100J0D01*
G01Y2315100D02*
G03X1913500I-4100J0D01*
G01Y2325100D02*
G03X1913500I-4100J0D01*
G01Y2335100D02*
G03X1913500I-4100J0D01*
G01Y2345100D02*
G03X1913500I-4100J0D01*
G01Y2355100D02*
G03X1913500I-4100J0D01*
G01Y2365100D02*
G03X1913500I-4100J0D01*
G01Y2375100D02*
G03X1913500I-4100J0D01*
G01Y2385100D02*
G03X1913500I-4100J0D01*
G01Y2395100D02*
G03X1913500I-4100J0D01*
G01Y2405100D02*
G03X1913500I-4100J0D01*
G01Y2415100D02*
G03X1913500I-4100J0D01*
G01X1909474Y2429199D02*
G03X1909400Y2431000I-2474J801D01*
G01X1906116Y2427555D02*
G03X1909474Y2429199I3284J-2455D01*
G01X1906241Y2432487D02*
G03X1906116Y2427555I759J-2487D01*
G01X1909400Y2431000D02*
G03X1906241Y2432487I0J4100D01*
G01X1913500Y2445100D02*
G03X1913500I-4100J0D01*
G01Y2455100D02*
G03X1913500I-4100J0D01*
G01X1901900Y2467299D02*
X2087800D01*
X1901900Y2466399D02*
X2087800D01*
X1901900Y2465499D02*
X2087800D01*
X1901900Y2464599D02*
X2087800D01*
X1901900Y2463699D02*
X2087800D01*
X1901900Y2462799D02*
X2087800D01*
X1901900Y2461899D02*
X2087800D01*
X1901900Y2460999D02*
X2087800D01*
X1901900Y2460099D02*
X2087800D01*
X1909505Y2459199D02*
X2087800D01*
X1911965Y2458299D02*
X2087800D01*
X1912795Y2457399D02*
X2087800D01*
X1913254Y2456499D02*
X2087800D01*
X1913470Y2455599D02*
X2087800D01*
X1913480Y2454699D02*
X2087800D01*
X1913288Y2453799D02*
X2087800D01*
X1912859Y2452899D02*
X2087800D01*
X1912082Y2451999D02*
X2087800D01*
X1910294Y2451099D02*
X2087800D01*
X1901900Y2450199D02*
X2087800D01*
X1901900Y2449299D02*
X2087800D01*
X1911835Y2448399D02*
X2087800D01*
X1912725Y2447499D02*
X2087800D01*
X1913216Y2446599D02*
X2087800D01*
X2021888Y2445699D02*
X2087800D01*
X2022752Y2444799D02*
X2087800D01*
X2023069Y2443899D02*
X2087800D01*
X2023051Y2442999D02*
X2087800D01*
X2022690Y2442099D02*
X2087800D01*
X2021710Y2441199D02*
X2087800D01*
X1901900Y2440299D02*
X2087800D01*
X1901900Y2439399D02*
X2087800D01*
X1911693Y2438499D02*
X2087800D01*
X1912651Y2437599D02*
X2087800D01*
X1913175Y2436699D02*
X2087800D01*
X1913440Y2435799D02*
X2087800D01*
X1913495Y2434899D02*
X2087800D01*
X1913349Y2433999D02*
X2087800D01*
X1912978Y2433099D02*
X2087800D01*
X1912297Y2432199D02*
X2087800D01*
X1910936Y2431299D02*
X2087800D01*
X1909569Y2430399D02*
X2087800D01*
X1909551Y2429499D02*
X2087800D01*
X1911538Y2428599D02*
X2087800D01*
X1912571Y2427699D02*
X2087800D01*
X2053377Y2426799D02*
X2087800D01*
X2053940Y2425899D02*
X2087800D01*
X2054100Y2424999D02*
X2087800D01*
X2053939Y2424099D02*
X2087800D01*
X2053375Y2423199D02*
X2087800D01*
X1912394Y2422299D02*
X2087800D01*
X1911164Y2421399D02*
X2087800D01*
X1901900Y2420499D02*
X2087800D01*
X1901900Y2419599D02*
X2087800D01*
X1911365Y2418699D02*
X2087800D01*
X1912487Y2417799D02*
X2087800D01*
X1996276Y2416899D02*
X2087800D01*
X1996901Y2415999D02*
X2087800D01*
X1997098Y2415099D02*
X2087800D01*
X1996973Y2414199D02*
X2087800D01*
X1996466Y2413299D02*
X2087800D01*
X1912484Y2412399D02*
X2087800D01*
X1911360Y2411499D02*
X2087800D01*
X1901900Y2410599D02*
X2087800D01*
X1901900Y2409699D02*
X2087800D01*
X1911169Y2408799D02*
X2087800D01*
X1912396Y2407899D02*
X2087800D01*
X1913034Y2406999D02*
X2087800D01*
X1913377Y2406099D02*
X2087800D01*
X1913499Y2405199D02*
X2087800D01*
X1913421Y2404299D02*
X2087800D01*
X1913130Y2403399D02*
X2087800D01*
X1912569Y2402499D02*
X2087800D01*
X1911533Y2401599D02*
X2087800D01*
X1980757Y2400699D02*
X2087800D01*
X1981637Y2399799D02*
X2087800D01*
X1982123Y2398899D02*
X2087800D01*
X2042219Y2397999D02*
X2087800D01*
X2043550Y2397099D02*
X2087800D01*
X2044004Y2396199D02*
X2087800D01*
X2044092Y2395299D02*
X2087800D01*
X2043855Y2394399D02*
X2087800D01*
X2043160Y2393499D02*
X2087800D01*
X1974569Y2392599D02*
X2087800D01*
X1974251Y2391699D02*
X2087800D01*
X1973384Y2390799D02*
X2087800D01*
X1901900Y2389899D02*
X2087800D01*
X2076719Y2388999D02*
X2087800D01*
X2078050Y2388099D02*
X2087800D01*
X2078504Y2387199D02*
X2087800D01*
X2078592Y2386299D02*
X2087800D01*
X2078355Y2385399D02*
X2087800D01*
X2077660Y2384499D02*
X2087800D01*
X2023098Y2383599D02*
X2087800D01*
X2022973Y2382699D02*
X2087800D01*
X2022466Y2381799D02*
X2087800D01*
X1982221Y2380899D02*
X2087800D01*
X1982389Y2379999D02*
X2087800D01*
X1982356Y2379099D02*
X2087800D01*
X1982115Y2378199D02*
X2087800D01*
X1981623Y2377299D02*
X2087800D01*
X1980731Y2376399D02*
X2087800D01*
X1979401Y2375499D02*
X2087800D01*
X1979598Y2374599D02*
X2087800D01*
X1979473Y2373699D02*
X2087800D01*
X1978966Y2372799D02*
X2087800D01*
X2040552Y2366499D02*
X2087800D01*
X2040569Y2365599D02*
X2087800D01*
X2040251Y2364699D02*
X2087800D01*
X2039384Y2363799D02*
X2087800D01*
X1965069Y2362899D02*
X2087800D01*
X1965051Y2361999D02*
X2087800D01*
X1985583Y2361099D02*
X2087800D01*
X1987468Y2360199D02*
X2087800D01*
X2062715Y2359299D02*
X2087800D01*
X2063692Y2358399D02*
X2087800D01*
X2064052Y2357499D02*
X2087800D01*
X2087535Y2356599D02*
X2087800D01*
X2086997Y2352099D02*
X2087800D01*
X1998504Y2351199D02*
X2087800D01*
X1998592Y2350299D02*
X2087800D01*
X1998355Y2349399D02*
X2087800D01*
X1997660Y2348499D02*
X2087800D01*
X1970069Y2347599D02*
X2087800D01*
X1969751Y2346699D02*
X2087800D01*
X1968884Y2345799D02*
X2087800D01*
X1913495Y2344899D02*
X2087800D01*
X2065905Y2343999D02*
X2087800D01*
X2068365Y2343099D02*
X2087800D01*
X2069195Y2342199D02*
X2087800D01*
X2069654Y2341299D02*
X2087800D01*
X2069870Y2340399D02*
X2087800D01*
X2069880Y2339499D02*
X2087800D01*
X2069688Y2338599D02*
X2087800D01*
X2069259Y2337699D02*
X2087800D01*
X2068482Y2336799D02*
X2087800D01*
X2066694Y2335899D02*
X2087800D01*
X1956899Y2334999D02*
X2087800D01*
X1970970Y2334099D02*
X2087800D01*
X2068235Y2333199D02*
X2087800D01*
X2069125Y2332299D02*
X2087800D01*
X2069616Y2331399D02*
X2087800D01*
X2069856Y2330499D02*
X2087800D01*
X2069889Y2329599D02*
X2087800D01*
X2069720Y2328699D02*
X2087800D01*
X2069321Y2327799D02*
X2087800D01*
X2068593Y2326899D02*
X2087800D01*
X2067061Y2325999D02*
X2087800D01*
X1977856Y2325099D02*
X2087800D01*
X1978092Y2324199D02*
X2087800D01*
X2068093Y2323299D02*
X2087800D01*
X2069051Y2322399D02*
X2087800D01*
X2069575Y2321499D02*
X2087800D01*
X2069840Y2320599D02*
X2087800D01*
X2069895Y2319699D02*
X2087800D01*
X2069749Y2318799D02*
X2087800D01*
X2069378Y2317899D02*
X2087800D01*
X2068697Y2316999D02*
X2087800D01*
X2067336Y2316099D02*
X2087800D01*
X1913499Y2315199D02*
X2087800D01*
X1913421Y2314299D02*
X2087800D01*
X2067938Y2313399D02*
X2087800D01*
X2068971Y2312499D02*
X2087800D01*
X2069532Y2311599D02*
X2087800D01*
X2069821Y2310699D02*
X2087800D01*
X2069899Y2309799D02*
X2087800D01*
X2069776Y2308899D02*
X2087800D01*
X2069433Y2307999D02*
X2087800D01*
X2068794Y2307099D02*
X2087800D01*
X2067564Y2306199D02*
X2087800D01*
X1963215Y2305299D02*
X2087800D01*
X1964192Y2304399D02*
X2087800D01*
X2069900Y2303499D02*
X2087800D01*
X2069900Y2302599D02*
X2087800D01*
X2069900Y2301699D02*
X2087800D01*
X2069900Y2300799D02*
X2087800D01*
X2069900Y2299899D02*
X2087800D01*
X2069900Y2298999D02*
X2087800D01*
X2069900Y2298099D02*
X2087800D01*
X2069900Y2297199D02*
X2087800D01*
X2069900Y2296299D02*
X2087800D01*
X1978000Y2295399D02*
X2087800D01*
X1978519Y2294499D02*
X2087800D01*
X1979490Y2293599D02*
X2087800D01*
X1979848Y2292699D02*
X2087800D01*
X1998377Y2291799D02*
X2087800D01*
X1998940Y2290899D02*
X2087800D01*
X2018719Y2289999D02*
X2087800D01*
X2020050Y2289099D02*
X2087800D01*
X2022030Y2288199D02*
X2087800D01*
X2023349Y2287299D02*
X2087800D01*
X2023801Y2286399D02*
X2087800D01*
X2023887Y2285499D02*
X2087800D01*
X2023649Y2284599D02*
X2087800D01*
X2022950Y2283699D02*
X2087800D01*
X1912793Y2282799D02*
X2087800D01*
X2014003Y2281899D02*
X2087800D01*
X2015125Y2280999D02*
X2087800D01*
X2025083Y2280099D02*
X2087800D01*
X2026968Y2279199D02*
X2087800D01*
X2027474Y2278299D02*
X2087800D01*
X2027598Y2277399D02*
X2087800D01*
X2027399Y2276499D02*
X2087800D01*
X2026773Y2275599D02*
X2087800D01*
X1913480Y2274699D02*
X2087800D01*
X1913288Y2273799D02*
X2087800D01*
X1912859Y2272899D02*
X2087800D01*
X1967797Y2271999D02*
X2087800D01*
X1968786Y2271099D02*
X2087800D01*
X1969150Y2270199D02*
X2087800D01*
X2067377Y2269299D02*
X2087800D01*
X2067940Y2268399D02*
X2087800D01*
X2068100Y2267499D02*
X2087800D01*
X2067939Y2266599D02*
X2087800D01*
X2067375Y2265699D02*
X2087800D01*
X2055377Y2264799D02*
X2087800D01*
X2055940Y2263899D02*
X2087800D01*
X2056100Y2262999D02*
X2087800D01*
X2055939Y2262099D02*
X2087800D01*
X2055375Y2261199D02*
X2087800D01*
X1919083Y2260299D02*
X2087800D01*
X1919030Y2259399D02*
X2087800D01*
X1918623Y2258499D02*
X2087800D01*
X1977683Y2257599D02*
X2087800D01*
X1979568Y2256699D02*
X2087800D01*
X1980074Y2255799D02*
X2087800D01*
X1980198Y2254899D02*
X2087800D01*
X1982219Y2253999D02*
X2087800D01*
X1983550Y2253099D02*
X2087800D01*
X1984004Y2252199D02*
X2087800D01*
X1984092Y2251299D02*
X2087800D01*
X1983855Y2250399D02*
X2087800D01*
X1983160Y2249499D02*
X2087800D01*
X1971787Y2248599D02*
X2087800D01*
X1971735Y2247699D02*
X2087800D01*
X1973724Y2246799D02*
X2087800D01*
X1984776Y2245899D02*
X2087800D01*
X1985401Y2244999D02*
X2087800D01*
X2006590Y2244099D02*
X2087800D01*
X2011269Y2243199D02*
X2087800D01*
X2013164Y2242299D02*
X2087800D01*
X2014535Y2241399D02*
X2087800D01*
X2015619Y2240499D02*
X2087800D01*
X2016508Y2239599D02*
X2087800D01*
X2017251Y2238699D02*
X2087800D01*
X2054715Y2237799D02*
X2087800D01*
X2055692Y2236899D02*
X2087800D01*
X2056052Y2235999D02*
X2087800D01*
X2067035Y2235099D02*
X2087800D01*
X2067807Y2234199D02*
X2087800D01*
X2068083Y2233299D02*
X2087800D01*
X2068030Y2232399D02*
X2087800D01*
X2067623Y2231499D02*
X2087800D01*
X2066497Y2230599D02*
X2087800D01*
X2019976Y2229699D02*
X2087800D01*
X2066377Y2228799D02*
X2087800D01*
X2066940Y2227899D02*
X2087800D01*
X2067100Y2226999D02*
X2087800D01*
X2066939Y2226099D02*
X2087800D01*
X2066375Y2225199D02*
X2087800D01*
X2018504Y2224299D02*
X2087800D01*
X2017999Y2223399D02*
X2087800D01*
X2017397Y2222499D02*
X2087800D01*
X2016682Y2221599D02*
X2087800D01*
X2015828Y2220699D02*
X2087800D01*
X2054715Y2219799D02*
X2087800D01*
X2055692Y2218899D02*
X2087800D01*
X2056052Y2217999D02*
X2087800D01*
X2082634Y2217099D02*
X2087800D01*
X2083361Y2216199D02*
X2087800D01*
X2083615Y2215299D02*
X2087800D01*
X2083542Y2214399D02*
X2087800D01*
X2083109Y2213499D02*
X2087800D01*
X2081878Y2212599D02*
X2087800D01*
X2056083Y2211699D02*
X2087800D01*
X2062715Y2210799D02*
X2087800D01*
X2063692Y2209899D02*
X2087800D01*
X2064052Y2208999D02*
X2087800D01*
X2064069Y2208099D02*
X2087800D01*
X2083768Y2207199D02*
X2087800D01*
X2084520Y2206299D02*
X2087800D01*
X2084786Y2205399D02*
X2087800D01*
X2084724Y2204499D02*
X2087800D01*
X2084305Y2203599D02*
X2087800D01*
X2083136Y2202699D02*
X2087800D01*
X2043092Y2201799D02*
X2087800D01*
X2042855Y2200899D02*
X2087800D01*
X2042160Y2199999D02*
X2087800D01*
X2035690Y2199099D02*
X2087800D01*
X2034710Y2198199D02*
X2087800D01*
X2083626Y2197299D02*
X2087800D01*
X2084466Y2196399D02*
X2087800D01*
X2084773Y2195499D02*
X2087800D01*
X2084746Y2194599D02*
X2087800D01*
X2084374Y2193699D02*
X2087800D01*
X2083362Y2192799D02*
X2087800D01*
X2067030Y2191899D02*
X2087800D01*
X2066623Y2190999D02*
X2087800D01*
X2065497Y2190099D02*
X2087800D01*
X1964375Y2189199D02*
X2087800D01*
X1941504Y2188299D02*
X2087800D01*
X2083460Y2187399D02*
X2087800D01*
X2084407Y2186499D02*
X2087800D01*
X2084756Y2185599D02*
X2087800D01*
X2084765Y2184699D02*
X2087800D01*
X2084437Y2183799D02*
X2087800D01*
X2083544Y2182899D02*
X2087800D01*
X2039225Y2181999D02*
X2087800D01*
X2039630Y2181099D02*
X2087800D01*
X2039683Y2180199D02*
X2087800D01*
X2039406Y2179299D02*
X2087800D01*
X2038631Y2178399D02*
X2087800D01*
X2022222Y2177499D02*
X2087800D01*
X2022543Y2176599D02*
X2087800D01*
X2023548Y2175699D02*
X2087800D01*
X2077705Y2174799D02*
X2087800D01*
X2080165Y2173899D02*
X2087800D01*
X2080995Y2172999D02*
X2087800D01*
X2081454Y2172099D02*
X2087800D01*
X2081670Y2171199D02*
X2087800D01*
X2081680Y2170299D02*
X2087800D01*
X2081488Y2169399D02*
X2087800D01*
X2081059Y2168499D02*
X2087800D01*
X2080282Y2167599D02*
X2087800D01*
X2078494Y2166699D02*
X2087800D01*
X2008954Y2165799D02*
X2087800D01*
X2007303Y2164899D02*
X2087800D01*
X2007179Y2163999D02*
X2087800D01*
X2006675Y2163099D02*
X2087800D01*
X2004835Y2162199D02*
X2087800D01*
X2002715Y2161299D02*
X2087800D01*
X2003692Y2160399D02*
X2087800D01*
X2074085Y2159499D02*
X2087800D01*
X2074648Y2158599D02*
X2087800D01*
X2074808Y2157699D02*
X2087800D01*
X2074647Y2156799D02*
X2087800D01*
X2074083Y2155899D02*
X2087800D01*
X2046724Y2154999D02*
X2087800D01*
X2077430Y2154099D02*
X2087800D01*
X2077993Y2153199D02*
X2087800D01*
X2078153Y2152299D02*
X2087800D01*
X2077992Y2151399D02*
X2087800D01*
X2077428Y2150499D02*
X2087800D01*
X2037541Y2149599D02*
X2087800D01*
X2032607Y2148699D02*
X2087800D01*
X2032799Y2147799D02*
X2087800D01*
X2032668Y2146899D02*
X2087800D01*
X2032152Y2145999D02*
X2087800D01*
X1989530Y2145099D02*
X2087800D01*
X2079738Y2144199D02*
X2087800D01*
X2080771Y2143299D02*
X2087800D01*
X2081332Y2142399D02*
X2087800D01*
X2081621Y2141499D02*
X2087800D01*
X2081699Y2140599D02*
X2087800D01*
X2081576Y2139699D02*
X2087800D01*
X2081233Y2138799D02*
X2087800D01*
X2080594Y2137899D02*
X2087800D01*
X2079364Y2136999D02*
X2087800D01*
X2032236Y2136099D02*
X2087800D01*
X2030851Y2135199D02*
X2087800D01*
X1952094Y2134299D02*
X2087800D01*
X2037174Y2133399D02*
X2087800D01*
X2037922Y2132499D02*
X2087800D01*
X2038186Y2131599D02*
X2087800D01*
X2038122Y2130699D02*
X2087800D01*
X2037702Y2129799D02*
X2087800D01*
X2083693Y2128899D02*
X2087800D01*
X2084651Y2127999D02*
X2087800D01*
X2085175Y2127099D02*
X2087800D01*
X2085440Y2126199D02*
X2087800D01*
X2085495Y2125299D02*
X2087800D01*
X2085349Y2124399D02*
X2087800D01*
X2084978Y2123499D02*
X2087800D01*
X2084297Y2122599D02*
X2087800D01*
X2082936Y2121699D02*
X2087800D01*
X2047384Y2120799D02*
X2087800D01*
X2037771Y2119899D02*
X2087800D01*
X2083538Y2118999D02*
X2087800D01*
X2084571Y2118099D02*
X2087800D01*
X2085132Y2117199D02*
X2087800D01*
X2085421Y2116299D02*
X2087800D01*
X2085499Y2115399D02*
X2087800D01*
X2085376Y2114499D02*
X2087800D01*
X2085033Y2113599D02*
X2087800D01*
X2084394Y2112699D02*
X2087800D01*
X2083164Y2111799D02*
X2087800D01*
X2067030Y2110899D02*
X2087800D01*
X2066623Y2109999D02*
X2087800D01*
X2083365Y2109099D02*
X2087800D01*
X2084487Y2108199D02*
X2087800D01*
X2085084Y2107299D02*
X2087800D01*
X2085400Y2106399D02*
X2087800D01*
X2085500Y2105499D02*
X2087800D01*
X2085400Y2104599D02*
X2087800D01*
X2085083Y2103699D02*
X2087800D01*
X2084484Y2102799D02*
X2087800D01*
X2083360Y2101899D02*
X2087800D01*
X2038179Y2100999D02*
X2087800D01*
X2037890Y2100099D02*
X2087800D01*
X2083169Y2099199D02*
X2087800D01*
X2084396Y2098299D02*
X2087800D01*
X2085034Y2097399D02*
X2087800D01*
X2085377Y2096499D02*
X2087800D01*
X2085499Y2095599D02*
X2087800D01*
X2085421Y2094699D02*
X2087800D01*
X2085130Y2093799D02*
X2087800D01*
X2084569Y2092899D02*
X2087800D01*
X2083533Y2091999D02*
X2087800D01*
X2043273Y2091099D02*
X2087800D01*
X2037941Y2090199D02*
X2087800D01*
X2082943Y2089299D02*
X2087800D01*
X2084300Y2088399D02*
X2087800D01*
X2084980Y2087499D02*
X2087800D01*
X2085350Y2086599D02*
X2087800D01*
X2085495Y2085699D02*
X2087800D01*
X2085440Y2084799D02*
X2087800D01*
X2085174Y2083899D02*
X2087800D01*
X2084649Y2082999D02*
X2087800D01*
X2083689Y2082099D02*
X2087800D01*
X2038197Y2081199D02*
X2087800D01*
X2037987Y2080299D02*
X2087800D01*
X2082669Y2079399D02*
X2087800D01*
X2084196Y2078499D02*
X2087800D01*
X2084922Y2077599D02*
X2087800D01*
X2085321Y2076699D02*
X2087800D01*
X2085489Y2075799D02*
X2087800D01*
X2085456Y2074899D02*
X2087800D01*
X2085215Y2073999D02*
X2087800D01*
X2084723Y2073099D02*
X2087800D01*
X2083831Y2072199D02*
X2087800D01*
X2038200Y2071299D02*
X2087800D01*
X2038028Y2070399D02*
X2087800D01*
X2082306Y2069499D02*
X2087800D01*
X2084085Y2068599D02*
X2087800D01*
X2084861Y2067699D02*
X2087800D01*
X2085289Y2066799D02*
X2087800D01*
X2085481Y2065899D02*
X2087800D01*
X2085469Y2064999D02*
X2087800D01*
X2085253Y2064099D02*
X2087800D01*
X2084793Y2063199D02*
X2087800D01*
X2083962Y2062299D02*
X2087800D01*
X2038199Y2061399D02*
X2087800D01*
X2038064Y2060499D02*
X2087800D01*
X2081505Y2059599D02*
X2087800D01*
X2083965Y2058699D02*
X2087800D01*
X2084795Y2057799D02*
X2087800D01*
X2085254Y2056899D02*
X2087800D01*
X2085470Y2055999D02*
X2087800D01*
X2085480Y2055099D02*
X2087800D01*
X2085288Y2054199D02*
X2087800D01*
X2084859Y2053299D02*
X2087800D01*
X2084082Y2052399D02*
X2087800D01*
X2082294Y2051499D02*
X2087800D01*
X2038095Y2050599D02*
X2087800D01*
X2037625Y2049699D02*
X2087800D01*
X2083835Y2048799D02*
X2087800D01*
X2084725Y2047899D02*
X2087800D01*
X2085216Y2046999D02*
X2087800D01*
X2085456Y2046099D02*
X2087800D01*
X2085489Y2045199D02*
X2087800D01*
X2085320Y2044299D02*
X2087800D01*
X2084921Y2043399D02*
X2087800D01*
X2084193Y2042499D02*
X2087800D01*
X2082661Y2041599D02*
X2087800D01*
X2038122Y2040699D02*
X2087800D01*
X2037702Y2039799D02*
X2087800D01*
X2083693Y2038899D02*
X2087800D01*
X2084651Y2037999D02*
X2087800D01*
X2085175Y2037099D02*
X2087800D01*
X2085440Y2036199D02*
X2087800D01*
X2085495Y2035299D02*
X2087800D01*
X2085349Y2034399D02*
X2087800D01*
X2084978Y2033499D02*
X2087800D01*
X2084297Y2032599D02*
X2087800D01*
X2082936Y2031699D02*
X2087800D01*
X2038234Y2030799D02*
X2087800D01*
X2037860Y2029899D02*
X2087800D01*
X2036841Y2028999D02*
X2087800D01*
X2034155Y2028099D02*
X2087800D01*
X2034098Y2027199D02*
X2087800D01*
X2044372Y2026299D02*
X2087800D01*
X2045097Y2025399D02*
X2087800D01*
X2045349Y2024499D02*
X2087800D01*
X2045275Y2023599D02*
X2087800D01*
X2044840Y2022699D02*
X2087800D01*
X2043603Y2021799D02*
X2087800D01*
X2040844Y2020899D02*
X2087800D01*
X2040719Y2019999D02*
X2087800D01*
X2042050Y2019099D02*
X2087800D01*
X2042504Y2018199D02*
X2087800D01*
X2049085Y2017299D02*
X2087800D01*
X2049729Y2016399D02*
X2087800D01*
X2078070Y2015499D02*
X2087800D01*
X2078905Y2014599D02*
X2087800D01*
X2079367Y2013699D02*
X2087800D01*
X2079585Y2012799D02*
X2087800D01*
X2079598Y2011899D02*
X2087800D01*
X2079408Y2010999D02*
X2087800D01*
X2078981Y2010099D02*
X2087800D01*
X2078209Y2009199D02*
X2087800D01*
X2076452Y2008299D02*
X2087800D01*
X2048968Y2007399D02*
X2087800D01*
X2049684Y2006499D02*
X2087800D01*
X2049932Y2005599D02*
X2087800D01*
X2049854Y2004699D02*
X2087800D01*
X2049413Y2003799D02*
X2087800D01*
X2048150Y2002899D02*
X2087800D01*
X2044446Y2001999D02*
X2087800D01*
X2044534Y2001099D02*
X2087800D01*
X2044297Y2000199D02*
X2087800D01*
X2043602Y1999299D02*
X2087800D01*
X1911835Y1998399D02*
X2087800D01*
X2048834Y1997499D02*
X2087800D01*
X2049633Y1996599D02*
X2087800D01*
X2049921Y1995699D02*
X2087800D01*
X2049878Y1994799D02*
X2087800D01*
X2049486Y1993899D02*
X2087800D01*
X2080163Y1992999D02*
X2087800D01*
X2080856Y1992099D02*
X2087800D01*
X2081092Y1991199D02*
X2087800D01*
X2081004Y1990299D02*
X2087800D01*
X2080548Y1989399D02*
X2087800D01*
X2079210Y1988499D02*
X2087800D01*
X2079517Y1987599D02*
X2087800D01*
X2079617Y1986699D02*
X2087800D01*
X2079516Y1985799D02*
X2087800D01*
X2079200Y1984899D02*
X2087800D01*
X2078601Y1983999D02*
X2087800D01*
X2077476Y1983099D02*
X2087800D01*
X2044381Y1982199D02*
X2087800D01*
X2044542Y1981299D02*
X2087800D01*
X2044381Y1980399D02*
X2087800D01*
X2043817Y1979499D02*
X2087800D01*
X2009098Y1978599D02*
X2087800D01*
X2048498Y1977699D02*
X2087800D01*
X2049514Y1976799D02*
X2087800D01*
X2049887Y1975899D02*
X2087800D01*
X2049915Y1974999D02*
X2087800D01*
X2049610Y1974099D02*
X2087800D01*
X2048772Y1973199D02*
X2087800D01*
X2044342Y1972299D02*
X2087800D01*
X2044540Y1971399D02*
X2087800D01*
X2044415Y1970499D02*
X2087800D01*
X2043909Y1969599D02*
X2087800D01*
X2030795Y1968699D02*
X2087800D01*
X2048269Y1967799D02*
X2087800D01*
X2077469Y1966899D02*
X2087800D01*
X2078696Y1965999D02*
X2087800D01*
X2079334Y1965099D02*
X2087800D01*
X2079677Y1964199D02*
X2087800D01*
X2079799Y1963299D02*
X2087800D01*
X2079721Y1962399D02*
X2087800D01*
X2079430Y1961499D02*
X2087800D01*
X2078869Y1960599D02*
X2087800D01*
X2077833Y1959699D02*
X2087800D01*
X2042654Y1958799D02*
X2087800D01*
X2047946Y1957899D02*
X2087800D01*
X2049368Y1956999D02*
X2087800D01*
X2049837Y1956099D02*
X2087800D01*
X2049936Y1955199D02*
X2087800D01*
X2049711Y1954299D02*
X2087800D01*
X2049037Y1953399D02*
X2087800D01*
X2044249Y1952499D02*
X2087800D01*
X2044524Y1951599D02*
X2087800D01*
X2044471Y1950699D02*
X2087800D01*
X2044065Y1949799D02*
X2087800D01*
X2042941Y1948899D02*
X2087800D01*
X2015663Y1947999D02*
X2087800D01*
X2049284Y1947099D02*
X2087800D01*
X2049806Y1946199D02*
X2087800D01*
X2049941Y1945299D02*
X2087800D01*
X2049754Y1944399D02*
X2087800D01*
X2049147Y1943499D02*
X2087800D01*
X2043273Y1942599D02*
X2087800D01*
X2075997Y1941699D02*
X2087800D01*
X2078277Y1940799D02*
X2087800D01*
X2079101Y1939899D02*
X2087800D01*
X2079557Y1938999D02*
X2087800D01*
X2079771Y1938099D02*
X2087800D01*
X2079779Y1937199D02*
X2087800D01*
X2079585Y1936299D02*
X2087800D01*
X2079153Y1935399D02*
X2087800D01*
X2078371Y1934499D02*
X2087800D01*
X2076551Y1933599D02*
X2087800D01*
X2012004Y1932699D02*
X2087800D01*
X2065715Y1931799D02*
X2087800D01*
X2066692Y1930899D02*
X2087800D01*
X2067052Y1929999D02*
X2087800D01*
X2067069Y1929099D02*
X2087800D01*
X2066751Y1928199D02*
X2087800D01*
X2065884Y1927299D02*
X2087800D01*
X1913289Y1926399D02*
X2087800D01*
X1913481Y1925499D02*
X2087800D01*
X1913469Y1924599D02*
X2087800D01*
X1913253Y1923699D02*
X2087800D01*
X1960215Y1922799D02*
X2087800D01*
X1974776Y1921899D02*
X2087800D01*
X1993138Y1920999D02*
X2087800D01*
X2029169Y1920099D02*
X2087800D01*
X2030396Y1919199D02*
X2087800D01*
X2031034Y1918299D02*
X2087800D01*
X2031377Y1917399D02*
X2087800D01*
X2031499Y1916499D02*
X2087800D01*
X2031421Y1915599D02*
X2087800D01*
X2031130Y1914699D02*
X2087800D01*
X2030569Y1913799D02*
X2087800D01*
X2029533Y1912899D02*
X2087800D01*
X1990100Y1911999D02*
X2087800D01*
X1989939Y1911099D02*
X2087800D01*
X1989375Y1910199D02*
X2087800D01*
X1901900Y1909299D02*
X2087800D01*
X1911835Y1908399D02*
X2087800D01*
X2070667Y1907499D02*
X2087800D01*
X2071512Y1906599D02*
X2087800D01*
X2071899Y1905699D02*
X2087800D01*
X2071998Y1904799D02*
X2087800D01*
X2071839Y1903899D02*
X2087800D01*
X2071374Y1902999D02*
X2087800D01*
X2071125Y1902099D02*
X2087800D01*
X2071725Y1901199D02*
X2087800D01*
X2071975Y1900299D02*
X2087800D01*
X2071961Y1899399D02*
X2087800D01*
X2071677Y1898499D02*
X2087800D01*
X2071024Y1897599D02*
X2087800D01*
X2071447Y1896699D02*
X2087800D01*
X2071871Y1895799D02*
X2087800D01*
X2072000Y1894899D02*
X2087800D01*
X2071870Y1893999D02*
X2087800D01*
X2071445Y1893099D02*
X2087800D01*
X2071026Y1892199D02*
X2087800D01*
X2071678Y1891299D02*
X2087800D01*
X2071961Y1890399D02*
X2087800D01*
X2071975Y1889499D02*
X2087800D01*
X2071723Y1888599D02*
X2087800D01*
X2071123Y1887699D02*
X2087800D01*
X2071376Y1886799D02*
X2087800D01*
X2071840Y1885899D02*
X2087800D01*
X2071998Y1884999D02*
X2087800D01*
X2071898Y1884099D02*
X2087800D01*
X2071510Y1883199D02*
X2087800D01*
X2070664Y1882299D02*
X2087800D01*
X2009615Y1881399D02*
X2087800D01*
X2010592Y1880499D02*
X2087800D01*
X2010952Y1879599D02*
X2087800D01*
X2010969Y1878699D02*
X2087800D01*
X2010651Y1877799D02*
X2087800D01*
X2087276Y1876899D02*
X2087800D01*
X1911962Y2371899D02*
X2087497D01*
X2040192Y2367399D02*
X2086969D01*
X1901900Y2370999D02*
X2086375D01*
X2039215Y2368299D02*
X2086194D01*
X1901900Y2370099D02*
X2085970D01*
X1909505Y2369199D02*
X2085917D01*
X1998050Y2352099D02*
X2085003D01*
X2064069Y2356599D02*
X2084465D01*
X1996719Y2352999D02*
X2083877D01*
X2009784Y1876899D02*
X2083724D01*
X2063751Y2355699D02*
X2083693D01*
X1963092Y1873299D02*
X2083534D01*
X1913320Y2353899D02*
X2083470D01*
X2062884Y2354799D02*
X2083417D01*
X1965660Y1875999D02*
X2083099D01*
X1963004Y1874199D02*
X2083027D01*
X1962550Y1875099D02*
X2082902D01*
X2051505Y2059599D02*
X2081295D01*
X2043004Y2202699D02*
X2081264D01*
X2067083Y2192799D02*
X2081038D01*
X1941048Y2187399D02*
X2080940D01*
X2038103Y2182899D02*
X2080856D01*
X2025377Y2197299D02*
X2080774D01*
X2063751Y2207199D02*
X2080632D01*
X2052294Y2051499D02*
X2080506D01*
X2052306Y2069499D02*
X2080494D01*
X2072497Y2212599D02*
X2080175D01*
X2052661Y2041599D02*
X2080139D01*
X2052669Y2079399D02*
X2080131D01*
X2042550Y2203599D02*
X2080095D01*
X2066807Y2193699D02*
X2080026D01*
X1939710Y2186499D02*
X2079993D01*
X2033992Y2183799D02*
X2079963D01*
X2025940Y2196399D02*
X2079934D01*
X2062884Y2206299D02*
X2079880D01*
X2052936Y2121699D02*
X2079864D01*
X2052936Y2031699D02*
X2079864D01*
X2052943Y2089299D02*
X2079857D01*
X2041219Y2204499D02*
X2079676D01*
X2066035Y2194599D02*
X2079654D01*
X2032944Y2185599D02*
X2079644D01*
X2067083Y2111799D02*
X2079636D01*
X2033716Y2184699D02*
X2079635D01*
X2053169Y2099199D02*
X2079631D01*
X2026100Y2195499D02*
X2079627D01*
X2011098Y2205399D02*
X2079614D01*
X2053360Y2101899D02*
X2079440D01*
X2065497Y2109099D02*
X2079435D01*
X2073035Y2217099D02*
X2079418D01*
X2053533Y2091999D02*
X2079267D01*
X2053538Y2118999D02*
X2079262D01*
X2053689Y2082099D02*
X2079111D01*
X2053693Y2128899D02*
X2079107D01*
X2053693Y2038899D02*
X2079107D01*
X2053831Y2072199D02*
X2078969D01*
X2053835Y2048799D02*
X2078965D01*
X2073623Y2213499D02*
X2078944D01*
X2053962Y2062299D02*
X2078838D01*
X2053965Y2058699D02*
X2078835D01*
X2054082Y2052399D02*
X2078718D01*
X2054085Y2068599D02*
X2078715D01*
X2073807Y2216199D02*
X2078691D01*
X2054193Y2042499D02*
X2078607D01*
X2054196Y2078499D02*
X2078604D01*
X2074030Y2214399D02*
X2078511D01*
X2054297Y2122599D02*
X2078503D01*
X2054297Y2032599D02*
X2078503D01*
X2054300Y2088399D02*
X2078500D01*
X2074083Y2215299D02*
X2078438D01*
X2066807Y2112699D02*
X2078406D01*
X2054396Y2098299D02*
X2078404D01*
X2054484Y2102799D02*
X2078316D01*
X2054487Y2108199D02*
X2078313D01*
X2054569Y2092899D02*
X2078231D01*
X2054571Y2118099D02*
X2078229D01*
X2054649Y2082999D02*
X2078151D01*
X2054651Y2127999D02*
X2078149D01*
X2054651Y2037999D02*
X2078149D01*
X2054723Y2073099D02*
X2078077D01*
X2054725Y2047899D02*
X2078075D01*
X2054793Y2063199D02*
X2078007D01*
X2054795Y2057799D02*
X2078005D01*
X2054859Y2053299D02*
X2077941D01*
X2054861Y2067699D02*
X2077939D01*
X2054921Y2043399D02*
X2077879D01*
X2054922Y2077599D02*
X2077878D01*
X2054978Y2123499D02*
X2077822D01*
X2054978Y2033499D02*
X2077822D01*
X2054980Y2087499D02*
X2077820D01*
X2066035Y2113599D02*
X2077767D01*
X2055034Y2097399D02*
X2077766D01*
X2055083Y2103699D02*
X2077717D01*
X2055084Y2107299D02*
X2077716D01*
X2055130Y2093799D02*
X2077670D01*
X2055132Y2117199D02*
X2077668D01*
X2055174Y2083899D02*
X2077626D01*
X2055175Y2127099D02*
X2077625D01*
X2055175Y2037099D02*
X2077625D01*
X2055215Y2073999D02*
X2077585D01*
X2055216Y2046999D02*
X2077584D01*
X2055253Y2064099D02*
X2077547D01*
X2055254Y2056899D02*
X2077546D01*
X2055288Y2054199D02*
X2077512D01*
X2055289Y2066799D02*
X2077511D01*
X2067705Y2174799D02*
X2077495D01*
X2055320Y2044299D02*
X2077480D01*
X2055321Y2076699D02*
X2077479D01*
X2055349Y2124399D02*
X2077451D01*
X2055349Y2034399D02*
X2077451D01*
X2055350Y2086599D02*
X2077450D01*
X2055376Y2114499D02*
X2077424D01*
X2055377Y2096499D02*
X2077423D01*
X2055400Y2104599D02*
X2077400D01*
X2055400Y2106399D02*
X2077400D01*
X2055421Y2094699D02*
X2077379D01*
X2055421Y2116299D02*
X2077379D01*
X2055440Y2084799D02*
X2077360D01*
X2055440Y2126199D02*
X2077360D01*
X2055440Y2036199D02*
X2077360D01*
X2055456Y2074899D02*
X2077344D01*
X2055456Y2046099D02*
X2077344D01*
X2055469Y2064999D02*
X2077331D01*
X2055470Y2055999D02*
X2077330D01*
X2055480Y2055099D02*
X2077320D01*
X2055481Y2065899D02*
X2077319D01*
X2055489Y2045199D02*
X2077311D01*
X2055489Y2075799D02*
X2077311D01*
X2055495Y2125299D02*
X2077305D01*
X2055495Y2035299D02*
X2077305D01*
X2055495Y2085699D02*
X2077305D01*
X2055499Y2115399D02*
X2077301D01*
X2055499Y2095599D02*
X2077301D01*
X2055500Y2105499D02*
X2077300D01*
X2048409Y1992999D02*
X2076837D01*
X2068494Y2166699D02*
X2076706D01*
X2044416Y1992099D02*
X2076144D01*
X2044540Y1991199D02*
X2075908D01*
X2069364Y2136999D02*
X2075836D01*
X2069738Y2144199D02*
X2075462D01*
X2058281Y1941699D02*
X2075403D01*
X1910669Y2388999D02*
X2075281D01*
X2070165Y2173899D02*
X2075035D01*
X2070282Y2167599D02*
X2074918D01*
X2058834Y1933599D02*
X2074849D01*
X2070594Y2137899D02*
X2074606D01*
X2058736Y2008299D02*
X2074581D01*
X2070771Y2143299D02*
X2074429D01*
X2022901Y2384499D02*
X2074340D01*
X2070995Y2172999D02*
X2074205D01*
X2071059Y2168499D02*
X2074141D01*
X2071233Y2138799D02*
X2073967D01*
X2001083Y2388099D02*
X2073950D01*
X2059753Y1966899D02*
X2073931D01*
X2071332Y2142399D02*
X2073868D01*
X2071454Y2172099D02*
X2073746D01*
X2071488Y2169399D02*
X2073712D01*
X2067428Y2150499D02*
X2073678D01*
X2067430Y2154099D02*
X2073675D01*
X2022276Y2385399D02*
X2073645D01*
X2071576Y2139699D02*
X2073624D01*
X2071621Y2141499D02*
X2073579D01*
X2060117Y1959699D02*
X2073567D01*
X2059760Y1983099D02*
X2073557D01*
X2059765Y1990299D02*
X2073552D01*
X2071670Y2171199D02*
X2073530D01*
X2071680Y2170299D02*
X2073520D01*
X2071699Y2140599D02*
X2073501D01*
X2002968Y2387199D02*
X2073496D01*
X2003474Y2386299D02*
X2073408D01*
X2060560Y1940799D02*
X2073123D01*
X2067992Y2151399D02*
X2073114D01*
X2067993Y2153199D02*
X2073113D01*
X2060654Y1934499D02*
X2073029D01*
X2060353Y2015499D02*
X2072963D01*
X2068153Y2152299D02*
X2072953D01*
X2060493Y2009199D02*
X2072824D01*
X2060980Y1965999D02*
X2072704D01*
X2061153Y1960599D02*
X2072531D01*
X2060884Y1983999D02*
X2072432D01*
X2060887Y1989399D02*
X2072430D01*
X2061385Y1939899D02*
X2072299D01*
X2061436Y1935399D02*
X2072247D01*
X2061189Y2014599D02*
X2072128D01*
X2061617Y1965099D02*
X2072066D01*
X2061265Y2010099D02*
X2072052D01*
X2061714Y1961499D02*
X2071970D01*
X2061841Y1938999D02*
X2071843D01*
X2061483Y1984899D02*
X2071833D01*
X2061484Y1988499D02*
X2071832D01*
X2061868Y1936299D02*
X2071815D01*
X2061960Y1964199D02*
X2071723D01*
X2062004Y1962399D02*
X2071679D01*
X2061651Y2013699D02*
X2071666D01*
X2062054Y1938099D02*
X2071629D01*
X2061691Y2010999D02*
X2071625D01*
X2062063Y1937199D02*
X2071621D01*
X2062082Y1963299D02*
X2071601D01*
X2061800Y1985799D02*
X2071517D01*
X2061800Y1987599D02*
X2071516D01*
X2061868Y2012799D02*
X2071448D01*
X2061881Y2011899D02*
X2071435D01*
X2061900Y1986699D02*
X2071417D01*
X2056030Y2212599D02*
X2070503D01*
X2064083Y2155899D02*
X2070333D01*
X2064085Y2159499D02*
X2070330D01*
X2056069Y2217099D02*
X2069965D01*
X2064647Y2156799D02*
X2069769D01*
X2064648Y2158599D02*
X2069768D01*
X2064808Y2157699D02*
X2069608D01*
X2055625Y2213499D02*
X2069377D01*
X2055751Y2216199D02*
X2069193D01*
X2054503Y2214399D02*
X2068970D01*
X2054884Y2215299D02*
X2068917D01*
X2057705Y2174799D02*
X2067495D01*
X2065664Y1882299D02*
X2066936D01*
X2065667Y1907499D02*
X2066933D01*
X2058494Y2166699D02*
X2066706D01*
X2059364Y2136999D02*
X2065836D01*
X2055905Y2343999D02*
X2065695D01*
X2059738Y2144199D02*
X2065462D01*
X2060165Y2173899D02*
X2065035D01*
X2060282Y2167599D02*
X2064918D01*
X2056694Y2335899D02*
X2064906D01*
X2060594Y2137899D02*
X2064606D01*
X2057061Y2325999D02*
X2064539D01*
X2020000Y2230599D02*
X2064503D01*
X2060771Y2143299D02*
X2064429D01*
X2057336Y2316099D02*
X2064264D01*
X2060995Y2172999D02*
X2064205D01*
X2061059Y2168499D02*
X2064141D01*
X2057564Y2306199D02*
X2064036D01*
X2061233Y2138799D02*
X2063967D01*
X2056069Y2235099D02*
X2063965D01*
X2061332Y2142399D02*
X2063868D01*
X2061454Y2172099D02*
X2063746D01*
X2061488Y2169399D02*
X2063712D01*
X2061310Y2150499D02*
X2063678D01*
X2061312Y2154099D02*
X2063675D01*
X2057938Y2313399D02*
X2063662D01*
X2045468Y2265699D02*
X2063625D01*
X2061576Y2139699D02*
X2063624D01*
X1997377Y2269299D02*
X2063623D01*
X2061621Y2141499D02*
X2063579D01*
X2061670Y2171199D02*
X2063530D01*
X2061680Y2170299D02*
X2063520D01*
X2058093Y2323299D02*
X2063507D01*
X1964939Y2190099D02*
X2063503D01*
X2053365Y2109099D02*
X2063503D01*
X2061699Y2140599D02*
X2063501D01*
X2039660Y2231499D02*
X2063377D01*
X2058235Y2333199D02*
X2063365D01*
X2016715Y1931799D02*
X2063285D01*
X2058365Y2343099D02*
X2063235D01*
X2055751Y2234199D02*
X2063193D01*
X2058482Y2336799D02*
X2063118D01*
X2016884Y1927299D02*
X2063116D01*
X2061874Y2151399D02*
X2063114D01*
X2061875Y2153199D02*
X2063113D01*
X2043583Y2266599D02*
X2063061D01*
X1997940Y2268399D02*
X2063060D01*
X2058593Y2326899D02*
X2063007D01*
X2040355Y2232399D02*
X2062970D01*
X2025939Y2194599D02*
X2062965D01*
X2055033Y2113599D02*
X2062965D01*
X2062035Y2152299D02*
X2062953D01*
X2054884Y2233299D02*
X2062917D01*
X2058697Y2316999D02*
X2062903D01*
X1998100Y2267499D02*
X2062900D01*
X2058794Y2307099D02*
X2062806D01*
X2058971Y2312499D02*
X2062629D01*
X2018924Y2225199D02*
X2062625D01*
X2019893Y2228799D02*
X2062623D01*
X2059051Y2322399D02*
X2062549D01*
X2059125Y2332299D02*
X2062475D01*
X2059195Y2342199D02*
X2062405D01*
X2012210Y2190999D02*
X2062377D01*
X2037834Y2109999D02*
X2062377D01*
X2059259Y2337699D02*
X2062341D01*
X2017692Y1930899D02*
X2062308D01*
X2059321Y2327799D02*
X2062279D01*
X2017751Y1928199D02*
X2062249D01*
X2059378Y2317899D02*
X2062222D01*
X2025375Y2193699D02*
X2062193D01*
X2054394Y2112699D02*
X2062193D01*
X2059433Y2307999D02*
X2062167D01*
X2059532Y2311599D02*
X2062068D01*
X2019268Y2226099D02*
X2062061D01*
X2019749Y2227899D02*
X2062060D01*
X2059575Y2321499D02*
X2062025D01*
X2059616Y2331399D02*
X2061984D01*
X2013548Y2191899D02*
X2061970D01*
X2038164Y2110899D02*
X2061970D01*
X2018052Y1929999D02*
X2061948D01*
X2059654Y2341299D02*
X2061946D01*
X1961474Y1882299D02*
X2061936D01*
X1912725Y1907499D02*
X2061933D01*
X2018069Y1929099D02*
X2061931D01*
X2014004Y2192799D02*
X2061917D01*
X2053164Y2111799D02*
X2061917D01*
X2059688Y2338599D02*
X2061912D01*
X2019542Y2226999D02*
X2061900D01*
X2059720Y2328699D02*
X2061880D01*
X2059749Y2318799D02*
X2061851D01*
X2059776Y2308899D02*
X2061824D01*
X2059821Y2310699D02*
X2061779D01*
X2059840Y2320599D02*
X2061760D01*
X2059856Y2330499D02*
X2061744D01*
X2059870Y2340399D02*
X2061730D01*
X2059880Y2339499D02*
X2061720D01*
X2059889Y2329599D02*
X2061711D01*
X2059895Y2319699D02*
X2061705D01*
X2059899Y2309799D02*
X2061701D01*
X2057760Y2296299D02*
X2061700D01*
X2057765Y2303499D02*
X2061700D01*
X2058887Y2302599D02*
X2061700D01*
X2059484Y2301699D02*
X2061700D01*
X2059800Y2300799D02*
X2061700D01*
X2059900Y2299899D02*
X2061700D01*
X2059800Y2298999D02*
X2061700D01*
X2059483Y2298099D02*
X2061700D01*
X2058884Y2297199D02*
X2061700D01*
X2037035Y1897599D02*
X2061576D01*
X2020307Y1892199D02*
X2061574D01*
X2046004Y1887699D02*
X2061477D01*
X2031550Y1902099D02*
X2061475D01*
X2030219Y1902999D02*
X2061226D01*
X2046092Y1886799D02*
X2061224D01*
X2036497Y1893099D02*
X2061155D01*
X2037807Y1896699D02*
X2061153D01*
X1981875Y1883199D02*
X2061090D01*
X1913216Y1906599D02*
X2061088D01*
X2031160Y1898499D02*
X2060923D01*
X2020583Y1891299D02*
X2060922D01*
X2045550Y1888599D02*
X2060877D01*
X2032004Y1901199D02*
X2060875D01*
X1993776Y1903899D02*
X2060761D01*
X2045855Y1885899D02*
X2060760D01*
X2037623Y1893999D02*
X2060730D01*
X2038083Y1895799D02*
X2060729D01*
X1982439Y1884099D02*
X2060702D01*
X1913456Y1905699D02*
X2060701D01*
X2031855Y1899399D02*
X2060639D01*
X2020530Y1890399D02*
X2060639D01*
X2044219Y1889499D02*
X2060625D01*
X2032092Y1900299D02*
X2060625D01*
X1913489Y1904799D02*
X2060602D01*
X2045160Y1884999D02*
X2060602D01*
X2038030Y1894899D02*
X2060600D01*
X2054083Y2155899D02*
X2060333D01*
X2054085Y2159499D02*
X2060330D01*
X1987974Y2359299D02*
X2060285D01*
X2055806Y2210799D02*
X2060285D01*
X1975466Y2354799D02*
X2060116D01*
X2045466Y2206299D02*
X2060116D01*
X2054647Y2156799D02*
X2059769D01*
X2054648Y2158599D02*
X2059768D01*
X2054808Y2157699D02*
X2059608D01*
X1988098Y2358399D02*
X2059308D01*
X2055031Y2209899D02*
X2059308D01*
X1975973Y2355699D02*
X2059249D01*
X2045973Y2207199D02*
X2059249D01*
X1987899Y2357499D02*
X2058948D01*
X2045901Y2208999D02*
X2058948D01*
X1987273Y2356599D02*
X2058931D01*
X2046098Y2208099D02*
X2058931D01*
X2041972Y1941699D02*
X2057686D01*
X2047141Y2150499D02*
X2057560D01*
X2047797Y2154099D02*
X2057558D01*
X2047705Y2174799D02*
X2057495D01*
X2044030Y1933599D02*
X2057133D01*
X2047942Y2151399D02*
X2056996D01*
X2048189Y2153199D02*
X2056995D01*
X1911965Y2008299D02*
X2056864D01*
X2048230Y2152299D02*
X2056835D01*
X2048494Y2166699D02*
X2056706D01*
X2049445Y1966899D02*
X2056214D01*
X2043991Y1959699D02*
X2055850D01*
X2048608Y1983099D02*
X2055840D01*
X2049364Y2136999D02*
X2055836D01*
X2044342Y1990299D02*
X2055835D01*
X1913349Y2343999D02*
X2055695D01*
X2049738Y2144199D02*
X2055462D01*
X2041986Y1940799D02*
X2055407D01*
X2045504Y1934499D02*
X2055313D01*
X2049939Y2015499D02*
X2055247D01*
X2043474Y2009199D02*
X2055107D01*
X2050165Y2173899D02*
X2055035D01*
X2049865Y1965999D02*
X2054987D01*
X2050282Y2167599D02*
X2054918D01*
X1977517Y2335899D02*
X2054906D01*
X2044446Y1960599D02*
X2054814D01*
X2049551Y1983999D02*
X2054716D01*
X2043716Y1989399D02*
X2054713D01*
X2050594Y2137899D02*
X2054606D01*
X2041665Y1939899D02*
X2054582D01*
X1977163Y2325999D02*
X2054539D01*
X2045981Y1935399D02*
X2054531D01*
X2050771Y2143299D02*
X2054429D01*
X2049825Y2014599D02*
X2054411D01*
X2049928Y1965099D02*
X2054350D01*
X2044248Y2010099D02*
X2054335D01*
X1913377Y2316099D02*
X2054264D01*
X2044534Y1961499D02*
X2054253D01*
X2050995Y2172999D02*
X2054205D01*
X2051059Y2168499D02*
X2054141D01*
X2040790Y1938999D02*
X2054126D01*
X2049899Y1984899D02*
X2054117D01*
X1911693Y1988499D02*
X2054116D01*
X2046084Y1936299D02*
X2054099D01*
X1953904Y2306199D02*
X2054036D01*
X2049663Y1964199D02*
X2054007D01*
X2051233Y2138799D02*
X2053967D01*
X2044298Y1962399D02*
X2053963D01*
X2049334Y2013699D02*
X2053949D01*
X2045201Y1938099D02*
X2053913D01*
X2044524Y2010999D02*
X2053909D01*
X2045864Y1937199D02*
X2053904D01*
X2048914Y1963299D02*
X2053885D01*
X2051332Y2142399D02*
X2053868D01*
X1977840Y2296299D02*
X2053840D01*
X1964552Y2303499D02*
X2053835D01*
X2049906Y1985799D02*
X2053800D01*
X2048680Y1987599D02*
X2053800D01*
X2051454Y2172099D02*
X2053746D01*
X2047729Y2012799D02*
X2053732D01*
X2044472Y2011899D02*
X2053719D01*
X2051488Y2169399D02*
X2053712D01*
X2049576Y1986699D02*
X2053700D01*
X1913130Y2313399D02*
X2053662D01*
X2051576Y2139699D02*
X2053624D01*
X2051621Y2141499D02*
X2053579D01*
X2051670Y2171199D02*
X2053530D01*
X2051680Y2170299D02*
X2053520D01*
X1978004Y2323299D02*
X2053507D01*
X2051699Y2140599D02*
X2053501D01*
X2006388Y2333199D02*
X2053365D01*
X1912978Y2343099D02*
X2053235D01*
X1978494Y2336799D02*
X2053118D01*
X1913084Y2326899D02*
X2053007D01*
X1913034Y2316999D02*
X2052903D01*
X1953450Y2307099D02*
X2052806D01*
X1977277Y2297199D02*
X2052716D01*
X1964569Y2302599D02*
X2052713D01*
X1912569Y2312499D02*
X2052629D01*
X1977548Y2322399D02*
X2052549D01*
X2046069Y2214399D02*
X2052497D01*
X2007252Y2332299D02*
X2052475D01*
X1912297Y2342199D02*
X2052405D01*
X1978854Y2337699D02*
X2052341D01*
X2017876Y2237799D02*
X2052285D01*
X2014793Y2219799D02*
X2052285D01*
X1912487Y2327799D02*
X2052279D01*
X1912396Y2317899D02*
X2052222D01*
X1952119Y2307999D02*
X2052167D01*
X1930997Y2298099D02*
X2052117D01*
X2040592Y2233299D02*
X2052116D01*
X2045752Y2215299D02*
X2052116D01*
X1964251Y2301699D02*
X2052116D01*
X1911533Y2311599D02*
X2052068D01*
X1976210Y2321499D02*
X2052025D01*
X2007569Y2331399D02*
X2051984D01*
X2045276Y2209899D02*
X2051969D01*
X1910936Y2341299D02*
X2051946D01*
X1978871Y2338599D02*
X2051912D01*
X2006210Y2328699D02*
X2051880D01*
X1911169Y2318799D02*
X2051851D01*
X1910943Y2308899D02*
X2051824D01*
X1932123Y2298999D02*
X2051800D01*
X1963384Y2300799D02*
X2051800D01*
X1901900Y2310699D02*
X2051779D01*
X1901900Y2320599D02*
X2051760D01*
X2007551Y2330499D02*
X2051744D01*
X1977686Y2340399D02*
X2051730D01*
X1978553Y2339499D02*
X2051720D01*
X2007190Y2329599D02*
X2051711D01*
X1901900Y2319699D02*
X2051705D01*
X1901900Y2309799D02*
X2051701D01*
X1932530Y2299899D02*
X2051700D01*
X1959075Y2261199D02*
X2051625D01*
X2045974Y2264799D02*
X2051623D01*
X2046051Y2213499D02*
X2051375D01*
X2018401Y2236899D02*
X2051308D01*
X2013497Y2218899D02*
X2051308D01*
X2037541Y2059599D02*
X2051295D01*
X2040504Y2234199D02*
X2051249D01*
X2044888Y2216199D02*
X2051249D01*
X1961306Y2210799D02*
X2051194D01*
X2045273Y2262099D02*
X2051061D01*
X2046098Y2263899D02*
X2051060D01*
X2045690Y2212599D02*
X2050970D01*
X2038719Y2235999D02*
X2050948D01*
X2011755Y2217999D02*
X2050948D01*
X2040050Y2235099D02*
X2050931D01*
X2008716Y2217099D02*
X2050931D01*
X2044710Y2211699D02*
X2050917D01*
X2045899Y2262999D02*
X2050900D01*
X2038194Y2051499D02*
X2050506D01*
X2037447Y2069499D02*
X2050494D01*
X2044960Y2155899D02*
X2050333D01*
X2044962Y2159499D02*
X2050330D01*
X2038186Y2041599D02*
X2050139D01*
X2037342Y2079399D02*
X2050131D01*
X2048251Y2121699D02*
X2049864D01*
X2038263Y2031699D02*
X2049864D01*
X2037224Y2089299D02*
X2049857D01*
X2045524Y2156799D02*
X2049769D01*
X2045524Y2158599D02*
X2049768D01*
X2038157Y2111799D02*
X2049636D01*
X2037091Y2099199D02*
X2049631D01*
X1913033Y2423199D02*
X2049625D01*
X1913132Y2426799D02*
X2049623D01*
X2045685Y2157699D02*
X2049608D01*
X2038137Y2101899D02*
X2049440D01*
X2045535Y2109099D02*
X2049435D01*
X2043899Y2091999D02*
X2049267D01*
X2036753Y2118999D02*
X2049262D01*
X2038083Y2082099D02*
X2049111D01*
X2036524Y2128899D02*
X2049107D01*
X2036524Y2038899D02*
X2049107D01*
X1913376Y2424099D02*
X2049061D01*
X1913421Y2425899D02*
X2049060D01*
X2038050Y2072199D02*
X2048969D01*
X2036198Y2048799D02*
X2048965D01*
X1913499Y2424999D02*
X2048900D01*
X2038012Y2062299D02*
X2048838D01*
X2032607Y2058699D02*
X2048835D01*
X2037970Y2052399D02*
X2048718D01*
X2032646Y2068599D02*
X2048715D01*
X2037922Y2042499D02*
X2048607D01*
X2032792Y2078499D02*
X2048604D01*
X2037958Y2032599D02*
X2048503D01*
X2032709Y2088399D02*
X2048500D01*
X2037810Y2112699D02*
X2048406D01*
X2033005Y2098299D02*
X2048404D01*
X2037745Y2102799D02*
X2048316D01*
X2046307Y2108199D02*
X2048313D01*
X2044098Y2092899D02*
X2048231D01*
X2032772Y2118099D02*
X2048229D01*
X2037593Y2082999D02*
X2048151D01*
X2032785Y2127999D02*
X2048149D01*
X2032785Y2037999D02*
X2048149D01*
X2037505Y2073099D02*
X2048077D01*
X2038503Y2047899D02*
X2048075D01*
X2037407Y2063199D02*
X2048007D01*
X2038715Y2057799D02*
X2048005D01*
X2038884Y2053299D02*
X2047941D01*
X2032800Y2067699D02*
X2047939D01*
X2039031Y2043399D02*
X2047879D01*
X2032704Y2077599D02*
X2047878D01*
X2037122Y2033499D02*
X2047822D01*
X2032791Y2087499D02*
X2047820D01*
X2036868Y2113599D02*
X2047767D01*
X2032971Y2097399D02*
X2047766D01*
X2036670Y2103699D02*
X2047717D01*
X2046583Y2107299D02*
X2047716D01*
X2043974Y2093799D02*
X2047670D01*
X2032748Y2117199D02*
X2047668D01*
X2035996Y2083899D02*
X2047626D01*
X2032726Y2127099D02*
X2047625D01*
X2032726Y2037099D02*
X2047625D01*
X2032551Y2073999D02*
X2047585D01*
X2039625Y2046999D02*
X2047584D01*
X2013497Y2064099D02*
X2047547D01*
X2039692Y2056899D02*
X2047546D01*
X2039751Y2054199D02*
X2047512D01*
X2032633Y2066799D02*
X2047511D01*
X2025268Y2174799D02*
X2047495D01*
X2039806Y2044299D02*
X2047480D01*
X2032248Y2076699D02*
X2047479D01*
X1995250Y2034399D02*
X2047451D01*
X2032548Y2086599D02*
X2047450D01*
X1995221Y2114499D02*
X2047424D01*
X2032590Y2096499D02*
X2047423D01*
X2044997Y2104599D02*
X2047400D01*
X2046530Y2106399D02*
X2047400D01*
X2043468Y2094699D02*
X2047379D01*
X2032380Y2116299D02*
X2047379D01*
X2020466Y2084799D02*
X2047360D01*
X2032311Y2126199D02*
X2047360D01*
X2032311Y2036199D02*
X2047360D01*
X2032569Y2074899D02*
X2047344D01*
X2040030Y2046099D02*
X2047344D01*
X2014623Y2064999D02*
X2047331D01*
X2040052Y2055999D02*
X2047330D01*
X2040069Y2055099D02*
X2047320D01*
X2032060Y2065899D02*
X2047319D01*
X2040083Y2045199D02*
X2047311D01*
X2032252Y2075799D02*
X2047311D01*
X2047215Y2125299D02*
X2047305D01*
X2031158Y2035299D02*
X2047305D01*
X2031840Y2085699D02*
X2047305D01*
X2031379Y2115399D02*
X2047301D01*
X2041583Y2095599D02*
X2047301D01*
X2046123Y2105499D02*
X2047300D01*
X2044066Y2012799D02*
X2046955D01*
X2029355Y1957899D02*
X2046738D01*
X2010254Y2166699D02*
X2046706D01*
X2043992Y2002899D02*
X2046533D01*
X2031254Y1967799D02*
X2046414D01*
X2043909Y1992999D02*
X2046275D01*
X2008973Y1977699D02*
X2046186D01*
X2043818Y1983099D02*
X2046076D01*
X1990083Y1987599D02*
X2046003D01*
X2043717Y1973199D02*
X2045911D01*
X1912725Y1997499D02*
X2045849D01*
X2032699Y2136999D02*
X2045836D01*
X2043604Y1963299D02*
X2045770D01*
X1912795Y2007399D02*
X2045716D01*
X2043475Y1953399D02*
X2045646D01*
X2042592Y2017299D02*
X2045598D01*
X2043899Y1943499D02*
X2045536D01*
X2037694Y2144199D02*
X2045462D01*
X2041583Y1947099D02*
X2045400D01*
X2042943Y2013699D02*
X2045350D01*
X2028660Y1956999D02*
X2045315D01*
X2042658Y2003799D02*
X2045270D01*
X2031470Y1966899D02*
X2045239D01*
X2041994Y1993899D02*
X2045198D01*
X2008466Y1976799D02*
X2045170D01*
X1992399Y1983999D02*
X2045133D01*
X1991968Y1986699D02*
X2045107D01*
X1991190Y1974099D02*
X2045074D01*
X1913216Y1996599D02*
X2045050D01*
X2025768Y2173899D02*
X2045035D01*
X2030859Y1964199D02*
X2045020D01*
X1913254Y2006499D02*
X2045000D01*
X2005378Y1954299D02*
X2044973D01*
X2042355Y2016399D02*
X2044954D01*
X2044098Y1944399D02*
X2044930D01*
X2010702Y2167599D02*
X2044918D01*
X2043468Y1946199D02*
X2044877D01*
X1913469Y2014599D02*
X2044859D01*
X2017497Y1956099D02*
X2044846D01*
X1913480Y2004699D02*
X2044830D01*
X2031480Y1965999D02*
X2044819D01*
X1913489Y1994799D02*
X2044805D01*
X1991569Y1975899D02*
X2044796D01*
X2031158Y2125299D02*
X2044785D01*
X1992598Y1984899D02*
X2044785D01*
X1992474Y1985799D02*
X2044777D01*
X1991551Y1974999D02*
X2044768D01*
X1913456Y1995699D02*
X2044763D01*
X2031288Y1965099D02*
X2044756D01*
X1913470Y2005599D02*
X2044752D01*
X1961004Y1955199D02*
X2044747D01*
X2041660Y2015499D02*
X2044745D01*
X2043974Y1945299D02*
X2044743D01*
X2038145Y2120799D02*
X2044616D01*
X2032794Y2137899D02*
X2044606D01*
X2032876Y2154999D02*
X2044579D01*
X2038545Y2143299D02*
X2044429D01*
X2025887Y2172999D02*
X2044205D01*
X2038064Y2150499D02*
X2044163D01*
X2010786Y2168499D02*
X2044141D01*
X2032564Y2138799D02*
X2043967D01*
X2038856Y2142399D02*
X2043868D01*
X1995250Y2124399D02*
X2043808D01*
X2038174Y2121699D02*
X2043749D01*
X2025685Y2172099D02*
X2043746D01*
X2010544Y2169399D02*
X2043712D01*
X2037468Y2139699D02*
X2043624D01*
X2038833Y2141499D02*
X2043579D01*
X2025051Y2171199D02*
X2043530D01*
X2009840Y2170299D02*
X2043520D01*
X1964069Y2154099D02*
X2043506D01*
X2038466Y2140599D02*
X2043501D01*
X2037033Y2123499D02*
X2043448D01*
X2037869Y2122599D02*
X2043431D01*
X2027535Y2266599D02*
X2043417D01*
X2038199Y2151399D02*
X2043362D01*
X2037407Y2153199D02*
X2043115D01*
X2038012Y2152299D02*
X2043073D01*
X1995189Y2104599D02*
X2043003D01*
X2034030Y1933599D02*
X2042948D01*
X2020123Y1889499D02*
X2042781D01*
X2036936Y2109099D02*
X2042465D01*
X1961583Y2211699D02*
X2042290D01*
X1977973Y2216199D02*
X2042112D01*
X2040766Y2021799D02*
X2041917D01*
X1913320Y1993899D02*
X2041889D01*
X2031558Y2105499D02*
X2041877D01*
X1982600Y1884999D02*
X2041840D01*
X2035201Y1938099D02*
X2041777D01*
X2026997Y2262099D02*
X2041727D01*
X1960531Y2209899D02*
X2041724D01*
X2032755Y2108199D02*
X2041693D01*
X2010974Y2206299D02*
X2041534D01*
X2028307Y2265699D02*
X2041532D01*
X2035504Y1934499D02*
X2041474D01*
X2032442Y2106399D02*
X2041470D01*
X2018997Y1888599D02*
X2041450D01*
X2032766Y2107299D02*
X2041417D01*
X2016356Y1947099D02*
X2041417D01*
X2031549Y2095599D02*
X2041417D01*
X1961530Y2212599D02*
X2041310D01*
X1977466Y2215299D02*
X2041248D01*
X2029592Y1958799D02*
X2041229D01*
X1913288Y2003799D02*
X2041226D01*
X2034249Y2155899D02*
X2041210D01*
X2033887Y2159499D02*
X2041207D01*
X2036877Y2026299D02*
X2041148D01*
X1982440Y1885899D02*
X2041145D01*
X2035864Y1937199D02*
X2041113D01*
X2028123Y2262999D02*
X2041101D01*
X1956750Y2208999D02*
X2041099D01*
X2010468Y2207199D02*
X2041027D01*
X2028583Y2264799D02*
X2041026D01*
X2035981Y1935399D02*
X2040997D01*
X1912571Y1887699D02*
X2040996D01*
X1972160Y2213499D02*
X2040949D01*
X2013569Y1948899D02*
X2040943D01*
X1913253Y2013699D02*
X2040940D01*
X1972855Y2214399D02*
X2040931D01*
X1981877Y1886799D02*
X2040908D01*
X2028530Y2263899D02*
X2040902D01*
X2008583Y2208099D02*
X2040902D01*
X2036084Y1936299D02*
X2040894D01*
X1982358Y2397999D02*
X2040781D01*
X2040326Y2022699D02*
X2040680D01*
X2034710Y2156799D02*
X2040646D01*
X2034572Y2158599D02*
X2040645D01*
X2034803Y2157699D02*
X2040485D01*
X2037440Y2025399D02*
X2040423D01*
X1909505Y2009199D02*
X2040409D01*
X2005945Y1953399D02*
X2040408D01*
X1901900Y1999299D02*
X2040281D01*
X2030082Y1963299D02*
X2040280D01*
X2039063Y2023599D02*
X2040245D01*
X2037600Y2024499D02*
X2040171D01*
X1901900Y1989399D02*
X2040167D01*
X1990210Y1973199D02*
X2040166D01*
X2008901Y1979499D02*
X2040066D01*
X1991773Y1983099D02*
X2040065D01*
X2029965Y1969599D02*
X2039975D01*
X1912921Y1992999D02*
X2039974D01*
X2029504Y1959699D02*
X2039893D01*
X1912859Y2002899D02*
X2039892D01*
X1979509Y2393499D02*
X2039840D01*
X2013252Y1949799D02*
X2039818D01*
X1912793Y2012799D02*
X2039818D01*
X2010899Y2204499D02*
X2039781D01*
X2038190Y2091099D02*
X2039727D01*
X1901900Y2010099D02*
X2039635D01*
X2006108Y1952499D02*
X2039635D01*
X1901900Y2000199D02*
X2039586D01*
X2028294Y1962399D02*
X2039586D01*
X1901900Y1990299D02*
X2039542D01*
X1912394Y1972299D02*
X2039541D01*
X2016592Y1946199D02*
X2039532D01*
X2029973Y2094699D02*
X2039532D01*
X2008276Y1980399D02*
X2039503D01*
X1989015Y1982199D02*
X2039502D01*
X2027505Y1970499D02*
X2039468D01*
X1912193Y1992099D02*
X2039468D01*
X1982388Y2397099D02*
X2039450D01*
X2029050Y1960599D02*
X2039438D01*
X1912082Y2001999D02*
X2039438D01*
X2012388Y1950699D02*
X2039412D01*
X1911962Y2011899D02*
X2039412D01*
X1901900Y2010999D02*
X2039359D01*
X2005950Y1951599D02*
X2039359D01*
X1910294Y2001099D02*
X2039349D01*
X2027719Y1961499D02*
X2039349D01*
X1910661Y1991199D02*
X2039344D01*
X1911164Y1971399D02*
X2039344D01*
X1989254Y1981299D02*
X2039342D01*
X1981075Y2394399D02*
X2039145D01*
X2038112Y2091999D02*
X2039101D01*
X2016504Y1945299D02*
X2039026D01*
X2036413Y2093799D02*
X2039026D01*
X1982215Y2396199D02*
X2038996D01*
X1981811Y2395299D02*
X2038908D01*
X2016048Y1944399D02*
X2038902D01*
X2037673Y2092899D02*
X2038902D01*
X2036051Y2199999D02*
X2038840D01*
X2010273Y2203599D02*
X2038450D01*
X1913481Y2015499D02*
X2038340D01*
X2031465Y1943499D02*
X2038189D01*
X2036069Y2200899D02*
X2038145D01*
X2030294Y1938999D02*
X2038047D01*
X2034888Y2202699D02*
X2037996D01*
X2035752Y2201799D02*
X2037908D01*
X1913289Y2016399D02*
X2037645D01*
X1912085Y2018199D02*
X2037496D01*
X2037439Y2023599D02*
X2037445D01*
X1912861Y2017299D02*
X2037408D01*
X2018839Y2235999D02*
X2037281D01*
X2032128Y1942599D02*
X2037222D01*
X2031768Y1939899D02*
X2037172D01*
X2032348Y1941699D02*
X2036865D01*
X2032244Y1940799D02*
X2036851D01*
X1911965Y2368299D02*
X2036785D01*
X1910306Y2019099D02*
X2036628D01*
X1964752Y2363799D02*
X2036616D01*
X2033089Y2047899D02*
X2036497D01*
X1962855Y1872399D02*
X2036400D01*
X2016535Y1871499D02*
X2036400D01*
X2017307Y1870599D02*
X2036400D01*
X2017583Y1869699D02*
X2036400D01*
X2017530Y1868799D02*
X2036400D01*
X2017123Y1867899D02*
X2036400D01*
X2023163Y1866999D02*
X2036400D01*
X2023856Y1866099D02*
X2036400D01*
X2024092Y1865199D02*
X2036400D01*
X2024004Y1864299D02*
X2036400D01*
X2023548Y1863399D02*
X2036400D01*
X2022210Y1862499D02*
X2036400D01*
X2015500Y1861599D02*
X2036400D01*
X2015500Y1860699D02*
X2036400D01*
X2015500Y1859799D02*
X2036400D01*
X2025776Y1858899D02*
X2036400D01*
X2026401Y1857999D02*
X2036400D01*
X2026598Y1857099D02*
X2036400D01*
X2015500Y1851699D02*
X2036400D01*
X2015500Y1850799D02*
X2036400D01*
X2015500Y1849899D02*
X2036400D01*
X2015500Y1848999D02*
X2036400D01*
X2015500Y1848099D02*
X2036400D01*
X2015500Y1847199D02*
X2036400D01*
X2015500Y1846299D02*
X2036400D01*
X2015500Y1845399D02*
X2036400D01*
X2015500Y1844499D02*
X2036400D01*
X2015500Y1843599D02*
X2036400D01*
X2015500Y1842699D02*
X2036400D01*
X2015500Y1841799D02*
X2036400D01*
X2015500Y1840899D02*
X2036400D01*
X2015500Y1839999D02*
X2036400D01*
X2015500Y1839099D02*
X2036400D01*
X2015500Y1838199D02*
X2036400D01*
X2015500Y1837299D02*
X2036400D01*
X2015500Y1836399D02*
X2036400D01*
X2015500Y1835499D02*
X2036400D01*
X2015500Y1834599D02*
X2036400D01*
X2015500Y1833699D02*
X2036400D01*
X2015500Y1832799D02*
X2036400D01*
X2019963Y2231499D02*
X2036340D01*
X2032799Y2057799D02*
X2036285D01*
X2034503Y2182899D02*
X2036097D01*
X2019199Y2235099D02*
X2035950D01*
X1901900Y2019999D02*
X2035912D01*
X1912795Y2367399D02*
X2035808D01*
X1963888Y2364699D02*
X2035749D01*
X1911831Y2021799D02*
X2035742D01*
X2019273Y1852599D02*
X2035727D01*
X1901900Y2020899D02*
X2035664D01*
X2019867Y2232399D02*
X2035645D01*
X2035031Y2178399D02*
X2035569D01*
X2026473Y1856199D02*
X2035532D01*
X2019487Y2234199D02*
X2035496D01*
X1958663Y2366499D02*
X2035448D01*
X1959356Y2365599D02*
X2035431D01*
X2019709Y2233299D02*
X2035408D01*
X2032995Y2046999D02*
X2035375D01*
X2032668Y2056899D02*
X2035308D01*
X2032504Y2054199D02*
X2035249D01*
X1995356Y2083899D02*
X2035204D01*
X1995277Y2044299D02*
X2035194D01*
X2031882Y2139699D02*
X2035101D01*
X2019899Y1853499D02*
X2035101D01*
X2025966Y1855299D02*
X2035026D01*
X2032859Y2048799D02*
X2035002D01*
X2032531Y2046099D02*
X2034970D01*
X2032152Y2055999D02*
X2034948D01*
X2032050Y2055099D02*
X2034931D01*
X2031147Y2045199D02*
X2034917D01*
X2020098Y1854399D02*
X2034902D01*
X2007888Y2144199D02*
X2034875D01*
X2029466Y2093799D02*
X2034787D01*
X2032515Y2128899D02*
X2034676D01*
X2032515Y2038899D02*
X2034676D01*
X2033884Y2028999D02*
X2034537D01*
X1995381Y2103699D02*
X2034530D01*
X2019535Y1893099D02*
X2034503D01*
X2032462Y2118999D02*
X2034447D01*
X1995389Y2113599D02*
X2034332D01*
X2032402Y2109099D02*
X2034264D01*
X1995395Y2033499D02*
X2034256D01*
X1995395Y2123499D02*
X2034167D01*
X2032707Y2099199D02*
X2034109D01*
X2008690Y2140599D02*
X2034104D01*
X1950864Y2133399D02*
X2034026D01*
X1995399Y2043399D02*
X2034026D01*
X2008752Y2143299D02*
X2034024D01*
X2032263Y2089299D02*
X2033976D01*
X1912651Y1897599D02*
X2033965D01*
X2032592Y2053299D02*
X2033903D01*
X2032556Y2079399D02*
X2033858D01*
X1963751Y2153199D02*
X2033793D01*
X1995399Y2063199D02*
X2033793D01*
X2032092Y2069499D02*
X2033753D01*
X2009051Y2141499D02*
X2033736D01*
X2009069Y2142399D02*
X2033713D01*
X2032190Y2073099D02*
X2033695D01*
X2031993Y2149599D02*
X2033659D01*
X2031993Y2059599D02*
X2033659D01*
X1995389Y2082999D02*
X2033607D01*
X2032177Y2049699D02*
X2033575D01*
X1995380Y2092899D02*
X2033527D01*
X2033120Y2029899D02*
X2033518D01*
X2031756Y2129799D02*
X2033498D01*
X2031756Y2039799D02*
X2033498D01*
X1995369Y2102799D02*
X2033455D01*
X2031613Y2119899D02*
X2033429D01*
X1995340Y2032599D02*
X2033420D01*
X1995356Y2112699D02*
X2033390D01*
X1973625Y1893999D02*
X2033377D01*
X2031444Y2109999D02*
X2033366D01*
X1995340Y2122599D02*
X2033331D01*
X2031886Y2100099D02*
X2033310D01*
X1912569Y2132499D02*
X2033278D01*
X1995321Y2042499D02*
X2033278D01*
X2030972Y2090199D02*
X2033259D01*
X2032355Y2052399D02*
X2033230D01*
X2031863Y2080299D02*
X2033213D01*
X1913175Y1896699D02*
X2033193D01*
X1962884Y2152299D02*
X2033188D01*
X1995276Y2062299D02*
X2033188D01*
X1994197Y2070399D02*
X2033172D01*
X2031210Y2072199D02*
X2033150D01*
X1994549Y2030799D02*
X2033144D01*
X1951393Y2150499D02*
X2033136D01*
X1994294Y2060499D02*
X2033136D01*
X1912723Y2022699D02*
X2033125D01*
X1995220Y2082099D02*
X2033117D01*
X1995074Y2031699D02*
X2033115D01*
X2026309Y2050599D02*
X2033105D01*
X1995188Y2091999D02*
X2033088D01*
X1901900Y2130699D02*
X2033078D01*
X1994469Y2040699D02*
X2033078D01*
X1995153Y2101899D02*
X2033063D01*
X1994549Y2120799D02*
X2033055D01*
X1995115Y2111799D02*
X2033043D01*
X1994623Y2110899D02*
X2033036D01*
X1995074Y2121699D02*
X2033026D01*
X1994693Y2100999D02*
X2033021D01*
X1911533Y2131599D02*
X2033014D01*
X1995030Y2041599D02*
X2033014D01*
X1994759Y2091099D02*
X2033010D01*
X2031660Y2051499D02*
X2033006D01*
X1994821Y2081199D02*
X2033003D01*
X1911164Y2151399D02*
X2033001D01*
X1994933Y2061399D02*
X2033001D01*
X1994878Y2071299D02*
X2033000D01*
X1972503Y1894899D02*
X2032970D01*
X2024030Y1933599D02*
X2032948D01*
X1913440Y1895799D02*
X2032917D01*
X1913215Y2023599D02*
X2032561D01*
X2032543Y2025399D02*
X2032560D01*
X1913456Y2024499D02*
X2032400D01*
X1994969Y2198199D02*
X2032290D01*
X1912723Y2202699D02*
X2032112D01*
X2021345Y2178399D02*
X2031969D01*
X2025201Y1938099D02*
X2031777D01*
X1983160Y2154999D02*
X2031543D01*
X2025504Y1934499D02*
X2031474D01*
X1994652Y2199099D02*
X2031310D01*
X1911831Y2201799D02*
X2031248D01*
X1998932Y2179299D02*
X2031194D01*
X2025864Y1937199D02*
X2031113D01*
X2025981Y1935399D02*
X2030997D01*
X1993788Y2199999D02*
X2030949D01*
X1901900Y2200899D02*
X2030931D01*
X1998893Y2180199D02*
X2030917D01*
X2026084Y1936299D02*
X2030894D01*
X1975881Y2025399D02*
X2030600D01*
X2004052Y2159499D02*
X2030533D01*
X2010497Y2181099D02*
X2030412D01*
X1983855Y2155899D02*
X2030171D01*
X1993589Y2029899D02*
X2030023D01*
X2011035Y2185599D02*
X2029874D01*
X2004069Y2158599D02*
X2029848D01*
X1994934Y2045199D02*
X2029844D01*
X2002884Y2156799D02*
X2029709D01*
X2003751Y2157699D02*
X2029616D01*
X2002875Y2135199D02*
X2029549D01*
X1976753Y2026299D02*
X2029456D01*
X1993982Y2090199D02*
X2029428D01*
X2011623Y2181999D02*
X2029286D01*
X1976698Y2028999D02*
X2029259D01*
X1994880Y2125299D02*
X2029242D01*
X1994880Y2035299D02*
X2029242D01*
X2007604Y1938999D02*
X2029211D01*
X2011807Y2184699D02*
X2029102D01*
X1977072Y2027199D02*
X2029044D01*
X1994822Y2115399D02*
X2029021D01*
X1977056Y2028099D02*
X2028987D01*
X1993862Y2100099D02*
X2028973D01*
X1993731Y2109999D02*
X2028956D01*
X2012030Y2182899D02*
X2028879D01*
X1994761Y2105499D02*
X2028842D01*
X2012083Y2183799D02*
X2028826D01*
X2027423Y2049699D02*
X2028814D01*
X1995249Y2072199D02*
X2028790D01*
X1993589Y2119899D02*
X2028787D01*
X1994401Y1902999D02*
X2028781D01*
X1901900Y2129799D02*
X2028644D01*
X1993433Y2039799D02*
X2028644D01*
X2020973Y2085699D02*
X2028560D01*
X1994093Y2080299D02*
X2028537D01*
X2007710Y2139699D02*
X2028518D01*
X2026821Y2046099D02*
X2028460D01*
X1982817Y2149599D02*
X2028407D01*
X1993064Y2059599D02*
X2028407D01*
X2015030Y2065899D02*
X2028340D01*
X2025552Y2051499D02*
X2028340D01*
X1992836Y2069499D02*
X2028308D01*
X1989125Y2145999D02*
X2028248D01*
X1994387Y2055999D02*
X2028248D01*
X2003439Y2136099D02*
X2028164D01*
X1993593Y2076699D02*
X2028152D01*
X1909505Y2099199D02*
X2028151D01*
X1992194Y2089299D02*
X2028137D01*
X2027827Y2048799D02*
X2028132D01*
X1994200Y2126199D02*
X2028089D01*
X1994200Y2036199D02*
X2028089D01*
X2014710Y1943499D02*
X2028041D01*
X1994096Y2116299D02*
X2028020D01*
X1964569Y2109099D02*
X2027998D01*
X2027599Y2046999D02*
X2027996D01*
X1993985Y2106399D02*
X2027958D01*
X1994984Y2055099D02*
X2027950D01*
X1971163Y2118999D02*
X2027938D01*
X2027878Y2047899D02*
X2027902D01*
X1910943Y2128899D02*
X2027885D01*
X1974641Y2038899D02*
X2027885D01*
X1911965Y2098299D02*
X2027853D01*
X2021098Y2086599D02*
X2027852D01*
X1992561Y2079399D02*
X2027844D01*
X1911693Y1898499D02*
X2027840D01*
X2002877Y2138799D02*
X2027836D01*
X1995395Y2073099D02*
X2027810D01*
X1983922Y2148699D02*
X2027793D01*
X1911365Y2058699D02*
X2027793D01*
X2015083Y2066799D02*
X2027767D01*
X2014035Y2068599D02*
X2027754D01*
X1994551Y2075799D02*
X2027748D01*
X2008730Y1939899D02*
X2027738D01*
X1988003Y2146899D02*
X2027732D01*
X1993265Y2056899D02*
X2027732D01*
X2003600Y2136999D02*
X2027701D01*
X1912651Y2077599D02*
X2027696D01*
X2020276Y2088399D02*
X2027691D01*
X1992843Y2127099D02*
X2027674D01*
X1992843Y2037099D02*
X2027674D01*
X1992569Y2117199D02*
X2027652D01*
X1964251Y2108199D02*
X2027645D01*
X2025192Y2052399D02*
X2027645D01*
X1992206Y2107299D02*
X2027634D01*
X1971856Y2118099D02*
X2027628D01*
X1912300Y2127999D02*
X2027615D01*
X1974383Y2037999D02*
X2027615D01*
X2020901Y2087499D02*
X2027609D01*
X1911693Y2078499D02*
X2027608D01*
X2003440Y2137899D02*
X2027606D01*
X1984323Y2147799D02*
X2027601D01*
X1912487Y2057799D02*
X2027601D01*
X2014807Y2067699D02*
X2027600D01*
X1995300Y2054199D02*
X2027496D01*
X1994598Y1902099D02*
X2027450D01*
X1995340Y2073999D02*
X2027449D01*
X1995075Y2074899D02*
X2027431D01*
X2024215Y2053299D02*
X2027408D01*
X2008914Y1942599D02*
X2027377D01*
X1901900Y1970499D02*
X2027295D01*
X2009137Y1940799D02*
X2027261D01*
X2009190Y1941699D02*
X2027157D01*
X1901900Y1899399D02*
X2027145D01*
X1994473Y1901199D02*
X2026996D01*
X1993966Y1900299D02*
X2026908D01*
X2023548Y1962399D02*
X2026506D01*
X2022210Y1961499D02*
X2026281D01*
X1991405Y2097399D02*
X2025724D01*
X1994483Y1920099D02*
X2025631D01*
X1995370Y2093799D02*
X2025534D01*
X2018623Y1956999D02*
X2025340D01*
X1989940Y1912899D02*
X2025267D01*
X1993865Y2096499D02*
X2025099D01*
X1995154Y2094699D02*
X2025027D01*
X1959639Y2262099D02*
X2025003D01*
X2018035Y1960599D02*
X2024950D01*
X2016457Y2280099D02*
X2024917D01*
X1994695Y2095599D02*
X2024902D01*
X1933035Y1969599D02*
X2024835D01*
X2024004Y1963299D02*
X2024718D01*
X2019030Y1957899D02*
X2024645D01*
X2018807Y1959699D02*
X2024496D01*
X1997939Y2266599D02*
X2024465D01*
X2019083Y1958799D02*
X2024408D01*
X1994940Y1919199D02*
X2024404D01*
X1989377Y1913799D02*
X2024231D01*
X1933807Y1968699D02*
X2024005D01*
X1959800Y2262999D02*
X2023877D01*
X1994296Y2046099D02*
X2023770D01*
X1995030Y1918299D02*
X2023766D01*
X1997375Y2265699D02*
X2023693D01*
X1919004Y1914699D02*
X2023670D01*
X1934083Y1967799D02*
X2023546D01*
X1959640Y2263899D02*
X2023470D01*
X1994795Y1917399D02*
X2023423D01*
X1959077Y2264799D02*
X2023417D01*
X1918550Y1915599D02*
X2023379D01*
X1980276Y1966899D02*
X2023330D01*
X2023163Y1965999D02*
X2023320D01*
X1994103Y1916499D02*
X2023301D01*
X2018147Y2275599D02*
X2023227D01*
X2022529Y2175699D02*
X2023032D01*
X2018342Y2279199D02*
X2023032D01*
X1993069Y2046999D02*
X2022992D01*
X2011550Y1933599D02*
X2022948D01*
X1981733Y2047899D02*
X2022714D01*
X2018773Y2276499D02*
X2022601D01*
X2018848Y2278299D02*
X2022526D01*
X2018972Y2277399D02*
X2022402D01*
X2015500Y1858899D02*
X2022224D01*
X2019974Y1855299D02*
X2022034D01*
X1995400Y2053299D02*
X2021785D01*
X2005826Y1938099D02*
X2021777D01*
X2014092Y2193699D02*
X2021625D01*
X1994951Y2197299D02*
X2021623D01*
X1981781Y2048799D02*
X2021616D01*
X2015500Y1857999D02*
X2021599D01*
X1949205Y2171199D02*
X2021529D01*
X2019468Y1856199D02*
X2021527D01*
X2010219Y1934499D02*
X2021474D01*
X2017583Y1857099D02*
X2021402D01*
X2006087Y1937199D02*
X2021113D01*
X2013856Y2194599D02*
X2021061D01*
X1994590Y2196399D02*
X2021060D01*
X2005597Y1935399D02*
X2020997D01*
X2013163Y2195499D02*
X2020900D01*
X1912193Y2172099D02*
X2020895D01*
X2006021Y1936299D02*
X2020894D01*
X1995300Y2052399D02*
X2020808D01*
X2005901Y1961499D02*
X2020790D01*
X2015500Y1862499D02*
X2020790D01*
X1993260Y2049699D02*
X2020749D01*
X1912921Y2172999D02*
X2020692D01*
X2020504Y2288199D02*
X2020562D01*
X1994983Y2051499D02*
X2020448D01*
X1994384Y2050599D02*
X2020431D01*
X1980901Y1965999D02*
X2019837D01*
X2015997Y1866999D02*
X2019837D01*
X1913253Y2283699D02*
X2019641D01*
X2005276Y1962399D02*
X2019452D01*
X2015500Y1863399D02*
X2019452D01*
X1910661Y2441199D02*
X2019290D01*
X1981098Y1965099D02*
X2019144D01*
X1962600Y1866099D02*
X2019144D01*
X1913456Y2445699D02*
X2019112D01*
X1987360Y1963299D02*
X2018996D01*
X2015500Y1864299D02*
X2018996D01*
X1992273Y2284599D02*
X2018942D01*
X1986789Y1964199D02*
X2018908D01*
X2015500Y1865199D02*
X2018908D01*
X1951662Y2173899D02*
X2018744D01*
X2003598Y2385399D02*
X2018724D01*
X1998640Y2178399D02*
X2018607D01*
X1981822Y2381799D02*
X2018534D01*
X1912193Y2442099D02*
X2018310D01*
X1913489Y2444799D02*
X2018248D01*
X2003399Y2384499D02*
X2018099D01*
X1981096Y2382699D02*
X2018027D01*
X1912921Y2442999D02*
X2017949D01*
X1913320Y2443899D02*
X2017931D01*
X2002773Y2383599D02*
X2017902D01*
X1952493Y2174799D02*
X2017778D01*
X1997832Y2177499D02*
X2017730D01*
X1994043Y2175699D02*
X2017422D01*
X2015500Y1857099D02*
X2017417D01*
X1994933Y2176599D02*
X2017408D01*
X1999100Y2289999D02*
X2017281D01*
X1911538Y1888599D02*
X2017003D01*
X1911835Y2088399D02*
X2016724D01*
X1995116Y2084799D02*
X2016534D01*
X1974030Y1893099D02*
X2016465D01*
X1992899Y2285499D02*
X2016340D01*
X2015530Y2280099D02*
X2016291D01*
X1977105Y2087499D02*
X2016099D01*
X1994625Y2085699D02*
X2016027D01*
X1998939Y2289099D02*
X2015950D01*
X1993735Y2086599D02*
X2015902D01*
X1901900Y1889499D02*
X2015877D01*
X2015500Y1852599D02*
X2015727D01*
X1974083Y1892199D02*
X2015693D01*
X1993098Y2286399D02*
X2015645D01*
X2015500Y1856199D02*
X2015532D01*
X1960550Y1956099D02*
X2015503D01*
X1998375Y2288199D02*
X2015496D01*
X1973031Y1890399D02*
X2015470D01*
X1973806Y1891299D02*
X2015417D01*
X1992974Y2287299D02*
X2015408D01*
X2006098Y1960599D02*
X2014965D01*
X2001525Y2275599D02*
X2014601D01*
X1959219Y1956999D02*
X2014377D01*
X2012092Y1931799D02*
X2014285D01*
X2005973Y1959699D02*
X2014193D01*
X1912861Y1927299D02*
X2014116D01*
X1962600Y1866999D02*
X2014003D01*
X2002151Y2276499D02*
X2013975D01*
X1960010Y1957899D02*
X2013970D01*
X2005466Y1958799D02*
X2013917D01*
X1962600Y1871499D02*
X2013465D01*
X2011855Y1930899D02*
X2013308D01*
X2008142Y1943499D02*
X2013290D01*
X1969355Y1928199D02*
X2013249D01*
X2011160Y1929999D02*
X2012948D01*
X1984563Y1929099D02*
X2012931D01*
X1962600Y1867899D02*
X2012877D01*
X1962600Y1870599D02*
X2012693D01*
X1962600Y1868799D02*
X2012470D01*
X1962600Y1869699D02*
X2012417D01*
X1911962Y2281899D02*
X2011997D01*
X1962743Y1944399D02*
X2011952D01*
X1995321Y2064099D02*
X2011503D01*
X1963023Y1945299D02*
X2011496D01*
X2002350Y2277399D02*
X2011469D01*
X1984569Y2068599D02*
X2010965D01*
X1994415Y2280999D02*
X2010875D01*
X1985710Y2190999D02*
X2010790D01*
X2002226Y2278299D02*
X2010694D01*
X1999835Y2280099D02*
X2010470D01*
X2001720Y2279199D02*
X2010417D01*
X1995032Y2064999D02*
X2010377D01*
X1984251Y2067699D02*
X2010193D01*
X1994471Y2065899D02*
X2009970D01*
X1993438Y2066799D02*
X2009917D01*
X1994325Y2195499D02*
X2009837D01*
X1962973Y1946199D02*
X2009790D01*
X2005391Y1950699D02*
X2009612D01*
X1993731Y2191899D02*
X2009452D01*
X1994730Y2194599D02*
X2009144D01*
X1994506Y2192799D02*
X2008996D01*
X1994783Y2193699D02*
X2008908D01*
X1962570Y1947099D02*
X2008810D01*
X2004406Y1934499D02*
X2008781D01*
X1901900Y1949799D02*
X2008748D01*
X1998505Y2181099D02*
X2008503D01*
X1961460Y1947999D02*
X2008449D01*
X1944293Y1948899D02*
X2008431D01*
X1956607Y2208099D02*
X2008417D01*
X1997008Y2185599D02*
X2007965D01*
X1985540Y1929999D02*
X2007840D01*
X1993690Y1933599D02*
X2007450D01*
X2007103Y2165799D02*
X2007435D01*
X1997727Y2181999D02*
X2007377D01*
X1997836Y2184699D02*
X2007193D01*
X1961598Y1881399D02*
X2007185D01*
X1985899Y1930899D02*
X2007145D01*
X1966355Y1876899D02*
X2007016D01*
X1992710Y1932699D02*
X2006996D01*
X1998106Y2182899D02*
X2006970D01*
X1998137Y2183799D02*
X2006917D01*
X1985916Y1931799D02*
X2006908D01*
X1913215Y2203599D02*
X2006727D01*
X1986571Y2170299D02*
X2006549D01*
X1956072Y2207199D02*
X2006532D01*
X1985598Y2244099D02*
X2006210D01*
X1964719Y1880499D02*
X2006208D01*
X1966592Y1877799D02*
X2006149D01*
X1913456Y2204499D02*
X2006101D01*
X1940384Y2206299D02*
X2006026D01*
X1913489Y2205399D02*
X2005902D01*
X1966050Y1879599D02*
X2005848D01*
X1988210Y2169399D02*
X2005845D01*
X1966504Y1878699D02*
X2005831D01*
X1988819Y2167599D02*
X2005687D01*
X2005083Y1938999D02*
X2005610D01*
X1988704Y2168499D02*
X2005603D01*
X1952271Y2139699D02*
X2005290D01*
X1989583Y2144199D02*
X2005112D01*
X1961963Y1943499D02*
X2005072D01*
X1989168Y1980399D02*
X2004724D01*
X1912297Y2162199D02*
X2004574D01*
X1991252Y1976799D02*
X2004534D01*
X1971683Y1939899D02*
X2004484D01*
X1951238Y2140599D02*
X2004310D01*
X1962599Y1942599D02*
X2004300D01*
X1989306Y2143299D02*
X2004248D01*
X1988718Y1979499D02*
X2004099D01*
X1978098Y2217099D02*
X2004084D01*
X1971407Y1940799D02*
X2004077D01*
X1990388Y1977699D02*
X2004027D01*
X1970635Y1941699D02*
X2004024D01*
X1911360Y2141499D02*
X2003949D01*
X1988531Y2142399D02*
X2003931D01*
X1987402Y1978599D02*
X2003902D01*
X1911365Y2328699D02*
X2003790D01*
X1971864Y2333199D02*
X2003612D01*
X1988612Y2166699D02*
X2002933D01*
X1970890Y2329599D02*
X2002810D01*
X1972193Y2332299D02*
X2002748D01*
X1949994Y2163099D02*
X2002734D01*
X1994051Y1934499D02*
X2002594D01*
X1971836Y2330499D02*
X2002449D01*
X1972185Y2331399D02*
X2002431D01*
X1987972Y2165799D02*
X2002306D01*
X1970360Y2163999D02*
X2002230D01*
X1971055Y2164899D02*
X2002107D01*
X1971630Y1938999D02*
X2001917D01*
X1987525Y1962399D02*
X2001724D01*
X1961092Y1954299D02*
X2001639D01*
X1950132Y1950699D02*
X2001625D01*
X1960798Y1958799D02*
X2001534D01*
X1985473Y2243199D02*
X2001531D01*
X1994069Y1935399D02*
X2001403D01*
X1971223Y1938099D02*
X2001174D01*
X1987369Y1961499D02*
X2001099D01*
X1960855Y1953399D02*
X2001072D01*
X1950844Y1951599D02*
X2001066D01*
X1977901Y2217999D02*
X2001045D01*
X1961081Y1959699D02*
X2001027D01*
X1993752Y1936299D02*
X2000979D01*
X1912196Y2388099D02*
X2000917D01*
X1992888Y1937199D02*
X2000913D01*
X1960160Y1952499D02*
X2000908D01*
X1986814Y1960599D02*
X2000902D01*
X1962600Y1865199D02*
X2000900D01*
X1962600Y1864299D02*
X2000900D01*
X1962600Y1863399D02*
X2000900D01*
X1962600Y1862499D02*
X2000900D01*
X1962600Y1861599D02*
X2000900D01*
X1962600Y1860699D02*
X2000900D01*
X1962600Y1859799D02*
X2000900D01*
X1986621Y1858899D02*
X2000900D01*
X1988030Y1857999D02*
X2000900D01*
X1990083Y1857099D02*
X2000900D01*
X1962600Y1851699D02*
X2000900D01*
X1962600Y1850799D02*
X2000900D01*
X1962600Y1849899D02*
X2000900D01*
X1962600Y1848999D02*
X2000900D01*
X1962600Y1848099D02*
X2000900D01*
X1962600Y1847199D02*
X2000900D01*
X1962600Y1846299D02*
X2000900D01*
X1962600Y1845399D02*
X2000900D01*
X1962600Y1844499D02*
X2000900D01*
X1962600Y1843599D02*
X2000900D01*
X1962600Y1842699D02*
X2000900D01*
X1962600Y1841799D02*
X2000900D01*
X1962600Y1840899D02*
X2000900D01*
X1962600Y1839999D02*
X2000900D01*
X1962600Y1839099D02*
X2000900D01*
X1962600Y1838199D02*
X2000900D01*
X1962600Y1837299D02*
X2000900D01*
X1962600Y1836399D02*
X2000900D01*
X1962600Y1835499D02*
X2000900D01*
X1962600Y1834599D02*
X2000900D01*
X1962600Y1833699D02*
X2000900D01*
X1962600Y1832799D02*
X2000900D01*
X1910936Y2161299D02*
X2000285D01*
X1991773Y1852599D02*
X2000227D01*
X1984092Y2156799D02*
X2000116D01*
X1991968Y1856199D02*
X2000032D01*
X1995392Y2280099D02*
X1999668D01*
X1984966Y2242299D02*
X1999636D01*
X1992399Y1853499D02*
X1999601D01*
X1992474Y1855299D02*
X1999526D01*
X1992598Y1854399D02*
X1999402D01*
X1951535Y2160399D02*
X1999308D01*
X1977276Y2218899D02*
X1999303D01*
X1984004Y2157699D02*
X1999249D01*
X1979569Y2383599D02*
X1999227D01*
X1952733Y2135199D02*
X1999125D01*
X1952832Y2138799D02*
X1999123D01*
X1912922Y2387199D02*
X1999032D01*
X1982219Y2159499D02*
X1998948D01*
X1983550Y2158599D02*
X1998931D01*
X1913456Y2384499D02*
X1998601D01*
X1953076Y2136099D02*
X1998561D01*
X1953121Y2137899D02*
X1998560D01*
X1913321Y2386299D02*
X1998526D01*
X1913489Y2385399D02*
X1998402D01*
X1953199Y2136999D02*
X1998400D01*
X1971686Y2241399D02*
X1998265D01*
X1941592Y2219799D02*
X1998007D01*
X1984885Y2275599D02*
X1997978D01*
X1995752Y2279199D02*
X1997783D01*
X1994584Y2276499D02*
X1997352D01*
X1995769Y2278299D02*
X1997277D01*
X1971751Y2240499D02*
X1997181D01*
X1995451Y2277399D02*
X1997154D01*
X1941504Y2220699D02*
X1996972D01*
X1971488Y2239599D02*
X1996292D01*
X1941050Y2221599D02*
X1996118D01*
X1970743Y2238699D02*
X1995549D01*
X1939719Y2222499D02*
X1995403D01*
X1912921Y2352999D02*
X1995281D01*
X1956760Y2237799D02*
X1994924D01*
X1933940Y2223399D02*
X1994801D01*
X1992468Y2288199D02*
X1994625D01*
X1979864Y2291799D02*
X1994623D01*
X1971102Y2236899D02*
X1994399D01*
X1970052Y2348499D02*
X1994340D01*
X1933377Y2224299D02*
X1994296D01*
X1988068Y2181099D02*
X1994203D01*
X1913470Y2185599D02*
X1994116D01*
X1990583Y2289099D02*
X1994061D01*
X1979544Y2290899D02*
X1994060D01*
X1971627Y2235999D02*
X1993961D01*
X1912193Y2352099D02*
X1993950D01*
X1978672Y2289999D02*
X1993900D01*
X1953210Y2225199D02*
X1993876D01*
X1969692Y2349399D02*
X1993645D01*
X1913456Y2265699D02*
X1993625D01*
X1969170Y2269299D02*
X1993623D01*
X1971764Y2235099D02*
X1993601D01*
X1954190Y2226099D02*
X1993532D01*
X1910661Y2351199D02*
X1993496D01*
X1968715Y2350299D02*
X1993408D01*
X1986651Y2181999D02*
X1993397D01*
X1971578Y2234199D02*
X1993313D01*
X1985488Y2184699D02*
X1993288D01*
X1954551Y2226999D02*
X1993258D01*
X1973999Y2233299D02*
X1993091D01*
X1913216Y2266599D02*
X1993061D01*
X1968856Y2268399D02*
X1993060D01*
X1954569Y2227899D02*
X1993051D01*
X1986669Y2182899D02*
X1993019D01*
X1986352Y2183799D02*
X1992987D01*
X1975036Y2232399D02*
X1992933D01*
X1974328Y2228799D02*
X1992907D01*
X1967998Y2267499D02*
X1992900D01*
X1975416Y2231499D02*
X1992837D01*
X1975151Y2229699D02*
X1992824D01*
X1975450Y2230599D02*
X1992800D01*
X1913084Y2416899D02*
X1992724D01*
X1913083Y2413299D02*
X1992534D01*
X1913400Y2415999D02*
X1992099D01*
X1913400Y2414199D02*
X1992027D01*
X1901900Y2280999D02*
X1991985D01*
X1913500Y2415099D02*
X1991902D01*
X1985511Y2276499D02*
X1991816D01*
X1975401Y1920999D02*
X1991736D01*
X1988571Y2180199D02*
X1991439D01*
X1952953Y2175699D02*
X1991348D01*
X1977906Y2097399D02*
X1991195D01*
X1971170Y2199999D02*
X1991012D01*
X1983195Y2280099D02*
X1991008D01*
X1985710Y2277399D02*
X1990949D01*
X1985710Y1916499D02*
X1990771D01*
X1987048Y2191899D02*
X1990669D01*
X1985080Y2279199D02*
X1990648D01*
X1985586Y2278299D02*
X1990631D01*
X1988693Y2179299D02*
X1990490D01*
X1953169Y2176599D02*
X1990458D01*
X1910306Y2289099D02*
X1990417D01*
X1901900Y2089299D02*
X1990406D01*
X1978269Y2107299D02*
X1990394D01*
X1985890Y1920099D02*
X1990391D01*
X1985598Y1932699D02*
X1990290D01*
X1913320Y1903899D02*
X1990224D01*
X1970998Y2196399D02*
X1990210D01*
X1971682Y2199099D02*
X1990148D01*
X1988493Y2178399D02*
X1990140D01*
X1987864Y2177499D02*
X1990130D01*
X1970097Y1937199D02*
X1990112D01*
X1986331Y1917399D02*
X1990079D01*
X1986663Y2195499D02*
X1990075D01*
X1977894Y2079399D02*
X1990039D01*
X1901900Y1900299D02*
X1990034D01*
X1978543Y2117199D02*
X1990031D01*
X1986400Y1919199D02*
X1989934D01*
X1988497Y1857099D02*
X1989917D01*
X1983583Y1987599D02*
X1989917D01*
X1987504Y2192799D02*
X1989894D01*
X1971616Y2197299D02*
X1989849D01*
X1986527Y1918299D02*
X1989844D01*
X1971810Y2198199D02*
X1989831D01*
X1984552Y2069499D02*
X1989764D01*
X1978769Y2127099D02*
X1989757D01*
X1978769Y2037099D02*
X1989757D01*
X1987356Y2194599D02*
X1989670D01*
X1987592Y2193699D02*
X1989617D01*
X1912921Y1902999D02*
X1989599D01*
X1978536Y2059599D02*
X1989536D01*
X1981334Y2046999D02*
X1989531D01*
X1910661Y1901199D02*
X1989527D01*
X1912193Y1902099D02*
X1989402D01*
X1981499Y2049699D02*
X1989340D01*
X1979138Y2056899D02*
X1989335D01*
X1984731Y1933599D02*
X1989310D01*
X1977215Y1936299D02*
X1989248D01*
X1978960Y2039799D02*
X1989167D01*
X1983384Y2066799D02*
X1989162D01*
X1979133Y2119899D02*
X1989011D01*
X1979133Y2029899D02*
X1989011D01*
X1979435Y2076699D02*
X1989007D01*
X1978552Y1934499D02*
X1988949D01*
X1978192Y1935399D02*
X1988931D01*
X1979289Y2109999D02*
X1988869D01*
X1979565Y2086599D02*
X1988865D01*
X1979431Y2100099D02*
X1988738D01*
X1979685Y2096499D02*
X1988735D01*
X1913469Y2284599D02*
X1988727D01*
X1979562Y2090199D02*
X1988618D01*
X1979796Y2106399D02*
X1988615D01*
X1912085Y2288199D02*
X1988532D01*
X1979682Y2080299D02*
X1988507D01*
X1979900Y2116299D02*
X1988504D01*
X1984192Y2070399D02*
X1988403D01*
X1979996Y2126199D02*
X1988400D01*
X1979996Y2036199D02*
X1988400D01*
X1979897Y2060499D02*
X1988306D01*
X1980235Y2046099D02*
X1988304D01*
X1984273Y1852599D02*
X1988227D01*
X1980713Y2050599D02*
X1988216D01*
X1980171Y2055999D02*
X1988213D01*
X1980084Y2040699D02*
X1988131D01*
X1980251Y2065899D02*
X1988129D01*
X1913481Y2285499D02*
X1988101D01*
X1980169Y2120799D02*
X1988051D01*
X1980169Y2030799D02*
X1988051D01*
X1980325Y2075799D02*
X1988049D01*
X1985468Y1986699D02*
X1988032D01*
X1912861Y2287299D02*
X1988026D01*
X1980249Y2110899D02*
X1987977D01*
X1980395Y2085699D02*
X1987975D01*
X1980323Y2100999D02*
X1987907D01*
X1980461Y2095599D02*
X1987905D01*
X1913289Y2286399D02*
X1987902D01*
X1980393Y2091099D02*
X1987841D01*
X1980522Y2105499D02*
X1987839D01*
X1976950Y1973199D02*
X1987790D01*
X1980459Y2081199D02*
X1987779D01*
X1980580Y2115399D02*
X1987778D01*
X1983215Y2071299D02*
X1987722D01*
X1980634Y2125299D02*
X1987720D01*
X1980634Y2035299D02*
X1987720D01*
X1980578Y2061399D02*
X1987667D01*
X1980684Y2045199D02*
X1987666D01*
X1980633Y2051499D02*
X1987617D01*
X1980732Y2055099D02*
X1987616D01*
X1984294Y1977699D02*
X1987612D01*
X1984899Y1853499D02*
X1987601D01*
X1985899Y1983999D02*
X1987601D01*
X1980683Y2041599D02*
X1987570D01*
X1980775Y2064999D02*
X1987568D01*
X1985974Y1985799D02*
X1987526D01*
X1980730Y2121699D02*
X1987526D01*
X1980730Y2031699D02*
X1987526D01*
X1980816Y2074899D02*
X1987525D01*
X1980774Y2111799D02*
X1987485D01*
X1980854Y2084799D02*
X1987484D01*
X1980815Y2101899D02*
X1987447D01*
X1980889Y2094699D02*
X1987446D01*
X1980853Y2091999D02*
X1987412D01*
X1980921Y2104599D02*
X1987411D01*
X1986098Y1984899D02*
X1987402D01*
X1980888Y2082099D02*
X1987380D01*
X1980950Y2114499D02*
X1987379D01*
X1980920Y2072199D02*
X1987351D01*
X1980977Y2124399D02*
X1987350D01*
X1980977Y2034399D02*
X1987350D01*
X1980949Y2062299D02*
X1987324D01*
X1981000Y2044299D02*
X1987323D01*
X1980976Y2052399D02*
X1987300D01*
X1981021Y2054199D02*
X1987300D01*
X1981000Y2042499D02*
X1987279D01*
X1981040Y2064099D02*
X1987279D01*
X1981021Y2122599D02*
X1987260D01*
X1981021Y2032599D02*
X1987260D01*
X1981056Y2073999D02*
X1987260D01*
X1981040Y2112699D02*
X1987244D01*
X1981070Y2083899D02*
X1987244D01*
X1981056Y2102799D02*
X1987231D01*
X1981081Y2093799D02*
X1987230D01*
X1981069Y2092899D02*
X1987220D01*
X1981089Y2103699D02*
X1987219D01*
X1981080Y2082999D02*
X1987211D01*
X1981095Y2113599D02*
X1987211D01*
X1981089Y2073099D02*
X1987205D01*
X1981099Y2123499D02*
X1987205D01*
X1981099Y2033499D02*
X1987205D01*
X1981095Y2063199D02*
X1987201D01*
X1981100Y2043399D02*
X1987201D01*
X1981099Y2053299D02*
X1987200D01*
X1977649Y1974099D02*
X1986810D01*
X1984169Y1976799D02*
X1986748D01*
X1977887Y1974999D02*
X1986449D01*
X1983662Y1975899D02*
X1986431D01*
X1984372Y2146899D02*
X1985997D01*
X1984096Y1978599D02*
X1985922D01*
X1951665Y2170299D02*
X1985873D01*
X1901900Y1910199D02*
X1985625D01*
X1919092Y1913799D02*
X1985623D01*
X1912484Y2142399D02*
X1985469D01*
X1964690Y2361099D02*
X1985417D01*
X1962600Y1858899D02*
X1985379D01*
X1910294Y1911099D02*
X1985061D01*
X1918855Y1912899D02*
X1985060D01*
X1918160Y1911999D02*
X1984900D01*
X1984091Y2145999D02*
X1984875D01*
X1950636Y2143299D02*
X1984694D01*
X1983472Y1979499D02*
X1984607D01*
X1971292Y2165799D02*
X1984473D01*
X1983308Y2145099D02*
X1984470D01*
X1951997Y2144199D02*
X1984417D01*
X1980870Y2177499D02*
X1984327D01*
X1912297Y1982199D02*
X1984310D01*
X1978710Y2190999D02*
X1984290D01*
X1952495Y2169399D02*
X1984235D01*
X1974003Y1980399D02*
X1984156D01*
X1910936Y1981299D02*
X1984071D01*
X1962600Y1857999D02*
X1983970D01*
X1971204Y2166699D02*
X1983832D01*
X1969419Y2168499D02*
X1983741D01*
X1976098Y2356599D02*
X1983727D01*
X1981860Y2178399D02*
X1983698D01*
X1970750Y2167599D02*
X1983625D01*
X1963710Y2360199D02*
X1983532D01*
X1982583Y1857099D02*
X1983503D01*
X1982224Y2179299D02*
X1983498D01*
X1912651Y1987599D02*
X1983417D01*
X1979663Y2195499D02*
X1983337D01*
X1975901Y2357499D02*
X1983101D01*
X1980973Y1964199D02*
X1983062D01*
X1961034Y1960599D02*
X1983036D01*
X1979063Y2280099D02*
X1983029D01*
X1959252Y2359299D02*
X1983026D01*
X1980048Y2191899D02*
X1982952D01*
X1975276Y2358399D02*
X1982902D01*
X1982245Y2180199D02*
X1982890D01*
X1913480Y2184699D02*
X1982712D01*
X1980356Y2194599D02*
X1982644D01*
X1980504Y2192799D02*
X1982496D01*
X1980466Y1963299D02*
X1982491D01*
X1960635Y1961499D02*
X1982481D01*
X1976583Y1857099D02*
X1982417D01*
X1980592Y2193699D02*
X1982408D01*
X1960680Y1962399D02*
X1982325D01*
X1922210Y1916499D02*
X1982147D01*
X1975173Y1929099D02*
X1982132D01*
X1975598Y1920099D02*
X1981967D01*
X1978569Y1933599D02*
X1981964D01*
X1913288Y2183799D02*
X1981848D01*
X1912978Y1983099D02*
X1981727D01*
X1981073Y2181999D02*
X1981549D01*
X1913175Y1986699D02*
X1981532D01*
X1976146Y2182899D02*
X1981531D01*
X1923548Y1917399D02*
X1981526D01*
X1975473Y1919199D02*
X1981457D01*
X1978479Y2275599D02*
X1981339D01*
X1974966Y1918299D02*
X1981330D01*
X1974688Y2245899D02*
X1981224D01*
X1975799Y1929999D02*
X1981156D01*
X1979825Y2279199D02*
X1981144D01*
X1913349Y1983999D02*
X1981101D01*
X1978251Y1932699D02*
X1981097D01*
X1973857Y2242299D02*
X1981034D01*
X1913440Y1985799D02*
X1981026D01*
X1913495Y1984899D02*
X1980902D01*
X1975998Y1930899D02*
X1980796D01*
X1980521Y2071299D02*
X1980785D01*
X1979999Y2253999D02*
X1980781D01*
X1952425Y2159499D02*
X1980781D01*
X1977384Y1931799D02*
X1980779D01*
X1952351Y2149599D02*
X1980764D01*
X1978273Y1852599D02*
X1980727D01*
X1979626Y2276499D02*
X1980713D01*
X1980096Y2278299D02*
X1980638D01*
X1979293Y2066799D02*
X1980616D01*
X1975044Y2244999D02*
X1980599D01*
X1978468Y1856199D02*
X1980532D01*
X1974735Y2243199D02*
X1980527D01*
X1980039Y2277399D02*
X1980514D01*
X1975057Y2244099D02*
X1980402D01*
X1952678Y2145099D02*
X1980273D01*
X1978899Y1853499D02*
X1980101D01*
X1978974Y1855299D02*
X1980026D01*
X1975125Y1979499D02*
X1979919D01*
X1979098Y1854399D02*
X1979902D01*
X1971509Y2249499D02*
X1979840D01*
X1964052Y2154999D02*
X1979840D01*
X1979793Y2070399D02*
X1979808D01*
X1947251Y2067699D02*
X1979749D01*
X1977801Y1975899D02*
X1979729D01*
X1952875Y2148699D02*
X1979659D01*
X1953049Y2145999D02*
X1979489D01*
X1979373Y2253099D02*
X1979450D01*
X1952916Y2158599D02*
X1979450D01*
X1978261Y2069499D02*
X1979448D01*
X1947569Y2068599D02*
X1979431D01*
X1975530Y1978599D02*
X1979295D01*
X1953140Y2147799D02*
X1979258D01*
X1977349Y1976799D02*
X1979222D01*
X1953195Y2146899D02*
X1979209D01*
X1970733Y2250399D02*
X1979145D01*
X1963692Y2155899D02*
X1979145D01*
X1976030Y1977699D02*
X1979097D01*
X1972157Y2252199D02*
X1978996D01*
X1953156Y2157699D02*
X1978996D01*
X1971465Y2251299D02*
X1978908D01*
X1962715Y2156799D02*
X1978908D01*
X1953181Y2177499D02*
X1978478D01*
X1977252Y2181999D02*
X1978275D01*
X1960968Y1883199D02*
X1978125D01*
X1913132Y1886799D02*
X1978123D01*
X1959083Y1884099D02*
X1977561D01*
X1913421Y1885899D02*
X1977560D01*
X1917497Y2257599D02*
X1977517D01*
X1976639Y2178399D02*
X1977489D01*
X1913499Y1884999D02*
X1977400D01*
X1965100Y2190999D02*
X1977290D01*
X1974552Y2393499D02*
X1977091D01*
X1953978Y2383599D02*
X1977031D01*
X1962219Y2087499D02*
X1976895D01*
X1934030Y1966899D02*
X1976724D01*
X1912396Y2047899D02*
X1976667D01*
X1911169Y2048799D02*
X1976619D01*
X1913470Y2275599D02*
X1976545D01*
X1961048Y1963299D02*
X1976534D01*
X1970583Y1857099D02*
X1976417D01*
X1960951Y2195499D02*
X1976337D01*
X1901900Y2079399D02*
X1976106D01*
X1959912Y1965999D02*
X1976099D01*
X1912795Y2097399D02*
X1976094D01*
X1961072Y1964199D02*
X1976027D01*
X1901900Y2280099D02*
X1975961D01*
X1964940Y2191899D02*
X1975952D01*
X1901900Y2289999D02*
X1975919D01*
X1960761Y1965099D02*
X1975902D01*
X1955167Y2400699D02*
X1975843D01*
X1972393Y2253099D02*
X1975827D01*
X1947552Y2069499D02*
X1975739D01*
X1963384Y2107299D02*
X1975731D01*
X1960590Y2194599D02*
X1975644D01*
X1913175Y2256699D02*
X1975632D01*
X1974192Y2394399D02*
X1975525D01*
X1955506Y2382699D02*
X1975504D01*
X1964377Y2192799D02*
X1975496D01*
X1901900Y2059599D02*
X1975464D01*
X1972092Y2117199D02*
X1975457D01*
X1959610Y2193699D02*
X1975408D01*
X1913254Y2276499D02*
X1975398D01*
X1901900Y2049699D02*
X1975236D01*
X1912980Y2127099D02*
X1975231D01*
X1973646Y2037099D02*
X1975231D01*
X1955141Y2376399D02*
X1975224D01*
X1972303Y2253999D02*
X1975201D01*
X1909505Y2279199D02*
X1975199D01*
X1970503Y2255799D02*
X1975126D01*
X1957098Y2335899D02*
X1975088D01*
X1901900Y2290899D02*
X1975047D01*
X1974573Y2039799D02*
X1975040D01*
X1913034Y2046999D02*
X1975035D01*
X1912793Y2372799D02*
X1975034D01*
X1971847Y2254899D02*
X1975002D01*
X1912795Y2277399D02*
X1974985D01*
X1956033Y2377299D02*
X1974977D01*
X1956046Y2399799D02*
X1974963D01*
X1911965Y2278299D02*
X1974928D01*
X1901900Y2340399D02*
X1974918D01*
X1958355Y2119899D02*
X1974867D01*
X1913084Y2056899D02*
X1974862D01*
X1911360Y2321499D02*
X1974790D01*
X1973215Y2395299D02*
X1974789D01*
X1947336Y1936299D02*
X1974785D01*
X1956232Y2381799D02*
X1974778D01*
X1912723Y2292699D02*
X1974743D01*
X1911831Y2291799D02*
X1974727D01*
X1972273Y1852599D02*
X1974727D01*
X1964552Y2109999D02*
X1974711D01*
X1961977Y2066799D02*
X1974707D01*
X1913481Y2375499D02*
X1974599D01*
X1901900Y2100099D02*
X1974569D01*
X1913175Y2076699D02*
X1974565D01*
X1972468Y1856199D02*
X1974532D01*
X1913253Y2373699D02*
X1974527D01*
X1956525Y2378199D02*
X1974485D01*
X1956532Y2398899D02*
X1974477D01*
X1901900Y2090199D02*
X1974438D01*
X1963550Y2086599D02*
X1974435D01*
X1913469Y2374599D02*
X1974402D01*
X1956624Y2396199D02*
X1974385D01*
X1956630Y2380899D02*
X1974379D01*
X1901900Y2080299D02*
X1974318D01*
X1913254Y2096499D02*
X1974315D01*
X1956765Y2379099D02*
X1974244D01*
X1956768Y2397999D02*
X1974242D01*
X1956797Y2397099D02*
X1974212D01*
X1956799Y2379999D02*
X1974211D01*
X1947192Y2070399D02*
X1974207D01*
X1913289Y2106399D02*
X1974204D01*
X1956974Y2336799D02*
X1974111D01*
X1901900Y2060499D02*
X1974103D01*
X1972899Y1853499D02*
X1974101D01*
X1972004Y2116299D02*
X1974100D01*
X1917503Y2182899D02*
X1974095D01*
X1901900Y2339499D02*
X1974051D01*
X1972974Y1855299D02*
X1974026D01*
X1901900Y2050599D02*
X1974006D01*
X1913350Y2126199D02*
X1974004D01*
X1913350Y2036199D02*
X1974004D01*
X1913377Y2046099D02*
X1973913D01*
X1973098Y1854399D02*
X1973902D01*
X1913400Y2325999D02*
X1973837D01*
X1958592Y2120799D02*
X1973831D01*
X1901900Y2030799D02*
X1973831D01*
X1913400Y2055999D02*
X1973829D01*
X1971882Y1935399D02*
X1973808D01*
X1964192Y2110899D02*
X1973751D01*
X1956468Y2337699D02*
X1973751D01*
X1962540Y2065899D02*
X1973749D01*
X1954583Y2338599D02*
X1973733D01*
X1943276Y2218899D02*
X1973724D01*
X1901900Y2100999D02*
X1973677D01*
X1913440Y2075799D02*
X1973675D01*
X1913033Y1973199D02*
X1973641D01*
X1910294Y2091099D02*
X1973607D01*
X1964004Y2085699D02*
X1973605D01*
X1952989Y2178399D02*
X1973603D01*
X1910661Y2081199D02*
X1973541D01*
X1913470Y2095599D02*
X1973539D01*
X1973092Y2215299D02*
X1973534D01*
X1913215Y2293599D02*
X1973525D01*
X1912922Y2297199D02*
X1973523D01*
X1946215Y2071299D02*
X1973479D01*
X1913481Y2105499D02*
X1973478D01*
X1912484Y2322399D02*
X1973452D01*
X1972750Y1934499D02*
X1973448D01*
X1911164Y2061399D02*
X1973422D01*
X1971548Y2115399D02*
X1973420D01*
X1911360Y2051499D02*
X1973367D01*
X1913495Y2125299D02*
X1973366D01*
X1913495Y2035299D02*
X1973366D01*
X1972938Y2041599D02*
X1973317D01*
X1973069Y1933599D02*
X1973317D01*
X1913499Y2045199D02*
X1973316D01*
X1901900Y2029899D02*
X1973282D01*
X1958504Y2121699D02*
X1973270D01*
X1911689Y2031699D02*
X1973270D01*
X1913500Y2055099D02*
X1973268D01*
X1963215Y2111799D02*
X1973226D01*
X1962700Y2064999D02*
X1973225D01*
X1911962Y2101899D02*
X1973185D01*
X1913495Y2074899D02*
X1973184D01*
X1912082Y2091999D02*
X1973147D01*
X1964092Y2084799D02*
X1973146D01*
X1913500Y2325099D02*
X1973144D01*
X1913489Y2025399D02*
X1973126D01*
X1912193Y2082099D02*
X1973112D01*
X1913480Y2094699D02*
X1973111D01*
X1971219Y2217999D02*
X1973099D01*
X1912297Y2072199D02*
X1973080D01*
X1913469Y2104599D02*
X1973079D01*
X1912394Y2062299D02*
X1973051D01*
X1970210Y2114499D02*
X1973050D01*
X1973004Y2216199D02*
X1973027D01*
X1912484Y2052399D02*
X1973024D01*
X1913440Y2124399D02*
X1973023D01*
X1913440Y2034399D02*
X1973023D01*
X1912569Y2042499D02*
X1973000D01*
X1913421Y2044299D02*
X1973000D01*
X1913083Y2323299D02*
X1972996D01*
X1918625Y2181999D02*
X1972990D01*
X1958050Y2122599D02*
X1972979D01*
X1912649Y2032599D02*
X1972979D01*
X1913400Y2054199D02*
X1972979D01*
X1913456Y2294499D02*
X1972961D01*
X1912723Y2112699D02*
X1972960D01*
X1913321Y2296299D02*
X1972960D01*
X1962539Y2064099D02*
X1972960D01*
X1912793Y2102799D02*
X1972944D01*
X1913349Y2073999D02*
X1972944D01*
X1913376Y1974099D02*
X1972942D01*
X1912859Y2092899D02*
X1972931D01*
X1963855Y2083899D02*
X1972930D01*
X1963160Y2082999D02*
X1972920D01*
X1913288Y2093799D02*
X1972919D01*
X1912978Y2073099D02*
X1972911D01*
X1913253Y2103699D02*
X1972911D01*
X1913400Y2324199D02*
X1972908D01*
X1961975Y2063199D02*
X1972905D01*
X1913215Y2113599D02*
X1972905D01*
X1972550Y2217099D02*
X1972902D01*
X1913083Y2053299D02*
X1972901D01*
X1956719Y2123499D02*
X1972901D01*
X1913174Y2033499D02*
X1972901D01*
X1913130Y2043399D02*
X1972900D01*
X1952561Y2179299D02*
X1972820D01*
X1913489Y2295399D02*
X1972800D01*
X1922210Y1974999D02*
X1972704D01*
X1950006Y2181099D02*
X1972589D01*
X1951785Y2180199D02*
X1972540D01*
X1910669Y2028999D02*
X1972310D01*
X1913321Y2026299D02*
X1972255D01*
X1901900Y1980399D02*
X1971997D01*
X1912196Y2028099D02*
X1971951D01*
X1912922Y2027199D02*
X1971936D01*
X1970975Y2233299D02*
X1971750D01*
X1959569Y2358399D02*
X1971724D01*
X1970072Y1929099D02*
X1971627D01*
X1913489Y2354799D02*
X1971534D01*
X1923548Y1975899D02*
X1971469D01*
X1954252Y2228799D02*
X1971420D01*
X1961192Y1921899D02*
X1971224D01*
X1911533Y2041599D02*
X1971169D01*
X1959551Y2357499D02*
X1971099D01*
X1960384Y1918299D02*
X1971034D01*
X1958210Y2355699D02*
X1971027D01*
X1970320Y1929999D02*
X1971001D01*
X1959190Y2356599D02*
X1970902D01*
X1923163Y1979499D02*
X1970875D01*
X1956220Y2395299D02*
X1970785D01*
X1960755Y2232399D02*
X1970712D01*
X1924004Y1976799D02*
X1970694D01*
X1901900Y2390799D02*
X1970616D01*
X1961552Y1920999D02*
X1970599D01*
X1953388Y2229699D02*
X1970597D01*
X1961251Y1919199D02*
X1970527D01*
X1913495Y1894899D02*
X1970497D01*
X1923856Y1978599D02*
X1970470D01*
X1912980Y2037099D02*
X1970461D01*
X1924092Y1977699D02*
X1970417D01*
X1966583Y1857099D02*
X1970417D01*
X1961569Y1920099D02*
X1970402D01*
X1960060Y2231499D02*
X1970332D01*
X1901900Y2230599D02*
X1970298D01*
X1970212Y2245899D02*
X1970292D01*
X1970078Y2243199D02*
X1970245D01*
X1901900Y1890399D02*
X1969969D01*
X1901900Y2040699D02*
X1969963D01*
X1958860Y2244999D02*
X1969936D01*
X1957083Y2244099D02*
X1969923D01*
X1955485Y2394399D02*
X1969808D01*
X1943901Y2217999D02*
X1969781D01*
X1911689Y2391699D02*
X1969749D01*
X1912300Y2037999D02*
X1969724D01*
X1901900Y2039799D02*
X1969535D01*
X1910943Y2038899D02*
X1969466D01*
X1953918Y2393499D02*
X1969448D01*
X1912649Y2392599D02*
X1969431D01*
X1913349Y1893999D02*
X1969375D01*
X1910936Y1891299D02*
X1969194D01*
X1947938Y1935399D02*
X1969118D01*
X1939377Y2255799D02*
X1969097D01*
X1912978Y1893099D02*
X1968970D01*
X1912297Y1892199D02*
X1968917D01*
X1961125Y2213499D02*
X1968840D01*
X1942710Y2114499D02*
X1968790D01*
X1968273Y1852599D02*
X1968727D01*
X1968468Y1856199D02*
X1968532D01*
X1949108Y2217099D02*
X1968450D01*
X1901900Y2329599D02*
X1968366D01*
X1956273Y2334099D02*
X1968286D01*
X1958968Y2243199D02*
X1968251D01*
X1948123Y1934499D02*
X1968250D01*
X1959555Y2245899D02*
X1968197D01*
X1960003Y2214399D02*
X1968145D01*
X1910936Y2251299D02*
X1968135D01*
X1912922Y1937199D02*
X1968103D01*
X1950695Y2216199D02*
X1967996D01*
X1952954Y2168499D02*
X1967981D01*
X1947986Y1933599D02*
X1967931D01*
X1951184Y2215299D02*
X1967908D01*
X1957660Y2118999D02*
X1967837D01*
X1939940Y2254899D02*
X1967753D01*
X1901900Y2250399D02*
X1967676D01*
X1956955Y2238699D02*
X1967586D01*
X1963093Y1941699D02*
X1967565D01*
X1944048Y2115399D02*
X1967452D01*
X1939375Y2252199D02*
X1967443D01*
X1960969Y2196399D02*
X1967426D01*
X1901900Y2330499D02*
X1967420D01*
X1913033Y2333199D02*
X1967392D01*
X1960992Y2233299D02*
X1967354D01*
X1940100Y2253999D02*
X1967297D01*
X1901900Y2199999D02*
X1967254D01*
X1956140Y2236899D02*
X1967227D01*
X1939939Y2253099D02*
X1967207D01*
X1944356Y2118099D02*
X1967144D01*
X1959792Y2246799D02*
X1967079D01*
X1911164Y2331399D02*
X1967071D01*
X1959474Y2242299D02*
X1967065D01*
X1912394Y2332299D02*
X1967063D01*
X1951782Y2163999D02*
X1967040D01*
X1944504Y2116299D02*
X1966996D01*
X1946464Y1938099D02*
X1966977D01*
X1947461Y1932699D02*
X1966917D01*
X1944592Y2117199D02*
X1966908D01*
X1957919Y2249499D02*
X1966899D01*
X1958773Y2239599D02*
X1966840D01*
X1960652Y2197299D02*
X1966807D01*
X1963209Y1940799D02*
X1966793D01*
X1960904Y2234199D02*
X1966750D01*
X1910306Y2199099D02*
X1966741D01*
X1959119Y2235999D02*
X1966702D01*
X1959704Y2247699D02*
X1966674D01*
X1953170Y2167599D02*
X1966650D01*
X1959598Y2241399D02*
X1966643D01*
X1959250Y2248599D02*
X1966622D01*
X1959788Y2198199D02*
X1966613D01*
X1959399Y2240499D02*
X1966578D01*
X1962361Y1938999D02*
X1966570D01*
X1960450Y2235099D02*
X1966565D01*
X1963002Y1939899D02*
X1966517D01*
X1962600Y1857099D02*
X1966417D01*
X1952559Y2164899D02*
X1966345D01*
X1901900Y2350299D02*
X1966285D01*
X1953180Y2166699D02*
X1966196D01*
X1913440Y2345799D02*
X1966116D01*
X1952988Y2165799D02*
X1966108D01*
X1912085Y1928199D02*
X1966107D01*
X1911831Y1931799D02*
X1965658D01*
X1943719Y2271999D02*
X1965403D01*
X1910306Y1929099D02*
X1965389D01*
X1901900Y2349399D02*
X1965308D01*
X1913175Y2346699D02*
X1965249D01*
X1901900Y1930899D02*
X1965218D01*
X1944660Y2267499D02*
X1965202D01*
X1901900Y1929999D02*
X1965141D01*
X1911693Y2348499D02*
X1964948D01*
X1912651Y2347599D02*
X1964931D01*
X1962600Y1852599D02*
X1964727D01*
X1962600Y1856199D02*
X1964532D01*
X1945050Y2271099D02*
X1964414D01*
X1945355Y2268399D02*
X1964344D01*
X1962600Y1853499D02*
X1964101D01*
X1945504Y2270199D02*
X1964050D01*
X1945592Y2269299D02*
X1964030D01*
X1962600Y1855299D02*
X1964026D01*
X1962600Y1854399D02*
X1963902D01*
X1961399Y1880499D02*
X1963281D01*
X1961219Y1875999D02*
X1962340D01*
X1960773Y1879599D02*
X1961950D01*
X1955940Y1876899D02*
X1961645D01*
X1901900Y1878699D02*
X1961496D01*
X1955377Y1877799D02*
X1961408D01*
X1958388Y2360199D02*
X1961290D01*
X1959592Y2364699D02*
X1961112D01*
X1953992Y2305299D02*
X1960785D01*
X1911831Y2111799D02*
X1960785D01*
X1912725Y2087499D02*
X1960781D01*
X1941592Y2189199D02*
X1960625D01*
X1912793Y2192799D02*
X1960623D01*
X1932583Y2300799D02*
X1960616D01*
X1912861Y2107299D02*
X1960616D01*
X1910294Y2361099D02*
X1960310D01*
X1953189Y2156799D02*
X1960285D01*
X1959504Y2363799D02*
X1960248D01*
X1912394Y2152299D02*
X1960116D01*
X1941356Y2190099D02*
X1960061D01*
X1911962Y2191899D02*
X1960060D01*
X1957710Y2361999D02*
X1959949D01*
X1959048Y2362899D02*
X1959931D01*
X1940663Y2190999D02*
X1959900D01*
X1912921Y2082999D02*
X1959840D01*
X1953755Y2304399D02*
X1959808D01*
X1901900Y2110899D02*
X1959808D01*
X1956100Y1875999D02*
X1959781D01*
X1932307Y2301699D02*
X1959749D01*
X1912085Y2108199D02*
X1959749D01*
X1913216Y2086599D02*
X1959450D01*
X1953060Y2303499D02*
X1959448D01*
X1901900Y2109999D02*
X1959448D01*
X1931535Y2302599D02*
X1959431D01*
X1910306Y2109099D02*
X1959431D01*
X1945654Y1947999D02*
X1959422D01*
X1953020Y2155899D02*
X1959308D01*
X1950361Y2153199D02*
X1959249D01*
X1913320Y2083899D02*
X1959145D01*
X1913456Y2085699D02*
X1958996D01*
X1952621Y2154999D02*
X1958948D01*
X1951893Y2154099D02*
X1958931D01*
X1913174Y1943499D02*
X1958919D01*
X1913376Y1884099D02*
X1958917D01*
X1913489Y2084799D02*
X1958908D01*
X1947121Y1938999D02*
X1958863D01*
X1945232Y1942599D02*
X1958625D01*
X1955939Y1875099D02*
X1958450D01*
X1946113Y1947099D02*
X1958312D01*
X1913033Y2063199D02*
X1958225D01*
X1946384Y2066799D02*
X1958223D01*
X1947337Y1939899D02*
X1958222D01*
X1901900Y1872399D02*
X1958145D01*
X1945284Y1944399D02*
X1958139D01*
X1946748Y1941699D02*
X1958131D01*
X1947230Y1940799D02*
X1958015D01*
X1951297Y2214399D02*
X1957997D01*
X1955375Y1874199D02*
X1957996D01*
X1946205Y1946199D02*
X1957909D01*
X1901900Y1873299D02*
X1957908D01*
X1945972Y1945299D02*
X1957859D01*
X1912793Y1922799D02*
X1957785D01*
X1951052Y1956999D02*
X1957781D01*
X1913400Y2235999D02*
X1957681D01*
X1913376Y2064099D02*
X1957661D01*
X1913421Y2065899D02*
X1957660D01*
X1924004Y1918299D02*
X1957616D01*
X1913499Y2064999D02*
X1957500D01*
X1956571Y2209899D02*
X1957469D01*
X1901900Y1879599D02*
X1957227D01*
X1913253Y2193699D02*
X1957190D01*
X1933623Y1965999D02*
X1957088D01*
X1913033Y1883199D02*
X1957032D01*
X1912085Y2198199D02*
X1957012D01*
X1950692Y1957899D02*
X1956990D01*
X1913376Y2244099D02*
X1956917D01*
X1951086Y2213499D02*
X1956875D01*
X1951090Y1952499D02*
X1956840D01*
X1911962Y1921899D02*
X1956808D01*
X1924092Y1919199D02*
X1956749D01*
X1911360Y2231499D02*
X1956740D01*
X1955978Y2210799D02*
X1956694D01*
X1901900Y1880499D02*
X1956601D01*
X1912394Y1882299D02*
X1956526D01*
X1901900Y2249499D02*
X1956481D01*
X1950440Y2212599D02*
X1956470D01*
X1951069Y1956099D02*
X1956450D01*
X1923163Y1920999D02*
X1956448D01*
X1923856Y1920099D02*
X1956431D01*
X1947588Y2211699D02*
X1956417D01*
X1911164Y1881399D02*
X1956402D01*
X1949901Y1961499D02*
X1956365D01*
X1913500Y2235099D02*
X1956350D01*
X1949276Y1962399D02*
X1956320D01*
X1912082Y2361999D02*
X1956290D01*
X1932497Y1965099D02*
X1956239D01*
X1913469Y2194599D02*
X1956210D01*
X1949715Y1958799D02*
X1956202D01*
X1912861Y2197299D02*
X1956148D01*
X1951011Y1953399D02*
X1956145D01*
X1912484Y2232399D02*
X1956045D01*
X1950751Y1955199D02*
X1955996D01*
X1950098Y1960599D02*
X1955966D01*
X1913083Y1963299D02*
X1955952D01*
X1913400Y1964199D02*
X1955928D01*
X1949973Y1959699D02*
X1955919D01*
X1950568Y1954299D02*
X1955908D01*
X1913400Y2234199D02*
X1955896D01*
X1913481Y2195499D02*
X1955849D01*
X1913289Y2196399D02*
X1955831D01*
X1913083Y2233299D02*
X1955808D01*
X1913456Y2355699D02*
X1955790D01*
X1901900Y2360199D02*
X1955612D01*
X1913499Y2244999D02*
X1955540D01*
X1913254Y2366499D02*
X1955337D01*
X1918807Y2261199D02*
X1955325D01*
X1913489Y2264799D02*
X1955323D01*
X1913174Y2123499D02*
X1955281D01*
X1911538Y2248599D02*
X1955150D01*
X1913033Y2243199D02*
X1955032D01*
X1912859Y2362899D02*
X1954952D01*
X1913421Y2245899D02*
X1954845D01*
X1913216Y2356599D02*
X1954810D01*
X1918035Y2262099D02*
X1954761D01*
X1913320Y2263899D02*
X1954760D01*
X1901900Y2359299D02*
X1954748D01*
X1912571Y2247699D02*
X1954696D01*
X1913470Y2365599D02*
X1954644D01*
X1913132Y2246799D02*
X1954608D01*
X1912921Y2262999D02*
X1954600D01*
X1912394Y2242299D02*
X1954526D01*
X1913288Y2363799D02*
X1954496D01*
X1912725Y2357499D02*
X1954449D01*
X1911835Y2358399D02*
X1954431D01*
X1911538Y2338599D02*
X1954417D01*
X1913480Y2364699D02*
X1954408D01*
X1911164Y2241399D02*
X1954402D01*
X1943663Y2118999D02*
X1954340D01*
X1912649Y2122599D02*
X1953950D01*
X1901900Y2119899D02*
X1953645D01*
X1911689Y2121699D02*
X1953496D01*
X1901900Y2120799D02*
X1953408D01*
X1913376Y2334099D02*
X1952727D01*
X1913084Y2236899D02*
X1952572D01*
X1912571Y2337699D02*
X1952532D01*
X1901900Y2240499D02*
X1952396D01*
X1948452Y2210799D02*
X1952322D01*
X1947410Y2207199D02*
X1952228D01*
X1913499Y2334999D02*
X1952101D01*
X1913132Y2336799D02*
X1952026D01*
X1912487Y2237799D02*
X1951953D01*
X1913421Y2335899D02*
X1951902D01*
X1901900Y2239599D02*
X1951885D01*
X1911365Y2238699D02*
X1951758D01*
X1948769Y2209899D02*
X1951729D01*
X1948390Y2208099D02*
X1951693D01*
X1901900Y1874199D02*
X1951625D01*
X1901900Y1877799D02*
X1951623D01*
X1948751Y2208999D02*
X1951550D01*
X1913174Y2393499D02*
X1951501D01*
X1913215Y2383599D02*
X1951440D01*
X1901900Y1875099D02*
X1951061D01*
X1901900Y1876899D02*
X1951060D01*
X1901900Y1875999D02*
X1950900D01*
X1913499Y2225199D02*
X1950790D01*
X1912300Y2307999D02*
X1950681D01*
X1901900Y2229699D02*
X1950612D01*
X1913289Y2376399D02*
X1950278D01*
X1901900Y2400699D02*
X1950252D01*
X1913440Y2394399D02*
X1949934D01*
X1912723Y2382699D02*
X1949913D01*
X1913377Y2226099D02*
X1949810D01*
X1911169Y2228799D02*
X1949748D01*
X1913174Y2303499D02*
X1949740D01*
X1913034Y2226999D02*
X1949449D01*
X1912396Y2227899D02*
X1949431D01*
X1912861Y2377299D02*
X1949386D01*
X1901900Y2399799D02*
X1949372D01*
X1912980Y2307099D02*
X1949350D01*
X1913495Y2395299D02*
X1949199D01*
X1911831Y2381799D02*
X1949187D01*
X1913440Y2304399D02*
X1949045D01*
X1910661Y2171199D02*
X1948995D01*
X1913350Y2306199D02*
X1948896D01*
X1912085Y2378199D02*
X1948894D01*
X1910943Y2398899D02*
X1948887D01*
X1913495Y2305299D02*
X1948808D01*
X1913350Y2396199D02*
X1948794D01*
X1901900Y2380899D02*
X1948789D01*
X1910306Y2379099D02*
X1948654D01*
X1912300Y2397999D02*
X1948651D01*
X1912980Y2397099D02*
X1948622D01*
X1901900Y2379999D02*
X1948620D01*
X1944098Y2217099D02*
X1948292D01*
X1912978Y2163099D02*
X1948206D01*
X1919030Y2181099D02*
X1948194D01*
X1913033Y2153199D02*
X1947839D01*
X1913083Y2143299D02*
X1947564D01*
X1913130Y2133399D02*
X1947336D01*
X1901900Y2140599D02*
X1946962D01*
X1912649Y2212599D02*
X1946960D01*
X1901900Y1950699D02*
X1946868D01*
X1901900Y2150499D02*
X1946807D01*
X1943973Y2216199D02*
X1946705D01*
X1901900Y2160399D02*
X1946665D01*
X1913320Y2173899D02*
X1946538D01*
X1901900Y2170299D02*
X1946535D01*
X1913421Y1954299D02*
X1946432D01*
X1913349Y2163999D02*
X1946418D01*
X1919083Y2180199D02*
X1946415D01*
X1913174Y2213499D02*
X1946314D01*
X1912396Y1957899D02*
X1946308D01*
X1913376Y2154099D02*
X1946307D01*
X1913499Y1955199D02*
X1946249D01*
X1943466Y2215299D02*
X1946216D01*
X1913400Y2144199D02*
X1946203D01*
X1911533Y1951599D02*
X1946156D01*
X1913421Y2134299D02*
X1946106D01*
X1913440Y2214399D02*
X1946103D01*
X1913130Y1953399D02*
X1945989D01*
X1913034Y1956999D02*
X1945948D01*
X1913377Y1956099D02*
X1945931D01*
X1901900Y2139699D02*
X1945929D01*
X1912569Y1952499D02*
X1945910D01*
X1901900Y2149599D02*
X1945849D01*
X1901900Y2159499D02*
X1945775D01*
X1912484Y1962399D02*
X1945724D01*
X1913489Y2174799D02*
X1945707D01*
X1901900Y2169399D02*
X1945705D01*
X1913495Y2164899D02*
X1945641D01*
X1918806Y2179299D02*
X1945639D01*
X1913499Y2154999D02*
X1945579D01*
X1911169Y1958799D02*
X1945534D01*
X1913500Y2145099D02*
X1945522D01*
X1913499Y2135199D02*
X1945467D01*
X1911169Y2138799D02*
X1945368D01*
X1911365Y2148699D02*
X1945325D01*
X1911538Y2158599D02*
X1945284D01*
X1913456Y2175699D02*
X1945247D01*
X1911693Y2168499D02*
X1945246D01*
X1913440Y2165799D02*
X1945212D01*
X1918031Y2178399D02*
X1945211D01*
X1913421Y2155899D02*
X1945180D01*
X1913400Y2145999D02*
X1945151D01*
X1913377Y2136099D02*
X1945124D01*
X1911360Y1961499D02*
X1945099D01*
X1912396Y2137899D02*
X1945079D01*
X1912487Y2147799D02*
X1945060D01*
X1912571Y2157699D02*
X1945044D01*
X1913216Y2176599D02*
X1945031D01*
X1912651Y2167599D02*
X1945030D01*
X1901900Y1959699D02*
X1945027D01*
X1913175Y2166699D02*
X1945020D01*
X1912725Y2177499D02*
X1945019D01*
X1913132Y2156799D02*
X1945011D01*
X1913084Y2146899D02*
X1945005D01*
X1913034Y2136999D02*
X1945001D01*
X1941251Y2207199D02*
X1944990D01*
X1901900Y1960599D02*
X1944902D01*
X1911689Y2211699D02*
X1944812D01*
X1912649Y1942599D02*
X1944250D01*
X1941569Y2208099D02*
X1944010D01*
X1940215Y2210799D02*
X1943948D01*
X1910936Y2071299D02*
X1943785D01*
X1913321Y1936299D02*
X1943713D01*
X1941552Y2208999D02*
X1943649D01*
X1941192Y2209899D02*
X1943631D01*
X1913132Y2066799D02*
X1943616D01*
X1912723Y1932699D02*
X1943588D01*
X1913489Y1935399D02*
X1943110D01*
X1913215Y1933599D02*
X1943062D01*
X1912196Y1938099D02*
X1943018D01*
X1910943Y1948899D02*
X1942930D01*
X1913456Y1934499D02*
X1942925D01*
X1901900Y2070399D02*
X1942808D01*
X1912571Y2067699D02*
X1942749D01*
X1911689Y1941699D02*
X1942734D01*
X1901900Y2069499D02*
X1942448D01*
X1911538Y2068599D02*
X1942431D01*
X1910669Y1938999D02*
X1942361D01*
X1912082Y2271999D02*
X1942281D01*
X1901900Y1940799D02*
X1942253D01*
X1901900Y1939899D02*
X1942145D01*
X1913440Y1944399D02*
X1941940D01*
X1912300Y1947999D02*
X1941570D01*
X1912725Y2267499D02*
X1941340D01*
X1913456Y2114499D02*
X1941290D01*
X1913495Y1945299D02*
X1941252D01*
X1912980Y1947099D02*
X1941110D01*
X1913350Y1946199D02*
X1941019D01*
X1910294Y2271099D02*
X1940950D01*
X1911835Y2268399D02*
X1940645D01*
X1901900Y2270199D02*
X1940496D01*
X1901900Y2269299D02*
X1940408D01*
X1910669Y2118999D02*
X1940337D01*
X1913489Y2115399D02*
X1939952D01*
X1912196Y2118099D02*
X1939644D01*
X1913495Y2215299D02*
X1939534D01*
X1913321Y2116299D02*
X1939496D01*
X1912922Y2117199D02*
X1939408D01*
X1913350Y2216199D02*
X1939027D01*
X1912980Y2217099D02*
X1938902D01*
X1913254Y2186499D02*
X1938290D01*
X1934100Y2222499D02*
X1938281D01*
X1901900Y2210799D02*
X1937785D01*
X1913321Y2206299D02*
X1937616D01*
X1912300Y2217999D02*
X1937340D01*
X1901900Y2190999D02*
X1937337D01*
X1912795Y2187399D02*
X1936952D01*
X1933939Y2221599D02*
X1936950D01*
X1901900Y2209899D02*
X1936808D01*
X1912922Y2207199D02*
X1936749D01*
X1910943Y2218899D02*
X1936645D01*
X1901900Y2190099D02*
X1936644D01*
X1911965Y2188299D02*
X1936496D01*
X1933375Y2220699D02*
X1936496D01*
X1910669Y2208999D02*
X1936448D01*
X1912196Y2208099D02*
X1936431D01*
X1901900Y2219799D02*
X1936408D01*
X1909505Y2189199D02*
X1936408D01*
X1912297Y2252199D02*
X1935625D01*
X1913440Y2255799D02*
X1935623D01*
X1912978Y2253099D02*
X1935061D01*
X1913495Y2254899D02*
X1935060D01*
X1913349Y2253999D02*
X1934900D01*
X1913500Y1965099D02*
X1930503D01*
X1901900Y1969599D02*
X1929965D01*
X1901900Y2220699D02*
X1929625D01*
X1913421Y2224299D02*
X1929623D01*
X1913400Y1965999D02*
X1929377D01*
X1911365Y1968699D02*
X1929193D01*
X1911533Y2221599D02*
X1929061D01*
X1913130Y2223399D02*
X1929060D01*
X1912196Y2298099D02*
X1929003D01*
X1913084Y1966899D02*
X1928970D01*
X1912487Y1967799D02*
X1928917D01*
X1912569Y2222499D02*
X1928900D01*
X1912649Y2302599D02*
X1928465D01*
X1910669Y2298999D02*
X1927877D01*
X1911689Y2301699D02*
X1927693D01*
X1904855Y2299899D02*
X1927470D01*
X1905092Y2300799D02*
X1927417D01*
X1913499Y1974999D02*
X1920790D01*
X1917219Y1916499D02*
X1920790D01*
X1901900Y1979499D02*
X1919837D01*
X1901900Y1920999D02*
X1919837D01*
X1913421Y1975899D02*
X1919452D01*
X1912795Y1917399D02*
X1919452D01*
X1911538Y1978599D02*
X1919144D01*
X1901900Y1920099D02*
X1919144D01*
X1913132Y1976799D02*
X1918996D01*
X1911965Y1918299D02*
X1918996D01*
X1912571Y1977699D02*
X1918908D01*
X1909505Y1919199D02*
X1918908D01*
X1913254Y1916499D02*
X1915781D01*
X1912651Y2257599D02*
X1915503D01*
X1912859Y2182899D02*
X1915497D01*
X1911835Y2178399D02*
X1914969D01*
X1912193Y2262099D02*
X1914965D01*
X1912082Y1911999D02*
X1914840D01*
X1913470Y1915599D02*
X1914450D01*
X1911693Y2258499D02*
X1914377D01*
X1912082Y2181999D02*
X1914375D01*
X1901900Y2179299D02*
X1914194D01*
X1910661Y2261199D02*
X1914193D01*
X1912859Y1912899D02*
X1914145D01*
X1913480Y1914699D02*
X1913996D01*
X1901900Y2259399D02*
X1913970D01*
X1910294Y2181099D02*
X1913970D01*
X1901900Y2180199D02*
X1913917D01*
X1901900Y2260299D02*
X1913917D01*
X1913288Y1913799D02*
X1913908D01*
X1901900Y2459199D02*
X1909295D01*
X1901900Y2369199D02*
X1909295D01*
X1901900Y2279199D02*
X1909295D01*
X1901900Y2189199D02*
X1909295D01*
X1901900Y2099199D02*
X1909295D01*
X1901900Y2009199D02*
X1909295D01*
X1901900Y1919199D02*
X1909295D01*
X1901900Y2451099D02*
X1908506D01*
X1901900Y2361099D02*
X1908506D01*
X1901900Y2271099D02*
X1908506D01*
X1901900Y2181099D02*
X1908506D01*
X1901900Y2091099D02*
X1908506D01*
X1901900Y2001099D02*
X1908506D01*
X1901900Y1911099D02*
X1908506D01*
X1901900Y2379099D02*
X1908494D01*
X1901900Y2289099D02*
X1908494D01*
X1901900Y2199099D02*
X1908494D01*
X1901900Y2109099D02*
X1908494D01*
X1901900Y2019099D02*
X1908494D01*
X1901900Y1929099D02*
X1908494D01*
X1901900Y2441199D02*
X1908139D01*
X1901900Y2351199D02*
X1908139D01*
X1901900Y2261199D02*
X1908139D01*
X1901900Y2171199D02*
X1908139D01*
X1901900Y2081199D02*
X1908139D01*
X1901900Y1991199D02*
X1908139D01*
X1901900Y1901199D02*
X1908139D01*
X1901900Y2388999D02*
X1908131D01*
X1904160Y2298999D02*
X1908131D01*
X1901900Y2208999D02*
X1908131D01*
X1901900Y2118999D02*
X1908131D01*
X1901900Y2028999D02*
X1908131D01*
X1901900Y1938999D02*
X1908131D01*
X1901900Y2341299D02*
X1907864D01*
X1901900Y2251299D02*
X1907864D01*
X1901900Y2161299D02*
X1907864D01*
X1901900Y2071299D02*
X1907864D01*
X1901900Y1981299D02*
X1907864D01*
X1901900Y1891299D02*
X1907864D01*
X1901900Y2398899D02*
X1907857D01*
X1901900Y2308899D02*
X1907857D01*
X1901900Y2218899D02*
X1907857D01*
X1901900Y2128899D02*
X1907857D01*
X1901900Y2038899D02*
X1907857D01*
X1901900Y1948899D02*
X1907857D01*
X1901900Y2421399D02*
X1907636D01*
X1901900Y2331399D02*
X1907636D01*
X1901900Y2241399D02*
X1907636D01*
X1901900Y2151399D02*
X1907636D01*
X1901900Y2061399D02*
X1907636D01*
X1901900Y1971399D02*
X1907636D01*
X1901900Y1881399D02*
X1907636D01*
X1901900Y2408799D02*
X1907631D01*
X1901900Y2318799D02*
X1907631D01*
X1901900Y2228799D02*
X1907631D01*
X1901900Y2138799D02*
X1907631D01*
X1901900Y2048799D02*
X1907631D01*
X1901900Y1958799D02*
X1907631D01*
X1901900Y2411499D02*
X1907440D01*
X1901900Y2321499D02*
X1907440D01*
X1901900Y2231499D02*
X1907440D01*
X1901900Y2141499D02*
X1907440D01*
X1901900Y2051499D02*
X1907440D01*
X1901900Y1961499D02*
X1907440D01*
X1901900Y2418699D02*
X1907435D01*
X1901900Y2328699D02*
X1907435D01*
X1901900Y2238699D02*
X1907435D01*
X1901900Y2148699D02*
X1907435D01*
X1901900Y2058699D02*
X1907435D01*
X1901900Y1968699D02*
X1907435D01*
X1901900Y2401599D02*
X1907267D01*
X1901900Y2311599D02*
X1907267D01*
X1901900Y2221599D02*
X1907267D01*
X1901900Y2131599D02*
X1907267D01*
X1901900Y2041599D02*
X1907267D01*
X1901900Y1951599D02*
X1907267D01*
X1901900Y2338599D02*
X1907262D01*
X1901900Y2248599D02*
X1907262D01*
X1901900Y2158599D02*
X1907262D01*
X1901900Y2068599D02*
X1907262D01*
X1901900Y1978599D02*
X1907262D01*
X1901900Y1888599D02*
X1907262D01*
X1901900Y2391699D02*
X1907111D01*
X1905004Y2301699D02*
X1907111D01*
X1901900Y2211699D02*
X1907111D01*
X1901900Y2121699D02*
X1907111D01*
X1901900Y2031699D02*
X1907111D01*
X1901900Y1941699D02*
X1907111D01*
X1901900Y2438499D02*
X1907107D01*
X1901900Y2348499D02*
X1907107D01*
X1901900Y2258499D02*
X1907107D01*
X1901900Y2168499D02*
X1907107D01*
X1901900Y2078499D02*
X1907107D01*
X1901900Y1988499D02*
X1907107D01*
X1901900Y1898499D02*
X1907107D01*
X1901900Y2381799D02*
X1906969D01*
X1901900Y2291799D02*
X1906969D01*
X1901900Y2201799D02*
X1906969D01*
X1901900Y2111799D02*
X1906969D01*
X1901900Y2021799D02*
X1906969D01*
X1901900Y1931799D02*
X1906969D01*
X1901900Y2448399D02*
X1906965D01*
X1901900Y2358399D02*
X1906965D01*
X1901900Y2268399D02*
X1906965D01*
X1901900Y2178399D02*
X1906965D01*
X1901900Y2088399D02*
X1906965D01*
X1901900Y1998399D02*
X1906965D01*
X1901900Y1908399D02*
X1906965D01*
X1901900Y2371899D02*
X1906838D01*
X1901900Y2281899D02*
X1906838D01*
X1901900Y2191899D02*
X1906838D01*
X1901900Y2101899D02*
X1906838D01*
X1901900Y2011899D02*
X1906838D01*
X1901900Y1921899D02*
X1906838D01*
X1901900Y2458299D02*
X1906835D01*
X1901900Y2368299D02*
X1906835D01*
X1901900Y2278299D02*
X1906835D01*
X1901900Y2188299D02*
X1906835D01*
X1901900Y2098299D02*
X1906835D01*
X1901900Y2008299D02*
X1906835D01*
X1901900Y1918299D02*
X1906835D01*
X1901900Y2451999D02*
X1906718D01*
X1901900Y2361999D02*
X1906718D01*
X1901900Y2271999D02*
X1906718D01*
X1901900Y2181999D02*
X1906718D01*
X1901900Y2091999D02*
X1906718D01*
X1901900Y2001999D02*
X1906718D01*
X1901900Y1911999D02*
X1906718D01*
X1901900Y2378199D02*
X1906715D01*
X1901900Y2288199D02*
X1906715D01*
X1901900Y2198199D02*
X1906715D01*
X1901900Y2108199D02*
X1906715D01*
X1901900Y2018199D02*
X1906715D01*
X1901900Y1928199D02*
X1906715D01*
X1901900Y2442099D02*
X1906607D01*
X1901900Y2352099D02*
X1906607D01*
X1901900Y2262099D02*
X1906607D01*
X1901900Y2172099D02*
X1906607D01*
X1901900Y2082099D02*
X1906607D01*
X1901900Y1992099D02*
X1906607D01*
X1901900Y1902099D02*
X1906607D01*
X1901900Y2388099D02*
X1906604D01*
X1901900Y2298099D02*
X1906604D01*
X1901900Y2208099D02*
X1906604D01*
X1901900Y2118099D02*
X1906604D01*
X1901900Y2028099D02*
X1906604D01*
X1901900Y1938099D02*
X1906604D01*
X1901900Y2342199D02*
X1906503D01*
X1901900Y2252199D02*
X1906503D01*
X1901900Y2162199D02*
X1906503D01*
X1901900Y2072199D02*
X1906503D01*
X1901900Y1982199D02*
X1906503D01*
X1901900Y1892199D02*
X1906503D01*
X1901900Y2397999D02*
X1906500D01*
X1901900Y2307999D02*
X1906500D01*
X1901900Y2217999D02*
X1906500D01*
X1901900Y2127999D02*
X1906500D01*
X1901900Y2037999D02*
X1906500D01*
X1901900Y1947999D02*
X1906500D01*
X1901900Y2422299D02*
X1906406D01*
X1901900Y2332299D02*
X1906406D01*
X1901900Y2242299D02*
X1906406D01*
X1901900Y2152299D02*
X1906406D01*
X1901900Y2062299D02*
X1906406D01*
X1901900Y1972299D02*
X1906406D01*
X1901900Y1882299D02*
X1906406D01*
X1901900Y2407899D02*
X1906404D01*
X1901900Y2317899D02*
X1906404D01*
X1901900Y2227899D02*
X1906404D01*
X1901900Y2137899D02*
X1906404D01*
X1901900Y2047899D02*
X1906404D01*
X1901900Y1957899D02*
X1906404D01*
X1901900Y2412399D02*
X1906316D01*
X1901900Y2322399D02*
X1906316D01*
X1901900Y2232399D02*
X1906316D01*
X1901900Y2142399D02*
X1906316D01*
X1901900Y2052399D02*
X1906316D01*
X1901900Y1962399D02*
X1906316D01*
X1901900Y2417799D02*
X1906313D01*
X1901900Y2327799D02*
X1906313D01*
X1901900Y2237799D02*
X1906313D01*
X1901900Y2147799D02*
X1906313D01*
X1901900Y2057799D02*
X1906313D01*
X1901900Y1967799D02*
X1906313D01*
X1901900Y2402499D02*
X1906231D01*
X1901900Y2312499D02*
X1906231D01*
X1901900Y2222499D02*
X1906231D01*
X1901900Y2132499D02*
X1906231D01*
X1901900Y2042499D02*
X1906231D01*
X1901900Y1952499D02*
X1906231D01*
X1901900Y2337699D02*
X1906229D01*
X1901900Y2247699D02*
X1906229D01*
X1901900Y2157699D02*
X1906229D01*
X1901900Y2067699D02*
X1906229D01*
X1901900Y1977699D02*
X1906229D01*
X1901900Y1887699D02*
X1906229D01*
X1901900Y2392599D02*
X1906151D01*
X1904550Y2302599D02*
X1906151D01*
X1901900Y2212599D02*
X1906151D01*
X1901900Y2122599D02*
X1906151D01*
X1901900Y2032599D02*
X1906151D01*
X1901900Y1942599D02*
X1906151D01*
X1901900Y2437599D02*
X1906149D01*
X1901900Y2347599D02*
X1906149D01*
X1901900Y2257599D02*
X1906149D01*
X1901900Y2167599D02*
X1906149D01*
X1901900Y2077599D02*
X1906149D01*
X1901900Y1987599D02*
X1906149D01*
X1901900Y1897599D02*
X1906149D01*
X1901900Y2382699D02*
X1906077D01*
X1901900Y2292699D02*
X1906077D01*
X1901900Y2202699D02*
X1906077D01*
X1901900Y2112699D02*
X1906077D01*
X1901900Y2022699D02*
X1906077D01*
X1901900Y1932699D02*
X1906077D01*
X1901900Y2447499D02*
X1906075D01*
X1901900Y2357499D02*
X1906075D01*
X1901900Y2267499D02*
X1906075D01*
X1901900Y2177499D02*
X1906075D01*
X1901900Y2087499D02*
X1906075D01*
X1901900Y1997499D02*
X1906075D01*
X1901900Y1907499D02*
X1906075D01*
X1901900Y2372799D02*
X1906007D01*
X1901900Y2282799D02*
X1906007D01*
X1901900Y2192799D02*
X1906007D01*
X1901900Y2102799D02*
X1906007D01*
X1901900Y2012799D02*
X1906007D01*
X1901900Y1922799D02*
X1906007D01*
X1901900Y2457399D02*
X1906005D01*
X1901900Y2367399D02*
X1906005D01*
X1901900Y2277399D02*
X1906005D01*
X1901900Y2187399D02*
X1906005D01*
X1901900Y2097399D02*
X1906005D01*
X1901900Y2007399D02*
X1906005D01*
X1901900Y1917399D02*
X1906005D01*
X1901900Y2452899D02*
X1905941D01*
X1901900Y2362899D02*
X1905941D01*
X1901900Y2272899D02*
X1905941D01*
X1901900Y2182899D02*
X1905941D01*
X1901900Y2092899D02*
X1905941D01*
X1901900Y2002899D02*
X1905941D01*
X1901900Y1912899D02*
X1905941D01*
X1901900Y2377299D02*
X1905939D01*
X1901900Y2287299D02*
X1905939D01*
X1901900Y2197299D02*
X1905939D01*
X1901900Y2107299D02*
X1905939D01*
X1901900Y2017299D02*
X1905939D01*
X1901900Y1927299D02*
X1905939D01*
X1901900Y2442999D02*
X1905879D01*
X1901900Y2352999D02*
X1905879D01*
X1901900Y2262999D02*
X1905879D01*
X1901900Y2172999D02*
X1905879D01*
X1901900Y2082999D02*
X1905879D01*
X1901900Y1992999D02*
X1905879D01*
X1901900Y1902999D02*
X1905879D01*
X1901900Y2387199D02*
X1905878D01*
X1901900Y2297199D02*
X1905878D01*
X1901900Y2207199D02*
X1905878D01*
X1901900Y2117199D02*
X1905878D01*
X1901900Y2027199D02*
X1905878D01*
X1901900Y1937199D02*
X1905878D01*
X1901900Y2433099D02*
X1905822D01*
X1901900Y2343099D02*
X1905822D01*
X1901900Y2253099D02*
X1905822D01*
X1901900Y2163099D02*
X1905822D01*
X1901900Y2073099D02*
X1905822D01*
X1901900Y1983099D02*
X1905822D01*
X1901900Y1893099D02*
X1905822D01*
X1901900Y2397099D02*
X1905820D01*
X1901900Y2307099D02*
X1905820D01*
X1901900Y2217099D02*
X1905820D01*
X1901900Y2127099D02*
X1905820D01*
X1901900Y2037099D02*
X1905820D01*
X1901900Y1947099D02*
X1905820D01*
X1901900Y2427699D02*
X1905790D01*
X1901900Y2423199D02*
X1905767D01*
X1901900Y2333199D02*
X1905767D01*
X1901900Y2243199D02*
X1905767D01*
X1901900Y2153199D02*
X1905767D01*
X1901900Y2063199D02*
X1905767D01*
X1901900Y1973199D02*
X1905767D01*
X1901900Y1883199D02*
X1905767D01*
X1901900Y2406999D02*
X1905766D01*
X1901900Y2316999D02*
X1905766D01*
X1901900Y2226999D02*
X1905766D01*
X1901900Y2136999D02*
X1905766D01*
X1901900Y2046999D02*
X1905766D01*
X1901900Y1956999D02*
X1905766D01*
X1901900Y2413299D02*
X1905717D01*
X1901900Y2323299D02*
X1905717D01*
X1901900Y2233299D02*
X1905717D01*
X1901900Y2143299D02*
X1905717D01*
X1901900Y2053299D02*
X1905717D01*
X1901900Y1963299D02*
X1905717D01*
X1901900Y2416899D02*
X1905716D01*
X1901900Y2326899D02*
X1905716D01*
X1901900Y2236899D02*
X1905716D01*
X1901900Y2146899D02*
X1905716D01*
X1901900Y2056899D02*
X1905716D01*
X1901900Y1966899D02*
X1905716D01*
X1901900Y2403399D02*
X1905670D01*
X1901900Y2313399D02*
X1905670D01*
X1901900Y2223399D02*
X1905670D01*
X1901900Y2133399D02*
X1905670D01*
X1901900Y2043399D02*
X1905670D01*
X1901900Y1953399D02*
X1905670D01*
X1901900Y2426799D02*
X1905668D01*
X1901900Y2336799D02*
X1905668D01*
X1901900Y2246799D02*
X1905668D01*
X1901900Y2156799D02*
X1905668D01*
X1901900Y2066799D02*
X1905668D01*
X1901900Y1976799D02*
X1905668D01*
X1901900Y1886799D02*
X1905668D01*
X1901900Y2393499D02*
X1905626D01*
X1903219Y2303499D02*
X1905626D01*
X1901900Y2213499D02*
X1905626D01*
X1901900Y2123499D02*
X1905626D01*
X1901900Y2033499D02*
X1905626D01*
X1901900Y1943499D02*
X1905626D01*
X1901900Y2436699D02*
X1905625D01*
X1901900Y2346699D02*
X1905625D01*
X1901900Y2256699D02*
X1905625D01*
X1901900Y2166699D02*
X1905625D01*
X1901900Y2076699D02*
X1905625D01*
X1901900Y1986699D02*
X1905625D01*
X1901900Y1896699D02*
X1905625D01*
X1901900Y2432199D02*
X1905612D01*
X1901900Y2383599D02*
X1905585D01*
X1901900Y2293599D02*
X1905585D01*
X1901900Y2203599D02*
X1905585D01*
X1901900Y2113599D02*
X1905585D01*
X1901900Y2023599D02*
X1905585D01*
X1901900Y1933599D02*
X1905585D01*
X1901900Y2446599D02*
X1905584D01*
X1901900Y2356599D02*
X1905584D01*
X1901900Y2266599D02*
X1905584D01*
X1901900Y2176599D02*
X1905584D01*
X1901900Y2086599D02*
X1905584D01*
X1901900Y1996599D02*
X1905584D01*
X1901900Y1906599D02*
X1905584D01*
X1901900Y2373699D02*
X1905547D01*
X1901900Y2283699D02*
X1905547D01*
X1901900Y2193699D02*
X1905547D01*
X1901900Y2103699D02*
X1905547D01*
X1901900Y2013699D02*
X1905547D01*
X1901900Y1923699D02*
X1905547D01*
X1901900Y2456499D02*
X1905546D01*
X1901900Y2366499D02*
X1905546D01*
X1901900Y2276499D02*
X1905546D01*
X1901900Y2186499D02*
X1905546D01*
X1901900Y2096499D02*
X1905546D01*
X1901900Y2006499D02*
X1905546D01*
X1901900Y1916499D02*
X1905546D01*
X1901900Y2453799D02*
X1905512D01*
X1901900Y2363799D02*
X1905512D01*
X1901900Y2273799D02*
X1905512D01*
X1901900Y2183799D02*
X1905512D01*
X1901900Y2093799D02*
X1905512D01*
X1901900Y2003799D02*
X1905512D01*
X1901900Y1913799D02*
X1905512D01*
X1901900Y2376399D02*
X1905511D01*
X1901900Y2286399D02*
X1905511D01*
X1901900Y2196399D02*
X1905511D01*
X1901900Y2106399D02*
X1905511D01*
X1901900Y2016399D02*
X1905511D01*
X1901900Y1926399D02*
X1905511D01*
X1901900Y2443899D02*
X1905480D01*
X1901900Y2353899D02*
X1905480D01*
X1901900Y2263899D02*
X1905480D01*
X1901900Y2173899D02*
X1905480D01*
X1901900Y2083899D02*
X1905480D01*
X1901900Y1993899D02*
X1905480D01*
X1901900Y1903899D02*
X1905480D01*
X1901900Y2386299D02*
X1905479D01*
X1901900Y2296299D02*
X1905479D01*
X1901900Y2206299D02*
X1905479D01*
X1901900Y2116299D02*
X1905479D01*
X1901900Y2026299D02*
X1905479D01*
X1901900Y1936299D02*
X1905479D01*
X1901900Y2433999D02*
X1905451D01*
X1901900Y2343999D02*
X1905451D01*
X1901900Y2253999D02*
X1905451D01*
X1901900Y2163999D02*
X1905451D01*
X1901900Y2073999D02*
X1905451D01*
X1901900Y1983999D02*
X1905451D01*
X1901900Y1893999D02*
X1905451D01*
X1901900Y2396199D02*
X1905450D01*
X1901900Y2306199D02*
X1905450D01*
X1901900Y2216199D02*
X1905450D01*
X1901900Y2126199D02*
X1905450D01*
X1901900Y2036199D02*
X1905450D01*
X1901900Y1946199D02*
X1905450D01*
X1901900Y2424099D02*
X1905424D01*
X1901900Y2334099D02*
X1905424D01*
X1901900Y2244099D02*
X1905424D01*
X1901900Y2154099D02*
X1905424D01*
X1901900Y2064099D02*
X1905424D01*
X1901900Y1974099D02*
X1905424D01*
X1901900Y1884099D02*
X1905424D01*
X1901900Y2406099D02*
X1905423D01*
X1901900Y2316099D02*
X1905423D01*
X1901900Y2226099D02*
X1905423D01*
X1901900Y2136099D02*
X1905423D01*
X1901900Y2046099D02*
X1905423D01*
X1901900Y1956099D02*
X1905423D01*
X1901900Y2414199D02*
X1905400D01*
X1901900Y2324199D02*
X1905400D01*
X1901900Y2234199D02*
X1905400D01*
X1901900Y2144199D02*
X1905400D01*
X1901900Y2054199D02*
X1905400D01*
X1901900Y1964199D02*
X1905400D01*
X1901900Y2415999D02*
X1905400D01*
X1901900Y2325999D02*
X1905400D01*
X1901900Y2235999D02*
X1905400D01*
X1901900Y2145999D02*
X1905400D01*
X1901900Y2055999D02*
X1905400D01*
X1901900Y1965999D02*
X1905400D01*
X1901900Y2404299D02*
X1905379D01*
X1901900Y2314299D02*
X1905379D01*
X1901900Y2224299D02*
X1905379D01*
X1901900Y2134299D02*
X1905379D01*
X1901900Y2044299D02*
X1905379D01*
X1901900Y1954299D02*
X1905379D01*
X1901900Y2425899D02*
X1905379D01*
X1901900Y2335899D02*
X1905379D01*
X1901900Y2245899D02*
X1905379D01*
X1901900Y2155899D02*
X1905379D01*
X1901900Y2065899D02*
X1905379D01*
X1901900Y1975899D02*
X1905379D01*
X1901900Y1885899D02*
X1905379D01*
X1901900Y2394399D02*
X1905360D01*
X1901900Y2304399D02*
X1905360D01*
X1901900Y2214399D02*
X1905360D01*
X1901900Y2124399D02*
X1905360D01*
X1901900Y2034399D02*
X1905360D01*
X1901900Y1944399D02*
X1905360D01*
X1901900Y2435799D02*
X1905360D01*
X1901900Y2345799D02*
X1905360D01*
X1901900Y2255799D02*
X1905360D01*
X1901900Y2165799D02*
X1905360D01*
X1901900Y2075799D02*
X1905360D01*
X1901900Y1985799D02*
X1905360D01*
X1901900Y1895799D02*
X1905360D01*
X1901900Y2384499D02*
X1905344D01*
X1901900Y2294499D02*
X1905344D01*
X1901900Y2204499D02*
X1905344D01*
X1901900Y2114499D02*
X1905344D01*
X1901900Y2024499D02*
X1905344D01*
X1901900Y1934499D02*
X1905344D01*
X1901900Y2445699D02*
X1905344D01*
X1901900Y2355699D02*
X1905344D01*
X1901900Y2265699D02*
X1905344D01*
X1901900Y2175699D02*
X1905344D01*
X1901900Y2085699D02*
X1905344D01*
X1901900Y1995699D02*
X1905344D01*
X1901900Y1905699D02*
X1905344D01*
X1901900Y2374599D02*
X1905331D01*
X1901900Y2284599D02*
X1905331D01*
X1901900Y2194599D02*
X1905331D01*
X1901900Y2104599D02*
X1905331D01*
X1901900Y2014599D02*
X1905331D01*
X1901900Y1924599D02*
X1905331D01*
X1901900Y2455599D02*
X1905330D01*
X1901900Y2365599D02*
X1905330D01*
X1901900Y2275599D02*
X1905330D01*
X1901900Y2185599D02*
X1905330D01*
X1901900Y2095599D02*
X1905330D01*
X1901900Y2005599D02*
X1905330D01*
X1901900Y1915599D02*
X1905330D01*
X1901900Y2454699D02*
X1905320D01*
X1901900Y2364699D02*
X1905320D01*
X1901900Y2274699D02*
X1905320D01*
X1901900Y2184699D02*
X1905320D01*
X1901900Y2094699D02*
X1905320D01*
X1901900Y2004699D02*
X1905320D01*
X1901900Y1914699D02*
X1905320D01*
X1901900Y2375499D02*
X1905319D01*
X1901900Y2285499D02*
X1905319D01*
X1901900Y2195499D02*
X1905319D01*
X1901900Y2105499D02*
X1905319D01*
X1901900Y2015499D02*
X1905319D01*
X1901900Y1925499D02*
X1905319D01*
X1901900Y2444799D02*
X1905311D01*
X1901900Y2354799D02*
X1905311D01*
X1901900Y2264799D02*
X1905311D01*
X1901900Y2174799D02*
X1905311D01*
X1901900Y2084799D02*
X1905311D01*
X1901900Y1994799D02*
X1905311D01*
X1901900Y1904799D02*
X1905311D01*
X1901900Y2385399D02*
X1905311D01*
X1901900Y2295399D02*
X1905311D01*
X1901900Y2205399D02*
X1905311D01*
X1901900Y2115399D02*
X1905311D01*
X1901900Y2025399D02*
X1905311D01*
X1901900Y1935399D02*
X1905311D01*
X1901900Y2434899D02*
X1905305D01*
X1901900Y2344899D02*
X1905305D01*
X1901900Y2254899D02*
X1905305D01*
X1901900Y2164899D02*
X1905305D01*
X1901900Y2074899D02*
X1905305D01*
X1901900Y1984899D02*
X1905305D01*
X1901900Y1894899D02*
X1905305D01*
X1901900Y2395299D02*
X1905305D01*
X1901900Y2305299D02*
X1905305D01*
X1901900Y2215299D02*
X1905305D01*
X1901900Y2125299D02*
X1905305D01*
X1901900Y2035299D02*
X1905305D01*
X1901900Y1945299D02*
X1905305D01*
X1901900Y2424999D02*
X1905301D01*
X1901900Y2334999D02*
X1905301D01*
X1901900Y2244999D02*
X1905301D01*
X1901900Y2154999D02*
X1905301D01*
X1901900Y2064999D02*
X1905301D01*
X1901900Y1974999D02*
X1905301D01*
X1901900Y1884999D02*
X1905301D01*
X1901900Y2405199D02*
X1905301D01*
X1901900Y2315199D02*
X1905301D01*
X1901900Y2225199D02*
X1905301D01*
X1901900Y2135199D02*
X1905301D01*
X1901900Y2045199D02*
X1905301D01*
X1901900Y1955199D02*
X1905301D01*
X1901900Y2415099D02*
X1905300D01*
X1901900Y2325099D02*
X1905300D01*
X1901900Y2235099D02*
X1905300D01*
X1901900Y2145099D02*
X1905300D01*
X1901900Y2055099D02*
X1905300D01*
X1901900Y1965099D02*
X1905300D01*
X1901900Y2428599D02*
X1904810D01*
X1901900Y2431299D02*
X1904748D01*
X1901900Y2429499D02*
X1904449D01*
X1901900Y2430399D02*
X1904431D01*
X2066123Y1887699D02*
X2066477D01*
G54D28*
X1986000Y1856374D03*
X1980000Y1885000D03*
X1987500Y1912000D03*
X1947500Y1960500D03*
X1978500Y1965000D03*
X2078500Y1991000D03*
X2019976Y2176188D03*
X1939000Y2189000D03*
X1978000Y2193500D03*
X1992200Y2194000D03*
X2009500Y2183500D03*
X1970500Y2215500D03*
X2053500Y2212000D03*
X1939000Y2220000D03*
X1958400Y2233500D03*
X2053500Y2235500D03*
X1983112Y2277500D03*
X2016374D03*
X1999752D03*
X2025000D03*
X2005000Y2331000D03*
X1967500Y2348000D03*
X1996000Y2350500D03*
X2001000Y2385500D03*
X2076000Y2386500D03*
X1907000Y2430000D03*
G54D29*
X2050499Y2173599D02*
X2049721Y2172821D01*
X2044701Y2173599D02*
X2045479Y2172821D01*
X2044701Y2167801D02*
X2045479Y2168579D01*
X2050499Y2167801D02*
X2049721Y2168579D01*
X2060499Y2173599D02*
X2059721Y2172821D01*
X2054701Y2173599D02*
X2055479Y2172821D01*
X2054701Y2167801D02*
X2055479Y2168579D01*
X2060499Y2167801D02*
X2059721Y2168579D01*
X2070499Y2173599D02*
X2069721Y2172821D01*
X2064701Y2173599D02*
X2065479Y2172821D01*
X2064701Y2167801D02*
X2065479Y2168579D01*
X2070499Y2167801D02*
X2069721Y2168579D01*
X2080499Y2173599D02*
X2079721Y2172821D01*
X2074701Y2173599D02*
X2075479Y2172821D01*
X2074701Y2167801D02*
X2075479Y2168579D01*
X2080499Y2167801D02*
X2079721Y2168579D01*
X1979899Y2120501D02*
X1979121Y2121279D01*
X1979899Y2126299D02*
X1979121Y2125521D01*
X1974101Y2126299D02*
X1974879Y2125521D01*
X1974101Y2120501D02*
X1974879Y2121279D01*
X2066537Y1887163D02*
X2067315Y1886385D01*
X2066537Y1882637D02*
X2067315Y1883415D01*
X2071063Y1882637D02*
X2070285Y1883415D01*
X2071063Y1887163D02*
X2070285Y1886385D01*
X1980338Y1966838D02*
X1979561Y1966061D01*
X1976662Y1966838D02*
X1977439Y1966061D01*
X1976662Y1963162D02*
X1977439Y1963939D01*
X1980338Y1963162D02*
X1979561Y1963939D01*
X1905162Y2431838D02*
X1905939Y2431061D01*
X1905162Y2428162D02*
X1905939Y2428939D01*
X1984950Y2279338D02*
X1984173Y2278561D01*
X1981274Y2279338D02*
X1982051Y2278561D01*
X1981274Y2275662D02*
X1982051Y2276439D01*
X1984950Y2275662D02*
X1984173Y2276439D01*
X2001590Y2279338D02*
X2000812Y2278561D01*
X1997913Y2279338D02*
X1998691Y2278561D01*
X1997913Y2275662D02*
X1998691Y2276439D01*
X2001590Y2275662D02*
X2000812Y2276439D01*
X2018212Y2279338D02*
X2017435Y2278561D01*
X2014536Y2275662D02*
X2015313Y2276439D01*
X2018212Y2275662D02*
X2017435Y2276439D01*
X2026838Y2279338D02*
X2026061Y2278561D01*
X2023162Y2279338D02*
X2023939Y2278561D01*
X2023162Y2275662D02*
X2023939Y2276439D01*
X2026838Y2275662D02*
X2026061Y2276439D01*
X2055338Y2237338D02*
X2054561Y2236561D01*
X2051662Y2237338D02*
X2052439Y2236561D01*
X2051662Y2233662D02*
X2052439Y2234439D01*
X2055338Y2233662D02*
X2054561Y2234439D01*
X2055338Y2213838D02*
X2054561Y2213061D01*
X2051662Y2213838D02*
X2052439Y2213061D01*
X2051662Y2210162D02*
X2052439Y2210939D01*
X2055338Y2210162D02*
X2054561Y2210939D01*
X2021814Y2178027D02*
X2021037Y2177249D01*
X2018137Y2178027D02*
X2018915Y2177249D01*
X2018137Y2174350D02*
X2018915Y2175128D01*
X2011338Y2185338D02*
X2010561Y2184561D01*
X2007662Y2185338D02*
X2008439Y2184561D01*
X2007662Y2181662D02*
X2008439Y2182439D01*
X2011338Y2181662D02*
X2010561Y2182439D01*
X1979838Y2195338D02*
X1979061Y2194561D01*
X1976162Y2195338D02*
X1976939Y2194561D01*
X1976162Y2191662D02*
X1976939Y2192439D01*
X1979838Y2191662D02*
X1979061Y2192439D01*
X1972338Y2217338D02*
X1971561Y2216561D01*
X1968662Y2217338D02*
X1969439Y2216561D01*
X1968662Y2213662D02*
X1969439Y2214439D01*
X1972338Y2213662D02*
X1971561Y2214439D01*
X1960238Y2235338D02*
X1959461Y2234561D01*
X1956562Y2235338D02*
X1957339Y2234561D01*
X1956562Y2231662D02*
X1957339Y2232439D01*
X1960238Y2231662D02*
X1959461Y2232439D01*
X1987838Y1858212D02*
X1987061Y1857435D01*
X1984162Y1858212D02*
X1984939Y1857435D01*
X1940838Y2221838D02*
X1940061Y2221061D01*
X1937162Y2221838D02*
X1937939Y2221061D01*
X1937162Y2218162D02*
X1937939Y2218939D01*
X1969338Y2349838D02*
X1968561Y2349061D01*
X1965662Y2349838D02*
X1966439Y2349061D01*
X1965662Y2346162D02*
X1966439Y2346939D01*
X1969338Y2346162D02*
X1968561Y2346939D01*
X2002838Y2387338D02*
X2002061Y2386561D01*
X1999162Y2387338D02*
X1999939Y2386561D01*
X1999162Y2383662D02*
X1999939Y2384439D01*
X2002838Y2383662D02*
X2002061Y2384439D01*
X1989338Y1913838D02*
X1988561Y1913061D01*
X1985662Y1913838D02*
X1986439Y1913061D01*
X1985662Y1910162D02*
X1986439Y1910939D01*
X1989338Y1910162D02*
X1988561Y1910939D01*
X2006838Y2332838D02*
X2006061Y2332061D01*
X2003162Y2332838D02*
X2003939Y2332061D01*
X2003162Y2329162D02*
X2003939Y2329939D01*
X2006838Y2329162D02*
X2006061Y2329939D01*
X1940838Y2190838D02*
X1940061Y2190061D01*
X1937162Y2190838D02*
X1937939Y2190061D01*
X1937162Y2187162D02*
X1937939Y2187939D01*
X1940838Y2187162D02*
X1940061Y2187939D01*
X1997838Y2352338D02*
X1997061Y2351561D01*
X1994162Y2352338D02*
X1994939Y2351561D01*
X1994162Y2348662D02*
X1994939Y2349439D01*
X1997838Y2348662D02*
X1997061Y2349439D01*
X1981838Y1886838D02*
X1981061Y1886061D01*
X1978162Y1886838D02*
X1978939Y1886061D01*
X1978162Y1883162D02*
X1978939Y1883939D01*
X1981838Y1883162D02*
X1981061Y1883939D01*
X2077838Y2388338D02*
X2077061Y2387561D01*
X2074162Y2388338D02*
X2074939Y2387561D01*
X2074162Y2384662D02*
X2074939Y2385439D01*
X2077838Y2384662D02*
X2077061Y2385439D01*
X2080338Y1992838D02*
X2079561Y1992061D01*
X2076662Y1992838D02*
X2077439Y1992061D01*
X2080338Y1989162D02*
X2079561Y1989939D01*
X1949338Y1962338D02*
X1948561Y1961561D01*
X1945662Y1962338D02*
X1946439Y1961561D01*
X1945662Y1958662D02*
X1946439Y1959439D01*
X1990362Y2192162D02*
X1991139Y2192939D01*
X1994038Y2192162D02*
X1993261Y2192939D01*
G54D54*
X2068800Y1884900D03*
G74*
X0Y0D02*
M02*
