*
*
G04 PADS VX.2.1 Build Number: 6554490 generated Gerber (RS-274-X) file*
G04 PC Version=2.1*
*
%IN "uMuddMarkVLayout.pcb"*%
*
%MOIN*%
*
%FSLAX35Y35*%
*
*
*
*
G04 PC Standard Apertures*
*
*
G04 Thermal Relief Aperture macro.*
%AMTER*
1,1,$1,0,0*
1,0,$1-$2,0,0*
21,0,$3,$4,0,0,45*
21,0,$3,$4,0,0,135*
%
*
*
G04 Annular Aperture macro.*
%AMANN*
1,1,$1,0,0*
1,0,$2,0,0*
%
*
*
G04 Odd Aperture macro.*
%AMODD*
1,1,$1,0,0*
1,0,$1-0.005,0,0*
%
*
*
G04 PC Custom Aperture Macros*
*
*
*
*
*
*
G04 PC Aperture Table*
*
%ADD010C,0.001*%
%ADD013R,0.06X0.06*%
%ADD014C,0.06*%
%ADD017R,0.02756X0.12598*%
%ADD018R,0.02756X0.16535*%
%ADD024C,0.25*%
%ADD026C,0.008*%
%ADD027C,0.01*%
%ADD028C,0.03*%
%ADD054C,0.042*%
*
*
*
*
G04 PC Circuitry*
G04 Layer Name uMuddMarkVLayout.pcb - circuitry*
%LPD*%
*
*
G04 PC Custom Flashes*
G04 Layer Name uMuddMarkVLayout.pcb - flashes*
%LPD*%
*
*
G04 PC Circuitry*
G04 Layer Name uMuddMarkVLayout.pcb - circuitry*
%LPD*%
*
G54D10*
G54D13*
G01X1954500Y2131200D03*
X2051400Y2125500D03*
X2028600Y2129900D03*
X2011400Y2129800D03*
X2065800Y2299900D03*
G54D14*
X1964500Y2131200D03*
X1974500D03*
X1984500D03*
Y2161200D03*
X1974500D03*
X1964500D03*
X1954500D03*
X1990900Y2069100D03*
X1980900D03*
X1970900D03*
X1960900D03*
X1950900D03*
X2051400Y2115500D03*
Y2105500D03*
Y2095500D03*
Y2085500D03*
Y2075500D03*
Y2065500D03*
Y2055500D03*
Y2045500D03*
Y2035500D03*
X2081400D03*
Y2045500D03*
Y2055500D03*
Y2065500D03*
Y2075500D03*
Y2085500D03*
Y2095500D03*
Y2105500D03*
Y2115500D03*
Y2125500D03*
X1978300Y2379700D03*
X1952709D03*
Y2397417D03*
X1978300D03*
X1908300Y2456900D03*
Y2446900D03*
Y2436900D03*
Y2426900D03*
Y2416900D03*
Y2406900D03*
Y2396900D03*
Y2386900D03*
Y2376900D03*
Y2366900D03*
Y2356900D03*
Y2346900D03*
Y2336900D03*
Y2326900D03*
Y2316900D03*
Y2306900D03*
Y2296900D03*
Y2286900D03*
Y2276900D03*
Y2266900D03*
Y2256900D03*
Y2246900D03*
Y2236900D03*
Y2226900D03*
Y2216900D03*
Y2206900D03*
Y2196900D03*
Y2186900D03*
Y2176900D03*
Y2166900D03*
Y2156900D03*
Y2146900D03*
Y2136900D03*
Y2126900D03*
Y2116900D03*
Y2106900D03*
Y2096900D03*
Y2086900D03*
Y2076900D03*
Y2066900D03*
Y2056900D03*
Y2046900D03*
Y2036900D03*
Y2026900D03*
Y2016900D03*
Y2006900D03*
Y1996900D03*
Y1986900D03*
Y1976900D03*
Y1966900D03*
Y1956900D03*
Y1946900D03*
Y1936900D03*
Y1926900D03*
Y1916900D03*
Y1906900D03*
Y1896900D03*
Y1886900D03*
X2028600Y2119900D03*
Y2109900D03*
Y2099900D03*
Y2089900D03*
Y2079900D03*
Y2069900D03*
Y2059900D03*
Y2049900D03*
Y2039900D03*
X2011400Y2119800D03*
Y2109800D03*
Y2099800D03*
Y2089800D03*
Y2079800D03*
Y2069800D03*
Y2059800D03*
Y2049800D03*
Y2039800D03*
X2055800Y2299900D03*
X2065800Y2309900D03*
X2055800D03*
X2065800Y2319900D03*
X2055800D03*
X2065800Y2329900D03*
X2055800D03*
X2065800Y2339900D03*
X2055800D03*
X2012800Y1881700D03*
X1987209D03*
Y1899417D03*
X2012800D03*
G54D17*
X1962598Y1845748D03*
G54D18*
X1966535Y1843780D03*
X1970472D03*
X1974409D03*
X1978346D03*
X1982283D03*
X1986220D03*
X1990157D03*
X1994094D03*
X1998031D03*
X2001969D03*
X2013780D03*
X2017717D03*
X2021654D03*
X2025591D03*
X2029528D03*
X2033465D03*
X2037402D03*
G54D24*
X2006400Y2230400D03*
G54D26*
X1961400Y1853100D02*
X1961620Y1851647D01*
Y1845748*
X1962598*
X1961400Y1853100D02*
Y1878236D01*
X1962864Y1879700*
X1964936*
X1970700Y1873936*
Y1865600*
X1974409Y1843780D02*
Y1862209D01*
X1975100Y1862900*
Y1874500*
X1970472Y1843780D02*
X1970618D01*
Y1850815*
X1966535Y1843780D02*
X1966681D01*
Y1850815*
X1989600Y1859400D02*
Y1855300D01*
X1990157Y1854743*
Y1843780*
X1993700Y1854900D02*
X1993903D01*
Y1843780*
X1994094*
X2017717D02*
Y1861317D01*
X2022400Y1866000*
X2013780Y1843780D02*
Y1865680D01*
X2021800Y1873700*
X2001969Y1843780D02*
Y1864580D01*
X2016800Y1879412*
Y1883357*
X2025591Y1843780D02*
X2025445D01*
Y1850815*
X2031100Y1856470*
Y1872592*
X2021654Y1843780D02*
Y1856654D01*
X2028600Y1863600*
X1908300Y1886900D02*
X1933500D01*
X1945600Y1899000*
X1975324*
X1985512Y1909188*
X1993488*
X1994400Y1910100*
X1996610*
X2004474Y1917964*
X1962300Y1891000D02*
X1970003D01*
X1985403Y1906400*
X1989900*
X1967700Y1872700D02*
Y1853733D01*
X1970618Y1850815*
X1963900Y1877200D02*
Y1853596D01*
X1966681Y1850815*
X2013800Y1888336D02*
Y1886357D01*
X2016800Y1883357*
X2013800Y1888336D02*
X2019864Y1894400D01*
X2020636*
X2036600Y1910364*
Y2035950*
X2043500Y2042850*
Y2081600*
X1999000Y1868900D02*
Y1874011D01*
X2010900Y1885911*
Y1888200*
X2019700Y1897000*
X2013800Y1869800D02*
Y1873800D01*
X2019500Y1879500*
X1995900Y1863700D02*
Y1874900D01*
X2007000Y1886000*
X2016346Y1887346D02*
X2031100Y1872592D01*
X1998000Y1895500D02*
X2001700D01*
X2002200Y1896000*
X2006000*
X1987209Y1899417D02*
X1994129D01*
X1995045Y1898500*
X2004000*
X2004917Y1899417*
X2012800*
X2031100Y1872592D02*
X2061200Y1902692D01*
X2067987*
X2068756Y1901923*
X2069177*
X2069400Y1901700*
X2045800Y1883400D02*
X2054100Y1891700D01*
X2063600*
X2045800Y1883400D02*
Y1878500D01*
X2049500Y1874800*
X2084900*
X2088200Y1878100*
X2020882Y1889882D02*
X2028562D01*
X2050881Y1912200*
X2072100*
X2073900Y1914000*
Y2004838*
X2037800Y1887500D02*
X2058200Y1907900D01*
X2080200*
X2082200Y1909900*
Y1922300*
X2027700Y1884000D02*
X2051500Y1907800D01*
Y1908000*
X2053300Y1909800*
X2075200*
X2079500Y1914100*
Y1927700*
X2054400Y1886700D02*
X2063100D01*
X2057600Y1878300D02*
X2067100D01*
X2069400Y1881700*
X1936622Y1936465D02*
X1955865D01*
X1961700Y1942300*
X1925900Y1927100D02*
X1944600Y1908400D01*
X1976900*
X1908300Y1906900D02*
X1943600D01*
X1944600Y1905900*
X1978973*
X1984073Y1911000*
X1992027*
X1992627Y1911600*
X1994574*
X2001974Y1919000*
X1908300Y1936900D02*
X1922060D01*
X1947160Y1911800*
X1969800*
X1972900Y1914900*
X1976400*
X1949600Y1925013D02*
X1994200Y1969613D01*
Y2005284*
X2000500Y2011584*
Y2044600*
X2005200Y2049300*
Y2065600*
X1949600Y1925013D02*
Y1920100D01*
X1951200Y1918500*
Y1915700*
X1978300Y1932400D02*
Y1923218D01*
X1979516Y1922002*
Y1914984*
X1981900Y1912600*
X1943286Y1932078D02*
Y1920078D01*
X1950164Y1913200*
X1968236*
X1974200Y1919164*
Y1943997*
X1997800Y1967597*
Y1986700*
X2001000Y1989900*
Y2000000*
X1952100Y1921500D02*
X1961434Y1930834D01*
Y1934031*
X1995800Y1968397*
Y1986700*
X1996800Y1987700*
Y1992200*
X1976900Y1937500D02*
X1979784Y1940384D01*
Y1941906*
X1986900Y1949022*
Y1950436*
X1988764Y1952300*
X1990836*
X1997100Y1946036*
Y1942400*
X2005000Y1934500*
X1958800Y1916200D02*
Y1925436D01*
X1968831Y1935466*
X1969466*
X1971500Y1937500*
X1969000Y1917500D02*
Y1924800D01*
X1969600Y1925400*
Y1932700*
X1982300Y1929616D02*
X1986700Y1925316D01*
Y1913400*
X1987600Y1912500*
X1991200*
X1991700Y1913000*
X1993400*
X1998195Y1917795*
Y1919005*
X2000691Y1921500*
X2003010*
X2004474Y1920036*
Y1917964*
X1982300Y1929616D02*
Y1942300D01*
X1989800Y1949800*
X2013000Y1927782D02*
X2020400Y1935182D01*
X1984800Y1939600D02*
X1992761D01*
X2000361Y1932000*
X2008536*
X2016200Y1939664*
Y1985277*
X1987362Y1933187D02*
X1993591D01*
X1996178Y1930600*
X2009115*
X2017600Y1939085*
Y1988415*
X1989300Y1915300D02*
X1992650Y1915350D01*
X1996500Y1918300*
Y1920137*
X1999863Y1922900*
X2004936*
X2008500Y1926464*
Y1927411*
X2019000Y1937911*
X2013400Y1906500D02*
X2020500Y1899400D01*
X2022456*
X2026300Y1903244*
Y1998060*
X1999000Y1901000D02*
X2006034Y1908034D01*
Y1908169*
X2012764Y1914900*
X2014836*
X2018500Y1911236*
Y1907600*
X1996000Y1907500D02*
X2005775Y1917275D01*
X2006029*
X2022100Y1933346*
Y1994609*
X1996955Y1926601D02*
X1999899D01*
X2001000Y1925500*
X2004000*
X2006000Y1902000D02*
X2008534Y1904534D01*
Y1907134*
X2013800Y1912400*
X2020200Y1925900D02*
Y1928900D01*
X2023500Y1932200*
Y1995842*
X2021510Y1901990D02*
Y1910191D01*
X2024900Y1913581*
X2082600Y1937200D02*
X2088200Y1931600D01*
Y1878100*
X1901500Y1978043D02*
X1907643Y1971900D01*
X1908957*
X1924066Y1956791*
Y1954434*
X1929200Y1949300*
X1901500Y1978043D02*
Y2105757D01*
X1907643Y2111900*
X1908957*
X1912300Y2115243*
X1918900Y1968564D02*
X1928379Y1959086D01*
Y1956221*
X1938000Y1946600*
X1937200Y1962300D02*
Y1982616D01*
X1941400Y1986816*
Y2007500*
X1956000Y1975500D02*
Y1996500D01*
X1976800Y1958400D02*
X1979534Y1961134D01*
Y1967434*
X1986300Y1974200*
Y1996976*
X1945000Y1958900D02*
Y1963300D01*
X1946300Y1964600*
X2000000Y1977000D02*
X2002300Y1979300D01*
Y1982500*
X2000000Y1977000D02*
Y1961712D01*
X2003887Y1957825*
Y1955072*
X2011200Y1951700D02*
X2012700Y1950200D01*
Y1944700*
X2011200Y1951700D02*
Y1966178D01*
X2012233Y1967211*
Y1970354*
X2001400Y1968200D02*
Y1975562D01*
X2004800Y1978962*
X2001400Y1968200D02*
X2004300Y1965300D01*
Y1961200*
X1984000Y1949800D02*
X1988550Y1954350D01*
Y1954750*
X1993100Y1959300*
X1982800Y1962500D02*
X1987700Y1967400D01*
X2013700Y1955700D02*
Y1964500D01*
X2051300Y1956800D02*
Y1982206D01*
X2057900Y1988806*
Y1994203*
X2057100Y1963300D02*
X2061700Y1967900D01*
Y2086100*
X2062204Y2086604*
Y2207204*
X2056500Y1971900D02*
Y1980100D01*
X2059300Y1982900*
Y2194700*
X2064700Y1967400D02*
Y2088000D01*
X2065500Y2088800*
Y2211800*
X1902900Y1986643D02*
Y2097300D01*
X1908300Y2102700*
Y2106900*
X1902900Y1986643D02*
X1907643Y1981900D01*
X1909100*
X1930879Y1960121*
Y1958221*
X1946900Y1942200*
X1908300Y1986900D02*
X1929700Y1965500D01*
Y1964285*
X1941785Y1952200*
X1961100*
X1908300Y2016900D02*
X1931100Y1994100D01*
Y1964864*
X1939564Y1956400*
X1961300*
X1968000Y1963100*
X2004015Y1995628D02*
Y1988724D01*
X2004800Y1987939*
Y1978962*
X2024500Y2002236D02*
X2026000Y2003736D01*
Y2036490*
X2024500Y2002236D02*
Y1999860D01*
X2026300Y1998060*
X2023100Y1998875D02*
X2024900Y1997075D01*
Y1913581*
X2023100Y1998875D02*
Y2002815D01*
X2024600Y2004315*
X2027050Y2001250D02*
X2032600Y2006800D01*
Y2061700*
X2076000Y2005838D02*
X2076400Y2004838D01*
Y1928400*
X2076000Y2005838D02*
Y2320200D01*
X2080200Y2324400*
X2077400Y2015633D02*
X2079500Y2013533D01*
Y1927700*
X2077400Y2015633D02*
Y2170485D01*
X2083700Y2176785*
X2083300Y2011600D02*
Y2022900D01*
X2085400Y2025000*
Y2288100*
X1904300Y2028557D02*
Y2015243D01*
X1907643Y2011900*
X1908957*
X1918886Y2001971*
Y1980556*
X1904300Y2028557D02*
X1906643Y2030900D01*
X1913000*
X1915500Y2028400*
X1921000*
X1904300Y2045243D02*
X1907643Y2041900D01*
X1911036*
X1946300Y2006636*
Y1964600*
X1904300Y2045243D02*
Y2068700D01*
X1908300Y2072700*
Y2076900*
Y2026900D02*
X1923680Y2011520D01*
Y2009820*
X1938000Y1995500*
X1908300Y2046900D02*
X1933664Y2021536D01*
X1934500*
X1962579Y1993456*
Y1987870*
X1908300Y2056900D02*
X1965993Y1999207D01*
Y1991906*
X2011400Y2049800D02*
X2007400Y2045800D01*
Y2037054*
X2014000Y2030454*
Y1987477*
X2016200Y1985277*
X2006500Y2030500D02*
Y2018900D01*
X2009100Y2016300*
Y1944200*
X2010100Y1941700*
Y1939900*
X2023200Y2036957D02*
X2024600Y2035557D01*
Y2004315*
X2023200Y2036957D02*
Y2082137D01*
X2026663Y2085600*
X2029957*
X2032600Y2088243*
X2043100Y2027600D02*
X2049157D01*
X2056500Y2034943*
X2040000Y2054200D02*
Y2081636D01*
X2043864Y2085500*
X2051400*
X1950900Y2069100D02*
Y2098300D01*
X1954500Y2101900*
Y2131200*
X1960900Y2069100D02*
Y2019876D01*
X1983800Y1996976*
Y1979900*
X1960900Y2069100D02*
Y2098300D01*
X1964500Y2101900*
Y2131200*
X1970900Y2069100D02*
Y2012376D01*
X1986300Y1996976*
X2011400Y2069800D02*
Y2065600D01*
X2015500Y2061500*
Y1990515*
X2017600Y1988415*
X2011400Y2089800D02*
Y2085600D01*
X2017000Y2080000*
Y1993256*
X2019000Y1991256*
Y1937911*
X1980900Y2069100D02*
Y2098300D01*
X1984500Y2101900*
Y2131200*
X2024600Y2081557D02*
X2027043Y2084000D01*
X2030337*
X2034000Y2087663*
Y2092137*
X2024600Y2081557D02*
Y2037890D01*
X2026000Y2036490*
X2028600Y2089900D02*
X2021700Y2083000D01*
Y1997642*
X2023500Y1995842*
X2023200Y2097663D02*
X2026663Y2094200D01*
X2029957*
X2032600Y2091557*
Y2088243*
X2023200Y2097663D02*
Y2102137D01*
X2026663Y2105600*
X2029957*
X2032600Y2108243*
X2036700Y2069400D02*
Y2080800D01*
X2051400Y2095500*
X2028600Y2069900D02*
Y2065700D01*
X2032600Y2061700*
X2028600Y2099900D02*
X2032800D01*
X2036000Y2096700*
X1954500Y2131200D02*
X1958500Y2135200D01*
X1966157*
X1969500Y2131857*
Y2103350*
X1975900Y2096950*
Y2016569*
X1987700Y2004769*
Y1967400*
X1997000Y2131000D02*
Y2128500D01*
X1998000Y2127500*
Y2107543*
X2010743Y2094800*
X2012057*
X2018500Y2088357*
Y1994982*
X2020400Y1993082*
Y1935182*
X2004900Y2121500D02*
Y2110643D01*
X2010743Y2104800*
X2012057*
X2016000Y2100857*
Y2096678*
X2020000Y2092678*
Y1996709*
X2022100Y1994609*
X2024600Y2101557D02*
X2027043Y2104000D01*
X2030337*
X2034000Y2107663*
Y2271600*
X2024600Y2101557D02*
Y2098243D01*
X2027143Y2095700*
X2030437*
X2034000Y2092137*
X2020100Y2125800D02*
Y2115864D01*
X2022450Y2113514*
X2024986*
X2028600Y2109900*
X2043500Y2111000D02*
X2046900D01*
X2051400Y2115500*
X2039000Y2138300D02*
Y2127900D01*
X2051400Y2115500*
X2037100Y2103100D02*
X2042300D01*
X2044700Y2105500*
X2051400*
X1908300Y2146900D02*
Y2142700D01*
X1912300Y2138700*
Y2115243*
X1955100Y2179180D02*
Y2198900D01*
X1958100Y2201900*
X1955100Y2179180D02*
X1959500Y2174780D01*
Y2160543*
X1973843Y2146200*
X1975157*
X1995000Y2126357*
Y2086200*
X2011400Y2069800*
X1964500Y2179200D02*
Y2171800D01*
X1969500Y2166800*
Y2153928*
X1996500Y2126928*
Y2104700*
X2011400Y2089800*
X2017900Y2171500D02*
X2024300Y2177900D01*
Y2261000*
X2017500Y2178500D02*
X2020800Y2181800D01*
Y2262450*
X2022100Y2263750*
X2027000Y2169000D02*
Y2216200D01*
X2028800Y2218000*
Y2265300*
X1956500Y2192595D02*
Y2197036D01*
X1958364Y2198900*
X1960300*
X1972500Y2211100*
X1977200*
X1956500Y2192595D02*
X1979500Y2169595D01*
Y2154286*
X2008986Y2124800*
X2012057*
X2018000Y2118857*
Y2100500*
X2028600Y2089900*
X1970300Y2190676D02*
Y2203700D01*
X1972900Y2206300*
X1970300Y2190676D02*
X2005300Y2155676D01*
Y2152200*
X1977300Y2195100D02*
Y2189000D01*
X1995900Y2170400*
X1998600*
X1974000Y2183000D02*
Y2179770D01*
X2022700Y2131070*
Y2116800*
X1959000Y2196000D02*
Y2192595D01*
X2020100Y2131495*
Y2125800*
X1972800Y2200900D02*
Y2190676D01*
X2010000Y2153476*
Y2148500*
X2028600Y2129900*
X2058800Y2202200D02*
Y2195200D01*
X2059300Y2194700*
X2042200Y2234600D02*
Y2230400D01*
X2048200Y2224400*
Y2199177*
X2057900Y2189477*
Y1994203*
X2042000Y2222900D02*
Y2198754D01*
X2056500Y2184254*
Y2034943*
X1908300Y2286900D02*
X1937600D01*
X1969500Y2255000*
X1908300Y2296900D02*
X1933600D01*
X1969500Y2261000*
X1977100Y2292500D02*
X1982350Y2287250D01*
X1983750*
X1989000Y2282000*
X1993600Y2290464D02*
Y2300200D01*
X2001400Y2308000*
X1993600Y2290464D02*
X2005264Y2278800D01*
X2010536*
X2022100Y2267236*
Y2263750*
X2013200Y2281200D02*
X2016436D01*
X2032600Y2265036*
Y2108243*
X2019100Y2284500D02*
X2030636D01*
X2038600Y2276536*
Y2198754*
X2049200Y2188154*
Y2160300*
X2054000Y2155500*
X2003500Y2289700D02*
X2019500D01*
X2019800Y2289400*
X2050957*
X2060800Y2299243*
Y2302314*
X2064264Y2305779*
X2067336*
X2008500Y2285300D02*
X2013700D01*
X2015900Y2287500*
X2053400*
X2065800Y2299900*
X2007500Y2296100D02*
X2046600D01*
X1996100Y2291500D02*
X2004400Y2299800D01*
X2035039*
X2040139Y2304900*
X2060800*
X2065800Y2309900*
X2024400Y2281200D02*
X2034000Y2271600D01*
X2031000Y2280600D02*
X2036100Y2275500D01*
Y2166500*
X2054000Y2148600*
X2080000Y2283000D02*
Y2251300D01*
X2083700Y2247600*
Y2176785*
X1966700Y2321300D02*
X2028189D01*
X2050789Y2343900*
X2067457*
X2069800Y2341557*
Y2328100*
X1975500Y2312500D02*
X2015277D01*
X2015777Y2312000*
X2027889*
X2050789Y2334900*
X2060800*
X2065800Y2339900*
X1975500Y2312500D02*
Y2300982D01*
X1993648Y2282834*
X1995066*
X2013200Y2264700*
X2009700Y2306600D02*
X2017100D01*
X2020200Y2303500*
X2067336Y2305779D02*
X2073500Y2299614D01*
Y2005238*
X2073900Y2004838*
X2067336Y2305779D02*
X2069800Y2308243D01*
X2081600Y2301300D02*
Y2291900D01*
X2085400Y2288100*
X2065800Y2319900D02*
X2069800Y2315900D01*
Y2308243*
X2065800Y2319900D02*
Y2324100D01*
X2069800Y2328100*
X1904300Y2365243D02*
X1907643Y2361900D01*
X1908957*
X1952300Y2318557*
Y2293282*
X1986582Y2259000*
X2012400*
X2019600Y2266200*
X1904300Y2365243D02*
Y2378700D01*
X1908300Y2382700*
Y2386900*
X1936100Y2360100D02*
X1972400Y2323800D01*
X1996600*
X1996800Y2324000*
X2021000*
X1908300Y2376900D02*
X1923700Y2361500D01*
Y2358785*
X1966985Y2315500*
X2004500*
X1904300Y2405243D02*
Y2412900D01*
X1908300Y2416900*
X1904300Y2405243D02*
X1907643Y2401900D01*
X1915928*
X1959128Y2358700*
X1968600*
X1908300Y2396900D02*
X1925100Y2380100D01*
Y2359364*
X1966064Y2318400*
X2010600*
X2014500Y2314500*
X2022500*
X1952709Y2397417D02*
X1978300D01*
G54D27*
X1978346Y1843780D02*
Y1896352D01*
X1985595Y1903600*
X1996850*
X2013050Y1919800*
X2021600*
X1986220Y1843780D02*
Y1863420D01*
X1988100Y1865300*
Y1871400*
X1982283Y1843780D02*
Y1861783D01*
X1982400Y1861900*
Y1873800*
X1989100Y1892100D02*
Y1887600D01*
X1992700Y1884000*
Y1861400*
X1998031Y1856069*
Y1843780*
X2038500Y1906000D02*
X2047600Y1916600D01*
Y1984500*
X2047800Y1986600*
X1971900Y1953800D02*
X1972800Y1981200D01*
X1965600Y1948500D02*
X1967100Y1950100D01*
X1970400*
X1971900Y1953800*
X2004100Y1971400D02*
Y1975000D01*
X2006900Y1977800*
Y2007078*
X2004100Y1971400D02*
Y1968200D01*
X2007100Y1965200*
Y1950600*
X2004600Y1941800D02*
Y1948100D01*
X2007100Y1950600*
X2003700Y2031660D02*
X2005340Y2033300D01*
X2007660*
X2012200Y2028760*
Y1982900*
X2003700Y2031660D02*
Y2010278D01*
X2006900Y2007078*
X2068600Y2227000D02*
Y1994900D01*
X2070400Y1992300*
Y1986600*
X1968900Y2280500D02*
Y2292100D01*
X1969000Y2292200*
Y2303900*
X2034300Y2292600D02*
X2034400Y2292700D01*
X2034700*
X2034300Y2292600D02*
X2048500D01*
X2055800Y2299900*
X1978400Y2301900D02*
X1987300Y2310800D01*
X2008566*
X2009466Y2309900*
X2055800*
X1973800Y2326500D02*
X1982400Y2335100D01*
Y2406428*
X1988100Y2374100D02*
Y2389500D01*
X1991900Y2393300*
Y2408800*
X2029400Y2342700D02*
X2030100Y2343400D01*
X2030300*
X2038800Y2351900*
X2055800*
X1983800Y2416300D02*
X1996100D01*
X2029900Y2382500*
X2000300Y2438300D02*
X1981000Y2426900D01*
Y2407828*
X1982400Y2406428*
G54D28*
X1989600Y1859400D03*
X1993700Y1854900D03*
X1962300Y1891000D03*
X1967700Y1872700D03*
X1975100Y1874500D03*
X1970700Y1865600D03*
X1963900Y1877200D03*
X1988100Y1871400D03*
X1989100Y1892100D03*
X2019700Y1897000D03*
X1999000Y1868900D03*
X2019500Y1879500D03*
X2013800Y1869800D03*
X2007000Y1886000D03*
X1995900Y1863700D03*
X2016346Y1887346D03*
X2006000Y1896000D03*
X1998000Y1895500D03*
X2021800Y1873700D03*
X2022400Y1866000D03*
X2028600Y1863600D03*
X2020882Y1889882D03*
X2037800Y1887500D03*
X2027700Y1884000D03*
X2054400Y1886700D03*
X2057600Y1878300D03*
X2063600Y1891700D03*
X2080300Y1881700D03*
X2063100Y1886700D03*
X1936622Y1936465D03*
X1925900Y1927100D03*
X1978300Y1932400D03*
X1943286Y1932078D03*
X1952100Y1921500D03*
X1976900Y1937500D03*
X1971500D03*
X1958800Y1916200D03*
X1951200Y1915700D03*
X1969600Y1932700D03*
X1969000Y1917500D03*
X1976400Y1914900D03*
X1976900Y1908400D03*
X2013000Y1927782D03*
X2010100Y1939900D03*
X1981900Y1912600D03*
X1989900Y1906400D03*
X2005000Y1934500D03*
X1984800Y1939600D03*
X1987362Y1933187D03*
X1989300Y1915300D03*
X2013400Y1906500D03*
X1983700Y1919300D03*
X2018500Y1907600D03*
X1999000Y1901000D03*
X1996000Y1907500D03*
X2001974Y1919000D03*
X2004000Y1925500D03*
X1996955Y1926601D03*
X2013800Y1912400D03*
X2006000Y1902000D03*
X2020200Y1925900D03*
X2021510Y1901990D03*
X2030900Y1931400D03*
X2038500Y1906000D03*
X2021600Y1919800D03*
X2082600Y1937200D03*
X2076400Y1928400D03*
X2082200Y1922300D03*
X1929200Y1949300D03*
X1918900Y1968564D03*
X1938000Y1946600D03*
X1937200Y1962300D03*
X1956000Y1975500D03*
X1961100Y1952200D03*
X1961700Y1942300D03*
X1977500Y1978000D03*
X1943600Y1967600D03*
X1971900Y1953800D03*
X1965600Y1948500D03*
X1976800Y1958400D03*
X1946900Y1942200D03*
X1945000Y1958900D03*
X1968000Y1963100D03*
X1984000Y1949800D03*
X1993100Y1959300D03*
X1989800Y1949800D03*
X1983800Y1979900D03*
X1982800Y1962500D03*
X2012233Y1970354D03*
X2012700Y1944700D03*
X2013700Y1964500D03*
Y1955700D03*
X2004300Y1961200D03*
X2003887Y1955072D03*
X2004100Y1971400D03*
X2004600Y1941800D03*
X2051300Y1956800D03*
X2057100Y1963300D03*
X2056500Y1971900D03*
X2064700Y1967400D03*
X1918886Y1980556D03*
X1938000Y1995500D03*
X1956000Y1996500D03*
X1962579Y1987870D03*
X1965993Y1991906D03*
X1972800Y1981200D03*
X1941400Y2007500D03*
X2001000Y2000000D03*
X1996800Y1992200D03*
X2004015Y1995628D03*
X2002300Y1982500D03*
X1988800Y2014700D03*
X1990700Y1982400D03*
X2012200Y1982900D03*
X2027050Y2001250D03*
X2033900Y1997600D03*
X2047800Y1986600D03*
X2070400D03*
X2083300Y2011600D03*
X1921000Y2028400D03*
X2006500Y2030500D03*
X2043100Y2027600D03*
X2040000Y2054200D03*
X2005200Y2065600D03*
X2043500Y2081600D03*
X2036000Y2096700D03*
X2036700Y2069400D03*
X1997000Y2131000D03*
X2004900Y2121500D03*
X2022700Y2116800D03*
X2020100Y2125800D03*
X2043500Y2111000D03*
X2039000Y2138300D03*
X2037100Y2103100D03*
X1964500Y2179200D03*
X1998600Y2170400D03*
X2005300Y2152200D03*
X2017900Y2171500D03*
X2017500Y2178500D03*
X1987300Y2153400D03*
X2054000Y2155500D03*
Y2148600D03*
X2053800Y2178300D03*
X2053600Y2171400D03*
X2023000Y2155500D03*
X2027000Y2169000D03*
X1977300Y2195100D03*
X1974000Y2183000D03*
X1977200Y2211100D03*
X1959000Y2196000D03*
X1972900Y2206300D03*
X1958100Y2201900D03*
X1957800Y2215700D03*
X1972800Y2200900D03*
X2011400Y2197400D03*
X1989800Y2196400D03*
X2058800Y2202200D03*
X2055800Y2216700D03*
X2054700Y2206200D03*
X2065500Y2211800D03*
X2062204Y2207204D03*
X1969500Y2255000D03*
X1953300Y2245500D03*
X1955900Y2227400D03*
X2042200Y2234600D03*
X2042000Y2222900D03*
X2057400Y2235500D03*
X2068600Y2227000D03*
X1969500Y2261000D03*
X1968900Y2280500D03*
X1977100Y2292500D03*
X2013200Y2281200D03*
X2019100Y2284500D03*
X2003500Y2289700D03*
X2013200Y2264700D03*
X2008500Y2285300D03*
X2019600Y2266200D03*
X2007500Y2296100D03*
X1989000Y2282000D03*
X1996100Y2291500D03*
X2024400Y2281200D03*
X2031000Y2280600D03*
X2024300Y2261000D03*
X2028800Y2265300D03*
X2046600Y2296100D03*
X2080000Y2283000D03*
X1978400Y2301900D03*
X1969000Y2303900D03*
X1973800Y2326500D03*
X1966700Y2321300D03*
X1975500Y2312500D03*
X2001400Y2308000D03*
X2009700Y2306600D03*
X2004500Y2315500D03*
X2021000Y2324000D03*
X2020200Y2303500D03*
X2022500Y2314500D03*
X2080200Y2324400D03*
X2081600Y2301300D03*
X1936100Y2360100D03*
X1968600Y2358700D03*
X1988100Y2374100D03*
X2055800Y2351900D03*
X1991900Y2408800D03*
X1983800Y2416300D03*
X2029900Y2382500D03*
X2000300Y2438300D03*
X2018600Y2436400D03*
G54D54*
X2074400Y1881700D03*
X2069400D03*
X2074400Y1886700D03*
X2069400D03*
X2074400Y1891700D03*
X2069400D03*
X2074400Y1896700D03*
X2069400D03*
X2074400Y1901700D03*
X2069400D03*
X1982400Y1873800D03*
X1991800Y1919500D03*
X2042500Y1937800D03*
X1941800Y1974000D03*
X2043100Y1950700D03*
X1990400Y2007600D03*
X2048200Y1996600D03*
X2033200Y1989300D03*
X1995800Y2020100D03*
X2081800Y2138200D03*
X2015500Y2150600D03*
X1977700Y2218200D03*
X2013200Y2181900D03*
X1989400D03*
X1990500Y2214300D03*
X2056800Y2210900D03*
X2044300Y2187900D03*
X2080100Y2213000D03*
X1938400Y2257700D03*
X1976200Y2232400D03*
X1974600Y2240900D03*
X2042200Y2257200D03*
X2059200Y2241600D03*
X2056100Y2223300D03*
X2069100Y2250900D03*
X1941700Y2265300D03*
X2008000Y2262300D03*
X1991600Y2264100D03*
X1997600Y2262300D03*
X2051100Y2272600D03*
X2034700Y2292700D03*
X2067100Y2269300D03*
X1935200Y2308300D03*
X2005000Y2331000D03*
X1969400Y2341100D03*
X2029400Y2342700D03*
X2029000Y2371900D03*
X1997400Y2392600D03*
X2035000Y2405500D03*
X2026500Y2415600D03*
X2078200Y2385900D03*
X1943600Y2447400D03*
X0Y0D02*
M02*
