M48
;FILE_FORMAT=2:4
INCH,LZ
FMAT,2
ICI,OFF
;TYPE=PLATED
T1C.015
T2C.028
T3C.035
T4C.037
T5C.1875
%
M72
G90
G93X0Y0
T1C.015F0S0
X19512Y19157
X19521Y19215
X19259Y19271
X194329Y193208
X193662Y193647
X19469Y19422
X1938Y19466
X19292Y19493
X1945Y19589
X19372Y19623
X19436Y19676
X19189Y196856
X19418Y1974
X1956Y19755
X191889Y198056
X1938Y19955
X1956Y19965
X19414Y20075
X1921Y20284
X19581Y22019
X19578Y22157
X19559Y22274
X19533Y22455
X19384Y22577
X19417Y22653
X19352Y23083
X19361Y23601
X19436Y24474
X19686Y23587
X19694Y23411
X19738Y23265
X19667Y23213
X19755Y23125
X1969Y23039
X19784Y23019
X19771Y22925
X19689Y22805
X19695Y2261
X19695Y2255
X19746Y22409
X19762Y22324
X19777Y22182
X19772Y22111
X19729Y22063
X19728Y22009
X1959Y2196
X19773Y21951
X1974Y2183
X19645Y21792
X196599Y199191
X196258Y198787
X19728Y19812
X19775Y1978
X1968Y19631
X19828Y19625
X19768Y19584
X19719Y19538
X19611Y19522
X19656Y19485
X19617Y19423
X19769Y19375
X19715Y19375
X19696Y19327
X19783Y19324
X1969Y19175
X19588Y19162
X19764Y19149
X19819Y19126
X19769Y19084
X19623Y1891
X19639Y18772
X19751Y18745
X19824Y18738
X19677Y18727
X19707Y18656
X19937Y18549
X19896Y18594
X19959Y18637
X1999Y18689
X19881Y18714
X2007Y1886
X19891Y18921
X1998Y18955
X2006Y1896
X1999Y1901
X2006Y1902
X19899Y19064
X1996Y19075
X19893Y19153
X200197Y1919
X19837Y19193
X19918Y19195
X2004Y19255
X199696Y19266
X198736Y193319
X2005Y19345
X19848Y19396
X20046Y19418
X19898Y19498
X1984Y19498
X200389Y195507
X19931Y19593
X20043Y19612
X20041Y19714
X19838Y19799
X19907Y19824
X20023Y19825
X19968Y19922
X200402Y199563
X2001Y2
X19904Y20076
X19888Y20147
X19958Y20201
X20065Y20305
X20052Y20656
X20049Y21215
X1997Y2131
X20053Y21522
X19873Y21534
X19986Y21704
X19894Y21819
X19898Y21964
X19905Y22143
X19976Y22623
X2008Y22623
X19916Y22641
X1989Y2282
X20035Y22897
X19961Y22915
X20075Y22961
X20014Y2308
X20045Y23155
X2005Y2331
X19881Y23741
X19974Y23926
X19919Y24088
X19838Y24163
X20003Y24383
X20186Y24364
X20265Y24156
X20299Y23825
X2029Y23719
X20294Y23427
X2021Y2324
X20225Y23145
X20097Y23066
X20202Y23035
X20085Y22853
X20191Y22845
X20132Y22812
X20244Y22812
X2031Y22806
X20196Y22662
X20288Y22653
X20132Y22647
X20243Y2261
X20114Y21974
X20132Y21819
X20175Y21785
X20179Y21715
X2027Y2169
X2023Y21555
X20155Y21506
X20201Y21258
X20227Y21168
X202705Y200125
X20332Y19893
X20122Y19829
X201223Y197035
X20137Y19645
X20137Y19557
X20127Y19447
X20101Y19399
X20309Y19314
X2013Y192778
X20202Y19259
X20216Y19198
X20138Y19124
X20185Y19076
X20134Y19065
X202151Y190199
X20197Y1897
X202088Y188988
X201635Y188735
X20277Y1884
X20195Y18795
X20218Y18737
X20138Y18698
X20224Y1866
X20286Y18636
X20576Y18783
X20544Y18867
X20378Y18875
X20385Y1906
X20425Y19378
X20431Y19507
X20513Y19568
X20571Y19633
X20565Y19719
X20478Y19866
X20482Y19966
X20339Y19976
X20431Y20276
X204Y20542
X20367Y20694
X20435Y20816
X2036Y20967
X20371Y21031
X20435Y2111
X2039Y21383
X2054Y21486
X2054Y21555
X20536Y21714
X20538Y21783
X20443Y21879
X20547Y22062
X20568Y22109
X20558Y22167
X2042Y22229
X20561Y22233
X20422Y22346
X20574Y22355
X20422Y22572
X20511Y22726
X20347Y22927
X20466Y22961
X20558Y23519
X2035Y24055
X20782Y23859
X20802Y23244
X20816Y23013
X208Y2283
X20671Y22693
X20691Y22509
X20592Y22416
X20686Y2227
X20801Y2213
X20655Y22118
X20622Y22072
X20588Y22022
X20818Y21382
X20833Y20116
X20704Y19866
X20647Y19674
X20826Y19372
X20764Y19284
X20822Y19223
X20636Y18917
X20631Y18867
X20803Y18817
T2C.028F0S0
X20744Y18817
X20694Y18817
X20744Y18867
X20694Y18867
X20744Y18917
X20694Y18917
X20744Y18967
X20694Y18967
X20744Y19017
X20694Y19017
T3C.035F0S0
X19083Y18869
X19083Y18969
X19083Y19069
X19083Y19169
X19083Y19269
X19083Y19369
X19083Y19469
X19083Y19569
X19083Y19669
X19083Y19769
X19083Y19869
X19083Y19969
X19083Y20069
X19083Y20169
X19083Y20269
X19083Y20369
X19083Y20469
X19083Y20569
X19083Y20669
X19083Y20769
X19083Y20869
X19083Y20969
X19083Y21069
X19083Y21169
X19083Y21269
X19083Y21369
X19083Y21469
X19083Y21569
X19083Y21669
X19083Y21769
X19083Y21869
X19083Y21969
X19083Y22069
X19083Y22169
X19083Y22269
X19083Y22369
X19083Y22469
X19083Y22569
X19083Y22669
X19083Y22769
X19083Y22869
X19083Y22969
X19083Y23069
X19083Y23169
X19083Y23269
X19083Y23369
X19083Y23469
X19083Y23569
X19083Y23669
X19083Y23769
X19083Y23869
X19083Y23969
X19083Y24069
X19083Y24169
X19083Y24269
X19083Y24369
X19083Y24469
X19083Y24569
X195271Y239742
X19783Y239742
X19783Y23797
X195271Y23797
X19545Y21612
X19745Y21612
X19645Y21612
X19645Y21312
X19745Y21312
X19545Y21312
X19509Y20691
X19809Y20691
X19709Y20691
X19609Y20691
X198721Y18817
X20128Y18817
X198721Y189942
X20128Y189942
X20114Y20398
X20286Y20399
X20114Y20498
X20286Y20499
X20114Y20598
X20286Y20599
X19909Y20691
X20114Y20698
X20286Y20699
X20114Y20798
X20286Y20799
X20114Y20898
X20286Y20899
X20114Y20998
X20286Y20999
X20114Y21098
X20286Y21099
X20114Y21198
X20286Y21199
X20114Y21298
X20286Y21299
X19845Y21312
X19845Y21612
X20514Y21255
X20814Y21255
X20514Y21155
X20814Y21155
X20814Y21055
X20514Y21055
X20514Y20955
X20814Y20955
X20814Y20855
X20514Y20855
X20814Y20755
X20514Y20755
X20814Y20655
X20514Y20655
X20814Y20555
X20514Y20555
X20814Y20455
X20514Y20455
X20814Y20355
X20514Y20355
T4C.037F0S0
X20558Y22999
X20558Y23099
X20558Y23199
X20558Y23299
X20558Y23399
X20658Y23399
X20658Y23299
X20658Y23199
X20658Y23099
X20658Y22999
T5C.1875F0S0
X20064Y22304
M30
