*
*
G04 PADS VX.2.1 Build Number: 6554490 generated Gerber (RS-274-X) file*
G04 PC Version=2.1*
*
%IN "uMuddMarkVLayout.pcb"*%
*
%MOIN*%
*
%FSLAX35Y35*%
*
*
*
*
G04 PC Standard Apertures*
*
*
G04 Thermal Relief Aperture macro.*
%AMTER*
1,1,$1,0,0*
1,0,$1-$2,0,0*
21,0,$3,$4,0,0,45*
21,0,$3,$4,0,0,135*
%
*
*
G04 Annular Aperture macro.*
%AMANN*
1,1,$1,0,0*
1,0,$2,0,0*
%
*
*
G04 Odd Aperture macro.*
%AMODD*
1,1,$1,0,0*
1,0,$1-0.005,0,0*
%
*
*
G04 PC Custom Aperture Macros*
*
*
*
*
*
*
G04 PC Aperture Table*
*
%ADD010C,0.001*%
%ADD014C,0.06*%
%ADD024C,0.25*%
%ADD027C,0.01*%
%ADD028C,0.03*%
%ADD029C,0.015*%
%ADD054C,0.042*%
*
*
*
*
G04 PC Circuitry*
G04 Layer Name uMuddMarkVLayout.pcb - circuitry*
%LPD*%
*
*
G04 PC Custom Flashes*
G04 Layer Name uMuddMarkVLayout.pcb - flashes*
%LPD*%
*
*
G04 PC Circuitry*
G04 Layer Name uMuddMarkVLayout.pcb - circuitry*
%LPD*%
*
G54D10*
G54D14*
G01X1990900Y2069100D03*
X2081400Y2035500D03*
Y2045500D03*
Y2055500D03*
Y2065500D03*
Y2075500D03*
Y2085500D03*
Y2095500D03*
Y2105500D03*
Y2115500D03*
Y2125500D03*
X1978300Y2379700D03*
X1952709D03*
X1908300Y2446900D03*
X2055800Y2299900D03*
Y2339900D03*
X2012800Y1881700D03*
X1987209D03*
G54D24*
X2006400Y2230400D03*
G54D27*
X2084800Y1922300D02*
G75*
G03X2084800I-2600J0D01*
G01X2085200Y1937200D02*
G03X2085200I-2600J0D01*
G01X2085900Y2011600D02*
G03X2085900I-2600J0D01*
G01X2079000Y1928400D02*
G03X2079000I-2600J0D01*
G01X2085500Y2035500D02*
G03X2085500I-4100J0D01*
G01Y2045500D02*
G03X2085500I-4100J0D01*
G01Y2055500D02*
G03X2085500I-4100J0D01*
G01Y2065500D02*
G03X2085500I-4100J0D01*
G01Y2075500D02*
G03X2085500I-4100J0D01*
G01Y2085500D02*
G03X2085500I-4100J0D01*
G01Y2095500D02*
G03X2085500I-4100J0D01*
G01Y2105500D02*
G03X2085500I-4100J0D01*
G01Y2115500D02*
G03X2085500I-4100J0D01*
G01Y2125500D02*
G03X2085500I-4100J0D01*
G01X2085000Y2138200D02*
G03X2085000I-3200J0D01*
G01X2083300Y2213000D02*
G03X2083300I-3200J0D01*
G01X2082600Y2283000D02*
G03X2082600I-2600J0D01*
G01X2084200Y2301300D02*
G03X2084200I-2600J0D01*
G01X2082800Y2324400D02*
G03X2082800I-2600J0D01*
G01X2081400Y2385900D02*
G03X2081400I-3200J0D01*
G01X2073000Y1986600D02*
G03X2073000I-2600J0D01*
G01X2067300Y1967400D02*
G03X2067300I-2600J0D01*
G01X2060200Y1878300D02*
G03X2060200I-2600J0D01*
G01X2057000Y1886700D02*
G03X2057000I-2600J0D01*
G01X2059700Y1963300D02*
G03X2059700I-2600J0D01*
G01X2053900Y1956800D02*
G03X2053900I-2600J0D01*
G01X2059100Y1971900D02*
G03X2059100I-2600J0D01*
G01X2040400Y1887500D02*
G03X2040400I-2600J0D01*
G01X2041100Y1906000D02*
G03X2041100I-2600J0D01*
G01X2045700Y1937800D02*
G03X2045700I-3200J0D01*
G01X2046300Y1950700D02*
G03X2046300I-3200J0D01*
G01X2050400Y1986600D02*
G03X2050400I-2600J0D01*
G01X2051400Y1996600D02*
G03X2051400I-3200J0D01*
G01X2055500Y2035500D02*
G03X2055500I-4100J0D01*
G01Y2045500D02*
G03X2055500I-4100J0D01*
G01Y2055500D02*
G03X2055500I-4100J0D01*
G01Y2065500D02*
G03X2055500I-4100J0D01*
G01Y2075500D02*
G03X2055500I-4100J0D01*
G01Y2085500D02*
G03X2055500I-4100J0D01*
G01Y2095500D02*
G03X2055500I-4100J0D01*
G01Y2105500D02*
G03X2055500I-4100J0D01*
G01Y2115500D02*
G03X2055500I-4100J0D01*
G01Y2125500D02*
G03X2055500I-4100J0D01*
G01X2056600Y2148600D02*
G03X2056600I-2600J0D01*
G01Y2155500D02*
G03X2056600I-2600J0D01*
G01X2056200Y2171400D02*
G03X2056200I-2600J0D01*
G01X2056400Y2178300D02*
G03X2056400I-2600J0D01*
G01X2071200Y2227000D02*
G03X2071200I-2600J0D01*
G01X2072300Y2250900D02*
G03X2072300I-3200J0D01*
G01X2070300Y2269300D02*
G03X2070300I-3200J0D01*
G01X2069900Y2309900D02*
G03X2069900I-4100J0D01*
G01Y2319900D02*
G03X2069900I-4100J0D01*
G01Y2329900D02*
G03X2069900I-4100J0D01*
G01Y2339900D02*
G03X2069900I-4100J0D01*
G01X2054300Y2272600D02*
G03X2054300I-3200J0D01*
G01X2059900Y2299900D02*
G03X2059900I-4100J0D01*
G01Y2309900D02*
G03X2059900I-4100J0D01*
G01Y2319900D02*
G03X2059900I-4100J0D01*
G01Y2329900D02*
G03X2059900I-4100J0D01*
G01Y2339900D02*
G03X2059900I-4100J0D01*
G01X2058400Y2351900D02*
G03X2058400I-2600J0D01*
G01X2045700Y2027600D02*
G03X2045700I-2600J0D01*
G01X2042600Y2054200D02*
G03X2042600I-2600J0D01*
G01X2046100Y2081600D02*
G03X2046100I-2600J0D01*
G01Y2111000D02*
G03X2046100I-2600J0D01*
G01X2031200Y1863600D02*
G03X2031200I-2600J0D01*
G01X2030300Y1884000D02*
G03X2030300I-2600J0D01*
G01X2033500Y1931400D02*
G03X2033500I-2600J0D01*
G01X2036400Y1989300D02*
G03X2036400I-3200J0D01*
G01X2036500Y1997600D02*
G03X2036500I-2600J0D01*
G01X2039300Y2069400D02*
G03X2039300I-2600J0D01*
G01X2038600Y2096700D02*
G03X2038600I-2600J0D01*
G01X2039700Y2103100D02*
G03X2039700I-2600J0D01*
G01X2041600Y2138300D02*
G03X2041600I-2600J0D01*
G01X2047500Y2187900D02*
G03X2047500I-3200J0D01*
G01X2044600Y2222900D02*
G03X2044600I-2600J0D01*
G01X2044800Y2234600D02*
G03X2044800I-2600J0D01*
G01X2045400Y2257200D02*
G03X2045400I-3200J0D01*
G01X2049200Y2296100D02*
G03X2049200I-2600J0D01*
G01X2025000Y1866000D02*
G03X2025000I-2600J0D01*
G01X2029650Y2001250D02*
G03X2029650I-2600J0D01*
G01X2032700Y2039900D02*
G03X2032700I-4100J0D01*
G01Y2049900D02*
G03X2032700I-4100J0D01*
G01Y2059900D02*
G03X2032700I-4100J0D01*
G01Y2069900D02*
G03X2032700I-4100J0D01*
G01Y2079900D02*
G03X2032700I-4100J0D01*
G01Y2089900D02*
G03X2032700I-4100J0D01*
G01Y2099900D02*
G03X2032700I-4100J0D01*
G01Y2109900D02*
G03X2032700I-4100J0D01*
G01X2024400Y1873700D02*
G03X2024400I-2600J0D01*
G01X2016400Y1869800D02*
G03X2016400I-2600J0D01*
G01X2024200Y1919800D02*
G03X2024200I-2600J0D01*
G01X2022800Y1925900D02*
G03X2022800I-2600J0D01*
G01X2032700Y2129900D02*
G03X2032700I-4100J0D01*
G01X2022700Y2125800D02*
G03X2022700I-2600J0D01*
G01X2025600Y2155500D02*
G03X2025600I-2600J0D01*
G01X2029600Y2169000D02*
G03X2029600I-2600J0D01*
G01X2026900Y2261000D02*
G03X2026900I-2600J0D01*
G01X2031400Y2265300D02*
G03X2031400I-2600J0D01*
G01X2033600Y2280600D02*
G03X2033600I-2600J0D01*
G01X2037900Y2292700D02*
G03X2037900I-3200J0D01*
G01X2015600Y1927782D02*
G03X2015600I-2600J0D01*
G01X2004574Y1919000D02*
G03X2004574I-2600J0D01*
G01X2006600Y1925500D02*
G03X2006600I-2600J0D01*
G01X2007600Y1934500D02*
G03X2007600I-2600J0D01*
G01X2016300Y1955700D02*
G03X2016300I-2600J0D01*
G01X2014800Y1982900D02*
G03X2014800I-2600J0D01*
G01X2006700Y1971400D02*
G03X2006700I-2600J0D01*
G01X2004900Y1982500D02*
G03X2004900I-2600J0D01*
G01X2009100Y2030500D02*
G03X2009100I-2600J0D01*
G01X2015500Y2039800D02*
G03X2015500I-4100J0D01*
G01Y2049800D02*
G03X2015500I-4100J0D01*
G01Y2059800D02*
G03X2015500I-4100J0D01*
G01Y2079800D02*
G03X2015500I-4100J0D01*
G01Y2089800D02*
G03X2015500I-4100J0D01*
G01Y2099800D02*
G03X2015500I-4100J0D01*
G01Y2109800D02*
G03X2015500I-4100J0D01*
G01Y2129800D02*
G03X2015500I-4100J0D01*
G01X2018700Y2150600D02*
G03X2018700I-3200J0D01*
G01X2020500Y2171500D02*
G03X2020500I-2600J0D01*
G01X2014000Y2197400D02*
G03X2014000I-2600J0D01*
G01X2007900Y2152200D02*
G03X2007900I-2600J0D01*
G01X1991309Y1881700D02*
G03X1991309I-4100J0D01*
G01X1999555Y1926601D02*
G03X1999555I-2600J0D01*
G01X1973300Y1865600D02*
G03X1973300I-2600J0D01*
G01X1977700Y1874500D02*
G03X1977700I-2600J0D01*
G01X1979500Y1908400D02*
G03X1979500I-2600J0D01*
G01X1986300Y1919300D02*
G03X1986300I-2600J0D01*
G01X1989962Y1933187D02*
G03X1989962I-2600J0D01*
G01X1987400Y1939600D02*
G03X1987400I-2600J0D01*
G01X1995700Y1959300D02*
G03X1995700I-2600J0D01*
G01X1999400Y1992200D02*
G03X1999400I-2600J0D01*
G01X1993300Y1982400D02*
G03X1993300I-2600J0D01*
G01X1993600Y2007600D02*
G03X1993600I-3200J0D01*
G01X1999000Y2020100D02*
G03X1999000I-3200J0D01*
G01X1985400Y1962500D02*
G03X1985400I-2600J0D01*
G01X1986400Y1979900D02*
G03X1986400I-2600J0D01*
G01X1991400Y2014700D02*
G03X1991400I-2600J0D01*
G01X1995000Y2069100D02*
G03X1995000I-4100J0D01*
G01X1999600Y2131000D02*
G03X1999600I-2600J0D01*
G01X2001200Y2170400D02*
G03X2001200I-2600J0D01*
G01X1971600Y1917500D02*
G03X1971600I-2600J0D01*
G01X1974500Y1953800D02*
G03X1974500I-2600J0D01*
G01X1979400Y1958400D02*
G03X1979400I-2600J0D01*
G01X1985000Y2069100D02*
G03X1985000I-4100J0D01*
G01X1988600Y2131200D02*
G03X1988600I-4100J0D01*
G01X1989900Y2153400D02*
G03X1989900I-2600J0D01*
G01X1988600Y2161200D02*
G03X1988600I-4100J0D01*
G01X1992600Y2181900D02*
G03X1992600I-3200J0D01*
G01X1992400Y2196400D02*
G03X1992400I-2600J0D01*
G01X1993700Y2214300D02*
G03X1993700I-3200J0D01*
G01X2020000Y2230400D02*
G03X2020000I-13600J0D01*
G01X2022200Y2266200D02*
G03X2022200I-2600J0D01*
G01X2027000Y2281200D02*
G03X2027000I-2600J0D01*
G01X2032600Y2342700D02*
G03X2032600I-3200J0D01*
G01X2032200Y2371900D02*
G03X2032200I-3200J0D01*
G01X2032500Y2382500D02*
G03X2032500I-2600J0D01*
G01X2038200Y2405500D02*
G03X2038200I-3200J0D01*
G01X2021700Y2284500D02*
G03X2021700I-2600J0D01*
G01X2022800Y2303500D02*
G03X2022800I-2600J0D01*
G01X2025100Y2314500D02*
G03X2025100I-2600J0D01*
G01X2023600Y2324000D02*
G03X2023600I-2600J0D01*
G01X2029700Y2415600D02*
G03X2029700I-3200J0D01*
G01X2021200Y2436400D02*
G03X2021200I-2600J0D01*
G01X2015800Y2281200D02*
G03X2015800I-2600J0D01*
G01X2011100Y2285300D02*
G03X2011100I-2600J0D01*
G01X2006100Y2289700D02*
G03X2006100I-2600J0D01*
G01X2010100Y2296100D02*
G03X2010100I-2600J0D01*
G01X2012300Y2306600D02*
G03X2012300I-2600J0D01*
G01X2004000Y2308000D02*
G03X2004000I-2600J0D01*
G01X2007100Y2315500D02*
G03X2007100I-2600J0D01*
G01X2008200Y2331000D02*
G03X2008200I-3200J0D01*
G01X1998700Y2291500D02*
G03X1998700I-2600J0D01*
G01X2000600Y2392600D02*
G03X2000600I-3200J0D01*
G01X2002900Y2438300D02*
G03X2002900I-2600J0D01*
G01X1991600Y2282000D02*
G03X1991600I-2600J0D01*
G01X1990700Y2374100D02*
G03X1990700I-2600J0D01*
G01X1994500Y2408800D02*
G03X1994500I-2600J0D01*
G01X1964900Y1891000D02*
G03X1964900I-2600J0D01*
G01X1961400Y1916200D02*
G03X1961400I-2600J0D01*
G01X1964300Y1942300D02*
G03X1964300I-2600J0D01*
G01X1970600Y1963100D02*
G03X1970600I-2600J0D01*
G01X1975000Y2069100D02*
G03X1975000I-4100J0D01*
G01X1978600Y2131200D02*
G03X1978600I-4100J0D01*
G01Y2161200D02*
G03X1978600I-4100J0D01*
G01X1976600Y2183000D02*
G03X1976600I-2600J0D01*
G01X1979900Y2195100D02*
G03X1979900I-2600J0D01*
G01X1979800Y2211100D02*
G03X1979800I-2600J0D01*
G01X1980900Y2218200D02*
G03X1980900I-3200J0D01*
G01X1979400Y2232400D02*
G03X1979400I-3200J0D01*
G01X1977800Y2240900D02*
G03X1977800I-3200J0D01*
G01X1979700Y2292500D02*
G03X1979700I-2600J0D01*
G01X1981000Y2301900D02*
G03X1981000I-2600J0D01*
G01X1978100Y2312500D02*
G03X1978100I-2600J0D01*
G01X1958600Y1975500D02*
G03X1958600I-2600J0D01*
G01Y1996500D02*
G03X1958600I-2600J0D01*
G01X1965000Y2069100D02*
G03X1965000I-4100J0D01*
G01X1968600Y2131200D02*
G03X1968600I-4100J0D01*
G01Y2161200D02*
G03X1968600I-4100J0D01*
G01X1967100Y2179200D02*
G03X1967100I-2600J0D01*
G01X1971500Y2280500D02*
G03X1971500I-2600J0D01*
G01X1971600Y2303900D02*
G03X1971600I-2600J0D01*
G01X1976400Y2326500D02*
G03X1976400I-2600J0D01*
G01X1982400Y2379700D02*
G03X1982400I-4100J0D01*
G01Y2397417D02*
G03X1982400I-4100J0D01*
G01X1986400Y2416300D02*
G03X1986400I-2600J0D01*
G01X1969300Y2321300D02*
G03X1969300I-2600J0D01*
G01X1972600Y2341100D02*
G03X1972600I-3200J0D01*
G01X1971200Y2358700D02*
G03X1971200I-2600J0D01*
G01X1945886Y1932078D02*
G03X1945886I-2600J0D01*
G01X1949500Y1942200D02*
G03X1949500I-2600J0D01*
G01X1947600Y1958900D02*
G03X1947600I-2600J0D01*
G01X1955000Y2069100D02*
G03X1955000I-4100J0D01*
G01X1958600Y2131200D02*
G03X1958600I-4100J0D01*
G01Y2161200D02*
G03X1958600I-4100J0D01*
G01X1960400Y2215700D02*
G03X1960400I-2600J0D01*
G01X1958500Y2227400D02*
G03X1958500I-2600J0D01*
G01X1955900Y2245500D02*
G03X1955900I-2600J0D01*
G01X1956809Y2379700D02*
G03X1956809I-4100J0D01*
G01Y2397417D02*
G03X1956809I-4100J0D01*
G01X1939222Y1936465D02*
G03X1939222I-2600J0D01*
G01X1940600Y1946600D02*
G03X1940600I-2600J0D01*
G01X1939800Y1962300D02*
G03X1939800I-2600J0D01*
G01X1940600Y1995500D02*
G03X1940600I-2600J0D01*
G01X1944000Y2007500D02*
G03X1944000I-2600J0D01*
G01X1941600Y2257700D02*
G03X1941600I-3200J0D01*
G01X1944900Y2265300D02*
G03X1944900I-3200J0D01*
G01X1946800Y2447400D02*
G03X1946800I-3200J0D01*
G01X1938400Y2308300D02*
G03X1938400I-3200J0D01*
G01X1938700Y2360100D02*
G03X1938700I-2600J0D01*
G01X1928500Y1927100D02*
G03X1928500I-2600J0D01*
G01X1931800Y1949300D02*
G03X1931800I-2600J0D01*
G01X1921500Y1968564D02*
G03X1921500I-2600J0D01*
G01X1921486Y1980556D02*
G03X1921486I-2600J0D01*
G01X1923600Y2028400D02*
G03X1923600I-2600J0D01*
G01X1912400Y1886900D02*
G03X1912400I-4100J0D01*
G01Y1896900D02*
G03X1912400I-4100J0D01*
G01Y1906900D02*
G03X1912400I-4100J0D01*
G01Y1916900D02*
G03X1912400I-4100J0D01*
G01Y1926900D02*
G03X1912400I-4100J0D01*
G01Y1936900D02*
G03X1912400I-4100J0D01*
G01Y1946900D02*
G03X1912400I-4100J0D01*
G01Y1956900D02*
G03X1912400I-4100J0D01*
G01Y1966900D02*
G03X1912400I-4100J0D01*
G01Y1976900D02*
G03X1912400I-4100J0D01*
G01Y1986900D02*
G03X1912400I-4100J0D01*
G01Y1996900D02*
G03X1912400I-4100J0D01*
G01Y2006900D02*
G03X1912400I-4100J0D01*
G01Y2016900D02*
G03X1912400I-4100J0D01*
G01Y2026900D02*
G03X1912400I-4100J0D01*
G01Y2036900D02*
G03X1912400I-4100J0D01*
G01Y2046900D02*
G03X1912400I-4100J0D01*
G01Y2056900D02*
G03X1912400I-4100J0D01*
G01Y2066900D02*
G03X1912400I-4100J0D01*
G01Y2076900D02*
G03X1912400I-4100J0D01*
G01Y2086900D02*
G03X1912400I-4100J0D01*
G01Y2096900D02*
G03X1912400I-4100J0D01*
G01Y2106900D02*
G03X1912400I-4100J0D01*
G01Y2116900D02*
G03X1912400I-4100J0D01*
G01Y2126900D02*
G03X1912400I-4100J0D01*
G01Y2136900D02*
G03X1912400I-4100J0D01*
G01Y2146900D02*
G03X1912400I-4100J0D01*
G01Y2156900D02*
G03X1912400I-4100J0D01*
G01Y2166900D02*
G03X1912400I-4100J0D01*
G01Y2176900D02*
G03X1912400I-4100J0D01*
G01Y2186900D02*
G03X1912400I-4100J0D01*
G01Y2196900D02*
G03X1912400I-4100J0D01*
G01Y2206900D02*
G03X1912400I-4100J0D01*
G01Y2216900D02*
G03X1912400I-4100J0D01*
G01Y2226900D02*
G03X1912400I-4100J0D01*
G01Y2236900D02*
G03X1912400I-4100J0D01*
G01Y2246900D02*
G03X1912400I-4100J0D01*
G01Y2256900D02*
G03X1912400I-4100J0D01*
G01Y2266900D02*
G03X1912400I-4100J0D01*
G01Y2276900D02*
G03X1912400I-4100J0D01*
G01Y2286900D02*
G03X1912400I-4100J0D01*
G01Y2296900D02*
G03X1912400I-4100J0D01*
G01Y2306900D02*
G03X1912400I-4100J0D01*
G01Y2316900D02*
G03X1912400I-4100J0D01*
G01Y2326900D02*
G03X1912400I-4100J0D01*
G01Y2336900D02*
G03X1912400I-4100J0D01*
G01Y2346900D02*
G03X1912400I-4100J0D01*
G01Y2356900D02*
G03X1912400I-4100J0D01*
G01Y2366900D02*
G03X1912400I-4100J0D01*
G01Y2376900D02*
G03X1912400I-4100J0D01*
G01Y2386900D02*
G03X1912400I-4100J0D01*
G01Y2396900D02*
G03X1912400I-4100J0D01*
G01Y2406900D02*
G03X1912400I-4100J0D01*
G01Y2416900D02*
G03X1912400I-4100J0D01*
G01Y2426900D02*
G03X1912400I-4100J0D01*
G01Y2436900D02*
G03X1912400I-4100J0D01*
G01Y2446900D02*
G03X1912400I-4100J0D01*
G01Y2456900D02*
G03X1912400I-4100J0D01*
G01X2087900Y2467300D02*
G03X2087400Y2467800I-500J0D01*
G01X1903300*
G03X1902800Y2467300I0J-500*
G01Y1872400*
G03X1903300Y1871900I500J0*
G01X1962300*
Y1832900*
G03X1962800Y1832400I500J0*
G01X1999900*
G03X2000400Y1832900I0J500*
G01Y1865933*
X2000400D02*
G03X1999755Y1866412I-500J0D01*
G01X1998182Y1866432D02*
G03X1999755Y1866412I818J2468D01*
G01X1998182Y1866432D02*
G03X1997682Y1865593I-157J-475D01*
G01X1996718Y1866168D02*
G03X1997682Y1865593I-818J-2468D01*
G01X1996718Y1866168D02*
G03X1997218Y1867007I157J475D01*
G01X2000646Y1866887D02*
G03X1997218Y1867007I-1646J2013D01*
G01X2000646Y1866887D02*
G03X2000962Y1866000I316J-387D01*
G01X2015600*
Y1833900*
G03X2016100Y1833400I500J0*
G01X2036400*
G03X2036900Y1833900I0J500*
G01Y1872300*
X2087400*
G03X2087900Y1872800I0J500*
G01Y2467300*
X2008964Y1897882D02*
G03X2008935Y1898049I-500J-0D01*
G01X2008700Y1899417D02*
G03X2008935Y1898049I4100J-0D01*
G01X2008700Y1899417D02*
X2008700D01*
X2008717Y1899790D02*
G03X2008700Y1899417I4083J-373D01*
G01X2008717Y1899790D02*
G03X2007861Y1900184I-498J45D01*
G01X2006655Y1899484D02*
G03X2007861Y1900184I-655J2516D01*
G01X2006655Y1899484D02*
G03Y1898516I126J-484D01*
G01X2008066Y1897578D02*
G03X2006655Y1898516I-2066J-1578D01*
G01X2008066Y1897578D02*
G03X2008964Y1897882I398J304D01*
G01X2059604Y2207204D02*
G03X2060311Y2205423I2600J0D01*
G01X2059604Y2207204D02*
X2059604D01*
X2059721Y2207973D02*
G03X2059604Y2207204I2483J-769D01*
G01X2059721Y2207973D02*
G03X2058913Y2208497I-478J148D01*
G01X2057494Y2207776D02*
G03X2058913Y2208497I-694J3124D01*
G01X2057494Y2207776D02*
G03X2057135Y2207113I109J-488D01*
G01X2057300Y2206200D02*
G03X2057135Y2207113I-2600J0D01*
G01X2057300Y2206200D02*
X2057300D01*
X2057114Y2205235D02*
G03X2057300Y2206200I-2414J965D01*
G01X2057114Y2205235D02*
G03X2057776Y2204590I465J-186D01*
G01X2059762Y2204616D02*
G03X2057776Y2204590I-962J-2416D01*
G01X2059762Y2204616D02*
G03X2060311Y2205423I185J464D01*
G01X2078116Y1880290D02*
G03X2077250Y1880246I-420J-272D01*
G01X2072238Y1879341D02*
G03X2077250Y1880246I2162J2359D01*
G01X2072238Y1879341D02*
G03X2071562I-338J-369D01*
G01X2066200Y1881700D02*
G03X2071562Y1879341I3200J0D01*
G01X2067041Y1883862D02*
G03X2066200Y1881700I2359J-2162D01*
G01X2067041Y1883862D02*
G03X2067172Y1884200I-369J338D01*
X2067041Y1884538I-500J0*
G01X2066396Y1885598D02*
G03X2067041Y1884538I3004J1102D01*
G01X2066396Y1885598D02*
G03X2065470Y1885632I-470J-172D01*
G01X2061794Y1888948D02*
G03X2065470Y1885632I1306J-2248D01*
G01X2061794Y1888948D02*
G03X2061875Y1889755I-251J433D01*
G01X2065737Y1893181D02*
G03X2061875Y1889755I-2137J-1481D01*
G01X2065737Y1893181D02*
G03X2066588Y1893227I411J284D01*
G01X2067041Y1893862D02*
G03X2066588Y1893227I2359J-2162D01*
G01X2067041Y1893862D02*
G03Y1894538I-369J338D01*
G01X2066200Y1896700D02*
G03X2067041Y1894538I3200J0D01*
G01Y1898862D02*
G03X2066200Y1896700I2359J-2162D01*
G01X2067041Y1898862D02*
G03X2067172Y1899200I-369J338D01*
X2067041Y1899538I-500J0*
G01X2071562Y1904059D02*
G03X2067041Y1899538I-2162J-2359D01*
G01X2071562Y1904059D02*
G03X2072238I338J369D01*
G01X2077600Y1901700D02*
G03X2072238Y1904059I-3200J0D01*
G01X2076759Y1899538D02*
G03X2077600Y1901700I-2359J2162D01*
G01X2076759Y1899538D02*
G03X2076628Y1899200I369J-338D01*
X2076759Y1898862I500J0*
G01X2077600Y1896700D02*
G03X2076759Y1898862I-3200J-0D01*
G01Y1894538D02*
G03X2077600Y1896700I-2359J2162D01*
G01X2076759Y1894538D02*
G03X2076628Y1894200I369J-338D01*
X2076759Y1893862I500J0*
G01X2077600Y1891700D02*
G03X2076759Y1893862I-3200J-0D01*
G01Y1889538D02*
G03X2077600Y1891700I-2359J2162D01*
G01X2076759Y1889538D02*
G03X2076628Y1889200I369J-338D01*
X2076759Y1888862I500J0*
G01X2077600Y1886700D02*
G03X2076759Y1888862I-3200J-0D01*
G01Y1884538D02*
G03X2077600Y1886700I-2359J2162D01*
G01X2076759Y1884538D02*
G03X2076628Y1884200I369J-338D01*
X2076759Y1883862I500J0*
G01X2077250Y1883154D02*
G03X2076759Y1883862I-2850J-1454D01*
G01X2077250Y1883154D02*
G03X2078116Y1883110I446J228D01*
G01Y1880290D02*
G03Y1883110I2184J1410D01*
G01X2084800Y1922300D02*
G03X2084800I-2600J0D01*
G01X2085200Y1937200D02*
G03X2085200I-2600J0D01*
G01X2085900Y2011600D02*
G03X2085900I-2600J0D01*
G01X2079000Y1928400D02*
G03X2079000I-2600J0D01*
G01X2085500Y2035500D02*
G03X2085500I-4100J0D01*
G01Y2045500D02*
G03X2085500I-4100J0D01*
G01Y2055500D02*
G03X2085500I-4100J0D01*
G01Y2065500D02*
G03X2085500I-4100J0D01*
G01Y2075500D02*
G03X2085500I-4100J0D01*
G01Y2085500D02*
G03X2085500I-4100J0D01*
G01Y2095500D02*
G03X2085500I-4100J0D01*
G01Y2105500D02*
G03X2085500I-4100J0D01*
G01Y2115500D02*
G03X2085500I-4100J0D01*
G01Y2125500D02*
G03X2085500I-4100J0D01*
G01X2085000Y2138200D02*
G03X2085000I-3200J0D01*
G01X2083300Y2213000D02*
G03X2083300I-3200J0D01*
G01X2082600Y2283000D02*
G03X2082600I-2600J0D01*
G01X2084200Y2301300D02*
G03X2084200I-2600J0D01*
G01X2082800Y2324400D02*
G03X2082800I-2600J0D01*
G01X2081400Y2385900D02*
G03X2081400I-3200J0D01*
G01X2073000Y1986600D02*
G03X2073000I-2600J0D01*
G01X2067300Y1967400D02*
G03X2067300I-2600J0D01*
G01X2060200Y1878300D02*
G03X2060200I-2600J0D01*
G01X2057000Y1886700D02*
G03X2057000I-2600J0D01*
G01X2059700Y1963300D02*
G03X2059700I-2600J0D01*
G01X2053900Y1956800D02*
G03X2053900I-2600J0D01*
G01X2059100Y1971900D02*
G03X2059100I-2600J0D01*
G01X2040400Y1887500D02*
G03X2040400I-2600J0D01*
G01X2041100Y1906000D02*
G03X2041100I-2600J0D01*
G01X2045700Y1937800D02*
G03X2045700I-3200J0D01*
G01X2046300Y1950700D02*
G03X2046300I-3200J0D01*
G01X2050400Y1986600D02*
G03X2050400I-2600J0D01*
G01X2051400Y1996600D02*
G03X2051400I-3200J0D01*
G01X2055500Y2035500D02*
G03X2055500I-4100J0D01*
G01Y2045500D02*
G03X2055500I-4100J0D01*
G01Y2055500D02*
G03X2055500I-4100J0D01*
G01Y2065500D02*
G03X2055500I-4100J0D01*
G01Y2075500D02*
G03X2055500I-4100J0D01*
G01Y2085500D02*
G03X2055500I-4100J0D01*
G01Y2095500D02*
G03X2055500I-4100J0D01*
G01Y2105500D02*
G03X2055500I-4100J0D01*
G01Y2115500D02*
G03X2055500I-4100J0D01*
G01Y2125500D02*
G03X2055500I-4100J0D01*
G01X2056600Y2148600D02*
G03X2056600I-2600J0D01*
G01Y2155500D02*
G03X2056600I-2600J0D01*
G01X2056200Y2171400D02*
G03X2056200I-2600J0D01*
G01X2056400Y2178300D02*
G03X2056400I-2600J0D01*
G01X2064984Y2209252D02*
G03X2064453Y2208510I-99J-490D01*
G01X2061243Y2204789D02*
G03X2064453Y2208510I961J2415D01*
G01X2061243Y2204789D02*
G03X2060694Y2203982I-185J-465D01*
G01X2061400Y2202200D02*
G03X2060694Y2203982I-2600J0D01*
G01X2056200Y2202200D02*
G03X2061400I2600J0D01*
G01X2056200D02*
X2056200D01*
X2056386Y2203165D02*
G03X2056200Y2202200I2414J-965D01*
G01X2056386Y2203165D02*
G03X2055724Y2203810I-465J186D01*
G01X2052100Y2206200D02*
G03X2055724Y2203810I2600J0D01*
G01X2053756Y2208622D02*
G03X2052100Y2206200I944J-2422D01*
G01X2053756Y2208622D02*
G03X2054010Y2209333I-182J466D01*
G01X2053600Y2210900D02*
G03X2054010Y2209333I3200J0D01*
G01X2054873Y2213455D02*
G03X2053600Y2210900I1927J-2555D01*
G01X2054873Y2213455D02*
G03X2055072Y2213854I-301J399D01*
X2054770Y2214313I-500J-0*
G01X2053200Y2216700D02*
G03X2054770Y2214313I2600J0D01*
G01X2055243Y2219240D02*
G03X2053200Y2216700I557J-2540D01*
G01X2055243Y2219240D02*
G03X2055266Y2220211I-108J488D01*
G01X2059300Y2223300D02*
G03X2055266Y2220211I-3200J0D01*
G01X2056651Y2220148D02*
G03X2059300Y2223300I-551J3152D01*
G01X2056651Y2220148D02*
G03X2056237Y2219655I86J-493D01*
X2056586Y2219179I500J0*
G01X2057570Y2214796D02*
G03X2056586Y2219179I-1770J1904D01*
G01X2057570Y2214796D02*
G03X2057761Y2213952I341J-367D01*
G01X2060000Y2210900D02*
G03X2057761Y2213952I-3200J0D01*
G01X2060000Y2210900D02*
X2060000D01*
X2059806Y2209803D02*
G03X2060000Y2210900I-3006J1097D01*
G01X2059806Y2209803D02*
G03X2059776Y2209631I470J-172D01*
G01X2059776*
G03X2060587Y2209240I500J0*
G01X2062720Y2209753D02*
G03X2060587Y2209240I-516J-2549D01*
G01X2062720Y2209753D02*
G03X2063252Y2210494I99J490D01*
G01X2064984Y2209252D02*
G03X2063252Y2210494I516J2548D01*
G01X2071200Y2227000D02*
G03X2071200I-2600J0D01*
G01X2072300Y2250900D02*
G03X2072300I-3200J0D01*
G01X2070300Y2269300D02*
G03X2070300I-3200J0D01*
G01X2059337Y2238403D02*
G03X2059042Y2237516I21J-500D01*
G01X2054800Y2235500D02*
G03X2059042Y2237516I2600J0D01*
G01X2057115Y2238084D02*
G03X2054800Y2235500I285J-2584D01*
G01X2057115Y2238084D02*
G03X2057350Y2238989I-55J497D01*
G01X2059337Y2238403D02*
G03X2057350Y2238989I-137J3197D01*
G01X2069900Y2303500D02*
Y2296300D01*
X2069400Y2295800D02*
G03X2069900Y2296300I0J500D01*
G01X2069400Y2295800D02*
X2062200D01*
X2061700Y2296300D02*
G03X2062200Y2295800I500J0D01*
G01X2061700Y2296300D02*
Y2303500D01*
X2062200Y2304000D02*
G03X2061700Y2303500I0J-500D01*
G01X2062200Y2304000D02*
X2069400D01*
X2069900Y2303500D02*
G03X2069400Y2304000I-500J0D01*
G01X2069900Y2309900D02*
G03X2069900I-4100J0D01*
G01Y2319900D02*
G03X2069900I-4100J0D01*
G01Y2329900D02*
G03X2069900I-4100J0D01*
G01Y2339900D02*
G03X2069900I-4100J0D01*
G01X2054300Y2272600D02*
G03X2054300I-3200J0D01*
G01X2059900Y2299900D02*
G03X2059900I-4100J0D01*
G01Y2309900D02*
G03X2059900I-4100J0D01*
G01Y2319900D02*
G03X2059900I-4100J0D01*
G01Y2329900D02*
G03X2059900I-4100J0D01*
G01Y2339900D02*
G03X2059900I-4100J0D01*
G01X2058400Y2351900D02*
G03X2058400I-2600J0D01*
G01X2045700Y2027600D02*
G03X2045700I-2600J0D01*
G01X2042600Y2054200D02*
G03X2042600I-2600J0D01*
G01X2046100Y2081600D02*
G03X2046100I-2600J0D01*
G01Y2111000D02*
G03X2046100I-2600J0D01*
G01X2031200Y1863600D02*
G03X2031200I-2600J0D01*
G01X2030300Y1884000D02*
G03X2030300I-2600J0D01*
G01X2033500Y1931400D02*
G03X2033500I-2600J0D01*
G01X2036400Y1989300D02*
G03X2036400I-3200J0D01*
G01X2036500Y1997600D02*
G03X2036500I-2600J0D01*
G01X2039300Y2069400D02*
G03X2039300I-2600J0D01*
G01X2038600Y2096700D02*
G03X2038600I-2600J0D01*
G01X2039700Y2103100D02*
G03X2039700I-2600J0D01*
G01X2041600Y2138300D02*
G03X2041600I-2600J0D01*
G01X2047500Y2187900D02*
G03X2047500I-3200J0D01*
G01X2044600Y2222900D02*
G03X2044600I-2600J0D01*
G01X2044800Y2234600D02*
G03X2044800I-2600J0D01*
G01X2045400Y2257200D02*
G03X2045400I-3200J0D01*
G01X2049200Y2296100D02*
G03X2049200I-2600J0D01*
G01X2025000Y1866000D02*
G03X2025000I-2600J0D01*
G01X2029650Y2001250D02*
G03X2029650I-2600J0D01*
G01X2032700Y2039900D02*
G03X2032700I-4100J0D01*
G01Y2049900D02*
G03X2032700I-4100J0D01*
G01Y2059900D02*
G03X2032700I-4100J0D01*
G01Y2069900D02*
G03X2032700I-4100J0D01*
G01Y2079900D02*
G03X2032700I-4100J0D01*
G01Y2089900D02*
G03X2032700I-4100J0D01*
G01Y2099900D02*
G03X2032700I-4100J0D01*
G01Y2109900D02*
G03X2032700I-4100J0D01*
G01X2024400Y1873700D02*
G03X2024400I-2600J0D01*
G01X2016400Y1869800D02*
G03X2016400I-2600J0D01*
G01X2019672Y1887580D02*
G03X2018940Y1887171I-233J-442D01*
G01X2016578Y1884757D02*
G03X2018940Y1887171I-232J2589D01*
G01X2016578Y1884757D02*
G03X2016207Y1883980I45J-498D01*
G01X2016899Y1881771D02*
G03X2016207Y1883980I-4099J-71D01*
G01X2016899Y1881771D02*
G03X2017738Y1881412I500J9D01*
G01X2016948Y1879005D02*
G03X2017738Y1881412I2552J495D01*
G01X2016948Y1879005D02*
G03X2016059Y1879213I-491J-96D01*
G01X2008948Y1883104D02*
G03X2016059Y1879213I3852J-1404D01*
G01X2008948Y1883104D02*
G03X2008978Y1883275I-470J171D01*
X2008240Y1883715I-500J0*
G01X2009600Y1886000D02*
G03X2008240Y1883715I-2600J0D01*
G01X2009600Y1886000D02*
X2009600D01*
X2009547Y1885478D02*
G03X2009600Y1886000I-2547J522D01*
G01X2009547Y1885478D02*
G03X2010337Y1884978I490J-100D01*
G01X2013375Y1885760D02*
G03X2010337Y1884978I-575J-4060D01*
G01X2013375Y1885760D02*
G03X2013913Y1886431I70J495D01*
G01X2017556Y1889648D02*
G03X2013913Y1886431I-1210J-2302D01*
G01X2017556Y1889648D02*
G03X2018288Y1890057I233J442D01*
G01X2019672Y1887580D02*
G03X2018288Y1890057I1210J2302D01*
G01X2022014Y1899439D02*
G03X2024110Y1901990I-504J2551D01*
G01X2022014Y1899439D02*
G03X2021722Y1898634I97J-490D01*
G01X2022300Y1897000D02*
G03X2021722Y1898634I-2600J0D01*
G01X2017104Y1896858D02*
G03X2022300Y1897000I2596J142D01*
G01X2017104Y1896858D02*
G03X2016191Y1897112I-499J-27D01*
G01X2009395Y1897132D02*
G03X2016191Y1897112I3405J2285D01*
G01X2009395Y1897132D02*
G03X2008500Y1896716I-415J-279D01*
G01X2008600Y1896000D02*
G03X2008500Y1896716I-2600J0D01*
G01X2005345Y1898516D02*
G03X2008600Y1896000I655J-2516D01*
G01X2005345Y1898516D02*
G03Y1899484I-126J484D01*
G01X2008597Y1902122D02*
G03X2005345Y1899484I-2597J-122D01*
G01X2008597Y1902122D02*
G03X2009499Y1901849I500J23D01*
G01X2011844Y1903404D02*
G03X2009499Y1901849I956J-3987D01*
G01X2011844Y1903404D02*
G03X2011997Y1904311I-116J486D01*
G01X2012788Y1909027D02*
G03X2011997Y1904311I612J-2527D01*
G01X2012788Y1909027D02*
G03X2012853Y1909979I-117J486D01*
G01X2011200Y1912400D02*
G03X2012853Y1909979I2600J0D01*
G01X2014412Y1909873D02*
G03X2011200Y1912400I-612J2527D01*
G01X2014412Y1909873D02*
G03X2014347Y1908921I117J-486D01*
G01X2015243Y1908334D02*
G03X2014347Y1908921I-1843J-1834D01*
G01X2015243Y1908334D02*
G03X2016065Y1908512I354J353D01*
G01X2016657Y1905766D02*
G03X2016065Y1908512I1843J1834D01*
G01X2016657Y1905766D02*
G03X2015835Y1905588I-354J-353D01*
G01X2014414Y1904106D02*
G03X2015835Y1905588I-1014J2394D01*
G01X2014414Y1904106D02*
G03X2014413Y1903186I196J-460D01*
G01X2016900Y1899417D02*
G03X2014413Y1903186I-4100J-0D01*
G01X2016900Y1899417D02*
X2016900D01*
X2016888Y1899102D02*
G03X2016900Y1899417I-4088J315D01*
G01X2016888Y1899102D02*
G03X2016886Y1899063I498J-39D01*
G01X2016886*
G03X2017760Y1898731I500J0*
G01X2019196Y1899551D02*
G03X2017760Y1898731I504J-2551D01*
G01X2019196Y1899551D02*
G03X2019488Y1900356I-97J490D01*
G01X2018910Y1901990D02*
G03X2019488Y1900356I2600J-0D01*
G01X2024110Y1901990D02*
G03X2018910I-2600J-0D01*
G01X2024200Y1919800D02*
G03X2024200I-2600J0D01*
G01X2022800Y1925900D02*
G03X2022800I-2600J0D01*
G01X2026066Y2116677D02*
G03X2025264Y2116367I-309J-393D01*
G01X2023798Y2119157D02*
G03X2025264Y2116367I-1098J-2357D01*
G01X2023798Y2119157D02*
G03X2024508Y2119642I211J453D01*
G01X2024500Y2119900D02*
G03X2024508Y2119642I4100J-0D01*
G01X2024500Y2119900D02*
X2024500D01*
X2026066Y2116677D02*
G03X2024500Y2119900I2534J3223D01*
G01X2032700Y2129900D02*
G03X2032700I-4100J0D01*
G01X2022700Y2125800D02*
G03X2022700I-2600J0D01*
G01X2025600Y2155500D02*
G03X2025600I-2600J0D01*
G01X2029600Y2169000D02*
G03X2029600I-2600J0D01*
G01X2026900Y2261000D02*
G03X2026900I-2600J0D01*
G01X2031400Y2265300D02*
G03X2031400I-2600J0D01*
G01X2033600Y2280600D02*
G03X2033600I-2600J0D01*
G01X2037900Y2292700D02*
G03X2037900I-3200J0D01*
G01X2015600Y1927782D02*
G03X2015600I-2600J0D01*
G01X1991616Y1856455D02*
G03X1991100Y1854900I2084J-1555D01*
G01X1991616Y1856455D02*
G03X1990955Y1857181I-400J299D01*
G01X1992200Y1859400D02*
G03X1990955Y1857181I-2600J0D01*
G01X1991684Y1857845D02*
G03X1992200Y1859400I-2084J1555D01*
G01X1991684Y1857845D02*
G03X1992345Y1857119I400J-299D01*
G01X1991100Y1854900D02*
G03X1992345Y1857119I2600J0D01*
G01X1999687Y1898492D02*
G03X2001600Y1901000I-687J2508D01*
G01X1999687Y1898492D02*
G03X1999526Y1897605I132J-482D01*
G01X1995400Y1895500D02*
G03X1999526Y1897605I2600J0D01*
G01X1997313Y1898008D02*
G03X1995400Y1895500I687J-2508D01*
G01X1997313Y1898008D02*
G03X1997474Y1898895I-132J482D01*
G01X2001600Y1901000D02*
G03X1997474Y1898895I-2600J0D01*
G01X2004574Y1919000D02*
G03X2004574I-2600J0D01*
G01X2006600Y1925500D02*
G03X2006600I-2600J0D01*
G01X2007600Y1934500D02*
G03X2007600I-2600J0D01*
G01X2012694Y1942100D02*
G03X2012274Y1941326I-2J-500D01*
G01X2007500Y1939848D02*
G03X2012274Y1941326I2600J52D01*
G01X2007500Y1939848D02*
G03X2006613Y1940155I-499J-9D01*
G01X2007200Y1941852D02*
G03X2006613Y1940155I-2600J-52D01*
G01X2007200Y1941852D02*
G03X2008087Y1941545I499J9D01*
G01X2010106Y1942500D02*
G03X2008087Y1941545I-6J-2600D01*
G01X2010106Y1942500D02*
G03X2010526Y1943274I2J500D01*
G01X2012694Y1942100D02*
G03X2010526Y1943274I6J2600D01*
G01X2016300Y1955700D02*
G03X2016300I-2600J0D01*
G01X2012506Y1966810D02*
G03X2012269Y1967754I-230J444D01*
G01X2013427Y1968044D02*
G03X2012269Y1967754I-1194J2310D01*
G01X2013427Y1968044D02*
G03X2013664Y1967100I230J-444D01*
G01X2012506Y1966810D02*
G03X2013664Y1967100I1194J-2310D01*
G01X2014800Y1982900D02*
G03X2014800I-2600J0D01*
G01X2003706Y1957666D02*
G03X2004076Y1957869I-34J498D01*
X2004414Y1957618I439J238*
G01X2003706Y1957666D02*
G03X2004414Y1957618I181J-2594D01*
G01X2004481Y1958606D02*
G03X2004111Y1958402I34J-499D01*
X2003773Y1958654I-439J-238*
G01X2004481Y1958606D02*
G03X2003773Y1958654I-181J2594D01*
G01X2006700Y1971400D02*
G03X2006700I-2600J0D01*
G01X2004900Y1982500D02*
G03X2004900I-2600J0D01*
G01X2001647Y1996700D02*
G03X2001691Y1996906I-456J206D01*
X2001160Y1997405I-500J-0*
G01X2003369Y1998928D02*
G03X2001160Y1997405I-2369J1072D01*
G01X2003369Y1998928D02*
G03X2003324Y1998722I455J-206D01*
X2003855Y1998223I500J-0*
G01X2001647Y1996700D02*
G03X2003855Y1998223I2368J-1072D01*
G01X2009100Y2030500D02*
G03X2009100I-2600J0D01*
G01X2015500Y2039800D02*
G03X2015500I-4100J0D01*
G01Y2049800D02*
G03X2015500I-4100J0D01*
G01Y2059800D02*
G03X2015500I-4100J0D01*
G01X2008507Y2066895D02*
G03X2007654Y2066541I-353J-354D01*
X2007677Y2066389I500J-0*
G01X2006852Y2067608D02*
G03X2007677Y2066389I-1652J-2008D01*
G01X2006852Y2067608D02*
G03X2007629Y2068190I317J386D01*
G01X2008507Y2066895D02*
G03X2007629Y2068190I2893J2905D01*
G01X2015500Y2079800D02*
G03X2015500I-4100J0D01*
G01Y2089800D02*
G03X2015500I-4100J0D01*
G01Y2099800D02*
G03X2015500I-4100J0D01*
G01Y2109800D02*
G03X2015500I-4100J0D01*
G01X2007349Y2119171D02*
G03X2006539Y2119482I-494J-77D01*
G01X2002300Y2121500D02*
G03X2006539Y2119482I2600J0D01*
G01X2007317Y2122457D02*
G03X2002300Y2121500I-2417J-957D01*
G01X2007317Y2122457D02*
G03X2008176Y2122332I465J184D01*
G01X2007349Y2119171D02*
G03X2008176Y2122332I4051J629D01*
G01X2015500Y2129800D02*
G03X2015500I-4100J0D01*
G01X2018700Y2150600D02*
G03X2018700I-3200J0D01*
G01X2020500Y2171500D02*
G03X2020500I-2600J0D01*
G01X2014901Y2178417D02*
G03X2014239Y2178873I-499J-16D01*
G01X2016400Y2181900D02*
G03X2014239Y2178873I-3200J0D01*
G01X2016400Y2181900D02*
X2016400D01*
X2016385Y2181587D02*
G03X2016400Y2181900I-3185J313D01*
G01X2016385Y2181587D02*
G03X2016982Y2181048I497J-49D01*
G01X2014901Y2178417D02*
G03X2016982Y2181048I2599J83D01*
G01X2014000Y2197400D02*
G03X2014000I-2600J0D01*
G01X2007900Y2152200D02*
G03X2007900I-2600J0D01*
G01X1993453Y1906980D02*
G03X1993437Y1907038I-490J-100D01*
X1993431Y1907098I-500J-18*
G01X1993400Y1907500D02*
G03X1993431Y1907098I2600J-0D01*
G01X1993400Y1907500D02*
X1993400D01*
X1993453Y1906980D02*
G03X1993400Y1907500I2547J520D01*
G01X1985507Y1871212D02*
G03X1984656Y1871530I-499J-36D01*
G01X1985600Y1873800D02*
G03X1984656Y1871530I-3200J0D01*
G01X1985600Y1873800D02*
X1985600D01*
Y1873773D02*
G03Y1873800I-3200J27D01*
G01Y1873773D02*
Y1873768D01*
G03X1986422Y1873386I500J0*
G01X1985507Y1871212D02*
G03X1986422Y1873386I2593J188D01*
G01X1991309Y1881700D02*
G03X1991309I-4100J0D01*
G01X1992500Y1906400D02*
X1992500D01*
X1989699Y1903808D02*
G03X1992500Y1906400I201J2592D01*
G01X1989699Y1903808D02*
G03X1989160Y1903309I-39J-499D01*
X1989394Y1902886I500J0*
G01X1991309Y1899417D02*
G03X1989394Y1902886I-4100J-0D01*
G01X1988847Y1895658D02*
G03X1991309Y1899417I-1638J3759D01*
G01X1988847Y1895658D02*
G03X1989056Y1894700I200J-458D01*
G01X1991700Y1892100D02*
G03X1989056Y1894700I-2600J0D01*
G01X1987879Y1894396D02*
G03X1991700Y1892100I1221J-2296D01*
G01X1987879Y1894396D02*
G03X1988145Y1894837I-234J441D01*
X1987597Y1895335I-500J0*
G01X1987918Y1903455D02*
G03X1987597Y1895335I-709J-4038D01*
G01X1987918Y1903455D02*
G03X1988310Y1904343I86J492D01*
G01X1992447Y1906920D02*
G03X1988310Y1904343I-2547J-520D01*
G01X1992447Y1906920D02*
G03X1992463Y1906862I490J100D01*
X1992469Y1906802I500J18*
G01X1992500Y1906400D02*
G03X1992469Y1906802I-2600J0D01*
G01X1992278Y1916336D02*
G03X1991852Y1915841I74J-495D01*
X1991860Y1915754I500J0*
G01X1988479Y1917767D02*
G03X1991860Y1915754I821J-2467D01*
G01X1988479Y1917767D02*
G03X1988791Y1918411I-158J474D01*
G01X1988600Y1919500D02*
G03X1988791Y1918411I3200J-0D01*
G01X1988600Y1919500D02*
X1988600D01*
X1992278Y1916336D02*
G03X1988600Y1919500I-478J3164D01*
G01X1999555Y1926601D02*
G03X1999555I-2600J0D01*
G01X1973300Y1865600D02*
G03X1973300I-2600J0D01*
G01X1977700Y1874500D02*
G03X1977700I-2600J0D01*
G01X1979500Y1908400D02*
G03X1979500I-2600J0D01*
G01X1979300Y1912600D02*
X1979300D01*
X1979318Y1912906D02*
G03X1979300Y1912600I2582J-306D01*
G01X1979318Y1912906D02*
G03X1979321Y1912964I-497J58D01*
G01X1979321*
G03X1978431Y1913277I-500J0*
G01X1979000Y1914900D02*
G03X1978431Y1913277I-2600J0D01*
G01X1979000Y1914900D02*
X1979000D01*
X1978982Y1914594D02*
G03X1979000Y1914900I-2582J306D01*
G01X1978982Y1914594D02*
G03X1978979Y1914536I497J-58D01*
G01X1978979*
G03X1979869Y1914223I500J-0*
G01X1979300Y1912600D02*
G03X1979869Y1914223I2600J0D01*
G01X1986300Y1919300D02*
G03X1986300I-2600J0D01*
G01X1989962Y1933187D02*
G03X1989962I-2600J0D01*
G01X1987400Y1939600D02*
G03X1987400I-2600J0D01*
G01X1987368Y1948881D02*
G03X1986432I-468J-177D01*
G01Y1950719D02*
G03Y1948881I-2432J-919D01*
G01Y1950719D02*
G03X1987368I468J177D01*
G01Y1948881D02*
G03Y1950719I2432J919D01*
G01X1995700Y1959300D02*
G03X1995700I-2600J0D01*
G01X1999400Y1992200D02*
G03X1999400I-2600J0D01*
G01X1993300Y1982400D02*
G03X1993300I-2600J0D01*
G01X1993600Y2007600D02*
G03X1993600I-3200J0D01*
G01X1999000Y2020100D02*
G03X1999000I-3200J0D01*
G01X1976404Y1934180D02*
G03X1980900Y1932400I1896J-1780D01*
G01X1976404Y1934180D02*
G03X1976179Y1935002I-364J342D01*
G01X1974635Y1936222D02*
G03X1976179Y1935002I2265J1278D01*
G01X1974635Y1936222D02*
G03X1973765I-435J-245D01*
G01X1972042Y1934957D02*
G03X1973765Y1936222I-542J2543D01*
G01X1972042Y1934957D02*
G03X1971736Y1934183I104J-489D01*
G01X1972200Y1932700D02*
G03X1971736Y1934183I-2600J0D01*
G01X1969058Y1935243D02*
G03X1972200Y1932700I542J-2543D01*
G01X1969058Y1935243D02*
G03X1969364Y1936017I-104J489D01*
G01X1968900Y1937500D02*
G03X1969364Y1936017I2600J-0D01*
G01X1973765Y1938778D02*
G03X1968900Y1937500I-2265J-1278D01*
G01X1973765Y1938778D02*
G03X1974635I435J245D01*
G01X1978796Y1935720D02*
G03X1974635Y1938778I-1896J1780D01*
G01X1978796Y1935720D02*
G03X1979021Y1934898I364J-342D01*
G01X1980900Y1932400D02*
G03X1979021Y1934898I-2600J0D01*
G01X1985400Y1962500D02*
G03X1985400I-2600J0D01*
G01X1986400Y1979900D02*
G03X1986400I-2600J0D01*
G01X1991400Y2014700D02*
G03X1991400I-2600J0D01*
G01X1995000Y2069100D02*
G03X1995000I-4100J0D01*
G01X1999600Y2131000D02*
G03X1999600I-2600J0D01*
G01X2001200Y2170400D02*
G03X2001200I-2600J0D01*
G01X1965486Y1874063D02*
G03X1964873Y1874789I-426J262D01*
G01X1966114Y1875837D02*
G03X1964873Y1874789I-2214J1363D01*
G01X1966114Y1875837D02*
G03X1966727Y1875111I426J-262D01*
G01X1965486Y1874063D02*
G03X1966727Y1875111I2214J-1363D01*
G01X1971600Y1917500D02*
G03X1971600I-2600J0D01*
G01X1974500Y1953800D02*
G03X1974500I-2600J0D01*
G01X1979400Y1958400D02*
G03X1979400I-2600J0D01*
G01X1974900Y1978000D02*
X1974900D01*
X1974946Y1978485D02*
G03X1974900Y1978000I2554J-485D01*
G01X1974946Y1978485D02*
G03X1974954Y1978578I-492J93D01*
G01X1974954*
G03X1974188Y1979001I-500J0*
G01X1975400Y1981200D02*
G03X1974188Y1979001I-2600J0D01*
G01X1975400Y1981200D02*
X1975400D01*
X1975354Y1980715D02*
G03X1975400Y1981200I-2554J485D01*
G01X1975354Y1980715D02*
G03X1975346Y1980622I492J-93D01*
G01X1975346*
G03X1976112Y1980199I500J-0*
G01X1974900Y1978000D02*
G03X1976112Y1980199I2600J0D01*
G01X1985000Y2069100D02*
G03X1985000I-4100J0D01*
G01X1988600Y2131200D02*
G03X1988600I-4100J0D01*
G01X1989900Y2153400D02*
G03X1989900I-2600J0D01*
G01X1988600Y2161200D02*
G03X1988600I-4100J0D01*
G01X1992600Y2181900D02*
G03X1992600I-3200J0D01*
G01X1992400Y2196400D02*
G03X1992400I-2600J0D01*
G01X1993700Y2214300D02*
G03X1993700I-3200J0D01*
G01X2020000Y2230400D02*
G03X2020000I-13600J0D01*
G01X2022200Y2266200D02*
G03X2022200I-2600J0D01*
G01X2027000Y2281200D02*
G03X2027000I-2600J0D01*
G01X2032600Y2342700D02*
G03X2032600I-3200J0D01*
G01X2032200Y2371900D02*
G03X2032200I-3200J0D01*
G01X2032500Y2382500D02*
G03X2032500I-2600J0D01*
G01X2038200Y2405500D02*
G03X2038200I-3200J0D01*
G01X2021700Y2284500D02*
G03X2021700I-2600J0D01*
G01X2022800Y2303500D02*
G03X2022800I-2600J0D01*
G01X2025100Y2314500D02*
G03X2025100I-2600J0D01*
G01X2023600Y2324000D02*
G03X2023600I-2600J0D01*
G01X2029700Y2415600D02*
G03X2029700I-3200J0D01*
G01X2021200Y2436400D02*
G03X2021200I-2600J0D01*
G01X2011931Y2262431D02*
G03X2011189Y2262035I-244J-437D01*
G01X2009868Y2264898D02*
G03X2011189Y2262035I-1868J-2598D01*
G01X2009868Y2264898D02*
G03X2010650Y2265207I291J406D01*
G01X2011931Y2262431D02*
G03X2010650Y2265207I1269J2269D01*
G01X2015800Y2281200D02*
G03X2015800I-2600J0D01*
G01X2011100Y2285300D02*
G03X2011100I-2600J0D01*
G01X2006100Y2289700D02*
G03X2006100I-2600J0D01*
G01X2010100Y2296100D02*
G03X2010100I-2600J0D01*
G01X2012300Y2306600D02*
G03X2012300I-2600J0D01*
G01X1994516Y2261447D02*
G03X1993705Y2261690I-482J-134D01*
G01X1994684Y2264953D02*
G03X1993705Y2261690I-3084J-853D01*
G01X1994684Y2264953D02*
G03X1995495Y2264710I482J134D01*
G01X1994516Y2261447D02*
G03X1995495Y2264710I3084J853D01*
G01X2004000Y2308000D02*
G03X2004000I-2600J0D01*
G01X2007100Y2315500D02*
G03X2007100I-2600J0D01*
G01X2008200Y2331000D02*
G03X2008200I-3200J0D01*
G01X1998700Y2291500D02*
G03X1998700I-2600J0D01*
G01X2000600Y2392600D02*
G03X2000600I-3200J0D01*
G01X2002900Y2438300D02*
G03X2002900I-2600J0D01*
G01X1991600Y2282000D02*
G03X1991600I-2600J0D01*
G01X1990700Y2374100D02*
G03X1990700I-2600J0D01*
G01X1994500Y2408800D02*
G03X1994500I-2600J0D01*
G01X1964900Y1891000D02*
G03X1964900I-2600J0D01*
G01X1961400Y1916200D02*
G03X1961400I-2600J0D01*
G01X1964300Y1942300D02*
G03X1964300I-2600J0D01*
G01X1963148Y1949364D02*
G03X1962422Y1949961I-472J167D01*
G01X1963552Y1951336D02*
G03X1962422Y1949961I-2452J864D01*
G01X1963552Y1951336D02*
G03X1964278Y1950739I472J-167D01*
G01X1963148Y1949364D02*
G03X1964278Y1950739I2452J-864D01*
G01X1970600Y1963100D02*
G03X1970600I-2600J0D01*
G01X1965599Y1989336D02*
G03X1965048Y1988685I-76J-494D01*
G01X1962973Y1990440D02*
G03X1965048Y1988685I-394J-2570D01*
G01X1962973Y1990440D02*
G03X1963524Y1991091I76J494D01*
G01X1965599Y1989336D02*
G03X1963524Y1991091I394J2570D01*
G01X1975000Y2069100D02*
G03X1975000I-4100J0D01*
G01X1978600Y2131200D02*
G03X1978600I-4100J0D01*
G01Y2161200D02*
G03X1978600I-4100J0D01*
G01X1976600Y2183000D02*
G03X1976600I-2600J0D01*
G01X1979900Y2195100D02*
G03X1979900I-2600J0D01*
G01X1974135Y2204012D02*
G03X1974119Y2203141I237J-440D01*
G01X1971565Y2203188D02*
G03X1974119Y2203141I1235J-2288D01*
G01X1971565Y2203188D02*
G03X1971581Y2204059I-237J440D01*
G01X1974135Y2204012D02*
G03X1971581Y2204059I-1235J2288D01*
G01X1979800Y2211100D02*
G03X1979800I-2600J0D01*
G01X1980900Y2218200D02*
G03X1980900I-3200J0D01*
G01X1979400Y2232400D02*
G03X1979400I-3200J0D01*
G01X1977800Y2240900D02*
G03X1977800I-3200J0D01*
G01X1979700Y2292500D02*
G03X1979700I-2600J0D01*
G01X1981000Y2301900D02*
G03X1981000I-2600J0D01*
G01X1978100Y2312500D02*
G03X1978100I-2600J0D01*
G01X1952550Y1918939D02*
G03X1952137Y1918447I87J-492D01*
X1952405Y1918004I500J-0*
G01X1950750Y1918261D02*
G03X1952405Y1918004I450J-2561D01*
G01X1950750Y1918261D02*
G03X1951163Y1918753I-87J492D01*
X1950895Y1919196I-500J0*
G01X1952550Y1918939D02*
G03X1950895Y1919196I-450J2561D01*
G01X1958600Y1975500D02*
G03X1958600I-2600J0D01*
G01Y1996500D02*
G03X1958600I-2600J0D01*
G01X1965000Y2069100D02*
G03X1965000I-4100J0D01*
G01X1968600Y2131200D02*
G03X1968600I-4100J0D01*
G01Y2161200D02*
G03X1968600I-4100J0D01*
G01X1967100Y2179200D02*
G03X1967100I-2600J0D01*
G01X1970155Y2258484D02*
G03Y2257516I126J-484D01*
G01X1968845D02*
G03X1970155I655J-2516D01*
G01X1968845D02*
G03Y2258484I-126J484D01*
G01X1970155D02*
G03X1968845I-655J2516D01*
G01X1971500Y2280500D02*
G03X1971500I-2600J0D01*
G01X1971600Y2303900D02*
G03X1971600I-2600J0D01*
G01X1976400Y2326500D02*
G03X1976400I-2600J0D01*
G01X1982400Y2379700D02*
G03X1982400I-4100J0D01*
G01Y2397417D02*
G03X1982400I-4100J0D01*
G01X1986400Y2416300D02*
G03X1986400I-2600J0D01*
G01X1969300Y2321300D02*
G03X1969300I-2600J0D01*
G01X1972600Y2341100D02*
G03X1972600I-3200J0D01*
G01X1971200Y2358700D02*
G03X1971200I-2600J0D01*
G01X1945886Y1932078D02*
G03X1945886I-2600J0D01*
G01X1949500Y1942200D02*
G03X1949500I-2600J0D01*
G01X1947600Y1958900D02*
G03X1947600I-2600J0D01*
G01X1955000Y2069100D02*
G03X1955000I-4100J0D01*
G01X1958600Y2131200D02*
G03X1958600I-4100J0D01*
G01Y2161200D02*
G03X1958600I-4100J0D01*
G01X1957926Y2198368D02*
G03X1958220Y2198823I-206J455D01*
X1957781Y2199320I-500J0*
G01X1959174Y2199532D02*
G03X1957781Y2199320I-1074J2368D01*
G01X1959174Y2199532D02*
G03X1958880Y2199077I206J-455D01*
X1959319Y2198580I500J-0*
G01X1957926Y2198368D02*
G03X1959319Y2198580I1074J-2368D01*
G01X1960400Y2215700D02*
G03X1960400I-2600J0D01*
G01X1958500Y2227400D02*
G03X1958500I-2600J0D01*
G01X1955900Y2245500D02*
G03X1955900I-2600J0D01*
G01X1956809Y2379700D02*
G03X1956809I-4100J0D01*
G01Y2397417D02*
G03X1956809I-4100J0D01*
G01X1942341Y1969875D02*
G03X1942058Y1970810I-243J437D01*
G01X1943242Y1971144D02*
G03X1942058Y1970810I-1442J2856D01*
G01X1943242Y1971144D02*
G03X1943489Y1970198I226J-447D01*
G01X1942341Y1969875D02*
G03X1943489Y1970198I1259J-2275D01*
G01X1939222Y1936465D02*
G03X1939222I-2600J0D01*
G01X1940600Y1946600D02*
G03X1940600I-2600J0D01*
G01X1939800Y1962300D02*
G03X1939800I-2600J0D01*
G01X1940600Y1995500D02*
G03X1940600I-2600J0D01*
G01X1944000Y2007500D02*
G03X1944000I-2600J0D01*
G01X1941600Y2257700D02*
G03X1941600I-3200J0D01*
G01X1944900Y2265300D02*
G03X1944900I-3200J0D01*
G01X1946800Y2447400D02*
G03X1946800I-3200J0D01*
G01X1938400Y2308300D02*
G03X1938400I-3200J0D01*
G01X1938700Y2360100D02*
G03X1938700I-2600J0D01*
G01X1928500Y1927100D02*
G03X1928500I-2600J0D01*
G01X1931800Y1949300D02*
G03X1931800I-2600J0D01*
G01X1921500Y1968564D02*
G03X1921500I-2600J0D01*
G01X1921486Y1980556D02*
G03X1921486I-2600J0D01*
G01X1923600Y2028400D02*
G03X1923600I-2600J0D01*
G01X1912400Y1886900D02*
G03X1912400I-4100J0D01*
G01Y1896900D02*
G03X1912400I-4100J0D01*
G01Y1906900D02*
G03X1912400I-4100J0D01*
G01Y1916900D02*
G03X1912400I-4100J0D01*
G01Y1926900D02*
G03X1912400I-4100J0D01*
G01Y1936900D02*
G03X1912400I-4100J0D01*
G01Y1946900D02*
G03X1912400I-4100J0D01*
G01Y1956900D02*
G03X1912400I-4100J0D01*
G01Y1966900D02*
G03X1912400I-4100J0D01*
G01Y1976900D02*
G03X1912400I-4100J0D01*
G01Y1986900D02*
G03X1912400I-4100J0D01*
G01Y1996900D02*
G03X1912400I-4100J0D01*
G01Y2006900D02*
G03X1912400I-4100J0D01*
G01Y2016900D02*
G03X1912400I-4100J0D01*
G01Y2026900D02*
G03X1912400I-4100J0D01*
G01Y2036900D02*
G03X1912400I-4100J0D01*
G01Y2046900D02*
G03X1912400I-4100J0D01*
G01Y2056900D02*
G03X1912400I-4100J0D01*
G01Y2066900D02*
G03X1912400I-4100J0D01*
G01Y2076900D02*
G03X1912400I-4100J0D01*
G01Y2086900D02*
G03X1912400I-4100J0D01*
G01Y2096900D02*
G03X1912400I-4100J0D01*
G01Y2106900D02*
G03X1912400I-4100J0D01*
G01Y2116900D02*
G03X1912400I-4100J0D01*
G01Y2126900D02*
G03X1912400I-4100J0D01*
G01Y2136900D02*
G03X1912400I-4100J0D01*
G01Y2146900D02*
G03X1912400I-4100J0D01*
G01Y2156900D02*
G03X1912400I-4100J0D01*
G01Y2166900D02*
G03X1912400I-4100J0D01*
G01Y2176900D02*
G03X1912400I-4100J0D01*
G01Y2186900D02*
G03X1912400I-4100J0D01*
G01Y2196900D02*
G03X1912400I-4100J0D01*
G01Y2206900D02*
G03X1912400I-4100J0D01*
G01Y2216900D02*
G03X1912400I-4100J0D01*
G01Y2226900D02*
G03X1912400I-4100J0D01*
G01Y2236900D02*
G03X1912400I-4100J0D01*
G01Y2246900D02*
G03X1912400I-4100J0D01*
G01Y2256900D02*
G03X1912400I-4100J0D01*
G01Y2266900D02*
G03X1912400I-4100J0D01*
G01Y2276900D02*
G03X1912400I-4100J0D01*
G01Y2286900D02*
G03X1912400I-4100J0D01*
G01Y2296900D02*
G03X1912400I-4100J0D01*
G01Y2306900D02*
G03X1912400I-4100J0D01*
G01Y2316900D02*
G03X1912400I-4100J0D01*
G01Y2326900D02*
G03X1912400I-4100J0D01*
G01Y2336900D02*
G03X1912400I-4100J0D01*
G01Y2346900D02*
G03X1912400I-4100J0D01*
G01Y2356900D02*
G03X1912400I-4100J0D01*
G01Y2366900D02*
G03X1912400I-4100J0D01*
G01Y2376900D02*
G03X1912400I-4100J0D01*
G01Y2386900D02*
G03X1912400I-4100J0D01*
G01Y2396900D02*
G03X1912400I-4100J0D01*
G01Y2406900D02*
G03X1912400I-4100J0D01*
G01Y2416900D02*
G03X1912400I-4100J0D01*
G01Y2426900D02*
G03X1912400I-4100J0D01*
G01Y2436900D02*
G03X1912400I-4100J0D01*
G01Y2446900D02*
G03X1912400I-4100J0D01*
G01Y2456900D02*
G03X1912400I-4100J0D01*
G01X1902800Y2466899D02*
X2087900D01*
X1902800Y2465999D02*
X2087900D01*
X1902800Y2465099D02*
X2087900D01*
X1902800Y2464199D02*
X2087900D01*
X1902800Y2463299D02*
X2087900D01*
X1902800Y2462399D02*
X2087900D01*
X1902800Y2461499D02*
X2087900D01*
X1910069Y2460599D02*
X2087900D01*
X1911296Y2459699D02*
X2087900D01*
X1911934Y2458799D02*
X2087900D01*
X1912277Y2457899D02*
X2087900D01*
X1912399Y2456999D02*
X2087900D01*
X1912321Y2456099D02*
X2087900D01*
X1912030Y2455199D02*
X2087900D01*
X1911469Y2454299D02*
X2087900D01*
X1910433Y2453399D02*
X2087900D01*
X1902800Y2452499D02*
X2087900D01*
X1902800Y2451599D02*
X2087900D01*
X1909843Y2450699D02*
X2087900D01*
X1945718Y2449799D02*
X2087900D01*
X1946427Y2448899D02*
X2087900D01*
X1946744Y2447999D02*
X2087900D01*
X1946786Y2447099D02*
X2087900D01*
X1946566Y2446199D02*
X2087900D01*
X1946013Y2445299D02*
X2087900D01*
X1944710Y2444399D02*
X2087900D01*
X1910589Y2443499D02*
X2087900D01*
X1902800Y2442599D02*
X2087900D01*
X1902800Y2441699D02*
X2087900D01*
X2001019Y2440799D02*
X2087900D01*
X2002350Y2439899D02*
X2087900D01*
X2018683Y2438999D02*
X2087900D01*
X2020568Y2438099D02*
X2087900D01*
X2021074Y2437199D02*
X2087900D01*
X2021198Y2436299D02*
X2087900D01*
X2020999Y2435399D02*
X2087900D01*
X2020373Y2434499D02*
X2087900D01*
X1910731Y2433599D02*
X2087900D01*
X1902800Y2432699D02*
X2087900D01*
X1902800Y2431799D02*
X2087900D01*
X1909206Y2430899D02*
X2087900D01*
X1910985Y2429999D02*
X2087900D01*
X1911761Y2429099D02*
X2087900D01*
X1912189Y2428199D02*
X2087900D01*
X1912381Y2427299D02*
X2087900D01*
X1912369Y2426399D02*
X2087900D01*
X1912153Y2425499D02*
X2087900D01*
X1911693Y2424599D02*
X2087900D01*
X1910862Y2423699D02*
X2087900D01*
X1902800Y2422799D02*
X2087900D01*
X1902800Y2421899D02*
X2087900D01*
X1908405Y2420999D02*
X2087900D01*
X1910865Y2420099D02*
X2087900D01*
X1911695Y2419199D02*
X2087900D01*
X2028220Y2418299D02*
X2087900D01*
X2029147Y2417399D02*
X2087900D01*
X2029571Y2416499D02*
X2087900D01*
X2029700Y2415599D02*
X2087900D01*
X2029570Y2414699D02*
X2087900D01*
X2029145Y2413799D02*
X2087900D01*
X2028216Y2412899D02*
X2087900D01*
X1902800Y2411999D02*
X2087900D01*
X1993115Y2411099D02*
X2087900D01*
X1994092Y2410199D02*
X2087900D01*
X1994452Y2409299D02*
X2087900D01*
X2036356Y2408399D02*
X2087900D01*
X2037499Y2407499D02*
X2087900D01*
X2038005Y2406599D02*
X2087900D01*
X2038194Y2405699D02*
X2087900D01*
X2038122Y2404799D02*
X2087900D01*
X2037771Y2403899D02*
X2087900D01*
X2036996Y2402999D02*
X2087900D01*
X1902800Y2402099D02*
X2087900D01*
X1979883Y2401199D02*
X2087900D01*
X1981216Y2400299D02*
X2087900D01*
X1981889Y2399399D02*
X2087900D01*
X1982255Y2398499D02*
X2087900D01*
X1982396Y2397599D02*
X2087900D01*
X1982337Y2396699D02*
X2087900D01*
X1997492Y2395799D02*
X2087900D01*
X1999626Y2394899D02*
X2087900D01*
X2000278Y2393999D02*
X2087900D01*
X2000561Y2393099D02*
X2087900D01*
X2000575Y2392199D02*
X2087900D01*
X2000323Y2391299D02*
X2087900D01*
X1999723Y2390399D02*
X2087900D01*
X1998189Y2389499D02*
X2087900D01*
X2079920Y2388599D02*
X2087900D01*
X2080847Y2387699D02*
X2087900D01*
X2081271Y2386799D02*
X2087900D01*
X2081400Y2385899D02*
X2087900D01*
X2081270Y2384999D02*
X2087900D01*
X2080845Y2384099D02*
X2087900D01*
X2079916Y2383199D02*
X2087900D01*
X2032492Y2382299D02*
X2087900D01*
X2032255Y2381399D02*
X2087900D01*
X2031560Y2380499D02*
X2087900D01*
X1982399Y2379599D02*
X2087900D01*
X1982276Y2378699D02*
X2087900D01*
X1981933Y2377799D02*
X2087900D01*
X1981294Y2376899D02*
X2087900D01*
X1989876Y2375999D02*
X2087900D01*
X2029092Y2375099D02*
X2087900D01*
X2031226Y2374199D02*
X2087900D01*
X2031878Y2373299D02*
X2087900D01*
X2032161Y2372399D02*
X2087900D01*
X2032175Y2371499D02*
X2087900D01*
X2031923Y2370599D02*
X2087900D01*
X2031323Y2369699D02*
X2087900D01*
X2029789Y2368799D02*
X2087900D01*
X1912277Y2367899D02*
X2087900D01*
X1912399Y2366999D02*
X2087900D01*
X1912321Y2366099D02*
X2087900D01*
X1912030Y2365199D02*
X2087900D01*
X1911469Y2364299D02*
X2087900D01*
X1910433Y2363399D02*
X2087900D01*
X1937103Y2362499D02*
X2087900D01*
X1938225Y2361599D02*
X2087900D01*
X1970263Y2360699D02*
X2087900D01*
X1970956Y2359799D02*
X2087900D01*
X1971192Y2358899D02*
X2087900D01*
X1971104Y2357999D02*
X2087900D01*
X1970648Y2357099D02*
X2087900D01*
X1969310Y2356199D02*
X2087900D01*
X1912074Y2355299D02*
X2087900D01*
X2056519Y2354399D02*
X2087900D01*
X2057850Y2353499D02*
X2087900D01*
X2058304Y2352599D02*
X2087900D01*
X2058392Y2351699D02*
X2087900D01*
X2058155Y2350799D02*
X2087900D01*
X2057460Y2349899D02*
X2087900D01*
X1911822Y2348999D02*
X2087900D01*
X1912221Y2348099D02*
X2087900D01*
X1912389Y2347199D02*
X2087900D01*
X1912356Y2346299D02*
X2087900D01*
X2031120Y2345399D02*
X2087900D01*
X2032047Y2344499D02*
X2087900D01*
X2067569Y2343599D02*
X2087900D01*
X2068796Y2342699D02*
X2087900D01*
X2069434Y2341799D02*
X2087900D01*
X2069777Y2340899D02*
X2087900D01*
X2069899Y2339999D02*
X2087900D01*
X2069821Y2339099D02*
X2087900D01*
X2069530Y2338199D02*
X2087900D01*
X2068969Y2337299D02*
X2087900D01*
X2067933Y2336399D02*
X2087900D01*
X1912153Y2335499D02*
X2087900D01*
X1911693Y2334599D02*
X2087900D01*
X2067343Y2333699D02*
X2087900D01*
X2068700Y2332799D02*
X2087900D01*
X2069380Y2331899D02*
X2087900D01*
X2069750Y2330999D02*
X2087900D01*
X2069895Y2330099D02*
X2087900D01*
X2069840Y2329199D02*
X2087900D01*
X2069574Y2328299D02*
X2087900D01*
X2069049Y2327399D02*
X2087900D01*
X2081735Y2326499D02*
X2087900D01*
X2082507Y2325599D02*
X2087900D01*
X2082783Y2324699D02*
X2087900D01*
X2082730Y2323799D02*
X2087900D01*
X2082323Y2322899D02*
X2087900D01*
X2081197Y2321999D02*
X2087900D01*
X2069721Y2321099D02*
X2087900D01*
X2069889Y2320199D02*
X2087900D01*
X2069856Y2319299D02*
X2087900D01*
X2069615Y2318399D02*
X2087900D01*
X2069123Y2317499D02*
X2087900D01*
X2068231Y2316599D02*
X2087900D01*
X2024807Y2315699D02*
X2087900D01*
X2025083Y2314799D02*
X2087900D01*
X2066706Y2313899D02*
X2087900D01*
X2068485Y2312999D02*
X2087900D01*
X2069261Y2312099D02*
X2087900D01*
X2069689Y2311199D02*
X2087900D01*
X2069881Y2310299D02*
X2087900D01*
X2069869Y2309399D02*
X2087900D01*
X2069653Y2308499D02*
X2087900D01*
X2069193Y2307599D02*
X2087900D01*
X2068362Y2306699D02*
X2087900D01*
X2021415Y2305799D02*
X2087900D01*
X2022392Y2304899D02*
X2087900D01*
X2069436Y2303999D02*
X2087900D01*
X2083477Y2303099D02*
X2087900D01*
X2084040Y2302199D02*
X2087900D01*
X2084200Y2301299D02*
X2087900D01*
X2084039Y2300399D02*
X2087900D01*
X2083475Y2299499D02*
X2087900D01*
X2069900Y2298599D02*
X2087900D01*
X2069900Y2297699D02*
X2087900D01*
X2069900Y2296799D02*
X2087900D01*
X2069698Y2295899D02*
X2087900D01*
X2048955Y2294999D02*
X2087900D01*
X2048260Y2294099D02*
X2087900D01*
X2037861Y2293199D02*
X2087900D01*
X2037875Y2292299D02*
X2087900D01*
X2037623Y2291399D02*
X2087900D01*
X2037023Y2290499D02*
X2087900D01*
X2035489Y2289599D02*
X2087900D01*
X2005899Y2288699D02*
X2087900D01*
X2009219Y2287799D02*
X2087900D01*
X2020103Y2286899D02*
X2087900D01*
X2021225Y2285999D02*
X2087900D01*
X2081535Y2285099D02*
X2087900D01*
X2082307Y2284199D02*
X2087900D01*
X2082583Y2283299D02*
X2087900D01*
X2082530Y2282399D02*
X2087900D01*
X2082123Y2281499D02*
X2087900D01*
X2080997Y2280599D02*
X2087900D01*
X2033439Y2279699D02*
X2087900D01*
X2032875Y2278799D02*
X2087900D01*
X1912277Y2277899D02*
X2087900D01*
X1912399Y2276999D02*
X2087900D01*
X1912321Y2276099D02*
X2087900D01*
X2052967Y2275199D02*
X2087900D01*
X2053812Y2274299D02*
X2087900D01*
X2054199Y2273399D02*
X2087900D01*
X2067192Y2272499D02*
X2087900D01*
X2069326Y2271599D02*
X2087900D01*
X2069978Y2270699D02*
X2087900D01*
X2070261Y2269799D02*
X2087900D01*
X2070275Y2268899D02*
X2087900D01*
X2070023Y2267999D02*
X2087900D01*
X2069423Y2267099D02*
X2087900D01*
X2067889Y2266199D02*
X2087900D01*
X2031400Y2265299D02*
X2087900D01*
X2031239Y2264399D02*
X2087900D01*
X2030675Y2263499D02*
X2087900D01*
X2026350Y2262599D02*
X2087900D01*
X2026804Y2261699D02*
X2087900D01*
X2026892Y2260799D02*
X2087900D01*
X2043920Y2259899D02*
X2087900D01*
X2044847Y2258999D02*
X2087900D01*
X2045271Y2258099D02*
X2087900D01*
X2045400Y2257199D02*
X2087900D01*
X2045270Y2256299D02*
X2087900D01*
X2044845Y2255399D02*
X2087900D01*
X2043916Y2254499D02*
X2087900D01*
X2070820Y2253599D02*
X2087900D01*
X2071747Y2252699D02*
X2087900D01*
X2072171Y2251799D02*
X2087900D01*
X2072300Y2250899D02*
X2087900D01*
X2072170Y2249999D02*
X2087900D01*
X2071745Y2249099D02*
X2087900D01*
X2070816Y2248199D02*
X2087900D01*
X1955177Y2247299D02*
X2087900D01*
X1955740Y2246399D02*
X2087900D01*
X1955900Y2245499D02*
X2087900D01*
X2060317Y2244599D02*
X2087900D01*
X2061616Y2243699D02*
X2087900D01*
X2062167Y2242799D02*
X2087900D01*
X2062386Y2241899D02*
X2087900D01*
X2062343Y2240999D02*
X2087900D01*
X2062026Y2240099D02*
X2087900D01*
X2061315Y2239199D02*
X2087900D01*
X2059052Y2238299D02*
X2087900D01*
X2059176Y2237399D02*
X2087900D01*
X2059801Y2236499D02*
X2087900D01*
X2059998Y2235599D02*
X2087900D01*
X2059873Y2234699D02*
X2087900D01*
X2059366Y2233799D02*
X2087900D01*
X2044166Y2232899D02*
X2087900D01*
X2019906Y2231999D02*
X2087900D01*
X2019982Y2231099D02*
X2087900D01*
X2019999Y2230199D02*
X2087900D01*
X2069815Y2229299D02*
X2087900D01*
X2070792Y2228399D02*
X2087900D01*
X2071152Y2227499D02*
X2087900D01*
X2071169Y2226599D02*
X2087900D01*
X2070851Y2225699D02*
X2087900D01*
X2069984Y2224799D02*
X2087900D01*
X2059244Y2223899D02*
X2087900D01*
X2059286Y2222999D02*
X2087900D01*
X2059066Y2222099D02*
X2087900D01*
X2058513Y2221199D02*
X2087900D01*
X2057210Y2220299D02*
X2087900D01*
X2056307Y2219399D02*
X2087900D01*
X2057677Y2218499D02*
X2087900D01*
X2058240Y2217599D02*
X2087900D01*
X2058400Y2216699D02*
X2087900D01*
X2081652Y2215799D02*
X2087900D01*
X2082676Y2214899D02*
X2087900D01*
X2083140Y2213999D02*
X2087900D01*
X2083298Y2213099D02*
X2087900D01*
X2083198Y2212199D02*
X2087900D01*
X2082810Y2211299D02*
X2087900D01*
X2081964Y2210399D02*
X2087900D01*
X2066710Y2209499D02*
X2087900D01*
X2064412Y2208599D02*
X2087900D01*
X2064757Y2207699D02*
X2087900D01*
X2064773Y2206799D02*
X2087900D01*
X2064453Y2205899D02*
X2087900D01*
X2063581Y2204999D02*
X2087900D01*
X2060612Y2204099D02*
X2087900D01*
X2061201Y2203199D02*
X2087900D01*
X2061398Y2202299D02*
X2087900D01*
X2061273Y2201399D02*
X2087900D01*
X2060766Y2200499D02*
X2087900D01*
X2012788Y2199599D02*
X2087900D01*
X2013652Y2198699D02*
X2087900D01*
X2013969Y2197799D02*
X2087900D01*
X2013951Y2196899D02*
X2087900D01*
X2013590Y2195999D02*
X2087900D01*
X2012610Y2195099D02*
X2087900D01*
X1991184Y2194199D02*
X2087900D01*
X1979175Y2193299D02*
X2087900D01*
X1902800Y2192399D02*
X2087900D01*
X1902800Y2191499D02*
X2087900D01*
X2046020Y2190599D02*
X2087900D01*
X2046947Y2189699D02*
X2087900D01*
X2047371Y2188799D02*
X2087900D01*
X2047500Y2187899D02*
X2087900D01*
X2047370Y2186999D02*
X2087900D01*
X2046945Y2186099D02*
X2087900D01*
X2046016Y2185199D02*
X2087900D01*
X2015318Y2184299D02*
X2087900D01*
X2016027Y2183399D02*
X2087900D01*
X2016344Y2182499D02*
X2087900D01*
X2016386Y2181599D02*
X2087900D01*
X2054803Y2180699D02*
X2087900D01*
X2055925Y2179799D02*
X2087900D01*
X2056330Y2178899D02*
X2087900D01*
X2056383Y2177999D02*
X2087900D01*
X2056106Y2177099D02*
X2087900D01*
X2055331Y2176199D02*
X2087900D01*
X1912074Y2175299D02*
X2087900D01*
X1911549Y2174399D02*
X2087900D01*
X2055135Y2173499D02*
X2087900D01*
X2055907Y2172599D02*
X2087900D01*
X2056183Y2171699D02*
X2087900D01*
X2056130Y2170799D02*
X2087900D01*
X2055723Y2169899D02*
X2087900D01*
X2054597Y2168999D02*
X2087900D01*
X2029439Y2168099D02*
X2087900D01*
X2028875Y2167199D02*
X2087900D01*
X1912356Y2166299D02*
X2087900D01*
X1912115Y2165399D02*
X2087900D01*
X1986935Y2164499D02*
X2087900D01*
X1987825Y2163599D02*
X2087900D01*
X1988316Y2162699D02*
X2087900D01*
X1988556Y2161799D02*
X2087900D01*
X1988589Y2160899D02*
X2087900D01*
X1988420Y2159999D02*
X2087900D01*
X1988021Y2159099D02*
X2087900D01*
X1987293Y2158199D02*
X2087900D01*
X2055877Y2157299D02*
X2087900D01*
X2056440Y2156399D02*
X2087900D01*
X2056600Y2155499D02*
X2087900D01*
X2056439Y2154599D02*
X2087900D01*
X2055875Y2153699D02*
X2087900D01*
X2017825Y2152799D02*
X2087900D01*
X2018425Y2151899D02*
X2087900D01*
X2055003Y2150999D02*
X2087900D01*
X2056125Y2150099D02*
X2087900D01*
X2056530Y2149199D02*
X2087900D01*
X2056583Y2148299D02*
X2087900D01*
X2056306Y2147399D02*
X2087900D01*
X2055531Y2146499D02*
X2087900D01*
X1912188Y2145599D02*
X2087900D01*
X1911759Y2144699D02*
X2087900D01*
X1910982Y2143799D02*
X2087900D01*
X1909194Y2142899D02*
X2087900D01*
X1902800Y2141999D02*
X2087900D01*
X2083156Y2141099D02*
X2087900D01*
X2084299Y2140199D02*
X2087900D01*
X2084805Y2139299D02*
X2087900D01*
X2084994Y2138399D02*
X2087900D01*
X2084922Y2137499D02*
X2087900D01*
X2084571Y2136599D02*
X2087900D01*
X2083796Y2135699D02*
X2087900D01*
X1986465Y2134799D02*
X2087900D01*
X2029506Y2133899D02*
X2087900D01*
X2031285Y2132999D02*
X2087900D01*
X2032061Y2132099D02*
X2087900D01*
X2032489Y2131199D02*
X2087900D01*
X2032681Y2130299D02*
X2087900D01*
X2082669Y2129399D02*
X2087900D01*
X2084196Y2128499D02*
X2087900D01*
X2084922Y2127599D02*
X2087900D01*
X2085321Y2126699D02*
X2087900D01*
X2085489Y2125799D02*
X2087900D01*
X2085456Y2124899D02*
X2087900D01*
X2085215Y2123999D02*
X2087900D01*
X2084723Y2123099D02*
X2087900D01*
X2083831Y2122199D02*
X2087900D01*
X2032454Y2121299D02*
X2087900D01*
X2032670Y2120399D02*
X2087900D01*
X2082306Y2119499D02*
X2087900D01*
X2084085Y2118599D02*
X2087900D01*
X2084861Y2117699D02*
X2087900D01*
X2085289Y2116799D02*
X2087900D01*
X2085481Y2115899D02*
X2087900D01*
X2085469Y2114999D02*
X2087900D01*
X2085253Y2114099D02*
X2087900D01*
X2084793Y2113199D02*
X2087900D01*
X2083962Y2112299D02*
X2087900D01*
X2046069Y2111399D02*
X2087900D01*
X2046051Y2110499D02*
X2087900D01*
X2081505Y2109599D02*
X2087900D01*
X2083965Y2108699D02*
X2087900D01*
X2084795Y2107799D02*
X2087900D01*
X2085254Y2106899D02*
X2087900D01*
X2085470Y2105999D02*
X2087900D01*
X2085480Y2105099D02*
X2087900D01*
X2085288Y2104199D02*
X2087900D01*
X2084859Y2103299D02*
X2087900D01*
X2084082Y2102399D02*
X2087900D01*
X2082294Y2101499D02*
X2087900D01*
X2037810Y2100599D02*
X2087900D01*
X2032695Y2099699D02*
X2087900D01*
X2083835Y2098799D02*
X2087900D01*
X2084725Y2097899D02*
X2087900D01*
X2085216Y2096999D02*
X2087900D01*
X2085456Y2096099D02*
X2087900D01*
X2085489Y2095199D02*
X2087900D01*
X2085320Y2094299D02*
X2087900D01*
X2084921Y2093399D02*
X2087900D01*
X2084193Y2092499D02*
X2087900D01*
X2082661Y2091599D02*
X2087900D01*
X2032621Y2090699D02*
X2087900D01*
X2032699Y2089799D02*
X2087900D01*
X2083693Y2088899D02*
X2087900D01*
X2084651Y2087999D02*
X2087900D01*
X2085175Y2087099D02*
X2087900D01*
X2085440Y2086199D02*
X2087900D01*
X2085495Y2085299D02*
X2087900D01*
X2085349Y2084399D02*
X2087900D01*
X2084978Y2083499D02*
X2087900D01*
X2084297Y2082599D02*
X2087900D01*
X2082936Y2081699D02*
X2087900D01*
X2045973Y2080799D02*
X2087900D01*
X2045466Y2079899D02*
X2087900D01*
X2083538Y2078999D02*
X2087900D01*
X2084571Y2078099D02*
X2087900D01*
X2085132Y2077199D02*
X2087900D01*
X2085421Y2076299D02*
X2087900D01*
X2085499Y2075399D02*
X2087900D01*
X2085376Y2074499D02*
X2087900D01*
X2085033Y2073599D02*
X2087900D01*
X2084394Y2072699D02*
X2087900D01*
X2083164Y2071799D02*
X2087900D01*
X2038825Y2070899D02*
X2087900D01*
X2039230Y2069999D02*
X2087900D01*
X2083365Y2069099D02*
X2087900D01*
X2084487Y2068199D02*
X2087900D01*
X2085084Y2067299D02*
X2087900D01*
X2085400Y2066399D02*
X2087900D01*
X2085500Y2065499D02*
X2087900D01*
X2085400Y2064599D02*
X2087900D01*
X2085083Y2063699D02*
X2087900D01*
X2084484Y2062799D02*
X2087900D01*
X2083360Y2061899D02*
X2087900D01*
X2032550Y2060999D02*
X2087900D01*
X2032695Y2060099D02*
X2087900D01*
X2083169Y2059199D02*
X2087900D01*
X2084396Y2058299D02*
X2087900D01*
X2085034Y2057399D02*
X2087900D01*
X2085377Y2056499D02*
X2087900D01*
X2085499Y2055599D02*
X2087900D01*
X2085421Y2054699D02*
X2087900D01*
X2085130Y2053799D02*
X2087900D01*
X2084569Y2052899D02*
X2087900D01*
X2083533Y2051999D02*
X2087900D01*
X2032521Y2051099D02*
X2087900D01*
X2032689Y2050199D02*
X2087900D01*
X2082943Y2049299D02*
X2087900D01*
X2084300Y2048399D02*
X2087900D01*
X2084980Y2047499D02*
X2087900D01*
X2085350Y2046599D02*
X2087900D01*
X2085495Y2045699D02*
X2087900D01*
X2085440Y2044799D02*
X2087900D01*
X2085174Y2043899D02*
X2087900D01*
X2084649Y2042999D02*
X2087900D01*
X2083689Y2042099D02*
X2087900D01*
X2032489Y2041199D02*
X2087900D01*
X2032681Y2040299D02*
X2087900D01*
X2082669Y2039399D02*
X2087900D01*
X2084196Y2038499D02*
X2087900D01*
X2084922Y2037599D02*
X2087900D01*
X2085321Y2036699D02*
X2087900D01*
X2085489Y2035799D02*
X2087900D01*
X2085456Y2034899D02*
X2087900D01*
X2085215Y2033999D02*
X2087900D01*
X2084723Y2033099D02*
X2087900D01*
X2083831Y2032199D02*
X2087900D01*
X2008974Y2031299D02*
X2087900D01*
X2009098Y2030399D02*
X2087900D01*
X2044876Y2029499D02*
X2087900D01*
X2045501Y2028599D02*
X2087900D01*
X2045698Y2027699D02*
X2087900D01*
X2045573Y2026799D02*
X2087900D01*
X2045066Y2025899D02*
X2087900D01*
X1911933Y2024999D02*
X2087900D01*
X1911294Y2024099D02*
X2087900D01*
X1996599Y2023199D02*
X2087900D01*
X1998125Y2022299D02*
X2087900D01*
X1998725Y2021399D02*
X2087900D01*
X1998975Y2020499D02*
X2087900D01*
X1998961Y2019599D02*
X2087900D01*
X1998677Y2018699D02*
X2087900D01*
X1998024Y2017799D02*
X2087900D01*
X1990188Y2016899D02*
X2087900D01*
X1991052Y2015999D02*
X2087900D01*
X1991369Y2015099D02*
X2087900D01*
X2083383Y2014199D02*
X2087900D01*
X2085268Y2013299D02*
X2087900D01*
X2085774Y2012399D02*
X2087900D01*
X2085898Y2011499D02*
X2087900D01*
X2085699Y2010599D02*
X2087900D01*
X2085073Y2009699D02*
X2087900D01*
X1993367Y2008799D02*
X2087900D01*
X1993586Y2007899D02*
X2087900D01*
X1993543Y2006999D02*
X2087900D01*
X1993226Y2006099D02*
X2087900D01*
X1992515Y2005199D02*
X2087900D01*
X1911469Y2004299D02*
X2087900D01*
X2028514Y2003399D02*
X2087900D01*
X2029331Y2002499D02*
X2087900D01*
X2029627Y2001599D02*
X2087900D01*
X2029591Y2000699D02*
X2087900D01*
X2048292Y1999799D02*
X2087900D01*
X2050426Y1998899D02*
X2087900D01*
X2051078Y1997999D02*
X2087900D01*
X2051361Y1997099D02*
X2087900D01*
X2051375Y1996199D02*
X2087900D01*
X2051123Y1995299D02*
X2087900D01*
X2050523Y1994399D02*
X2087900D01*
X2048989Y1993499D02*
X2087900D01*
X1999369Y1992599D02*
X2087900D01*
X2035318Y1991699D02*
X2087900D01*
X2036027Y1990799D02*
X2087900D01*
X2036344Y1989899D02*
X2087900D01*
X2071403Y1988999D02*
X2087900D01*
X2072525Y1988099D02*
X2087900D01*
X2072930Y1987199D02*
X2087900D01*
X2072983Y1986299D02*
X2087900D01*
X2072706Y1985399D02*
X2087900D01*
X2071931Y1984499D02*
X2087900D01*
X2014704Y1983599D02*
X2087900D01*
X2014792Y1982699D02*
X2087900D01*
X2014555Y1981799D02*
X2087900D01*
X2013860Y1980899D02*
X2087900D01*
X2003010Y1979999D02*
X2087900D01*
X1986273Y1979099D02*
X2087900D01*
X1985766Y1978199D02*
X2087900D01*
X1980004Y1977299D02*
X2087900D01*
X1979548Y1976399D02*
X2087900D01*
X1978210Y1975499D02*
X2087900D01*
X1958439Y1974599D02*
X2087900D01*
X2058377Y1973699D02*
X2087900D01*
X2058940Y1972799D02*
X2087900D01*
X2059100Y1971899D02*
X2087900D01*
X2058939Y1970999D02*
X2087900D01*
X2058375Y1970099D02*
X2087900D01*
X2066577Y1969199D02*
X2087900D01*
X2067140Y1968299D02*
X2087900D01*
X2067300Y1967399D02*
X2087900D01*
X2067139Y1966499D02*
X2087900D01*
X2066575Y1965599D02*
X2087900D01*
X2059292Y1964699D02*
X2087900D01*
X2059652Y1963799D02*
X2087900D01*
X2059669Y1962899D02*
X2087900D01*
X2059351Y1961999D02*
X2087900D01*
X2058484Y1961099D02*
X2087900D01*
X2006699Y1960199D02*
X2087900D01*
X2052019Y1959299D02*
X2087900D01*
X2053350Y1958399D02*
X2087900D01*
X2053804Y1957499D02*
X2087900D01*
X2053892Y1956599D02*
X2087900D01*
X2053655Y1955699D02*
X2087900D01*
X2052960Y1954799D02*
X2087900D01*
X2043192Y1953899D02*
X2087900D01*
X2045326Y1952999D02*
X2087900D01*
X2045978Y1952099D02*
X2087900D01*
X2046261Y1951199D02*
X2087900D01*
X2046275Y1950299D02*
X2087900D01*
X2046023Y1949399D02*
X2087900D01*
X2045423Y1948499D02*
X2087900D01*
X2043889Y1947599D02*
X2087900D01*
X2014363Y1946699D02*
X2087900D01*
X2015056Y1945799D02*
X2087900D01*
X2015292Y1944899D02*
X2087900D01*
X2015204Y1943999D02*
X2087900D01*
X2014748Y1943099D02*
X2087900D01*
X2013410Y1942199D02*
X2087900D01*
X2012292Y1941299D02*
X2087900D01*
X2044367Y1940399D02*
X2087900D01*
X2083815Y1939499D02*
X2087900D01*
X2084792Y1938599D02*
X2087900D01*
X2085152Y1937699D02*
X2087900D01*
X2085169Y1936799D02*
X2087900D01*
X2084851Y1935899D02*
X2087900D01*
X2083984Y1934999D02*
X2087900D01*
X2007569Y1934099D02*
X2087900D01*
X2032777Y1933199D02*
X2087900D01*
X2033340Y1932299D02*
X2087900D01*
X2033500Y1931399D02*
X2087900D01*
X2077935Y1930499D02*
X2087900D01*
X2078707Y1929599D02*
X2087900D01*
X2078983Y1928699D02*
X2087900D01*
X2078930Y1927799D02*
X2087900D01*
X2078523Y1926899D02*
X2087900D01*
X2077397Y1925999D02*
X2087900D01*
X2022673Y1925099D02*
X2087900D01*
X2083976Y1924199D02*
X2087900D01*
X2084601Y1923299D02*
X2087900D01*
X2084798Y1922399D02*
X2087900D01*
X2084673Y1921499D02*
X2087900D01*
X2084166Y1920599D02*
X2087900D01*
X2024198Y1919699D02*
X2087900D01*
X2023999Y1918799D02*
X2087900D01*
X2023373Y1917899D02*
X2087900D01*
X2003634Y1916999D02*
X2087900D01*
X1991924Y1916099D02*
X2087900D01*
X1991898Y1915199D02*
X2087900D01*
X2015576Y1914299D02*
X2087900D01*
X2016201Y1913399D02*
X2087900D01*
X2016398Y1912499D02*
X2087900D01*
X2016273Y1911599D02*
X2087900D01*
X2015766Y1910699D02*
X2087900D01*
X2019888Y1909799D02*
X2087900D01*
X2020752Y1908899D02*
X2087900D01*
X2040163Y1907999D02*
X2087900D01*
X2040856Y1907099D02*
X2087900D01*
X2041092Y1906199D02*
X2087900D01*
X2041004Y1905299D02*
X2087900D01*
X2076120Y1904399D02*
X2087900D01*
X2077047Y1903499D02*
X2087900D01*
X2077471Y1902599D02*
X2087900D01*
X2077600Y1901699D02*
X2087900D01*
X2077470Y1900799D02*
X2087900D01*
X2077045Y1899899D02*
X2087900D01*
X2076670Y1898999D02*
X2087900D01*
X2077278Y1898099D02*
X2087900D01*
X2077561Y1897199D02*
X2087900D01*
X2077575Y1896299D02*
X2087900D01*
X2077323Y1895399D02*
X2087900D01*
X2076727Y1894499D02*
X2087900D01*
X2076976Y1893599D02*
X2087900D01*
X2077440Y1892699D02*
X2087900D01*
X2077598Y1891799D02*
X2087900D01*
X2077498Y1890899D02*
X2087900D01*
X2077110Y1889999D02*
X2087900D01*
X2076638Y1889099D02*
X2087900D01*
X2077227Y1888199D02*
X2087900D01*
X2077544Y1887299D02*
X2087900D01*
X2077586Y1886399D02*
X2087900D01*
X2077366Y1885499D02*
X2087900D01*
X2076813Y1884599D02*
X2087900D01*
X2081963Y1883699D02*
X2087900D01*
X2082656Y1882799D02*
X2087900D01*
X2082892Y1881899D02*
X2087900D01*
X2082804Y1880999D02*
X2087900D01*
X2082348Y1880099D02*
X2087900D01*
X2081010Y1879199D02*
X2087900D01*
X2060200Y1878299D02*
X2087900D01*
X2060039Y1877399D02*
X2087900D01*
X2059475Y1876499D02*
X2087900D01*
X2023576Y1875599D02*
X2087900D01*
X2024201Y1874699D02*
X2087900D01*
X2024398Y1873799D02*
X2087900D01*
X2024273Y1872899D02*
X2087900D01*
X1903264Y2467799D02*
X2087436D01*
X1991351Y2014199D02*
X2083217D01*
X1992816Y2009699D02*
X2081527D01*
X2045212Y1939499D02*
X2081385D01*
X1990990Y2013299D02*
X2081332D01*
X2051505Y2109599D02*
X2081295D01*
X2044047Y1934999D02*
X2081216D01*
X1991517Y2010599D02*
X2080901D01*
X1990010Y2012399D02*
X2080826D01*
X1902800Y2011499D02*
X2080702D01*
X2052294Y2101499D02*
X2080506D01*
X2052306Y2119499D02*
X2080494D01*
X1902800Y2141099D02*
X2080444D01*
X2022166Y1924199D02*
X2080424D01*
X2045599Y1938599D02*
X2080408D01*
X2045074Y1935899D02*
X2080349D01*
X2024074Y1920599D02*
X2080234D01*
X2052661Y2091599D02*
X2080139D01*
X2052669Y2129399D02*
X2080131D01*
X2052669Y2039399D02*
X2080131D01*
X2045698Y1937699D02*
X2080048D01*
X2045539Y1936799D02*
X2080031D01*
X2052936Y2081699D02*
X2079864D01*
X2052943Y2049299D02*
X2079857D01*
X1912220Y2135699D02*
X2079804D01*
X2005384Y1923299D02*
X2079799D01*
X2023568Y1921499D02*
X2079727D01*
X2069900Y2299499D02*
X2079725D01*
X2069900Y2303099D02*
X2079723D01*
X2053164Y2071799D02*
X2079636D01*
X2053169Y2059199D02*
X2079631D01*
X2021683Y1922399D02*
X2079602D01*
X2076396Y1879199D02*
X2079590D01*
X2053360Y2061899D02*
X2079440D01*
X2053365Y2069099D02*
X2079435D01*
X2040776Y2140199D02*
X2079301D01*
X2053533Y2051999D02*
X2079267D01*
X2053538Y2078999D02*
X2079262D01*
X2069322Y2321999D02*
X2079203D01*
X2069900Y2300399D02*
X2079161D01*
X2069900Y2302199D02*
X2079160D01*
X2053689Y2042099D02*
X2079111D01*
X2053693Y2088899D02*
X2079107D01*
X2040966Y2136599D02*
X2079029D01*
X2033600Y2280599D02*
X2079003D01*
X2069900Y2301299D02*
X2079000D01*
X2053831Y2122199D02*
X2078969D01*
X2053831Y2032199D02*
X2078969D01*
X2053835Y2098799D02*
X2078965D01*
X2053962Y2112299D02*
X2078838D01*
X2053965Y2108699D02*
X2078835D01*
X2041401Y2139299D02*
X2078795D01*
X2054082Y2102399D02*
X2078718D01*
X2054085Y2118599D02*
X2078715D01*
X2041473Y2137499D02*
X2078678D01*
X2068089Y2326499D02*
X2078665D01*
X2076899Y1883699D02*
X2078637D01*
X2054193Y2092499D02*
X2078607D01*
X2041598Y2138399D02*
X2078606D01*
X2054196Y2128499D02*
X2078604D01*
X2054196Y2038499D02*
X2078604D01*
X2058239Y2215799D02*
X2078548D01*
X2054297Y2082599D02*
X2078503D01*
X2054300Y2048399D02*
X2078500D01*
X2021630Y2285099D02*
X2078465D01*
X2054394Y2072699D02*
X2078406D01*
X2054396Y2058299D02*
X2078404D01*
X2054484Y2062799D02*
X2078316D01*
X2054487Y2068199D02*
X2078313D01*
X2077171Y1880099D02*
X2078252D01*
X2067690Y2210399D02*
X2078236D01*
X2054569Y2052899D02*
X2078231D01*
X2054571Y2078099D02*
X2078229D01*
X2054649Y2042999D02*
X2078151D01*
X2054651Y2087999D02*
X2078149D01*
X2068596Y2322899D02*
X2078077D01*
X2054723Y2123099D02*
X2078077D01*
X2054723Y2033099D02*
X2078077D01*
X2054725Y2097899D02*
X2078075D01*
X2054793Y2113199D02*
X2078007D01*
X2054795Y2107799D02*
X2078005D01*
X2054859Y2103299D02*
X2077941D01*
X2054861Y2117699D02*
X2077939D01*
X2023050Y2325599D02*
X2077893D01*
X2054921Y2093399D02*
X2077879D01*
X2054922Y2127599D02*
X2077878D01*
X2054922Y2037599D02*
X2077878D01*
X2033440Y2281499D02*
X2077877D01*
X2054978Y2083499D02*
X2077822D01*
X2054980Y2047499D02*
X2077820D01*
X2055033Y2073599D02*
X2077767D01*
X2055034Y2057399D02*
X2077766D01*
X2055083Y2063699D02*
X2077717D01*
X2055084Y2067299D02*
X2077716D01*
X2021683Y2284199D02*
X2077693D01*
X2067069Y2323799D02*
X2077670D01*
X2055130Y2053799D02*
X2077670D01*
X2055132Y2077199D02*
X2077668D01*
X2055174Y2043899D02*
X2077626D01*
X2055175Y2087099D02*
X2077625D01*
X2023504Y2324699D02*
X2077617D01*
X2055215Y2123999D02*
X2077585D01*
X2055215Y2033999D02*
X2077585D01*
X2055216Y2096999D02*
X2077584D01*
X2055253Y2114099D02*
X2077547D01*
X2055254Y2106899D02*
X2077546D01*
X2057675Y2214899D02*
X2077524D01*
X2055288Y2104199D02*
X2077512D01*
X2055289Y2116799D02*
X2077511D01*
X2055320Y2094299D02*
X2077480D01*
X2055321Y2126699D02*
X2077479D01*
X2055321Y2036699D02*
X2077479D01*
X2032877Y2282399D02*
X2077470D01*
X2055349Y2084399D02*
X2077451D01*
X2055350Y2046599D02*
X2077450D01*
X2055376Y2074499D02*
X2077424D01*
X2055377Y2056499D02*
X2077423D01*
X2025935Y2283299D02*
X2077417D01*
X2055400Y2064599D02*
X2077400D01*
X2055400Y2066399D02*
X2077400D01*
X2068051Y2211299D02*
X2077390D01*
X2055421Y2054699D02*
X2077379D01*
X2055421Y2076299D02*
X2077379D01*
X2055440Y2044799D02*
X2077360D01*
X2055440Y2086199D02*
X2077360D01*
X2055456Y2124899D02*
X2077344D01*
X2055456Y2034899D02*
X2077344D01*
X2055456Y2096099D02*
X2077344D01*
X2055469Y2114999D02*
X2077331D01*
X2055470Y2105999D02*
X2077330D01*
X2055480Y2105099D02*
X2077320D01*
X2055481Y2115899D02*
X2077319D01*
X2055489Y2095199D02*
X2077311D01*
X2055489Y2125799D02*
X2077311D01*
X2055489Y2035799D02*
X2077311D01*
X2055495Y2085299D02*
X2077305D01*
X2055495Y2045699D02*
X2077305D01*
X2055499Y2075399D02*
X2077301D01*
X2055499Y2055599D02*
X2077301D01*
X2055500Y2065499D02*
X2077300D01*
X2066888Y2213999D02*
X2077060D01*
X2068069Y2212199D02*
X2077002D01*
X2067752Y2213099D02*
X2076902D01*
X2032404Y2383199D02*
X2076484D01*
X1912032Y2388599D02*
X2076480D01*
X2031950Y2384099D02*
X2075555D01*
X1912321Y2387699D02*
X2075553D01*
X2022798Y1925999D02*
X2075403D01*
X2030619Y2384999D02*
X2075130D01*
X1912399Y2386799D02*
X2075129D01*
X1912276Y2385899D02*
X2075000D01*
X2033339Y1930499D02*
X2074865D01*
X2022601Y1926899D02*
X2074277D01*
X2032775Y1929599D02*
X2074093D01*
X2021976Y1927799D02*
X2073870D01*
X2015433Y1928699D02*
X2073817D01*
X2071120Y1904399D02*
X2072680D01*
X2071396Y1879199D02*
X2072404D01*
X2048803Y1988999D02*
X2069397D01*
X2049331Y1984499D02*
X2068869D01*
X2049925Y1988099D02*
X2068275D01*
X2050106Y1985399D02*
X2068094D01*
X2050330Y1987199D02*
X2067870D01*
X2050383Y1986299D02*
X2067817D01*
X2040548Y1904399D02*
X2067680D01*
X2060040Y1879199D02*
X2067404D01*
X2019955Y2229299D02*
X2067385D01*
X1912189Y2248199D02*
X2067384D01*
X1971690Y2253599D02*
X2067380D01*
X2058927Y2224799D02*
X2067216D01*
X2021613Y1898999D02*
X2067130D01*
X2020410Y1894499D02*
X2067073D01*
X2054298Y2272499D02*
X2067008D01*
X2064631Y1884599D02*
X2066987D01*
X2030283Y1883699D02*
X2066901D01*
X2065376Y1893599D02*
X2066824D01*
X2023055Y1899899D02*
X2066755D01*
X2039210Y1903499D02*
X2066753D01*
X2059477Y1880099D02*
X2066629D01*
X2022056Y1898099D02*
X2066522D01*
X2021748Y1895399D02*
X2066477D01*
X1911761Y2249099D02*
X2066455D01*
X1970710Y2252699D02*
X2066453D01*
X2065406Y1885499D02*
X2066434D01*
X2019852Y2228399D02*
X2066408D01*
X2030006Y1882799D02*
X2066395D01*
X2058218Y2225699D02*
X2066349D01*
X2023821Y1900799D02*
X2066330D01*
X2024038Y1902599D02*
X2066329D01*
X2031240Y2266199D02*
X2066311D01*
X2021625Y1880999D02*
X2066278D01*
X2022292Y1897199D02*
X2066239D01*
X2022204Y1896299D02*
X2066225D01*
X2029231Y1881899D02*
X2066206D01*
X2024094Y1901699D02*
X2066200D01*
X2019687Y2227499D02*
X2066048D01*
X2019458Y2226599D02*
X2066031D01*
X1910985Y2249999D02*
X2066030D01*
X1902800Y2251799D02*
X2066029D01*
X1909206Y2250899D02*
X2065900D01*
X2056706Y2313899D02*
X2064894D01*
X2054139Y2271599D02*
X2064874D01*
X2030677Y2267099D02*
X2064777D01*
X2057069Y2323799D02*
X2064531D01*
X2057343Y2333699D02*
X2064257D01*
X2053674Y2270699D02*
X2064222D01*
X2021477Y2267999D02*
X2064177D01*
X2057657Y2213999D02*
X2064112D01*
X2057569Y2343599D02*
X2064031D01*
X2052647Y2269799D02*
X2063939D01*
X1911880Y2268899D02*
X2063925D01*
X2057933Y2336399D02*
X2063667D01*
X2058089Y2326499D02*
X2063511D01*
X2058231Y2316599D02*
X2063369D01*
X2059961Y2210399D02*
X2063295D01*
X2059125Y2213099D02*
X2063248D01*
X2058362Y2306699D02*
X2063238D01*
X2058485Y2312999D02*
X2063115D01*
X2058596Y2322899D02*
X2063004D01*
X2059975Y2211299D02*
X2062949D01*
X2059725Y2212199D02*
X2062931D01*
X2058700Y2332799D02*
X2062900D01*
X2058315Y1965599D02*
X2062825D01*
X2014563Y1969199D02*
X2062823D01*
X2058796Y2342699D02*
X2062804D01*
X2058969Y2337299D02*
X2062631D01*
X2059049Y2327399D02*
X2062551D01*
X2059123Y2317499D02*
X2062477D01*
X2059193Y2307599D02*
X2062407D01*
X2059261Y2312099D02*
X2062339D01*
X2059322Y2321999D02*
X2062278D01*
X2015363Y1966499D02*
X2062261D01*
X2013827Y1968299D02*
X2062260D01*
X2059380Y2331899D02*
X2062220D01*
X2059434Y2341799D02*
X2062166D01*
X2055905Y2303999D02*
X2062164D01*
X2013199Y1967399D02*
X2062100D01*
X2059530Y2338199D02*
X2062070D01*
X2059574Y2328299D02*
X2062026D01*
X2059615Y2318399D02*
X2061985D01*
X2055403Y1889099D02*
X2061956D01*
X2059653Y2308499D02*
X2061947D01*
X2059689Y2311199D02*
X2061911D01*
X2056694Y2295899D02*
X2061902D01*
X2059721Y2321099D02*
X2061879D01*
X2059750Y2330999D02*
X2061850D01*
X2006997Y1893599D02*
X2061824D01*
X2059777Y2340899D02*
X2061823D01*
X2059821Y2339099D02*
X2061779D01*
X2059840Y2329199D02*
X2061760D01*
X2059856Y2319299D02*
X2061744D01*
X2059869Y2309399D02*
X2061731D01*
X2059881Y2310299D02*
X2061719D01*
X2059889Y2320199D02*
X2061711D01*
X2059895Y2330099D02*
X2061705D01*
X2059899Y2339999D02*
X2061701D01*
X2058365Y2303099D02*
X2061700D01*
X2059195Y2302199D02*
X2061700D01*
X2059654Y2301299D02*
X2061700D01*
X2059870Y2300399D02*
X2061700D01*
X2059880Y2299499D02*
X2061700D01*
X2059688Y2298599D02*
X2061700D01*
X2059259Y2297699D02*
X2061700D01*
X2058482Y2296799D02*
X2061700D01*
X2038519Y1889999D02*
X2061634D01*
X2055931Y1884599D02*
X2061569D01*
X1991630Y1892699D02*
X2061199D01*
X2023275Y1890899D02*
X2061127D01*
X2022638Y1891799D02*
X2061002D01*
X2059794Y2209499D02*
X2060981D01*
X2056525Y1888199D02*
X2060975D01*
X2056706Y1885499D02*
X2060794D01*
X2056930Y1887299D02*
X2060570D01*
X2056983Y1886399D02*
X2060517D01*
X1955739Y2244599D02*
X2058083D01*
X2017471Y2238299D02*
X2057473D01*
X2016770Y2239199D02*
X2057085D01*
X1975369Y2200499D02*
X2056834D01*
X2009247Y2243699D02*
X2056784D01*
X1974039Y2203199D02*
X2056398D01*
X2015934Y2240099D02*
X2056374D01*
X1975352Y2201399D02*
X2056327D01*
X2011989Y2242799D02*
X2056233D01*
X1974992Y2202299D02*
X2056202D01*
X2014922Y2240999D02*
X2056057D01*
X2013662Y2241899D02*
X2056014D01*
X2016056Y1965599D02*
X2055885D01*
X1984120Y1876499D02*
X2055725D01*
X2022030Y1880099D02*
X2055723D01*
X2006898Y1961099D02*
X2055716D01*
X2022752Y2303999D02*
X2055695D01*
X2018061Y2237399D02*
X2055624D01*
X2014396Y2219399D02*
X2055512D01*
X2044673Y2233799D02*
X2055434D01*
X2021031Y1877399D02*
X2055161D01*
X2022083Y1879199D02*
X2055160D01*
X1911549Y2354399D02*
X2055081D01*
X1993686Y2213999D02*
X2055050D01*
X2021806Y1878299D02*
X2055000D01*
X2043976Y2236499D02*
X2054999D01*
X2015506Y2220299D02*
X2054990D01*
X2044798Y2234699D02*
X2054927D01*
X2016292Y1964699D02*
X2054908D01*
X2049192Y2295899D02*
X2054906D01*
X2025030Y2313899D02*
X2054894D01*
X2014410Y1961999D02*
X2054849D01*
X2044601Y2235599D02*
X2054802D01*
X2014821Y1970099D02*
X2054625D01*
X2005315Y1973699D02*
X2054623D01*
X2016204Y1963799D02*
X2054548D01*
X2015748Y1962899D02*
X2054531D01*
X2023592Y2323799D02*
X2054531D01*
X1993466Y2213099D02*
X2054475D01*
X2006720Y2333699D02*
X2054257D01*
X1911096Y2349899D02*
X2054140D01*
X2014752Y1970999D02*
X2054061D01*
X2013117Y1972799D02*
X2054060D01*
X2032471Y2343599D02*
X2054031D01*
X2019162Y2225699D02*
X2053982D01*
X1993644Y2214899D02*
X2053925D01*
X1979248Y2209499D02*
X2053923D01*
X2012982Y2218499D02*
X2053923D01*
X2014325Y1971899D02*
X2053900D01*
X1992913Y2212199D02*
X2053875D01*
X1910589Y2353499D02*
X2053750D01*
X1977910Y2208599D02*
X2053697D01*
X2043966Y2221199D02*
X2053687D01*
X1912369Y2336399D02*
X2053667D01*
X1979704Y2210399D02*
X2053639D01*
X1991610Y2211299D02*
X2053625D01*
X2021719Y2326499D02*
X2053511D01*
X1909569Y2350799D02*
X2053445D01*
X2039850Y1889099D02*
X2053397D01*
X2024035Y2316599D02*
X2053369D01*
X1993327Y2215799D02*
X2053361D01*
X2010992Y2217599D02*
X2053360D01*
X1902800Y2352599D02*
X2053296D01*
X2043776Y2224799D02*
X2053273D01*
X2012298Y2306699D02*
X2053238D01*
X2022769Y2303099D02*
X2053235D01*
X1902800Y2351699D02*
X2053208D01*
X1992618Y2216699D02*
X2053200D01*
X1974284Y2204099D02*
X2053169D01*
X2044473Y2222099D02*
X2053134D01*
X2049104Y2296799D02*
X2053118D01*
X2024623Y2312999D02*
X2053115D01*
X2023355Y2322899D02*
X2053004D01*
X2018675Y2150999D02*
X2052997D01*
X2044401Y2223899D02*
X2052956D01*
X2044598Y2222999D02*
X2052914D01*
X2007647Y2332799D02*
X2052900D01*
X2030230Y1884599D02*
X2052869D01*
X2032600Y2342699D02*
X2052804D01*
X2018888Y2180699D02*
X2052797D01*
X1912381Y2337299D02*
X2052631D01*
X2029600Y2168999D02*
X2052603D01*
X1975092Y2207699D02*
X2052575D01*
X1976240Y2327399D02*
X2052551D01*
X2006163Y2317499D02*
X2052477D01*
X1912380Y2146499D02*
X2052469D01*
X2012101Y2307599D02*
X2052407D01*
X2022451Y2302199D02*
X2052405D01*
X1975151Y2204999D02*
X2052394D01*
X2048650Y2297699D02*
X2052341D01*
X2023497Y2312099D02*
X2052339D01*
X2022660Y2321999D02*
X2052278D01*
X2040304Y1888199D02*
X2052275D01*
X2018710Y2176199D02*
X2052269D01*
X2008071Y2331899D02*
X2052220D01*
X1975452Y2206799D02*
X2052170D01*
X2032470Y2341799D02*
X2052166D01*
X2024875Y2153699D02*
X2052125D01*
X2024877Y2157299D02*
X2052123D01*
X1975469Y2205899D02*
X2052117D01*
X2039460Y1885499D02*
X2052094D01*
X1970750Y2338199D02*
X2052070D01*
X2019563Y2173499D02*
X2052065D01*
X2006716Y2328299D02*
X2052026D01*
X1912116Y2318399D02*
X2051985D01*
X2011476Y2308499D02*
X2051947D01*
X2021584Y2301299D02*
X2051946D01*
X2047319Y2298599D02*
X2051912D01*
X1977751Y2311199D02*
X2051911D01*
X1969292Y2321099D02*
X2051879D01*
X2018661Y2150099D02*
X2051875D01*
X2040392Y1887299D02*
X2051870D01*
X2008200Y2330999D02*
X2051850D01*
X2032045Y2340899D02*
X2051823D01*
X2040155Y1886399D02*
X2051817D01*
X1971897Y2339099D02*
X2051779D01*
X2007645Y2329199D02*
X2051760D01*
X1968360Y2319299D02*
X2051744D01*
X2003592Y2309399D02*
X2051731D01*
X1980523Y2300399D02*
X2051730D01*
X1979397Y2299499D02*
X2051720D01*
X2002615Y2310299D02*
X2051719D01*
X1969055Y2320199D02*
X2051711D01*
X2008070Y2330099D02*
X2051705D01*
X2031116Y2339999D02*
X2051701D01*
X1912370Y2147399D02*
X2051694D01*
X2019752Y2179799D02*
X2051675D01*
X2025439Y2154599D02*
X2051561D01*
X2025440Y2156399D02*
X2051560D01*
X2019690Y2177099D02*
X2051494D01*
X2029440Y2169899D02*
X2051477D01*
X2018377Y2149199D02*
X2051470D01*
X2017724Y2148299D02*
X2051417D01*
X2025600Y2155499D02*
X2051400D01*
X2045690Y2109599D02*
X2051295D01*
X2020256Y2172599D02*
X2051293D01*
X2020069Y2178899D02*
X2051270D01*
X2020051Y2177999D02*
X2051217D01*
X2028877Y2170799D02*
X2051070D01*
X2020492Y2171699D02*
X2051017D01*
X2006073Y1959299D02*
X2050581D01*
X2039148Y2101499D02*
X2050506D01*
X2032680Y2119499D02*
X2050494D01*
X2032332Y2091599D02*
X2050139D01*
X2032669Y2129399D02*
X2050131D01*
X2032669Y2039399D02*
X2050131D01*
X2046098Y2081699D02*
X2049864D01*
X2032656Y2049299D02*
X2049857D01*
X2016139Y1954799D02*
X2049640D01*
X2037703Y2071799D02*
X2049636D01*
X2032640Y2059199D02*
X2049631D01*
X1911200Y2269799D02*
X2049553D01*
X2032180Y2061899D02*
X2049440D01*
X2039283Y2069099D02*
X2049435D01*
X2041384Y2051999D02*
X2049267D01*
X2032600Y2078999D02*
X2049262D01*
X1995539Y1958399D02*
X2049250D01*
X1912030Y2275199D02*
X2049233D01*
X2032061Y2042099D02*
X2049111D01*
X2032576Y2088899D02*
X2049107D01*
X2031995Y2122199D02*
X2048969D01*
X2008468Y2032199D02*
X2048969D01*
X2037535Y2098799D02*
X2048965D01*
X2016300Y1955699D02*
X2048945D01*
X2045752Y2112299D02*
X2048838D01*
X2044710Y2108699D02*
X2048835D01*
X2015577Y1957499D02*
X2048796D01*
X2039604Y2102399D02*
X2048718D01*
X2032488Y2118599D02*
X2048715D01*
X2016140Y1956599D02*
X2048708D01*
X2031771Y2092499D02*
X2048607D01*
X2032453Y2128499D02*
X2048604D01*
X2032453Y2038499D02*
X2048604D01*
X1909843Y2270699D02*
X2048526D01*
X2045901Y2082599D02*
X2048503D01*
X2032415Y2048399D02*
X2048500D01*
X2031596Y2072699D02*
X2048406D01*
X2032374Y2058299D02*
X2048404D01*
X1911469Y2274299D02*
X2048388D01*
X2031500Y2062799D02*
X2048316D01*
X2039006Y2068199D02*
X2048313D01*
X2042251Y2052899D02*
X2048231D01*
X2032283Y2078099D02*
X2048229D01*
X2031285Y2042999D02*
X2048151D01*
X2032233Y2087999D02*
X2048149D01*
X2035288Y1999799D02*
X2048108D01*
X2031165Y2123099D02*
X2048077D01*
X2006583Y2033099D02*
X2048077D01*
X2038307Y2097899D02*
X2048075D01*
X1902800Y2271599D02*
X2048061D01*
X2044888Y2113199D02*
X2048007D01*
X2032121Y2107799D02*
X2048005D01*
X1910433Y2273399D02*
X2048001D01*
X2039692Y2103299D02*
X2047941D01*
X2032059Y2117699D02*
X2047939D01*
X1902800Y2272499D02*
X2047902D01*
X2030738Y2093399D02*
X2047879D01*
X2031993Y2127599D02*
X2047878D01*
X2031993Y2037599D02*
X2047878D01*
X2045276Y2083499D02*
X2047822D01*
X2031923Y2047499D02*
X2047820D01*
X2030369Y2073599D02*
X2047767D01*
X2031849Y2057399D02*
X2047766D01*
X2030143Y2063699D02*
X2047717D01*
X2038231Y2067299D02*
X2047716D01*
X2042569Y2053799D02*
X2047670D01*
X2031684Y2077199D02*
X2047668D01*
X2029506Y2043899D02*
X2047626D01*
X2031594Y2087099D02*
X2047625D01*
X2028705Y2123999D02*
X2047585D01*
X1911197Y2033999D02*
X2047585D01*
X2038583Y2096999D02*
X2047584D01*
X1911294Y2114099D02*
X2047547D01*
X2031393Y2106899D02*
X2047546D01*
X2039456Y2104199D02*
X2047512D01*
X2031282Y2116799D02*
X2047511D01*
X2036997Y2094299D02*
X2047480D01*
X2031162Y2126699D02*
X2047479D01*
X2031162Y2036699D02*
X2047479D01*
X1911549Y2084399D02*
X2047451D01*
X2031031Y2046599D02*
X2047450D01*
X1911623Y2074499D02*
X2047424D01*
X2041215Y2056499D02*
X2047423D01*
X2005508Y1993499D02*
X2047411D01*
X2007599Y2064599D02*
X2047400D01*
X2030733Y2066399D02*
X2047400D01*
X2042552Y2054699D02*
X2047379D01*
X2030560Y2076299D02*
X2047379D01*
X1911821Y2044799D02*
X2047360D01*
X2030364Y2086199D02*
X2047360D01*
X2022539Y2124899D02*
X2047344D01*
X1911878Y2034899D02*
X2047344D01*
X2038530Y2096099D02*
X2047344D01*
X2024575Y2114999D02*
X2047331D01*
X2029861Y2105999D02*
X2047330D01*
X2038763Y2105099D02*
X2047320D01*
X2029494Y2115899D02*
X2047319D01*
X2038123Y2095199D02*
X2047311D01*
X2022700Y2125799D02*
X2047311D01*
X2012294Y2035799D02*
X2047311D01*
X1912074Y2085299D02*
X2047305D01*
X1912220Y2045699D02*
X2047305D01*
X1912115Y2075399D02*
X2047301D01*
X2042192Y2055599D02*
X2047301D01*
X2007798Y2065499D02*
X2047300D01*
X2036386Y1988999D02*
X2046797D01*
X2014250Y1984499D02*
X2046269D01*
X2036152Y1998899D02*
X2045974D01*
X2008219Y2298599D02*
X2045881D01*
X2006307Y1994399D02*
X2045877D01*
X2036166Y1988099D02*
X2045675D01*
X2012919Y1985399D02*
X2045494D01*
X2036469Y1997999D02*
X2045322D01*
X2035110Y1995299D02*
X2045277D01*
X2035613Y1987199D02*
X2045270D01*
X2034310Y1986299D02*
X2045217D01*
X2036451Y1997099D02*
X2045039D01*
X2036090Y1996199D02*
X2045025D01*
X2037578Y2294099D02*
X2044940D01*
X2009550Y2297699D02*
X2044550D01*
X2036926Y2294999D02*
X2044245D01*
X2010004Y2296799D02*
X2044096D01*
X2034792Y2295899D02*
X2044008D01*
X2015575Y1953899D02*
X2043008D01*
X1975388Y2185199D02*
X2042584D01*
X1910069Y2190599D02*
X2042580D01*
X1991184Y1947599D02*
X2042311D01*
X2032520Y2108699D02*
X2042290D01*
X2031035Y2113199D02*
X2042112D01*
X2030565Y2083499D02*
X2041724D01*
X1912321Y2186099D02*
X2041655D01*
X1911296Y2189699D02*
X2041653D01*
X2032700Y2079899D02*
X2041534D01*
X2008899Y2029499D02*
X2041324D01*
X2032689Y2109599D02*
X2041310D01*
X2031925Y2112299D02*
X2041248D01*
X1912399Y2186999D02*
X2041230D01*
X1911934Y2188799D02*
X2041229D01*
X1921710Y2025899D02*
X2041134D01*
X1912277Y2187899D02*
X2041100D01*
X2031687Y2082599D02*
X2041099D01*
X2032600Y2080799D02*
X2041027D01*
X2007552Y1934999D02*
X2040953D01*
X2032656Y2110499D02*
X2040949D01*
X2032416Y2111399D02*
X2040931D01*
X2032284Y2081699D02*
X2040902D01*
X2005456Y1952999D02*
X2040874D01*
X1992051Y1948499D02*
X2040777D01*
X2008273Y2028599D02*
X2040699D01*
X2012652Y1940399D02*
X2040633D01*
X1923048Y2026799D02*
X2040627D01*
X1923504Y2027699D02*
X2040502D01*
X1972051Y2254499D02*
X2040484D01*
X2026655Y2259899D02*
X2040480D01*
X2018556Y2236499D02*
X2040424D01*
X2019769Y2232899D02*
X2040234D01*
X2018793Y2224799D02*
X2040224D01*
X1991015Y1952099D02*
X2040222D01*
X1992369Y1949399D02*
X2040177D01*
X2016415Y2221199D02*
X2040034D01*
X1991992Y1951199D02*
X2039939D01*
X2007192Y1935899D02*
X2039926D01*
X1992352Y1950299D02*
X2039925D01*
X2018967Y2235599D02*
X2039799D01*
X2012669Y1939499D02*
X2039788D01*
X2019569Y2233799D02*
X2039727D01*
X2019303Y2234699D02*
X2039602D01*
X2018345Y2223899D02*
X2039599D01*
X1972069Y2255399D02*
X2039555D01*
X2025960Y2258999D02*
X2039553D01*
X2017173Y2222099D02*
X2039527D01*
X2006215Y1936799D02*
X2039461D01*
X2017810Y2222999D02*
X2039402D01*
X2012351Y1938599D02*
X2039401D01*
X2011484Y1937699D02*
X2039302D01*
X1971752Y2256299D02*
X2039130D01*
X1969791Y2258099D02*
X2039129D01*
X1970888Y2257199D02*
X2039000D01*
X2030889Y2056499D02*
X2038785D01*
X2032122Y2051999D02*
X2038616D01*
X1912188Y2055599D02*
X2037808D01*
X2023628Y1903499D02*
X2037790D01*
X2031396Y2052899D02*
X2037749D01*
X1911759Y2054699D02*
X2037448D01*
X2029869Y2053799D02*
X2037431D01*
X1910735Y2140199D02*
X2037224D01*
X2023479Y1889999D02*
X2037081D01*
X1912389Y2136599D02*
X2037034D01*
X2023766Y1871999D02*
X2036900D01*
X2016052Y1871099D02*
X2036900D01*
X2016369Y1870199D02*
X2036900D01*
X2016351Y1869299D02*
X2036900D01*
X2023403Y1868399D02*
X2036900D01*
X2024525Y1867499D02*
X2036900D01*
X2024930Y1866599D02*
X2036900D01*
X2030135Y1865699D02*
X2036900D01*
X2030907Y1864799D02*
X2036900D01*
X2031183Y1863899D02*
X2036900D01*
X2031130Y1862999D02*
X2036900D01*
X2030723Y1862099D02*
X2036900D01*
X2029597Y1861199D02*
X2036900D01*
X2015600Y1860299D02*
X2036900D01*
X2015600Y1859399D02*
X2036900D01*
X2015600Y1858499D02*
X2036900D01*
X2015600Y1857599D02*
X2036900D01*
X2015600Y1856699D02*
X2036900D01*
X2015600Y1855799D02*
X2036900D01*
X2015600Y1854899D02*
X2036900D01*
X2015600Y1853999D02*
X2036900D01*
X2015600Y1853099D02*
X2036900D01*
X2015600Y1852199D02*
X2036900D01*
X2015600Y1851299D02*
X2036900D01*
X2015600Y1850399D02*
X2036900D01*
X2015600Y1849499D02*
X2036900D01*
X2015600Y1848599D02*
X2036900D01*
X2015600Y1847699D02*
X2036900D01*
X2015600Y1846799D02*
X2036900D01*
X2015600Y1845899D02*
X2036900D01*
X2015600Y1844999D02*
X2036900D01*
X2015600Y1844099D02*
X2036900D01*
X2015600Y1843199D02*
X2036900D01*
X2015600Y1842299D02*
X2036900D01*
X2015600Y1841399D02*
X2036900D01*
X2015600Y1840499D02*
X2036900D01*
X2015600Y1839599D02*
X2036900D01*
X2015600Y1838699D02*
X2036900D01*
X2015600Y1837799D02*
X2036900D01*
X2015600Y1836899D02*
X2036900D01*
X2015600Y1835999D02*
X2036900D01*
X2015600Y1835099D02*
X2036900D01*
X2015600Y1834199D02*
X2036900D01*
X2021069Y1907999D02*
X2036837D01*
X1911625Y2139299D02*
X2036599D01*
X1912356Y2137499D02*
X2036527D01*
X2022489Y1904399D02*
X2036452D01*
X1912116Y2138399D02*
X2036402D01*
X2032640Y2100599D02*
X2036390D01*
X2021051Y1907099D02*
X2036144D01*
X2029825Y1885499D02*
X2036140D01*
X2019710Y1905299D02*
X2035996D01*
X2020690Y1906199D02*
X2035908D01*
X2023361Y1889099D02*
X2035750D01*
X2032234Y2071799D02*
X2035697D01*
X2028703Y1886399D02*
X2035445D01*
X1911983Y2105099D02*
X2035437D01*
X2022864Y1888199D02*
X2035296D01*
X2021178Y1887299D02*
X2035208D01*
X2031769Y2067299D02*
X2035169D01*
X2032375Y2101499D02*
X2035052D01*
X1911469Y2094299D02*
X2035003D01*
X1911384Y2104199D02*
X2034744D01*
X2010092Y2295899D02*
X2034608D01*
X2031851Y2102399D02*
X2034596D01*
X2032577Y2070899D02*
X2034575D01*
X2030893Y2103299D02*
X2034508D01*
X2032549Y2098799D02*
X2034465D01*
X2032330Y2068199D02*
X2034394D01*
X2032699Y2069999D02*
X2034170D01*
X2032621Y2069099D02*
X2034117D01*
X2006098Y2289599D02*
X2033911D01*
X1912030Y2095199D02*
X2033877D01*
X2032178Y2097899D02*
X2033693D01*
X1994469Y2408399D02*
X2033644D01*
X2030136Y2096099D02*
X2033470D01*
X2031497Y2096999D02*
X2033417D01*
X1909561Y2402999D02*
X2033004D01*
X2006594Y1995299D02*
X2032690D01*
X2029207Y1999799D02*
X2032512D01*
X1994151Y2407499D02*
X2032501D01*
X2009855Y2294999D02*
X2032474D01*
X2005974Y2290499D02*
X2032377D01*
X1911093Y2403899D02*
X2032229D01*
X1964650Y1986299D02*
X2032090D01*
X1993284Y2406599D02*
X2031995D01*
X1911821Y2404799D02*
X2031878D01*
X2009160Y2294099D02*
X2031822D01*
X1912220Y2405699D02*
X2031806D01*
X2005468Y2291399D02*
X2031777D01*
X2006552Y1996199D02*
X2031710D01*
X2028160Y1998899D02*
X2031648D01*
X1998068Y2293199D02*
X2031539D01*
X2003583Y2292299D02*
X2031525D01*
X2006159Y1997099D02*
X2031349D01*
X2005082Y1997999D02*
X2031331D01*
X1999351Y1991699D02*
X2031082D01*
X1965091Y1987199D02*
X2030787D01*
X1998990Y1990799D02*
X2030373D01*
X1965169Y1988099D02*
X2030234D01*
X1998010Y1989899D02*
X2030056D01*
X1965048Y1988999D02*
X2030014D01*
X1911933Y2384999D02*
X2029181D01*
X2025397Y2278799D02*
X2029125D01*
X2026707Y2282399D02*
X2029123D01*
X2014860Y1929599D02*
X2029025D01*
X2007251Y1933199D02*
X2029023D01*
X1990501Y2375099D02*
X2028908D01*
X2026523Y2279699D02*
X2028561D01*
X2026983Y2281499D02*
X2028560D01*
X2021975Y2123999D02*
X2028495D01*
X1980073Y1930499D02*
X2028461D01*
X2006384Y1932299D02*
X2028460D01*
X2026930Y2280599D02*
X2028400D01*
X1989249Y1931399D02*
X2028300D01*
X1982321Y2380499D02*
X2028240D01*
X1911934Y2368799D02*
X2028211D01*
X1911294Y2384099D02*
X2027850D01*
X2025139Y2115899D02*
X2027706D01*
X2011505Y2133899D02*
X2027694D01*
X2011505Y2043899D02*
X2027694D01*
X1972405Y2339999D02*
X2027684D01*
X1912115Y2345399D02*
X2027680D01*
X2015600Y1861199D02*
X2027603D01*
X1982032Y2381399D02*
X2027545D01*
X1980438Y2383199D02*
X2027396D01*
X2012936Y2105999D02*
X2027339D01*
X2012306Y2053799D02*
X2027331D01*
X1981471Y2382299D02*
X2027308D01*
X2024983Y1865699D02*
X2027065D01*
X2013164Y2096099D02*
X2027064D01*
X2012669Y2063699D02*
X2027057D01*
X2025019Y2263499D02*
X2026925D01*
X2022040Y2267099D02*
X2026923D01*
X2013360Y2086199D02*
X2026836D01*
X2012943Y2073599D02*
X2026831D01*
X1990698Y2374199D02*
X2026774D01*
X1972594Y2340899D02*
X2026755D01*
X1911623Y2344499D02*
X2026753D01*
X2018767Y1886399D02*
X2026697D01*
X1911296Y2369699D02*
X2026677D01*
X2013533Y2076299D02*
X2026640D01*
X2013169Y2083499D02*
X2026635D01*
X2015600Y1862099D02*
X2026477D01*
X2013689Y2066399D02*
X2026467D01*
X2013365Y2093399D02*
X2026462D01*
X2021475Y2264399D02*
X2026361D01*
X2022200Y2266199D02*
X2026360D01*
X1972523Y2341799D02*
X2026330D01*
X1971399Y2343599D02*
X2026329D01*
X2013831Y2056499D02*
X2026311D01*
X2013538Y2103299D02*
X2026307D01*
X2024706Y1864799D02*
X2026293D01*
X1972172Y2342699D02*
X2026200D01*
X2022039Y2265299D02*
X2026200D01*
X2020503Y1881899D02*
X2026169D01*
X2013962Y2046599D02*
X2026169D01*
X2013693Y2113199D02*
X2026165D01*
X1990573Y2373299D02*
X2026122D01*
X1910069Y2370599D02*
X2026077D01*
X2015600Y1862999D02*
X2026070D01*
X2022540Y2126699D02*
X2026038D01*
X2014082Y2036699D02*
X2026038D01*
X2013835Y2123099D02*
X2026035D01*
X2023931Y1863899D02*
X2026017D01*
X2003357Y1998899D02*
X2025940D01*
X2013965Y2132999D02*
X2025915D01*
X2013965Y2042999D02*
X2025915D01*
X1990066Y2372399D02*
X2025839D01*
X1902800Y2371499D02*
X2025825D01*
X2014297Y2106899D02*
X2025807D01*
X2014085Y2052899D02*
X2025804D01*
X2014394Y2096999D02*
X2025703D01*
X2014196Y2062799D02*
X2025700D01*
X2014484Y2087099D02*
X2025606D01*
X2014300Y2072699D02*
X2025604D01*
X1910433Y2003399D02*
X2025586D01*
X2018176Y1885499D02*
X2025575D01*
X2014569Y2077199D02*
X2025516D01*
X2014396Y2082599D02*
X2025513D01*
X2014649Y2067299D02*
X2025431D01*
X2014487Y2092499D02*
X2025429D01*
X2016750Y1882799D02*
X2025394D01*
X2014723Y2057399D02*
X2025351D01*
X2014571Y2102399D02*
X2025349D01*
X2014793Y2047499D02*
X2025277D01*
X2014651Y2112299D02*
X2025275D01*
X2021977Y2127599D02*
X2025207D01*
X2014859Y2037599D02*
X2025207D01*
X2014725Y2122199D02*
X2025205D01*
X2016256Y1884599D02*
X2025170D01*
X2014795Y2132099D02*
X2025139D01*
X2014795Y2042099D02*
X2025139D01*
X1912389Y2167199D02*
X2025125D01*
X2020404Y2170799D02*
X2025123D01*
X2016380Y1883699D02*
X2025117D01*
X2014978Y2107799D02*
X2025079D01*
X2014861Y2051999D02*
X2025078D01*
X2015033Y2097899D02*
X2025022D01*
X2014922Y2061899D02*
X2025020D01*
X2015083Y2087999D02*
X2024967D01*
X2014980Y2071799D02*
X2024966D01*
X2015130Y2078099D02*
X2024917D01*
X2015034Y2081699D02*
X2024916D01*
X2003592Y1999799D02*
X2024893D01*
X2015174Y2068199D02*
X2024870D01*
X2015084Y2091599D02*
X2024868D01*
X2015215Y2058299D02*
X2024826D01*
X2015132Y2101499D02*
X2024825D01*
X2015253Y2048399D02*
X2024785D01*
X1909194Y2412899D02*
X2024784D01*
X2015175Y2111399D02*
X2024784D01*
X1985463Y2418299D02*
X2024780D01*
X2001719Y2002499D02*
X2024769D01*
X2015288Y2128499D02*
X2024747D01*
X2015288Y2038499D02*
X2024747D01*
X2015216Y2121299D02*
X2024746D01*
X2015254Y2131199D02*
X2024711D01*
X2015254Y2041199D02*
X2024711D01*
X2015349Y2108699D02*
X2024680D01*
X2015289Y2051099D02*
X2024679D01*
X2015376Y2098799D02*
X2024651D01*
X2015321Y2060999D02*
X2024650D01*
X2015400Y2088899D02*
X2024624D01*
X2015350Y2070899D02*
X2024623D01*
X2015421Y2078999D02*
X2024600D01*
X2015377Y2080799D02*
X2024600D01*
X2015440Y2069099D02*
X2024579D01*
X2015400Y2090699D02*
X2024579D01*
X1999810Y2168099D02*
X2024561D01*
X2015456Y2059199D02*
X2024560D01*
X2019948Y2169899D02*
X2024560D01*
X2015421Y2100599D02*
X2024560D01*
X2015469Y2049299D02*
X2024544D01*
X2015440Y2110499D02*
X2024544D01*
X2015480Y2129399D02*
X2024531D01*
X2015480Y2039399D02*
X2024531D01*
X2015456Y2120399D02*
X2024530D01*
X2015470Y2130299D02*
X2024519D01*
X2015470Y2040299D02*
X2024519D01*
X2015495Y2109599D02*
X2024511D01*
X2015481Y2050199D02*
X2024511D01*
X2003504Y2000699D02*
X2024509D01*
X2015499Y2099699D02*
X2024505D01*
X2015489Y2060099D02*
X2024505D01*
X2015500Y2089799D02*
X2024501D01*
X2015495Y2069999D02*
X2024501D01*
X2015499Y2079899D02*
X2024500D01*
X2015489Y2119499D02*
X2024497D01*
X2003050Y2001599D02*
X2024473D01*
X2018610Y2168999D02*
X2024400D01*
X1984510Y2413799D02*
X2023855D01*
X1986156Y2417399D02*
X2023853D01*
X2015506Y2263499D02*
X2023581D01*
X1985848Y2414699D02*
X2023430D01*
X1986392Y2416499D02*
X2023429D01*
X2014197Y2278799D02*
X2023403D01*
X1986304Y2415599D02*
X2023300D01*
X2021406Y2283299D02*
X2022865D01*
X1971160Y2258999D02*
X2022640D01*
X2015323Y2279699D02*
X2022277D01*
X2014731Y2262599D02*
X2022250D01*
X2020631Y2282399D02*
X2022093D01*
X2010115Y2259899D02*
X2021945D01*
X2015730Y2280599D02*
X2021870D01*
X2015783Y2281499D02*
X2021817D01*
X2011143Y2261699D02*
X2021796D01*
X2010826Y2260799D02*
X2021708D01*
X1993156Y1922399D02*
X2021517D01*
X1978069Y2312099D02*
X2021503D01*
X2015990Y1868399D02*
X2021397D01*
X2016299Y2153699D02*
X2021125D01*
X1985761Y2157299D02*
X2021123D01*
X2006856Y2316599D02*
X2020965D01*
X2015600Y1863899D02*
X2020869D01*
X1911933Y2114999D02*
X2020825D01*
X2015320Y2118599D02*
X2020823D01*
X2018966Y1887299D02*
X2020585D01*
X2006303Y2154599D02*
X2020561D01*
X1912369Y2156399D02*
X2020560D01*
X2014931Y1904399D02*
X2020531D01*
X1988835Y2155499D02*
X2020400D01*
X2005210Y2312999D02*
X2020377D01*
X1976400Y2326499D02*
X2020281D01*
X2015010Y1867499D02*
X2020275D01*
X2012661Y2115899D02*
X2020261D01*
X2014921Y2117699D02*
X2020260D01*
X2007092Y2315699D02*
X2020193D01*
X2014193Y2116799D02*
X2020100D01*
X2015600Y1864799D02*
X2020094D01*
X1985047Y1875599D02*
X2020024D01*
X2006548Y2313899D02*
X2019970D01*
X2007004Y2314799D02*
X2019917D01*
X2000472Y1866599D02*
X2019870D01*
X2015188Y1871999D02*
X2019834D01*
X2004329Y1917899D02*
X2019827D01*
X2015600Y1865699D02*
X2019817D01*
X2002693Y1921499D02*
X2019632D01*
X2016872Y1899899D02*
X2019578D01*
X1985471Y1874699D02*
X2019399D01*
X2014132Y1903499D02*
X2019393D01*
X1969204Y2321999D02*
X2019340D01*
X1990225Y1872899D02*
X2019327D01*
X1989103Y1873799D02*
X2019202D01*
X2004566Y1918799D02*
X2019201D01*
X2016660Y1900799D02*
X2019199D01*
X2004024Y1920599D02*
X2019126D01*
X1991683Y1891799D02*
X2019125D01*
X2004478Y1919699D02*
X2019002D01*
X2008123Y1894499D02*
X2018990D01*
X2012173Y2305799D02*
X2018985D01*
X2015385Y1902599D02*
X2018982D01*
X1976239Y2325599D02*
X2018950D01*
X2016206Y1901699D02*
X2018926D01*
X1980930Y2301299D02*
X2018816D01*
X1968750Y2322899D02*
X2018645D01*
X2002804Y2438999D02*
X2018517D01*
X2016895Y1881899D02*
X2018497D01*
X1975675Y2324699D02*
X2018496D01*
X1991406Y1890899D02*
X2018489D01*
X2015600Y1927799D02*
X2018424D01*
X1967419Y2323799D02*
X2018408D01*
X1990631Y1889999D02*
X2018280D01*
X2006251Y1924199D02*
X2018234D01*
X2005619Y2123999D02*
X2018225D01*
X2014859Y2127599D02*
X2018223D01*
X2010550Y2286899D02*
X2018097D01*
X2016891Y1898999D02*
X2018037D01*
X2011666Y2304899D02*
X2018008D01*
X1966492Y1877399D02*
X2017969D01*
X1980983Y2302199D02*
X2017949D01*
X2015446Y1926899D02*
X2017799D01*
X2006569Y1925099D02*
X2017727D01*
X2015783Y2264399D02*
X2017725D01*
X1943420Y2267999D02*
X2017723D01*
X1911878Y2124899D02*
X2017661D01*
X2014082Y2126699D02*
X2017660D01*
X2013617Y1895399D02*
X2017652D01*
X1979935Y2303999D02*
X2017648D01*
X1980707Y2303099D02*
X2017631D01*
X2014892Y1925999D02*
X2017602D01*
X2015507Y2282399D02*
X2017569D01*
X2012294Y2125799D02*
X2017500D01*
X2015706Y1905299D02*
X2017290D01*
X2015463Y1896299D02*
X2017196D01*
X2015089Y1878299D02*
X2017194D01*
X2000790Y2168999D02*
X2017190D01*
X2015730Y2265299D02*
X2017161D01*
X2014203Y2267099D02*
X2017160D01*
X2014246Y1909799D02*
X2017112D01*
X2015325Y2266199D02*
X2017000D01*
X2011004Y2285999D02*
X2016975D01*
X2016266Y1897199D02*
X2016943D01*
X2016049Y1879199D02*
X2016865D01*
X1911623Y2434499D02*
X2016827D01*
X2014735Y2283299D02*
X2016794D01*
X2002892Y2438099D02*
X2016632D01*
X2011092Y2285099D02*
X2016570D01*
X2010855Y2284199D02*
X2016517D01*
X1912340Y2176199D02*
X2016290D01*
X2014403Y1908899D02*
X2016248D01*
X1910589Y2173499D02*
X2016237D01*
X1912115Y2435399D02*
X2016201D01*
X2002655Y2437199D02*
X2016126D01*
X2001960Y2436299D02*
X2016002D01*
X2001151Y2169899D02*
X2015852D01*
X1999988Y2172599D02*
X2015544D01*
X2001169Y2170799D02*
X2015396D01*
X1966031Y2177099D02*
X2015310D01*
X2000852Y2171699D02*
X2015308D01*
X1966806Y2177999D02*
X2014949D01*
X2007425Y2153699D02*
X2014701D01*
X2014359Y2178899D02*
X2014444D01*
X1964073Y1889099D02*
X2014426D01*
X2009569Y1886399D02*
X2013924D01*
X2008388Y1888199D02*
X2013890D01*
X2009252Y1887299D02*
X2013747D01*
X1912154Y2148299D02*
X2013276D01*
X2007830Y2152799D02*
X2013175D01*
X1997215Y1909799D02*
X2013081D01*
X2006774Y1961999D02*
X2012990D01*
X1946192Y1967399D02*
X2012755D01*
X1911695Y2149199D02*
X2012623D01*
X2001190Y1867499D02*
X2012590D01*
X2007883Y2151899D02*
X2012575D01*
X1990630Y1871999D02*
X2012412D01*
X1998192Y1908899D02*
X2012397D01*
X2006831Y2150099D02*
X2012339D01*
X2007606Y2150999D02*
X2012325D01*
X1970866Y2278799D02*
X2012203D01*
X1992717Y2267099D02*
X2012197D01*
X1990510Y2178899D02*
X2012090D01*
X2008125Y1903499D02*
X2012039D01*
X1945955Y1966499D02*
X2012037D01*
X1991699Y1914299D02*
X2012024D01*
X2008530Y1895399D02*
X2011983D01*
X2007003Y1904399D02*
X2011869D01*
X1983673Y1910699D02*
X2011834D01*
X2006207Y1953899D02*
X2011825D01*
X2004820Y1957499D02*
X2011823D01*
X2010160Y2283299D02*
X2011665D01*
X2006268Y1962899D02*
X2011652D01*
X2001551Y1868399D02*
X2011610D01*
X2000388Y1871099D02*
X2011548D01*
X1963387Y1985399D02*
X2011481D01*
X1991073Y1913399D02*
X2011399D01*
X2006292Y1972799D02*
X2011350D01*
X1968719Y1965599D02*
X2011344D01*
X1984299Y1911599D02*
X2011327D01*
X1987587Y2133899D02*
X2011295D01*
X1911093Y2043899D02*
X2011295D01*
X1998552Y1907999D02*
X2011275D01*
X2006473Y1954799D02*
X2011261D01*
X2005991Y1956599D02*
X2011260D01*
X2009551Y1885499D02*
X2011257D01*
X2001569Y1869299D02*
X2011249D01*
X2001252Y1870199D02*
X2011231D01*
X1984498Y1912499D02*
X2011202D01*
X2004383Y1963799D02*
X2011196D01*
X1944068Y1929599D02*
X2011140D01*
X1984188Y1964699D02*
X2011108D01*
X2006552Y1925999D02*
X2011108D01*
X2006410Y1955699D02*
X2011100D01*
X1997384Y1905299D02*
X2011094D01*
X1991518Y2184299D02*
X2011082D01*
X1990210Y2279699D02*
X2011077D01*
X1994016Y2266199D02*
X2011075D01*
X1967475Y1946699D02*
X2011037D01*
X1991569Y2282399D02*
X2010893D01*
X1998569Y1907099D02*
X2010870D01*
X1998251Y1906199D02*
X2010817D01*
X1991813Y2179799D02*
X2010787D01*
X1991190Y2280599D02*
X2010670D01*
X2009117Y2265299D02*
X2010670D01*
X1946104Y1968299D02*
X2010640D01*
X1991551Y2281499D02*
X2010617D01*
X2006852Y1943099D02*
X2010598D01*
X1998492Y1928699D02*
X2010567D01*
X2006192Y1926899D02*
X2010554D01*
X2004348Y1980899D02*
X2010540D01*
X1989499Y1878299D02*
X2010511D01*
X1912249Y2125799D02*
X2010506D01*
X1912249Y2035799D02*
X2010506D01*
X1910982Y2053799D02*
X2010494D01*
X2005215Y1927799D02*
X2010400D01*
X1992227Y2183399D02*
X2010373D01*
X1940473Y1945799D02*
X2010344D01*
X1992366Y2180699D02*
X2010234D01*
X2008530Y1902599D02*
X2010215D01*
X2005988Y1943999D02*
X2010196D01*
X1992051Y2195099D02*
X2010190D01*
X2003963Y1984499D02*
X2010150D01*
X2006652Y1971899D02*
X2010142D01*
X1912276Y2115899D02*
X2010139D01*
X2008583Y1896299D02*
X2010137D01*
X2006973Y2063699D02*
X2010131D01*
X1961783Y1944899D02*
X2010108D01*
X1992544Y2182499D02*
X2010056D01*
X1992586Y2181599D02*
X2010014D01*
X1975051Y2199599D02*
X2010012D01*
X2005484Y1969199D02*
X2009904D01*
X1912300Y2105999D02*
X2009864D01*
X1910731Y2073599D02*
X2009857D01*
X2004804Y1981799D02*
X2009845D01*
X2006669Y1970999D02*
X2009715D01*
X2004656Y1983599D02*
X2009696D01*
X2006351Y1970099D02*
X2009646D01*
X1912321Y2096099D02*
X2009636D01*
X1910589Y2083499D02*
X2009631D01*
X2004892Y1982699D02*
X2009608D01*
X1990458Y1879199D02*
X2009551D01*
X1912340Y2086199D02*
X2009440D01*
X1910433Y2093399D02*
X2009435D01*
X2008619Y1897199D02*
X2009342D01*
X2008871Y1901699D02*
X2009322D01*
X1912356Y2076299D02*
X2009267D01*
X1910260Y2103299D02*
X2009262D01*
X1992369Y2195999D02*
X2009210D01*
X1991015Y2198699D02*
X2009148D01*
X2007674Y2066399D02*
X2009111D01*
X1910064Y2113199D02*
X2009107D01*
X1990984Y1880099D02*
X2009026D01*
X1912380Y2056499D02*
X2008969D01*
X2006950Y2123099D02*
X2008965D01*
X2007169Y1942199D02*
X2008885D01*
X1991160Y1882799D02*
X2008850D01*
X1992352Y2196899D02*
X2008849D01*
X1912389Y2046599D02*
X2008838D01*
X1998663Y2132999D02*
X2008835D01*
X1909561Y2042999D02*
X2008835D01*
X1991992Y2197799D02*
X2008831D01*
X1991249Y1880999D02*
X2008760D01*
X2008210Y1883699D02*
X2008744D01*
X1912395Y2126699D02*
X2008718D01*
X1912395Y2036699D02*
X2008718D01*
X1986573Y1937699D02*
X2008716D01*
X1909194Y2052899D02*
X2008715D01*
X1991305Y1881899D02*
X2008705D01*
X1912399Y2116799D02*
X2008607D01*
X1902800Y2062799D02*
X2008604D01*
X1912400Y2106899D02*
X2008503D01*
X1992865Y2072699D02*
X2008500D01*
X1912399Y2096999D02*
X2008406D01*
X1902800Y2082599D02*
X2008404D01*
X1912395Y2087099D02*
X2008316D01*
X1902800Y2092499D02*
X2008313D01*
X1912389Y2077199D02*
X2008231D01*
X1902800Y2102399D02*
X2008229D01*
X1902800Y2112299D02*
X2008149D01*
X1912370Y2057399D02*
X2008077D01*
X2007550Y2122199D02*
X2008015D01*
X1912356Y2047499D02*
X2008007D01*
X1999356Y2132099D02*
X2008005D01*
X1902800Y2042099D02*
X2008005D01*
X1986460Y2127599D02*
X2007941D01*
X1912340Y2037599D02*
X2007941D01*
X1902800Y2051999D02*
X2007939D01*
X2003952Y2308499D02*
X2007924D01*
X1912321Y2117699D02*
X2007879D01*
X1902800Y2061899D02*
X2007878D01*
X1987199Y1938599D02*
X2007849D01*
X1912300Y2107799D02*
X2007822D01*
X1993987Y2071799D02*
X2007820D01*
X2005273Y2287799D02*
X2007781D01*
X1912277Y2097899D02*
X2007767D01*
X1902800Y2081699D02*
X2007766D01*
X1971401Y2304899D02*
X2007734D01*
X1912250Y2087999D02*
X2007717D01*
X1902800Y2091599D02*
X2007716D01*
X1912221Y2078099D02*
X2007670D01*
X1902800Y2101499D02*
X2007668D01*
X2005283Y2068199D02*
X2007626D01*
X1902800Y2111399D02*
X2007625D01*
X1912154Y2058299D02*
X2007585D01*
X1912116Y2048399D02*
X2007547D01*
X1999592Y2131199D02*
X2007546D01*
X1902800Y2041199D02*
X2007546D01*
X2005810Y1939499D02*
X2007531D01*
X1997710Y2128499D02*
X2007512D01*
X1912075Y2038499D02*
X2007512D01*
X1902800Y2051099D02*
X2007511D01*
X1912032Y2118599D02*
X2007480D01*
X1908405Y2060999D02*
X2007479D01*
X1911984Y2108699D02*
X2007451D01*
X1994584Y2070899D02*
X2007450D01*
X1911934Y2098799D02*
X2007424D01*
X1909569Y2080799D02*
X2007423D01*
X1911880Y2088899D02*
X2007400D01*
X1909843Y2090699D02*
X2007400D01*
X1911822Y2078999D02*
X2007379D01*
X1910069Y2100599D02*
X2007379D01*
X1995000Y2069099D02*
X2007360D01*
X1910265Y2110499D02*
X2007360D01*
X1911695Y2059199D02*
X2007344D01*
X1911625Y2049299D02*
X2007331D01*
X1999504Y2130299D02*
X2007330D01*
X1910593Y2040299D02*
X2007330D01*
X1999048Y2129399D02*
X2007320D01*
X1911551Y2039399D02*
X2007320D01*
X1910735Y2050199D02*
X2007319D01*
X1910865Y2060099D02*
X2007311D01*
X1911387Y2109599D02*
X2007305D01*
X1994900Y2069999D02*
X2007305D01*
X1911296Y2099699D02*
X2007301D01*
X1911096Y2079899D02*
X2007301D01*
X1911200Y2089799D02*
X2007300D01*
X2003969Y2307599D02*
X2007299D01*
X2002784Y2305799D02*
X2007227D01*
X2006561Y2119499D02*
X2007148D01*
X2003651Y2306699D02*
X2007102D01*
X1998717Y2265299D02*
X2006883D01*
X1991252Y2283299D02*
X2006840D01*
X1912032Y2298599D02*
X2006781D01*
X1912400Y2286899D02*
X2006450D01*
X1909836Y2033099D02*
X2006417D01*
X1990388Y2284199D02*
X2006145D01*
X1912300Y2285999D02*
X2005996D01*
X1911983Y2285099D02*
X2005908D01*
X1999715Y2259899D02*
X2005885D01*
X1996183Y2294099D02*
X2005840D01*
X1990789Y1883699D02*
X2005790D01*
X2000660Y1898999D02*
X2005719D01*
X1912189Y1888199D02*
X2005612D01*
X2000016Y2264399D02*
X2005584D01*
X1912321Y2297699D02*
X2005450D01*
X2000426Y2260799D02*
X2005174D01*
X1977819Y2294999D02*
X2005145D01*
X1994900Y2068199D02*
X2005117D01*
X2000567Y2263499D02*
X2005033D01*
X1999773Y1893599D02*
X2005003D01*
X1991560Y1904399D02*
X2004997D01*
X1912399Y2296799D02*
X2004996D01*
X1912276Y2295899D02*
X2004908D01*
X2000743Y2261699D02*
X2004857D01*
X2000786Y2262599D02*
X2004814D01*
X1990109Y1884599D02*
X2004810D01*
X1912381Y1887299D02*
X2004748D01*
X1923592Y2028599D02*
X2004727D01*
X1902800Y2032199D02*
X2004532D01*
X2001355Y1899899D02*
X2004469D01*
X1999327Y1898099D02*
X2004465D01*
X1988752Y1885499D02*
X2004449D01*
X1912369Y1886399D02*
X2004431D01*
X1989607Y2154599D02*
X2004297D01*
X1985052Y1963799D02*
X2004217D01*
X1911197Y2123999D02*
X2004181D01*
X1923356Y2029499D02*
X2004101D01*
X1902800Y2031299D02*
X2004026D01*
X1922663Y2030399D02*
X2003902D01*
X2000399Y1894499D02*
X2003877D01*
X1999719Y1903499D02*
X2003875D01*
X1978052Y2312999D02*
X2003790D01*
X1979404Y1936799D02*
X2003785D01*
X1910865Y2150099D02*
X2003769D01*
X2001592Y1900799D02*
X2003694D01*
X1999968Y1897199D02*
X2003693D01*
X1989806Y1932299D02*
X2003616D01*
X1976152Y2243699D02*
X2003553D01*
X2000598Y1895399D02*
X2003470D01*
X2001050Y1902599D02*
X2003470D01*
X1910862Y2063699D02*
X2003427D01*
X2001504Y1901699D02*
X2003417D01*
X2000474Y1896299D02*
X2003417D01*
X1998574Y2292299D02*
X2003417D01*
X1987398Y1939499D02*
X2003390D01*
X1975677Y2328299D02*
X2003284D01*
X1910862Y2333699D02*
X2003280D01*
X1911471Y2119499D02*
X2003240D01*
X1994583Y2067299D02*
X2003232D01*
X1963668Y1943999D02*
X2003212D01*
X1989883Y2153699D02*
X2003175D01*
X1988297Y2150999D02*
X2002994D01*
X1994975Y1957499D02*
X2002954D01*
X1957875Y1973699D02*
X2002885D01*
X1909836Y2123099D02*
X2002850D01*
X1912356Y2317499D02*
X2002837D01*
X1978948Y1935899D02*
X2002808D01*
X1911693Y2064599D02*
X2002801D01*
X1999263Y1927799D02*
X2002785D01*
X1989830Y2152799D02*
X2002770D01*
X1989962Y1933199D02*
X2002749D01*
X1993984Y2066399D02*
X2002726D01*
X1989423Y2151899D02*
X2002717D01*
X1945650Y1969199D02*
X2002716D01*
X1953977Y1923299D02*
X2002616D01*
X1992860Y2065499D02*
X2002602D01*
X1910438Y2120399D02*
X2002545D01*
X1995700Y1959299D02*
X2002527D01*
X1999052Y1993499D02*
X2002523D01*
X1977692Y2313899D02*
X2002452D01*
X1989227Y1934999D02*
X2002448D01*
X1989797Y1934099D02*
X2002431D01*
X1987274Y1940399D02*
X2002410D01*
X1902800Y2122199D02*
X2002396D01*
X1911695Y2329199D02*
X2002355D01*
X1902800Y2332799D02*
X2002353D01*
X1964174Y1943099D02*
X2002348D01*
X1985369Y1962899D02*
X2002332D01*
X1974373Y1952999D02*
X2002318D01*
X1902800Y2121299D02*
X2002308D01*
X1912389Y2316599D02*
X2002144D01*
X1986768Y1941299D02*
X2002049D01*
X1984883Y1942199D02*
X2002031D01*
X1976715Y2314799D02*
X2001996D01*
X1910865Y2330099D02*
X2001930D01*
X1902800Y2331899D02*
X2001929D01*
X1944766Y1972799D02*
X2001908D01*
X1912220Y2315699D02*
X2001908D01*
X1995540Y1960199D02*
X2001901D01*
X1944319Y1970099D02*
X2001849D01*
X1985351Y1961999D02*
X2001826D01*
X1999538Y1926899D02*
X2001808D01*
X1980843Y2217599D02*
X2001808D01*
X1908405Y2330999D02*
X2001800D01*
X1978675Y1956599D02*
X2001783D01*
X1997950Y1924199D02*
X2001749D01*
X1912300Y2287799D02*
X2001727D01*
X1998188Y1994399D02*
X2001724D01*
X1994977Y1961099D02*
X2001702D01*
X1958530Y1997099D02*
X2001652D01*
X1991697Y1979999D02*
X2001590D01*
X1974498Y1953899D02*
X2001567D01*
X1944213Y1971899D02*
X2001548D01*
X1998698Y2291399D02*
X2001532D01*
X1943069Y1970999D02*
X2001531D01*
X1958583Y1996199D02*
X2001479D01*
X1999485Y1925999D02*
X2001448D01*
X1958306Y1995299D02*
X2001436D01*
X1999077Y1925099D02*
X2001431D01*
X1973676Y1955699D02*
X2001364D01*
X1974301Y1954799D02*
X2001301D01*
X1994299Y1921499D02*
X2001255D01*
X1911984Y2288699D02*
X2001101D01*
X1998499Y2290499D02*
X2001026D01*
X1997873Y2289599D02*
X2000902D01*
X1977176Y2242799D02*
X2000811D01*
X1992235Y1984499D02*
X2000637D01*
X1997597Y1865699D02*
X2000400D01*
X1998256Y1864799D02*
X2000400D01*
X1998492Y1863899D02*
X2000400D01*
X1998404Y1862999D02*
X2000400D01*
X1997948Y1862099D02*
X2000400D01*
X1996610Y1861199D02*
X2000400D01*
X1992040Y1860299D02*
X2000400D01*
X1992200Y1859399D02*
X2000400D01*
X1992039Y1858499D02*
X2000400D01*
X1991587Y1857599D02*
X2000400D01*
X1995577Y1856699D02*
X2000400D01*
X1996140Y1855799D02*
X2000400D01*
X1996300Y1854899D02*
X2000400D01*
X1996139Y1853999D02*
X2000400D01*
X1995575Y1853099D02*
X2000400D01*
X1962300Y1852199D02*
X2000400D01*
X1962300Y1851299D02*
X2000400D01*
X1962300Y1850399D02*
X2000400D01*
X1962300Y1849499D02*
X2000400D01*
X1962300Y1848599D02*
X2000400D01*
X1962300Y1847699D02*
X2000400D01*
X1962300Y1846799D02*
X2000400D01*
X1962300Y1845899D02*
X2000400D01*
X1962300Y1844999D02*
X2000400D01*
X1962300Y1844099D02*
X2000400D01*
X1962300Y1843199D02*
X2000400D01*
X1962300Y1842299D02*
X2000400D01*
X1962300Y1841399D02*
X2000400D01*
X1962300Y1840499D02*
X2000400D01*
X1962300Y1839599D02*
X2000400D01*
X1962300Y1838699D02*
X2000400D01*
X1962300Y1837799D02*
X2000400D01*
X1962300Y1836899D02*
X2000400D01*
X1962300Y1835999D02*
X2000400D01*
X1962300Y1835099D02*
X2000400D01*
X1962300Y1834199D02*
X2000400D01*
X1962300Y1833299D02*
X2000400D01*
X1993796Y1916999D02*
X2000314D01*
X1902800Y2002499D02*
X2000281D01*
X1992823Y1980899D02*
X2000252D01*
X1976884Y2310299D02*
X2000185D01*
X1970776Y2305799D02*
X2000016D01*
X1993007Y1983599D02*
X1999944D01*
X1994805Y1920599D02*
X1999924D01*
X1980886Y2218499D02*
X1999818D01*
X1993230Y1981799D02*
X1999796D01*
X1993283Y1982699D02*
X1999708D01*
X1994571Y1917899D02*
X1999619D01*
X1909569Y2440799D02*
X1999581D01*
X1994994Y1919699D02*
X1999470D01*
X1994922Y1918799D02*
X1999382D01*
X1958125Y1997999D02*
X1999340D01*
X1938205Y2309399D02*
X1999208D01*
X1937971Y2306699D02*
X1999149D01*
X1977640Y2241899D02*
X1999138D01*
X1902800Y2001599D02*
X1998950D01*
X1938394Y2308499D02*
X1998848D01*
X1938322Y2307599D02*
X1998831D01*
X1957003Y1998899D02*
X1998645D01*
X1912356Y2436299D02*
X1998640D01*
X1909843Y2000699D02*
X1998496D01*
X1911200Y1999799D02*
X1998408D01*
X1980667Y2219399D02*
X1998404D01*
X1989198Y1903499D02*
X1998281D01*
X1911096Y2439899D02*
X1998250D01*
X1912389Y2437199D02*
X1997945D01*
X1977798Y2240999D02*
X1997878D01*
X1911822Y2438999D02*
X1997796D01*
X1912221Y2438099D02*
X1997708D01*
X1990683Y1871099D02*
X1997612D01*
X1991092Y1898099D02*
X1997492D01*
X1912221Y2168099D02*
X1997390D01*
X1973101Y1866599D02*
X1997373D01*
X1991288Y1898999D02*
X1997340D01*
X1982067Y2395799D02*
X1997308D01*
X1980116Y2220299D02*
X1997294D01*
X1902800Y2172599D02*
X1997212D01*
X1989795Y1902599D02*
X1996950D01*
X1977698Y2240099D02*
X1996866D01*
X1972476Y1867499D02*
X1996810D01*
X1990406Y1870199D02*
X1996748D01*
X1991281Y1899899D02*
X1996645D01*
X1911471Y2389499D02*
X1996611D01*
X1990616Y1901699D02*
X1996496D01*
X1994567Y2265299D02*
X1996483D01*
X1962300Y1868399D02*
X1996449D01*
X1989631Y1869299D02*
X1996431D01*
X1911822Y2168999D02*
X1996410D01*
X1991069Y1900799D02*
X1996408D01*
X1978817Y2221199D02*
X1996385D01*
X1902800Y2171699D02*
X1996348D01*
X1987584Y2128499D02*
X1996290D01*
X1991225Y1893599D02*
X1996227D01*
X1911096Y2169899D02*
X1996049D01*
X1990658Y1897199D02*
X1996032D01*
X1909569Y2170799D02*
X1996031D01*
X1977310Y2239199D02*
X1996030D01*
X1979150Y2294099D02*
X1996017D01*
X1911384Y1924199D02*
X1995961D01*
X1902800Y2222099D02*
X1995627D01*
X1990103Y1894499D02*
X1995601D01*
X1967645Y1989899D02*
X1995590D01*
X1989872Y1896299D02*
X1995526D01*
X1971855Y2259899D02*
X1995485D01*
X1927950Y1928699D02*
X1995419D01*
X1966733Y1994399D02*
X1995412D01*
X1988589Y1895399D02*
X1995402D01*
X1988184Y2132999D02*
X1995337D01*
X1976464Y2238299D02*
X1995329D01*
X1991477Y1861199D02*
X1995190D01*
X1981536Y2394899D02*
X1995174D01*
X1910438Y2390399D02*
X1995077D01*
X1910064Y2023199D02*
X1995001D01*
X1909561Y2222999D02*
X1994990D01*
X1988183Y2129399D02*
X1994952D01*
X1927560Y1925099D02*
X1994833D01*
X1979092Y1909799D02*
X1994785D01*
X1972092Y2260799D02*
X1994774D01*
X1912370Y2237399D02*
X1994739D01*
X1928404Y1927799D02*
X1994648D01*
X1988500Y2132099D02*
X1994644D01*
X1992255Y1905299D02*
X1994616D01*
X1968345Y1990799D02*
X1994610D01*
X1968048Y1993499D02*
X1994548D01*
X1980565Y2393999D02*
X1994522D01*
X1988500Y2130299D02*
X1994496D01*
X1902800Y2391299D02*
X1994477D01*
X1911093Y2223899D02*
X1994455D01*
X1928255Y1925999D02*
X1994426D01*
X1988600Y2131199D02*
X1994408D01*
X1928492Y1926899D02*
X1994372D01*
X1993715Y2261699D02*
X1994352D01*
X1911387Y2289599D02*
X1994327D01*
X1968584Y1991699D02*
X1994249D01*
X1912380Y2236499D02*
X1994244D01*
X1909836Y2393099D02*
X1994239D01*
X1973298Y1865699D02*
X1994237D01*
X1968499Y1992599D02*
X1994231D01*
X1902800Y2392199D02*
X1994225D01*
X1979604Y2293199D02*
X1994132D01*
X1911821Y2224799D02*
X1994007D01*
X1962300Y1862099D02*
X1993852D01*
X1976292Y2235599D02*
X1993833D01*
X1990619Y1908899D02*
X1993808D01*
X1992492Y1906199D02*
X1993749D01*
X1978760Y2290499D02*
X1993701D01*
X1957866Y2225699D02*
X1993638D01*
X1979692Y2292299D02*
X1993626D01*
X1912300Y2017799D02*
X1993576D01*
X1973173Y1864799D02*
X1993544D01*
X1979455Y2291399D02*
X1993502D01*
X1978426Y2234699D02*
X1993497D01*
X1902800Y2022299D02*
X1993475D01*
X1991950Y1907999D02*
X1993448D01*
X1992404Y1907099D02*
X1993431D01*
X1962300Y1862999D02*
X1993396D01*
X1958373Y2226599D02*
X1993342D01*
X1972666Y1863899D02*
X1993308D01*
X1979078Y2233799D02*
X1993231D01*
X1958498Y2227499D02*
X1993113D01*
X1979361Y2232899D02*
X1993031D01*
X1958301Y2228399D02*
X1992948D01*
X1911984Y2018699D02*
X1992923D01*
X1979375Y2231999D02*
X1992894D01*
X1902800Y2021399D02*
X1992875D01*
X1976989Y2229299D02*
X1992845D01*
X1979123Y2231099D02*
X1992818D01*
X1978523Y2230199D02*
X1992801D01*
X1911387Y2019599D02*
X1992639D01*
X1910265Y2020499D02*
X1992625D01*
X1962300Y1853099D02*
X1991825D01*
X1962300Y1856699D02*
X1991713D01*
X1962300Y1853999D02*
X1991261D01*
X1962300Y1855799D02*
X1991260D01*
X1979239Y1957499D02*
X1991225D01*
X1984990Y1961099D02*
X1991223D01*
X1962300Y1854899D02*
X1991100D01*
X1902800Y2411099D02*
X1990685D01*
X1979400Y1958399D02*
X1990661D01*
X1984010Y1960199D02*
X1990660D01*
X1912389Y2406599D02*
X1990516D01*
X1979240Y1959299D02*
X1990500D01*
X1944347Y2267099D02*
X1990483D01*
X1954540Y1922399D02*
X1990444D01*
X1910735Y2410199D02*
X1989708D01*
X1986398Y1979999D02*
X1989703D01*
X1912356Y2407499D02*
X1989649D01*
X1972004Y2261699D02*
X1989485D01*
X1979792Y2211299D02*
X1989390D01*
X1911625Y2409299D02*
X1989348D01*
X1912116Y2408399D02*
X1989331D01*
X1985088Y1921499D02*
X1989301D01*
X1910069Y2010599D02*
X1989283D01*
X1944771Y2266199D02*
X1989184D01*
X1979452Y1908899D02*
X1989181D01*
X1911623Y1984499D02*
X1989165D01*
X1982860Y2065499D02*
X1988940D01*
X1982865Y2072699D02*
X1988935D01*
X1985952Y1920599D02*
X1988795D01*
X1971550Y2262599D02*
X1988774D01*
X1985890Y1917899D02*
X1988685D01*
X1986251Y1918799D02*
X1988678D01*
X1944900Y2265299D02*
X1988633D01*
X1986269Y1919699D02*
X1988606D01*
X1974184Y2198699D02*
X1988585D01*
X1985215Y1952099D02*
X1988585D01*
X1986201Y1980899D02*
X1988577D01*
X1970219Y2263499D02*
X1988457D01*
X1979739Y2194199D02*
X1988416D01*
X1985384Y1947599D02*
X1988416D01*
X1944770Y2264399D02*
X1988414D01*
X1973803Y1983599D02*
X1988393D01*
X1980526Y2216699D02*
X1988382D01*
X1967083Y2178899D02*
X1988290D01*
X1942610Y2005199D02*
X1988285D01*
X1911549Y1904399D02*
X1988240D01*
X1987592Y1903499D02*
X1988224D01*
X1985576Y1981799D02*
X1988170D01*
X1974925Y1982699D02*
X1988117D01*
X1979556Y2212199D02*
X1988087D01*
X1911623Y1894499D02*
X1988013D01*
X1942788Y2009699D02*
X1987984D01*
X1979469Y1907999D02*
X1987850D01*
X1983984Y2066399D02*
X1987816D01*
X1983987Y2071799D02*
X1987813D01*
X1971373Y2279699D02*
X1987790D01*
X1962300Y1857599D02*
X1987725D01*
X1962300Y1861199D02*
X1987723D01*
X1979815Y2215799D02*
X1987673D01*
X1911384Y2284199D02*
X1987612D01*
X1960877Y2197799D02*
X1987608D01*
X1986192Y1951199D02*
X1987608D01*
X1902800Y2012399D02*
X1987590D01*
X1943590Y2006099D02*
X1987574D01*
X1964699Y1889999D02*
X1987569D01*
X1979900Y2195099D02*
X1987549D01*
X1986251Y1948499D02*
X1987549D01*
X1912074Y1905299D02*
X1987545D01*
X1978863Y2213099D02*
X1987534D01*
X1984374Y1913399D02*
X1987527D01*
X1943652Y2008799D02*
X1987433D01*
X1912400Y2016899D02*
X1987412D01*
X1979151Y1907099D02*
X1987396D01*
X1960273Y2214899D02*
X1987356D01*
X1984910Y1916999D02*
X1987332D01*
X1959766Y2213999D02*
X1987314D01*
X1978284Y1906199D02*
X1987308D01*
X1976252Y2184299D02*
X1987282D01*
X1943951Y2006999D02*
X1987257D01*
X1979177Y2196899D02*
X1987248D01*
X1979740Y2195999D02*
X1987231D01*
X1984583Y2067299D02*
X1987217D01*
X1984584Y2070899D02*
X1987216D01*
X1943969Y2007899D02*
X1987214D01*
X1962300Y1858499D02*
X1987161D01*
X1962300Y1860299D02*
X1987160D01*
X1985600Y1873799D02*
X1987097D01*
X1962300Y1859399D02*
X1987000D01*
X1967030Y2179799D02*
X1986987D01*
X1962383Y1893599D02*
X1986975D01*
X1983868Y1914299D02*
X1986901D01*
X1984900Y2068199D02*
X1986900D01*
X1984900Y2069999D02*
X1986900D01*
X1910589Y1903499D02*
X1986827D01*
X1978707Y1916099D02*
X1986826D01*
X1971498Y2280599D02*
X1986810D01*
X1985000Y2069099D02*
X1986800D01*
X1964898Y1890899D02*
X1986794D01*
X1910260Y2283299D02*
X1986748D01*
X1981983Y1915199D02*
X1986702D01*
X1910260Y2013299D02*
X1986610D01*
X1976569Y2183399D02*
X1986573D01*
X1964268Y1892699D02*
X1986570D01*
X1962300Y1869299D02*
X1986569D01*
X1912300Y2015999D02*
X1986548D01*
X1964774Y1891799D02*
X1986517D01*
X1971301Y2281499D02*
X1986449D01*
X1975210Y2180699D02*
X1986434D01*
X1970676Y2282399D02*
X1986431D01*
X1912115Y1895399D02*
X1986393D01*
X1980064Y2375999D02*
X1986324D01*
X1908405Y2150999D02*
X1986303D01*
X1976551Y2182499D02*
X1986256D01*
X1911384Y2014199D02*
X1986249D01*
X1911983Y2015099D02*
X1986231D01*
X1976190Y2181599D02*
X1986214D01*
X1902800Y2372399D02*
X1986134D01*
X1968410Y1870199D02*
X1985794D01*
X1912153Y2155499D02*
X1985765D01*
X1911983Y2375099D02*
X1985699D01*
X1912153Y1885499D02*
X1985667D01*
X1910260Y2373299D02*
X1985627D01*
X1984116Y1871099D02*
X1985517D01*
X1911384Y2374199D02*
X1985502D01*
X1978835Y1934999D02*
X1985497D01*
X1980699Y1931399D02*
X1985475D01*
X1902800Y2151899D02*
X1985177D01*
X1911693Y2154599D02*
X1984993D01*
X1980268Y1934099D02*
X1984927D01*
X1966256Y1878299D02*
X1984920D01*
X1980898Y1932299D02*
X1984919D01*
X1902800Y2152799D02*
X1984770D01*
X1980774Y1933199D02*
X1984762D01*
X1910862Y2153699D02*
X1984717D01*
X1964298Y1942199D02*
X1984717D01*
X1902800Y1902599D02*
X1984624D01*
X1912356Y1896299D02*
X1984547D01*
X1911693Y1884599D02*
X1984310D01*
X1965563Y1879199D02*
X1983961D01*
X1902800Y1901699D02*
X1983803D01*
X1912389Y1897199D02*
X1983761D01*
X1910862Y1883699D02*
X1983630D01*
X1902800Y1880099D02*
X1983435D01*
X1909569Y1900799D02*
X1983349D01*
X1912221Y1898099D02*
X1983327D01*
X1902800Y1882799D02*
X1983259D01*
X1975761Y2157299D02*
X1983239D01*
X1902800Y1880999D02*
X1983170D01*
X1911096Y1899899D02*
X1983138D01*
X1911822Y1898999D02*
X1983131D01*
X1902800Y1881899D02*
X1983114D01*
X1910982Y2413799D02*
X1983090D01*
X1979492Y1937699D02*
X1983027D01*
X1964099Y1941299D02*
X1982832D01*
X1973866Y1952099D02*
X1982785D01*
X1968039Y1947599D02*
X1982616D01*
X1976460Y2127599D02*
X1982540D01*
X1976465Y2134799D02*
X1982535D01*
X1977935Y1916999D02*
X1982490D01*
X1979256Y1938599D02*
X1982401D01*
X1963473Y1940399D02*
X1982326D01*
X1954700Y1921499D02*
X1982312D01*
X1978563Y1939499D02*
X1982202D01*
X1912154Y2418299D02*
X1982137D01*
X1976935Y2164499D02*
X1982065D01*
X1975330Y1981799D02*
X1982024D01*
X1980092Y1978199D02*
X1981834D01*
X1978983Y1915199D02*
X1981817D01*
X1963525Y1951199D02*
X1981808D01*
X1911759Y2414699D02*
X1981752D01*
X1968200Y1948499D02*
X1981749D01*
X1977293Y2158199D02*
X1981707D01*
X1978677Y1960199D02*
X1981590D01*
X1971569Y1917899D02*
X1981510D01*
X1967477Y1950299D02*
X1981448D01*
X1954539Y1920599D02*
X1981448D01*
X1912370Y2417399D02*
X1981444D01*
X1968040Y1949399D02*
X1981431D01*
X1977584Y2128499D02*
X1981416D01*
X1977587Y2133899D02*
X1981413D01*
X1970050Y1964699D02*
X1981412D01*
X1975383Y1980899D02*
X1981399D01*
X1979856Y1979099D02*
X1981327D01*
X1912188Y2415599D02*
X1981296D01*
X1912380Y2416499D02*
X1981208D01*
X1979163Y1979999D02*
X1981202D01*
X1977825Y2163599D02*
X1981175D01*
X1971252Y1918799D02*
X1981149D01*
X1970388Y1919699D02*
X1981131D01*
X1978021Y2159099D02*
X1980979D01*
X1978183Y2129399D02*
X1980817D01*
X1978184Y2132999D02*
X1980816D01*
X1969748Y1871099D02*
X1980684D01*
X1978316Y2162699D02*
X1980684D01*
X1976763Y1876499D02*
X1980680D01*
X1969660Y1961099D02*
X1980610D01*
X1978420Y2159999D02*
X1980580D01*
X1970504Y1963799D02*
X1980548D01*
X1978500Y2130299D02*
X1980500D01*
X1978500Y2132099D02*
X1980500D01*
X1978556Y2161799D02*
X1980444D01*
X1978589Y2160899D02*
X1980411D01*
X1978600Y2131199D02*
X1980400D01*
X1970355Y1961999D02*
X1980249D01*
X1970592Y1962899D02*
X1980231D01*
X1978115Y1910699D02*
X1980127D01*
X1979038Y1914299D02*
X1979932D01*
X1975810Y1871999D02*
X1979755D01*
X1977456Y1875599D02*
X1979753D01*
X1902800Y1911599D02*
X1979501D01*
X1977148Y1872899D02*
X1979330D01*
X1977692Y1874699D02*
X1979329D01*
X1977397Y1912499D02*
X1979302D01*
X1977604Y1873799D02*
X1979200D01*
X1978574Y1913399D02*
X1979069D01*
X1972860Y2065499D02*
X1978940D01*
X1972865Y2072699D02*
X1978935D01*
X1973984Y2066399D02*
X1977816D01*
X1973987Y2071799D02*
X1977813D01*
X1911471Y2299499D02*
X1977403D01*
X1974583Y2067299D02*
X1977217D01*
X1974584Y2070899D02*
X1977216D01*
X1974900Y2068199D02*
X1976900D01*
X1974900Y2069999D02*
X1976900D01*
X1971598Y2303999D02*
X1976865D01*
X1975000Y2069099D02*
X1976800D01*
X1958600Y1975499D02*
X1976790D01*
X1954292Y2401199D02*
X1976717D01*
X1902800Y2221199D02*
X1976583D01*
X1954473Y2375999D02*
X1976536D01*
X1970984Y1930499D02*
X1976527D01*
X1974115Y2208599D02*
X1976490D01*
X1911933Y2294999D02*
X1976381D01*
X1971792Y1934099D02*
X1976332D01*
X1910438Y2300399D02*
X1976277D01*
X1972210Y1934999D02*
X1976190D01*
X1954847Y2383199D02*
X1976162D01*
X1912188Y2235599D02*
X1976108D01*
X1971473Y2303099D02*
X1976093D01*
X1954974Y2393999D02*
X1976035D01*
X1971851Y1931399D02*
X1975901D01*
X1902800Y2301299D02*
X1975870D01*
X1972152Y1933199D02*
X1975826D01*
X1970966Y2302199D02*
X1975817D01*
X1972169Y1932299D02*
X1975702D01*
X1909843Y1910699D02*
X1975685D01*
X1960398Y2215799D02*
X1975585D01*
X1909836Y2213099D02*
X1975537D01*
X1912340Y1906199D02*
X1975516D01*
X1958440Y1976399D02*
X1975452D01*
X1910265Y2290499D02*
X1975440D01*
X1910260Y2193299D02*
X1975425D01*
X1961440Y2196899D02*
X1975423D01*
X1957676Y2229299D02*
X1975411D01*
X1902800Y1912499D02*
X1975403D01*
X1955626Y2400299D02*
X1975384D01*
X1955703Y2376899D02*
X1975306D01*
X1910593Y2220299D02*
X1975284D01*
X1973163Y1939499D02*
X1975237D01*
X1911471Y2209499D02*
X1975152D01*
X1955881Y2382299D02*
X1975129D01*
X1955945Y2394899D02*
X1975064D01*
X1911294Y2294099D02*
X1975050D01*
X1957877Y1977299D02*
X1974996D01*
X1946210Y1956599D02*
X1974925D01*
X1947252Y1960199D02*
X1974923D01*
X1919982Y1978199D02*
X1974908D01*
X1960201Y2216699D02*
X1974874D01*
X1971551Y1916999D02*
X1974865D01*
X1960875Y2194199D02*
X1974861D01*
X1961600Y2195999D02*
X1974860D01*
X1973548Y1935899D02*
X1974852D01*
X1902800Y2212199D02*
X1974844D01*
X1902800Y2291399D02*
X1974745D01*
X1911551Y2219399D02*
X1974733D01*
X1956298Y2399399D02*
X1974711D01*
X1911200Y1909799D02*
X1974708D01*
X1961439Y2195099D02*
X1974700D01*
X1910438Y2210399D02*
X1974696D01*
X1956342Y2377799D02*
X1974667D01*
X1912395Y1907099D02*
X1974649D01*
X1902800Y2211299D02*
X1974608D01*
X1910064Y2293199D02*
X1974596D01*
X1956441Y2381399D02*
X1974568D01*
X1959576Y2217599D02*
X1974557D01*
X1956477Y2395799D02*
X1974533D01*
X1912075Y2218499D02*
X1974514D01*
X1902800Y2292299D02*
X1974508D01*
X1973936Y1938599D02*
X1974464D01*
X1970204Y1871999D02*
X1974390D01*
X1947190Y1957499D02*
X1974361D01*
X1947569Y1959299D02*
X1974360D01*
X1911880Y1908899D02*
X1974348D01*
X1956664Y2398499D02*
X1974345D01*
X1912250Y1907999D02*
X1974331D01*
X1956685Y2378699D02*
X1974324D01*
X1911821Y2314799D02*
X1974285D01*
X1956731Y2380499D02*
X1974279D01*
X1952410Y1913399D02*
X1974277D01*
X1956746Y2396699D02*
X1974263D01*
X1956805Y2397599D02*
X1974204D01*
X1956808Y2379599D02*
X1974201D01*
X1947551Y1958399D02*
X1974200D01*
X1937699Y2310299D02*
X1974116D01*
X1971190Y1916099D02*
X1974093D01*
X1911759Y2234699D02*
X1973974D01*
X1910735Y2230199D02*
X1973877D01*
X1960573Y1914299D02*
X1973870D01*
X1970210Y1915199D02*
X1973817D01*
X1966404Y1876499D02*
X1973437D01*
X1910982Y2233799D02*
X1973322D01*
X1911093Y2313899D02*
X1973308D01*
X1902800Y2231099D02*
X1973277D01*
X1936556Y2311199D02*
X1973249D01*
X1965761Y2157299D02*
X1973239D01*
X1970292Y1872899D02*
X1973052D01*
X1955175Y2243699D02*
X1973048D01*
X1909194Y2232899D02*
X1973039D01*
X1902800Y2231999D02*
X1973025D01*
X1909561Y2312999D02*
X1972948D01*
X1902800Y2312099D02*
X1972931D01*
X1966625Y2180699D02*
X1972790D01*
X1966040Y1875599D02*
X1972744D01*
X1912154Y2238299D02*
X1972736D01*
X1912030Y2185199D02*
X1972612D01*
X1970056Y1873799D02*
X1972596D01*
X1966460Y2127599D02*
X1972540D01*
X1966465Y2134799D02*
X1972535D01*
X1969363Y1874699D02*
X1972508D01*
X1966935Y2164499D02*
X1972065D01*
X1902800Y2242799D02*
X1972024D01*
X1911759Y2324699D02*
X1971925D01*
X1912154Y2328299D02*
X1971923D01*
X1911695Y2239199D02*
X1971890D01*
X1965503Y2181599D02*
X1971810D01*
X1910731Y1983599D02*
X1971797D01*
X1911469Y2184299D02*
X1971748D01*
X1967293Y2158199D02*
X1971707D01*
X1912032Y2208599D02*
X1971685D01*
X1960352Y2203199D02*
X1971584D01*
X1902800Y2241899D02*
X1971560D01*
X1959488Y2204099D02*
X1971516D01*
X1910865Y2240099D02*
X1971502D01*
X1902800Y2182499D02*
X1971449D01*
X1910433Y2183399D02*
X1971431D01*
X1959053Y2198699D02*
X1971416D01*
X1967584Y2128499D02*
X1971416D01*
X1967587Y2133899D02*
X1971413D01*
X1908405Y2240999D02*
X1971402D01*
X1912188Y2325599D02*
X1971361D01*
X1912370Y2327399D02*
X1971360D01*
X1921039Y1979099D02*
X1971269D01*
X1912380Y2326499D02*
X1971200D01*
X1967825Y2163599D02*
X1971175D01*
X1968021Y2159099D02*
X1970979D01*
X1968183Y2129399D02*
X1970817D01*
X1968184Y2132999D02*
X1970816D01*
X1912321Y2207699D02*
X1970708D01*
X1968316Y2162699D02*
X1970684D01*
X1920359Y1982699D02*
X1970675D01*
X1911933Y2204999D02*
X1970649D01*
X1960669Y2202299D02*
X1970608D01*
X1968420Y2159999D02*
X1970580D01*
X1959310Y2199599D02*
X1970549D01*
X1968500Y2130299D02*
X1970500D01*
X1968500Y2132099D02*
X1970500D01*
X1921425Y1979999D02*
X1970494D01*
X1968556Y2161799D02*
X1970444D01*
X1968589Y2160899D02*
X1970411D01*
X1968600Y2131199D02*
X1970400D01*
X1912399Y2206799D02*
X1970348D01*
X1912276Y2205899D02*
X1970331D01*
X1921170Y1981799D02*
X1970270D01*
X1960651Y2201399D02*
X1970248D01*
X1960290Y2200499D02*
X1970231D01*
X1921463Y1980899D02*
X1970217D01*
X1912220Y1955699D02*
X1970124D01*
X1963698Y1952099D02*
X1969934D01*
X1911471Y1939499D02*
X1969837D01*
X1961183Y1954799D02*
X1969499D01*
X1963574Y1952999D02*
X1969427D01*
X1939160Y1935899D02*
X1969425D01*
X1963068Y1953899D02*
X1969302D01*
X1941575Y2258099D02*
X1969209D01*
X1938109Y1938599D02*
X1969144D01*
X1939201Y1936799D02*
X1968996D01*
X1962860Y2065499D02*
X1968940D01*
X1962865Y2072699D02*
X1968935D01*
X1962300Y1867499D02*
X1968924D01*
X1938911Y1937699D02*
X1968908D01*
X1944345Y2263499D02*
X1968781D01*
X1962300Y1863899D02*
X1968734D01*
X1938769Y1934999D02*
X1968385D01*
X1962300Y1866599D02*
X1968299D01*
X1902800Y2252699D02*
X1968290D01*
X1962300Y1864799D02*
X1968227D01*
X1945351Y1930499D02*
X1968216D01*
X1941561Y2257199D02*
X1968112D01*
X1962300Y1865699D02*
X1968102D01*
X1912189Y2338199D02*
X1968050D01*
X1912340Y2356199D02*
X1967890D01*
X1941325Y2258999D02*
X1967840D01*
X1963984Y2066399D02*
X1967816D01*
X1963987Y2071799D02*
X1967813D01*
X1961199Y1915199D02*
X1967790D01*
X1953975Y1919699D02*
X1967612D01*
X1943416Y2262599D02*
X1967450D01*
X1944923Y1934099D02*
X1967408D01*
X1910731Y2343599D02*
X1967401D01*
X1945796Y1931399D02*
X1967349D01*
X1910731Y2253599D02*
X1967310D01*
X1945260Y1965599D02*
X1967281D01*
X1941277Y2256299D02*
X1967248D01*
X1937196Y2305799D02*
X1967224D01*
X1964583Y2067299D02*
X1967217D01*
X1964584Y2070899D02*
X1967216D01*
X1940725Y2259899D02*
X1967145D01*
X1902800Y2282399D02*
X1967124D01*
X1945632Y1933199D02*
X1967048D01*
X1902800Y2302199D02*
X1967034D01*
X1945877Y1932299D02*
X1967031D01*
X1902800Y2261699D02*
X1966996D01*
X1962300Y1870199D02*
X1966990D01*
X1911623Y2254499D02*
X1966949D01*
X1938630Y2360699D02*
X1966937D01*
X1911934Y2278799D02*
X1966934D01*
X1940624Y2255399D02*
X1966931D01*
X1939199Y2260799D02*
X1966908D01*
X1911761Y2339099D02*
X1966903D01*
X1964900Y2068199D02*
X1966900D01*
X1964900Y2069999D02*
X1966900D01*
X1961398Y1916099D02*
X1966810D01*
X1965000Y2069099D02*
X1966800D01*
X1958883Y1918799D02*
X1966748D01*
X1902800Y2342699D02*
X1966628D01*
X1911878Y2304899D02*
X1966599D01*
X1912395Y2357099D02*
X1966552D01*
X1909836Y2303099D02*
X1966527D01*
X1902800Y2281499D02*
X1966499D01*
X1961274Y1916999D02*
X1966449D01*
X1960768Y1917899D02*
X1966431D01*
X1911296Y2279699D02*
X1966427D01*
X1911197Y2303999D02*
X1966402D01*
X1910985Y2339999D02*
X1966395D01*
X1946388Y1961099D02*
X1966340D01*
X1910069Y2280599D02*
X1966302D01*
X1902800Y2341799D02*
X1966277D01*
X1938683Y2359799D02*
X1966244D01*
X1909206Y2340899D02*
X1966206D01*
X1937631Y2357999D02*
X1966096D01*
X1938406Y2358899D02*
X1966008D01*
X1910982Y2323799D02*
X1965981D01*
X1938203Y1964699D02*
X1965950D01*
X1962300Y1871099D02*
X1965652D01*
X1939783Y1961999D02*
X1965645D01*
X1939325Y1963799D02*
X1965496D01*
X1939730Y1962899D02*
X1965408D01*
X1964610Y1874699D02*
X1965393D01*
X1902800Y1873799D02*
X1965344D01*
X1957531Y1994399D02*
X1965252D01*
X1903002Y1871999D02*
X1965196D01*
X1902800Y1872899D02*
X1965108D01*
X1911625Y2319299D02*
X1965040D01*
X1909194Y2322899D02*
X1964650D01*
X1910735Y2320199D02*
X1964345D01*
X1902800Y2321999D02*
X1964196D01*
X1902800Y2321099D02*
X1964108D01*
X1939660Y1993499D02*
X1963937D01*
X1940598Y1946699D02*
X1963725D01*
X1909569Y1990799D02*
X1963530D01*
X1902800Y2181599D02*
X1963497D01*
X1902800Y1992599D02*
X1963487D01*
X1902800Y1991699D02*
X1963401D01*
X1955761Y2157299D02*
X1963239D01*
X1902800Y1874699D02*
X1963190D01*
X1940401Y1947599D02*
X1963161D01*
X1931798Y1949399D02*
X1963159D01*
X1939776Y1948499D02*
X1963000D01*
X1912395Y2177099D02*
X1962969D01*
X1956460Y2127599D02*
X1962540D01*
X1956465Y2134799D02*
X1962535D01*
X1909843Y2180699D02*
X1962375D01*
X1902800Y1879199D02*
X1962237D01*
X1910731Y1893599D02*
X1962217D01*
X1912250Y2177999D02*
X1962194D01*
X1956935Y2164499D02*
X1962065D01*
X1911200Y2179799D02*
X1961970D01*
X1911880Y2178899D02*
X1961917D01*
X1902800Y1875599D02*
X1961852D01*
X1912115Y1985399D02*
X1961771D01*
X1957293Y2158199D02*
X1961707D01*
X1939966Y1944899D02*
X1961617D01*
X1902800Y1878299D02*
X1961544D01*
X1957584Y2128499D02*
X1961416D01*
X1957587Y2133899D02*
X1961413D01*
X1902800Y1876499D02*
X1961396D01*
X1902800Y1877399D02*
X1961308D01*
X1957825Y2163599D02*
X1961175D01*
X1911821Y1954799D02*
X1961017D01*
X1958021Y2159099D02*
X1960979D01*
X1911096Y1989899D02*
X1960953D01*
X1958183Y2129399D02*
X1960817D01*
X1958184Y2132999D02*
X1960816D01*
X1958316Y2162699D02*
X1960684D01*
X1958420Y2159999D02*
X1960580D01*
X1911761Y1889099D02*
X1960527D01*
X1912356Y1986299D02*
X1960508D01*
X1958500Y2130299D02*
X1960500D01*
X1958500Y2132099D02*
X1960500D01*
X1958556Y2161799D02*
X1960444D01*
X1958589Y2160899D02*
X1960411D01*
X1958600Y2131199D02*
X1960400D01*
X1902800Y1892699D02*
X1960332D01*
X1911822Y1988999D02*
X1960237D01*
X1912389Y1987199D02*
X1960067D01*
X1912221Y1988099D02*
X1959989D01*
X1948775Y1940399D02*
X1959927D01*
X1910985Y1889999D02*
X1959901D01*
X1902800Y1891799D02*
X1959826D01*
X1948777Y1943999D02*
X1959732D01*
X1909206Y1890899D02*
X1959702D01*
X1931601Y1950299D02*
X1959327D01*
X1949339Y1941299D02*
X1959301D01*
X1949340Y1943099D02*
X1959226D01*
X1911093Y1953899D02*
X1959132D01*
X1949500Y1942199D02*
X1959102D01*
X1952860Y2065499D02*
X1958940D01*
X1952865Y2072699D02*
X1958935D01*
X1952282Y1918799D02*
X1958717D01*
X1930976Y1951199D02*
X1958701D01*
X1909561Y1952999D02*
X1958626D01*
X1902800Y1952099D02*
X1958502D01*
X1911984Y2198699D02*
X1958204D01*
X1953984Y2066399D02*
X1957816D01*
X1953987Y2071799D02*
X1957813D01*
X1954583Y2067299D02*
X1957217D01*
X1954584Y2070899D02*
X1957216D01*
X1911384Y2194199D02*
X1957125D01*
X1912300Y2197799D02*
X1957123D01*
X1953390Y1914299D02*
X1957027D01*
X1954900Y2068199D02*
X1956900D01*
X1954900Y2069999D02*
X1956900D01*
X1911387Y2199599D02*
X1956890D01*
X1952588Y1917899D02*
X1956832D01*
X1955000Y2069099D02*
X1956800D01*
X1911294Y2204099D02*
X1956712D01*
X1911983Y2195099D02*
X1956561D01*
X1912400Y2196899D02*
X1956560D01*
X1953751Y1915199D02*
X1956401D01*
X1912300Y2195999D02*
X1956400D01*
X1953452Y1916999D02*
X1956326D01*
X1953769Y1916099D02*
X1956202D01*
X1912340Y2217599D02*
X1956024D01*
X1910265Y2200499D02*
X1955910D01*
X1910064Y2203199D02*
X1955848D01*
X1911197Y2213999D02*
X1955834D01*
X1902800Y2201399D02*
X1955549D01*
X1902800Y2202299D02*
X1955531D01*
X1912395Y2216699D02*
X1955399D01*
X1911878Y2214899D02*
X1955327D01*
X1912249Y2215799D02*
X1955202D01*
X1911880Y1998899D02*
X1954997D01*
X1940355Y1994399D02*
X1954469D01*
X1944986Y1973699D02*
X1954125D01*
X1911625Y2229299D02*
X1954124D01*
X1912381Y1977299D02*
X1954123D01*
X1912220Y2225699D02*
X1953934D01*
X1938719Y1997999D02*
X1953875D01*
X1940592Y1995299D02*
X1953694D01*
X1944944Y1974599D02*
X1953561D01*
X1943918Y1976399D02*
X1953560D01*
X1912116Y2228399D02*
X1953499D01*
X1940050Y1997099D02*
X1953470D01*
X1912389Y2226599D02*
X1953427D01*
X1940504Y1996199D02*
X1953417D01*
X1944627Y1975499D02*
X1953400D01*
X1912356Y2227499D02*
X1953302D01*
X1912381Y2157299D02*
X1953239D01*
X1912340Y2127599D02*
X1952540D01*
X1911821Y2134799D02*
X1952535D01*
X1911623Y2164499D02*
X1952065D01*
X1912189Y2158199D02*
X1951707D01*
X1910862Y2243699D02*
X1951425D01*
X1912381Y2247299D02*
X1951423D01*
X1912075Y2128499D02*
X1951416D01*
X1911093Y2133899D02*
X1951413D01*
X1910731Y2163599D02*
X1951175D01*
X1911934Y1918799D02*
X1951161D01*
X1902800Y2401199D02*
X1951127D01*
X1911761Y2159099D02*
X1950979D01*
X1912300Y2375999D02*
X1950946D01*
X1911693Y2244599D02*
X1950861D01*
X1912369Y2246399D02*
X1950860D01*
X1911551Y2129399D02*
X1950817D01*
X1909561Y2132999D02*
X1950816D01*
X1912153Y2245499D02*
X1950700D01*
X1902800Y2162699D02*
X1950684D01*
X1910985Y2159999D02*
X1950580D01*
X1910064Y2383199D02*
X1950572D01*
X1910593Y2130299D02*
X1950500D01*
X1902800Y2132099D02*
X1950500D01*
X1911197Y2393999D02*
X1950445D01*
X1902800Y2161799D02*
X1950444D01*
X1909206Y2160899D02*
X1950411D01*
X1902800Y2131199D02*
X1950400D01*
X1911296Y1919699D02*
X1950225D01*
X1910260Y1923299D02*
X1950223D01*
X1910433Y1913399D02*
X1949990D01*
X1912277Y1917899D02*
X1949812D01*
X1910593Y2400299D02*
X1949793D01*
X1912400Y2376899D02*
X1949716D01*
X1910069Y1920599D02*
X1949661D01*
X1902800Y1922399D02*
X1949660D01*
X1902800Y2382299D02*
X1949538D01*
X1902800Y1921499D02*
X1949500D01*
X1911878Y2394899D02*
X1949474D01*
X1911551Y2399399D02*
X1949120D01*
X1912300Y2377799D02*
X1949077D01*
X1911469Y1914299D02*
X1949010D01*
X1902800Y2381399D02*
X1948978D01*
X1912399Y1916999D02*
X1948948D01*
X1912249Y2395799D02*
X1948942D01*
X1912153Y2065499D02*
X1948940D01*
X1902800Y2072699D02*
X1948935D01*
X1912075Y2398499D02*
X1948755D01*
X1911984Y2378699D02*
X1948734D01*
X1910265Y2380499D02*
X1948688D01*
X1912395Y2396699D02*
X1948673D01*
X1912030Y1915199D02*
X1948649D01*
X1912321Y1916099D02*
X1948631D01*
X1912340Y2397599D02*
X1948613D01*
X1911387Y2379599D02*
X1948611D01*
X1912369Y2066399D02*
X1947816D01*
X1902800Y2071799D02*
X1947813D01*
X1912381Y2067299D02*
X1947217D01*
X1909206Y2070899D02*
X1947216D01*
X1912189Y2068199D02*
X1946900D01*
X1910985Y2069999D02*
X1946900D01*
X1911761Y2069099D02*
X1946800D01*
X1910438Y1940399D02*
X1945025D01*
X1911197Y1943999D02*
X1945023D01*
X1902800Y1941299D02*
X1944461D01*
X1909836Y1943099D02*
X1944460D01*
X1902800Y1942199D02*
X1944300D01*
X1912389Y1956599D02*
X1943790D01*
X1939506Y1961099D02*
X1943612D01*
X1912356Y1957499D02*
X1942810D01*
X1938731Y1960199D02*
X1942748D01*
X1920999Y1970099D02*
X1942551D01*
X1926619Y1929599D02*
X1942504D01*
X1911549Y2444399D02*
X1942490D01*
X1912116Y1958399D02*
X1942449D01*
X1911625Y1959299D02*
X1942431D01*
X1912188Y1965599D02*
X1941940D01*
X1937699Y1934099D02*
X1941649D01*
X1921421Y1969199D02*
X1941550D01*
X1911200Y2449799D02*
X1941482D01*
X1920479Y1966499D02*
X1941245D01*
X1910265Y1930499D02*
X1941221D01*
X1912074Y2445299D02*
X1941187D01*
X1921486Y1968299D02*
X1941096D01*
X1921224Y1967399D02*
X1941008D01*
X1910064Y1933199D02*
X1940940D01*
X1902800Y1931399D02*
X1940776D01*
X1911880Y2448899D02*
X1940773D01*
X1902800Y1932299D02*
X1940695D01*
X1919814Y1970999D02*
X1940690D01*
X1912340Y2446199D02*
X1940634D01*
X1912250Y2447999D02*
X1940456D01*
X1912395Y2447099D02*
X1940414D01*
X1912030Y2005199D02*
X1940190D01*
X1911296Y2009699D02*
X1940012D01*
X1902800Y2262599D02*
X1939984D01*
X1912250Y2267999D02*
X1939980D01*
X1912369Y1976399D02*
X1939682D01*
X1902800Y1971899D02*
X1939387D01*
X1912321Y2006099D02*
X1939210D01*
X1911934Y2008799D02*
X1939148D01*
X1910589Y2263499D02*
X1939055D01*
X1912395Y2267099D02*
X1939053D01*
X1912153Y1975499D02*
X1938973D01*
X1912399Y2006999D02*
X1938849D01*
X1902800Y1972799D02*
X1938834D01*
X1912277Y2007899D02*
X1938831D01*
X1911693Y1974599D02*
X1938656D01*
X1911549Y2264399D02*
X1938630D01*
X1912340Y2266199D02*
X1938629D01*
X1910862Y1973699D02*
X1938614D01*
X1912074Y2265299D02*
X1938500D01*
X1909569Y2260799D02*
X1937601D01*
X1912250Y1997999D02*
X1937281D01*
X1910589Y1993499D02*
X1936340D01*
X1931673Y1948499D02*
X1936224D01*
X1911759Y1964699D02*
X1936197D01*
X1912115Y2255399D02*
X1936176D01*
X1911096Y2259899D02*
X1936075D01*
X1911878Y1944899D02*
X1936034D01*
X1912395Y1997099D02*
X1935950D01*
X1910735Y1960199D02*
X1935669D01*
X1911549Y1994399D02*
X1935645D01*
X1931166Y1947599D02*
X1935599D01*
X1911294Y1934099D02*
X1935546D01*
X1912249Y1945799D02*
X1935527D01*
X1912356Y2256299D02*
X1935523D01*
X1912340Y1996199D02*
X1935496D01*
X1911822Y2258999D02*
X1935475D01*
X1912074Y1995299D02*
X1935408D01*
X1912395Y1946699D02*
X1935402D01*
X1912389Y2257199D02*
X1935239D01*
X1912221Y2258099D02*
X1935225D01*
X1912032Y1938599D02*
X1935136D01*
X1902800Y2362499D02*
X1935097D01*
X1910982Y1963799D02*
X1935075D01*
X1902800Y1961099D02*
X1934894D01*
X1909194Y1962899D02*
X1934670D01*
X1902800Y1961999D02*
X1934617D01*
X1912250Y2357999D02*
X1934569D01*
X1911933Y1934999D02*
X1934476D01*
X1912321Y1937699D02*
X1934333D01*
X1912276Y1935899D02*
X1934085D01*
X1912399Y1936799D02*
X1934044D01*
X1902800Y2361599D02*
X1933975D01*
X1902800Y2311199D02*
X1933844D01*
X1911880Y2358899D02*
X1933794D01*
X1909843Y2360699D02*
X1933570D01*
X1911200Y2359799D02*
X1933517D01*
X1912249Y2305799D02*
X1933204D01*
X1910593Y2310299D02*
X1932701D01*
X1912395Y2306699D02*
X1932429D01*
X1911551Y2309399D02*
X1932195D01*
X1912340Y2307599D02*
X1932078D01*
X1912075Y2308499D02*
X1932006D01*
X1902800Y1951199D02*
X1927424D01*
X1912340Y1947599D02*
X1927234D01*
X1910593Y1950299D02*
X1926799D01*
X1912075Y1948499D02*
X1926727D01*
X1911551Y1949399D02*
X1926602D01*
X1911387Y1929599D02*
X1925181D01*
X1911983Y1925099D02*
X1924240D01*
X1911984Y1928699D02*
X1923850D01*
X1912300Y1925999D02*
X1923545D01*
X1912300Y1927799D02*
X1923396D01*
X1912400Y1926899D02*
X1923308D01*
X1912276Y2025899D02*
X1920290D01*
X1910438Y2030399D02*
X1919337D01*
X1912399Y2026799D02*
X1918952D01*
X1911471Y2029499D02*
X1918644D01*
X1912321Y2027699D02*
X1918496D01*
X1912032Y2028599D02*
X1918408D01*
X1908405Y1970999D02*
X1917986D01*
X1912189Y1978199D02*
X1917790D01*
X1902800Y1982699D02*
X1917412D01*
X1912380Y1966499D02*
X1917321D01*
X1910865Y1970099D02*
X1916801D01*
X1911761Y1979099D02*
X1916733D01*
X1902800Y1981799D02*
X1916602D01*
X1912370Y1967399D02*
X1916576D01*
X1911695Y1969199D02*
X1916379D01*
X1910985Y1979999D02*
X1916346D01*
X1912154Y1968299D02*
X1916314D01*
X1909206Y1980899D02*
X1916308D01*
X1902800Y2420999D02*
X1908195D01*
X1902800Y2330999D02*
X1908195D01*
X1902800Y2240999D02*
X1908195D01*
X1902800Y2150999D02*
X1908195D01*
X1902800Y2060999D02*
X1908195D01*
X1902800Y1970999D02*
X1908195D01*
X1902800Y2412899D02*
X1907406D01*
X1902800Y2322899D02*
X1907406D01*
X1902800Y2232899D02*
X1907406D01*
X1902800Y2142899D02*
X1907406D01*
X1902800Y2052899D02*
X1907406D01*
X1902800Y1962899D02*
X1907406D01*
X1902800Y2430899D02*
X1907394D01*
X1902800Y2340899D02*
X1907394D01*
X1902800Y2250899D02*
X1907394D01*
X1902800Y2160899D02*
X1907394D01*
X1902800Y2070899D02*
X1907394D01*
X1902800Y1980899D02*
X1907394D01*
X1902800Y1890899D02*
X1907394D01*
X1902800Y2402999D02*
X1907039D01*
X1902800Y2312999D02*
X1907039D01*
X1902800Y2222999D02*
X1907039D01*
X1902800Y2132999D02*
X1907039D01*
X1902800Y2042999D02*
X1907039D01*
X1902800Y1952999D02*
X1907039D01*
X1902800Y2440799D02*
X1907031D01*
X1902800Y2350799D02*
X1907031D01*
X1902800Y2260799D02*
X1907031D01*
X1902800Y2170799D02*
X1907031D01*
X1902800Y2080799D02*
X1907031D01*
X1902800Y1990799D02*
X1907031D01*
X1902800Y1900799D02*
X1907031D01*
X1902800Y2393099D02*
X1906764D01*
X1902800Y2303099D02*
X1906764D01*
X1902800Y2213099D02*
X1906764D01*
X1902800Y2123099D02*
X1906764D01*
X1902800Y2033099D02*
X1906764D01*
X1902800Y1943099D02*
X1906764D01*
X1902800Y2450699D02*
X1906757D01*
X1902800Y2360699D02*
X1906757D01*
X1902800Y2270699D02*
X1906757D01*
X1902800Y2180699D02*
X1906757D01*
X1902800Y2090699D02*
X1906757D01*
X1902800Y2000699D02*
X1906757D01*
X1902800Y1910699D02*
X1906757D01*
X1902800Y2383199D02*
X1906536D01*
X1902800Y2293199D02*
X1906536D01*
X1902800Y2203199D02*
X1906536D01*
X1902800Y2113199D02*
X1906536D01*
X1902800Y2023199D02*
X1906536D01*
X1902800Y1933199D02*
X1906536D01*
X1902800Y2460599D02*
X1906531D01*
X1902800Y2370599D02*
X1906531D01*
X1902800Y2280599D02*
X1906531D01*
X1902800Y2190599D02*
X1906531D01*
X1902800Y2100599D02*
X1906531D01*
X1902800Y2010599D02*
X1906531D01*
X1902800Y1920599D02*
X1906531D01*
X1902800Y2373299D02*
X1906340D01*
X1902800Y2283299D02*
X1906340D01*
X1902800Y2193299D02*
X1906340D01*
X1902800Y2103299D02*
X1906340D01*
X1902800Y2013299D02*
X1906340D01*
X1902800Y1923299D02*
X1906340D01*
X1902800Y2380499D02*
X1906335D01*
X1902800Y2290499D02*
X1906335D01*
X1902800Y2200499D02*
X1906335D01*
X1902800Y2110499D02*
X1906335D01*
X1902800Y2020499D02*
X1906335D01*
X1902800Y1930499D02*
X1906335D01*
X1902800Y2453399D02*
X1906167D01*
X1902800Y2363399D02*
X1906167D01*
X1902800Y2273399D02*
X1906167D01*
X1902800Y2183399D02*
X1906167D01*
X1902800Y2093399D02*
X1906167D01*
X1902800Y2003399D02*
X1906167D01*
X1902800Y1913399D02*
X1906167D01*
X1902800Y2390399D02*
X1906162D01*
X1902800Y2300399D02*
X1906162D01*
X1902800Y2210399D02*
X1906162D01*
X1902800Y2120399D02*
X1906162D01*
X1902800Y2030399D02*
X1906162D01*
X1902800Y1940399D02*
X1906162D01*
X1902800Y2443499D02*
X1906011D01*
X1902800Y2353499D02*
X1906011D01*
X1902800Y2263499D02*
X1906011D01*
X1902800Y2173499D02*
X1906011D01*
X1902800Y2083499D02*
X1906011D01*
X1902800Y1993499D02*
X1906011D01*
X1902800Y1903499D02*
X1906011D01*
X1902800Y2400299D02*
X1906007D01*
X1902800Y2310299D02*
X1906007D01*
X1902800Y2220299D02*
X1906007D01*
X1902800Y2130299D02*
X1906007D01*
X1902800Y2040299D02*
X1906007D01*
X1902800Y1950299D02*
X1906007D01*
X1902800Y2433599D02*
X1905869D01*
X1902800Y2343599D02*
X1905869D01*
X1902800Y2253599D02*
X1905869D01*
X1902800Y2163599D02*
X1905869D01*
X1902800Y2073599D02*
X1905869D01*
X1902800Y1983599D02*
X1905869D01*
X1902800Y1893599D02*
X1905869D01*
X1902800Y2410199D02*
X1905865D01*
X1902800Y2320199D02*
X1905865D01*
X1902800Y2230199D02*
X1905865D01*
X1902800Y2140199D02*
X1905865D01*
X1902800Y2050199D02*
X1905865D01*
X1902800Y1960199D02*
X1905865D01*
X1902800Y2423699D02*
X1905738D01*
X1902800Y2333699D02*
X1905738D01*
X1902800Y2243699D02*
X1905738D01*
X1902800Y2153699D02*
X1905738D01*
X1902800Y2063699D02*
X1905738D01*
X1902800Y1973699D02*
X1905738D01*
X1902800Y1883699D02*
X1905738D01*
X1902800Y2420099D02*
X1905735D01*
X1902800Y2330099D02*
X1905735D01*
X1902800Y2240099D02*
X1905735D01*
X1902800Y2150099D02*
X1905735D01*
X1902800Y2060099D02*
X1905735D01*
X1902800Y1970099D02*
X1905735D01*
X1902800Y2413799D02*
X1905618D01*
X1902800Y2323799D02*
X1905618D01*
X1902800Y2233799D02*
X1905618D01*
X1902800Y2143799D02*
X1905618D01*
X1902800Y2053799D02*
X1905618D01*
X1902800Y1963799D02*
X1905618D01*
X1902800Y2429999D02*
X1905615D01*
X1902800Y2339999D02*
X1905615D01*
X1902800Y2249999D02*
X1905615D01*
X1902800Y2159999D02*
X1905615D01*
X1902800Y2069999D02*
X1905615D01*
X1902800Y1979999D02*
X1905615D01*
X1902800Y1889999D02*
X1905615D01*
X1902800Y2403899D02*
X1905507D01*
X1902800Y2313899D02*
X1905507D01*
X1902800Y2223899D02*
X1905507D01*
X1902800Y2133899D02*
X1905507D01*
X1902800Y2043899D02*
X1905507D01*
X1902800Y1953899D02*
X1905507D01*
X1902800Y2439899D02*
X1905504D01*
X1902800Y2349899D02*
X1905504D01*
X1902800Y2259899D02*
X1905504D01*
X1902800Y2169899D02*
X1905504D01*
X1902800Y2079899D02*
X1905504D01*
X1902800Y1989899D02*
X1905504D01*
X1902800Y1899899D02*
X1905504D01*
X1902800Y2393999D02*
X1905403D01*
X1902800Y2303999D02*
X1905403D01*
X1902800Y2213999D02*
X1905403D01*
X1902800Y2123999D02*
X1905403D01*
X1902800Y2033999D02*
X1905403D01*
X1902800Y1943999D02*
X1905403D01*
X1902800Y2449799D02*
X1905400D01*
X1902800Y2359799D02*
X1905400D01*
X1902800Y2269799D02*
X1905400D01*
X1902800Y2179799D02*
X1905400D01*
X1902800Y2089799D02*
X1905400D01*
X1902800Y1999799D02*
X1905400D01*
X1902800Y1909799D02*
X1905400D01*
X1902800Y2384099D02*
X1905306D01*
X1902800Y2294099D02*
X1905306D01*
X1902800Y2204099D02*
X1905306D01*
X1902800Y2114099D02*
X1905306D01*
X1902800Y2024099D02*
X1905306D01*
X1902800Y1934099D02*
X1905306D01*
X1902800Y2459699D02*
X1905304D01*
X1902800Y2369699D02*
X1905304D01*
X1902800Y2279699D02*
X1905304D01*
X1902800Y2189699D02*
X1905304D01*
X1902800Y2099699D02*
X1905304D01*
X1902800Y2009699D02*
X1905304D01*
X1902800Y1919699D02*
X1905304D01*
X1902800Y2374199D02*
X1905216D01*
X1902800Y2284199D02*
X1905216D01*
X1902800Y2194199D02*
X1905216D01*
X1902800Y2104199D02*
X1905216D01*
X1902800Y2014199D02*
X1905216D01*
X1902800Y1924199D02*
X1905216D01*
X1902800Y2379599D02*
X1905213D01*
X1902800Y2289599D02*
X1905213D01*
X1902800Y2199599D02*
X1905213D01*
X1902800Y2109599D02*
X1905213D01*
X1902800Y2019599D02*
X1905213D01*
X1902800Y1929599D02*
X1905213D01*
X1902800Y2454299D02*
X1905131D01*
X1902800Y2364299D02*
X1905131D01*
X1902800Y2274299D02*
X1905131D01*
X1902800Y2184299D02*
X1905131D01*
X1902800Y2094299D02*
X1905131D01*
X1902800Y2004299D02*
X1905131D01*
X1902800Y1914299D02*
X1905131D01*
X1902800Y2389499D02*
X1905129D01*
X1902800Y2299499D02*
X1905129D01*
X1902800Y2209499D02*
X1905129D01*
X1902800Y2119499D02*
X1905129D01*
X1902800Y2029499D02*
X1905129D01*
X1902800Y1939499D02*
X1905129D01*
X1902800Y2444399D02*
X1905051D01*
X1902800Y2354399D02*
X1905051D01*
X1902800Y2264399D02*
X1905051D01*
X1902800Y2174399D02*
X1905051D01*
X1902800Y2084399D02*
X1905051D01*
X1902800Y1994399D02*
X1905051D01*
X1902800Y1904399D02*
X1905051D01*
X1902800Y2399399D02*
X1905049D01*
X1902800Y2309399D02*
X1905049D01*
X1902800Y2219399D02*
X1905049D01*
X1902800Y2129399D02*
X1905049D01*
X1902800Y2039399D02*
X1905049D01*
X1902800Y1949399D02*
X1905049D01*
X1902800Y2434499D02*
X1904977D01*
X1902800Y2344499D02*
X1904977D01*
X1902800Y2254499D02*
X1904977D01*
X1902800Y2164499D02*
X1904977D01*
X1902800Y2074499D02*
X1904977D01*
X1902800Y1984499D02*
X1904977D01*
X1902800Y1894499D02*
X1904977D01*
X1902800Y2409299D02*
X1904975D01*
X1902800Y2319299D02*
X1904975D01*
X1902800Y2229299D02*
X1904975D01*
X1902800Y2139299D02*
X1904975D01*
X1902800Y2049299D02*
X1904975D01*
X1902800Y1959299D02*
X1904975D01*
X1902800Y2424599D02*
X1904907D01*
X1902800Y2334599D02*
X1904907D01*
X1902800Y2244599D02*
X1904907D01*
X1902800Y2154599D02*
X1904907D01*
X1902800Y2064599D02*
X1904907D01*
X1902800Y1974599D02*
X1904907D01*
X1902800Y1884599D02*
X1904907D01*
X1902800Y2419199D02*
X1904905D01*
X1902800Y2329199D02*
X1904905D01*
X1902800Y2239199D02*
X1904905D01*
X1902800Y2149199D02*
X1904905D01*
X1902800Y2059199D02*
X1904905D01*
X1902800Y1969199D02*
X1904905D01*
X1902800Y2414699D02*
X1904841D01*
X1902800Y2324699D02*
X1904841D01*
X1902800Y2234699D02*
X1904841D01*
X1902800Y2144699D02*
X1904841D01*
X1902800Y2054699D02*
X1904841D01*
X1902800Y1964699D02*
X1904841D01*
X1902800Y2429099D02*
X1904839D01*
X1902800Y2339099D02*
X1904839D01*
X1902800Y2249099D02*
X1904839D01*
X1902800Y2159099D02*
X1904839D01*
X1902800Y2069099D02*
X1904839D01*
X1902800Y1979099D02*
X1904839D01*
X1902800Y1889099D02*
X1904839D01*
X1902800Y2404799D02*
X1904779D01*
X1902800Y2314799D02*
X1904779D01*
X1902800Y2224799D02*
X1904779D01*
X1902800Y2134799D02*
X1904779D01*
X1902800Y2044799D02*
X1904779D01*
X1902800Y1954799D02*
X1904779D01*
X1902800Y2438999D02*
X1904778D01*
X1902800Y2348999D02*
X1904778D01*
X1902800Y2258999D02*
X1904778D01*
X1902800Y2168999D02*
X1904778D01*
X1902800Y2078999D02*
X1904778D01*
X1902800Y1988999D02*
X1904778D01*
X1902800Y1898999D02*
X1904778D01*
X1902800Y2394899D02*
X1904722D01*
X1902800Y2304899D02*
X1904722D01*
X1902800Y2214899D02*
X1904722D01*
X1902800Y2124899D02*
X1904722D01*
X1902800Y2034899D02*
X1904722D01*
X1902800Y1944899D02*
X1904722D01*
X1902800Y2448899D02*
X1904720D01*
X1902800Y2358899D02*
X1904720D01*
X1902800Y2268899D02*
X1904720D01*
X1902800Y2178899D02*
X1904720D01*
X1902800Y2088899D02*
X1904720D01*
X1902800Y1998899D02*
X1904720D01*
X1902800Y1908899D02*
X1904720D01*
X1902800Y2384999D02*
X1904667D01*
X1902800Y2294999D02*
X1904667D01*
X1902800Y2204999D02*
X1904667D01*
X1902800Y2114999D02*
X1904667D01*
X1902800Y2024999D02*
X1904667D01*
X1902800Y1934999D02*
X1904667D01*
X1902800Y2458799D02*
X1904666D01*
X1902800Y2368799D02*
X1904666D01*
X1902800Y2278799D02*
X1904666D01*
X1902800Y2188799D02*
X1904666D01*
X1902800Y2098799D02*
X1904666D01*
X1902800Y2008799D02*
X1904666D01*
X1902800Y1918799D02*
X1904666D01*
X1902800Y2375099D02*
X1904617D01*
X1902800Y2285099D02*
X1904617D01*
X1902800Y2195099D02*
X1904617D01*
X1902800Y2105099D02*
X1904617D01*
X1902800Y2015099D02*
X1904617D01*
X1902800Y1925099D02*
X1904617D01*
X1902800Y2378699D02*
X1904616D01*
X1902800Y2288699D02*
X1904616D01*
X1902800Y2198699D02*
X1904616D01*
X1902800Y2108699D02*
X1904616D01*
X1902800Y2018699D02*
X1904616D01*
X1902800Y1928699D02*
X1904616D01*
X1902800Y2455199D02*
X1904570D01*
X1902800Y2365199D02*
X1904570D01*
X1902800Y2275199D02*
X1904570D01*
X1902800Y2185199D02*
X1904570D01*
X1902800Y2095199D02*
X1904570D01*
X1902800Y2005199D02*
X1904570D01*
X1902800Y1915199D02*
X1904570D01*
X1902800Y2388599D02*
X1904568D01*
X1902800Y2298599D02*
X1904568D01*
X1902800Y2208599D02*
X1904568D01*
X1902800Y2118599D02*
X1904568D01*
X1902800Y2028599D02*
X1904568D01*
X1902800Y1938599D02*
X1904568D01*
X1902800Y2445299D02*
X1904526D01*
X1902800Y2355299D02*
X1904526D01*
X1902800Y2265299D02*
X1904526D01*
X1902800Y2175299D02*
X1904526D01*
X1902800Y2085299D02*
X1904526D01*
X1902800Y1995299D02*
X1904526D01*
X1902800Y1905299D02*
X1904526D01*
X1902800Y2398499D02*
X1904525D01*
X1902800Y2308499D02*
X1904525D01*
X1902800Y2218499D02*
X1904525D01*
X1902800Y2128499D02*
X1904525D01*
X1902800Y2038499D02*
X1904525D01*
X1902800Y1948499D02*
X1904525D01*
X1902800Y2435399D02*
X1904485D01*
X1902800Y2345399D02*
X1904485D01*
X1902800Y2255399D02*
X1904485D01*
X1902800Y2165399D02*
X1904485D01*
X1902800Y2075399D02*
X1904485D01*
X1902800Y1985399D02*
X1904485D01*
X1902800Y1895399D02*
X1904485D01*
X1902800Y2408399D02*
X1904484D01*
X1902800Y2318399D02*
X1904484D01*
X1902800Y2228399D02*
X1904484D01*
X1902800Y2138399D02*
X1904484D01*
X1902800Y2048399D02*
X1904484D01*
X1902800Y1958399D02*
X1904484D01*
X1902800Y2425499D02*
X1904447D01*
X1902800Y2335499D02*
X1904447D01*
X1902800Y2245499D02*
X1904447D01*
X1902800Y2155499D02*
X1904447D01*
X1902800Y2065499D02*
X1904447D01*
X1902800Y1975499D02*
X1904447D01*
X1902800Y1885499D02*
X1904447D01*
X1902800Y2418299D02*
X1904446D01*
X1902800Y2328299D02*
X1904446D01*
X1902800Y2238299D02*
X1904446D01*
X1902800Y2148299D02*
X1904446D01*
X1902800Y2058299D02*
X1904446D01*
X1902800Y1968299D02*
X1904446D01*
X1902800Y2415599D02*
X1904412D01*
X1902800Y2325599D02*
X1904412D01*
X1902800Y2235599D02*
X1904412D01*
X1902800Y2145599D02*
X1904412D01*
X1902800Y2055599D02*
X1904412D01*
X1902800Y1965599D02*
X1904412D01*
X1902800Y2428199D02*
X1904411D01*
X1902800Y2338199D02*
X1904411D01*
X1902800Y2248199D02*
X1904411D01*
X1902800Y2158199D02*
X1904411D01*
X1902800Y2068199D02*
X1904411D01*
X1902800Y1978199D02*
X1904411D01*
X1902800Y1888199D02*
X1904411D01*
X1902800Y2405699D02*
X1904380D01*
X1902800Y2315699D02*
X1904380D01*
X1902800Y2225699D02*
X1904380D01*
X1902800Y2135699D02*
X1904380D01*
X1902800Y2045699D02*
X1904380D01*
X1902800Y1955699D02*
X1904380D01*
X1902800Y2438099D02*
X1904379D01*
X1902800Y2348099D02*
X1904379D01*
X1902800Y2258099D02*
X1904379D01*
X1902800Y2168099D02*
X1904379D01*
X1902800Y2078099D02*
X1904379D01*
X1902800Y1988099D02*
X1904379D01*
X1902800Y1898099D02*
X1904379D01*
X1902800Y2395799D02*
X1904351D01*
X1902800Y2305799D02*
X1904351D01*
X1902800Y2215799D02*
X1904351D01*
X1902800Y2125799D02*
X1904351D01*
X1902800Y2035799D02*
X1904351D01*
X1902800Y1945799D02*
X1904351D01*
X1902800Y2447999D02*
X1904350D01*
X1902800Y2357999D02*
X1904350D01*
X1902800Y2267999D02*
X1904350D01*
X1902800Y2177999D02*
X1904350D01*
X1902800Y2087999D02*
X1904350D01*
X1902800Y1997999D02*
X1904350D01*
X1902800Y1907999D02*
X1904350D01*
X1902800Y2385899D02*
X1904324D01*
X1902800Y2295899D02*
X1904324D01*
X1902800Y2205899D02*
X1904324D01*
X1902800Y2115899D02*
X1904324D01*
X1902800Y2025899D02*
X1904324D01*
X1902800Y1935899D02*
X1904324D01*
X1902800Y2457899D02*
X1904323D01*
X1902800Y2367899D02*
X1904323D01*
X1902800Y2277899D02*
X1904323D01*
X1902800Y2187899D02*
X1904323D01*
X1902800Y2097899D02*
X1904323D01*
X1902800Y2007899D02*
X1904323D01*
X1902800Y1917899D02*
X1904323D01*
X1902800Y2375999D02*
X1904300D01*
X1902800Y2285999D02*
X1904300D01*
X1902800Y2195999D02*
X1904300D01*
X1902800Y2105999D02*
X1904300D01*
X1902800Y2015999D02*
X1904300D01*
X1902800Y1925999D02*
X1904300D01*
X1902800Y2377799D02*
X1904300D01*
X1902800Y2287799D02*
X1904300D01*
X1902800Y2197799D02*
X1904300D01*
X1902800Y2107799D02*
X1904300D01*
X1902800Y2017799D02*
X1904300D01*
X1902800Y1927799D02*
X1904300D01*
X1902800Y2456099D02*
X1904279D01*
X1902800Y2366099D02*
X1904279D01*
X1902800Y2276099D02*
X1904279D01*
X1902800Y2186099D02*
X1904279D01*
X1902800Y2096099D02*
X1904279D01*
X1902800Y2006099D02*
X1904279D01*
X1902800Y1916099D02*
X1904279D01*
X1902800Y2387699D02*
X1904279D01*
X1902800Y2297699D02*
X1904279D01*
X1902800Y2207699D02*
X1904279D01*
X1902800Y2117699D02*
X1904279D01*
X1902800Y2027699D02*
X1904279D01*
X1902800Y1937699D02*
X1904279D01*
X1902800Y2446199D02*
X1904260D01*
X1902800Y2356199D02*
X1904260D01*
X1902800Y2266199D02*
X1904260D01*
X1902800Y2176199D02*
X1904260D01*
X1902800Y2086199D02*
X1904260D01*
X1902800Y1996199D02*
X1904260D01*
X1902800Y1906199D02*
X1904260D01*
X1902800Y2397599D02*
X1904260D01*
X1902800Y2307599D02*
X1904260D01*
X1902800Y2217599D02*
X1904260D01*
X1902800Y2127599D02*
X1904260D01*
X1902800Y2037599D02*
X1904260D01*
X1902800Y1947599D02*
X1904260D01*
X1902800Y2436299D02*
X1904244D01*
X1902800Y2346299D02*
X1904244D01*
X1902800Y2256299D02*
X1904244D01*
X1902800Y2166299D02*
X1904244D01*
X1902800Y2076299D02*
X1904244D01*
X1902800Y1986299D02*
X1904244D01*
X1902800Y1896299D02*
X1904244D01*
X1902800Y2407499D02*
X1904244D01*
X1902800Y2317499D02*
X1904244D01*
X1902800Y2227499D02*
X1904244D01*
X1902800Y2137499D02*
X1904244D01*
X1902800Y2047499D02*
X1904244D01*
X1902800Y1957499D02*
X1904244D01*
X1902800Y2426399D02*
X1904231D01*
X1902800Y2336399D02*
X1904231D01*
X1902800Y2246399D02*
X1904231D01*
X1902800Y2156399D02*
X1904231D01*
X1902800Y2066399D02*
X1904231D01*
X1902800Y1976399D02*
X1904231D01*
X1902800Y1886399D02*
X1904231D01*
X1902800Y2417399D02*
X1904230D01*
X1902800Y2327399D02*
X1904230D01*
X1902800Y2237399D02*
X1904230D01*
X1902800Y2147399D02*
X1904230D01*
X1902800Y2057399D02*
X1904230D01*
X1902800Y1967399D02*
X1904230D01*
X1902800Y2416499D02*
X1904220D01*
X1902800Y2326499D02*
X1904220D01*
X1902800Y2236499D02*
X1904220D01*
X1902800Y2146499D02*
X1904220D01*
X1902800Y2056499D02*
X1904220D01*
X1902800Y1966499D02*
X1904220D01*
X1902800Y2427299D02*
X1904219D01*
X1902800Y2337299D02*
X1904219D01*
X1902800Y2247299D02*
X1904219D01*
X1902800Y2157299D02*
X1904219D01*
X1902800Y2067299D02*
X1904219D01*
X1902800Y1977299D02*
X1904219D01*
X1902800Y1887299D02*
X1904219D01*
X1902800Y2406599D02*
X1904211D01*
X1902800Y2316599D02*
X1904211D01*
X1902800Y2226599D02*
X1904211D01*
X1902800Y2136599D02*
X1904211D01*
X1902800Y2046599D02*
X1904211D01*
X1902800Y1956599D02*
X1904211D01*
X1902800Y2437199D02*
X1904211D01*
X1902800Y2347199D02*
X1904211D01*
X1902800Y2257199D02*
X1904211D01*
X1902800Y2167199D02*
X1904211D01*
X1902800Y2077199D02*
X1904211D01*
X1902800Y1987199D02*
X1904211D01*
X1902800Y1897199D02*
X1904211D01*
X1902800Y2396699D02*
X1904205D01*
X1902800Y2306699D02*
X1904205D01*
X1902800Y2216699D02*
X1904205D01*
X1902800Y2126699D02*
X1904205D01*
X1902800Y2036699D02*
X1904205D01*
X1902800Y1946699D02*
X1904205D01*
X1902800Y2447099D02*
X1904205D01*
X1902800Y2357099D02*
X1904205D01*
X1902800Y2267099D02*
X1904205D01*
X1902800Y2177099D02*
X1904205D01*
X1902800Y2087099D02*
X1904205D01*
X1902800Y1997099D02*
X1904205D01*
X1902800Y1907099D02*
X1904205D01*
X1902800Y2386799D02*
X1904201D01*
X1902800Y2296799D02*
X1904201D01*
X1902800Y2206799D02*
X1904201D01*
X1902800Y2116799D02*
X1904201D01*
X1902800Y2026799D02*
X1904201D01*
X1902800Y1936799D02*
X1904201D01*
X1902800Y2456999D02*
X1904201D01*
X1902800Y2366999D02*
X1904201D01*
X1902800Y2276999D02*
X1904201D01*
X1902800Y2186999D02*
X1904201D01*
X1902800Y2096999D02*
X1904201D01*
X1902800Y2006999D02*
X1904201D01*
X1902800Y1916999D02*
X1904201D01*
X1902800Y2376899D02*
X1904200D01*
X1902800Y2286899D02*
X1904200D01*
X1902800Y2196899D02*
X1904200D01*
X1902800Y2106899D02*
X1904200D01*
X1902800Y2016899D02*
X1904200D01*
X1902800Y1926899D02*
X1904200D01*
X2007535Y1898099D02*
X2008918D01*
X2006281Y1898999D02*
X2008721D01*
X2007531Y1899899D02*
X2008715D01*
X2057081Y2204999D02*
X2060440D01*
X2057283Y2205899D02*
X2059956D01*
X2057317Y2207699D02*
X2059652D01*
X2057230Y2206799D02*
X2059636D01*
X2059095Y2208599D02*
X2059391D01*
G54D28*
X2055800Y2351900D03*
X2018600Y2436400D03*
G54D29*
X1984310Y1884599D02*
X1985088Y1883821D01*
X1984310Y1878801D02*
X1985088Y1879579D01*
X1990109Y1878801D02*
X1989331Y1879579D01*
X1990109Y1884599D02*
X1989331Y1883821D01*
X2052901Y2342799D02*
X2053679Y2342021D01*
X2052901Y2337001D02*
X2053679Y2337779D01*
X2058699Y2337001D02*
X2057921Y2337779D01*
X2058699Y2342799D02*
X2057921Y2342021D01*
X2052901Y2302799D02*
X2053679Y2302021D01*
X2052901Y2297001D02*
X2053679Y2297779D01*
X2058699Y2297001D02*
X2057921Y2297779D01*
X2058699Y2302799D02*
X2057921Y2302021D01*
X2076663Y1884437D02*
X2075885Y1885215D01*
X2076663Y1888963D02*
X2075885Y1888185D01*
X2016017Y2220783D02*
X2015239Y2221561D01*
X2016017Y2240017D02*
X2015239Y2239239D01*
X1996783Y2240017D02*
X1997561Y2239239D01*
X1996783Y2220783D02*
X1997561Y2221561D01*
X1949810Y2382599D02*
X1950588Y2381821D01*
X1949810Y2376801D02*
X1950588Y2377579D01*
X1955609Y2376801D02*
X1954831Y2377579D01*
X1955609Y2382599D02*
X1954831Y2381821D01*
X1975401Y2382599D02*
X1976179Y2381821D01*
X1975401Y2376801D02*
X1976179Y2377579D01*
X1981199Y2376801D02*
X1980421Y2377579D01*
X1981199Y2382599D02*
X1980421Y2381821D01*
X2084299Y2122601D02*
X2083521Y2123379D01*
X2084299Y2128399D02*
X2083521Y2127621D01*
X2078501Y2128399D02*
X2079279Y2127621D01*
X2078501Y2122601D02*
X2079279Y2123379D01*
X2084299Y2112601D02*
X2083521Y2113379D01*
X2084299Y2118399D02*
X2083521Y2117621D01*
X2078501Y2118399D02*
X2079279Y2117621D01*
X2078501Y2112601D02*
X2079279Y2113379D01*
X2084299Y2102601D02*
X2083521Y2103379D01*
X2084299Y2108399D02*
X2083521Y2107621D01*
X2078501Y2108399D02*
X2079279Y2107621D01*
X2078501Y2102601D02*
X2079279Y2103379D01*
X2084299Y2092601D02*
X2083521Y2093379D01*
X2084299Y2098399D02*
X2083521Y2097621D01*
X2078501Y2098399D02*
X2079279Y2097621D01*
X2078501Y2092601D02*
X2079279Y2093379D01*
X2084299Y2082601D02*
X2083521Y2083379D01*
X2084299Y2088399D02*
X2083521Y2087621D01*
X2078501Y2088399D02*
X2079279Y2087621D01*
X2078501Y2082601D02*
X2079279Y2083379D01*
X2084299Y2072601D02*
X2083521Y2073379D01*
X2084299Y2078399D02*
X2083521Y2077621D01*
X2078501Y2078399D02*
X2079279Y2077621D01*
X2078501Y2072601D02*
X2079279Y2073379D01*
X2084299Y2062601D02*
X2083521Y2063379D01*
X2084299Y2068399D02*
X2083521Y2067621D01*
X2078501Y2068399D02*
X2079279Y2067621D01*
X2078501Y2062601D02*
X2079279Y2063379D01*
X2084299Y2052601D02*
X2083521Y2053379D01*
X2084299Y2058399D02*
X2083521Y2057621D01*
X2078501Y2058399D02*
X2079279Y2057621D01*
X2078501Y2052601D02*
X2079279Y2053379D01*
X2084299Y2042601D02*
X2083521Y2043379D01*
X2084299Y2048399D02*
X2083521Y2047621D01*
X2078501Y2048399D02*
X2079279Y2047621D01*
X2078501Y2042601D02*
X2079279Y2043379D01*
X2084299Y2032601D02*
X2083521Y2033379D01*
X2084299Y2038399D02*
X2083521Y2037621D01*
X2078501Y2038399D02*
X2079279Y2037621D01*
X2078501Y2032601D02*
X2079279Y2033379D01*
X1911199Y2449799D02*
X1910421Y2449021D01*
X1905401Y2449799D02*
X1906179Y2449021D01*
X1905401Y2444001D02*
X1906179Y2444779D01*
X1911199Y2444001D02*
X1910421Y2444779D01*
X2072137Y1903963D02*
X2072915Y1903185D01*
X2076663Y1899437D02*
X2075885Y1900215D01*
X2076663Y1903963D02*
X2075885Y1903185D01*
X2076663Y1889437D02*
X2075885Y1890215D01*
X2076663Y1893963D02*
X2075885Y1893185D01*
X1988001Y2066201D02*
X1988779Y2066979D01*
X1993799Y2066201D02*
X1993021Y2066979D01*
X1993799Y2071999D02*
X1993021Y2071221D01*
X1988001Y2071999D02*
X1988779Y2071221D01*
X2009901Y1884599D02*
X2010679Y1883821D01*
X2009901Y1878801D02*
X2010679Y1879579D01*
X2015699Y1878801D02*
X2014921Y1879579D01*
X2020438Y2438238D02*
X2019661Y2437461D01*
X2016762Y2438238D02*
X2017539Y2437461D01*
X2016762Y2434562D02*
X2017539Y2435339D01*
X2020438Y2434562D02*
X2019661Y2435339D01*
X2084063Y2140463D02*
X2083285Y2139685D01*
X2079537Y2140463D02*
X2080315Y2139685D01*
X2079537Y2135937D02*
X2080315Y2136715D01*
X2084063Y2135937D02*
X2083285Y2136715D01*
X2036963Y2294963D02*
X2036185Y2294185D01*
X2032437Y2294963D02*
X2033215Y2294185D01*
X2032437Y2290437D02*
X2033215Y2291215D01*
X2036963Y2290437D02*
X2036185Y2291215D01*
X2037263Y2407763D02*
X2036485Y2406985D01*
X2032737Y2407763D02*
X2033515Y2406985D01*
X2032737Y2403237D02*
X2033515Y2404015D01*
X2037263Y2403237D02*
X2036485Y2404015D01*
X2031663Y2344963D02*
X2030885Y2344185D01*
X2027137Y2344963D02*
X2027915Y2344185D01*
X2027137Y2340437D02*
X2027915Y2341215D01*
X2031663Y2340437D02*
X2030885Y2341215D01*
X2057638Y2353738D02*
X2056861Y2352961D01*
X2053962Y2353738D02*
X2054739Y2352961D01*
X2053962Y2350062D02*
X2054739Y2350839D01*
X2057638Y2350062D02*
X2056861Y2350839D01*
X2015463Y2184163D02*
X2014685Y2183385D01*
X2010937Y2184163D02*
X2011715Y2183385D01*
X2010937Y2179637D02*
X2011715Y2180415D01*
X1999863Y2264563D02*
X1999085Y2263785D01*
X1995337Y2264563D02*
X1996115Y2263785D01*
X1995337Y2260037D02*
X1996115Y2260815D01*
X1999863Y2260037D02*
X1999085Y2260815D01*
X1984663Y1876063D02*
X1983885Y1875285D01*
X1980137Y1876063D02*
X1980915Y1875285D01*
X1980137Y1871537D02*
X1980915Y1872315D01*
X1984663Y1871537D02*
X1983885Y1872315D01*
X1994063Y1921763D02*
X1993285Y1920985D01*
X1989537Y1921763D02*
X1990315Y1920985D01*
X1994063Y1917237D02*
X1993285Y1918015D01*
X1944063Y1976263D02*
X1943285Y1975485D01*
X1939537Y1976263D02*
X1940315Y1975485D01*
X1939537Y1971737D02*
X1940315Y1972515D01*
X1944063Y1971737D02*
X1943285Y1972515D01*
X2017763Y2152863D02*
X2016985Y2152085D01*
X2013237Y2152863D02*
X2014015Y2152085D01*
X2013237Y2148337D02*
X2014015Y2149115D01*
X2017763Y2148337D02*
X2016985Y2149115D01*
X2044463Y2259463D02*
X2043685Y2258685D01*
X2039937Y2259463D02*
X2040715Y2258685D01*
X2039937Y2254937D02*
X2040715Y2255715D01*
X2044463Y2254937D02*
X2043685Y2255715D01*
X2061463Y2243863D02*
X2060685Y2243085D01*
X2056937Y2243863D02*
X2057715Y2243085D01*
X2056937Y2239337D02*
X2057715Y2240115D01*
X2061463Y2239337D02*
X2060685Y2240115D01*
X2058363Y2225563D02*
X2057585Y2224785D01*
X2053837Y2225563D02*
X2054615Y2224785D01*
X2053837Y2221037D02*
X2054615Y2221815D01*
X2058363Y2221037D02*
X2057585Y2221815D01*
X2059063Y2213163D02*
X2058285Y2212385D01*
X2054537Y2213163D02*
X2055315Y2212385D01*
X2059063Y2208637D02*
X2058285Y2209415D01*
X2046563Y2190163D02*
X2045785Y2189385D01*
X2042037Y2190163D02*
X2042815Y2189385D01*
X2042037Y2185637D02*
X2042815Y2186415D01*
X2046563Y2185637D02*
X2045785Y2186415D01*
X1991663Y2184163D02*
X1990885Y2183385D01*
X1987137Y2184163D02*
X1987915Y2183385D01*
X1987137Y2179637D02*
X1987915Y2180415D01*
X1991663Y2179637D02*
X1990885Y2180415D01*
X1992763Y2216563D02*
X1991985Y2215785D01*
X1988237Y2216563D02*
X1989015Y2215785D01*
X1988237Y2212037D02*
X1989015Y2212815D01*
X1992763Y2212037D02*
X1991985Y2212815D01*
X1979963Y2220463D02*
X1979185Y2219685D01*
X1975437Y2220463D02*
X1976215Y2219685D01*
X1975437Y2215937D02*
X1976215Y2216715D01*
X1979963Y2215937D02*
X1979185Y2216715D01*
X1978463Y2234663D02*
X1977685Y2233885D01*
X1973937Y2234663D02*
X1974715Y2233885D01*
X1973937Y2230137D02*
X1974715Y2230915D01*
X1978463Y2230137D02*
X1977685Y2230915D01*
X1976863Y2243163D02*
X1976085Y2242385D01*
X1972337Y2243163D02*
X1973115Y2242385D01*
X1972337Y2238637D02*
X1973115Y2239415D01*
X1976863Y2238637D02*
X1976085Y2239415D01*
X1940663Y2259963D02*
X1939885Y2259185D01*
X1936137Y2259963D02*
X1936915Y2259185D01*
X1936137Y2255437D02*
X1936915Y2256215D01*
X1940663Y2255437D02*
X1939885Y2256215D01*
X1937463Y2310563D02*
X1936685Y2309785D01*
X1932937Y2310563D02*
X1933715Y2309785D01*
X1932937Y2306037D02*
X1933715Y2306815D01*
X1937463Y2306037D02*
X1936685Y2306815D01*
X1945863Y2449663D02*
X1945085Y2448885D01*
X1941337Y2449663D02*
X1942115Y2448885D01*
X1941337Y2445137D02*
X1942115Y2445915D01*
X1945863Y2445137D02*
X1945085Y2445915D01*
X1992663Y2009863D02*
X1991885Y2009085D01*
X1988137Y2009863D02*
X1988915Y2009085D01*
X1988137Y2005337D02*
X1988915Y2006115D01*
X1992663Y2005337D02*
X1991885Y2006115D01*
X1998063Y2022363D02*
X1997285Y2021585D01*
X1993537Y2022363D02*
X1994315Y2021585D01*
X1993537Y2017837D02*
X1994315Y2018615D01*
X1998063Y2017837D02*
X1997285Y2018615D01*
X2031263Y2374163D02*
X2030485Y2373385D01*
X2026737Y2374163D02*
X2027515Y2373385D01*
X2026737Y2369637D02*
X2027515Y2370415D01*
X2031263Y2369637D02*
X2030485Y2370415D01*
X2028763Y2417863D02*
X2027985Y2417085D01*
X2024237Y2417863D02*
X2025015Y2417085D01*
X2024237Y2413337D02*
X2025015Y2414115D01*
X2028763Y2413337D02*
X2027985Y2414115D01*
X2035463Y1991563D02*
X2034685Y1990785D01*
X2030937Y1991563D02*
X2031715Y1990785D01*
X2030937Y1987037D02*
X2031715Y1987815D01*
X2035463Y1987037D02*
X2034685Y1987815D01*
X2044763Y1940063D02*
X2043985Y1939285D01*
X2040237Y1940063D02*
X2041015Y1939285D01*
X2040237Y1935537D02*
X2041015Y1936315D01*
X2044763Y1935537D02*
X2043985Y1936315D01*
X2045363Y1952963D02*
X2044585Y1952185D01*
X2040837Y1952963D02*
X2041615Y1952185D01*
X2040837Y1948437D02*
X2041615Y1949215D01*
X2045363Y1948437D02*
X2044585Y1949215D01*
X2082363Y2215263D02*
X2081585Y2214485D01*
X2077837Y2215263D02*
X2078615Y2214485D01*
X2077837Y2210737D02*
X2078615Y2211515D01*
X2082363Y2210737D02*
X2081585Y2211515D01*
X2069363Y2271563D02*
X2068585Y2270785D01*
X2064837Y2271563D02*
X2065615Y2270785D01*
X2064837Y2267037D02*
X2065615Y2267815D01*
X2069363Y2267037D02*
X2068585Y2267815D01*
X2071363Y2253163D02*
X2070585Y2252385D01*
X2066837Y2253163D02*
X2067615Y2252385D01*
X2066837Y2248637D02*
X2067615Y2249415D01*
X2071363Y2248637D02*
X2070585Y2249415D01*
X2050463Y1998863D02*
X2049685Y1998085D01*
X2045937Y1998863D02*
X2046715Y1998085D01*
X2045937Y1994337D02*
X2046715Y1995115D01*
X2050463Y1994337D02*
X2049685Y1995115D01*
G54D54*
X2074400Y1886700D03*
Y1891700D03*
Y1901700D03*
X1982400Y1873800D03*
X1991800Y1919500D03*
X2042500Y1937800D03*
X1941800Y1974000D03*
X2043100Y1950700D03*
X1990400Y2007600D03*
X2048200Y1996600D03*
X2033200Y1989300D03*
X1995800Y2020100D03*
X2081800Y2138200D03*
X2015500Y2150600D03*
X1977700Y2218200D03*
X2013200Y2181900D03*
X1989400D03*
X1990500Y2214300D03*
X2056800Y2210900D03*
X2044300Y2187900D03*
X2080100Y2213000D03*
X1938400Y2257700D03*
X1976200Y2232400D03*
X1974600Y2240900D03*
X2042200Y2257200D03*
X2059200Y2241600D03*
X2056100Y2223300D03*
X2069100Y2250900D03*
X1997600Y2262300D03*
X2034700Y2292700D03*
X2067100Y2269300D03*
X1935200Y2308300D03*
X2029400Y2342700D03*
X2029000Y2371900D03*
X2035000Y2405500D03*
X2026500Y2415600D03*
X1943600Y2447400D03*
G74*
X0Y0D02*
M02*
