M48
;FILE_FORMAT=2:4
INCH,LZ
FMAT,2
ICI,OFF
;TYPE=PLATED
T1C.01
T2C.028
T3C.035
T4C.037
T5C.1875
%
M72
G90
G93X0Y0
T1C.01F0S0
X19625Y18545
X19665Y18545
X1975Y1868
X198188Y185575
X19835Y18595
X1986Y18545
X199Y18545
X2002Y18545
X20145Y1879
X20175Y18545
X20195Y1879
X20215Y1865
X2024Y1857
X20335Y1879
X20375Y18545
X20815Y18775
X20855Y1875
X20885Y18725
X20355Y18955
X20295Y19005
X2017Y1891
X2016Y1911
X2006Y18815
X1999Y19075
X19865Y192
X198Y1885
X19795Y19065
X1978Y18965
X19755Y192
X1974Y1913
X19655Y1918
X196241Y192
X19245Y18845
X19485Y1939
X19485Y1935
X19485Y19525
X19485Y1943
X19585Y193431
X19585Y1941
X196091Y1937
X19767Y19302
X1978Y1943
X198244Y19305
X198249Y195209
X1984Y19485
X198619Y193769
X198939Y193374
X19935Y19525
X20035Y19412
X20035Y19505
X200451Y1936
X200837Y1937
X20205Y19295
X20515Y19445
X2023Y19625
X20035Y19545
X20035Y19605
X19935Y1959
X19927Y19642
X1989Y19755
X19875Y1965
X198626Y196028
X1985Y19755
X1979Y1965
X19585Y19625
X19585Y19545
X19485Y19565
X19485Y19605
X19415Y1966
X19315Y19675
X19215Y19775
X19155Y1965
X19415Y20265
X19645Y20235
X19845Y197955
X19848Y20235
X2036Y20035
X2036Y19915
X2036Y19805
X2075Y2018
X20785Y1991
X20715Y2031
X20465Y2058
X19935Y2046
X19935Y20325
X19755Y2069
X1972Y20525
X1956Y20745
X19542Y20712
X1946Y21005
X19605Y2123
X1976Y21185
X1977Y2126
X198004Y212154
X1986Y21005
X20365Y2107
X2037Y21025
X2042Y2111
X20465Y21085
X201016Y217684
X2006Y2168
X199629Y214221
X19933Y21478
X19915Y21445
X19815Y21355
X1972Y21665
X19645Y21665
X1956Y2138
X19165Y21705
X1939Y2189
X195381Y220281
X196917Y21981
X196926Y218624
X19695Y21925
X197301Y220049
X19756Y21833
X198Y21835
X198216Y219351
X198367Y219709
X19896Y21835
X19915Y21935
X19987Y219588
X2005Y2201
X20095Y21935
X201194Y219644
X2021Y21835
X202163Y21935
X2024Y21965
X2026Y21935
X20305Y2196
X20335Y21835
X203556Y21802
X203603Y219516
X20535Y22036
X20535Y22
X20715Y22145
X207Y22095
X205651Y220851
X20535Y22175
X20535Y2212
X20535Y22255
X20435Y2208
X20435Y2214
X198799Y220599
X198687Y221043
X197882Y222791
X19786Y222356
X1972Y220659
X19695Y22188
X19695Y22132
X1959Y2216
X1959Y22255
X19585Y22052
X19575Y22108
X19516Y22064
X1949Y22165
X1939Y222
X19365Y22085
X1905Y2251
X192Y22495
X19215Y2244
X1936Y22395
X194Y2251
X1956Y2251
X1959Y22335
X1959Y22295
X1959Y22375
X1959Y22476
X196948Y22344
X19695Y2249
X1979Y224549
X198768Y224056
X20105Y22465
X20415Y22335
X20435Y2253
X20435Y22435
X20535Y22355
X207Y22425
X207Y2273
X20535Y2263
X2048Y22685
X204Y22675
X203838Y226381
X2035Y22675
X20327Y22647
X2025Y22675
X2023Y22775
X20155Y22675
X20135Y22775
X19995Y22675
X19975Y22775
X19829Y2255
X1982Y22775
X196562Y226888
X1959Y2263
X1945Y22625
X19355Y22735
X19025Y2259
X194Y22915
X197362Y2303
X197788Y228212
X19795Y2286
X1982Y2289
X198288Y228138
X198517Y228617
X19945Y228
X202Y22915
X2086Y23445
X20245Y2351
X20105Y23365
X2005Y2331
X1981Y2324
X19795Y2315
X1978Y23055
X1972Y2344
X19705Y2331
X19675Y2348
X19595Y234
X1959Y2336
X19516Y2321
X1947Y23455
X1945Y234
X1963Y23615
X19735Y23565
X19855Y23585
X2001Y23855
X20205Y23855
X2029Y23955
X20425Y2366
X20615Y2357
X2076Y23865
X20885Y23695
X20515Y2425
X2021Y2415
X20205Y2443
X19945Y2415
X19595Y2422
X1949Y2447
X1907Y243
T2C.028F0S0
X20638Y18849
X20638Y18899
X20638Y18949
X20638Y18999
X20688Y18949
X20688Y18899
X20688Y18999
X20688Y18849
X20688Y19049
X20638Y19049
T3C.035F0S0
X19094Y18951
X19094Y18851
X19094Y19251
X19094Y19151
X19094Y19051
X20757Y193761
X20757Y19632
X205798Y19632
X205798Y193761
X19094Y19751
X19094Y19651
X19094Y19551
X19094Y19451
X19094Y19351
X19094Y19951
X19094Y19851
X19094Y20251
X19094Y20151
X19094Y20051
X20578Y19867
X20578Y201229
X207552Y201229
X207552Y19867
X20814Y20355
X20814Y20455
X20514Y20455
X20514Y20355
X201331Y204527
X201331Y203527
X199861Y204527
X199861Y203527
X19094Y20451
X19094Y20351
X19094Y20751
X19094Y20651
X19094Y20551
X199861Y207527
X199861Y206527
X199861Y205527
X201331Y207527
X201331Y206527
X201331Y205527
X20514Y20755
X20514Y20655
X20514Y20555
X20814Y20655
X20814Y20555
X20814Y20755
X20814Y20855
X20814Y20955
X20514Y20955
X20514Y20855
X201331Y209527
X201331Y208527
X199861Y208527
X199861Y209527
X19094Y20851
X19094Y20951
X19094Y21251
X19094Y21151
X19094Y21051
X199861Y211527
X199861Y210527
X199861Y212527
X201331Y212527
X201331Y210527
X201331Y211527
X20514Y21155
X20514Y21055
X20514Y21255
X20814Y21055
X20814Y21155
X20814Y21255
X20776Y21407
X20676Y21407
X20576Y21407
X20476Y21407
X19387Y21375
X19387Y21475
X19094Y21351
X19094Y21451
X19094Y21751
X19094Y21651
X19094Y21551
X19387Y21675
X19387Y21575
X19387Y21775
X20476Y21707
X20576Y21707
X20676Y21707
X20776Y21707
X19094Y21851
X19094Y21951
X19094Y22151
X19094Y22051
X19094Y22251
X19094Y22451
X19094Y22351
X19094Y22751
X19094Y22651
X19094Y22551
X19094Y22951
X19094Y22851
X19094Y23251
X19094Y23151
X19094Y23051
X19094Y23351
X19094Y23451
X19094Y23551
X19094Y23751
X19094Y23651
X19783Y239742
X19783Y23797
X195271Y23797
X195271Y239742
X19094Y23851
X19094Y23951
X19094Y24251
X19094Y24051
X19094Y24151
X19094Y24351
X19094Y24451
X19094Y24551
T4C.037F0S0
X20274Y19164
X20274Y19664
X20658Y22999
X20558Y22999
X20558Y23199
X20558Y23099
X20558Y23399
X20558Y23299
X20658Y23399
X20658Y23099
X20658Y23299
X20658Y23199
T5C.1875F0S0
X20064Y22305
M30
