*
*
G04 PADS VX.2.1 Build Number: 6554490 generated Gerber (RS-274-X) file*
G04 PC Version=2.1*
*
%IN "uMuddMarkVTesterLayout."*%
*
%MOIN*%
*
%FSLAX35Y35*%
*
*
*
*
G04 PC Standard Apertures*
*
*
G04 Thermal Relief Aperture macro.*
%AMTER*
1,1,$1,0,0*
1,0,$1-$2,0,0*
21,0,$3,$4,0,0,45*
21,0,$3,$4,0,0,135*
%
*
*
G04 Annular Aperture macro.*
%AMANN*
1,1,$1,0,0*
1,0,$2,0,0*
%
*
*
G04 Odd Aperture macro.*
%AMODD*
1,1,$1,0,0*
1,0,$1-0.005,0,0*
%
*
*
G04 PC Custom Aperture Macros*
*
*
*
*
*
*
G04 PC Aperture Table*
*
%ADD010C,0.001*%
%ADD011C,0.01*%
%ADD014R,0.06X0.06*%
%ADD015C,0.06*%
%ADD022C,0.006*%
%ADD023C,0.012*%
%ADD024C,0.03*%
%ADD029C,0.03937*%
%ADD041C,0.181*%
%ADD046C,0.042*%
%ADD051C,0.1*%
*
*
*
*
G04 PC Circuitry*
G04 Layer Name uMuddMarkVTesterLayout. - circuitry*
%LPD*%
*
*
G04 PC Custom Flashes*
G04 Layer Name uMuddMarkVTesterLayout. - flashes*
%LPD*%
*
*
G04 PC Circuitry*
G04 Layer Name uMuddMarkVTesterLayout. - circuitry*
%LPD*%
*
G54D10*
G54D11*
G01X1949300Y1814400D02*
X1978400D01*
X1988400Y1824400*
X1988800Y1844600*
X1880000Y1825000D02*
X1895600D01*
X1896200Y1825600*
X1919041*
X1925611Y1821805D02*
X1922837D01*
X1919041Y1825600*
X1929548Y1829679D02*
X1927521D01*
X1922600Y1834600*
X1916200*
X1914300Y1834800*
X1911400*
X1909900Y1836300*
Y1840400*
X1907100Y1843200*
X1871600*
X1870000Y1844800*
X1939500Y1857500D02*
X1939600Y1857600D01*
X1945700*
X1939500Y1857500D02*
X1934600Y1862400D01*
X1926100*
X1988800Y1844600D02*
X1965400Y1867600D01*
X1928500*
X1932100Y1895000D02*
X1948600Y1911500D01*
X1976100*
X1932100Y1895000D02*
X1915800D01*
X1910800Y1900000*
X1910000*
X1977200Y1895000D02*
X1982100Y1899900D01*
Y1905500*
X1976100Y1911500*
X1985000Y1915000D02*
X1916300D01*
X1911300Y1920000*
X1910000*
X1946400Y1935000D02*
X1953300Y1941900D01*
X1973200*
X1946400Y1935000D02*
X1917500D01*
X1912500Y1940000*
X1910000*
X1992500Y1925000D02*
X1917400D01*
X1912400Y1930000*
X1910000*
X1987500Y1935000D02*
X1987100Y1935400D01*
X1979700*
X1973200Y1941900*
X1920000Y1990000D02*
X1930189D01*
X1935189Y1995000*
X1967100*
X1929300Y1995400D02*
X1927700Y1997000D01*
X1923000*
X1920000Y2000000*
X1856400Y2017300D02*
X1888000D01*
X1890500Y2020000*
X1920000*
Y2010000D02*
X1929200D01*
X1934200Y2015000*
X1943800*
X1946800Y2018000*
X1952500*
X1920000Y2030000D02*
X1929200D01*
X1934200Y2035000*
X1962498*
X1965800Y2038302*
Y2045900*
X1960000Y2030000D02*
X1969500Y2035700D01*
Y2050098*
X1964598Y2055000*
X1955000*
X1945000Y2065000*
X1925000*
X1920000Y2070000*
X1965800Y2045900D02*
X1960000Y2050000D01*
Y2040000D02*
X1950800D01*
X1945800Y2045000*
X1934200*
X1929200Y2050000*
X1920000*
G54D14*
X1960000Y2070000D03*
X1940000Y1980000D03*
X1920000D03*
X1910000Y1940000D03*
G54D15*
X1960000Y2060000D03*
Y2050000D03*
Y2040000D03*
Y2030000D03*
Y2020000D03*
Y2010000D03*
Y2000000D03*
Y1990000D03*
Y1980000D03*
X1990000D03*
Y1990000D03*
Y2000000D03*
Y2010000D03*
Y2020000D03*
Y2030000D03*
Y2040000D03*
Y2050000D03*
Y2060000D03*
Y2070000D03*
X1940000Y1990000D03*
Y2000000D03*
Y2010000D03*
Y2020000D03*
Y2030000D03*
Y2040000D03*
Y2050000D03*
Y2060000D03*
Y2070000D03*
X1920000Y1990000D03*
Y2000000D03*
Y2010000D03*
Y2020000D03*
Y2030000D03*
Y2040000D03*
Y2050000D03*
Y2060000D03*
Y2070000D03*
Y1940000D03*
X1910000Y1930000D03*
X1920000D03*
X1910000Y1920000D03*
X1920000D03*
X1910000Y1910000D03*
X1920000D03*
X1910000Y1900000D03*
X1920000D03*
G54D22*
X1965000Y1857500D02*
X1964900Y1857600D01*
X1945700*
X1973700Y1866900D02*
X1973100Y1867500D01*
X1973000*
X1966300Y1874200*
X1955100*
X1948000Y1881300*
Y1887500*
X1955600*
X1957600Y1889500*
X1961500*
X1961700Y1889300*
G54D23*
X1914400Y1816500D02*
X1936054D01*
X1945254Y1825700*
X1964939*
X1968918Y1829679*
X2007500Y1852400D02*
Y1932200D01*
X1997400Y1942300*
X2015000Y1842500D02*
X2010395Y1847600D01*
X2002900*
X1997900Y1864200*
Y1909000*
X1985600Y1921300*
X1984400Y1921500*
X1979000*
X1860000Y1860000D02*
X1860200Y1860200D01*
Y1865100*
X1864400Y1869300*
X1878300*
X1885000Y1876000*
Y1880000*
X1886200Y1881200*
Y1949800*
X1880100Y1955900*
Y1959900*
X1880000Y1960000*
X1966700Y1879200D02*
Y1884300D01*
Y1894300D02*
X1971400Y1897000D01*
Y1901900*
X1966700Y1889300D02*
Y1894300D01*
X1977000Y1904300D02*
X1969000D01*
X1971400Y1901900*
X1966700Y1904300D02*
X1969000D01*
X1997400Y1942300D02*
X1982100Y1942200D01*
X1975000Y1947500*
X1880000Y1960000D02*
X1900400Y1980400D01*
X1919600*
X1990000Y1967500D02*
X1935800D01*
X1924700Y1978600*
X1920300*
Y1979700*
X1920000Y1980000*
X1919600Y1980400*
X1964500Y1985000D02*
X1914600D01*
X1912100Y1987500*
X1905000*
X1879800Y2010000D02*
X1900000D01*
X1895000Y2085000D02*
Y2092500D01*
G54D24*
X1914400Y1816500D03*
X1949300Y1814400D03*
X1880000Y1825000D03*
X1870000Y1844800D03*
X1945700Y1857600D03*
X1965000Y1857500D03*
X1926100Y1862400D03*
X1928500Y1867600D03*
X1973700Y1866900D03*
X1885000Y1880000D03*
X1948000Y1887500D03*
X1966700Y1879200D03*
X1977200Y1895000D03*
X1985000Y1915000D03*
X1977000Y1904300D03*
X1979000Y1921500D03*
X1992500Y1925000D03*
X1987500Y1935000D03*
X1975000Y1947500D03*
X1990000Y1967500D03*
X1905000Y1987500D03*
X1929300Y1995400D03*
X1964500Y1985000D03*
X1967100Y1995000D03*
X1856400Y2017300D03*
X1952500Y2018000D03*
X1895000Y2085000D03*
Y2092500D03*
G54D29*
X1984666Y1829679D03*
X1980729Y1821805D03*
X1976792Y1829679D03*
X1972855Y1821805D03*
X1968918Y1829679D03*
X1964981Y1821805D03*
X1961044Y1829679D03*
X1957107Y1821805D03*
X1953170Y1829679D03*
X1949233Y1821805D03*
X1945296Y1829679D03*
X1933485Y1821805D03*
X1929548Y1829679D03*
X1925611Y1821805D03*
X1921674Y1829679D03*
X1917737Y1821805D03*
X1913800Y1829679D03*
X1909863Y1821805D03*
X1984666Y1839521D03*
X1980729Y1847395D03*
X1976792Y1839521D03*
X1972855Y1847395D03*
X1968918Y1839521D03*
X1964981Y1847395D03*
X1961044Y1839521D03*
X1957107Y1847395D03*
X1953170Y1839521D03*
X1949233Y1847395D03*
X1945296Y1839521D03*
X1933485Y1847395D03*
X1929548Y1839521D03*
X1925611Y1847395D03*
X1921674Y1839521D03*
X1917737Y1847395D03*
X1913800Y1839521D03*
X1909863Y1847395D03*
G54D41*
X1857200Y2221700D03*
X2031200Y2221800D03*
X2033900Y1824900D03*
X1857800Y1825100D03*
G54D46*
X1966700Y1884300D03*
X1961700D03*
X1966700Y1889300D03*
X1961700D03*
X1966700Y1894300D03*
X1961700D03*
X1966700Y1899300D03*
X1961700D03*
X1966700Y1904300D03*
X1961700D03*
X2007500Y1852400D03*
X2015000Y1842500D03*
X1860000Y1860000D03*
X1880000Y1940000D03*
Y1960000D03*
Y1990000D03*
X1879800Y2010000D03*
X1900000D03*
Y2050000D03*
X1875000Y2065000D03*
X1920000Y2077500D03*
X1900000Y2080000D03*
X1970000Y2090000D03*
X1897500Y2110000D03*
X1942500Y2105000D03*
X1970000Y2107500D03*
X1880000Y2130000D03*
X1900000Y2127500D03*
X1920000D03*
X1940000Y2130000D03*
X1960000D03*
X1970000Y2127500D03*
G54D51*
X1978400Y2160500D03*
Y2220700D03*
X1891600Y2161300D03*
Y2221500D03*
X0Y0D02*
M02*
