*
*
G04 PADS VX.2.1 Build Number: 6554490 generated Gerber (RS-274-X) file*
G04 PC Version=2.1*
*
%IN "uMuddMarkVTesterLayout."*%
*
%MOIN*%
*
%FSLAX35Y35*%
*
*
*
*
G04 PC Standard Apertures*
*
*
G04 Thermal Relief Aperture macro.*
%AMTER*
1,1,$1,0,0*
1,0,$1-$2,0,0*
21,0,$3,$4,0,0,45*
21,0,$3,$4,0,0,135*
%
*
*
G04 Annular Aperture macro.*
%AMANN*
1,1,$1,0,0*
1,0,$2,0,0*
%
*
*
G04 Odd Aperture macro.*
%AMODD*
1,1,$1,0,0*
1,0,$1-0.005,0,0*
%
*
*
G04 PC Custom Aperture Macros*
*
*
*
*
*
*
G04 PC Aperture Table*
*
%ADD010C,0.001*%
%ADD011C,0.01*%
%ADD013R,0.06X0.05*%
%ADD014R,0.06X0.06*%
%ADD015C,0.06*%
%ADD017R,0.04X0.08*%
%ADD018R,0.2X0.25*%
%ADD019R,0.05X0.06*%
%ADD020C,0.03937*%
%ADD022C,0.006*%
%ADD023C,0.012*%
%ADD024C,0.03*%
%ADD041C,0.181*%
%ADD046C,0.042*%
%ADD051C,0.1*%
*
*
*
*
G04 PC Circuitry*
G04 Layer Name uMuddMarkVTesterLayout. - circuitry*
%LPD*%
*
*
G04 PC Custom Flashes*
G04 Layer Name uMuddMarkVTesterLayout. - flashes*
%LPD*%
*
*
G04 PC Circuitry*
G04 Layer Name uMuddMarkVTesterLayout. - circuitry*
%LPD*%
*
G54D10*
G54D11*
G01X1921674Y1829679D02*
X1917400Y1833953D01*
Y1842100*
X1921500Y1846200*
Y1857500*
X1926100Y1862400*
X1909500Y1828700D02*
X1912600Y1825600D01*
X1922416*
X1925611Y1821805*
X1909500Y1828700D02*
X1910200Y1841100D01*
X1913900Y1844800*
Y1855200*
X1921700Y1863000*
Y1870456*
X1925600Y1874356*
X1945296Y1829679D02*
Y1818404D01*
X1949300Y1814400*
X1953170Y1829679D02*
X1957100Y1833609D01*
Y1840857*
X1961100Y1844857*
Y1870600*
X1961300Y1871000*
Y1884200*
X1961400Y1884300*
X1957107Y1821805D02*
Y1830663D01*
X1965000Y1838556*
Y1840809*
X1968900Y1844709*
Y1861400*
X1973700Y1866900*
X1972855Y1821805D02*
Y1841416D01*
X1977200Y1845761*
Y1895000*
X1976792Y1829679D02*
X1980700Y1833587D01*
Y1841461*
X1985000Y1845761*
Y1915000*
X1980729Y1821805D02*
X1984255Y1825331D01*
X1984844Y1824900*
X1992500Y1832600*
Y1925000*
X1984666Y1829679D02*
Y1833337D01*
X1988500Y1837171*
Y1923900*
X1925400Y1840700D02*
X1928300Y1843600D01*
X1937200*
X1937448Y1843752*
X1940000Y1846305*
Y1980000*
X1925400Y1840700D02*
X1926000Y1826700D01*
X1928000Y1824700*
X1930590*
X1933485Y1821805*
X1874500Y1860000D02*
Y1844700D01*
X1880000Y1839200*
Y1825000*
X1944800Y1864139D02*
X1945700Y1863139D01*
Y1857600*
X1944800Y1864139D02*
Y1945900D01*
X1960000Y1961900*
X1928500Y1867600D02*
Y1930500D01*
X1929300Y1931800*
Y1995400*
X1865500Y1880000D02*
Y1871700D01*
X1870000Y1867200*
Y1844800*
X1961400Y1884300D02*
X1960900D01*
X1961700*
X1865400Y1900000D02*
X1867900Y1894600D01*
X1890100*
X1895500Y1900000*
X1910000*
X1865400D02*
X1865500D01*
Y1920000D02*
X1868100D01*
X1870500Y1925500*
X1890100Y1925800*
X1895900Y1920000*
X1910000*
X1987500Y1935000D02*
Y1924900D01*
X1988500Y1923900*
X1864600Y1940000D02*
X1867000Y1936300D01*
X1867100Y1935000*
X1891600*
X1896600Y1940000*
X1910000*
X1864600D02*
X1865500D01*
X1870400Y1946900D02*
X1882600D01*
X1911700Y1977700*
Y1991700*
X1920000Y2000000*
X1932500Y1988700D02*
X1936000Y1985200D01*
X1939800*
X1940000Y1985000*
X1947200*
X1951400Y1980800*
Y1975300*
X1955400Y1971300*
X1955800Y1971000*
X1960000Y1966800*
Y1961900*
X1932500Y1988700D02*
Y1991202D01*
X1933000Y2047000*
X1940000Y1990000D02*
X1950000Y2000000D01*
Y2010000*
X1960000Y2020000*
X1856400Y2017300D02*
Y1894200D01*
X1865500Y1885900*
Y1880000*
X1952500Y2018000D02*
Y2052500D01*
X1960000Y2060000*
X1920000Y2040000D02*
Y2037300D01*
X1925600Y2031700*
Y1874356*
X1920000Y2060000D02*
X1933000Y2047000D01*
X1960000Y2070000D02*
Y2067900D01*
X1967100Y2060800*
Y1995000*
G54D13*
X1958600Y1934500D03*
X1967600D03*
X1865500Y1990000D03*
X1874500D03*
X1975500Y2090000D03*
X1984500D03*
X1975500Y2110000D03*
X1984500D03*
X1975500Y2130000D03*
X1984500D03*
X1945500D03*
X1954500D03*
X1905500D03*
X1914500D03*
X1865500D03*
X1874500D03*
X1865500Y2070000D03*
X1874500D03*
X1865500Y2010000D03*
X1874500D03*
X1865100Y1958600D03*
X1874100D03*
X1865500Y1940000D03*
X1874500D03*
X1865500Y1920000D03*
X1874500D03*
X1865500Y1900000D03*
X1874500D03*
X1865500Y1880000D03*
X1874500D03*
X1865500Y1860000D03*
X1874500D03*
X1959600Y1919500D03*
X1968600D03*
X1958100Y1948800D03*
X1967100D03*
G54D14*
X1960000Y2070000D03*
X1940000Y1980000D03*
X1920000D03*
X1910000Y1940000D03*
G54D15*
X1960000Y2060000D03*
Y2050000D03*
Y2040000D03*
Y2030000D03*
Y2020000D03*
Y2010000D03*
Y2000000D03*
Y1990000D03*
Y1980000D03*
X1990000D03*
Y1990000D03*
Y2000000D03*
Y2010000D03*
Y2020000D03*
Y2030000D03*
Y2040000D03*
Y2050000D03*
Y2060000D03*
Y2070000D03*
X1940000Y1990000D03*
Y2000000D03*
Y2010000D03*
Y2020000D03*
Y2030000D03*
Y2040000D03*
Y2050000D03*
Y2060000D03*
Y2070000D03*
X1920000Y1990000D03*
Y2000000D03*
Y2010000D03*
Y2020000D03*
Y2030000D03*
Y2040000D03*
Y2050000D03*
Y2060000D03*
Y2070000D03*
Y1940000D03*
X1910000Y1930000D03*
X1920000D03*
X1910000Y1920000D03*
X1920000D03*
X1910000Y1910000D03*
X1920000D03*
X1910000Y1900000D03*
X1920000D03*
G54D17*
X1921000Y2083900D03*
X1939000D03*
X1861000Y2023900D03*
X1879000D03*
X1861000Y2083900D03*
X1879000D03*
G54D18*
X1930000Y2105000D03*
X1870000Y2045000D03*
Y2105000D03*
G54D19*
X1900000Y2095500D03*
Y2104500D03*
Y2065500D03*
Y2074500D03*
Y2035500D03*
Y2044500D03*
Y1995500D03*
Y2004500D03*
X1989100Y1949700D03*
Y1958700D03*
G54D20*
X1984666Y1829679D03*
X1980729Y1821805D03*
X1976792Y1829679D03*
X1972855Y1821805D03*
X1968918Y1829679D03*
X1964981Y1821805D03*
X1961044Y1829679D03*
X1957107Y1821805D03*
X1953170Y1829679D03*
X1949233Y1821805D03*
X1945296Y1829679D03*
X1933485Y1821805D03*
X1929548Y1829679D03*
X1925611Y1821805D03*
X1921674Y1829679D03*
X1917737Y1821805D03*
X1913800Y1829679D03*
X1909863Y1821805D03*
X1984666Y1839521D03*
X1980729Y1847395D03*
X1976792Y1839521D03*
X1972855Y1847395D03*
X1968918Y1839521D03*
X1964981Y1847395D03*
X1961044Y1839521D03*
X1957107Y1847395D03*
X1953170Y1839521D03*
X1949233Y1847395D03*
X1945296Y1839521D03*
X1933485Y1847395D03*
X1929548Y1839521D03*
X1925611Y1847395D03*
X1921674Y1839521D03*
X1917737Y1847395D03*
X1913800Y1839521D03*
X1909863Y1847395D03*
G54D22*
X1965000Y1857500D02*
Y1866600D01*
X1973200Y1875900*
X1948000Y1887500D02*
Y1938300D01*
X1948800Y1939500*
X1958100Y1948800*
X1961700Y1904300D02*
X1960700D01*
X1964900Y1908500*
X1970400*
X1973200Y1905700*
Y1875900*
X1956000Y1900000D02*
Y1911200D01*
X1958500Y1913700*
X1962700*
X1964200Y1915200*
Y1928400*
X1956000Y1900000D02*
X1961700Y1894300D01*
Y1899300D02*
X1958200Y1902800D01*
Y1906546*
X1963354Y1911700*
X1973160*
X1983200Y1921740*
Y1937300*
X1989100Y1943200*
Y1949700*
X1959600Y1919500D02*
X1953700Y1914700D01*
Y1898900*
X1957000Y1895600*
Y1886300*
X1958900Y1884300*
X1960900*
X1958600Y1934500D02*
X1959000Y1934100D01*
Y1933600*
X1964200Y1928400*
X1865100Y1958600D02*
X1870400Y1947500D01*
Y1946900*
G54D23*
X1890300Y1829601D02*
X1903401Y1816500D01*
X1914400*
X1890300Y1829601D02*
Y1860530D01*
X1914900Y1884430*
Y1913100*
X1949233Y1821805D02*
Y1841300D01*
X1953200Y1845300*
Y1894800*
X1961044Y1829679D02*
Y1821075D01*
X1966819Y1815300*
X1997860*
X2015000Y1832440*
Y1842500*
X1964981Y1821805D02*
X1968286Y1817800D01*
X1982091*
X2007500Y1843209*
Y1852400*
X1860000Y1860000D02*
X1865500D01*
X1874500Y1880000D02*
Y1880100D01*
X1884900*
X1885000Y1880000*
X1966700Y1894300D02*
X1966900Y1894100D01*
X1966700Y1889300D02*
X1966900Y1889500D01*
X1860100Y1914403D02*
Y1972500D01*
X1865500Y1977900*
Y1990000*
X1860100Y1914403D02*
X1860803Y1913700D01*
X1870300*
X1874500Y1917900*
Y1920000*
Y1900000D02*
Y1920000D01*
X1914900Y1913100D02*
Y1918800D01*
X1915000Y1918900*
Y1925000*
X1920000Y1930000*
X1874500Y1920000D02*
X1889500D01*
X1894300Y1915200*
X1911740Y1915000*
X1914900Y1913100*
X1950400Y1926900D02*
Y1927800D01*
X1950900Y1928300*
Y1937000*
X1954100Y1940200*
X1959500*
X1962700Y1943400*
Y1971100*
X1968700Y1977100*
Y1983600*
X1950400Y1926900D02*
Y1897600D01*
X1953200Y1894800*
X1968600Y1919500D02*
X1968700Y1919600D01*
X1977100*
X1979000Y1921500*
X1967600Y1934500D02*
X1974700D01*
X1980400Y1940200*
Y1954600*
X1984500Y1958700*
X1989100*
X1880000Y1940000D02*
X1888100D01*
X1897200Y1949100*
X1916500*
X1920600Y1945000*
Y1939600*
X1874500Y1940000D02*
X1880000D01*
X1920000D02*
X1918900D01*
X1920600Y1939600*
X1967100Y1948800D02*
X1966600Y1948300D01*
Y1947500*
X1975000*
X1874100Y1958600D02*
X1880000Y1960000D01*
X1989100Y1958700D02*
Y1966600D01*
X1990000Y1967500*
X1865500Y2010000D02*
Y1990000D01*
X1866000*
X1871500Y1995500*
X1900000*
X1874500Y1990000D02*
X1880000D01*
X1964500Y1985000D02*
X1967300D01*
X1968700Y1983600*
X1874500Y2010000D02*
X1879800D01*
X1900000Y2004500D02*
Y2010000D01*
X1861000Y2023500D02*
Y2021900D01*
X1866700Y2016200*
X1867800*
X1874000Y2010000*
X1874500*
X1879000Y2023500D02*
Y2029500D01*
X1881200Y2031700*
Y2067200*
X1900000Y2035500D02*
Y2023000D01*
X1905000Y2018000*
Y1987500*
X1870000Y2045000D02*
Y2025203D01*
X1886203Y2009000*
X1887000*
X1900000Y1996000*
Y1995500*
X1896300Y2039700D02*
X1900000Y2036000D01*
Y2035500*
X1896300Y2039700D02*
Y2054300D01*
X1900000Y2058000*
Y2065500*
Y2044500D02*
Y2050000D01*
X1874500Y2070000D02*
X1875000D01*
Y2065000*
X1900000Y2074500D02*
Y2080000D01*
X1920000Y2077500D02*
X1920429D01*
Y2083500*
X1921000*
X1857800Y2088397D02*
X1860303Y2090900D01*
X1884839*
X1889439Y2095500*
X1900000*
X1857800Y2088397D02*
Y2077200D01*
X1865000Y2070000*
X1865500*
X1861000Y2083500D02*
Y2081900D01*
X1866700Y2076200*
X1867800*
X1874000Y2070000*
X1874500*
X1879000Y2083500D02*
Y2083900D01*
X1884800*
X1889600Y2088700*
X1900397*
X1903943Y2092246*
X1879000Y2083500D02*
Y2069400D01*
X1881200Y2067200*
X1903943Y2092246D02*
X1906188Y2090000D01*
X1926100*
X1932200Y2083900*
X1939000*
Y2083500*
X1895000Y2085000D02*
Y2071000D01*
X1900000Y2066000*
Y2065500*
X1895000Y2092500D02*
X1900000Y2093468D01*
Y2095500*
X1970000Y2090000D02*
X1975500D01*
X1984500Y2110000D02*
Y2090000D01*
X1985000*
X1990000Y2085000*
Y2070000*
X1870000Y2105000D02*
X1891000D01*
X1900000Y2096000*
Y2095500*
X1897500Y2110000D02*
X1898100Y2106900D01*
Y2104500*
X1900000*
X1930000Y2105000D02*
X1942500D01*
X1970000Y2107500D02*
X1973100Y2108100D01*
X1975500*
Y2110000*
X1984500D02*
Y2130000D01*
X1865500D02*
Y2124700D01*
X1870000Y2120200*
Y2105000*
X1874500Y2130000D02*
X1880000D01*
X1900000Y2127500D02*
X1903100Y2128100D01*
X1905500*
Y2130000*
X1914500D02*
Y2128100D01*
X1916900*
X1920000Y2127500*
X1940000Y2130000D02*
X1945500D01*
X1954500D02*
X1960000D01*
X1970000Y2127500D02*
X1973100Y2128100D01*
X1975500*
Y2130000*
X1891600Y2221500D02*
Y2161300D01*
Y2125900*
X1903943Y2113557*
Y2092246*
X1977500Y2219800D02*
X1978400Y2220700D01*
X1979300*
G54D24*
X1914400Y1816500D03*
X1949300Y1814400D03*
X1880000Y1825000D03*
X1870000Y1844800D03*
X1945700Y1857600D03*
X1965000Y1857500D03*
X1926100Y1862400D03*
X1928500Y1867600D03*
X1973700Y1866900D03*
X1885000Y1880000D03*
X1948000Y1887500D03*
X1966700Y1879200D03*
X1977200Y1895000D03*
X1985000Y1915000D03*
X1977000Y1904300D03*
X1979000Y1921500D03*
X1992500Y1925000D03*
X1987500Y1935000D03*
X1975000Y1947500D03*
X1990000Y1967500D03*
X1905000Y1987500D03*
X1929300Y1995400D03*
X1964500Y1985000D03*
X1967100Y1995000D03*
X1856400Y2017300D03*
X1952500Y2018000D03*
X1895000Y2085000D03*
Y2092500D03*
G54D41*
X1857200Y2221700D03*
X2031200Y2221800D03*
X2033900Y1824900D03*
X1857800Y1825100D03*
G54D46*
X1966700Y1884300D03*
X1961700D03*
X1966700Y1889300D03*
X1961700D03*
X1966700Y1894300D03*
X1961700D03*
X1966700Y1899300D03*
X1961700D03*
X1966700Y1904300D03*
X1961700D03*
X2007500Y1852400D03*
X2015000Y1842500D03*
X1860000Y1860000D03*
X1880000Y1940000D03*
Y1960000D03*
Y1990000D03*
X1879800Y2010000D03*
X1900000D03*
Y2050000D03*
X1875000Y2065000D03*
X1920000Y2077500D03*
X1900000Y2080000D03*
X1970000Y2090000D03*
X1897500Y2110000D03*
X1942500Y2105000D03*
X1970000Y2107500D03*
X1880000Y2130000D03*
X1900000Y2127500D03*
X1920000D03*
X1940000Y2130000D03*
X1960000D03*
X1970000Y2127500D03*
G54D51*
X1978400Y2160500D03*
Y2220700D03*
X1891600Y2161300D03*
Y2221500D03*
X0Y0D02*
M02*
