*
*
G04 PADS VX.2.1 Build Number: 6554490 generated Gerber (RS-274-X) file*
G04 PC Version=2.1*
*
%IN "uMuddMarkVTesterLayout."*%
*
%MOIN*%
*
%FSLAX35Y35*%
*
*
*
*
G04 PC Standard Apertures*
*
*
G04 Thermal Relief Aperture macro.*
%AMTER*
1,1,$1,0,0*
1,0,$1-$2,0,0*
21,0,$3,$4,0,0,45*
21,0,$3,$4,0,0,135*
%
*
*
G04 Annular Aperture macro.*
%AMANN*
1,1,$1,0,0*
1,0,$2,0,0*
%
*
*
G04 Odd Aperture macro.*
%AMODD*
1,1,$1,0,0*
1,0,$1-0.005,0,0*
%
*
*
G04 PC Custom Aperture Macros*
*
*
*
*
*
*
G04 PC Aperture Table*
*
%ADD010C,0.001*%
%ADD011C,0.01*%
*
*
*
*
G04 PC Circuitry*
G04 Layer Name uMuddMarkVTesterLayout. - circuitry*
%LPD*%
*
*
G04 PC Custom Flashes*
G04 Layer Name uMuddMarkVTesterLayout. - flashes*
%LPD*%
*
*
G04 PC Circuitry*
G04 Layer Name uMuddMarkVTesterLayout. - circuitry*
%LPD*%
*
G54D10*
G54D11*
G01X1962700Y1884300D02*
X1970700D01*
X1966700Y1880300D02*
Y1888300D01*
X1957700Y1884300D02*
X1965700D01*
X1961700Y1880300D02*
Y1888300D01*
X1962700Y1889300D02*
X1970700D01*
X1966700Y1885300D02*
Y1893300D01*
X1957700Y1889300D02*
X1965700D01*
X1961700Y1885300D02*
Y1893300D01*
X1962700Y1894300D02*
X1970700D01*
X1966700Y1890300D02*
Y1898300D01*
X1957700Y1894300D02*
X1965700D01*
X1961700Y1890300D02*
Y1898300D01*
X1962700Y1899300D02*
X1970700D01*
X1966700Y1895300D02*
Y1903300D01*
X1957700Y1899300D02*
X1965700D01*
X1961700Y1895300D02*
Y1903300D01*
X1962700Y1904300D02*
X1970700D01*
X1966700Y1900300D02*
Y1908300D01*
X1957700Y1904300D02*
X1965700D01*
X1961700Y1900300D02*
Y1908300D01*
X1956000Y2066000D02*
X1964000Y2074000D01*
X1956000D02*
X1964000Y2066000D01*
X1956000Y2056000D02*
X1964000Y2064000D01*
X1956000D02*
X1964000Y2056000D01*
X1956000Y2046000D02*
X1964000Y2054000D01*
X1956000D02*
X1964000Y2046000D01*
X1956000Y2036000D02*
X1964000Y2044000D01*
X1956000D02*
X1964000Y2036000D01*
X1956000Y2026000D02*
X1964000Y2034000D01*
X1956000D02*
X1964000Y2026000D01*
X1956000Y2016000D02*
X1964000Y2024000D01*
X1956000D02*
X1964000Y2016000D01*
X1956000Y2006000D02*
X1964000Y2014000D01*
X1956000D02*
X1964000Y2006000D01*
X1956000Y1996000D02*
X1964000Y2004000D01*
X1956000D02*
X1964000Y1996000D01*
X1956000Y1986000D02*
X1964000Y1994000D01*
X1956000D02*
X1964000Y1986000D01*
X1956000Y1976000D02*
X1964000Y1984000D01*
X1956000D02*
X1964000Y1976000D01*
X1986000D02*
X1994000Y1984000D01*
X1986000D02*
X1994000Y1976000D01*
X1986000Y1986000D02*
X1994000Y1994000D01*
X1986000D02*
X1994000Y1986000D01*
X1986000Y1996000D02*
X1994000Y2004000D01*
X1986000D02*
X1994000Y1996000D01*
X1986000Y2006000D02*
X1994000Y2014000D01*
X1986000D02*
X1994000Y2006000D01*
X1986000Y2016000D02*
X1994000Y2024000D01*
X1986000D02*
X1994000Y2016000D01*
X1986000Y2026000D02*
X1994000Y2034000D01*
X1986000D02*
X1994000Y2026000D01*
X1986000Y2036000D02*
X1994000Y2044000D01*
X1986000D02*
X1994000Y2036000D01*
X1986000Y2046000D02*
X1994000Y2054000D01*
X1986000D02*
X1994000Y2046000D01*
X1986000Y2056000D02*
X1994000Y2064000D01*
X1986000D02*
X1994000Y2056000D01*
X1986000Y2066000D02*
X1994000Y2074000D01*
X1986000D02*
X1994000Y2066000D01*
X1974400Y2156500D02*
X1982400D01*
Y2164500*
X1974400*
Y2156500*
X1978400Y2160500D02*
Y2164500D01*
X1974400Y2216700D02*
X1982400D01*
Y2224700*
X1974400*
Y2216700*
X1978400Y2220700D02*
Y2224700D01*
X1936000Y1976000D02*
X1944000Y1984000D01*
X1936000D02*
X1944000Y1976000D01*
X1936000Y1986000D02*
X1944000Y1994000D01*
X1936000D02*
X1944000Y1986000D01*
X1936000Y1996000D02*
X1944000Y2004000D01*
X1936000D02*
X1944000Y1996000D01*
X1936000Y2006000D02*
X1944000Y2014000D01*
X1936000D02*
X1944000Y2006000D01*
X1936000Y2016000D02*
X1944000Y2024000D01*
X1936000D02*
X1944000Y2016000D01*
X1936000Y2026000D02*
X1944000Y2034000D01*
X1936000D02*
X1944000Y2026000D01*
X1936000Y2036000D02*
X1944000Y2044000D01*
X1936000D02*
X1944000Y2036000D01*
X1936000Y2046000D02*
X1944000Y2054000D01*
X1936000D02*
X1944000Y2046000D01*
X1936000Y2056000D02*
X1944000Y2064000D01*
X1936000D02*
X1944000Y2056000D01*
X1936000Y2066000D02*
X1944000Y2074000D01*
X1936000D02*
X1944000Y2066000D01*
X1916000Y1976000D02*
X1924000Y1984000D01*
X1916000D02*
X1924000Y1976000D01*
X1916000Y1986000D02*
X1924000Y1994000D01*
X1916000D02*
X1924000Y1986000D01*
X1916000Y1996000D02*
X1924000Y2004000D01*
X1916000D02*
X1924000Y1996000D01*
X1916000Y2006000D02*
X1924000Y2014000D01*
X1916000D02*
X1924000Y2006000D01*
X1916000Y2016000D02*
X1924000Y2024000D01*
X1916000D02*
X1924000Y2016000D01*
X1916000Y2026000D02*
X1924000Y2034000D01*
X1916000D02*
X1924000Y2026000D01*
X1916000Y2036000D02*
X1924000Y2044000D01*
X1916000D02*
X1924000Y2036000D01*
X1916000Y2046000D02*
X1924000Y2054000D01*
X1916000D02*
X1924000Y2046000D01*
X1916000Y2056000D02*
X1924000Y2064000D01*
X1916000D02*
X1924000Y2056000D01*
X1916000Y2066000D02*
X1924000Y2074000D01*
X1916000D02*
X1924000Y2066000D01*
X1910000Y1936000D02*
X1914000Y1940000D01*
X1910000Y1944000*
X1906000Y1940000*
X1910000Y1936000*
Y1940000D02*
Y1944000D01*
X1920000Y1936000D02*
X1924000Y1940000D01*
X1920000Y1944000*
X1916000Y1940000*
X1920000Y1936000*
Y1940000D02*
Y1944000D01*
X1910000Y1926000D02*
X1914000Y1930000D01*
X1910000Y1934000*
X1906000Y1930000*
X1910000Y1926000*
Y1930000D02*
Y1934000D01*
X1920000Y1926000D02*
X1924000Y1930000D01*
X1920000Y1934000*
X1916000Y1930000*
X1920000Y1926000*
Y1930000D02*
Y1934000D01*
X1910000Y1916000D02*
X1914000Y1920000D01*
X1910000Y1924000*
X1906000Y1920000*
X1910000Y1916000*
Y1920000D02*
Y1924000D01*
X1920000Y1916000D02*
X1924000Y1920000D01*
X1920000Y1924000*
X1916000Y1920000*
X1920000Y1916000*
Y1920000D02*
Y1924000D01*
X1910000Y1906000D02*
X1914000Y1910000D01*
X1910000Y1914000*
X1906000Y1910000*
X1910000Y1906000*
Y1910000D02*
Y1914000D01*
X1920000Y1906000D02*
X1924000Y1910000D01*
X1920000Y1914000*
X1916000Y1910000*
X1920000Y1906000*
Y1910000D02*
Y1914000D01*
X1910000Y1896000D02*
X1914000Y1900000D01*
X1910000Y1904000*
X1906000Y1900000*
X1910000Y1896000*
Y1900000D02*
Y1904000D01*
X1920000Y1896000D02*
X1924000Y1900000D01*
X1920000Y1904000*
X1916000Y1900000*
X1920000Y1896000*
Y1900000D02*
Y1904000D01*
X1887600Y2157300D02*
X1895600D01*
Y2165300*
X1887600*
Y2157300*
X1891600Y2161300D02*
Y2165300D01*
X1887600Y2217500D02*
X1895600D01*
Y2225500*
X1887600*
Y2217500*
X1891600Y2221500D02*
Y2225500D01*
X1853200Y2217700D02*
X1861200D01*
X1853200Y2225700*
X1861200*
X1853200Y2217700*
X2027200Y2217800D02*
X2035200D01*
X2027200Y2225800*
X2035200*
X2027200Y2217800*
X2029900Y1820900D02*
X2037900D01*
X2029900Y1828900*
X2037900*
X2029900Y1820900*
X1853800Y1821100D02*
X1861800D01*
X1853800Y1829100*
X1861800*
X1853800Y1821100*
X1980666Y1825679D02*
X1988666Y1833679D01*
Y1825679*
X1980666Y1833679*
Y1825679*
X1976729Y1817805D02*
X1984729Y1825805D01*
Y1817805*
X1976729Y1825805*
Y1817805*
X1972792Y1825679D02*
X1980792Y1833679D01*
Y1825679*
X1972792Y1833679*
Y1825679*
X1968855Y1817805D02*
X1976855Y1825805D01*
Y1817805*
X1968855Y1825805*
Y1817805*
X1964918Y1825679D02*
X1972918Y1833679D01*
Y1825679*
X1964918Y1833679*
Y1825679*
X1960981Y1817805D02*
X1968981Y1825805D01*
Y1817805*
X1960981Y1825805*
Y1817805*
X1957044Y1825679D02*
X1965044Y1833679D01*
Y1825679*
X1957044Y1833679*
Y1825679*
X1953107Y1817805D02*
X1961107Y1825805D01*
Y1817805*
X1953107Y1825805*
Y1817805*
X1949170Y1825679D02*
X1957170Y1833679D01*
Y1825679*
X1949170Y1833679*
Y1825679*
X1945233Y1817805D02*
X1953233Y1825805D01*
Y1817805*
X1945233Y1825805*
Y1817805*
X1941296Y1825679D02*
X1949296Y1833679D01*
Y1825679*
X1941296Y1833679*
Y1825679*
X1929485Y1817805D02*
X1937485Y1825805D01*
Y1817805*
X1929485Y1825805*
Y1817805*
X1925548Y1825679D02*
X1933548Y1833679D01*
Y1825679*
X1925548Y1833679*
Y1825679*
X1921611Y1817805D02*
X1929611Y1825805D01*
Y1817805*
X1921611Y1825805*
Y1817805*
X1917674Y1825679D02*
X1925674Y1833679D01*
Y1825679*
X1917674Y1833679*
Y1825679*
X1913737Y1817805D02*
X1921737Y1825805D01*
Y1817805*
X1913737Y1825805*
Y1817805*
X1909800Y1825679D02*
X1917800Y1833679D01*
Y1825679*
X1909800Y1833679*
Y1825679*
X1905863Y1817805D02*
X1913863Y1825805D01*
Y1817805*
X1905863Y1825805*
Y1817805*
X1980666Y1835521D02*
X1988666Y1843521D01*
Y1835521*
X1980666Y1843521*
Y1835521*
X1976729Y1843395D02*
X1984729Y1851395D01*
Y1843395*
X1976729Y1851395*
Y1843395*
X1972792Y1835521D02*
X1980792Y1843521D01*
Y1835521*
X1972792Y1843521*
Y1835521*
X1968855Y1843395D02*
X1976855Y1851395D01*
Y1843395*
X1968855Y1851395*
Y1843395*
X1964918Y1835521D02*
X1972918Y1843521D01*
Y1835521*
X1964918Y1843521*
Y1835521*
X1960981Y1843395D02*
X1968981Y1851395D01*
Y1843395*
X1960981Y1851395*
Y1843395*
X1957044Y1835521D02*
X1965044Y1843521D01*
Y1835521*
X1957044Y1843521*
Y1835521*
X1953107Y1843395D02*
X1961107Y1851395D01*
Y1843395*
X1953107Y1851395*
Y1843395*
X1949170Y1835521D02*
X1957170Y1843521D01*
Y1835521*
X1949170Y1843521*
Y1835521*
X1945233Y1843395D02*
X1953233Y1851395D01*
Y1843395*
X1945233Y1851395*
Y1843395*
X1941296Y1835521D02*
X1949296Y1843521D01*
Y1835521*
X1941296Y1843521*
Y1835521*
X1929485Y1843395D02*
X1937485Y1851395D01*
Y1843395*
X1929485Y1851395*
Y1843395*
X1925548Y1835521D02*
X1933548Y1843521D01*
Y1835521*
X1925548Y1843521*
Y1835521*
X1921611Y1843395D02*
X1929611Y1851395D01*
Y1843395*
X1921611Y1851395*
Y1843395*
X1917674Y1835521D02*
X1925674Y1843521D01*
Y1835521*
X1917674Y1843521*
Y1835521*
X1913737Y1843395D02*
X1921737Y1851395D01*
Y1843395*
X1913737Y1851395*
Y1843395*
X1909800Y1835521D02*
X1917800Y1843521D01*
Y1835521*
X1909800Y1843521*
Y1835521*
X1905863Y1843395D02*
X1913863Y1851395D01*
Y1843395*
X1905863Y1851395*
Y1843395*
X1934800Y1834600D02*
X1942800D01*
X1938800Y1830600D02*
Y1838600D01*
X1941709Y1839881D02*
X1940800Y1836600D01*
X1941709Y1839881D02*
X1942618Y1836600D01*
X1941141Y1837694D02*
X1942277D01*
X1898776Y1834600D02*
X1906776D01*
X1902776Y1830600D02*
Y1838600D01*
X1905685Y1839881D02*
X1904776Y1836600D01*
X1905685Y1839881D02*
X1906595Y1836600D01*
X1905117Y1837694D02*
X1906254D01*
X1910400Y1816500D02*
X1918400D01*
X1914400Y1812500D02*
Y1820500D01*
X1916400Y1821781D02*
Y1818500D01*
Y1821781D02*
X1917423D01*
X1917764Y1821625*
X1917877Y1821469*
X1917991Y1821156*
Y1820844*
X1917877Y1820531*
X1917764Y1820375*
X1917423Y1820219*
X1916400D02*
X1917423D01*
X1917764Y1820063*
X1917764D02*
X1917877Y1819906D01*
X1917991Y1819594*
Y1819125*
X1917877Y1818813*
X1917877D02*
X1917764Y1818656D01*
X1917423Y1818500*
X1916400*
X1945300Y1814400D02*
X1953300D01*
X1949300Y1810400D02*
Y1818400D01*
X1951300Y1819681D02*
Y1816400D01*
Y1819681D02*
X1952323D01*
X1952664Y1819525*
X1952777Y1819369*
X1952891Y1819056*
Y1818744*
X1952777Y1818431*
X1952664Y1818275*
X1952323Y1818119*
X1951300D02*
X1952323D01*
X1952664Y1817963*
X1952664D02*
X1952777Y1817806D01*
X1952891Y1817494*
Y1817025*
X1952777Y1816713*
X1952777D02*
X1952664Y1816556D01*
X1952323Y1816400*
X1951300*
X1876000Y1825000D02*
X1884000D01*
X1880000Y1821000D02*
Y1829000D01*
X1882000Y1830281D02*
Y1827000D01*
Y1830281D02*
X1883023D01*
X1883364Y1830125*
X1883477Y1829969*
X1883591Y1829656*
Y1829344*
X1883477Y1829031*
X1883364Y1828875*
X1883023Y1828719*
X1882000D02*
X1883023D01*
X1883364Y1828563*
X1883364D02*
X1883477Y1828406D01*
X1883591Y1828094*
Y1827625*
X1883477Y1827313*
X1883477D02*
X1883364Y1827156D01*
X1883023Y1827000*
X1882000*
X1866000Y1844800D02*
X1874000D01*
X1870000Y1840800D02*
Y1848800D01*
X1872000Y1850081D02*
Y1846800D01*
Y1850081D02*
X1873023D01*
X1873364Y1849925*
X1873477Y1849769*
X1873591Y1849456*
Y1849144*
X1873477Y1848831*
X1873364Y1848675*
X1873023Y1848519*
X1872000D02*
X1873023D01*
X1873364Y1848363*
X1873364D02*
X1873477Y1848206D01*
X1873591Y1847894*
Y1847425*
X1873477Y1847113*
X1873477D02*
X1873364Y1846956D01*
X1873023Y1846800*
X1872000*
X1941700Y1857600D02*
X1949700D01*
X1945700Y1853600D02*
Y1861600D01*
X1947700Y1862881D02*
Y1859600D01*
Y1862881D02*
X1948723D01*
X1949064Y1862725*
X1949177Y1862569*
X1949291Y1862256*
Y1861944*
X1949177Y1861631*
X1949064Y1861475*
X1948723Y1861319*
X1947700D02*
X1948723D01*
X1949064Y1861163*
X1949064D02*
X1949177Y1861006D01*
X1949291Y1860694*
Y1860225*
X1949177Y1859913*
X1949177D02*
X1949064Y1859756D01*
X1948723Y1859600*
X1947700*
X1961000Y1857500D02*
X1969000D01*
X1965000Y1853500D02*
Y1861500D01*
X1967000Y1862781D02*
Y1859500D01*
Y1862781D02*
X1968023D01*
X1968364Y1862625*
X1968477Y1862469*
X1968591Y1862156*
Y1861844*
X1968477Y1861531*
X1968364Y1861375*
X1968023Y1861219*
X1967000D02*
X1968023D01*
X1968364Y1861063*
X1968364D02*
X1968477Y1860906D01*
X1968591Y1860594*
Y1860125*
X1968477Y1859813*
X1968477D02*
X1968364Y1859656D01*
X1968023Y1859500*
X1967000*
X2003500Y1852400D02*
X2011500D01*
X2007500Y1848400D02*
Y1856400D01*
X2009500Y1857681D02*
Y1854400D01*
Y1857681D02*
X2010523D01*
X2010864Y1857525*
X2010977Y1857369*
X2011091Y1857056*
Y1856744*
X2010977Y1856431*
X2010864Y1856275*
X2010523Y1856119*
X2009500D02*
X2010523D01*
X2010864Y1855963*
X2010864D02*
X2010977Y1855806D01*
X2011091Y1855494*
Y1855025*
X2010977Y1854713*
X2010977D02*
X2010864Y1854556D01*
X2010523Y1854400*
X2009500*
X2011000Y1842500D02*
X2019000D01*
X2015000Y1838500D02*
Y1846500D01*
X2017000Y1847781D02*
Y1844500D01*
Y1847781D02*
X2018023D01*
X2018364Y1847625*
X2018477Y1847469*
X2018591Y1847156*
Y1846844*
X2018477Y1846531*
X2018364Y1846375*
X2018023Y1846219*
X2017000D02*
X2018023D01*
X2018364Y1846063*
X2018364D02*
X2018477Y1845906D01*
X2018591Y1845594*
Y1845125*
X2018477Y1844813*
X2018477D02*
X2018364Y1844656D01*
X2018023Y1844500*
X2017000*
X1856000Y1860000D02*
X1864000D01*
X1860000Y1856000D02*
Y1864000D01*
X1862000Y1865281D02*
Y1862000D01*
Y1865281D02*
X1863023D01*
X1863364Y1865125*
X1863477Y1864969*
X1863591Y1864656*
Y1864344*
X1863477Y1864031*
X1863364Y1863875*
X1863023Y1863719*
X1862000D02*
X1863023D01*
X1863364Y1863563*
X1863364D02*
X1863477Y1863406D01*
X1863591Y1863094*
Y1862625*
X1863477Y1862313*
X1863477D02*
X1863364Y1862156D01*
X1863023Y1862000*
X1862000*
X1922100Y1862400D02*
X1930100D01*
X1926100Y1858400D02*
Y1866400D01*
X1928100Y1867681D02*
Y1864400D01*
Y1867681D02*
X1929123D01*
X1929464Y1867525*
X1929577Y1867369*
X1929691Y1867056*
Y1866744*
X1929577Y1866431*
X1929464Y1866275*
X1929123Y1866119*
X1928100D02*
X1929123D01*
X1929464Y1865963*
X1929464D02*
X1929577Y1865806D01*
X1929691Y1865494*
Y1865025*
X1929577Y1864713*
X1929577D02*
X1929464Y1864556D01*
X1929123Y1864400*
X1928100*
X1924500Y1867600D02*
X1932500D01*
X1928500Y1863600D02*
Y1871600D01*
X1930500Y1872881D02*
Y1869600D01*
Y1872881D02*
X1931523D01*
X1931864Y1872725*
X1931977Y1872569*
X1932091Y1872256*
Y1871944*
X1931977Y1871631*
X1931864Y1871475*
X1931523Y1871319*
X1930500D02*
X1931523D01*
X1931864Y1871163*
X1931864D02*
X1931977Y1871006D01*
X1932091Y1870694*
Y1870225*
X1931977Y1869913*
X1931977D02*
X1931864Y1869756D01*
X1931523Y1869600*
X1930500*
X1969700Y1866900D02*
X1977700D01*
X1973700Y1862900D02*
Y1870900D01*
X1975700Y1872181D02*
Y1868900D01*
Y1872181D02*
X1976723D01*
X1977064Y1872025*
X1977177Y1871869*
X1977291Y1871556*
Y1871244*
X1977177Y1870931*
X1977064Y1870775*
X1976723Y1870619*
X1975700D02*
X1976723D01*
X1977064Y1870463*
X1977064D02*
X1977177Y1870306D01*
X1977291Y1869994*
Y1869525*
X1977177Y1869213*
X1977177D02*
X1977064Y1869056D01*
X1976723Y1868900*
X1975700*
X1881000Y1880000D02*
X1889000D01*
X1885000Y1876000D02*
Y1884000D01*
X1887000Y1885281D02*
Y1882000D01*
Y1885281D02*
X1888023D01*
X1888364Y1885125*
X1888477Y1884969*
X1888591Y1884656*
Y1884344*
X1888477Y1884031*
X1888364Y1883875*
X1888023Y1883719*
X1887000D02*
X1888023D01*
X1888364Y1883563*
X1888364D02*
X1888477Y1883406D01*
X1888591Y1883094*
Y1882625*
X1888477Y1882313*
X1888477D02*
X1888364Y1882156D01*
X1888023Y1882000*
X1887000*
X1944000Y1887500D02*
X1952000D01*
X1948000Y1883500D02*
Y1891500D01*
X1950000Y1892781D02*
Y1889500D01*
Y1892781D02*
X1951023D01*
X1951364Y1892625*
X1951477Y1892469*
X1951591Y1892156*
Y1891844*
X1951477Y1891531*
X1951364Y1891375*
X1951023Y1891219*
X1950000D02*
X1951023D01*
X1951364Y1891063*
X1951364D02*
X1951477Y1890906D01*
X1951591Y1890594*
Y1890125*
X1951477Y1889813*
X1951477D02*
X1951364Y1889656D01*
X1951023Y1889500*
X1950000*
X1962700Y1879200D02*
X1970700D01*
X1966700Y1875200D02*
Y1883200D01*
X1968700Y1884481D02*
Y1881200D01*
Y1884481D02*
X1969723D01*
X1970064Y1884325*
X1970177Y1884169*
X1970291Y1883856*
Y1883544*
X1970177Y1883231*
X1970064Y1883075*
X1969723Y1882919*
X1968700D02*
X1969723D01*
X1970064Y1882763*
X1970064D02*
X1970177Y1882606D01*
X1970291Y1882294*
Y1881825*
X1970177Y1881513*
X1970177D02*
X1970064Y1881356D01*
X1969723Y1881200*
X1968700*
X1973200Y1895000D02*
X1981200D01*
X1977200Y1891000D02*
Y1899000D01*
X1979200Y1900281D02*
Y1897000D01*
Y1900281D02*
X1980223D01*
X1980564Y1900125*
X1980677Y1899969*
X1980791Y1899656*
Y1899344*
X1980677Y1899031*
X1980564Y1898875*
X1980223Y1898719*
X1979200D02*
X1980223D01*
X1980564Y1898563*
X1980564D02*
X1980677Y1898406D01*
X1980791Y1898094*
Y1897625*
X1980677Y1897313*
X1980677D02*
X1980564Y1897156D01*
X1980223Y1897000*
X1979200*
X1981000Y1915000D02*
X1989000D01*
X1985000Y1911000D02*
Y1919000D01*
X1987000Y1920281D02*
Y1917000D01*
Y1920281D02*
X1988023D01*
X1988364Y1920125*
X1988477Y1919969*
X1988591Y1919656*
Y1919344*
X1988477Y1919031*
X1988364Y1918875*
X1988023Y1918719*
X1987000D02*
X1988023D01*
X1988364Y1918563*
X1988364D02*
X1988477Y1918406D01*
X1988591Y1918094*
Y1917625*
X1988477Y1917313*
X1988477D02*
X1988364Y1917156D01*
X1988023Y1917000*
X1987000*
X1973000Y1904300D02*
X1981000D01*
X1977000Y1900300D02*
Y1908300D01*
X1979000Y1909581D02*
Y1906300D01*
Y1909581D02*
X1980023D01*
X1980364Y1909425*
X1980477Y1909269*
X1980591Y1908956*
Y1908644*
X1980477Y1908331*
X1980364Y1908175*
X1980023Y1908019*
X1979000D02*
X1980023D01*
X1980364Y1907863*
X1980364D02*
X1980477Y1907706D01*
X1980591Y1907394*
Y1906925*
X1980477Y1906613*
X1980477D02*
X1980364Y1906456D01*
X1980023Y1906300*
X1979000*
X1975000Y1921500D02*
X1983000D01*
X1979000Y1917500D02*
Y1925500D01*
X1981000Y1926781D02*
Y1923500D01*
Y1926781D02*
X1982023D01*
X1982364Y1926625*
X1982477Y1926469*
X1982591Y1926156*
Y1925844*
X1982477Y1925531*
X1982364Y1925375*
X1982023Y1925219*
X1981000D02*
X1982023D01*
X1982364Y1925063*
X1982364D02*
X1982477Y1924906D01*
X1982591Y1924594*
Y1924125*
X1982477Y1923813*
X1982477D02*
X1982364Y1923656D01*
X1982023Y1923500*
X1981000*
X1988500Y1925000D02*
X1996500D01*
X1992500Y1921000D02*
Y1929000D01*
X1994500Y1930281D02*
Y1927000D01*
Y1930281D02*
X1995523D01*
X1995864Y1930125*
X1995977Y1929969*
X1996091Y1929656*
Y1929344*
X1995977Y1929031*
X1995864Y1928875*
X1995523Y1928719*
X1994500D02*
X1995523D01*
X1995864Y1928563*
X1995864D02*
X1995977Y1928406D01*
X1996091Y1928094*
Y1927625*
X1995977Y1927313*
X1995977D02*
X1995864Y1927156D01*
X1995523Y1927000*
X1994500*
X1983500Y1935000D02*
X1991500D01*
X1987500Y1931000D02*
Y1939000D01*
X1989500Y1940281D02*
Y1937000D01*
Y1940281D02*
X1990523D01*
X1990864Y1940125*
X1990977Y1939969*
X1991091Y1939656*
Y1939344*
X1990977Y1939031*
X1990864Y1938875*
X1990523Y1938719*
X1989500D02*
X1990523D01*
X1990864Y1938563*
X1990864D02*
X1990977Y1938406D01*
X1991091Y1938094*
Y1937625*
X1990977Y1937313*
X1990977D02*
X1990864Y1937156D01*
X1990523Y1937000*
X1989500*
X1876000Y1940000D02*
X1884000D01*
X1880000Y1936000D02*
Y1944000D01*
X1882000Y1945281D02*
Y1942000D01*
Y1945281D02*
X1883023D01*
X1883364Y1945125*
X1883477Y1944969*
X1883591Y1944656*
Y1944344*
X1883477Y1944031*
X1883364Y1943875*
X1883023Y1943719*
X1882000D02*
X1883023D01*
X1883364Y1943563*
X1883364D02*
X1883477Y1943406D01*
X1883591Y1943094*
Y1942625*
X1883477Y1942313*
X1883477D02*
X1883364Y1942156D01*
X1883023Y1942000*
X1882000*
X1971000Y1947500D02*
X1979000D01*
X1975000Y1943500D02*
Y1951500D01*
X1977000Y1952781D02*
Y1949500D01*
Y1952781D02*
X1978023D01*
X1978364Y1952625*
X1978477Y1952469*
X1978591Y1952156*
Y1951844*
X1978477Y1951531*
X1978364Y1951375*
X1978023Y1951219*
X1977000D02*
X1978023D01*
X1978364Y1951063*
X1978364D02*
X1978477Y1950906D01*
X1978591Y1950594*
Y1950125*
X1978477Y1949813*
X1978477D02*
X1978364Y1949656D01*
X1978023Y1949500*
X1977000*
X1876000Y1960000D02*
X1884000D01*
X1880000Y1956000D02*
Y1964000D01*
X1882000Y1965281D02*
Y1962000D01*
Y1965281D02*
X1883023D01*
X1883364Y1965125*
X1883477Y1964969*
X1883591Y1964656*
Y1964344*
X1883477Y1964031*
X1883364Y1963875*
X1883023Y1963719*
X1882000D02*
X1883023D01*
X1883364Y1963563*
X1883364D02*
X1883477Y1963406D01*
X1883591Y1963094*
Y1962625*
X1883477Y1962313*
X1883477D02*
X1883364Y1962156D01*
X1883023Y1962000*
X1882000*
X1986000Y1967500D02*
X1994000D01*
X1990000Y1963500D02*
Y1971500D01*
X1992000Y1972781D02*
Y1969500D01*
Y1972781D02*
X1993023D01*
X1993364Y1972625*
X1993477Y1972469*
X1993591Y1972156*
Y1971844*
X1993477Y1971531*
X1993364Y1971375*
X1993023Y1971219*
X1992000D02*
X1993023D01*
X1993364Y1971063*
X1993364D02*
X1993477Y1970906D01*
X1993591Y1970594*
Y1970125*
X1993477Y1969813*
X1993477D02*
X1993364Y1969656D01*
X1993023Y1969500*
X1992000*
X1876000Y1990000D02*
X1884000D01*
X1880000Y1986000D02*
Y1994000D01*
X1882000Y1995281D02*
Y1992000D01*
Y1995281D02*
X1883023D01*
X1883364Y1995125*
X1883477Y1994969*
X1883591Y1994656*
Y1994344*
X1883477Y1994031*
X1883364Y1993875*
X1883023Y1993719*
X1882000D02*
X1883023D01*
X1883364Y1993563*
X1883364D02*
X1883477Y1993406D01*
X1883591Y1993094*
Y1992625*
X1883477Y1992313*
X1883477D02*
X1883364Y1992156D01*
X1883023Y1992000*
X1882000*
X1901000Y1987500D02*
X1909000D01*
X1905000Y1983500D02*
Y1991500D01*
X1907000Y1992781D02*
Y1989500D01*
Y1992781D02*
X1908023D01*
X1908364Y1992625*
X1908477Y1992469*
X1908591Y1992156*
Y1991844*
X1908477Y1991531*
X1908364Y1991375*
X1908023Y1991219*
X1907000D02*
X1908023D01*
X1908364Y1991063*
X1908364D02*
X1908477Y1990906D01*
X1908591Y1990594*
Y1990125*
X1908477Y1989813*
X1908477D02*
X1908364Y1989656D01*
X1908023Y1989500*
X1907000*
X1925300Y1995400D02*
X1933300D01*
X1929300Y1991400D02*
Y1999400D01*
X1931300Y2000681D02*
Y1997400D01*
Y2000681D02*
X1932323D01*
X1932664Y2000525*
X1932777Y2000369*
X1932891Y2000056*
Y1999744*
X1932777Y1999431*
X1932664Y1999275*
X1932323Y1999119*
X1931300D02*
X1932323D01*
X1932664Y1998963*
X1932664D02*
X1932777Y1998806D01*
X1932891Y1998494*
Y1998025*
X1932777Y1997713*
X1932777D02*
X1932664Y1997556D01*
X1932323Y1997400*
X1931300*
X1960500Y1985000D02*
X1968500D01*
X1964500Y1981000D02*
Y1989000D01*
X1966500Y1990281D02*
Y1987000D01*
Y1990281D02*
X1967523D01*
X1967864Y1990125*
X1967977Y1989969*
X1968091Y1989656*
Y1989344*
X1967977Y1989031*
X1967864Y1988875*
X1967523Y1988719*
X1966500D02*
X1967523D01*
X1967864Y1988563*
X1967864D02*
X1967977Y1988406D01*
X1968091Y1988094*
Y1987625*
X1967977Y1987313*
X1967977D02*
X1967864Y1987156D01*
X1967523Y1987000*
X1966500*
X1963100Y1995000D02*
X1971100D01*
X1967100Y1991000D02*
Y1999000D01*
X1969100Y2000281D02*
Y1997000D01*
Y2000281D02*
X1970123D01*
X1970464Y2000125*
X1970577Y1999969*
X1970691Y1999656*
Y1999344*
X1970577Y1999031*
X1970464Y1998875*
X1970123Y1998719*
X1969100D02*
X1970123D01*
X1970464Y1998563*
X1970464D02*
X1970577Y1998406D01*
X1970691Y1998094*
Y1997625*
X1970577Y1997313*
X1970577D02*
X1970464Y1997156D01*
X1970123Y1997000*
X1969100*
X1852400Y2017300D02*
X1860400D01*
X1856400Y2013300D02*
Y2021300D01*
X1858400Y2022581D02*
Y2019300D01*
Y2022581D02*
X1859423D01*
X1859764Y2022425*
X1859877Y2022269*
X1859991Y2021956*
Y2021644*
X1859877Y2021331*
X1859764Y2021175*
X1859423Y2021019*
X1858400D02*
X1859423D01*
X1859764Y2020863*
X1859764D02*
X1859877Y2020706D01*
X1859991Y2020394*
Y2019925*
X1859877Y2019613*
X1859877D02*
X1859764Y2019456D01*
X1859423Y2019300*
X1858400*
X1875800Y2010000D02*
X1883800D01*
X1879800Y2006000D02*
Y2014000D01*
X1881800Y2015281D02*
Y2012000D01*
Y2015281D02*
X1882823D01*
X1883164Y2015125*
X1883277Y2014969*
X1883391Y2014656*
Y2014344*
X1883277Y2014031*
X1883164Y2013875*
X1882823Y2013719*
X1881800D02*
X1882823D01*
X1883164Y2013563*
X1883164D02*
X1883277Y2013406D01*
X1883391Y2013094*
Y2012625*
X1883277Y2012313*
X1883277D02*
X1883164Y2012156D01*
X1882823Y2012000*
X1881800*
X1896000Y2010000D02*
X1904000D01*
X1900000Y2006000D02*
Y2014000D01*
X1902000Y2015281D02*
Y2012000D01*
Y2015281D02*
X1903023D01*
X1903364Y2015125*
X1903477Y2014969*
X1903591Y2014656*
Y2014344*
X1903477Y2014031*
X1903364Y2013875*
X1903023Y2013719*
X1902000D02*
X1903023D01*
X1903364Y2013563*
X1903364D02*
X1903477Y2013406D01*
X1903591Y2013094*
Y2012625*
X1903477Y2012313*
X1903477D02*
X1903364Y2012156D01*
X1903023Y2012000*
X1902000*
X1948500Y2018000D02*
X1956500D01*
X1952500Y2014000D02*
Y2022000D01*
X1954500Y2023281D02*
Y2020000D01*
Y2023281D02*
X1955523D01*
X1955864Y2023125*
X1955977Y2022969*
X1956091Y2022656*
Y2022344*
X1955977Y2022031*
X1955864Y2021875*
X1955523Y2021719*
X1954500D02*
X1955523D01*
X1955864Y2021563*
X1955864D02*
X1955977Y2021406D01*
X1956091Y2021094*
Y2020625*
X1955977Y2020313*
X1955977D02*
X1955864Y2020156D01*
X1955523Y2020000*
X1954500*
X1896000Y2050000D02*
X1904000D01*
X1900000Y2046000D02*
Y2054000D01*
X1902000Y2055281D02*
Y2052000D01*
Y2055281D02*
X1903023D01*
X1903364Y2055125*
X1903477Y2054969*
X1903591Y2054656*
Y2054344*
X1903477Y2054031*
X1903364Y2053875*
X1903023Y2053719*
X1902000D02*
X1903023D01*
X1903364Y2053563*
X1903364D02*
X1903477Y2053406D01*
X1903591Y2053094*
Y2052625*
X1903477Y2052313*
X1903477D02*
X1903364Y2052156D01*
X1903023Y2052000*
X1902000*
X1871000Y2065000D02*
X1879000D01*
X1875000Y2061000D02*
Y2069000D01*
X1877000Y2070281D02*
Y2067000D01*
Y2070281D02*
X1878023D01*
X1878364Y2070125*
X1878477Y2069969*
X1878591Y2069656*
Y2069344*
X1878477Y2069031*
X1878364Y2068875*
X1878023Y2068719*
X1877000D02*
X1878023D01*
X1878364Y2068563*
X1878364D02*
X1878477Y2068406D01*
X1878591Y2068094*
Y2067625*
X1878477Y2067313*
X1878477D02*
X1878364Y2067156D01*
X1878023Y2067000*
X1877000*
X1916000Y2077500D02*
X1924000D01*
X1920000Y2073500D02*
Y2081500D01*
X1922000Y2082781D02*
Y2079500D01*
Y2082781D02*
X1923023D01*
X1923364Y2082625*
X1923477Y2082469*
X1923591Y2082156*
Y2081844*
X1923477Y2081531*
X1923364Y2081375*
X1923023Y2081219*
X1922000D02*
X1923023D01*
X1923364Y2081063*
X1923364D02*
X1923477Y2080906D01*
X1923591Y2080594*
Y2080125*
X1923477Y2079813*
X1923477D02*
X1923364Y2079656D01*
X1923023Y2079500*
X1922000*
X1891000Y2085000D02*
X1899000D01*
X1895000Y2081000D02*
Y2089000D01*
X1897000Y2090281D02*
Y2087000D01*
Y2090281D02*
X1898023D01*
X1898364Y2090125*
X1898477Y2089969*
X1898591Y2089656*
Y2089344*
X1898477Y2089031*
X1898364Y2088875*
X1898023Y2088719*
X1897000D02*
X1898023D01*
X1898364Y2088563*
X1898364D02*
X1898477Y2088406D01*
X1898591Y2088094*
Y2087625*
X1898477Y2087313*
X1898477D02*
X1898364Y2087156D01*
X1898023Y2087000*
X1897000*
X1891000Y2092500D02*
X1899000D01*
X1895000Y2088500D02*
Y2096500D01*
X1897000Y2097781D02*
Y2094500D01*
Y2097781D02*
X1898023D01*
X1898364Y2097625*
X1898477Y2097469*
X1898591Y2097156*
Y2096844*
X1898477Y2096531*
X1898364Y2096375*
X1898023Y2096219*
X1897000D02*
X1898023D01*
X1898364Y2096063*
X1898364D02*
X1898477Y2095906D01*
X1898591Y2095594*
Y2095125*
X1898477Y2094813*
X1898477D02*
X1898364Y2094656D01*
X1898023Y2094500*
X1897000*
X1896000Y2080000D02*
X1904000D01*
X1900000Y2076000D02*
Y2084000D01*
X1902000Y2085281D02*
Y2082000D01*
Y2085281D02*
X1903023D01*
X1903364Y2085125*
X1903477Y2084969*
X1903591Y2084656*
Y2084344*
X1903477Y2084031*
X1903364Y2083875*
X1903023Y2083719*
X1902000D02*
X1903023D01*
X1903364Y2083563*
X1903364D02*
X1903477Y2083406D01*
X1903591Y2083094*
Y2082625*
X1903477Y2082313*
X1903477D02*
X1903364Y2082156D01*
X1903023Y2082000*
X1902000*
X1966000Y2090000D02*
X1974000D01*
X1970000Y2086000D02*
Y2094000D01*
X1972000Y2095281D02*
Y2092000D01*
Y2095281D02*
X1973023D01*
X1973364Y2095125*
X1973477Y2094969*
X1973591Y2094656*
Y2094344*
X1973477Y2094031*
X1973364Y2093875*
X1973023Y2093719*
X1972000D02*
X1973023D01*
X1973364Y2093563*
X1973364D02*
X1973477Y2093406D01*
X1973591Y2093094*
Y2092625*
X1973477Y2092313*
X1973477D02*
X1973364Y2092156D01*
X1973023Y2092000*
X1972000*
X1893500Y2110000D02*
X1901500D01*
X1897500Y2106000D02*
Y2114000D01*
X1899500Y2115281D02*
Y2112000D01*
Y2115281D02*
X1900523D01*
X1900864Y2115125*
X1900977Y2114969*
X1901091Y2114656*
Y2114344*
X1900977Y2114031*
X1900864Y2113875*
X1900523Y2113719*
X1899500D02*
X1900523D01*
X1900864Y2113563*
X1900864D02*
X1900977Y2113406D01*
X1901091Y2113094*
Y2112625*
X1900977Y2112313*
X1900977D02*
X1900864Y2112156D01*
X1900523Y2112000*
X1899500*
X1938500Y2105000D02*
X1946500D01*
X1942500Y2101000D02*
Y2109000D01*
X1944500Y2110281D02*
Y2107000D01*
Y2110281D02*
X1945523D01*
X1945864Y2110125*
X1945977Y2109969*
X1946091Y2109656*
Y2109344*
X1945977Y2109031*
X1945864Y2108875*
X1945523Y2108719*
X1944500D02*
X1945523D01*
X1945864Y2108563*
X1945864D02*
X1945977Y2108406D01*
X1946091Y2108094*
Y2107625*
X1945977Y2107313*
X1945977D02*
X1945864Y2107156D01*
X1945523Y2107000*
X1944500*
X1966000Y2107500D02*
X1974000D01*
X1970000Y2103500D02*
Y2111500D01*
X1972000Y2112781D02*
Y2109500D01*
Y2112781D02*
X1973023D01*
X1973364Y2112625*
X1973477Y2112469*
X1973591Y2112156*
Y2111844*
X1973477Y2111531*
X1973364Y2111375*
X1973023Y2111219*
X1972000D02*
X1973023D01*
X1973364Y2111063*
X1973364D02*
X1973477Y2110906D01*
X1973591Y2110594*
Y2110125*
X1973477Y2109813*
X1973477D02*
X1973364Y2109656D01*
X1973023Y2109500*
X1972000*
X1876000Y2130000D02*
X1884000D01*
X1880000Y2126000D02*
Y2134000D01*
X1882000Y2135281D02*
Y2132000D01*
Y2135281D02*
X1883023D01*
X1883364Y2135125*
X1883477Y2134969*
X1883591Y2134656*
Y2134344*
X1883477Y2134031*
X1883364Y2133875*
X1883023Y2133719*
X1882000D02*
X1883023D01*
X1883364Y2133563*
X1883364D02*
X1883477Y2133406D01*
X1883591Y2133094*
Y2132625*
X1883477Y2132313*
X1883477D02*
X1883364Y2132156D01*
X1883023Y2132000*
X1882000*
X1896000Y2127500D02*
X1904000D01*
X1900000Y2123500D02*
Y2131500D01*
X1902000Y2132781D02*
Y2129500D01*
Y2132781D02*
X1903023D01*
X1903364Y2132625*
X1903477Y2132469*
X1903591Y2132156*
Y2131844*
X1903477Y2131531*
X1903364Y2131375*
X1903023Y2131219*
X1902000D02*
X1903023D01*
X1903364Y2131063*
X1903364D02*
X1903477Y2130906D01*
X1903591Y2130594*
Y2130125*
X1903477Y2129813*
X1903477D02*
X1903364Y2129656D01*
X1903023Y2129500*
X1902000*
X1916000Y2127500D02*
X1924000D01*
X1920000Y2123500D02*
Y2131500D01*
X1922000Y2132781D02*
Y2129500D01*
Y2132781D02*
X1923023D01*
X1923364Y2132625*
X1923477Y2132469*
X1923591Y2132156*
Y2131844*
X1923477Y2131531*
X1923364Y2131375*
X1923023Y2131219*
X1922000D02*
X1923023D01*
X1923364Y2131063*
X1923364D02*
X1923477Y2130906D01*
X1923591Y2130594*
Y2130125*
X1923477Y2129813*
X1923477D02*
X1923364Y2129656D01*
X1923023Y2129500*
X1922000*
X1936000Y2130000D02*
X1944000D01*
X1940000Y2126000D02*
Y2134000D01*
X1942000Y2135281D02*
Y2132000D01*
Y2135281D02*
X1943023D01*
X1943364Y2135125*
X1943477Y2134969*
X1943591Y2134656*
Y2134344*
X1943477Y2134031*
X1943364Y2133875*
X1943023Y2133719*
X1942000D02*
X1943023D01*
X1943364Y2133563*
X1943364D02*
X1943477Y2133406D01*
X1943591Y2133094*
Y2132625*
X1943477Y2132313*
X1943477D02*
X1943364Y2132156D01*
X1943023Y2132000*
X1942000*
X1956000Y2130000D02*
X1964000D01*
X1960000Y2126000D02*
Y2134000D01*
X1962000Y2135281D02*
Y2132000D01*
Y2135281D02*
X1963023D01*
X1963364Y2135125*
X1963477Y2134969*
X1963591Y2134656*
Y2134344*
X1963477Y2134031*
X1963364Y2133875*
X1963023Y2133719*
X1962000D02*
X1963023D01*
X1963364Y2133563*
X1963364D02*
X1963477Y2133406D01*
X1963591Y2133094*
Y2132625*
X1963477Y2132313*
X1963477D02*
X1963364Y2132156D01*
X1963023Y2132000*
X1962000*
X1966000Y2127500D02*
X1974000D01*
X1970000Y2123500D02*
Y2131500D01*
X1972000Y2132781D02*
Y2129500D01*
Y2132781D02*
X1973023D01*
X1973364Y2132625*
X1973477Y2132469*
X1973591Y2132156*
Y2131844*
X1973477Y2131531*
X1973364Y2131375*
X1973023Y2131219*
X1972000D02*
X1973023D01*
X1973364Y2131063*
X1973364D02*
X1973477Y2130906D01*
X1973591Y2130594*
Y2130125*
X1973477Y2129813*
X1973477D02*
X1973364Y2129656D01*
X1973023Y2129500*
X1972000*
X1840000Y2240000D02*
X2050000D01*
Y1805000*
X1840000*
Y2240000*
X200000Y316000D02*
X458000D01*
X200000Y292000D02*
X458000D01*
X200000Y268000D02*
X458000D01*
X200000Y244000D02*
X458000D01*
X200000Y220000D02*
X458000D01*
X200000Y196000D02*
X458000D01*
X200000Y172000D02*
X458000D01*
X200000Y148000D02*
X458000D01*
X200000Y124000D02*
X458000D01*
X200000Y100000D02*
X458000D01*
X200000Y316000D02*
Y100000D01*
X284000Y316000D02*
Y100000D01*
X320000Y316000D02*
Y100000D01*
X356000Y316000D02*
Y100000D01*
X410000Y316000D02*
Y100000D01*
X458000Y316000D02*
Y100000D01*
X235500Y304750D02*
X234955Y305500D01*
X234136Y305875*
X233045*
X232227Y305500*
X231682Y304750*
Y304000*
X231955Y303250*
X232227Y302875*
X232773Y302500*
X234409Y301750*
X234955Y301375*
X235227Y301000*
X235500Y300250*
Y299125*
X234955Y298375*
X234136Y298000*
X233045*
X232227Y298375*
X231682Y299125*
X237955Y305875D02*
Y298000D01*
X244227Y305875D02*
X240409Y298000D01*
Y305875D02*
X244227D01*
X240409Y298000D02*
X244227D01*
X246682Y305875D02*
Y298000D01*
Y305875D02*
X250227D01*
X246682Y302125D02*
X248864D01*
X246682Y298000D02*
X250227D01*
X293864Y305875D02*
X293318Y305500D01*
X292773Y304750*
X292500Y304000*
X292227Y302875*
Y301000*
X292500Y299875*
X292773Y299125*
X293318Y298375*
X293864Y298000*
X294955*
X295500Y298375*
X296045Y299125*
X296318Y299875*
X296591Y301000*
Y302875*
X296318Y304000*
X296045Y304750*
X295500Y305500*
X294955Y305875*
X293864*
X294682Y299500D02*
X296318Y297250D01*
X300955Y305875D02*
Y298000D01*
X299045Y305875D02*
X302864D01*
X305318D02*
X307500Y302125D01*
Y298000*
X309682Y305875D02*
X307500Y302125D01*
X332045Y304750D02*
X331500Y305500D01*
X330682Y305875*
X329591*
X328773Y305500*
X328227Y304750*
Y304000*
X328500Y303250*
X328773Y302875*
X329318Y302500*
X330955Y301750*
X331500Y301375*
X331773Y301000*
X332045Y300250*
Y299125*
X331500Y298375*
X330682Y298000*
X329591*
X328773Y298375*
X328227Y299125*
X334500Y305875D02*
X336682Y302125D01*
Y298000*
X338864Y305875D02*
X336682Y302125D01*
X341318Y305875D02*
Y298000D01*
Y305875D02*
X343500Y298000D01*
X345682Y305875D02*
X343500Y298000D01*
X345682Y305875D02*
Y298000D01*
X367500Y305875D02*
Y298000D01*
Y305875D02*
X369955D01*
X370773Y305500*
X371045Y305125*
X371318Y304375*
Y303250*
X371045Y302500*
X370773Y302125*
X369955Y301750*
X367500*
X373773Y305875D02*
Y298000D01*
X377045*
X381682Y305875D02*
X379500Y298000D01*
X381682Y305875D02*
X383864Y298000D01*
X380318Y300625D02*
X383045D01*
X388227Y305875D02*
Y298000D01*
X386318Y305875D02*
X390136D01*
X392591D02*
Y298000D01*
Y305875D02*
X396136D01*
X392591Y302125D02*
X394773D01*
X392591Y298000D02*
X396136D01*
X398591Y305875D02*
Y298000D01*
Y305875D02*
X400500D01*
X401318Y305500*
X401864Y304750*
X402136Y304000*
X402409Y302875*
Y301000*
X402136Y299875*
X401864Y299125*
X401318Y298375*
X400500Y298000*
X398591*
X426682Y305875D02*
Y298000D01*
X424773Y305875D02*
X428591D01*
X432682D02*
X432136Y305500D01*
X431591Y304750*
X431318Y304000*
X431045Y302875*
Y301000*
X431318Y299875*
X431591Y299125*
X432136Y298375*
X432682Y298000*
X433773*
X434318Y298375*
X434864Y299125*
X435136Y299875*
X435409Y301000*
Y302875*
X435136Y304000*
X434864Y304750*
X434318Y305500*
X433773Y305875*
X432682*
X437864D02*
Y298000D01*
X441136*
X206273Y280000D02*
Y280375D01*
X206545Y281125*
X206818Y281500*
X207364Y281875*
X208455*
X209000Y281500*
X209273Y281125*
X209545Y280375*
Y279625*
X209273Y278875*
X208727Y277750*
X206000Y274000*
X209818*
X213636Y281875D02*
X212818Y281500D01*
X212545Y280750*
Y280000*
X212818Y279250*
X213364Y278875*
X214455Y278500*
X215273Y278125*
X215818Y277375*
X216091Y276625*
Y275500*
X215818Y274750*
X215545Y274375*
X214727Y274000*
X213636*
X212818Y274375*
X212545Y274750*
X212273Y275500*
Y276625*
X212545Y277375*
X213091Y278125*
X213909Y278500*
X215000Y278875*
X215545Y279250*
X215818Y280000*
Y280750*
X215545Y281500*
X214727Y281875*
X213636*
X297136Y280375D02*
X297682Y280750D01*
X298500Y281875*
Y274000*
X302591Y281875D02*
X301773Y281500D01*
X301227Y280375*
X300955Y278500*
Y277375*
X301227Y275500*
X301773Y274375*
X302591Y274000*
X303136*
X303955Y274375*
X304500Y275500*
X304773Y277375*
Y278500*
X304500Y280375*
X303955Y281500*
X303136Y281875*
X302591*
X332000Y280000D02*
X344000D01*
X338000Y274000D02*
Y286000D01*
X364636Y281875D02*
X366818Y278125D01*
Y274000*
X369000Y281875D02*
X366818Y278125D01*
X371455Y281875D02*
Y274000D01*
Y281875D02*
X375000D01*
X371455Y278125D02*
X373636D01*
X371455Y274000D02*
X375000D01*
X381273Y280750D02*
X380727Y281500D01*
X379909Y281875*
X378818*
X378000Y281500*
X377455Y280750*
Y280000*
X377727Y279250*
X378000Y278875*
X378545Y278500*
X380182Y277750*
X380727Y277375*
X381000Y277000*
X381273Y276250*
Y275125*
X380727Y274375*
X379909Y274000*
X378818*
X378000Y274375*
X377455Y275125*
X417818Y280750D02*
Y274000D01*
X415364Y277375D02*
X420273D01*
X427636Y283375D02*
X422727Y271375D01*
X430091Y277375D02*
X435000D01*
X439091Y281875D02*
X438273Y281500D01*
X437727Y280375*
X437455Y278500*
Y277375*
X437727Y275500*
X438273Y274375*
X439091Y274000*
X439636*
X440455Y274375*
X441000Y275500*
X441273Y277375*
Y278500*
X441000Y280375*
X440455Y281500*
X439636Y281875*
X439091*
X444000Y274750D02*
X443727Y274375D01*
X444000Y274000*
X444273Y274375*
X444000Y274750*
X448364Y281875D02*
X447545Y281500D01*
X447000Y280375*
X446727Y278500*
Y277375*
X447000Y275500*
X447545Y274375*
X448364Y274000*
X448909*
X449727Y274375*
X450273Y275500*
X450545Y277375*
Y278500*
X450273Y280375*
X449727Y281500*
X448909Y281875*
X448364*
X206545Y257875D02*
X209545D01*
X207909Y254875*
X208727*
X209273Y254500*
X209545Y254125*
X209818Y253000*
Y252250*
X209545Y251125*
X209000Y250375*
X208182Y250000*
X207364*
X206545Y250375*
X206273Y250750*
X206000Y251500*
X215818Y257875D02*
X213091D01*
X212818Y254500*
X213091Y254875*
X213909Y255250*
X214727*
X215545Y254875*
X216091Y254125*
X216364Y253000*
X216091Y252250*
X215818Y251125*
X215273Y250375*
X214455Y250000*
X213636*
X212818Y250375*
X212545Y250750*
X212273Y251500*
X298500Y257875D02*
X295773Y252625D01*
X299864*
X298500Y257875D02*
Y250000D01*
X303955Y257875D02*
X303136Y257500D01*
X302591Y256375*
X302318Y254500*
Y253375*
X302591Y251500*
X303136Y250375*
X303955Y250000*
X304500*
X305318Y250375*
X305864Y251500*
X306136Y253375*
Y254500*
X305864Y256375*
X305318Y257500*
X304500Y257875*
X303955*
X332000Y250000D02*
X344000Y262000D01*
X332000D02*
X344000Y250000D01*
X364636Y257875D02*
X366818Y254125D01*
Y250000*
X369000Y257875D02*
X366818Y254125D01*
X371455Y257875D02*
Y250000D01*
Y257875D02*
X375000D01*
X371455Y254125D02*
X373636D01*
X371455Y250000D02*
X375000D01*
X381273Y256750D02*
X380727Y257500D01*
X379909Y257875*
X378818*
X378000Y257500*
X377455Y256750*
Y256000*
X377727Y255250*
X378000Y254875*
X378545Y254500*
X380182Y253750*
X380727Y253375*
X381000Y253000*
X381273Y252250*
Y251125*
X380727Y250375*
X379909Y250000*
X378818*
X378000Y250375*
X377455Y251125*
X417818Y256750D02*
Y250000D01*
X415364Y253375D02*
X420273D01*
X427636Y259375D02*
X422727Y247375D01*
X430091Y253375D02*
X435000D01*
X439091Y257875D02*
X438273Y257500D01*
X437727Y256375*
X437455Y254500*
Y253375*
X437727Y251500*
X438273Y250375*
X439091Y250000*
X439636*
X440455Y250375*
X441000Y251500*
X441273Y253375*
Y254500*
X441000Y256375*
X440455Y257500*
X439636Y257875*
X439091*
X444000Y250750D02*
X443727Y250375D01*
X444000Y250000*
X444273Y250375*
X444000Y250750*
X448364Y257875D02*
X447545Y257500D01*
X447000Y256375*
X446727Y254500*
Y253375*
X447000Y251500*
X447545Y250375*
X448364Y250000*
X448909*
X449727Y250375*
X450273Y251500*
X450545Y253375*
Y254500*
X450273Y256375*
X449727Y257500*
X448909Y257875*
X448364*
X209818Y233875D02*
X207091Y226000D01*
X206000Y233875D02*
X209818D01*
X215545Y232750D02*
X215273Y233500D01*
X214455Y233875*
X213909*
X213091Y233500*
X212545Y232375*
X212273Y230500*
Y228625*
X212545Y227125*
X213091Y226375*
X213909Y226000*
X214182*
X215000Y226375*
X215545Y227125*
X215818Y228250*
Y228625*
X215545Y229750*
X215000Y230500*
X214182Y230875*
X213909*
X213091Y230500*
X212545Y229750*
X212273Y228625*
X301636Y233875D02*
X298909Y228625D01*
X303000*
X301636Y233875D02*
Y226000D01*
X332000D02*
X344000D01*
Y238000*
X332000*
Y226000*
X338000Y232000D02*
Y238000D01*
X364636Y233875D02*
X366818Y230125D01*
Y226000*
X369000Y233875D02*
X366818Y230125D01*
X371455Y233875D02*
Y226000D01*
Y233875D02*
X375000D01*
X371455Y230125D02*
X373636D01*
X371455Y226000D02*
X375000D01*
X381273Y232750D02*
X380727Y233500D01*
X379909Y233875*
X378818*
X378000Y233500*
X377455Y232750*
Y232000*
X377727Y231250*
X378000Y230875*
X378545Y230500*
X380182Y229750*
X380727Y229375*
X381000Y229000*
X381273Y228250*
Y227125*
X380727Y226375*
X379909Y226000*
X378818*
X378000Y226375*
X377455Y227125*
X417818Y232750D02*
Y226000D01*
X415364Y229375D02*
X420273D01*
X427636Y235375D02*
X422727Y223375D01*
X430091Y229375D02*
X435000D01*
X439091Y233875D02*
X438273Y233500D01*
X437727Y232375*
X437455Y230500*
Y229375*
X437727Y227500*
X438273Y226375*
X439091Y226000*
X439636*
X440455Y226375*
X441000Y227500*
X441273Y229375*
Y230500*
X441000Y232375*
X440455Y233500*
X439636Y233875*
X439091*
X444000Y226750D02*
X443727Y226375D01*
X444000Y226000*
X444273Y226375*
X444000Y226750*
X448364Y233875D02*
X447545Y233500D01*
X447000Y232375*
X446727Y230500*
Y229375*
X447000Y227500*
X447545Y226375*
X448364Y226000*
X448909*
X449727Y226375*
X450273Y227500*
X450545Y229375*
Y230500*
X450273Y232375*
X449727Y233500*
X448909Y233875*
X448364*
X206545Y209875D02*
X209545D01*
X207909Y206875*
X208727*
X209273Y206500*
X209545Y206125*
X209818Y205000*
Y204250*
X209545Y203125*
X209000Y202375*
X208182Y202000*
X207364*
X206545Y202375*
X206273Y202750*
X206000Y203500*
X216091Y209875D02*
X213364Y202000D01*
X212273Y209875D02*
X216091D01*
X297136Y208375D02*
X297682Y208750D01*
X298500Y209875*
Y202000*
X302591Y209875D02*
X301773Y209500D01*
X301227Y208375*
X300955Y206500*
Y205375*
X301227Y203500*
X301773Y202375*
X302591Y202000*
X303136*
X303955Y202375*
X304500Y203500*
X304773Y205375*
Y206500*
X304500Y208375*
X303955Y209500*
X303136Y209875*
X302591*
X338000Y202000D02*
X344000Y208000D01*
X338000Y214000*
X332000Y208000*
X338000Y202000*
Y208000D02*
Y214000D01*
X364636Y209875D02*
X366818Y206125D01*
Y202000*
X369000Y209875D02*
X366818Y206125D01*
X371455Y209875D02*
Y202000D01*
Y209875D02*
X375000D01*
X371455Y206125D02*
X373636D01*
X371455Y202000D02*
X375000D01*
X381273Y208750D02*
X380727Y209500D01*
X379909Y209875*
X378818*
X378000Y209500*
X377455Y208750*
Y208000*
X377727Y207250*
X378000Y206875*
X378545Y206500*
X380182Y205750*
X380727Y205375*
X381000Y205000*
X381273Y204250*
Y203125*
X380727Y202375*
X379909Y202000*
X378818*
X378000Y202375*
X377455Y203125*
X417818Y208750D02*
Y202000D01*
X415364Y205375D02*
X420273D01*
X427636Y211375D02*
X422727Y199375D01*
X430091Y205375D02*
X435000D01*
X439091Y209875D02*
X438273Y209500D01*
X437727Y208375*
X437455Y206500*
Y205375*
X437727Y203500*
X438273Y202375*
X439091Y202000*
X439636*
X440455Y202375*
X441000Y203500*
X441273Y205375*
Y206500*
X441000Y208375*
X440455Y209500*
X439636Y209875*
X439091*
X444000Y202750D02*
X443727Y202375D01*
X444000Y202000*
X444273Y202375*
X444000Y202750*
X448364Y209875D02*
X447545Y209500D01*
X447000Y208375*
X446727Y206500*
Y205375*
X447000Y203500*
X447545Y202375*
X448364Y202000*
X448909*
X449727Y202375*
X450273Y203500*
X450545Y205375*
Y206500*
X450273Y208375*
X449727Y209500*
X448909Y209875*
X448364*
X206000Y184375D02*
X206545Y184750D01*
X207364Y185875*
Y178000*
X213091Y184750D02*
X212818Y185500D01*
X212000Y185875*
X211455*
X210636Y185500*
X210091Y184375*
X209818Y182500*
Y180625*
X210091Y179125*
X210636Y178375*
X211455Y178000*
X211727*
X212545Y178375*
X213091Y179125*
X213364Y180250*
Y180625*
X213091Y181750*
X212545Y182500*
X211727Y182875*
X211455*
X210636Y182500*
X210091Y181750*
X209818Y180625*
X219364Y185875D02*
X216636D01*
X216364Y182500*
X216636Y182875*
X217455Y183250*
X218273*
X219091Y182875*
X219636Y182125*
X219909Y181000*
X219636Y180250*
X219364Y179125*
X218818Y178375*
X218000Y178000*
X217182*
X216364Y178375*
X216091Y178750*
X215818Y179500*
X301636Y185875D02*
X298909Y180625D01*
X303000*
X301636Y185875D02*
Y178000D01*
X332000D02*
X344000D01*
X332000Y190000*
X344000*
X332000Y178000*
X364636Y185875D02*
X366818Y182125D01*
Y178000*
X369000Y185875D02*
X366818Y182125D01*
X371455Y185875D02*
Y178000D01*
Y185875D02*
X375000D01*
X371455Y182125D02*
X373636D01*
X371455Y178000D02*
X375000D01*
X381273Y184750D02*
X380727Y185500D01*
X379909Y185875*
X378818*
X378000Y185500*
X377455Y184750*
Y184000*
X377727Y183250*
X378000Y182875*
X378545Y182500*
X380182Y181750*
X380727Y181375*
X381000Y181000*
X381273Y180250*
Y179125*
X380727Y178375*
X379909Y178000*
X378818*
X378000Y178375*
X377455Y179125*
X417818Y184750D02*
Y178000D01*
X415364Y181375D02*
X420273D01*
X427636Y187375D02*
X422727Y175375D01*
X430091Y181375D02*
X435000D01*
X439091Y185875D02*
X438273Y185500D01*
X437727Y184375*
X437455Y182500*
Y181375*
X437727Y179500*
X438273Y178375*
X439091Y178000*
X439636*
X440455Y178375*
X441000Y179500*
X441273Y181375*
Y182500*
X441000Y184375*
X440455Y185500*
X439636Y185875*
X439091*
X444000Y178750D02*
X443727Y178375D01*
X444000Y178000*
X444273Y178375*
X444000Y178750*
X448364Y185875D02*
X447545Y185500D01*
X447000Y184375*
X446727Y182500*
Y181375*
X447000Y179500*
X447545Y178375*
X448364Y178000*
X448909*
X449727Y178375*
X450273Y179500*
X450545Y181375*
Y182500*
X450273Y184375*
X449727Y185500*
X448909Y185875*
X448364*
X206273Y160000D02*
Y160375D01*
X206545Y161125*
X206818Y161500*
X207364Y161875*
X208455*
X209000Y161500*
X209273Y161125*
X209545Y160375*
Y159625*
X209273Y158875*
X208727Y157750*
X206000Y154000*
X209818*
X215000Y161875D02*
X212273Y156625D01*
X216364*
X215000Y161875D02*
Y154000D01*
X296591Y161875D02*
X299591D01*
X297955Y158875*
X298773*
X299318Y158500*
X299591Y158125*
X299864Y157000*
Y156250*
X299591Y155125*
X299045Y154375*
X298227Y154000*
X297409*
X296591Y154375*
X296318Y154750*
X296045Y155500*
X305591Y160750D02*
X305318Y161500D01*
X304500Y161875*
X303955*
X303136Y161500*
X302591Y160375*
X302318Y158500*
Y156625*
X302591Y155125*
X303136Y154375*
X303955Y154000*
X304227*
X305045Y154375*
X305591Y155125*
X305864Y156250*
Y156625*
X305591Y157750*
X305045Y158500*
X304227Y158875*
X303955*
X303136Y158500*
X302591Y157750*
X302318Y156625*
X332000Y154000D02*
X344000Y166000D01*
Y154000*
X332000Y166000*
Y154000*
X364636Y161875D02*
X366818Y158125D01*
Y154000*
X369000Y161875D02*
X366818Y158125D01*
X371455Y161875D02*
Y154000D01*
Y161875D02*
X375000D01*
X371455Y158125D02*
X373636D01*
X371455Y154000D02*
X375000D01*
X381273Y160750D02*
X380727Y161500D01*
X379909Y161875*
X378818*
X378000Y161500*
X377455Y160750*
Y160000*
X377727Y159250*
X378000Y158875*
X378545Y158500*
X380182Y157750*
X380727Y157375*
X381000Y157000*
X381273Y156250*
Y155125*
X380727Y154375*
X379909Y154000*
X378818*
X378000Y154375*
X377455Y155125*
X417818Y160750D02*
Y154000D01*
X415364Y157375D02*
X420273D01*
X427636Y163375D02*
X422727Y151375D01*
X430091Y157375D02*
X435000D01*
X439091Y161875D02*
X438273Y161500D01*
X437727Y160375*
X437455Y158500*
Y157375*
X437727Y155500*
X438273Y154375*
X439091Y154000*
X439636*
X440455Y154375*
X441000Y155500*
X441273Y157375*
Y158500*
X441000Y160375*
X440455Y161500*
X439636Y161875*
X439091*
X444000Y154750D02*
X443727Y154375D01*
X444000Y154000*
X444273Y154375*
X444000Y154750*
X448364Y161875D02*
X447545Y161500D01*
X447000Y160375*
X446727Y158500*
Y157375*
X447000Y155500*
X447545Y154375*
X448364Y154000*
X448909*
X449727Y154375*
X450273Y155500*
X450545Y157375*
Y158500*
X450273Y160375*
X449727Y161500*
X448909Y161875*
X448364*
X207364Y137875D02*
X206545Y137500D01*
X206273Y136750*
Y136000*
X206545Y135250*
X207091Y134875*
X208182Y134500*
X209000Y134125*
X209545Y133375*
X209818Y132625*
Y131500*
X209545Y130750*
X209273Y130375*
X208455Y130000*
X207364*
X206545Y130375*
X206273Y130750*
X206000Y131500*
Y132625*
X206273Y133375*
X206818Y134125*
X207636Y134500*
X208727Y134875*
X209273Y135250*
X209545Y136000*
Y136750*
X209273Y137500*
X208455Y137875*
X207364*
X215818Y135250D02*
X215545Y134125D01*
X215000Y133375*
X214182Y133000*
X213909*
X213091Y133375*
X212545Y134125*
X212273Y135250*
Y135625*
X212545Y136750*
X213091Y137500*
X213909Y137875*
X214182*
X215000Y137500*
X215545Y136750*
X215818Y135250*
Y133375*
X215545Y131500*
X215000Y130375*
X214182Y130000*
X213636*
X212818Y130375*
X212545Y131125*
X218545Y130750D02*
X218273Y130375D01*
X218545Y130000*
X218818Y130375*
X218545Y130750*
X224818Y137875D02*
X222091D01*
X221818Y134500*
X222091Y134875*
X222909Y135250*
X223727*
X224545Y134875*
X225091Y134125*
X225364Y133000*
X225091Y132250*
X224818Y131125*
X224273Y130375*
X223455Y130000*
X222636*
X221818Y130375*
X221545Y130750*
X221273Y131500*
X299318Y136000D02*
Y136375D01*
X299591Y137125*
X299864Y137500*
X300409Y137875*
X301500*
X302045Y137500*
X302318Y137125*
X302591Y136375*
Y135625*
X302318Y134875*
X301773Y133750*
X299045Y130000*
X302864*
X332000Y136000D02*
X344000D01*
X338000Y130000D02*
Y142000D01*
X342745Y145300D02*
X341000Y139000D01*
X342745Y145300D02*
X344491Y139000D01*
X341655Y141100D02*
X343836D01*
X367636Y137875D02*
Y130000D01*
Y137875D02*
X371455Y130000D01*
Y137875D02*
Y130000D01*
X375545Y137875D02*
X375000Y137500D01*
X374455Y136750*
X374182Y136000*
X373909Y134875*
Y133000*
X374182Y131875*
X374455Y131125*
X375000Y130375*
X375545Y130000*
X376636*
X377182Y130375*
X377727Y131125*
X378000Y131875*
X378273Y133000*
Y134875*
X378000Y136000*
X377727Y136750*
X377182Y137500*
X376636Y137875*
X375545*
X417818Y136750D02*
Y130000D01*
X415364Y133375D02*
X420273D01*
X427636Y139375D02*
X422727Y127375D01*
X430091Y133375D02*
X435000D01*
X439091Y137875D02*
X438273Y137500D01*
X437727Y136375*
X437455Y134500*
Y133375*
X437727Y131500*
X438273Y130375*
X439091Y130000*
X439636*
X440455Y130375*
X441000Y131500*
X441273Y133375*
Y134500*
X441000Y136375*
X440455Y137500*
X439636Y137875*
X439091*
X444000Y130750D02*
X443727Y130375D01*
X444000Y130000*
X444273Y130375*
X444000Y130750*
X448364Y137875D02*
X447545Y137500D01*
X447000Y136375*
X446727Y134500*
Y133375*
X447000Y131500*
X447545Y130375*
X448364Y130000*
X448909*
X449727Y130375*
X450273Y131500*
X450545Y133375*
Y134500*
X450273Y136375*
X449727Y137500*
X448909Y137875*
X448364*
X206000Y112375D02*
X206545Y112750D01*
X207364Y113875*
Y106000*
X213364Y113875D02*
X210636D01*
X210364Y110500*
X210636Y110875*
X211455Y111250*
X212273*
X213091Y110875*
X213636Y110125*
X213909Y109000*
X213636Y108250*
X213364Y107125*
X212818Y106375*
X212000Y106000*
X211182*
X210364Y106375*
X210091Y106750*
X209818Y107500*
X299318Y113875D02*
X296591D01*
X296318Y110500*
X296591Y110875*
X297409Y111250*
X298227*
X299045Y110875*
X299591Y110125*
X299864Y109000*
X299591Y108250*
X299318Y107125*
X298773Y106375*
X297955Y106000*
X297136*
X296318Y106375*
X296045Y106750*
X295773Y107500*
X303955Y113875D02*
X303136Y113500D01*
X302591Y112375*
X302318Y110500*
Y109375*
X302591Y107500*
X303136Y106375*
X303955Y106000*
X304500*
X305318Y106375*
X305864Y107500*
X306136Y109375*
Y110500*
X305864Y112375*
X305318Y113500*
X304500Y113875*
X303955*
X332000Y112000D02*
X344000D01*
X338000Y106000D02*
Y118000D01*
X341000Y121300D02*
Y115000D01*
Y121300D02*
X342964D01*
X343618Y121000*
X343836Y120700*
X344055Y120100*
Y119500*
X343836Y118900*
X343618Y118600*
X342964Y118300*
X341000D02*
X342964D01*
X343618Y118000*
X343836Y117700*
X344055Y117100*
Y116200*
X343836Y115600*
X343618Y115300*
X342964Y115000*
X341000*
X364636Y113875D02*
X366818Y110125D01*
Y106000*
X369000Y113875D02*
X366818Y110125D01*
X371455Y113875D02*
Y106000D01*
Y113875D02*
X375000D01*
X371455Y110125D02*
X373636D01*
X371455Y106000D02*
X375000D01*
X381273Y112750D02*
X380727Y113500D01*
X379909Y113875*
X378818*
X378000Y113500*
X377455Y112750*
Y112000*
X377727Y111250*
X378000Y110875*
X378545Y110500*
X380182Y109750*
X380727Y109375*
X381000Y109000*
X381273Y108250*
Y107125*
X380727Y106375*
X379909Y106000*
X378818*
X378000Y106375*
X377455Y107125*
X417818Y112750D02*
Y106000D01*
X415364Y109375D02*
X420273D01*
X427636Y115375D02*
X422727Y103375D01*
X430091Y109375D02*
X435000D01*
X439091Y113875D02*
X438273Y113500D01*
X437727Y112375*
X437455Y110500*
Y109375*
X437727Y107500*
X438273Y106375*
X439091Y106000*
X439636*
X440455Y106375*
X441000Y107500*
X441273Y109375*
Y110500*
X441000Y112375*
X440455Y113500*
X439636Y113875*
X439091*
X444000Y106750D02*
X443727Y106375D01*
X444000Y106000*
X444273Y106375*
X444000Y106750*
X448364Y113875D02*
X447545Y113500D01*
X447000Y112375*
X446727Y110500*
Y109375*
X447000Y107500*
X447545Y106375*
X448364Y106000*
X448909*
X449727Y106375*
X450273Y107500*
X450545Y109375*
Y110500*
X450273Y112375*
X449727Y113500*
X448909Y113875*
X448364*
X0Y0D02*
M02*
