*
*
G04 PADS VX.2.1 Build Number: 6554490 generated Gerber (RS-274-X) file*
G04 PC Version=2.1*
*
%IN "uMuddMarkVTesterLayout."*%
*
%MOIN*%
*
%FSLAX35Y35*%
*
*
*
*
G04 PC Standard Apertures*
*
*
G04 Thermal Relief Aperture macro.*
%AMTER*
1,1,$1,0,0*
1,0,$1-$2,0,0*
21,0,$3,$4,0,0,45*
21,0,$3,$4,0,0,135*
%
*
*
G04 Annular Aperture macro.*
%AMANN*
1,1,$1,0,0*
1,0,$2,0,0*
%
*
*
G04 Odd Aperture macro.*
%AMODD*
1,1,$1,0,0*
1,0,$1-0.005,0,0*
%
*
*
G04 PC Custom Aperture Macros*
*
*
*
*
*
*
G04 PC Aperture Table*
*
%ADD010C,0.001*%
%ADD011C,0.01*%
%ADD030R,0.07X0.06*%
%ADD031R,0.07X0.07*%
%ADD032C,0.07*%
%ADD034R,0.05X0.09*%
%ADD035R,0.21X0.26*%
%ADD036R,0.06X0.07*%
%ADD038C,0.05528*%
%ADD043C,0.191*%
%ADD052C,0.11*%
%ADD053C,0.058*%
%ADD054C,0.1245*%
*
*
*
*
G04 PC Circuitry*
G04 Layer Name uMuddMarkVTesterLayout. - circuitry*
%LPD*%
*
*
G04 PC Custom Flashes*
G04 Layer Name uMuddMarkVTesterLayout. - flashes*
%LPD*%
*
*
G04 PC Circuitry*
G04 Layer Name uMuddMarkVTesterLayout. - circuitry*
%LPD*%
*
G54D10*
G54D11*
G01X1840000Y2240000D02*
X2050000D01*
Y1805000*
X1840000*
Y2240000*
G54D30*
X1958600Y1934500D03*
X1967600D03*
X1865500Y1990000D03*
X1874500D03*
X1975500Y2090000D03*
X1984500D03*
X1975500Y2110000D03*
X1984500D03*
X1975500Y2130000D03*
X1984500D03*
X1945500D03*
X1954500D03*
X1905500D03*
X1914500D03*
X1865500D03*
X1874500D03*
X1865500Y2070000D03*
X1874500D03*
X1865500Y2010000D03*
X1874500D03*
X1865100Y1958600D03*
X1874100D03*
X1865500Y1940000D03*
X1874500D03*
X1865500Y1920000D03*
X1874500D03*
X1865500Y1900000D03*
X1874500D03*
X1865500Y1880000D03*
X1874500D03*
X1865500Y1860000D03*
X1874500D03*
X1959600Y1919500D03*
X1968600D03*
X1958100Y1948800D03*
X1967100D03*
G54D31*
X1960000Y2070000D03*
X1940000Y1980000D03*
X1920000D03*
X1910000Y1940000D03*
G54D32*
X1960000Y2060000D03*
Y2050000D03*
Y2040000D03*
Y2030000D03*
Y2020000D03*
Y2010000D03*
Y2000000D03*
Y1990000D03*
Y1980000D03*
X1990000D03*
Y1990000D03*
Y2000000D03*
Y2010000D03*
Y2020000D03*
Y2030000D03*
Y2040000D03*
Y2050000D03*
Y2060000D03*
Y2070000D03*
X1940000Y1990000D03*
Y2000000D03*
Y2010000D03*
Y2020000D03*
Y2030000D03*
Y2040000D03*
Y2050000D03*
Y2060000D03*
Y2070000D03*
X1920000Y1990000D03*
Y2000000D03*
Y2010000D03*
Y2020000D03*
Y2030000D03*
Y2040000D03*
Y2050000D03*
Y2060000D03*
Y2070000D03*
Y1940000D03*
X1910000Y1930000D03*
X1920000D03*
X1910000Y1920000D03*
X1920000D03*
X1910000Y1910000D03*
X1920000D03*
X1910000Y1900000D03*
X1920000D03*
G54D34*
X1921000Y2083900D03*
X1939000D03*
X1861000Y2023900D03*
X1879000D03*
X1861000Y2083900D03*
X1879000D03*
G54D35*
X1930000Y2105000D03*
X1870000Y2045000D03*
Y2105000D03*
G54D36*
X1900000Y2095500D03*
Y2104500D03*
Y2065500D03*
Y2074500D03*
Y2035500D03*
Y2044500D03*
Y1995500D03*
Y2004500D03*
X1989100Y1949700D03*
Y1958700D03*
G54D38*
X1984666Y1829679D03*
X1980729Y1821805D03*
X1976792Y1829679D03*
X1972855Y1821805D03*
X1968918Y1829679D03*
X1964981Y1821805D03*
X1961044Y1829679D03*
X1957107Y1821805D03*
X1953170Y1829679D03*
X1949233Y1821805D03*
X1945296Y1829679D03*
X1933485Y1821805D03*
X1929548Y1829679D03*
X1925611Y1821805D03*
X1921674Y1829679D03*
X1917737Y1821805D03*
X1913800Y1829679D03*
X1909863Y1821805D03*
X1984666Y1839521D03*
X1980729Y1847395D03*
X1976792Y1839521D03*
X1972855Y1847395D03*
X1968918Y1839521D03*
X1964981Y1847395D03*
X1961044Y1839521D03*
X1957107Y1847395D03*
X1953170Y1839521D03*
X1949233Y1847395D03*
X1945296Y1839521D03*
X1933485Y1847395D03*
X1929548Y1839521D03*
X1925611Y1847395D03*
X1921674Y1839521D03*
X1917737Y1847395D03*
X1913800Y1839521D03*
X1909863Y1847395D03*
G54D43*
X1857200Y2221700D03*
X2031200Y2221800D03*
X2033900Y1824900D03*
X1857800Y1825100D03*
G54D52*
X1978400Y2160500D03*
Y2220700D03*
X1891600Y2161300D03*
Y2221500D03*
G54D53*
X1966700Y1884300D03*
X1961700D03*
X1966700Y1889300D03*
X1961700D03*
X1966700Y1894300D03*
X1961700D03*
X1966700Y1899300D03*
X1961700D03*
X1966700Y1904300D03*
X1961700D03*
G54D54*
X1938800Y1834600D03*
X1902776D03*
X0Y0D02*
M02*
