*
*
G04 PADS VX.2.1 Build Number: 6554490 generated Gerber (RS-274-X) file*
G04 PC Version=2.1*
*
%IN "pcb.pcb"*%
*
%MOIN*%
*
%FSLAX35Y35*%
*
*
*
*
G04 PC Standard Apertures*
*
*
G04 Thermal Relief Aperture macro.*
%AMTER*
1,1,$1,0,0*
1,0,$1-$2,0,0*
21,0,$3,$4,0,0,45*
21,0,$3,$4,0,0,135*
%
*
*
G04 Annular Aperture macro.*
%AMANN*
1,1,$1,0,0*
1,0,$2,0,0*
%
*
*
G04 Odd Aperture macro.*
%AMODD*
1,1,$1,0,0*
1,0,$1-0.005,0,0*
%
*
*
G04 PC Custom Aperture Macros*
*
*
*
*
*
*
G04 PC Aperture Table*
*
%ADD010C,0.001*%
%ADD011C,0.01*%
%ADD013C,0.03*%
%ADD014R,0.07677X0.02362*%
%ADD015C,0.06*%
%ADD016R,0.06X0.06*%
%ADD017C,0.006*%
*
*
*
*
G04 PC Circuitry*
G04 Layer Name pcb.pcb - circuitry*
%LPD*%
*
*
G04 PC Custom Flashes*
G04 Layer Name pcb.pcb - flashes*
%LPD*%
*
*
G04 PC Circuitry*
G04 Layer Name pcb.pcb - circuitry*
%LPD*%
*
G54D10*
G54D11*
G01X100000Y100000D02*
Y200000D01*
X200000*
Y100000*
X100000*
G54D13*
X175500Y160000D03*
X184500D03*
X175500Y180000D03*
X184500D03*
X175500Y140000D03*
X184500D03*
X130000Y170000D03*
X122500Y117500D03*
X117500D03*
X122500Y127500D03*
X182500Y120000D03*
G54D14*
X110256Y127500D03*
Y122500D03*
Y117500D03*
Y112500D03*
X129744D03*
Y117500D03*
Y122500D03*
Y127500D03*
G54D15*
X176992Y112443D03*
Y122443D03*
X115295Y157276D03*
Y177276D03*
X160000Y110000D03*
X140000Y130000D03*
Y180000D03*
G54D16*
X150000Y110000D03*
G54D17*
X140000Y130000D02*
X170000D01*
X177557Y122443*
X105517Y124581D02*
X107598Y122500D01*
X110256*
X105517Y124581D02*
Y129054D01*
X112463Y136000*
X176497*
X180497Y140000*
X184500*
X130000Y170000D02*
X132000D01*
X135000Y172500*
X168000*
X175500Y180000*
X122500Y117500D02*
X129744D01*
X122500Y127500D02*
X129744D01*
X176992Y122443D02*
X177557D01*
X129744Y122500D02*
X160308D01*
X164265Y118543*
X178625*
X180082Y120000*
X182500*
X110256Y112500D02*
X119223D01*
X123723Y108000*
X132000*
X134000Y110000*
X150000*
X110256Y117500D02*
X117500D01*
X110256Y127500D02*
X112913D01*
X120413Y120000*
X150000*
X160000Y110000*
X0Y0D02*
M02*
