*
*
G04 PADS VX.2.1 Build Number: 6554490 generated Gerber (RS-274-X) file*
G04 PC Version=2.1*
*
%IN "pcb.pcb"*%
*
%MOIN*%
*
%FSLAX35Y35*%
*
*
*
*
G04 PC Standard Apertures*
*
*
G04 Thermal Relief Aperture macro.*
%AMTER*
1,1,$1,0,0*
1,0,$1-$2,0,0*
21,0,$3,$4,0,0,45*
21,0,$3,$4,0,0,135*
%
*
*
G04 Annular Aperture macro.*
%AMANN*
1,1,$1,0,0*
1,0,$2,0,0*
%
*
*
G04 Odd Aperture macro.*
%AMODD*
1,1,$1,0,0*
1,0,$1-0.005,0,0*
%
*
*
G04 PC Custom Aperture Macros*
*
*
*
*
*
*
G04 PC Aperture Table*
*
%ADD010C,0.001*%
%ADD011C,0.01*%
*
*
*
*
G04 PC Circuitry*
G04 Layer Name pcb.pcb - circuitry*
%LPD*%
*
*
G04 PC Custom Flashes*
G04 Layer Name pcb.pcb - flashes*
%LPD*%
*
*
G04 PC Circuitry*
G04 Layer Name pcb.pcb - circuitry*
%LPD*%
*
G54D10*
G54D11*
G01X171500Y160000D02*
X179500D01*
X175500Y156000D02*
Y164000D01*
X180500Y160000D02*
X188500D01*
X184500Y156000D02*
Y164000D01*
X172992Y108443D02*
X180992Y116443D01*
X172992D02*
X180992Y108443D01*
X172992Y118443D02*
X180992Y126443D01*
X172992D02*
X180992Y118443D01*
X111295Y153276D02*
X119295D01*
Y161276*
X111295*
Y153276*
X115295Y157276D02*
Y161276D01*
X111295Y173276D02*
X119295D01*
Y181276*
X111295*
Y173276*
X115295Y177276D02*
Y181276D01*
X146000Y106000D02*
X154000D01*
Y114000*
X146000*
Y106000*
X150000Y110000D02*
Y114000D01*
X156000Y106000D02*
X164000D01*
Y114000*
X156000*
Y106000*
X160000Y110000D02*
Y114000D01*
X171500Y180000D02*
X179500D01*
X175500Y176000D02*
Y184000D01*
X180500Y180000D02*
X188500D01*
X184500Y176000D02*
Y184000D01*
X171500Y140000D02*
X179500D01*
X175500Y136000D02*
Y144000D01*
X180500Y140000D02*
X188500D01*
X184500Y136000D02*
Y144000D01*
X136000Y126000D02*
X144000Y134000D01*
X136000D02*
X144000Y126000D01*
X136000Y176000D02*
X144000Y184000D01*
X136000D02*
X144000Y176000D01*
X126000Y170000D02*
X134000D01*
X130000Y166000D02*
Y174000D01*
X118500Y117500D02*
X126500D01*
X122500Y113500D02*
Y121500D01*
X113500Y117500D02*
X121500D01*
X117500Y113500D02*
Y121500D01*
X118500Y127500D02*
X126500D01*
X122500Y123500D02*
Y131500D01*
X178500Y120000D02*
X186500D01*
X182500Y116000D02*
Y124000D01*
X100000Y100000D02*
Y200000D01*
X200000*
Y100000*
X100000*
X200000Y196000D02*
X458000D01*
X200000Y172000D02*
X458000D01*
X200000Y148000D02*
X458000D01*
X200000Y124000D02*
X458000D01*
X200000Y100000D02*
X458000D01*
X200000Y196000D02*
Y100000D01*
X284000Y196000D02*
Y100000D01*
X320000Y196000D02*
Y100000D01*
X356000Y196000D02*
Y100000D01*
X410000Y196000D02*
Y100000D01*
X458000Y196000D02*
Y100000D01*
X235500Y184750D02*
X234955Y185500D01*
X234136Y185875*
X233045*
X232227Y185500*
X231682Y184750*
Y184000*
X231955Y183250*
X232227Y182875*
X232773Y182500*
X234409Y181750*
X234955Y181375*
X235227Y181000*
X235500Y180250*
Y179125*
X234955Y178375*
X234136Y178000*
X233045*
X232227Y178375*
X231682Y179125*
X237955Y185875D02*
Y178000D01*
X244227Y185875D02*
X240409Y178000D01*
Y185875D02*
X244227D01*
X240409Y178000D02*
X244227D01*
X246682Y185875D02*
Y178000D01*
Y185875D02*
X250227D01*
X246682Y182125D02*
X248864D01*
X246682Y178000D02*
X250227D01*
X293864Y185875D02*
X293318Y185500D01*
X292773Y184750*
X292500Y184000*
X292227Y182875*
Y181000*
X292500Y179875*
X292773Y179125*
X293318Y178375*
X293864Y178000*
X294955*
X295500Y178375*
X296045Y179125*
X296318Y179875*
X296591Y181000*
Y182875*
X296318Y184000*
X296045Y184750*
X295500Y185500*
X294955Y185875*
X293864*
X294682Y179500D02*
X296318Y177250D01*
X300955Y185875D02*
Y178000D01*
X299045Y185875D02*
X302864D01*
X305318D02*
X307500Y182125D01*
Y178000*
X309682Y185875D02*
X307500Y182125D01*
X332045Y184750D02*
X331500Y185500D01*
X330682Y185875*
X329591*
X328773Y185500*
X328227Y184750*
Y184000*
X328500Y183250*
X328773Y182875*
X329318Y182500*
X330955Y181750*
X331500Y181375*
X331773Y181000*
X332045Y180250*
Y179125*
X331500Y178375*
X330682Y178000*
X329591*
X328773Y178375*
X328227Y179125*
X334500Y185875D02*
X336682Y182125D01*
Y178000*
X338864Y185875D02*
X336682Y182125D01*
X341318Y185875D02*
Y178000D01*
Y185875D02*
X343500Y178000D01*
X345682Y185875D02*
X343500Y178000D01*
X345682Y185875D02*
Y178000D01*
X367500Y185875D02*
Y178000D01*
Y185875D02*
X369955D01*
X370773Y185500*
X371045Y185125*
X371318Y184375*
Y183250*
X371045Y182500*
X370773Y182125*
X369955Y181750*
X367500*
X373773Y185875D02*
Y178000D01*
X377045*
X381682Y185875D02*
X379500Y178000D01*
X381682Y185875D02*
X383864Y178000D01*
X380318Y180625D02*
X383045D01*
X388227Y185875D02*
Y178000D01*
X386318Y185875D02*
X390136D01*
X392591D02*
Y178000D01*
Y185875D02*
X396136D01*
X392591Y182125D02*
X394773D01*
X392591Y178000D02*
X396136D01*
X398591Y185875D02*
Y178000D01*
Y185875D02*
X400500D01*
X401318Y185500*
X401864Y184750*
X402136Y184000*
X402409Y182875*
Y181000*
X402136Y179875*
X401864Y179125*
X401318Y178375*
X400500Y178000*
X398591*
X426682Y185875D02*
Y178000D01*
X424773Y185875D02*
X428591D01*
X432682D02*
X432136Y185500D01*
X431591Y184750*
X431318Y184000*
X431045Y182875*
Y181000*
X431318Y179875*
X431591Y179125*
X432136Y178375*
X432682Y178000*
X433773*
X434318Y178375*
X434864Y179125*
X435136Y179875*
X435409Y181000*
Y182875*
X435136Y184000*
X434864Y184750*
X434318Y185500*
X433773Y185875*
X432682*
X437864D02*
Y178000D01*
X441136*
X206000Y160375D02*
X206545Y160750D01*
X207364Y161875*
Y154000*
X213364Y161875D02*
X210636D01*
X210364Y158500*
X210636Y158875*
X211455Y159250*
X212273*
X213091Y158875*
X213636Y158125*
X213909Y157000*
X213636Y156250*
X213364Y155125*
X212818Y154375*
X212000Y154000*
X211182*
X210364Y154375*
X210091Y154750*
X209818Y155500*
X298364Y160375D02*
X298909Y160750D01*
X299727Y161875*
Y154000*
X302182Y160375D02*
X302727Y160750D01*
X303545Y161875*
Y154000*
X332000Y160000D02*
X344000D01*
X338000Y154000D02*
Y166000D01*
X364636Y161875D02*
X366818Y158125D01*
Y154000*
X369000Y161875D02*
X366818Y158125D01*
X371455Y161875D02*
Y154000D01*
Y161875D02*
X375000D01*
X371455Y158125D02*
X373636D01*
X371455Y154000D02*
X375000D01*
X381273Y160750D02*
X380727Y161500D01*
X379909Y161875*
X378818*
X378000Y161500*
X377455Y160750*
Y160000*
X377727Y159250*
X378000Y158875*
X378545Y158500*
X380182Y157750*
X380727Y157375*
X381000Y157000*
X381273Y156250*
Y155125*
X380727Y154375*
X379909Y154000*
X378818*
X378000Y154375*
X377455Y155125*
X417818Y160750D02*
Y154000D01*
X415364Y157375D02*
X420273D01*
X427636Y163375D02*
X422727Y151375D01*
X430091Y157375D02*
X435000D01*
X439091Y161875D02*
X438273Y161500D01*
X437727Y160375*
X437455Y158500*
Y157375*
X437727Y155500*
X438273Y154375*
X439091Y154000*
X439636*
X440455Y154375*
X441000Y155500*
X441273Y157375*
Y158500*
X441000Y160375*
X440455Y161500*
X439636Y161875*
X439091*
X444000Y154750D02*
X443727Y154375D01*
X444000Y154000*
X444273Y154375*
X444000Y154750*
X448364Y161875D02*
X447545Y161500D01*
X447000Y160375*
X446727Y158500*
Y157375*
X447000Y155500*
X447545Y154375*
X448364Y154000*
X448909*
X449727Y154375*
X450273Y155500*
X450545Y157375*
Y158500*
X450273Y160375*
X449727Y161500*
X448909Y161875*
X448364*
X206545Y137875D02*
X209545D01*
X207909Y134875*
X208727*
X209273Y134500*
X209545Y134125*
X209818Y133000*
Y132250*
X209545Y131125*
X209000Y130375*
X208182Y130000*
X207364*
X206545Y130375*
X206273Y130750*
X206000Y131500*
X216091Y137875D02*
X213364Y130000D01*
X212273Y137875D02*
X216091D01*
X301636D02*
X298909Y132625D01*
X303000*
X301636Y137875D02*
Y130000D01*
X332000D02*
X344000Y142000D01*
X332000D02*
X344000Y130000D01*
X364636Y137875D02*
X366818Y134125D01*
Y130000*
X369000Y137875D02*
X366818Y134125D01*
X371455Y137875D02*
Y130000D01*
Y137875D02*
X375000D01*
X371455Y134125D02*
X373636D01*
X371455Y130000D02*
X375000D01*
X381273Y136750D02*
X380727Y137500D01*
X379909Y137875*
X378818*
X378000Y137500*
X377455Y136750*
Y136000*
X377727Y135250*
X378000Y134875*
X378545Y134500*
X380182Y133750*
X380727Y133375*
X381000Y133000*
X381273Y132250*
Y131125*
X380727Y130375*
X379909Y130000*
X378818*
X378000Y130375*
X377455Y131125*
X417818Y136750D02*
Y130000D01*
X415364Y133375D02*
X420273D01*
X427636Y139375D02*
X422727Y127375D01*
X430091Y133375D02*
X435000D01*
X439091Y137875D02*
X438273Y137500D01*
X437727Y136375*
X437455Y134500*
Y133375*
X437727Y131500*
X438273Y130375*
X439091Y130000*
X439636*
X440455Y130375*
X441000Y131500*
X441273Y133375*
Y134500*
X441000Y136375*
X440455Y137500*
X439636Y137875*
X439091*
X444000Y130750D02*
X443727Y130375D01*
X444000Y130000*
X444273Y130375*
X444000Y130750*
X448364Y137875D02*
X447545Y137500D01*
X447000Y136375*
X446727Y134500*
Y133375*
X447000Y131500*
X447545Y130375*
X448364Y130000*
X448909*
X449727Y130375*
X450273Y131500*
X450545Y133375*
Y134500*
X450273Y136375*
X449727Y137500*
X448909Y137875*
X448364*
X206545Y113875D02*
X209545D01*
X207909Y110875*
X208727*
X209273Y110500*
X209545Y110125*
X209818Y109000*
Y108250*
X209545Y107125*
X209000Y106375*
X208182Y106000*
X207364*
X206545Y106375*
X206273Y106750*
X206000Y107500*
X215818Y113875D02*
X213091D01*
X212818Y110500*
X213091Y110875*
X213909Y111250*
X214727*
X215545Y110875*
X216091Y110125*
X216364Y109000*
X216091Y108250*
X215818Y107125*
X215273Y106375*
X214455Y106000*
X213636*
X212818Y106375*
X212545Y106750*
X212273Y107500*
X301636Y113875D02*
X298909Y108625D01*
X303000*
X301636Y113875D02*
Y106000D01*
X332000D02*
X344000D01*
Y118000*
X332000*
Y106000*
X338000Y112000D02*
Y118000D01*
X364636Y113875D02*
X366818Y110125D01*
Y106000*
X369000Y113875D02*
X366818Y110125D01*
X371455Y113875D02*
Y106000D01*
Y113875D02*
X375000D01*
X371455Y110125D02*
X373636D01*
X371455Y106000D02*
X375000D01*
X381273Y112750D02*
X380727Y113500D01*
X379909Y113875*
X378818*
X378000Y113500*
X377455Y112750*
Y112000*
X377727Y111250*
X378000Y110875*
X378545Y110500*
X380182Y109750*
X380727Y109375*
X381000Y109000*
X381273Y108250*
Y107125*
X380727Y106375*
X379909Y106000*
X378818*
X378000Y106375*
X377455Y107125*
X417818Y112750D02*
Y106000D01*
X415364Y109375D02*
X420273D01*
X427636Y115375D02*
X422727Y103375D01*
X430091Y109375D02*
X435000D01*
X439091Y113875D02*
X438273Y113500D01*
X437727Y112375*
X437455Y110500*
Y109375*
X437727Y107500*
X438273Y106375*
X439091Y106000*
X439636*
X440455Y106375*
X441000Y107500*
X441273Y109375*
Y110500*
X441000Y112375*
X440455Y113500*
X439636Y113875*
X439091*
X444000Y106750D02*
X443727Y106375D01*
X444000Y106000*
X444273Y106375*
X444000Y106750*
X448364Y113875D02*
X447545Y113500D01*
X447000Y112375*
X446727Y110500*
Y109375*
X447000Y107500*
X447545Y106375*
X448364Y106000*
X448909*
X449727Y106375*
X450273Y107500*
X450545Y109375*
Y110500*
X450273Y112375*
X449727Y113500*
X448909Y113875*
X448364*
X0Y0D02*
M02*
