*
*
G04 PADS VX.2.1 Build Number: 6554490 generated Gerber (RS-274-X) file*
G04 PC Version=2.1*
*
%IN "uMuddMarkVTesterLayout."*%
*
%MOIN*%
*
%FSLAX35Y35*%
*
*
*
*
G04 PC Standard Apertures*
*
*
G04 Thermal Relief Aperture macro.*
%AMTER*
1,1,$1,0,0*
1,0,$1-$2,0,0*
21,0,$3,$4,0,0,45*
21,0,$3,$4,0,0,135*
%
*
*
G04 Annular Aperture macro.*
%AMANN*
1,1,$1,0,0*
1,0,$2,0,0*
%
*
*
G04 Odd Aperture macro.*
%AMODD*
1,1,$1,0,0*
1,0,$1-0.005,0,0*
%
*
*
G04 PC Custom Aperture Macros*
*
*
*
*
*
*
G04 PC Aperture Table*
*
%ADD010C,0.001*%
%ADD011C,0.01*%
%ADD014R,0.06X0.06*%
%ADD015C,0.06*%
%ADD045C,0.19*%
%ADD046C,0.042*%
%ADD051C,0.1*%
*
*
*
*
G04 PC Circuitry*
G04 Layer Name uMuddMarkVTesterLayout. - circuitry*
%LPD*%
*
*
G04 PC Custom Flashes*
G04 Layer Name uMuddMarkVTesterLayout. - flashes*
%LPD*%
*
*
G04 PC Circuitry*
G04 Layer Name uMuddMarkVTesterLayout. - circuitry*
%LPD*%
*
G54D10*
G54D11*
G01X1840000Y2240000D02*
X2050000D01*
Y1805000*
X1840000*
Y2240000*
G54D14*
X1970000Y1900000D03*
X1960000Y2070000D03*
X1940000Y1980000D03*
X1920000D03*
X1910000Y1940000D03*
G54D15*
X1960000Y1900000D03*
X1970000Y1910000D03*
X1960000D03*
X1970000Y1920000D03*
X1960000D03*
X1970000Y1930000D03*
X1960000D03*
X1970000Y1940000D03*
X1960000D03*
Y2060000D03*
Y2050000D03*
Y2040000D03*
Y2030000D03*
Y2020000D03*
Y2010000D03*
Y2000000D03*
Y1990000D03*
Y1980000D03*
X1990000D03*
Y1990000D03*
Y2000000D03*
Y2010000D03*
Y2020000D03*
Y2030000D03*
Y2040000D03*
Y2050000D03*
Y2060000D03*
Y2070000D03*
X1940000Y1990000D03*
Y2000000D03*
Y2010000D03*
Y2020000D03*
Y2030000D03*
Y2040000D03*
Y2050000D03*
Y2060000D03*
Y2070000D03*
X1920000Y1990000D03*
Y2000000D03*
Y2010000D03*
Y2020000D03*
Y2030000D03*
Y2040000D03*
Y2050000D03*
Y2060000D03*
Y2070000D03*
Y1940000D03*
X1910000Y1930000D03*
X1920000D03*
X1910000Y1920000D03*
X1920000D03*
X1910000Y1910000D03*
X1920000D03*
X1910000Y1900000D03*
X1920000D03*
G54D45*
X1857500Y1825000D03*
X2034000Y1825200D03*
X2031200Y2221800D03*
X1857300Y2221700D03*
G54D46*
X1984666Y1829679D03*
X1980729Y1821805D03*
X1976792Y1829679D03*
X1972855Y1821805D03*
X1968918Y1829679D03*
X1964981Y1821805D03*
X1961044Y1829679D03*
X1957107Y1821805D03*
X1953170Y1829679D03*
X1949233Y1821805D03*
X1945296Y1829679D03*
X1933485Y1821805D03*
X1929548Y1829679D03*
X1925611Y1821805D03*
X1921674Y1829679D03*
X1917737Y1821805D03*
X1913800Y1829679D03*
X1909863Y1821805D03*
X1984666Y1839521D03*
X1980729Y1847395D03*
X1976792Y1839521D03*
X1972855Y1847395D03*
X1968918Y1839521D03*
X1964981Y1847395D03*
X1961044Y1839521D03*
X1957107Y1847395D03*
X1953170Y1839521D03*
X1949233Y1847395D03*
X1945296Y1839521D03*
X1933485Y1847395D03*
X1929548Y1839521D03*
X1925611Y1847395D03*
X1921674Y1839521D03*
X1917737Y1847395D03*
X1913800Y1839521D03*
X1909863Y1847395D03*
G54D51*
X1978400Y2160500D03*
Y2220700D03*
X1891600Y2161300D03*
Y2221500D03*
X0Y0D02*
M02*
