*
*
G04 PADS VX.2.1 Build Number: 6554490 generated Gerber (RS-274-X) file*
G04 PC Version=2.1*
*
%IN "uMuddMarkVTesterLayout."*%
*
%MOIN*%
*
%FSLAX35Y35*%
*
*
*
*
G04 PC Standard Apertures*
*
*
G04 Thermal Relief Aperture macro.*
%AMTER*
1,1,$1,0,0*
1,0,$1-$2,0,0*
21,0,$3,$4,0,0,45*
21,0,$3,$4,0,0,135*
%
*
*
G04 Annular Aperture macro.*
%AMANN*
1,1,$1,0,0*
1,0,$2,0,0*
%
*
*
G04 Odd Aperture macro.*
%AMODD*
1,1,$1,0,0*
1,0,$1-0.005,0,0*
%
*
*
G04 PC Custom Aperture Macros*
*
*
*
*
*
*
G04 PC Aperture Table*
*
%ADD010C,0.001*%
%ADD011C,0.01*%
%ADD013R,0.06X0.05*%
%ADD014R,0.06X0.06*%
%ADD015C,0.06*%
%ADD017R,0.04X0.08*%
%ADD018R,0.2X0.25*%
%ADD019R,0.05X0.06*%
%ADD045C,0.19*%
%ADD046C,0.042*%
%ADD051C,0.1*%
*
*
*
*
G04 PC Circuitry*
G04 Layer Name uMuddMarkVTesterLayout. - circuitry*
%LPD*%
*
*
G04 PC Custom Flashes*
G04 Layer Name uMuddMarkVTesterLayout. - flashes*
%LPD*%
*
*
G04 PC Circuitry*
G04 Layer Name uMuddMarkVTesterLayout. - circuitry*
%LPD*%
*
G54D10*
G54D11*
G01X1896871Y1853891D02*
X1995296D01*
Y1819994*
X1896871*
Y1853891*
X1978500Y2094500D02*
X1970500D01*
Y2085500*
X1978500*
X1981500Y2094500D02*
X1989500D01*
Y2085500*
X1981500*
X1978500Y2114500D02*
X1970500D01*
Y2105500*
X1978500*
X1981500Y2114500D02*
X1989500D01*
Y2105500*
X1981500*
X1978500Y2134500D02*
X1970500D01*
Y2125500*
X1978500*
X1981500Y2134500D02*
X1989500D01*
Y2125500*
X1981500*
X1948500Y2134500D02*
X1940500D01*
Y2125500*
X1948500*
X1951500Y2134500D02*
X1959500D01*
Y2125500*
X1951500*
X1935000Y1975000D02*
Y2075000D01*
X1945000*
Y1975000*
X1935000*
X1915000D02*
Y2075000D01*
X1925000*
Y1975000*
X1915000*
X1943750Y2115000D02*
X1947500D01*
Y2090000*
X1943750*
X1916250D02*
X1912500D01*
Y2115000*
X1916250*
X1908500Y2134500D02*
X1900500D01*
Y2125500*
X1908500*
X1911500Y2134500D02*
X1919500D01*
Y2125500*
X1911500*
X1895500Y2098500D02*
Y2090500D01*
X1904500*
Y2098500*
X1895500Y2101500D02*
Y2109500D01*
X1904500*
Y2101500*
X1895500Y2068500D02*
Y2060500D01*
X1904500*
Y2068500*
X1895500Y2071500D02*
Y2079500D01*
X1904500*
Y2071500*
X1895500Y2038500D02*
Y2030500D01*
X1904500*
Y2038500*
X1895500Y2041500D02*
Y2049500D01*
X1904500*
Y2041500*
X1895500Y1998500D02*
Y1990500D01*
X1904500*
Y1998500*
X1895500Y2001500D02*
Y2009500D01*
X1904500*
Y2001500*
X1883750Y2055000D02*
X1887500D01*
Y2030000*
X1883750*
X1856250D02*
X1852500D01*
Y2055000*
X1856250*
X1868500Y2134500D02*
X1860500D01*
Y2125500*
X1868500*
X1871500Y2134500D02*
X1879500D01*
Y2125500*
X1871500*
X1868500Y2074500D02*
X1860500D01*
Y2065500*
X1868500*
X1871500Y2074500D02*
X1879500D01*
Y2065500*
X1871500*
X1868500Y2014500D02*
X1860500D01*
Y2005500*
X1868500*
X1871500Y2014500D02*
X1879500D01*
Y2005500*
X1871500*
X1868500Y1994500D02*
X1860500D01*
Y1985500*
X1868500*
X1871500Y1994500D02*
X1879500D01*
Y1985500*
X1871500*
X1868500Y1964500D02*
X1860500D01*
Y1955500*
X1868500*
X1871500Y1964500D02*
X1879500D01*
Y1955500*
X1871500*
X1868500Y1944500D02*
X1860500D01*
Y1935500*
X1868500*
X1871500Y1944500D02*
X1879500D01*
Y1935500*
X1871500*
X1868500Y1924500D02*
X1860500D01*
Y1915500*
X1868500*
X1871500Y1924500D02*
X1879500D01*
Y1915500*
X1871500*
X1868500Y1904500D02*
X1860500D01*
Y1895500*
X1868500*
X1871500Y1904500D02*
X1879500D01*
Y1895500*
X1871500*
X1868500Y1884500D02*
X1860500D01*
Y1875500*
X1868500*
X1871500Y1884500D02*
X1879500D01*
Y1875500*
X1871500*
X1868500Y1864500D02*
X1860500D01*
Y1855500*
X1868500*
X1871500Y1864500D02*
X1879500D01*
Y1855500*
X1871500*
X1883750Y2115000D02*
X1887500D01*
Y2090000*
X1883750*
X1856250D02*
X1852500D01*
Y2115000*
X1856250*
X1840000Y2240000D02*
X2050000D01*
Y1805000*
X1840000*
Y2240000*
G54D13*
X1975500Y2090000D03*
X1984500D03*
X1975500Y2110000D03*
X1984500D03*
X1975500Y2130000D03*
X1984500D03*
X1945500D03*
X1954500D03*
X1905500D03*
X1914500D03*
X1865500D03*
X1874500D03*
X1865500Y2070000D03*
X1874500D03*
X1865500Y2010000D03*
X1874500D03*
X1865500Y1990000D03*
X1874500D03*
X1865500Y1960000D03*
X1874500D03*
X1865500Y1940000D03*
X1874500D03*
X1865500Y1920000D03*
X1874500D03*
X1865500Y1900000D03*
X1874500D03*
X1865500Y1880000D03*
X1874500D03*
X1865500Y1860000D03*
X1874500D03*
G54D14*
X1970000Y1900000D03*
X1960000Y2070000D03*
X1940000Y1980000D03*
X1920000D03*
X1910000Y1940000D03*
G54D15*
X1960000Y1900000D03*
X1970000Y1910000D03*
X1960000D03*
X1970000Y1920000D03*
X1960000D03*
X1970000Y1930000D03*
X1960000D03*
X1970000Y1940000D03*
X1960000D03*
Y2060000D03*
Y2050000D03*
Y2040000D03*
Y2030000D03*
Y2020000D03*
Y2010000D03*
Y2000000D03*
Y1990000D03*
Y1980000D03*
X1990000D03*
Y1990000D03*
Y2000000D03*
Y2010000D03*
Y2020000D03*
Y2030000D03*
Y2040000D03*
Y2050000D03*
Y2060000D03*
Y2070000D03*
X1940000Y1990000D03*
Y2000000D03*
Y2010000D03*
Y2020000D03*
Y2030000D03*
Y2040000D03*
Y2050000D03*
Y2060000D03*
Y2070000D03*
X1920000Y1990000D03*
Y2000000D03*
Y2010000D03*
Y2020000D03*
Y2030000D03*
Y2040000D03*
Y2050000D03*
Y2060000D03*
Y2070000D03*
Y1940000D03*
X1910000Y1930000D03*
X1920000D03*
X1910000Y1920000D03*
X1920000D03*
X1910000Y1910000D03*
X1920000D03*
X1910000Y1900000D03*
X1920000D03*
G54D17*
X1921000Y2083900D03*
X1939000D03*
X1861000Y2023900D03*
X1879000D03*
X1861000Y2083900D03*
X1879000D03*
G54D18*
X1930000Y2105000D03*
X1870000Y2045000D03*
Y2105000D03*
G54D19*
X1900000Y2095500D03*
Y2104500D03*
Y2065500D03*
Y2074500D03*
Y2035500D03*
Y2044500D03*
Y1995500D03*
Y2004500D03*
G54D45*
X1857500Y1825000D03*
X2034000Y1825200D03*
X2031200Y2221800D03*
X1857300Y2221700D03*
G54D46*
X1984666Y1829679D03*
X1980729Y1821805D03*
X1976792Y1829679D03*
X1972855Y1821805D03*
X1968918Y1829679D03*
X1964981Y1821805D03*
X1961044Y1829679D03*
X1957107Y1821805D03*
X1953170Y1829679D03*
X1949233Y1821805D03*
X1945296Y1829679D03*
X1933485Y1821805D03*
X1929548Y1829679D03*
X1925611Y1821805D03*
X1921674Y1829679D03*
X1917737Y1821805D03*
X1913800Y1829679D03*
X1909863Y1821805D03*
X1984666Y1839521D03*
X1980729Y1847395D03*
X1976792Y1839521D03*
X1972855Y1847395D03*
X1968918Y1839521D03*
X1964981Y1847395D03*
X1961044Y1839521D03*
X1957107Y1847395D03*
X1953170Y1839521D03*
X1949233Y1847395D03*
X1945296Y1839521D03*
X1933485Y1847395D03*
X1929548Y1839521D03*
X1925611Y1847395D03*
X1921674Y1839521D03*
X1917737Y1847395D03*
X1913800Y1839521D03*
X1909863Y1847395D03*
G54D51*
X1978400Y2160500D03*
Y2220700D03*
X1891600Y2161300D03*
Y2221500D03*
X0Y0D02*
M02*
