*
*
G04 PADS VX.2.1 Build Number: 6554490 generated Gerber (RS-274-X) file*
G04 PC Version=2.1*
*
%IN "uMuddMarkVTesterLayout."*%
*
%MOIN*%
*
%FSLAX35Y35*%
*
*
*
*
G04 PC Standard Apertures*
*
*
G04 Thermal Relief Aperture macro.*
%AMTER*
1,1,$1,0,0*
1,0,$1-$2,0,0*
21,0,$3,$4,0,0,45*
21,0,$3,$4,0,0,135*
%
*
*
G04 Annular Aperture macro.*
%AMANN*
1,1,$1,0,0*
1,0,$2,0,0*
%
*
*
G04 Odd Aperture macro.*
%AMODD*
1,1,$1,0,0*
1,0,$1-0.005,0,0*
%
*
*
G04 PC Custom Aperture Macros*
*
*
*
*
*
*
G04 PC Aperture Table*
*
%ADD010C,0.001*%
%ADD011C,0.01*%
%ADD013R,0.06X0.05*%
%ADD014R,0.06X0.06*%
%ADD015C,0.06*%
%ADD017R,0.04X0.08*%
%ADD018R,0.2X0.25*%
%ADD019R,0.05X0.06*%
%ADD023C,0.012*%
%ADD024C,0.03*%
%ADD045C,0.19*%
%ADD046C,0.042*%
%ADD051C,0.1*%
*
*
*
*
G04 PC Circuitry*
G04 Layer Name uMuddMarkVTesterLayout. - circuitry*
%LPD*%
*
*
G04 PC Custom Flashes*
G04 Layer Name uMuddMarkVTesterLayout. - flashes*
%LPD*%
*
*
G04 PC Circuitry*
G04 Layer Name uMuddMarkVTesterLayout. - circuitry*
%LPD*%
*
G54D10*
G54D11*
G01X1949300Y1814400D02*
X1945296Y1818404D01*
Y1829679*
X1880000Y1825000D02*
Y1839200D01*
X1874500Y1844700*
Y1860000*
X1870000Y1844800D02*
Y1867200D01*
X1865500Y1871700*
Y1880000*
X1937448Y1843752D02*
X1940000Y1846305D01*
Y1868660*
X1937448Y1843752D02*
X1937200Y1844000D01*
X1910200Y1828700D02*
Y1841800D01*
X1913200Y1844800*
Y1855200*
X1921700Y1863700*
Y1868660*
X1917400Y1842100D02*
X1921500Y1846200D01*
Y1857500*
X1926100Y1862400*
X1926000Y1841100D02*
X1928900Y1844000D01*
X1937200*
X1921674Y1829679D02*
X1917400Y1833953D01*
Y1842100*
X1925611Y1821805D02*
X1922416Y1825600D01*
X1913300*
X1910200Y1828700*
X1933485Y1821805D02*
X1930590Y1824700D01*
X1928000*
X1926000Y1826700*
Y1841100*
X1945700Y1857600D02*
Y1863139D01*
X1945600Y1864139*
Y1868660*
X1953170Y1829679D02*
X1957100Y1833609D01*
Y1841557*
X1960400Y1844857*
Y1872000*
X1957107Y1821805D02*
Y1830663D01*
X1965000Y1838556*
Y1841509*
X1968200Y1844709*
Y1871473*
X1972855Y1821805D02*
Y1841116D01*
X1977500Y1845761*
Y1895000*
X1976792Y1829679D02*
X1980700Y1833587D01*
Y1841461*
X1985000Y1845761*
Y1915000*
X1980729Y1821805D02*
X1984255Y1825331D01*
X1984844*
X1992500Y1832987*
Y1925000*
X1984666Y1829679D02*
Y1833937D01*
X1987900Y1837171*
Y1923900*
X1859600Y1894200D02*
Y1993900D01*
X1860000Y1994300*
Y2017500*
X1890100Y1896400D02*
X1893700Y1900000D01*
X1910000*
X1890100Y1896400D02*
X1869100D01*
X1869028Y1896472*
X1866655Y1900000*
X1865500*
Y1880000D02*
Y1888300D01*
X1859600Y1894200*
X1921700Y1868660D02*
Y1871956D01*
X1924100Y1874356*
Y2031700*
X1920000Y2035800*
Y2040000*
X1928500Y1867600D02*
Y1930800D01*
X1927500Y1931800*
Y1995000*
X1945600Y1868660D02*
Y1941400D01*
X1960000Y1957400*
X1940000Y1868660D02*
Y1980000D01*
X1960400Y1872000D02*
X1960000Y1872400D01*
Y1900000*
X1968200Y1871473D02*
X1965000Y1874673D01*
Y1900800*
X1960000Y1905800*
Y1910000*
X1891600Y1936400D02*
X1895200Y1940000D01*
X1910000*
X1891600Y1936400D02*
X1869100D01*
X1869028Y1936472*
X1866655Y1940000*
X1865500*
Y1920000D02*
X1866655D01*
X1869028Y1923528*
X1869100Y1923600*
X1890100*
X1910000Y1920000D02*
X1893700D01*
X1890100Y1923600*
X1987900Y1923900D02*
X1987500Y1924300D01*
Y1935000*
X1880925Y1956400D02*
X1911700Y1987175D01*
Y1991700*
X1920000Y2000000*
X1880925Y1956400D02*
X1869100D01*
X1869028Y1956472*
X1866655Y1960000*
X1865500*
X1960000Y1957400D02*
Y1967556D01*
X1942556Y1985000*
X1939202*
X1933000Y1991202*
Y2047000*
X1920000Y2060000*
X1960000Y1940000D02*
Y1957400D01*
X1952500Y2018000D02*
Y2052500D01*
X1960000Y2060000*
X1965000Y1995000D02*
Y2060800D01*
X1960000Y2065800*
Y2070000*
X1940000Y1990000D02*
X1950000Y2000000D01*
Y2010000*
X1960000Y2020000*
G54D13*
X1975500Y2090000D03*
X1984500D03*
X1975500Y2110000D03*
X1984500D03*
X1975500Y2130000D03*
X1984500D03*
X1945500D03*
X1954500D03*
X1905500D03*
X1914500D03*
X1865500D03*
X1874500D03*
X1865500Y2070000D03*
X1874500D03*
X1865500Y2010000D03*
X1874500D03*
X1865500Y1990000D03*
X1874500D03*
X1865500Y1960000D03*
X1874500D03*
X1865500Y1940000D03*
X1874500D03*
X1865500Y1920000D03*
X1874500D03*
X1865500Y1900000D03*
X1874500D03*
X1865500Y1880000D03*
X1874500D03*
X1865500Y1860000D03*
X1874500D03*
G54D14*
X1970000Y1900000D03*
X1960000Y2070000D03*
X1940000Y1980000D03*
X1920000D03*
X1910000Y1940000D03*
G54D15*
X1960000Y1900000D03*
X1970000Y1910000D03*
X1960000D03*
X1970000Y1920000D03*
X1960000D03*
X1970000Y1930000D03*
X1960000D03*
X1970000Y1940000D03*
X1960000D03*
Y2060000D03*
Y2050000D03*
Y2040000D03*
Y2030000D03*
Y2020000D03*
Y2010000D03*
Y2000000D03*
Y1990000D03*
Y1980000D03*
X1990000D03*
Y1990000D03*
Y2000000D03*
Y2010000D03*
Y2020000D03*
Y2030000D03*
Y2040000D03*
Y2050000D03*
Y2060000D03*
Y2070000D03*
X1940000Y1990000D03*
Y2000000D03*
Y2010000D03*
Y2020000D03*
Y2030000D03*
Y2040000D03*
Y2050000D03*
Y2060000D03*
Y2070000D03*
X1920000Y1990000D03*
Y2000000D03*
Y2010000D03*
Y2020000D03*
Y2030000D03*
Y2040000D03*
Y2050000D03*
Y2060000D03*
Y2070000D03*
Y1940000D03*
X1910000Y1930000D03*
X1920000D03*
X1910000Y1920000D03*
X1920000D03*
X1910000Y1910000D03*
X1920000D03*
X1910000Y1900000D03*
X1920000D03*
G54D17*
X1921000Y2083900D03*
X1939000D03*
X1861000Y2023900D03*
X1879000D03*
X1861000Y2083900D03*
X1879000D03*
G54D18*
X1930000Y2105000D03*
X1870000Y2045000D03*
Y2105000D03*
G54D19*
X1900000Y2095500D03*
Y2104500D03*
Y2065500D03*
Y2074500D03*
Y2035500D03*
Y2044500D03*
Y1995500D03*
Y2004500D03*
G54D23*
X1914400Y1816500D02*
X1903401D01*
X1890300Y1829601*
X1982091Y1818500D02*
X2007500Y1843909D01*
Y1852400*
X1982091Y1818500D02*
X1968286D01*
X1964981Y1821805*
X1997860Y1815300D02*
X2015000Y1832440D01*
Y1842500*
X1997860Y1815300D02*
X1966819D01*
X1961044Y1821075*
Y1829679*
X1890300Y1829601D02*
Y1860530D01*
X1914200Y1884430*
X1949233Y1821805D02*
Y1840290D01*
X1953200Y1844257*
Y1929140*
X1959060Y1935000*
X1960940*
X1965000Y1939060*
Y1985000*
X1860000Y1860000D02*
X1865500D01*
X1874500Y1880000D02*
X1880000D01*
X1914200Y1884430D02*
Y1913340D01*
X1911740Y1915800*
X1870300Y1916300D02*
X1874000Y1920000D01*
X1874500*
X1870300Y1916300D02*
X1862003D01*
X1861300Y1917003*
Y1972500*
X1865500Y1976700*
Y1990000*
X1874500Y1900000D02*
Y1920000D01*
X1911740Y1915800D02*
X1915000Y1919060D01*
Y1925000*
X1920000Y1930000*
X1911740Y1915800D02*
X1894300D01*
X1890100Y1920000*
X1874500*
Y1940000D02*
X1880000D01*
X1874500Y1960000D02*
X1880000D01*
X1874500Y1990000D02*
X1880000D01*
X1865500D02*
X1866000D01*
X1871500Y1995500*
X1900000*
X1865500Y1990000D02*
Y2010000D01*
X1880000D02*
X1874500D01*
X1874000*
X1867800Y2016200*
X1866700*
X1861000Y2021900*
Y2023500*
X1905000Y1987500D02*
Y2018000D01*
X1900000Y2023000*
Y2035500*
Y2004500D02*
Y2010000D01*
Y1995500D02*
Y1996000D01*
X1887000Y2009000*
X1886203*
X1870000Y2025203*
Y2045000*
X1896300Y2054300D02*
X1900000Y2058000D01*
Y2065500*
X1879000Y2023500D02*
Y2029500D01*
X1881200Y2031700*
Y2067200*
X1900000Y2044500D02*
Y2050000D01*
Y2035500D02*
Y2036000D01*
X1896300Y2039700*
Y2054300*
X1857800Y2088397D02*
X1860303Y2090900D01*
X1884839*
X1889439Y2095500*
X1900000*
X1881200Y2067200D02*
X1879000Y2069400D01*
Y2083500*
X1895000Y2092500D02*
X1900000Y2093468D01*
Y2095500*
X1875000Y2065000D02*
Y2070000D01*
X1874500*
X1879000Y2083500D02*
Y2083900D01*
X1884800*
X1889600Y2088700*
X1900397*
X1903943Y2092246*
X1874500Y2070000D02*
X1874000D01*
X1867800Y2076200*
X1866700*
X1861000Y2081900*
Y2083500*
X1865500Y2070000D02*
X1865000D01*
X1857800Y2077200*
Y2088397*
X1903943Y2092246D02*
Y2113557D01*
X1891600Y2125900*
Y2161300*
X1920000Y2077500D02*
X1920429D01*
Y2083500*
X1921000*
X1900000Y2074500D02*
Y2080000D01*
Y2065500D02*
Y2066000D01*
X1895000Y2071000*
Y2085000*
X1900000Y2095500D02*
Y2096000D01*
X1891000Y2105000*
X1870000*
X1939000Y2083500D02*
Y2083900D01*
X1932200*
X1926100Y2090000*
X1906188*
X1903943Y2092246*
X1970000Y2090000D02*
X1975500D01*
X1984500D02*
Y2110000D01*
X1990000Y2070000D02*
Y2085000D01*
X1985000Y2090000*
X1984500*
X1870000Y2105000D02*
Y2120200D01*
X1865500Y2124700*
Y2130000*
X1874500D02*
X1880000D01*
X1920000Y2127500D02*
X1916900Y2128100D01*
X1914500*
Y2130000*
X1900000Y2127500D02*
X1903100Y2128100D01*
X1905500*
Y2130000*
X1900000Y2104500D02*
X1898100D01*
Y2106900*
X1897500Y2110000*
X1930000Y2105000D02*
X1942500D01*
X1970000Y2127500D02*
X1973100Y2128100D01*
X1975500*
Y2130000*
X1970000Y2107500D02*
X1973100Y2108100D01*
X1975500*
Y2110000*
X1940000Y2130000D02*
X1945500D01*
X1954500D02*
X1960000D01*
X1984500Y2110000D02*
Y2130000D01*
X1891600Y2161300D02*
Y2221500D01*
G54D24*
X1914400Y1816500D03*
X1949300Y1814400D03*
X1880000Y1825000D03*
X1870000Y1844800D03*
X1945700Y1857600D03*
X1926100Y1862400D03*
X1928500Y1867600D03*
X1977500Y1895000D03*
X1985000Y1915000D03*
X1992500Y1925000D03*
X1987500Y1935000D03*
X1860000Y2017500D03*
X1905000Y1987500D03*
X1927500Y1995000D03*
X1952500Y2018000D03*
X1965000Y1985000D03*
Y1995000D03*
X1895000Y2092500D03*
Y2085000D03*
G54D45*
X1857500Y1825000D03*
X2034000Y1825200D03*
X2031200Y2221800D03*
X1857300Y2221700D03*
G54D46*
X1984666Y1829679D03*
X1980729Y1821805D03*
X1976792Y1829679D03*
X1972855Y1821805D03*
X1968918Y1829679D03*
X1964981Y1821805D03*
X1961044Y1829679D03*
X1957107Y1821805D03*
X1953170Y1829679D03*
X1949233Y1821805D03*
X1945296Y1829679D03*
X1933485Y1821805D03*
X1929548Y1829679D03*
X1925611Y1821805D03*
X1921674Y1829679D03*
X1917737Y1821805D03*
X1913800Y1829679D03*
X1909863Y1821805D03*
X1984666Y1839521D03*
X1980729Y1847395D03*
X1976792Y1839521D03*
X1972855Y1847395D03*
X1968918Y1839521D03*
X1964981Y1847395D03*
X1961044Y1839521D03*
X1957107Y1847395D03*
X1953170Y1839521D03*
X1949233Y1847395D03*
X1945296Y1839521D03*
X1933485Y1847395D03*
X1929548Y1839521D03*
X1925611Y1847395D03*
X1921674Y1839521D03*
X1917737Y1847395D03*
X1913800Y1839521D03*
X1909863Y1847395D03*
X2007500Y1852400D03*
X2015000Y1842500D03*
X1880000Y1880000D03*
X1860000Y1860000D03*
X1880000Y1940000D03*
Y1960000D03*
Y2010000D03*
Y1990000D03*
X1900000Y2010000D03*
Y2050000D03*
X1875000Y2065000D03*
X1920000Y2077500D03*
X1900000Y2080000D03*
X1970000Y2090000D03*
X1897500Y2110000D03*
X1880000Y2130000D03*
X1920000Y2127500D03*
X1900000D03*
X1960000Y2130000D03*
X1970000Y2127500D03*
Y2107500D03*
X1940000Y2130000D03*
X1942500Y2105000D03*
G54D51*
X1978400Y2160500D03*
Y2220700D03*
X1891600Y2161300D03*
Y2221500D03*
X0Y0D02*
M02*
