*
*
G04 PADS VX.2.1 Build Number: 6554490 generated Gerber (RS-274-X) file*
G04 PC Version=2.1*
*
%IN "uMuddMarkVTesterLayout."*%
*
%MOIN*%
*
%FSLAX35Y35*%
*
*
*
*
G04 PC Standard Apertures*
*
*
G04 Thermal Relief Aperture macro.*
%AMTER*
1,1,$1,0,0*
1,0,$1-$2,0,0*
21,0,$3,$4,0,0,45*
21,0,$3,$4,0,0,135*
%
*
*
G04 Annular Aperture macro.*
%AMANN*
1,1,$1,0,0*
1,0,$2,0,0*
%
*
*
G04 Odd Aperture macro.*
%AMODD*
1,1,$1,0,0*
1,0,$1-0.005,0,0*
%
*
*
G04 PC Custom Aperture Macros*
*
*
*
*
*
*
G04 PC Aperture Table*
*
%ADD010C,0.001*%
%ADD011C,0.01*%
*
*
*
*
G04 PC Circuitry*
G04 Layer Name uMuddMarkVTesterLayout. - circuitry*
%LPD*%
*
*
G04 PC Custom Flashes*
G04 Layer Name uMuddMarkVTesterLayout. - flashes*
%LPD*%
*
*
G04 PC Circuitry*
G04 Layer Name uMuddMarkVTesterLayout. - circuitry*
%LPD*%
*
G54D10*
G54D11*
G01X1980666Y1829679D02*
X1988666D01*
X1984666Y1825679D02*
Y1833679D01*
X1976729Y1821805D02*
X1984729D01*
X1980729Y1817805D02*
Y1825805D01*
X1972792Y1829679D02*
X1980792D01*
X1976792Y1825679D02*
Y1833679D01*
X1968855Y1821805D02*
X1976855D01*
X1972855Y1817805D02*
Y1825805D01*
X1964918Y1829679D02*
X1972918D01*
X1968918Y1825679D02*
Y1833679D01*
X1960981Y1821805D02*
X1968981D01*
X1964981Y1817805D02*
Y1825805D01*
X1957044Y1829679D02*
X1965044D01*
X1961044Y1825679D02*
Y1833679D01*
X1953107Y1821805D02*
X1961107D01*
X1957107Y1817805D02*
Y1825805D01*
X1949170Y1829679D02*
X1957170D01*
X1953170Y1825679D02*
Y1833679D01*
X1945233Y1821805D02*
X1953233D01*
X1949233Y1817805D02*
Y1825805D01*
X1941296Y1829679D02*
X1949296D01*
X1945296Y1825679D02*
Y1833679D01*
X1929485Y1821805D02*
X1937485D01*
X1933485Y1817805D02*
Y1825805D01*
X1925548Y1829679D02*
X1933548D01*
X1929548Y1825679D02*
Y1833679D01*
X1921611Y1821805D02*
X1929611D01*
X1925611Y1817805D02*
Y1825805D01*
X1917674Y1829679D02*
X1925674D01*
X1921674Y1825679D02*
Y1833679D01*
X1913737Y1821805D02*
X1921737D01*
X1917737Y1817805D02*
Y1825805D01*
X1909800Y1829679D02*
X1917800D01*
X1913800Y1825679D02*
Y1833679D01*
X1905863Y1821805D02*
X1913863D01*
X1909863Y1817805D02*
Y1825805D01*
X1980666Y1839521D02*
X1988666D01*
X1984666Y1835521D02*
Y1843521D01*
X1976729Y1847395D02*
X1984729D01*
X1980729Y1843395D02*
Y1851395D01*
X1972792Y1839521D02*
X1980792D01*
X1976792Y1835521D02*
Y1843521D01*
X1968855Y1847395D02*
X1976855D01*
X1972855Y1843395D02*
Y1851395D01*
X1964918Y1839521D02*
X1972918D01*
X1968918Y1835521D02*
Y1843521D01*
X1960981Y1847395D02*
X1968981D01*
X1964981Y1843395D02*
Y1851395D01*
X1957044Y1839521D02*
X1965044D01*
X1961044Y1835521D02*
Y1843521D01*
X1953107Y1847395D02*
X1961107D01*
X1957107Y1843395D02*
Y1851395D01*
X1949170Y1839521D02*
X1957170D01*
X1953170Y1835521D02*
Y1843521D01*
X1945233Y1847395D02*
X1953233D01*
X1949233Y1843395D02*
Y1851395D01*
X1941296Y1839521D02*
X1949296D01*
X1945296Y1835521D02*
Y1843521D01*
X1929485Y1847395D02*
X1937485D01*
X1933485Y1843395D02*
Y1851395D01*
X1925548Y1839521D02*
X1933548D01*
X1929548Y1835521D02*
Y1843521D01*
X1921611Y1847395D02*
X1929611D01*
X1925611Y1843395D02*
Y1851395D01*
X1917674Y1839521D02*
X1925674D01*
X1921674Y1835521D02*
Y1843521D01*
X1913737Y1847395D02*
X1921737D01*
X1917737Y1843395D02*
Y1851395D01*
X1909800Y1839521D02*
X1917800D01*
X1913800Y1835521D02*
Y1843521D01*
X1905863Y1847395D02*
X1913863D01*
X1909863Y1843395D02*
Y1851395D01*
X1934800Y1830600D02*
X1942800Y1838600D01*
X1934800D02*
X1942800Y1830600D01*
X1898776D02*
X1906776Y1838600D01*
X1898776D02*
X1906776Y1830600D01*
X1966000Y1896000D02*
X1974000D01*
Y1904000*
X1966000*
Y1896000*
X1970000Y1900000D02*
Y1904000D01*
X1956000Y1896000D02*
X1964000D01*
Y1904000*
X1956000*
Y1896000*
X1960000Y1900000D02*
Y1904000D01*
X1966000Y1906000D02*
X1974000D01*
Y1914000*
X1966000*
Y1906000*
X1970000Y1910000D02*
Y1914000D01*
X1956000Y1906000D02*
X1964000D01*
Y1914000*
X1956000*
Y1906000*
X1960000Y1910000D02*
Y1914000D01*
X1966000Y1916000D02*
X1974000D01*
Y1924000*
X1966000*
Y1916000*
X1970000Y1920000D02*
Y1924000D01*
X1956000Y1916000D02*
X1964000D01*
Y1924000*
X1956000*
Y1916000*
X1960000Y1920000D02*
Y1924000D01*
X1966000Y1926000D02*
X1974000D01*
Y1934000*
X1966000*
Y1926000*
X1970000Y1930000D02*
Y1934000D01*
X1956000Y1926000D02*
X1964000D01*
Y1934000*
X1956000*
Y1926000*
X1960000Y1930000D02*
Y1934000D01*
X1966000Y1936000D02*
X1974000D01*
Y1944000*
X1966000*
Y1936000*
X1970000Y1940000D02*
Y1944000D01*
X1956000Y1936000D02*
X1964000D01*
Y1944000*
X1956000*
Y1936000*
X1960000Y1940000D02*
Y1944000D01*
Y2066000D02*
X1964000Y2070000D01*
X1960000Y2074000*
X1956000Y2070000*
X1960000Y2066000*
Y2070000D02*
Y2074000D01*
Y2056000D02*
X1964000Y2060000D01*
X1960000Y2064000*
X1956000Y2060000*
X1960000Y2056000*
Y2060000D02*
Y2064000D01*
Y2046000D02*
X1964000Y2050000D01*
X1960000Y2054000*
X1956000Y2050000*
X1960000Y2046000*
Y2050000D02*
Y2054000D01*
Y2036000D02*
X1964000Y2040000D01*
X1960000Y2044000*
X1956000Y2040000*
X1960000Y2036000*
Y2040000D02*
Y2044000D01*
Y2026000D02*
X1964000Y2030000D01*
X1960000Y2034000*
X1956000Y2030000*
X1960000Y2026000*
Y2030000D02*
Y2034000D01*
Y2016000D02*
X1964000Y2020000D01*
X1960000Y2024000*
X1956000Y2020000*
X1960000Y2016000*
Y2020000D02*
Y2024000D01*
Y2006000D02*
X1964000Y2010000D01*
X1960000Y2014000*
X1956000Y2010000*
X1960000Y2006000*
Y2010000D02*
Y2014000D01*
Y1996000D02*
X1964000Y2000000D01*
X1960000Y2004000*
X1956000Y2000000*
X1960000Y1996000*
Y2000000D02*
Y2004000D01*
Y1986000D02*
X1964000Y1990000D01*
X1960000Y1994000*
X1956000Y1990000*
X1960000Y1986000*
Y1990000D02*
Y1994000D01*
Y1976000D02*
X1964000Y1980000D01*
X1960000Y1984000*
X1956000Y1980000*
X1960000Y1976000*
Y1980000D02*
Y1984000D01*
X1990000Y1976000D02*
X1994000Y1980000D01*
X1990000Y1984000*
X1986000Y1980000*
X1990000Y1976000*
Y1980000D02*
Y1984000D01*
Y1986000D02*
X1994000Y1990000D01*
X1990000Y1994000*
X1986000Y1990000*
X1990000Y1986000*
Y1990000D02*
Y1994000D01*
Y1996000D02*
X1994000Y2000000D01*
X1990000Y2004000*
X1986000Y2000000*
X1990000Y1996000*
Y2000000D02*
Y2004000D01*
Y2006000D02*
X1994000Y2010000D01*
X1990000Y2014000*
X1986000Y2010000*
X1990000Y2006000*
Y2010000D02*
Y2014000D01*
Y2016000D02*
X1994000Y2020000D01*
X1990000Y2024000*
X1986000Y2020000*
X1990000Y2016000*
Y2020000D02*
Y2024000D01*
Y2026000D02*
X1994000Y2030000D01*
X1990000Y2034000*
X1986000Y2030000*
X1990000Y2026000*
Y2030000D02*
Y2034000D01*
Y2036000D02*
X1994000Y2040000D01*
X1990000Y2044000*
X1986000Y2040000*
X1990000Y2036000*
Y2040000D02*
Y2044000D01*
Y2046000D02*
X1994000Y2050000D01*
X1990000Y2054000*
X1986000Y2050000*
X1990000Y2046000*
Y2050000D02*
Y2054000D01*
Y2056000D02*
X1994000Y2060000D01*
X1990000Y2064000*
X1986000Y2060000*
X1990000Y2056000*
Y2060000D02*
Y2064000D01*
Y2066000D02*
X1994000Y2070000D01*
X1990000Y2074000*
X1986000Y2070000*
X1990000Y2066000*
Y2070000D02*
Y2074000D01*
X1974400Y2156500D02*
X1982400D01*
X1974400Y2164500*
X1982400*
X1974400Y2156500*
Y2216700D02*
X1982400D01*
X1974400Y2224700*
X1982400*
X1974400Y2216700*
X1940000Y1976000D02*
X1944000Y1980000D01*
X1940000Y1984000*
X1936000Y1980000*
X1940000Y1976000*
Y1980000D02*
Y1984000D01*
Y1986000D02*
X1944000Y1990000D01*
X1940000Y1994000*
X1936000Y1990000*
X1940000Y1986000*
Y1990000D02*
Y1994000D01*
Y1996000D02*
X1944000Y2000000D01*
X1940000Y2004000*
X1936000Y2000000*
X1940000Y1996000*
Y2000000D02*
Y2004000D01*
Y2006000D02*
X1944000Y2010000D01*
X1940000Y2014000*
X1936000Y2010000*
X1940000Y2006000*
Y2010000D02*
Y2014000D01*
Y2016000D02*
X1944000Y2020000D01*
X1940000Y2024000*
X1936000Y2020000*
X1940000Y2016000*
Y2020000D02*
Y2024000D01*
Y2026000D02*
X1944000Y2030000D01*
X1940000Y2034000*
X1936000Y2030000*
X1940000Y2026000*
Y2030000D02*
Y2034000D01*
Y2036000D02*
X1944000Y2040000D01*
X1940000Y2044000*
X1936000Y2040000*
X1940000Y2036000*
Y2040000D02*
Y2044000D01*
Y2046000D02*
X1944000Y2050000D01*
X1940000Y2054000*
X1936000Y2050000*
X1940000Y2046000*
Y2050000D02*
Y2054000D01*
Y2056000D02*
X1944000Y2060000D01*
X1940000Y2064000*
X1936000Y2060000*
X1940000Y2056000*
Y2060000D02*
Y2064000D01*
Y2066000D02*
X1944000Y2070000D01*
X1940000Y2074000*
X1936000Y2070000*
X1940000Y2066000*
Y2070000D02*
Y2074000D01*
X1920000Y1976000D02*
X1924000Y1980000D01*
X1920000Y1984000*
X1916000Y1980000*
X1920000Y1976000*
Y1980000D02*
Y1984000D01*
Y1986000D02*
X1924000Y1990000D01*
X1920000Y1994000*
X1916000Y1990000*
X1920000Y1986000*
Y1990000D02*
Y1994000D01*
Y1996000D02*
X1924000Y2000000D01*
X1920000Y2004000*
X1916000Y2000000*
X1920000Y1996000*
Y2000000D02*
Y2004000D01*
Y2006000D02*
X1924000Y2010000D01*
X1920000Y2014000*
X1916000Y2010000*
X1920000Y2006000*
Y2010000D02*
Y2014000D01*
Y2016000D02*
X1924000Y2020000D01*
X1920000Y2024000*
X1916000Y2020000*
X1920000Y2016000*
Y2020000D02*
Y2024000D01*
Y2026000D02*
X1924000Y2030000D01*
X1920000Y2034000*
X1916000Y2030000*
X1920000Y2026000*
Y2030000D02*
Y2034000D01*
Y2036000D02*
X1924000Y2040000D01*
X1920000Y2044000*
X1916000Y2040000*
X1920000Y2036000*
Y2040000D02*
Y2044000D01*
Y2046000D02*
X1924000Y2050000D01*
X1920000Y2054000*
X1916000Y2050000*
X1920000Y2046000*
Y2050000D02*
Y2054000D01*
Y2056000D02*
X1924000Y2060000D01*
X1920000Y2064000*
X1916000Y2060000*
X1920000Y2056000*
Y2060000D02*
Y2064000D01*
Y2066000D02*
X1924000Y2070000D01*
X1920000Y2074000*
X1916000Y2070000*
X1920000Y2066000*
Y2070000D02*
Y2074000D01*
X1906000Y1936000D02*
X1914000D01*
Y1944000*
X1906000*
Y1936000*
X1910000Y1940000D02*
Y1944000D01*
X1916000Y1936000D02*
X1924000D01*
Y1944000*
X1916000*
Y1936000*
X1920000Y1940000D02*
Y1944000D01*
X1906000Y1926000D02*
X1914000D01*
Y1934000*
X1906000*
Y1926000*
X1910000Y1930000D02*
Y1934000D01*
X1916000Y1926000D02*
X1924000D01*
Y1934000*
X1916000*
Y1926000*
X1920000Y1930000D02*
Y1934000D01*
X1906000Y1916000D02*
X1914000D01*
Y1924000*
X1906000*
Y1916000*
X1910000Y1920000D02*
Y1924000D01*
X1916000Y1916000D02*
X1924000D01*
Y1924000*
X1916000*
Y1916000*
X1920000Y1920000D02*
Y1924000D01*
X1906000Y1906000D02*
X1914000D01*
Y1914000*
X1906000*
Y1906000*
X1910000Y1910000D02*
Y1914000D01*
X1916000Y1906000D02*
X1924000D01*
Y1914000*
X1916000*
Y1906000*
X1920000Y1910000D02*
Y1914000D01*
X1906000Y1896000D02*
X1914000D01*
Y1904000*
X1906000*
Y1896000*
X1910000Y1900000D02*
Y1904000D01*
X1916000Y1896000D02*
X1924000D01*
Y1904000*
X1916000*
Y1896000*
X1920000Y1900000D02*
Y1904000D01*
X1887600Y2157300D02*
X1895600D01*
X1887600Y2165300*
X1895600*
X1887600Y2157300*
Y2217500D02*
X1895600D01*
X1887600Y2225500*
X1895600*
X1887600Y2217500*
X1853500Y1821000D02*
X1861500Y1829000D01*
Y1821000*
X1853500Y1829000*
Y1821000*
X2030000Y1821200D02*
X2038000Y1829200D01*
Y1821200*
X2030000Y1829200*
Y1821200*
X2027200Y2217800D02*
X2035200Y2225800D01*
Y2217800*
X2027200Y2225800*
Y2217800*
X1853300Y2217700D02*
X1861300Y2225700D01*
Y2217700*
X1853300Y2225700*
Y2217700*
X1910400Y1816500D02*
X1918400D01*
X1914400Y1812500D02*
Y1820500D01*
X1917309Y1821781D02*
X1916400Y1818500D01*
X1917309Y1821781D02*
X1918218Y1818500D01*
X1916741Y1819594D02*
X1917877D01*
X1945300Y1814400D02*
X1953300D01*
X1949300Y1810400D02*
Y1818400D01*
X1952209Y1819681D02*
X1951300Y1816400D01*
X1952209Y1819681D02*
X1953118Y1816400D01*
X1951641Y1817494D02*
X1952777D01*
X1876000Y1825000D02*
X1884000D01*
X1880000Y1821000D02*
Y1829000D01*
X1882909Y1830281D02*
X1882000Y1827000D01*
X1882909Y1830281D02*
X1883818Y1827000D01*
X1882341Y1828094D02*
X1883477D01*
X1866000Y1844800D02*
X1874000D01*
X1870000Y1840800D02*
Y1848800D01*
X1872909Y1850081D02*
X1872000Y1846800D01*
X1872909Y1850081D02*
X1873818Y1846800D01*
X1872341Y1847894D02*
X1873477D01*
X1941700Y1857600D02*
X1949700D01*
X1945700Y1853600D02*
Y1861600D01*
X1948609Y1862881D02*
X1947700Y1859600D01*
X1948609Y1862881D02*
X1949518Y1859600D01*
X1948041Y1860694D02*
X1949177D01*
X2003500Y1852400D02*
X2011500D01*
X2007500Y1848400D02*
Y1856400D01*
X2010409Y1857681D02*
X2009500Y1854400D01*
X2010409Y1857681D02*
X2011318Y1854400D01*
X2009841Y1855494D02*
X2010977D01*
X2011000Y1842500D02*
X2019000D01*
X2015000Y1838500D02*
Y1846500D01*
X2017909Y1847781D02*
X2017000Y1844500D01*
X2017909Y1847781D02*
X2018818Y1844500D01*
X2017341Y1845594D02*
X2018477D01*
X1876000Y1880000D02*
X1884000D01*
X1880000Y1876000D02*
Y1884000D01*
X1882909Y1885281D02*
X1882000Y1882000D01*
X1882909Y1885281D02*
X1883818Y1882000D01*
X1882341Y1883094D02*
X1883477D01*
X1856000Y1860000D02*
X1864000D01*
X1860000Y1856000D02*
Y1864000D01*
X1862909Y1865281D02*
X1862000Y1862000D01*
X1862909Y1865281D02*
X1863818Y1862000D01*
X1862341Y1863094D02*
X1863477D01*
X1922100Y1862400D02*
X1930100D01*
X1926100Y1858400D02*
Y1866400D01*
X1929009Y1867681D02*
X1928100Y1864400D01*
X1929009Y1867681D02*
X1929918Y1864400D01*
X1928441Y1865494D02*
X1929577D01*
X1924500Y1867600D02*
X1932500D01*
X1928500Y1863600D02*
Y1871600D01*
X1931409Y1872881D02*
X1930500Y1869600D01*
X1931409Y1872881D02*
X1932318Y1869600D01*
X1930841Y1870694D02*
X1931977D01*
X1973500Y1895000D02*
X1981500D01*
X1977500Y1891000D02*
Y1899000D01*
X1980409Y1900281D02*
X1979500Y1897000D01*
X1980409Y1900281D02*
X1981318Y1897000D01*
X1979841Y1898094D02*
X1980977D01*
X1981000Y1915000D02*
X1989000D01*
X1985000Y1911000D02*
Y1919000D01*
X1987909Y1920281D02*
X1987000Y1917000D01*
X1987909Y1920281D02*
X1988818Y1917000D01*
X1987341Y1918094D02*
X1988477D01*
X1988500Y1925000D02*
X1996500D01*
X1992500Y1921000D02*
Y1929000D01*
X1995409Y1930281D02*
X1994500Y1927000D01*
X1995409Y1930281D02*
X1996318Y1927000D01*
X1994841Y1928094D02*
X1995977D01*
X1983500Y1935000D02*
X1991500D01*
X1987500Y1931000D02*
Y1939000D01*
X1990409Y1940281D02*
X1989500Y1937000D01*
X1990409Y1940281D02*
X1991318Y1937000D01*
X1989841Y1938094D02*
X1990977D01*
X1876000Y1940000D02*
X1884000D01*
X1880000Y1936000D02*
Y1944000D01*
X1882909Y1945281D02*
X1882000Y1942000D01*
X1882909Y1945281D02*
X1883818Y1942000D01*
X1882341Y1943094D02*
X1883477D01*
X1876000Y1960000D02*
X1884000D01*
X1880000Y1956000D02*
Y1964000D01*
X1882909Y1965281D02*
X1882000Y1962000D01*
X1882909Y1965281D02*
X1883818Y1962000D01*
X1882341Y1963094D02*
X1883477D01*
X1876000Y2010000D02*
X1884000D01*
X1880000Y2006000D02*
Y2014000D01*
X1882909Y2015281D02*
X1882000Y2012000D01*
X1882909Y2015281D02*
X1883818Y2012000D01*
X1882341Y2013094D02*
X1883477D01*
X1876000Y1990000D02*
X1884000D01*
X1880000Y1986000D02*
Y1994000D01*
X1882909Y1995281D02*
X1882000Y1992000D01*
X1882909Y1995281D02*
X1883818Y1992000D01*
X1882341Y1993094D02*
X1883477D01*
X1856000Y2017500D02*
X1864000D01*
X1860000Y2013500D02*
Y2021500D01*
X1862909Y2022781D02*
X1862000Y2019500D01*
X1862909Y2022781D02*
X1863818Y2019500D01*
X1862341Y2020594D02*
X1863477D01*
X1901000Y1987500D02*
X1909000D01*
X1905000Y1983500D02*
Y1991500D01*
X1907909Y1992781D02*
X1907000Y1989500D01*
X1907909Y1992781D02*
X1908818Y1989500D01*
X1907341Y1990594D02*
X1908477D01*
X1896000Y2010000D02*
X1904000D01*
X1900000Y2006000D02*
Y2014000D01*
X1902909Y2015281D02*
X1902000Y2012000D01*
X1902909Y2015281D02*
X1903818Y2012000D01*
X1902341Y2013094D02*
X1903477D01*
X1923500Y1995000D02*
X1931500D01*
X1927500Y1991000D02*
Y1999000D01*
X1930409Y2000281D02*
X1929500Y1997000D01*
X1930409Y2000281D02*
X1931318Y1997000D01*
X1929841Y1998094D02*
X1930977D01*
X1948500Y2018000D02*
X1956500D01*
X1952500Y2014000D02*
Y2022000D01*
X1955409Y2023281D02*
X1954500Y2020000D01*
X1955409Y2023281D02*
X1956318Y2020000D01*
X1954841Y2021094D02*
X1955977D01*
X1961000Y1985000D02*
X1969000D01*
X1965000Y1981000D02*
Y1989000D01*
X1967909Y1990281D02*
X1967000Y1987000D01*
X1967909Y1990281D02*
X1968818Y1987000D01*
X1967341Y1988094D02*
X1968477D01*
X1961000Y1995000D02*
X1969000D01*
X1965000Y1991000D02*
Y1999000D01*
X1967909Y2000281D02*
X1967000Y1997000D01*
X1967909Y2000281D02*
X1968818Y1997000D01*
X1967341Y1998094D02*
X1968477D01*
X1896000Y2050000D02*
X1904000D01*
X1900000Y2046000D02*
Y2054000D01*
X1902909Y2055281D02*
X1902000Y2052000D01*
X1902909Y2055281D02*
X1903818Y2052000D01*
X1902341Y2053094D02*
X1903477D01*
X1891000Y2092500D02*
X1899000D01*
X1895000Y2088500D02*
Y2096500D01*
X1897909Y2097781D02*
X1897000Y2094500D01*
X1897909Y2097781D02*
X1898818Y2094500D01*
X1897341Y2095594D02*
X1898477D01*
X1891000Y2085000D02*
X1899000D01*
X1895000Y2081000D02*
Y2089000D01*
X1897909Y2090281D02*
X1897000Y2087000D01*
X1897909Y2090281D02*
X1898818Y2087000D01*
X1897341Y2088094D02*
X1898477D01*
X1871000Y2065000D02*
X1879000D01*
X1875000Y2061000D02*
Y2069000D01*
X1877909Y2070281D02*
X1877000Y2067000D01*
X1877909Y2070281D02*
X1878818Y2067000D01*
X1877341Y2068094D02*
X1878477D01*
X1916000Y2077500D02*
X1924000D01*
X1920000Y2073500D02*
Y2081500D01*
X1922909Y2082781D02*
X1922000Y2079500D01*
X1922909Y2082781D02*
X1923818Y2079500D01*
X1922341Y2080594D02*
X1923477D01*
X1896000Y2080000D02*
X1904000D01*
X1900000Y2076000D02*
Y2084000D01*
X1902909Y2085281D02*
X1902000Y2082000D01*
X1902909Y2085281D02*
X1903818Y2082000D01*
X1902341Y2083094D02*
X1903477D01*
X1966000Y2090000D02*
X1974000D01*
X1970000Y2086000D02*
Y2094000D01*
X1972909Y2095281D02*
X1972000Y2092000D01*
X1972909Y2095281D02*
X1973818Y2092000D01*
X1972341Y2093094D02*
X1973477D01*
X1893500Y2110000D02*
X1901500D01*
X1897500Y2106000D02*
Y2114000D01*
X1900409Y2115281D02*
X1899500Y2112000D01*
X1900409Y2115281D02*
X1901318Y2112000D01*
X1899841Y2113094D02*
X1900977D01*
X1876000Y2130000D02*
X1884000D01*
X1880000Y2126000D02*
Y2134000D01*
X1882909Y2135281D02*
X1882000Y2132000D01*
X1882909Y2135281D02*
X1883818Y2132000D01*
X1882341Y2133094D02*
X1883477D01*
X1916000Y2127500D02*
X1924000D01*
X1920000Y2123500D02*
Y2131500D01*
X1922909Y2132781D02*
X1922000Y2129500D01*
X1922909Y2132781D02*
X1923818Y2129500D01*
X1922341Y2130594D02*
X1923477D01*
X1896000Y2127500D02*
X1904000D01*
X1900000Y2123500D02*
Y2131500D01*
X1902909Y2132781D02*
X1902000Y2129500D01*
X1902909Y2132781D02*
X1903818Y2129500D01*
X1902341Y2130594D02*
X1903477D01*
X1956000Y2130000D02*
X1964000D01*
X1960000Y2126000D02*
Y2134000D01*
X1962909Y2135281D02*
X1962000Y2132000D01*
X1962909Y2135281D02*
X1963818Y2132000D01*
X1962341Y2133094D02*
X1963477D01*
X1966000Y2127500D02*
X1974000D01*
X1970000Y2123500D02*
Y2131500D01*
X1972909Y2132781D02*
X1972000Y2129500D01*
X1972909Y2132781D02*
X1973818Y2129500D01*
X1972341Y2130594D02*
X1973477D01*
X1966000Y2107500D02*
X1974000D01*
X1970000Y2103500D02*
Y2111500D01*
X1972909Y2112781D02*
X1972000Y2109500D01*
X1972909Y2112781D02*
X1973818Y2109500D01*
X1972341Y2110594D02*
X1973477D01*
X1936000Y2130000D02*
X1944000D01*
X1940000Y2126000D02*
Y2134000D01*
X1942909Y2135281D02*
X1942000Y2132000D01*
X1942909Y2135281D02*
X1943818Y2132000D01*
X1942341Y2133094D02*
X1943477D01*
X1938500Y2105000D02*
X1946500D01*
X1942500Y2101000D02*
Y2109000D01*
X1945409Y2110281D02*
X1944500Y2107000D01*
X1945409Y2110281D02*
X1946318Y2107000D01*
X1944841Y2108094D02*
X1945977D01*
X1840000Y2240000D02*
X2050000D01*
Y1805000*
X1840000*
Y2240000*
X200000Y292000D02*
X458000D01*
X200000Y268000D02*
X458000D01*
X200000Y244000D02*
X458000D01*
X200000Y220000D02*
X458000D01*
X200000Y196000D02*
X458000D01*
X200000Y172000D02*
X458000D01*
X200000Y148000D02*
X458000D01*
X200000Y124000D02*
X458000D01*
X200000Y100000D02*
X458000D01*
X200000Y292000D02*
Y100000D01*
X284000Y292000D02*
Y100000D01*
X320000Y292000D02*
Y100000D01*
X356000Y292000D02*
Y100000D01*
X410000Y292000D02*
Y100000D01*
X458000Y292000D02*
Y100000D01*
X235500Y280750D02*
X234955Y281500D01*
X234136Y281875*
X233045*
X232227Y281500*
X231682Y280750*
Y280000*
X231955Y279250*
X232227Y278875*
X232773Y278500*
X234409Y277750*
X234955Y277375*
X235227Y277000*
X235500Y276250*
Y275125*
X234955Y274375*
X234136Y274000*
X233045*
X232227Y274375*
X231682Y275125*
X237955Y281875D02*
Y274000D01*
X244227Y281875D02*
X240409Y274000D01*
Y281875D02*
X244227D01*
X240409Y274000D02*
X244227D01*
X246682Y281875D02*
Y274000D01*
Y281875D02*
X250227D01*
X246682Y278125D02*
X248864D01*
X246682Y274000D02*
X250227D01*
X293864Y281875D02*
X293318Y281500D01*
X292773Y280750*
X292500Y280000*
X292227Y278875*
Y277000*
X292500Y275875*
X292773Y275125*
X293318Y274375*
X293864Y274000*
X294955*
X295500Y274375*
X296045Y275125*
X296318Y275875*
X296591Y277000*
Y278875*
X296318Y280000*
X296045Y280750*
X295500Y281500*
X294955Y281875*
X293864*
X294682Y275500D02*
X296318Y273250D01*
X300955Y281875D02*
Y274000D01*
X299045Y281875D02*
X302864D01*
X305318D02*
X307500Y278125D01*
Y274000*
X309682Y281875D02*
X307500Y278125D01*
X332045Y280750D02*
X331500Y281500D01*
X330682Y281875*
X329591*
X328773Y281500*
X328227Y280750*
Y280000*
X328500Y279250*
X328773Y278875*
X329318Y278500*
X330955Y277750*
X331500Y277375*
X331773Y277000*
X332045Y276250*
Y275125*
X331500Y274375*
X330682Y274000*
X329591*
X328773Y274375*
X328227Y275125*
X334500Y281875D02*
X336682Y278125D01*
Y274000*
X338864Y281875D02*
X336682Y278125D01*
X341318Y281875D02*
Y274000D01*
Y281875D02*
X343500Y274000D01*
X345682Y281875D02*
X343500Y274000D01*
X345682Y281875D02*
Y274000D01*
X367500Y281875D02*
Y274000D01*
Y281875D02*
X369955D01*
X370773Y281500*
X371045Y281125*
X371318Y280375*
Y279250*
X371045Y278500*
X370773Y278125*
X369955Y277750*
X367500*
X373773Y281875D02*
Y274000D01*
X377045*
X381682Y281875D02*
X379500Y274000D01*
X381682Y281875D02*
X383864Y274000D01*
X380318Y276625D02*
X383045D01*
X388227Y281875D02*
Y274000D01*
X386318Y281875D02*
X390136D01*
X392591D02*
Y274000D01*
Y281875D02*
X396136D01*
X392591Y278125D02*
X394773D01*
X392591Y274000D02*
X396136D01*
X398591Y281875D02*
Y274000D01*
Y281875D02*
X400500D01*
X401318Y281500*
X401864Y280750*
X402136Y280000*
X402409Y278875*
Y277000*
X402136Y275875*
X401864Y275125*
X401318Y274375*
X400500Y274000*
X398591*
X426682Y281875D02*
Y274000D01*
X424773Y281875D02*
X428591D01*
X432682D02*
X432136Y281500D01*
X431591Y280750*
X431318Y280000*
X431045Y278875*
Y277000*
X431318Y275875*
X431591Y275125*
X432136Y274375*
X432682Y274000*
X433773*
X434318Y274375*
X434864Y275125*
X435136Y275875*
X435409Y277000*
Y278875*
X435136Y280000*
X434864Y280750*
X434318Y281500*
X433773Y281875*
X432682*
X437864D02*
Y274000D01*
X441136*
X206273Y256000D02*
Y256375D01*
X206545Y257125*
X206818Y257500*
X207364Y257875*
X208455*
X209000Y257500*
X209273Y257125*
X209545Y256375*
Y255625*
X209273Y254875*
X208727Y253750*
X206000Y250000*
X209818*
X215000Y257875D02*
X212273Y252625D01*
X216364*
X215000Y257875D02*
Y250000D01*
X296591Y257875D02*
X299591D01*
X297955Y254875*
X298773*
X299318Y254500*
X299591Y254125*
X299864Y253000*
Y252250*
X299591Y251125*
X299045Y250375*
X298227Y250000*
X297409*
X296591Y250375*
X296318Y250750*
X296045Y251500*
X305591Y256750D02*
X305318Y257500D01*
X304500Y257875*
X303955*
X303136Y257500*
X302591Y256375*
X302318Y254500*
Y252625*
X302591Y251125*
X303136Y250375*
X303955Y250000*
X304227*
X305045Y250375*
X305591Y251125*
X305864Y252250*
Y252625*
X305591Y253750*
X305045Y254500*
X304227Y254875*
X303955*
X303136Y254500*
X302591Y253750*
X302318Y252625*
X332000Y256000D02*
X344000D01*
X338000Y250000D02*
Y262000D01*
X364636Y257875D02*
X366818Y254125D01*
Y250000*
X369000Y257875D02*
X366818Y254125D01*
X371455Y257875D02*
Y250000D01*
Y257875D02*
X375000D01*
X371455Y254125D02*
X373636D01*
X371455Y250000D02*
X375000D01*
X381273Y256750D02*
X380727Y257500D01*
X379909Y257875*
X378818*
X378000Y257500*
X377455Y256750*
Y256000*
X377727Y255250*
X378000Y254875*
X378545Y254500*
X380182Y253750*
X380727Y253375*
X381000Y253000*
X381273Y252250*
Y251125*
X380727Y250375*
X379909Y250000*
X378818*
X378000Y250375*
X377455Y251125*
X417818Y256750D02*
Y250000D01*
X415364Y253375D02*
X420273D01*
X427636Y259375D02*
X422727Y247375D01*
X430091Y253375D02*
X435000D01*
X439091Y257875D02*
X438273Y257500D01*
X437727Y256375*
X437455Y254500*
Y253375*
X437727Y251500*
X438273Y250375*
X439091Y250000*
X439636*
X440455Y250375*
X441000Y251500*
X441273Y253375*
Y254500*
X441000Y256375*
X440455Y257500*
X439636Y257875*
X439091*
X444000Y250750D02*
X443727Y250375D01*
X444000Y250000*
X444273Y250375*
X444000Y250750*
X448364Y257875D02*
X447545Y257500D01*
X447000Y256375*
X446727Y254500*
Y253375*
X447000Y251500*
X447545Y250375*
X448364Y250000*
X448909*
X449727Y250375*
X450273Y251500*
X450545Y253375*
Y254500*
X450273Y256375*
X449727Y257500*
X448909Y257875*
X448364*
X207364Y233875D02*
X206545Y233500D01*
X206273Y232750*
Y232000*
X206545Y231250*
X207091Y230875*
X208182Y230500*
X209000Y230125*
X209545Y229375*
X209818Y228625*
Y227500*
X209545Y226750*
X209273Y226375*
X208455Y226000*
X207364*
X206545Y226375*
X206273Y226750*
X206000Y227500*
Y228625*
X206273Y229375*
X206818Y230125*
X207636Y230500*
X208727Y230875*
X209273Y231250*
X209545Y232000*
Y232750*
X209273Y233500*
X208455Y233875*
X207364*
X213909D02*
X213091Y233500D01*
X212545Y232375*
X212273Y230500*
Y229375*
X212545Y227500*
X213091Y226375*
X213909Y226000*
X214455*
X215273Y226375*
X215818Y227500*
X216091Y229375*
Y230500*
X215818Y232375*
X215273Y233500*
X214455Y233875*
X213909*
X299318Y232000D02*
Y232375D01*
X299591Y233125*
X299864Y233500*
X300409Y233875*
X301500*
X302045Y233500*
X302318Y233125*
X302591Y232375*
Y231625*
X302318Y230875*
X301773Y229750*
X299045Y226000*
X302864*
X332000D02*
X344000Y238000D01*
X332000D02*
X344000Y226000D01*
X364636Y233875D02*
X366818Y230125D01*
Y226000*
X369000Y233875D02*
X366818Y230125D01*
X371455Y233875D02*
Y226000D01*
Y233875D02*
X375000D01*
X371455Y230125D02*
X373636D01*
X371455Y226000D02*
X375000D01*
X381273Y232750D02*
X380727Y233500D01*
X379909Y233875*
X378818*
X378000Y233500*
X377455Y232750*
Y232000*
X377727Y231250*
X378000Y230875*
X378545Y230500*
X380182Y229750*
X380727Y229375*
X381000Y229000*
X381273Y228250*
Y227125*
X380727Y226375*
X379909Y226000*
X378818*
X378000Y226375*
X377455Y227125*
X417818Y232750D02*
Y226000D01*
X415364Y229375D02*
X420273D01*
X427636Y235375D02*
X422727Y223375D01*
X430091Y229375D02*
X435000D01*
X439091Y233875D02*
X438273Y233500D01*
X437727Y232375*
X437455Y230500*
Y229375*
X437727Y227500*
X438273Y226375*
X439091Y226000*
X439636*
X440455Y226375*
X441000Y227500*
X441273Y229375*
Y230500*
X441000Y232375*
X440455Y233500*
X439636Y233875*
X439091*
X444000Y226750D02*
X443727Y226375D01*
X444000Y226000*
X444273Y226375*
X444000Y226750*
X448364Y233875D02*
X447545Y233500D01*
X447000Y232375*
X446727Y230500*
Y229375*
X447000Y227500*
X447545Y226375*
X448364Y226000*
X448909*
X449727Y226375*
X450273Y227500*
X450545Y229375*
Y230500*
X450273Y232375*
X449727Y233500*
X448909Y233875*
X448364*
X206545Y209875D02*
X209545D01*
X207909Y206875*
X208727*
X209273Y206500*
X209545Y206125*
X209818Y205000*
Y204250*
X209545Y203125*
X209000Y202375*
X208182Y202000*
X207364*
X206545Y202375*
X206273Y202750*
X206000Y203500*
X216091Y209875D02*
X213364Y202000D01*
X212273Y209875D02*
X216091D01*
X296182Y208000D02*
Y208375D01*
X296455Y209125*
X296727Y209500*
X297273Y209875*
X298364*
X298909Y209500*
X299182Y209125*
X299455Y208375*
Y207625*
X299182Y206875*
X298636Y205750*
X295909Y202000*
X299727*
X303818Y209875D02*
X303000Y209500D01*
X302455Y208375*
X302182Y206500*
Y205375*
X302455Y203500*
X303000Y202375*
X303818Y202000*
X304364*
X305182Y202375*
X305727Y203500*
X306000Y205375*
Y206500*
X305727Y208375*
X305182Y209500*
X304364Y209875*
X303818*
X332000Y202000D02*
X344000D01*
Y214000*
X332000*
Y202000*
X338000Y208000D02*
Y214000D01*
X364636Y209875D02*
X366818Y206125D01*
Y202000*
X369000Y209875D02*
X366818Y206125D01*
X371455Y209875D02*
Y202000D01*
Y209875D02*
X375000D01*
X371455Y206125D02*
X373636D01*
X371455Y202000D02*
X375000D01*
X381273Y208750D02*
X380727Y209500D01*
X379909Y209875*
X378818*
X378000Y209500*
X377455Y208750*
Y208000*
X377727Y207250*
X378000Y206875*
X378545Y206500*
X380182Y205750*
X380727Y205375*
X381000Y205000*
X381273Y204250*
Y203125*
X380727Y202375*
X379909Y202000*
X378818*
X378000Y202375*
X377455Y203125*
X417818Y208750D02*
Y202000D01*
X415364Y205375D02*
X420273D01*
X427636Y211375D02*
X422727Y199375D01*
X430091Y205375D02*
X435000D01*
X439091Y209875D02*
X438273Y209500D01*
X437727Y208375*
X437455Y206500*
Y205375*
X437727Y203500*
X438273Y202375*
X439091Y202000*
X439636*
X440455Y202375*
X441000Y203500*
X441273Y205375*
Y206500*
X441000Y208375*
X440455Y209500*
X439636Y209875*
X439091*
X444000Y202750D02*
X443727Y202375D01*
X444000Y202000*
X444273Y202375*
X444000Y202750*
X448364Y209875D02*
X447545Y209500D01*
X447000Y208375*
X446727Y206500*
Y205375*
X447000Y203500*
X447545Y202375*
X448364Y202000*
X448909*
X449727Y202375*
X450273Y203500*
X450545Y205375*
Y206500*
X450273Y208375*
X449727Y209500*
X448909Y209875*
X448364*
X206545Y185875D02*
X209545D01*
X207909Y182875*
X208727*
X209273Y182500*
X209545Y182125*
X209818Y181000*
Y180250*
X209545Y179125*
X209000Y178375*
X208182Y178000*
X207364*
X206545Y178375*
X206273Y178750*
X206000Y179500*
X215818Y185875D02*
X213091D01*
X212818Y182500*
X213091Y182875*
X213909Y183250*
X214727*
X215545Y182875*
X216091Y182125*
X216364Y181000*
X216091Y180250*
X215818Y179125*
X215273Y178375*
X214455Y178000*
X213636*
X212818Y178375*
X212545Y178750*
X212273Y179500*
X298500Y185875D02*
X295773Y180625D01*
X299864*
X298500Y185875D02*
Y178000D01*
X303955Y185875D02*
X303136Y185500D01*
X302591Y184375*
X302318Y182500*
Y181375*
X302591Y179500*
X303136Y178375*
X303955Y178000*
X304500*
X305318Y178375*
X305864Y179500*
X306136Y181375*
Y182500*
X305864Y184375*
X305318Y185500*
X304500Y185875*
X303955*
X338000Y178000D02*
X344000Y184000D01*
X338000Y190000*
X332000Y184000*
X338000Y178000*
Y184000D02*
Y190000D01*
X364636Y185875D02*
X366818Y182125D01*
Y178000*
X369000Y185875D02*
X366818Y182125D01*
X371455Y185875D02*
Y178000D01*
Y185875D02*
X375000D01*
X371455Y182125D02*
X373636D01*
X371455Y178000D02*
X375000D01*
X381273Y184750D02*
X380727Y185500D01*
X379909Y185875*
X378818*
X378000Y185500*
X377455Y184750*
Y184000*
X377727Y183250*
X378000Y182875*
X378545Y182500*
X380182Y181750*
X380727Y181375*
X381000Y181000*
X381273Y180250*
Y179125*
X380727Y178375*
X379909Y178000*
X378818*
X378000Y178375*
X377455Y179125*
X417818Y184750D02*
Y178000D01*
X415364Y181375D02*
X420273D01*
X427636Y187375D02*
X422727Y175375D01*
X430091Y181375D02*
X435000D01*
X439091Y185875D02*
X438273Y185500D01*
X437727Y184375*
X437455Y182500*
Y181375*
X437727Y179500*
X438273Y178375*
X439091Y178000*
X439636*
X440455Y178375*
X441000Y179500*
X441273Y181375*
Y182500*
X441000Y184375*
X440455Y185500*
X439636Y185875*
X439091*
X444000Y178750D02*
X443727Y178375D01*
X444000Y178000*
X444273Y178375*
X444000Y178750*
X448364Y185875D02*
X447545Y185500D01*
X447000Y184375*
X446727Y182500*
Y181375*
X447000Y179500*
X447545Y178375*
X448364Y178000*
X448909*
X449727Y178375*
X450273Y179500*
X450545Y181375*
Y182500*
X450273Y184375*
X449727Y185500*
X448909Y185875*
X448364*
X209818Y161875D02*
X207091Y154000D01*
X206000Y161875D02*
X209818D01*
X215545Y160750D02*
X215273Y161500D01*
X214455Y161875*
X213909*
X213091Y161500*
X212545Y160375*
X212273Y158500*
Y156625*
X212545Y155125*
X213091Y154375*
X213909Y154000*
X214182*
X215000Y154375*
X215545Y155125*
X215818Y156250*
Y156625*
X215545Y157750*
X215000Y158500*
X214182Y158875*
X213909*
X213091Y158500*
X212545Y157750*
X212273Y156625*
X301636Y161875D02*
X298909Y156625D01*
X303000*
X301636Y161875D02*
Y154000D01*
X332000D02*
X344000D01*
X332000Y166000*
X344000*
X332000Y154000*
X364636Y161875D02*
X366818Y158125D01*
Y154000*
X369000Y161875D02*
X366818Y158125D01*
X371455Y161875D02*
Y154000D01*
Y161875D02*
X375000D01*
X371455Y158125D02*
X373636D01*
X371455Y154000D02*
X375000D01*
X381273Y160750D02*
X380727Y161500D01*
X379909Y161875*
X378818*
X378000Y161500*
X377455Y160750*
Y160000*
X377727Y159250*
X378000Y158875*
X378545Y158500*
X380182Y157750*
X380727Y157375*
X381000Y157000*
X381273Y156250*
Y155125*
X380727Y154375*
X379909Y154000*
X378818*
X378000Y154375*
X377455Y155125*
X417818Y160750D02*
Y154000D01*
X415364Y157375D02*
X420273D01*
X427636Y163375D02*
X422727Y151375D01*
X430091Y157375D02*
X435000D01*
X439091Y161875D02*
X438273Y161500D01*
X437727Y160375*
X437455Y158500*
Y157375*
X437727Y155500*
X438273Y154375*
X439091Y154000*
X439636*
X440455Y154375*
X441000Y155500*
X441273Y157375*
Y158500*
X441000Y160375*
X440455Y161500*
X439636Y161875*
X439091*
X444000Y154750D02*
X443727Y154375D01*
X444000Y154000*
X444273Y154375*
X444000Y154750*
X448364Y161875D02*
X447545Y161500D01*
X447000Y160375*
X446727Y158500*
Y157375*
X447000Y155500*
X447545Y154375*
X448364Y154000*
X448909*
X449727Y154375*
X450273Y155500*
X450545Y157375*
Y158500*
X450273Y160375*
X449727Y161500*
X448909Y161875*
X448364*
X206000Y136375D02*
X206545Y136750D01*
X207364Y137875*
Y130000*
X213091Y136750D02*
X212818Y137500D01*
X212000Y137875*
X211455*
X210636Y137500*
X210091Y136375*
X209818Y134500*
Y132625*
X210091Y131125*
X210636Y130375*
X211455Y130000*
X211727*
X212545Y130375*
X213091Y131125*
X213364Y132250*
Y132625*
X213091Y133750*
X212545Y134500*
X211727Y134875*
X211455*
X210636Y134500*
X210091Y133750*
X209818Y132625*
X219364Y137875D02*
X216636D01*
X216364Y134500*
X216636Y134875*
X217455Y135250*
X218273*
X219091Y134875*
X219636Y134125*
X219909Y133000*
X219636Y132250*
X219364Y131125*
X218818Y130375*
X218000Y130000*
X217182*
X216364Y130375*
X216091Y130750*
X215818Y131500*
X301636Y137875D02*
X298909Y132625D01*
X303000*
X301636Y137875D02*
Y130000D01*
X332000D02*
X344000Y142000D01*
Y130000*
X332000Y142000*
Y130000*
X364636Y137875D02*
X366818Y134125D01*
Y130000*
X369000Y137875D02*
X366818Y134125D01*
X371455Y137875D02*
Y130000D01*
Y137875D02*
X375000D01*
X371455Y134125D02*
X373636D01*
X371455Y130000D02*
X375000D01*
X381273Y136750D02*
X380727Y137500D01*
X379909Y137875*
X378818*
X378000Y137500*
X377455Y136750*
Y136000*
X377727Y135250*
X378000Y134875*
X378545Y134500*
X380182Y133750*
X380727Y133375*
X381000Y133000*
X381273Y132250*
Y131125*
X380727Y130375*
X379909Y130000*
X378818*
X378000Y130375*
X377455Y131125*
X417818Y136750D02*
Y130000D01*
X415364Y133375D02*
X420273D01*
X427636Y139375D02*
X422727Y127375D01*
X430091Y133375D02*
X435000D01*
X439091Y137875D02*
X438273Y137500D01*
X437727Y136375*
X437455Y134500*
Y133375*
X437727Y131500*
X438273Y130375*
X439091Y130000*
X439636*
X440455Y130375*
X441000Y131500*
X441273Y133375*
Y134500*
X441000Y136375*
X440455Y137500*
X439636Y137875*
X439091*
X444000Y130750D02*
X443727Y130375D01*
X444000Y130000*
X444273Y130375*
X444000Y130750*
X448364Y137875D02*
X447545Y137500D01*
X447000Y136375*
X446727Y134500*
Y133375*
X447000Y131500*
X447545Y130375*
X448364Y130000*
X448909*
X449727Y130375*
X450273Y131500*
X450545Y133375*
Y134500*
X450273Y136375*
X449727Y137500*
X448909Y137875*
X448364*
X206000Y112375D02*
X206545Y112750D01*
X207364Y113875*
Y106000*
X213364Y113875D02*
X210636D01*
X210364Y110500*
X210636Y110875*
X211455Y111250*
X212273*
X213091Y110875*
X213636Y110125*
X213909Y109000*
X213636Y108250*
X213364Y107125*
X212818Y106375*
X212000Y106000*
X211182*
X210364Y106375*
X210091Y106750*
X209818Y107500*
X298500Y113875D02*
X295773Y108625D01*
X299864*
X298500Y113875D02*
Y106000D01*
X302591Y112000D02*
Y112375D01*
X302864Y113125*
X303136Y113500*
X303682Y113875*
X304773*
X305318Y113500*
X305591Y113125*
X305864Y112375*
Y111625*
X305591Y110875*
X305045Y109750*
X302318Y106000*
X306136*
X332000Y112000D02*
X344000D01*
X338000Y106000D02*
Y118000D01*
X342745Y121300D02*
X341000Y115000D01*
X342745Y121300D02*
X344491Y115000D01*
X341655Y117100D02*
X343836D01*
X364636Y113875D02*
X366818Y110125D01*
Y106000*
X369000Y113875D02*
X366818Y110125D01*
X371455Y113875D02*
Y106000D01*
Y113875D02*
X375000D01*
X371455Y110125D02*
X373636D01*
X371455Y106000D02*
X375000D01*
X381273Y112750D02*
X380727Y113500D01*
X379909Y113875*
X378818*
X378000Y113500*
X377455Y112750*
Y112000*
X377727Y111250*
X378000Y110875*
X378545Y110500*
X380182Y109750*
X380727Y109375*
X381000Y109000*
X381273Y108250*
Y107125*
X380727Y106375*
X379909Y106000*
X378818*
X378000Y106375*
X377455Y107125*
X417818Y112750D02*
Y106000D01*
X415364Y109375D02*
X420273D01*
X427636Y115375D02*
X422727Y103375D01*
X430091Y109375D02*
X435000D01*
X439091Y113875D02*
X438273Y113500D01*
X437727Y112375*
X437455Y110500*
Y109375*
X437727Y107500*
X438273Y106375*
X439091Y106000*
X439636*
X440455Y106375*
X441000Y107500*
X441273Y109375*
Y110500*
X441000Y112375*
X440455Y113500*
X439636Y113875*
X439091*
X444000Y106750D02*
X443727Y106375D01*
X444000Y106000*
X444273Y106375*
X444000Y106750*
X448364Y113875D02*
X447545Y113500D01*
X447000Y112375*
X446727Y110500*
Y109375*
X447000Y107500*
X447545Y106375*
X448364Y106000*
X448909*
X449727Y106375*
X450273Y107500*
X450545Y109375*
Y110500*
X450273Y112375*
X449727Y113500*
X448909Y113875*
X448364*
X0Y0D02*
M02*
