M48
;FILE_FORMAT=2:4
INCH,LZ
FMAT,2
ICI,OFF
;TYPE=PLATED
T1C.015
T2C.024
T3C.035
T4C.037
T5C.076
T6C.08
T7C.165
%
M72
G90
G93X0Y0
T1C.015F095S3
X186Y186
X187Y18448
X188Y1825
X19144Y18165
X19261Y18624
X19457Y18576
X19493Y18144
X20075Y18524
X2015Y18425
X19925Y1925
X19875Y1935
X1985Y1915
X19775Y1895
X19285Y18676
X188Y188
X188Y194
X188Y196
X1905Y19875
X1965Y1985
X1965Y1995
X19525Y2018
X19275Y1995
X19Y201
X188Y201
X188Y199
X186Y20175
X1875Y2065
X1895Y2085
X19Y205
X19Y208
X192Y20775
X197Y209
X197Y21075
X197Y21275
X196Y213
X19425Y2105
X194Y213
X192Y21275
X19Y21275
X18975Y211
X1895Y20925
X188Y213
T2C.024F197S55
X190986Y18218
X19138Y182968
X191774Y18218
X192167Y182968
X192561Y18218
X192955Y182968
X193349Y18218
X19453Y182968
X194923Y18218
X195317Y182968
X195711Y18218
X196104Y182968
X196498Y18218
X196892Y182968
X197286Y18218
X197679Y182968
X198073Y18218
X198467Y182968
X198467Y183952
X198073Y18474
X197679Y183952
X197286Y18474
X196892Y183952
X196498Y18474
X196104Y183952
X195711Y18474
X195317Y183952
X194923Y18474
X19453Y183952
X193349Y18474
X192955Y183952
X192561Y18474
X192167Y183952
X191774Y18474
X19138Y183952
X190986Y18474
T3C.035F197S55
X192Y198
X194Y198
X196Y198
X199Y198
X199Y199
X199Y2
X199Y201
X196Y201
X196Y2
X196Y199
X194Y199
X194Y2
X194Y201
X192Y199
X192Y2
X192Y201
X192Y202
X192Y203
X194Y202
X194Y203
X196Y202
X196Y203
X199Y202
X199Y203
X199Y206
X199Y204
X199Y205
X196Y204
X196Y205
X196Y206
X194Y206
X194Y204
X194Y205
X192Y204
X192Y205
X192Y206
X192Y207
X194Y207
X196Y207
X199Y207
T4C.037F197S55
X191Y191
X191Y19
X192Y191
X192Y19
X196Y19
X196Y191
X197Y19
X197Y191
X197Y192
X197Y193
X196Y192
X196Y193
X192Y193
X192Y192
X191Y193
X191Y192
X191Y194
X192Y194
X196Y194
X197Y194
T5C.076F081S55
X18916Y21613
X19784Y21605
X19784Y22207
X18916Y22215
T6C.08F074S55
X190278Y18346
X19388Y18346
T7C.165F035S1033
X18575Y1825
X2034Y18252
X20312Y22218
X18573Y22217
M30
