*
*
G04 PADS VX.2.1 Build Number: 6554490 generated Gerber (RS-274-X) file*
G04 PC Version=2.1*
*
%IN "uMuddMarkVTesterLayout."*%
*
%MOIN*%
*
%FSLAX35Y35*%
*
*
*
*
G04 PC Standard Apertures*
*
*
G04 Thermal Relief Aperture macro.*
%AMTER*
1,1,$1,0,0*
1,0,$1-$2,0,0*
21,0,$3,$4,0,0,45*
21,0,$3,$4,0,0,135*
%
*
*
G04 Annular Aperture macro.*
%AMANN*
1,1,$1,0,0*
1,0,$2,0,0*
%
*
*
G04 Odd Aperture macro.*
%AMODD*
1,1,$1,0,0*
1,0,$1-0.005,0,0*
%
*
*
G04 PC Custom Aperture Macros*
*
*
*
*
*
*
G04 PC Aperture Table*
*
%ADD010C,0.001*%
%ADD011C,0.01*%
%ADD014R,0.06X0.06*%
%ADD015C,0.06*%
%ADD023C,0.012*%
%ADD024C,0.03*%
%ADD045C,0.19*%
%ADD046C,0.042*%
%ADD051C,0.1*%
*
*
*
*
G04 PC Circuitry*
G04 Layer Name uMuddMarkVTesterLayout. - circuitry*
%LPD*%
*
*
G04 PC Custom Flashes*
G04 Layer Name uMuddMarkVTesterLayout. - flashes*
%LPD*%
*
*
G04 PC Circuitry*
G04 Layer Name uMuddMarkVTesterLayout. - circuitry*
%LPD*%
*
G54D10*
G54D11*
G01X1949300Y1814400D02*
X1977850D01*
X1987900Y1824450*
X1882102Y1825000D02*
X1895600D01*
X1896200Y1825600*
X1919041*
X1922837Y1821805*
X1925611*
X1882102Y1843200D02*
X1907100D01*
X1909900Y1840400*
Y1836300*
X1911400Y1834800*
X1914300*
X1916200Y1832900*
X1923053*
X1926274Y1829679*
X1929548*
X1880000Y1825000D02*
X1882102D01*
X1870000Y1844800D02*
X1871600Y1843200D01*
X1882102*
X1926100Y1862400D02*
X1934600D01*
X1939500Y1857500*
X1939600Y1857600*
X1945700*
X1928500Y1867600D02*
X1965050D01*
X1987900Y1844750*
Y1824450*
X1910000Y1900000D02*
X1914200D01*
X1919200Y1895000*
X1977500*
X1910000Y1920000D02*
X1914200D01*
X1919200Y1915000*
X1985000*
X1910000Y1930000D02*
X1914200D01*
X1919200Y1925000*
X1992500*
X1910000Y1940000D02*
X1914200D01*
X1919200Y1935000*
X1987500*
X1860000Y2017500D02*
X1888000D01*
X1890500Y2020000*
X1920000*
Y2010000D02*
X1929200D01*
X1934200Y2015000*
X1943800*
X1946800Y2018000*
X1952500*
X1920000Y2000000D02*
X1923000Y1997000D01*
X1925500*
X1927500Y1995000*
X1920000Y1990000D02*
X1930189D01*
X1935189Y1995000*
X1965000*
X1920000Y2050000D02*
X1929200D01*
X1934200Y2045000*
X1945800*
X1950800Y2040000*
X1960000*
X1920000Y2030000D02*
X1929200D01*
X1934200Y2035000*
X1960798*
X1964100Y2038302*
Y2045900*
X1960000Y2030000D02*
X1965700Y2035700D01*
X1960000Y2050000D02*
X1964100Y2045900D01*
X1920000Y2070000D02*
X1925000Y2065000D01*
X1945000*
X1955000Y2055000*
X1960798*
X1965700Y2050098*
Y2035700*
G54D14*
X1970000Y1900000D03*
X1960000Y2070000D03*
X1940000Y1980000D03*
X1920000D03*
X1910000Y1940000D03*
G54D15*
X1960000Y1900000D03*
X1970000Y1910000D03*
X1960000D03*
X1970000Y1920000D03*
X1960000D03*
X1970000Y1930000D03*
X1960000D03*
X1970000Y1940000D03*
X1960000D03*
Y2060000D03*
Y2050000D03*
Y2040000D03*
Y2030000D03*
Y2020000D03*
Y2010000D03*
Y2000000D03*
Y1990000D03*
Y1980000D03*
X1990000D03*
Y1990000D03*
Y2000000D03*
Y2010000D03*
Y2020000D03*
Y2030000D03*
Y2040000D03*
Y2050000D03*
Y2060000D03*
Y2070000D03*
X1940000Y1990000D03*
Y2000000D03*
Y2010000D03*
Y2020000D03*
Y2030000D03*
Y2040000D03*
Y2050000D03*
Y2060000D03*
Y2070000D03*
X1920000Y1990000D03*
Y2000000D03*
Y2010000D03*
Y2020000D03*
Y2030000D03*
Y2040000D03*
Y2050000D03*
Y2060000D03*
Y2070000D03*
Y1940000D03*
X1910000Y1930000D03*
X1920000D03*
X1910000Y1920000D03*
X1920000D03*
X1910000Y1910000D03*
X1920000D03*
X1910000Y1900000D03*
X1920000D03*
G54D23*
X1914400Y1816500D02*
X1936054D01*
X1945254Y1825700*
X1964939*
X1968918Y1829679*
X1970000Y1910000D02*
X2007500Y1898200D01*
Y1852400*
X1970000Y1900000D02*
X1982400D01*
X1997900Y1883800*
Y1864200*
X2002900Y1847600*
X2010395*
X2015000Y1842500*
X1905000Y1987500D02*
X1912100D01*
X1914600Y1985000*
X1965000*
X1895000Y2085000D02*
Y2092500D01*
G54D24*
X1914400Y1816500D03*
X1949300Y1814400D03*
X1880000Y1825000D03*
X1870000Y1844800D03*
X1945700Y1857600D03*
X1926100Y1862400D03*
X1928500Y1867600D03*
X1977500Y1895000D03*
X1985000Y1915000D03*
X1992500Y1925000D03*
X1987500Y1935000D03*
X1860000Y2017500D03*
X1905000Y1987500D03*
X1927500Y1995000D03*
X1952500Y2018000D03*
X1965000Y1985000D03*
Y1995000D03*
X1895000Y2092500D03*
Y2085000D03*
G54D45*
X1857500Y1825000D03*
X2034000Y1825200D03*
X2031200Y2221800D03*
X1857300Y2221700D03*
G54D46*
X1984666Y1829679D03*
X1980729Y1821805D03*
X1976792Y1829679D03*
X1972855Y1821805D03*
X1968918Y1829679D03*
X1964981Y1821805D03*
X1961044Y1829679D03*
X1957107Y1821805D03*
X1953170Y1829679D03*
X1949233Y1821805D03*
X1945296Y1829679D03*
X1933485Y1821805D03*
X1929548Y1829679D03*
X1925611Y1821805D03*
X1921674Y1829679D03*
X1917737Y1821805D03*
X1913800Y1829679D03*
X1909863Y1821805D03*
X1984666Y1839521D03*
X1980729Y1847395D03*
X1976792Y1839521D03*
X1972855Y1847395D03*
X1968918Y1839521D03*
X1964981Y1847395D03*
X1961044Y1839521D03*
X1957107Y1847395D03*
X1953170Y1839521D03*
X1949233Y1847395D03*
X1945296Y1839521D03*
X1933485Y1847395D03*
X1929548Y1839521D03*
X1925611Y1847395D03*
X1921674Y1839521D03*
X1917737Y1847395D03*
X1913800Y1839521D03*
X1909863Y1847395D03*
X2007500Y1852400D03*
X2015000Y1842500D03*
X1880000Y1880000D03*
X1860000Y1860000D03*
X1880000Y1940000D03*
Y1960000D03*
Y2010000D03*
Y1990000D03*
X1900000Y2010000D03*
Y2050000D03*
X1875000Y2065000D03*
X1920000Y2077500D03*
X1900000Y2080000D03*
X1970000Y2090000D03*
X1897500Y2110000D03*
X1880000Y2130000D03*
X1920000Y2127500D03*
X1900000D03*
X1960000Y2130000D03*
X1970000Y2127500D03*
Y2107500D03*
X1940000Y2130000D03*
X1942500Y2105000D03*
G54D51*
X1978400Y2160500D03*
Y2220700D03*
X1891600Y2161300D03*
Y2221500D03*
X0Y0D02*
M02*
