*
*
G04 PADS VX.2.1 Build Number: 6554490 generated Gerber (RS-274-X) file*
G04 PC Version=2.1*
*
%IN "uMuddMarkVTesterLayout."*%
*
%MOIN*%
*
%FSLAX35Y35*%
*
*
*
*
G04 PC Standard Apertures*
*
*
G04 Thermal Relief Aperture macro.*
%AMTER*
1,1,$1,0,0*
1,0,$1-$2,0,0*
21,0,$3,$4,0,0,45*
21,0,$3,$4,0,0,135*
%
*
*
G04 Annular Aperture macro.*
%AMANN*
1,1,$1,0,0*
1,0,$2,0,0*
%
*
*
G04 Odd Aperture macro.*
%AMODD*
1,1,$1,0,0*
1,0,$1-0.005,0,0*
%
*
*
G04 PC Custom Aperture Macros*
*
*
*
*
*
*
G04 PC Aperture Table*
*
%ADD010C,0.001*%
%ADD011C,0.01*%
%ADD014R,0.06X0.06*%
%ADD015C,0.06*%
%ADD025C,0.015*%
%ADD046C,0.042*%
*
*
*
*
G04 PC Circuitry*
G04 Layer Name uMuddMarkVTesterLayout. - circuitry*
%LPD*%
*
*
G04 PC Custom Flashes*
G04 Layer Name uMuddMarkVTesterLayout. - flashes*
%LPD*%
*
*
G04 PC Circuitry*
G04 Layer Name uMuddMarkVTesterLayout. - circuitry*
%LPD*%
*
G54D10*
G54D11*
G01X2044600Y1825200D02*
G75*
G03X2044600I-10600J0D01*
G01X2041800Y2221800D02*
G03X2041800I-10600J0D01*
G01X2018200Y1842500D02*
G03X2018200I-3200J0D01*
G01X2010700Y1852400D02*
G03X2010700I-3200J0D01*
G01X1995100Y1925000D02*
G03X1995100I-2600J0D01*
G01X1983179Y1821805D02*
G03X1983179I-2450J0D01*
G01X1987116Y1829679D02*
G03X1987116I-2450J0D01*
G01Y1839521D02*
G03X1987116I-2450J0D01*
G01X1975305Y1821805D02*
G03X1975305I-2450J0D01*
G01X1979242Y1829679D02*
G03X1979242I-2450J0D01*
G01Y1839521D02*
G03X1979242I-2450J0D01*
G01X1983179Y1847395D02*
G03X1983179I-2450J0D01*
G01X1987600Y1915000D02*
G03X1987600I-2600J0D01*
G01X1990100Y1935000D02*
G03X1990100I-2600J0D01*
G01X1994100Y1980000D02*
G03X1994100I-4100J0D01*
G01Y1990000D02*
G03X1994100I-4100J0D01*
G01Y2000000D02*
G03X1994100I-4100J0D01*
G01Y2010000D02*
G03X1994100I-4100J0D01*
G01Y2020000D02*
G03X1994100I-4100J0D01*
G01Y2030000D02*
G03X1994100I-4100J0D01*
G01Y2040000D02*
G03X1994100I-4100J0D01*
G01Y2050000D02*
G03X1994100I-4100J0D01*
G01Y2060000D02*
G03X1994100I-4100J0D01*
G01Y2070000D02*
G03X1994100I-4100J0D01*
G01X1967431Y1821805D02*
G03X1967431I-2450J0D01*
G01X1971368Y1829679D02*
G03X1971368I-2450J0D01*
G01Y1839521D02*
G03X1971368I-2450J0D01*
G01X1975305Y1847395D02*
G03X1975305I-2450J0D01*
G01X1980100Y1895000D02*
G03X1980100I-2600J0D01*
G01X1959557Y1821805D02*
G03X1959557I-2450J0D01*
G01X1963494Y1829679D02*
G03X1963494I-2450J0D01*
G01Y1839521D02*
G03X1963494I-2450J0D01*
G01X1967431Y1847395D02*
G03X1967431I-2450J0D01*
G01X1974100Y1910000D02*
G03X1974100I-4100J0D01*
G01Y1920000D02*
G03X1974100I-4100J0D01*
G01Y1930000D02*
G03X1974100I-4100J0D01*
G01Y1940000D02*
G03X1974100I-4100J0D01*
G01X1951900Y1814400D02*
G03X1951900I-2600J0D01*
G01X1951683Y1821805D02*
G03X1951683I-2450J0D01*
G01X1955620Y1829679D02*
G03X1955620I-2450J0D01*
G01Y1839521D02*
G03X1955620I-2450J0D01*
G01X1959557Y1847395D02*
G03X1959557I-2450J0D01*
G01X1964100Y1900000D02*
G03X1964100I-4100J0D01*
G01Y1910000D02*
G03X1964100I-4100J0D01*
G01Y1920000D02*
G03X1964100I-4100J0D01*
G01Y1930000D02*
G03X1964100I-4100J0D01*
G01Y1940000D02*
G03X1964100I-4100J0D01*
G01Y1980000D02*
G03X1964100I-4100J0D01*
G01X1967600Y1985000D02*
G03X1967600I-2600J0D01*
G01X1964100Y1990000D02*
G03X1964100I-4100J0D01*
G01X1967600Y1995000D02*
G03X1967600I-2600J0D01*
G01X1973200Y2090000D02*
G03X1973200I-3200J0D01*
G01Y2107500D02*
G03X1973200I-3200J0D01*
G01Y2127500D02*
G03X1973200I-3200J0D01*
G01X1984500Y2160500D02*
G03X1984500I-6100J0D01*
G01Y2220700D02*
G03X1984500I-6100J0D01*
G01X1964100Y2000000D02*
G03X1964100I-4100J0D01*
G01Y2010000D02*
G03X1964100I-4100J0D01*
G01Y2020000D02*
G03X1964100I-4100J0D01*
G01Y2030000D02*
G03X1964100I-4100J0D01*
G01Y2040000D02*
G03X1964100I-4100J0D01*
G01Y2050000D02*
G03X1964100I-4100J0D01*
G01Y2060000D02*
G03X1964100I-4100J0D01*
G01Y2070000D02*
G03X1964100I-4100J0D01*
G01X1963200Y2130000D02*
G03X1963200I-3200J0D01*
G01X1947746Y1829679D02*
G03X1947746I-2450J0D01*
G01X1935935Y1821805D02*
G03X1935935I-2450J0D01*
G01X1944050Y1834600D02*
G03X1944050I-5250J0D01*
G01X1947746Y1839521D02*
G03X1947746I-2450J0D01*
G01X1951683Y1847395D02*
G03X1951683I-2450J0D01*
G01X1955100Y2018000D02*
G03X1955100I-2600J0D01*
G01X1948300Y1857600D02*
G03X1948300I-2600J0D01*
G01X1928061Y1821805D02*
G03X1928061I-2450J0D01*
G01X1931998Y1829679D02*
G03X1931998I-2450J0D01*
G01Y1839521D02*
G03X1931998I-2450J0D01*
G01X1935935Y1847395D02*
G03X1935935I-2450J0D01*
G01X1944100Y1980000D02*
G03X1944100I-4100J0D01*
G01Y1990000D02*
G03X1944100I-4100J0D01*
G01Y2000000D02*
G03X1944100I-4100J0D01*
G01Y2010000D02*
G03X1944100I-4100J0D01*
G01Y2020000D02*
G03X1944100I-4100J0D01*
G01Y2030000D02*
G03X1944100I-4100J0D01*
G01Y2040000D02*
G03X1944100I-4100J0D01*
G01Y2050000D02*
G03X1944100I-4100J0D01*
G01Y2060000D02*
G03X1944100I-4100J0D01*
G01Y2070000D02*
G03X1944100I-4100J0D01*
G01X1945700Y2105000D02*
G03X1945700I-3200J0D01*
G01X1943200Y2130000D02*
G03X1943200I-3200J0D01*
G01X1917000Y1816500D02*
G03X1917000I-2600J0D01*
G01X1920187Y1821805D02*
G03X1920187I-2450J0D01*
G01X1924124Y1829679D02*
G03X1924124I-2450J0D01*
G01Y1839521D02*
G03X1924124I-2450J0D01*
G01X1928061Y1847395D02*
G03X1928061I-2450J0D01*
G01X1928700Y1862400D02*
G03X1928700I-2600J0D01*
G01X1931100Y1867600D02*
G03X1931100I-2600J0D01*
G01X1930100Y1995000D02*
G03X1930100I-2600J0D01*
G01X1912313Y1821805D02*
G03X1912313I-2450J0D01*
G01X1916250Y1829679D02*
G03X1916250I-2450J0D01*
G01Y1839521D02*
G03X1916250I-2450J0D01*
G01X1920187Y1847395D02*
G03X1920187I-2450J0D01*
G01X1924100Y1900000D02*
G03X1924100I-4100J0D01*
G01Y1910000D02*
G03X1924100I-4100J0D01*
G01Y1920000D02*
G03X1924100I-4100J0D01*
G01Y1930000D02*
G03X1924100I-4100J0D01*
G01Y1940000D02*
G03X1924100I-4100J0D01*
G01Y1980000D02*
G03X1924100I-4100J0D01*
G01Y1990000D02*
G03X1924100I-4100J0D01*
G01Y2000000D02*
G03X1924100I-4100J0D01*
G01Y2010000D02*
G03X1924100I-4100J0D01*
G01Y2020000D02*
G03X1924100I-4100J0D01*
G01Y2030000D02*
G03X1924100I-4100J0D01*
G01Y2040000D02*
G03X1924100I-4100J0D01*
G01Y2050000D02*
G03X1924100I-4100J0D01*
G01Y2060000D02*
G03X1924100I-4100J0D01*
G01Y2070000D02*
G03X1924100I-4100J0D01*
G01X1923200Y2077500D02*
G03X1923200I-3200J0D01*
G01Y2127500D02*
G03X1923200I-3200J0D01*
G01X1908026Y1834600D02*
G03X1908026I-5250J0D01*
G01X1912313Y1847395D02*
G03X1912313I-2450J0D01*
G01X1914100Y1900000D02*
G03X1914100I-4100J0D01*
G01Y1910000D02*
G03X1914100I-4100J0D01*
G01Y1920000D02*
G03X1914100I-4100J0D01*
G01Y1930000D02*
G03X1914100I-4100J0D01*
G01X1907600Y1987500D02*
G03X1907600I-2600J0D01*
G01X1903200Y2010000D02*
G03X1903200I-3200J0D01*
G01Y2050000D02*
G03X1903200I-3200J0D01*
G01Y2080000D02*
G03X1903200I-3200J0D01*
G01X1897600Y2085000D02*
G03X1897600I-2600J0D01*
G01Y2092500D02*
G03X1897600I-2600J0D01*
G01X1900700Y2110000D02*
G03X1900700I-3200J0D01*
G01X1903200Y2127500D02*
G03X1903200I-3200J0D01*
G01X1897700Y2161300D02*
G03X1897700I-6100J0D01*
G01Y2221500D02*
G03X1897700I-6100J0D01*
G01X1882600Y1825000D02*
G03X1882600I-2600J0D01*
G01X1883200Y1880000D02*
G03X1883200I-3200J0D01*
G01Y1940000D02*
G03X1883200I-3200J0D01*
G01Y1960000D02*
G03X1883200I-3200J0D01*
G01Y1990000D02*
G03X1883200I-3200J0D01*
G01Y2010000D02*
G03X1883200I-3200J0D01*
G01X1868100Y1825000D02*
G03X1868100I-10600J0D01*
G01X1872600Y1844800D02*
G03X1872600I-2600J0D01*
G01X1878200Y2065000D02*
G03X1878200I-3200J0D01*
G01X1883200Y2130000D02*
G03X1883200I-3200J0D01*
G01X1863200Y1860000D02*
G03X1863200I-3200J0D01*
G01X1862600Y2017500D02*
G03X1862600I-2600J0D01*
G01X1867900Y2221700D02*
G03X1867900I-10600J0D01*
G01X2045400Y2234200D02*
X1845300D01*
Y1811500*
X2045400*
Y2234200*
X2044600Y1825200D02*
G03X2044600I-10600J0D01*
G01X2041800Y2221800D02*
G03X2041800I-10600J0D01*
G01X2018200Y1842500D02*
G03X2018200I-3200J0D01*
G01X2010700Y1852400D02*
G03X2010700I-3200J0D01*
G01X1995100Y1925000D02*
G03X1995100I-2600J0D01*
G01X1983179Y1821805D02*
G03X1983179I-2450J0D01*
G01X1987116Y1829679D02*
G03X1987116I-2450J0D01*
G01Y1839521D02*
G03X1987116I-2450J0D01*
G01X1975305Y1821805D02*
G03X1975305I-2450J0D01*
G01X1979242Y1829679D02*
G03X1979242I-2450J0D01*
G01Y1839521D02*
G03X1979242I-2450J0D01*
G01X1983179Y1847395D02*
G03X1983179I-2450J0D01*
G01X1987600Y1915000D02*
G03X1987600I-2600J0D01*
G01X1990100Y1935000D02*
G03X1990100I-2600J0D01*
G01X1994100Y1980000D02*
G03X1994100I-4100J0D01*
G01Y1990000D02*
G03X1994100I-4100J0D01*
G01Y2000000D02*
G03X1994100I-4100J0D01*
G01Y2010000D02*
G03X1994100I-4100J0D01*
G01Y2020000D02*
G03X1994100I-4100J0D01*
G01Y2030000D02*
G03X1994100I-4100J0D01*
G01Y2040000D02*
G03X1994100I-4100J0D01*
G01Y2050000D02*
G03X1994100I-4100J0D01*
G01Y2060000D02*
G03X1994100I-4100J0D01*
G01Y2070000D02*
G03X1994100I-4100J0D01*
G01X1967431Y1821805D02*
G03X1967431I-2450J0D01*
G01X1971368Y1829679D02*
G03X1971368I-2450J0D01*
G01Y1839521D02*
G03X1971368I-2450J0D01*
G01X1975305Y1847395D02*
G03X1975305I-2450J0D01*
G01X1980100Y1895000D02*
G03X1980100I-2600J0D01*
G01X1959557Y1821805D02*
G03X1959557I-2450J0D01*
G01X1963494Y1829679D02*
G03X1963494I-2450J0D01*
G01Y1839521D02*
G03X1963494I-2450J0D01*
G01X1967431Y1847395D02*
G03X1967431I-2450J0D01*
G01X1974100Y1903000D02*
Y1897000D01*
X1973000Y1895900D02*
G03X1974100Y1897000I0J1100D01*
G01X1973000Y1895900D02*
X1967000D01*
X1965900Y1897000D02*
G03X1967000Y1895900I1100J0D01*
G01X1965900Y1897000D02*
Y1903000D01*
X1967000Y1904100D02*
G03X1965900Y1903000I0J-1100D01*
G01X1967000Y1904100D02*
X1973000D01*
X1974100Y1903000D02*
G03X1973000Y1904100I-1100J0D01*
G01X1974100Y1910000D02*
G03X1974100I-4100J0D01*
G01Y1920000D02*
G03X1974100I-4100J0D01*
G01Y1930000D02*
G03X1974100I-4100J0D01*
G01Y1940000D02*
G03X1974100I-4100J0D01*
G01X1951900Y1814400D02*
G03X1951900I-2600J0D01*
G01X1951683Y1821805D02*
G03X1951683I-2450J0D01*
G01X1955620Y1829679D02*
G03X1955620I-2450J0D01*
G01Y1839521D02*
G03X1955620I-2450J0D01*
G01X1959557Y1847395D02*
G03X1959557I-2450J0D01*
G01X1964100Y1900000D02*
G03X1964100I-4100J0D01*
G01Y1910000D02*
G03X1964100I-4100J0D01*
G01Y1920000D02*
G03X1964100I-4100J0D01*
G01Y1930000D02*
G03X1964100I-4100J0D01*
G01Y1940000D02*
G03X1964100I-4100J0D01*
G01Y1980000D02*
G03X1964100I-4100J0D01*
G01X1967600Y1985000D02*
G03X1967600I-2600J0D01*
G01X1964100Y1990000D02*
G03X1964100I-4100J0D01*
G01X1967600Y1995000D02*
G03X1967600I-2600J0D01*
G01X1973200Y2090000D02*
G03X1973200I-3200J0D01*
G01Y2107500D02*
G03X1973200I-3200J0D01*
G01Y2127500D02*
G03X1973200I-3200J0D01*
G01X1984500Y2160500D02*
G03X1984500I-6100J0D01*
G01Y2220700D02*
G03X1984500I-6100J0D01*
G01X1964100Y2000000D02*
G03X1964100I-4100J0D01*
G01Y2010000D02*
G03X1964100I-4100J0D01*
G01Y2020000D02*
G03X1964100I-4100J0D01*
G01Y2030000D02*
G03X1964100I-4100J0D01*
G01Y2040000D02*
G03X1964100I-4100J0D01*
G01Y2050000D02*
G03X1964100I-4100J0D01*
G01Y2060000D02*
G03X1964100I-4100J0D01*
G01Y2070000D02*
G03X1964100I-4100J0D01*
G01X1963200Y2130000D02*
G03X1963200I-3200J0D01*
G01X1947746Y1829679D02*
G03X1947746I-2450J0D01*
G01X1935935Y1821805D02*
G03X1935935I-2450J0D01*
G01X1944050Y1834600D02*
G03X1944050I-5250J0D01*
G01X1947746Y1839521D02*
G03X1947746I-2450J0D01*
G01X1951683Y1847395D02*
G03X1951683I-2450J0D01*
G01X1955100Y2018000D02*
G03X1955100I-2600J0D01*
G01X1948300Y1857600D02*
G03X1948300I-2600J0D01*
G01X1928061Y1821805D02*
G03X1928061I-2450J0D01*
G01X1931998Y1829679D02*
G03X1931998I-2450J0D01*
G01Y1839521D02*
G03X1931998I-2450J0D01*
G01X1935935Y1847395D02*
G03X1935935I-2450J0D01*
G01X1944100Y1980000D02*
G03X1944100I-4100J0D01*
G01Y1990000D02*
G03X1944100I-4100J0D01*
G01Y2000000D02*
G03X1944100I-4100J0D01*
G01Y2010000D02*
G03X1944100I-4100J0D01*
G01Y2020000D02*
G03X1944100I-4100J0D01*
G01Y2030000D02*
G03X1944100I-4100J0D01*
G01Y2040000D02*
G03X1944100I-4100J0D01*
G01Y2050000D02*
G03X1944100I-4100J0D01*
G01Y2060000D02*
G03X1944100I-4100J0D01*
G01Y2070000D02*
G03X1944100I-4100J0D01*
G01X1945700Y2105000D02*
G03X1945700I-3200J0D01*
G01X1943200Y2130000D02*
G03X1943200I-3200J0D01*
G01X1917000Y1816500D02*
G03X1917000I-2600J0D01*
G01X1920187Y1821805D02*
G03X1920187I-2450J0D01*
G01X1924124Y1829679D02*
G03X1924124I-2450J0D01*
G01Y1839521D02*
G03X1924124I-2450J0D01*
G01X1928061Y1847395D02*
G03X1928061I-2450J0D01*
G01X1928700Y1862400D02*
G03X1928700I-2600J0D01*
G01X1931100Y1867600D02*
G03X1931100I-2600J0D01*
G01X1930100Y1995000D02*
G03X1930100I-2600J0D01*
G01X1912313Y1821805D02*
G03X1912313I-2450J0D01*
G01X1916250Y1829679D02*
G03X1916250I-2450J0D01*
G01Y1839521D02*
G03X1916250I-2450J0D01*
G01X1920187Y1847395D02*
G03X1920187I-2450J0D01*
G01X1924100Y1900000D02*
G03X1924100I-4100J0D01*
G01Y1910000D02*
G03X1924100I-4100J0D01*
G01Y1920000D02*
G03X1924100I-4100J0D01*
G01Y1930000D02*
G03X1924100I-4100J0D01*
G01Y1940000D02*
G03X1924100I-4100J0D01*
G01Y1980000D02*
G03X1924100I-4100J0D01*
G01Y1990000D02*
G03X1924100I-4100J0D01*
G01Y2000000D02*
G03X1924100I-4100J0D01*
G01Y2010000D02*
G03X1924100I-4100J0D01*
G01Y2020000D02*
G03X1924100I-4100J0D01*
G01Y2030000D02*
G03X1924100I-4100J0D01*
G01Y2040000D02*
G03X1924100I-4100J0D01*
G01Y2050000D02*
G03X1924100I-4100J0D01*
G01Y2060000D02*
G03X1924100I-4100J0D01*
G01Y2070000D02*
G03X1924100I-4100J0D01*
G01X1923200Y2077500D02*
G03X1923200I-3200J0D01*
G01Y2127500D02*
G03X1923200I-3200J0D01*
G01X1908026Y1834600D02*
G03X1908026I-5250J0D01*
G01X1912313Y1847395D02*
G03X1912313I-2450J0D01*
G01X1914100Y1900000D02*
G03X1914100I-4100J0D01*
G01Y1910000D02*
G03X1914100I-4100J0D01*
G01Y1920000D02*
G03X1914100I-4100J0D01*
G01Y1930000D02*
G03X1914100I-4100J0D01*
G01Y1943600D02*
Y1936400D01*
X1913600Y1935900D02*
G03X1914100Y1936400I0J500D01*
G01X1913600Y1935900D02*
X1906400D01*
X1905900Y1936400D02*
G03X1906400Y1935900I500J0D01*
G01X1905900Y1936400D02*
Y1943600D01*
X1906400Y1944100D02*
G03X1905900Y1943600I0J-500D01*
G01X1906400Y1944100D02*
X1913600D01*
X1914100Y1943600D02*
G03X1913600Y1944100I-500J0D01*
G01X1907600Y1987500D02*
G03X1907600I-2600J0D01*
G01X1903200Y2010000D02*
G03X1903200I-3200J0D01*
G01Y2050000D02*
G03X1903200I-3200J0D01*
G01Y2080000D02*
G03X1903200I-3200J0D01*
G01X1897600Y2085000D02*
G03X1897600I-2600J0D01*
G01Y2092500D02*
G03X1897600I-2600J0D01*
G01X1900700Y2110000D02*
G03X1900700I-3200J0D01*
G01X1903200Y2127500D02*
G03X1903200I-3200J0D01*
G01X1897700Y2161300D02*
G03X1897700I-6100J0D01*
G01Y2221500D02*
G03X1897700I-6100J0D01*
G01X1882600Y1825000D02*
G03X1882600I-2600J0D01*
G01X1883200Y1880000D02*
G03X1883200I-3200J0D01*
G01Y1940000D02*
G03X1883200I-3200J0D01*
G01Y1960000D02*
G03X1883200I-3200J0D01*
G01Y1990000D02*
G03X1883200I-3200J0D01*
G01Y2010000D02*
G03X1883200I-3200J0D01*
G01X1868100Y1825000D02*
G03X1868100I-10600J0D01*
G01X1872600Y1844800D02*
G03X1872600I-2600J0D01*
G01X1878200Y2065000D02*
G03X1878200I-3200J0D01*
G01X1883200Y2130000D02*
G03X1883200I-3200J0D01*
G01X1863200Y1860000D02*
G03X1863200I-3200J0D01*
G01X1862600Y2017500D02*
G03X1862600I-2600J0D01*
G01X1867900Y2221700D02*
G03X1867900I-10600J0D01*
G01X1845300Y2233599D02*
X2045400D01*
X1845300Y2232699D02*
X2045400D01*
X2034719Y2231799D02*
X2045400D01*
X2036638Y2230899D02*
X2045400D01*
X2037919Y2229999D02*
X2045400D01*
X2038887Y2229099D02*
X2045400D01*
X2039651Y2228199D02*
X2045400D01*
X2040262Y2227299D02*
X2045400D01*
X2040751Y2226399D02*
X2045400D01*
X2041134Y2225499D02*
X2045400D01*
X2041424Y2224599D02*
X2045400D01*
X2041629Y2223699D02*
X2045400D01*
X2041753Y2222799D02*
X2045400D01*
X2041800Y2221899D02*
X2045400D01*
X2041770Y2220999D02*
X2045400D01*
X2041663Y2220099D02*
X2045400D01*
X2041476Y2219199D02*
X2045400D01*
X2041205Y2218299D02*
X2045400D01*
X2040843Y2217399D02*
X2045400D01*
X2040379Y2216499D02*
X2045400D01*
X2039797Y2215599D02*
X2045400D01*
X2039070Y2214699D02*
X2045400D01*
X2038153Y2213799D02*
X2045400D01*
X2036956Y2212899D02*
X2045400D01*
X2035237Y2211999D02*
X2045400D01*
X1845300Y2211099D02*
X2045400D01*
X1845300Y2210199D02*
X2045400D01*
X1845300Y2209299D02*
X2045400D01*
X1845300Y2208399D02*
X2045400D01*
X1845300Y2207499D02*
X2045400D01*
X1845300Y2206599D02*
X2045400D01*
X1845300Y2205699D02*
X2045400D01*
X1845300Y2204799D02*
X2045400D01*
X1845300Y2203899D02*
X2045400D01*
X1845300Y2202999D02*
X2045400D01*
X1845300Y2202099D02*
X2045400D01*
X1845300Y2201199D02*
X2045400D01*
X1845300Y2200299D02*
X2045400D01*
X1845300Y2199399D02*
X2045400D01*
X1845300Y2198499D02*
X2045400D01*
X1845300Y2197599D02*
X2045400D01*
X1845300Y2196699D02*
X2045400D01*
X1845300Y2195799D02*
X2045400D01*
X1845300Y2194899D02*
X2045400D01*
X1845300Y2193999D02*
X2045400D01*
X1845300Y2193099D02*
X2045400D01*
X1845300Y2192199D02*
X2045400D01*
X1845300Y2191299D02*
X2045400D01*
X1845300Y2190399D02*
X2045400D01*
X1845300Y2189499D02*
X2045400D01*
X1845300Y2188599D02*
X2045400D01*
X1845300Y2187699D02*
X2045400D01*
X1845300Y2186799D02*
X2045400D01*
X1845300Y2185899D02*
X2045400D01*
X1845300Y2184999D02*
X2045400D01*
X1845300Y2184099D02*
X2045400D01*
X1845300Y2183199D02*
X2045400D01*
X1845300Y2182299D02*
X2045400D01*
X1845300Y2181399D02*
X2045400D01*
X1845300Y2180499D02*
X2045400D01*
X1845300Y2179599D02*
X2045400D01*
X1845300Y2178699D02*
X2045400D01*
X1845300Y2177799D02*
X2045400D01*
X1845300Y2176899D02*
X2045400D01*
X1845300Y2175999D02*
X2045400D01*
X1845300Y2175099D02*
X2045400D01*
X1845300Y2174199D02*
X2045400D01*
X1845300Y2173299D02*
X2045400D01*
X1845300Y2172399D02*
X2045400D01*
X1845300Y2171499D02*
X2045400D01*
X1845300Y2170599D02*
X2045400D01*
X1845300Y2169699D02*
X2045400D01*
X1845300Y2168799D02*
X2045400D01*
X1845300Y2167899D02*
X2045400D01*
X1893776Y2166999D02*
X2045400D01*
X1980822Y2166099D02*
X2045400D01*
X1982290Y2165199D02*
X2045400D01*
X1983173Y2164299D02*
X2045400D01*
X1983767Y2163399D02*
X2045400D01*
X1984163Y2162499D02*
X2045400D01*
X1984400Y2161599D02*
X2045400D01*
X1984497Y2160699D02*
X2045400D01*
X1984460Y2159799D02*
X2045400D01*
X1984286Y2158899D02*
X2045400D01*
X1983964Y2157999D02*
X2045400D01*
X1983464Y2157099D02*
X2045400D01*
X1982725Y2156199D02*
X2045400D01*
X1981587Y2155299D02*
X2045400D01*
X1845300Y2154399D02*
X2045400D01*
X1845300Y2153499D02*
X2045400D01*
X1845300Y2152599D02*
X2045400D01*
X1845300Y2151699D02*
X2045400D01*
X1845300Y2150799D02*
X2045400D01*
X1845300Y2149899D02*
X2045400D01*
X1845300Y2148999D02*
X2045400D01*
X1845300Y2148099D02*
X2045400D01*
X1845300Y2147199D02*
X2045400D01*
X1845300Y2146299D02*
X2045400D01*
X1845300Y2145399D02*
X2045400D01*
X1845300Y2144499D02*
X2045400D01*
X1845300Y2143599D02*
X2045400D01*
X1845300Y2142699D02*
X2045400D01*
X1845300Y2141799D02*
X2045400D01*
X1845300Y2140899D02*
X2045400D01*
X1845300Y2139999D02*
X2045400D01*
X1845300Y2139099D02*
X2045400D01*
X1845300Y2138199D02*
X2045400D01*
X1845300Y2137299D02*
X2045400D01*
X1845300Y2136399D02*
X2045400D01*
X1845300Y2135499D02*
X2045400D01*
X1845300Y2134599D02*
X2045400D01*
X1845300Y2133699D02*
X2045400D01*
X1961552Y2132799D02*
X2045400D01*
X1962576Y2131899D02*
X2045400D01*
X1963040Y2130999D02*
X2045400D01*
X1971867Y2130099D02*
X2045400D01*
X1972712Y2129199D02*
X2045400D01*
X1973099Y2128299D02*
X2045400D01*
X1973198Y2127399D02*
X2045400D01*
X1973039Y2126499D02*
X2045400D01*
X1972574Y2125599D02*
X2045400D01*
X1971547Y2124699D02*
X2045400D01*
X1845300Y2123799D02*
X2045400D01*
X1845300Y2122899D02*
X2045400D01*
X1845300Y2121999D02*
X2045400D01*
X1845300Y2121099D02*
X2045400D01*
X1845300Y2120199D02*
X2045400D01*
X1845300Y2119299D02*
X2045400D01*
X1845300Y2118399D02*
X2045400D01*
X1845300Y2117499D02*
X2045400D01*
X1845300Y2116599D02*
X2045400D01*
X1845300Y2115699D02*
X2045400D01*
X1845300Y2114799D02*
X2045400D01*
X1845300Y2113899D02*
X2045400D01*
X1898617Y2112999D02*
X2045400D01*
X1899916Y2112099D02*
X2045400D01*
X1900467Y2111199D02*
X2045400D01*
X1971552Y2110299D02*
X2045400D01*
X1972576Y2109399D02*
X2045400D01*
X1973040Y2108499D02*
X2045400D01*
X1973198Y2107599D02*
X2045400D01*
X1973098Y2106699D02*
X2045400D01*
X1972710Y2105799D02*
X2045400D01*
X1971864Y2104899D02*
X2045400D01*
X1945539Y2103999D02*
X2045400D01*
X1945074Y2103099D02*
X2045400D01*
X1944047Y2102199D02*
X2045400D01*
X1845300Y2101299D02*
X2045400D01*
X1845300Y2100399D02*
X2045400D01*
X1845300Y2099499D02*
X2045400D01*
X1845300Y2098599D02*
X2045400D01*
X1845300Y2097699D02*
X2045400D01*
X1845300Y2096799D02*
X2045400D01*
X1845300Y2095899D02*
X2045400D01*
X1895719Y2094999D02*
X2045400D01*
X1897050Y2094099D02*
X2045400D01*
X1970092Y2093199D02*
X2045400D01*
X1972226Y2092299D02*
X2045400D01*
X1972878Y2091399D02*
X2045400D01*
X1973161Y2090499D02*
X2045400D01*
X1973175Y2089599D02*
X2045400D01*
X1972923Y2088699D02*
X2045400D01*
X1972323Y2087799D02*
X2045400D01*
X1970789Y2086899D02*
X2045400D01*
X1897401Y2085999D02*
X2045400D01*
X1897598Y2085099D02*
X2045400D01*
X1897473Y2084199D02*
X2045400D01*
X1896966Y2083299D02*
X2045400D01*
X1902118Y2082399D02*
X2045400D01*
X1902827Y2081499D02*
X2045400D01*
X1920799Y2080599D02*
X2045400D01*
X1922325Y2079699D02*
X2045400D01*
X1922925Y2078799D02*
X2045400D01*
X1923175Y2077899D02*
X2045400D01*
X1923161Y2076999D02*
X2045400D01*
X1922877Y2076099D02*
X2045400D01*
X1922224Y2075199D02*
X2045400D01*
X1845300Y2074299D02*
X2045400D01*
X1992293Y2073399D02*
X2045400D01*
X1993251Y2072499D02*
X2045400D01*
X1993775Y2071599D02*
X2045400D01*
X1994040Y2070699D02*
X2045400D01*
X1994095Y2069799D02*
X2045400D01*
X1993949Y2068899D02*
X2045400D01*
X1993578Y2067999D02*
X2045400D01*
X1992897Y2067099D02*
X2045400D01*
X1991536Y2066199D02*
X2045400D01*
X1878186Y2065299D02*
X2045400D01*
X1878143Y2064399D02*
X2045400D01*
X1992138Y2063499D02*
X2045400D01*
X1993171Y2062599D02*
X2045400D01*
X1993732Y2061699D02*
X2045400D01*
X1994021Y2060799D02*
X2045400D01*
X1994099Y2059899D02*
X2045400D01*
X1993976Y2058999D02*
X2045400D01*
X1993633Y2058099D02*
X2045400D01*
X1992994Y2057199D02*
X2045400D01*
X1991764Y2056299D02*
X2045400D01*
X1845300Y2055399D02*
X2045400D01*
X1845300Y2054499D02*
X2045400D01*
X1991965Y2053599D02*
X2045400D01*
X1993087Y2052699D02*
X2045400D01*
X1993684Y2051799D02*
X2045400D01*
X1994000Y2050899D02*
X2045400D01*
X1994100Y2049999D02*
X2045400D01*
X1994000Y2049099D02*
X2045400D01*
X1993683Y2048199D02*
X2045400D01*
X1993084Y2047299D02*
X2045400D01*
X1991960Y2046399D02*
X2045400D01*
X1845300Y2045499D02*
X2045400D01*
X1845300Y2044599D02*
X2045400D01*
X1991769Y2043699D02*
X2045400D01*
X1992996Y2042799D02*
X2045400D01*
X1993634Y2041899D02*
X2045400D01*
X1993977Y2040999D02*
X2045400D01*
X1994099Y2040099D02*
X2045400D01*
X1994021Y2039199D02*
X2045400D01*
X1993730Y2038299D02*
X2045400D01*
X1993169Y2037399D02*
X2045400D01*
X1992133Y2036499D02*
X2045400D01*
X1845300Y2035599D02*
X2045400D01*
X1845300Y2034699D02*
X2045400D01*
X1991543Y2033799D02*
X2045400D01*
X1992900Y2032899D02*
X2045400D01*
X1993580Y2031999D02*
X2045400D01*
X1993950Y2031099D02*
X2045400D01*
X1994095Y2030199D02*
X2045400D01*
X1994040Y2029299D02*
X2045400D01*
X1993774Y2028399D02*
X2045400D01*
X1993249Y2027499D02*
X2045400D01*
X1992289Y2026599D02*
X2045400D01*
X1845300Y2025699D02*
X2045400D01*
X1845300Y2024799D02*
X2045400D01*
X1991269Y2023899D02*
X2045400D01*
X1992796Y2022999D02*
X2045400D01*
X1993522Y2022099D02*
X2045400D01*
X1993921Y2021199D02*
X2045400D01*
X1994089Y2020299D02*
X2045400D01*
X1994056Y2019399D02*
X2045400D01*
X1993815Y2018499D02*
X2045400D01*
X1993323Y2017599D02*
X2045400D01*
X1992431Y2016699D02*
X2045400D01*
X1953884Y2015799D02*
X2045400D01*
X1845300Y2014899D02*
X2045400D01*
X1990906Y2013999D02*
X2045400D01*
X1992685Y2013099D02*
X2045400D01*
X1993461Y2012199D02*
X2045400D01*
X1993889Y2011299D02*
X2045400D01*
X1994081Y2010399D02*
X2045400D01*
X1994069Y2009499D02*
X2045400D01*
X1993853Y2008599D02*
X2045400D01*
X1993393Y2007699D02*
X2045400D01*
X1992562Y2006799D02*
X2045400D01*
X1845300Y2005899D02*
X2045400D01*
X1845300Y2004999D02*
X2045400D01*
X1990105Y2004099D02*
X2045400D01*
X1992565Y2003199D02*
X2045400D01*
X1993395Y2002299D02*
X2045400D01*
X1993854Y2001399D02*
X2045400D01*
X1994070Y2000499D02*
X2045400D01*
X1994080Y1999599D02*
X2045400D01*
X1993888Y1998699D02*
X2045400D01*
X1993459Y1997799D02*
X2045400D01*
X1992682Y1996899D02*
X2045400D01*
X1990894Y1995999D02*
X2045400D01*
X1967598Y1995099D02*
X2045400D01*
X1967473Y1994199D02*
X2045400D01*
X1992435Y1993299D02*
X2045400D01*
X1993325Y1992399D02*
X2045400D01*
X1993816Y1991499D02*
X2045400D01*
X1994056Y1990599D02*
X2045400D01*
X1994089Y1989699D02*
X2045400D01*
X1993920Y1988799D02*
X2045400D01*
X1993521Y1987899D02*
X2045400D01*
X1992793Y1986999D02*
X2045400D01*
X1991261Y1986099D02*
X2045400D01*
X1967592Y1985199D02*
X2045400D01*
X1967504Y1984299D02*
X2045400D01*
X1992293Y1983399D02*
X2045400D01*
X1993251Y1982499D02*
X2045400D01*
X1993775Y1981599D02*
X2045400D01*
X1994040Y1980699D02*
X2045400D01*
X1994095Y1979799D02*
X2045400D01*
X1993949Y1978899D02*
X2045400D01*
X1993578Y1977999D02*
X2045400D01*
X1992897Y1977099D02*
X2045400D01*
X1991536Y1976199D02*
X2045400D01*
X1845300Y1975299D02*
X2045400D01*
X1845300Y1974399D02*
X2045400D01*
X1845300Y1973499D02*
X2045400D01*
X1845300Y1972599D02*
X2045400D01*
X1845300Y1971699D02*
X2045400D01*
X1845300Y1970799D02*
X2045400D01*
X1845300Y1969899D02*
X2045400D01*
X1845300Y1968999D02*
X2045400D01*
X1845300Y1968099D02*
X2045400D01*
X1845300Y1967199D02*
X2045400D01*
X1845300Y1966299D02*
X2045400D01*
X1845300Y1965399D02*
X2045400D01*
X1845300Y1964499D02*
X2045400D01*
X1845300Y1963599D02*
X2045400D01*
X1881720Y1962699D02*
X2045400D01*
X1882647Y1961799D02*
X2045400D01*
X1883071Y1960899D02*
X2045400D01*
X1883200Y1959999D02*
X2045400D01*
X1883070Y1959099D02*
X2045400D01*
X1882645Y1958199D02*
X2045400D01*
X1881716Y1957299D02*
X2045400D01*
X1845300Y1956399D02*
X2045400D01*
X1845300Y1955499D02*
X2045400D01*
X1845300Y1954599D02*
X2045400D01*
X1845300Y1953699D02*
X2045400D01*
X1845300Y1952799D02*
X2045400D01*
X1845300Y1951899D02*
X2045400D01*
X1845300Y1950999D02*
X2045400D01*
X1845300Y1950099D02*
X2045400D01*
X1845300Y1949199D02*
X2045400D01*
X1845300Y1948299D02*
X2045400D01*
X1845300Y1947399D02*
X2045400D01*
X1845300Y1946499D02*
X2045400D01*
X1845300Y1945599D02*
X2045400D01*
X1845300Y1944699D02*
X2045400D01*
X1971543Y1943799D02*
X2045400D01*
X1972900Y1942899D02*
X2045400D01*
X1973580Y1941999D02*
X2045400D01*
X1973950Y1941099D02*
X2045400D01*
X1974095Y1940199D02*
X2045400D01*
X1974040Y1939299D02*
X2045400D01*
X1973774Y1938399D02*
X2045400D01*
X1988219Y1937499D02*
X2045400D01*
X1989550Y1936599D02*
X2045400D01*
X1990004Y1935699D02*
X2045400D01*
X1990092Y1934799D02*
X2045400D01*
X1989855Y1933899D02*
X2045400D01*
X1989160Y1932999D02*
X2045400D01*
X1973522Y1932099D02*
X2045400D01*
X1973921Y1931199D02*
X2045400D01*
X1974089Y1930299D02*
X2045400D01*
X1974056Y1929399D02*
X2045400D01*
X1973815Y1928499D02*
X2045400D01*
X1992583Y1927599D02*
X2045400D01*
X1994468Y1926699D02*
X2045400D01*
X1994974Y1925799D02*
X2045400D01*
X1995098Y1924899D02*
X2045400D01*
X1994899Y1923999D02*
X2045400D01*
X1994273Y1923099D02*
X2045400D01*
X1973461Y1922199D02*
X2045400D01*
X1973889Y1921299D02*
X2045400D01*
X1974081Y1920399D02*
X2045400D01*
X1974069Y1919499D02*
X2045400D01*
X1973853Y1918599D02*
X2045400D01*
X1973393Y1917699D02*
X2045400D01*
X1986877Y1916799D02*
X2045400D01*
X1987440Y1915899D02*
X2045400D01*
X1987600Y1914999D02*
X2045400D01*
X1987439Y1914099D02*
X2045400D01*
X1986875Y1913199D02*
X2045400D01*
X1973395Y1912299D02*
X2045400D01*
X1973854Y1911399D02*
X2045400D01*
X1974070Y1910499D02*
X2045400D01*
X1974080Y1909599D02*
X2045400D01*
X1973888Y1908699D02*
X2045400D01*
X1973459Y1907799D02*
X2045400D01*
X1972682Y1906899D02*
X2045400D01*
X1970894Y1905999D02*
X2045400D01*
X1845300Y1905099D02*
X2045400D01*
X1845300Y1904199D02*
X2045400D01*
X1974059Y1903299D02*
X2045400D01*
X1974100Y1902399D02*
X2045400D01*
X1974100Y1901499D02*
X2045400D01*
X1974100Y1900599D02*
X2045400D01*
X1974100Y1899699D02*
X2045400D01*
X1974100Y1898799D02*
X2045400D01*
X1974100Y1897899D02*
X2045400D01*
X1979163Y1896999D02*
X2045400D01*
X1979856Y1896099D02*
X2045400D01*
X1980092Y1895199D02*
X2045400D01*
X1980004Y1894299D02*
X2045400D01*
X1979548Y1893399D02*
X2045400D01*
X1978210Y1892499D02*
X2045400D01*
X1845300Y1891599D02*
X2045400D01*
X1845300Y1890699D02*
X2045400D01*
X1845300Y1889799D02*
X2045400D01*
X1845300Y1888899D02*
X2045400D01*
X1845300Y1887999D02*
X2045400D01*
X1845300Y1887099D02*
X2045400D01*
X1845300Y1886199D02*
X2045400D01*
X1845300Y1885299D02*
X2045400D01*
X1845300Y1884399D02*
X2045400D01*
X1845300Y1883499D02*
X2045400D01*
X1881867Y1882599D02*
X2045400D01*
X1882712Y1881699D02*
X2045400D01*
X1883099Y1880799D02*
X2045400D01*
X1883198Y1879899D02*
X2045400D01*
X1883039Y1878999D02*
X2045400D01*
X1882574Y1878099D02*
X2045400D01*
X1881547Y1877199D02*
X2045400D01*
X1845300Y1876299D02*
X2045400D01*
X1845300Y1875399D02*
X2045400D01*
X1845300Y1874499D02*
X2045400D01*
X1845300Y1873599D02*
X2045400D01*
X1845300Y1872699D02*
X2045400D01*
X1845300Y1871799D02*
X2045400D01*
X1845300Y1870899D02*
X2045400D01*
X1929503Y1869999D02*
X2045400D01*
X1930625Y1869099D02*
X2045400D01*
X1931030Y1868199D02*
X2045400D01*
X1931083Y1867299D02*
X2045400D01*
X1930806Y1866399D02*
X2045400D01*
X1930031Y1865499D02*
X2045400D01*
X1927488Y1864599D02*
X2045400D01*
X1928352Y1863699D02*
X2045400D01*
X1928669Y1862799D02*
X2045400D01*
X1928651Y1861899D02*
X2045400D01*
X1928290Y1860999D02*
X2045400D01*
X1946419Y1860099D02*
X2045400D01*
X1947750Y1859199D02*
X2045400D01*
X1948204Y1858299D02*
X2045400D01*
X1948292Y1857399D02*
X2045400D01*
X1948055Y1856499D02*
X2045400D01*
X2007592Y1855599D02*
X2045400D01*
X2009726Y1854699D02*
X2045400D01*
X2010378Y1853799D02*
X2045400D01*
X2010661Y1852899D02*
X2045400D01*
X2010675Y1851999D02*
X2045400D01*
X2010423Y1851099D02*
X2045400D01*
X2009823Y1850199D02*
X2045400D01*
X2008289Y1849299D02*
X2045400D01*
X1982964Y1848399D02*
X2045400D01*
X1983177Y1847499D02*
X2045400D01*
X1983046Y1846599D02*
X2045400D01*
X2015092Y1845699D02*
X2045400D01*
X2017226Y1844799D02*
X2045400D01*
X2017878Y1843899D02*
X2045400D01*
X2018161Y1842999D02*
X2045400D01*
X2018175Y1842099D02*
X2045400D01*
X2017923Y1841199D02*
X2045400D01*
X2017323Y1840299D02*
X2045400D01*
X2015789Y1839399D02*
X2045400D01*
X1986893Y1838499D02*
X2045400D01*
X1986185Y1837599D02*
X2045400D01*
X1943612Y1836699D02*
X2045400D01*
X2034168Y1835799D02*
X2045400D01*
X2038277Y1834899D02*
X2045400D01*
X2039911Y1833999D02*
X2045400D01*
X2041069Y1833099D02*
X2045400D01*
X2041961Y1832199D02*
X2045400D01*
X2042670Y1831299D02*
X2045400D01*
X2043238Y1830399D02*
X2045400D01*
X2043689Y1829499D02*
X2045400D01*
X2044040Y1828599D02*
X2045400D01*
X2044301Y1827699D02*
X2045400D01*
X2044479Y1826799D02*
X2045400D01*
X2044577Y1825899D02*
X2045400D01*
X2044598Y1824999D02*
X2045400D01*
X2044543Y1824099D02*
X2045400D01*
X2044409Y1823199D02*
X2045400D01*
X2044195Y1822299D02*
X2045400D01*
X2043895Y1821399D02*
X2045400D01*
X2043500Y1820499D02*
X2045400D01*
X2042999Y1819599D02*
X2045400D01*
X2042372Y1818699D02*
X2045400D01*
X2041588Y1817799D02*
X2045400D01*
X2040592Y1816899D02*
X2045400D01*
X2039263Y1815999D02*
X2045400D01*
X2037213Y1815099D02*
X2045400D01*
X1951892Y1814199D02*
X2045400D01*
X1951655Y1813299D02*
X2045400D01*
X1950960Y1812399D02*
X2045400D01*
X1943911Y1835799D02*
X2033832D01*
X1951804Y1815099D02*
X2030787D01*
X1944042Y1834899D02*
X2029723D01*
X1951350Y1815999D02*
X2028737D01*
X1944015Y1833999D02*
X2028089D01*
X1860521Y2231799D02*
X2027681D01*
X1950019Y1816899D02*
X2027408D01*
X1861571Y2211999D02*
X2027163D01*
X1943831Y1833099D02*
X2026931D01*
X1916652Y1817799D02*
X2026412D01*
X1943469Y1832199D02*
X2026039D01*
X1862567Y2230899D02*
X2025762D01*
X1915788Y1818699D02*
X2025628D01*
X1863207Y2212899D02*
X2025444D01*
X1986504Y1831299D02*
X2025330D01*
X1981795Y1819599D02*
X2025001D01*
X1987008Y1830399D02*
X2024762D01*
X1982802Y1820499D02*
X2024500D01*
X1863895Y2229999D02*
X2024481D01*
X1987110Y1829499D02*
X2024311D01*
X1864366Y2213799D02*
X2024247D01*
X1983145Y1821399D02*
X2024105D01*
X1986865Y1828599D02*
X2023960D01*
X1983129Y1822299D02*
X2023805D01*
X1986109Y1827699D02*
X2023699D01*
X1982744Y1823199D02*
X2023591D01*
X1881877Y1826799D02*
X2023521D01*
X1864891Y2229099D02*
X2023513D01*
X1981590Y1824099D02*
X2023457D01*
X1882440Y1825899D02*
X2023423D01*
X1882600Y1824999D02*
X2023402D01*
X1979493Y2214699D02*
X2023330D01*
X1865674Y2228199D02*
X2022749D01*
X1981745Y2215599D02*
X2022603D01*
X1893494Y2227299D02*
X2022138D01*
X1982823Y2216499D02*
X2022021D01*
X1980576Y2226399D02*
X2021649D01*
X1983529Y2217399D02*
X2021557D01*
X1982166Y2225499D02*
X2021266D01*
X1984007Y2218299D02*
X2021195D01*
X1983092Y2224599D02*
X2020976D01*
X1984312Y2219199D02*
X2020924D01*
X1983712Y2223699D02*
X2020771D01*
X1984470Y2220099D02*
X2020737D01*
X1984128Y2222799D02*
X2020647D01*
X1984493Y2220999D02*
X2020630D01*
X1984381Y2221899D02*
X2020600D01*
X1982497Y1845699D02*
X2014908D01*
X1987113Y1839399D02*
X2014211D01*
X1872600Y1844799D02*
X2012774D01*
X1986990Y1840299D02*
X2012677D01*
X1872439Y1843899D02*
X2012122D01*
X1986452Y1841199D02*
X2012077D01*
X1871875Y1842999D02*
X2011839D01*
X1845300Y1842099D02*
X2011825D01*
X1947360Y1855599D02*
X2007408D01*
X1982272Y1849299D02*
X2006711D01*
X1845300Y1854699D02*
X2005274D01*
X1845300Y1850199D02*
X2005177D01*
X1845300Y1853799D02*
X2004622D01*
X1845300Y1851099D02*
X2004577D01*
X1845300Y1852899D02*
X2004339D01*
X1845300Y1851999D02*
X2004325D01*
X1973323Y1927599D02*
X1992417D01*
X1972685Y1923099D02*
X1990727D01*
X1972431Y1926699D02*
X1990532D01*
X1970906Y1923999D02*
X1990101D01*
X1845300Y1925799D02*
X1990026D01*
X1845300Y1924899D02*
X1989902D01*
X1960105Y2004099D02*
X1989895D01*
X1967401Y1995999D02*
X1989106D01*
X1960906Y2013999D02*
X1989094D01*
X1967356Y1986099D02*
X1988739D01*
X1961269Y2023899D02*
X1988731D01*
X1961536Y2066199D02*
X1988464D01*
X1961536Y1976199D02*
X1988464D01*
X1961543Y2033799D02*
X1988457D01*
X1961764Y2056299D02*
X1988236D01*
X1961769Y2043699D02*
X1988231D01*
X1961960Y2046399D02*
X1988040D01*
X1961965Y2053599D02*
X1988035D01*
X1962133Y2036499D02*
X1987867D01*
X1962138Y2063499D02*
X1987862D01*
X1962289Y2026599D02*
X1987711D01*
X1962293Y2073399D02*
X1987707D01*
X1967048Y1983399D02*
X1987707D01*
X1962431Y2016699D02*
X1987569D01*
X1966966Y1993299D02*
X1987565D01*
X1962562Y2006799D02*
X1987438D01*
X1962565Y2003199D02*
X1987435D01*
X1966776Y1996899D02*
X1987318D01*
X1962685Y2013099D02*
X1987315D01*
X1966663Y1986999D02*
X1987207D01*
X1962796Y2022999D02*
X1987204D01*
X1962897Y2067099D02*
X1987103D01*
X1962897Y1977099D02*
X1987103D01*
X1962900Y2032899D02*
X1987100D01*
X1962994Y2057199D02*
X1987006D01*
X1962996Y2042799D02*
X1987004D01*
X1963084Y2047299D02*
X1986916D01*
X1963087Y2052699D02*
X1986913D01*
X1963169Y2037399D02*
X1986831D01*
X1963171Y2062599D02*
X1986829D01*
X1973249Y1937499D02*
X1986781D01*
X1963249Y2027499D02*
X1986751D01*
X1963251Y2072499D02*
X1986749D01*
X1965710Y1982499D02*
X1986749D01*
X1963323Y2017599D02*
X1986677D01*
X1963325Y1992399D02*
X1986675D01*
X1963393Y2007699D02*
X1986607D01*
X1963395Y2002299D02*
X1986605D01*
X1963459Y1997799D02*
X1986541D01*
X1963461Y2012199D02*
X1986539D01*
X1963521Y1987899D02*
X1986479D01*
X1963522Y2022099D02*
X1986478D01*
X1963578Y2067999D02*
X1986422D01*
X1963578Y1977999D02*
X1986422D01*
X1963580Y2031999D02*
X1986420D01*
X1963633Y2058099D02*
X1986367D01*
X1963634Y2041899D02*
X1986366D01*
X1963683Y2048199D02*
X1986317D01*
X1963684Y2051799D02*
X1986316D01*
X1963730Y2038299D02*
X1986270D01*
X1963732Y2061699D02*
X1986268D01*
X1963774Y2028399D02*
X1986226D01*
X1963775Y2071599D02*
X1986225D01*
X1963775Y1981599D02*
X1986225D01*
X1963815Y2018499D02*
X1986185D01*
X1963816Y1991499D02*
X1986184D01*
X1963853Y2008599D02*
X1986147D01*
X1963854Y2001399D02*
X1986146D01*
X1963888Y1998699D02*
X1986112D01*
X1963889Y2011299D02*
X1986111D01*
X1963920Y1988799D02*
X1986080D01*
X1963921Y2021199D02*
X1986079D01*
X1963949Y2068899D02*
X1986051D01*
X1963949Y1978899D02*
X1986051D01*
X1963950Y2031099D02*
X1986050D01*
X1963976Y2058999D02*
X1986024D01*
X1963977Y2040999D02*
X1986023D01*
X1964000Y2049099D02*
X1986000D01*
X1964000Y2050899D02*
X1986000D01*
X1964021Y2039199D02*
X1985979D01*
X1964021Y2060799D02*
X1985979D01*
X1964040Y2029299D02*
X1985960D01*
X1964040Y2070699D02*
X1985960D01*
X1964040Y1980699D02*
X1985960D01*
X1964056Y2019399D02*
X1985944D01*
X1964056Y1990599D02*
X1985944D01*
X1964069Y2009499D02*
X1985931D01*
X1964070Y2000499D02*
X1985930D01*
X1964080Y1999599D02*
X1985920D01*
X1964081Y2010399D02*
X1985919D01*
X1964089Y1989699D02*
X1985911D01*
X1964089Y2020299D02*
X1985911D01*
X1964095Y2069799D02*
X1985905D01*
X1964095Y1979799D02*
X1985905D01*
X1964095Y2030199D02*
X1985905D01*
X1964099Y2059899D02*
X1985901D01*
X1964099Y2040099D02*
X1985901D01*
X1964100Y2049999D02*
X1985900D01*
X1972796Y1932999D02*
X1985840D01*
X1972289Y1936599D02*
X1985450D01*
X1971269Y1933899D02*
X1985145D01*
X1845300Y1935699D02*
X1984996D01*
X1845300Y1934799D02*
X1984908D01*
X1978235Y1827699D02*
X1983223D01*
X1978311Y1837599D02*
X1983147D01*
X1972565Y1913199D02*
X1983125D01*
X1972562Y1916799D02*
X1983123D01*
X1978578Y1841199D02*
X1982880D01*
X1978630Y1831299D02*
X1982828D01*
X1970105Y1914099D02*
X1982561D01*
X1845300Y1915899D02*
X1982560D01*
X1978991Y1828599D02*
X1982467D01*
X1979019Y1838499D02*
X1982440D01*
X1845300Y1914999D02*
X1982400D01*
X1979116Y1840299D02*
X1982343D01*
X1979134Y1830399D02*
X1982324D01*
X1979236Y1829499D02*
X1982223D01*
X1979239Y1839399D02*
X1982219D01*
X1973716Y1824099D02*
X1979869D01*
X1973921Y1819599D02*
X1979663D01*
X1974398Y1849299D02*
X1979187D01*
X1974623Y1845699D02*
X1978962D01*
X1974870Y1823199D02*
X1978714D01*
X1974928Y1820499D02*
X1978656D01*
X1975090Y1848399D02*
X1978494D01*
X1975172Y1846599D02*
X1978412D01*
X1975255Y1822299D02*
X1978329D01*
X1975271Y1821399D02*
X1978313D01*
X1975303Y1847499D02*
X1978281D01*
X1865259Y2214699D02*
X1977307D01*
X1845300Y1892499D02*
X1976790D01*
X1895235Y2226399D02*
X1976224D01*
X1895366Y2166099D02*
X1975978D01*
X1974100Y1896999D02*
X1975837D01*
X1845300Y1893399D02*
X1975452D01*
X1970361Y1827699D02*
X1975349D01*
X1970437Y1837599D02*
X1975273D01*
X1892693Y2155299D02*
X1975213D01*
X1973631Y1896099D02*
X1975144D01*
X1893144Y2215599D02*
X1975055D01*
X1970704Y1841199D02*
X1975006D01*
X1845300Y1894299D02*
X1974996D01*
X1970756Y1831299D02*
X1974954D01*
X1845300Y1895199D02*
X1974908D01*
X1896207Y2225499D02*
X1974634D01*
X1971117Y1828599D02*
X1974593D01*
X1971145Y1838499D02*
X1974566D01*
X1896292Y2165199D02*
X1974510D01*
X1971242Y1840299D02*
X1974469D01*
X1971260Y1830399D02*
X1974450D01*
X1971362Y1829499D02*
X1974349D01*
X1971365Y1839399D02*
X1974345D01*
X1894945Y2156199D02*
X1974075D01*
X1895092Y2216499D02*
X1973977D01*
X1896854Y2224599D02*
X1973708D01*
X1896912Y2164299D02*
X1973627D01*
X1896023Y2157099D02*
X1973336D01*
X1896115Y2217399D02*
X1973271D01*
X1897290Y2223699D02*
X1973088D01*
X1897328Y2163399D02*
X1973033D01*
X1896729Y2157999D02*
X1972836D01*
X1896792Y2218299D02*
X1972793D01*
X1897560Y2222799D02*
X1972672D01*
X1897581Y2162499D02*
X1972637D01*
X1897207Y2158899D02*
X1972514D01*
X1897249Y2219199D02*
X1972488D01*
X1897687Y2221899D02*
X1972419D01*
X1897693Y2161599D02*
X1972400D01*
X1897512Y2159799D02*
X1972340D01*
X1897537Y2220099D02*
X1972330D01*
X1897679Y2220999D02*
X1972307D01*
X1897670Y2160699D02*
X1972303D01*
X1965842Y1824099D02*
X1971995D01*
X1966047Y1819599D02*
X1971789D01*
X1966524Y1849299D02*
X1971313D01*
X1966749Y1845699D02*
X1971088D01*
X1966996Y1823199D02*
X1970840D01*
X1967054Y1820499D02*
X1970782D01*
X1967216Y1848399D02*
X1970620D01*
X1967298Y1846599D02*
X1970538D01*
X1967381Y1822299D02*
X1970455D01*
X1967397Y1821399D02*
X1970439D01*
X1967429Y1847499D02*
X1970407D01*
X1897504Y2093199D02*
X1969908D01*
X1960105Y1914099D02*
X1969895D01*
X1896776Y2086899D02*
X1969211D01*
X1960894Y1905999D02*
X1969106D01*
X1960906Y1923999D02*
X1969094D01*
X1961269Y1933899D02*
X1968731D01*
X1961543Y1943799D02*
X1968457D01*
X1921547Y2124699D02*
X1968453D01*
X1900686Y2110299D02*
X1968448D01*
X1945698Y2104899D02*
X1968136D01*
X1963198Y2130099D02*
X1968133D01*
X1897592Y2092299D02*
X1967774D01*
X1962289Y1936599D02*
X1967711D01*
X1845300Y2087799D02*
X1967677D01*
X1962431Y1926699D02*
X1967569D01*
X1962487Y1827699D02*
X1967475D01*
X1962562Y1916799D02*
X1967438D01*
X1962565Y1913199D02*
X1967435D01*
X1922574Y2125599D02*
X1967426D01*
X1900643Y2109399D02*
X1967424D01*
X1962563Y1837599D02*
X1967399D01*
X1962682Y1906899D02*
X1967318D01*
X1962685Y1923099D02*
X1967315D01*
X1945599Y2105799D02*
X1967290D01*
X1963098Y2129199D02*
X1967288D01*
X1962796Y1932999D02*
X1967204D01*
X1962830Y1841199D02*
X1967132D01*
X1897355Y2091399D02*
X1967122D01*
X1962900Y1942899D02*
X1967100D01*
X1962882Y1831299D02*
X1967080D01*
X1845300Y2088699D02*
X1967077D01*
X1923039Y2126499D02*
X1966961D01*
X1900326Y2108499D02*
X1966960D01*
X1945212Y2106699D02*
X1966902D01*
X1962710Y2128299D02*
X1966901D01*
X1896660Y2090499D02*
X1966839D01*
X1845300Y2089599D02*
X1966825D01*
X1961864Y2127399D02*
X1966802D01*
X1944367Y2107599D02*
X1966802D01*
X1963249Y1937499D02*
X1966751D01*
X1963243Y1828599D02*
X1966719D01*
X1963271Y1838499D02*
X1966692D01*
X1963323Y1927599D02*
X1966677D01*
X1963393Y1917699D02*
X1966607D01*
X1963395Y1912299D02*
X1966605D01*
X1963367Y1840299D02*
X1966595D01*
X1963386Y1830399D02*
X1966576D01*
X1963459Y1907799D02*
X1966541D01*
X1963461Y1922199D02*
X1966539D01*
X1963522Y1932099D02*
X1966478D01*
X1963487Y1829499D02*
X1966475D01*
X1963491Y1839399D02*
X1966471D01*
X1963580Y1941999D02*
X1966420D01*
X1961261Y1896099D02*
X1966369D01*
X1963774Y1938399D02*
X1966226D01*
X1963815Y1928499D02*
X1966185D01*
X1963853Y1918599D02*
X1966147D01*
X1963854Y1911399D02*
X1966146D01*
X1963888Y1908699D02*
X1966112D01*
X1963889Y1921299D02*
X1966111D01*
X1963921Y1931199D02*
X1966079D01*
X1963950Y1941099D02*
X1966050D01*
X1964040Y1939299D02*
X1965960D01*
X1964056Y1929399D02*
X1965944D01*
X1962435Y1903299D02*
X1965941D01*
X1964069Y1919499D02*
X1965931D01*
X1964070Y1910499D02*
X1965930D01*
X1964080Y1909599D02*
X1965920D01*
X1964081Y1920399D02*
X1965919D01*
X1964089Y1930299D02*
X1965911D01*
X1964095Y1940199D02*
X1965905D01*
X1963325Y1902399D02*
X1965900D01*
X1963816Y1901499D02*
X1965900D01*
X1964056Y1900599D02*
X1965900D01*
X1964089Y1899699D02*
X1965900D01*
X1963920Y1898799D02*
X1965900D01*
X1963521Y1897899D02*
X1965900D01*
X1962793Y1896999D02*
X1965900D01*
X1963251Y1982499D02*
X1964290D01*
X1957968Y1824099D02*
X1964121D01*
X1958173Y1819599D02*
X1963915D01*
X1958650Y1849299D02*
X1963438D01*
X1962793Y1986999D02*
X1963337D01*
X1962682Y1996899D02*
X1963224D01*
X1958875Y1845699D02*
X1963214D01*
X1962435Y1993299D02*
X1963034D01*
X1959122Y1823199D02*
X1962966D01*
X1962293Y1983399D02*
X1962952D01*
X1959180Y1820499D02*
X1962908D01*
X1959342Y1848399D02*
X1962746D01*
X1959424Y1846599D02*
X1962664D01*
X1961261Y1986099D02*
X1962644D01*
X1960894Y1995999D02*
X1962599D01*
X1959507Y1822299D02*
X1962581D01*
X1959523Y1821399D02*
X1962565D01*
X1959555Y1847499D02*
X1962533D01*
X1929973Y1994199D02*
X1962527D01*
X1845300Y1984299D02*
X1962496D01*
X1906210Y1985199D02*
X1962408D01*
X1930098Y1995099D02*
X1962402D01*
X1940105Y2004099D02*
X1959895D01*
X1920105Y1914099D02*
X1959895D01*
X1954613Y1827699D02*
X1959601D01*
X1954689Y1837599D02*
X1959525D01*
X1954956Y1841199D02*
X1959258D01*
X1955008Y1831299D02*
X1959206D01*
X1940894Y1995999D02*
X1959106D01*
X1920894Y1905999D02*
X1959106D01*
X1940906Y2013999D02*
X1959094D01*
X1920906Y1923999D02*
X1959094D01*
X1955369Y1828599D02*
X1958845D01*
X1955396Y1838499D02*
X1958818D01*
X1941261Y1986099D02*
X1958739D01*
X1921261Y1896099D02*
X1958739D01*
X1941269Y2023899D02*
X1958731D01*
X1921269Y1933899D02*
X1958731D01*
X1955493Y1840299D02*
X1958721D01*
X1955512Y1830399D02*
X1958702D01*
X1955613Y1829499D02*
X1958601D01*
X1955617Y1839399D02*
X1958597D01*
X1941536Y2066199D02*
X1958464D01*
X1941536Y1976199D02*
X1958464D01*
X1941543Y2033799D02*
X1958457D01*
X1921543Y1943799D02*
X1958457D01*
X1941552Y2132799D02*
X1958448D01*
X1941764Y2056299D02*
X1958236D01*
X1941769Y2043699D02*
X1958231D01*
X1941864Y2127399D02*
X1958136D01*
X1941960Y2046399D02*
X1958040D01*
X1941965Y2053599D02*
X1958035D01*
X1942133Y2036499D02*
X1957867D01*
X1942138Y2063499D02*
X1957862D01*
X1942289Y2026599D02*
X1957711D01*
X1922289Y1936599D02*
X1957711D01*
X1942293Y2073399D02*
X1957707D01*
X1942293Y1983399D02*
X1957707D01*
X1954751Y2016699D02*
X1957569D01*
X1922431Y1926699D02*
X1957569D01*
X1942435Y1993299D02*
X1957565D01*
X1922435Y1903299D02*
X1957565D01*
X1942562Y2006799D02*
X1957438D01*
X1922562Y1916799D02*
X1957438D01*
X1942565Y2003199D02*
X1957435D01*
X1922565Y1913199D02*
X1957435D01*
X1942576Y2131899D02*
X1957424D01*
X1942682Y1996899D02*
X1957318D01*
X1922682Y1906899D02*
X1957318D01*
X1942685Y2013099D02*
X1957315D01*
X1922685Y1923099D02*
X1957315D01*
X1942710Y2128299D02*
X1957290D01*
X1942793Y1986999D02*
X1957207D01*
X1922793Y1896999D02*
X1957207D01*
X1942796Y2022999D02*
X1957204D01*
X1922796Y1932999D02*
X1957204D01*
X1942897Y2067099D02*
X1957103D01*
X1942897Y1977099D02*
X1957103D01*
X1942900Y2032899D02*
X1957100D01*
X1922900Y1942899D02*
X1957100D01*
X1942994Y2057199D02*
X1957006D01*
X1942996Y2042799D02*
X1957004D01*
X1943040Y2130999D02*
X1956960D01*
X1943084Y2047299D02*
X1956916D01*
X1943087Y2052699D02*
X1956913D01*
X1943098Y2129199D02*
X1956902D01*
X1943169Y2037399D02*
X1956831D01*
X1943171Y2062599D02*
X1956829D01*
X1943198Y2130099D02*
X1956802D01*
X1943249Y2027499D02*
X1956751D01*
X1923249Y1937499D02*
X1956751D01*
X1943251Y2072499D02*
X1956749D01*
X1943251Y1982499D02*
X1956749D01*
X1955069Y2017599D02*
X1956677D01*
X1923323Y1927599D02*
X1956677D01*
X1943325Y1992399D02*
X1956675D01*
X1923325Y1902399D02*
X1956675D01*
X1943393Y2007699D02*
X1956607D01*
X1923393Y1917699D02*
X1956607D01*
X1943395Y2002299D02*
X1956605D01*
X1923395Y1912299D02*
X1956605D01*
X1943459Y1997799D02*
X1956541D01*
X1923459Y1907799D02*
X1956541D01*
X1943461Y2012199D02*
X1956539D01*
X1923461Y1922199D02*
X1956539D01*
X1943521Y1987899D02*
X1956479D01*
X1923521Y1897899D02*
X1956479D01*
X1943522Y2022099D02*
X1956478D01*
X1923522Y1932099D02*
X1956478D01*
X1943578Y2067999D02*
X1956422D01*
X1943578Y1977999D02*
X1956422D01*
X1943580Y2031999D02*
X1956420D01*
X1923580Y1941999D02*
X1956420D01*
X1943633Y2058099D02*
X1956367D01*
X1943634Y2041899D02*
X1956366D01*
X1943683Y2048199D02*
X1956317D01*
X1943684Y2051799D02*
X1956316D01*
X1943730Y2038299D02*
X1956270D01*
X1943732Y2061699D02*
X1956268D01*
X1950093Y1824099D02*
X1956247D01*
X1943774Y2028399D02*
X1956226D01*
X1923774Y1938399D02*
X1956226D01*
X1943775Y2071599D02*
X1956225D01*
X1943775Y1981599D02*
X1956225D01*
X1955052Y2018499D02*
X1956185D01*
X1923815Y1928499D02*
X1956185D01*
X1943816Y1991499D02*
X1956184D01*
X1923816Y1901499D02*
X1956184D01*
X1943853Y2008599D02*
X1956147D01*
X1923853Y1918599D02*
X1956147D01*
X1943854Y2001399D02*
X1956146D01*
X1923854Y1911399D02*
X1956146D01*
X1943888Y1998699D02*
X1956112D01*
X1923888Y1908699D02*
X1956112D01*
X1943889Y2011299D02*
X1956111D01*
X1923889Y1921299D02*
X1956111D01*
X1943920Y1988799D02*
X1956080D01*
X1923920Y1898799D02*
X1956080D01*
X1943921Y2021199D02*
X1956079D01*
X1923921Y1931199D02*
X1956079D01*
X1943949Y2068899D02*
X1956051D01*
X1943949Y1978899D02*
X1956051D01*
X1943950Y2031099D02*
X1956050D01*
X1923950Y1941099D02*
X1956050D01*
X1950299Y1819599D02*
X1956041D01*
X1943976Y2058999D02*
X1956024D01*
X1943977Y2040999D02*
X1956023D01*
X1944000Y2049099D02*
X1956000D01*
X1944000Y2050899D02*
X1956000D01*
X1944021Y2039199D02*
X1955979D01*
X1944021Y2060799D02*
X1955979D01*
X1944040Y2029299D02*
X1955960D01*
X1924040Y1939299D02*
X1955960D01*
X1944040Y2070699D02*
X1955960D01*
X1944040Y1980699D02*
X1955960D01*
X1954692Y2019399D02*
X1955944D01*
X1924056Y1929399D02*
X1955944D01*
X1944056Y1990599D02*
X1955944D01*
X1924056Y1900599D02*
X1955944D01*
X1944069Y2009499D02*
X1955931D01*
X1924069Y1919499D02*
X1955931D01*
X1944070Y2000499D02*
X1955930D01*
X1924070Y1910499D02*
X1955930D01*
X1944080Y1999599D02*
X1955920D01*
X1924080Y1909599D02*
X1955920D01*
X1944081Y2010399D02*
X1955919D01*
X1924081Y1920399D02*
X1955919D01*
X1944089Y1989699D02*
X1955911D01*
X1924089Y1899699D02*
X1955911D01*
X1953715Y2020299D02*
X1955911D01*
X1924089Y1930299D02*
X1955911D01*
X1944095Y2069799D02*
X1955905D01*
X1944095Y1979799D02*
X1955905D01*
X1944095Y2030199D02*
X1955905D01*
X1924095Y1940199D02*
X1955905D01*
X1944099Y2059899D02*
X1955901D01*
X1944099Y2040099D02*
X1955901D01*
X1944100Y2049999D02*
X1955900D01*
X1950776Y1849299D02*
X1955564D01*
X1951001Y1845699D02*
X1955340D01*
X1951248Y1823199D02*
X1955092D01*
X1951306Y1820499D02*
X1955034D01*
X1951468Y1848399D02*
X1954872D01*
X1951550Y1846599D02*
X1954790D01*
X1951633Y1822299D02*
X1954707D01*
X1951649Y1821399D02*
X1954691D01*
X1951681Y1847499D02*
X1954659D01*
X1946739Y1827699D02*
X1951727D01*
X1946815Y1837599D02*
X1951651D01*
X1947082Y1841199D02*
X1951384D01*
X1947134Y1831299D02*
X1951332D01*
X1944089Y2020299D02*
X1951285D01*
X1861966Y2015799D02*
X1951116D01*
X1947495Y1828599D02*
X1950971D01*
X1947522Y1838499D02*
X1950944D01*
X1947619Y1840299D02*
X1950847D01*
X1947638Y1830399D02*
X1950828D01*
X1947739Y1829499D02*
X1950727D01*
X1947743Y1839399D02*
X1950723D01*
X1944056Y2019399D02*
X1950308D01*
X1942431Y2016699D02*
X1950249D01*
X1943815Y2018499D02*
X1949948D01*
X1943323Y2017599D02*
X1949931D01*
X1916969Y1816899D02*
X1948581D01*
X1934345Y1824099D02*
X1948373D01*
X1934551Y1819599D02*
X1948167D01*
X1935028Y1849299D02*
X1947690D01*
X1845300Y1812399D02*
X1947640D01*
X1935253Y1845699D02*
X1947466D01*
X1916951Y1815999D02*
X1947250D01*
X1935500Y1823199D02*
X1947218D01*
X1935558Y1820499D02*
X1947160D01*
X1935720Y1848399D02*
X1946998D01*
X1845300Y1813299D02*
X1946945D01*
X1935802Y1846599D02*
X1946916D01*
X1935885Y1822299D02*
X1946833D01*
X1935901Y1821399D02*
X1946817D01*
X1916590Y1815099D02*
X1946796D01*
X1935933Y1847499D02*
X1946785D01*
X1915610Y1814199D02*
X1946708D01*
X1927310Y1860099D02*
X1944981D01*
X1845300Y1855599D02*
X1944040D01*
X1930991Y1827699D02*
X1943853D01*
X1943109Y1837599D02*
X1943777D01*
X1863098Y1859199D02*
X1943650D01*
X1931334Y1841199D02*
X1943510D01*
X1942882Y1831299D02*
X1943458D01*
X1845300Y1856499D02*
X1943345D01*
X1862710Y1858299D02*
X1943196D01*
X1861864Y1857399D02*
X1943108D01*
X1931747Y1828599D02*
X1943097D01*
X1942316Y1838499D02*
X1943070D01*
X1931871Y1840299D02*
X1942973D01*
X1941948Y1830399D02*
X1942954D01*
X1940041Y1829499D02*
X1942853D01*
X1940930Y1839399D02*
X1942849D01*
X1845300Y2102199D02*
X1940953D01*
X1899615Y2107599D02*
X1940633D01*
X1845300Y2103099D02*
X1939926D01*
X1920105Y2004099D02*
X1939895D01*
X1845300Y2106699D02*
X1939788D01*
X1845300Y2103999D02*
X1939461D01*
X1845300Y2105799D02*
X1939401D01*
X1845300Y2104899D02*
X1939302D01*
X1929901Y1995999D02*
X1939106D01*
X1920906Y2013999D02*
X1939094D01*
X1921261Y1986099D02*
X1938739D01*
X1921269Y2023899D02*
X1938731D01*
X1921536Y2066199D02*
X1938464D01*
X1921536Y1976199D02*
X1938464D01*
X1921543Y2033799D02*
X1938457D01*
X1881552Y2132799D02*
X1938448D01*
X1921764Y2056299D02*
X1938236D01*
X1921769Y2043699D02*
X1938231D01*
X1923198Y2127399D02*
X1938136D01*
X1921960Y2046399D02*
X1938040D01*
X1921965Y2053599D02*
X1938035D01*
X1922133Y2036499D02*
X1937867D01*
X1922138Y2063499D02*
X1937862D01*
X1922289Y2026599D02*
X1937711D01*
X1922293Y2073399D02*
X1937707D01*
X1922293Y1983399D02*
X1937707D01*
X1922431Y2016699D02*
X1937569D01*
X1929466Y1993299D02*
X1937565D01*
X1931991Y1829499D02*
X1937559D01*
X1922562Y2006799D02*
X1937438D01*
X1922565Y2003199D02*
X1937435D01*
X1882576Y2131899D02*
X1937424D01*
X1929276Y1996899D02*
X1937318D01*
X1922685Y2013099D02*
X1937315D01*
X1923099Y2128299D02*
X1937290D01*
X1922793Y1986999D02*
X1937207D01*
X1922796Y2022999D02*
X1937204D01*
X1922897Y2067099D02*
X1937103D01*
X1922897Y1977099D02*
X1937103D01*
X1922900Y2032899D02*
X1937100D01*
X1922994Y2057199D02*
X1937006D01*
X1922996Y2042799D02*
X1937004D01*
X1883040Y2130999D02*
X1936960D01*
X1923084Y2047299D02*
X1936916D01*
X1923087Y2052699D02*
X1936913D01*
X1922712Y2129199D02*
X1936902D01*
X1923169Y2037399D02*
X1936831D01*
X1923171Y2062599D02*
X1936829D01*
X1921867Y2130099D02*
X1936802D01*
X1923249Y2027499D02*
X1936751D01*
X1923251Y2072499D02*
X1936749D01*
X1923251Y1982499D02*
X1936749D01*
X1923323Y2017599D02*
X1936677D01*
X1923325Y1992399D02*
X1936675D01*
X1931995Y1839399D02*
X1936670D01*
X1923393Y2007699D02*
X1936607D01*
X1923395Y2002299D02*
X1936605D01*
X1923459Y1997799D02*
X1936541D01*
X1923461Y2012199D02*
X1936539D01*
X1923521Y1987899D02*
X1936479D01*
X1923522Y2022099D02*
X1936478D01*
X1923578Y2067999D02*
X1936422D01*
X1923578Y1977999D02*
X1936422D01*
X1923580Y2031999D02*
X1936420D01*
X1923633Y2058099D02*
X1936367D01*
X1923634Y2041899D02*
X1936366D01*
X1923683Y2048199D02*
X1936317D01*
X1923684Y2051799D02*
X1936316D01*
X1923730Y2038299D02*
X1936270D01*
X1923732Y2061699D02*
X1936268D01*
X1923774Y2028399D02*
X1936226D01*
X1923775Y2071599D02*
X1936225D01*
X1923775Y1981599D02*
X1936225D01*
X1923815Y2018499D02*
X1936185D01*
X1923816Y1991499D02*
X1936184D01*
X1923853Y2008599D02*
X1936147D01*
X1923854Y2001399D02*
X1936146D01*
X1923888Y1998699D02*
X1936112D01*
X1923889Y2011299D02*
X1936111D01*
X1923920Y1988799D02*
X1936080D01*
X1923921Y2021199D02*
X1936079D01*
X1923949Y2068899D02*
X1936051D01*
X1923949Y1978899D02*
X1936051D01*
X1923950Y2031099D02*
X1936050D01*
X1923976Y2058999D02*
X1936024D01*
X1923977Y2040999D02*
X1936023D01*
X1924000Y2049099D02*
X1936000D01*
X1924000Y2050899D02*
X1936000D01*
X1924021Y2039199D02*
X1935979D01*
X1924021Y2060799D02*
X1935979D01*
X1924040Y2029299D02*
X1935960D01*
X1924040Y2070699D02*
X1935960D01*
X1924040Y1980699D02*
X1935960D01*
X1924056Y2019399D02*
X1935944D01*
X1924056Y1990599D02*
X1935944D01*
X1924069Y2009499D02*
X1935931D01*
X1924070Y2000499D02*
X1935930D01*
X1924080Y1999599D02*
X1935920D01*
X1924081Y2010399D02*
X1935919D01*
X1924089Y1989699D02*
X1935911D01*
X1924089Y2020299D02*
X1935911D01*
X1924095Y2069799D02*
X1935905D01*
X1924095Y1979799D02*
X1935905D01*
X1924095Y2030199D02*
X1935905D01*
X1924099Y2059899D02*
X1935901D01*
X1924099Y2040099D02*
X1935901D01*
X1924100Y2049999D02*
X1935900D01*
X1931890Y1830399D02*
X1935652D01*
X1931774Y1838499D02*
X1935284D01*
X1931386Y1831299D02*
X1934718D01*
X1931067Y1837599D02*
X1934491D01*
X1907445Y1832199D02*
X1934131D01*
X1907589Y1836699D02*
X1933988D01*
X1907807Y1833099D02*
X1933769D01*
X1907888Y1835799D02*
X1933689D01*
X1907992Y1833999D02*
X1933585D01*
X1908018Y1834899D02*
X1933558D01*
X1926471Y1824099D02*
X1932625D01*
X1926677Y1819599D02*
X1932419D01*
X1927154Y1849299D02*
X1931942D01*
X1927379Y1845699D02*
X1931718D01*
X1927626Y1823199D02*
X1931470D01*
X1927684Y1820499D02*
X1931412D01*
X1927846Y1848399D02*
X1931250D01*
X1927928Y1846599D02*
X1931168D01*
X1928011Y1822299D02*
X1931085D01*
X1928027Y1821399D02*
X1931069D01*
X1928059Y1847499D02*
X1931037D01*
X1923117Y1827699D02*
X1928105D01*
X1923193Y1837599D02*
X1928029D01*
X1923460Y1841199D02*
X1927762D01*
X1923512Y1831299D02*
X1927710D01*
X1845300Y1869999D02*
X1927497D01*
X1923873Y1828599D02*
X1927349D01*
X1923900Y1838499D02*
X1927322D01*
X1923997Y1840299D02*
X1927225D01*
X1924016Y1830399D02*
X1927206D01*
X1924117Y1829499D02*
X1927105D01*
X1924121Y1839399D02*
X1927101D01*
X1845300Y1865499D02*
X1926969D01*
X1845300Y1869099D02*
X1926375D01*
X1845300Y1866399D02*
X1926194D01*
X1845300Y1868199D02*
X1925970D01*
X1845300Y1867299D02*
X1925917D01*
X1922682Y1996899D02*
X1925724D01*
X1922435Y1993299D02*
X1925534D01*
X1920894Y1995999D02*
X1925099D01*
X1845300Y1994199D02*
X1925027D01*
X1845300Y1995099D02*
X1924902D01*
X1863198Y1860099D02*
X1924890D01*
X1918597Y1824099D02*
X1924751D01*
X1845300Y1864599D02*
X1924712D01*
X1918803Y1819599D02*
X1924545D01*
X1919280Y1849299D02*
X1924068D01*
X1863040Y1860999D02*
X1923910D01*
X1845300Y1863699D02*
X1923848D01*
X1919505Y1845699D02*
X1923843D01*
X1919752Y1823199D02*
X1923596D01*
X1862576Y1861899D02*
X1923549D01*
X1919810Y1820499D02*
X1923538D01*
X1861552Y1862799D02*
X1923531D01*
X1919972Y1848399D02*
X1923376D01*
X1920054Y1846599D02*
X1923294D01*
X1920137Y1822299D02*
X1923211D01*
X1920153Y1821399D02*
X1923195D01*
X1920185Y1847499D02*
X1923163D01*
X1915243Y1827699D02*
X1920231D01*
X1915319Y1837599D02*
X1920155D01*
X1845300Y2004099D02*
X1919895D01*
X1910105Y1914099D02*
X1919895D01*
X1915586Y1841199D02*
X1919888D01*
X1915638Y1831299D02*
X1919836D01*
X1915999Y1828599D02*
X1919475D01*
X1916026Y1838499D02*
X1919448D01*
X1916123Y1840299D02*
X1919351D01*
X1916142Y1830399D02*
X1919332D01*
X1916243Y1829499D02*
X1919231D01*
X1916247Y1839399D02*
X1919227D01*
X1903144Y2080599D02*
X1919201D01*
X1845300Y1995999D02*
X1919106D01*
X1910894Y1905999D02*
X1919106D01*
X1845300Y2013999D02*
X1919094D01*
X1910906Y1923999D02*
X1919094D01*
X1907190Y1986099D02*
X1918739D01*
X1911261Y1896099D02*
X1918739D01*
X1845300Y2023899D02*
X1918731D01*
X1911269Y1933899D02*
X1918731D01*
X1877967Y2066199D02*
X1918464D01*
X1845300Y1976199D02*
X1918464D01*
X1845300Y2033799D02*
X1918457D01*
X1914059Y1943799D02*
X1918457D01*
X1901547Y2124699D02*
X1918453D01*
X1845300Y2056299D02*
X1918236D01*
X1845300Y2043699D02*
X1918231D01*
X1901867Y2130099D02*
X1918133D01*
X1845300Y2046399D02*
X1918040D01*
X1845300Y2053599D02*
X1918035D01*
X1845300Y2036499D02*
X1917867D01*
X1877826Y2063499D02*
X1917862D01*
X1845300Y2075199D02*
X1917776D01*
X1845300Y2026599D02*
X1917711D01*
X1914100Y1936599D02*
X1917711D01*
X1845300Y2073399D02*
X1917707D01*
X1845300Y1983399D02*
X1917707D01*
X1903186Y2079699D02*
X1917675D01*
X1862473Y2016699D02*
X1917569D01*
X1912431Y1926699D02*
X1917569D01*
X1845300Y1993299D02*
X1917565D01*
X1912435Y1903299D02*
X1917565D01*
X1845300Y2006799D02*
X1917438D01*
X1912562Y1916799D02*
X1917438D01*
X1845300Y2003199D02*
X1917435D01*
X1912565Y1913199D02*
X1917435D01*
X1902574Y2125599D02*
X1917426D01*
X1845300Y1996899D02*
X1917318D01*
X1912682Y1906899D02*
X1917318D01*
X1900799Y2013099D02*
X1917315D01*
X1912685Y1923099D02*
X1917315D01*
X1902712Y2129199D02*
X1917288D01*
X1907551Y1986999D02*
X1917207D01*
X1912793Y1896999D02*
X1917207D01*
X1845300Y2022999D02*
X1917204D01*
X1912796Y1932999D02*
X1917204D01*
X1845300Y2076099D02*
X1917123D01*
X1877416Y2067099D02*
X1917103D01*
X1845300Y1977099D02*
X1917103D01*
X1845300Y2032899D02*
X1917100D01*
X1914100Y1942899D02*
X1917100D01*
X1902966Y2078799D02*
X1917075D01*
X1845300Y2057199D02*
X1917006D01*
X1845300Y2042799D02*
X1917004D01*
X1903039Y2126499D02*
X1916961D01*
X1901716Y2047299D02*
X1916916D01*
X1901720Y2052699D02*
X1916913D01*
X1903099Y2128299D02*
X1916901D01*
X1910723Y1824099D02*
X1916877D01*
X1901110Y2076999D02*
X1916839D01*
X1845300Y2037399D02*
X1916831D01*
X1877115Y2062599D02*
X1916829D01*
X1902413Y2077899D02*
X1916825D01*
X1903198Y2127399D02*
X1916802D01*
X1845300Y2027499D02*
X1916751D01*
X1914100Y1937499D02*
X1916751D01*
X1845300Y2072499D02*
X1916749D01*
X1845300Y1982499D02*
X1916749D01*
X1862598Y2017599D02*
X1916677D01*
X1913323Y1927599D02*
X1916677D01*
X1882118Y1992399D02*
X1916675D01*
X1913325Y1902399D02*
X1916675D01*
X1910929Y1819599D02*
X1916671D01*
X1902224Y2007699D02*
X1916607D01*
X1913393Y1917699D02*
X1916607D01*
X1845300Y2002299D02*
X1916605D01*
X1913395Y1912299D02*
X1916605D01*
X1845300Y1997799D02*
X1916541D01*
X1913459Y1907799D02*
X1916541D01*
X1902325Y2012199D02*
X1916539D01*
X1913461Y1922199D02*
X1916539D01*
X1907569Y1987899D02*
X1916479D01*
X1913521Y1897899D02*
X1916479D01*
X1845300Y2022099D02*
X1916478D01*
X1913522Y1932099D02*
X1916478D01*
X1876117Y2067999D02*
X1916422D01*
X1845300Y1977999D02*
X1916422D01*
X1845300Y2031999D02*
X1916420D01*
X1914100Y1941999D02*
X1916420D01*
X1845300Y2058099D02*
X1916367D01*
X1845300Y2041899D02*
X1916366D01*
X1902645Y2048199D02*
X1916317D01*
X1902647Y2051799D02*
X1916316D01*
X1845300Y2038299D02*
X1916270D01*
X1845300Y2061699D02*
X1916268D01*
X1845300Y2028399D02*
X1916226D01*
X1914100Y1938399D02*
X1916226D01*
X1845300Y2071599D02*
X1916225D01*
X1845300Y1981599D02*
X1916225D01*
X1911406Y1849299D02*
X1916194D01*
X1862401Y2018499D02*
X1916185D01*
X1913815Y1928499D02*
X1916185D01*
X1882827Y1991499D02*
X1916184D01*
X1913816Y1901499D02*
X1916184D01*
X1902877Y2008599D02*
X1916147D01*
X1913853Y1918599D02*
X1916147D01*
X1845300Y2001399D02*
X1916146D01*
X1913854Y1911399D02*
X1916146D01*
X1845300Y1998699D02*
X1916112D01*
X1913888Y1908699D02*
X1916112D01*
X1902925Y2011299D02*
X1916111D01*
X1913889Y1921299D02*
X1916111D01*
X1907252Y1988799D02*
X1916080D01*
X1913920Y1898799D02*
X1916080D01*
X1845300Y2021199D02*
X1916079D01*
X1913921Y1931199D02*
X1916079D01*
X1845300Y2068899D02*
X1916051D01*
X1845300Y1978899D02*
X1916051D01*
X1845300Y2031099D02*
X1916050D01*
X1914100Y1941099D02*
X1916050D01*
X1845300Y2058999D02*
X1916024D01*
X1845300Y2040999D02*
X1916023D01*
X1903070Y2049099D02*
X1916000D01*
X1903071Y2050899D02*
X1916000D01*
X1845300Y2039199D02*
X1915979D01*
X1845300Y2060799D02*
X1915979D01*
X1911631Y1845699D02*
X1915969D01*
X1845300Y2029299D02*
X1915960D01*
X1914100Y1939299D02*
X1915960D01*
X1845300Y2070699D02*
X1915960D01*
X1845300Y1980699D02*
X1915960D01*
X1861776Y2019399D02*
X1915944D01*
X1914056Y1929399D02*
X1915944D01*
X1883144Y1990599D02*
X1915944D01*
X1914056Y1900599D02*
X1915944D01*
X1903161Y2009499D02*
X1915931D01*
X1914069Y1919499D02*
X1915931D01*
X1845300Y2000499D02*
X1915930D01*
X1914070Y1910499D02*
X1915930D01*
X1845300Y1999599D02*
X1915920D01*
X1914080Y1909599D02*
X1915920D01*
X1903175Y2010399D02*
X1915919D01*
X1914081Y1920399D02*
X1915919D01*
X1906388Y1989699D02*
X1915911D01*
X1914089Y1899699D02*
X1915911D01*
X1845300Y2020299D02*
X1915911D01*
X1914089Y1930299D02*
X1915911D01*
X1845300Y2069799D02*
X1915905D01*
X1845300Y1979799D02*
X1915905D01*
X1845300Y2030199D02*
X1915905D01*
X1914100Y1940199D02*
X1915905D01*
X1845300Y2059899D02*
X1915901D01*
X1845300Y2040099D02*
X1915901D01*
X1903200Y2049999D02*
X1915900D01*
X1911878Y1823199D02*
X1915722D01*
X1911936Y1820499D02*
X1915664D01*
X1912098Y1848399D02*
X1915502D01*
X1912180Y1846599D02*
X1915420D01*
X1912263Y1822299D02*
X1915337D01*
X1912279Y1821399D02*
X1915321D01*
X1912311Y1847499D02*
X1915289D01*
X1845300Y1814199D02*
X1913190D01*
X1866024Y1818699D02*
X1913012D01*
X1867751Y1827699D02*
X1912357D01*
X1907086Y1837599D02*
X1912281D01*
X1861285Y1815099D02*
X1912210D01*
X1865278Y1817799D02*
X1912148D01*
X1845300Y1841199D02*
X1912014D01*
X1906859Y1831299D02*
X1911962D01*
X1863098Y1815999D02*
X1911849D01*
X1864336Y1816899D02*
X1911831D01*
X1867470Y1828599D02*
X1911601D01*
X1906292Y1838499D02*
X1911574D01*
X1845300Y1840299D02*
X1911477D01*
X1905925Y1830399D02*
X1911458D01*
X1904017Y1829499D02*
X1911357D01*
X1904906Y1839399D02*
X1911353D01*
X1845300Y1914099D02*
X1909895D01*
X1845300Y1905999D02*
X1909106D01*
X1845300Y1923999D02*
X1909094D01*
X1882439Y1824099D02*
X1909003D01*
X1866621Y1819599D02*
X1908797D01*
X1845300Y1896099D02*
X1908739D01*
X1845300Y1933899D02*
X1908731D01*
X1845300Y1849299D02*
X1908320D01*
X1872440Y1845699D02*
X1908095D01*
X1881875Y1823199D02*
X1907848D01*
X1867097Y1820499D02*
X1907790D01*
X1845300Y1848399D02*
X1907628D01*
X1845300Y1926699D02*
X1907569D01*
X1845300Y1903299D02*
X1907565D01*
X1871877Y1846599D02*
X1907546D01*
X1867750Y1822299D02*
X1907463D01*
X1867470Y1821399D02*
X1907447D01*
X1845300Y1916799D02*
X1907438D01*
X1845300Y1913199D02*
X1907435D01*
X1845300Y1847499D02*
X1907415D01*
X1845300Y1906899D02*
X1907318D01*
X1845300Y1923099D02*
X1907315D01*
X1845300Y1896999D02*
X1907207D01*
X1845300Y1932999D02*
X1907204D01*
X1845300Y1927599D02*
X1906677D01*
X1845300Y1902399D02*
X1906675D01*
X1845300Y1917699D02*
X1906607D01*
X1845300Y1912299D02*
X1906605D01*
X1845300Y1907799D02*
X1906541D01*
X1845300Y1922199D02*
X1906539D01*
X1845300Y1897899D02*
X1906479D01*
X1845300Y1932099D02*
X1906478D01*
X1845300Y1928499D02*
X1906185D01*
X1845300Y1901499D02*
X1906184D01*
X1845300Y1918599D02*
X1906147D01*
X1845300Y1911399D02*
X1906146D01*
X1845300Y1908699D02*
X1906112D01*
X1845300Y1921299D02*
X1906111D01*
X1845300Y1898799D02*
X1906080D01*
X1845300Y1931199D02*
X1906079D01*
X1845300Y1929399D02*
X1905944D01*
X1845300Y1900599D02*
X1905944D01*
X1845300Y1943799D02*
X1905941D01*
X1845300Y1919499D02*
X1905931D01*
X1845300Y1910499D02*
X1905930D01*
X1845300Y1909599D02*
X1905920D01*
X1845300Y1920399D02*
X1905919D01*
X1845300Y1899699D02*
X1905911D01*
X1845300Y1930299D02*
X1905911D01*
X1881356Y1942899D02*
X1905900D01*
X1882499Y1941999D02*
X1905900D01*
X1883005Y1941099D02*
X1905900D01*
X1883194Y1940199D02*
X1905900D01*
X1883122Y1939299D02*
X1905900D01*
X1882771Y1938399D02*
X1905900D01*
X1881996Y1937499D02*
X1905900D01*
X1845300Y1936599D02*
X1905900D01*
X1845300Y1985199D02*
X1903790D01*
X1883186Y1989699D02*
X1903612D01*
X1845300Y1986099D02*
X1902810D01*
X1882966Y1988799D02*
X1902748D01*
X1881110Y1986999D02*
X1902449D01*
X1882413Y1987899D02*
X1902431D01*
X1867098Y1829499D02*
X1901536D01*
X1845300Y1839399D02*
X1900647D01*
X1866622Y1830399D02*
X1899628D01*
X1845300Y1838499D02*
X1899260D01*
X1880799Y2013099D02*
X1899201D01*
X1845300Y2076999D02*
X1898890D01*
X1866026Y1831299D02*
X1898694D01*
X1845300Y1837599D02*
X1898467D01*
X1845300Y2124699D02*
X1898453D01*
X1845300Y2047299D02*
X1898284D01*
X1845300Y2052699D02*
X1898280D01*
X1883198Y2130099D02*
X1898133D01*
X1865281Y1832199D02*
X1898108D01*
X1845300Y1836699D02*
X1897964D01*
X1845300Y2082399D02*
X1897882D01*
X1882224Y2007699D02*
X1897776D01*
X1864339Y1833099D02*
X1897746D01*
X1882325Y2012199D02*
X1897675D01*
X1845300Y1835799D02*
X1897665D01*
X1845300Y2077899D02*
X1897587D01*
X1863102Y1833999D02*
X1897561D01*
X1861292Y1834899D02*
X1897535D01*
X1845300Y2125599D02*
X1897426D01*
X1845300Y2048199D02*
X1897355D01*
X1845300Y2051799D02*
X1897353D01*
X1883098Y2129199D02*
X1897288D01*
X1845300Y2081499D02*
X1897173D01*
X1882877Y2008599D02*
X1897123D01*
X1882925Y2011299D02*
X1897075D01*
X1845300Y2078799D02*
X1897034D01*
X1845300Y2126499D02*
X1896961D01*
X1845300Y2049099D02*
X1896930D01*
X1845300Y2050899D02*
X1896929D01*
X1882710Y2128299D02*
X1896901D01*
X1845300Y2080599D02*
X1896856D01*
X1883161Y2009499D02*
X1896839D01*
X1883175Y2010399D02*
X1896825D01*
X1845300Y2079699D02*
X1896814D01*
X1881864Y2127399D02*
X1896802D01*
X1845300Y2049999D02*
X1896800D01*
X1845300Y2112999D02*
X1896383D01*
X1845300Y2107599D02*
X1895385D01*
X1845300Y2112099D02*
X1895084D01*
X1845300Y2108499D02*
X1894674D01*
X1845300Y2111199D02*
X1894533D01*
X1845300Y2109399D02*
X1894357D01*
X1845300Y2110299D02*
X1894314D01*
X1845300Y2094999D02*
X1894281D01*
X1845300Y2090499D02*
X1893340D01*
X1845300Y2086899D02*
X1893224D01*
X1845300Y2083299D02*
X1893034D01*
X1845300Y2094099D02*
X1892950D01*
X1845300Y2091399D02*
X1892645D01*
X1845300Y2085999D02*
X1892599D01*
X1845300Y2084199D02*
X1892527D01*
X1845300Y2093199D02*
X1892496D01*
X1845300Y2092299D02*
X1892408D01*
X1845300Y2085099D02*
X1892402D01*
X1845300Y2155299D02*
X1890507D01*
X1865968Y2215599D02*
X1890056D01*
X1866301Y2227299D02*
X1889706D01*
X1845300Y2166999D02*
X1889424D01*
X1845300Y2156199D02*
X1888255D01*
X1866536Y2216499D02*
X1888108D01*
X1866802Y2226399D02*
X1887965D01*
X1845300Y2166099D02*
X1887834D01*
X1845300Y2157099D02*
X1887177D01*
X1866988Y2217399D02*
X1887085D01*
X1867196Y2225499D02*
X1886993D01*
X1845300Y2165199D02*
X1886908D01*
X1845300Y2157999D02*
X1886471D01*
X1867339Y2218299D02*
X1886408D01*
X1867496Y2224599D02*
X1886346D01*
X1845300Y2164299D02*
X1886288D01*
X1845300Y2158899D02*
X1885993D01*
X1867601Y2219199D02*
X1885951D01*
X1867710Y2223699D02*
X1885910D01*
X1845300Y2163399D02*
X1885872D01*
X1845300Y2159799D02*
X1885688D01*
X1867778Y2220099D02*
X1885663D01*
X1867843Y2222799D02*
X1885640D01*
X1845300Y2162499D02*
X1885619D01*
X1845300Y2160699D02*
X1885530D01*
X1867877Y2220999D02*
X1885521D01*
X1867898Y2221899D02*
X1885513D01*
X1845300Y2161599D02*
X1885507D01*
X1845300Y2013099D02*
X1879201D01*
X1845300Y1986999D02*
X1878890D01*
X1845300Y1942899D02*
X1878644D01*
X1845300Y1877199D02*
X1878453D01*
X1845300Y2132799D02*
X1878448D01*
X1845300Y1957299D02*
X1878284D01*
X1845300Y1962699D02*
X1878280D01*
X1845300Y2127399D02*
X1878136D01*
X1845300Y1882599D02*
X1878133D01*
X1867946Y1823199D02*
X1878125D01*
X1867946Y1826799D02*
X1878123D01*
X1845300Y1937499D02*
X1878004D01*
X1845300Y1992399D02*
X1877882D01*
X1845300Y2007699D02*
X1877776D01*
X1845300Y2012199D02*
X1877675D01*
X1845300Y1987899D02*
X1877587D01*
X1868062Y1824099D02*
X1877561D01*
X1868062Y1825899D02*
X1877560D01*
X1845300Y1941999D02*
X1877501D01*
X1845300Y1878099D02*
X1877426D01*
X1845300Y2131899D02*
X1877424D01*
X1868100Y1824999D02*
X1877400D01*
X1845300Y1958199D02*
X1877355D01*
X1845300Y1961799D02*
X1877353D01*
X1845300Y2128299D02*
X1877290D01*
X1845300Y1881699D02*
X1877288D01*
X1845300Y1938399D02*
X1877229D01*
X1845300Y1991499D02*
X1877173D01*
X1845300Y2008599D02*
X1877123D01*
X1845300Y2011299D02*
X1877075D01*
X1845300Y1988799D02*
X1877034D01*
X1845300Y1941099D02*
X1876995D01*
X1845300Y1878999D02*
X1876961D01*
X1845300Y2130999D02*
X1876960D01*
X1845300Y1959099D02*
X1876930D01*
X1845300Y1960899D02*
X1876929D01*
X1845300Y2129199D02*
X1876902D01*
X1845300Y1880799D02*
X1876901D01*
X1845300Y1939299D02*
X1876878D01*
X1845300Y1990599D02*
X1876856D01*
X1845300Y2009499D02*
X1876839D01*
X1845300Y2010399D02*
X1876825D01*
X1845300Y1989699D02*
X1876814D01*
X1845300Y1940199D02*
X1876806D01*
X1845300Y1879899D02*
X1876802D01*
X1845300Y2130099D02*
X1876802D01*
X1845300Y1959999D02*
X1876800D01*
X1845300Y2067999D02*
X1873883D01*
X1845300Y2062599D02*
X1872885D01*
X1845300Y2067099D02*
X1872584D01*
X1845300Y2063499D02*
X1872174D01*
X1845300Y2066199D02*
X1872033D01*
X1845300Y2064399D02*
X1871857D01*
X1845300Y2065299D02*
X1871814D01*
X1845300Y1842999D02*
X1868125D01*
X1845300Y1846599D02*
X1868123D01*
X1845300Y1843899D02*
X1867561D01*
X1845300Y1845699D02*
X1867560D01*
X1845300Y1844799D02*
X1867400D01*
X1845300Y1862799D02*
X1858448D01*
X1845300Y2019399D02*
X1858224D01*
X1845300Y1857399D02*
X1858136D01*
X1845300Y2015799D02*
X1858034D01*
X1845300Y2018499D02*
X1857599D01*
X1845300Y2016699D02*
X1857527D01*
X1845300Y1861899D02*
X1857424D01*
X1845300Y2017599D02*
X1857402D01*
X1845300Y1858299D02*
X1857290D01*
X1845300Y1860999D02*
X1856960D01*
X1845300Y1859199D02*
X1856902D01*
X1845300Y1860099D02*
X1856802D01*
X1845300Y2231799D02*
X1854079D01*
X1845300Y1815099D02*
X1853715D01*
X1845300Y1834899D02*
X1853708D01*
X1845300Y2211999D02*
X1853029D01*
X1845300Y2230899D02*
X1852033D01*
X1845300Y1815999D02*
X1851902D01*
X1845300Y1833999D02*
X1851898D01*
X1845300Y2212899D02*
X1851393D01*
X1845300Y2229999D02*
X1850705D01*
X1845300Y1816899D02*
X1850664D01*
X1845300Y1833099D02*
X1850661D01*
X1845300Y2213799D02*
X1850234D01*
X1845300Y1817799D02*
X1849722D01*
X1845300Y1832199D02*
X1849719D01*
X1845300Y2229099D02*
X1849709D01*
X1845300Y2214699D02*
X1849341D01*
X1845300Y1818699D02*
X1848976D01*
X1845300Y1831299D02*
X1848974D01*
X1845300Y2228199D02*
X1848926D01*
X1845300Y2215599D02*
X1848632D01*
X1845300Y1819599D02*
X1848379D01*
X1845300Y1830399D02*
X1848378D01*
X1845300Y2227299D02*
X1848299D01*
X1845300Y2216499D02*
X1848064D01*
X1845300Y1820499D02*
X1847903D01*
X1845300Y1829499D02*
X1847902D01*
X1845300Y2226399D02*
X1847798D01*
X1845300Y2217399D02*
X1847612D01*
X1845300Y1821399D02*
X1847530D01*
X1845300Y1828599D02*
X1847530D01*
X1845300Y2225499D02*
X1847404D01*
X1845300Y2218299D02*
X1847261D01*
X1845300Y1822299D02*
X1847250D01*
X1845300Y1827699D02*
X1847249D01*
X1845300Y2224599D02*
X1847104D01*
X1845300Y1823199D02*
X1847054D01*
X1845300Y1826799D02*
X1847054D01*
X1845300Y2219199D02*
X1846999D01*
X1845300Y1824099D02*
X1846938D01*
X1845300Y1825899D02*
X1846938D01*
X1845300Y1824999D02*
X1846900D01*
X1845300Y2223699D02*
X1846890D01*
X1845300Y2220099D02*
X1846822D01*
X1845300Y2222799D02*
X1846757D01*
X1845300Y2220999D02*
X1846723D01*
X1845300Y2221899D02*
X1846702D01*
G54D14*
X1970000Y1900000D03*
G54D15*
X1920000Y1980000D03*
G54D25*
X1917101Y1982899D02*
X1917879Y1982121D01*
X1917101Y1977101D02*
X1917879Y1977879D01*
X1922899Y1977101D02*
X1922121Y1977879D01*
X1922899Y1982899D02*
X1922121Y1982121D01*
X1966222Y1903778D02*
X1967879Y1902121D01*
X1973778Y1903778D02*
X1972121Y1902121D01*
X1973778Y1896222D02*
X1972121Y1897879D01*
X1966222Y1896222D02*
X1967879Y1897879D01*
X2017263Y1844763D02*
X2016485Y1843985D01*
X2012737Y1844763D02*
X2013515Y1843985D01*
X2012737Y1840237D02*
X2013515Y1841015D01*
X2017263Y1840237D02*
X2016485Y1841015D01*
X1862263Y1862263D02*
X1861485Y1861485D01*
X1857737Y1862263D02*
X1858515Y1861485D01*
X1857737Y1857737D02*
X1858515Y1858515D01*
X1862263Y1857737D02*
X1861485Y1858515D01*
X1882263Y1882263D02*
X1881485Y1881485D01*
X1877737Y1882263D02*
X1878515Y1881485D01*
X1877737Y1877737D02*
X1878515Y1878515D01*
X1882263Y1877737D02*
X1881485Y1878515D01*
X1882263Y1962263D02*
X1881485Y1961485D01*
X1877737Y1962263D02*
X1878515Y1961485D01*
X1877737Y1957737D02*
X1878515Y1958515D01*
X1882263Y1957737D02*
X1881485Y1958515D01*
X1902263Y2129763D02*
X1901485Y2128985D01*
X1897737Y2129763D02*
X1898515Y2128985D01*
X1897737Y2125237D02*
X1898515Y2126015D01*
X1902263Y2125237D02*
X1901485Y2126015D01*
X1944763Y2107263D02*
X1943985Y2106485D01*
X1940237Y2107263D02*
X1941015Y2106485D01*
X1940237Y2102737D02*
X1941015Y2103515D01*
X1944763Y2102737D02*
X1943985Y2103515D01*
X1942263Y2132263D02*
X1941485Y2131485D01*
X1937737Y2132263D02*
X1938515Y2131485D01*
X1937737Y2127737D02*
X1938515Y2128515D01*
X1942263Y2127737D02*
X1941485Y2128515D01*
X1972263Y2129763D02*
X1971485Y2128985D01*
X1967737Y2129763D02*
X1968515Y2128985D01*
X1967737Y2125237D02*
X1968515Y2126015D01*
X1972263Y2125237D02*
X1971485Y2126015D01*
X1972263Y2109763D02*
X1971485Y2108985D01*
X1967737Y2109763D02*
X1968515Y2108985D01*
X1967737Y2105237D02*
X1968515Y2106015D01*
X1972263Y2105237D02*
X1971485Y2106015D01*
X1972263Y2092263D02*
X1971485Y2091485D01*
X1967737Y2092263D02*
X1968515Y2091485D01*
X1967737Y2087737D02*
X1968515Y2088515D01*
X1972263Y2087737D02*
X1971485Y2088515D01*
G54D46*
X2015000Y1842500D03*
X1880000Y1880000D03*
X1860000Y1860000D03*
X1880000Y1960000D03*
X1970000Y2090000D03*
X1900000Y2127500D03*
X1970000D03*
Y2107500D03*
X1940000Y2130000D03*
X1942500Y2105000D03*
G74*
X0Y0D02*
M02*
