*
*
G04 PADS VX.2.1 Build Number: 6554490 generated Gerber (RS-274-X) file*
G04 PC Version=2.1*
*
%IN "uMuddMarkVLayout.pcb"*%
*
%MOIN*%
*
%FSLAX35Y35*%
*
*
*
*
G04 PC Standard Apertures*
*
*
G04 Thermal Relief Aperture macro.*
%AMTER*
1,1,$1,0,0*
1,0,$1-$2,0,0*
21,0,$3,$4,0,0,45*
21,0,$3,$4,0,0,135*
%
*
*
G04 Annular Aperture macro.*
%AMANN*
1,1,$1,0,0*
1,0,$2,0,0*
%
*
*
G04 Odd Aperture macro.*
%AMODD*
1,1,$1,0,0*
1,0,$1-0.005,0,0*
%
*
*
G04 PC Custom Aperture Macros*
*
*
*
*
*
*
G04 PC Aperture Table*
*
%ADD010C,0.001*%
%ADD027C,0.01*%
*
*
*
*
G04 PC Circuitry*
G04 Layer Name uMuddMarkVLayout.pcb - circuitry*
%LPD*%
*
*
G04 PC Custom Flashes*
G04 Layer Name uMuddMarkVLayout.pcb - flashes*
%LPD*%
*
*
G04 PC Circuitry*
G04 Layer Name uMuddMarkVLayout.pcb - circuitry*
%LPD*%
*
G54D10*
G54D27*
G01X2008800Y1881700D02*
X2016800D01*
X2012800Y1877700D02*
Y1885700D01*
X1983209Y1877700D02*
X1991209Y1885700D01*
X1983209D02*
X1991209Y1877700D01*
X1983209Y1899417D02*
X1991209D01*
X1987209Y1895417D02*
Y1903417D01*
X2008800Y1899417D02*
X2016800D01*
X2012800Y1895417D02*
Y1903417D01*
X2070400Y1877700D02*
X2078400D01*
Y1885700*
X2070400*
Y1877700*
X2074400Y1881700D02*
Y1885700D01*
X2065400Y1877700D02*
X2073400D01*
Y1885700*
X2065400*
Y1877700*
X2069400Y1881700D02*
Y1885700D01*
X2070400Y1882700D02*
X2078400D01*
Y1890700*
X2070400*
Y1882700*
X2074400Y1886700D02*
Y1890700D01*
X2065400Y1882700D02*
X2073400D01*
Y1890700*
X2065400*
Y1882700*
X2069400Y1886700D02*
Y1890700D01*
X2070400Y1887700D02*
X2078400D01*
Y1895700*
X2070400*
Y1887700*
X2074400Y1891700D02*
Y1895700D01*
X2065400Y1887700D02*
X2073400D01*
Y1895700*
X2065400*
Y1887700*
X2069400Y1891700D02*
Y1895700D01*
X2070400Y1892700D02*
X2078400D01*
Y1900700*
X2070400*
Y1892700*
X2074400Y1896700D02*
Y1900700D01*
X2065400Y1892700D02*
X2073400D01*
Y1900700*
X2065400*
Y1892700*
X2069400Y1896700D02*
Y1900700D01*
X2070400Y1897700D02*
X2078400D01*
Y1905700*
X2070400*
Y1897700*
X2074400Y1901700D02*
Y1905700D01*
X2065400Y1897700D02*
X2073400D01*
Y1905700*
X2065400*
Y1897700*
X2069400Y1901700D02*
Y1905700D01*
X1950500Y2127200D02*
X1958500Y2135200D01*
X1950500D02*
X1958500Y2127200D01*
X1960500D02*
X1968500Y2135200D01*
X1960500D02*
X1968500Y2127200D01*
X1970500D02*
X1978500Y2135200D01*
X1970500D02*
X1978500Y2127200D01*
X1980500D02*
X1988500Y2135200D01*
X1980500D02*
X1988500Y2127200D01*
X1980500Y2157200D02*
X1988500Y2165200D01*
X1980500D02*
X1988500Y2157200D01*
X1970500D02*
X1978500Y2165200D01*
X1970500D02*
X1978500Y2157200D01*
X1960500D02*
X1968500Y2165200D01*
X1960500D02*
X1968500Y2157200D01*
X1950500D02*
X1958500Y2165200D01*
X1950500D02*
X1958500Y2157200D01*
X1986900Y2065100D02*
X1994900Y2073100D01*
X1986900D02*
X1994900Y2065100D01*
X1976900D02*
X1984900Y2073100D01*
X1976900D02*
X1984900Y2065100D01*
X1966900D02*
X1974900Y2073100D01*
X1966900D02*
X1974900Y2065100D01*
X1956900D02*
X1964900Y2073100D01*
X1956900D02*
X1964900Y2065100D01*
X1946900D02*
X1954900Y2073100D01*
X1946900D02*
X1954900Y2065100D01*
X2047400Y2121500D02*
X2055400Y2129500D01*
X2047400D02*
X2055400Y2121500D01*
X2047400Y2111500D02*
X2055400Y2119500D01*
X2047400D02*
X2055400Y2111500D01*
X2047400Y2101500D02*
X2055400Y2109500D01*
X2047400D02*
X2055400Y2101500D01*
X2047400Y2091500D02*
X2055400Y2099500D01*
X2047400D02*
X2055400Y2091500D01*
X2047400Y2081500D02*
X2055400Y2089500D01*
X2047400D02*
X2055400Y2081500D01*
X2047400Y2071500D02*
X2055400Y2079500D01*
X2047400D02*
X2055400Y2071500D01*
X2047400Y2061500D02*
X2055400Y2069500D01*
X2047400D02*
X2055400Y2061500D01*
X2047400Y2051500D02*
X2055400Y2059500D01*
X2047400D02*
X2055400Y2051500D01*
X2047400Y2041500D02*
X2055400Y2049500D01*
X2047400D02*
X2055400Y2041500D01*
X2047400Y2031500D02*
X2055400Y2039500D01*
X2047400D02*
X2055400Y2031500D01*
X2077400D02*
X2085400Y2039500D01*
X2077400D02*
X2085400Y2031500D01*
X2077400Y2041500D02*
X2085400Y2049500D01*
X2077400D02*
X2085400Y2041500D01*
X2077400Y2051500D02*
X2085400Y2059500D01*
X2077400D02*
X2085400Y2051500D01*
X2077400Y2061500D02*
X2085400Y2069500D01*
X2077400D02*
X2085400Y2061500D01*
X2077400Y2071500D02*
X2085400Y2079500D01*
X2077400D02*
X2085400Y2071500D01*
X2077400Y2081500D02*
X2085400Y2089500D01*
X2077400D02*
X2085400Y2081500D01*
X2077400Y2091500D02*
X2085400Y2099500D01*
X2077400D02*
X2085400Y2091500D01*
X2077400Y2101500D02*
X2085400Y2109500D01*
X2077400D02*
X2085400Y2101500D01*
X2077400Y2111500D02*
X2085400Y2119500D01*
X2077400D02*
X2085400Y2111500D01*
X2077400Y2121500D02*
X2085400Y2129500D01*
X2077400D02*
X2085400Y2121500D01*
X1974300Y2375700D02*
X1982300Y2383700D01*
X1974300D02*
X1982300Y2375700D01*
X1948709D02*
X1956709Y2383700D01*
X1948709D02*
X1956709Y2375700D01*
X1948709Y2393417D02*
X1956709Y2401417D01*
X1948709D02*
X1956709Y2393417D01*
X1974300D02*
X1982300Y2401417D01*
X1974300D02*
X1982300Y2393417D01*
X2006400Y2226400D02*
X2010400Y2230400D01*
X2006400Y2234400*
X2002400Y2230400*
X2006400Y2226400*
Y2230400D02*
Y2234400D01*
X1904300Y2452900D02*
X1912300Y2460900D01*
X1904300D02*
X1912300Y2452900D01*
X1904300Y2442900D02*
X1912300Y2450900D01*
X1904300D02*
X1912300Y2442900D01*
X1904300Y2432900D02*
X1912300Y2440900D01*
X1904300D02*
X1912300Y2432900D01*
X1904300Y2422900D02*
X1912300Y2430900D01*
X1904300D02*
X1912300Y2422900D01*
X1904300Y2412900D02*
X1912300Y2420900D01*
X1904300D02*
X1912300Y2412900D01*
X1904300Y2402900D02*
X1912300Y2410900D01*
X1904300D02*
X1912300Y2402900D01*
X1904300Y2392900D02*
X1912300Y2400900D01*
X1904300D02*
X1912300Y2392900D01*
X1904300Y2382900D02*
X1912300Y2390900D01*
X1904300D02*
X1912300Y2382900D01*
X1904300Y2372900D02*
X1912300Y2380900D01*
X1904300D02*
X1912300Y2372900D01*
X1904300Y2362900D02*
X1912300Y2370900D01*
X1904300D02*
X1912300Y2362900D01*
X1904300Y2352900D02*
X1912300Y2360900D01*
X1904300D02*
X1912300Y2352900D01*
X1904300Y2342900D02*
X1912300Y2350900D01*
X1904300D02*
X1912300Y2342900D01*
X1904300Y2332900D02*
X1912300Y2340900D01*
X1904300D02*
X1912300Y2332900D01*
X1904300Y2322900D02*
X1912300Y2330900D01*
X1904300D02*
X1912300Y2322900D01*
X1904300Y2312900D02*
X1912300Y2320900D01*
X1904300D02*
X1912300Y2312900D01*
X1904300Y2302900D02*
X1912300Y2310900D01*
X1904300D02*
X1912300Y2302900D01*
X1904300Y2292900D02*
X1912300Y2300900D01*
X1904300D02*
X1912300Y2292900D01*
X1904300Y2282900D02*
X1912300Y2290900D01*
X1904300D02*
X1912300Y2282900D01*
X1904300Y2272900D02*
X1912300Y2280900D01*
X1904300D02*
X1912300Y2272900D01*
X1904300Y2262900D02*
X1912300Y2270900D01*
X1904300D02*
X1912300Y2262900D01*
X1904300Y2252900D02*
X1912300Y2260900D01*
X1904300D02*
X1912300Y2252900D01*
X1904300Y2242900D02*
X1912300Y2250900D01*
X1904300D02*
X1912300Y2242900D01*
X1904300Y2232900D02*
X1912300Y2240900D01*
X1904300D02*
X1912300Y2232900D01*
X1904300Y2222900D02*
X1912300Y2230900D01*
X1904300D02*
X1912300Y2222900D01*
X1904300Y2212900D02*
X1912300Y2220900D01*
X1904300D02*
X1912300Y2212900D01*
X1904300Y2202900D02*
X1912300Y2210900D01*
X1904300D02*
X1912300Y2202900D01*
X1904300Y2192900D02*
X1912300Y2200900D01*
X1904300D02*
X1912300Y2192900D01*
X1904300Y2182900D02*
X1912300Y2190900D01*
X1904300D02*
X1912300Y2182900D01*
X1904300Y2172900D02*
X1912300Y2180900D01*
X1904300D02*
X1912300Y2172900D01*
X1904300Y2162900D02*
X1912300Y2170900D01*
X1904300D02*
X1912300Y2162900D01*
X1904300Y2152900D02*
X1912300Y2160900D01*
X1904300D02*
X1912300Y2152900D01*
X1904300Y2142900D02*
X1912300Y2150900D01*
X1904300D02*
X1912300Y2142900D01*
X1904300Y2132900D02*
X1912300Y2140900D01*
X1904300D02*
X1912300Y2132900D01*
X1904300Y2122900D02*
X1912300Y2130900D01*
X1904300D02*
X1912300Y2122900D01*
X1904300Y2112900D02*
X1912300Y2120900D01*
X1904300D02*
X1912300Y2112900D01*
X1904300Y2102900D02*
X1912300Y2110900D01*
X1904300D02*
X1912300Y2102900D01*
X1904300Y2092900D02*
X1912300Y2100900D01*
X1904300D02*
X1912300Y2092900D01*
X1904300Y2082900D02*
X1912300Y2090900D01*
X1904300D02*
X1912300Y2082900D01*
X1904300Y2072900D02*
X1912300Y2080900D01*
X1904300D02*
X1912300Y2072900D01*
X1904300Y2062900D02*
X1912300Y2070900D01*
X1904300D02*
X1912300Y2062900D01*
X1904300Y2052900D02*
X1912300Y2060900D01*
X1904300D02*
X1912300Y2052900D01*
X1904300Y2042900D02*
X1912300Y2050900D01*
X1904300D02*
X1912300Y2042900D01*
X1904300Y2032900D02*
X1912300Y2040900D01*
X1904300D02*
X1912300Y2032900D01*
X1904300Y2022900D02*
X1912300Y2030900D01*
X1904300D02*
X1912300Y2022900D01*
X1904300Y2012900D02*
X1912300Y2020900D01*
X1904300D02*
X1912300Y2012900D01*
X1904300Y2002900D02*
X1912300Y2010900D01*
X1904300D02*
X1912300Y2002900D01*
X1904300Y1992900D02*
X1912300Y2000900D01*
X1904300D02*
X1912300Y1992900D01*
X1904300Y1982900D02*
X1912300Y1990900D01*
X1904300D02*
X1912300Y1982900D01*
X1904300Y1972900D02*
X1912300Y1980900D01*
X1904300D02*
X1912300Y1972900D01*
X1904300Y1962900D02*
X1912300Y1970900D01*
X1904300D02*
X1912300Y1962900D01*
X1904300Y1952900D02*
X1912300Y1960900D01*
X1904300D02*
X1912300Y1952900D01*
X1904300Y1942900D02*
X1912300Y1950900D01*
X1904300D02*
X1912300Y1942900D01*
X1904300Y1932900D02*
X1912300Y1940900D01*
X1904300D02*
X1912300Y1932900D01*
X1904300Y1922900D02*
X1912300Y1930900D01*
X1904300D02*
X1912300Y1922900D01*
X1904300Y1912900D02*
X1912300Y1920900D01*
X1904300D02*
X1912300Y1912900D01*
X1904300Y1902900D02*
X1912300Y1910900D01*
X1904300D02*
X1912300Y1902900D01*
X1904300Y1892900D02*
X1912300Y1900900D01*
X1904300D02*
X1912300Y1892900D01*
X1904300Y1882900D02*
X1912300Y1890900D01*
X1904300D02*
X1912300Y1882900D01*
X2024600Y2125900D02*
X2032600Y2133900D01*
X2024600D02*
X2032600Y2125900D01*
X2024600Y2115900D02*
X2032600Y2123900D01*
X2024600D02*
X2032600Y2115900D01*
X2024600Y2105900D02*
X2032600Y2113900D01*
X2024600D02*
X2032600Y2105900D01*
X2024600Y2095900D02*
X2032600Y2103900D01*
X2024600D02*
X2032600Y2095900D01*
X2024600Y2085900D02*
X2032600Y2093900D01*
X2024600D02*
X2032600Y2085900D01*
X2024600Y2075900D02*
X2032600Y2083900D01*
X2024600D02*
X2032600Y2075900D01*
X2024600Y2065900D02*
X2032600Y2073900D01*
X2024600D02*
X2032600Y2065900D01*
X2024600Y2055900D02*
X2032600Y2063900D01*
X2024600D02*
X2032600Y2055900D01*
X2024600Y2045900D02*
X2032600Y2053900D01*
X2024600D02*
X2032600Y2045900D01*
X2024600Y2035900D02*
X2032600Y2043900D01*
X2024600D02*
X2032600Y2035900D01*
X2007400Y2125800D02*
X2015400Y2133800D01*
X2007400D02*
X2015400Y2125800D01*
X2007400Y2115800D02*
X2015400Y2123800D01*
X2007400D02*
X2015400Y2115800D01*
X2007400Y2105800D02*
X2015400Y2113800D01*
X2007400D02*
X2015400Y2105800D01*
X2007400Y2095800D02*
X2015400Y2103800D01*
X2007400D02*
X2015400Y2095800D01*
X2007400Y2085800D02*
X2015400Y2093800D01*
X2007400D02*
X2015400Y2085800D01*
X2007400Y2075800D02*
X2015400Y2083800D01*
X2007400D02*
X2015400Y2075800D01*
X2007400Y2065800D02*
X2015400Y2073800D01*
X2007400D02*
X2015400Y2065800D01*
X2007400Y2055800D02*
X2015400Y2063800D01*
X2007400D02*
X2015400Y2055800D01*
X2007400Y2045800D02*
X2015400Y2053800D01*
X2007400D02*
X2015400Y2045800D01*
X2007400Y2035800D02*
X2015400Y2043800D01*
X2007400D02*
X2015400Y2035800D01*
X2061800Y2295900D02*
X2069800D01*
X2061800Y2303900*
X2069800*
X2061800Y2295900*
X2051800D02*
X2059800D01*
X2051800Y2303900*
X2059800*
X2051800Y2295900*
X2061800Y2305900D02*
X2069800D01*
X2061800Y2313900*
X2069800*
X2061800Y2305900*
X2051800D02*
X2059800D01*
X2051800Y2313900*
X2059800*
X2051800Y2305900*
X2061800Y2315900D02*
X2069800D01*
X2061800Y2323900*
X2069800*
X2061800Y2315900*
X2051800D02*
X2059800D01*
X2051800Y2323900*
X2059800*
X2051800Y2315900*
X2061800Y2325900D02*
X2069800D01*
X2061800Y2333900*
X2069800*
X2061800Y2325900*
X2051800D02*
X2059800D01*
X2051800Y2333900*
X2059800*
X2051800Y2325900*
X2061800Y2335900D02*
X2069800D01*
X2061800Y2343900*
X2069800*
X2061800Y2335900*
X2051800D02*
X2059800D01*
X2051800Y2343900*
X2059800*
X2051800Y2335900*
X1985600Y1855400D02*
X1993600Y1863400D01*
Y1855400*
X1985600Y1863400*
Y1855400*
X1989700Y1850900D02*
X1997700Y1858900D01*
Y1850900*
X1989700Y1858900*
Y1850900*
X1958300Y1887000D02*
X1966300Y1895000D01*
Y1887000*
X1958300Y1895000*
Y1887000*
X1963700Y1868700D02*
X1971700Y1876700D01*
Y1868700*
X1963700Y1876700*
Y1868700*
X1971100Y1870500D02*
X1979100Y1878500D01*
Y1870500*
X1971100Y1878500*
Y1870500*
X1966700Y1861600D02*
X1974700Y1869600D01*
Y1861600*
X1966700Y1869600*
Y1861600*
X1959900Y1873200D02*
X1967900Y1881200D01*
Y1873200*
X1959900Y1881200*
Y1873200*
X1984100Y1867400D02*
X1992100Y1875400D01*
Y1867400*
X1984100Y1875400*
Y1867400*
X1985100Y1888100D02*
X1993100Y1896100D01*
Y1888100*
X1985100Y1896100*
Y1888100*
X2015700Y1893000D02*
X2023700Y1901000D01*
Y1893000*
X2015700Y1901000*
Y1893000*
X1995000Y1864900D02*
X2003000Y1872900D01*
Y1864900*
X1995000Y1872900*
Y1864900*
X2015500Y1875500D02*
X2023500Y1883500D01*
Y1875500*
X2015500Y1883500*
Y1875500*
X2009800Y1865800D02*
X2017800Y1873800D01*
Y1865800*
X2009800Y1873800*
Y1865800*
X2003000Y1882000D02*
X2011000Y1890000D01*
Y1882000*
X2003000Y1890000*
Y1882000*
X1991900Y1859700D02*
X1999900Y1867700D01*
Y1859700*
X1991900Y1867700*
Y1859700*
X1978400Y1869800D02*
X1986400Y1877800D01*
Y1869800*
X1978400Y1877800*
Y1869800*
X2012346Y1883346D02*
X2020346Y1891346D01*
Y1883346*
X2012346Y1891346*
Y1883346*
X2002000Y1892000D02*
X2010000Y1900000D01*
Y1892000*
X2002000Y1900000*
Y1892000*
X1994000Y1891500D02*
X2002000Y1899500D01*
Y1891500*
X1994000Y1899500*
Y1891500*
X2017800Y1869700D02*
X2025800Y1877700D01*
Y1869700*
X2017800Y1877700*
Y1869700*
X2018400Y1862000D02*
X2026400Y1870000D01*
Y1862000*
X2018400Y1870000*
Y1862000*
X2024600Y1859600D02*
X2032600Y1867600D01*
Y1859600*
X2024600Y1867600*
Y1859600*
X2016882Y1885882D02*
X2024882Y1893882D01*
Y1885882*
X2016882Y1893882*
Y1885882*
X2033800Y1883500D02*
X2041800Y1891500D01*
Y1883500*
X2033800Y1891500*
Y1883500*
X2023700Y1880000D02*
X2031700Y1888000D01*
Y1880000*
X2023700Y1888000*
Y1880000*
X2050400Y1882700D02*
X2058400Y1890700D01*
Y1882700*
X2050400Y1890700*
Y1882700*
X2053600Y1874300D02*
X2061600Y1882300D01*
Y1874300*
X2053600Y1882300*
Y1874300*
X2059600Y1887700D02*
X2067600Y1895700D01*
Y1887700*
X2059600Y1895700*
Y1887700*
X2059100Y1882700D02*
X2067100Y1890700D01*
Y1882700*
X2059100Y1890700*
Y1882700*
X1932622Y1932465D02*
X1940622Y1940465D01*
Y1932465*
X1932622Y1940465*
Y1932465*
X1921900Y1923100D02*
X1929900Y1931100D01*
Y1923100*
X1921900Y1931100*
Y1923100*
X1974300Y1928400D02*
X1982300Y1936400D01*
Y1928400*
X1974300Y1936400*
Y1928400*
X1939286Y1928078D02*
X1947286Y1936078D01*
Y1928078*
X1939286Y1936078*
Y1928078*
X1948100Y1917500D02*
X1956100Y1925500D01*
Y1917500*
X1948100Y1925500*
Y1917500*
X1972900Y1933500D02*
X1980900Y1941500D01*
Y1933500*
X1972900Y1941500*
Y1933500*
X1967500D02*
X1975500Y1941500D01*
Y1933500*
X1967500Y1941500*
Y1933500*
X1954800Y1912200D02*
X1962800Y1920200D01*
Y1912200*
X1954800Y1920200*
Y1912200*
X1947200Y1911700D02*
X1955200Y1919700D01*
Y1911700*
X1947200Y1919700*
Y1911700*
X1965600Y1928700D02*
X1973600Y1936700D01*
Y1928700*
X1965600Y1936700*
Y1928700*
X1965000Y1913500D02*
X1973000Y1921500D01*
Y1913500*
X1965000Y1921500*
Y1913500*
X1972400Y1910900D02*
X1980400Y1918900D01*
Y1910900*
X1972400Y1918900*
Y1910900*
X1972900Y1904400D02*
X1980900Y1912400D01*
Y1904400*
X1972900Y1912400*
Y1904400*
X2009000Y1923782D02*
X2017000Y1931782D01*
Y1923782*
X2009000Y1931782*
Y1923782*
X2006100Y1935900D02*
X2014100Y1943900D01*
Y1935900*
X2006100Y1943900*
Y1935900*
X1977900Y1908600D02*
X1985900Y1916600D01*
Y1908600*
X1977900Y1916600*
Y1908600*
X1985900Y1902400D02*
X1993900Y1910400D01*
Y1902400*
X1985900Y1910400*
Y1902400*
X2001000Y1930500D02*
X2009000Y1938500D01*
Y1930500*
X2001000Y1938500*
Y1930500*
X1980800Y1935600D02*
X1988800Y1943600D01*
Y1935600*
X1980800Y1943600*
Y1935600*
X1983362Y1929187D02*
X1991362Y1937187D01*
Y1929187*
X1983362Y1937187*
Y1929187*
X1985300Y1911300D02*
X1993300Y1919300D01*
Y1911300*
X1985300Y1919300*
Y1911300*
X2009400Y1902500D02*
X2017400Y1910500D01*
Y1902500*
X2009400Y1910500*
Y1902500*
X1979700Y1915300D02*
X1987700Y1923300D01*
Y1915300*
X1979700Y1923300*
Y1915300*
X2014500Y1903600D02*
X2022500Y1911600D01*
Y1903600*
X2014500Y1911600*
Y1903600*
X1995000Y1897000D02*
X2003000Y1905000D01*
Y1897000*
X1995000Y1905000*
Y1897000*
X1987800Y1915500D02*
X1995800Y1923500D01*
Y1915500*
X1987800Y1923500*
Y1915500*
X1992000Y1903500D02*
X2000000Y1911500D01*
Y1903500*
X1992000Y1911500*
Y1903500*
X1997974Y1915000D02*
X2005974Y1923000D01*
Y1915000*
X1997974Y1923000*
Y1915000*
X2000000Y1921500D02*
X2008000Y1929500D01*
Y1921500*
X2000000Y1929500*
Y1921500*
X1992955Y1922601D02*
X2000955Y1930601D01*
Y1922601*
X1992955Y1930601*
Y1922601*
X2009800Y1908400D02*
X2017800Y1916400D01*
Y1908400*
X2009800Y1916400*
Y1908400*
X2002000Y1898000D02*
X2010000Y1906000D01*
Y1898000*
X2002000Y1906000*
Y1898000*
X2016200Y1921900D02*
X2024200Y1929900D01*
Y1921900*
X2016200Y1929900*
Y1921900*
X2017510Y1897990D02*
X2025510Y1905990D01*
Y1897990*
X2017510Y1905990*
Y1897990*
X2026900Y1927400D02*
X2034900Y1935400D01*
Y1927400*
X2026900Y1935400*
Y1927400*
X2034500Y1902000D02*
X2042500Y1910000D01*
Y1902000*
X2034500Y1910000*
Y1902000*
X2017600Y1915800D02*
X2025600Y1923800D01*
Y1915800*
X2017600Y1923800*
Y1915800*
X2038500Y1933800D02*
X2046500Y1941800D01*
Y1933800*
X2038500Y1941800*
Y1933800*
X2078600Y1933200D02*
X2086600Y1941200D01*
Y1933200*
X2078600Y1941200*
Y1933200*
X2072400Y1924400D02*
X2080400Y1932400D01*
Y1924400*
X2072400Y1932400*
Y1924400*
X2078200Y1918300D02*
X2086200Y1926300D01*
Y1918300*
X2078200Y1926300*
Y1918300*
X1925200Y1945300D02*
X1933200Y1953300D01*
Y1945300*
X1925200Y1953300*
Y1945300*
X1914900Y1964564D02*
X1922900Y1972564D01*
Y1964564*
X1914900Y1972564*
Y1964564*
X1934000Y1942600D02*
X1942000Y1950600D01*
Y1942600*
X1934000Y1950600*
Y1942600*
X1933200Y1958300D02*
X1941200Y1966300D01*
Y1958300*
X1933200Y1966300*
Y1958300*
X1952000Y1971500D02*
X1960000Y1979500D01*
Y1971500*
X1952000Y1979500*
Y1971500*
X1957100Y1948200D02*
X1965100Y1956200D01*
Y1948200*
X1957100Y1956200*
Y1948200*
X1957700Y1938300D02*
X1965700Y1946300D01*
Y1938300*
X1957700Y1946300*
Y1938300*
X1973500Y1974100D02*
X1981500Y1982100D01*
Y1974100*
X1973500Y1982100*
Y1974100*
X1939600Y1963600D02*
X1947600Y1971600D01*
Y1963600*
X1939600Y1971600*
Y1963600*
X1961600Y1944500D02*
X1969600Y1952500D01*
Y1944500*
X1961600Y1952500*
Y1944500*
X1937800Y1970000D02*
X1945800Y1978000D01*
Y1970000*
X1937800Y1978000*
Y1970000*
X1973000Y1955500D02*
X1981000Y1963500D01*
Y1955500*
X1973000Y1963500*
Y1955500*
X1942900Y1938200D02*
X1950900Y1946200D01*
Y1938200*
X1942900Y1946200*
Y1938200*
X1941000Y1954900D02*
X1949000Y1962900D01*
Y1954900*
X1941000Y1962900*
Y1954900*
X1965700Y1957600D02*
X1973700Y1965600D01*
Y1957600*
X1965700Y1965600*
Y1957600*
X1980000Y1945800D02*
X1988000Y1953800D01*
Y1945800*
X1980000Y1953800*
Y1945800*
X1989100Y1955300D02*
X1997100Y1963300D01*
Y1955300*
X1989100Y1963300*
Y1955300*
X1985800Y1945800D02*
X1993800Y1953800D01*
Y1945800*
X1985800Y1953800*
Y1945800*
X1979800Y1975900D02*
X1987800Y1983900D01*
Y1975900*
X1979800Y1983900*
Y1975900*
X1978800Y1958500D02*
X1986800Y1966500D01*
Y1958500*
X1978800Y1966500*
Y1958500*
X2008233Y1966354D02*
X2016233Y1974354D01*
Y1966354*
X2008233Y1974354*
Y1966354*
X2008700Y1940700D02*
X2016700Y1948700D01*
Y1940700*
X2008700Y1948700*
Y1940700*
X2009700Y1960500D02*
X2017700Y1968500D01*
Y1960500*
X2009700Y1968500*
Y1960500*
Y1951700D02*
X2017700Y1959700D01*
Y1951700*
X2009700Y1959700*
Y1951700*
X2000300Y1957200D02*
X2008300Y1965200D01*
Y1957200*
X2000300Y1965200*
Y1957200*
X1999887Y1951072D02*
X2007887Y1959072D01*
Y1951072*
X1999887Y1959072*
Y1951072*
X2000100Y1967400D02*
X2008100Y1975400D01*
Y1967400*
X2000100Y1975400*
Y1967400*
X2000600Y1937800D02*
X2008600Y1945800D01*
Y1937800*
X2000600Y1945800*
Y1937800*
X2047300Y1952800D02*
X2055300Y1960800D01*
Y1952800*
X2047300Y1960800*
Y1952800*
X2053100Y1959300D02*
X2061100Y1967300D01*
Y1959300*
X2053100Y1967300*
Y1959300*
X2052500Y1967900D02*
X2060500Y1975900D01*
Y1967900*
X2052500Y1975900*
Y1967900*
X2039100Y1946700D02*
X2047100Y1954700D01*
Y1946700*
X2039100Y1954700*
Y1946700*
X2060700Y1963400D02*
X2068700Y1971400D01*
Y1963400*
X2060700Y1971400*
Y1963400*
X1914886Y1976556D02*
X1922886Y1984556D01*
Y1976556*
X1914886Y1984556*
Y1976556*
X1934000Y1991500D02*
X1942000Y1999500D01*
Y1991500*
X1934000Y1999500*
Y1991500*
X1952000Y1992500D02*
X1960000Y2000500D01*
Y1992500*
X1952000Y2000500*
Y1992500*
X1958579Y1983870D02*
X1966579Y1991870D01*
Y1983870*
X1958579Y1991870*
Y1983870*
X1961993Y1987906D02*
X1969993Y1995906D01*
Y1987906*
X1961993Y1995906*
Y1987906*
X1968800Y1977200D02*
X1976800Y1985200D01*
Y1977200*
X1968800Y1985200*
Y1977200*
X1937400Y2003500D02*
X1945400Y2011500D01*
Y2003500*
X1937400Y2011500*
Y2003500*
X1997000Y1996000D02*
X2005000Y2004000D01*
Y1996000*
X1997000Y2004000*
Y1996000*
X1992800Y1988200D02*
X2000800Y1996200D01*
Y1988200*
X1992800Y1996200*
Y1988200*
X2000015Y1991628D02*
X2008015Y1999628D01*
Y1991628*
X2000015Y1999628*
Y1991628*
X1998300Y1978500D02*
X2006300Y1986500D01*
Y1978500*
X1998300Y1986500*
Y1978500*
X1984800Y2010700D02*
X1992800Y2018700D01*
Y2010700*
X1984800Y2018700*
Y2010700*
X1986700Y1978400D02*
X1994700Y1986400D01*
Y1978400*
X1986700Y1986400*
Y1978400*
X2008200Y1978900D02*
X2016200Y1986900D01*
Y1978900*
X2008200Y1986900*
Y1978900*
X1986400Y2003600D02*
X1994400Y2011600D01*
Y2003600*
X1986400Y2011600*
Y2003600*
X2023050Y1997250D02*
X2031050Y2005250D01*
Y1997250*
X2023050Y2005250*
Y1997250*
X2029900Y1993600D02*
X2037900Y2001600D01*
Y1993600*
X2029900Y2001600*
Y1993600*
X2043800Y1982600D02*
X2051800Y1990600D01*
Y1982600*
X2043800Y1990600*
Y1982600*
X2044200Y1992600D02*
X2052200Y2000600D01*
Y1992600*
X2044200Y2000600*
Y1992600*
X2029200Y1985300D02*
X2037200Y1993300D01*
Y1985300*
X2029200Y1993300*
Y1985300*
X2066400Y1982600D02*
X2074400Y1990600D01*
Y1982600*
X2066400Y1990600*
Y1982600*
X2079300Y2007600D02*
X2087300Y2015600D01*
Y2007600*
X2079300Y2015600*
Y2007600*
X1917000Y2024400D02*
X1925000Y2032400D01*
Y2024400*
X1917000Y2032400*
Y2024400*
X2002500Y2026500D02*
X2010500Y2034500D01*
Y2026500*
X2002500Y2034500*
Y2026500*
X1991800Y2016100D02*
X1999800Y2024100D01*
Y2016100*
X1991800Y2024100*
Y2016100*
X2039100Y2023600D02*
X2047100Y2031600D01*
Y2023600*
X2039100Y2031600*
Y2023600*
X2036000Y2050200D02*
X2044000Y2058200D01*
Y2050200*
X2036000Y2058200*
Y2050200*
X2001200Y2061600D02*
X2009200Y2069600D01*
Y2061600*
X2001200Y2069600*
Y2061600*
X2039500Y2077600D02*
X2047500Y2085600D01*
Y2077600*
X2039500Y2085600*
Y2077600*
X2032000Y2092700D02*
X2040000Y2100700D01*
Y2092700*
X2032000Y2100700*
Y2092700*
X2032700Y2065400D02*
X2040700Y2073400D01*
Y2065400*
X2032700Y2073400*
Y2065400*
X1993000Y2127000D02*
X2001000Y2135000D01*
Y2127000*
X1993000Y2135000*
Y2127000*
X2000900Y2117500D02*
X2008900Y2125500D01*
Y2117500*
X2000900Y2125500*
Y2117500*
X2018700Y2112800D02*
X2026700Y2120800D01*
Y2112800*
X2018700Y2120800*
Y2112800*
X2016100Y2121800D02*
X2024100Y2129800D01*
Y2121800*
X2016100Y2129800*
Y2121800*
X2039500Y2107000D02*
X2047500Y2115000D01*
Y2107000*
X2039500Y2115000*
Y2107000*
X2035000Y2134300D02*
X2043000Y2142300D01*
Y2134300*
X2035000Y2142300*
Y2134300*
X2033100Y2099100D02*
X2041100Y2107100D01*
Y2099100*
X2033100Y2107100*
Y2099100*
X2077800Y2134200D02*
X2085800Y2142200D01*
Y2134200*
X2077800Y2142200*
Y2134200*
X1960500Y2175200D02*
X1968500Y2183200D01*
Y2175200*
X1960500Y2183200*
Y2175200*
X1994600Y2166400D02*
X2002600Y2174400D01*
Y2166400*
X1994600Y2174400*
Y2166400*
X2001300Y2148200D02*
X2009300Y2156200D01*
Y2148200*
X2001300Y2156200*
Y2148200*
X2013900Y2167500D02*
X2021900Y2175500D01*
Y2167500*
X2013900Y2175500*
Y2167500*
X2013500Y2174500D02*
X2021500Y2182500D01*
Y2174500*
X2013500Y2182500*
Y2174500*
X2011500Y2146600D02*
X2019500Y2154600D01*
Y2146600*
X2011500Y2154600*
Y2146600*
X2050000Y2151500D02*
X2058000Y2159500D01*
Y2151500*
X2050000Y2159500*
Y2151500*
Y2144600D02*
X2058000Y2152600D01*
Y2144600*
X2050000Y2152600*
Y2144600*
X2049800Y2174300D02*
X2057800Y2182300D01*
Y2174300*
X2049800Y2182300*
Y2174300*
X2049600Y2167400D02*
X2057600Y2175400D01*
Y2167400*
X2049600Y2175400*
Y2167400*
X2019000Y2151500D02*
X2027000Y2159500D01*
Y2151500*
X2019000Y2159500*
Y2151500*
X2023000Y2165000D02*
X2031000Y2173000D01*
Y2165000*
X2023000Y2173000*
Y2165000*
X1973300Y2191100D02*
X1981300Y2199100D01*
Y2191100*
X1973300Y2199100*
Y2191100*
X1970000Y2179000D02*
X1978000Y2187000D01*
Y2179000*
X1970000Y2187000*
Y2179000*
X1973200Y2207100D02*
X1981200Y2215100D01*
Y2207100*
X1973200Y2215100*
Y2207100*
X1955000Y2192000D02*
X1963000Y2200000D01*
Y2192000*
X1955000Y2200000*
Y2192000*
X1968900Y2202300D02*
X1976900Y2210300D01*
Y2202300*
X1968900Y2210300*
Y2202300*
X1954100Y2197900D02*
X1962100Y2205900D01*
Y2197900*
X1954100Y2205900*
Y2197900*
X1953800Y2211700D02*
X1961800Y2219700D01*
Y2211700*
X1953800Y2219700*
Y2211700*
X1973700Y2214200D02*
X1981700Y2222200D01*
Y2214200*
X1973700Y2222200*
Y2214200*
X1968800Y2196900D02*
X1976800Y2204900D01*
Y2196900*
X1968800Y2204900*
Y2196900*
X2007400Y2193400D02*
X2015400Y2201400D01*
Y2193400*
X2007400Y2201400*
Y2193400*
X1985800Y2192400D02*
X1993800Y2200400D01*
Y2192400*
X1985800Y2200400*
Y2192400*
X2009200Y2177900D02*
X2017200Y2185900D01*
Y2177900*
X2009200Y2185900*
Y2177900*
X1985400D02*
X1993400Y2185900D01*
Y2177900*
X1985400Y2185900*
Y2177900*
X1986500Y2210300D02*
X1994500Y2218300D01*
Y2210300*
X1986500Y2218300*
Y2210300*
X2054800Y2198200D02*
X2062800Y2206200D01*
Y2198200*
X2054800Y2206200*
Y2198200*
X2051800Y2212700D02*
X2059800Y2220700D01*
Y2212700*
X2051800Y2220700*
Y2212700*
X2050700Y2202200D02*
X2058700Y2210200D01*
Y2202200*
X2050700Y2210200*
Y2202200*
X2052800Y2206900D02*
X2060800Y2214900D01*
Y2206900*
X2052800Y2214900*
Y2206900*
X2040300Y2183900D02*
X2048300Y2191900D01*
Y2183900*
X2040300Y2191900*
Y2183900*
X2061500Y2207800D02*
X2069500Y2215800D01*
Y2207800*
X2061500Y2215800*
Y2207800*
X2058204Y2203204D02*
X2066204Y2211204D01*
Y2203204*
X2058204Y2211204*
Y2203204*
X2076100Y2209000D02*
X2084100Y2217000D01*
Y2209000*
X2076100Y2217000*
Y2209000*
X1934400Y2253700D02*
X1942400Y2261700D01*
Y2253700*
X1934400Y2261700*
Y2253700*
X1965500Y2251000D02*
X1973500Y2259000D01*
Y2251000*
X1965500Y2259000*
Y2251000*
X1949300Y2241500D02*
X1957300Y2249500D01*
Y2241500*
X1949300Y2249500*
Y2241500*
X1951900Y2223400D02*
X1959900Y2231400D01*
Y2223400*
X1951900Y2231400*
Y2223400*
X1972200Y2228400D02*
X1980200Y2236400D01*
Y2228400*
X1972200Y2236400*
Y2228400*
X1970600Y2236900D02*
X1978600Y2244900D01*
Y2236900*
X1970600Y2244900*
Y2236900*
X2038200Y2230600D02*
X2046200Y2238600D01*
Y2230600*
X2038200Y2238600*
Y2230600*
X2038000Y2218900D02*
X2046000Y2226900D01*
Y2218900*
X2038000Y2226900*
Y2218900*
X2053400Y2231500D02*
X2061400Y2239500D01*
Y2231500*
X2053400Y2239500*
Y2231500*
X2038200Y2253200D02*
X2046200Y2261200D01*
Y2253200*
X2038200Y2261200*
Y2253200*
X2055200Y2237600D02*
X2063200Y2245600D01*
Y2237600*
X2055200Y2245600*
Y2237600*
X2052100Y2219300D02*
X2060100Y2227300D01*
Y2219300*
X2052100Y2227300*
Y2219300*
X2064600Y2223000D02*
X2072600Y2231000D01*
Y2223000*
X2064600Y2231000*
Y2223000*
X2065100Y2246900D02*
X2073100Y2254900D01*
Y2246900*
X2065100Y2254900*
Y2246900*
X1965500Y2257000D02*
X1973500Y2265000D01*
Y2257000*
X1965500Y2265000*
Y2257000*
X1937700Y2261300D02*
X1945700Y2269300D01*
Y2261300*
X1937700Y2269300*
Y2261300*
X1964900Y2276500D02*
X1972900Y2284500D01*
Y2276500*
X1964900Y2284500*
Y2276500*
X1973100Y2288500D02*
X1981100Y2296500D01*
Y2288500*
X1973100Y2296500*
Y2288500*
X2009200Y2277200D02*
X2017200Y2285200D01*
Y2277200*
X2009200Y2285200*
Y2277200*
X2015100Y2280500D02*
X2023100Y2288500D01*
Y2280500*
X2015100Y2288500*
Y2280500*
X2004000Y2258300D02*
X2012000Y2266300D01*
Y2258300*
X2004000Y2266300*
Y2258300*
X1987600Y2260100D02*
X1995600Y2268100D01*
Y2260100*
X1987600Y2268100*
Y2260100*
X1999500Y2285700D02*
X2007500Y2293700D01*
Y2285700*
X1999500Y2293700*
Y2285700*
X2009200Y2260700D02*
X2017200Y2268700D01*
Y2260700*
X2009200Y2268700*
Y2260700*
X2004500Y2281300D02*
X2012500Y2289300D01*
Y2281300*
X2004500Y2289300*
Y2281300*
X1993600Y2258300D02*
X2001600Y2266300D01*
Y2258300*
X1993600Y2266300*
Y2258300*
X2015600Y2262200D02*
X2023600Y2270200D01*
Y2262200*
X2015600Y2270200*
Y2262200*
X2003500Y2292100D02*
X2011500Y2300100D01*
Y2292100*
X2003500Y2300100*
Y2292100*
X1985000Y2278000D02*
X1993000Y2286000D01*
Y2278000*
X1985000Y2286000*
Y2278000*
X1992100Y2287500D02*
X2000100Y2295500D01*
Y2287500*
X1992100Y2295500*
Y2287500*
X2020400Y2277200D02*
X2028400Y2285200D01*
Y2277200*
X2020400Y2285200*
Y2277200*
X2027000Y2276600D02*
X2035000Y2284600D01*
Y2276600*
X2027000Y2284600*
Y2276600*
X2020300Y2257000D02*
X2028300Y2265000D01*
Y2257000*
X2020300Y2265000*
Y2257000*
X2047100Y2268600D02*
X2055100Y2276600D01*
Y2268600*
X2047100Y2276600*
Y2268600*
X2030700Y2288700D02*
X2038700Y2296700D01*
Y2288700*
X2030700Y2296700*
Y2288700*
X2024800Y2261300D02*
X2032800Y2269300D01*
Y2261300*
X2024800Y2269300*
Y2261300*
X2042600Y2292100D02*
X2050600Y2300100D01*
Y2292100*
X2042600Y2300100*
Y2292100*
X2076000Y2279000D02*
X2084000Y2287000D01*
Y2279000*
X2076000Y2287000*
Y2279000*
X2063100Y2265300D02*
X2071100Y2273300D01*
Y2265300*
X2063100Y2273300*
Y2265300*
X1931200Y2304300D02*
X1939200Y2312300D01*
Y2304300*
X1931200Y2312300*
Y2304300*
X1974400Y2297900D02*
X1982400Y2305900D01*
Y2297900*
X1974400Y2305900*
Y2297900*
X1965000Y2299900D02*
X1973000Y2307900D01*
Y2299900*
X1965000Y2307900*
Y2299900*
X1969800Y2322500D02*
X1977800Y2330500D01*
Y2322500*
X1969800Y2330500*
Y2322500*
X1962700Y2317300D02*
X1970700Y2325300D01*
Y2317300*
X1962700Y2325300*
Y2317300*
X1971500Y2308500D02*
X1979500Y2316500D01*
Y2308500*
X1971500Y2316500*
Y2308500*
X1997400Y2304000D02*
X2005400Y2312000D01*
Y2304000*
X1997400Y2312000*
Y2304000*
X2001000Y2327000D02*
X2009000Y2335000D01*
Y2327000*
X2001000Y2335000*
Y2327000*
X2005700Y2302600D02*
X2013700Y2310600D01*
Y2302600*
X2005700Y2310600*
Y2302600*
X2000500Y2311500D02*
X2008500Y2319500D01*
Y2311500*
X2000500Y2319500*
Y2311500*
X2017000Y2320000D02*
X2025000Y2328000D01*
Y2320000*
X2017000Y2328000*
Y2320000*
X2016200Y2299500D02*
X2024200Y2307500D01*
Y2299500*
X2016200Y2307500*
Y2299500*
X2018500Y2310500D02*
X2026500Y2318500D01*
Y2310500*
X2018500Y2318500*
Y2310500*
X2076200Y2320400D02*
X2084200Y2328400D01*
Y2320400*
X2076200Y2328400*
Y2320400*
X2077600Y2297300D02*
X2085600Y2305300D01*
Y2297300*
X2077600Y2305300*
Y2297300*
X1932100Y2356100D02*
X1940100Y2364100D01*
Y2356100*
X1932100Y2364100*
Y2356100*
X1965400Y2337100D02*
X1973400Y2345100D01*
Y2337100*
X1965400Y2345100*
Y2337100*
X1964600Y2354700D02*
X1972600Y2362700D01*
Y2354700*
X1964600Y2362700*
Y2354700*
X1984100Y2370100D02*
X1992100Y2378100D01*
Y2370100*
X1984100Y2378100*
Y2370100*
X2051800Y2347900D02*
X2059800Y2355900D01*
Y2347900*
X2051800Y2355900*
Y2347900*
X2025400Y2338700D02*
X2033400Y2346700D01*
Y2338700*
X2025400Y2346700*
Y2338700*
X2025000Y2367900D02*
X2033000Y2375900D01*
Y2367900*
X2025000Y2375900*
Y2367900*
X1993400Y2388600D02*
X2001400Y2396600D01*
Y2388600*
X1993400Y2396600*
Y2388600*
X1987900Y2404800D02*
X1995900Y2412800D01*
Y2404800*
X1987900Y2412800*
Y2404800*
X1979800Y2412300D02*
X1987800Y2420300D01*
Y2412300*
X1979800Y2420300*
Y2412300*
X2031000Y2401500D02*
X2039000Y2409500D01*
Y2401500*
X2031000Y2409500*
Y2401500*
X2022500Y2411600D02*
X2030500Y2419600D01*
Y2411600*
X2022500Y2419600*
Y2411600*
X2025900Y2378500D02*
X2033900Y2386500D01*
Y2378500*
X2025900Y2386500*
Y2378500*
X2074200Y2381900D02*
X2082200Y2389900D01*
Y2381900*
X2074200Y2389900*
Y2381900*
X1939600Y2443400D02*
X1947600Y2451400D01*
Y2443400*
X1939600Y2451400*
Y2443400*
X1990400Y2434300D02*
X1998400Y2442300D01*
Y2434300*
X1990400Y2442300*
Y2434300*
X2018500Y2432700D02*
X2026500Y2440700D01*
Y2432700*
X2018500Y2440700*
Y2432700*
X1900000Y2472000D02*
Y1870000D01*
X1960000*
Y1830000*
X2004700*
Y1860000*
X2011000D02*
G75*
G03X2004700I-3150J0D01*
G01X2011000D02*
Y1830000D01*
X2040000*
Y1870000*
X2091000*
Y2472000*
X1900000*
X100000Y268000D02*
X358000D01*
X100000Y244000D02*
X358000D01*
X100000Y220000D02*
X358000D01*
X100000Y196000D02*
X358000D01*
X100000Y172000D02*
X358000D01*
X100000Y148000D02*
X358000D01*
X100000Y124000D02*
X358000D01*
X100000Y100000D02*
X358000D01*
X100000Y268000D02*
Y100000D01*
X184000Y268000D02*
Y100000D01*
X220000Y268000D02*
Y100000D01*
X256000Y268000D02*
Y100000D01*
X310000Y268000D02*
Y100000D01*
X358000Y268000D02*
Y100000D01*
X135500Y256750D02*
X134955Y257500D01*
X134136Y257875*
X133045*
X132227Y257500*
X131682Y256750*
Y256000*
X131955Y255250*
X132227Y254875*
X132773Y254500*
X134409Y253750*
X134955Y253375*
X135227Y253000*
X135500Y252250*
Y251125*
X134955Y250375*
X134136Y250000*
X133045*
X132227Y250375*
X131682Y251125*
X137955Y257875D02*
Y250000D01*
X144227Y257875D02*
X140409Y250000D01*
Y257875D02*
X144227D01*
X140409Y250000D02*
X144227D01*
X146682Y257875D02*
Y250000D01*
Y257875D02*
X150227D01*
X146682Y254125D02*
X148864D01*
X146682Y250000D02*
X150227D01*
X193864Y257875D02*
X193318Y257500D01*
X192773Y256750*
X192500Y256000*
X192227Y254875*
Y253000*
X192500Y251875*
X192773Y251125*
X193318Y250375*
X193864Y250000*
X194955*
X195500Y250375*
X196045Y251125*
X196318Y251875*
X196591Y253000*
Y254875*
X196318Y256000*
X196045Y256750*
X195500Y257500*
X194955Y257875*
X193864*
X194682Y251500D02*
X196318Y249250D01*
X200955Y257875D02*
Y250000D01*
X199045Y257875D02*
X202864D01*
X205318D02*
X207500Y254125D01*
Y250000*
X209682Y257875D02*
X207500Y254125D01*
X232045Y256750D02*
X231500Y257500D01*
X230682Y257875*
X229591*
X228773Y257500*
X228227Y256750*
Y256000*
X228500Y255250*
X228773Y254875*
X229318Y254500*
X230955Y253750*
X231500Y253375*
X231773Y253000*
X232045Y252250*
Y251125*
X231500Y250375*
X230682Y250000*
X229591*
X228773Y250375*
X228227Y251125*
X234500Y257875D02*
X236682Y254125D01*
Y250000*
X238864Y257875D02*
X236682Y254125D01*
X241318Y257875D02*
Y250000D01*
Y257875D02*
X243500Y250000D01*
X245682Y257875D02*
X243500Y250000D01*
X245682Y257875D02*
Y250000D01*
X267500Y257875D02*
Y250000D01*
Y257875D02*
X269955D01*
X270773Y257500*
X271045Y257125*
X271318Y256375*
Y255250*
X271045Y254500*
X270773Y254125*
X269955Y253750*
X267500*
X273773Y257875D02*
Y250000D01*
X277045*
X281682Y257875D02*
X279500Y250000D01*
X281682Y257875D02*
X283864Y250000D01*
X280318Y252625D02*
X283045D01*
X288227Y257875D02*
Y250000D01*
X286318Y257875D02*
X290136D01*
X292591D02*
Y250000D01*
Y257875D02*
X296136D01*
X292591Y254125D02*
X294773D01*
X292591Y250000D02*
X296136D01*
X298591Y257875D02*
Y250000D01*
Y257875D02*
X300500D01*
X301318Y257500*
X301864Y256750*
X302136Y256000*
X302409Y254875*
Y253000*
X302136Y251875*
X301864Y251125*
X301318Y250375*
X300500Y250000*
X298591*
X326682Y257875D02*
Y250000D01*
X324773Y257875D02*
X328591D01*
X332682D02*
X332136Y257500D01*
X331591Y256750*
X331318Y256000*
X331045Y254875*
Y253000*
X331318Y251875*
X331591Y251125*
X332136Y250375*
X332682Y250000*
X333773*
X334318Y250375*
X334864Y251125*
X335136Y251875*
X335409Y253000*
Y254875*
X335136Y256000*
X334864Y256750*
X334318Y257500*
X333773Y257875*
X332682*
X337864D02*
Y250000D01*
X341136*
X106545Y233875D02*
X109545D01*
X107909Y230875*
X108727*
X109273Y230500*
X109545Y230125*
X109818Y229000*
Y228250*
X109545Y227125*
X109000Y226375*
X108182Y226000*
X107364*
X106545Y226375*
X106273Y226750*
X106000Y227500*
X113909Y233875D02*
X113091Y233500D01*
X112545Y232375*
X112273Y230500*
Y229375*
X112545Y227500*
X113091Y226375*
X113909Y226000*
X114455*
X115273Y226375*
X115818Y227500*
X116091Y229375*
Y230500*
X115818Y232375*
X115273Y233500*
X114455Y233875*
X113909*
X199591D02*
X202591D01*
X200955Y230875*
X201773*
X202318Y230500*
X202591Y230125*
X202864Y229000*
Y228250*
X202591Y227125*
X202045Y226375*
X201227Y226000*
X200409*
X199591Y226375*
X199318Y226750*
X199045Y227500*
X232000Y232000D02*
X244000D01*
X238000Y226000D02*
Y238000D01*
X264636Y233875D02*
X266818Y230125D01*
Y226000*
X269000Y233875D02*
X266818Y230125D01*
X271455Y233875D02*
Y226000D01*
Y233875D02*
X275000D01*
X271455Y230125D02*
X273636D01*
X271455Y226000D02*
X275000D01*
X281273Y232750D02*
X280727Y233500D01*
X279909Y233875*
X278818*
X278000Y233500*
X277455Y232750*
Y232000*
X277727Y231250*
X278000Y230875*
X278545Y230500*
X280182Y229750*
X280727Y229375*
X281000Y229000*
X281273Y228250*
Y227125*
X280727Y226375*
X279909Y226000*
X278818*
X278000Y226375*
X277455Y227125*
X317818Y232750D02*
Y226000D01*
X315364Y229375D02*
X320273D01*
X327636Y235375D02*
X322727Y223375D01*
X330091Y229375D02*
X335000D01*
X339091Y233875D02*
X338273Y233500D01*
X337727Y232375*
X337455Y230500*
Y229375*
X337727Y227500*
X338273Y226375*
X339091Y226000*
X339636*
X340455Y226375*
X341000Y227500*
X341273Y229375*
Y230500*
X341000Y232375*
X340455Y233500*
X339636Y233875*
X339091*
X344000Y226750D02*
X343727Y226375D01*
X344000Y226000*
X344273Y226375*
X344000Y226750*
X348364Y233875D02*
X347545Y233500D01*
X347000Y232375*
X346727Y230500*
Y229375*
X347000Y227500*
X347545Y226375*
X348364Y226000*
X348909*
X349727Y226375*
X350273Y227500*
X350545Y229375*
Y230500*
X350273Y232375*
X349727Y233500*
X348909Y233875*
X348364*
X106545Y209875D02*
X109545D01*
X107909Y206875*
X108727*
X109273Y206500*
X109545Y206125*
X109818Y205000*
Y204250*
X109545Y203125*
X109000Y202375*
X108182Y202000*
X107364*
X106545Y202375*
X106273Y202750*
X106000Y203500*
X115818Y209875D02*
X113091D01*
X112818Y206500*
X113091Y206875*
X113909Y207250*
X114727*
X115545Y206875*
X116091Y206125*
X116364Y205000*
X116091Y204250*
X115818Y203125*
X115273Y202375*
X114455Y202000*
X113636*
X112818Y202375*
X112545Y202750*
X112273Y203500*
X195364Y208375D02*
X195909Y208750D01*
X196727Y209875*
Y202000*
X199182Y208375D02*
X199727Y208750D01*
X200545Y209875*
Y202000*
X206273Y208750D02*
X206000Y209500D01*
X205182Y209875*
X204636*
X203818Y209500*
X203273Y208375*
X203000Y206500*
Y204625*
X203273Y203125*
X203818Y202375*
X204636Y202000*
X204909*
X205727Y202375*
X206273Y203125*
X206545Y204250*
Y204625*
X206273Y205750*
X205727Y206500*
X204909Y206875*
X204636*
X203818Y206500*
X203273Y205750*
X203000Y204625*
X232000Y202000D02*
X244000Y214000D01*
X232000D02*
X244000Y202000D01*
X264636Y209875D02*
X266818Y206125D01*
Y202000*
X269000Y209875D02*
X266818Y206125D01*
X271455Y209875D02*
Y202000D01*
Y209875D02*
X275000D01*
X271455Y206125D02*
X273636D01*
X271455Y202000D02*
X275000D01*
X281273Y208750D02*
X280727Y209500D01*
X279909Y209875*
X278818*
X278000Y209500*
X277455Y208750*
Y208000*
X277727Y207250*
X278000Y206875*
X278545Y206500*
X280182Y205750*
X280727Y205375*
X281000Y205000*
X281273Y204250*
Y203125*
X280727Y202375*
X279909Y202000*
X278818*
X278000Y202375*
X277455Y203125*
X317818Y208750D02*
Y202000D01*
X315364Y205375D02*
X320273D01*
X327636Y211375D02*
X322727Y199375D01*
X330091Y205375D02*
X335000D01*
X339091Y209875D02*
X338273Y209500D01*
X337727Y208375*
X337455Y206500*
Y205375*
X337727Y203500*
X338273Y202375*
X339091Y202000*
X339636*
X340455Y202375*
X341000Y203500*
X341273Y205375*
Y206500*
X341000Y208375*
X340455Y209500*
X339636Y209875*
X339091*
X344000Y202750D02*
X343727Y202375D01*
X344000Y202000*
X344273Y202375*
X344000Y202750*
X348364Y209875D02*
X347545Y209500D01*
X347000Y208375*
X346727Y206500*
Y205375*
X347000Y203500*
X347545Y202375*
X348364Y202000*
X348909*
X349727Y202375*
X350273Y203500*
X350545Y205375*
Y206500*
X350273Y208375*
X349727Y209500*
X348909Y209875*
X348364*
X106273Y184000D02*
Y184375D01*
X106545Y185125*
X106818Y185500*
X107364Y185875*
X108455*
X109000Y185500*
X109273Y185125*
X109545Y184375*
Y183625*
X109273Y182875*
X108727Y181750*
X106000Y178000*
X109818*
X113636Y185875D02*
X112818Y185500D01*
X112545Y184750*
Y184000*
X112818Y183250*
X113364Y182875*
X114455Y182500*
X115273Y182125*
X115818Y181375*
X116091Y180625*
Y179500*
X115818Y178750*
X115545Y178375*
X114727Y178000*
X113636*
X112818Y178375*
X112545Y178750*
X112273Y179500*
Y180625*
X112545Y181375*
X113091Y182125*
X113909Y182500*
X115000Y182875*
X115545Y183250*
X115818Y184000*
Y184750*
X115545Y185500*
X114727Y185875*
X113636*
X197136Y184375D02*
X197682Y184750D01*
X198500Y185875*
Y178000*
X202591Y185875D02*
X201773Y185500D01*
X201227Y184375*
X200955Y182500*
Y181375*
X201227Y179500*
X201773Y178375*
X202591Y178000*
X203136*
X203955Y178375*
X204500Y179500*
X204773Y181375*
Y182500*
X204500Y184375*
X203955Y185500*
X203136Y185875*
X202591*
X232000Y178000D02*
X244000D01*
Y190000*
X232000*
Y178000*
X238000Y184000D02*
Y190000D01*
X264636Y185875D02*
X266818Y182125D01*
Y178000*
X269000Y185875D02*
X266818Y182125D01*
X271455Y185875D02*
Y178000D01*
Y185875D02*
X275000D01*
X271455Y182125D02*
X273636D01*
X271455Y178000D02*
X275000D01*
X281273Y184750D02*
X280727Y185500D01*
X279909Y185875*
X278818*
X278000Y185500*
X277455Y184750*
Y184000*
X277727Y183250*
X278000Y182875*
X278545Y182500*
X280182Y181750*
X280727Y181375*
X281000Y181000*
X281273Y180250*
Y179125*
X280727Y178375*
X279909Y178000*
X278818*
X278000Y178375*
X277455Y179125*
X317818Y184750D02*
Y178000D01*
X315364Y181375D02*
X320273D01*
X327636Y187375D02*
X322727Y175375D01*
X330091Y181375D02*
X335000D01*
X339091Y185875D02*
X338273Y185500D01*
X337727Y184375*
X337455Y182500*
Y181375*
X337727Y179500*
X338273Y178375*
X339091Y178000*
X339636*
X340455Y178375*
X341000Y179500*
X341273Y181375*
Y182500*
X341000Y184375*
X340455Y185500*
X339636Y185875*
X339091*
X344000Y178750D02*
X343727Y178375D01*
X344000Y178000*
X344273Y178375*
X344000Y178750*
X348364Y185875D02*
X347545Y185500D01*
X347000Y184375*
X346727Y182500*
Y181375*
X347000Y179500*
X347545Y178375*
X348364Y178000*
X348909*
X349727Y178375*
X350273Y179500*
X350545Y181375*
Y182500*
X350273Y184375*
X349727Y185500*
X348909Y185875*
X348364*
X106000Y160375D02*
X106545Y160750D01*
X107364Y161875*
Y154000*
X111182Y161875D02*
X110364Y161500D01*
X110091Y160750*
Y160000*
X110364Y159250*
X110909Y158875*
X112000Y158500*
X112818Y158125*
X113364Y157375*
X113636Y156625*
Y155500*
X113364Y154750*
X113091Y154375*
X112273Y154000*
X111182*
X110364Y154375*
X110091Y154750*
X109818Y155500*
Y156625*
X110091Y157375*
X110636Y158125*
X111455Y158500*
X112545Y158875*
X113091Y159250*
X113364Y160000*
Y160750*
X113091Y161500*
X112273Y161875*
X111182*
X119909D02*
X117182Y154000D01*
X116091Y161875D02*
X119909D01*
X122636Y154750D02*
X122364Y154375D01*
X122636Y154000*
X122909Y154375*
X122636Y154750*
X128909Y161875D02*
X126182D01*
X125909Y158500*
X126182Y158875*
X127000Y159250*
X127818*
X128636Y158875*
X129182Y158125*
X129455Y157000*
X129182Y156250*
X128909Y155125*
X128364Y154375*
X127545Y154000*
X126727*
X125909Y154375*
X125636Y154750*
X125364Y155500*
X200273Y160375D02*
X200818Y160750D01*
X201636Y161875*
Y154000*
X238000D02*
X244000Y160000D01*
X238000Y166000*
X232000Y160000*
X238000Y154000*
Y160000D02*
Y166000D01*
X264636Y161875D02*
X266818Y158125D01*
Y154000*
X269000Y161875D02*
X266818Y158125D01*
X271455Y161875D02*
Y154000D01*
Y161875D02*
X275000D01*
X271455Y158125D02*
X273636D01*
X271455Y154000D02*
X275000D01*
X281273Y160750D02*
X280727Y161500D01*
X279909Y161875*
X278818*
X278000Y161500*
X277455Y160750*
Y160000*
X277727Y159250*
X278000Y158875*
X278545Y158500*
X280182Y157750*
X280727Y157375*
X281000Y157000*
X281273Y156250*
Y155125*
X280727Y154375*
X279909Y154000*
X278818*
X278000Y154375*
X277455Y155125*
X317818Y160750D02*
Y154000D01*
X315364Y157375D02*
X320273D01*
X327636Y163375D02*
X322727Y151375D01*
X330091Y157375D02*
X335000D01*
X339091Y161875D02*
X338273Y161500D01*
X337727Y160375*
X337455Y158500*
Y157375*
X337727Y155500*
X338273Y154375*
X339091Y154000*
X339636*
X340455Y154375*
X341000Y155500*
X341273Y157375*
Y158500*
X341000Y160375*
X340455Y161500*
X339636Y161875*
X339091*
X344000Y154750D02*
X343727Y154375D01*
X344000Y154000*
X344273Y154375*
X344000Y154750*
X348364Y161875D02*
X347545Y161500D01*
X347000Y160375*
X346727Y158500*
Y157375*
X347000Y155500*
X347545Y154375*
X348364Y154000*
X348909*
X349727Y154375*
X350273Y155500*
X350545Y157375*
Y158500*
X350273Y160375*
X349727Y161500*
X348909Y161875*
X348364*
X106545Y137875D02*
X109545D01*
X107909Y134875*
X108727*
X109273Y134500*
X109545Y134125*
X109818Y133000*
Y132250*
X109545Y131125*
X109000Y130375*
X108182Y130000*
X107364*
X106545Y130375*
X106273Y130750*
X106000Y131500*
X116091Y137875D02*
X113364Y130000D01*
X112273Y137875D02*
X116091D01*
X197136Y136375D02*
X197682Y136750D01*
X198500Y137875*
Y130000*
X202591Y137875D02*
X201773Y137500D01*
X201227Y136375*
X200955Y134500*
Y133375*
X201227Y131500*
X201773Y130375*
X202591Y130000*
X203136*
X203955Y130375*
X204500Y131500*
X204773Y133375*
Y134500*
X204500Y136375*
X203955Y137500*
X203136Y137875*
X202591*
X232000Y130000D02*
X244000D01*
X232000Y142000*
X244000*
X232000Y130000*
X264636Y137875D02*
X266818Y134125D01*
Y130000*
X269000Y137875D02*
X266818Y134125D01*
X271455Y137875D02*
Y130000D01*
Y137875D02*
X275000D01*
X271455Y134125D02*
X273636D01*
X271455Y130000D02*
X275000D01*
X281273Y136750D02*
X280727Y137500D01*
X279909Y137875*
X278818*
X278000Y137500*
X277455Y136750*
Y136000*
X277727Y135250*
X278000Y134875*
X278545Y134500*
X280182Y133750*
X280727Y133375*
X281000Y133000*
X281273Y132250*
Y131125*
X280727Y130375*
X279909Y130000*
X278818*
X278000Y130375*
X277455Y131125*
X317818Y136750D02*
Y130000D01*
X315364Y133375D02*
X320273D01*
X327636Y139375D02*
X322727Y127375D01*
X330091Y133375D02*
X335000D01*
X339091Y137875D02*
X338273Y137500D01*
X337727Y136375*
X337455Y134500*
Y133375*
X337727Y131500*
X338273Y130375*
X339091Y130000*
X339636*
X340455Y130375*
X341000Y131500*
X341273Y133375*
Y134500*
X341000Y136375*
X340455Y137500*
X339636Y137875*
X339091*
X344000Y130750D02*
X343727Y130375D01*
X344000Y130000*
X344273Y130375*
X344000Y130750*
X348364Y137875D02*
X347545Y137500D01*
X347000Y136375*
X346727Y134500*
Y133375*
X347000Y131500*
X347545Y130375*
X348364Y130000*
X348909*
X349727Y130375*
X350273Y131500*
X350545Y133375*
Y134500*
X350273Y136375*
X349727Y137500*
X348909Y137875*
X348364*
X106000Y112375D02*
X106545Y112750D01*
X107364Y113875*
Y106000*
X113364Y113875D02*
X110636D01*
X110364Y110500*
X110636Y110875*
X111455Y111250*
X112273*
X113091Y110875*
X113636Y110125*
X113909Y109000*
X113636Y108250*
X113364Y107125*
X112818Y106375*
X112000Y106000*
X111182*
X110364Y106375*
X110091Y106750*
X109818Y107500*
X192909Y112000D02*
Y112375D01*
X193182Y113125*
X193455Y113500*
X194000Y113875*
X195091*
X195636Y113500*
X195909Y113125*
X196182Y112375*
Y111625*
X195909Y110875*
X195364Y109750*
X192636Y106000*
X196455*
X201636Y113875D02*
X198909Y108625D01*
X203000*
X201636Y113875D02*
Y106000D01*
X209273Y113875D02*
X206545Y106000D01*
X205455Y113875D02*
X209273D01*
X232000Y106000D02*
X244000Y118000D01*
Y106000*
X232000Y118000*
Y106000*
X264636Y113875D02*
X266818Y110125D01*
Y106000*
X269000Y113875D02*
X266818Y110125D01*
X271455Y113875D02*
Y106000D01*
Y113875D02*
X275000D01*
X271455Y110125D02*
X273636D01*
X271455Y106000D02*
X275000D01*
X281273Y112750D02*
X280727Y113500D01*
X279909Y113875*
X278818*
X278000Y113500*
X277455Y112750*
Y112000*
X277727Y111250*
X278000Y110875*
X278545Y110500*
X280182Y109750*
X280727Y109375*
X281000Y109000*
X281273Y108250*
Y107125*
X280727Y106375*
X279909Y106000*
X278818*
X278000Y106375*
X277455Y107125*
X317818Y112750D02*
Y106000D01*
X315364Y109375D02*
X320273D01*
X327636Y115375D02*
X322727Y103375D01*
X330091Y109375D02*
X335000D01*
X339091Y113875D02*
X338273Y113500D01*
X337727Y112375*
X337455Y110500*
Y109375*
X337727Y107500*
X338273Y106375*
X339091Y106000*
X339636*
X340455Y106375*
X341000Y107500*
X341273Y109375*
Y110500*
X341000Y112375*
X340455Y113500*
X339636Y113875*
X339091*
X344000Y106750D02*
X343727Y106375D01*
X344000Y106000*
X344273Y106375*
X344000Y106750*
X348364Y113875D02*
X347545Y113500D01*
X347000Y112375*
X346727Y110500*
Y109375*
X347000Y107500*
X347545Y106375*
X348364Y106000*
X348909*
X349727Y106375*
X350273Y107500*
X350545Y109375*
Y110500*
X350273Y112375*
X349727Y113500*
X348909Y113875*
X348364*
G74*
X0Y0D02*
M02*
