*
*
G04 PADS VX.2.1 Build Number: 6554490 generated Gerber (RS-274-X) file*
G04 PC Version=2.1*
*
%IN "uMuddMarkVLayout.pcb"*%
*
%MOIN*%
*
%FSLAX35Y35*%
*
*
*
*
G04 PC Standard Apertures*
*
*
G04 Thermal Relief Aperture macro.*
%AMTER*
1,1,$1,0,0*
1,0,$1-$2,0,0*
21,0,$3,$4,0,0,45*
21,0,$3,$4,0,0,135*
%
*
*
G04 Annular Aperture macro.*
%AMANN*
1,1,$1,0,0*
1,0,$2,0,0*
%
*
*
G04 Odd Aperture macro.*
%AMODD*
1,1,$1,0,0*
1,0,$1-0.005,0,0*
%
*
*
G04 PC Custom Aperture Macros*
*
*
*
*
*
*
G04 PC Aperture Table*
*
%ADD010C,0.001*%
%ADD014C,0.06*%
%ADD027C,0.01*%
%ADD028C,0.03*%
%ADD029C,0.015*%
%ADD054C,0.042*%
*
*
*
*
G04 PC Circuitry*
G04 Layer Name uMuddMarkVLayout.pcb - circuitry*
%LPD*%
*
*
G04 PC Custom Flashes*
G04 Layer Name uMuddMarkVLayout.pcb - flashes*
%LPD*%
*
*
G04 PC Circuitry*
G04 Layer Name uMuddMarkVLayout.pcb - circuitry*
%LPD*%
*
G54D10*
G54D14*
G01X1984500Y2161200D03*
X1974500D03*
X1964500D03*
X1954500D03*
X1908300Y2436900D03*
X2011400Y2129800D03*
G54D27*
X2084800Y1922300D02*
G75*
G03X2084800I-2600J0D01*
G01X2085200Y1937200D02*
G03X2085200I-2600J0D01*
G01X2085900Y2011600D02*
G03X2085900I-2600J0D01*
G01X2079000Y1928400D02*
G03X2079000I-2600J0D01*
G01X2085500Y2035500D02*
G03X2085500I-4100J0D01*
G01Y2045500D02*
G03X2085500I-4100J0D01*
G01Y2055500D02*
G03X2085500I-4100J0D01*
G01Y2065500D02*
G03X2085500I-4100J0D01*
G01Y2075500D02*
G03X2085500I-4100J0D01*
G01Y2085500D02*
G03X2085500I-4100J0D01*
G01Y2095500D02*
G03X2085500I-4100J0D01*
G01Y2105500D02*
G03X2085500I-4100J0D01*
G01Y2115500D02*
G03X2085500I-4100J0D01*
G01Y2125500D02*
G03X2085500I-4100J0D01*
G01X2085000Y2138200D02*
G03X2085000I-3200J0D01*
G01X2083300Y2213000D02*
G03X2083300I-3200J0D01*
G01X2082600Y2283000D02*
G03X2082600I-2600J0D01*
G01X2084200Y2301300D02*
G03X2084200I-2600J0D01*
G01X2082800Y2324400D02*
G03X2082800I-2600J0D01*
G01X2081400Y2385900D02*
G03X2081400I-3200J0D01*
G01X2073000Y1986600D02*
G03X2073000I-2600J0D01*
G01X2067300Y1967400D02*
G03X2067300I-2600J0D01*
G01X2060200Y1878300D02*
G03X2060200I-2600J0D01*
G01X2057000Y1886700D02*
G03X2057000I-2600J0D01*
G01X2059700Y1963300D02*
G03X2059700I-2600J0D01*
G01X2053900Y1956800D02*
G03X2053900I-2600J0D01*
G01X2059100Y1971900D02*
G03X2059100I-2600J0D01*
G01X2040400Y1887500D02*
G03X2040400I-2600J0D01*
G01X2041100Y1906000D02*
G03X2041100I-2600J0D01*
G01X2045700Y1937800D02*
G03X2045700I-3200J0D01*
G01X2046300Y1950700D02*
G03X2046300I-3200J0D01*
G01X2050400Y1986600D02*
G03X2050400I-2600J0D01*
G01X2051400Y1996600D02*
G03X2051400I-3200J0D01*
G01X2055500Y2035500D02*
G03X2055500I-4100J0D01*
G01Y2045500D02*
G03X2055500I-4100J0D01*
G01Y2055500D02*
G03X2055500I-4100J0D01*
G01Y2065500D02*
G03X2055500I-4100J0D01*
G01Y2075500D02*
G03X2055500I-4100J0D01*
G01Y2085500D02*
G03X2055500I-4100J0D01*
G01Y2095500D02*
G03X2055500I-4100J0D01*
G01Y2105500D02*
G03X2055500I-4100J0D01*
G01Y2115500D02*
G03X2055500I-4100J0D01*
G01Y2125500D02*
G03X2055500I-4100J0D01*
G01X2056600Y2148600D02*
G03X2056600I-2600J0D01*
G01Y2155500D02*
G03X2056600I-2600J0D01*
G01X2056200Y2171400D02*
G03X2056200I-2600J0D01*
G01X2056400Y2178300D02*
G03X2056400I-2600J0D01*
G01X2061400Y2202200D02*
G03X2061400I-2600J0D01*
G01X2064804Y2207204D02*
G03X2064804I-2600J0D01*
G01X2068100Y2211800D02*
G03X2068100I-2600J0D01*
G01X2071200Y2227000D02*
G03X2071200I-2600J0D01*
G01X2072300Y2250900D02*
G03X2072300I-3200J0D01*
G01X2070300Y2269300D02*
G03X2070300I-3200J0D01*
G01X2058400Y2216700D02*
G03X2058400I-2600J0D01*
G01X2059300Y2223300D02*
G03X2059300I-3200J0D01*
G01X2060000Y2235500D02*
G03X2060000I-2600J0D01*
G01X2062400Y2241600D02*
G03X2062400I-3200J0D01*
G01X2069900Y2309900D02*
G03X2069900I-4100J0D01*
G01Y2319900D02*
G03X2069900I-4100J0D01*
G01Y2329900D02*
G03X2069900I-4100J0D01*
G01Y2339900D02*
G03X2069900I-4100J0D01*
G01X2054300Y2272600D02*
G03X2054300I-3200J0D01*
G01X2059900Y2299900D02*
G03X2059900I-4100J0D01*
G01Y2309900D02*
G03X2059900I-4100J0D01*
G01Y2319900D02*
G03X2059900I-4100J0D01*
G01Y2329900D02*
G03X2059900I-4100J0D01*
G01Y2339900D02*
G03X2059900I-4100J0D01*
G01X2058400Y2351900D02*
G03X2058400I-2600J0D01*
G01X2045700Y2027600D02*
G03X2045700I-2600J0D01*
G01X2042600Y2054200D02*
G03X2042600I-2600J0D01*
G01X2046100Y2081600D02*
G03X2046100I-2600J0D01*
G01Y2111000D02*
G03X2046100I-2600J0D01*
G01X2031200Y1863600D02*
G03X2031200I-2600J0D01*
G01X2030300Y1884000D02*
G03X2030300I-2600J0D01*
G01X2033500Y1931400D02*
G03X2033500I-2600J0D01*
G01X2036400Y1989300D02*
G03X2036400I-3200J0D01*
G01X2036500Y1997600D02*
G03X2036500I-2600J0D01*
G01X2039300Y2069400D02*
G03X2039300I-2600J0D01*
G01X2038600Y2096700D02*
G03X2038600I-2600J0D01*
G01X2039700Y2103100D02*
G03X2039700I-2600J0D01*
G01X2041600Y2138300D02*
G03X2041600I-2600J0D01*
G01X2047500Y2187900D02*
G03X2047500I-3200J0D01*
G01X2044600Y2222900D02*
G03X2044600I-2600J0D01*
G01X2044800Y2234600D02*
G03X2044800I-2600J0D01*
G01X2045400Y2257200D02*
G03X2045400I-3200J0D01*
G01X2049200Y2296100D02*
G03X2049200I-2600J0D01*
G01X2025000Y1866000D02*
G03X2025000I-2600J0D01*
G01X2029650Y2001250D02*
G03X2029650I-2600J0D01*
G01X2032700Y2039900D02*
G03X2032700I-4100J0D01*
G01Y2049900D02*
G03X2032700I-4100J0D01*
G01Y2059900D02*
G03X2032700I-4100J0D01*
G01Y2069900D02*
G03X2032700I-4100J0D01*
G01Y2079900D02*
G03X2032700I-4100J0D01*
G01Y2089900D02*
G03X2032700I-4100J0D01*
G01Y2099900D02*
G03X2032700I-4100J0D01*
G01Y2109900D02*
G03X2032700I-4100J0D01*
G01X2024400Y1873700D02*
G03X2024400I-2600J0D01*
G01X2022100Y1879500D02*
G03X2022100I-2600J0D01*
G01X2016400Y1869800D02*
G03X2016400I-2600J0D01*
G01X2022300Y1897000D02*
G03X2022300I-2600J0D01*
G01X2024110Y1901990D02*
G03X2024110I-2600J0D01*
G01X2009600Y1886000D02*
G03X2009600I-2600J0D01*
G01X2016900Y1899417D02*
G03X2016900I-4100J0D01*
G01X2016000Y1906500D02*
G03X2016000I-2600J0D01*
G01X2021100Y1907600D02*
G03X2021100I-2600J0D01*
G01X2024200Y1919800D02*
G03X2024200I-2600J0D01*
G01X2022800Y1925900D02*
G03X2022800I-2600J0D01*
G01X2032700Y2129900D02*
G03X2032700I-4100J0D01*
G01X2022700Y2125800D02*
G03X2022700I-2600J0D01*
G01X2025600Y2155500D02*
G03X2025600I-2600J0D01*
G01X2029600Y2169000D02*
G03X2029600I-2600J0D01*
G01X2026900Y2261000D02*
G03X2026900I-2600J0D01*
G01X2031400Y2265300D02*
G03X2031400I-2600J0D01*
G01X2033600Y2280600D02*
G03X2033600I-2600J0D01*
G01X2037900Y2292700D02*
G03X2037900I-3200J0D01*
G01X2016400Y1912400D02*
G03X2016400I-2600J0D01*
G01X2015600Y1927782D02*
G03X2015600I-2600J0D01*
G01X2008600Y1896000D02*
G03X2008600I-2600J0D01*
G01Y1902000D02*
G03X2008600I-2600J0D01*
G01X1996300Y1854900D02*
G03X1996300I-2600J0D01*
G01X1998500Y1863700D02*
G03X1998500I-2600J0D01*
G01X2001600Y1868900D02*
G03X2001600I-2600J0D01*
G01X2000600Y1895500D02*
G03X2000600I-2600J0D01*
G01X2001600Y1901000D02*
G03X2001600I-2600J0D01*
G01X2004574Y1919000D02*
G03X2004574I-2600J0D01*
G01X2006600Y1925500D02*
G03X2006600I-2600J0D01*
G01X2007600Y1934500D02*
G03X2007600I-2600J0D01*
G01X2012700Y1939900D02*
G03X2012700I-2600J0D01*
G01X2015300Y1944700D02*
G03X2015300I-2600J0D01*
G01X2016300Y1955700D02*
G03X2016300I-2600J0D01*
G01Y1964500D02*
G03X2016300I-2600J0D01*
G01X2014833Y1970354D02*
G03X2014833I-2600J0D01*
G01X2014800Y1982900D02*
G03X2014800I-2600J0D01*
G01X2007200Y1941800D02*
G03X2007200I-2600J0D01*
G01X2006487Y1955072D02*
G03X2006487I-2600J0D01*
G01X2006900Y1961200D02*
G03X2006900I-2600J0D01*
G01X2006700Y1971400D02*
G03X2006700I-2600J0D01*
G01X2004900Y1982500D02*
G03X2004900I-2600J0D01*
G01X2006615Y1995628D02*
G03X2006615I-2600J0D01*
G01X2009100Y2030500D02*
G03X2009100I-2600J0D01*
G01X2015500Y2039800D02*
G03X2015500I-4100J0D01*
G01Y2049800D02*
G03X2015500I-4100J0D01*
G01Y2059800D02*
G03X2015500I-4100J0D01*
G01X1998600Y1907500D02*
G03X1998600I-2600J0D01*
G01X1992200Y1859400D02*
G03X1992200I-2600J0D01*
G01X1990700Y1871400D02*
G03X1990700I-2600J0D01*
G01X1985600Y1873800D02*
G03X1985600I-3200J0D01*
G01X1991309Y1881700D02*
G03X1991309I-4100J0D01*
G01X1991700Y1892100D02*
G03X1991700I-2600J0D01*
G01X1991309Y1899417D02*
G03X1991309I-4100J0D01*
G01X1992500Y1906400D02*
G03X1992500I-2600J0D01*
G01X1999555Y1926601D02*
G03X1999555I-2600J0D01*
G01X1973300Y1865600D02*
G03X1973300I-2600J0D01*
G01X1977700Y1874500D02*
G03X1977700I-2600J0D01*
G01X1979500Y1908400D02*
G03X1979500I-2600J0D01*
G01X1984500Y1912600D02*
G03X1984500I-2600J0D01*
G01X1986300Y1919300D02*
G03X1986300I-2600J0D01*
G01X1989962Y1933187D02*
G03X1989962I-2600J0D01*
G01X1987400Y1939600D02*
G03X1987400I-2600J0D01*
G01X1992400Y1949800D02*
G03X1992400I-2600J0D01*
G01X1995700Y1959300D02*
G03X1995700I-2600J0D01*
G01X1999400Y1992200D02*
G03X1999400I-2600J0D01*
G01X2003600Y2000000D02*
G03X2003600I-2600J0D01*
G01X2007800Y2065600D02*
G03X2007800I-2600J0D01*
G01X2015500Y2069800D02*
G03X2015500I-4100J0D01*
G01Y2079800D02*
G03X2015500I-4100J0D01*
G01Y2089800D02*
G03X2015500I-4100J0D01*
G01Y2099800D02*
G03X2015500I-4100J0D01*
G01Y2109800D02*
G03X2015500I-4100J0D01*
G01Y2119800D02*
G03X2015500I-4100J0D01*
G01X2007500Y2121500D02*
G03X2007500I-2600J0D01*
G01X2015500Y2129800D02*
G03X2015500I-4100J0D01*
G01X2018700Y2150600D02*
G03X2018700I-3200J0D01*
G01X2020500Y2171500D02*
G03X2020500I-2600J0D01*
G01X2014000Y2197400D02*
G03X2014000I-2600J0D01*
G01X2007900Y2152200D02*
G03X2007900I-2600J0D01*
G01X1993300Y1982400D02*
G03X1993300I-2600J0D01*
G01X1993600Y2007600D02*
G03X1993600I-3200J0D01*
G01X1999000Y2020100D02*
G03X1999000I-3200J0D01*
G01X1986600Y1949800D02*
G03X1986600I-2600J0D01*
G01X1979000Y1914900D02*
G03X1979000I-2600J0D01*
G01X1980900Y1932400D02*
G03X1980900I-2600J0D01*
G01X1985400Y1962500D02*
G03X1985400I-2600J0D01*
G01X1986400Y1979900D02*
G03X1986400I-2600J0D01*
G01X1991400Y2014700D02*
G03X1991400I-2600J0D01*
G01X1995000Y2069100D02*
G03X1995000I-4100J0D01*
G01X1999600Y2131000D02*
G03X1999600I-2600J0D01*
G01X2001200Y2170400D02*
G03X2001200I-2600J0D01*
G01X1979500Y1937500D02*
G03X1979500I-2600J0D01*
G01X1979600Y1959500D02*
G03X1979600I-2600J0D01*
G01X1980100Y1978100D02*
G03X1980100I-2600J0D01*
G01X1985000Y2069100D02*
G03X1985000I-4100J0D01*
G01X1988600Y2131200D02*
G03X1988600I-4100J0D01*
G01Y2161200D02*
G03X1988600I-4100J0D01*
G01X1992600Y2181900D02*
G03X1992600I-3200J0D01*
G01X1992400Y2196400D02*
G03X1992400I-2600J0D01*
G01X1993700Y2214300D02*
G03X1993700I-3200J0D01*
G01X2020000Y2230400D02*
G03X2020000I-13600J0D01*
G01X2022200Y2266200D02*
G03X2022200I-2600J0D01*
G01X2027000Y2281200D02*
G03X2027000I-2600J0D01*
G01X2032600Y2342700D02*
G03X2032600I-3200J0D01*
G01X2032200Y2371900D02*
G03X2032200I-3200J0D01*
G01X2032500Y2382500D02*
G03X2032500I-2600J0D01*
G01X2038200Y2405500D02*
G03X2038200I-3200J0D01*
G01X2021700Y2284500D02*
G03X2021700I-2600J0D01*
G01X2022800Y2303500D02*
G03X2022800I-2600J0D01*
G01X2025100Y2314500D02*
G03X2025100I-2600J0D01*
G01X2023600Y2324000D02*
G03X2023600I-2600J0D01*
G01X2029700Y2415600D02*
G03X2029700I-3200J0D01*
G01X2025700Y2436700D02*
G03X2025700I-3200J0D01*
G01X2015800Y2281200D02*
G03X2015800I-2600J0D01*
G01X2011100Y2285300D02*
G03X2011100I-2600J0D01*
G01X2006100Y2289700D02*
G03X2006100I-2600J0D01*
G01X2010100Y2296100D02*
G03X2010100I-2600J0D01*
G01X2012300Y2306600D02*
G03X2012300I-2600J0D01*
G01X2004000Y2308000D02*
G03X2004000I-2600J0D01*
G01X2007100Y2315500D02*
G03X2007100I-2600J0D01*
G01X2008200Y2331000D02*
G03X2008200I-3200J0D01*
G01X1998700Y2291500D02*
G03X1998700I-2600J0D01*
G01X2000600Y2392600D02*
G03X2000600I-3200J0D01*
G01X1991600Y2282000D02*
G03X1991600I-2600J0D01*
G01X1990700Y2374100D02*
G03X1990700I-2600J0D01*
G01X1994500Y2408800D02*
G03X1994500I-2600J0D01*
G01X1997000Y2438300D02*
G03X1997000I-2600J0D01*
G01X1970300Y1872700D02*
G03X1970300I-2600J0D01*
G01X1966500Y1877200D02*
G03X1966500I-2600J0D01*
G01X1971600Y1917500D02*
G03X1971600I-2600J0D01*
G01X1964900Y1891000D02*
G03X1964900I-2600J0D01*
G01X1961400Y1916200D02*
G03X1961400I-2600J0D01*
G01X1964300Y1942300D02*
G03X1964300I-2600J0D01*
G01X1968200Y1948500D02*
G03X1968200I-2600J0D01*
G01X1972300Y1961600D02*
G03X1972300I-2600J0D01*
G01X1975400Y1981200D02*
G03X1975400I-2600J0D01*
G01X1963700Y1952200D02*
G03X1963700I-2600J0D01*
G01X1965179Y1987870D02*
G03X1965179I-2600J0D01*
G01X1968593Y1991906D02*
G03X1968593I-2600J0D01*
G01X1975000Y2069100D02*
G03X1975000I-4100J0D01*
G01X1978600Y2131200D02*
G03X1978600I-4100J0D01*
G01Y2161200D02*
G03X1978600I-4100J0D01*
G01X1976600Y2183000D02*
G03X1976600I-2600J0D01*
G01X1979900Y2195100D02*
G03X1979900I-2600J0D01*
G01X1975400Y2200900D02*
G03X1975400I-2600J0D01*
G01X1975500Y2206300D02*
G03X1975500I-2600J0D01*
G01X1979800Y2211100D02*
G03X1979800I-2600J0D01*
G01X1980900Y2218200D02*
G03X1980900I-3200J0D01*
G01X1979400Y2232400D02*
G03X1979400I-3200J0D01*
G01X1977800Y2240900D02*
G03X1977800I-3200J0D01*
G01X1979700Y2292500D02*
G03X1979700I-2600J0D01*
G01X1981000Y2301900D02*
G03X1981000I-2600J0D01*
G01X1978100Y2312500D02*
G03X1978100I-2600J0D01*
G01X1953800Y1915700D02*
G03X1953800I-2600J0D01*
G01X1954700Y1921500D02*
G03X1954700I-2600J0D01*
G01X1958600Y1975500D02*
G03X1958600I-2600J0D01*
G01Y1996500D02*
G03X1958600I-2600J0D01*
G01X1965000Y2069100D02*
G03X1965000I-4100J0D01*
G01X1968600Y2131200D02*
G03X1968600I-4100J0D01*
G01Y2161200D02*
G03X1968600I-4100J0D01*
G01X1967100Y2179200D02*
G03X1967100I-2600J0D01*
G01X1972100Y2255000D02*
G03X1972100I-2600J0D01*
G01Y2261000D02*
G03X1972100I-2600J0D01*
G01X1971500Y2280500D02*
G03X1971500I-2600J0D01*
G01X1971600Y2303900D02*
G03X1971600I-2600J0D01*
G01X1976400Y2326500D02*
G03X1976400I-2600J0D01*
G01X1982400Y2379700D02*
G03X1982400I-4100J0D01*
G01Y2397417D02*
G03X1982400I-4100J0D01*
G01X1986400Y2416300D02*
G03X1986400I-2600J0D01*
G01X1969300Y2321300D02*
G03X1969300I-2600J0D01*
G01X1972600Y2341100D02*
G03X1972600I-3200J0D01*
G01X1971200Y2358700D02*
G03X1971200I-2600J0D01*
G01X1945886Y1932078D02*
G03X1945886I-2600J0D01*
G01X1949500Y1942200D02*
G03X1949500I-2600J0D01*
G01X1947600Y1958900D02*
G03X1947600I-2600J0D01*
G01X1955000Y2069100D02*
G03X1955000I-4100J0D01*
G01X1958600Y2131200D02*
G03X1958600I-4100J0D01*
G01Y2161200D02*
G03X1958600I-4100J0D01*
G01X1961600Y2196000D02*
G03X1961600I-2600J0D01*
G01X1960700Y2201900D02*
G03X1960700I-2600J0D01*
G01X1960400Y2215700D02*
G03X1960400I-2600J0D01*
G01X1958500Y2227400D02*
G03X1958500I-2600J0D01*
G01X1955900Y2245500D02*
G03X1955900I-2600J0D01*
G01X1956809Y2379700D02*
G03X1956809I-4100J0D01*
G01Y2397417D02*
G03X1956809I-4100J0D01*
G01X1946200Y1967600D02*
G03X1946200I-2600J0D01*
G01X1939222Y1936465D02*
G03X1939222I-2600J0D01*
G01X1940600Y1946600D02*
G03X1940600I-2600J0D01*
G01X1939800Y1962300D02*
G03X1939800I-2600J0D01*
G01X1945000Y1974000D02*
G03X1945000I-3200J0D01*
G01X1940600Y1995500D02*
G03X1940600I-2600J0D01*
G01X1944000Y2007500D02*
G03X1944000I-2600J0D01*
G01X1941600Y2257700D02*
G03X1941600I-3200J0D01*
G01X1944900Y2265300D02*
G03X1944900I-3200J0D01*
G01X1946800Y2447400D02*
G03X1946800I-3200J0D01*
G01X1938400Y2308300D02*
G03X1938400I-3200J0D01*
G01X1938700Y2360100D02*
G03X1938700I-2600J0D01*
G01X1928500Y1927100D02*
G03X1928500I-2600J0D01*
G01X1931800Y1949300D02*
G03X1931800I-2600J0D01*
G01X1921500Y1968564D02*
G03X1921500I-2600J0D01*
G01X1921486Y1980556D02*
G03X1921486I-2600J0D01*
G01X1923600Y2028400D02*
G03X1923600I-2600J0D01*
G01X1912400Y1886900D02*
G03X1912400I-4100J0D01*
G01Y1896900D02*
G03X1912400I-4100J0D01*
G01Y1906900D02*
G03X1912400I-4100J0D01*
G01Y1916900D02*
G03X1912400I-4100J0D01*
G01Y1926900D02*
G03X1912400I-4100J0D01*
G01Y1936900D02*
G03X1912400I-4100J0D01*
G01Y1946900D02*
G03X1912400I-4100J0D01*
G01Y1956900D02*
G03X1912400I-4100J0D01*
G01Y1966900D02*
G03X1912400I-4100J0D01*
G01Y1976900D02*
G03X1912400I-4100J0D01*
G01Y1986900D02*
G03X1912400I-4100J0D01*
G01Y1996900D02*
G03X1912400I-4100J0D01*
G01Y2006900D02*
G03X1912400I-4100J0D01*
G01Y2016900D02*
G03X1912400I-4100J0D01*
G01Y2026900D02*
G03X1912400I-4100J0D01*
G01Y2036900D02*
G03X1912400I-4100J0D01*
G01Y2046900D02*
G03X1912400I-4100J0D01*
G01Y2056900D02*
G03X1912400I-4100J0D01*
G01Y2066900D02*
G03X1912400I-4100J0D01*
G01Y2076900D02*
G03X1912400I-4100J0D01*
G01Y2086900D02*
G03X1912400I-4100J0D01*
G01Y2096900D02*
G03X1912400I-4100J0D01*
G01Y2106900D02*
G03X1912400I-4100J0D01*
G01Y2116900D02*
G03X1912400I-4100J0D01*
G01Y2126900D02*
G03X1912400I-4100J0D01*
G01Y2136900D02*
G03X1912400I-4100J0D01*
G01Y2146900D02*
G03X1912400I-4100J0D01*
G01Y2156900D02*
G03X1912400I-4100J0D01*
G01Y2166900D02*
G03X1912400I-4100J0D01*
G01Y2176900D02*
G03X1912400I-4100J0D01*
G01Y2186900D02*
G03X1912400I-4100J0D01*
G01Y2196900D02*
G03X1912400I-4100J0D01*
G01Y2206900D02*
G03X1912400I-4100J0D01*
G01Y2216900D02*
G03X1912400I-4100J0D01*
G01Y2226900D02*
G03X1912400I-4100J0D01*
G01Y2236900D02*
G03X1912400I-4100J0D01*
G01Y2246900D02*
G03X1912400I-4100J0D01*
G01Y2256900D02*
G03X1912400I-4100J0D01*
G01Y2266900D02*
G03X1912400I-4100J0D01*
G01Y2276900D02*
G03X1912400I-4100J0D01*
G01Y2286900D02*
G03X1912400I-4100J0D01*
G01Y2296900D02*
G03X1912400I-4100J0D01*
G01Y2306900D02*
G03X1912400I-4100J0D01*
G01Y2316900D02*
G03X1912400I-4100J0D01*
G01Y2326900D02*
G03X1912400I-4100J0D01*
G01Y2336900D02*
G03X1912400I-4100J0D01*
G01Y2346900D02*
G03X1912400I-4100J0D01*
G01Y2356900D02*
G03X1912400I-4100J0D01*
G01Y2366900D02*
G03X1912400I-4100J0D01*
G01Y2376900D02*
G03X1912400I-4100J0D01*
G01Y2386900D02*
G03X1912400I-4100J0D01*
G01Y2396900D02*
G03X1912400I-4100J0D01*
G01Y2406900D02*
G03X1912400I-4100J0D01*
G01Y2416900D02*
G03X1912400I-4100J0D01*
G01Y2426900D02*
G03X1912400I-4100J0D01*
G01Y2436900D02*
G03X1912400I-4100J0D01*
G01Y2446900D02*
G03X1912400I-4100J0D01*
G01Y2456900D02*
G03X1912400I-4100J0D01*
G01X2087800Y2468000D02*
X1902400D01*
Y2468100*
X1901900*
Y1871900*
X1962600*
Y1832100*
X2000900*
Y1866000*
X2015500*
Y1832400*
X2036400*
Y1872400*
X2087800*
Y2468000*
X2071900Y1884702D02*
G03X2072402Y1884200I2500J1998D01*
G01X2071398D02*
G03X2071900Y1884702I-1998J2500D01*
G01Y1883698D02*
G03X2071398Y1884200I-2500J-1998D01*
G01X2072402D02*
G03X2071900Y1883698I1998J-2500D01*
G01X2084800Y1922300D02*
G03X2084800I-2600J0D01*
G01X2085200Y1937200D02*
G03X2085200I-2600J0D01*
G01X2085900Y2011600D02*
G03X2085900I-2600J0D01*
G01X2076398Y1894200D02*
G03Y1899200I-1998J2500D01*
G01Y1889200D02*
G03Y1894200I-1998J2500D01*
G01Y1884200D02*
G03Y1889200I-1998J2500D01*
G01X2071900Y1879702D02*
G03X2076398Y1884200I2500J1998D01*
G01X2067402D02*
G03X2071900Y1879702I1998J-2500D01*
G01X2067402Y1889200D02*
G03Y1884200I1998J-2500D01*
G01X2066200Y1891689D02*
G03X2067402Y1889200I3200J11D01*
G01X2064016Y1889133D02*
G03X2066200Y1891689I-416J2567D01*
G01X2062684Y1889267D02*
G03X2064016Y1889133I416J-2567D01*
G01X2066200Y1891711D02*
G03X2062684Y1889267I-2600J-11D01*
G01X2067402Y1894200D02*
G03X2066200Y1891711I1998J-2500D01*
G01X2067402Y1899200D02*
G03Y1894200I1998J-2500D01*
G01X2071900Y1903698D02*
G03X2067402Y1899200I-2500J-1998D01*
G01X2076398D02*
G03X2071900Y1903698I-1998J2500D01*
G01X2079000Y1928400D02*
G03X2079000I-2600J0D01*
G01X2085500Y2035500D02*
G03X2085500I-4100J0D01*
G01Y2045500D02*
G03X2085500I-4100J0D01*
G01Y2055500D02*
G03X2085500I-4100J0D01*
G01Y2065500D02*
G03X2085500I-4100J0D01*
G01Y2075500D02*
G03X2085500I-4100J0D01*
G01Y2085500D02*
G03X2085500I-4100J0D01*
G01Y2095500D02*
G03X2085500I-4100J0D01*
G01Y2105500D02*
G03X2085500I-4100J0D01*
G01Y2115500D02*
G03X2085500I-4100J0D01*
G01Y2125500D02*
G03X2085500I-4100J0D01*
G01X2085000Y2138200D02*
G03X2085000I-3200J0D01*
G01X2083300Y2213000D02*
G03X2083300I-3200J0D01*
G01X2082600Y2283000D02*
G03X2082600I-2600J0D01*
G01X2084200Y2301300D02*
G03X2084200I-2600J0D01*
G01X2082800Y2324400D02*
G03X2082800I-2600J0D01*
G01X2081400Y2385900D02*
G03X2081400I-3200J0D01*
G01X2073000Y1986600D02*
G03X2073000I-2600J0D01*
G01X2067300Y1967400D02*
G03X2067300I-2600J0D01*
G01X2060200Y1878300D02*
G03X2060200I-2600J0D01*
G01X2057000Y1886700D02*
G03X2057000I-2600J0D01*
G01X2059700Y1963300D02*
G03X2059700I-2600J0D01*
G01X2053900Y1956800D02*
G03X2053900I-2600J0D01*
G01X2059100Y1971900D02*
G03X2059100I-2600J0D01*
G01X2040400Y1887500D02*
G03X2040400I-2600J0D01*
G01X2041100Y1906000D02*
G03X2041100I-2600J0D01*
G01X2045700Y1937800D02*
G03X2045700I-3200J0D01*
G01X2046300Y1950700D02*
G03X2046300I-3200J0D01*
G01X2050400Y1986600D02*
G03X2050400I-2600J0D01*
G01X2051400Y1996600D02*
G03X2051400I-3200J0D01*
G01X2055500Y2035500D02*
G03X2055500I-4100J0D01*
G01Y2045500D02*
G03X2055500I-4100J0D01*
G01Y2055500D02*
G03X2055500I-4100J0D01*
G01Y2065500D02*
G03X2055500I-4100J0D01*
G01Y2075500D02*
G03X2055500I-4100J0D01*
G01Y2085500D02*
G03X2055500I-4100J0D01*
G01Y2095500D02*
G03X2055500I-4100J0D01*
G01Y2105500D02*
G03X2055500I-4100J0D01*
G01Y2115500D02*
G03X2055500I-4100J0D01*
G01Y2125500D02*
G03X2055500I-4100J0D01*
G01X2056600Y2148600D02*
G03X2056600I-2600J0D01*
G01Y2155500D02*
G03X2056600I-2600J0D01*
G01X2056200Y2171400D02*
G03X2056200I-2600J0D01*
G01X2056400Y2178300D02*
G03X2056400I-2600J0D01*
G01X2061400Y2202200D02*
G03X2061400I-2600J0D01*
G01X2064804Y2207204D02*
G03X2064804I-2600J0D01*
G01X2068100Y2211800D02*
G03X2068100I-2600J0D01*
G01X2071200Y2227000D02*
G03X2071200I-2600J0D01*
G01X2072300Y2250900D02*
G03X2072300I-3200J0D01*
G01X2070300Y2269300D02*
G03X2070300I-3200J0D01*
G01X2054401Y2208783D02*
G03X2056824Y2207700I299J-2583D01*
X2054401Y2208783I-24J3200*
G01X2058400Y2216700D02*
G03X2058400I-2600J0D01*
G01X2059300Y2223300D02*
G03X2059300I-3200J0D01*
G01X2060000Y2235500D02*
G03X2060000I-2600J0D01*
G01X2062400Y2241600D02*
G03X2062400I-3200J0D01*
G01X2069900Y2303500D02*
Y2296300D01*
X2069400Y2295800D02*
G03X2069900Y2296300I0J500D01*
G01X2069400Y2295800D02*
X2062200D01*
X2061700Y2296300D02*
G03X2062200Y2295800I500J0D01*
G01X2061700Y2296300D02*
Y2303500D01*
X2062200Y2304000D02*
G03X2061700Y2303500I0J-500D01*
G01X2062200Y2304000D02*
X2069400D01*
X2069900Y2303500D02*
G03X2069400Y2304000I-500J0D01*
G01X2069900Y2309900D02*
G03X2069900I-4100J0D01*
G01Y2319900D02*
G03X2069900I-4100J0D01*
G01Y2329900D02*
G03X2069900I-4100J0D01*
G01Y2339900D02*
G03X2069900I-4100J0D01*
G01X2054300Y2272600D02*
G03X2054300I-3200J0D01*
G01X2059900Y2299900D02*
G03X2059900I-4100J0D01*
G01Y2309900D02*
G03X2059900I-4100J0D01*
G01Y2319900D02*
G03X2059900I-4100J0D01*
G01Y2329900D02*
G03X2059900I-4100J0D01*
G01Y2339900D02*
G03X2059900I-4100J0D01*
G01X2058400Y2351900D02*
G03X2058400I-2600J0D01*
G01X2045700Y2027600D02*
G03X2045700I-2600J0D01*
G01X2042600Y2054200D02*
G03X2042600I-2600J0D01*
G01X2046100Y2081600D02*
G03X2046100I-2600J0D01*
G01Y2111000D02*
G03X2046100I-2600J0D01*
G01X2031200Y1863600D02*
G03X2031200I-2600J0D01*
G01X2030300Y1884000D02*
G03X2030300I-2600J0D01*
G01X2033500Y1931400D02*
G03X2033500I-2600J0D01*
G01X2036400Y1989300D02*
G03X2036400I-3200J0D01*
G01X2036500Y1997600D02*
G03X2036500I-2600J0D01*
G01X2039300Y2069400D02*
G03X2039300I-2600J0D01*
G01X2038600Y2096700D02*
G03X2038600I-2600J0D01*
G01X2039700Y2103100D02*
G03X2039700I-2600J0D01*
G01X2041600Y2138300D02*
G03X2041600I-2600J0D01*
G01X2047500Y2187900D02*
G03X2047500I-3200J0D01*
G01X2044600Y2222900D02*
G03X2044600I-2600J0D01*
G01X2044800Y2234600D02*
G03X2044800I-2600J0D01*
G01X2045400Y2257200D02*
G03X2045400I-3200J0D01*
G01X2049200Y2296100D02*
G03X2049200I-2600J0D01*
G01X2025000Y1866000D02*
G03X2025000I-2600J0D01*
G01X2029650Y2001250D02*
G03X2029650I-2600J0D01*
G01X2032700Y2039900D02*
G03X2032700I-4100J0D01*
G01Y2049900D02*
G03X2032700I-4100J0D01*
G01Y2059900D02*
G03X2032700I-4100J0D01*
G01Y2069900D02*
G03X2032700I-4100J0D01*
G01Y2079900D02*
G03X2032700I-4100J0D01*
G01Y2089900D02*
G03X2032700I-4100J0D01*
G01Y2099900D02*
G03X2032700I-4100J0D01*
G01Y2109900D02*
G03X2032700I-4100J0D01*
G01X2024400Y1873700D02*
G03X2024400I-2600J0D01*
G01X2022100Y1879500D02*
G03X2022100I-2600J0D01*
G01X2016400Y1869800D02*
G03X2016400I-2600J0D01*
G01X2015246Y1884990D02*
G03X2018663Y1888526I1100J2356D01*
G01X2014702Y1885332D02*
G03X2015246Y1884990I-1902J-3632D01*
G01X2018565Y1888702D02*
G03X2014702Y1885332I-2219J-1356D01*
G01X2018663Y1888526D02*
G03X2018565Y1888702I2219J1356D01*
G01X2022300Y1897000D02*
G03X2022300I-2600J0D01*
G01X2024110Y1901990D02*
G03X2024110I-2600J0D01*
G01X2009600Y1886000D02*
G03X2009600I-2600J0D01*
G01X2016900Y1899417D02*
G03X2016900I-4100J0D01*
G01X2016000Y1906500D02*
G03X2016000I-2600J0D01*
G01X2021100Y1907600D02*
G03X2021100I-2600J0D01*
G01X2024200Y1919800D02*
G03X2024200I-2600J0D01*
G01X2022800Y1925900D02*
G03X2022800I-2600J0D01*
G01X2024827Y2118295D02*
G03X2025138Y2117703I-2127J-1495D01*
X2024827Y2118295I3462J2197*
G01X2032700Y2129900D02*
G03X2032700I-4100J0D01*
G01X2022700Y2125800D02*
G03X2022700I-2600J0D01*
G01X2025600Y2155500D02*
G03X2025600I-2600J0D01*
G01X2029600Y2169000D02*
G03X2029600I-2600J0D01*
G01X2026900Y2261000D02*
G03X2026900I-2600J0D01*
G01X2031400Y2265300D02*
G03X2031400I-2600J0D01*
G01X2033600Y2280600D02*
G03X2033600I-2600J0D01*
G01X2037900Y2292700D02*
G03X2037900I-3200J0D01*
G01X2016400Y1912400D02*
G03X2016400I-2600J0D01*
G01X2015600Y1927782D02*
G03X2015600I-2600J0D01*
G01X2008600Y1896000D02*
G03X2008600I-2600J0D01*
G01Y1902000D02*
G03X2008600I-2600J0D01*
G01X1996300Y1854900D02*
G03X1996300I-2600J0D01*
G01X1998500Y1863700D02*
G03X1998500I-2600J0D01*
G01X2001600Y1868900D02*
G03X2001600I-2600J0D01*
G01X2000600Y1895500D02*
G03X2000600I-2600J0D01*
G01X2001600Y1901000D02*
G03X2001600I-2600J0D01*
G01X2004574Y1919000D02*
G03X2004574I-2600J0D01*
G01X2006600Y1925500D02*
G03X2006600I-2600J0D01*
G01X2007600Y1934500D02*
G03X2007600I-2600J0D01*
G01X2012700Y1939900D02*
G03X2012700I-2600J0D01*
G01X2015300Y1944700D02*
G03X2015300I-2600J0D01*
G01X2016300Y1955700D02*
G03X2016300I-2600J0D01*
G01Y1964500D02*
G03X2016300I-2600J0D01*
G01X2014833Y1970354D02*
G03X2014833I-2600J0D01*
G01X2014800Y1982900D02*
G03X2014800I-2600J0D01*
G01X2007200Y1941800D02*
G03X2007200I-2600J0D01*
G01X2006487Y1955072D02*
G03X2006487I-2600J0D01*
G01X2006900Y1961200D02*
G03X2006900I-2600J0D01*
G01X2006700Y1971400D02*
G03X2006700I-2600J0D01*
G01X2004900Y1982500D02*
G03X2004900I-2600J0D01*
G01X2006615Y1995628D02*
G03X2006615I-2600J0D01*
G01X2009100Y2030500D02*
G03X2009100I-2600J0D01*
G01X2015500Y2039800D02*
G03X2015500I-4100J0D01*
G01Y2049800D02*
G03X2015500I-4100J0D01*
G01Y2059800D02*
G03X2015500I-4100J0D01*
G01X1998600Y1907500D02*
G03X1998600I-2600J0D01*
G01X1992200Y1859400D02*
G03X1992200I-2600J0D01*
G01X1990700Y1871400D02*
G03X1990700I-2600J0D01*
G01X1985600Y1873800D02*
G03X1985600I-3200J0D01*
G01X1991309Y1881700D02*
G03X1991309I-4100J0D01*
G01X1991700Y1892100D02*
G03X1991700I-2600J0D01*
G01X1991309Y1899417D02*
G03X1991309I-4100J0D01*
G01X1992500Y1906400D02*
G03X1992500I-2600J0D01*
G01X1989036Y1917887D02*
G03X1991699Y1916302I264J-2587D01*
X1989036Y1917887I101J3198*
G01X1999555Y1926601D02*
G03X1999555I-2600J0D01*
G01X1973300Y1865600D02*
G03X1973300I-2600J0D01*
G01X1977700Y1874500D02*
G03X1977700I-2600J0D01*
G01X1979500Y1908400D02*
G03X1979500I-2600J0D01*
G01X1984500Y1912600D02*
G03X1984500I-2600J0D01*
G01X1986300Y1919300D02*
G03X1986300I-2600J0D01*
G01X1989962Y1933187D02*
G03X1989962I-2600J0D01*
G01X1987400Y1939600D02*
G03X1987400I-2600J0D01*
G01X1992400Y1949800D02*
G03X1992400I-2600J0D01*
G01X1995700Y1959300D02*
G03X1995700I-2600J0D01*
G01X1999400Y1992200D02*
G03X1999400I-2600J0D01*
G01X2003600Y2000000D02*
G03X2003600I-2600J0D01*
G01X2007800Y2065600D02*
G03X2007800I-2600J0D01*
G01X2015500Y2069800D02*
G03X2015500I-4100J0D01*
G01Y2079800D02*
G03X2015500I-4100J0D01*
G01Y2089800D02*
G03X2015500I-4100J0D01*
G01Y2099800D02*
G03X2015500I-4100J0D01*
G01Y2109800D02*
G03X2015500I-4100J0D01*
G01Y2119800D02*
G03X2015500I-4100J0D01*
G01X2007500Y2121500D02*
G03X2007500I-2600J0D01*
G01X2015500Y2129800D02*
G03X2015500I-4100J0D01*
G01X2018700Y2150600D02*
G03X2018700I-3200J0D01*
G01X2020500Y2171500D02*
G03X2020500I-2600J0D01*
G01X2016183Y2180742D02*
G03X2015015Y2179264I-2983J1158D01*
X2016183Y2180742I2485J-764*
G01X2014000Y2197400D02*
G03X2014000I-2600J0D01*
G01X2007900Y2152200D02*
G03X2007900I-2600J0D01*
G01X1993300Y1982400D02*
G03X1993300I-2600J0D01*
G01X1993600Y2007600D02*
G03X1993600I-3200J0D01*
G01X1999000Y2020100D02*
G03X1999000I-3200J0D01*
G01X1986600Y1949800D02*
G03X1986600I-2600J0D01*
G01X1979000Y1914900D02*
G03X1979000I-2600J0D01*
G01X1980900Y1932400D02*
G03X1980900I-2600J0D01*
G01X1985400Y1962500D02*
G03X1985400I-2600J0D01*
G01X1986400Y1979900D02*
G03X1986400I-2600J0D01*
G01X1991400Y2014700D02*
G03X1991400I-2600J0D01*
G01X1995000Y2069100D02*
G03X1995000I-4100J0D01*
G01X1999600Y2131000D02*
G03X1999600I-2600J0D01*
G01X2001200Y2170400D02*
G03X2001200I-2600J0D01*
G01X1979500Y1937500D02*
G03X1979500I-2600J0D01*
G01X1979600Y1959500D02*
G03X1979600I-2600J0D01*
G01X1980100Y1978100D02*
G03X1980100I-2600J0D01*
G01X1985000Y2069100D02*
G03X1985000I-4100J0D01*
G01X1988600Y2131200D02*
G03X1988600I-4100J0D01*
G01Y2161200D02*
G03X1988600I-4100J0D01*
G01X1992600Y2181900D02*
G03X1992600I-3200J0D01*
G01X1992400Y2196400D02*
G03X1992400I-2600J0D01*
G01X1993700Y2214300D02*
G03X1993700I-3200J0D01*
G01X2020000Y2230400D02*
G03X2020000I-13600J0D01*
G01X2022200Y2266200D02*
G03X2022200I-2600J0D01*
G01X2027000Y2281200D02*
G03X2027000I-2600J0D01*
G01X2032600Y2342700D02*
G03X2032600I-3200J0D01*
G01X2032200Y2371900D02*
G03X2032200I-3200J0D01*
G01X2032500Y2382500D02*
G03X2032500I-2600J0D01*
G01X2038200Y2405500D02*
G03X2038200I-3200J0D01*
G01X2021700Y2284500D02*
G03X2021700I-2600J0D01*
G01X2022800Y2303500D02*
G03X2022800I-2600J0D01*
G01X2025100Y2314500D02*
G03X2025100I-2600J0D01*
G01X2023600Y2324000D02*
G03X2023600I-2600J0D01*
G01X2029700Y2415600D02*
G03X2029700I-3200J0D01*
G01X2025700Y2436700D02*
G03X2025700I-3200J0D01*
G01X2010685Y2264041D02*
G03X2011067Y2263213I-2685J-1741D01*
X2010685Y2264041I2133J1487*
G01X2015800Y2281200D02*
G03X2015800I-2600J0D01*
G01X2011100Y2285300D02*
G03X2011100I-2600J0D01*
G01X2006100Y2289700D02*
G03X2006100I-2600J0D01*
G01X2010100Y2296100D02*
G03X2010100I-2600J0D01*
G01X2012300Y2306600D02*
G03X2012300I-2600J0D01*
G01X1994788Y2263828D02*
G03X1994412Y2262572I-3188J272D01*
X1994788Y2263828I3188J-272*
G01X2004000Y2308000D02*
G03X2004000I-2600J0D01*
G01X2007100Y2315500D02*
G03X2007100I-2600J0D01*
G01X2008200Y2331000D02*
G03X2008200I-3200J0D01*
G01X1998700Y2291500D02*
G03X1998700I-2600J0D01*
G01X2000600Y2392600D02*
G03X2000600I-3200J0D01*
G01X1991600Y2282000D02*
G03X1991600I-2600J0D01*
G01X1990700Y2374100D02*
G03X1990700I-2600J0D01*
G01X1994500Y2408800D02*
G03X1994500I-2600J0D01*
G01X1997000Y2438300D02*
G03X1997000I-2600J0D01*
G01X1970300Y1872700D02*
G03X1970300I-2600J0D01*
G01X1966500Y1877200D02*
G03X1966500I-2600J0D01*
G01X1971600Y1917500D02*
G03X1971600I-2600J0D01*
G01X1970260Y1935215D02*
G03X1970840Y1934985I-660J-2515D01*
X1970260Y1935215I660J2515*
G01X1964900Y1891000D02*
G03X1964900I-2600J0D01*
G01X1961400Y1916200D02*
G03X1961400I-2600J0D01*
G01X1964300Y1942300D02*
G03X1964300I-2600J0D01*
G01X1968200Y1948500D02*
G03X1968200I-2600J0D01*
G01X1972300Y1961600D02*
G03X1972300I-2600J0D01*
G01X1975400Y1981200D02*
G03X1975400I-2600J0D01*
G01X1963700Y1952200D02*
G03X1963700I-2600J0D01*
G01X1965179Y1987870D02*
G03X1965179I-2600J0D01*
G01X1968593Y1991906D02*
G03X1968593I-2600J0D01*
G01X1975000Y2069100D02*
G03X1975000I-4100J0D01*
G01X1978600Y2131200D02*
G03X1978600I-4100J0D01*
G01Y2161200D02*
G03X1978600I-4100J0D01*
G01X1976600Y2183000D02*
G03X1976600I-2600J0D01*
G01X1979900Y2195100D02*
G03X1979900I-2600J0D01*
G01X1975400Y2200900D02*
G03X1975400I-2600J0D01*
G01X1975500Y2206300D02*
G03X1975500I-2600J0D01*
G01X1979800Y2211100D02*
G03X1979800I-2600J0D01*
G01X1980900Y2218200D02*
G03X1980900I-3200J0D01*
G01X1979400Y2232400D02*
G03X1979400I-3200J0D01*
G01X1977800Y2240900D02*
G03X1977800I-3200J0D01*
G01X1979700Y2292500D02*
G03X1979700I-2600J0D01*
G01X1981000Y2301900D02*
G03X1981000I-2600J0D01*
G01X1978100Y2312500D02*
G03X1978100I-2600J0D01*
G01X1953800Y1915700D02*
G03X1953800I-2600J0D01*
G01X1954700Y1921500D02*
G03X1954700I-2600J0D01*
G01X1958600Y1975500D02*
G03X1958600I-2600J0D01*
G01Y1996500D02*
G03X1958600I-2600J0D01*
G01X1965000Y2069100D02*
G03X1965000I-4100J0D01*
G01X1968600Y2131200D02*
G03X1968600I-4100J0D01*
G01Y2161200D02*
G03X1968600I-4100J0D01*
G01X1967100Y2179200D02*
G03X1967100I-2600J0D01*
G01X1972100Y2255000D02*
G03X1972100I-2600J0D01*
G01Y2261000D02*
G03X1972100I-2600J0D01*
G01X1971500Y2280500D02*
G03X1971500I-2600J0D01*
G01X1971600Y2303900D02*
G03X1971600I-2600J0D01*
G01X1976400Y2326500D02*
G03X1976400I-2600J0D01*
G01X1982400Y2379700D02*
G03X1982400I-4100J0D01*
G01Y2397417D02*
G03X1982400I-4100J0D01*
G01X1986400Y2416300D02*
G03X1986400I-2600J0D01*
G01X1969300Y2321300D02*
G03X1969300I-2600J0D01*
G01X1972600Y2341100D02*
G03X1972600I-3200J0D01*
G01X1971200Y2358700D02*
G03X1971200I-2600J0D01*
G01X1945886Y1932078D02*
G03X1945886I-2600J0D01*
G01X1949500Y1942200D02*
G03X1949500I-2600J0D01*
G01X1947600Y1958900D02*
G03X1947600I-2600J0D01*
G01X1955000Y2069100D02*
G03X1955000I-4100J0D01*
G01X1958600Y2131200D02*
G03X1958600I-4100J0D01*
G01Y2161200D02*
G03X1958600I-4100J0D01*
G01X1961600Y2196000D02*
G03X1961600I-2600J0D01*
G01X1960700Y2201900D02*
G03X1960700I-2600J0D01*
G01X1960400Y2215700D02*
G03X1960400I-2600J0D01*
G01X1958500Y2227400D02*
G03X1958500I-2600J0D01*
G01X1955900Y2245500D02*
G03X1955900I-2600J0D01*
G01X1956809Y2379700D02*
G03X1956809I-4100J0D01*
G01Y2397417D02*
G03X1956809I-4100J0D01*
G01X1946200Y1967600D02*
G03X1946200I-2600J0D01*
G01X1939222Y1936465D02*
G03X1939222I-2600J0D01*
G01X1940600Y1946600D02*
G03X1940600I-2600J0D01*
G01X1939800Y1962300D02*
G03X1939800I-2600J0D01*
G01X1945000Y1974000D02*
G03X1945000I-3200J0D01*
G01X1940600Y1995500D02*
G03X1940600I-2600J0D01*
G01X1944000Y2007500D02*
G03X1944000I-2600J0D01*
G01X1941600Y2257700D02*
G03X1941600I-3200J0D01*
G01X1944900Y2265300D02*
G03X1944900I-3200J0D01*
G01X1946800Y2447400D02*
G03X1946800I-3200J0D01*
G01X1938400Y2308300D02*
G03X1938400I-3200J0D01*
G01X1938700Y2360100D02*
G03X1938700I-2600J0D01*
G01X1928500Y1927100D02*
G03X1928500I-2600J0D01*
G01X1931800Y1949300D02*
G03X1931800I-2600J0D01*
G01X1921500Y1968564D02*
G03X1921500I-2600J0D01*
G01X1921486Y1980556D02*
G03X1921486I-2600J0D01*
G01X1923600Y2028400D02*
G03X1923600I-2600J0D01*
G01X1912400Y1886900D02*
G03X1912400I-4100J0D01*
G01Y1896900D02*
G03X1912400I-4100J0D01*
G01Y1906900D02*
G03X1912400I-4100J0D01*
G01Y1916900D02*
G03X1912400I-4100J0D01*
G01Y1926900D02*
G03X1912400I-4100J0D01*
G01Y1936900D02*
G03X1912400I-4100J0D01*
G01Y1946900D02*
G03X1912400I-4100J0D01*
G01Y1956900D02*
G03X1912400I-4100J0D01*
G01Y1966900D02*
G03X1912400I-4100J0D01*
G01Y1976900D02*
G03X1912400I-4100J0D01*
G01Y1986900D02*
G03X1912400I-4100J0D01*
G01Y1996900D02*
G03X1912400I-4100J0D01*
G01Y2006900D02*
G03X1912400I-4100J0D01*
G01Y2016900D02*
G03X1912400I-4100J0D01*
G01Y2026900D02*
G03X1912400I-4100J0D01*
G01Y2036900D02*
G03X1912400I-4100J0D01*
G01Y2046900D02*
G03X1912400I-4100J0D01*
G01Y2056900D02*
G03X1912400I-4100J0D01*
G01Y2066900D02*
G03X1912400I-4100J0D01*
G01Y2076900D02*
G03X1912400I-4100J0D01*
G01Y2086900D02*
G03X1912400I-4100J0D01*
G01Y2096900D02*
G03X1912400I-4100J0D01*
G01Y2106900D02*
G03X1912400I-4100J0D01*
G01Y2116900D02*
G03X1912400I-4100J0D01*
G01Y2126900D02*
G03X1912400I-4100J0D01*
G01Y2136900D02*
G03X1912400I-4100J0D01*
G01Y2146900D02*
G03X1912400I-4100J0D01*
G01Y2156900D02*
G03X1912400I-4100J0D01*
G01Y2166900D02*
G03X1912400I-4100J0D01*
G01Y2176900D02*
G03X1912400I-4100J0D01*
G01Y2186900D02*
G03X1912400I-4100J0D01*
G01Y2196900D02*
G03X1912400I-4100J0D01*
G01Y2206900D02*
G03X1912400I-4100J0D01*
G01Y2216900D02*
G03X1912400I-4100J0D01*
G01Y2226900D02*
G03X1912400I-4100J0D01*
G01Y2236900D02*
G03X1912400I-4100J0D01*
G01Y2246900D02*
G03X1912400I-4100J0D01*
G01Y2256900D02*
G03X1912400I-4100J0D01*
G01Y2266900D02*
G03X1912400I-4100J0D01*
G01Y2276900D02*
G03X1912400I-4100J0D01*
G01Y2286900D02*
G03X1912400I-4100J0D01*
G01Y2296900D02*
G03X1912400I-4100J0D01*
G01Y2306900D02*
G03X1912400I-4100J0D01*
G01Y2316900D02*
G03X1912400I-4100J0D01*
G01Y2326900D02*
G03X1912400I-4100J0D01*
G01Y2336900D02*
G03X1912400I-4100J0D01*
G01Y2346900D02*
G03X1912400I-4100J0D01*
G01Y2356900D02*
G03X1912400I-4100J0D01*
G01Y2366900D02*
G03X1912400I-4100J0D01*
G01Y2376900D02*
G03X1912400I-4100J0D01*
G01Y2386900D02*
G03X1912400I-4100J0D01*
G01Y2396900D02*
G03X1912400I-4100J0D01*
G01Y2406900D02*
G03X1912400I-4100J0D01*
G01Y2416900D02*
G03X1912400I-4100J0D01*
G01Y2426900D02*
G03X1912400I-4100J0D01*
G01Y2436900D02*
G03X1912400I-4100J0D01*
G01Y2446900D02*
G03X1912400I-4100J0D01*
G01Y2456900D02*
G03X1912400I-4100J0D01*
G01X1901900Y2467499D02*
X2087800D01*
X1901900Y2466599D02*
X2087800D01*
X1901900Y2465699D02*
X2087800D01*
X1901900Y2464799D02*
X2087800D01*
X1901900Y2463899D02*
X2087800D01*
X1901900Y2462999D02*
X2087800D01*
X1901900Y2462099D02*
X2087800D01*
X1901900Y2461199D02*
X2087800D01*
X1910593Y2460299D02*
X2087800D01*
X1911551Y2459399D02*
X2087800D01*
X1912075Y2458499D02*
X2087800D01*
X1912340Y2457599D02*
X2087800D01*
X1912395Y2456699D02*
X2087800D01*
X1912249Y2455799D02*
X2087800D01*
X1911878Y2454899D02*
X2087800D01*
X1911197Y2453999D02*
X2087800D01*
X1909836Y2453099D02*
X2087800D01*
X1901900Y2452199D02*
X2087800D01*
X1901900Y2451299D02*
X2087800D01*
X1944717Y2450399D02*
X2087800D01*
X1946016Y2449499D02*
X2087800D01*
X1946567Y2448599D02*
X2087800D01*
X1946786Y2447699D02*
X2087800D01*
X1946743Y2446799D02*
X2087800D01*
X1946426Y2445899D02*
X2087800D01*
X1945715Y2444999D02*
X2087800D01*
X1911294Y2444099D02*
X2087800D01*
X1910064Y2443199D02*
X2087800D01*
X1901900Y2442299D02*
X2087800D01*
X1901900Y2441399D02*
X2087800D01*
X1995788Y2440499D02*
X2087800D01*
X2023856Y2439599D02*
X2087800D01*
X2024999Y2438699D02*
X2087800D01*
X2025505Y2437799D02*
X2087800D01*
X2025694Y2436899D02*
X2087800D01*
X2025622Y2435999D02*
X2087800D01*
X2025271Y2435099D02*
X2087800D01*
X2024496Y2434199D02*
X2087800D01*
X1910260Y2433299D02*
X2087800D01*
X1901900Y2432399D02*
X2087800D01*
X1901900Y2431499D02*
X2087800D01*
X1910069Y2430599D02*
X2087800D01*
X1911296Y2429699D02*
X2087800D01*
X1911934Y2428799D02*
X2087800D01*
X1912277Y2427899D02*
X2087800D01*
X1912399Y2426999D02*
X2087800D01*
X1912321Y2426099D02*
X2087800D01*
X1912030Y2425199D02*
X2087800D01*
X1911469Y2424299D02*
X2087800D01*
X1910433Y2423399D02*
X2087800D01*
X1901900Y2422499D02*
X2087800D01*
X1901900Y2421599D02*
X2087800D01*
X1909843Y2420699D02*
X2087800D01*
X1911200Y2419799D02*
X2087800D01*
X1983883Y2418899D02*
X2087800D01*
X2028618Y2417999D02*
X2087800D01*
X2029327Y2417099D02*
X2087800D01*
X2029644Y2416199D02*
X2087800D01*
X2029686Y2415299D02*
X2087800D01*
X2029466Y2414399D02*
X2087800D01*
X2028913Y2413499D02*
X2087800D01*
X2027610Y2412599D02*
X2087800D01*
X1901900Y2411699D02*
X2087800D01*
X1993563Y2410799D02*
X2087800D01*
X1994256Y2409899D02*
X2087800D01*
X1994492Y2408999D02*
X2087800D01*
X2036867Y2408099D02*
X2087800D01*
X2037712Y2407199D02*
X2087800D01*
X2038099Y2406299D02*
X2087800D01*
X2038198Y2405399D02*
X2087800D01*
X2038039Y2404499D02*
X2087800D01*
X2037574Y2403599D02*
X2087800D01*
X2036547Y2402699D02*
X2087800D01*
X1901900Y2401799D02*
X2087800D01*
X1980464Y2400899D02*
X2087800D01*
X1981485Y2399999D02*
X2087800D01*
X1982039Y2399099D02*
X2087800D01*
X1982325Y2398199D02*
X2087800D01*
X1982398Y2397299D02*
X2087800D01*
X1982272Y2396399D02*
X2087800D01*
X1998756Y2395499D02*
X2087800D01*
X1999899Y2394599D02*
X2087800D01*
X2000405Y2393699D02*
X2087800D01*
X2000594Y2392799D02*
X2087800D01*
X2000522Y2391899D02*
X2087800D01*
X2000171Y2390999D02*
X2087800D01*
X1999396Y2390099D02*
X2087800D01*
X1911695Y2389199D02*
X2087800D01*
X2080318Y2388299D02*
X2087800D01*
X2081027Y2387399D02*
X2087800D01*
X2081344Y2386499D02*
X2087800D01*
X2081386Y2385599D02*
X2087800D01*
X2081166Y2384699D02*
X2087800D01*
X2080613Y2383799D02*
X2087800D01*
X2079310Y2382899D02*
X2087800D01*
X2032451Y2381999D02*
X2087800D01*
X2032090Y2381099D02*
X2087800D01*
X2031110Y2380199D02*
X2087800D01*
X1982380Y2379299D02*
X2087800D01*
X1982188Y2378399D02*
X2087800D01*
X1981759Y2377499D02*
X2087800D01*
X1988819Y2376599D02*
X2087800D01*
X1990150Y2375699D02*
X2087800D01*
X2030356Y2374799D02*
X2087800D01*
X2031499Y2373899D02*
X2087800D01*
X2032005Y2372999D02*
X2087800D01*
X2032194Y2372099D02*
X2087800D01*
X2032122Y2371199D02*
X2087800D01*
X2031771Y2370299D02*
X2087800D01*
X2030996Y2369399D02*
X2087800D01*
X1912075Y2368499D02*
X2087800D01*
X1912340Y2367599D02*
X2087800D01*
X1912395Y2366699D02*
X2087800D01*
X1912249Y2365799D02*
X2087800D01*
X1911878Y2364899D02*
X2087800D01*
X1911197Y2363999D02*
X2087800D01*
X1909836Y2363099D02*
X2087800D01*
X1937635Y2362199D02*
X2087800D01*
X1968683Y2361299D02*
X2087800D01*
X1970568Y2360399D02*
X2087800D01*
X1971074Y2359499D02*
X2087800D01*
X1971198Y2358599D02*
X2087800D01*
X1970999Y2357699D02*
X2087800D01*
X1970373Y2356799D02*
X2087800D01*
X1912276Y2355899D02*
X2087800D01*
X1911933Y2354999D02*
X2087800D01*
X2057188Y2354099D02*
X2087800D01*
X2058052Y2353199D02*
X2087800D01*
X2058369Y2352299D02*
X2087800D01*
X2058351Y2351399D02*
X2087800D01*
X2057990Y2350499D02*
X2087800D01*
X2057010Y2349599D02*
X2087800D01*
X1911984Y2348699D02*
X2087800D01*
X1912300Y2347799D02*
X2087800D01*
X1912400Y2346899D02*
X2087800D01*
X1912300Y2345999D02*
X2087800D01*
X2031518Y2345099D02*
X2087800D01*
X2032227Y2344199D02*
X2087800D01*
X2068093Y2343299D02*
X2087800D01*
X2069051Y2342399D02*
X2087800D01*
X2069575Y2341499D02*
X2087800D01*
X2069840Y2340599D02*
X2087800D01*
X2069895Y2339699D02*
X2087800D01*
X2069749Y2338799D02*
X2087800D01*
X2069378Y2337899D02*
X2087800D01*
X2068697Y2336999D02*
X2087800D01*
X2067336Y2336099D02*
X2087800D01*
X1912030Y2335199D02*
X2087800D01*
X1911469Y2334299D02*
X2087800D01*
X2067938Y2333399D02*
X2087800D01*
X2068971Y2332499D02*
X2087800D01*
X2069532Y2331599D02*
X2087800D01*
X2069821Y2330699D02*
X2087800D01*
X2069899Y2329799D02*
X2087800D01*
X2069776Y2328899D02*
X2087800D01*
X2069433Y2327999D02*
X2087800D01*
X2068794Y2327099D02*
X2087800D01*
X2082077Y2326199D02*
X2087800D01*
X2082640Y2325299D02*
X2087800D01*
X2082800Y2324399D02*
X2087800D01*
X2082639Y2323499D02*
X2087800D01*
X2082075Y2322599D02*
X2087800D01*
X2069484Y2321699D02*
X2087800D01*
X2069800Y2320799D02*
X2087800D01*
X2069900Y2319899D02*
X2087800D01*
X2069800Y2318999D02*
X2087800D01*
X2069483Y2318099D02*
X2087800D01*
X2068884Y2317199D02*
X2087800D01*
X2067760Y2316299D02*
X2087800D01*
X2024940Y2315399D02*
X2087800D01*
X2025100Y2314499D02*
X2087800D01*
X2067569Y2313599D02*
X2087800D01*
X2068796Y2312699D02*
X2087800D01*
X2069434Y2311799D02*
X2087800D01*
X2069777Y2310899D02*
X2087800D01*
X2069899Y2309999D02*
X2087800D01*
X2069821Y2309099D02*
X2087800D01*
X2069530Y2308199D02*
X2087800D01*
X2068969Y2307299D02*
X2087800D01*
X2067933Y2306399D02*
X2087800D01*
X2021863Y2305499D02*
X2087800D01*
X2022556Y2304599D02*
X2087800D01*
X2082603Y2303699D02*
X2087800D01*
X2083725Y2302799D02*
X2087800D01*
X2084130Y2301899D02*
X2087800D01*
X2084183Y2300999D02*
X2087800D01*
X2083906Y2300099D02*
X2087800D01*
X2083131Y2299199D02*
X2087800D01*
X2069900Y2298299D02*
X2087800D01*
X2069900Y2297399D02*
X2087800D01*
X2069900Y2296499D02*
X2087800D01*
X2049151Y2295599D02*
X2087800D01*
X2048790Y2294699D02*
X2087800D01*
X2047810Y2293799D02*
X2087800D01*
X2037894Y2292899D02*
X2087800D01*
X2037822Y2291999D02*
X2087800D01*
X2037471Y2291099D02*
X2087800D01*
X2036696Y2290199D02*
X2087800D01*
X2006069Y2289299D02*
X2087800D01*
X2005751Y2288399D02*
X2087800D01*
X2009888Y2287499D02*
X2087800D01*
X2020635Y2286599D02*
X2087800D01*
X2021407Y2285699D02*
X2087800D01*
X2081877Y2284799D02*
X2087800D01*
X2082440Y2283899D02*
X2087800D01*
X2082600Y2282999D02*
X2087800D01*
X2082439Y2282099D02*
X2087800D01*
X2081875Y2281199D02*
X2087800D01*
X2033583Y2280299D02*
X2087800D01*
X2033306Y2279399D02*
X2087800D01*
X2032531Y2278499D02*
X2087800D01*
X1912340Y2277599D02*
X2087800D01*
X1912395Y2276699D02*
X2087800D01*
X2051192Y2275799D02*
X2087800D01*
X2053326Y2274899D02*
X2087800D01*
X2053978Y2273999D02*
X2087800D01*
X2054261Y2273099D02*
X2087800D01*
X2068456Y2272199D02*
X2087800D01*
X2069599Y2271299D02*
X2087800D01*
X2070105Y2270399D02*
X2087800D01*
X2070294Y2269499D02*
X2087800D01*
X2070222Y2268599D02*
X2087800D01*
X2069871Y2267699D02*
X2087800D01*
X2069096Y2266799D02*
X2087800D01*
X2031330Y2265899D02*
X2087800D01*
X2031383Y2264999D02*
X2087800D01*
X2031106Y2264099D02*
X2087800D01*
X2030331Y2263199D02*
X2087800D01*
X2026552Y2262299D02*
X2087800D01*
X2026869Y2261399D02*
X2087800D01*
X2026851Y2260499D02*
X2087800D01*
X2044318Y2259599D02*
X2087800D01*
X2045027Y2258699D02*
X2087800D01*
X2045344Y2257799D02*
X2087800D01*
X2045386Y2256899D02*
X2087800D01*
X2045166Y2255999D02*
X2087800D01*
X2044613Y2255099D02*
X2087800D01*
X2043310Y2254199D02*
X2087800D01*
X2071218Y2253299D02*
X2087800D01*
X2071927Y2252399D02*
X2087800D01*
X2072244Y2251499D02*
X2087800D01*
X2072286Y2250599D02*
X2087800D01*
X2072066Y2249699D02*
X2087800D01*
X2071513Y2248799D02*
X2087800D01*
X2070210Y2247899D02*
X2087800D01*
X1955425Y2246999D02*
X2087800D01*
X1955830Y2246099D02*
X2087800D01*
X1955883Y2245199D02*
X2087800D01*
X2060920Y2244299D02*
X2087800D01*
X2061847Y2243399D02*
X2087800D01*
X2062271Y2242499D02*
X2087800D01*
X2062400Y2241599D02*
X2087800D01*
X2062270Y2240699D02*
X2087800D01*
X2061845Y2239799D02*
X2087800D01*
X2060916Y2238899D02*
X2087800D01*
X2058119Y2237999D02*
X2087800D01*
X2059450Y2237099D02*
X2087800D01*
X2059904Y2236199D02*
X2087800D01*
X2059992Y2235299D02*
X2087800D01*
X2059755Y2234399D02*
X2087800D01*
X2059060Y2233499D02*
X2087800D01*
X2043860Y2232599D02*
X2087800D01*
X2019938Y2231699D02*
X2087800D01*
X2019994Y2230799D02*
X2087800D01*
X2019991Y2229899D02*
X2087800D01*
X2070263Y2228999D02*
X2087800D01*
X2070956Y2228099D02*
X2087800D01*
X2071192Y2227199D02*
X2087800D01*
X2071104Y2226299D02*
X2087800D01*
X2070648Y2225399D02*
X2087800D01*
X2069310Y2224499D02*
X2087800D01*
X2059286Y2223599D02*
X2087800D01*
X2059243Y2222699D02*
X2087800D01*
X2058926Y2221799D02*
X2087800D01*
X2058215Y2220899D02*
X2087800D01*
X2015162Y2219999D02*
X2087800D01*
X2056803Y2219099D02*
X2087800D01*
X2057925Y2218199D02*
X2087800D01*
X2058330Y2217299D02*
X2087800D01*
X2058383Y2216399D02*
X2087800D01*
X2082099Y2215499D02*
X2087800D01*
X2082872Y2214599D02*
X2087800D01*
X2083223Y2213699D02*
X2087800D01*
X2083294Y2212799D02*
X2087800D01*
X2083105Y2211899D02*
X2087800D01*
X2082597Y2210999D02*
X2087800D01*
X2081450Y2210099D02*
X2087800D01*
X2063873Y2209199D02*
X2087800D01*
X2064563Y2208299D02*
X2087800D01*
X2064797Y2207399D02*
X2087800D01*
X2064707Y2206499D02*
X2087800D01*
X2064249Y2205599D02*
X2087800D01*
X2062898Y2204699D02*
X2087800D01*
X2060850Y2203799D02*
X2087800D01*
X2061304Y2202899D02*
X2087800D01*
X2061392Y2201999D02*
X2087800D01*
X2061155Y2201099D02*
X2087800D01*
X2060460Y2200199D02*
X2087800D01*
X2013176Y2199299D02*
X2087800D01*
X2013801Y2198399D02*
X2087800D01*
X2013998Y2197499D02*
X2087800D01*
X2013873Y2196599D02*
X2087800D01*
X2013366Y2195699D02*
X2087800D01*
X1991848Y2194799D02*
X2087800D01*
X1990510Y2193899D02*
X2087800D01*
X1978831Y2192999D02*
X2087800D01*
X1901900Y2192099D02*
X2087800D01*
X1901900Y2191199D02*
X2087800D01*
X2046418Y2190299D02*
X2087800D01*
X2047127Y2189399D02*
X2087800D01*
X2047444Y2188499D02*
X2087800D01*
X2047486Y2187599D02*
X2087800D01*
X2047266Y2186699D02*
X2087800D01*
X2046713Y2185799D02*
X2087800D01*
X2045410Y2184899D02*
X2087800D01*
X2015616Y2183999D02*
X2087800D01*
X2016167Y2183099D02*
X2087800D01*
X2016386Y2182199D02*
X2087800D01*
X2016343Y2181299D02*
X2087800D01*
X2055335Y2180399D02*
X2087800D01*
X2056107Y2179499D02*
X2087800D01*
X2056383Y2178599D02*
X2087800D01*
X2056330Y2177699D02*
X2087800D01*
X2055923Y2176799D02*
X2087800D01*
X2054797Y2175899D02*
X2087800D01*
X1911933Y2174999D02*
X2087800D01*
X2017983Y2174099D02*
X2087800D01*
X2055477Y2173199D02*
X2087800D01*
X2056040Y2172299D02*
X2087800D01*
X2056200Y2171399D02*
X2087800D01*
X2056039Y2170499D02*
X2087800D01*
X2055475Y2169599D02*
X2087800D01*
X2029583Y2168699D02*
X2087800D01*
X2029306Y2167799D02*
X2087800D01*
X2028531Y2166899D02*
X2087800D01*
X1912300Y2165999D02*
X2087800D01*
X1985769Y2165099D02*
X2087800D01*
X1987296Y2164199D02*
X2087800D01*
X1988022Y2163299D02*
X2087800D01*
X1988421Y2162399D02*
X2087800D01*
X1988589Y2161499D02*
X2087800D01*
X1988556Y2160599D02*
X2087800D01*
X1988315Y2159699D02*
X2087800D01*
X1987823Y2158799D02*
X2087800D01*
X2055003Y2157899D02*
X2087800D01*
X2056125Y2156999D02*
X2087800D01*
X2056530Y2156099D02*
X2087800D01*
X2056583Y2155199D02*
X2087800D01*
X2056306Y2154299D02*
X2087800D01*
X2055531Y2153399D02*
X2087800D01*
X2018076Y2152499D02*
X2087800D01*
X2018540Y2151599D02*
X2087800D01*
X2055535Y2150699D02*
X2087800D01*
X2056307Y2149799D02*
X2087800D01*
X2056583Y2148899D02*
X2087800D01*
X2056530Y2147999D02*
X2087800D01*
X2056123Y2147099D02*
X2087800D01*
X2054997Y2146199D02*
X2087800D01*
X1912074Y2145299D02*
X2087800D01*
X1911549Y2144399D02*
X2087800D01*
X1910589Y2143499D02*
X2087800D01*
X1901900Y2142599D02*
X2087800D01*
X1901900Y2141699D02*
X2087800D01*
X2083667Y2140799D02*
X2087800D01*
X2084512Y2139899D02*
X2087800D01*
X2084899Y2138999D02*
X2087800D01*
X2084998Y2138099D02*
X2087800D01*
X2084839Y2137199D02*
X2087800D01*
X2084374Y2136299D02*
X2087800D01*
X2083347Y2135399D02*
X2087800D01*
X1986935Y2134499D02*
X2087800D01*
X2030369Y2133599D02*
X2087800D01*
X2031596Y2132699D02*
X2087800D01*
X2032234Y2131799D02*
X2087800D01*
X2032577Y2130899D02*
X2087800D01*
X2032699Y2129999D02*
X2087800D01*
X2083365Y2129099D02*
X2087800D01*
X2084487Y2128199D02*
X2087800D01*
X2085084Y2127299D02*
X2087800D01*
X2085400Y2126399D02*
X2087800D01*
X2085500Y2125499D02*
X2087800D01*
X2085400Y2124599D02*
X2087800D01*
X2085083Y2123699D02*
X2087800D01*
X2084484Y2122799D02*
X2087800D01*
X2083360Y2121899D02*
X2087800D01*
X2032550Y2120999D02*
X2087800D01*
X2032695Y2120099D02*
X2087800D01*
X2083169Y2119199D02*
X2087800D01*
X2084396Y2118299D02*
X2087800D01*
X2085034Y2117399D02*
X2087800D01*
X2085377Y2116499D02*
X2087800D01*
X2085499Y2115599D02*
X2087800D01*
X2085421Y2114699D02*
X2087800D01*
X2085130Y2113799D02*
X2087800D01*
X2084569Y2112899D02*
X2087800D01*
X2083533Y2111999D02*
X2087800D01*
X2046098Y2111099D02*
X2087800D01*
X2045973Y2110199D02*
X2087800D01*
X2082943Y2109299D02*
X2087800D01*
X2084300Y2108399D02*
X2087800D01*
X2084980Y2107499D02*
X2087800D01*
X2085350Y2106599D02*
X2087800D01*
X2085495Y2105699D02*
X2087800D01*
X2085440Y2104799D02*
X2087800D01*
X2085174Y2103899D02*
X2087800D01*
X2084649Y2102999D02*
X2087800D01*
X2083689Y2102099D02*
X2087800D01*
X2038873Y2101199D02*
X2087800D01*
X2032681Y2100299D02*
X2087800D01*
X2082669Y2099399D02*
X2087800D01*
X2084196Y2098499D02*
X2087800D01*
X2084922Y2097599D02*
X2087800D01*
X2085321Y2096699D02*
X2087800D01*
X2085489Y2095799D02*
X2087800D01*
X2085456Y2094899D02*
X2087800D01*
X2085215Y2093999D02*
X2087800D01*
X2084723Y2093099D02*
X2087800D01*
X2083831Y2092199D02*
X2087800D01*
X2032454Y2091299D02*
X2087800D01*
X2032670Y2090399D02*
X2087800D01*
X2082306Y2089499D02*
X2087800D01*
X2084085Y2088599D02*
X2087800D01*
X2084861Y2087699D02*
X2087800D01*
X2085289Y2086799D02*
X2087800D01*
X2085481Y2085899D02*
X2087800D01*
X2085469Y2084999D02*
X2087800D01*
X2085253Y2084099D02*
X2087800D01*
X2084793Y2083199D02*
X2087800D01*
X2083962Y2082299D02*
X2087800D01*
X2046092Y2081399D02*
X2087800D01*
X2045855Y2080499D02*
X2087800D01*
X2081505Y2079599D02*
X2087800D01*
X2083965Y2078699D02*
X2087800D01*
X2084795Y2077799D02*
X2087800D01*
X2085254Y2076899D02*
X2087800D01*
X2085470Y2075999D02*
X2087800D01*
X2085480Y2075099D02*
X2087800D01*
X2085288Y2074199D02*
X2087800D01*
X2084859Y2073299D02*
X2087800D01*
X2084082Y2072399D02*
X2087800D01*
X2082294Y2071499D02*
X2087800D01*
X2039007Y2070599D02*
X2087800D01*
X2039283Y2069699D02*
X2087800D01*
X2083835Y2068799D02*
X2087800D01*
X2084725Y2067899D02*
X2087800D01*
X2085216Y2066999D02*
X2087800D01*
X2085456Y2066099D02*
X2087800D01*
X2085489Y2065199D02*
X2087800D01*
X2085320Y2064299D02*
X2087800D01*
X2084921Y2063399D02*
X2087800D01*
X2084193Y2062499D02*
X2087800D01*
X2082661Y2061599D02*
X2087800D01*
X2032621Y2060699D02*
X2087800D01*
X2032699Y2059799D02*
X2087800D01*
X2083693Y2058899D02*
X2087800D01*
X2084651Y2057999D02*
X2087800D01*
X2085175Y2057099D02*
X2087800D01*
X2085440Y2056199D02*
X2087800D01*
X2085495Y2055299D02*
X2087800D01*
X2085349Y2054399D02*
X2087800D01*
X2084978Y2053499D02*
X2087800D01*
X2084297Y2052599D02*
X2087800D01*
X2082936Y2051699D02*
X2087800D01*
X2032600Y2050799D02*
X2087800D01*
X2032700Y2049899D02*
X2087800D01*
X2083538Y2048999D02*
X2087800D01*
X2084571Y2048099D02*
X2087800D01*
X2085132Y2047199D02*
X2087800D01*
X2085421Y2046299D02*
X2087800D01*
X2085499Y2045399D02*
X2087800D01*
X2085376Y2044499D02*
X2087800D01*
X2085033Y2043599D02*
X2087800D01*
X2084394Y2042699D02*
X2087800D01*
X2083164Y2041799D02*
X2087800D01*
X2032577Y2040899D02*
X2087800D01*
X2032699Y2039999D02*
X2087800D01*
X2083365Y2039099D02*
X2087800D01*
X2084487Y2038199D02*
X2087800D01*
X2085084Y2037299D02*
X2087800D01*
X2085400Y2036399D02*
X2087800D01*
X2085500Y2035499D02*
X2087800D01*
X2085400Y2034599D02*
X2087800D01*
X2085083Y2033699D02*
X2087800D01*
X2084484Y2032799D02*
X2087800D01*
X2083360Y2031899D02*
X2087800D01*
X2009052Y2030999D02*
X2087800D01*
X2043819Y2030099D02*
X2087800D01*
X2045150Y2029199D02*
X2087800D01*
X2045604Y2028299D02*
X2087800D01*
X2045692Y2027399D02*
X2087800D01*
X2045455Y2026499D02*
X2087800D01*
X2044760Y2025599D02*
X2087800D01*
X1911759Y2024699D02*
X2087800D01*
X1910982Y2023799D02*
X2087800D01*
X1997352Y2022899D02*
X2087800D01*
X1998376Y2021999D02*
X2087800D01*
X1998840Y2021099D02*
X2087800D01*
X1998998Y2020199D02*
X2087800D01*
X1998898Y2019299D02*
X2087800D01*
X1998510Y2018399D02*
X2087800D01*
X1997664Y2017499D02*
X2087800D01*
X1990576Y2016599D02*
X2087800D01*
X1991201Y2015699D02*
X2087800D01*
X1991398Y2014799D02*
X2087800D01*
X2084515Y2013899D02*
X2087800D01*
X2085492Y2012999D02*
X2087800D01*
X2085852Y2012099D02*
X2087800D01*
X2085869Y2011199D02*
X2087800D01*
X2085551Y2010299D02*
X2087800D01*
X2084684Y2009399D02*
X2087800D01*
X1993471Y2008499D02*
X2087800D01*
X1993600Y2007599D02*
X2087800D01*
X1993470Y2006699D02*
X2087800D01*
X1993045Y2005799D02*
X2087800D01*
X1992116Y2004899D02*
X2087800D01*
X1911197Y2003999D02*
X2087800D01*
X2028878Y2003099D02*
X2087800D01*
X2029471Y2002199D02*
X2087800D01*
X2029650Y2001299D02*
X2087800D01*
X2029507Y2000399D02*
X2087800D01*
X2049556Y1999499D02*
X2087800D01*
X2050699Y1998599D02*
X2087800D01*
X2051205Y1997699D02*
X2087800D01*
X2051394Y1996799D02*
X2087800D01*
X2051322Y1995899D02*
X2087800D01*
X2050971Y1994999D02*
X2087800D01*
X2050196Y1994099D02*
X2087800D01*
X2004943Y1993199D02*
X2087800D01*
X2034317Y1992299D02*
X2087800D01*
X2035616Y1991399D02*
X2087800D01*
X2036167Y1990499D02*
X2087800D01*
X2036386Y1989599D02*
X2087800D01*
X2071935Y1988699D02*
X2087800D01*
X2072707Y1987799D02*
X2087800D01*
X2072983Y1986899D02*
X2087800D01*
X2072930Y1985999D02*
X2087800D01*
X2072523Y1985099D02*
X2087800D01*
X2071397Y1984199D02*
X2087800D01*
X2014769Y1983299D02*
X2087800D01*
X2014751Y1982399D02*
X2087800D01*
X2014390Y1981499D02*
X2087800D01*
X2013410Y1980599D02*
X2087800D01*
X1986392Y1979699D02*
X2087800D01*
X1986155Y1978799D02*
X2087800D01*
X1985460Y1977899D02*
X2087800D01*
X1979855Y1976999D02*
X2087800D01*
X1979160Y1976099D02*
X2087800D01*
X1958583Y1975199D02*
X2087800D01*
X2057503Y1974299D02*
X2087800D01*
X2058625Y1973399D02*
X2087800D01*
X2059030Y1972499D02*
X2087800D01*
X2059083Y1971599D02*
X2087800D01*
X2058806Y1970699D02*
X2087800D01*
X2065703Y1969799D02*
X2087800D01*
X2066825Y1968899D02*
X2087800D01*
X2067230Y1967999D02*
X2087800D01*
X2067283Y1967099D02*
X2087800D01*
X2067006Y1966199D02*
X2087800D01*
X2066231Y1965299D02*
X2087800D01*
X2059456Y1964399D02*
X2087800D01*
X2059692Y1963499D02*
X2087800D01*
X2059604Y1962599D02*
X2087800D01*
X2059148Y1961699D02*
X2087800D01*
X2057810Y1960799D02*
X2087800D01*
X2006551Y1959899D02*
X2087800D01*
X2052688Y1958999D02*
X2087800D01*
X2053552Y1958099D02*
X2087800D01*
X2053869Y1957199D02*
X2087800D01*
X2053851Y1956299D02*
X2087800D01*
X2053490Y1955399D02*
X2087800D01*
X2052510Y1954499D02*
X2087800D01*
X2044456Y1953599D02*
X2087800D01*
X2045599Y1952699D02*
X2087800D01*
X2046105Y1951799D02*
X2087800D01*
X2046294Y1950899D02*
X2087800D01*
X2046222Y1949999D02*
X2087800D01*
X2045871Y1949099D02*
X2087800D01*
X2045096Y1948199D02*
X2087800D01*
X2012783Y1947299D02*
X2087800D01*
X2014668Y1946399D02*
X2087800D01*
X2015174Y1945499D02*
X2087800D01*
X2015298Y1944599D02*
X2087800D01*
X2015099Y1943699D02*
X2087800D01*
X2014473Y1942799D02*
X2087800D01*
X2011763Y1941899D02*
X2087800D01*
X2042592Y1940999D02*
X2087800D01*
X2044726Y1940099D02*
X2087800D01*
X2084263Y1939199D02*
X2087800D01*
X2084956Y1938299D02*
X2087800D01*
X2085192Y1937399D02*
X2087800D01*
X2085104Y1936499D02*
X2087800D01*
X2084648Y1935599D02*
X2087800D01*
X2083310Y1934699D02*
X2087800D01*
X2031903Y1933799D02*
X2087800D01*
X2033025Y1932899D02*
X2087800D01*
X2033430Y1931999D02*
X2087800D01*
X2033483Y1931099D02*
X2087800D01*
X2078277Y1930199D02*
X2087800D01*
X2078840Y1929299D02*
X2087800D01*
X2079000Y1928399D02*
X2087800D01*
X2078839Y1927499D02*
X2087800D01*
X2078275Y1926599D02*
X2087800D01*
X2022792Y1925699D02*
X2087800D01*
X2082919Y1924799D02*
X2087800D01*
X2084250Y1923899D02*
X2087800D01*
X2084704Y1922999D02*
X2087800D01*
X2084792Y1922099D02*
X2087800D01*
X2084555Y1921199D02*
X2087800D01*
X2083860Y1920299D02*
X2087800D01*
X2024169Y1919399D02*
X2087800D01*
X2023851Y1918499D02*
X2087800D01*
X2022984Y1917599D02*
X2087800D01*
X2003184Y1916699D02*
X2087800D01*
X1991852Y1915799D02*
X2087800D01*
X2014519Y1914899D02*
X2087800D01*
X2015850Y1913999D02*
X2087800D01*
X2016304Y1913099D02*
X2087800D01*
X2016392Y1912199D02*
X2087800D01*
X2016155Y1911299D02*
X2087800D01*
X2015460Y1910399D02*
X2087800D01*
X2020276Y1909499D02*
X2087800D01*
X2038583Y1908599D02*
X2087800D01*
X2040468Y1907699D02*
X2087800D01*
X2040974Y1906799D02*
X2087800D01*
X2041098Y1905899D02*
X2087800D01*
X2040899Y1904999D02*
X2087800D01*
X2076518Y1904099D02*
X2087800D01*
X2077227Y1903199D02*
X2087800D01*
X2077544Y1902299D02*
X2087800D01*
X2077586Y1901399D02*
X2087800D01*
X2077366Y1900499D02*
X2087800D01*
X2076813Y1899599D02*
X2087800D01*
X2076899Y1898699D02*
X2087800D01*
X2077405Y1897799D02*
X2087800D01*
X2077594Y1896899D02*
X2087800D01*
X2077522Y1895999D02*
X2087800D01*
X2077171Y1895099D02*
X2087800D01*
X2076399Y1894199D02*
X2087800D01*
X2077172Y1893299D02*
X2087800D01*
X2077523Y1892399D02*
X2087800D01*
X2077594Y1891499D02*
X2087800D01*
X2077405Y1890599D02*
X2087800D01*
X2076897Y1889699D02*
X2087800D01*
X2076816Y1888799D02*
X2087800D01*
X2077367Y1887899D02*
X2087800D01*
X2077586Y1886999D02*
X2087800D01*
X2077543Y1886099D02*
X2087800D01*
X2077226Y1885199D02*
X2087800D01*
X2076515Y1884299D02*
X2087800D01*
X2077112Y1883399D02*
X2087800D01*
X2077499Y1882499D02*
X2087800D01*
X2077598Y1881599D02*
X2087800D01*
X2077439Y1880699D02*
X2087800D01*
X2076974Y1879799D02*
X2087800D01*
X2075947Y1878899D02*
X2087800D01*
X2060183Y1877999D02*
X2087800D01*
X2059906Y1877099D02*
X2087800D01*
X2059131Y1876199D02*
X2087800D01*
X2023850Y1875299D02*
X2087800D01*
X2024304Y1874399D02*
X2087800D01*
X2024392Y1873499D02*
X2087800D01*
X2024155Y1872599D02*
X2087800D01*
X1991273Y2013899D02*
X2082085D01*
X1993047Y2009399D02*
X2081916D01*
X2043289Y1934699D02*
X2081890D01*
X2022555Y1924799D02*
X2081481D01*
X2051505Y2079599D02*
X2081295D01*
X1990766Y2012999D02*
X2081108D01*
X1992120Y2010299D02*
X2081049D01*
X2045378Y1939199D02*
X2080937D01*
X1901900Y2012099D02*
X2080748D01*
X1901900Y2011199D02*
X2080731D01*
X2069859Y2303699D02*
X2080597D01*
X2044823Y1935599D02*
X2080552D01*
X2024152Y1920299D02*
X2080540D01*
X2052294Y2071499D02*
X2080506D01*
X2052306Y2089499D02*
X2080494D01*
X1912115Y2135399D02*
X2080253D01*
X2045661Y1938299D02*
X2080244D01*
X2021860Y1923899D02*
X2080150D01*
X2052661Y2061599D02*
X2080139D01*
X2052669Y2099399D02*
X2080131D01*
X2045423Y1936499D02*
X2080096D01*
X2069900Y2299199D02*
X2080069D01*
X2045675Y1937399D02*
X2080008D01*
X2039719Y2140799D02*
X2079933D01*
X2052936Y2051699D02*
X2079864D01*
X2052943Y2109299D02*
X2079857D01*
X2023792Y1921199D02*
X2079845D01*
X2004710Y1922999D02*
X2079696D01*
X2053164Y2041799D02*
X2079636D01*
X2053169Y2119199D02*
X2079631D01*
X2022815Y1922099D02*
X2079608D01*
X2069900Y2302799D02*
X2079475D01*
X2053360Y2121899D02*
X2079440D01*
X2053360Y2031899D02*
X2079440D01*
X2053365Y2129099D02*
X2079435D01*
X2053365Y2039099D02*
X2079435D01*
X2069900Y2300099D02*
X2079294D01*
X2053533Y2111999D02*
X2079267D01*
X2053538Y2048999D02*
X2079262D01*
X2040660Y2136299D02*
X2079226D01*
X2053689Y2102099D02*
X2079111D01*
X2053693Y2058899D02*
X2079107D01*
X2041050Y2139899D02*
X2079088D01*
X2069900Y2301899D02*
X2079070D01*
X2069900Y2300999D02*
X2079017D01*
X2053831Y2092199D02*
X2078969D01*
X2053835Y2068799D02*
X2078965D01*
X2053962Y2082299D02*
X2078838D01*
X2053965Y2078699D02*
X2078835D01*
X2041355Y2137199D02*
X2078761D01*
X2067466Y2210099D02*
X2078750D01*
X2054082Y2072399D02*
X2078718D01*
X2054085Y2088599D02*
X2078715D01*
X2041504Y2138999D02*
X2078701D01*
X2054193Y2062499D02*
X2078607D01*
X2054196Y2098499D02*
X2078604D01*
X2041592Y2138099D02*
X2078602D01*
X2054297Y2052599D02*
X2078503D01*
X2054300Y2108399D02*
X2078500D01*
X2054394Y2042699D02*
X2078406D01*
X2054396Y2118299D02*
X2078404D01*
X2068887Y2322599D02*
X2078325D01*
X2067564Y2326199D02*
X2078323D01*
X2054484Y2122799D02*
X2078316D01*
X2054484Y2032799D02*
X2078316D01*
X2054487Y2128199D02*
X2078313D01*
X2054487Y2038199D02*
X2078313D01*
X2054569Y2112899D02*
X2078231D01*
X2054571Y2048099D02*
X2078229D01*
X2054649Y2102999D02*
X2078151D01*
X2054651Y2057999D02*
X2078149D01*
X2033530Y2281199D02*
X2078125D01*
X2021683Y2284799D02*
X2078123D01*
X2058106Y2215499D02*
X2078101D01*
X2054723Y2093099D02*
X2078077D01*
X2054725Y2067899D02*
X2078075D01*
X2054793Y2083199D02*
X2078007D01*
X2054795Y2077799D02*
X2078005D01*
X2054859Y2073299D02*
X2077941D01*
X2054861Y2087699D02*
X2077939D01*
X2054921Y2063399D02*
X2077879D01*
X2054922Y2097599D02*
X2077878D01*
X2054978Y2053499D02*
X2077822D01*
X2054980Y2107499D02*
X2077820D01*
X2055033Y2043599D02*
X2077767D01*
X2055034Y2117399D02*
X2077766D01*
X2067765Y2323499D02*
X2077761D01*
X2023252Y2325299D02*
X2077760D01*
X2055083Y2123699D02*
X2077717D01*
X2055083Y2033699D02*
X2077717D01*
X2055084Y2127299D02*
X2077716D01*
X2055084Y2037299D02*
X2077716D01*
X2055130Y2113799D02*
X2077670D01*
X2055132Y2047199D02*
X2077668D01*
X2055174Y2103899D02*
X2077626D01*
X2055175Y2057099D02*
X2077625D01*
X2067973Y2210999D02*
X2077603D01*
X2023569Y2324399D02*
X2077600D01*
X2055215Y2093999D02*
X2077585D01*
X2055216Y2066999D02*
X2077584D01*
X2033125Y2282099D02*
X2077561D01*
X2021630Y2283899D02*
X2077560D01*
X2055253Y2084099D02*
X2077547D01*
X2055254Y2076899D02*
X2077546D01*
X2055288Y2074199D02*
X2077512D01*
X2055289Y2086799D02*
X2077511D01*
X2055320Y2064299D02*
X2077480D01*
X2055321Y2096699D02*
X2077479D01*
X2055349Y2054399D02*
X2077451D01*
X2055350Y2106599D02*
X2077450D01*
X2055376Y2044499D02*
X2077424D01*
X2055377Y2116499D02*
X2077423D01*
X2055400Y2124599D02*
X2077400D01*
X2055400Y2034599D02*
X2077400D01*
X2032003Y2282999D02*
X2077400D01*
X2055400Y2126399D02*
X2077400D01*
X2055400Y2036399D02*
X2077400D01*
X2055421Y2114699D02*
X2077379D01*
X2055421Y2046299D02*
X2077379D01*
X2055440Y2104799D02*
X2077360D01*
X2055440Y2056199D02*
X2077360D01*
X2055456Y2094899D02*
X2077344D01*
X2055456Y2066099D02*
X2077344D01*
X2055469Y2084999D02*
X2077331D01*
X2055470Y2075999D02*
X2077330D01*
X2057331Y2214599D02*
X2077328D01*
X2055480Y2075099D02*
X2077320D01*
X2055481Y2085899D02*
X2077319D01*
X2055489Y2065199D02*
X2077311D01*
X2055489Y2095799D02*
X2077311D01*
X2055495Y2055299D02*
X2077305D01*
X2055495Y2105699D02*
X2077305D01*
X2055499Y2045399D02*
X2077301D01*
X2055499Y2115599D02*
X2077301D01*
X2055500Y2125499D02*
X2077300D01*
X2055500Y2035499D02*
X2077300D01*
X2068098Y2211899D02*
X2077095D01*
X2032469Y2382899D02*
X2077090D01*
X2067276Y2213699D02*
X2076977D01*
X2067901Y2212799D02*
X2076906D01*
X1912154Y2388299D02*
X2076082D01*
X2032152Y2383799D02*
X2075787D01*
X1912370Y2387399D02*
X2075373D01*
X2031288Y2384699D02*
X2075234D01*
X1912380Y2386499D02*
X2075056D01*
X1912188Y2385599D02*
X2075014D01*
X2022704Y1926599D02*
X2074525D01*
X2033206Y1930199D02*
X2074523D01*
X2022250Y1927499D02*
X2073961D01*
X2032431Y1929299D02*
X2073960D01*
X2020919Y1928399D02*
X2073800D01*
X2070947Y1878899D02*
X2072853D01*
X2071518Y1904099D02*
X2072282D01*
X2048797Y1984199D02*
X2069403D01*
X2049335Y1988699D02*
X2068865D01*
X2049923Y1985099D02*
X2068277D01*
X2050107Y1987799D02*
X2068093D01*
X1954303Y2247899D02*
X2067990D01*
X2059067Y2224499D02*
X2067890D01*
X2050330Y1985999D02*
X2067870D01*
X2060130Y1878899D02*
X2067853D01*
X2050383Y1986899D02*
X2067817D01*
X2064319Y1894199D02*
X2067401D01*
X2064097Y1884299D02*
X2067285D01*
X2040273Y1904099D02*
X2067282D01*
X2022531Y1899599D02*
X2066987D01*
X2064635Y1888799D02*
X2066984D01*
X1971466Y2253299D02*
X2066982D01*
X2019928Y2228999D02*
X2066937D01*
X2065260Y1889699D02*
X2066903D01*
X2021668Y1898699D02*
X2066901D01*
X2059725Y1879799D02*
X2066826D01*
X2030230Y1883399D02*
X2066688D01*
X1911934Y2248799D02*
X2066687D01*
X2021473Y1895099D02*
X2066629D01*
X2065650Y1893299D02*
X2066628D01*
X2065223Y1885199D02*
X2066574D01*
X2023812Y1903199D02*
X2066573D01*
X2058516Y2225399D02*
X2066552D01*
X2023640Y1900499D02*
X2066434D01*
X2065407Y1887899D02*
X2066433D01*
X2065955Y1890599D02*
X2066395D01*
X2022174Y1897799D02*
X2066395D01*
X2058603Y1880699D02*
X2066361D01*
X2029823Y1882499D02*
X2066301D01*
X2022099Y1895999D02*
X2066278D01*
X2066104Y1892399D02*
X2066277D01*
X1901900Y2252399D02*
X2066273D01*
X2065630Y1886099D02*
X2066257D01*
X2024092Y1902299D02*
X2066256D01*
X2019804Y2228099D02*
X2066244D01*
X2024042Y1901399D02*
X2066214D01*
X2065683Y1886999D02*
X2066214D01*
X2066192Y1891499D02*
X2066206D01*
X2022298Y1896899D02*
X2066206D01*
X2028697Y1881599D02*
X2066202D01*
X1911296Y2249699D02*
X2066134D01*
X2057217Y2226299D02*
X2066096D01*
X2019618Y2227199D02*
X2066008D01*
X1901900Y2251499D02*
X2065956D01*
X1910069Y2250599D02*
X2065914D01*
X2054275Y2272199D02*
X2065744D01*
X2030925Y2266799D02*
X2065104D01*
X2054023Y2271299D02*
X2064601D01*
X2029803Y2267699D02*
X2064329D01*
X2057336Y2336099D02*
X2064264D01*
X2053423Y2270399D02*
X2064095D01*
X2057564Y2326199D02*
X2064036D01*
X2057569Y2313599D02*
X2064031D01*
X2020603Y2268599D02*
X2063978D01*
X2051889Y2269499D02*
X2063906D01*
X2057760Y2316299D02*
X2063840D01*
X2057765Y2323499D02*
X2063835D01*
X2058352Y2213699D02*
X2063724D01*
X2058031Y1969799D02*
X2063697D01*
X2057933Y2306399D02*
X2063667D01*
X2057938Y2333399D02*
X2063662D01*
X2059898Y2210099D02*
X2063534D01*
X2058093Y2343299D02*
X2063507D01*
X2058763Y1965299D02*
X2063169D01*
X2059376Y2212799D02*
X2063099D01*
X2059998Y2210999D02*
X2063027D01*
X2058697Y2336999D02*
X2062903D01*
X2059840Y2211899D02*
X2062902D01*
X2007875Y1894199D02*
X2062881D01*
X2058794Y2327099D02*
X2062806D01*
X2058796Y2312699D02*
X2062804D01*
X2058884Y2317199D02*
X2062716D01*
X2058887Y2322599D02*
X2062713D01*
X2058969Y2307299D02*
X2062631D01*
X2058971Y2332499D02*
X2062629D01*
X2014388Y1968899D02*
X2062575D01*
X2059051Y2342399D02*
X2062549D01*
X2015668Y1966199D02*
X2062394D01*
X2059378Y2337899D02*
X2062222D01*
X2013336Y1967999D02*
X2062170D01*
X2059433Y2327999D02*
X2062167D01*
X2059434Y2311799D02*
X2062166D01*
X2013783Y1967099D02*
X2062117D01*
X2059483Y2318099D02*
X2062117D01*
X2059484Y2321699D02*
X2062116D01*
X2055397Y1884299D02*
X2062103D01*
X2059530Y2308199D02*
X2062070D01*
X2059532Y2331599D02*
X2062068D01*
X2059575Y2341499D02*
X2062025D01*
X2039188Y1889699D02*
X2061940D01*
X2059749Y2338799D02*
X2061851D01*
X2059776Y2328899D02*
X2061824D01*
X2059777Y2310899D02*
X2061823D01*
X2059800Y2318999D02*
X2061800D01*
X2059800Y2320799D02*
X2061800D01*
X2059821Y2309099D02*
X2061779D01*
X2059821Y2330699D02*
X2061779D01*
X2059840Y2340599D02*
X2061760D01*
X2057343Y2303699D02*
X2061741D01*
X2059895Y2339699D02*
X2061705D01*
X2059899Y2329799D02*
X2061701D01*
X2059899Y2309999D02*
X2061701D01*
X2059900Y2319899D02*
X2061700D01*
X2058700Y2302799D02*
X2061700D01*
X2059380Y2301899D02*
X2061700D01*
X2059750Y2300999D02*
X2061700D01*
X2059895Y2300099D02*
X2061700D01*
X2059840Y2299199D02*
X2061700D01*
X2059574Y2298299D02*
X2061700D01*
X2059049Y2297399D02*
X2061700D01*
X2058089Y2296499D02*
X2061700D01*
X2055935Y1888799D02*
X2061565D01*
X1999384Y1893299D02*
X2061550D01*
X2059519Y2204699D02*
X2061511D01*
X2023381Y1890599D02*
X2061245D01*
X2021534Y1892399D02*
X2061096D01*
X2022918Y1891499D02*
X2061008D01*
X2056523Y1885199D02*
X2060977D01*
X2056707Y1887899D02*
X2060793D01*
X2056930Y1886099D02*
X2060570D01*
X2059510Y2209199D02*
X2060536D01*
X2056983Y1886999D02*
X2060517D01*
X2057230Y2205599D02*
X2060159D01*
X2058664Y2208299D02*
X2059846D01*
X2057283Y2206499D02*
X2059702D01*
X2057007Y2207399D02*
X2059612D01*
X2056823Y2204699D02*
X2058081D01*
X2017018Y2238899D02*
X2057484D01*
X1955606Y2244299D02*
X2057480D01*
X1975304Y2200199D02*
X2057140D01*
X2055697Y2203799D02*
X2056750D01*
X2017679Y2237999D02*
X2056681D01*
X2021807Y1880699D02*
X2056597D01*
X2016230Y2239799D02*
X2056555D01*
X2010399Y2243399D02*
X2056553D01*
X1975392Y2201099D02*
X2056445D01*
X2006869Y1960799D02*
X2056390D01*
X1974463Y2202899D02*
X2056296D01*
X1975156Y2201999D02*
X2056208D01*
X2015282Y2240699D02*
X2056130D01*
X2012611Y2242499D02*
X2056129D01*
X2022519Y1876199D02*
X2056069D01*
X2014117Y2241599D02*
X2056000D01*
X2044555Y2233499D02*
X2055740D01*
X1958306Y1974299D02*
X2055497D01*
X2022083Y1879799D02*
X2055475D01*
X2016174Y1965299D02*
X2055437D01*
X2042919Y2237099D02*
X2055350D01*
X2020497Y1877099D02*
X2055294D01*
X1993643Y2213699D02*
X2055248D01*
X2022030Y1878899D02*
X2055070D01*
X2006852Y1961699D02*
X2055052D01*
X2044792Y2234399D02*
X2055045D01*
X2021623Y1877999D02*
X2055017D01*
X2019367Y2226299D02*
X2054983D01*
X2014774Y1969799D02*
X2054969D01*
X2044250Y2236199D02*
X2054896D01*
X2044704Y2235299D02*
X2054808D01*
X2013966Y2219099D02*
X2054797D01*
X2016298Y1964399D02*
X2054744D01*
X2015473Y1962599D02*
X2054596D01*
X1911387Y2349599D02*
X2054590D01*
X2016099Y1963499D02*
X2054508D01*
X1911294Y2354099D02*
X2054412D01*
X2005763Y1973399D02*
X2054375D01*
X1993686Y2214599D02*
X2054269D01*
X1912321Y2336099D02*
X2054264D01*
X2022792Y2303699D02*
X2054257D01*
X1993326Y2212799D02*
X2054224D01*
X2014810Y1970699D02*
X2054194D01*
X1978973Y2209199D02*
X2054090D01*
X2022388Y2326199D02*
X2054036D01*
X2024939Y2313599D02*
X2054031D01*
X2043660Y2220899D02*
X2053985D01*
X2013703Y1972499D02*
X2053970D01*
X2014516Y1971599D02*
X2053917D01*
X2024377Y2316299D02*
X2053840D01*
X2023551Y2323499D02*
X2053835D01*
X1992615Y2211899D02*
X2053760D01*
X1973610Y2203799D02*
X2053703D01*
X1979599Y2210099D02*
X2053702D01*
X2042719Y2225399D02*
X2053684D01*
X2012407Y2218199D02*
X2053675D01*
X2012292Y2306399D02*
X2053667D01*
X2007118Y2333399D02*
X2053662D01*
X1910265Y2350499D02*
X2053610D01*
X1979798Y2210999D02*
X2053602D01*
X1910064Y2353199D02*
X2053548D01*
X2049169Y2296499D02*
X2053511D01*
X2032544Y2343299D02*
X2053507D01*
X1993467Y2215499D02*
X2053494D01*
X2030283Y1884299D02*
X2053403D01*
X2044355Y2221799D02*
X2053274D01*
X2010049Y2217299D02*
X2053270D01*
X1901900Y2351399D02*
X2053249D01*
X1901900Y2352299D02*
X2053231D01*
X1992916Y2216399D02*
X2053217D01*
X1974563Y2208299D02*
X2053165D01*
X2044050Y2224499D02*
X2053133D01*
X1912340Y2146199D02*
X2053003D01*
X2024003Y2157899D02*
X2052997D01*
X2044592Y2222699D02*
X2052957D01*
X2044504Y2223599D02*
X2052914D01*
X1912399Y2336999D02*
X2052903D01*
X2022704Y2302799D02*
X2052900D01*
X2040052Y1888799D02*
X2052865D01*
X1976330Y2327099D02*
X2052806D01*
X2024375Y2312699D02*
X2052804D01*
X1912276Y2175899D02*
X2052803D01*
X2006468Y2317199D02*
X2052716D01*
X2023190Y2322599D02*
X2052713D01*
X2012204Y2307299D02*
X2052631D01*
X2007827Y2332499D02*
X2052629D01*
X1974948Y2204699D02*
X2052577D01*
X2048852Y2297399D02*
X2052551D01*
X2032586Y2342399D02*
X2052549D01*
X2024531Y2153399D02*
X2052469D01*
X2018698Y2150699D02*
X2052465D01*
X1975256Y2207399D02*
X2052393D01*
X2039010Y1885199D02*
X2052277D01*
X2019276Y2180399D02*
X2052265D01*
X1912277Y2337899D02*
X2052222D01*
X2022248Y2301899D02*
X2052220D01*
X1975404Y2205599D02*
X2052170D01*
X2006110Y2327999D02*
X2052167D01*
X1978004Y2311799D02*
X2052166D01*
X1975492Y2206499D02*
X2052117D01*
X2004583Y2318099D02*
X2052117D01*
X2022210Y2321699D02*
X2052116D01*
X2040369Y1887899D02*
X2052093D01*
X2011750Y2308199D02*
X2052070D01*
X2008144Y2331599D02*
X2052068D01*
X2047988Y2298299D02*
X2052026D01*
X2032366Y2341499D02*
X2052025D01*
X1912395Y2147099D02*
X2051877D01*
X2025125Y2156999D02*
X2051875D01*
X2039990Y1886099D02*
X2051870D01*
X1971624Y2338799D02*
X2051851D01*
X2020910Y2300999D02*
X2051850D01*
X2007413Y2328899D02*
X2051824D01*
X1977548Y2310899D02*
X2051823D01*
X2040351Y1886999D02*
X2051817D01*
X1967910Y2318999D02*
X2051800D01*
X1969251Y2320799D02*
X2051800D01*
X2010419Y2309099D02*
X2051779D01*
X2008186Y2330699D02*
X2051779D01*
X1911695Y2299199D02*
X2051760D01*
X2031813Y2340599D02*
X2051760D01*
X2029530Y2169599D02*
X2051725D01*
X2019868Y2173199D02*
X2051723D01*
X2030510Y2339699D02*
X2051705D01*
X1980275Y2300099D02*
X2051705D01*
X2007966Y2329799D02*
X2051701D01*
X2003063Y2309999D02*
X2051701D01*
X1968890Y2319899D02*
X2051700D01*
X2025306Y2154299D02*
X2051694D01*
X2018598Y2149799D02*
X2051693D01*
X2019466Y2176799D02*
X2051677D01*
X2019901Y2179499D02*
X2051493D01*
X2017364Y2147999D02*
X2051470D01*
X2025530Y2156099D02*
X2051470D01*
X2025583Y2155199D02*
X2051417D01*
X2018210Y2148899D02*
X2051417D01*
X2045160Y2079599D02*
X2051295D01*
X2019973Y2177699D02*
X2051270D01*
X2020098Y2178599D02*
X2051217D01*
X2029125Y2170499D02*
X2051161D01*
X2020374Y2172299D02*
X2051160D01*
X1912249Y2275799D02*
X2051008D01*
X2028003Y2171399D02*
X2051000D01*
X2038235Y2071499D02*
X2050506D01*
X2032680Y2089499D02*
X2050494D01*
X1911471Y2269499D02*
X2050311D01*
X2032332Y2061599D02*
X2050139D01*
X2032669Y2099399D02*
X2050131D01*
X2016006Y1954499D02*
X2050090D01*
X2005684Y1958999D02*
X2049912D01*
X2040710Y2051699D02*
X2049864D01*
X2045466Y2109299D02*
X2049857D01*
X2032234Y2041799D02*
X2049636D01*
X2032640Y2119199D02*
X2049631D01*
X2032180Y2121899D02*
X2049440D01*
X2008692Y2031899D02*
X2049440D01*
X2032621Y2129099D02*
X2049435D01*
X2032621Y2039099D02*
X2049435D01*
X2045901Y2111999D02*
X2049267D01*
X2032600Y2048999D02*
X2049262D01*
X2039499Y2102099D02*
X2049111D01*
X2016283Y1955399D02*
X2049110D01*
X2032576Y2058899D02*
X2049107D01*
X2014703Y1958099D02*
X2049048D01*
X2031995Y2092199D02*
X2048969D01*
X2039230Y2068799D02*
X2048965D01*
X1911878Y2274899D02*
X2048874D01*
X2046004Y2082299D02*
X2048838D01*
X2032520Y2078699D02*
X2048835D01*
X1910438Y2270399D02*
X2048777D01*
X2016230Y1956299D02*
X2048749D01*
X2015825Y1957199D02*
X2048731D01*
X2031851Y2072399D02*
X2048718D01*
X2032488Y2088599D02*
X2048715D01*
X2031771Y2062499D02*
X2048607D01*
X2037877Y2098499D02*
X2048604D01*
X2042048Y2052599D02*
X2048503D01*
X2032415Y2108399D02*
X2048500D01*
X2031596Y2042699D02*
X2048406D01*
X2032374Y2118299D02*
X2048404D01*
X2031500Y2122799D02*
X2048316D01*
X2007715Y2032799D02*
X2048316D01*
X2032330Y2128199D02*
X2048313D01*
X2032330Y2038199D02*
X2048313D01*
X2045276Y2112899D02*
X2048231D01*
X2032283Y2048099D02*
X2048229D01*
X1911197Y2273999D02*
X2048222D01*
X1901900Y2271299D02*
X2048177D01*
X2039698Y2102999D02*
X2048151D01*
X2032233Y2057999D02*
X2048149D01*
X2031165Y2093099D02*
X2048077D01*
X2038823Y2067899D02*
X2048075D01*
X2045550Y2083199D02*
X2048007D01*
X2032121Y2077799D02*
X2048005D01*
X2030893Y2073299D02*
X2047941D01*
X2032059Y2087699D02*
X2047939D01*
X1909836Y2273099D02*
X2047939D01*
X1901900Y2272199D02*
X2047925D01*
X2030738Y2063399D02*
X2047879D01*
X2038440Y2097599D02*
X2047878D01*
X2042504Y2053499D02*
X2047822D01*
X2031923Y2107499D02*
X2047820D01*
X2030369Y2043599D02*
X2047767D01*
X2031849Y2117399D02*
X2047766D01*
X2030143Y2123699D02*
X2047717D01*
X1910862Y2033699D02*
X2047717D01*
X2031769Y2127299D02*
X2047716D01*
X2031769Y2037299D02*
X2047716D01*
X2029869Y2113799D02*
X2047670D01*
X2031684Y2047199D02*
X2047668D01*
X2039574Y2103899D02*
X2047626D01*
X2031594Y2057099D02*
X2047625D01*
X2028705Y2093999D02*
X2047585D01*
X2037697Y2066999D02*
X2047584D01*
X2044219Y2084099D02*
X2047547D01*
X2031393Y2076899D02*
X2047546D01*
X1911384Y2074199D02*
X2047512D01*
X2031282Y2086799D02*
X2047511D01*
X2007451Y2064299D02*
X2047480D01*
X2038600Y2096699D02*
X2047479D01*
X2042592Y2054399D02*
X2047451D01*
X2031031Y2106599D02*
X2047450D01*
X1911623Y2044499D02*
X2047424D01*
X2030889Y2116499D02*
X2047423D01*
X2022406Y2124599D02*
X2047400D01*
X1911693Y2034599D02*
X2047400D01*
X2030733Y2126399D02*
X2047400D01*
X2030733Y2036399D02*
X2047400D01*
X2024231Y2114699D02*
X2047379D01*
X2030560Y2046299D02*
X2047379D01*
X2039068Y2104799D02*
X2047360D01*
X2041663Y2056199D02*
X2047360D01*
X2037875Y2094899D02*
X2047344D01*
X2030136Y2066099D02*
X2047344D01*
X1911933Y2084999D02*
X2047331D01*
X2029861Y2075999D02*
X2047330D01*
X1911983Y2075099D02*
X2047320D01*
X2029494Y2085899D02*
X2047319D01*
X2007769Y2065199D02*
X2047311D01*
X2038439Y2095799D02*
X2047311D01*
X2042356Y2055299D02*
X2047305D01*
X2037183Y2105699D02*
X2047305D01*
X1912115Y2045399D02*
X2047301D01*
X2025006Y2115599D02*
X2047301D01*
X2022683Y2125499D02*
X2047300D01*
X1912153Y2035499D02*
X2047300D01*
X2035676Y1999499D02*
X2046844D01*
X2014452Y1984199D02*
X2046803D01*
X2036343Y1988699D02*
X2046265D01*
X2006118Y1994099D02*
X2046204D01*
X2036301Y1998599D02*
X2045701D01*
X2013588Y1985099D02*
X2045677D01*
X2036026Y1987799D02*
X2045493D01*
X2006538Y1994999D02*
X2045429D01*
X2037705Y2293799D02*
X2045390D01*
X1964384Y1985999D02*
X2045270D01*
X2035315Y1986899D02*
X2045217D01*
X2008888Y2298299D02*
X2045212D01*
X2036498Y1997699D02*
X2045195D01*
X2035866Y1995899D02*
X2045078D01*
X2036373Y1996799D02*
X2045006D01*
X2037199Y2294699D02*
X2044410D01*
X2009752Y2297399D02*
X2044348D01*
X2036056Y2295599D02*
X2044049D01*
X2010069Y2296499D02*
X2044031D01*
X2014317Y2184899D02*
X2043190D01*
X1911294Y2084099D02*
X2042781D01*
X2012456Y1940999D02*
X2042408D01*
X2009069Y2030099D02*
X2042381D01*
X1910593Y2190299D02*
X2042182D01*
X1912249Y2185799D02*
X2041887D01*
X2032689Y2079599D02*
X2041840D01*
X2015231Y1953599D02*
X2041744D01*
X2031396Y2112899D02*
X2041724D01*
X2007592Y1934699D02*
X2041711D01*
X2032656Y2109299D02*
X2041534D01*
X2018236Y2237099D02*
X2041481D01*
X1911551Y2189399D02*
X2041473D01*
X2031035Y2083199D02*
X2041450D01*
X1912188Y2025599D02*
X2041440D01*
X1912395Y2186699D02*
X2041334D01*
X2019047Y2225399D02*
X2041281D01*
X1912075Y2188499D02*
X2041156D01*
X2032656Y2080499D02*
X2041145D01*
X1912340Y2187599D02*
X2041114D01*
X1991848Y1948199D02*
X2041104D01*
X2032122Y2111999D02*
X2041099D01*
X1971973Y2254199D02*
X2041090D01*
X2008751Y2029199D02*
X2041050D01*
X2032689Y2110199D02*
X2041027D01*
X2031925Y2082299D02*
X2040996D01*
X2032416Y2081399D02*
X2040908D01*
X2032521Y2111099D02*
X2040902D01*
X1922773Y2026499D02*
X2040745D01*
X2004949Y1952699D02*
X2040601D01*
X2007884Y2028299D02*
X2040596D01*
X2019821Y2232599D02*
X2040540D01*
X1923399Y2027399D02*
X2040508D01*
X2016131Y2220899D02*
X2040340D01*
X1992304Y1949099D02*
X2040329D01*
X2012692Y1940099D02*
X2040274D01*
X2007356Y1935599D02*
X2040177D01*
X2018702Y2236199D02*
X2040150D01*
X1991463Y1951799D02*
X2040095D01*
X2026490Y2259599D02*
X2040082D01*
X1992392Y1949999D02*
X2039978D01*
X2018653Y2224499D02*
X2039950D01*
X1992156Y1950899D02*
X2039906D01*
X2019642Y2233499D02*
X2039845D01*
X1972098Y2255099D02*
X2039787D01*
X2019087Y2235299D02*
X2039696D01*
X2016935Y2221799D02*
X2039645D01*
X2012604Y1939199D02*
X2039622D01*
X2019399Y2234399D02*
X2039608D01*
X2006663Y1936499D02*
X2039577D01*
X2018177Y2223599D02*
X2039496D01*
X2017609Y2222699D02*
X2039408D01*
X2025510Y2258699D02*
X2039373D01*
X2012148Y1938299D02*
X2039339D01*
X2010810Y1937399D02*
X2039325D01*
X2032284Y2051699D02*
X2039290D01*
X1971901Y2255999D02*
X2039234D01*
X1941598Y2257799D02*
X2039056D01*
X1971276Y2256899D02*
X2039014D01*
X2020901Y1908599D02*
X2038417D01*
X2030364Y2056199D02*
X2038337D01*
X1909569Y2140799D02*
X2038281D01*
X2031687Y2052599D02*
X2037952D01*
X1912074Y2055299D02*
X2037644D01*
X2030565Y2053499D02*
X2037496D01*
X1911549Y2054399D02*
X2037408D01*
X1912356Y2136299D02*
X2037340D01*
X1912220Y2105699D02*
X2037017D01*
X1911096Y2139899D02*
X2036950D01*
X2023031Y1904099D02*
X2036727D01*
X1912389Y2137199D02*
X2036645D01*
X2030007Y1885199D02*
X2036590D01*
X2021098Y1907699D02*
X2036532D01*
X1911822Y2138999D02*
X2036496D01*
X2023475Y1889699D02*
X2036412D01*
X1912221Y2138099D02*
X2036408D01*
X2023460Y1871699D02*
X2036400D01*
X2016201Y1870799D02*
X2036400D01*
X2016398Y1869899D02*
X2036400D01*
X2016273Y1868999D02*
X2036400D01*
X2023935Y1868099D02*
X2036400D01*
X2024707Y1867199D02*
X2036400D01*
X2024983Y1866299D02*
X2036400D01*
X2030477Y1865399D02*
X2036400D01*
X2031040Y1864499D02*
X2036400D01*
X2031200Y1863599D02*
X2036400D01*
X2031039Y1862699D02*
X2036400D01*
X2030475Y1861799D02*
X2036400D01*
X2015500Y1860899D02*
X2036400D01*
X2015500Y1859999D02*
X2036400D01*
X2015500Y1859099D02*
X2036400D01*
X2015500Y1858199D02*
X2036400D01*
X2015500Y1857299D02*
X2036400D01*
X2015500Y1856399D02*
X2036400D01*
X2015500Y1855499D02*
X2036400D01*
X2015500Y1854599D02*
X2036400D01*
X2015500Y1853699D02*
X2036400D01*
X2015500Y1852799D02*
X2036400D01*
X2015500Y1851899D02*
X2036400D01*
X2015500Y1850999D02*
X2036400D01*
X2015500Y1850099D02*
X2036400D01*
X2015500Y1849199D02*
X2036400D01*
X2015500Y1848299D02*
X2036400D01*
X2015500Y1847399D02*
X2036400D01*
X2015500Y1846499D02*
X2036400D01*
X2015500Y1845599D02*
X2036400D01*
X2015500Y1844699D02*
X2036400D01*
X2015500Y1843799D02*
X2036400D01*
X2015500Y1842899D02*
X2036400D01*
X2015500Y1841999D02*
X2036400D01*
X2015500Y1841099D02*
X2036400D01*
X2015500Y1840199D02*
X2036400D01*
X2015500Y1839299D02*
X2036400D01*
X2015500Y1838399D02*
X2036400D01*
X2015500Y1837499D02*
X2036400D01*
X2015500Y1836599D02*
X2036400D01*
X2015500Y1835699D02*
X2036400D01*
X2015500Y1834799D02*
X2036400D01*
X2015500Y1833899D02*
X2036400D01*
X2015500Y1832999D02*
X2036400D01*
X2015523Y1904999D02*
X2036101D01*
X2020973Y1906799D02*
X2036026D01*
X2020466Y1905899D02*
X2035902D01*
X2031497Y2066999D02*
X2035703D01*
X2029235Y1886099D02*
X2035610D01*
X2023245Y1888799D02*
X2035548D01*
X2032489Y2101199D02*
X2035327D01*
X2018923Y1886999D02*
X2035249D01*
X2022563Y1887899D02*
X2035231D01*
X2032375Y2071499D02*
X2035165D01*
X1911821Y2104799D02*
X2035132D01*
X2032061Y2102099D02*
X2034701D01*
X2029506Y2103899D02*
X2034626D01*
X2032178Y2067899D02*
X2034577D01*
X2031285Y2102999D02*
X2034502D01*
X2032640Y2070599D02*
X2034393D01*
X2032549Y2068799D02*
X2034170D01*
X1911878Y2094899D02*
X2034125D01*
X2032453Y2098499D02*
X2034123D01*
X2032695Y2069699D02*
X2034117D01*
X2012294Y2095799D02*
X2033561D01*
X2031993Y2097599D02*
X2033560D01*
X1901900Y2402699D02*
X2033453D01*
X2031162Y2096699D02*
X2033400D01*
X2010051Y2295599D02*
X2033344D01*
X1994404Y2408099D02*
X2033133D01*
X2006052Y2290199D02*
X2032704D01*
X1910731Y2403599D02*
X2032426D01*
X1993948Y2407199D02*
X2032288D01*
X2009690Y2294699D02*
X2032201D01*
X2028972Y1999499D02*
X2032124D01*
X1999398Y1992299D02*
X2032083D01*
X1911623Y2404499D02*
X2031961D01*
X2006601Y1995899D02*
X2031934D01*
X2005692Y2291099D02*
X2031929D01*
X1992610Y2406299D02*
X2031901D01*
X1912115Y2405399D02*
X2031802D01*
X2008710Y2293799D02*
X2031695D01*
X2004715Y2291999D02*
X2031578D01*
X1998292Y2292899D02*
X2031506D01*
X2003190Y1998599D02*
X2031499D01*
X2006337Y1996799D02*
X2031427D01*
X2005587Y1997699D02*
X2031302D01*
X1964991Y1986899D02*
X2031085D01*
X1999273Y1991399D02*
X2030784D01*
X1965178Y1987799D02*
X2030374D01*
X1998766Y1990499D02*
X2030233D01*
X1965043Y1988699D02*
X2030057D01*
X1967191Y1989599D02*
X2030014D01*
X2026277Y2282999D02*
X2029997D01*
X2007504Y1933799D02*
X2029897D01*
X1970560Y2278499D02*
X2029469D01*
X2015112Y1929299D02*
X2029369D01*
X2026840Y2282099D02*
X2028875D01*
X2007048Y1932899D02*
X2028775D01*
X2026275Y2279399D02*
X2028694D01*
X1982370Y2380199D02*
X2028690D01*
X2013958Y1930199D02*
X2028594D01*
X1911759Y2384699D02*
X2028512D01*
X1911197Y2093999D02*
X2028495D01*
X2027000Y2281199D02*
X2028470D01*
X2026839Y2280299D02*
X2028417D01*
X2005710Y1931999D02*
X2028370D01*
X1988911Y1931099D02*
X2028317D01*
X1972277Y2339699D02*
X2028290D01*
X2021725Y2267699D02*
X2027797D01*
X1982154Y2381099D02*
X2027710D01*
X2012661Y2085899D02*
X2027706D01*
X2011505Y2103899D02*
X2027694D01*
X1978405Y2383799D02*
X2027648D01*
X1990604Y2374799D02*
X2027644D01*
X1981695Y2381999D02*
X2027349D01*
X2012936Y2075999D02*
X2027339D01*
X2012306Y2113799D02*
X2027331D01*
X1980865Y2382899D02*
X2027331D01*
X1911983Y2345099D02*
X2027282D01*
X2025688Y2263199D02*
X2027269D01*
X2013164Y2066099D02*
X2027064D01*
X2021631Y2123699D02*
X2027057D01*
X1911551Y2369399D02*
X2027004D01*
X1972561Y2340599D02*
X2026987D01*
X2013360Y2056199D02*
X2026836D01*
X2012943Y2133599D02*
X2026831D01*
X2012943Y2043599D02*
X2026831D01*
X2015500Y1861799D02*
X2026725D01*
X2024930Y1865399D02*
X2026723D01*
X2021035Y1881599D02*
X2026703D01*
X2022130Y2266799D02*
X2026675D01*
X2013533Y2046299D02*
X2026640D01*
X2013169Y2053499D02*
X2026635D01*
X1970199Y2344199D02*
X2026573D01*
X1990692Y2373899D02*
X2026501D01*
X2021131Y2264099D02*
X2026494D01*
X2022630Y2126399D02*
X2026467D01*
X2013689Y2036399D02*
X2026467D01*
X2013365Y2063399D02*
X2026462D01*
X1972575Y2341499D02*
X2026434D01*
X2025283Y2116499D02*
X2026311D01*
X2013538Y2073299D02*
X2026307D01*
X2022183Y2265899D02*
X2026270D01*
X1971725Y2343299D02*
X2026256D01*
X1910593Y2370299D02*
X2026229D01*
X2021906Y2264999D02*
X2026217D01*
X1972325Y2342399D02*
X2026214D01*
X2013962Y2106599D02*
X2026169D01*
X2018627Y1886099D02*
X2026165D01*
X2013693Y2083199D02*
X2026165D01*
X2015500Y1862699D02*
X2026161D01*
X2024523Y1864499D02*
X2026160D01*
X2014082Y2096699D02*
X2026038D01*
X2013835Y2093099D02*
X2026035D01*
X2023397Y1863599D02*
X2026000D01*
X2020498Y2171399D02*
X2025997D01*
X1990455Y2372999D02*
X2025995D01*
X2014193Y2086799D02*
X2025918D01*
X2013965Y2102999D02*
X2025915D01*
X1901900Y2371199D02*
X2025878D01*
X2014297Y2076899D02*
X2025807D01*
X1989760Y2372099D02*
X2025806D01*
X2014085Y2112899D02*
X2025804D01*
X2014394Y2066999D02*
X2025703D01*
X2014196Y2122799D02*
X2025700D01*
X2014484Y2057099D02*
X2025606D01*
X2014300Y2132699D02*
X2025604D01*
X2014300Y2042699D02*
X2025604D01*
X2016821Y1882499D02*
X2025577D01*
X2014569Y2047199D02*
X2025516D01*
X2014396Y2052599D02*
X2025513D01*
X1912400Y2166899D02*
X2025469D01*
X2022225Y2127299D02*
X2025431D01*
X2014649Y2037299D02*
X2025431D01*
X2014487Y2062499D02*
X2025429D01*
X2017812Y1885199D02*
X2025393D01*
X1901900Y2412599D02*
X2025390D01*
X2025230Y2117399D02*
X2025351D01*
X2014571Y2072399D02*
X2025349D01*
X2014793Y2107499D02*
X2025277D01*
X2014651Y2082299D02*
X2025275D01*
X1909836Y2003099D02*
X2025222D01*
X2014859Y2097599D02*
X2025207D01*
X2014725Y2092199D02*
X2025205D01*
X2016532Y1883399D02*
X2025170D01*
X2014921Y2087699D02*
X2025141D01*
X2014795Y2102099D02*
X2025139D01*
X2003551Y1999499D02*
X2025128D01*
X2015971Y1884299D02*
X2025117D01*
X2014978Y2077799D02*
X2025079D01*
X2014861Y2111999D02*
X2025078D01*
X2015033Y2067899D02*
X2025022D01*
X2014922Y2121899D02*
X2025020D01*
X2015083Y2057999D02*
X2024967D01*
X2014980Y2131799D02*
X2024966D01*
X2014980Y2041799D02*
X2024966D01*
X2015130Y2048099D02*
X2024917D01*
X2015034Y2051699D02*
X2024916D01*
X2020299Y2170499D02*
X2024875D01*
X2021103Y2128199D02*
X2024870D01*
X2015174Y2038199D02*
X2024870D01*
X2015084Y2061599D02*
X2024868D01*
X2024825Y2118299D02*
X2024826D01*
X2015132Y2071499D02*
X2024825D01*
X2015253Y2108399D02*
X2024785D01*
X2015175Y2081399D02*
X2024784D01*
X2015288Y2098499D02*
X2024747D01*
X2015216Y2091299D02*
X2024746D01*
X2015320Y2088599D02*
X2024712D01*
X2015254Y2101199D02*
X2024711D01*
X1912300Y2167799D02*
X2024694D01*
X2015349Y2078699D02*
X2024680D01*
X2015289Y2111099D02*
X2024679D01*
X2015376Y2068799D02*
X2024651D01*
X2015321Y2120999D02*
X2024650D01*
X2002388Y2002199D02*
X2024629D01*
X2015400Y2058899D02*
X2024624D01*
X2015350Y2130899D02*
X2024623D01*
X2015350Y2040899D02*
X2024623D01*
X2015421Y2048999D02*
X2024600D01*
X2015377Y2050799D02*
X2024600D01*
X2003569Y2000399D02*
X2024593D01*
X2015440Y2129099D02*
X2024579D01*
X2015440Y2039099D02*
X2024579D01*
X2015400Y2060699D02*
X2024579D01*
X2023703Y2119199D02*
X2024560D01*
X2015421Y2070599D02*
X2024560D01*
X2015469Y2109299D02*
X2024544D01*
X2015440Y2080499D02*
X2024544D01*
X2015480Y2099399D02*
X2024531D01*
X2015456Y2090399D02*
X2024530D01*
X2015489Y2089499D02*
X2024520D01*
X2015470Y2100299D02*
X2024519D01*
X2015495Y2079599D02*
X2024511D01*
X2015481Y2110199D02*
X2024511D01*
X2015499Y2069699D02*
X2024505D01*
X2015489Y2120099D02*
X2024505D01*
X2015500Y2059799D02*
X2024501D01*
X2015495Y2129999D02*
X2024501D01*
X2015495Y2039999D02*
X2024501D01*
X2015499Y2049899D02*
X2024500D01*
X2019673Y2169599D02*
X2024470D01*
X2003252Y2001299D02*
X2024450D01*
X2000566Y2168699D02*
X2024417D01*
X1985768Y2417999D02*
X2024382D01*
X1910589Y2413499D02*
X2024087D01*
X1986274Y2417099D02*
X2023673D01*
X1985573Y2414399D02*
X2023534D01*
X1986398Y2416199D02*
X2023356D01*
X1986199Y2415299D02*
X2023314D01*
X1970710Y2258699D02*
X2023090D01*
X2015323Y2263199D02*
X2022912D01*
X2015075Y2279399D02*
X2022525D01*
X2021223Y2282999D02*
X2022523D01*
X2009716Y2259599D02*
X2022110D01*
X2014197Y2262299D02*
X2022048D01*
X1986931Y2157899D02*
X2021997D01*
X2015639Y2280299D02*
X2021961D01*
X2020097Y2282099D02*
X2021960D01*
X2015800Y2281199D02*
X2021800D01*
X2010645Y2260499D02*
X2021749D01*
X2011070Y2261399D02*
X2021731D01*
X2015456Y2119199D02*
X2021697D01*
X2017052Y2153399D02*
X2021469D01*
X2015500Y1863599D02*
X2021403D01*
X1911759Y2114699D02*
X2021169D01*
X1996652Y2439599D02*
X2021144D01*
X1984518Y1876199D02*
X2021081D01*
X1912399Y2156999D02*
X2020875D01*
X2015766Y1868099D02*
X2020865D01*
X2006835Y2154299D02*
X2020694D01*
X1978092Y2312699D02*
X2020625D01*
X2006974Y2316299D02*
X2020623D01*
X2015215Y2118299D02*
X2020575D01*
X1911384Y2434199D02*
X2020504D01*
X2019783Y1899599D02*
X2020489D01*
X1912321Y2156099D02*
X2020470D01*
X1912030Y2155199D02*
X2020417D01*
X1912188Y2115599D02*
X2020394D01*
X1993667Y1922099D02*
X2020385D01*
X2015500Y1864499D02*
X2020277D01*
X1991683Y1892399D02*
X2020230D01*
X2004164Y1917599D02*
X2020216D01*
X2014723Y2117399D02*
X2020170D01*
X2015576Y1871699D02*
X2020140D01*
X2013831Y2116499D02*
X2020117D01*
X2000966Y1867199D02*
X2020093D01*
X2006273Y2313599D02*
X2020061D01*
X2007098Y2315399D02*
X2020060D01*
X1996969Y2438699D02*
X2020001D01*
X2014397Y1904099D02*
X2019989D01*
X2006899Y2314499D02*
X2019900D01*
X2015500Y1865399D02*
X2019870D01*
X1995983Y1866299D02*
X2019817D01*
X1969269Y2321699D02*
X2019790D01*
X1985227Y1875299D02*
X2019750D01*
X1911983Y2435099D02*
X2019729D01*
X2016896Y1899599D02*
X2019617D01*
X1976383Y2326199D02*
X2019612D01*
X1996951Y2437799D02*
X2019495D01*
X1980839Y2300999D02*
X2019490D01*
X2015526Y1928399D02*
X2019481D01*
X1990407Y1872599D02*
X2019445D01*
X2003362Y1921199D02*
X2019408D01*
X2016755Y1900499D02*
X2019380D01*
X1995610Y2435999D02*
X2019378D01*
X2004525Y1918499D02*
X2019349D01*
X1996590Y2436899D02*
X2019306D01*
X1985544Y1874399D02*
X2019296D01*
X2014383Y1903199D02*
X2019208D01*
X1989635Y1873499D02*
X2019208D01*
X2018887Y1887899D02*
X2019200D01*
X2015174Y2128199D02*
X2019097D01*
X2004226Y1920299D02*
X2019048D01*
X2004543Y1919399D02*
X2019031D01*
X2016389Y1901399D02*
X2018978D01*
X2015716Y1902299D02*
X2018928D01*
X1991630Y1891499D02*
X2018846D01*
X1968952Y2322599D02*
X2018810D01*
X1976106Y2325299D02*
X2018748D01*
X1912032Y2268599D02*
X2018597D01*
X2012669Y2123699D02*
X2018569D01*
X2006048Y1923899D02*
X2018540D01*
X2012055Y2305499D02*
X2018537D01*
X2018503Y1888799D02*
X2018518D01*
X1975183Y1877099D02*
X2018503D01*
X1968088Y2323499D02*
X2018449D01*
X1975331Y2324399D02*
X2018431D01*
X1991223Y1890599D02*
X2018383D01*
X2017453Y1889699D02*
X2018288D01*
X1981000Y2301899D02*
X2018152D01*
X2015585Y1927499D02*
X2018150D01*
X2015640Y2282099D02*
X2018103D01*
X2015730Y2264099D02*
X2018069D01*
X2014649Y2127299D02*
X2017975D01*
X2016899Y1881599D02*
X2017965D01*
X2008439Y1895099D02*
X2017927D01*
X2006504Y1924799D02*
X2017845D01*
X2011360Y2304599D02*
X2017844D01*
X1911294Y2174099D02*
X2017817D01*
X1911693Y2124599D02*
X2017794D01*
X2016837Y1898699D02*
X2017732D01*
X1980840Y2302799D02*
X2017696D01*
X2015315Y1926599D02*
X2017696D01*
X2014556Y1925699D02*
X2017608D01*
X1980277Y2303699D02*
X2017608D01*
X2013689Y2126399D02*
X2017570D01*
X2010752Y2286599D02*
X2017565D01*
X1912153Y2125499D02*
X2017517D01*
X1943818Y2267699D02*
X2017475D01*
X2014564Y1877999D02*
X2017377D01*
X2015065Y1895999D02*
X2017301D01*
X2015783Y2264999D02*
X2017294D01*
X2016567Y1897799D02*
X2017226D01*
X2016776Y1880699D02*
X2017193D01*
X2016036Y1896899D02*
X2017102D01*
X2014735Y2266799D02*
X2017070D01*
X2015507Y2265899D02*
X2017017D01*
X2015077Y2282999D02*
X2016977D01*
X2015794Y1878899D02*
X2016970D01*
X2016433Y1879799D02*
X2016917D01*
X2011069Y2285699D02*
X2016793D01*
X1997663Y1909499D02*
X2016724D01*
X2010690Y2283899D02*
X2016570D01*
X2015930Y1905899D02*
X2016534D01*
X2011051Y2284799D02*
X2016517D01*
X2001073Y2169599D02*
X2016127D01*
X2014935Y1908599D02*
X2016099D01*
X2015983Y1906799D02*
X2016027D01*
X1910064Y2173199D02*
X2015932D01*
X2015707Y1907699D02*
X2015902D01*
X1965497Y2176799D02*
X2015534D01*
X2001198Y2170499D02*
X2015501D01*
X2000376Y2172299D02*
X2015426D01*
X2001001Y2171399D02*
X2015302D01*
X1990097Y1889699D02*
X2015239D01*
X1966623Y2177699D02*
X2015027D01*
X1967030Y2178599D02*
X2014902D01*
X1963684Y1888799D02*
X2014190D01*
X2009598Y1886099D02*
X2014065D01*
X2007607Y2153399D02*
X2013948D01*
X2008776Y1887899D02*
X2013806D01*
X2009401Y1886999D02*
X2013770D01*
X1912250Y2147999D02*
X2013636D01*
X1946151Y1967099D02*
X2013617D01*
X1991869Y1914899D02*
X2013081D01*
X2007883Y2152499D02*
X2012924D01*
X1911880Y2148899D02*
X2012790D01*
X1995406Y1958099D02*
X2012697D01*
X1990510Y1947299D02*
X2012617D01*
X2007830Y2151599D02*
X2012460D01*
X2007535Y1904099D02*
X2012403D01*
X2006297Y2149799D02*
X2012402D01*
X2007423Y2150699D02*
X2012302D01*
X2011200Y2262299D02*
X2012203D01*
X2006029Y1953599D02*
X2012169D01*
X1983284Y1910399D02*
X2012140D01*
X1990517Y2184899D02*
X2012083D01*
X1979684Y1930199D02*
X2012042D01*
X1990683Y1871699D02*
X2012024D01*
X2006492Y1962599D02*
X2011927D01*
X1998356Y1908599D02*
X2011865D01*
X2001473Y1868099D02*
X2011834D01*
X1991551Y1913999D02*
X2011750D01*
X1945790Y1966199D02*
X2011732D01*
X1993320Y2266799D02*
X2011665D01*
X2005382Y1957199D02*
X2011575D01*
X1984151Y1911299D02*
X2011445D01*
X2006592Y1925699D02*
X2011444D01*
X2000776Y1870799D02*
X2011399D01*
X2006423Y1954499D02*
X2011394D01*
X2001598Y1868999D02*
X2011327D01*
X1971255Y2279399D02*
X2011325D01*
X2009710Y2282999D02*
X2011323D01*
X2005515Y1963499D02*
X2011301D01*
X1990684Y1913099D02*
X2011296D01*
X1911093Y2103899D02*
X2011295D01*
X1996710Y1904999D02*
X2011277D01*
X1944810Y1965299D02*
X2011226D01*
X2008307Y1903199D02*
X2011217D01*
X1984469Y1912199D02*
X2011208D01*
X2001401Y1869899D02*
X2011202D01*
X2006179Y1956299D02*
X2011170D01*
X1946169Y1967999D02*
X2011131D01*
X2006466Y1955399D02*
X2011117D01*
X1984576Y1964399D02*
X2011102D01*
X1998592Y1907699D02*
X2011093D01*
X1991515Y2179499D02*
X2011085D01*
X2011071Y2263199D02*
X2011077D01*
X1988973Y1877999D02*
X2011036D01*
X2004073Y1980599D02*
X2010990D01*
X2007001Y1942799D02*
X2010927D01*
X1994247Y2265899D02*
X2010893D01*
X1927288Y1929299D02*
X2010888D01*
X1998048Y1905899D02*
X2010870D01*
X1998504Y1906799D02*
X2010817D01*
X2002383Y1985099D02*
X2010812D01*
X1991816Y2183999D02*
X2010784D01*
X2006456Y1972499D02*
X2010764D01*
X1990966Y2280299D02*
X2010761D01*
X1991598Y2282099D02*
X2010760D01*
X1967131Y1946399D02*
X2010732D01*
X2006356Y1926599D02*
X2010685D01*
X2010647Y2264099D02*
X2010670D01*
X2009473Y1885199D02*
X2010662D01*
X2009720Y2264999D02*
X2010617D01*
X1991473Y2281199D02*
X2010600D01*
X2008600Y1895999D02*
X2010535D01*
X1912249Y2095799D02*
X2010506D01*
X1910982Y2113799D02*
X2010494D01*
X1998834Y1928399D02*
X2010474D01*
X2005663Y1927499D02*
X2010415D01*
X1992226Y2180399D02*
X2010374D01*
X2006376Y1943699D02*
X2010301D01*
X1992367Y2183099D02*
X2010233D01*
X1940355Y1945499D02*
X2010226D01*
X1912276Y2085899D02*
X2010139D01*
X2006288Y2123699D02*
X2010131D01*
X1962915Y1944599D02*
X2010102D01*
X2004810Y1968899D02*
X2010079D01*
X1992543Y2181299D02*
X2010057D01*
X1992586Y2182199D02*
X2010014D01*
X2004699Y1981499D02*
X2010010D01*
X2006692Y1971599D02*
X2009951D01*
X2004268Y1984199D02*
X2009948D01*
X2008583Y1902299D02*
X2009884D01*
X1912300Y2075999D02*
X2009864D01*
X1997083Y2133599D02*
X2009857D01*
X1910731Y2043599D02*
X2009857D01*
X1990203Y1878899D02*
X2009806D01*
X2006148Y1969799D02*
X2009693D01*
X2006604Y1970699D02*
X2009656D01*
X2004898Y1982399D02*
X2009649D01*
X2007752Y2066099D02*
X2009636D01*
X1910589Y2053499D02*
X2009631D01*
X2004774Y1983299D02*
X2009631D01*
X2008966Y1884299D02*
X2009629D01*
X1974848Y2199299D02*
X2009624D01*
X2008440Y1896899D02*
X2009564D01*
X1912340Y2056199D02*
X2009440D01*
X2006584Y2063399D02*
X2009435D01*
X1992304Y2195699D02*
X2009434D01*
X1986184Y1937399D02*
X2009390D01*
X1912356Y2046299D02*
X2009267D01*
X1910260Y2073299D02*
X2009262D01*
X2008530Y1901399D02*
X2009211D01*
X1990842Y1879799D02*
X2009167D01*
X1912369Y2126399D02*
X2009111D01*
X1912369Y2036399D02*
X2009111D01*
X1910064Y2083199D02*
X2009107D01*
X1990941Y1883399D02*
X2009068D01*
X2007877Y1897799D02*
X2009033D01*
X1991463Y2198399D02*
X2008999D01*
X2003756Y2309099D02*
X2008981D01*
X1912380Y2116499D02*
X2008969D01*
X1909836Y2093099D02*
X2008965D01*
X1992392Y2196599D02*
X2008927D01*
X2008123Y1900499D02*
X2008845D01*
X1912389Y2106599D02*
X2008838D01*
X1909561Y2102999D02*
X2008835D01*
X1991185Y1880699D02*
X2008824D01*
X1992156Y2197499D02*
X2008802D01*
X1991231Y1882499D02*
X2008779D01*
X2000210Y1898699D02*
X2008763D01*
X1912395Y2096699D02*
X2008718D01*
X1909194Y2112899D02*
X2008715D01*
X2006997Y1899599D02*
X2008704D01*
X1991308Y1881599D02*
X2008701D01*
X1912399Y2086799D02*
X2008607D01*
X2007152Y2122799D02*
X2008604D01*
X1912400Y2076899D02*
X2008503D01*
X1998968Y2132699D02*
X2008500D01*
X1901900Y2042699D02*
X2008500D01*
X2007198Y1941899D02*
X2008437D01*
X2007392Y2066999D02*
X2008406D01*
X1901900Y2052599D02*
X2008404D01*
X1912395Y2057099D02*
X2008316D01*
X1901900Y2062499D02*
X2008313D01*
X1912389Y2047199D02*
X2008231D01*
X1993335Y2072399D02*
X2008229D01*
X1985761Y2127299D02*
X2008151D01*
X1912381Y2037299D02*
X2008151D01*
X1901900Y2082299D02*
X2008149D01*
X1912370Y2117399D02*
X2008077D01*
X1901900Y2092199D02*
X2008075D01*
X1987051Y1938299D02*
X2008052D01*
X1971504Y2304599D02*
X2008040D01*
X1912356Y2107499D02*
X2008007D01*
X1901900Y2102099D02*
X2008005D01*
X1912340Y2097599D02*
X2007941D01*
X1901900Y2111999D02*
X2007939D01*
X1912321Y2087699D02*
X2007879D01*
X2007469Y2121899D02*
X2007878D01*
X1912300Y2077799D02*
X2007822D01*
X1999474Y2131799D02*
X2007820D01*
X1901900Y2041799D02*
X2007820D01*
X2006415Y2067899D02*
X2007767D01*
X1901900Y2051699D02*
X2007766D01*
X2007073Y1940999D02*
X2007744D01*
X1912250Y2057999D02*
X2007717D01*
X1901900Y2061599D02*
X2007716D01*
X1912221Y2048099D02*
X2007670D01*
X1994225Y2071499D02*
X2007668D01*
X2003992Y2308199D02*
X2007650D01*
X1987293Y2128199D02*
X2007626D01*
X1912189Y2038199D02*
X2007626D01*
X1901900Y2081399D02*
X2007625D01*
X1987369Y1939199D02*
X2007596D01*
X1912154Y2118299D02*
X2007585D01*
X1901900Y2091299D02*
X2007584D01*
X1912116Y2108399D02*
X2007547D01*
X1901900Y2101199D02*
X2007546D01*
X1912075Y2098499D02*
X2007512D01*
X1901900Y2111099D02*
X2007511D01*
X2006566Y1940099D02*
X2007508D01*
X1912032Y2088599D02*
X2007480D01*
X2007451Y2120999D02*
X2007479D01*
X1911984Y2078699D02*
X2007451D01*
X1999598Y2130899D02*
X2007450D01*
X1909206Y2040899D02*
X2007450D01*
X1994989Y2068799D02*
X2007424D01*
X1909569Y2050799D02*
X2007423D01*
X1911880Y2058899D02*
X2007400D01*
X1909843Y2060699D02*
X2007400D01*
X1911822Y2048999D02*
X2007379D01*
X1994716Y2070599D02*
X2007379D01*
X1998773Y2129099D02*
X2007360D01*
X1911761Y2039099D02*
X2007360D01*
X1910265Y2080499D02*
X2007360D01*
X2002110Y2305499D02*
X2007345D01*
X2006110Y2119199D02*
X2007344D01*
X1910438Y2090399D02*
X2007344D01*
X1911625Y2109299D02*
X2007331D01*
X1910593Y2100299D02*
X2007330D01*
X1911551Y2099399D02*
X2007320D01*
X1910735Y2110199D02*
X2007319D01*
X1911471Y2089499D02*
X2007311D01*
X2007090Y2120099D02*
X2007311D01*
X1911387Y2079599D02*
X2007305D01*
X1999399Y2129999D02*
X2007305D01*
X1910985Y2039999D02*
X2007305D01*
X1994956Y2069699D02*
X2007301D01*
X1911096Y2049899D02*
X2007301D01*
X1911200Y2059799D02*
X2007300D01*
X1991401Y2282999D02*
X2007290D01*
X2003904Y2307299D02*
X2007196D01*
X2004884Y2287499D02*
X2007112D01*
X2003448Y2306399D02*
X2007108D01*
X1990776Y2283899D02*
X2006310D01*
X1997315Y2293799D02*
X2006290D01*
X1999316Y2259599D02*
X2006284D01*
X1999320Y2264999D02*
X2006280D01*
X1912389Y2286599D02*
X2006248D01*
X1912154Y2298299D02*
X2006112D01*
X1911821Y2284799D02*
X2005949D01*
X1912220Y2285699D02*
X2005931D01*
X2000245Y2260499D02*
X2005355D01*
X2000247Y2264099D02*
X2005353D01*
X1978488Y2294699D02*
X2005310D01*
X1901900Y2032799D02*
X2005285D01*
X1912370Y2297399D02*
X2005248D01*
X1912277Y1887899D02*
X2005224D01*
X1923598Y2028299D02*
X2005116D01*
X1990381Y1884299D02*
X2005034D01*
X2001190Y1899599D02*
X2005003D01*
X1912188Y2295599D02*
X2004949D01*
X1912380Y2296499D02*
X2004931D01*
X2000670Y2261399D02*
X2004930D01*
X2000671Y2263199D02*
X2004929D01*
X2000800Y2262299D02*
X2004800D01*
X1912399Y1886999D02*
X2004599D01*
X1989347Y1885199D02*
X2004527D01*
X1991110Y1904099D02*
X2004465D01*
X1912221Y2318099D02*
X2004417D01*
X1912321Y1886099D02*
X2004402D01*
X1901900Y2031899D02*
X2004308D01*
X1911200Y2149799D02*
X2004303D01*
X1989675Y1931999D02*
X2004290D01*
X1923474Y2029199D02*
X2004249D01*
X2000251Y1894199D02*
X2004125D01*
X1999215Y1897799D02*
X2004123D01*
X1994820Y2067899D02*
X2003985D01*
X1921083Y2030999D02*
X2003948D01*
X1922968Y2030099D02*
X2003931D01*
X1975925Y2327999D02*
X2003890D01*
X2001551Y1900499D02*
X2003877D01*
X1910433Y2063399D02*
X2003816D01*
X1911469Y2154299D02*
X2003765D01*
X2000388Y1903199D02*
X2003693D01*
X1911695Y2119199D02*
X2003690D01*
X2000569Y1895099D02*
X2003561D01*
X2000192Y1896899D02*
X2003560D01*
X1910862Y2123699D02*
X2003512D01*
X2001569Y1901399D02*
X2003470D01*
X2001252Y1902299D02*
X2003417D01*
X2000552Y1895999D02*
X2003400D01*
X1945852Y1968899D02*
X2003390D01*
X1979299Y1936499D02*
X2003337D01*
X1954225Y1922999D02*
X2003290D01*
X1909843Y2150699D02*
X2003177D01*
X1999201Y1993199D02*
X2003088D01*
X1985201Y1963499D02*
X2003085D01*
X1994421Y2066999D02*
X2003008D01*
X1910433Y2153399D02*
X2002993D01*
X1989946Y1932899D02*
X2002952D01*
X1911469Y2064299D02*
X2002949D01*
X1995683Y1958999D02*
X2002916D01*
X1910433Y2333399D02*
X2002882D01*
X1963652Y1952699D02*
X2002825D01*
X1963892Y1943699D02*
X2002824D01*
X1901900Y2151599D02*
X2002770D01*
X1991617Y2217299D02*
X2002751D01*
X1977856Y2313599D02*
X2002727D01*
X1901900Y2152499D02*
X2002717D01*
X1910865Y2120099D02*
X2002710D01*
X1993693Y2066099D02*
X2002648D01*
X1901900Y2122799D02*
X2002648D01*
X1988335Y1935599D02*
X2002644D01*
X1987352Y1940099D02*
X2002634D01*
X1992161Y2065199D02*
X2002631D01*
X1974803Y2328899D02*
X2002587D01*
X1912389Y2317199D02*
X2002532D01*
X1989889Y1933799D02*
X2002496D01*
X2002210Y1997699D02*
X2002443D01*
X1957531Y1973399D02*
X2002437D01*
X1989478Y1934699D02*
X2002408D01*
X1976599Y2243399D02*
X2002401D01*
X1994631Y1957199D02*
X2002392D01*
X1908405Y2120999D02*
X2002349D01*
X1999395Y1927499D02*
X2002337D01*
X1901900Y2121899D02*
X2002331D01*
X1998652Y2291999D02*
X2002285D01*
X1911983Y1985099D02*
X2002217D01*
X1964252Y1942799D02*
X2002199D01*
X1901900Y2332499D02*
X2002173D01*
X1986992Y1940999D02*
X2002127D01*
X1912356Y2287499D02*
X2002116D01*
X1985398Y1962599D02*
X2002108D01*
X1977163Y2314499D02*
X2002101D01*
X1944988Y1969799D02*
X2002052D01*
X1995630Y1959899D02*
X2002049D01*
X1911200Y2329799D02*
X2002034D01*
X1912356Y2316299D02*
X2002026D01*
X1986015Y1941899D02*
X2002002D01*
X1953103Y1923899D02*
X2001952D01*
X1998576Y1994099D02*
X2001912D01*
X1912115Y2315399D02*
X2001902D01*
X1901900Y2331599D02*
X2001856D01*
X1909843Y2330699D02*
X2001814D01*
X1994103Y1961699D02*
X2001748D01*
X1963292Y1953599D02*
X2001745D01*
X1944626Y1972499D02*
X2001744D01*
X1995225Y1960799D02*
X2001731D01*
X1958583Y1996799D02*
X2001694D01*
X1999555Y1926599D02*
X2001644D01*
X1920385Y1970699D02*
X2001596D01*
X1912356Y1956299D02*
X2001595D01*
X1943915Y1971599D02*
X2001508D01*
X1998829Y1924799D02*
X2001496D01*
X1958123Y1994999D02*
X2001493D01*
X1958530Y1995899D02*
X2001429D01*
X1999394Y1925699D02*
X2001408D01*
X1962315Y1954499D02*
X2001351D01*
X1998669Y2291099D02*
X2001308D01*
X1912115Y1955399D02*
X2001308D01*
X1912116Y2288399D02*
X2001249D01*
X1998351Y2290199D02*
X2000948D01*
X1997484Y2289299D02*
X2000931D01*
X1997868Y1865399D02*
X2000900D01*
X1998374Y1864499D02*
X2000900D01*
X1998498Y1863599D02*
X2000900D01*
X1998299Y1862699D02*
X2000900D01*
X1997673Y1861799D02*
X2000900D01*
X1991725Y1860899D02*
X2000900D01*
X1992130Y1859999D02*
X2000900D01*
X1992183Y1859099D02*
X2000900D01*
X1991906Y1858199D02*
X2000900D01*
X1994703Y1857299D02*
X2000900D01*
X1995825Y1856399D02*
X2000900D01*
X1996230Y1855499D02*
X2000900D01*
X1996283Y1854599D02*
X2000900D01*
X1996006Y1853699D02*
X2000900D01*
X1995231Y1852799D02*
X2000900D01*
X1962600Y1851899D02*
X2000900D01*
X1962600Y1850999D02*
X2000900D01*
X1962600Y1850099D02*
X2000900D01*
X1962600Y1849199D02*
X2000900D01*
X1962600Y1848299D02*
X2000900D01*
X1962600Y1847399D02*
X2000900D01*
X1962600Y1846499D02*
X2000900D01*
X1962600Y1845599D02*
X2000900D01*
X1962600Y1844699D02*
X2000900D01*
X1962600Y1843799D02*
X2000900D01*
X1962600Y1842899D02*
X2000900D01*
X1962600Y1841999D02*
X2000900D01*
X1962600Y1841099D02*
X2000900D01*
X1962600Y1840199D02*
X2000900D01*
X1962600Y1839299D02*
X2000900D01*
X1962600Y1838399D02*
X2000900D01*
X1962600Y1837499D02*
X2000900D01*
X1962600Y1836599D02*
X2000900D01*
X1962600Y1835699D02*
X2000900D01*
X1962600Y1834799D02*
X2000900D01*
X1962600Y1833899D02*
X2000900D01*
X1962600Y1832999D02*
X2000900D01*
X1993347Y1916699D02*
X2000764D01*
X1971050Y2305499D02*
X2000690D01*
X1994512Y1921199D02*
X2000586D01*
X1992575Y1980599D02*
X2000527D01*
X1980900Y2218199D02*
X2000393D01*
X1992577Y1984199D02*
X2000332D01*
X1977372Y2242499D02*
X2000189D01*
X1993139Y1981499D02*
X1999901D01*
X1993140Y1983299D02*
X1999826D01*
X1958307Y1997699D02*
X1999790D01*
X1994374Y1917599D02*
X1999784D01*
X1976210Y2309999D02*
X1999737D01*
X1994899Y1920299D02*
X1999722D01*
X1993300Y1982399D02*
X1999702D01*
X1901900Y2002199D02*
X1999612D01*
X1994839Y1918499D02*
X1999423D01*
X1994998Y1919399D02*
X1999405D01*
X1969719Y2306399D02*
X1999352D01*
X1938299Y2309099D02*
X1999044D01*
X1938239Y2307299D02*
X1998896D01*
X1980771Y2219099D02*
X1998834D01*
X1957535Y1998599D02*
X1998810D01*
X1938398Y2308199D02*
X1998808D01*
X1901900Y2001299D02*
X1998748D01*
X1977723Y2241599D02*
X1998683D01*
X1911471Y1999499D02*
X1998449D01*
X1910438Y2000399D02*
X1998431D01*
X1991246Y1898699D02*
X1997790D01*
X1980347Y2219999D02*
X1997638D01*
X1988792Y1903199D02*
X1997612D01*
X1977794Y2240699D02*
X1997518D01*
X1990630Y1870799D02*
X1997224D01*
X1972750Y1867199D02*
X1997034D01*
X1987825Y2133599D02*
X1996917D01*
X1901900Y2172299D02*
X1996824D01*
X1991305Y1899599D02*
X1996810D01*
X1990977Y1897799D02*
X1996785D01*
X1990126Y1902299D02*
X1996748D01*
X1979420Y2220899D02*
X1996669D01*
X1911984Y2168699D02*
X1996634D01*
X1991407Y1893299D02*
X1996616D01*
X1990223Y1869899D02*
X1996599D01*
X1977605Y2239799D02*
X1996570D01*
X1971419Y1868099D02*
X1996527D01*
X1991164Y1900499D02*
X1996449D01*
X1990798Y1901399D02*
X1996431D01*
X1989097Y1868999D02*
X1996402D01*
X1901900Y2171399D02*
X1996199D01*
X1911387Y2169599D02*
X1996127D01*
X1981924Y2395499D02*
X1996044D01*
X1910265Y2170499D02*
X1996002D01*
X1971690Y2259599D02*
X1995884D01*
X1994671Y2264999D02*
X1995880D01*
X1901900Y2221799D02*
X1995865D01*
X1973204Y1866299D02*
X1995817D01*
X1990445Y1896899D02*
X1995808D01*
X1977097Y2238899D02*
X1995782D01*
X1990635Y1894199D02*
X1995749D01*
X1989474Y1895999D02*
X1995448D01*
X1911983Y1895099D02*
X1995431D01*
X1910865Y2390099D02*
X1995404D01*
X1992090Y1904999D02*
X1995290D01*
X1988021Y2129099D02*
X1995227D01*
X1901900Y2222699D02*
X1995191D01*
X1975950Y2237999D02*
X1995121D01*
X1927110Y1924799D02*
X1995081D01*
X1928152Y1928399D02*
X1995077D01*
X1988316Y2132699D02*
X1995032D01*
X1967390Y1994099D02*
X1995024D01*
X1972051Y2260499D02*
X1994955D01*
X1994800Y2264099D02*
X1994953D01*
X1981278Y2394599D02*
X1994901D01*
X1979352Y2293799D02*
X1994885D01*
X1968179Y1990499D02*
X1994834D01*
X1911625Y2289299D02*
X1994716D01*
X1908405Y2390999D02*
X1994629D01*
X1910731Y2223599D02*
X1994623D01*
X1988420Y2129999D02*
X1994601D01*
X1912395Y2237099D02*
X1994564D01*
X1993316Y2261399D02*
X1994530D01*
X1988556Y2131799D02*
X1994526D01*
X1928090Y1925699D02*
X1994517D01*
X1928469Y1927499D02*
X1994515D01*
X1988589Y2130899D02*
X1994402D01*
X1994245Y2262299D02*
X1994400D01*
X1968249Y1993199D02*
X1994399D01*
X1980029Y2393699D02*
X1994395D01*
X1928451Y1926599D02*
X1994355D01*
X1979256Y1909499D02*
X1994337D01*
X1968543Y1991399D02*
X1994327D01*
X1901900Y2391899D02*
X1994278D01*
X1909194Y2022899D02*
X1994248D01*
X1901900Y2392799D02*
X1994206D01*
X1968563Y1992299D02*
X1994202D01*
X1911623Y2224499D02*
X1994147D01*
X1990603Y1861799D02*
X1994127D01*
X1912340Y2236199D02*
X1994098D01*
X1992451Y1905899D02*
X1993952D01*
X1912356Y2017499D02*
X1993936D01*
X1973292Y1865399D02*
X1993932D01*
X1979669Y2292899D02*
X1993908D01*
X1978310Y2290199D02*
X1993849D01*
X1957560Y2225399D02*
X1993753D01*
X1977556Y2235299D02*
X1993713D01*
X1991288Y1908599D02*
X1993644D01*
X1979651Y2291999D02*
X1993548D01*
X1979290Y2291099D02*
X1993531D01*
X1962600Y1862699D02*
X1993501D01*
X1992469Y1906799D02*
X1993496D01*
X1958255Y2226299D02*
X1993433D01*
X1973055Y1864499D02*
X1993426D01*
X1992152Y1907699D02*
X1993408D01*
X1978699Y2234399D02*
X1993401D01*
X1972360Y1863599D02*
X1993302D01*
X1901900Y2021999D02*
X1993224D01*
X1912300Y2435999D02*
X1993190D01*
X1958492Y2227199D02*
X1993182D01*
X1979205Y2233499D02*
X1993158D01*
X1912116Y2018399D02*
X1993090D01*
X1910265Y2440499D02*
X1993012D01*
X1958404Y2228099D02*
X1992996D01*
X1979394Y2232599D02*
X1992979D01*
X1957950Y2228999D02*
X1992872D01*
X1979322Y2231699D02*
X1992862D01*
X1978196Y2229899D02*
X1992809D01*
X1978971Y2230799D02*
X1992806D01*
X1901900Y2021099D02*
X1992760D01*
X1911625Y2019299D02*
X1992702D01*
X1991131Y1857299D02*
X1992697D01*
X1910735Y2020199D02*
X1992602D01*
X1912400Y2436899D02*
X1992210D01*
X1962600Y1852799D02*
X1992169D01*
X1911387Y2439599D02*
X1992148D01*
X1985273Y1961699D02*
X1992097D01*
X1912300Y2437799D02*
X1991849D01*
X1911984Y2438699D02*
X1991831D01*
X1962600Y1856399D02*
X1991575D01*
X1978210Y1957199D02*
X1991569D01*
X1962600Y1853699D02*
X1991394D01*
X1912356Y2406299D02*
X1991190D01*
X1962600Y1855499D02*
X1991170D01*
X1962600Y1854599D02*
X1991117D01*
X1984766Y1960799D02*
X1990975D01*
X1979190Y1958099D02*
X1990794D01*
X1979569Y1959899D02*
X1990570D01*
X1979551Y1958999D02*
X1990517D01*
X1909569Y2410799D02*
X1990237D01*
X1954630Y1922099D02*
X1989933D01*
X1972069Y2261399D02*
X1989884D01*
X1944527Y2266799D02*
X1989880D01*
X1912389Y2407199D02*
X1989852D01*
X1982161Y2065199D02*
X1989639D01*
X1911096Y2409899D02*
X1989544D01*
X1912221Y2408099D02*
X1989396D01*
X1980770Y2217299D02*
X1989383D01*
X1911822Y2408999D02*
X1989308D01*
X1979606Y2193899D02*
X1989090D01*
X1984710Y1947299D02*
X1989090D01*
X1985476Y1921199D02*
X1989088D01*
X1971752Y2262299D02*
X1988955D01*
X1944844Y2265899D02*
X1988953D01*
X1986304Y1980599D02*
X1988825D01*
X1911384Y1984199D02*
X1988823D01*
X1986173Y1918499D02*
X1988761D01*
X1986101Y1920299D02*
X1988701D01*
X1911294Y1904099D02*
X1988690D01*
X1911878Y2004899D02*
X1988684D01*
X1910593Y2010299D02*
X1988680D01*
X1986298Y1919399D02*
X1988602D01*
X1962600Y1861799D02*
X1988597D01*
X1970888Y2263199D02*
X1988530D01*
X1944886Y2264999D02*
X1988529D01*
X1979492Y1908599D02*
X1988512D01*
X1983335Y2072399D02*
X1988465D01*
X1944666Y2264099D02*
X1988400D01*
X1979674Y2211899D02*
X1988385D01*
X1975776Y2184899D02*
X1988283D01*
X1985850Y1981499D02*
X1988261D01*
X1974335Y1983299D02*
X1988260D01*
X1973510Y2198399D02*
X1988137D01*
X1985663Y1951799D02*
X1988137D01*
X1983693Y2066099D02*
X1988107D01*
X1964551Y1889699D02*
X1988103D01*
X1984519Y1982399D02*
X1988100D01*
X1985666Y1917599D02*
X1988085D01*
X1980345Y2216399D02*
X1988084D01*
X1962600Y1857299D02*
X1988069D01*
X1984452Y1913099D02*
X1987916D01*
X1943366Y2005799D02*
X1987755D01*
X1943176Y2009399D02*
X1987753D01*
X1979883Y2194799D02*
X1987752D01*
X1986048Y1948199D02*
X1987752D01*
X1911933Y1904999D02*
X1987710D01*
X1979168Y2212799D02*
X1987674D01*
X1979404Y1907699D02*
X1987648D01*
X1984225Y2071499D02*
X1987575D01*
X1911384Y1894199D02*
X1987565D01*
X1979416Y2215499D02*
X1987533D01*
X1962600Y1860899D02*
X1987475D01*
X1978303Y2197499D02*
X1987444D01*
X1986356Y1950899D02*
X1987444D01*
X1980982Y2376599D02*
X1987381D01*
X1984421Y2066999D02*
X1987379D01*
X1977283Y2213699D02*
X1987357D01*
X1977610Y1905899D02*
X1987349D01*
X1978948Y1906799D02*
X1987331D01*
X1943873Y2006699D02*
X1987330D01*
X1943801Y2008499D02*
X1987329D01*
X1960155Y2214599D02*
X1987314D01*
X1979830Y2195699D02*
X1987296D01*
X1986504Y1949099D02*
X1987296D01*
X1962600Y1858199D02*
X1987294D01*
X1967083Y2179499D02*
X1987285D01*
X1911093Y2283899D02*
X1987224D01*
X1979425Y2196599D02*
X1987208D01*
X1986592Y1949999D02*
X1987208D01*
X1943998Y2007599D02*
X1987200D01*
X1978277Y1916699D02*
X1987108D01*
X1962600Y1868999D02*
X1987103D01*
X1984716Y2070599D02*
X1987084D01*
X1962600Y1859999D02*
X1987070D01*
X1984092Y1913999D02*
X1987049D01*
X1971492Y2280299D02*
X1987034D01*
X1912389Y2016599D02*
X1987024D01*
X1962600Y1859099D02*
X1987017D01*
X1976401Y2183999D02*
X1986984D01*
X1984820Y2067899D02*
X1986980D01*
X1964869Y1890599D02*
X1986977D01*
X1984956Y2069699D02*
X1986844D01*
X1909561Y2012999D02*
X1986834D01*
X1984989Y2068799D02*
X1986811D01*
X1963515Y1893299D02*
X1986793D01*
X1978840Y1915799D02*
X1986748D01*
X1983115Y1914899D02*
X1986731D01*
X1969619Y2282999D02*
X1986599D01*
X1966807Y2180399D02*
X1986574D01*
X1964852Y1891499D02*
X1986570D01*
X1985586Y1873499D02*
X1986565D01*
X1971404Y2281199D02*
X1986527D01*
X1964492Y1892399D02*
X1986517D01*
X1901900Y2372099D02*
X1986440D01*
X1976598Y2183099D02*
X1986433D01*
X1970950Y2282099D02*
X1986402D01*
X1912220Y2015699D02*
X1986399D01*
X1978673Y1935599D02*
X1986390D01*
X1911093Y2013899D02*
X1986327D01*
X1975966Y2181299D02*
X1986257D01*
X1976473Y2182199D02*
X1986214D01*
X1911821Y2014799D02*
X1986202D01*
X1979194Y2375699D02*
X1986050D01*
X1962600Y1869899D02*
X1985977D01*
X1980551Y1931099D02*
X1985814D01*
X1985366Y1872599D02*
X1985793D01*
X1909561Y2372999D02*
X1985745D01*
X1910064Y1903199D02*
X1985627D01*
X1911821Y2374799D02*
X1985596D01*
X1983510Y1870799D02*
X1985570D01*
X1984813Y1871699D02*
X1985517D01*
X1911093Y2373899D02*
X1985508D01*
X1966374Y1877999D02*
X1985446D01*
X1979515Y1934699D02*
X1985246D01*
X1912030Y1885199D02*
X1985072D01*
X1980869Y1931999D02*
X1985050D01*
X1912300Y1895999D02*
X1984945D01*
X1980492Y1933799D02*
X1984835D01*
X1980852Y1932899D02*
X1984778D01*
X1901900Y1902299D02*
X1984293D01*
X1965868Y1878899D02*
X1984216D01*
X1911469Y1884299D02*
X1984038D01*
X1912400Y1896899D02*
X1983974D01*
X1911880Y2418899D02*
X1983717D01*
X1901900Y1901399D02*
X1983620D01*
X1964269Y1941899D02*
X1983585D01*
X1963983Y1879799D02*
X1983577D01*
X1910433Y1883399D02*
X1983478D01*
X1912300Y1897799D02*
X1983442D01*
X1979498Y1937399D02*
X1983416D01*
X1967906Y1947299D02*
X1983290D01*
X1910265Y1900499D02*
X1983255D01*
X1975761Y2127299D02*
X1983239D01*
X1901900Y1880699D02*
X1983234D01*
X1975769Y2165099D02*
X1983231D01*
X1901900Y1882499D02*
X1983188D01*
X1911984Y1898699D02*
X1983173D01*
X1911387Y1899599D02*
X1983113D01*
X1901900Y1881599D02*
X1983111D01*
X1975107Y1982399D02*
X1983081D01*
X1963951Y1940999D02*
X1982608D01*
X1979374Y1938299D02*
X1982549D01*
X1963669Y1951799D02*
X1982337D01*
X1976983Y1940099D02*
X1982248D01*
X1978868Y1939199D02*
X1982231D01*
X1980092Y1977899D02*
X1982140D01*
X1976931Y2157899D02*
X1982069D01*
X1976935Y2134499D02*
X1982065D01*
X1911549Y2414399D02*
X1982027D01*
X1968183Y1948199D02*
X1981952D01*
X1954683Y1921199D02*
X1981924D01*
X1912250Y2417999D02*
X1981832D01*
X1975383Y1981499D02*
X1981750D01*
X1971598Y1917599D02*
X1981734D01*
X1977293Y2128199D02*
X1981707D01*
X1977296Y2164199D02*
X1981704D01*
X1966603Y1950899D02*
X1981644D01*
X1968130Y1949099D02*
X1981496D01*
X1980004Y1978799D02*
X1981445D01*
X1967725Y1949999D02*
X1981408D01*
X1912074Y2415299D02*
X1981401D01*
X1912395Y2417099D02*
X1981326D01*
X1954406Y1920299D02*
X1981299D01*
X1978219Y1980599D02*
X1981296D01*
X1969473Y1870799D02*
X1981290D01*
X1971401Y1918499D02*
X1981227D01*
X1979550Y1979699D02*
X1981208D01*
X1912340Y2416199D02*
X1981202D01*
X1977823Y2158799D02*
X1981177D01*
X1977825Y2133599D02*
X1981175D01*
X1970776Y1919399D02*
X1981102D01*
X1938735Y1964399D02*
X1981024D01*
X1978021Y2129099D02*
X1980979D01*
X1978022Y2163299D02*
X1980978D01*
X1979252Y1960799D02*
X1980834D01*
X1979000Y1914899D02*
X1980685D01*
X1978315Y2159699D02*
X1980685D01*
X1978316Y2132699D02*
X1980684D01*
X1978420Y2129999D02*
X1980580D01*
X1978421Y2162399D02*
X1980579D01*
X1978563Y1910399D02*
X1980516D01*
X1978556Y2160599D02*
X1980444D01*
X1978556Y2131799D02*
X1980444D01*
X1978589Y2130899D02*
X1980411D01*
X1978589Y2161499D02*
X1980411D01*
X1971476Y1963499D02*
X1980399D01*
X1978388Y1961699D02*
X1980327D01*
X1977068Y1876199D02*
X1980282D01*
X1972101Y1962599D02*
X1980202D01*
X1970099Y1871699D02*
X1979987D01*
X1978839Y1913999D02*
X1979708D01*
X1901900Y1911299D02*
X1979649D01*
X1972161Y2065199D02*
X1979639D01*
X1977574Y1875299D02*
X1979573D01*
X1976873Y1872599D02*
X1979434D01*
X1978275Y1913099D02*
X1979348D01*
X1901900Y1912199D02*
X1979331D01*
X1977698Y1874399D02*
X1979256D01*
X1977499Y1873499D02*
X1979214D01*
X1973335Y2072399D02*
X1978465D01*
X1952814Y2383799D02*
X1978195D01*
X1973693Y2066099D02*
X1978107D01*
X1974225Y2071499D02*
X1977575D01*
X1953604Y2375699D02*
X1977406D01*
X1974421Y2066999D02*
X1977379D01*
X1959460Y2213699D02*
X1977117D01*
X1971263Y1934699D02*
X1977085D01*
X1974716Y2070599D02*
X1977084D01*
X1974820Y2067899D02*
X1976980D01*
X1970310Y1930199D02*
X1976916D01*
X1974956Y2069699D02*
X1976844D01*
X1971583Y1940099D02*
X1976817D01*
X1974989Y2068799D02*
X1976811D01*
X1975330Y1980599D02*
X1976781D01*
X1954438Y2393699D02*
X1976571D01*
X1910865Y2300099D02*
X1976525D01*
X1971592Y2303699D02*
X1976523D01*
X1961125Y2197499D02*
X1976297D01*
X1912276Y1905899D02*
X1976190D01*
X1954874Y2400899D02*
X1976136D01*
X1971956Y1933799D02*
X1976108D01*
X1971648Y1931099D02*
X1976049D01*
X1960392Y2215499D02*
X1975984D01*
X1909206Y2220899D02*
X1975980D01*
X1908405Y2300999D02*
X1975961D01*
X1971355Y2302799D02*
X1975960D01*
X1910735Y2290199D02*
X1975890D01*
X1958530Y1976099D02*
X1975840D01*
X1970660Y2301899D02*
X1975800D01*
X1946966Y1957199D02*
X1975790D01*
X1909561Y2192999D02*
X1975769D01*
X1972192Y1932899D02*
X1975748D01*
X1955274Y2382899D02*
X1975735D01*
X1972104Y1931999D02*
X1975731D01*
X1911759Y2294699D02*
X1975712D01*
X1955391Y2376599D02*
X1975618D01*
X1972298Y1961699D02*
X1975612D01*
X1974923Y1979699D02*
X1975450D01*
X1911695Y2209199D02*
X1975427D01*
X1955688Y2394599D02*
X1975322D01*
X1910438Y1910399D02*
X1975237D01*
X1901900Y2212799D02*
X1975232D01*
X1961530Y2196599D02*
X1975175D01*
X1958125Y1976999D02*
X1975145D01*
X1973273Y1935599D02*
X1975127D01*
X1955894Y2399999D02*
X1975115D01*
X1960304Y2216399D02*
X1975055D01*
X1910985Y2219999D02*
X1975053D01*
X1966498Y1877099D02*
X1975017D01*
X1973797Y1978799D02*
X1974996D01*
X1960531Y2193899D02*
X1974994D01*
X1973468Y1939199D02*
X1974932D01*
X1901900Y2291099D02*
X1974910D01*
X1957003Y1977899D02*
X1974908D01*
X1956104Y2381999D02*
X1974905D01*
X1912399Y1906799D02*
X1974852D01*
X1910982Y2293799D02*
X1974848D01*
X1912074Y2235299D02*
X1974844D01*
X1956168Y2377499D02*
X1974841D01*
X1947473Y1958099D02*
X1974810D01*
X1910865Y2210099D02*
X1974801D01*
X1937912Y2309999D02*
X1974790D01*
X1961583Y2195699D02*
X1974770D01*
X1972173Y1960799D02*
X1974748D01*
X1901900Y2211899D02*
X1974726D01*
X1961306Y2194799D02*
X1974717D01*
X1956333Y2395499D02*
X1974676D01*
X1959850Y2217299D02*
X1974630D01*
X1911761Y2219099D02*
X1974629D01*
X1908405Y2210999D02*
X1974602D01*
X1956449Y2399099D02*
X1974561D01*
X1901900Y2291999D02*
X1974549D01*
X1911471Y1909499D02*
X1974544D01*
X1909194Y2292899D02*
X1974531D01*
X1909836Y1913099D02*
X1974525D01*
X1971473Y1916699D02*
X1974523D01*
X1973899Y1936499D02*
X1974501D01*
X1958519Y2218199D02*
X1974500D01*
X1947598Y1958999D02*
X1974449D01*
X1956564Y2381099D02*
X1974446D01*
X1971666Y1959899D02*
X1974431D01*
X1973974Y1938299D02*
X1974426D01*
X1956597Y2378399D02*
X1974412D01*
X1912321Y1907699D02*
X1974396D01*
X1956681Y2396399D02*
X1974328D01*
X1912032Y1908599D02*
X1974308D01*
X1974098Y1937399D02*
X1974302D01*
X1956734Y2398199D02*
X1974275D01*
X1956779Y2380199D02*
X1974230D01*
X1956790Y2379299D02*
X1974220D01*
X1956619Y2229899D02*
X1974204D01*
X1956808Y2397299D02*
X1974202D01*
X1960184Y1913999D02*
X1973961D01*
X1970966Y1915799D02*
X1973960D01*
X1911623Y2314499D02*
X1973837D01*
X1961051Y1914899D02*
X1973800D01*
X1911549Y2234399D02*
X1973701D01*
X1937067Y2310899D02*
X1973452D01*
X1909569Y2230799D02*
X1973429D01*
X1970298Y1872599D02*
X1973327D01*
X1912250Y2237999D02*
X1973250D01*
X1965761Y2127299D02*
X1973239D01*
X1965769Y2165099D02*
X1973231D01*
X1910589Y2233499D02*
X1973195D01*
X1910731Y2313599D02*
X1973144D01*
X1966299Y1876199D02*
X1973132D01*
X1901900Y2231699D02*
X1973078D01*
X1901900Y2232599D02*
X1973006D01*
X1901900Y2311799D02*
X1972996D01*
X1901900Y2312699D02*
X1972908D01*
X1911880Y2328899D02*
X1972797D01*
X1970174Y1873499D02*
X1972701D01*
X1967783Y1875299D02*
X1972626D01*
X1954831Y2243399D02*
X1972601D01*
X1969668Y1874399D02*
X1972502D01*
X1911549Y2324399D02*
X1972269D01*
X1911878Y2184899D02*
X1972224D01*
X1959876Y2203799D02*
X1972190D01*
X1911880Y2238899D02*
X1972103D01*
X1960003Y2198399D02*
X1972090D01*
X1966931Y2157899D02*
X1972069D01*
X1966935Y2134499D02*
X1972065D01*
X1966035Y2181299D02*
X1972034D01*
X1901900Y2242499D02*
X1971828D01*
X1920802Y1978799D02*
X1971803D01*
X1967293Y2128199D02*
X1971707D01*
X1967296Y2164199D02*
X1971704D01*
X1912250Y2327999D02*
X1971675D01*
X1911197Y2183999D02*
X1971599D01*
X1911200Y2239799D02*
X1971595D01*
X1901900Y2182199D02*
X1971527D01*
X1912074Y2325299D02*
X1971494D01*
X1901900Y2241599D02*
X1971477D01*
X1963084Y1940099D02*
X1971417D01*
X1909843Y2240699D02*
X1971406D01*
X1909836Y2183099D02*
X1971402D01*
X1912395Y2327099D02*
X1971270D01*
X1910260Y1983299D02*
X1971265D01*
X1912154Y2208299D02*
X1971237D01*
X1912340Y2326199D02*
X1971217D01*
X1967823Y2158799D02*
X1971177D01*
X1967825Y2133599D02*
X1971175D01*
X1960501Y2202899D02*
X1971137D01*
X1968021Y2129099D02*
X1970979D01*
X1968022Y2163299D02*
X1970978D01*
X1911759Y2204699D02*
X1970852D01*
X1911625Y2199299D02*
X1970752D01*
X1968315Y2159699D02*
X1970685D01*
X1968316Y2132699D02*
X1970684D01*
X1921340Y1979699D02*
X1970677D01*
X1968420Y2129999D02*
X1970580D01*
X1968421Y2162399D02*
X1970579D01*
X1912370Y2207399D02*
X1970544D01*
X1920720Y1982399D02*
X1970493D01*
X1968556Y2160599D02*
X1970444D01*
X1968556Y2131799D02*
X1970444D01*
X1960698Y2201999D02*
X1970444D01*
X1968589Y2130899D02*
X1970411D01*
X1968589Y2161499D02*
X1970411D01*
X1912188Y2205599D02*
X1970396D01*
X1912380Y2206499D02*
X1970308D01*
X1960066Y2200199D02*
X1970296D01*
X1921485Y1980599D02*
X1970270D01*
X1921309Y1981499D02*
X1970217D01*
X1960573Y2201099D02*
X1970208D01*
X1962600Y1868099D02*
X1969981D01*
X1939074Y1935599D02*
X1969727D01*
X1962161Y2065199D02*
X1969639D01*
X1911695Y1939199D02*
X1969532D01*
X1939222Y1936499D02*
X1969101D01*
X1962600Y1863599D02*
X1969040D01*
X1938466Y1938299D02*
X1969026D01*
X1939049Y1937399D02*
X1968902D01*
X1945082Y1930199D02*
X1968890D01*
X1962600Y1867199D02*
X1968650D01*
X1911384Y2344199D02*
X1968601D01*
X1938407Y2361299D02*
X1968517D01*
X1963335Y2072399D02*
X1968465D01*
X1962600Y1864499D02*
X1968345D01*
X1941440Y2258699D02*
X1968290D01*
X1937774Y2306399D02*
X1968281D01*
X1962600Y1866299D02*
X1968196D01*
X1909561Y2282999D02*
X1968181D01*
X1944113Y2263199D02*
X1968112D01*
X1962600Y1865399D02*
X1968108D01*
X1963693Y2066099D02*
X1968107D01*
X1938530Y1934699D02*
X1967937D01*
X1939507Y1963499D02*
X1967924D01*
X1947401Y1959899D02*
X1967734D01*
X1941498Y2256899D02*
X1967724D01*
X1965673Y1875299D02*
X1967617D01*
X1964225Y2071499D02*
X1967575D01*
X1945694Y1931099D02*
X1967552D01*
X1910260Y2253299D02*
X1967534D01*
X1964421Y2066999D02*
X1967379D01*
X1901900Y2301899D02*
X1967340D01*
X1940976Y2259599D02*
X1967310D01*
X1939783Y1962599D02*
X1967299D01*
X1942810Y2262299D02*
X1967248D01*
X1945236Y1933799D02*
X1967244D01*
X1912075Y2278499D02*
X1967240D01*
X1946776Y1960799D02*
X1967227D01*
X1953631Y1919399D02*
X1967224D01*
X1911934Y2338799D02*
X1967176D01*
X1939730Y1961699D02*
X1967102D01*
X1941110Y2255999D02*
X1967099D01*
X1945885Y1931999D02*
X1967096D01*
X1964716Y2070599D02*
X1967084D01*
X1910260Y2343299D02*
X1967075D01*
X1961369Y1915799D02*
X1967034D01*
X1911384Y2254199D02*
X1967027D01*
X1945753Y1932899D02*
X1967008D01*
X1964820Y2067899D02*
X1966980D01*
X1936747Y2305499D02*
X1966950D01*
X1939952Y2260499D02*
X1966949D01*
X1901900Y2261399D02*
X1966931D01*
X1940264Y2255099D02*
X1966902D01*
X1901900Y2282099D02*
X1966850D01*
X1964956Y2069699D02*
X1966844D01*
X1912399Y2356799D02*
X1966827D01*
X1964989Y2068799D02*
X1966811D01*
X1901900Y2302799D02*
X1966645D01*
X1938683Y2360399D02*
X1966632D01*
X1960015Y1918499D02*
X1966599D01*
X1911551Y2279399D02*
X1966545D01*
X1961352Y1916699D02*
X1966527D01*
X1911296Y2339699D02*
X1966523D01*
X1911693Y2304599D02*
X1966496D01*
X1901900Y2342399D02*
X1966475D01*
X1910862Y2303699D02*
X1966408D01*
X1960992Y1917599D02*
X1966402D01*
X1901900Y2281199D02*
X1966396D01*
X1910593Y2280299D02*
X1966308D01*
X1910069Y2340599D02*
X1966239D01*
X1901900Y2341499D02*
X1966225D01*
X1937097Y2357699D02*
X1966201D01*
X1938630Y2359499D02*
X1966126D01*
X1938223Y2358599D02*
X1966002D01*
X1962600Y1870799D02*
X1965927D01*
X1901900Y1874399D02*
X1965732D01*
X1911822Y2318999D02*
X1965490D01*
X1910589Y2323499D02*
X1965312D01*
X1962600Y1871699D02*
X1965301D01*
X1901900Y1873499D02*
X1965226D01*
X1901900Y1872599D02*
X1965102D01*
X1964521Y1989599D02*
X1964795D01*
X1963351Y1950899D02*
X1964597D01*
X1956997Y1994099D02*
X1964595D01*
X1911096Y2319899D02*
X1964510D01*
X1901900Y2322599D02*
X1964448D01*
X1909569Y2320799D02*
X1964149D01*
X1901900Y2321699D02*
X1964131D01*
X1940592Y1946399D02*
X1964069D01*
X1901900Y1879799D02*
X1963817D01*
X1910265Y1990499D02*
X1963807D01*
X1939210Y1993199D02*
X1963737D01*
X1912399Y2176799D02*
X1963503D01*
X1962484Y1949999D02*
X1963475D01*
X1901900Y1991399D02*
X1963443D01*
X1901900Y1992299D02*
X1963422D01*
X1940504Y1947299D02*
X1963294D01*
X1955761Y2127299D02*
X1963239D01*
X1955769Y2165099D02*
X1963231D01*
X1938719Y1949099D02*
X1963070D01*
X1940050Y1948199D02*
X1963017D01*
X1901900Y2181299D02*
X1962965D01*
X1912321Y2177699D02*
X1962377D01*
X1910438Y2180399D02*
X1962193D01*
X1901900Y1875299D02*
X1962127D01*
X1956931Y2157899D02*
X1962069D01*
X1956935Y2134499D02*
X1962065D01*
X1912032Y2178599D02*
X1961970D01*
X1901900Y1878899D02*
X1961932D01*
X1911471Y2179499D02*
X1961917D01*
X1957293Y2128199D02*
X1961707D01*
X1957296Y2164199D02*
X1961704D01*
X1901900Y1876199D02*
X1961501D01*
X1901900Y1877999D02*
X1961426D01*
X1901900Y1877099D02*
X1961302D01*
X1957823Y2158799D02*
X1961177D01*
X1957825Y2133599D02*
X1961175D01*
X1910260Y1893299D02*
X1961085D01*
X1958021Y2129099D02*
X1960979D01*
X1958022Y2163299D02*
X1960978D01*
X1911934Y1888799D02*
X1960916D01*
X1912300Y1985999D02*
X1960774D01*
X1958315Y2159699D02*
X1960685D01*
X1958316Y2132699D02*
X1960684D01*
X1911387Y1989599D02*
X1960637D01*
X1958420Y2129999D02*
X1960580D01*
X1958421Y2162399D02*
X1960579D01*
X1947903Y1944599D02*
X1960485D01*
X1958556Y2160599D02*
X1960444D01*
X1958556Y2131799D02*
X1960444D01*
X1958589Y2130899D02*
X1960411D01*
X1958589Y2161499D02*
X1960411D01*
X1948431Y1940099D02*
X1960316D01*
X1912400Y1986899D02*
X1960167D01*
X1911984Y1988699D02*
X1960115D01*
X1901900Y1892399D02*
X1960108D01*
X1911296Y1889699D02*
X1960049D01*
X1912300Y1987799D02*
X1959980D01*
X1911623Y1954499D02*
X1959885D01*
X1901900Y1891499D02*
X1959748D01*
X1910069Y1890599D02*
X1959731D01*
X1931704Y1949999D02*
X1959716D01*
X1952161Y2065199D02*
X1959639D01*
X1949025Y1943699D02*
X1959508D01*
X1949206Y1940999D02*
X1959449D01*
X1949430Y1942799D02*
X1959148D01*
X1949483Y1941899D02*
X1959131D01*
X1910731Y1953599D02*
X1958908D01*
X1931250Y1950899D02*
X1958849D01*
X1901900Y1952699D02*
X1958548D01*
X1929919Y1951799D02*
X1958531D01*
X1953335Y2072399D02*
X1958465D01*
X1953693Y2066099D02*
X1958107D01*
X1912116Y2198399D02*
X1957997D01*
X1912075Y1918499D02*
X1957585D01*
X1954225Y2071499D02*
X1957575D01*
X1911093Y2193899D02*
X1957469D01*
X1953166Y1913999D02*
X1957416D01*
X1954421Y2066999D02*
X1957379D01*
X1954716Y2070599D02*
X1957084D01*
X1912189Y2218199D02*
X1957081D01*
X1954820Y2067899D02*
X1956980D01*
X1912356Y2197499D02*
X1956875D01*
X1954956Y2069699D02*
X1956844D01*
X1954989Y2068799D02*
X1956811D01*
X1911821Y2194799D02*
X1956694D01*
X1952976Y1917599D02*
X1956608D01*
X1953673Y1914899D02*
X1956549D01*
X1912389Y2196599D02*
X1956470D01*
X1912220Y2195699D02*
X1956417D01*
X1910982Y2203799D02*
X1956324D01*
X1953601Y1916699D02*
X1956248D01*
X1953798Y1915799D02*
X1956231D01*
X1910862Y2213699D02*
X1956140D01*
X1910735Y2200199D02*
X1956134D01*
X1912381Y2217299D02*
X1955750D01*
X1909194Y2202899D02*
X1955699D01*
X1901900Y2201099D02*
X1955627D01*
X1901900Y2201999D02*
X1955502D01*
X1911693Y2214599D02*
X1955445D01*
X1912369Y2216399D02*
X1955296D01*
X1912153Y2215499D02*
X1955208D01*
X1911096Y2229899D02*
X1955181D01*
X1940190Y1994099D02*
X1955003D01*
X1912277Y1977899D02*
X1954997D01*
X1944943Y1973399D02*
X1954469D01*
X1912032Y1998599D02*
X1954465D01*
X1912115Y2225399D02*
X1954240D01*
X1940551Y1994999D02*
X1953877D01*
X1942917Y1976999D02*
X1953875D01*
X1911822Y2228999D02*
X1953850D01*
X1944986Y1974299D02*
X1953694D01*
X1939388Y1997699D02*
X1953693D01*
X1912356Y2226299D02*
X1953545D01*
X1940569Y1995899D02*
X1953470D01*
X1944216Y1976099D02*
X1953470D01*
X1944767Y1975199D02*
X1953417D01*
X1940252Y1996799D02*
X1953417D01*
X1912221Y2228099D02*
X1953396D01*
X1912389Y2227199D02*
X1953308D01*
X1912381Y2127299D02*
X1953239D01*
X1911983Y2165099D02*
X1953231D01*
X1910982Y2383799D02*
X1952605D01*
X1912277Y2247899D02*
X1952297D01*
X1912277Y2157899D02*
X1952069D01*
X1911623Y2134499D02*
X1952065D01*
X1912220Y2375699D02*
X1951815D01*
X1910433Y2243399D02*
X1951769D01*
X1912189Y2128199D02*
X1951707D01*
X1911384Y2164199D02*
X1951704D01*
X1911934Y2158799D02*
X1951177D01*
X1912399Y2246999D02*
X1951175D01*
X1910731Y2133599D02*
X1951175D01*
X1911093Y1923899D02*
X1951097D01*
X1911469Y2244299D02*
X1950994D01*
X1910862Y2393699D02*
X1950981D01*
X1911761Y2129099D02*
X1950979D01*
X1910260Y2163299D02*
X1950978D01*
X1912321Y2246099D02*
X1950770D01*
X1912030Y2245199D02*
X1950717D01*
X1911296Y2159699D02*
X1950685D01*
X1901900Y2132699D02*
X1950684D01*
X1910985Y2129999D02*
X1950580D01*
X1901900Y2162399D02*
X1950579D01*
X1911551Y1919399D02*
X1950569D01*
X1909206Y2400899D02*
X1950545D01*
X1910069Y2160599D02*
X1950444D01*
X1901900Y2131799D02*
X1950444D01*
X1909206Y2130899D02*
X1950411D01*
X1901900Y2161499D02*
X1950411D01*
X1909194Y2382899D02*
X1950145D01*
X1912389Y2376599D02*
X1950028D01*
X1909561Y1922999D02*
X1949975D01*
X1910593Y1920299D02*
X1949794D01*
X1911693Y2394599D02*
X1949731D01*
X1912030Y2065199D02*
X1949639D01*
X1901900Y1922099D02*
X1949570D01*
X1910985Y2399999D02*
X1949525D01*
X1901900Y1921199D02*
X1949517D01*
X1912340Y1917599D02*
X1949424D01*
X1901900Y2381999D02*
X1949314D01*
X1912356Y2377499D02*
X1949250D01*
X1911197Y1913999D02*
X1949234D01*
X1912153Y2395499D02*
X1949086D01*
X1911761Y2399099D02*
X1948970D01*
X1901900Y2381099D02*
X1948855D01*
X1912116Y2378399D02*
X1948821D01*
X1912395Y1916699D02*
X1948799D01*
X1912369Y2396399D02*
X1948738D01*
X1911878Y1914899D02*
X1948727D01*
X1912189Y2398199D02*
X1948685D01*
X1910735Y2380199D02*
X1948640D01*
X1911625Y2379299D02*
X1948629D01*
X1912381Y2397299D02*
X1948611D01*
X1912249Y1915799D02*
X1948602D01*
X1901900Y2072399D02*
X1948465D01*
X1912321Y2066099D02*
X1948107D01*
X1901900Y2071499D02*
X1947575D01*
X1912399Y2066999D02*
X1947379D01*
X1910069Y2070599D02*
X1947084D01*
X1912277Y2067899D02*
X1946980D01*
X1911296Y2069699D02*
X1946844D01*
X1911934Y2068799D02*
X1946811D01*
X1939660Y1944599D02*
X1945897D01*
X1910865Y1940099D02*
X1945369D01*
X1910862Y1943699D02*
X1944775D01*
X1908405Y1940999D02*
X1944594D01*
X1901900Y1942799D02*
X1944370D01*
X1901900Y1941899D02*
X1944317D01*
X1939323Y1960799D02*
X1943224D01*
X1912389Y1957199D02*
X1943034D01*
X1938197Y1959899D02*
X1942599D01*
X1912221Y1958099D02*
X1942527D01*
X1910438Y2450399D02*
X1942483D01*
X1911822Y1958999D02*
X1942402D01*
X1912074Y1965299D02*
X1942390D01*
X1921188Y1969799D02*
X1942212D01*
X1910735Y1930199D02*
X1941490D01*
X1911933Y2444999D02*
X1941485D01*
X1919979Y1966199D02*
X1941410D01*
X1921478Y1968899D02*
X1941348D01*
X1910982Y1933799D02*
X1941337D01*
X1911471Y2449499D02*
X1941184D01*
X1921047Y1967099D02*
X1941049D01*
X1921438Y1967999D02*
X1941031D01*
X1901900Y1931099D02*
X1940878D01*
X1909194Y1932899D02*
X1940819D01*
X1912276Y2445899D02*
X1940774D01*
X1901900Y1931999D02*
X1940687D01*
X1912399Y1976999D02*
X1940683D01*
X1912032Y2448599D02*
X1940633D01*
X1901900Y2262299D02*
X1940590D01*
X1912399Y2446799D02*
X1940457D01*
X1912321Y2447699D02*
X1940414D01*
X1901900Y1971599D02*
X1939685D01*
X1911551Y2009399D02*
X1939624D01*
X1912321Y2267699D02*
X1939582D01*
X1912249Y2005799D02*
X1939434D01*
X1912321Y1976099D02*
X1939384D01*
X1910064Y2263199D02*
X1939287D01*
X1912075Y2008499D02*
X1938999D01*
X1901900Y1972499D02*
X1938974D01*
X1912395Y2006699D02*
X1938927D01*
X1912399Y2266799D02*
X1938873D01*
X1912030Y1975199D02*
X1938833D01*
X1912340Y2007599D02*
X1938802D01*
X1911294Y2264099D02*
X1938734D01*
X1910433Y1973399D02*
X1938657D01*
X1911469Y1974299D02*
X1938614D01*
X1912276Y2265899D02*
X1938556D01*
X1911933Y2264999D02*
X1938514D01*
X1931792Y1949099D02*
X1937281D01*
X1910265Y2260499D02*
X1936848D01*
X1910064Y1993199D02*
X1936790D01*
X1912321Y1997699D02*
X1936612D01*
X1911983Y2255099D02*
X1936536D01*
X1911693Y1944599D02*
X1936340D01*
X1911096Y1959899D02*
X1936203D01*
X1931555Y1948199D02*
X1935950D01*
X1911387Y2259599D02*
X1935824D01*
X1911294Y1994099D02*
X1935810D01*
X1912399Y1996799D02*
X1935748D01*
X1912300Y2255999D02*
X1935690D01*
X1911549Y1964399D02*
X1935665D01*
X1912153Y1945499D02*
X1935645D01*
X1930860Y1947299D02*
X1935496D01*
X1911933Y1994999D02*
X1935449D01*
X1912276Y1995899D02*
X1935431D01*
X1912369Y1946399D02*
X1935408D01*
X1911984Y2258699D02*
X1935360D01*
X1912400Y2256899D02*
X1935302D01*
X1912300Y2257799D02*
X1935202D01*
X1912321Y2357699D02*
X1935103D01*
X1909569Y1960799D02*
X1935077D01*
X1910589Y1963499D02*
X1934893D01*
X1912154Y1938299D02*
X1934779D01*
X1911759Y1934699D02*
X1934715D01*
X1901900Y1961699D02*
X1934670D01*
X1901900Y1962599D02*
X1934617D01*
X1901900Y2362199D02*
X1934565D01*
X1912370Y1937399D02*
X1934196D01*
X1912188Y1935599D02*
X1934171D01*
X1912380Y1936499D02*
X1934023D01*
X1912032Y2358599D02*
X1933977D01*
X1901900Y2361299D02*
X1933793D01*
X1912153Y2305499D02*
X1933653D01*
X1911471Y2359499D02*
X1933570D01*
X1910438Y2360399D02*
X1933517D01*
X1909206Y2310899D02*
X1933333D01*
X1912369Y2306399D02*
X1932626D01*
X1910985Y2309999D02*
X1932488D01*
X1912381Y2307299D02*
X1932161D01*
X1911761Y2309099D02*
X1932101D01*
X1912189Y2308199D02*
X1932002D01*
X1901900Y1951799D02*
X1928481D01*
X1912381Y1947299D02*
X1927540D01*
X1909206Y1950899D02*
X1927150D01*
X1912189Y1948199D02*
X1926845D01*
X1910985Y1949999D02*
X1926696D01*
X1911761Y1949099D02*
X1926608D01*
X1911821Y1924799D02*
X1924690D01*
X1911625Y1929299D02*
X1924512D01*
X1912220Y1925699D02*
X1923710D01*
X1912116Y1928399D02*
X1923648D01*
X1912389Y1926599D02*
X1923349D01*
X1912356Y1927499D02*
X1923331D01*
X1908405Y2030999D02*
X1920917D01*
X1912380Y2026499D02*
X1919227D01*
X1910865Y2030099D02*
X1919032D01*
X1912370Y2027399D02*
X1918601D01*
X1911695Y2029199D02*
X1918526D01*
X1912154Y2028299D02*
X1918402D01*
X1912340Y1966199D02*
X1917821D01*
X1909843Y1970699D02*
X1917415D01*
X1901900Y1982399D02*
X1917051D01*
X1911934Y1978799D02*
X1916970D01*
X1912395Y1967099D02*
X1916753D01*
X1911200Y1969799D02*
X1916612D01*
X1901900Y1981499D02*
X1916462D01*
X1911296Y1979699D02*
X1916431D01*
X1912250Y1967999D02*
X1916362D01*
X1911880Y1968899D02*
X1916322D01*
X1910069Y1980599D02*
X1916286D01*
X1901900Y2390999D02*
X1908195D01*
X1901900Y2300999D02*
X1908195D01*
X1901900Y2210999D02*
X1908195D01*
X1901900Y2120999D02*
X1908195D01*
X1901900Y2030999D02*
X1908195D01*
X1901900Y1940999D02*
X1908195D01*
X1901900Y2382899D02*
X1907406D01*
X1901900Y2292899D02*
X1907406D01*
X1901900Y2202899D02*
X1907406D01*
X1901900Y2112899D02*
X1907406D01*
X1901900Y2022899D02*
X1907406D01*
X1901900Y1932899D02*
X1907406D01*
X1901900Y2400899D02*
X1907394D01*
X1901900Y2310899D02*
X1907394D01*
X1901900Y2220899D02*
X1907394D01*
X1901900Y2130899D02*
X1907394D01*
X1901900Y2040899D02*
X1907394D01*
X1901900Y1950899D02*
X1907394D01*
X1901900Y2372999D02*
X1907039D01*
X1901900Y2282999D02*
X1907039D01*
X1901900Y2192999D02*
X1907039D01*
X1901900Y2102999D02*
X1907039D01*
X1901900Y2012999D02*
X1907039D01*
X1901900Y1922999D02*
X1907039D01*
X1901900Y2410799D02*
X1907031D01*
X1901900Y2320799D02*
X1907031D01*
X1901900Y2230799D02*
X1907031D01*
X1901900Y2140799D02*
X1907031D01*
X1901900Y2050799D02*
X1907031D01*
X1901900Y1960799D02*
X1907031D01*
X1901900Y2453099D02*
X1906764D01*
X1901900Y2363099D02*
X1906764D01*
X1901900Y2273099D02*
X1906764D01*
X1901900Y2183099D02*
X1906764D01*
X1901900Y2093099D02*
X1906764D01*
X1901900Y2003099D02*
X1906764D01*
X1901900Y1913099D02*
X1906764D01*
X1901900Y2420699D02*
X1906757D01*
X1901900Y2330699D02*
X1906757D01*
X1901900Y2240699D02*
X1906757D01*
X1901900Y2150699D02*
X1906757D01*
X1901900Y2060699D02*
X1906757D01*
X1901900Y1970699D02*
X1906757D01*
X1901900Y2443199D02*
X1906536D01*
X1901900Y2353199D02*
X1906536D01*
X1901900Y2263199D02*
X1906536D01*
X1901900Y2173199D02*
X1906536D01*
X1901900Y2083199D02*
X1906536D01*
X1901900Y1993199D02*
X1906536D01*
X1901900Y1903199D02*
X1906536D01*
X1901900Y2430599D02*
X1906531D01*
X1901900Y2340599D02*
X1906531D01*
X1901900Y2250599D02*
X1906531D01*
X1901900Y2160599D02*
X1906531D01*
X1901900Y2070599D02*
X1906531D01*
X1901900Y1980599D02*
X1906531D01*
X1901900Y1890599D02*
X1906531D01*
X1901900Y2433299D02*
X1906340D01*
X1901900Y2343299D02*
X1906340D01*
X1901900Y2253299D02*
X1906340D01*
X1901900Y2163299D02*
X1906340D01*
X1901900Y2073299D02*
X1906340D01*
X1901900Y1983299D02*
X1906340D01*
X1901900Y1893299D02*
X1906340D01*
X1901900Y2440499D02*
X1906335D01*
X1901900Y2350499D02*
X1906335D01*
X1901900Y2260499D02*
X1906335D01*
X1901900Y2170499D02*
X1906335D01*
X1901900Y2080499D02*
X1906335D01*
X1901900Y1990499D02*
X1906335D01*
X1901900Y1900499D02*
X1906335D01*
X1901900Y2423399D02*
X1906167D01*
X1901900Y2333399D02*
X1906167D01*
X1901900Y2243399D02*
X1906167D01*
X1901900Y2153399D02*
X1906167D01*
X1901900Y2063399D02*
X1906167D01*
X1901900Y1973399D02*
X1906167D01*
X1901900Y1883399D02*
X1906167D01*
X1901900Y2450399D02*
X1906162D01*
X1901900Y2360399D02*
X1906162D01*
X1901900Y2270399D02*
X1906162D01*
X1901900Y2180399D02*
X1906162D01*
X1901900Y2090399D02*
X1906162D01*
X1901900Y2000399D02*
X1906162D01*
X1901900Y1910399D02*
X1906162D01*
X1901900Y2413499D02*
X1906011D01*
X1901900Y2323499D02*
X1906011D01*
X1901900Y2233499D02*
X1906011D01*
X1901900Y2143499D02*
X1906011D01*
X1901900Y2053499D02*
X1906011D01*
X1901900Y1963499D02*
X1906011D01*
X1901900Y2460299D02*
X1906007D01*
X1901900Y2370299D02*
X1906007D01*
X1901900Y2280299D02*
X1906007D01*
X1901900Y2190299D02*
X1906007D01*
X1901900Y2100299D02*
X1906007D01*
X1901900Y2010299D02*
X1906007D01*
X1901900Y1920299D02*
X1906007D01*
X1901900Y2403599D02*
X1905869D01*
X1901900Y2313599D02*
X1905869D01*
X1901900Y2223599D02*
X1905869D01*
X1901900Y2133599D02*
X1905869D01*
X1901900Y2043599D02*
X1905869D01*
X1901900Y1953599D02*
X1905869D01*
X1901900Y2380199D02*
X1905865D01*
X1901900Y2290199D02*
X1905865D01*
X1901900Y2200199D02*
X1905865D01*
X1901900Y2110199D02*
X1905865D01*
X1901900Y2020199D02*
X1905865D01*
X1901900Y1930199D02*
X1905865D01*
X1901900Y2393699D02*
X1905738D01*
X1901900Y2303699D02*
X1905738D01*
X1901900Y2213699D02*
X1905738D01*
X1901900Y2123699D02*
X1905738D01*
X1901900Y2033699D02*
X1905738D01*
X1901900Y1943699D02*
X1905738D01*
X1901900Y2390099D02*
X1905735D01*
X1901900Y2300099D02*
X1905735D01*
X1901900Y2210099D02*
X1905735D01*
X1901900Y2120099D02*
X1905735D01*
X1901900Y2030099D02*
X1905735D01*
X1901900Y1940099D02*
X1905735D01*
X1901900Y2383799D02*
X1905618D01*
X1901900Y2293799D02*
X1905618D01*
X1901900Y2203799D02*
X1905618D01*
X1901900Y2113799D02*
X1905618D01*
X1901900Y2023799D02*
X1905618D01*
X1901900Y1933799D02*
X1905618D01*
X1901900Y2399999D02*
X1905615D01*
X1901900Y2309999D02*
X1905615D01*
X1901900Y2219999D02*
X1905615D01*
X1901900Y2129999D02*
X1905615D01*
X1901900Y2039999D02*
X1905615D01*
X1901900Y1949999D02*
X1905615D01*
X1901900Y2373899D02*
X1905507D01*
X1901900Y2283899D02*
X1905507D01*
X1901900Y2193899D02*
X1905507D01*
X1901900Y2103899D02*
X1905507D01*
X1901900Y2013899D02*
X1905507D01*
X1901900Y1923899D02*
X1905507D01*
X1901900Y2409899D02*
X1905504D01*
X1901900Y2319899D02*
X1905504D01*
X1901900Y2229899D02*
X1905504D01*
X1901900Y2139899D02*
X1905504D01*
X1901900Y2049899D02*
X1905504D01*
X1901900Y1959899D02*
X1905504D01*
X1901900Y2453999D02*
X1905403D01*
X1901900Y2363999D02*
X1905403D01*
X1901900Y2273999D02*
X1905403D01*
X1901900Y2183999D02*
X1905403D01*
X1901900Y2093999D02*
X1905403D01*
X1901900Y2003999D02*
X1905403D01*
X1901900Y1913999D02*
X1905403D01*
X1901900Y2419799D02*
X1905400D01*
X1901900Y2329799D02*
X1905400D01*
X1901900Y2239799D02*
X1905400D01*
X1901900Y2149799D02*
X1905400D01*
X1901900Y2059799D02*
X1905400D01*
X1901900Y1969799D02*
X1905400D01*
X1901900Y2444099D02*
X1905306D01*
X1901900Y2354099D02*
X1905306D01*
X1901900Y2264099D02*
X1905306D01*
X1901900Y2174099D02*
X1905306D01*
X1901900Y2084099D02*
X1905306D01*
X1901900Y1994099D02*
X1905306D01*
X1901900Y1904099D02*
X1905306D01*
X1901900Y2429699D02*
X1905304D01*
X1901900Y2339699D02*
X1905304D01*
X1901900Y2249699D02*
X1905304D01*
X1901900Y2159699D02*
X1905304D01*
X1901900Y2069699D02*
X1905304D01*
X1901900Y1979699D02*
X1905304D01*
X1901900Y1889699D02*
X1905304D01*
X1901900Y2434199D02*
X1905216D01*
X1901900Y2344199D02*
X1905216D01*
X1901900Y2254199D02*
X1905216D01*
X1901900Y2164199D02*
X1905216D01*
X1901900Y2074199D02*
X1905216D01*
X1901900Y1984199D02*
X1905216D01*
X1901900Y1894199D02*
X1905216D01*
X1901900Y2439599D02*
X1905213D01*
X1901900Y2349599D02*
X1905213D01*
X1901900Y2259599D02*
X1905213D01*
X1901900Y2169599D02*
X1905213D01*
X1901900Y2079599D02*
X1905213D01*
X1901900Y1989599D02*
X1905213D01*
X1901900Y1899599D02*
X1905213D01*
X1901900Y2424299D02*
X1905131D01*
X1901900Y2334299D02*
X1905131D01*
X1901900Y2244299D02*
X1905131D01*
X1901900Y2154299D02*
X1905131D01*
X1901900Y2064299D02*
X1905131D01*
X1901900Y1974299D02*
X1905131D01*
X1901900Y1884299D02*
X1905131D01*
X1901900Y2449499D02*
X1905129D01*
X1901900Y2359499D02*
X1905129D01*
X1901900Y2269499D02*
X1905129D01*
X1901900Y2179499D02*
X1905129D01*
X1901900Y2089499D02*
X1905129D01*
X1901900Y1999499D02*
X1905129D01*
X1901900Y1909499D02*
X1905129D01*
X1901900Y2414399D02*
X1905051D01*
X1901900Y2324399D02*
X1905051D01*
X1901900Y2234399D02*
X1905051D01*
X1901900Y2144399D02*
X1905051D01*
X1901900Y2054399D02*
X1905051D01*
X1901900Y1964399D02*
X1905051D01*
X1901900Y2459399D02*
X1905049D01*
X1901900Y2369399D02*
X1905049D01*
X1901900Y2279399D02*
X1905049D01*
X1901900Y2189399D02*
X1905049D01*
X1901900Y2099399D02*
X1905049D01*
X1901900Y2009399D02*
X1905049D01*
X1901900Y1919399D02*
X1905049D01*
X1901900Y2404499D02*
X1904977D01*
X1901900Y2314499D02*
X1904977D01*
X1901900Y2224499D02*
X1904977D01*
X1901900Y2134499D02*
X1904977D01*
X1901900Y2044499D02*
X1904977D01*
X1901900Y1954499D02*
X1904977D01*
X1901900Y2379299D02*
X1904975D01*
X1901900Y2289299D02*
X1904975D01*
X1901900Y2199299D02*
X1904975D01*
X1901900Y2109299D02*
X1904975D01*
X1901900Y2019299D02*
X1904975D01*
X1901900Y1929299D02*
X1904975D01*
X1901900Y2394599D02*
X1904907D01*
X1901900Y2304599D02*
X1904907D01*
X1901900Y2214599D02*
X1904907D01*
X1901900Y2124599D02*
X1904907D01*
X1901900Y2034599D02*
X1904907D01*
X1901900Y1944599D02*
X1904907D01*
X1901900Y2389199D02*
X1904905D01*
X1901900Y2299199D02*
X1904905D01*
X1901900Y2209199D02*
X1904905D01*
X1901900Y2119199D02*
X1904905D01*
X1901900Y2029199D02*
X1904905D01*
X1901900Y1939199D02*
X1904905D01*
X1901900Y2384699D02*
X1904841D01*
X1901900Y2294699D02*
X1904841D01*
X1901900Y2204699D02*
X1904841D01*
X1901900Y2114699D02*
X1904841D01*
X1901900Y2024699D02*
X1904841D01*
X1901900Y1934699D02*
X1904841D01*
X1901900Y2399099D02*
X1904839D01*
X1901900Y2309099D02*
X1904839D01*
X1901900Y2219099D02*
X1904839D01*
X1901900Y2129099D02*
X1904839D01*
X1901900Y2039099D02*
X1904839D01*
X1901900Y1949099D02*
X1904839D01*
X1901900Y2374799D02*
X1904779D01*
X1901900Y2284799D02*
X1904779D01*
X1901900Y2194799D02*
X1904779D01*
X1901900Y2104799D02*
X1904779D01*
X1901900Y2014799D02*
X1904779D01*
X1901900Y1924799D02*
X1904779D01*
X1901900Y2408999D02*
X1904778D01*
X1901900Y2318999D02*
X1904778D01*
X1901900Y2228999D02*
X1904778D01*
X1901900Y2138999D02*
X1904778D01*
X1901900Y2048999D02*
X1904778D01*
X1901900Y1958999D02*
X1904778D01*
X1901900Y2454899D02*
X1904722D01*
X1901900Y2364899D02*
X1904722D01*
X1901900Y2274899D02*
X1904722D01*
X1901900Y2184899D02*
X1904722D01*
X1901900Y2094899D02*
X1904722D01*
X1901900Y2004899D02*
X1904722D01*
X1901900Y1914899D02*
X1904722D01*
X1901900Y2418899D02*
X1904720D01*
X1901900Y2328899D02*
X1904720D01*
X1901900Y2238899D02*
X1904720D01*
X1901900Y2148899D02*
X1904720D01*
X1901900Y2058899D02*
X1904720D01*
X1901900Y1968899D02*
X1904720D01*
X1901900Y2444999D02*
X1904667D01*
X1901900Y2354999D02*
X1904667D01*
X1901900Y2264999D02*
X1904667D01*
X1901900Y2174999D02*
X1904667D01*
X1901900Y2084999D02*
X1904667D01*
X1901900Y1994999D02*
X1904667D01*
X1901900Y1904999D02*
X1904667D01*
X1901900Y2428799D02*
X1904666D01*
X1901900Y2338799D02*
X1904666D01*
X1901900Y2248799D02*
X1904666D01*
X1901900Y2158799D02*
X1904666D01*
X1901900Y2068799D02*
X1904666D01*
X1901900Y1978799D02*
X1904666D01*
X1901900Y1888799D02*
X1904666D01*
X1901900Y2435099D02*
X1904617D01*
X1901900Y2345099D02*
X1904617D01*
X1901900Y2255099D02*
X1904617D01*
X1901900Y2165099D02*
X1904617D01*
X1901900Y2075099D02*
X1904617D01*
X1901900Y1985099D02*
X1904617D01*
X1901900Y1895099D02*
X1904617D01*
X1901900Y2438699D02*
X1904616D01*
X1901900Y2348699D02*
X1904616D01*
X1901900Y2258699D02*
X1904616D01*
X1901900Y2168699D02*
X1904616D01*
X1901900Y2078699D02*
X1904616D01*
X1901900Y1988699D02*
X1904616D01*
X1901900Y1898699D02*
X1904616D01*
X1901900Y2425199D02*
X1904570D01*
X1901900Y2335199D02*
X1904570D01*
X1901900Y2245199D02*
X1904570D01*
X1901900Y2155199D02*
X1904570D01*
X1901900Y2065199D02*
X1904570D01*
X1901900Y1975199D02*
X1904570D01*
X1901900Y1885199D02*
X1904570D01*
X1901900Y2448599D02*
X1904568D01*
X1901900Y2358599D02*
X1904568D01*
X1901900Y2268599D02*
X1904568D01*
X1901900Y2178599D02*
X1904568D01*
X1901900Y2088599D02*
X1904568D01*
X1901900Y1998599D02*
X1904568D01*
X1901900Y1908599D02*
X1904568D01*
X1901900Y2415299D02*
X1904526D01*
X1901900Y2325299D02*
X1904526D01*
X1901900Y2235299D02*
X1904526D01*
X1901900Y2145299D02*
X1904526D01*
X1901900Y2055299D02*
X1904526D01*
X1901900Y1965299D02*
X1904526D01*
X1901900Y2458499D02*
X1904525D01*
X1901900Y2368499D02*
X1904525D01*
X1901900Y2278499D02*
X1904525D01*
X1901900Y2188499D02*
X1904525D01*
X1901900Y2098499D02*
X1904525D01*
X1901900Y2008499D02*
X1904525D01*
X1901900Y1918499D02*
X1904525D01*
X1901900Y2405399D02*
X1904485D01*
X1901900Y2315399D02*
X1904485D01*
X1901900Y2225399D02*
X1904485D01*
X1901900Y2135399D02*
X1904485D01*
X1901900Y2045399D02*
X1904485D01*
X1901900Y1955399D02*
X1904485D01*
X1901900Y2378399D02*
X1904484D01*
X1901900Y2288399D02*
X1904484D01*
X1901900Y2198399D02*
X1904484D01*
X1901900Y2108399D02*
X1904484D01*
X1901900Y2018399D02*
X1904484D01*
X1901900Y1928399D02*
X1904484D01*
X1901900Y2395499D02*
X1904447D01*
X1901900Y2305499D02*
X1904447D01*
X1901900Y2215499D02*
X1904447D01*
X1901900Y2125499D02*
X1904447D01*
X1901900Y2035499D02*
X1904447D01*
X1901900Y1945499D02*
X1904447D01*
X1901900Y2388299D02*
X1904446D01*
X1901900Y2298299D02*
X1904446D01*
X1901900Y2208299D02*
X1904446D01*
X1901900Y2118299D02*
X1904446D01*
X1901900Y2028299D02*
X1904446D01*
X1901900Y1938299D02*
X1904446D01*
X1901900Y2385599D02*
X1904412D01*
X1901900Y2295599D02*
X1904412D01*
X1901900Y2205599D02*
X1904412D01*
X1901900Y2115599D02*
X1904412D01*
X1901900Y2025599D02*
X1904412D01*
X1901900Y1935599D02*
X1904412D01*
X1901900Y2398199D02*
X1904411D01*
X1901900Y2308199D02*
X1904411D01*
X1901900Y2218199D02*
X1904411D01*
X1901900Y2128199D02*
X1904411D01*
X1901900Y2038199D02*
X1904411D01*
X1901900Y1948199D02*
X1904411D01*
X1901900Y2375699D02*
X1904380D01*
X1901900Y2285699D02*
X1904380D01*
X1901900Y2195699D02*
X1904380D01*
X1901900Y2105699D02*
X1904380D01*
X1901900Y2015699D02*
X1904380D01*
X1901900Y1925699D02*
X1904380D01*
X1901900Y2408099D02*
X1904379D01*
X1901900Y2318099D02*
X1904379D01*
X1901900Y2228099D02*
X1904379D01*
X1901900Y2138099D02*
X1904379D01*
X1901900Y2048099D02*
X1904379D01*
X1901900Y1958099D02*
X1904379D01*
X1901900Y2455799D02*
X1904351D01*
X1901900Y2365799D02*
X1904351D01*
X1901900Y2275799D02*
X1904351D01*
X1901900Y2185799D02*
X1904351D01*
X1901900Y2095799D02*
X1904351D01*
X1901900Y2005799D02*
X1904351D01*
X1901900Y1915799D02*
X1904351D01*
X1901900Y2417999D02*
X1904350D01*
X1901900Y2327999D02*
X1904350D01*
X1901900Y2237999D02*
X1904350D01*
X1901900Y2147999D02*
X1904350D01*
X1901900Y2057999D02*
X1904350D01*
X1901900Y1967999D02*
X1904350D01*
X1901900Y2445899D02*
X1904324D01*
X1901900Y2355899D02*
X1904324D01*
X1901900Y2265899D02*
X1904324D01*
X1901900Y2175899D02*
X1904324D01*
X1901900Y2085899D02*
X1904324D01*
X1901900Y1995899D02*
X1904324D01*
X1901900Y1905899D02*
X1904324D01*
X1901900Y2427899D02*
X1904323D01*
X1901900Y2337899D02*
X1904323D01*
X1901900Y2247899D02*
X1904323D01*
X1901900Y2157899D02*
X1904323D01*
X1901900Y2067899D02*
X1904323D01*
X1901900Y1977899D02*
X1904323D01*
X1901900Y1887899D02*
X1904323D01*
X1901900Y2435999D02*
X1904300D01*
X1901900Y2345999D02*
X1904300D01*
X1901900Y2255999D02*
X1904300D01*
X1901900Y2165999D02*
X1904300D01*
X1901900Y2075999D02*
X1904300D01*
X1901900Y1985999D02*
X1904300D01*
X1901900Y1895999D02*
X1904300D01*
X1901900Y2437799D02*
X1904300D01*
X1901900Y2347799D02*
X1904300D01*
X1901900Y2257799D02*
X1904300D01*
X1901900Y2167799D02*
X1904300D01*
X1901900Y2077799D02*
X1904300D01*
X1901900Y1987799D02*
X1904300D01*
X1901900Y1897799D02*
X1904300D01*
X1901900Y2426099D02*
X1904279D01*
X1901900Y2336099D02*
X1904279D01*
X1901900Y2246099D02*
X1904279D01*
X1901900Y2156099D02*
X1904279D01*
X1901900Y2066099D02*
X1904279D01*
X1901900Y1976099D02*
X1904279D01*
X1901900Y1886099D02*
X1904279D01*
X1901900Y2447699D02*
X1904279D01*
X1901900Y2357699D02*
X1904279D01*
X1901900Y2267699D02*
X1904279D01*
X1901900Y2177699D02*
X1904279D01*
X1901900Y2087699D02*
X1904279D01*
X1901900Y1997699D02*
X1904279D01*
X1901900Y1907699D02*
X1904279D01*
X1901900Y2416199D02*
X1904260D01*
X1901900Y2326199D02*
X1904260D01*
X1901900Y2236199D02*
X1904260D01*
X1901900Y2146199D02*
X1904260D01*
X1901900Y2056199D02*
X1904260D01*
X1901900Y1966199D02*
X1904260D01*
X1901900Y2457599D02*
X1904260D01*
X1901900Y2367599D02*
X1904260D01*
X1901900Y2277599D02*
X1904260D01*
X1901900Y2187599D02*
X1904260D01*
X1901900Y2097599D02*
X1904260D01*
X1901900Y2007599D02*
X1904260D01*
X1901900Y1917599D02*
X1904260D01*
X1901900Y2406299D02*
X1904244D01*
X1901900Y2316299D02*
X1904244D01*
X1901900Y2226299D02*
X1904244D01*
X1901900Y2136299D02*
X1904244D01*
X1901900Y2046299D02*
X1904244D01*
X1901900Y1956299D02*
X1904244D01*
X1901900Y2377499D02*
X1904244D01*
X1901900Y2287499D02*
X1904244D01*
X1901900Y2197499D02*
X1904244D01*
X1901900Y2107499D02*
X1904244D01*
X1901900Y2017499D02*
X1904244D01*
X1901900Y1927499D02*
X1904244D01*
X1901900Y2396399D02*
X1904231D01*
X1901900Y2306399D02*
X1904231D01*
X1901900Y2216399D02*
X1904231D01*
X1901900Y2126399D02*
X1904231D01*
X1901900Y2036399D02*
X1904231D01*
X1901900Y1946399D02*
X1904231D01*
X1901900Y2387399D02*
X1904230D01*
X1901900Y2297399D02*
X1904230D01*
X1901900Y2207399D02*
X1904230D01*
X1901900Y2117399D02*
X1904230D01*
X1901900Y2027399D02*
X1904230D01*
X1901900Y1937399D02*
X1904230D01*
X1901900Y2386499D02*
X1904220D01*
X1901900Y2296499D02*
X1904220D01*
X1901900Y2206499D02*
X1904220D01*
X1901900Y2116499D02*
X1904220D01*
X1901900Y2026499D02*
X1904220D01*
X1901900Y1936499D02*
X1904220D01*
X1901900Y2397299D02*
X1904219D01*
X1901900Y2307299D02*
X1904219D01*
X1901900Y2217299D02*
X1904219D01*
X1901900Y2127299D02*
X1904219D01*
X1901900Y2037299D02*
X1904219D01*
X1901900Y1947299D02*
X1904219D01*
X1901900Y2376599D02*
X1904211D01*
X1901900Y2286599D02*
X1904211D01*
X1901900Y2196599D02*
X1904211D01*
X1901900Y2106599D02*
X1904211D01*
X1901900Y2016599D02*
X1904211D01*
X1901900Y1926599D02*
X1904211D01*
X1901900Y2407199D02*
X1904211D01*
X1901900Y2317199D02*
X1904211D01*
X1901900Y2227199D02*
X1904211D01*
X1901900Y2137199D02*
X1904211D01*
X1901900Y2047199D02*
X1904211D01*
X1901900Y1957199D02*
X1904211D01*
X1901900Y2456699D02*
X1904205D01*
X1901900Y2366699D02*
X1904205D01*
X1901900Y2276699D02*
X1904205D01*
X1901900Y2186699D02*
X1904205D01*
X1901900Y2096699D02*
X1904205D01*
X1901900Y2006699D02*
X1904205D01*
X1901900Y1916699D02*
X1904205D01*
X1901900Y2417099D02*
X1904205D01*
X1901900Y2327099D02*
X1904205D01*
X1901900Y2237099D02*
X1904205D01*
X1901900Y2147099D02*
X1904205D01*
X1901900Y2057099D02*
X1904205D01*
X1901900Y1967099D02*
X1904205D01*
X1901900Y2446799D02*
X1904201D01*
X1901900Y2356799D02*
X1904201D01*
X1901900Y2266799D02*
X1904201D01*
X1901900Y2176799D02*
X1904201D01*
X1901900Y2086799D02*
X1904201D01*
X1901900Y1996799D02*
X1904201D01*
X1901900Y1906799D02*
X1904201D01*
X1901900Y2426999D02*
X1904201D01*
X1901900Y2336999D02*
X1904201D01*
X1901900Y2246999D02*
X1904201D01*
X1901900Y2156999D02*
X1904201D01*
X1901900Y2066999D02*
X1904201D01*
X1901900Y1976999D02*
X1904201D01*
X1901900Y1886999D02*
X1904201D01*
X1901900Y2436899D02*
X1904200D01*
X1901900Y2346899D02*
X1904200D01*
X1901900Y2256899D02*
X1904200D01*
X1901900Y2166899D02*
X1904200D01*
X1901900Y2076899D02*
X1904200D01*
X1901900Y1986899D02*
X1904200D01*
X1901900Y1896899D02*
X1904200D01*
X2071515Y1884299D02*
X2072285D01*
G54D28*
X1988100Y1871400D03*
X1983700Y1919300D03*
X2030900Y1931400D03*
X1977500Y1978100D03*
X1943600Y1967600D03*
X1988800Y2014700D03*
X1990700Y1982400D03*
X2033900Y1997600D03*
X2053800Y2178300D03*
X2053600Y2171400D03*
X2023000Y2155500D03*
X1957800Y2215700D03*
X2011400Y2197400D03*
X1989800Y2196400D03*
X2055800Y2216700D03*
X2054700Y2206200D03*
X1953300Y2245500D03*
X1955900Y2227400D03*
X2057400Y2235500D03*
G54D29*
X1987399Y2164099D02*
X1986621Y2163321D01*
X1981601Y2164099D02*
X1982379Y2163321D01*
X1981601Y2158301D02*
X1982379Y2159079D01*
X1987399Y2158301D02*
X1986621Y2159079D01*
X2014299Y2126901D02*
X2013521Y2127679D01*
X2014299Y2132699D02*
X2013521Y2131921D01*
X2008501Y2132699D02*
X2009279Y2131921D01*
X2008501Y2126901D02*
X2009279Y2127679D01*
X1911199Y2439799D02*
X1910421Y2439021D01*
X1905401Y2439799D02*
X1906179Y2439021D01*
X1905401Y2434001D02*
X1906179Y2434779D01*
X1911199Y2434001D02*
X1910421Y2434779D01*
X1957399Y2164099D02*
X1956621Y2163321D01*
X1951601Y2164099D02*
X1952379Y2163321D01*
X1951601Y2158301D02*
X1952379Y2159079D01*
X1957399Y2158301D02*
X1956621Y2159079D01*
X1967399Y2164099D02*
X1966621Y2163321D01*
X1961601Y2164099D02*
X1962379Y2163321D01*
X1961601Y2158301D02*
X1962379Y2159079D01*
X1967399Y2158301D02*
X1966621Y2159079D01*
X1977399Y2164099D02*
X1976621Y2163321D01*
X1971601Y2164099D02*
X1972379Y2163321D01*
X1971601Y2158301D02*
X1972379Y2159079D01*
X1977399Y2158301D02*
X1976621Y2159079D01*
X2072137Y1883963D02*
X2072915Y1883185D01*
X2072137Y1879437D02*
X2072915Y1880215D01*
X2076663Y1879437D02*
X2075885Y1880215D01*
X2076663Y1883963D02*
X2075885Y1883185D01*
X2053363Y2274863D02*
X2052585Y2274085D01*
X2048837Y2274863D02*
X2049615Y2274085D01*
X2048837Y2270337D02*
X2049615Y2271115D01*
X2053363Y2270337D02*
X2052585Y2271115D01*
X2057638Y2218538D02*
X2056861Y2217761D01*
X2053962Y2218538D02*
X2054739Y2217761D01*
X2053962Y2214862D02*
X2054739Y2215639D01*
X2057638Y2214862D02*
X2056861Y2215639D01*
X1992538Y1984238D02*
X1991761Y1983461D01*
X1988862Y1984238D02*
X1989639Y1983461D01*
X1988862Y1980562D02*
X1989639Y1981339D01*
X1992538Y1980562D02*
X1991761Y1981339D01*
X1985538Y1921138D02*
X1984761Y1920361D01*
X1981862Y1921138D02*
X1982639Y1920361D01*
X1981862Y1917462D02*
X1982639Y1918239D01*
X1985538Y1917462D02*
X1984761Y1918239D01*
X1945438Y1969438D02*
X1944661Y1968661D01*
X1941762Y1969438D02*
X1942539Y1968661D01*
X1941762Y1965762D02*
X1942539Y1966539D01*
X1945438Y1965762D02*
X1944661Y1966539D01*
X1979338Y1979938D02*
X1978561Y1979161D01*
X1975662Y1979938D02*
X1976439Y1979161D01*
X1975662Y1976262D02*
X1976439Y1977039D01*
X1979338Y1976262D02*
X1978561Y1977039D01*
X2055638Y2180138D02*
X2054861Y2179361D01*
X2051962Y2180138D02*
X2052739Y2179361D01*
X2051962Y2176462D02*
X2052739Y2177239D01*
X2055638Y2176462D02*
X2054861Y2177239D01*
X2055438Y2173238D02*
X2054661Y2172461D01*
X2051762Y2173238D02*
X2052539Y2172461D01*
X2051762Y2169562D02*
X2052539Y2170339D01*
X2055438Y2169562D02*
X2054661Y2170339D01*
X2024838Y2157338D02*
X2024061Y2156561D01*
X2021162Y2157338D02*
X2021939Y2156561D01*
X2021162Y2153662D02*
X2021939Y2154439D01*
X2024838Y2153662D02*
X2024061Y2154439D01*
X2059238Y2237338D02*
X2058461Y2236561D01*
X2055562Y2237338D02*
X2056339Y2236561D01*
X2055562Y2233662D02*
X2056339Y2234439D01*
X2059238Y2233662D02*
X2058461Y2234439D01*
X2052862Y2208038D02*
X2053639Y2207261D01*
X2052862Y2204362D02*
X2053639Y2205139D01*
X2056538Y2204362D02*
X2055761Y2205139D01*
X2013238Y2199238D02*
X2012461Y2198461D01*
X2009562Y2199238D02*
X2010339Y2198461D01*
X2009562Y2195562D02*
X2010339Y2196339D01*
X2013238Y2195562D02*
X2012461Y2196339D01*
X1991638Y2198238D02*
X1990861Y2197461D01*
X1987962Y2198238D02*
X1988739Y2197461D01*
X1987962Y2194562D02*
X1988739Y2195339D01*
X1991638Y2194562D02*
X1990861Y2195339D01*
X1959638Y2217538D02*
X1958861Y2216761D01*
X1955962Y2217538D02*
X1956739Y2216761D01*
X1955962Y2213862D02*
X1956739Y2214639D01*
X1959638Y2213862D02*
X1958861Y2214639D01*
X1957738Y2229238D02*
X1956961Y2228461D01*
X1954062Y2229238D02*
X1954839Y2228461D01*
X1954062Y2225562D02*
X1954839Y2226339D01*
X1957738Y2225562D02*
X1956961Y2226339D01*
X1955138Y2247338D02*
X1954361Y2246561D01*
X1951462Y2247338D02*
X1952239Y2246561D01*
X1951462Y2243662D02*
X1952239Y2244439D01*
X1955138Y2243662D02*
X1954361Y2244439D01*
X1943963Y2267563D02*
X1943185Y2266785D01*
X1939437Y2267563D02*
X1940215Y2266785D01*
X1939437Y2263037D02*
X1940215Y2263815D01*
X1943963Y2263037D02*
X1943185Y2263815D01*
X1993863Y2266363D02*
X1993085Y2265585D01*
X1989337Y2266363D02*
X1990115Y2265585D01*
X1989337Y2261837D02*
X1990115Y2262615D01*
X1993863Y2261837D02*
X1993085Y2262615D01*
X2010263Y2264563D02*
X2009485Y2263785D01*
X2005737Y2264563D02*
X2006515Y2263785D01*
X2005737Y2260037D02*
X2006515Y2260815D01*
X2010263Y2260037D02*
X2009485Y2260815D01*
X1989938Y1873238D02*
X1989161Y1872461D01*
X1986262Y1873238D02*
X1987039Y1872461D01*
X1986262Y1869562D02*
X1987039Y1870339D01*
X1989938Y1869562D02*
X1989161Y1870339D01*
X1971663Y2343363D02*
X1970885Y2342585D01*
X1967137Y2343363D02*
X1967915Y2342585D01*
X1967137Y2338837D02*
X1967915Y2339615D01*
X1971663Y2338837D02*
X1970885Y2339615D01*
X1990638Y2016538D02*
X1989861Y2015761D01*
X1986962Y2016538D02*
X1987739Y2015761D01*
X1986962Y2012862D02*
X1987739Y2013639D01*
X1990638Y2012862D02*
X1989861Y2013639D01*
X1999663Y2394863D02*
X1998885Y2394085D01*
X1995137Y2394863D02*
X1995915Y2394085D01*
X1995137Y2390337D02*
X1995915Y2391115D01*
X1999663Y2390337D02*
X1998885Y2391115D01*
X2007263Y2333263D02*
X2006485Y2332485D01*
X2002737Y2333263D02*
X2003515Y2332485D01*
X2002737Y2328737D02*
X2003515Y2329515D01*
X2007263Y2328737D02*
X2006485Y2329515D01*
X2032738Y1933238D02*
X2031961Y1932461D01*
X2029062Y1933238D02*
X2029839Y1932461D01*
X2029062Y1929562D02*
X2029839Y1930339D01*
X2032738Y1929562D02*
X2031961Y1930339D01*
X2035738Y1999438D02*
X2034961Y1998661D01*
X2032062Y1999438D02*
X2032839Y1998661D01*
X2032062Y1995762D02*
X2032839Y1996539D01*
X2035738Y1995762D02*
X2034961Y1996539D01*
X2080463Y2388163D02*
X2079685Y2387385D01*
X2075937Y2388163D02*
X2076715Y2387385D01*
X2075937Y2383637D02*
X2076715Y2384415D01*
X2080463Y2383637D02*
X2079685Y2384415D01*
G54D54*
X2074400Y1881700D03*
X1941700Y2265300D03*
X2008000Y2262300D03*
X1991600Y2264100D03*
X2051100Y2272600D03*
X2005000Y2331000D03*
X1969400Y2341100D03*
X1997400Y2392600D03*
X2078200Y2385900D03*
G74*
X0Y0D02*
M02*
