*
*
G04 PADS VX.2.1 Build Number: 6554490 generated Gerber (RS-274-X) file*
G04 PC Version=2.1*
*
%IN "uMuddMarkVLayout_3.pcb"*%
*
%MOIN*%
*
%FSLAX35Y35*%
*
*
*
*
G04 PC Standard Apertures*
*
*
G04 Thermal Relief Aperture macro.*
%AMTER*
1,1,$1,0,0*
1,0,$1-$2,0,0*
21,0,$3,$4,0,0,45*
21,0,$3,$4,0,0,135*
%
*
*
G04 Annular Aperture macro.*
%AMANN*
1,1,$1,0,0*
1,0,$2,0,0*
%
*
*
G04 Odd Aperture macro.*
%AMODD*
1,1,$1,0,0*
1,0,$1-0.005,0,0*
%
*
*
G04 PC Custom Aperture Macros*
*
*
*
*
*
*
G04 PC Aperture Table*
*
%ADD010C,0.001*%
%ADD027C,0.01*%
*
*
*
*
G04 PC Circuitry*
G04 Layer Name uMuddMarkVLayout_3.pcb - circuitry*
%LPD*%
*
*
G04 PC Custom Flashes*
G04 Layer Name uMuddMarkVLayout_3.pcb - flashes*
%LPD*%
*
*
G04 PC Circuitry*
G04 Layer Name uMuddMarkVLayout_3.pcb - circuitry*
%LPD*%
*
G54D10*
G54D27*
G01X2071700Y1963200D02*
X2079700D01*
X2075700Y1959200D02*
Y1967200D01*
X2071700Y1937609D02*
X2079700D01*
X2075700Y1933609D02*
Y1941609D01*
X2053983Y1937609D02*
X2061983D01*
X2057983Y1933609D02*
Y1941609D01*
X2053983Y1963200D02*
X2061983D01*
X2057983Y1959200D02*
Y1967200D01*
X2053800Y1986700D02*
X2061800D01*
X2057800Y1982700D02*
Y1990700D01*
X2053800Y2012291D02*
X2061800D01*
X2057800Y2008291D02*
Y2016291D01*
X2071517Y2012291D02*
X2079517D01*
X2075517Y2008291D02*
Y2016291D01*
X2071517Y1986700D02*
X2079517D01*
X2075517Y1982700D02*
Y1990700D01*
X2064800Y1880900D02*
X2072800Y1888900D01*
X2064800D02*
X2072800Y1880900D01*
X2059800D02*
X2067800Y1888900D01*
X2059800D02*
X2067800Y1880900D01*
X2064800Y1885900D02*
X2072800Y1893900D01*
X2064800D02*
X2072800Y1885900D01*
X2059800D02*
X2067800Y1893900D01*
X2059800D02*
X2067800Y1885900D01*
X2064800Y1890900D02*
X2072800Y1898900D01*
X2064800D02*
X2072800Y1890900D01*
X2059800D02*
X2067800Y1898900D01*
X2059800D02*
X2067800Y1890900D01*
X2064800Y1895900D02*
X2072800Y1903900D01*
X2064800D02*
X2072800Y1895900D01*
X2059800D02*
X2067800Y1903900D01*
X2059800D02*
X2067800Y1895900D01*
X2064800Y1900900D02*
X2072800Y1908900D01*
X2064800D02*
X2072800Y1900900D01*
X2059800D02*
X2067800Y1908900D01*
X2059800D02*
X2067800Y1900900D01*
X1945100Y2177100D02*
X1953100D01*
X1949100Y2173100D02*
Y2181100D01*
X1945100Y2167100D02*
X1953100D01*
X1949100Y2163100D02*
Y2171100D01*
X1945100Y2157100D02*
X1953100D01*
X1949100Y2153100D02*
Y2161100D01*
X1945100Y2147100D02*
X1953100D01*
X1949100Y2143100D02*
Y2151100D01*
X1945100Y2137100D02*
X1953100D01*
X1949100Y2133100D02*
Y2141100D01*
X2047400Y2125500D02*
X2055400D01*
X2051400Y2121500D02*
Y2129500D01*
X2047400Y2115500D02*
X2055400D01*
X2051400Y2111500D02*
Y2119500D01*
X2047400Y2105500D02*
X2055400D01*
X2051400Y2101500D02*
Y2109500D01*
X2047400Y2095500D02*
X2055400D01*
X2051400Y2091500D02*
Y2099500D01*
X2047400Y2085500D02*
X2055400D01*
X2051400Y2081500D02*
Y2089500D01*
X2047400Y2075500D02*
X2055400D01*
X2051400Y2071500D02*
Y2079500D01*
X2047400Y2065500D02*
X2055400D01*
X2051400Y2061500D02*
Y2069500D01*
X2047400Y2055500D02*
X2055400D01*
X2051400Y2051500D02*
Y2059500D01*
X2047400Y2045500D02*
X2055400D01*
X2051400Y2041500D02*
Y2049500D01*
X2047400Y2035500D02*
X2055400D01*
X2051400Y2031500D02*
Y2039500D01*
X2077400Y2035500D02*
X2085400D01*
X2081400Y2031500D02*
Y2039500D01*
X2077400Y2045500D02*
X2085400D01*
X2081400Y2041500D02*
Y2049500D01*
X2077400Y2055500D02*
X2085400D01*
X2081400Y2051500D02*
Y2059500D01*
X2077400Y2065500D02*
X2085400D01*
X2081400Y2061500D02*
Y2069500D01*
X2077400Y2075500D02*
X2085400D01*
X2081400Y2071500D02*
Y2079500D01*
X2077400Y2085500D02*
X2085400D01*
X2081400Y2081500D02*
Y2089500D01*
X2077400Y2095500D02*
X2085400D01*
X2081400Y2091500D02*
Y2099500D01*
X2077400Y2105500D02*
X2085400D01*
X2081400Y2101500D02*
Y2109500D01*
X2077400Y2115500D02*
X2085400D01*
X2081400Y2111500D02*
Y2119500D01*
X2077400Y2125500D02*
X2085400D01*
X2081400Y2121500D02*
Y2129500D01*
X1974300Y2379700D02*
X1982300D01*
X1978300Y2375700D02*
Y2383700D01*
X1948709Y2379700D02*
X1956709D01*
X1952709Y2375700D02*
Y2383700D01*
X1948709Y2397417D02*
X1956709D01*
X1952709Y2393417D02*
Y2401417D01*
X1974300Y2397417D02*
X1982300D01*
X1978300Y2393417D02*
Y2401417D01*
X1987300Y2123300D02*
X1995300D01*
X1991300Y2119300D02*
Y2127300D01*
X1987300Y2113300D02*
X1995300D01*
X1991300Y2109300D02*
Y2117300D01*
X1987300Y2103300D02*
X1995300D01*
X1991300Y2099300D02*
Y2107300D01*
X1987300Y2093300D02*
X1995300D01*
X1991300Y2089300D02*
Y2097300D01*
X1987300Y2083300D02*
X1995300D01*
X1991300Y2079300D02*
Y2087300D01*
X1987300Y2073300D02*
X1995300D01*
X1991300Y2069300D02*
Y2077300D01*
X1987300Y2063300D02*
X1995300D01*
X1991300Y2059300D02*
Y2067300D01*
X1987300Y2053300D02*
X1995300D01*
X1991300Y2049300D02*
Y2057300D01*
X1987300Y2043300D02*
X1995300D01*
X1991300Y2039300D02*
Y2047300D01*
X1987300Y2033300D02*
X1995300D01*
X1991300Y2029300D02*
Y2037300D01*
X1973000Y2123400D02*
X1981000D01*
X1977000Y2119400D02*
Y2127400D01*
X1973000Y2113400D02*
X1981000D01*
X1977000Y2109400D02*
Y2117400D01*
X1973000Y2103400D02*
X1981000D01*
X1977000Y2099400D02*
Y2107400D01*
X1973000Y2093400D02*
X1981000D01*
X1977000Y2089400D02*
Y2097400D01*
X1973000Y2083400D02*
X1981000D01*
X1977000Y2079400D02*
Y2087400D01*
X1973000Y2073400D02*
X1981000D01*
X1977000Y2069400D02*
Y2077400D01*
X1973000Y2063400D02*
X1981000D01*
X1977000Y2059400D02*
Y2067400D01*
X1973000Y2053400D02*
X1981000D01*
X1977000Y2049400D02*
Y2057400D01*
X1973000Y2043400D02*
X1981000D01*
X1977000Y2039400D02*
Y2047400D01*
X1973000Y2033400D02*
X1981000D01*
X1977000Y2029400D02*
Y2037400D01*
X2061800Y2295900D02*
X2069800D01*
Y2303900*
X2061800*
Y2295900*
X2065800Y2299900D02*
Y2303900D01*
X2051800Y2295900D02*
X2059800D01*
Y2303900*
X2051800*
Y2295900*
X2055800Y2299900D02*
Y2303900D01*
X2061800Y2305900D02*
X2069800D01*
Y2313900*
X2061800*
Y2305900*
X2065800Y2309900D02*
Y2313900D01*
X2051800Y2305900D02*
X2059800D01*
Y2313900*
X2051800*
Y2305900*
X2055800Y2309900D02*
Y2313900D01*
X2061800Y2315900D02*
X2069800D01*
Y2323900*
X2061800*
Y2315900*
X2065800Y2319900D02*
Y2323900D01*
X2051800Y2315900D02*
X2059800D01*
Y2323900*
X2051800*
Y2315900*
X2055800Y2319900D02*
Y2323900D01*
X2061800Y2325900D02*
X2069800D01*
Y2333900*
X2061800*
Y2325900*
X2065800Y2329900D02*
Y2333900D01*
X2051800Y2325900D02*
X2059800D01*
Y2333900*
X2051800*
Y2325900*
X2055800Y2329900D02*
Y2333900D01*
X2061800Y2335900D02*
X2069800D01*
Y2343900*
X2061800*
Y2335900*
X2065800Y2339900D02*
Y2343900D01*
X2051800Y2335900D02*
X2059800D01*
Y2343900*
X2051800*
Y2335900*
X2055800Y2339900D02*
Y2343900D01*
X2023400Y1912400D02*
X2031400D01*
Y1920400*
X2023400*
Y1912400*
X2027400Y1916400D02*
Y1920400D01*
X2023400Y1962400D02*
X2031400D01*
Y1970400*
X2023400*
Y1962400*
X2027400Y1966400D02*
Y1970400D01*
X2006400Y2226500D02*
X2010400Y2230500D01*
X2006400Y2234500*
X2002400Y2230500*
X2006400Y2226500*
Y2230500D02*
Y2234500D01*
X1905400Y2455100D02*
X1913400D01*
X1909400Y2451100D02*
Y2459100D01*
X1905400Y2445100D02*
X1913400D01*
X1909400Y2441100D02*
Y2449100D01*
X1905400Y2435100D02*
X1913400D01*
X1909400Y2431100D02*
Y2439100D01*
X1905400Y2425100D02*
X1913400D01*
X1909400Y2421100D02*
Y2429100D01*
X1905400Y2415100D02*
X1913400D01*
X1909400Y2411100D02*
Y2419100D01*
X1905400Y2405100D02*
X1913400D01*
X1909400Y2401100D02*
Y2409100D01*
X1905400Y2395100D02*
X1913400D01*
X1909400Y2391100D02*
Y2399100D01*
X1905400Y2385100D02*
X1913400D01*
X1909400Y2381100D02*
Y2389100D01*
X1905400Y2375100D02*
X1913400D01*
X1909400Y2371100D02*
Y2379100D01*
X1905400Y2365100D02*
X1913400D01*
X1909400Y2361100D02*
Y2369100D01*
X1905400Y2355100D02*
X1913400D01*
X1909400Y2351100D02*
Y2359100D01*
X1905400Y2345100D02*
X1913400D01*
X1909400Y2341100D02*
Y2349100D01*
X1905400Y2335100D02*
X1913400D01*
X1909400Y2331100D02*
Y2339100D01*
X1905400Y2325100D02*
X1913400D01*
X1909400Y2321100D02*
Y2329100D01*
X1905400Y2315100D02*
X1913400D01*
X1909400Y2311100D02*
Y2319100D01*
X1905400Y2305100D02*
X1913400D01*
X1909400Y2301100D02*
Y2309100D01*
X1905400Y2295100D02*
X1913400D01*
X1909400Y2291100D02*
Y2299100D01*
X1905400Y2285100D02*
X1913400D01*
X1909400Y2281100D02*
Y2289100D01*
X1905400Y2275100D02*
X1913400D01*
X1909400Y2271100D02*
Y2279100D01*
X1905400Y2265100D02*
X1913400D01*
X1909400Y2261100D02*
Y2269100D01*
X1905400Y2255100D02*
X1913400D01*
X1909400Y2251100D02*
Y2259100D01*
X1905400Y2245100D02*
X1913400D01*
X1909400Y2241100D02*
Y2249100D01*
X1905400Y2235100D02*
X1913400D01*
X1909400Y2231100D02*
Y2239100D01*
X1905400Y2225100D02*
X1913400D01*
X1909400Y2221100D02*
Y2229100D01*
X1905400Y2215100D02*
X1913400D01*
X1909400Y2211100D02*
Y2219100D01*
X1905400Y2205100D02*
X1913400D01*
X1909400Y2201100D02*
Y2209100D01*
X1905400Y2195100D02*
X1913400D01*
X1909400Y2191100D02*
Y2199100D01*
X1905400Y2185100D02*
X1913400D01*
X1909400Y2181100D02*
Y2189100D01*
X1905400Y2175100D02*
X1913400D01*
X1909400Y2171100D02*
Y2179100D01*
X1905400Y2165100D02*
X1913400D01*
X1909400Y2161100D02*
Y2169100D01*
X1905400Y2155100D02*
X1913400D01*
X1909400Y2151100D02*
Y2159100D01*
X1905400Y2145100D02*
X1913400D01*
X1909400Y2141100D02*
Y2149100D01*
X1905400Y2135100D02*
X1913400D01*
X1909400Y2131100D02*
Y2139100D01*
X1905400Y2125100D02*
X1913400D01*
X1909400Y2121100D02*
Y2129100D01*
X1905400Y2115100D02*
X1913400D01*
X1909400Y2111100D02*
Y2119100D01*
X1905400Y2105100D02*
X1913400D01*
X1909400Y2101100D02*
Y2109100D01*
X1905400Y2095100D02*
X1913400D01*
X1909400Y2091100D02*
Y2099100D01*
X1905400Y2085100D02*
X1913400D01*
X1909400Y2081100D02*
Y2089100D01*
X1905400Y2075100D02*
X1913400D01*
X1909400Y2071100D02*
Y2079100D01*
X1905400Y2065100D02*
X1913400D01*
X1909400Y2061100D02*
Y2069100D01*
X1905400Y2055100D02*
X1913400D01*
X1909400Y2051100D02*
Y2059100D01*
X1905400Y2045100D02*
X1913400D01*
X1909400Y2041100D02*
Y2049100D01*
X1905400Y2035100D02*
X1913400D01*
X1909400Y2031100D02*
Y2039100D01*
X1905400Y2025100D02*
X1913400D01*
X1909400Y2021100D02*
Y2029100D01*
X1905400Y2015100D02*
X1913400D01*
X1909400Y2011100D02*
Y2019100D01*
X1905400Y2005100D02*
X1913400D01*
X1909400Y2001100D02*
Y2009100D01*
X1905400Y1995100D02*
X1913400D01*
X1909400Y1991100D02*
Y1999100D01*
X1905400Y1985100D02*
X1913400D01*
X1909400Y1981100D02*
Y1989100D01*
X1905400Y1975100D02*
X1913400D01*
X1909400Y1971100D02*
Y1979100D01*
X1905400Y1965100D02*
X1913400D01*
X1909400Y1961100D02*
Y1969100D01*
X1905400Y1955100D02*
X1913400D01*
X1909400Y1951100D02*
Y1959100D01*
X1905400Y1945100D02*
X1913400D01*
X1909400Y1941100D02*
Y1949100D01*
X1905400Y1935100D02*
X1913400D01*
X1909400Y1931100D02*
Y1939100D01*
X1905400Y1925100D02*
X1913400D01*
X1909400Y1921100D02*
Y1929100D01*
X1905400Y1915100D02*
X1913400D01*
X1909400Y1911100D02*
Y1919100D01*
X1905400Y1905100D02*
X1913400D01*
X1909400Y1901100D02*
Y1909100D01*
X1905400Y1895100D02*
X1913400D01*
X1909400Y1891100D02*
Y1899100D01*
X1905400Y1885100D02*
X1913400D01*
X1909400Y1881100D02*
Y1889100D01*
X2043600Y2140700D02*
X2051600D01*
X2047600Y2136700D02*
Y2144700D01*
X2053600Y2140700D02*
X2061600D01*
X2057600Y2136700D02*
Y2144700D01*
X2063600Y2140700D02*
X2071600D01*
X2067600Y2136700D02*
Y2144700D01*
X2073600Y2140700D02*
X2081600D01*
X2077600Y2136700D02*
Y2144700D01*
X2073600Y2170700D02*
X2081600D01*
X2077600Y2166700D02*
Y2174700D01*
X2063600Y2170700D02*
X2071600D01*
X2067600Y2166700D02*
Y2174700D01*
X2053600Y2170700D02*
X2061600D01*
X2057600Y2166700D02*
Y2174700D01*
X2043600Y2170700D02*
X2051600D01*
X2047600Y2166700D02*
Y2174700D01*
X1972500Y1850500D02*
X1980500D01*
X1972500Y1858500*
X1980500*
X1972500Y1850500*
X1966500D02*
X1974500D01*
X1966500Y1858500*
X1974500*
X1966500Y1850500*
X1962500D02*
X1970500D01*
X1962500Y1858500*
X1970500*
X1962500Y1850500*
X1982000Y1852374D02*
X1990000D01*
X1982000Y1860374*
X1990000*
X1982000Y1852374*
X1986000Y1850500D02*
X1994000D01*
X1986000Y1858500*
X1994000*
X1986000Y1850500*
X1978500D02*
X1986500D01*
X1978500Y1858500*
X1986500*
X1978500Y1850500*
X1998000D02*
X2006000D01*
X1998000Y1858500*
X2006000*
X1998000Y1850500*
X2013500D02*
X2021500D01*
X2013500Y1858500*
X2021500*
X2013500Y1850500*
X2033500D02*
X2041500D01*
X2033500Y1858500*
X2041500*
X2033500Y1850500*
X1949500Y1872000D02*
X1957500D01*
X1949500Y1880000*
X1957500*
X1949500Y1872000*
X1956500Y1869500D02*
X1964500D01*
X1956500Y1877500*
X1964500*
X1956500Y1869500*
X2011000Y1865400D02*
X2019000D01*
X2011000Y1873400*
X2019000*
X2011000Y1865400*
X2020000Y1853000D02*
X2028000D01*
X2020000Y1861000*
X2028000*
X2020000Y1853000*
X2017500Y1861000D02*
X2025500D01*
X2017500Y1869000*
X2025500*
X2017500Y1861000*
X2084500Y1868500D02*
X2092500D01*
X2084500Y1876500*
X2092500*
X2084500Y1868500*
X2081500Y1871000D02*
X2089500D01*
X2081500Y1879000*
X2089500*
X2081500Y1871000*
X1967500Y1888500D02*
X1975500D01*
X1967500Y1896500*
X1975500*
X1967500Y1888500*
X1960000Y1874000D02*
X1968000D01*
X1960000Y1882000*
X1968000*
X1960000Y1874000*
X1955000Y1877500D02*
X1963000D01*
X1955000Y1885500*
X1963000*
X1955000Y1877500*
X1976000Y1881000D02*
X1984000D01*
X1976000Y1889000*
X1984000*
X1976000Y1881000*
X2004400Y1875100D02*
X2012400D01*
X2004400Y1883100*
X2012400*
X2004400Y1875100*
X2014000Y1887000D02*
X2022000D01*
X2014000Y1895000*
X2022000*
X2014000Y1887000*
X2031500Y1891500D02*
X2039500D01*
X2031500Y1899500*
X2039500*
X2031500Y1891500*
X2039500Y1883000D02*
X2047500D01*
X2039500Y1891000*
X2047500*
X2039500Y1883000*
X1912500Y1910000D02*
X1920500D01*
X1912500Y1918000*
X1920500*
X1912500Y1910000*
X1988000Y1898000D02*
X1996000D01*
X1988000Y1906000*
X1996000*
X1988000Y1898000*
X1983500Y1908000D02*
X1991500D01*
X1983500Y1916000*
X1991500*
X1983500Y1908000*
X2025500Y1896500D02*
X2033500D01*
X2025500Y1904500*
X2033500*
X2025500Y1896500*
X1917500Y1915000D02*
X1925500D01*
X1917500Y1923000*
X1925500*
X1917500Y1915000*
X1941524Y1930434D02*
X1949524D01*
X1941524Y1938434*
X1949524*
X1941524Y1930434*
X1969400Y1927000D02*
X1977400D01*
X1969400Y1935000*
X1977400*
X1969400Y1927000*
X1966500Y1929196D02*
X1974500D01*
X1966500Y1937196*
X1974500*
X1966500Y1929196*
X1963731Y1926229D02*
X1971731D01*
X1963731Y1934229*
X1971731*
X1963731Y1926229*
X1969000Y1916000D02*
X1977000D01*
X1969000Y1924000*
X1977000*
X1969000Y1916000*
X1955000Y1916500D02*
X1963000D01*
X1955000Y1924500*
X1963000*
X1955000Y1916500*
X1972000Y1930000D02*
X1980000D01*
X1972000Y1938000*
X1980000*
X1972000Y1930000*
X1987500Y1931000D02*
X1995500D01*
X1987500Y1939000*
X1995500*
X1987500Y1931000*
X1979348Y1927397D02*
X1987348D01*
X1979348Y1935397*
X1987348*
X1979348Y1927397*
X1979928Y1914392D02*
X1987928D01*
X1979928Y1922392*
X1987928*
X1979928Y1914392*
X1988437Y1914495D02*
X1996437D01*
X1988437Y1922495*
X1996437*
X1988437Y1914495*
X2011500Y1925500D02*
X2019500D01*
X2011500Y1933500*
X2019500*
X2011500Y1925500*
X2005500Y1928000D02*
X2013500D01*
X2005500Y1936000*
X2013500*
X2005500Y1928000*
X2029489Y1932142D02*
X2037489D01*
X2029489Y1940142*
X2037489*
X2029489Y1932142*
X2019489D02*
X2027489D01*
X2019489Y1940142*
X2027489*
X2019489Y1932142*
X2039489D02*
X2047489D01*
X2039489Y1940142*
X2047489*
X2039489Y1932142*
X2060500Y1925500D02*
X2068500D01*
X2060500Y1933500*
X2068500*
X2060500Y1925500*
X1940741Y1936045D02*
X1948741D01*
X1940741Y1944045*
X1948741*
X1940741Y1936045*
X1939612Y1942390D02*
X1947612D01*
X1939612Y1950390*
X1947612*
X1939612Y1942390*
X1944500Y1948723D02*
X1952500D01*
X1944500Y1956723*
X1952500*
X1944500Y1948723*
X1956612Y1936922D02*
X1964612D01*
X1956612Y1944922*
X1964612*
X1956612Y1936922*
X1956441Y1941607D02*
X1964441D01*
X1956441Y1949607*
X1964441*
X1956441Y1941607*
X1965100Y1935600D02*
X1973100D01*
X1965100Y1943600*
X1973100*
X1965100Y1935600*
X1954500Y1950500D02*
X1962500D01*
X1954500Y1958500*
X1962500*
X1954500Y1950500*
X1999508Y1948492D02*
X2007508D01*
X1999508Y1956492*
X2007508*
X1999508Y1948492*
X2007000Y1944500D02*
X2015000D01*
X2007000Y1952500*
X2015000*
X2007000Y1944500*
X2010000Y1942000D02*
X2018000D01*
X2010000Y1950000*
X2018000*
X2010000Y1942000*
X2002607Y1937400D02*
X2010607D01*
X2002607Y1945400*
X2010607*
X2002607Y1937400*
X1999500Y1932936D02*
X2007500D01*
X1999500Y1940936*
X2007500*
X1999500Y1932936*
X2025753Y1937542D02*
X2033753D01*
X2025753Y1945542*
X2033753*
X2025753Y1937542*
X2037500Y1940500D02*
X2045500D01*
X2037500Y1948500*
X2045500*
X2037500Y1940500*
X2043342Y1951370D02*
X2051342D01*
X2043342Y1959370*
X2051342*
X2043342Y1951370*
Y1941370D02*
X2051342D01*
X2043342Y1949370*
X2051342*
X2043342Y1941370*
X2035418Y1937208D02*
X2043418D01*
X2043418D02*
X2035418Y1945208D01*
X2035418D02*
X2043418D01*
X2043418D02*
X2035418Y1937208D01*
X2037942Y1947299D02*
X2045942D01*
X2037942Y1955299*
X2045942*
X2037942Y1947299*
X1927500Y1963500D02*
X1935500D01*
X1927500Y1971500*
X1935500*
X1927500Y1963500*
X1943500Y1956500D02*
X1951500D01*
X1943500Y1964500*
X1951500*
X1943500Y1956500*
X1944500Y1952500D02*
X1952500D01*
X1944500Y1960500*
X1952500*
X1944500Y1952500*
X1971296Y1971204D02*
X1979296D01*
X1971296Y1979204*
X1979296*
X1971296Y1971204*
X1954500Y1956015D02*
X1962500D01*
X1954500Y1964015*
X1962500*
X1954500Y1956015*
Y1959815D02*
X1962500D01*
X1954500Y1967815*
X1962500*
X1954500Y1959815*
X1980925Y1958385D02*
X1988925D01*
X1980925Y1966385*
X1988925*
X1980925Y1958385*
X1974500Y1961000D02*
X1982500D01*
X1974500Y1969000*
X1982500*
X1974500Y1961000*
X1985000Y1971500D02*
X1993000D01*
X1985000Y1979500*
X1993000*
X1985000Y1971500*
X1999500Y1956500D02*
X2007500D01*
X1999500Y1964500*
X2007500*
X1999500Y1956500*
X2012500Y1954500D02*
X2020500D01*
X2012500Y1962500*
X2020500*
X2012500Y1954500*
X2023000Y1955000D02*
X2031000D01*
X2023000Y1963000*
X2031000*
X2023000Y1955000*
X2017500Y1960000D02*
X2025500D01*
X2017500Y1968000*
X2025500*
X2017500Y1960000*
X2043342Y1971370D02*
X2051342D01*
X2043342Y1979370*
X2051342*
X2043342Y1971370*
Y1961370D02*
X2051342D01*
X2043342Y1969370*
X2051342*
X2043342Y1961370*
X2037942Y1957299D02*
X2045942D01*
X2037942Y1965299*
X2045942*
X2037942Y1957299*
Y1967299D02*
X2045942D01*
X2037942Y1975299*
X2045942*
X2037942Y1967299*
X1917500Y1973500D02*
X1925500D01*
X1917500Y1981500*
X1925500*
X1917500Y1973500*
X1969000Y1974000D02*
X1977000D01*
X1969000Y1982000*
X1977000*
X1969000Y1974000*
X1977696Y1973600D02*
X1985696D01*
X1977696Y1981600*
X1985696*
X1977696Y1973600*
X1986000Y1981000D02*
X1994000D01*
X1986000Y1989000*
X1994000*
X1986000Y1981000*
X1979500D02*
X1987500D01*
X1979500Y1989000*
X1987500*
X1979500Y1981000*
X1982662Y1977091D02*
X1990662D01*
X1982662Y1985091*
X1990662*
X1982662Y1977091*
X2002500Y1974500D02*
X2010500D01*
X2002500Y1982500*
X2010500*
X2002500Y1974500*
X2043342Y1991370D02*
X2051342D01*
X2043342Y1999370*
X2051342*
X2043342Y1991370*
Y1981370D02*
X2051342D01*
X2043342Y1989370*
X2051342*
X2043342Y1981370*
X2037942Y1977299D02*
X2045942D01*
X2037942Y1985299*
X2045942*
X2037942Y1977299*
Y1987299D02*
X2045942D01*
X2037942Y1995299*
X2045942*
X2037942Y1987299*
X2074500Y1987000D02*
X2082500D01*
X2074500Y1995000*
X2082500*
X2074500Y1987000*
X2043342Y2011370D02*
X2051342D01*
X2043342Y2019370*
X2051342*
X2043342Y2011370*
Y2001370D02*
X2051342D01*
X2043342Y2009370*
X2051342*
X2043342Y2001370*
X2037942Y1997299D02*
X2045942D01*
X2037942Y2005299*
X2045942*
X2037942Y1997299*
Y2007299D02*
X2045942D01*
X2037942Y2015299*
X2045942*
X2037942Y2007299*
X1970504Y2023604D02*
X1978504D01*
X1970504Y2031604*
X1978504*
X1970504Y2023604*
X2031000Y2020500D02*
X2039000D01*
X2031000Y2028500*
X2039000*
X2031000Y2020500*
X2031689Y2027329D02*
X2039689D01*
X2031689Y2035329*
X2039689*
X2031689Y2027329*
X2027571Y2023810D02*
X2035571D01*
X2027571Y2031810*
X2035571*
X2027571Y2023810*
X2036000Y2013500D02*
X2044000D01*
X2036000Y2021500*
X2044000*
X2036000Y2013500*
X2038760Y2020258D02*
X2046760D01*
X2038760Y2028258*
X2046760*
X2038760Y2020258*
X2034254Y2017128D02*
X2042254D01*
X2034254Y2025128*
X2042254*
X2034254Y2017128*
X1968054Y2035154D02*
X1976054D01*
X1968054Y2043154*
X1976054*
X1968054Y2035154*
X1975200Y2044484D02*
X1983200D01*
X1975200Y2052484*
X1983200*
X1975200Y2044484*
X2019000Y2047000D02*
X2027000D01*
X2019000Y2055000*
X2027000*
X2019000Y2047000*
X2021296Y2044204D02*
X2029296D01*
X2021296Y2052204*
X2029296*
X2021296Y2044204*
X2026000Y2049500D02*
X2034000D01*
X2026000Y2057500*
X2034000*
X2026000Y2049500*
X2031600Y2047329D02*
X2039600D01*
X2031600Y2055329*
X2039600*
X2031600Y2047329*
Y2037329D02*
X2039600D01*
X2031600Y2045329*
X2039600*
X2031600Y2037329*
X2026200Y2033716D02*
X2034200D01*
X2026200Y2041716*
X2034200*
X2026200Y2033716*
X2026496Y2043716D02*
X2034496D01*
X2026496Y2051716*
X2034496*
X2026496Y2043716*
X2033500Y2051500D02*
X2041500D01*
X2033500Y2059500*
X2041500*
X2033500Y2051500*
Y2041500D02*
X2041500D01*
X2033500Y2049500*
X2041500*
X2033500Y2041500*
X1941000Y2065000D02*
X1949000D01*
X1941000Y2073000*
X1949000*
X1941000Y2065000*
X1956100Y2061000D02*
X1964100D01*
X1956100Y2069000*
X1964100*
X1956100Y2061000*
X1978000Y2065000D02*
X1986000D01*
X1978000Y2073000*
X1986000*
X1978000Y2065000*
X2008500Y2062500D02*
X2016500D01*
X2008500Y2070500*
X2016500*
X2008500Y2062500*
X2026000Y2070500D02*
X2034000D01*
X2026000Y2078500*
X2034000*
X2026000Y2070500*
X2031600Y2067329D02*
X2039600D01*
X2031600Y2075329*
X2039600*
X2031600Y2067329*
Y2057329D02*
X2039600D01*
X2031600Y2065329*
X2039600*
X2031600Y2057329*
X2026200Y2053716D02*
X2034200D01*
X2026200Y2061716*
X2034200*
X2026200Y2053716*
Y2063716D02*
X2034200D01*
X2026200Y2071716*
X2034200*
X2026200Y2063716*
X1957500Y2081000D02*
X1965500D01*
X1957500Y2089000*
X1965500*
X1957500Y2081000*
X2014500Y2082500D02*
X2022500D01*
X2014500Y2090500*
X2022500*
X2014500Y2082500*
X2023500Y2091500D02*
X2031500D01*
X2023500Y2099500*
X2031500*
X2023500Y2091500*
X2031600Y2087329D02*
X2039600D01*
X2031600Y2095329*
X2039600*
X2031600Y2087329*
Y2077329D02*
X2039600D01*
X2031600Y2085329*
X2039600*
X2031600Y2077329*
X2026200Y2074300D02*
X2034200D01*
X2026200Y2082300*
X2034200*
X2026200Y2074300*
Y2083716D02*
X2034200D01*
X2026200Y2091716*
X2034200*
X2026200Y2083716*
X2037500Y2089000D02*
X2045500D01*
X2037500Y2097000*
X2045500*
X2037500Y2089000*
X1958000Y2105500D02*
X1966000D01*
X1958000Y2113500*
X1966000*
X1958000Y2105500*
X2031600Y2107329D02*
X2039600D01*
X2031600Y2115329*
X2039600*
X2031600Y2107329*
Y2097329D02*
X2039600D01*
X2031600Y2105329*
X2039600*
X2031600Y2097329*
X2026429Y2093945D02*
X2034429D01*
X2026429Y2101945*
X2034429*
X2026429Y2093945*
X2026200Y2103716D02*
X2034200D01*
X2026200Y2111716*
X2034200*
X2026200Y2103716*
X2040000Y2103000D02*
X2048000D01*
X2040000Y2111000*
X2048000*
X2040000Y2103000*
X2060500Y2107500D02*
X2068500D01*
X2060500Y2115500*
X2068500*
X2060500Y2107500*
X1952000Y2117000D02*
X1960000D01*
X1952000Y2125000*
X1960000*
X1952000Y2117000*
X1938000Y2113000D02*
X1946000D01*
X1938000Y2121000*
X1946000*
X1938000Y2113000*
X1965500D02*
X1973500D01*
X1965500Y2121000*
X1973500*
X1965500Y2113000*
X2031600Y2127329D02*
X2039600D01*
X2031600Y2135329*
X2039600*
X2031600Y2127329*
Y2117329D02*
X2039600D01*
X2031600Y2125329*
X2039600*
X2031600Y2117329*
X2026200Y2113716D02*
X2034200D01*
X2026200Y2121716*
X2034200*
X2026200Y2113716*
Y2123716D02*
X2034200D01*
X2026200Y2131716*
X2034200*
X2026200Y2123716*
X2042000Y2119000D02*
X2050000D01*
X2042000Y2127000*
X2050000*
X2042000Y2119000*
X1957500Y2150500D02*
X1965500D01*
X1957500Y2158500*
X1965500*
X1957500Y2150500*
X1977790Y2143210D02*
X1985790D01*
X1977790Y2151210*
X1985790*
X1977790Y2143210*
X1983000Y2140500D02*
X1991000D01*
X1983000Y2148500*
X1991000*
X1983000Y2140500*
X2002500Y2138000D02*
X2010500D01*
X2002500Y2146000*
X2010500*
X2002500Y2138000*
X1997000Y2133000D02*
X2005000D01*
X1997000Y2141000*
X2005000*
X1997000Y2133000*
X2031600Y2147329D02*
X2039600D01*
X2031600Y2155329*
X2039600*
X2031600Y2147329*
X2032285Y2138014D02*
X2040285D01*
X2032285Y2146014*
X2040285*
X2032285Y2138014*
X2026200Y2133716D02*
X2034200D01*
X2026200Y2141716*
X2034200*
X2026200Y2133716*
Y2143716D02*
X2034200D01*
X2026200Y2151716*
X2034200*
X2026200Y2143716*
X2041652Y2148630D02*
X2049652D01*
X2041652Y2156630*
X2049652*
X2041652Y2148630*
X2071553Y2148300D02*
X2079553D01*
X2071553Y2156300*
X2079553*
X2071553Y2148300*
X2061553D02*
X2069553D01*
X2061553Y2156300*
X2069553*
X2061553Y2148300*
X2055435D02*
X2063435D01*
X2055435Y2156300*
X2063435*
X2055435Y2148300*
X1964700Y2162000D02*
X1972700D01*
X1964700Y2170000*
X1972700*
X1964700Y2162000*
X1977500Y2153000D02*
X1985500D01*
X1977500Y2161000*
X1985500*
X1977500Y2153000*
X1982222Y2163722D02*
X1990222D01*
X1982222Y2171722*
X1990222*
X1982222Y2163722*
X2000705Y2160795D02*
X2008705D01*
X2000705Y2168795*
X2008705*
X2000705Y2160795*
X2004194Y2164285D02*
X2012194D01*
X2004194Y2172285*
X2012194*
X2004194Y2164285*
X1997500Y2155000D02*
X2005500D01*
X1997500Y2163000*
X2005500*
X1997500Y2155000*
X2015976Y2172188D02*
X2023976D01*
X2015976Y2180188*
X2023976*
X2015976Y2172188*
X2019290Y2169111D02*
X2027290D01*
X2019290Y2177111*
X2027290*
X2019290Y2169111*
X2028210Y2153512D02*
X2036210D01*
X2028210Y2161512*
X2036210*
X2028210Y2153512*
X2039085Y2153700D02*
X2047085D01*
X2039085Y2161700*
X2047085*
X2039085Y2153700*
X2048208D02*
X2056208D01*
X2048208Y2161700*
X2056208*
X2048208Y2153700*
X2058208D02*
X2066208D01*
X2058208Y2161700*
X2066208*
X2058208Y2153700*
X2068208D02*
X2076208D01*
X2068208Y2161700*
X2076208*
X2068208Y2153700*
X1912500Y2176500D02*
X1920500D01*
X1912500Y2184500*
X1920500*
X1912500Y2176500*
X1935000Y2185000D02*
X1943000D01*
X1935000Y2193000*
X1943000*
X1935000Y2185000*
X1971121Y2176509D02*
X1979121D01*
X1971121Y2184509*
X1979121*
X1971121Y2176509*
X1958500Y2187000D02*
X1966500D01*
X1958500Y2195000*
X1966500*
X1958500Y2187000*
X1954400Y2192000D02*
X1962400D01*
X1954400Y2200000*
X1962400*
X1954400Y2192000*
X1975674Y2175807D02*
X1983674D01*
X1975674Y2183807*
X1983674*
X1975674Y2175807*
X1974000Y2189500D02*
X1982000D01*
X1974000Y2197500*
X1982000*
X1974000Y2189500*
X1988200Y2190000D02*
X1996200D01*
X1988200Y2198000*
X1996200*
X1988200Y2190000*
X1988696Y2173922D02*
X1996696D01*
X1988696Y2181922*
X1996696*
X1988696Y2173922*
X1980100Y2178500D02*
X1988100D01*
X1980100Y2186500*
X1988100*
X1980100Y2178500*
X1982096Y2175404D02*
X1990096D01*
X1982096Y2183404*
X1990096*
X1982096Y2175404*
X1991562Y2179438D02*
X1999562D01*
X1991562Y2187438*
X1999562*
X1991562Y2179438*
X1981000Y2189500D02*
X1989000D01*
X1981000Y2197500*
X1989000*
X1981000Y2189500*
X1992354Y2175638D02*
X2000354D01*
X1992354Y2183638*
X2000354*
X1992354Y2175638*
X2005500Y2179500D02*
X2013500D01*
X2005500Y2187500*
X2013500*
X2005500Y2179500*
X2007500Y2189500D02*
X2015500D01*
X2007500Y2197500*
X2015500*
X2007500Y2189500*
X2019500Y2191500D02*
X2027500D01*
X2019500Y2199500*
X2027500*
X2019500Y2191500*
X2033100Y2176500D02*
X2041100D01*
X2033100Y2184500*
X2041100*
X2033100Y2176500*
X2029500D02*
X2037500D01*
X2029500Y2184500*
X2037500*
X2029500Y2176500*
X2027409Y2179500D02*
X2035409D01*
X2027409Y2187500*
X2035409*
X2027409Y2179500*
X2060500Y2188500D02*
X2068500D01*
X2060500Y2196500*
X2068500*
X2060500Y2188500*
X2078200Y2181125D02*
X2086200D01*
X2078200Y2189125*
X2086200*
X2078200Y2181125*
Y2191125D02*
X2086200D01*
X2078200Y2199125*
X2086200*
X2078200Y2191125*
X1942200Y2205500D02*
X1950200D01*
X1942200Y2213500*
X1950200*
X1942200Y2205500*
X1950150Y2204950D02*
X1958150D01*
X1950150Y2212950*
X1958150*
X1950150Y2204950*
X1944700Y2210531D02*
X1952700D01*
X1944700Y2218531*
X1952700*
X1944700Y2210531*
X1935000Y2204500D02*
X1943000D01*
X1935000Y2212500*
X1943000*
X1935000Y2204500*
X1966500Y2211500D02*
X1974500D01*
X1966500Y2219500*
X1974500*
X1966500Y2211500*
X1965212Y2194288D02*
X1973212D01*
X1965212Y2202288*
X1973212*
X1965212Y2194288*
X1955000Y2208000D02*
X1963000D01*
X1955000Y2216000*
X1963000*
X1955000Y2208000*
X1988400Y2193800D02*
X1996400D01*
X1988400Y2201800*
X1996400*
X1988400Y2193800*
X2004500Y2201500D02*
X2012500D01*
X2004500Y2209500*
X2012500*
X2004500Y2201500*
X2029500Y2196500D02*
X2037500D01*
X2029500Y2204500*
X2037500*
X2029500Y2196500*
X2039500Y2204000D02*
X2047500D01*
X2039500Y2212000*
X2047500*
X2039500Y2204000*
X2036500Y2198000D02*
X2044500D01*
X2036500Y2206000*
X2044500*
X2036500Y2198000*
X2049500Y2208000D02*
X2057500D01*
X2049500Y2216000*
X2057500*
X2049500Y2208000*
X2039500Y2210000D02*
X2047500D01*
X2039500Y2218000*
X2047500*
X2039500Y2210000*
X2067500Y2211000D02*
X2075500D01*
X2067500Y2219000*
X2075500*
X2067500Y2211000*
X2057500Y2204500D02*
X2065500D01*
X2057500Y2212500*
X2065500*
X2057500Y2204500*
X2078200Y2201125D02*
X2086200D01*
X2078200Y2209125*
X2086200*
X2078200Y2201125*
X2077026Y2211055D02*
X2085026D01*
X2077026Y2219055*
X2085026*
X2077026Y2211055*
X1927500Y2218500D02*
X1935500D01*
X1927500Y2226500*
X1935500*
X1927500Y2218500*
X1935000Y2216000D02*
X1943000D01*
X1935000Y2224000*
X1943000*
X1935000Y2216000*
X1937500Y2213000D02*
X1945500D01*
X1937500Y2221000*
X1945500*
X1937500Y2213000*
X1948000Y2223500D02*
X1956000D01*
X1948000Y2231500*
X1956000*
X1948000Y2223500*
X1971500Y2213000D02*
X1979500D01*
X1971500Y2221000*
X1979500*
X1971500Y2213000*
X1954400Y2229500D02*
X1962400D01*
X1954400Y2237500*
X1962400*
X1954400Y2229500*
X1968874Y2226954D02*
X1976874D01*
X1968874Y2234954*
X1976874*
X1968874Y2226954*
X1965164Y2231164D02*
X1973164D01*
X1965164Y2239164*
X1973164*
X1965164Y2231164*
X2049500Y2213500D02*
X2057500D01*
X2049500Y2221500*
X2057500*
X2049500Y2213500*
X2034000Y2229500D02*
X2042000D01*
X2034000Y2237500*
X2042000*
X2034000Y2229500*
X2049500Y2231500D02*
X2057500D01*
X2049500Y2239500*
X2057500*
X2049500Y2231500*
X2060500Y2223000D02*
X2068500D01*
X2060500Y2231000*
X2068500*
X2060500Y2223000*
X2061500Y2229000D02*
X2069500D01*
X2061500Y2237000*
X2069500*
X2061500Y2229000*
X1953000Y2237500D02*
X1961000D01*
X1953000Y2245500*
X1961000*
X1953000Y2237500*
X1950356Y2234790D02*
X1958356D01*
X1950356Y2242790*
X1958356*
X1950356Y2234790*
X1933500Y2250000D02*
X1941500D01*
X1933500Y2258000*
X1941500*
X1933500Y2250000*
X1953200Y2243000D02*
X1961200D01*
X1953200Y2251000*
X1961200*
X1953200Y2243000*
X1965204Y2244296D02*
X1973204D01*
X1965204Y2252296*
X1973204*
X1965204Y2244296*
X1965164Y2236764D02*
X1973164D01*
X1965164Y2244764*
X1973164*
X1965164Y2236764*
X1968490Y2240510D02*
X1976490D01*
X1968490Y2248510*
X1976490*
X1968490Y2240510*
X1965800Y2249296D02*
X1973800D01*
X1965800Y2257296*
X1973800*
X1965800Y2249296*
X1979000Y2240000D02*
X1987000D01*
X1979000Y2248000*
X1987000*
X1979000Y2240000*
X1973600Y2251000D02*
X1981600D01*
X1973600Y2259000*
X1981600*
X1973600Y2251000*
X1977500Y2247500D02*
X1985500D01*
X1977500Y2255500*
X1985500*
X1977500Y2247500*
X1912500Y2256000D02*
X1920500D01*
X1912500Y2264000*
X1920500*
X1912500Y2256000*
X1939000Y2265500D02*
X1947000D01*
X1939000Y2273500*
X1947000*
X1939000Y2265500*
X1953200Y2259000D02*
X1961200D01*
X1953200Y2267000*
X1961200*
X1953200Y2259000*
X1962600Y2265691D02*
X1970600D01*
X1962600Y2273691*
X1970600*
X1962600Y2265691*
X1991500Y2263500D02*
X1999500D01*
X1991500Y2271500*
X1999500*
X1991500Y2263500*
X2022000Y2260500D02*
X2030000D01*
X2022000Y2268500*
X2030000*
X2022000Y2260500*
X2049500Y2259000D02*
X2057500D01*
X2049500Y2267000*
X2057500*
X2049500Y2259000*
X2039500Y2260000D02*
X2047500D01*
X2039500Y2268000*
X2047500*
X2039500Y2260000*
X2061500Y2263500D02*
X2069500D01*
X2061500Y2271500*
X2069500*
X2061500Y2263500*
X1973296Y2288204D02*
X1981296D01*
X1973296Y2296204*
X1981296*
X1973296Y2288204*
X1971400Y2291400D02*
X1979400D01*
X1971400Y2299400*
X1979400*
X1971400Y2291400*
X1979112Y2273500D02*
X1987112D01*
X1979112Y2281500*
X1987112*
X1979112Y2273500*
X1989200Y2274700D02*
X1997200D01*
X1989200Y2282700*
X1997200*
X1989200Y2274700*
X1992500Y2286000D02*
X2000500D01*
X1992500Y2294000*
X2000500*
X1992500Y2286000*
X1986500Y2282500D02*
X1994500D01*
X1986500Y2290500*
X1994500*
X1986500Y2282500*
X1973512Y2274012D02*
X1981512D01*
X1973512Y2282012*
X1981512*
X1973512Y2274012*
X2012374Y2273500D02*
X2020374D01*
X2012374Y2281500*
X2020374*
X2012374Y2273500*
X1995752D02*
X2003752D01*
X1995752Y2281500*
X2003752*
X1995752Y2273500*
X2009000Y2275500D02*
X2017000D01*
X2009000Y2283500*
X2017000*
X2009000Y2275500*
X2014000Y2283500D02*
X2022000D01*
X2014000Y2291500*
X2022000*
X2014000Y2283500*
X2017296Y2281704D02*
X2025296D01*
X2017296Y2289704*
X2025296*
X2017296Y2281704*
X2021000Y2273500D02*
X2029000D01*
X2021000Y2281500*
X2029000*
X2021000Y2273500*
X1898500Y2297000D02*
X1906500D01*
X1898500Y2305000*
X1906500*
X1898500Y2297000*
X1926000Y2296500D02*
X1934000D01*
X1926000Y2304500*
X1934000*
X1926000Y2296500*
X1947400Y2301500D02*
X1955400D01*
X1947400Y2309500*
X1955400*
X1947400Y2301500*
X1958000Y2299000D02*
X1966000D01*
X1958000Y2307000*
X1966000*
X1958000Y2299000*
X1950500Y2332000D02*
X1958500D01*
X1950500Y2340000*
X1958500*
X1950500Y2332000*
X1965628Y2327872D02*
X1973628D01*
X1965628Y2335872*
X1973628*
X1965628Y2327872*
X1971500Y2320000D02*
X1979500D01*
X1971500Y2328000*
X1979500*
X1971500Y2320000*
X2001000Y2327000D02*
X2009000D01*
X2001000Y2335000*
X2009000*
X2001000Y2327000*
X1972302Y2334198D02*
X1980302D01*
X1972302Y2342198*
X1980302*
X1972302Y2334198*
X1963500Y2344000D02*
X1971500D01*
X1963500Y2352000*
X1971500*
X1963500Y2344000*
X1992000Y2346500D02*
X2000000D01*
X1992000Y2354500*
X2000000*
X1992000Y2346500*
X2082000Y2350500D02*
X2090000D01*
X2082000Y2358500*
X2090000*
X2082000Y2350500*
X1953000Y2360500D02*
X1961000D01*
X1953000Y2368500*
X1961000*
X1953000Y2360500*
Y2354000D02*
X1961000D01*
X1953000Y2362000*
X1961000*
X1953000Y2354000*
X1969500Y2352500D02*
X1977500D01*
X1969500Y2360500*
X1977500*
X1969500Y2352500*
X1958500Y2358500D02*
X1966500D01*
X1958500Y2366500*
X1966500*
X1958500Y2358500*
X1973000Y2370500D02*
X1981000D01*
X1973000Y2378500*
X1981000*
X1973000Y2370500*
X1981500Y2354500D02*
X1989500D01*
X1981500Y2362500*
X1989500*
X1981500Y2354500*
X2034000Y2362000D02*
X2042000D01*
X2034000Y2370000*
X2042000*
X2034000Y2362000*
X2057500Y2353000D02*
X2065500D01*
X2057500Y2361000*
X2065500*
X2057500Y2353000*
X2084500Y2365500D02*
X2092500D01*
X2084500Y2373500*
X2092500*
X2084500Y2365500*
X1968000Y2389000D02*
X1976000D01*
X1968000Y2397000*
X1976000*
X1968000Y2389000*
X1997000Y2381500D02*
X2005000D01*
X1997000Y2389500*
X2005000*
X1997000Y2381500*
X2016500Y2379500D02*
X2024500D01*
X2016500Y2387500*
X2024500*
X2016500Y2379500*
X2037500Y2391500D02*
X2045500D01*
X2037500Y2399500*
X2045500*
X2037500Y2391500*
X2072000Y2382500D02*
X2080000D01*
X2072000Y2390500*
X2080000*
X2072000Y2382500*
X1990500Y2411000D02*
X1998500D01*
X1990500Y2419000*
X1998500*
X1990500Y2411000*
X1903000Y2426000D02*
X1911000D01*
X1903000Y2434000*
X1911000*
X1903000Y2426000*
X2047500Y2421000D02*
X2055500D01*
X2047500Y2429000*
X2055500*
X2047500Y2421000*
X2016500Y2439500D02*
X2024500D01*
X2016500Y2447500*
X2024500*
X2016500Y2439500*
X1900000Y2472000D02*
Y1870000D01*
X1960000*
Y1830000*
X2004700*
Y1860000*
X2011000D02*
G75*
G03X2004700I-3150J0D01*
G01X2011000D02*
Y1830000D01*
X2040000*
Y1870000*
X2091000*
Y2472000*
X1900000*
X100000Y244000D02*
X358000D01*
X100000Y220000D02*
X358000D01*
X100000Y196000D02*
X358000D01*
X100000Y172000D02*
X358000D01*
X100000Y148000D02*
X358000D01*
X100000Y124000D02*
X358000D01*
X100000Y100000D02*
X358000D01*
X100000Y244000D02*
Y100000D01*
X184000Y244000D02*
Y100000D01*
X220000Y244000D02*
Y100000D01*
X256000Y244000D02*
Y100000D01*
X310000Y244000D02*
Y100000D01*
X358000Y244000D02*
Y100000D01*
X135500Y232750D02*
X134955Y233500D01*
X134136Y233875*
X133045*
X132227Y233500*
X131682Y232750*
Y232000*
X131955Y231250*
X132227Y230875*
X132773Y230500*
X134409Y229750*
X134955Y229375*
X135227Y229000*
X135500Y228250*
Y227125*
X134955Y226375*
X134136Y226000*
X133045*
X132227Y226375*
X131682Y227125*
X137955Y233875D02*
Y226000D01*
X144227Y233875D02*
X140409Y226000D01*
Y233875D02*
X144227D01*
X140409Y226000D02*
X144227D01*
X146682Y233875D02*
Y226000D01*
Y233875D02*
X150227D01*
X146682Y230125D02*
X148864D01*
X146682Y226000D02*
X150227D01*
X193864Y233875D02*
X193318Y233500D01*
X192773Y232750*
X192500Y232000*
X192227Y230875*
Y229000*
X192500Y227875*
X192773Y227125*
X193318Y226375*
X193864Y226000*
X194955*
X195500Y226375*
X196045Y227125*
X196318Y227875*
X196591Y229000*
Y230875*
X196318Y232000*
X196045Y232750*
X195500Y233500*
X194955Y233875*
X193864*
X194682Y227500D02*
X196318Y225250D01*
X200955Y233875D02*
Y226000D01*
X199045Y233875D02*
X202864D01*
X205318D02*
X207500Y230125D01*
Y226000*
X209682Y233875D02*
X207500Y230125D01*
X232045Y232750D02*
X231500Y233500D01*
X230682Y233875*
X229591*
X228773Y233500*
X228227Y232750*
Y232000*
X228500Y231250*
X228773Y230875*
X229318Y230500*
X230955Y229750*
X231500Y229375*
X231773Y229000*
X232045Y228250*
Y227125*
X231500Y226375*
X230682Y226000*
X229591*
X228773Y226375*
X228227Y227125*
X234500Y233875D02*
X236682Y230125D01*
Y226000*
X238864Y233875D02*
X236682Y230125D01*
X241318Y233875D02*
Y226000D01*
Y233875D02*
X243500Y226000D01*
X245682Y233875D02*
X243500Y226000D01*
X245682Y233875D02*
Y226000D01*
X267500Y233875D02*
Y226000D01*
Y233875D02*
X269955D01*
X270773Y233500*
X271045Y233125*
X271318Y232375*
Y231250*
X271045Y230500*
X270773Y230125*
X269955Y229750*
X267500*
X273773Y233875D02*
Y226000D01*
X277045*
X281682Y233875D02*
X279500Y226000D01*
X281682Y233875D02*
X283864Y226000D01*
X280318Y228625D02*
X283045D01*
X288227Y233875D02*
Y226000D01*
X286318Y233875D02*
X290136D01*
X292591D02*
Y226000D01*
Y233875D02*
X296136D01*
X292591Y230125D02*
X294773D01*
X292591Y226000D02*
X296136D01*
X298591Y233875D02*
Y226000D01*
Y233875D02*
X300500D01*
X301318Y233500*
X301864Y232750*
X302136Y232000*
X302409Y230875*
Y229000*
X302136Y227875*
X301864Y227125*
X301318Y226375*
X300500Y226000*
X298591*
X326682Y233875D02*
Y226000D01*
X324773Y233875D02*
X328591D01*
X332682D02*
X332136Y233500D01*
X331591Y232750*
X331318Y232000*
X331045Y230875*
Y229000*
X331318Y227875*
X331591Y227125*
X332136Y226375*
X332682Y226000*
X333773*
X334318Y226375*
X334864Y227125*
X335136Y227875*
X335409Y229000*
Y230875*
X335136Y232000*
X334864Y232750*
X334318Y233500*
X333773Y233875*
X332682*
X337864D02*
Y226000D01*
X341136*
X106545Y209875D02*
X109545D01*
X107909Y206875*
X108727*
X109273Y206500*
X109545Y206125*
X109818Y205000*
Y204250*
X109545Y203125*
X109000Y202375*
X108182Y202000*
X107364*
X106545Y202375*
X106273Y202750*
X106000Y203500*
X115818Y209875D02*
X113091D01*
X112818Y206500*
X113091Y206875*
X113909Y207250*
X114727*
X115545Y206875*
X116091Y206125*
X116364Y205000*
X116091Y204250*
X115818Y203125*
X115273Y202375*
X114455Y202000*
X113636*
X112818Y202375*
X112545Y202750*
X112273Y203500*
X194000Y208375D02*
X194545Y208750D01*
X195364Y209875*
Y202000*
X198091Y208000D02*
Y208375D01*
X198364Y209125*
X198636Y209500*
X199182Y209875*
X200273*
X200818Y209500*
X201091Y209125*
X201364Y208375*
Y207625*
X201091Y206875*
X200545Y205750*
X197818Y202000*
X201636*
X204636Y209875D02*
X207636D01*
X206000Y206875*
X206818*
X207364Y206500*
X207636Y206125*
X207909Y205000*
Y204250*
X207636Y203125*
X207091Y202375*
X206273Y202000*
X205455*
X204636Y202375*
X204364Y202750*
X204091Y203500*
X232000Y208000D02*
X244000D01*
X238000Y202000D02*
Y214000D01*
X264636Y209875D02*
X266818Y206125D01*
Y202000*
X269000Y209875D02*
X266818Y206125D01*
X271455Y209875D02*
Y202000D01*
Y209875D02*
X275000D01*
X271455Y206125D02*
X273636D01*
X271455Y202000D02*
X275000D01*
X281273Y208750D02*
X280727Y209500D01*
X279909Y209875*
X278818*
X278000Y209500*
X277455Y208750*
Y208000*
X277727Y207250*
X278000Y206875*
X278545Y206500*
X280182Y205750*
X280727Y205375*
X281000Y205000*
X281273Y204250*
Y203125*
X280727Y202375*
X279909Y202000*
X278818*
X278000Y202375*
X277455Y203125*
X317818Y208750D02*
Y202000D01*
X315364Y205375D02*
X320273D01*
X327636Y211375D02*
X322727Y199375D01*
X330091Y205375D02*
X335000D01*
X339091Y209875D02*
X338273Y209500D01*
X337727Y208375*
X337455Y206500*
Y205375*
X337727Y203500*
X338273Y202375*
X339091Y202000*
X339636*
X340455Y202375*
X341000Y203500*
X341273Y205375*
Y206500*
X341000Y208375*
X340455Y209500*
X339636Y209875*
X339091*
X344000Y202750D02*
X343727Y202375D01*
X344000Y202000*
X344273Y202375*
X344000Y202750*
X348364Y209875D02*
X347545Y209500D01*
X347000Y208375*
X346727Y206500*
Y205375*
X347000Y203500*
X347545Y202375*
X348364Y202000*
X348909*
X349727Y202375*
X350273Y203500*
X350545Y205375*
Y206500*
X350273Y208375*
X349727Y209500*
X348909Y209875*
X348364*
X106273Y184000D02*
Y184375D01*
X106545Y185125*
X106818Y185500*
X107364Y185875*
X108455*
X109000Y185500*
X109273Y185125*
X109545Y184375*
Y183625*
X109273Y182875*
X108727Y181750*
X106000Y178000*
X109818*
X113636Y185875D02*
X112818Y185500D01*
X112545Y184750*
Y184000*
X112818Y183250*
X113364Y182875*
X114455Y182500*
X115273Y182125*
X115818Y181375*
X116091Y180625*
Y179500*
X115818Y178750*
X115545Y178375*
X114727Y178000*
X113636*
X112818Y178375*
X112545Y178750*
X112273Y179500*
Y180625*
X112545Y181375*
X113091Y182125*
X113909Y182500*
X115000Y182875*
X115545Y183250*
X115818Y184000*
Y184750*
X115545Y185500*
X114727Y185875*
X113636*
X197136Y184375D02*
X197682Y184750D01*
X198500Y185875*
Y178000*
X202591Y185875D02*
X201773Y185500D01*
X201227Y184375*
X200955Y182500*
Y181375*
X201227Y179500*
X201773Y178375*
X202591Y178000*
X203136*
X203955Y178375*
X204500Y179500*
X204773Y181375*
Y182500*
X204500Y184375*
X203955Y185500*
X203136Y185875*
X202591*
X232000Y178000D02*
X244000Y190000D01*
X232000D02*
X244000Y178000D01*
X264636Y185875D02*
X266818Y182125D01*
Y178000*
X269000Y185875D02*
X266818Y182125D01*
X271455Y185875D02*
Y178000D01*
Y185875D02*
X275000D01*
X271455Y182125D02*
X273636D01*
X271455Y178000D02*
X275000D01*
X281273Y184750D02*
X280727Y185500D01*
X279909Y185875*
X278818*
X278000Y185500*
X277455Y184750*
Y184000*
X277727Y183250*
X278000Y182875*
X278545Y182500*
X280182Y181750*
X280727Y181375*
X281000Y181000*
X281273Y180250*
Y179125*
X280727Y178375*
X279909Y178000*
X278818*
X278000Y178375*
X277455Y179125*
X317818Y184750D02*
Y178000D01*
X315364Y181375D02*
X320273D01*
X327636Y187375D02*
X322727Y175375D01*
X330091Y181375D02*
X335000D01*
X339091Y185875D02*
X338273Y185500D01*
X337727Y184375*
X337455Y182500*
Y181375*
X337727Y179500*
X338273Y178375*
X339091Y178000*
X339636*
X340455Y178375*
X341000Y179500*
X341273Y181375*
Y182500*
X341000Y184375*
X340455Y185500*
X339636Y185875*
X339091*
X344000Y178750D02*
X343727Y178375D01*
X344000Y178000*
X344273Y178375*
X344000Y178750*
X348364Y185875D02*
X347545Y185500D01*
X347000Y184375*
X346727Y182500*
Y181375*
X347000Y179500*
X347545Y178375*
X348364Y178000*
X348909*
X349727Y178375*
X350273Y179500*
X350545Y181375*
Y182500*
X350273Y184375*
X349727Y185500*
X348909Y185875*
X348364*
X106545Y161875D02*
X109545D01*
X107909Y158875*
X108727*
X109273Y158500*
X109545Y158125*
X109818Y157000*
Y156250*
X109545Y155125*
X109000Y154375*
X108182Y154000*
X107364*
X106545Y154375*
X106273Y154750*
X106000Y155500*
X116091Y161875D02*
X113364Y154000D01*
X112273Y161875D02*
X116091D01*
X197136Y160375D02*
X197682Y160750D01*
X198500Y161875*
Y154000*
X201227Y160000D02*
Y160375D01*
X201500Y161125*
X201773Y161500*
X202318Y161875*
X203409*
X203955Y161500*
X204227Y161125*
X204500Y160375*
Y159625*
X204227Y158875*
X203682Y157750*
X200955Y154000*
X204773*
X232000D02*
X244000D01*
Y166000*
X232000*
Y154000*
X238000Y160000D02*
Y166000D01*
X264636Y161875D02*
X266818Y158125D01*
Y154000*
X269000Y161875D02*
X266818Y158125D01*
X271455Y161875D02*
Y154000D01*
Y161875D02*
X275000D01*
X271455Y158125D02*
X273636D01*
X271455Y154000D02*
X275000D01*
X281273Y160750D02*
X280727Y161500D01*
X279909Y161875*
X278818*
X278000Y161500*
X277455Y160750*
Y160000*
X277727Y159250*
X278000Y158875*
X278545Y158500*
X280182Y157750*
X280727Y157375*
X281000Y157000*
X281273Y156250*
Y155125*
X280727Y154375*
X279909Y154000*
X278818*
X278000Y154375*
X277455Y155125*
X317818Y160750D02*
Y154000D01*
X315364Y157375D02*
X320273D01*
X327636Y163375D02*
X322727Y151375D01*
X330091Y157375D02*
X335000D01*
X339091Y161875D02*
X338273Y161500D01*
X337727Y160375*
X337455Y158500*
Y157375*
X337727Y155500*
X338273Y154375*
X339091Y154000*
X339636*
X340455Y154375*
X341000Y155500*
X341273Y157375*
Y158500*
X341000Y160375*
X340455Y161500*
X339636Y161875*
X339091*
X344000Y154750D02*
X343727Y154375D01*
X344000Y154000*
X344273Y154375*
X344000Y154750*
X348364Y161875D02*
X347545Y161500D01*
X347000Y160375*
X346727Y158500*
Y157375*
X347000Y155500*
X347545Y154375*
X348364Y154000*
X348909*
X349727Y154375*
X350273Y155500*
X350545Y157375*
Y158500*
X350273Y160375*
X349727Y161500*
X348909Y161875*
X348364*
X106000Y136375D02*
X106545Y136750D01*
X107364Y137875*
Y130000*
X111182Y137875D02*
X110364Y137500D01*
X110091Y136750*
Y136000*
X110364Y135250*
X110909Y134875*
X112000Y134500*
X112818Y134125*
X113364Y133375*
X113636Y132625*
Y131500*
X113364Y130750*
X113091Y130375*
X112273Y130000*
X111182*
X110364Y130375*
X110091Y130750*
X109818Y131500*
Y132625*
X110091Y133375*
X110636Y134125*
X111455Y134500*
X112545Y134875*
X113091Y135250*
X113364Y136000*
Y136750*
X113091Y137500*
X112273Y137875*
X111182*
X119909D02*
X117182Y130000D01*
X116091Y137875D02*
X119909D01*
X122636Y130750D02*
X122364Y130375D01*
X122636Y130000*
X122909Y130375*
X122636Y130750*
X128909Y137875D02*
X126182D01*
X125909Y134500*
X126182Y134875*
X127000Y135250*
X127818*
X128636Y134875*
X129182Y134125*
X129455Y133000*
X129182Y132250*
X128909Y131125*
X128364Y130375*
X127545Y130000*
X126727*
X125909Y130375*
X125636Y130750*
X125364Y131500*
X200273Y136375D02*
X200818Y136750D01*
X201636Y137875*
Y130000*
X238000D02*
X244000Y136000D01*
X238000Y142000*
X232000Y136000*
X238000Y130000*
Y136000D02*
Y142000D01*
X264636Y137875D02*
X266818Y134125D01*
Y130000*
X269000Y137875D02*
X266818Y134125D01*
X271455Y137875D02*
Y130000D01*
Y137875D02*
X275000D01*
X271455Y134125D02*
X273636D01*
X271455Y130000D02*
X275000D01*
X281273Y136750D02*
X280727Y137500D01*
X279909Y137875*
X278818*
X278000Y137500*
X277455Y136750*
Y136000*
X277727Y135250*
X278000Y134875*
X278545Y134500*
X280182Y133750*
X280727Y133375*
X281000Y133000*
X281273Y132250*
Y131125*
X280727Y130375*
X279909Y130000*
X278818*
X278000Y130375*
X277455Y131125*
X317818Y136750D02*
Y130000D01*
X315364Y133375D02*
X320273D01*
X327636Y139375D02*
X322727Y127375D01*
X330091Y133375D02*
X335000D01*
X339091Y137875D02*
X338273Y137500D01*
X337727Y136375*
X337455Y134500*
Y133375*
X337727Y131500*
X338273Y130375*
X339091Y130000*
X339636*
X340455Y130375*
X341000Y131500*
X341273Y133375*
Y134500*
X341000Y136375*
X340455Y137500*
X339636Y137875*
X339091*
X344000Y130750D02*
X343727Y130375D01*
X344000Y130000*
X344273Y130375*
X344000Y130750*
X348364Y137875D02*
X347545Y137500D01*
X347000Y136375*
X346727Y134500*
Y133375*
X347000Y131500*
X347545Y130375*
X348364Y130000*
X348909*
X349727Y130375*
X350273Y131500*
X350545Y133375*
Y134500*
X350273Y136375*
X349727Y137500*
X348909Y137875*
X348364*
X106000Y112375D02*
X106545Y112750D01*
X107364Y113875*
Y106000*
X113364Y113875D02*
X110636D01*
X110364Y110500*
X110636Y110875*
X111455Y111250*
X112273*
X113091Y110875*
X113636Y110125*
X113909Y109000*
X113636Y108250*
X113364Y107125*
X112818Y106375*
X112000Y106000*
X111182*
X110364Y106375*
X110091Y106750*
X109818Y107500*
X193182Y112000D02*
Y112375D01*
X193455Y113125*
X193727Y113500*
X194273Y113875*
X195364*
X195909Y113500*
X196182Y113125*
X196455Y112375*
Y111625*
X196182Y110875*
X195636Y109750*
X192909Y106000*
X196727*
X202727Y111250D02*
X202455Y110125D01*
X201909Y109375*
X201091Y109000*
X200818*
X200000Y109375*
X199455Y110125*
X199182Y111250*
Y111625*
X199455Y112750*
X200000Y113500*
X200818Y113875*
X201091*
X201909Y113500*
X202455Y112750*
X202727Y111250*
Y109375*
X202455Y107500*
X201909Y106375*
X201091Y106000*
X200545*
X199727Y106375*
X199455Y107125*
X206818Y113875D02*
X206000Y113500D01*
X205455Y112375*
X205182Y110500*
Y109375*
X205455Y107500*
X206000Y106375*
X206818Y106000*
X207364*
X208182Y106375*
X208727Y107500*
X209000Y109375*
Y110500*
X208727Y112375*
X208182Y113500*
X207364Y113875*
X206818*
X232000Y106000D02*
X244000D01*
X232000Y118000*
X244000*
X232000Y106000*
X264636Y113875D02*
X266818Y110125D01*
Y106000*
X269000Y113875D02*
X266818Y110125D01*
X271455Y113875D02*
Y106000D01*
Y113875D02*
X275000D01*
X271455Y110125D02*
X273636D01*
X271455Y106000D02*
X275000D01*
X281273Y112750D02*
X280727Y113500D01*
X279909Y113875*
X278818*
X278000Y113500*
X277455Y112750*
Y112000*
X277727Y111250*
X278000Y110875*
X278545Y110500*
X280182Y109750*
X280727Y109375*
X281000Y109000*
X281273Y108250*
Y107125*
X280727Y106375*
X279909Y106000*
X278818*
X278000Y106375*
X277455Y107125*
X317818Y112750D02*
Y106000D01*
X315364Y109375D02*
X320273D01*
X327636Y115375D02*
X322727Y103375D01*
X330091Y109375D02*
X335000D01*
X339091Y113875D02*
X338273Y113500D01*
X337727Y112375*
X337455Y110500*
Y109375*
X337727Y107500*
X338273Y106375*
X339091Y106000*
X339636*
X340455Y106375*
X341000Y107500*
X341273Y109375*
Y110500*
X341000Y112375*
X340455Y113500*
X339636Y113875*
X339091*
X344000Y106750D02*
X343727Y106375D01*
X344000Y106000*
X344273Y106375*
X344000Y106750*
X348364Y113875D02*
X347545Y113500D01*
X347000Y112375*
X346727Y110500*
Y109375*
X347000Y107500*
X347545Y106375*
X348364Y106000*
X348909*
X349727Y106375*
X350273Y107500*
X350545Y109375*
Y110500*
X350273Y112375*
X349727Y113500*
X348909Y113875*
X348364*
G74*
X0Y0D02*
M02*
