*
*
G04 PADS VX.2.1 Build Number: 6554490 generated Gerber (RS-274-X) file*
G04 PC Version=2.1*
*
%IN "uMuddMarkVLayout_3.pcb"*%
*
%MOIN*%
*
%FSLAX35Y35*%
*
*
*
*
G04 PC Standard Apertures*
*
*
G04 Thermal Relief Aperture macro.*
%AMTER*
1,1,$1,0,0*
1,0,$1-$2,0,0*
21,0,$3,$4,0,0,45*
21,0,$3,$4,0,0,135*
%
*
*
G04 Annular Aperture macro.*
%AMANN*
1,1,$1,0,0*
1,0,$2,0,0*
%
*
*
G04 Odd Aperture macro.*
%AMODD*
1,1,$1,0,0*
1,0,$1-0.005,0,0*
%
*
*
G04 PC Custom Aperture Macros*
*
*
*
*
*
*
G04 PC Aperture Table*
*
%ADD010C,0.001*%
%ADD014C,0.06*%
%ADD024C,0.25*%
%ADD027C,0.01*%
%ADD028C,0.03*%
%ADD029C,0.015*%
%ADD054C,0.042*%
*
*
*
*
G04 PC Circuitry*
G04 Layer Name uMuddMarkVLayout_3.pcb - circuitry*
%LPD*%
*
*
G04 PC Custom Flashes*
G04 Layer Name uMuddMarkVLayout_3.pcb - flashes*
%LPD*%
*
*
G04 PC Circuitry*
G04 Layer Name uMuddMarkVLayout_3.pcb - circuitry*
%LPD*%
*
G54D10*
G54D14*
G01X2075700Y1963200D03*
Y1937609D03*
X1949100Y2177100D03*
X2081400Y2035500D03*
Y2045500D03*
Y2055500D03*
Y2065500D03*
Y2075500D03*
Y2085500D03*
Y2095500D03*
Y2105500D03*
Y2115500D03*
Y2125500D03*
X1978300Y2379700D03*
X1952709D03*
X2055800Y2299900D03*
Y2339900D03*
X1909400Y2445100D03*
G54D24*
X2006400Y2230500D03*
G54D27*
X2079800Y1937609D02*
G75*
G03X2079800I-4100J0D01*
G01Y1963200D02*
G03X2079800I-4100J0D01*
G01X2079617Y2012291D02*
G03X2079617I-4100J0D01*
G01X2085500Y2035500D02*
G03X2085500I-4100J0D01*
G01Y2045500D02*
G03X2085500I-4100J0D01*
G01Y2055500D02*
G03X2085500I-4100J0D01*
G01Y2065500D02*
G03X2085500I-4100J0D01*
G01Y2075500D02*
G03X2085500I-4100J0D01*
G01Y2085500D02*
G03X2085500I-4100J0D01*
G01Y2095500D02*
G03X2085500I-4100J0D01*
G01Y2105500D02*
G03X2085500I-4100J0D01*
G01Y2115500D02*
G03X2085500I-4100J0D01*
G01Y2125500D02*
G03X2085500I-4100J0D01*
G01X2081700Y2140700D02*
G03X2081700I-4100J0D01*
G01X2078153Y2152300D02*
G03X2078153I-2600J0D01*
G01X2067100Y1929500D02*
G03X2067100I-2600J0D01*
G01X2062083Y1937609D02*
G03X2062083I-4100J0D01*
G01Y1963200D02*
G03X2062083I-4100J0D01*
G01X2061900Y1986700D02*
G03X2061900I-4100J0D01*
G01Y2012291D02*
G03X2061900I-4100J0D01*
G01X2067100Y2111500D02*
G03X2067100I-2600J0D01*
G01X2071700Y2140700D02*
G03X2071700I-4100J0D01*
G01X2074808Y2157700D02*
G03X2074808I-2600J0D01*
G01X2081700Y2170700D02*
G03X2081700I-4100J0D01*
G01X2084800Y2185125D02*
G03X2084800I-2600J0D01*
G01Y2195125D02*
G03X2084800I-2600J0D01*
G01Y2205125D02*
G03X2084800I-2600J0D01*
G01X2083626Y2215055D02*
G03X2083626I-2600J0D01*
G01X2046100Y1887000D02*
G03X2046100I-2600J0D01*
G01X2046089Y1936142D02*
G03X2046089I-2600J0D01*
G01X2038100Y1895500D02*
G03X2038100I-2600J0D01*
G01X2049942Y1955370D02*
G03X2049942I-2600J0D01*
G01Y1965370D02*
G03X2049942I-2600J0D01*
G01Y1975370D02*
G03X2049942I-2600J0D01*
G01Y1985370D02*
G03X2049942I-2600J0D01*
G01Y1995370D02*
G03X2049942I-2600J0D01*
G01Y2005370D02*
G03X2049942I-2600J0D01*
G01Y2015370D02*
G03X2049942I-2600J0D01*
G01X2055500Y2035500D02*
G03X2055500I-4100J0D01*
G01Y2045500D02*
G03X2055500I-4100J0D01*
G01Y2055500D02*
G03X2055500I-4100J0D01*
G01Y2065500D02*
G03X2055500I-4100J0D01*
G01Y2075500D02*
G03X2055500I-4100J0D01*
G01Y2085500D02*
G03X2055500I-4100J0D01*
G01Y2095500D02*
G03X2055500I-4100J0D01*
G01X2044542Y1951299D02*
G03X2044542I-2600J0D01*
G01Y1961299D02*
G03X2044542I-2600J0D01*
G01Y1971299D02*
G03X2044542I-2600J0D01*
G01Y1981299D02*
G03X2044542I-2600J0D01*
G01Y1991299D02*
G03X2044542I-2600J0D01*
G01Y2001299D02*
G03X2044542I-2600J0D01*
G01Y2011299D02*
G03X2044542I-2600J0D01*
G01X2032100Y1900500D02*
G03X2032100I-2600J0D01*
G01X2026600Y1857000D02*
G03X2026600I-2600J0D01*
G01X2024100Y1865000D02*
G03X2024100I-2600J0D01*
G01X2031500Y1916400D02*
G03X2031500I-4100J0D01*
G01X2036089Y1936142D02*
G03X2036089I-2600J0D01*
G01X2032353Y1941542D02*
G03X2032353I-2600J0D01*
G01X2026089Y1936142D02*
G03X2026089I-2600J0D01*
G01X2032800Y2037716D02*
G03X2032800I-2600J0D01*
G01X2020600Y1891000D02*
G03X2020600I-2600J0D01*
G01X2018100Y1929500D02*
G03X2018100I-2600J0D01*
G01X2011000Y1879100D02*
G03X2011000I-2600J0D01*
G01X2012100Y1932000D02*
G03X2012100I-2600J0D01*
G01X2019100Y1958500D02*
G03X2019100I-2600J0D01*
G01X2055500Y2115500D02*
G03X2055500I-4100J0D01*
G01X2061700Y2140700D02*
G03X2061700I-4100J0D01*
G01X2071700Y2170700D02*
G03X2071700I-4100J0D01*
G01X2074100Y2215000D02*
G03X2074100I-2600J0D01*
G01X2078600Y2386500D02*
G03X2078600I-2600J0D01*
G01X2067100Y2192500D02*
G03X2067100I-2600J0D01*
G01X2051700Y2140700D02*
G03X2051700I-4100J0D01*
G01X2054808Y2157700D02*
G03X2054808I-2600J0D01*
G01X2061700Y2170700D02*
G03X2061700I-4100J0D01*
G01X2064100Y2208500D02*
G03X2064100I-2600J0D01*
G01X2068100Y2267500D02*
G03X2068100I-2600J0D01*
G01X2069900Y2309900D02*
G03X2069900I-4100J0D01*
G01Y2319900D02*
G03X2069900I-4100J0D01*
G01Y2329900D02*
G03X2069900I-4100J0D01*
G01Y2339900D02*
G03X2069900I-4100J0D01*
G01X2051700Y2170700D02*
G03X2051700I-4100J0D01*
G01X2056100Y2235500D02*
G03X2056100I-2600J0D01*
G01Y2263000D02*
G03X2056100I-2600J0D01*
G01X2059900Y2299900D02*
G03X2059900I-4100J0D01*
G01Y2309900D02*
G03X2059900I-4100J0D01*
G01Y2319900D02*
G03X2059900I-4100J0D01*
G01Y2329900D02*
G03X2059900I-4100J0D01*
G01Y2339900D02*
G03X2059900I-4100J0D01*
G01X2064100Y2357000D02*
G03X2064100I-2600J0D01*
G01X2054100Y2425000D02*
G03X2054100I-2600J0D01*
G01X2038200Y2071329D02*
G03X2038200I-2600J0D01*
G01X2032800Y2067716D02*
G03X2032800I-2600J0D01*
G01Y2087716D02*
G03X2032800I-2600J0D01*
G01X2038200Y2111329D02*
G03X2038200I-2600J0D01*
G01Y2121329D02*
G03X2038200I-2600J0D01*
G01Y2131329D02*
G03X2038200I-2600J0D01*
G01X2038885Y2142014D02*
G03X2038885I-2600J0D01*
G01X2038200Y2151329D02*
G03X2038200I-2600J0D01*
G01X2032800Y2107716D02*
G03X2032800I-2600J0D01*
G01Y2117716D02*
G03X2032800I-2600J0D01*
G01Y2127716D02*
G03X2032800I-2600J0D01*
G01Y2137716D02*
G03X2032800I-2600J0D01*
G01Y2147716D02*
G03X2032800I-2600J0D01*
G01X2034810Y2157512D02*
G03X2034810I-2600J0D01*
G01X2043100Y2202000D02*
G03X2043100I-2600J0D01*
G01X2046100Y2264000D02*
G03X2046100I-2600J0D01*
G01X2036100Y2200500D02*
G03X2036100I-2600J0D01*
G01X2040600Y2233500D02*
G03X2040600I-2600J0D01*
G01Y2366000D02*
G03X2040600I-2600J0D01*
G01X2044100Y2395500D02*
G03X2044100I-2600J0D01*
G01X2021100Y2086500D02*
G03X2021100I-2600J0D01*
G01X2026100Y2195500D02*
G03X2026100I-2600J0D01*
G01X2028600Y2264500D02*
G03X2028600I-2600J0D01*
G01X2027600Y2277500D02*
G03X2027600I-2600J0D01*
G01X2015100Y2066500D02*
G03X2015100I-2600J0D01*
G01X2006108Y1952492D02*
G03X2006108I-2600J0D01*
G01X2006100Y1960500D02*
G03X2006100I-2600J0D01*
G01X2009100Y1978500D02*
G03X2009100I-2600J0D01*
G01Y2142000D02*
G03X2009100I-2600J0D01*
G01X2003600Y2137000D02*
G03X2003600I-2600J0D01*
G01X2004100Y2159000D02*
G03X2004100I-2600J0D01*
G01X2012100Y2183500D02*
G03X2012100I-2600J0D01*
G01X2014100Y2193500D02*
G03X2014100I-2600J0D01*
G01X2011100Y2205500D02*
G03X2011100I-2600J0D01*
G01X1981100Y1965000D02*
G03X1981100I-2600J0D01*
G01X1995400Y2033300D02*
G03X1995400I-4100J0D01*
G01Y2043300D02*
G03X1995400I-4100J0D01*
G01Y2053300D02*
G03X1995400I-4100J0D01*
G01Y2063300D02*
G03X1995400I-4100J0D01*
G01Y2073300D02*
G03X1995400I-4100J0D01*
G01Y2083300D02*
G03X1995400I-4100J0D01*
G01Y2093300D02*
G03X1995400I-4100J0D01*
G01Y2103300D02*
G03X1995400I-4100J0D01*
G01Y2113300D02*
G03X1995400I-4100J0D01*
G01Y2123300D02*
G03X1995400I-4100J0D01*
G01X1971700Y1939600D02*
G03X1971700I-2600J0D01*
G01X2020000Y2230500D02*
G03X2020000I-13600J0D01*
G01X2023100Y2383500D02*
G03X2023100I-2600J0D01*
G01Y2443500D02*
G03X2023100I-2600J0D01*
G01X2007600Y2331000D02*
G03X2007600I-2600J0D01*
G01X1998100Y2267500D02*
G03X1998100I-2600J0D01*
G01X2002352Y2277500D02*
G03X2002352I-2600J0D01*
G01X1995800Y2278700D02*
G03X1995800I-2600J0D01*
G01X1999100Y2290000D02*
G03X1999100I-2600J0D01*
G01X1998600Y2350500D02*
G03X1998600I-2600J0D01*
G01X2003600Y2385500D02*
G03X2003600I-2600J0D01*
G01X1981100Y2083400D02*
G03X1981100I-4100J0D01*
G01Y2093400D02*
G03X1981100I-4100J0D01*
G01Y2103400D02*
G03X1981100I-4100J0D01*
G01Y2113400D02*
G03X1981100I-4100J0D01*
G01Y2123400D02*
G03X1981100I-4100J0D01*
G01X1984100Y2157000D02*
G03X1984100I-2600J0D01*
G01X1988822Y2167722D02*
G03X1988822I-2600J0D01*
G01X1993100Y2286500D02*
G03X1993100I-2600J0D01*
G01X1997100Y2415000D02*
G03X1997100I-2600J0D01*
G01X1987600Y2193500D02*
G03X1987600I-2600J0D01*
G01X1980600D02*
G03X1980600I-2600J0D01*
G01X1985600Y2244000D02*
G03X1985600I-2600J0D01*
G01X1972100Y2117000D02*
G03X1972100I-2600J0D01*
G01X1971300Y2166000D02*
G03X1971300I-2600J0D01*
G01X1971812Y2198288D02*
G03X1971812I-2600J0D01*
G01X1988100Y2358500D02*
G03X1988100I-2600J0D01*
G01X1978100Y2324000D02*
G03X1978100I-2600J0D01*
G01X1978902Y2338198D02*
G03X1978902I-2600J0D01*
G01X1961600Y1920500D02*
G03X1961600I-2600J0D01*
G01X1956100Y1876000D02*
G03X1956100I-2600J0D01*
G01X1962700Y2065000D02*
G03X1962700I-2600J0D01*
G01X1964100Y2085000D02*
G03X1964100I-2600J0D01*
G01X1964600Y2109500D02*
G03X1964600I-2600J0D01*
G01X1964100Y2154500D02*
G03X1964100I-2600J0D01*
G01X1965100Y2191000D02*
G03X1965100I-2600J0D01*
G01X1969200Y2269691D02*
G03X1969200I-2600J0D01*
G01X1972228Y2331872D02*
G03X1972228I-2600J0D01*
G01X1976100Y2356500D02*
G03X1976100I-2600J0D01*
G01X1970100Y2348000D02*
G03X1970100I-2600J0D01*
G01X1958600Y2121000D02*
G03X1958600I-2600J0D01*
G01X1961000Y2196000D02*
G03X1961000I-2600J0D01*
G01X1946212Y1946390D02*
G03X1946212I-2600J0D01*
G01X1947600Y2069000D02*
G03X1947600I-2600J0D01*
G01X1953200Y2137100D02*
G03X1953200I-4100J0D01*
G01Y2147100D02*
G03X1953200I-4100J0D01*
G01Y2157100D02*
G03X1953200I-4100J0D01*
G01Y2167100D02*
G03X1953200I-4100J0D01*
G01Y2177100D02*
G03X1953200I-4100J0D01*
G01X1961000Y2233500D02*
G03X1961000I-2600J0D01*
G01X1944600Y2117000D02*
G03X1944600I-2600J0D01*
G01X1954600Y2227500D02*
G03X1954600I-2600J0D01*
G01X1959800Y2263000D02*
G03X1959800I-2600J0D01*
G01X1964600Y2303000D02*
G03X1964600I-2600J0D01*
G01X1954000Y2305500D02*
G03X1954000I-2600J0D01*
G01X1957100Y2336000D02*
G03X1957100I-2600J0D01*
G01X1959600Y2358000D02*
G03X1959600I-2600J0D01*
G01X1956809Y2379700D02*
G03X1956809I-4100J0D01*
G01Y2397417D02*
G03X1956809I-4100J0D01*
G01X1941600Y2189000D02*
G03X1941600I-2600J0D01*
G01Y2208500D02*
G03X1941600I-2600J0D01*
G01X1945600Y2269500D02*
G03X1945600I-2600J0D01*
G01X1940100Y2254000D02*
G03X1940100I-2600J0D01*
G01X1934100Y1967500D02*
G03X1934100I-2600J0D01*
G01Y2222500D02*
G03X1934100I-2600J0D01*
G01X1932600Y2300500D02*
G03X1932600I-2600J0D01*
G01X1913500Y1885100D02*
G03X1913500I-4100J0D01*
G01Y1895100D02*
G03X1913500I-4100J0D01*
G01Y1905100D02*
G03X1913500I-4100J0D01*
G01X1924100Y1919000D02*
G03X1924100I-2600J0D01*
G01Y1977500D02*
G03X1924100I-2600J0D01*
G01X1919100Y2180500D02*
G03X1919100I-2600J0D01*
G01Y2260000D02*
G03X1919100I-2600J0D01*
G01X1913500Y1925100D02*
G03X1913500I-4100J0D01*
G01Y1935100D02*
G03X1913500I-4100J0D01*
G01Y1945100D02*
G03X1913500I-4100J0D01*
G01Y1955100D02*
G03X1913500I-4100J0D01*
G01Y1965100D02*
G03X1913500I-4100J0D01*
G01Y1975100D02*
G03X1913500I-4100J0D01*
G01Y1985100D02*
G03X1913500I-4100J0D01*
G01Y1995100D02*
G03X1913500I-4100J0D01*
G01Y2005100D02*
G03X1913500I-4100J0D01*
G01Y2015100D02*
G03X1913500I-4100J0D01*
G01Y2025100D02*
G03X1913500I-4100J0D01*
G01Y2035100D02*
G03X1913500I-4100J0D01*
G01Y2045100D02*
G03X1913500I-4100J0D01*
G01Y2055100D02*
G03X1913500I-4100J0D01*
G01Y2065100D02*
G03X1913500I-4100J0D01*
G01Y2075100D02*
G03X1913500I-4100J0D01*
G01Y2085100D02*
G03X1913500I-4100J0D01*
G01Y2095100D02*
G03X1913500I-4100J0D01*
G01Y2105100D02*
G03X1913500I-4100J0D01*
G01Y2115100D02*
G03X1913500I-4100J0D01*
G01Y2125100D02*
G03X1913500I-4100J0D01*
G01Y2135100D02*
G03X1913500I-4100J0D01*
G01Y2145100D02*
G03X1913500I-4100J0D01*
G01Y2155100D02*
G03X1913500I-4100J0D01*
G01Y2165100D02*
G03X1913500I-4100J0D01*
G01Y2175100D02*
G03X1913500I-4100J0D01*
G01Y2185100D02*
G03X1913500I-4100J0D01*
G01Y2195100D02*
G03X1913500I-4100J0D01*
G01Y2205100D02*
G03X1913500I-4100J0D01*
G01Y2215100D02*
G03X1913500I-4100J0D01*
G01Y2225100D02*
G03X1913500I-4100J0D01*
G01Y2235100D02*
G03X1913500I-4100J0D01*
G01Y2245100D02*
G03X1913500I-4100J0D01*
G01Y2255100D02*
G03X1913500I-4100J0D01*
G01Y2265100D02*
G03X1913500I-4100J0D01*
G01Y2275100D02*
G03X1913500I-4100J0D01*
G01Y2285100D02*
G03X1913500I-4100J0D01*
G01Y2295100D02*
G03X1913500I-4100J0D01*
G01Y2305100D02*
G03X1913500I-4100J0D01*
G01Y2315100D02*
G03X1913500I-4100J0D01*
G01Y2325100D02*
G03X1913500I-4100J0D01*
G01Y2335100D02*
G03X1913500I-4100J0D01*
G01Y2345100D02*
G03X1913500I-4100J0D01*
G01Y2355100D02*
G03X1913500I-4100J0D01*
G01Y2365100D02*
G03X1913500I-4100J0D01*
G01Y2375100D02*
G03X1913500I-4100J0D01*
G01Y2385100D02*
G03X1913500I-4100J0D01*
G01Y2395100D02*
G03X1913500I-4100J0D01*
G01Y2405100D02*
G03X1913500I-4100J0D01*
G01Y2415100D02*
G03X1913500I-4100J0D01*
G01Y2445100D02*
G03X1913500I-4100J0D01*
G01Y2455100D02*
G03X1913500I-4100J0D01*
G01X1994600Y1902000D02*
G03X1994600I-2600J0D01*
G01X1990100Y1912000D02*
G03X1990100I-2600J0D01*
G01X1995037Y1918495D02*
G03X1995037I-2600J0D01*
G01X1994100Y1935000D02*
G03X1994100I-2600J0D01*
G01X1982600Y1885000D02*
G03X1982600I-2600J0D01*
G01X1986528Y1918392D02*
G03X1986528I-2600J0D01*
G01X1985948Y1931397D02*
G03X1985948I-2600J0D01*
G01X1987525Y1962385D02*
G03X1987525I-2600J0D01*
G01X1974100Y1892500D02*
G03X1974100I-2600J0D01*
G01X1975600Y1920000D02*
G03X1975600I-2600J0D01*
G01X2087900Y2467300D02*
G03X2087400Y2467800I-500J0D01*
G01X1903300*
G03X1902800Y2467300I0J-500*
G01Y2303995*
G03X1903171Y2303512I500J0*
G01Y2298488D02*
G03Y2303512I-671J2512D01*
G01Y2298488D02*
G03X1902800Y2298005I129J-483D01*
G01Y1872400*
G03X1903300Y1871900I500J0*
G01X1957602*
G03X1958069Y1872577I-0J500*
G01X1961161Y1876015D02*
G03X1958069Y1872577I-661J-2515D01*
G01X1961161Y1876015D02*
G03X1961788Y1876498I127J483D01*
X1961725Y1876740I-500J0*
G01X1961400Y1878000D02*
G03X1961725Y1876740I2600J0D01*
G01X1961641Y1879093D02*
G03X1961400Y1878000I2359J-1093D01*
G01X1961641Y1879093D02*
G03X1960834Y1879657I-454J210D01*
G01X1961600Y1881500D02*
G03X1960834Y1879657I-2600J0D01*
G01X1961359Y1880407D02*
G03X1961600Y1881500I-2359J1093D01*
G01X1961359Y1880407D02*
G03X1962166Y1879843I454J-210D01*
G01X1963339Y1875485D02*
G03X1962166Y1879843I661J2515D01*
G01X1963339Y1875485D02*
G03X1962712Y1875002I-127J-483D01*
X1962775Y1874760I500J-0*
G01X1962429Y1871757D02*
G03X1962775Y1874760I-1929J1743D01*
G01X1962429Y1871757D02*
G03X1962300Y1871422I371J-335D01*
G01Y1832900*
G03X1962800Y1832400I500J0*
G01X1999900*
G03X2000400Y1832900I0J500*
G01Y1852220*
G03X2000239Y1852587I-500J-0*
G01Y1856413D02*
G03Y1852587I1761J-1913D01*
G01Y1856413D02*
G03X2000400Y1856780I-339J367D01*
G01Y1866000*
X2013904*
G03X2014081Y1866968I0J500*
G01X2012400Y1869400D02*
G03X2014081Y1866968I2600J0D01*
G01X2015726Y1866903D02*
G03X2012400Y1869400I-726J2497D01*
G01X2015726Y1866903D02*
G03X2015600Y1866000I140J-480D01*
G01Y1857266*
G03X2016326Y1856820I500J-0*
G01Y1852180D02*
G03Y1856820I1174J2320D01*
G01Y1852180D02*
G03X2015600Y1851734I-226J-446D01*
G01Y1833900*
G03X2016100Y1833400I500J0*
G01X2036400*
G03X2036900Y1833900I0J500*
G01Y1851602*
G03X2036577Y1852069I-500J-0*
G01Y1856931D02*
G03Y1852069I923J-2431D01*
G01Y1856931D02*
G03X2036900Y1857398I-177J467D01*
G01Y1872300*
X2083316*
G03X2083668Y1873155I-0J500*
G01X2087094Y1877054D02*
G03X2083668Y1873155I-1594J-2054D01*
G01X2087094Y1877054D02*
G03X2087900Y1877450I306J396D01*
G01Y2351734*
G03X2087174Y2352180I-500J0*
G01Y2356820D02*
G03Y2352180I-1174J-2320D01*
G01Y2356820D02*
G03X2087900Y2357266I226J446D01*
G01Y2366602*
G03X2087577Y2367069I-500J-0*
G01Y2371931D02*
G03Y2367069I923J-2431D01*
G01Y2371931D02*
G03X2087900Y2372398I-177J467D01*
G01Y2467300*
X2071159Y1902738D02*
G03X2072000Y1904900I-2359J2162D01*
G01X2071159Y1902738D02*
G03X2071028Y1902400I369J-338D01*
X2071159Y1902062I500J0*
G01X2072000Y1899900D02*
G03X2071159Y1902062I-3200J-0D01*
G01Y1897738D02*
G03X2072000Y1899900I-2359J2162D01*
G01X2071159Y1897738D02*
G03X2071028Y1897400I369J-338D01*
X2071159Y1897062I500J0*
G01X2072000Y1894900D02*
G03X2071159Y1897062I-3200J-0D01*
G01Y1892738D02*
G03X2072000Y1894900I-2359J2162D01*
G01X2071159Y1892738D02*
G03X2071028Y1892400I369J-338D01*
X2071159Y1892062I500J0*
G01X2072000Y1889900D02*
G03X2071159Y1892062I-3200J-0D01*
G01Y1887738D02*
G03X2072000Y1889900I-2359J2162D01*
G01X2071159Y1887738D02*
G03X2071028Y1887400I369J-338D01*
X2071159Y1887062I500J0*
G01X2066638Y1882541D02*
G03X2071159Y1887062I2162J2359D01*
G01X2066638Y1882541D02*
G03X2065962I-338J-369D01*
G01X2060600Y1884900D02*
G03X2065962Y1882541I3200J0D01*
G01X2061441Y1887062D02*
G03X2060600Y1884900I2359J-2162D01*
G01X2061441Y1887062D02*
G03X2061572Y1887400I-369J338D01*
X2061441Y1887738I-500J0*
G01X2060600Y1889900D02*
G03X2061441Y1887738I3200J0D01*
G01Y1892062D02*
G03X2060600Y1889900I2359J-2162D01*
G01X2061441Y1892062D02*
G03X2061572Y1892400I-369J338D01*
X2061441Y1892738I-500J0*
G01X2060600Y1894900D02*
G03X2061441Y1892738I3200J0D01*
G01Y1897062D02*
G03X2060600Y1894900I2359J-2162D01*
G01X2061441Y1897062D02*
G03X2061572Y1897400I-369J338D01*
X2061441Y1897738I-500J0*
G01X2060600Y1899900D02*
G03X2061441Y1897738I3200J0D01*
G01Y1902062D02*
G03X2060600Y1899900I2359J-2162D01*
G01X2061441Y1902062D02*
G03X2061572Y1902400I-369J338D01*
X2061441Y1902738I-500J0*
G01X2065962Y1907259D02*
G03X2061441Y1902738I-2162J-2359D01*
G01X2065962Y1907259D02*
G03X2066638I338J369D01*
G01X2072000Y1904900D02*
G03X2066638Y1907259I-3200J0D01*
G01X2079800Y1937609D02*
G03X2079800I-4100J0D01*
G01Y1963200D02*
G03X2079800I-4100J0D01*
G01X2081100Y1991000D02*
X2081100D01*
X2079641Y1988664D02*
G03X2081100Y1991000I-1141J2336D01*
G01X2079641Y1988664D02*
G03X2079388Y1988050I219J-450D01*
G01X2075426Y1990799D02*
G03X2079388Y1988050I91J-4099D01*
G01X2075426Y1990799D02*
G03X2075912Y1991251I-12J500D01*
G01X2081100Y1991000D02*
G03X2075912Y1991251I-2600J0D01*
G01X2079617Y2012291D02*
G03X2079617I-4100J0D01*
G01X2085500Y2035500D02*
G03X2085500I-4100J0D01*
G01Y2045500D02*
G03X2085500I-4100J0D01*
G01Y2055500D02*
G03X2085500I-4100J0D01*
G01Y2065500D02*
G03X2085500I-4100J0D01*
G01Y2075500D02*
G03X2085500I-4100J0D01*
G01Y2085500D02*
G03X2085500I-4100J0D01*
G01Y2095500D02*
G03X2085500I-4100J0D01*
G01Y2105500D02*
G03X2085500I-4100J0D01*
G01Y2115500D02*
G03X2085500I-4100J0D01*
G01Y2125500D02*
G03X2085500I-4100J0D01*
G01X2081700Y2140700D02*
G03X2081700I-4100J0D01*
G01X2078153Y2152300D02*
G03X2078153I-2600J0D01*
G01X2067100Y1929500D02*
G03X2067100I-2600J0D01*
G01X2062083Y1937609D02*
G03X2062083I-4100J0D01*
G01Y1963200D02*
G03X2062083I-4100J0D01*
G01X2061900Y1986700D02*
G03X2061900I-4100J0D01*
G01Y2012291D02*
G03X2061900I-4100J0D01*
G01X2067100Y2111500D02*
G03X2067100I-2600J0D01*
G01X2071700Y2140700D02*
G03X2071700I-4100J0D01*
G01X2074808Y2157700D02*
G03X2074808I-2600J0D01*
G01X2081700Y2170700D02*
G03X2081700I-4100J0D01*
G01X2084800Y2185125D02*
G03X2084800I-2600J0D01*
G01Y2195125D02*
G03X2084800I-2600J0D01*
G01Y2205125D02*
G03X2084800I-2600J0D01*
G01X2083626Y2215055D02*
G03X2083626I-2600J0D01*
G01X2046100Y1887000D02*
G03X2046100I-2600J0D01*
G01X2046089Y1936142D02*
G03X2046089I-2600J0D01*
G01X2038100Y1895500D02*
G03X2038100I-2600J0D01*
G01X2045008Y1944223D02*
G03X2044066Y1944082I-448J-221D01*
G01X2042337Y1942038D02*
G03X2044066Y1944082I-837J2462D01*
G01X2042337Y1942038D02*
G03X2042001Y1941507I161J-473D01*
G01X2042019Y1941208D02*
G03X2042001Y1941507I-2601J-0D01*
G01X2042019Y1941208D02*
X2042019D01*
X2038582Y1943669D02*
G03X2042019Y1941208I836J-2461D01*
G01X2038582Y1943669D02*
G03X2038917Y1944200I-161J474D01*
G01X2038900Y1944500D02*
G03X2038917Y1944200I2600J-0D01*
G01X2038900Y1944500D02*
X2038900D01*
X2043833Y1945647D02*
G03X2038900Y1944500I-2333J-1147D01*
G01X2043833Y1945647D02*
G03X2044775Y1945787I449J221D01*
G01X2045008Y1944223D02*
G03X2044775Y1945787I2334J1147D01*
G01X2049942Y1955370D02*
G03X2049942I-2600J0D01*
G01Y1965370D02*
G03X2049942I-2600J0D01*
G01Y1975370D02*
G03X2049942I-2600J0D01*
G01Y1985370D02*
G03X2049942I-2600J0D01*
G01Y1995370D02*
G03X2049942I-2600J0D01*
G01Y2005370D02*
G03X2049942I-2600J0D01*
G01Y2015370D02*
G03X2049942I-2600J0D01*
G01X2055500Y2035500D02*
G03X2055500I-4100J0D01*
G01Y2045500D02*
G03X2055500I-4100J0D01*
G01Y2055500D02*
G03X2055500I-4100J0D01*
G01Y2065500D02*
G03X2055500I-4100J0D01*
G01Y2075500D02*
G03X2055500I-4100J0D01*
G01Y2085500D02*
G03X2055500I-4100J0D01*
G01Y2095500D02*
G03X2055500I-4100J0D01*
G01X2047300Y2105500D02*
X2047300D01*
X2047303Y2105657D02*
G03X2047300Y2105500I4097J-157D01*
G01X2047303Y2105657D02*
G03Y2105677I-500J20D01*
X2046351Y2105890I-500J-0*
G01X2046598Y2107107D02*
G03X2046351Y2105890I-2598J-107D01*
G01X2046598Y2107107D02*
G03X2047565Y2106950I499J20D01*
G01X2047300Y2105500D02*
G03X2047565Y2106950I4100J0D01*
G01X2044542Y1951299D02*
G03X2044542I-2600J0D01*
G01Y1961299D02*
G03X2044542I-2600J0D01*
G01Y1971299D02*
G03X2044542I-2600J0D01*
G01Y1981299D02*
G03X2044542I-2600J0D01*
G01Y1991299D02*
G03X2044542I-2600J0D01*
G01Y2001299D02*
G03X2044542I-2600J0D01*
G01Y2011299D02*
G03X2044542I-2600J0D01*
G01X2041561Y2021951D02*
G03X2040830Y2021508I-231J-443D01*
G01X2040830*
G03X2040834Y2021446I500J-0*
G01X2040854Y2021128D02*
G03X2040834Y2021446I-2600J-0D01*
G01X2040768Y2020464D02*
G03X2040854Y2021128I-2514J664D01*
G01X2040768Y2020464D02*
G03X2041049Y2019879I483J-128D01*
G01X2037486Y2018164D02*
G03X2041049Y2019879I2514J-664D01*
G01X2037486Y2018164D02*
G03X2037204Y2018749I-483J127D01*
G01X2035664Y2021360D02*
G03X2037205Y2018749I2590J-232D01*
G01X2035664Y2021360D02*
G03X2035139Y2021904I-498J44D01*
G01X2032400Y2024500D02*
G03X2035139Y2021904I2600J0D01*
G01X2032407Y2024692D02*
G03X2032400Y2024500I2593J-192D01*
G01X2032407Y2024692D02*
G03X2031854Y2025226I-499J37D01*
G01X2032476Y2030248D02*
G03X2031854Y2025226I-905J-2438D01*
G01X2032476Y2030248D02*
G03X2033150Y2030717I174J469D01*
X2033140Y2030815I-500J-0*
G01X2033089Y2031329D02*
G03X2033140Y2030815I2600J0D01*
G01X2034784Y2028892D02*
G03X2033089Y2031329I905J2437D01*
G01X2034784Y2028892D02*
G03X2034110Y2028423I-174J-469D01*
X2034120Y2028324I500J0*
G01X2034171Y2027810D02*
G03X2034120Y2028324I-2600J0D01*
G01X2034164Y2027619D02*
G03X2034171Y2027810I-2593J191D01*
G01X2034164Y2027619D02*
G03X2034717Y2027085I499J-37D01*
G01X2037600Y2024500D02*
G03X2034717Y2027085I-2600J0D01*
G01X2037590Y2024268D02*
G03X2037600Y2024500I-2590J232D01*
G01X2037590Y2024268D02*
G03X2038114Y2023724I498J-45D01*
G01X2039453Y2023435D02*
G03X2038114Y2023724I-1199J-2307D01*
G01X2039453Y2023435D02*
G03X2040183Y2023879I230J444D01*
G01X2040183*
G03X2040180Y2023940I-500J-0*
G01X2040160Y2024258D02*
G03X2040180Y2023940I2600J0D01*
G01X2041561Y2021951D02*
G03X2040160Y2024258I1199J2307D01*
G01X2032100Y1900500D02*
G03X2032100I-2600J0D01*
G01X2026600Y1857000D02*
G03X2026600I-2600J0D01*
G01X2024100Y1865000D02*
G03X2024100I-2600J0D01*
G01X2031500Y1916400D02*
G03X2031500I-4100J0D01*
G01X2036089Y1936142D02*
G03X2036089I-2600J0D01*
G01X2040100Y2045500D02*
X2040100D01*
X2038297Y2043025D02*
G03X2040100Y2045500I-797J2475D01*
G01X2038297Y2043025D02*
G03X2037950Y2042549I153J-476D01*
X2037990Y2042352I500J0*
G01X2034803Y2043804D02*
G03X2037990Y2042352I797J-2475D01*
G01X2034803Y2043804D02*
G03X2035150Y2044280I-153J476D01*
X2035110Y2044477I-500J-0*
G01X2036335Y2047824D02*
G03X2035110Y2044477I1165J-2324D01*
G01X2036335Y2047824D02*
G03X2036609Y2048232I-224J447D01*
X2037071Y2048064I380J326*
G01X2040100Y2045500D02*
G03X2037071Y2048064I-2600J0D01*
G01X2032353Y1941542D02*
G03X2032353I-2600J0D01*
G01X2026089Y1936142D02*
G03X2026089I-2600J0D01*
G01X2028095Y1962359D02*
G03X2027680Y1961867I85J-492D01*
X2027990Y1961404I500J-0*
G01X2026275Y1961497D02*
G03X2027990Y1961404I725J-2497D01*
G01X2026275Y1961497D02*
G03X2026273Y1962458I-139J480D01*
G01X2024728Y1963290D02*
G03X2026273Y1962458I2672J3110D01*
G01X2024728Y1963290D02*
G03X2023934Y1963086I-326J-379D01*
G01X2022605Y1966353D02*
G03X2023934Y1963086I-1105J-2353D01*
G01X2022605Y1966353D02*
G03X2023316Y1966762I213J453D01*
G01X2028095Y1962359D02*
G03X2023316Y1966762I-695J4041D01*
G01X2032800Y2037716D02*
G03X2032800I-2600J0D01*
G01X2020600Y1891000D02*
G03X2020600I-2600J0D01*
G01X2018100Y1929500D02*
G03X2018100I-2600J0D01*
G01X2011000Y1879100D02*
G03X2011000I-2600J0D01*
G01X2012100Y1932000D02*
G03X2012100I-2600J0D01*
G01X2006329Y1938815D02*
G03X2005827Y1938095I-54J-497D01*
G01X2006100Y1936936D02*
G03X2005827Y1938095I-2600J-0D01*
G01X2006100Y1936936D02*
X2006100D01*
X2003778Y1939521D02*
G03X2006100Y1936936I-278J-2585D01*
G01X2003778Y1939521D02*
G03X2004280Y1940241I54J497D01*
G01X2004007Y1941400D02*
G03X2004280Y1940241I2600J-0D01*
G01X2004007Y1941400D02*
X2004007D01*
X2006329Y1938815D02*
G03X2004007Y1941400I278J2585D01*
G01X2011449Y1945497D02*
G03X2010965Y1945900I-490J-97D01*
G01X2013551Y1949003D02*
G03X2010965Y1945900I-2551J-503D01*
G01X2013551Y1949003D02*
G03X2014035Y1948600I490J97D01*
G01X2011449Y1945497D02*
G03X2014035Y1948600I2551J503D01*
G01X2019100Y1958500D02*
G03X2019100I-2600J0D01*
G01X2040100Y2055500D02*
X2040100D01*
X2038297Y2053025D02*
G03X2040100Y2055500I-797J2475D01*
G01X2038297Y2053025D02*
G03X2037950Y2052549I153J-476D01*
X2037990Y2052352I500J0*
G01X2036765Y2049005D02*
G03X2037990Y2052352I-1165J2324D01*
G01X2036765Y2049005D02*
G03X2036491Y2048597I224J-447D01*
X2036029Y2048765I-380J-326*
G01X2033018Y2051638D02*
G03X2036029Y2048765I2582J-309D01*
G01X2033018Y2051638D02*
G03X2033022Y2051697I-496J59D01*
G01X2033022*
G03X2032115Y2051988I-500J0*
G01X2031117Y2051152D02*
G03X2032115Y2051988I-1117J2348D01*
G01X2031117Y2051152D02*
G03X2030832Y2050701I215J-451D01*
X2031197Y2050219I500J-0*
G01X2028184Y2046526D02*
G03X2031197Y2050219I2312J1190D01*
G01X2028184Y2046526D02*
G03X2027345Y2046605I-445J-229D01*
G01X2022701Y2048037D02*
G03X2027345Y2046605I2595J167D01*
G01X2022701Y2048037D02*
G03X2022331Y2048488I-499J-33D01*
G01X2025595Y2051168D02*
G03X2022331Y2048488I-2595J-168D01*
G01X2025595Y2051168D02*
G03X2025965Y2050717I499J32D01*
G01X2027607Y2049394D02*
G03X2025965Y2050717I-2311J-1190D01*
G01X2027607Y2049394D02*
G03X2028446Y2049316I445J229D01*
G01X2029378Y2050064D02*
G03X2028446Y2049316I1118J-2348D01*
G01X2029378Y2050064D02*
G03X2029663Y2050515I-215J451D01*
X2029298Y2050996I-500J0*
G01X2028181Y2055358D02*
G03X2029298Y2050996I1819J-1858D01*
G01X2028181Y2055358D02*
G03X2028332Y2055716I-349J358D01*
X2028214Y2056038I-500J-0*
G01X2032019Y2055858D02*
G03X2028214Y2056038I-1819J1858D01*
G01X2032019Y2055858D02*
G03X2031868Y2055500I349J-358D01*
X2031986Y2055178I500J0*
G01X2032582Y2053191D02*
G03X2031986Y2055178I-2582J309D01*
G01X2032582Y2053191D02*
G03X2032578Y2053132I496J-59D01*
G01X2032578*
G03X2033485Y2052841I500J-0*
G01X2034803Y2053804D02*
G03X2033485Y2052841I797J-2475D01*
G01X2034803Y2053804D02*
G03X2035150Y2054280I-153J476D01*
X2035110Y2054477I-500J-0*
G01X2036335Y2057824D02*
G03X2035110Y2054477I1165J-2324D01*
G01X2036335Y2057824D02*
G03X2036609Y2058232I-224J447D01*
X2037071Y2058064I380J326*
G01X2040100Y2055500D02*
G03X2037071Y2058064I-2600J0D01*
G01X2039130Y2091930D02*
G03X2038743Y2092219I-455J-206D01*
X2038921Y2092669I-318J386*
G01X2038900Y2093000D02*
G03X2038921Y2092669I2600J-0D01*
G01X2039130Y2091930D02*
G03X2038900Y2093000I2370J1070D01*
G01X2055500Y2115500D02*
G03X2055500I-4100J0D01*
G01X2049094Y2122110D02*
G03X2048359Y2121907I-281J-413D01*
G01X2046693Y2125506D02*
G03X2048359Y2121907I-693J-2506D01*
G01X2046693Y2125506D02*
G03X2047323Y2125935I133J482D01*
G01X2049094Y2122110D02*
G03X2047323Y2125935I2306J3390D01*
G01X2061700Y2140700D02*
G03X2061700I-4100J0D01*
G01X2062987Y2151878D02*
G03X2062001I-493J-81D01*
G01X2060127Y2154806D02*
G03X2062001Y2151878I-692J-2506D01*
G01X2060127Y2154806D02*
G03X2060574Y2155677I133J482D01*
G01X2061516Y2155194D02*
G03X2060574Y2155677I692J2506D01*
G01X2061516Y2155194D02*
G03X2061069Y2154323I-133J-482D01*
G01X2062001Y2152722D02*
G03X2061068Y2154323I-2566J-422D01*
G01X2062001Y2152722D02*
G03X2062987I493J81D01*
G01Y2151878D02*
G03Y2152722I2566J422D01*
G01X2071700Y2170700D02*
G03X2071700I-4100J0D01*
G01X2074100Y2215000D02*
G03X2074100I-2600J0D01*
G01X2078600Y2386500D02*
G03X2078600I-2600J0D01*
G01X2067100Y2192500D02*
G03X2067100I-2600J0D01*
G01X2051700Y2140700D02*
G03X2051700I-4100J0D01*
G01X2054808Y2157700D02*
G03X2054808I-2600J0D01*
G01X2061700Y2170700D02*
G03X2061700I-4100J0D01*
G01X2064100Y2208500D02*
G03X2064100I-2600J0D01*
G01X2065577Y2230401D02*
G03X2065416Y2229433I15J-500D01*
G01X2064423Y2229599D02*
G03X2065416Y2229433I77J-2599D01*
G01X2064423Y2229599D02*
G03X2064584Y2230567I-15J500D01*
G01X2065577Y2230401D02*
G03X2064584Y2230567I-77J2599D01*
G01X2068100Y2267500D02*
G03X2068100I-2600J0D01*
G01X2069900Y2303500D02*
Y2296300D01*
X2069400Y2295800D02*
G03X2069900Y2296300I0J500D01*
G01X2069400Y2295800D02*
X2062200D01*
X2061700Y2296300D02*
G03X2062200Y2295800I500J0D01*
G01X2061700Y2296300D02*
Y2303500D01*
X2062200Y2304000D02*
G03X2061700Y2303500I0J-500D01*
G01X2062200Y2304000D02*
X2069400D01*
X2069900Y2303500D02*
G03X2069400Y2304000I-500J0D01*
G01X2069900Y2309900D02*
G03X2069900I-4100J0D01*
G01Y2319900D02*
G03X2069900I-4100J0D01*
G01Y2329900D02*
G03X2069900I-4100J0D01*
G01Y2339900D02*
G03X2069900I-4100J0D01*
G01X2043647Y2154287D02*
G03X2043233Y2155104I-385J318D01*
G01X2045089Y2156044D02*
G03X2043233Y2155104I-2004J1656D01*
G01X2045089Y2156044D02*
G03X2045503Y2155226I385J-319D01*
G01X2043648Y2154287D02*
G03X2045503Y2155226I2004J-1657D01*
G01X2051700Y2170700D02*
G03X2051700I-4100J0D01*
G01X2054700Y2215194D02*
G03Y2214306I231J-444D01*
G01X2052300D02*
G03X2054700I1200J-2306D01*
G01X2052300D02*
G03Y2215194I-231J444D01*
G01X2054700D02*
G03X2052300I-1200J2306D01*
G01X2056100Y2235500D02*
G03X2056100I-2600J0D01*
G01Y2263000D02*
G03X2056100I-2600J0D01*
G01X2059900Y2299900D02*
G03X2059900I-4100J0D01*
G01Y2309900D02*
G03X2059900I-4100J0D01*
G01Y2319900D02*
G03X2059900I-4100J0D01*
G01Y2329900D02*
G03X2059900I-4100J0D01*
G01Y2339900D02*
G03X2059900I-4100J0D01*
G01X2064100Y2357000D02*
G03X2064100I-2600J0D01*
G01X2054100Y2425000D02*
G03X2054100I-2600J0D01*
G01X2036765Y2059005D02*
G03X2036491Y2058597I224J-447D01*
X2036029Y2058765I-380J-326*
G01X2036765Y2059005D02*
G03X2036029Y2058765I-1165J2324D01*
G01X2038200Y2071329D02*
G03X2038200I-2600J0D01*
G01X2033402Y2079940D02*
G03X2033312Y2080046I-423J-267D01*
X2033269Y2080178I-491J-90*
G01X2033402Y2079940D02*
G03X2033269Y2080178I2198J1389D01*
G01X2038357Y2092110D02*
G03X2038179Y2091660I318J-386D01*
G01X2038200Y2091329D02*
G03X2038179Y2091660I-2600J0D01*
G01X2037970Y2092399D02*
G03X2038200Y2091329I-2370J-1070D01*
G01X2037970Y2092399D02*
G03X2038357Y2092110I455J206D01*
G01X2032800Y2067716D02*
G03X2032800I-2600J0D01*
G01X2032166Y2076599D02*
G03X2032044Y2076271I378J-328D01*
X2032134Y2075986I500J0*
G01X2028034Y2076201D02*
G03X2032134Y2075986I1966J-1701D01*
G01X2028034Y2076201D02*
G03X2028156Y2076529I-378J328D01*
X2028066Y2076814I-500J-0*
G01X2032398Y2079689D02*
G03X2028066Y2076814I-2198J-1389D01*
G01X2032398Y2079689D02*
G03X2032488Y2079583I423J267D01*
X2032531Y2079452I491J90*
G01X2032166Y2076599D02*
G03X2032531Y2079452I-1966J1701D01*
G01X2032800Y2087716D02*
G03X2032800I-2600J0D01*
G01X2030514Y2095346D02*
G03X2030042Y2094952I16J-499D01*
G01X2027415Y2098099D02*
G03X2030042Y2094952I85J-2599D01*
G01X2027415Y2098099D02*
G03X2027887Y2098493I-16J499D01*
G01X2032483Y2099539D02*
G03X2027887Y2098493I-2054J-1594D01*
G01X2032483Y2099539D02*
G03X2032652Y2099400I395J307D01*
X2032712Y2099189I499J28*
G01X2030514Y2095346D02*
G03X2032712Y2099189I-85J2599D01*
G01X2033546Y2099734D02*
G03X2033377Y2099874I-395J-306D01*
X2033317Y2100085I-499J-28*
G01X2033546Y2099734D02*
G03X2033317Y2100085I2054J1595D01*
G01X2038200Y2111329D02*
G03X2038200I-2600J0D01*
G01Y2121329D02*
G03X2038200I-2600J0D01*
G01Y2131329D02*
G03X2038200I-2600J0D01*
G01X2038885Y2142014D02*
G03X2038885I-2600J0D01*
G01X2038200Y2151329D02*
G03X2038200I-2600J0D01*
G01X2032800Y2107716D02*
G03X2032800I-2600J0D01*
G01Y2117716D02*
G03X2032800I-2600J0D01*
G01Y2127716D02*
G03X2032800I-2600J0D01*
G01Y2137716D02*
G03X2032800I-2600J0D01*
G01Y2147716D02*
G03X2032800I-2600J0D01*
G01X2034810Y2157512D02*
G03X2034810I-2600J0D01*
G01X2035590Y2178383D02*
G03X2035010I-290J-407D01*
G01X2030900Y2180500D02*
G03X2035010Y2178383I2600J0D01*
G01X2030900Y2180500D02*
X2030900D01*
X2030901Y2180557D02*
G03X2030900Y2180500I2599J-57D01*
G01X2030901Y2180557D02*
G03Y2180568I-500J11D01*
G01X2030901*
G03X2030563Y2181041I-500J0*
G01X2034009Y2183500D02*
G03X2030563Y2181041I-2600J0D01*
G01X2034009Y2183500D02*
X2034009D01*
X2034008Y2183443D02*
G03X2034009Y2183500I-2599J57D01*
G01X2034008Y2183443D02*
G03Y2183432I500J-11D01*
G01X2034008*
G03X2034346Y2182959I500J-0*
G01X2035010Y2182617D02*
G03X2034345Y2182959I-1510J-2117D01*
G01X2035010Y2182617D02*
G03X2035590I290J407D01*
G01Y2178383D02*
G03Y2182617I1510J2117D01*
G01X2043100Y2202000D02*
G03X2043100I-2600J0D01*
G01X2044155Y2211484D02*
G03Y2210516I126J-484D01*
G01X2042845D02*
G03X2044155I655J-2516D01*
G01X2042845D02*
G03Y2211484I-126J484D01*
G01X2044155D02*
G03X2042845I-655J2516D01*
G01X2046100Y2264000D02*
G03X2046100I-2600J0D01*
G01X2036100Y2200500D02*
G03X2036100I-2600J0D01*
G01X2040600Y2233500D02*
G03X2040600I-2600J0D01*
G01Y2366000D02*
G03X2040600I-2600J0D01*
G01X2044100Y2395500D02*
G03X2044100I-2600J0D01*
G01X2021100Y2086500D02*
G03X2021100I-2600J0D01*
G01X2020690Y2173098D02*
G03X2025890Y2173111I2600J13D01*
G01X2020690Y2173098D02*
G03X2020155Y2173594I-500J-2D01*
G01X2017376Y2176188D02*
G03X2020155Y2173594I2600J0D01*
G01X2022576Y2176202D02*
G03X2017376Y2176188I-2600J-14D01*
G01X2022576Y2176202D02*
G03X2023110Y2175705I500J2D01*
G01X2025890Y2173111D02*
G03X2023110Y2175705I-2600J0D01*
G01X2026100Y2195500D02*
G03X2026100I-2600J0D01*
G01X2028600Y2264500D02*
G03X2028600I-2600J0D01*
G01X2027600Y2277500D02*
G03X2027600I-2600J0D01*
G01X2015100Y2066500D02*
G03X2015100I-2600J0D01*
G01X2006108Y1952492D02*
G03X2006108I-2600J0D01*
G01X2006100Y1960500D02*
G03X2006100I-2600J0D01*
G01X2009100Y1978500D02*
G03X2009100I-2600J0D01*
G01Y2142000D02*
G03X2009100I-2600J0D01*
G01X2003600Y2137000D02*
G03X2003600I-2600J0D01*
G01X2004100Y2159000D02*
G03X2004100I-2600J0D01*
G01X2007844Y2165709D02*
G03X2010795Y2168285I350J2576D01*
G01X2007844Y2165709D02*
G03X2007281Y2165146I-68J-495D01*
G01X2002105Y2164795D02*
G03X2007281Y2165146I2600J0D01*
G01X2005055Y2167372D02*
G03X2002105Y2164795I-350J-2577D01*
G01X2005055Y2167372D02*
G03X2005618Y2167935I68J495D01*
G01X2010795Y2168285D02*
G03X2005618Y2167935I-2601J0D01*
G01X2012100Y2183500D02*
G03X2012100I-2600J0D01*
G01X2014100Y2193500D02*
G03X2014100I-2600J0D01*
G01X2011100Y2205500D02*
G03X2011100I-2600J0D01*
G01X1976419Y1931434D02*
G03X1976000Y1930950I80J-494D01*
G01X1971157Y1929684D02*
G03X1976000Y1930950I2243J1316D01*
G01X1971157Y1929684D02*
G03X1970243Y1929560I-431J-253D01*
G01X1967455Y1932815D02*
G03X1970243Y1929560I276J-2586D01*
G01X1967455Y1932815D02*
G03X1967902Y1933293I-53J497D01*
G01X1972640Y1934673D02*
G03X1967902Y1933293I-2140J-1477D01*
G01X1972640Y1934673D02*
G03X1973527Y1934803I411J284D01*
G01X1976419Y1931434D02*
G03X1973527Y1934803I-419J2566D01*
G01X1981100Y1965000D02*
G03X1981100I-2600J0D01*
G01X1995400Y2033300D02*
G03X1995400I-4100J0D01*
G01Y2043300D02*
G03X1995400I-4100J0D01*
G01Y2053300D02*
G03X1995400I-4100J0D01*
G01Y2063300D02*
G03X1995400I-4100J0D01*
G01Y2073300D02*
G03X1995400I-4100J0D01*
G01Y2083300D02*
G03X1995400I-4100J0D01*
G01Y2093300D02*
G03X1995400I-4100J0D01*
G01Y2103300D02*
G03X1995400I-4100J0D01*
G01Y2113300D02*
G03X1995400I-4100J0D01*
G01Y2123300D02*
G03X1995400I-4100J0D01*
G01X1995657Y2177133D02*
G03X1995067Y2176856I-134J-482D01*
G01X1993392Y2180427D02*
G03X1995067Y2176856I-696J-2505D01*
G01X1993392Y2180427D02*
G03X1993982Y2180704I134J482D01*
G01X1994037Y2180818D02*
G03X1993982Y2180704I2317J-1180D01*
G01X1994037Y2180818D02*
G03X1993909Y2181431I-445J227D01*
G01X1997879Y2182258D02*
G03X1993909Y2181431I-2317J1180D01*
G01X1997879Y2182258D02*
G03X1998007Y2181645I445J-227D01*
G01X1995657Y2177133D02*
G03X1998007Y2181645I697J2505D01*
G01X1971700Y1939600D02*
G03X1971700I-2600J0D01*
G01X1972701Y1975037D02*
G03X1972331Y1975488I-499J-33D01*
G01X1975595Y1978168D02*
G03X1972331Y1975488I-2595J-168D01*
G01X1975595Y1978168D02*
G03X1975965Y1977717I499J32D01*
G01X1972701Y1975037D02*
G03X1975965Y1977717I2595J167D01*
G01X1980606Y2046297D02*
G03X1980377Y2045876I271J-421D01*
X1980455Y2045607I500J0*
G01X1975354Y2039645D02*
G03X1980455Y2045607I1646J3755D01*
G01X1975354Y2039645D02*
G03X1974654Y2039187I-200J-458D01*
Y2039181I500J-0*
G01Y2039154D02*
G03Y2039181I-2600J-0D01*
G01Y2039154D02*
X1974654D01*
X1974121Y2037576D02*
G03X1974654Y2039154I-2067J1578D01*
G01X1974121Y2037576D02*
G03X1974788Y2036852I397J-303D01*
G01X1977319Y2029312D02*
G03X1974788Y2036852I-319J4088D01*
G01X1977319Y2029312D02*
G03X1976898Y2028619I39J-498D01*
G01X1973597Y2030040D02*
G03X1976898Y2028619I907J-2436D01*
G01X1973597Y2030040D02*
G03X1973922Y2030509I-175J469D01*
X1973811Y2030823I-500J-0*
G01X1972900Y2033400D02*
G03X1973811Y2030823I4100J0D01*
G01X1973919Y2036105D02*
G03X1972900Y2033400I3081J-2705D01*
G01X1973919Y2036105D02*
G03X1973303Y2036874I-376J330D01*
G01X1972475Y2041720D02*
G03X1973303Y2036874I-421J-2566D01*
G01X1972475Y2041720D02*
G03X1973056Y2042213I81J493D01*
G01X1973056*
G03X1973039Y2042342I-500J-0*
G01X1976244Y2047430D02*
G03X1973039Y2042342I756J-4030D01*
G01X1976244Y2047430D02*
G03X1976652Y2047921I-92J491D01*
G01X1976652*
G03X1976643Y2048012I-500J0*
G01X1976600Y2048484D02*
G03X1976643Y2048012I2600J-0D01*
G01X1976622Y2048819D02*
G03X1976600Y2048484I2578J-335D01*
G01X1976622Y2048819D02*
G03X1976626Y2048884I-496J65D01*
G01X1976626*
G03X1976221Y2049375I-500J-0*
G01X1981100Y2053400D02*
G03X1976221Y2049375I-4100J0D01*
G01X1980521Y2051299D02*
G03X1981100Y2053400I-3521J2101D01*
G01X1980521Y2051299D02*
G03X1980668Y2050630I429J-256D01*
G01X1980606Y2046297D02*
G03X1980668Y2050630I-1406J2187D01*
G01X1980858Y2066664D02*
G03X1980138Y2066215I-220J-449D01*
X1980243Y2065909I500J0*
G01X1979127Y2066905D02*
G03X1980243Y2065909I-2127J-3505D01*
G01X1979127Y2066905D02*
G03X1979808Y2067601I260J427D01*
G01X1979400Y2069000D02*
G03X1979808Y2067601I2600J0D01*
G01X1979400Y2069000D02*
X1979400D01*
X1979406Y2069180D02*
G03X1979400Y2069000I2594J-180D01*
G01X1979406Y2069180D02*
G03X1979407Y2069214I-499J34D01*
X1978700Y2069669I-500J0*
G01X1980917Y2072188D02*
G03X1978700Y2069669I-3917J1212D01*
G01X1980917Y2072188D02*
G03X1981492Y2071550I477J-148D01*
G01X1980858Y2066664D02*
G03X1981492Y2071550I1142J2336D01*
G01X1984400Y2144500D02*
X1984400D01*
X1984430Y2144896D02*
G03X1984400Y2144500I2570J-396D01*
G01X1984430Y2144896D02*
G03X1984436Y2144973I-494J77D01*
G01X1984436*
G03X1983590Y2145333I-500J-0*
G01X1984390Y2147210D02*
G03X1983590Y2145334I-2600J-0D01*
G01X1984390Y2147210D02*
X1984390D01*
X1984360Y2146813D02*
G03X1984390Y2147210I-2570J397D01*
G01X1984360Y2146813D02*
G03X1984354Y2146737I494J-76D01*
G01X1984354*
G03X1985200Y2146376I500J0*
G01X1984400Y2144500D02*
G03X1985200Y2146376I2600J0D01*
G01X1994366Y2196099D02*
G03X1994244Y2195771I378J-328D01*
X1994334Y2195486I500J0*
G01X1990234Y2195701D02*
G03X1994334Y2195486I1966J-1701D01*
G01X1990234Y2195701D02*
G03X1990356Y2196029I-378J328D01*
X1990266Y2196314I-500J-0*
G01X1994366Y2196099D02*
G03X1990266Y2196314I-1966J1701D01*
G01X2020000Y2230500D02*
G03X2020000I-13600J0D01*
G01X2013932Y2276607D02*
G03X2013388Y2276929I-469J-172D01*
G01X2015442Y2280393D02*
G03X2013388Y2276929I-2442J-893D01*
G01X2015442Y2280393D02*
G03X2015986Y2280071I469J172D01*
G01X2013932Y2276607D02*
G03X2015986Y2280071I2442J893D01*
G01X2018923Y2284640D02*
G03X2018392Y2284930I-456J-205D01*
G01X2020372Y2288564D02*
G03X2018392Y2284930I-2372J-1064D01*
G01X2020372Y2288564D02*
G03X2020904Y2288275I456J205D01*
G01X2018923Y2284640D02*
G03X2020904Y2288275I2373J1064D01*
G01X2023100Y2383500D02*
G03X2023100I-2600J0D01*
G01Y2443500D02*
G03X2023100I-2600J0D01*
G01X2007600Y2331000D02*
G03X2007600I-2600J0D01*
G01X1998100Y2267500D02*
G03X1998100I-2600J0D01*
G01X2002352Y2277500D02*
G03X2002352I-2600J0D01*
G01X1995800Y2278700D02*
G03X1995800I-2600J0D01*
G01X1999100Y2290000D02*
G03X1999100I-2600J0D01*
G01X1998600Y2350500D02*
G03X1998600I-2600J0D01*
G01X2003600Y2385500D02*
G03X2003600I-2600J0D01*
G01X1981100Y2083400D02*
G03X1981100I-4100J0D01*
G01Y2093400D02*
G03X1981100I-4100J0D01*
G01Y2103400D02*
G03X1981100I-4100J0D01*
G01Y2113400D02*
G03X1981100I-4100J0D01*
G01Y2123400D02*
G03X1981100I-4100J0D01*
G01X1984100Y2157000D02*
G03X1984100I-2600J0D01*
G01X1988822Y2167722D02*
G03X1988822I-2600J0D01*
G01X1983496Y2179404D02*
X1983496D01*
X1983501Y2179569D02*
G03X1983496Y2179404I2595J-165D01*
G01X1983501Y2179569D02*
G03X1983502Y2179601I-499J32D01*
X1983179Y2180069I-500J0*
G01X1982986Y2180150D02*
G03X1983179Y2180069I1114J2350D01*
G01X1982986Y2180150D02*
G03X1982273Y2179716I-214J-451D01*
G01X1977500Y2178382D02*
G03X1982273Y2179716I2174J1425D01*
G01X1977500Y2178382D02*
G03X1976765Y2178495I-419J-274D01*
G01X1977296Y2181935D02*
G03X1976765Y2178495I-2175J-1426D01*
G01X1977296Y2181935D02*
G03X1978030Y2181821I418J274D01*
G01X1980788Y2182157D02*
G03X1978030Y2181821I-1114J-2350D01*
G01X1980788Y2182157D02*
G03X1981502Y2182591I214J452D01*
G01X1986700Y2182500D02*
G03X1981502Y2182591I-2600J0D01*
G01X1986700Y2182500D02*
X1986700D01*
X1986695Y2182335D02*
G03X1986700Y2182500I-2595J165D01*
G01X1986695Y2182335D02*
G03X1986694Y2182303I499J-32D01*
X1987017Y2181836I500J0*
G01X1983496Y2179404D02*
G03X1987017Y2181836I2600J0D01*
G01X1993100Y2286500D02*
G03X1993100I-2600J0D01*
G01X1997100Y2415000D02*
G03X1997100I-2600J0D01*
G01X1987600Y2193500D02*
G03X1987600I-2600J0D01*
G01X1980600D02*
G03X1980600I-2600J0D01*
G01X1985600Y2244000D02*
G03X1985600I-2600J0D01*
G01X1978900Y2251500D02*
X1978900D01*
X1978936Y2251934D02*
G03X1978900Y2251500I2564J-434D01*
G01X1978936Y2251934D02*
G03X1978307Y2252498I-493J83D01*
G01X1980200Y2255000D02*
G03X1978307Y2252498I-2600J0D01*
G01X1980200Y2255000D02*
X1980200D01*
X1980164Y2254566D02*
G03X1980200Y2255000I-2564J434D01*
G01X1980164Y2254566D02*
G03X1980793Y2254002I493J-83D01*
G01X1978900Y2251500D02*
G03X1980793Y2254002I2600J0D01*
G01X1972100Y2117000D02*
G03X1972100I-2600J0D01*
G01X1971300Y2166000D02*
G03X1971300I-2600J0D01*
G01X1971812Y2198288D02*
G03X1971812I-2600J0D01*
G01X1973806Y2215027D02*
G03X1973000Y2214785I-325J-379D01*
G01X1972194Y2217473D02*
G03X1973000Y2214785I-1694J-1973D01*
G01X1972194Y2217473D02*
G03X1973000Y2217715I325J379D01*
G01X1973806Y2215027D02*
G03X1973000Y2217715I1694J1973D01*
G01X1970489Y2231989D02*
G03X1970274Y2230954I2385J-1035D01*
G01X1970489Y2231989D02*
G03X1969890Y2232668I-459J199D01*
G01X1966564Y2235164D02*
G03X1969890Y2232668I2600J0D01*
G01X1968049Y2237513D02*
G03X1966564Y2235164I1115J-2349D01*
G01X1968049Y2237513D02*
G03Y2238416I-215J451D01*
G01X1966564Y2240764D02*
G03X1968049Y2238416I2600J0D01*
G01X1969413Y2243353D02*
G03X1966564Y2240764I-249J-2589D01*
G01X1969413Y2243353D02*
G03X1969961Y2243850I48J497D01*
G01X1969961*
G03X1969949Y2243957I-500J0*
G01X1969890Y2244510D02*
G03X1969949Y2243957I2600J0D01*
G01X1969956Y2245095D02*
G03X1969890Y2244510I2534J-585D01*
G01X1969956Y2245095D02*
G03X1969969Y2245207I-487J112D01*
X1969427Y2245705I-500J-0*
G01X1966604Y2248296D02*
G03X1969427Y2245705I2600J-0D01*
G01X1967948Y2250572D02*
G03X1966604Y2248296I1256J-2276D01*
G01X1967948Y2250572D02*
G03X1968206Y2251010I-242J438D01*
X1968044Y2251378I-500J-0*
G01X1967200Y2253296D02*
G03X1968044Y2251378I2600J-0D01*
G01X1971057Y2251019D02*
G03X1967200Y2253296I-1257J2277D01*
G01X1971057Y2251019D02*
G03X1970798Y2250582I241J-437D01*
X1970961Y2250213I500J-0*
G01X1971804Y2248296D02*
G03X1970961Y2250213I-2600J-0D01*
G01X1971738Y2247711D02*
G03X1971804Y2248296I-2534J585D01*
G01X1971738Y2247711D02*
G03X1971725Y2247599I487J-112D01*
X1972268Y2247101I500J-0*
G01X1975090Y2244510D02*
G03X1972268Y2247101I-2600J0D01*
G01X1972241Y2241922D02*
G03X1975090Y2244510I249J2588D01*
G01X1972241Y2241922D02*
G03X1971693Y2241424I-48J-498D01*
G01X1971693*
G03X1971705Y2241318I500J0*
G01X1971764Y2240764D02*
G03X1971705Y2241318I-2600J0D01*
G01X1970280Y2238416D02*
G03X1971764Y2240764I-1116J2348D01*
G01X1970280Y2238416D02*
G03Y2237513I215J-452D01*
G01X1971550Y2234130D02*
G03X1970280Y2237513I-2386J1034D01*
G01X1971550Y2234130D02*
G03X1972148Y2233451I459J-199D01*
G01X1970274Y2230954D02*
G03X1972148Y2233451I2600J0D01*
G01X1980664Y2276624D02*
G03X1979761Y2276707I-471J-168D01*
G01X1979960Y2278888D02*
G03X1979761Y2276707I-2448J-876D01*
G01X1979960Y2278888D02*
G03X1980863Y2278805I471J168D01*
G01X1980664Y2276624D02*
G03X1980863Y2278805I2448J876D01*
G01X1988100Y2358500D02*
G03X1988100I-2600J0D01*
G01X1974696Y2292204D02*
X1974696D01*
X1974710Y2292483D02*
G03X1974696Y2292204I2586J-279D01*
G01X1974710Y2292483D02*
G03X1974713Y2292536I-497J53D01*
G01X1974713*
G03X1974405Y2292998I-500J0*
G01X1978000Y2295400D02*
G03X1974405Y2292998I-2600J0D01*
G01X1978000Y2295400D02*
X1978000D01*
X1977985Y2295122D02*
G03X1978000Y2295400I-2585J278D01*
G01X1977985Y2295122D02*
G03X1977982Y2295068I497J-54D01*
G01X1977982*
G03X1978291Y2294606I500J0*
G01X1974696Y2292204D02*
G03X1978291Y2294606I2600J0D01*
G01X1978100Y2324000D02*
G03X1978100I-2600J0D01*
G01X1978902Y2338198D02*
G03X1978902I-2600J0D01*
G01X1961600Y1920500D02*
G03X1961600I-2600J0D01*
G01X1958840Y1942825D02*
G03X1958999Y1943191I-341J366D01*
X1958812Y1943580I-500J-0*
G01X1962213Y1943704D02*
G03X1958812Y1943580I-1772J1903D01*
G01X1962213Y1943704D02*
G03X1962054Y1943339I341J-365D01*
X1962241Y1942949I500J-0*
G01X1958840Y1942825D02*
G03X1962241Y1942949I1772J-1903D01*
G01X1956100Y1876000D02*
G03X1956100I-2600J0D01*
G01X1960554Y1962222D02*
G03X1961100Y1963815I-2054J1593D01*
G01X1960554Y1962222D02*
G03Y1961609I396J-307D01*
G01X1961100Y1960015D02*
G03X1960554Y1961609I-2600J0D01*
G01X1959688Y1957703D02*
G03X1961100Y1960015I-1188J2312D01*
G01X1959688Y1957703D02*
G03Y1956813I228J-445D01*
G01X1957312D02*
G03X1959688I1188J-2313D01*
G01X1957312D02*
G03Y1957703I-228J445D01*
G01X1955900Y1960015D02*
G03X1957312Y1957703I2600J0D01*
G01X1956446Y1961609D02*
G03X1955900Y1960015I2054J-1594D01*
G01X1956446Y1961609D02*
G03Y1962222I-396J306D01*
G01X1955900Y1963815D02*
G03X1956446Y1962222I2600J0D01*
G01X1961100Y1963815D02*
G03X1955900I-2600J0D01*
G01X1962700Y2065000D02*
G03X1962700I-2600J0D01*
G01X1964100Y2085000D02*
G03X1964100I-2600J0D01*
G01X1964600Y2109500D02*
G03X1964600I-2600J0D01*
G01X1964100Y2154500D02*
G03X1964100I-2600J0D01*
G01X1965100Y2191000D02*
G03X1965100I-2600J0D01*
G01X1969200Y2269691D02*
G03X1969200I-2600J0D01*
G01X1972228Y2331872D02*
G03X1972228I-2600J0D01*
G01X1976100Y2356500D02*
G03X1976100I-2600J0D01*
G01X1979782Y2375877D02*
G03X1979463Y2375411I181J-466D01*
X1979485Y2375264I500J0*
G01X1974400Y2374500D02*
G03X1979485Y2375264I2600J-0D01*
G01X1975167Y2376344D02*
G03X1974400Y2374500I1833J-1844D01*
G01X1975167Y2376344D02*
G03X1975314Y2376698I-353J354D01*
X1975193Y2377025I-500J0*
G01X1979782Y2375877D02*
G03X1975193Y2377025I-1482J3823D01*
G01X1970100Y2348000D02*
G03X1970100I-2600J0D01*
G01X1974054Y2394594D02*
G03X1974145Y2394504I395J307D01*
X1974199Y2394387I477J150*
G01X1974054Y2394594D02*
G03X1974199Y2394387I-2054J-1594D01*
G01X1975022Y2394954D02*
G03X1974926Y2395051I-400J-300D01*
X1974867Y2395174I-477J-150*
G01X1974200Y2397417D02*
G03X1974867Y2395174I4100J-0D01*
G01X1975022Y2394954D02*
G03X1974200Y2397417I3278J2463D01*
G01X1958600Y2121000D02*
G03X1958600I-2600J0D01*
G01X1961000Y2196000D02*
G03X1961000I-2600J0D01*
G01X1944150Y1936641D02*
G03X1942924Y1934434I1374J-2207D01*
G01X1944150Y1936641D02*
G03X1944386Y1937066I-264J425D01*
X1944024Y1937546I-500J-0*
G01X1947341Y1940045D02*
G03X1944024Y1937546I-2600J0D01*
G01X1946115Y1937838D02*
G03X1947341Y1940045I-1374J2207D01*
G01X1946115Y1937838D02*
G03X1945879Y1937413I264J-425D01*
X1946241Y1936933I500J0*
G01X1942924Y1934434D02*
G03X1946241Y1936933I2600J-0D01*
G01X1946212Y1946390D02*
G03X1946212I-2600J0D01*
G01X1950562Y1954916D02*
G03X1950458Y1954611I396J-305D01*
G01X1950458*
G03X1950562Y1954307I500J0*
G01X1946438D02*
G03X1950562I2062J-1584D01*
G01X1946438D02*
G03X1946542Y1954611I-396J304D01*
G01X1946542*
G03X1946438Y1954916I-500J0*
G01X1946197Y1957706D02*
G03X1946438Y1954916I2303J-1206D01*
G01X1946197Y1957706D02*
G03X1946036Y1958352I-443J232D01*
G01X1949803Y1959294D02*
G03X1946036Y1958352I-2303J1206D01*
G01X1949803Y1959294D02*
G03X1949964Y1958648I443J-232D01*
G01X1950562Y1954916D02*
G03X1949964Y1958648I-2062J1584D01*
G01X1947600Y2069000D02*
G03X1947600I-2600J0D01*
G01X1953200Y2137100D02*
G03X1953200I-4100J0D01*
G01Y2147100D02*
G03X1953200I-4100J0D01*
G01Y2157100D02*
G03X1953200I-4100J0D01*
G01Y2167100D02*
G03X1953200I-4100J0D01*
G01Y2177100D02*
G03X1953200I-4100J0D01*
G01X1957495Y2209880D02*
G03X1956706Y2209472I-289J-408D01*
X1956713Y2209388I500J-0*
G01X1956750Y2208950D02*
G03X1956713Y2209388I-2600J0D01*
G01X1956750Y2208950D02*
X1956750D01*
X1955655Y2211070D02*
G03X1956750Y2208950I-1505J-2120D01*
G01X1955655Y2211070D02*
G03X1956444Y2211478I289J408D01*
X1956437Y2211562I-500J0*
G01X1956400Y2212000D02*
G03X1956437Y2211562I2600J-0D01*
G01X1956400Y2212000D02*
X1956400D01*
X1957495Y2209880D02*
G03X1956400Y2212000I1505J2120D01*
G01X1961000Y2233500D02*
G03X1961000I-2600J0D01*
G01X1944600Y2117000D02*
G03X1944600I-2600J0D01*
G01X1948637Y2211932D02*
G03X1948233Y2211120I-12J-500D01*
G01X1946263Y2212099D02*
G03X1948233Y2211120I-63J-2599D01*
G01X1946263Y2212099D02*
G03X1946667Y2212911I12J500D01*
G01X1948637Y2211932D02*
G03X1946667Y2212911I63J2599D01*
G01X1954600Y2227500D02*
G03X1954600I-2600J0D01*
G01X1958313Y2244650D02*
G03X1958027Y2244198I214J-452D01*
X1958280Y2243763I500J0*
G01X1957365Y2238926D02*
G03X1958280Y2243763I-365J2574D01*
G01X1957365Y2238926D02*
G03X1956939Y2238489I70J-495D01*
G01X1953991Y2241364D02*
G03X1956939Y2238489I365J-2574D01*
G01X1953991Y2241364D02*
G03X1954417Y2241801I-70J495D01*
G01X1955887Y2243850D02*
G03X1954417Y2241801I1113J-2350D01*
G01X1955887Y2243850D02*
G03X1956173Y2244302I-214J452D01*
X1955920Y2244737I-500J-0*
G01X1958313Y2244650D02*
G03X1955920Y2244737I-1113J2350D01*
G01X1959800Y2263000D02*
G03X1959800I-2600J0D01*
G01X1964600Y2303000D02*
G03X1964600I-2600J0D01*
G01X1959900Y2362500D02*
X1959900D01*
Y2362532D02*
G03Y2362500I2600J-32D01*
G01Y2362532D02*
G03Y2362538I-500J6D01*
G01X1959900*
G03X1959013Y2362855I-500J0*
G01X1959600Y2364500D02*
G03X1959013Y2362855I-2600J0D01*
G01X1959600Y2364500D02*
X1959600D01*
Y2364468D02*
G03Y2364500I-2600J32D01*
G01Y2364468D02*
G03Y2364462I500J-6D01*
G01X1959600*
G03X1960487Y2364145I500J-0*
G01X1959900Y2362500D02*
G03X1960487Y2364145I2600J0D01*
G01X1954000Y2305500D02*
G03X1954000I-2600J0D01*
G01X1957100Y2336000D02*
G03X1957100I-2600J0D01*
G01X1959600Y2358000D02*
G03X1959600I-2600J0D01*
G01X1956809Y2379700D02*
G03X1956809I-4100J0D01*
G01Y2397417D02*
G03X1956809I-4100J0D01*
G01X1941600Y2189000D02*
G03X1941600I-2600J0D01*
G01Y2208500D02*
G03X1941600I-2600J0D01*
G01X1938900Y2216965D02*
G03X1938497Y2217449I-500J-6D01*
G01X1941600Y2220035D02*
G03X1938497Y2217449I-2600J-35D01*
G01X1941600Y2220035D02*
G03X1942003Y2219551I500J6D01*
G01X1938900Y2216965D02*
G03X1942003Y2219551I2600J35D01*
G01X1945600Y2269500D02*
G03X1945600I-2600J0D01*
G01X1940100Y2254000D02*
G03X1940100I-2600J0D01*
G01X1934100Y1967500D02*
G03X1934100I-2600J0D01*
G01Y2222500D02*
G03X1934100I-2600J0D01*
G01X1932600Y2300500D02*
G03X1932600I-2600J0D01*
G01X1913500Y1885100D02*
G03X1913500I-4100J0D01*
G01Y1895100D02*
G03X1913500I-4100J0D01*
G01Y1905100D02*
G03X1913500I-4100J0D01*
G01X1914015Y1913236D02*
G03X1913087Y1913307I-478J-147D01*
G01X1913457Y1915693D02*
G03X1913087Y1913307I-4057J-593D01*
G01X1913457Y1915693D02*
G03X1914363Y1915481I495J72D01*
G01X1914015Y1913236D02*
G03X1914363Y1915481I2485J764D01*
G01X1924100Y1919000D02*
G03X1924100I-2600J0D01*
G01Y1977500D02*
G03X1924100I-2600J0D01*
G01X1919100Y2180500D02*
G03X1919100I-2600J0D01*
G01Y2260000D02*
G03X1919100I-2600J0D01*
G01X1913500Y1925100D02*
G03X1913500I-4100J0D01*
G01Y1935100D02*
G03X1913500I-4100J0D01*
G01Y1945100D02*
G03X1913500I-4100J0D01*
G01Y1955100D02*
G03X1913500I-4100J0D01*
G01Y1965100D02*
G03X1913500I-4100J0D01*
G01Y1975100D02*
G03X1913500I-4100J0D01*
G01Y1985100D02*
G03X1913500I-4100J0D01*
G01Y1995100D02*
G03X1913500I-4100J0D01*
G01Y2005100D02*
G03X1913500I-4100J0D01*
G01Y2015100D02*
G03X1913500I-4100J0D01*
G01Y2025100D02*
G03X1913500I-4100J0D01*
G01Y2035100D02*
G03X1913500I-4100J0D01*
G01Y2045100D02*
G03X1913500I-4100J0D01*
G01Y2055100D02*
G03X1913500I-4100J0D01*
G01Y2065100D02*
G03X1913500I-4100J0D01*
G01Y2075100D02*
G03X1913500I-4100J0D01*
G01Y2085100D02*
G03X1913500I-4100J0D01*
G01Y2095100D02*
G03X1913500I-4100J0D01*
G01Y2105100D02*
G03X1913500I-4100J0D01*
G01Y2115100D02*
G03X1913500I-4100J0D01*
G01Y2125100D02*
G03X1913500I-4100J0D01*
G01Y2135100D02*
G03X1913500I-4100J0D01*
G01Y2145100D02*
G03X1913500I-4100J0D01*
G01Y2155100D02*
G03X1913500I-4100J0D01*
G01Y2165100D02*
G03X1913500I-4100J0D01*
G01Y2175100D02*
G03X1913500I-4100J0D01*
G01Y2185100D02*
G03X1913500I-4100J0D01*
G01Y2195100D02*
G03X1913500I-4100J0D01*
G01Y2205100D02*
G03X1913500I-4100J0D01*
G01Y2215100D02*
G03X1913500I-4100J0D01*
G01Y2225100D02*
G03X1913500I-4100J0D01*
G01Y2235100D02*
G03X1913500I-4100J0D01*
G01Y2245100D02*
G03X1913500I-4100J0D01*
G01Y2255100D02*
G03X1913500I-4100J0D01*
G01Y2265100D02*
G03X1913500I-4100J0D01*
G01Y2275100D02*
G03X1913500I-4100J0D01*
G01Y2285100D02*
G03X1913500I-4100J0D01*
G01Y2295100D02*
G03X1913500I-4100J0D01*
G01Y2305100D02*
G03X1913500I-4100J0D01*
G01Y2315100D02*
G03X1913500I-4100J0D01*
G01Y2325100D02*
G03X1913500I-4100J0D01*
G01Y2335100D02*
G03X1913500I-4100J0D01*
G01Y2345100D02*
G03X1913500I-4100J0D01*
G01Y2355100D02*
G03X1913500I-4100J0D01*
G01Y2365100D02*
G03X1913500I-4100J0D01*
G01Y2375100D02*
G03X1913500I-4100J0D01*
G01Y2385100D02*
G03X1913500I-4100J0D01*
G01Y2395100D02*
G03X1913500I-4100J0D01*
G01Y2405100D02*
G03X1913500I-4100J0D01*
G01Y2415100D02*
G03X1913500I-4100J0D01*
G01X1909981Y2431041D02*
G03X1909559Y2430458I70J-495D01*
G01X1909600Y2430000D02*
G03X1909559Y2430458I-2600J-0D01*
G01X1909600Y2430000D02*
X1909600D01*
X1909583Y2429706D02*
G03X1909600Y2430000I-2583J294D01*
G01X1909583Y2429706D02*
G03X1910006Y2429155I497J-57D01*
G01X1905825Y2427107D02*
G03X1910006Y2429155I3575J-2007D01*
G01X1905825Y2427107D02*
G03X1905889Y2427352I-436J245D01*
X1905649Y2427779I-500J-0*
G01X1905722Y2432264D02*
G03X1905649Y2427779I1278J-2264D01*
G01X1905722Y2432264D02*
G03X1905976Y2432700I-246J436D01*
X1905902Y2432960I-500J-0*
G01X1909981Y2431041D02*
G03X1905902Y2432960I-581J4059D01*
G01X1913500Y2445100D02*
G03X1913500I-4100J0D01*
G01Y2455100D02*
G03X1913500I-4100J0D01*
G01X1987549Y1853634D02*
G03X1986903Y1853936I-472J-167D01*
G01X1985475Y1853828D02*
G03X1986903Y1853936I525J2546D01*
G01X1985475Y1853828D02*
G03X1984910Y1853525I-101J-490D01*
G01X1979984Y1853845D02*
G03X1984910Y1853525I2516J655D01*
G01X1979984Y1853845D02*
G03X1979016I-484J-126D01*
G01X1973984D02*
G03X1979016I2516J655D01*
G01X1973984D02*
G03X1973016I-484J-126D01*
G01X1968823Y1852513D02*
G03X1973016Y1853845I1677J1987D01*
G01X1968823Y1852513D02*
G03X1968177I-323J-382D01*
G01Y1856487D02*
G03Y1852513I-1677J-1987D01*
G01Y1856487D02*
G03X1968823I323J382D01*
G01X1973016Y1855155D02*
G03X1968823Y1856487I-2516J-655D01*
G01X1973016Y1855155D02*
G03X1973984I484J126D01*
G01X1979016D02*
G03X1973984I-2516J-655D01*
G01X1979016D02*
G03X1979984I484J126D01*
G01X1983025Y1857046D02*
G03X1979984Y1855155I-525J-2546D01*
G01X1983025Y1857046D02*
G03X1983590Y1857349I101J490D01*
G01X1988451Y1857240D02*
G03X1983590Y1857349I-2451J-866D01*
G01X1988451Y1857240D02*
G03X1989097Y1856938I472J167D01*
G01X1987549Y1853634D02*
G03X1989097Y1856938I2451J866D01*
G01X1994600Y1902000D02*
G03X1994600I-2600J0D01*
G01X1990100Y1912000D02*
G03X1990100I-2600J0D01*
G01X1995037Y1918495D02*
G03X1995037I-2600J0D01*
G01X1994100Y1935000D02*
G03X1994100I-2600J0D01*
G01X1982600Y1885000D02*
G03X1982600I-2600J0D01*
G01X1986528Y1918392D02*
G03X1986528I-2600J0D01*
G01X1985948Y1931397D02*
G03X1985948I-2600J0D01*
G01X1987525Y1962385D02*
G03X1987525I-2600J0D01*
G01X1989706Y1982417D02*
G03X1989168Y1981786I-57J-497D01*
G01X1989262Y1981091D02*
G03X1989168Y1981786I-2600J0D01*
G01X1988149Y1978958D02*
G03X1989262Y1981091I-1487J2133D01*
G01X1988149Y1978958D02*
G03X1987935Y1978548I286J-410D01*
X1988526Y1978056I500J0*
G01X1987513Y1977633D02*
G03X1988526Y1978056I1487J-2133D01*
G01X1987513Y1977633D02*
G03X1987727Y1978043I-286J410D01*
X1987136Y1978535I-500J0*
G01X1984883Y1979195D02*
G03X1987136Y1978535I1779J1896D01*
G01X1984883Y1979195D02*
G03X1984082Y1978632I-342J-364D01*
G01X1983475Y1979496D02*
G03X1984082Y1978632I-1779J-1896D01*
G01X1983475Y1979496D02*
G03X1984276Y1980059I342J365D01*
G01X1984062Y1981091D02*
G03X1984276Y1980059I2600J0D01*
G01X1984153Y1981773D02*
G03X1984062Y1981091I2509J-682D01*
G01X1984153Y1981773D02*
G03X1983643Y1982404I-482J132D01*
G01X1980900Y1985000D02*
G03X1983643Y1982404I2600J0D01*
G01X1986100Y1985000D02*
G03X1980900I-2600J0D01*
G01X1986009Y1984318D02*
G03X1986100Y1985000I-2509J682D01*
G01X1986009Y1984318D02*
G03X1986519Y1983687I482J-132D01*
G01X1986956Y1983675D02*
G03X1986519Y1983687I-294J-2584D01*
G01X1986956Y1983675D02*
G03X1987495Y1984305I57J496D01*
G01X1987400Y1985000D02*
G03X1987495Y1984305I2600J-0D01*
G01X1989706Y1982417D02*
G03X1987400Y1985000I294J2583D01*
G01X1974100Y1892500D02*
G03X1974100I-2600J0D01*
G01X1975600Y1920000D02*
G03X1975600I-2600J0D01*
G01X1902800Y2466899D02*
X2087900D01*
X1902800Y2465999D02*
X2087900D01*
X1902800Y2465099D02*
X2087900D01*
X1902800Y2464199D02*
X2087900D01*
X1902800Y2463299D02*
X2087900D01*
X1902800Y2462399D02*
X2087900D01*
X1902800Y2461499D02*
X2087900D01*
X1902800Y2460599D02*
X2087900D01*
X1902800Y2459699D02*
X2087900D01*
X1911169Y2458799D02*
X2087900D01*
X1912396Y2457899D02*
X2087900D01*
X1913034Y2456999D02*
X2087900D01*
X1913377Y2456099D02*
X2087900D01*
X1913499Y2455199D02*
X2087900D01*
X1913421Y2454299D02*
X2087900D01*
X1913130Y2453399D02*
X2087900D01*
X1912569Y2452499D02*
X2087900D01*
X1911533Y2451599D02*
X2087900D01*
X1902800Y2450699D02*
X2087900D01*
X1902800Y2449799D02*
X2087900D01*
X1910943Y2448899D02*
X2087900D01*
X1912300Y2447999D02*
X2087900D01*
X1912980Y2447099D02*
X2087900D01*
X1913350Y2446199D02*
X2087900D01*
X2022377Y2445299D02*
X2087900D01*
X2022940Y2444399D02*
X2087900D01*
X2023100Y2443499D02*
X2087900D01*
X2022939Y2442599D02*
X2087900D01*
X2022375Y2441699D02*
X2087900D01*
X1902800Y2440799D02*
X2087900D01*
X1902800Y2439899D02*
X2087900D01*
X1910669Y2438999D02*
X2087900D01*
X1912196Y2438099D02*
X2087900D01*
X1912922Y2437199D02*
X2087900D01*
X1913321Y2436299D02*
X2087900D01*
X1913489Y2435399D02*
X2087900D01*
X1913456Y2434499D02*
X2087900D01*
X1913215Y2433599D02*
X2087900D01*
X1912723Y2432699D02*
X2087900D01*
X1911831Y2431799D02*
X2087900D01*
X1909697Y2430899D02*
X2087900D01*
X1909600Y2429999D02*
X2087900D01*
X1910306Y2429099D02*
X2087900D01*
X1912085Y2428199D02*
X2087900D01*
X2052715Y2427299D02*
X2087900D01*
X2053692Y2426399D02*
X2087900D01*
X2054052Y2425499D02*
X2087900D01*
X2054069Y2424599D02*
X2087900D01*
X2053751Y2423699D02*
X2087900D01*
X2052884Y2422799D02*
X2087900D01*
X1911962Y2421899D02*
X2087900D01*
X1902800Y2420999D02*
X2087900D01*
X1902800Y2420099D02*
X2087900D01*
X1909505Y2419199D02*
X2087900D01*
X1911965Y2418299D02*
X2087900D01*
X1995503Y2417399D02*
X2087900D01*
X1996625Y2416499D02*
X2087900D01*
X1997030Y2415599D02*
X2087900D01*
X1997083Y2414699D02*
X2087900D01*
X1996806Y2413799D02*
X2087900D01*
X1996031Y2412899D02*
X2087900D01*
X1912082Y2411999D02*
X2087900D01*
X1910294Y2411099D02*
X2087900D01*
X1902800Y2410199D02*
X2087900D01*
X1902800Y2409299D02*
X2087900D01*
X1911835Y2408399D02*
X2087900D01*
X1912725Y2407499D02*
X2087900D01*
X1913216Y2406599D02*
X2087900D01*
X1913456Y2405699D02*
X2087900D01*
X1913489Y2404799D02*
X2087900D01*
X1913320Y2403899D02*
X2087900D01*
X1912921Y2402999D02*
X2087900D01*
X1912193Y2402099D02*
X2087900D01*
X1979883Y2401199D02*
X2087900D01*
X1981216Y2400299D02*
X2087900D01*
X1981889Y2399399D02*
X2087900D01*
X1982255Y2398499D02*
X2087900D01*
X2043035Y2397599D02*
X2087900D01*
X2043807Y2396699D02*
X2087900D01*
X2044083Y2395799D02*
X2087900D01*
X2044030Y2394899D02*
X2087900D01*
X2043623Y2393999D02*
X2087900D01*
X2042497Y2393099D02*
X2087900D01*
X1974473Y2392199D02*
X2087900D01*
X1973966Y2391299D02*
X2087900D01*
X1902800Y2390399D02*
X2087900D01*
X1902800Y2389499D02*
X2087900D01*
X2077535Y2388599D02*
X2087900D01*
X2078307Y2387699D02*
X2087900D01*
X2078583Y2386799D02*
X2087900D01*
X2078530Y2385899D02*
X2087900D01*
X2078123Y2384999D02*
X2087900D01*
X2076997Y2384099D02*
X2087900D01*
X2023083Y2383199D02*
X2087900D01*
X2022806Y2382299D02*
X2087900D01*
X2022031Y2381399D02*
X2087900D01*
X1982321Y2380499D02*
X2087900D01*
X1982399Y2379599D02*
X2087900D01*
X1982276Y2378699D02*
X2087900D01*
X1981933Y2377799D02*
X2087900D01*
X1981294Y2376899D02*
X2087900D01*
X1980064Y2375999D02*
X2087900D01*
X1979530Y2375099D02*
X2087900D01*
X1979583Y2374199D02*
X2087900D01*
X1979306Y2373299D02*
X2087900D01*
X1978531Y2372399D02*
X2087900D01*
X2040598Y2366099D02*
X2087900D01*
X2040473Y2365199D02*
X2087900D01*
X2039966Y2364299D02*
X2087900D01*
X1964940Y2363399D02*
X2087900D01*
X1965100Y2362499D02*
X2087900D01*
X1964939Y2361599D02*
X2087900D01*
X1986888Y2360699D02*
X2087900D01*
X1987752Y2359799D02*
X2087900D01*
X2063276Y2358899D02*
X2087900D01*
X2063901Y2357999D02*
X2087900D01*
X1998307Y2351699D02*
X2087900D01*
X1998583Y2350799D02*
X2087900D01*
X1998530Y2349899D02*
X2087900D01*
X1998123Y2348999D02*
X2087900D01*
X1996997Y2348099D02*
X2087900D01*
X1969973Y2347199D02*
X2087900D01*
X1969466Y2346299D02*
X2087900D01*
X1913489Y2345399D02*
X2087900D01*
X1913456Y2344499D02*
X2087900D01*
X2067569Y2343599D02*
X2087900D01*
X2068796Y2342699D02*
X2087900D01*
X2069434Y2341799D02*
X2087900D01*
X2069777Y2340899D02*
X2087900D01*
X2069899Y2339999D02*
X2087900D01*
X2069821Y2339099D02*
X2087900D01*
X2069530Y2338199D02*
X2087900D01*
X2068969Y2337299D02*
X2087900D01*
X2067933Y2336399D02*
X2087900D01*
X1957051Y2335499D02*
X2087900D01*
X1956690Y2334599D02*
X2087900D01*
X2067343Y2333699D02*
X2087900D01*
X2068700Y2332799D02*
X2087900D01*
X2069380Y2331899D02*
X2087900D01*
X2069750Y2330999D02*
X2087900D01*
X2069895Y2330099D02*
X2087900D01*
X2069840Y2329199D02*
X2087900D01*
X2069574Y2328299D02*
X2087900D01*
X2069049Y2327399D02*
X2087900D01*
X2068089Y2326499D02*
X2087900D01*
X1977550Y2325599D02*
X2087900D01*
X1978004Y2324699D02*
X2087900D01*
X2067069Y2323799D02*
X2087900D01*
X2068596Y2322899D02*
X2087900D01*
X2069322Y2321999D02*
X2087900D01*
X2069721Y2321099D02*
X2087900D01*
X2069889Y2320199D02*
X2087900D01*
X2069856Y2319299D02*
X2087900D01*
X2069615Y2318399D02*
X2087900D01*
X2069123Y2317499D02*
X2087900D01*
X2068231Y2316599D02*
X2087900D01*
X1913456Y2315699D02*
X2087900D01*
X1913489Y2314799D02*
X2087900D01*
X2066706Y2313899D02*
X2087900D01*
X2068485Y2312999D02*
X2087900D01*
X2069261Y2312099D02*
X2087900D01*
X2069689Y2311199D02*
X2087900D01*
X2069881Y2310299D02*
X2087900D01*
X2069869Y2309399D02*
X2087900D01*
X2069653Y2308499D02*
X2087900D01*
X2069193Y2307599D02*
X2087900D01*
X2068362Y2306699D02*
X2087900D01*
X1953983Y2305799D02*
X2087900D01*
X1963776Y2304899D02*
X2087900D01*
X2069436Y2303999D02*
X2087900D01*
X2069900Y2303099D02*
X2087900D01*
X2069900Y2302199D02*
X2087900D01*
X2069900Y2301299D02*
X2087900D01*
X2069900Y2300399D02*
X2087900D01*
X2069900Y2299499D02*
X2087900D01*
X2069900Y2298599D02*
X2087900D01*
X2069900Y2297699D02*
X2087900D01*
X2069900Y2296799D02*
X2087900D01*
X2069698Y2295899D02*
X2087900D01*
X1977987Y2294999D02*
X2087900D01*
X1979077Y2294099D02*
X2087900D01*
X1979698Y2293199D02*
X2087900D01*
X1997715Y2292299D02*
X2087900D01*
X1998692Y2291399D02*
X2087900D01*
X1999052Y2290499D02*
X2087900D01*
X2019535Y2289599D02*
X2087900D01*
X2020307Y2288699D02*
X2087900D01*
X2022836Y2287799D02*
X2087900D01*
X2023605Y2286899D02*
X2087900D01*
X2023879Y2285999D02*
X2087900D01*
X2023824Y2285099D02*
X2087900D01*
X2023415Y2284199D02*
X2087900D01*
X2022282Y2283299D02*
X2087900D01*
X1912484Y2282399D02*
X2087900D01*
X2014663Y2281499D02*
X2087900D01*
X2015356Y2280599D02*
X2087900D01*
X2026388Y2279699D02*
X2087900D01*
X2027252Y2278799D02*
X2087900D01*
X2027569Y2277899D02*
X2087900D01*
X2027551Y2276999D02*
X2087900D01*
X2027190Y2276099D02*
X2087900D01*
X2026210Y2275199D02*
X2087900D01*
X1913421Y2274299D02*
X2087900D01*
X1913130Y2273399D02*
X2087900D01*
X1912569Y2272499D02*
X2087900D01*
X1968366Y2271599D02*
X2087900D01*
X1968997Y2270699D02*
X2087900D01*
X2066715Y2269799D02*
X2087900D01*
X2067692Y2268899D02*
X2087900D01*
X2068052Y2267999D02*
X2087900D01*
X2068069Y2267099D02*
X2087900D01*
X2067751Y2266199D02*
X2087900D01*
X2066884Y2265299D02*
X2087900D01*
X2055692Y2264399D02*
X2087900D01*
X2056052Y2263499D02*
X2087900D01*
X2056069Y2262599D02*
X2087900D01*
X2055751Y2261699D02*
X2087900D01*
X2054884Y2260799D02*
X2087900D01*
X1919098Y2259899D02*
X2087900D01*
X1918899Y2258999D02*
X2087900D01*
X1918273Y2258099D02*
X2087900D01*
X1978988Y2257199D02*
X2087900D01*
X1979852Y2256299D02*
X2087900D01*
X1980169Y2255399D02*
X2087900D01*
X1980157Y2254499D02*
X2087900D01*
X1983035Y2253599D02*
X2087900D01*
X1983807Y2252699D02*
X2087900D01*
X1984083Y2251799D02*
X2087900D01*
X1984030Y2250899D02*
X2087900D01*
X1983623Y2249999D02*
X2087900D01*
X1982497Y2249099D02*
X2087900D01*
X1971803Y2248199D02*
X2087900D01*
X1971825Y2247299D02*
X2087900D01*
X1984003Y2246399D02*
X2087900D01*
X1985125Y2245499D02*
X2087900D01*
X1985530Y2244599D02*
X2087900D01*
X2009680Y2243699D02*
X2087900D01*
X2012205Y2242799D02*
X2087900D01*
X2013818Y2241899D02*
X2087900D01*
X2015045Y2240999D02*
X2087900D01*
X2016035Y2240099D02*
X2087900D01*
X2016854Y2239199D02*
X2087900D01*
X2017542Y2238299D02*
X2087900D01*
X2055276Y2237399D02*
X2087900D01*
X2055901Y2236499D02*
X2087900D01*
X2065583Y2235599D02*
X2087900D01*
X2067468Y2234699D02*
X2087900D01*
X2067974Y2233799D02*
X2087900D01*
X2068098Y2232899D02*
X2087900D01*
X2067899Y2231999D02*
X2087900D01*
X2067273Y2231099D02*
X2087900D01*
X2065190Y2230199D02*
X2087900D01*
X2065715Y2229299D02*
X2087900D01*
X2066692Y2228399D02*
X2087900D01*
X2067052Y2227499D02*
X2087900D01*
X2067069Y2226599D02*
X2087900D01*
X2066751Y2225699D02*
X2087900D01*
X2065884Y2224799D02*
X2087900D01*
X2018290Y2223899D02*
X2087900D01*
X2017744Y2222999D02*
X2087900D01*
X2017095Y2222099D02*
X2087900D01*
X2016322Y2221199D02*
X2087900D01*
X2015394Y2220299D02*
X2087900D01*
X2055276Y2219399D02*
X2087900D01*
X2055901Y2218499D02*
X2087900D01*
X2081566Y2217599D02*
X2087900D01*
X2083041Y2216699D02*
X2087900D01*
X2083518Y2215799D02*
X2087900D01*
X2083622Y2214899D02*
X2087900D01*
X2083402Y2213999D02*
X2087900D01*
X2082738Y2213099D02*
X2087900D01*
X2056092Y2212199D02*
X2087900D01*
X2056004Y2211299D02*
X2087900D01*
X2063276Y2210399D02*
X2087900D01*
X2063901Y2209499D02*
X2087900D01*
X2064098Y2208599D02*
X2087900D01*
X2082566Y2207699D02*
X2087900D01*
X2084189Y2206799D02*
X2087900D01*
X2084682Y2205899D02*
X2087900D01*
X2084797Y2204999D02*
X2087900D01*
X2084589Y2204099D02*
X2087900D01*
X2083947Y2203199D02*
X2087900D01*
X2043083Y2202299D02*
X2087900D01*
X2043030Y2201399D02*
X2087900D01*
X2042623Y2200499D02*
X2087900D01*
X2041497Y2199599D02*
X2087900D01*
X2035375Y2198699D02*
X2087900D01*
X2024715Y2197799D02*
X2087900D01*
X2084101Y2196899D02*
X2087900D01*
X2084649Y2195999D02*
X2087900D01*
X2084800Y2195099D02*
X2087900D01*
X2084630Y2194199D02*
X2087900D01*
X2084051Y2193299D02*
X2087900D01*
X2067098Y2192399D02*
X2087900D01*
X2066899Y2191499D02*
X2087900D01*
X2066273Y2190599D02*
X2087900D01*
X1964751Y2189699D02*
X2087900D01*
X1963884Y2188799D02*
X2087900D01*
X1941355Y2187899D02*
X2087900D01*
X2084002Y2186999D02*
X2087900D01*
X2084611Y2186099D02*
X2087900D01*
X2084799Y2185199D02*
X2087900D01*
X2084665Y2184299D02*
X2087900D01*
X2084145Y2183399D02*
X2087900D01*
X2038763Y2182499D02*
X2087900D01*
X2039456Y2181599D02*
X2087900D01*
X2039692Y2180699D02*
X2087900D01*
X2039604Y2179799D02*
X2087900D01*
X2039148Y2178899D02*
X2087900D01*
X2037810Y2177999D02*
X2087900D01*
X2022411Y2177099D02*
X2087900D01*
X2022576Y2176199D02*
X2087900D01*
X2024696Y2175299D02*
X2087900D01*
X2079369Y2174399D02*
X2087900D01*
X2080596Y2173499D02*
X2087900D01*
X2081234Y2172599D02*
X2087900D01*
X2081577Y2171699D02*
X2087900D01*
X2081699Y2170799D02*
X2087900D01*
X2081621Y2169899D02*
X2087900D01*
X2081330Y2168999D02*
X2087900D01*
X2080769Y2168099D02*
X2087900D01*
X2079733Y2167199D02*
X2087900D01*
X2009872Y2166299D02*
X2087900D01*
X2007312Y2165399D02*
X2087900D01*
X2007288Y2164499D02*
X2087900D01*
X2007013Y2163599D02*
X2087900D01*
X2006242Y2162699D02*
X2087900D01*
X1911831Y2161799D02*
X2087900D01*
X2003276Y2160899D02*
X2087900D01*
X2073423Y2159999D02*
X2087900D01*
X2074400Y2159099D02*
X2087900D01*
X2074760Y2158199D02*
X2087900D01*
X2074777Y2157299D02*
X2087900D01*
X2074459Y2156399D02*
X2087900D01*
X2073591Y2155499D02*
X2087900D01*
X2076768Y2154599D02*
X2087900D01*
X2077745Y2153699D02*
X2087900D01*
X2078104Y2152799D02*
X2087900D01*
X2078122Y2151899D02*
X2087900D01*
X2077804Y2150999D02*
X2087900D01*
X2076936Y2150099D02*
X2087900D01*
X2037091Y2149199D02*
X2087900D01*
X2032734Y2148299D02*
X2087900D01*
X2032781Y2147399D02*
X2087900D01*
X2032498Y2146499D02*
X2087900D01*
X2031709Y2145599D02*
X2087900D01*
X2078506Y2144699D02*
X2087900D01*
X2080285Y2143799D02*
X2087900D01*
X2081061Y2142899D02*
X2087900D01*
X2081489Y2141999D02*
X2087900D01*
X2081681Y2141099D02*
X2087900D01*
X2081669Y2140199D02*
X2087900D01*
X2081453Y2139299D02*
X2087900D01*
X2080993Y2138399D02*
X2087900D01*
X2080162Y2137499D02*
X2087900D01*
X2032548Y2136599D02*
X2087900D01*
X2031840Y2135699D02*
X2087900D01*
X2002384Y2134799D02*
X2087900D01*
X2035996Y2133899D02*
X2087900D01*
X2037593Y2132999D02*
X2087900D01*
X2038083Y2132099D02*
X2087900D01*
X2038197Y2131199D02*
X2087900D01*
X2037987Y2130299D02*
X2087900D01*
X2082669Y2129399D02*
X2087900D01*
X2084196Y2128499D02*
X2087900D01*
X2084922Y2127599D02*
X2087900D01*
X2085321Y2126699D02*
X2087900D01*
X2085489Y2125799D02*
X2087900D01*
X2085456Y2124899D02*
X2087900D01*
X2085215Y2123999D02*
X2087900D01*
X2084723Y2123099D02*
X2087900D01*
X2083831Y2122199D02*
X2087900D01*
X2047966Y2121299D02*
X2087900D01*
X2038028Y2120399D02*
X2087900D01*
X2082306Y2119499D02*
X2087900D01*
X2084085Y2118599D02*
X2087900D01*
X2084861Y2117699D02*
X2087900D01*
X2085289Y2116799D02*
X2087900D01*
X2085481Y2115899D02*
X2087900D01*
X2085469Y2114999D02*
X2087900D01*
X2085253Y2114099D02*
X2087900D01*
X2084793Y2113199D02*
X2087900D01*
X2083962Y2112299D02*
X2087900D01*
X2067098Y2111399D02*
X2087900D01*
X2066899Y2110499D02*
X2087900D01*
X2081505Y2109599D02*
X2087900D01*
X2083965Y2108699D02*
X2087900D01*
X2084795Y2107799D02*
X2087900D01*
X2085254Y2106899D02*
X2087900D01*
X2085470Y2105999D02*
X2087900D01*
X2085480Y2105099D02*
X2087900D01*
X2085288Y2104199D02*
X2087900D01*
X2084859Y2103299D02*
X2087900D01*
X2084082Y2102399D02*
X2087900D01*
X2082294Y2101499D02*
X2087900D01*
X2038095Y2100599D02*
X2087900D01*
X2037625Y2099699D02*
X2087900D01*
X2083835Y2098799D02*
X2087900D01*
X2084725Y2097899D02*
X2087900D01*
X2085216Y2096999D02*
X2087900D01*
X2085456Y2096099D02*
X2087900D01*
X2085489Y2095199D02*
X2087900D01*
X2085320Y2094299D02*
X2087900D01*
X2084921Y2093399D02*
X2087900D01*
X2084193Y2092499D02*
X2087900D01*
X2082661Y2091599D02*
X2087900D01*
X2042710Y2090699D02*
X2087900D01*
X2037702Y2089799D02*
X2087900D01*
X2083693Y2088899D02*
X2087900D01*
X2084651Y2087999D02*
X2087900D01*
X2085175Y2087099D02*
X2087900D01*
X2085440Y2086199D02*
X2087900D01*
X2085495Y2085299D02*
X2087900D01*
X2085349Y2084399D02*
X2087900D01*
X2084978Y2083499D02*
X2087900D01*
X2084297Y2082599D02*
X2087900D01*
X2082936Y2081699D02*
X2087900D01*
X2038145Y2080799D02*
X2087900D01*
X2037771Y2079899D02*
X2087900D01*
X2083538Y2078999D02*
X2087900D01*
X2084571Y2078099D02*
X2087900D01*
X2085132Y2077199D02*
X2087900D01*
X2085421Y2076299D02*
X2087900D01*
X2085499Y2075399D02*
X2087900D01*
X2085376Y2074499D02*
X2087900D01*
X2085033Y2073599D02*
X2087900D01*
X2084394Y2072699D02*
X2087900D01*
X2083164Y2071799D02*
X2087900D01*
X2038164Y2070899D02*
X2087900D01*
X2037834Y2069999D02*
X2087900D01*
X2083365Y2069099D02*
X2087900D01*
X2084487Y2068199D02*
X2087900D01*
X2085084Y2067299D02*
X2087900D01*
X2085400Y2066399D02*
X2087900D01*
X2085500Y2065499D02*
X2087900D01*
X2085400Y2064599D02*
X2087900D01*
X2085083Y2063699D02*
X2087900D01*
X2084484Y2062799D02*
X2087900D01*
X2083360Y2061899D02*
X2087900D01*
X2038179Y2060999D02*
X2087900D01*
X2037890Y2060099D02*
X2087900D01*
X2083169Y2059199D02*
X2087900D01*
X2084396Y2058299D02*
X2087900D01*
X2085034Y2057399D02*
X2087900D01*
X2085377Y2056499D02*
X2087900D01*
X2085499Y2055599D02*
X2087900D01*
X2085421Y2054699D02*
X2087900D01*
X2085130Y2053799D02*
X2087900D01*
X2084569Y2052899D02*
X2087900D01*
X2083533Y2051999D02*
X2087900D01*
X2038190Y2051099D02*
X2087900D01*
X2037941Y2050199D02*
X2087900D01*
X2082943Y2049299D02*
X2087900D01*
X2084300Y2048399D02*
X2087900D01*
X2084980Y2047499D02*
X2087900D01*
X2085350Y2046599D02*
X2087900D01*
X2085495Y2045699D02*
X2087900D01*
X2085440Y2044799D02*
X2087900D01*
X2085174Y2043899D02*
X2087900D01*
X2084649Y2042999D02*
X2087900D01*
X2083689Y2042099D02*
X2087900D01*
X2038197Y2041199D02*
X2087900D01*
X2037987Y2040299D02*
X2087900D01*
X2082669Y2039399D02*
X2087900D01*
X2084196Y2038499D02*
X2087900D01*
X2084922Y2037599D02*
X2087900D01*
X2085321Y2036699D02*
X2087900D01*
X2085489Y2035799D02*
X2087900D01*
X2085456Y2034899D02*
X2087900D01*
X2085215Y2033999D02*
X2087900D01*
X2084723Y2033099D02*
X2087900D01*
X2083831Y2032199D02*
X2087900D01*
X2038289Y2031299D02*
X2087900D01*
X2038117Y2030399D02*
X2087900D01*
X2037535Y2029499D02*
X2087900D01*
X2034142Y2028599D02*
X2087900D01*
X2034169Y2027699D02*
X2087900D01*
X2043314Y2026799D02*
X2087900D01*
X2044777Y2025899D02*
X2087900D01*
X2045252Y2024999D02*
X2087900D01*
X2045355Y2024099D02*
X2087900D01*
X2045134Y2023199D02*
X2087900D01*
X2044469Y2022299D02*
X2087900D01*
X2040840Y2021399D02*
X2087900D01*
X2040777Y2020499D02*
X2087900D01*
X2041535Y2019599D02*
X2087900D01*
X2042307Y2018699D02*
X2087900D01*
X2048269Y2017799D02*
X2087900D01*
X2049445Y2016899D02*
X2087900D01*
X2077266Y2015999D02*
X2087900D01*
X2078504Y2015099D02*
X2087900D01*
X2079145Y2014199D02*
X2087900D01*
X2079491Y2013299D02*
X2087900D01*
X2079615Y2012399D02*
X2087900D01*
X2079539Y2011499D02*
X2087900D01*
X2079251Y2010599D02*
X2087900D01*
X2078693Y2009699D02*
X2087900D01*
X2077665Y2008799D02*
X2087900D01*
X2047946Y2007899D02*
X2087900D01*
X2049368Y2006999D02*
X2087900D01*
X2049837Y2006099D02*
X2087900D01*
X2049936Y2005199D02*
X2087900D01*
X2049711Y2004299D02*
X2087900D01*
X2049037Y2003399D02*
X2087900D01*
X2044249Y2002499D02*
X2087900D01*
X2044524Y2001599D02*
X2087900D01*
X2044471Y2000699D02*
X2087900D01*
X2044065Y1999799D02*
X2087900D01*
X2042941Y1998899D02*
X2087900D01*
X1912300Y1997999D02*
X2087900D01*
X2049284Y1997099D02*
X2087900D01*
X2049806Y1996199D02*
X2087900D01*
X2049941Y1995299D02*
X2087900D01*
X2049754Y1994399D02*
X2087900D01*
X2079219Y1993499D02*
X2087900D01*
X2080550Y1992599D02*
X2087900D01*
X2081004Y1991699D02*
X2087900D01*
X2081092Y1990799D02*
X2087900D01*
X2080855Y1989899D02*
X2087900D01*
X2080160Y1988999D02*
X2087900D01*
X2079374Y1988099D02*
X2087900D01*
X2079586Y1987199D02*
X2087900D01*
X2079597Y1986299D02*
X2087900D01*
X2079405Y1985399D02*
X2087900D01*
X2078975Y1984499D02*
X2087900D01*
X2078198Y1983599D02*
X2087900D01*
X2076411Y1982699D02*
X2087900D01*
X2044493Y1981799D02*
X2087900D01*
X2044511Y1980899D02*
X2087900D01*
X2044193Y1979999D02*
X2087900D01*
X2043327Y1979099D02*
X2087900D01*
X2009083Y1978199D02*
X2087900D01*
X2049085Y1977299D02*
X2087900D01*
X2049729Y1976399D02*
X2087900D01*
X2049939Y1975499D02*
X2087900D01*
X2049825Y1974599D02*
X2087900D01*
X2049334Y1973699D02*
X2087900D01*
X2047729Y1972799D02*
X2087900D01*
X2044472Y1971899D02*
X2087900D01*
X2044524Y1970999D02*
X2087900D01*
X2044248Y1970099D02*
X2087900D01*
X2043474Y1969199D02*
X2087900D01*
X2031034Y1968299D02*
X2087900D01*
X2048968Y1967399D02*
X2087900D01*
X2078135Y1966499D02*
X2087900D01*
X2079025Y1965599D02*
X2087900D01*
X2079516Y1964699D02*
X2087900D01*
X2079756Y1963799D02*
X2087900D01*
X2079789Y1962899D02*
X2087900D01*
X2079620Y1961999D02*
X2087900D01*
X2079221Y1961099D02*
X2087900D01*
X2078493Y1960199D02*
X2087900D01*
X2076961Y1959299D02*
X2087900D01*
X2029530Y1958399D02*
X2087900D01*
X2048834Y1957499D02*
X2087900D01*
X2049633Y1956599D02*
X2087900D01*
X2049921Y1955699D02*
X2087900D01*
X2049878Y1954799D02*
X2087900D01*
X2049486Y1953899D02*
X2087900D01*
X2048409Y1952999D02*
X2087900D01*
X2044416Y1952099D02*
X2087900D01*
X2044540Y1951199D02*
X2087900D01*
X2044342Y1950299D02*
X2087900D01*
X2043716Y1949399D02*
X2087900D01*
X2014719Y1948499D02*
X2087900D01*
X2048680Y1947599D02*
X2087900D01*
X2049576Y1946699D02*
X2087900D01*
X2049906Y1945799D02*
X2087900D01*
X2049899Y1944899D02*
X2087900D01*
X2049551Y1943999D02*
X2087900D01*
X2048608Y1943099D02*
X2087900D01*
X2042710Y1942199D02*
X2087900D01*
X2077489Y1941299D02*
X2087900D01*
X2078705Y1940399D02*
X2087900D01*
X2079339Y1939499D02*
X2087900D01*
X2079679Y1938599D02*
X2087900D01*
X2079799Y1937699D02*
X2087900D01*
X2079719Y1936799D02*
X2087900D01*
X2079426Y1935899D02*
X2087900D01*
X2078861Y1934999D02*
X2087900D01*
X2077818Y1934099D02*
X2087900D01*
X2011807Y1933199D02*
X2087900D01*
X2012083Y1932299D02*
X2087900D01*
X2066276Y1931399D02*
X2087900D01*
X2066901Y1930499D02*
X2087900D01*
X2067098Y1929599D02*
X2087900D01*
X2066973Y1928699D02*
X2087900D01*
X2066466Y1927799D02*
X2087900D01*
X1913084Y1926899D02*
X2087900D01*
X1913400Y1925999D02*
X2087900D01*
X1913500Y1925099D02*
X2087900D01*
X1913400Y1924199D02*
X2087900D01*
X1913083Y1923299D02*
X2087900D01*
X1974003Y1922399D02*
X2087900D01*
X1975125Y1921499D02*
X2087900D01*
X1993965Y1920599D02*
X2087900D01*
X2029835Y1919699D02*
X2087900D01*
X2030725Y1918799D02*
X2087900D01*
X2031216Y1917899D02*
X2087900D01*
X2031456Y1916999D02*
X2087900D01*
X2031489Y1916099D02*
X2087900D01*
X2031320Y1915199D02*
X2087900D01*
X2030921Y1914299D02*
X2087900D01*
X2030193Y1913399D02*
X2087900D01*
X2028661Y1912499D02*
X2087900D01*
X1990069Y1911599D02*
X2087900D01*
X1989751Y1910699D02*
X2087900D01*
X1988884Y1909799D02*
X2087900D01*
X1910943Y1908899D02*
X2087900D01*
X2069599Y1907999D02*
X2087900D01*
X2071125Y1907099D02*
X2087900D01*
X2071725Y1906199D02*
X2087900D01*
X2071975Y1905299D02*
X2087900D01*
X2071961Y1904399D02*
X2087900D01*
X2071677Y1903499D02*
X2087900D01*
X2071069Y1902599D02*
X2087900D01*
X2071447Y1901699D02*
X2087900D01*
X2071871Y1900799D02*
X2087900D01*
X2072000Y1899899D02*
X2087900D01*
X2071870Y1898999D02*
X2087900D01*
X2071445Y1898099D02*
X2087900D01*
X2071070Y1897199D02*
X2087900D01*
X2071678Y1896299D02*
X2087900D01*
X2071961Y1895399D02*
X2087900D01*
X2071975Y1894499D02*
X2087900D01*
X2071723Y1893599D02*
X2087900D01*
X2071127Y1892699D02*
X2087900D01*
X2071376Y1891799D02*
X2087900D01*
X2071840Y1890899D02*
X2087900D01*
X2071998Y1889999D02*
X2087900D01*
X2071898Y1889099D02*
X2087900D01*
X2071510Y1888199D02*
X2087900D01*
X2071038Y1887299D02*
X2087900D01*
X2071627Y1886399D02*
X2087900D01*
X2071944Y1885499D02*
X2087900D01*
X2071986Y1884599D02*
X2087900D01*
X2071766Y1883699D02*
X2087900D01*
X2071213Y1882799D02*
X2087900D01*
X2069910Y1881899D02*
X2087900D01*
X2010176Y1880999D02*
X2087900D01*
X2010801Y1880099D02*
X2087900D01*
X2010998Y1879199D02*
X2087900D01*
X2010873Y1878299D02*
X2087900D01*
X2086503Y1877399D02*
X2087897D01*
X2086083Y2357099D02*
X2087871D01*
X2040401Y2366999D02*
X2087704D01*
X1903264Y2467799D02*
X2087436D01*
X1911360Y2371499D02*
X2086837D01*
X2039776Y2367899D02*
X2086452D01*
X1902800Y2370599D02*
X2086144D01*
X1911169Y2368799D02*
X2085996D01*
X2064098Y2357099D02*
X2085917D01*
X1902800Y2369699D02*
X2085908D01*
X2010366Y1877399D02*
X2084497D01*
X1997535Y2352599D02*
X2084227D01*
X2063973Y2356199D02*
X2084032D01*
X1963030Y1872899D02*
X2083806D01*
X1913174Y2353499D02*
X2083601D01*
X2063466Y2355299D02*
X2083526D01*
X1975031Y2354399D02*
X2083402D01*
X1966123Y1876499D02*
X2083375D01*
X1963083Y1873799D02*
X2083194D01*
X1964997Y1875599D02*
X2082970D01*
X1962807Y1874699D02*
X2082917D01*
X2063973Y2207699D02*
X2081834D01*
X2066273Y2109599D02*
X2081295D01*
X2052294Y2101499D02*
X2080506D01*
X2052306Y2119499D02*
X2080494D01*
X2071583Y2217599D02*
X2080486D01*
X2042807Y2203199D02*
X2080453D01*
X1940660Y2186999D02*
X2080398D01*
X2066974Y2193299D02*
X2080349D01*
X2025692Y2196899D02*
X2080299D01*
X2034009Y2183399D02*
X2080255D01*
X2063466Y2206799D02*
X2080211D01*
X2052661Y2091599D02*
X2080139D01*
X2052669Y2129399D02*
X2080131D01*
X2052669Y2039399D02*
X2080131D01*
X2052936Y2081699D02*
X2079864D01*
X2052943Y2049299D02*
X2079857D01*
X2042035Y2204099D02*
X2079811D01*
X2031492Y2186099D02*
X2079789D01*
X2066468Y2194199D02*
X2079770D01*
X2026052Y2195999D02*
X2079751D01*
X2033883Y2184299D02*
X2079735D01*
X2045031Y2205899D02*
X2079718D01*
X2053164Y2071799D02*
X2079636D01*
X2053169Y2059199D02*
X2079631D01*
X2011051Y2204999D02*
X2079603D01*
X2033377Y2185199D02*
X2079601D01*
X2064583Y2195099D02*
X2079600D01*
X2053360Y2061899D02*
X2079440D01*
X2053365Y2069099D02*
X2079435D01*
X2073273Y2213099D02*
X2079314D01*
X2053533Y2051999D02*
X2079267D01*
X2053538Y2078999D02*
X2079262D01*
X2053689Y2042099D02*
X2079111D01*
X2053693Y2088899D02*
X2079107D01*
X2073468Y2216699D02*
X2079011D01*
X2053831Y2122199D02*
X2078969D01*
X2053831Y2032199D02*
X2078969D01*
X2053835Y2098799D02*
X2078965D01*
X2066974Y2112299D02*
X2078838D01*
X2053965Y2108699D02*
X2078835D01*
X2054082Y2102399D02*
X2078718D01*
X2054085Y2118599D02*
X2078715D01*
X2073899Y2213999D02*
X2078651D01*
X2054193Y2092499D02*
X2078607D01*
X2054196Y2128499D02*
X2078604D01*
X2054196Y2038499D02*
X2078604D01*
X2073974Y2215799D02*
X2078535D01*
X2054297Y2082599D02*
X2078503D01*
X2054300Y2048399D02*
X2078500D01*
X2074098Y2214899D02*
X2078431D01*
X2054394Y2072699D02*
X2078406D01*
X2054396Y2058299D02*
X2078404D01*
X2054484Y2062799D02*
X2078316D01*
X2054487Y2068199D02*
X2078313D01*
X2054569Y2052899D02*
X2078231D01*
X2054571Y2078099D02*
X2078229D01*
X2054649Y2042999D02*
X2078151D01*
X2054651Y2087999D02*
X2078149D01*
X2054723Y2123099D02*
X2078077D01*
X2054723Y2033099D02*
X2078077D01*
X2054725Y2097899D02*
X2078075D01*
X2066468Y2113199D02*
X2078007D01*
X2054795Y2107799D02*
X2078005D01*
X2054859Y2103299D02*
X2077941D01*
X2054861Y2117699D02*
X2077939D01*
X2054921Y2093399D02*
X2077879D01*
X2054922Y2127599D02*
X2077878D01*
X2054922Y2037599D02*
X2077878D01*
X2054978Y2083499D02*
X2077822D01*
X2054980Y2047499D02*
X2077820D01*
X2049147Y1993499D02*
X2077781D01*
X2055033Y2073599D02*
X2077767D01*
X2055034Y2057399D02*
X2077766D01*
X2055083Y2063699D02*
X2077717D01*
X2055084Y2067299D02*
X2077716D01*
X2055130Y2053799D02*
X2077670D01*
X2055132Y2077199D02*
X2077668D01*
X2055174Y2043899D02*
X2077626D01*
X2055175Y2087099D02*
X2077625D01*
X2055215Y2123999D02*
X2077585D01*
X2055215Y2033999D02*
X2077585D01*
X2055216Y2096999D02*
X2077584D01*
X2064583Y2114099D02*
X2077547D01*
X2055254Y2106899D02*
X2077546D01*
X2055288Y2104199D02*
X2077512D01*
X2055289Y2116799D02*
X2077511D01*
X2055320Y2094299D02*
X2077480D01*
X2055321Y2126699D02*
X2077479D01*
X2055321Y2036699D02*
X2077479D01*
X2055349Y2084399D02*
X2077451D01*
X2055350Y2046599D02*
X2077450D01*
X2055376Y2074499D02*
X2077424D01*
X2055377Y2056499D02*
X2077423D01*
X2055400Y2064599D02*
X2077400D01*
X2055400Y2066399D02*
X2077400D01*
X2055421Y2054699D02*
X2077379D01*
X2055421Y2076299D02*
X2077379D01*
X2055440Y2044799D02*
X2077360D01*
X2055440Y2086199D02*
X2077360D01*
X2055456Y2124899D02*
X2077344D01*
X2055456Y2034899D02*
X2077344D01*
X2055456Y2096099D02*
X2077344D01*
X2055469Y2114999D02*
X2077331D01*
X2055470Y2105999D02*
X2077330D01*
X2055480Y2105099D02*
X2077320D01*
X2055481Y2115899D02*
X2077319D01*
X2055489Y2095199D02*
X2077311D01*
X2055489Y2125799D02*
X2077311D01*
X2055489Y2035799D02*
X2077311D01*
X2055495Y2085299D02*
X2077305D01*
X2055495Y2045699D02*
X2077305D01*
X2055499Y2075399D02*
X2077301D01*
X2055499Y2055599D02*
X2077301D01*
X2055500Y2065499D02*
X2077300D01*
X2068506Y2144699D02*
X2076694D01*
X2044194Y1992599D02*
X2076450D01*
X2044511Y1991699D02*
X2075996D01*
X2069369Y2174399D02*
X2075831D01*
X2069733Y2167199D02*
X2075467D01*
X2057905Y1990799D02*
X2075412D01*
X2070162Y2137499D02*
X2075038D01*
X2023030Y2384099D02*
X2075003D01*
X2070285Y2143799D02*
X2074915D01*
X2058694Y1982699D02*
X2074622D01*
X2070596Y2173499D02*
X2074604D01*
X1911538Y2388599D02*
X2074465D01*
X2059244Y1959299D02*
X2074439D01*
X2070769Y2168099D02*
X2074431D01*
X2066768Y2154599D02*
X2074338D01*
X2070993Y2138399D02*
X2074207D01*
X2066936Y2150099D02*
X2074169D01*
X2071061Y2142899D02*
X2074139D01*
X2071234Y2172599D02*
X2073966D01*
X2059772Y1941299D02*
X2073911D01*
X2022625Y2384999D02*
X2073877D01*
X2071330Y2168999D02*
X2073870D01*
X2059549Y2015999D02*
X2073767D01*
X2071453Y2139299D02*
X2073747D01*
X2071489Y2141999D02*
X2073711D01*
X2002388Y2387699D02*
X2073693D01*
X2071577Y2171699D02*
X2073623D01*
X2060101Y1934099D02*
X2073582D01*
X2071621Y2169899D02*
X2073579D01*
X2071669Y2140199D02*
X2073531D01*
X2071681Y2141099D02*
X2073519D01*
X2071699Y2170799D02*
X2073501D01*
X2021503Y2385899D02*
X2073470D01*
X2003252Y2386799D02*
X2073417D01*
X2059949Y2008799D02*
X2073368D01*
X2067745Y2153699D02*
X2073361D01*
X2067804Y2150999D02*
X2073302D01*
X2060418Y1966499D02*
X2073265D01*
X2068104Y2152799D02*
X2073001D01*
X2068122Y2151899D02*
X2072984D01*
X2060365Y1989899D02*
X2072952D01*
X2060777Y1960199D02*
X2072907D01*
X2060482Y1983599D02*
X2072835D01*
X2060989Y1940399D02*
X2072695D01*
X2061145Y1934999D02*
X2072539D01*
X2060787Y2015099D02*
X2072529D01*
X2061309Y1965599D02*
X2072375D01*
X2060977Y2009699D02*
X2072340D01*
X2061504Y1961099D02*
X2072179D01*
X2061195Y1988999D02*
X2072122D01*
X2061622Y1939499D02*
X2072061D01*
X2061259Y1984499D02*
X2072058D01*
X2061710Y1935899D02*
X2071974D01*
X2061429Y2014199D02*
X2071888D01*
X2061800Y1964699D02*
X2071884D01*
X2061535Y2010599D02*
X2071782D01*
X2061904Y1961999D02*
X2071780D01*
X2061962Y1938599D02*
X2071721D01*
X2062003Y1936799D02*
X2071681D01*
X2061654Y1988099D02*
X2071662D01*
X2062040Y1963799D02*
X2071644D01*
X2061688Y1985399D02*
X2071629D01*
X2062072Y1962899D02*
X2071611D01*
X2062083Y1937699D02*
X2071601D01*
X2061774Y2013299D02*
X2071542D01*
X2061823Y2011499D02*
X2071494D01*
X2061870Y1987199D02*
X2071447D01*
X2061880Y1986299D02*
X2071436D01*
X2061899Y2012399D02*
X2071418D01*
X2056098Y2217599D02*
X2071417D01*
X2063423Y2159999D02*
X2070993D01*
X2063591Y2155499D02*
X2070824D01*
X2064400Y2159099D02*
X2070016D01*
X2064459Y2156399D02*
X2069957D01*
X2055856Y2213099D02*
X2069727D01*
X2064760Y2158199D02*
X2069656D01*
X2064777Y2157299D02*
X2069639D01*
X2055973Y2216699D02*
X2069532D01*
X2055163Y2213999D02*
X2069101D01*
X2055466Y2215799D02*
X2069026D01*
X2054454Y2214899D02*
X2068902D01*
X2064599Y1907999D02*
X2068001D01*
X2064910Y1881899D02*
X2067690D01*
X2058506Y2144699D02*
X2066694D01*
X2059369Y2174399D02*
X2065831D01*
X2059733Y2167199D02*
X2065467D01*
X2056098Y2235599D02*
X2065417D01*
X2060162Y2137499D02*
X2065038D01*
X2060285Y2143799D02*
X2064915D01*
X2019997Y2230199D02*
X2064898D01*
X2056706Y2313899D02*
X2064894D01*
X2060596Y2173499D02*
X2064604D01*
X2057069Y2323799D02*
X2064531D01*
X2060769Y2168099D02*
X2064431D01*
X2026069Y2195099D02*
X2064417D01*
X2055253Y2114099D02*
X2064417D01*
X2060896Y2154599D02*
X2064338D01*
X1996715Y2269799D02*
X2064285D01*
X2057343Y2333699D02*
X2064257D01*
X2060993Y2138399D02*
X2064207D01*
X2060819Y2150099D02*
X2064169D01*
X2061061Y2142899D02*
X2064139D01*
X2054715Y2265299D02*
X2064116D01*
X2057569Y2343599D02*
X2064031D01*
X2061234Y2172599D02*
X2063966D01*
X2061330Y2168999D02*
X2063870D01*
X2061453Y2139299D02*
X2063747D01*
X2038997Y2231099D02*
X2063727D01*
X2061489Y2141999D02*
X2063711D01*
X2057933Y2336399D02*
X2063667D01*
X2061577Y2171699D02*
X2063623D01*
X2061621Y2169899D02*
X2063579D01*
X2055973Y2234699D02*
X2063532D01*
X2061669Y2140199D02*
X2063531D01*
X2061681Y2141099D02*
X2063519D01*
X2058089Y2326499D02*
X2063511D01*
X2061699Y2170799D02*
X2063501D01*
X2058231Y2316599D02*
X2063369D01*
X2061627Y2153699D02*
X2063361D01*
X1997692Y2268899D02*
X2063308D01*
X2061686Y2150999D02*
X2063302D01*
X2019947Y2229299D02*
X2063285D01*
X2044888Y2266199D02*
X2063249D01*
X2058362Y2306699D02*
X2063238D01*
X2018747Y2224799D02*
X2063116D01*
X2058485Y2312999D02*
X2063115D01*
X2040123Y2231999D02*
X2063101D01*
X2055466Y2233799D02*
X2063026D01*
X2058596Y2322899D02*
X2063004D01*
X1912300Y1907999D02*
X2063001D01*
X2061987Y2152799D02*
X2063001D01*
X2062004Y2151899D02*
X2062983D01*
X1998052Y2267999D02*
X2062948D01*
X2026083Y2267099D02*
X2062931D01*
X2040530Y2232899D02*
X2062902D01*
X2058700Y2332799D02*
X2062900D01*
X2058796Y2342699D02*
X2062804D01*
X1965069Y2190599D02*
X2062727D01*
X2051505Y2109599D02*
X2062727D01*
X2017276Y1931399D02*
X2062724D01*
X1961569Y1881899D02*
X2062690D01*
X2058969Y2337299D02*
X2062631D01*
X2059049Y2327399D02*
X2062551D01*
X2017466Y1927799D02*
X2062534D01*
X2025751Y2194199D02*
X2062532D01*
X2054793Y2113199D02*
X2062532D01*
X2059123Y2317499D02*
X2062477D01*
X2059193Y2307599D02*
X2062407D01*
X2059261Y2312099D02*
X2062339D01*
X2019837Y2228399D02*
X2062308D01*
X2059322Y2321999D02*
X2062278D01*
X2019124Y2225699D02*
X2062249D01*
X2059380Y2331899D02*
X2062220D01*
X2059434Y2341799D02*
X2062166D01*
X2055905Y2303999D02*
X2062164D01*
X2013160Y2191499D02*
X2062101D01*
X2038064Y2110499D02*
X2062101D01*
X2017901Y1930499D02*
X2062099D01*
X2059530Y2338199D02*
X2062070D01*
X2017973Y1928699D02*
X2062027D01*
X2024884Y2193299D02*
X2062026D01*
X2053962Y2112299D02*
X2062026D01*
X2059574Y2328299D02*
X2062026D01*
X2059615Y2318399D02*
X2061985D01*
X2019665Y2227499D02*
X2061948D01*
X2059653Y2308499D02*
X2061947D01*
X2019428Y2226599D02*
X2061931D01*
X2059689Y2311199D02*
X2061911D01*
X2013855Y2192399D02*
X2061902D01*
X2038199Y2111399D02*
X2061902D01*
X2018098Y1929599D02*
X2061902D01*
X2056694Y2295899D02*
X2061902D01*
X2059721Y2321099D02*
X2061879D01*
X2059750Y2330999D02*
X2061850D01*
X2059777Y2340899D02*
X2061823D01*
X2059821Y2339099D02*
X2061779D01*
X2059840Y2329199D02*
X2061760D01*
X2059856Y2319299D02*
X2061744D01*
X2059869Y2309399D02*
X2061731D01*
X2059881Y2310299D02*
X2061719D01*
X2059889Y2320199D02*
X2061711D01*
X2059895Y2330099D02*
X2061705D01*
X2059899Y2339999D02*
X2061701D01*
X2058365Y2303099D02*
X2061700D01*
X2059195Y2302199D02*
X2061700D01*
X2059654Y2301299D02*
X2061700D01*
X2059870Y2300399D02*
X2061700D01*
X2059880Y2299499D02*
X2061700D01*
X2059688Y2298599D02*
X2061700D01*
X2059259Y2297699D02*
X2061700D01*
X2058482Y2296799D02*
X2061700D01*
X2046083Y1887299D02*
X2061562D01*
X2031035Y1902599D02*
X2061531D01*
X2037468Y1897199D02*
X2061530D01*
X1912980Y1907099D02*
X2061475D01*
X2019968Y1892699D02*
X2061473D01*
X1981384Y1882799D02*
X2061387D01*
X2020474Y1891799D02*
X2061224D01*
X2035583Y1898099D02*
X2061155D01*
X2031807Y1901699D02*
X2061153D01*
X2045807Y1888199D02*
X2061090D01*
X2053423Y2159999D02*
X2060993D01*
X2046030Y1886399D02*
X2060973D01*
X1994125Y1903499D02*
X2060923D01*
X2037974Y1896299D02*
X2060922D01*
X2037273Y1893599D02*
X2060877D01*
X1913350Y1906199D02*
X2060875D01*
X1982251Y1883699D02*
X2060834D01*
X2020598Y1890899D02*
X2060760D01*
X2031623Y1898999D02*
X2060730D01*
X2032083Y1900799D02*
X2060729D01*
X2053591Y2155499D02*
X2060714D01*
X2045035Y1889099D02*
X2060702D01*
X2045623Y1885499D02*
X2060656D01*
X1993003Y1904399D02*
X2060639D01*
X2038098Y1895399D02*
X2060639D01*
X2037899Y1894499D02*
X2060625D01*
X1913495Y1905299D02*
X2060625D01*
X2044497Y1884599D02*
X2060614D01*
X2020399Y1889999D02*
X2060602D01*
X2032030Y1899899D02*
X2060600D01*
X2054400Y2159099D02*
X2060016D01*
X2054459Y2156399D02*
X2059957D01*
X1988069Y2358899D02*
X2059724D01*
X2055548Y2210399D02*
X2059724D01*
X2054760Y2158199D02*
X2059656D01*
X2054777Y2157299D02*
X2059639D01*
X1975806Y2355299D02*
X2059534D01*
X2045806Y2206799D02*
X2059534D01*
X1988051Y2357999D02*
X2059099D01*
X2054210Y2209499D02*
X2059099D01*
X1986710Y2356199D02*
X2059027D01*
X2046083Y2207699D02*
X2059027D01*
X1987690Y2357099D02*
X2058902D01*
X2046030Y2208599D02*
X2058902D01*
X2047350Y2154599D02*
X2058220D01*
X2046245Y2150099D02*
X2058051D01*
X2044493Y1990799D02*
X2057695D01*
X2048022Y2153699D02*
X2057243D01*
X2047676Y2150999D02*
X2057184D01*
X2044133Y1982699D02*
X2056906D01*
X2048246Y2152799D02*
X2056883D01*
X2048147Y2151899D02*
X2056866D01*
X2043602Y1959299D02*
X2056723D01*
X2048506Y2144699D02*
X2056694D01*
X2042017Y1941299D02*
X2056195D01*
X2049865Y2015999D02*
X2056051D01*
X2045097Y1934099D02*
X2055866D01*
X2049369Y2174399D02*
X2055831D01*
X1964401Y2303999D02*
X2055695D01*
X2042654Y2008799D02*
X2055651D01*
X2049684Y1966499D02*
X2055549D01*
X2049733Y2167199D02*
X2055467D01*
X2044132Y1989899D02*
X2055235D01*
X2044297Y1960199D02*
X2055190D01*
X2049245Y1983599D02*
X2055118D01*
X2050162Y2137499D02*
X2055038D01*
X2041890Y1940399D02*
X2054978D01*
X2050285Y2143799D02*
X2054915D01*
X1977952Y2295899D02*
X2054906D01*
X1913320Y2313899D02*
X2054894D01*
X2045824Y1934999D02*
X2054822D01*
X2049928Y2015099D02*
X2054813D01*
X2049932Y1965599D02*
X2054658D01*
X2043991Y2009699D02*
X2054623D01*
X2050596Y2173499D02*
X2054604D01*
X1978092Y2323799D02*
X2054531D01*
X2044534Y1961099D02*
X2054463D01*
X2050769Y2168099D02*
X2054431D01*
X2043153Y1988999D02*
X2054405D01*
X2041378Y1939499D02*
X2054345D01*
X2049792Y1984499D02*
X2054341D01*
X2046078Y1935899D02*
X2054257D01*
X1971478Y2333699D02*
X2054257D01*
X2050993Y2138399D02*
X2054207D01*
X2049663Y2014199D02*
X2054171D01*
X2049854Y1964699D02*
X2054167D01*
X2051061Y2142899D02*
X2054139D01*
X2044446Y2010599D02*
X2054065D01*
X2044446Y1961999D02*
X2054063D01*
X1913215Y2343599D02*
X2054031D01*
X2044340Y1938599D02*
X2054005D01*
X2051234Y2172599D02*
X2053966D01*
X2046005Y1936799D02*
X2053964D01*
X1912196Y1988099D02*
X2053946D01*
X2049413Y1963799D02*
X2053927D01*
X2049942Y1985399D02*
X2053912D01*
X2048150Y1962899D02*
X2053895D01*
X2045571Y1937699D02*
X2053884D01*
X2051330Y2168999D02*
X2053870D01*
X2048914Y2013299D02*
X2053826D01*
X2044534Y2011499D02*
X2053777D01*
X2051453Y2139299D02*
X2053747D01*
X2049190Y1987199D02*
X2053730D01*
X2049770Y1986299D02*
X2053720D01*
X2051489Y2141999D02*
X2053711D01*
X2044298Y2012399D02*
X2053701D01*
X1978180Y2336399D02*
X2053667D01*
X2051577Y2171699D02*
X2053623D01*
X2051621Y2169899D02*
X2053579D01*
X2051669Y2140199D02*
X2053531D01*
X2051681Y2141099D02*
X2053519D01*
X1976219Y2326499D02*
X2053511D01*
X2051699Y2170799D02*
X2053501D01*
X1913216Y2316599D02*
X2053369D01*
X1953707Y2306699D02*
X2053238D01*
X1964598Y2303099D02*
X2053235D01*
X1977592Y2296799D02*
X2053118D01*
X1912921Y2312999D02*
X2053115D01*
X1977855Y2322899D02*
X2053004D01*
X2006877Y2332799D02*
X2052900D01*
X1912723Y2342699D02*
X2052804D01*
X2045625Y2209499D02*
X2052790D01*
X1978742Y2337299D02*
X2052631D01*
X1912795Y2327399D02*
X2052551D01*
X2045940Y2214899D02*
X2052546D01*
X1912725Y2317499D02*
X2052477D01*
X1952935Y2307599D02*
X2052407D01*
X1964473Y2302199D02*
X2052405D01*
X1976615Y2297699D02*
X2052341D01*
X1912193Y2312099D02*
X2052339D01*
X2045752Y2265299D02*
X2052285D01*
X1977160Y2321999D02*
X2052278D01*
X2007440Y2331899D02*
X2052220D01*
X1911831Y2341799D02*
X2052166D01*
X1958584Y2260799D02*
X2052116D01*
X1978902Y2338199D02*
X2052070D01*
X1911965Y2328299D02*
X2052026D01*
X1911835Y2318399D02*
X2051985D01*
X1911693Y2308499D02*
X2051947D01*
X1963966Y2301299D02*
X2051946D01*
X1931773Y2298599D02*
X2051912D01*
X1910661Y2311199D02*
X2051911D01*
X1910294Y2321099D02*
X2051879D01*
X2007600Y2330999D02*
X2051850D01*
X2046100Y2213999D02*
X2051837D01*
X1902800Y2340899D02*
X2051823D01*
X1978741Y2339099D02*
X2051779D01*
X2006875Y2329199D02*
X2051760D01*
X1902800Y2319299D02*
X2051744D01*
X1902800Y2309399D02*
X2051731D01*
X1932598Y2300399D02*
X2051730D01*
X2018120Y2237399D02*
X2051724D01*
X2014256Y2219399D02*
X2051724D01*
X1932399Y2299499D02*
X2051720D01*
X1902800Y2310299D02*
X2051719D01*
X1902800Y2320199D02*
X2051711D01*
X2007439Y2330099D02*
X2051705D01*
X1978178Y2339999D02*
X2051701D01*
X2040583Y2233799D02*
X2051534D01*
X2045377Y2215799D02*
X2051534D01*
X2044503Y2210399D02*
X2051452D01*
X2046069Y2264399D02*
X2051308D01*
X2044083Y2109599D02*
X2051295D01*
X2044710Y2261699D02*
X2051249D01*
X2045939Y2213099D02*
X2051144D01*
X2018606Y2236499D02*
X2051099D01*
X2012798Y2218499D02*
X2051099D01*
X2040307Y2234699D02*
X2051027D01*
X1978083Y2216699D02*
X2051027D01*
X2043880Y2211299D02*
X2050996D01*
X2044300Y2159999D02*
X2050993D01*
X2046051Y2263499D02*
X2050948D01*
X2045690Y2262599D02*
X2050931D01*
X2045375Y2212199D02*
X2050908D01*
X2039535Y2235599D02*
X2050902D01*
X2010703Y2217599D02*
X2050902D01*
X2045028Y2155499D02*
X2050824D01*
X2038194Y2101499D02*
X2050506D01*
X2037447Y2119499D02*
X2050494D01*
X1912861Y2427299D02*
X2050285D01*
X2043690Y2091599D02*
X2050139D01*
X2037342Y2129399D02*
X2050131D01*
X2037342Y2039399D02*
X2050131D01*
X1912793Y2422799D02*
X2050116D01*
X2045276Y2159099D02*
X2050016D01*
X2045336Y2156399D02*
X2049957D01*
X2038174Y2081699D02*
X2049864D01*
X2037224Y2049299D02*
X2049857D01*
X2045636Y2158199D02*
X2049656D01*
X2045654Y2157299D02*
X2049639D01*
X2038157Y2071799D02*
X2049636D01*
X2037091Y2059199D02*
X2049631D01*
X2038137Y2061899D02*
X2049440D01*
X2036936Y2069099D02*
X2049435D01*
X1913289Y2426399D02*
X2049308D01*
X2038112Y2051999D02*
X2049267D01*
X2036753Y2078999D02*
X2049262D01*
X1913253Y2423699D02*
X2049249D01*
X2038084Y2042099D02*
X2049111D01*
X2036524Y2088899D02*
X2049107D01*
X2038139Y2032199D02*
X2048969D01*
X2036198Y2098799D02*
X2048965D01*
X1913481Y2425499D02*
X2048948D01*
X1913469Y2424599D02*
X2048931D01*
X2038012Y2112299D02*
X2048838D01*
X2045968Y2108699D02*
X2048835D01*
X2037970Y2102399D02*
X2048718D01*
X2032646Y2118599D02*
X2048715D01*
X2044051Y2092499D02*
X2048607D01*
X2032679Y2128499D02*
X2048604D01*
X2032679Y2038499D02*
X2048604D01*
X2037869Y2082599D02*
X2048503D01*
X2033004Y2048399D02*
X2048500D01*
X2037810Y2072699D02*
X2048406D01*
X2032734Y2058299D02*
X2048404D01*
X2037745Y2062799D02*
X2048316D01*
X2032755Y2068199D02*
X2048313D01*
X2038092Y2052899D02*
X2048231D01*
X2032792Y2078099D02*
X2048229D01*
X2038231Y2042999D02*
X2048151D01*
X2032785Y2087999D02*
X2048149D01*
X2037594Y2033099D02*
X2048077D01*
X2033029Y2097899D02*
X2048075D01*
X2037407Y2113199D02*
X2048007D01*
X2046474Y2107799D02*
X2048005D01*
X2037297Y2103299D02*
X2047941D01*
X2032800Y2117699D02*
X2047939D01*
X2044069Y2093399D02*
X2047879D01*
X2032797Y2127599D02*
X2047878D01*
X2032797Y2037599D02*
X2047878D01*
X2037033Y2083499D02*
X2047822D01*
X2039163Y2047499D02*
X2047820D01*
X2036868Y2073599D02*
X2047767D01*
X2039276Y2057399D02*
X2047766D01*
X2036670Y2063699D02*
X2047717D01*
X2032766Y2067299D02*
X2047716D01*
X2039466Y2053799D02*
X2047670D01*
X2032555Y2077199D02*
X2047668D01*
X2039548Y2043899D02*
X2047626D01*
X2032726Y2087099D02*
X2047625D01*
X1995340Y2033999D02*
X2047585D01*
X2032851Y2096999D02*
X2047584D01*
X1995321Y2114099D02*
X2047547D01*
X2046653Y2106899D02*
X2047542D01*
X1995300Y2104199D02*
X2047512D01*
X2032633Y2116799D02*
X2047511D01*
X2043752Y2094299D02*
X2047480D01*
X2032593Y2126699D02*
X2047479D01*
X2032593Y2036699D02*
X2047479D01*
X2020031Y2084399D02*
X2047451D01*
X2039856Y2046599D02*
X2047450D01*
X2032600Y2074499D02*
X2047424D01*
X2039901Y2056499D02*
X2047423D01*
X2014273Y2064599D02*
X2047400D01*
X2032442Y2066399D02*
X2047400D01*
X2039973Y2054699D02*
X2047379D01*
X2032045Y2076299D02*
X2047379D01*
X2040004Y2044799D02*
X2047360D01*
X2032311Y2086199D02*
X2047360D01*
X1995075Y2034899D02*
X2047344D01*
X2032260Y2096099D02*
X2047344D01*
X1995032Y2114999D02*
X2047331D01*
X2045773Y2105099D02*
X2047320D01*
X2032060Y2115899D02*
X2047319D01*
X2042888Y2095199D02*
X2047311D01*
X2031956Y2035799D02*
X2047311D01*
X2031158Y2085299D02*
X2047305D01*
X2040092Y2045699D02*
X2047305D01*
X2032440Y2075399D02*
X2047301D01*
X2040098Y2055599D02*
X2047301D01*
X2031558Y2065499D02*
X2047300D01*
X2031956Y2125799D02*
X2047289D01*
X2046421Y2105999D02*
X2047186D01*
X2044066Y1972799D02*
X2046955D01*
X1912396Y2007899D02*
X2046738D01*
X1989592Y2144699D02*
X2046694D01*
X2043992Y1962899D02*
X2046533D01*
X2042583Y2017799D02*
X2046414D01*
X2043909Y1952999D02*
X2046275D01*
X2043690Y1943099D02*
X2046076D01*
X2016050Y1947599D02*
X2046003D01*
X2029123Y1957499D02*
X2045849D01*
X2025549Y2174399D02*
X2045831D01*
X2043604Y2013299D02*
X2045770D01*
X2031377Y1967399D02*
X2045716D01*
X2043475Y2003399D02*
X2045646D01*
X2008806Y1977299D02*
X2045598D01*
X2043328Y1993499D02*
X2045536D01*
X1991388Y1987199D02*
X2045494D01*
X2010557Y2167199D02*
X2045467D01*
X2043155Y1983599D02*
X2045438D01*
X1912980Y1997099D02*
X2045400D01*
X2042943Y1973699D02*
X2045350D01*
X1913034Y2006999D02*
X2045315D01*
X2042658Y1963799D02*
X2045270D01*
X2042530Y2016899D02*
X2045239D01*
X2041994Y1953899D02*
X2045198D01*
X2044051Y1943999D02*
X2045133D01*
X2042888Y1946699D02*
X2045107D01*
X2037890Y2150099D02*
X2045059D01*
X2027997Y1956599D02*
X2045050D01*
X2032791Y2137499D02*
X2045038D01*
X1913400Y2014199D02*
X2045020D01*
X2031499Y1966499D02*
X2045000D01*
X1913421Y2004299D02*
X2044973D01*
X2008031Y1976399D02*
X2044954D01*
X1913440Y1994399D02*
X2044930D01*
X2038175Y2143799D02*
X2044915D01*
X1992252Y1986299D02*
X2044913D01*
X1992551Y1984499D02*
X2044892D01*
X1913350Y1996199D02*
X2044877D01*
X1991439Y1974599D02*
X2044859D01*
X1913377Y2006099D02*
X2044846D01*
X2031130Y1964699D02*
X2044830D01*
X2042123Y2015999D02*
X2044819D01*
X2004707Y1954799D02*
X2044805D01*
X2043752Y1945799D02*
X2044777D01*
X1960807Y1955699D02*
X2044763D01*
X2040997Y2015099D02*
X2044756D01*
X2031421Y1965599D02*
X2044752D01*
X1913499Y2005199D02*
X2044747D01*
X1991600Y1975499D02*
X2044745D01*
X1913495Y1995299D02*
X2044743D01*
X1992569Y1985399D02*
X2044742D01*
X2025861Y2173499D02*
X2044604D01*
X2010788Y2168099D02*
X2044431D01*
X1995075Y2124899D02*
X2044224D01*
X2032709Y2138399D02*
X2044207D01*
X2038730Y2142899D02*
X2044139D01*
X2038200Y2121299D02*
X2044034D01*
X2025839Y2172599D02*
X2043966D01*
X2037541Y2109599D02*
X2043917D01*
X2010695Y2168999D02*
X2043870D01*
X1982497Y2154599D02*
X2043762D01*
X2032263Y2139299D02*
X2043747D01*
X2038885Y2141999D02*
X2043711D01*
X2038179Y2150999D02*
X2043627D01*
X2025473Y2171699D02*
X2043623D01*
X1995340Y2123999D02*
X2043599D01*
X2010233Y2169899D02*
X2043579D01*
X2038146Y2140199D02*
X2043531D01*
X2038050Y2122199D02*
X2043527D01*
X2038718Y2141099D02*
X2043519D01*
X2024478Y2170799D02*
X2043501D01*
X2037505Y2123099D02*
X2043402D01*
X2036670Y2153699D02*
X2043281D01*
X2038137Y2151899D02*
X2043157D01*
X1961504Y2211299D02*
X2043120D01*
X2037745Y2152799D02*
X2043057D01*
X2034340Y1938599D02*
X2042638D01*
X1982569Y1884599D02*
X2042503D01*
X1961048Y2210399D02*
X2042497D01*
X1959451Y2261699D02*
X2042290D01*
X1994984Y2105099D02*
X2042227D01*
X2036215Y2026799D02*
X2042206D01*
X2027968Y2266199D02*
X2042112D01*
X2032607Y2108699D02*
X2042032D01*
X2011069Y2205899D02*
X2041969D01*
X2019773Y1889099D02*
X2041965D01*
X2005695Y1953899D02*
X2041889D01*
X2035097Y1934099D02*
X2041881D01*
X2032968Y2159999D02*
X2041870D01*
X2033855Y2155499D02*
X2041701D01*
X1961592Y2212199D02*
X2041625D01*
X1977806Y2215799D02*
X2041623D01*
X2032152Y2105999D02*
X2041601D01*
X2032799Y2107799D02*
X2041526D01*
X2035571Y1937699D02*
X2041407D01*
X2032668Y2106899D02*
X2041402D01*
X1982552Y1885499D02*
X2041377D01*
X1959710Y2209499D02*
X2041375D01*
X2027773Y2262599D02*
X2041310D01*
X2028474Y2265299D02*
X2041248D01*
X1911169Y2008799D02*
X2041229D01*
X2030569Y1963799D02*
X2041226D01*
X2010752Y2206799D02*
X2041194D01*
X1912085Y1888199D02*
X2041193D01*
X2035824Y1934999D02*
X2041154D01*
X1971497Y2213099D02*
X2041061D01*
X1977031Y2214899D02*
X2041060D01*
X2036005Y1936799D02*
X2040973D01*
X1982192Y1886399D02*
X2040970D01*
X1956726Y2208599D02*
X2040970D01*
X2028399Y2263499D02*
X2040949D01*
X1910943Y1998899D02*
X2040943D01*
X1990875Y1973699D02*
X2040940D01*
X2028598Y2264399D02*
X2040931D01*
X2009888Y2207699D02*
X2040917D01*
X1981215Y1887299D02*
X2040917D01*
X2036078Y1935899D02*
X2040900D01*
X1972623Y2213999D02*
X2040900D01*
X2034269Y2159099D02*
X2040893D01*
X2034559Y2156399D02*
X2040834D01*
X2037192Y2025899D02*
X2040743D01*
X1910669Y1988999D02*
X2040730D01*
X1992190Y1983599D02*
X2040728D01*
X2009030Y1979099D02*
X2040557D01*
X1913174Y1993499D02*
X2040555D01*
X2034717Y2158199D02*
X2040533D01*
X2034801Y2157299D02*
X2040516D01*
X1974598Y2393099D02*
X2040503D01*
X2030396Y1969199D02*
X2040409D01*
X1913130Y2003399D02*
X2040408D01*
X2038122Y2090699D02*
X2040290D01*
X2029583Y1959299D02*
X2040281D01*
X1913083Y2013299D02*
X2040280D01*
X2037552Y2024999D02*
X2040268D01*
X2013440Y1949399D02*
X2040167D01*
X2037603Y2024099D02*
X2040165D01*
X2030175Y2095199D02*
X2040112D01*
X2016504Y1946699D02*
X2040112D01*
X2006058Y1952999D02*
X2039974D01*
X1982396Y2397599D02*
X2039965D01*
X1902800Y2009699D02*
X2039893D01*
X2029533Y1962899D02*
X2039892D01*
X1902800Y1999799D02*
X2039818D01*
X1976282Y1972799D02*
X2039818D01*
X1902800Y1989899D02*
X2039751D01*
X1991210Y1982699D02*
X2039750D01*
X2008625Y1979999D02*
X2039690D01*
X1912649Y1992599D02*
X2039690D01*
X2029169Y1970099D02*
X2039635D01*
X1912569Y2002499D02*
X2039635D01*
X2029307Y1960199D02*
X2039586D01*
X1912484Y2012399D02*
X2039586D01*
X2012877Y1950299D02*
X2039542D01*
X2035939Y2199599D02*
X2039503D01*
X2006078Y1952099D02*
X2039468D01*
X1902800Y2010599D02*
X2039438D01*
X2027698Y1961999D02*
X2039438D01*
X1902800Y2000699D02*
X2039412D01*
X1911962Y1971899D02*
X2039412D01*
X1902800Y1990799D02*
X2039390D01*
X1989164Y1981799D02*
X2039390D01*
X1980565Y2393999D02*
X2039377D01*
X2007503Y1980899D02*
X2039373D01*
X1911689Y1991699D02*
X2039373D01*
X1902800Y1970999D02*
X2039359D01*
X1911533Y2001599D02*
X2039359D01*
X2028535Y1961099D02*
X2039349D01*
X1911360Y2011499D02*
X2039349D01*
X2005764Y1951199D02*
X2039344D01*
X2038186Y2091599D02*
X2039310D01*
X2029806Y2094299D02*
X2039248D01*
X2016592Y1945799D02*
X2039248D01*
X1982337Y2396699D02*
X2039193D01*
X1913500Y2015099D02*
X2039003D01*
X1981536Y2394899D02*
X2038970D01*
X2010690Y2204099D02*
X2038965D01*
X2037174Y2093399D02*
X2038931D01*
X2016355Y1944899D02*
X2038931D01*
X1982067Y2395799D02*
X2038917D01*
X2037922Y2092499D02*
X2038914D01*
X2030603Y1943999D02*
X2038900D01*
X2036100Y2200499D02*
X2038377D01*
X2009710Y2203199D02*
X2038193D01*
X2035940Y2201399D02*
X2037970D01*
X2035377Y2202299D02*
X2037917D01*
X1913400Y2015999D02*
X2037877D01*
X2031835Y1943099D02*
X2037634D01*
X1913084Y2016899D02*
X2037470D01*
X2031361Y1939499D02*
X2037459D01*
X1912487Y2017799D02*
X2037417D01*
X1911365Y2018699D02*
X2037293D01*
X2032268Y1942199D02*
X2037015D01*
X2019987Y2231099D02*
X2037003D01*
X2032088Y1940399D02*
X2036947D01*
X2015083Y1871999D02*
X2036900D01*
X2016968Y1871099D02*
X2036900D01*
X2017474Y1870199D02*
X2036900D01*
X2017598Y1869299D02*
X2036900D01*
X2017399Y1868399D02*
X2036900D01*
X2022219Y1867499D02*
X2036900D01*
X2023550Y1866599D02*
X2036900D01*
X2024004Y1865699D02*
X2036900D01*
X2024092Y1864799D02*
X2036900D01*
X2023855Y1863899D02*
X2036900D01*
X2023160Y1862999D02*
X2036900D01*
X2015600Y1862099D02*
X2036900D01*
X2015600Y1861199D02*
X2036900D01*
X2015600Y1860299D02*
X2036900D01*
X2025003Y1859399D02*
X2036900D01*
X2026125Y1858499D02*
X2036900D01*
X2026530Y1857599D02*
X2036900D01*
X2015600Y1851299D02*
X2036900D01*
X2015600Y1850399D02*
X2036900D01*
X2015600Y1849499D02*
X2036900D01*
X2015600Y1848599D02*
X2036900D01*
X2015600Y1847699D02*
X2036900D01*
X2015600Y1846799D02*
X2036900D01*
X2015600Y1845899D02*
X2036900D01*
X2015600Y1844999D02*
X2036900D01*
X2015600Y1844099D02*
X2036900D01*
X2015600Y1843199D02*
X2036900D01*
X2015600Y1842299D02*
X2036900D01*
X2015600Y1841399D02*
X2036900D01*
X2015600Y1840499D02*
X2036900D01*
X2015600Y1839599D02*
X2036900D01*
X2015600Y1838699D02*
X2036900D01*
X2015600Y1837799D02*
X2036900D01*
X2015600Y1836899D02*
X2036900D01*
X2015600Y1835999D02*
X2036900D01*
X2015600Y1835099D02*
X2036900D01*
X2015600Y1834199D02*
X2036900D01*
X2032341Y1941299D02*
X2036820D01*
X2019008Y2235599D02*
X2036465D01*
X2034210Y2177999D02*
X2036390D01*
X2018710Y1852199D02*
X2036290D01*
X1912396Y2367899D02*
X2036224D01*
X1902800Y2019599D02*
X2036151D01*
X2026583Y1856699D02*
X2036112D01*
X1964377Y2364299D02*
X2036034D01*
X2019917Y2231999D02*
X2035877D01*
X2033087Y2047499D02*
X2035837D01*
X1902800Y2020499D02*
X2035731D01*
X2032781Y2057399D02*
X2035724D01*
X2019336Y2234699D02*
X2035693D01*
X1911164Y2021399D02*
X2035666D01*
X1957719Y2366999D02*
X2035599D01*
X1959504Y2365199D02*
X2035527D01*
X2019787Y2232899D02*
X2035470D01*
X2019594Y2233799D02*
X2035417D01*
X2030497Y1898099D02*
X2035417D01*
X1959050Y2366099D02*
X2035402D01*
X2019690Y1853099D02*
X2035310D01*
X2026306Y1855799D02*
X2035248D01*
X1951662Y2133899D02*
X2035204D01*
X2032843Y2046599D02*
X2035144D01*
X2032498Y2056499D02*
X2035099D01*
X2032307Y2054699D02*
X2035027D01*
X2032885Y2098799D02*
X2035002D01*
X1995116Y2044799D02*
X2034996D01*
X1995356Y2043899D02*
X2034974D01*
X2020051Y1853999D02*
X2034949D01*
X2025531Y1854899D02*
X2034931D01*
X2032136Y2045699D02*
X2034908D01*
X2031878Y2055599D02*
X2034902D01*
X2032583Y2053799D02*
X2034787D01*
X2032515Y2088899D02*
X2034676D01*
X1963973Y2153699D02*
X2034530D01*
X1995381Y2063699D02*
X2034530D01*
X2032704Y2078999D02*
X2034447D01*
X2030972Y2140199D02*
X2034423D01*
X2008377Y2143799D02*
X2034394D01*
X2032439Y2073599D02*
X2034332D01*
X2032402Y2069099D02*
X2034264D01*
X1995395Y2083499D02*
X2034167D01*
X2032336Y2149199D02*
X2034109D01*
X2032336Y2059199D02*
X2034109D01*
X2029031Y2093399D02*
X2034026D01*
X2032558Y2049299D02*
X2033976D01*
X1995400Y2103299D02*
X2033903D01*
X2032182Y2129399D02*
X2033858D01*
X2032182Y2039399D02*
X2033858D01*
X2008939Y2141099D02*
X2033851D01*
X2008940Y2142899D02*
X2033840D01*
X1995399Y2113199D02*
X2033793D01*
X1995395Y2033099D02*
X2033784D01*
X2032092Y2119499D02*
X2033753D01*
X2018083Y1893599D02*
X2033727D01*
X1995395Y2123099D02*
X2033695D01*
X2009100Y2141999D02*
X2033685D01*
X2031993Y2109599D02*
X2033659D01*
X1912394Y2022299D02*
X2033616D01*
X1912921Y2132999D02*
X2033607D01*
X1995389Y2042999D02*
X2033607D01*
X2032349Y2099699D02*
X2033575D01*
X1912922Y1897199D02*
X2033532D01*
X2032636Y2052899D02*
X2033527D01*
X2031756Y2089799D02*
X2033498D01*
X1963466Y2152799D02*
X2033455D01*
X1995369Y2062799D02*
X2033455D01*
X2032250Y2079899D02*
X2033429D01*
X2031875Y2072699D02*
X2033390D01*
X2031444Y2069999D02*
X2033366D01*
X1995340Y2082599D02*
X2033331D01*
X2031240Y2150099D02*
X2033310D01*
X2031240Y2060099D02*
X2033310D01*
X1995321Y2092499D02*
X2033278D01*
X2031267Y2050199D02*
X2033259D01*
X1995249Y2032199D02*
X2033239D01*
X1995300Y2102399D02*
X2033230D01*
X2030498Y2130299D02*
X2033213D01*
X2030498Y2040299D02*
X2033213D01*
X1995276Y2112299D02*
X2033188D01*
X1994197Y2120399D02*
X2033172D01*
X1995249Y2122199D02*
X2033150D01*
X1994294Y2110499D02*
X2033136D01*
X1912193Y2132099D02*
X2033117D01*
X1995220Y2042099D02*
X2033116D01*
X1994384Y2100599D02*
X2033105D01*
X1973163Y1894499D02*
X2033101D01*
X1994878Y2031299D02*
X2033089D01*
X1994469Y2090699D02*
X2033078D01*
X1911962Y2151899D02*
X2033063D01*
X1995153Y2061899D02*
X2033063D01*
X2030919Y2080799D02*
X2033055D01*
X1995115Y2071799D02*
X2033043D01*
X2031817Y2030399D02*
X2033036D01*
X1994623Y2070899D02*
X2033036D01*
X1995074Y2081699D02*
X2033026D01*
X1913321Y1896299D02*
X2033026D01*
X1950369Y2150999D02*
X2033021D01*
X1994693Y2060999D02*
X2033021D01*
X1995030Y2091599D02*
X2033014D01*
X2031029Y2051099D02*
X2033010D01*
X1994983Y2101499D02*
X2033006D01*
X1910661Y2131199D02*
X2033003D01*
X1994821Y2041199D02*
X2033003D01*
X1994933Y2111399D02*
X2033001D01*
X1994878Y2121299D02*
X2033000D01*
X2032123Y2051999D02*
X2032921D01*
X1913489Y1895399D02*
X2032902D01*
X2021842Y2177999D02*
X2032790D01*
X1913033Y2023199D02*
X2032749D01*
X2024340Y1938599D02*
X2032638D01*
X1913376Y2024099D02*
X2032431D01*
X1913499Y2024999D02*
X2032329D01*
X2025097Y1934099D02*
X2031881D01*
X1994840Y2198699D02*
X2031625D01*
X1912394Y2202299D02*
X2031623D01*
X1998847Y2178899D02*
X2031452D01*
X2003901Y2159999D02*
X2031451D01*
X2025571Y1937699D02*
X2031407D01*
X2009583Y2186099D02*
X2031326D01*
X1994197Y2030399D02*
X2031326D01*
X2025824Y1934999D02*
X2031154D01*
X1994277Y2199599D02*
X2031061D01*
X1911164Y2201399D02*
X2031060D01*
X1998949Y2179799D02*
X2030996D01*
X2026005Y1936799D02*
X2030973D01*
X2026078Y1935899D02*
X2030900D01*
X1970581Y2200499D02*
X2030900D01*
X1998728Y2180699D02*
X2030883D01*
X1983623Y2155499D02*
X2030564D01*
X2004098Y2159099D02*
X2030150D01*
X1902800Y2130299D02*
X2029902D01*
X1994093Y2040299D02*
X2029902D01*
X1984030Y2156399D02*
X2029860D01*
X1976467Y2025899D02*
X2029809D01*
X2003973Y2158199D02*
X2029702D01*
X2011273Y2181599D02*
X2029635D01*
X2003466Y2157299D02*
X2029618D01*
X1992836Y2029499D02*
X2029594D01*
X2026964Y2050199D02*
X2029551D01*
X1994549Y2080799D02*
X2029481D01*
X2011468Y2185199D02*
X2029440D01*
X2008375Y2140199D02*
X2029428D01*
X2020806Y2085299D02*
X2029242D01*
X1976976Y2026799D02*
X2029176D01*
X1951896Y2150099D02*
X2029160D01*
X1993862Y2060099D02*
X2029160D01*
X1976906Y2028599D02*
X2029094D01*
X2011899Y2182499D02*
X2029009D01*
X2025604Y2051099D02*
X2029003D01*
X1977102Y2027699D02*
X2028974D01*
X1993731Y2069999D02*
X2028956D01*
X2011974Y2184299D02*
X2028935D01*
X2015660Y1943999D02*
X2028902D01*
X2025989Y2045699D02*
X2028855D01*
X2014899Y2065499D02*
X2028842D01*
X2012098Y2183399D02*
X2028811D01*
X1989356Y2145599D02*
X2028691D01*
X1993433Y2089799D02*
X2028644D01*
X2003251Y2135699D02*
X2028560D01*
X1993260Y2099699D02*
X2028510D01*
X1912196Y1898099D02*
X2028503D01*
X1994551Y2125799D02*
X2028444D01*
X1994551Y2035799D02*
X2028444D01*
X2027672Y2049299D02*
X2028432D01*
X1993064Y2109599D02*
X2028407D01*
X1994471Y2115899D02*
X2028340D01*
X1994695Y2055599D02*
X2028318D01*
X1992836Y2119499D02*
X2028308D01*
X1994387Y2105999D02*
X2028248D01*
X1902800Y2129399D02*
X2028218D01*
X1992561Y2039399D02*
X2028218D01*
X1993589Y2079899D02*
X2028150D01*
X2008380Y1939499D02*
X2028145D01*
X2027341Y2046599D02*
X2028138D01*
X2002215Y2139299D02*
X2028137D01*
X1995356Y2072699D02*
X2028125D01*
X1994096Y2076299D02*
X2028100D01*
X2021083Y2086199D02*
X2028089D01*
X1983465Y2149199D02*
X2028064D01*
X1909505Y2059199D02*
X2028064D01*
X2012583Y2069099D02*
X2027998D01*
X1911169Y2098799D02*
X2027973D01*
X1994530Y1902599D02*
X2027965D01*
X2015098Y2066399D02*
X2027958D01*
X1988663Y2146499D02*
X2027902D01*
X1993865Y2056499D02*
X2027902D01*
X2019503Y2088899D02*
X2027885D01*
X2025401Y2051999D02*
X2027877D01*
X2003569Y2136599D02*
X2027852D01*
X1992569Y2077199D02*
X2027845D01*
X1993593Y2126699D02*
X2027807D01*
X1993593Y2036699D02*
X2027807D01*
X1964473Y2108699D02*
X2027793D01*
X1993438Y2116799D02*
X2027767D01*
X1971550Y2118599D02*
X2027754D01*
X1993265Y2106899D02*
X2027732D01*
X1911693Y2128499D02*
X2027721D01*
X1974570Y2038499D02*
X2027721D01*
X1910669Y2078999D02*
X2027696D01*
X1995154Y2054699D02*
X2027693D01*
X2003192Y2138399D02*
X2027691D01*
X2021030Y2087099D02*
X2027674D01*
X2008575Y1943099D02*
X2027670D01*
X1984151Y2148299D02*
X2027666D01*
X1911965Y2058299D02*
X2027666D01*
X2014468Y2068199D02*
X2027645D01*
X2014974Y2067299D02*
X2027634D01*
X1984383Y2147399D02*
X2027619D01*
X1991405Y2057399D02*
X2027619D01*
X2020625Y2087999D02*
X2027615D01*
X2003552Y2137499D02*
X2027609D01*
X1912196Y2078099D02*
X2027608D01*
X1912651Y2127599D02*
X2027603D01*
X1974137Y2037599D02*
X2027603D01*
X1963966Y2107799D02*
X2027601D01*
X1972004Y2117699D02*
X2027600D01*
X1995389Y2073599D02*
X2027561D01*
X1994822Y2075399D02*
X2027560D01*
X2024776Y2052899D02*
X2027470D01*
X2009006Y1940399D02*
X2027417D01*
X1995370Y2053799D02*
X2027417D01*
X1995221Y2074499D02*
X2027400D01*
X1910669Y1898999D02*
X2027377D01*
X2009081Y1942199D02*
X2027237D01*
X1994583Y1901699D02*
X2027193D01*
X2009205Y1941299D02*
X2027164D01*
X1993531Y1899899D02*
X2026970D01*
X1994306Y1900799D02*
X2026917D01*
X2023160Y1961999D02*
X2026635D01*
X1912396Y2097899D02*
X2026497D01*
X1990052Y1912499D02*
X2026139D01*
X2018273Y1956599D02*
X2026003D01*
X1995399Y2093399D02*
X2025969D01*
X1998069Y2267099D02*
X2025917D01*
X1931583Y1970099D02*
X2025631D01*
X2016583Y1961099D02*
X2025465D01*
X1993069Y2096999D02*
X2025375D01*
X2023855Y1962899D02*
X2025267D01*
X1995277Y2094299D02*
X2025194D01*
X1994296Y2096099D02*
X2024970D01*
X1994742Y1919699D02*
X2024965D01*
X1994934Y2095199D02*
X2024917D01*
X2018899Y1957499D02*
X2024877D01*
X2018468Y1960199D02*
X2024693D01*
X1989692Y1913399D02*
X2024607D01*
X1994625Y2045699D02*
X2024602D01*
X2019098Y1958399D02*
X2024470D01*
X2018974Y1959299D02*
X2024417D01*
X1933468Y1969199D02*
X2024404D01*
X1959769Y2262599D02*
X2024227D01*
X1995019Y1918799D02*
X2024075D01*
X1997751Y2266199D02*
X2024032D01*
X1988715Y1914299D02*
X2023879D01*
X2017584Y2275199D02*
X2023790D01*
X1933974Y1968299D02*
X2023766D01*
X2017762Y2279699D02*
X2023612D01*
X1959752Y2263499D02*
X2023601D01*
X1994968Y1917899D02*
X2023584D01*
X1996884Y2265299D02*
X2023526D01*
X1918807Y1915199D02*
X2023480D01*
X1979503Y1967399D02*
X2023423D01*
X1959392Y2264399D02*
X2023402D01*
X1994563Y1916999D02*
X2023344D01*
X1993446Y1916099D02*
X2023311D01*
X1993735Y2046599D02*
X2023251D01*
X2022219Y1966499D02*
X2023212D01*
X2015600Y1859399D02*
X2022997D01*
X2018564Y2276099D02*
X2022810D01*
X1981606Y2047499D02*
X2022793D01*
X2018626Y2278799D02*
X2022748D01*
X2005861Y1938599D02*
X2022638D01*
X1981799Y2048399D02*
X2022510D01*
X2020069Y1854899D02*
X2022469D01*
X2018925Y2276999D02*
X2022449D01*
X2018943Y2277899D02*
X2022431D01*
X1995000Y2197799D02*
X2022285D01*
X2014092Y2193299D02*
X2022116D01*
X2008860Y2170799D02*
X2022102D01*
X2011035Y1934099D02*
X2021881D01*
X2015600Y1858499D02*
X2021875D01*
X2019752Y1855799D02*
X2021694D01*
X2015600Y1857599D02*
X2021470D01*
X2018888Y1856699D02*
X2021417D01*
X2005986Y1937699D02*
X2021407D01*
X1994839Y2196899D02*
X2021308D01*
X2014004Y2194199D02*
X2021249D01*
X1995380Y2052899D02*
X2021224D01*
X2005234Y1934999D02*
X2021154D01*
X1911689Y2171699D02*
X2021107D01*
X1992194Y2049299D02*
X2021034D01*
X2006096Y1936799D02*
X2020973D01*
X2012219Y2195999D02*
X2020948D01*
X2013550Y2195099D02*
X2020931D01*
X2005884Y1935899D02*
X2020900D01*
X1980625Y1966499D02*
X2020781D01*
X2016773Y1867499D02*
X2020781D01*
X1912649Y2172599D02*
X2020741D01*
X1995188Y2051999D02*
X2020599D01*
X1993982Y2050199D02*
X2020527D01*
X1951060Y2173499D02*
X2020486D01*
X1994759Y2051099D02*
X2020402D01*
X1913083Y2283299D02*
X2020309D01*
X2005625Y1961999D02*
X2019840D01*
X2015600Y1862999D02*
X2019840D01*
X2003569Y2385899D02*
X2019497D01*
X1981030Y1965599D02*
X2019450D01*
X2015398Y1866599D02*
X2019450D01*
X1991710Y2284199D02*
X2019176D01*
X2004503Y1962899D02*
X2019145D01*
X2015600Y1863899D02*
X2019145D01*
X1986112Y1964699D02*
X2018996D01*
X2015600Y1865699D02*
X2018996D01*
X1982032Y2381399D02*
X2018969D01*
X1987108Y1963799D02*
X2018908D01*
X2015600Y1864799D02*
X2018908D01*
X1911689Y2441699D02*
X2018625D01*
X1913495Y2445299D02*
X2018623D01*
X2003551Y2384999D02*
X2018375D01*
X1981471Y2382299D02*
X2018194D01*
X1998372Y2177999D02*
X2018110D01*
X1952184Y2174399D02*
X2018090D01*
X1912649Y2442599D02*
X2018061D01*
X1913440Y2444399D02*
X2018060D01*
X2003190Y2384099D02*
X2017970D01*
X2002210Y2383199D02*
X2017917D01*
X1973856Y1893599D02*
X2017917D01*
X1913174Y2443499D02*
X2017900D01*
X1996913Y2177099D02*
X2017541D01*
X1952783Y2175299D02*
X2017533D01*
X1910943Y2088899D02*
X2017497D01*
X1994642Y2176199D02*
X2017376D01*
X1992690Y2285099D02*
X2017003D01*
X1995250Y2084399D02*
X2016969D01*
X1999069Y2289599D02*
X2016465D01*
X2006030Y1961099D02*
X2016417D01*
X1912300Y2087999D02*
X2016375D01*
X2015915Y1852199D02*
X2016285D01*
X1910306Y1889099D02*
X2016227D01*
X1994880Y2085299D02*
X2016194D01*
X1974092Y1892699D02*
X2016032D01*
X1992843Y2087099D02*
X2015970D01*
X1994200Y2086199D02*
X2015917D01*
X1993051Y2285999D02*
X2015877D01*
X1998751Y2288699D02*
X2015693D01*
X1972210Y1889999D02*
X2015601D01*
X1974004Y1891799D02*
X2015526D01*
X1993069Y2286899D02*
X2015470D01*
X1997884Y2287799D02*
X2015417D01*
X1973548Y1890899D02*
X2015402D01*
X2000962Y2275199D02*
X2015164D01*
X1962623Y1871999D02*
X2014917D01*
X1960035Y1956599D02*
X2014727D01*
X2006083Y1960199D02*
X2014532D01*
X1962300Y1866599D02*
X2014395D01*
X2001942Y2276099D02*
X2014184D01*
X1959478Y1957499D02*
X2014101D01*
X2005806Y1959299D02*
X2014026D01*
X2005031Y1958399D02*
X2013902D01*
X2012030Y1931399D02*
X2013724D01*
X1968654Y1927799D02*
X2013534D01*
X1962300Y1867499D02*
X2013227D01*
X2011623Y1930499D02*
X2013099D01*
X1962300Y1871099D02*
X2013032D01*
X1974610Y1928699D02*
X2013027D01*
X2010497Y1929599D02*
X2012902D01*
X1962300Y1868399D02*
X2012601D01*
X1962300Y1870199D02*
X2012526D01*
X1984598Y2069099D02*
X2012417D01*
X1962300Y1869299D02*
X2012402D01*
X2006690Y1943999D02*
X2012340D01*
X2002303Y2276999D02*
X2012290D01*
X1962943Y1944899D02*
X2011645D01*
X1911360Y2281499D02*
X2011337D01*
X1963034Y1945799D02*
X2011261D01*
X2002321Y2277899D02*
X2010952D01*
X1994299Y2195999D02*
X2010781D01*
X1995189Y2064599D02*
X2010727D01*
X1994976Y2280599D02*
X2010644D01*
X1984473Y2068199D02*
X2010532D01*
X2002004Y2278799D02*
X2010496D01*
X2001139Y2279699D02*
X2010408D01*
X1994761Y2065499D02*
X2010101D01*
X1992206Y2067299D02*
X2010026D01*
X1993985Y2066399D02*
X2009902D01*
X1992910Y2191499D02*
X2009840D01*
X1994556Y2195099D02*
X2009450D01*
X1913377Y2186099D02*
X2009417D01*
X1994248Y2192399D02*
X2009145D01*
X1962801Y1946699D02*
X2009125D01*
X2004905Y1950299D02*
X2009123D01*
X1994792Y2194199D02*
X2008996D01*
X1994704Y2193299D02*
X2008908D01*
X1962112Y1947599D02*
X2008561D01*
X1902800Y1949399D02*
X2008560D01*
X1985225Y1929599D02*
X2008503D01*
X1945132Y1948499D02*
X2008400D01*
X1993939Y1934099D02*
X2007965D01*
X1998061Y2181599D02*
X2007727D01*
X1997475Y2185199D02*
X2007532D01*
X1950869Y2170799D02*
X2007528D01*
X1985787Y1930499D02*
X2007377D01*
X1913033Y2203199D02*
X2007290D01*
X1993375Y1933199D02*
X2007193D01*
X1956429Y2207699D02*
X2007112D01*
X1997986Y2182499D02*
X2007101D01*
X1998015Y2184299D02*
X2007026D01*
X1985948Y1931399D02*
X2006970D01*
X1985786Y1932299D02*
X2006917D01*
X1998162Y2183399D02*
X2006902D01*
X1961551Y1880999D02*
X2006624D01*
X1962484Y1943999D02*
X2006524D01*
X1966530Y1877399D02*
X2006434D01*
X1913376Y2204099D02*
X2006310D01*
X1955610Y2206799D02*
X2006248D01*
X1987644Y2169899D02*
X2006156D01*
X1965535Y1880099D02*
X2005999D01*
X1913499Y2204999D02*
X2005949D01*
X1913421Y2205899D02*
X2005931D01*
X1966583Y1878299D02*
X2005927D01*
X1966307Y1879199D02*
X2005802D01*
X1988487Y2168999D02*
X2005694D01*
X1988795Y2168099D02*
X2005601D01*
X1989255Y1980899D02*
X2005497D01*
X1991440Y1976399D02*
X2004969D01*
X1962115Y1943099D02*
X2004639D01*
X1951785Y2140199D02*
X2004625D01*
X1989504Y2143799D02*
X2004623D01*
X1989022Y1979999D02*
X2004375D01*
X1971574Y1940399D02*
X2004207D01*
X1990877Y1977299D02*
X2004194D01*
X1969183Y1942199D02*
X2004133D01*
X1950006Y2141099D02*
X2004061D01*
X1989048Y2142899D02*
X2004060D01*
X1971068Y1941299D02*
X2004009D01*
X1988333Y1979099D02*
X2003970D01*
X1988077Y1978199D02*
X2003917D01*
X1987710Y2141999D02*
X2003900D01*
X1988769Y2167199D02*
X2003712D01*
X1912723Y2162699D02*
X2003167D01*
X1909505Y2329199D02*
X2003125D01*
X1972057Y2332799D02*
X2003123D01*
X1985583Y2243699D02*
X2003120D01*
X1971698Y1939499D02*
X2003062D01*
X1988398Y2166299D02*
X2002583D01*
X1971529Y2330099D02*
X2002561D01*
X1972228Y2331899D02*
X2002560D01*
X1987474Y1962899D02*
X2002497D01*
X1972077Y2330999D02*
X2002400D01*
X1969697Y2163599D02*
X2002396D01*
X1961083Y1954799D02*
X2002309D01*
X1987389Y2165399D02*
X2002175D01*
X1970823Y2164499D02*
X2002122D01*
X1949440Y1950299D02*
X2002112D01*
X1978030Y2217599D02*
X2002097D01*
X1960536Y1958399D02*
X2001969D01*
X1994100Y1934999D02*
X2001766D01*
X1971499Y1938599D02*
X2001501D01*
X1987496Y1961999D02*
X2001375D01*
X1961030Y1953899D02*
X2001322D01*
X1950606Y1951199D02*
X2001253D01*
X1960999Y1959299D02*
X2001194D01*
X1993940Y1935899D02*
X2001116D01*
X1970873Y1937699D02*
X2001014D01*
X1987185Y1961099D02*
X2000970D01*
X1960623Y1952999D02*
X2000958D01*
X1959497Y1952099D02*
X2000938D01*
X1986332Y1960199D02*
X2000917D01*
X1993377Y1936799D02*
X2000904D01*
X1985306Y2242799D02*
X2000595D01*
X1962300Y1865699D02*
X2000400D01*
X1962300Y1864799D02*
X2000400D01*
X1962300Y1863899D02*
X2000400D01*
X1962300Y1862999D02*
X2000400D01*
X1962300Y1862099D02*
X2000400D01*
X1962300Y1861199D02*
X2000400D01*
X1962300Y1860299D02*
X2000400D01*
X1962300Y1859399D02*
X2000400D01*
X1987499Y1858499D02*
X2000400D01*
X1988294Y1857599D02*
X2000400D01*
X1991210Y1852199D02*
X2000400D01*
X1962300Y1851299D02*
X2000400D01*
X1962300Y1850399D02*
X2000400D01*
X1962300Y1849499D02*
X2000400D01*
X1962300Y1848599D02*
X2000400D01*
X1962300Y1847699D02*
X2000400D01*
X1962300Y1846799D02*
X2000400D01*
X1962300Y1845899D02*
X2000400D01*
X1962300Y1844999D02*
X2000400D01*
X1962300Y1844099D02*
X2000400D01*
X1962300Y1843199D02*
X2000400D01*
X1962300Y1842299D02*
X2000400D01*
X1962300Y1841399D02*
X2000400D01*
X1962300Y1840499D02*
X2000400D01*
X1962300Y1839599D02*
X2000400D01*
X1962300Y1838699D02*
X2000400D01*
X1962300Y1837799D02*
X2000400D01*
X1962300Y1836899D02*
X2000400D01*
X1962300Y1835999D02*
X2000400D01*
X1962300Y1835099D02*
X2000400D01*
X1962300Y1834199D02*
X2000400D01*
X1962300Y1833299D02*
X2000400D01*
X1991388Y1856699D02*
X2000393D01*
X1977625Y2218499D02*
X2000002D01*
X1992190Y1853099D02*
X1999810D01*
X1980438Y2383199D02*
X1999790D01*
X1952561Y2139299D02*
X1999785D01*
X1992252Y1855799D02*
X1999748D01*
X1950643Y2160899D02*
X1999724D01*
X1952493Y2134799D02*
X1999616D01*
X1912571Y2387699D02*
X1999612D01*
X1984083Y2157299D02*
X1999534D01*
X1992551Y1853999D02*
X1999449D01*
X1992569Y1854899D02*
X1999431D01*
X1952000Y2159999D02*
X1999099D01*
X1983807Y2158199D02*
X1999027D01*
X1984531Y2241899D02*
X1998982D01*
X1983035Y2159099D02*
X1998902D01*
X1913376Y2384099D02*
X1998810D01*
X1952989Y2138399D02*
X1998808D01*
X1952953Y2135699D02*
X1998749D01*
X1913132Y2386799D02*
X1998748D01*
X1976503Y2219399D02*
X1998544D01*
X1984322Y2275199D02*
X1998542D01*
X1913499Y2384999D02*
X1998449D01*
X1953181Y2137499D02*
X1998448D01*
X1953169Y2136599D02*
X1998431D01*
X1913421Y2385899D02*
X1998431D01*
X1995601Y2279699D02*
X1998364D01*
X1971754Y2240999D02*
X1997755D01*
X1985302Y2276099D02*
X1997562D01*
X1995798Y2278799D02*
X1997499D01*
X1941583Y2220299D02*
X1997406D01*
X1995166Y2276999D02*
X1997200D01*
X1995673Y2277899D02*
X1997182D01*
X1971678Y2240099D02*
X1996765D01*
X1941307Y2221199D02*
X1996478D01*
X1971240Y2239199D02*
X1995946D01*
X1995300Y2177099D02*
X1995795D01*
X1940535Y2222099D02*
X1995705D01*
X1979894Y2292299D02*
X1995285D01*
X1970123Y2238299D02*
X1995258D01*
X1992752Y2287799D02*
X1995116D01*
X1934052Y2222999D02*
X1995056D01*
X1970098Y2348099D02*
X1995003D01*
X1970494Y2237399D02*
X1994680D01*
X1933692Y2223899D02*
X1994510D01*
X1912649Y2352599D02*
X1994465D01*
X1979768Y2291399D02*
X1994308D01*
X1969198Y2269799D02*
X1994285D01*
X1991888Y2288699D02*
X1994249D01*
X1971396Y2236499D02*
X1994194D01*
X1958415Y2265299D02*
X1994116D01*
X1932715Y2224799D02*
X1994053D01*
X1988351Y2180699D02*
X1993980D01*
X1979258Y2290499D02*
X1993948D01*
X1902800Y2289599D02*
X1993931D01*
X1969901Y2348999D02*
X1993877D01*
X1971728Y2235599D02*
X1993792D01*
X1987490Y2181599D02*
X1993724D01*
X1911689Y2351699D02*
X1993693D01*
X1953875Y2225699D02*
X1993676D01*
X1913499Y2185199D02*
X1993649D01*
X1912795Y2417399D02*
X1993497D01*
X1969276Y2349899D02*
X1993470D01*
X1971722Y2234699D02*
X1993464D01*
X1902800Y2350799D02*
X1993417D01*
X1954439Y2226599D02*
X1993372D01*
X1969076Y2268899D02*
X1993308D01*
X1913350Y2266199D02*
X1993249D01*
X1971526Y2233799D02*
X1993206D01*
X1986700Y2182499D02*
X1993138D01*
X1954600Y2227499D02*
X1993135D01*
X1985977Y2184299D02*
X1993109D01*
X1974600Y2232899D02*
X1993013D01*
X1912859Y2412899D02*
X1992969D01*
X1973352Y2228399D02*
X1992963D01*
X1986540Y2183399D02*
X1992962D01*
X1968574Y2267999D02*
X1992948D01*
X1966804Y2267099D02*
X1992931D01*
X1975255Y2231999D02*
X1992883D01*
X1974879Y2229299D02*
X1992853D01*
X1975470Y2231099D02*
X1992813D01*
X1975362Y2230199D02*
X1992803D01*
X1913254Y2416499D02*
X1992375D01*
X1913288Y2413799D02*
X1992194D01*
X1913470Y2415599D02*
X1991970D01*
X1913480Y2414699D02*
X1991917D01*
X1986660Y2191499D02*
X1991490D01*
X1985153Y1916099D02*
X1991428D01*
X1977775Y2280599D02*
X1991424D01*
X1985663Y2276999D02*
X1991234D01*
X1977906Y2057399D02*
X1991195D01*
X1913440Y1904399D02*
X1990997D01*
X1985304Y1920599D02*
X1990909D01*
X1988666Y2179799D02*
X1990896D01*
X1984500Y2279699D02*
X1990799D01*
X1953100Y2176199D02*
X1990749D01*
X1985681Y2277899D02*
X1990727D01*
X1985364Y2278799D02*
X1990602D01*
X1971457Y2199599D02*
X1990523D01*
X1902800Y1899899D02*
X1990469D01*
X1981669Y2049299D02*
X1990406D01*
X1983966Y2067299D02*
X1990394D01*
X1985719Y2195999D02*
X1990355D01*
X1986123Y1916999D02*
X1990311D01*
X1988646Y2178899D02*
X1990286D01*
X1987297Y2177099D02*
X1990229D01*
X1987355Y2192399D02*
X1990152D01*
X1986176Y1919699D02*
X1990132D01*
X1988283Y2177999D02*
X1990097D01*
X1977894Y2039399D02*
X1990039D01*
X1978543Y2077199D02*
X1990031D01*
X1971409Y2196899D02*
X1989961D01*
X1971779Y2198699D02*
X1989960D01*
X1986481Y1917899D02*
X1989906D01*
X1913174Y1903499D02*
X1989875D01*
X1986496Y1918799D02*
X1989855D01*
X1987050Y2195099D02*
X1989844D01*
X1971765Y2197799D02*
X1989800D01*
X1978261Y2119499D02*
X1989764D01*
X1978261Y2029499D02*
X1989764D01*
X1978769Y2087099D02*
X1989757D01*
X1987592Y2193299D02*
X1989696D01*
X1902800Y1900799D02*
X1989694D01*
X1985222Y1933199D02*
X1989625D01*
X1946604Y1936799D02*
X1989623D01*
X1987504Y2194199D02*
X1989608D01*
X1978536Y2109599D02*
X1989536D01*
X1978965Y2096999D02*
X1989531D01*
X1912649Y1902599D02*
X1989470D01*
X1911689Y1901699D02*
X1989417D01*
X1978764Y2099699D02*
X1989340D01*
X1979138Y2106899D02*
X1989335D01*
X1913400Y2284199D02*
X1989290D01*
X1978960Y2089799D02*
X1989167D01*
X1979293Y2116799D02*
X1989162D01*
X1911365Y2288699D02*
X1989112D01*
X1978598Y1934099D02*
X1989061D01*
X1977776Y1935899D02*
X1989060D01*
X1979133Y2079899D02*
X1989011D01*
X1979435Y2126699D02*
X1989007D01*
X1979435Y2036699D02*
X1989007D01*
X1978401Y1934999D02*
X1988900D01*
X1984401Y2069999D02*
X1988869D01*
X1980990Y2046599D02*
X1988865D01*
X1983710Y1852199D02*
X1988790D01*
X1979431Y2060099D02*
X1988738D01*
X1979685Y2056499D02*
X1988735D01*
X1981154Y2050199D02*
X1988618D01*
X1980173Y2066399D02*
X1988615D01*
X1984888Y1987199D02*
X1988612D01*
X1979682Y2040299D02*
X1988507D01*
X1979900Y2076299D02*
X1988504D01*
X1979793Y2120399D02*
X1988403D01*
X1979793Y2030399D02*
X1988403D01*
X1979996Y2086199D02*
X1988400D01*
X1913500Y2285099D02*
X1988310D01*
X1979897Y2110499D02*
X1988306D01*
X1980087Y2096099D02*
X1988304D01*
X1912487Y2287799D02*
X1988248D01*
X1979994Y2100599D02*
X1988216D01*
X1980171Y2105999D02*
X1988213D01*
X1980084Y2090699D02*
X1988131D01*
X1980251Y2115899D02*
X1988129D01*
X1980169Y2080799D02*
X1988051D01*
X1980325Y2125799D02*
X1988049D01*
X1980325Y2035799D02*
X1988049D01*
X1983776Y2070899D02*
X1987977D01*
X1980409Y2045699D02*
X1987975D01*
X1913400Y2285999D02*
X1987949D01*
X1913084Y2286899D02*
X1987931D01*
X1980323Y2060999D02*
X1987907D01*
X1980461Y2055599D02*
X1987905D01*
X1980453Y2051099D02*
X1987841D01*
X1980522Y2065499D02*
X1987839D01*
X1984690Y1853099D02*
X1987810D01*
X1980459Y2041199D02*
X1987779D01*
X1980580Y2075399D02*
X1987778D01*
X1985752Y1986299D02*
X1987748D01*
X1980521Y2121299D02*
X1987722D01*
X1980521Y2031299D02*
X1987722D01*
X1980634Y2085299D02*
X1987720D01*
X1984226Y1978199D02*
X1987702D01*
X1980578Y2111399D02*
X1987667D01*
X1980684Y2095199D02*
X1987666D01*
X1980633Y2101499D02*
X1987617D01*
X1980732Y2105099D02*
X1987616D01*
X1980683Y2091599D02*
X1987570D01*
X1980775Y2114999D02*
X1987568D01*
X1980730Y2081699D02*
X1987526D01*
X1980816Y2124899D02*
X1987525D01*
X1980816Y2034899D02*
X1987525D01*
X1980957Y2071799D02*
X1987485D01*
X1980854Y2044799D02*
X1987484D01*
X1986051Y1984499D02*
X1987449D01*
X1980815Y2061899D02*
X1987447D01*
X1980889Y2054699D02*
X1987446D01*
X1986069Y1985399D02*
X1987431D01*
X1980853Y2051999D02*
X1987412D01*
X1980921Y2064599D02*
X1987411D01*
X1980888Y2042099D02*
X1987380D01*
X1980950Y2074499D02*
X1987379D01*
X1980920Y2122199D02*
X1987351D01*
X1980920Y2032199D02*
X1987351D01*
X1980977Y2084399D02*
X1987350D01*
X1980949Y2112299D02*
X1987324D01*
X1981000Y2094299D02*
X1987323D01*
X1980976Y2102399D02*
X1987300D01*
X1981021Y2104199D02*
X1987300D01*
X1981000Y2092499D02*
X1987279D01*
X1981040Y2114099D02*
X1987279D01*
X1981021Y2082599D02*
X1987260D01*
X1981056Y2123999D02*
X1987260D01*
X1981056Y2033999D02*
X1987260D01*
X1981040Y2072699D02*
X1987244D01*
X1981070Y2043899D02*
X1987244D01*
X1981056Y2062799D02*
X1987231D01*
X1981081Y2053799D02*
X1987230D01*
X1981069Y2052899D02*
X1987220D01*
X1981089Y2063699D02*
X1987219D01*
X1981080Y2042999D02*
X1987211D01*
X1981095Y2073599D02*
X1987211D01*
X1981089Y2123099D02*
X1987205D01*
X1981089Y2033099D02*
X1987205D01*
X1981099Y2083499D02*
X1987205D01*
X1981095Y2113199D02*
X1987201D01*
X1981100Y2093399D02*
X1987201D01*
X1981099Y2103299D02*
X1987200D01*
X1977415Y1973699D02*
X1987125D01*
X1984278Y1977299D02*
X1987123D01*
X1977824Y1974599D02*
X1986561D01*
X1984001Y1976399D02*
X1986560D01*
X1983227Y1975499D02*
X1986400D01*
X1912082Y2141999D02*
X1986290D01*
X1919083Y1914299D02*
X1986285D01*
X1902800Y1909799D02*
X1986116D01*
X1984414Y2146499D02*
X1985337D01*
X1919030Y1913399D02*
X1985308D01*
X1902800Y1910699D02*
X1985249D01*
X1971230Y2165399D02*
X1985055D01*
X1984119Y1979099D02*
X1984992D01*
X1912859Y2142899D02*
X1984952D01*
X1918623Y1912499D02*
X1984948D01*
X1917497Y1911599D02*
X1984931D01*
X1953200Y2177099D02*
X1984894D01*
X1952096Y2169899D02*
X1984800D01*
X1962300Y1858499D02*
X1984501D01*
X1951531Y2143799D02*
X1984496D01*
X1982464Y2144699D02*
X1984408D01*
X1982699Y1979999D02*
X1984297D01*
X1976083Y2356199D02*
X1984290D01*
X1978719Y2195999D02*
X1984281D01*
X1911831Y1981799D02*
X1984159D01*
X1964375Y2360699D02*
X1984112D01*
X1902800Y1980899D02*
X1984069D01*
X1971283Y2166299D02*
X1984046D01*
X1952734Y2168999D02*
X1983957D01*
X1981542Y2177999D02*
X1983908D01*
X1981083Y1964699D02*
X1983738D01*
X1962300Y1857599D02*
X1983706D01*
X1971007Y2167199D02*
X1983675D01*
X1970235Y2168099D02*
X1983650D01*
X1982110Y2178899D02*
X1983545D01*
X1961094Y1960199D02*
X1983519D01*
X1982282Y2179799D02*
X1983461D01*
X1979660Y2191499D02*
X1983340D01*
X1976030Y2357099D02*
X1983310D01*
X1958877Y2359799D02*
X1983248D01*
X1980050Y2195099D02*
X1982950D01*
X1975625Y2357999D02*
X1982949D01*
X1974503Y2358899D02*
X1982931D01*
X1980806Y1963799D02*
X1982743D01*
X1918035Y1916099D02*
X1982704D01*
X1960864Y1961099D02*
X1982666D01*
X1980355Y2192399D02*
X1982645D01*
X1975530Y1920599D02*
X1982553D01*
X1980504Y2194199D02*
X1982496D01*
X1980592Y2193299D02*
X1982408D01*
X1980031Y1962899D02*
X1982376D01*
X1960456Y1961999D02*
X1982354D01*
X1912723Y1982699D02*
X1982290D01*
X1913421Y2184299D02*
X1982223D01*
X1912922Y1987199D02*
X1982112D01*
X1974277Y2246399D02*
X1981997D01*
X1913499Y2275199D02*
X1981902D01*
X1923160Y1916999D02*
X1981733D01*
X1979491Y2279699D02*
X1981724D01*
X1975583Y1919699D02*
X1981680D01*
X1913130Y2183399D02*
X1981660D01*
X1976795Y2182499D02*
X1981490D01*
X1978473Y1933199D02*
X1981473D01*
X1975590Y1929599D02*
X1981470D01*
X1972036Y2241899D02*
X1981469D01*
X1974531Y1917899D02*
X1981376D01*
X1975306Y1918799D02*
X1981360D01*
X1913215Y1983599D02*
X1981310D01*
X1977710Y1852199D02*
X1981290D01*
X1913321Y1986299D02*
X1981248D01*
X1952423Y2144699D02*
X1981116D01*
X1977888Y1856699D02*
X1981112D01*
X1913456Y1984499D02*
X1980949D01*
X1913489Y1985399D02*
X1980931D01*
X1979272Y2276099D02*
X1980922D01*
X1977966Y1932299D02*
X1980909D01*
X1975951Y1930499D02*
X1980908D01*
X1974895Y2245499D02*
X1980875D01*
X1980002Y2278799D02*
X1980859D01*
X1976299Y1931399D02*
X1980748D01*
X1974447Y2242799D02*
X1980694D01*
X1974663Y1979999D02*
X1980692D01*
X1971677Y2249099D02*
X1980503D01*
X1964098Y2154599D02*
X1980503D01*
X1975088Y2244599D02*
X1980470D01*
X1974960Y2243699D02*
X1980417D01*
X1978690Y1853099D02*
X1980310D01*
X1978752Y1855799D02*
X1980248D01*
X1977879Y1975499D02*
X1980164D01*
X1952622Y2149199D02*
X1980116D01*
X1952680Y2159099D02*
X1979965D01*
X1979086Y1853999D02*
X1979914D01*
X1978269Y2067299D02*
X1979886D01*
X1979178Y1854899D02*
X1979822D01*
X1952915Y2145599D02*
X1979750D01*
X1975356Y1979099D02*
X1979571D01*
X1947473Y2068199D02*
X1979527D01*
X1953021Y2148299D02*
X1979429D01*
X1947598Y2069099D02*
X1979402D01*
X1977605Y1976399D02*
X1979390D01*
X1971169Y2249999D02*
X1979377D01*
X1963901Y2155499D02*
X1979377D01*
X1953156Y2146499D02*
X1979289D01*
X1953189Y2147399D02*
X1979197D01*
X1953050Y2158199D02*
X1979193D01*
X1975592Y1978199D02*
X1979165D01*
X1976836Y1977299D02*
X1979113D01*
X1970912Y2250899D02*
X1978970D01*
X1963276Y2156399D02*
X1978970D01*
X1971926Y2251799D02*
X1978917D01*
X1953195Y2157299D02*
X1978917D01*
X1912861Y1887299D02*
X1978785D01*
X1961252Y1882799D02*
X1978616D01*
X1913289Y1886399D02*
X1977808D01*
X1975796Y2177999D02*
X1977806D01*
X1960388Y1883699D02*
X1977749D01*
X1934098Y1967399D02*
X1977497D01*
X1913481Y1885499D02*
X1977448D01*
X1913469Y1884599D02*
X1977431D01*
X1970444Y2195999D02*
X1977281D01*
X1902800Y2280599D02*
X1977249D01*
X1960933Y1962899D02*
X1976969D01*
X1954292Y2401199D02*
X1976717D01*
X1911835Y2048399D02*
X1976601D01*
X1912725Y2047499D02*
X1976419D01*
X1902800Y2049299D02*
X1976405D01*
X1972331Y2252699D02*
X1976390D01*
X1933899Y1966499D02*
X1976375D01*
X1965052Y2191499D02*
X1976340D01*
X1912922Y2257199D02*
X1976212D01*
X1961100Y1963799D02*
X1976194D01*
X1954847Y2383199D02*
X1976162D01*
X1974701Y2039399D02*
X1976106D01*
X1912795Y2057399D02*
X1976094D01*
X1974401Y2393999D02*
X1976035D01*
X1960392Y1965599D02*
X1975970D01*
X1960839Y2195099D02*
X1975950D01*
X1960945Y1964699D02*
X1975917D01*
X1913377Y2276099D02*
X1975752D01*
X1970219Y2119499D02*
X1975739D01*
X1961315Y2067299D02*
X1975731D01*
X1964692Y2192399D02*
X1975645D01*
X1902800Y2279699D02*
X1975533D01*
X1960275Y2194199D02*
X1975496D01*
X1912484Y2372399D02*
X1975469D01*
X1964598Y2109599D02*
X1975464D01*
X1912922Y2077199D02*
X1975457D01*
X1972382Y2253599D02*
X1975410D01*
X1963715Y2193299D02*
X1975408D01*
X1955626Y2400299D02*
X1975384D01*
X1938715Y2256299D02*
X1975348D01*
X1902800Y2290499D02*
X1975333D01*
X1971710Y1852199D02*
X1975290D01*
X1955703Y2376899D02*
X1975272D01*
X1902800Y2099699D02*
X1975236D01*
X1963035Y2087099D02*
X1975231D01*
X1955881Y2382299D02*
X1975129D01*
X1913034Y2276999D02*
X1975118D01*
X1971888Y1856699D02*
X1975112D01*
X1973776Y2394899D02*
X1975064D01*
X1972105Y2254499D02*
X1975049D01*
X1902800Y2089799D02*
X1975040D01*
X1913034Y2096999D02*
X1975035D01*
X1911169Y2278799D02*
X1975034D01*
X1971329Y2255399D02*
X1975031D01*
X1912396Y2277899D02*
X1974914D01*
X1954473Y2375999D02*
X1974875D01*
X1902800Y2079899D02*
X1974867D01*
X1913084Y2106899D02*
X1974862D01*
X1911164Y2291399D02*
X1974824D01*
X1913254Y2326499D02*
X1974781D01*
X1956298Y2399399D02*
X1974711D01*
X1947401Y2069999D02*
X1974711D01*
X1972092Y2116799D02*
X1974707D01*
X1912394Y2292299D02*
X1974697D01*
X1913083Y2373299D02*
X1974694D01*
X1956342Y2377799D02*
X1974667D01*
X1902800Y2060099D02*
X1974569D01*
X1956441Y2381399D02*
X1974568D01*
X1913175Y2126699D02*
X1974565D01*
X1956477Y2395799D02*
X1974533D01*
X1942503Y2219399D02*
X1974497D01*
X1913500Y2375099D02*
X1974470D01*
X1953100Y2177999D02*
X1974445D01*
X1902800Y2050199D02*
X1974438D01*
X1913216Y2046599D02*
X1974435D01*
X1902800Y2339999D02*
X1974427D01*
X1957069Y2336399D02*
X1974425D01*
X1913400Y2374199D02*
X1974417D01*
X1956664Y2398499D02*
X1974345D01*
X1956685Y2378699D02*
X1974324D01*
X1913254Y2056499D02*
X1974315D01*
X1972690Y1853099D02*
X1974310D01*
X1912793Y1972799D02*
X1974309D01*
X1956731Y2380499D02*
X1974279D01*
X1956746Y2396699D02*
X1974263D01*
X1972752Y1855799D02*
X1974248D01*
X1947672Y1935899D02*
X1974224D01*
X1958530Y2120399D02*
X1974207D01*
X1956805Y2397599D02*
X1974204D01*
X1962292Y2066399D02*
X1974204D01*
X1956808Y2379599D02*
X1974201D01*
X1912571Y2297699D02*
X1974185D01*
X1964401Y2110499D02*
X1974103D01*
X1913321Y2076299D02*
X1974100D01*
X1913033Y2293199D02*
X1974016D01*
X1902800Y2100599D02*
X1974006D01*
X1963807Y2086199D02*
X1974004D01*
X1973048Y2214899D02*
X1973969D01*
X1972910Y2036699D02*
X1973968D01*
X1902800Y2090699D02*
X1973916D01*
X1973086Y1853999D02*
X1973914D01*
X1913377Y2096099D02*
X1973913D01*
X1902800Y2030399D02*
X1973910D01*
X1910306Y2339099D02*
X1973863D01*
X1956752Y2337299D02*
X1973863D01*
X1912082Y2321999D02*
X1973840D01*
X1902800Y2080799D02*
X1973831D01*
X1913400Y2105999D02*
X1973829D01*
X1973178Y1854899D02*
X1973822D01*
X1946776Y2070899D02*
X1973751D01*
X1971855Y2115899D02*
X1973749D01*
X1955888Y2338199D02*
X1973702D01*
X1902800Y2060999D02*
X1973677D01*
X1913440Y2125799D02*
X1973675D01*
X1913440Y2035799D02*
X1973675D01*
X1910294Y2051099D02*
X1973607D01*
X1913456Y2045699D02*
X1973605D01*
X1972374Y1934999D02*
X1973599D01*
X1913470Y2055599D02*
X1973539D01*
X1958583Y2121299D02*
X1973479D01*
X1910936Y2031299D02*
X1973479D01*
X1962652Y2065499D02*
X1973478D01*
X1913470Y2325599D02*
X1973450D01*
X1918163Y2182499D02*
X1973447D01*
X1963776Y2111399D02*
X1973422D01*
X1913489Y2075399D02*
X1973420D01*
X1943625Y2218499D02*
X1973375D01*
X1911360Y2101499D02*
X1973367D01*
X1964083Y2085299D02*
X1973366D01*
X1911533Y2091599D02*
X1973317D01*
X1913499Y2095199D02*
X1973316D01*
X1911689Y2081699D02*
X1973270D01*
X1913500Y2105099D02*
X1973268D01*
X1911831Y2071799D02*
X1973226D01*
X1971160Y2114999D02*
X1973225D01*
X1913132Y2296799D02*
X1973208D01*
X1911962Y2061899D02*
X1973185D01*
X1913495Y2124899D02*
X1973184D01*
X1913495Y2034899D02*
X1973184D01*
X1913253Y1973699D02*
X1973176D01*
X1913376Y2294099D02*
X1973149D01*
X1912082Y2051999D02*
X1973147D01*
X1913489Y2044799D02*
X1973146D01*
X1912859Y2322899D02*
X1973145D01*
X1913480Y2054699D02*
X1973111D01*
X1952784Y2178899D02*
X1973080D01*
X1958307Y2122199D02*
X1973080D01*
X1912297Y2032199D02*
X1973080D01*
X1962669Y2064599D02*
X1973079D01*
X1912394Y2112299D02*
X1973051D01*
X1913456Y2074499D02*
X1973050D01*
X1912193Y2042099D02*
X1973043D01*
X1912484Y2102399D02*
X1973024D01*
X1964030Y2084399D02*
X1973023D01*
X1912569Y2092499D02*
X1973000D01*
X1913421Y2094299D02*
X1973000D01*
X1913480Y2324699D02*
X1972996D01*
X1962497Y2082599D02*
X1972979D01*
X1913400Y2104199D02*
X1972979D01*
X1912723Y2072699D02*
X1972960D01*
X1913376Y2114099D02*
X1972960D01*
X1972035Y2217599D02*
X1972950D01*
X1961484Y2062799D02*
X1972944D01*
X1913349Y2123999D02*
X1972944D01*
X1913349Y2033999D02*
X1972944D01*
X1912859Y2052899D02*
X1972931D01*
X1913320Y2043899D02*
X1972930D01*
X1912921Y2042999D02*
X1972920D01*
X1913288Y2053799D02*
X1972919D01*
X1957535Y2123099D02*
X1972911D01*
X1912978Y2033099D02*
X1972911D01*
X1962351Y2063699D02*
X1972911D01*
X1913288Y2323799D02*
X1972908D01*
X1913033Y2113199D02*
X1972905D01*
X1913215Y2073599D02*
X1972905D01*
X1913083Y2103299D02*
X1972901D01*
X1963623Y2083499D02*
X1972901D01*
X1913130Y2093399D02*
X1972900D01*
X1913421Y2295899D02*
X1972848D01*
X1913499Y2294999D02*
X1972831D01*
X1913469Y1974599D02*
X1972767D01*
X1918856Y2181599D02*
X1972760D01*
X1902800Y2029499D02*
X1972724D01*
X1952187Y2179799D02*
X1972620D01*
X1913421Y2025899D02*
X1972541D01*
X1951065Y2180699D02*
X1972528D01*
X1959440Y2358899D02*
X1972497D01*
X1954440Y2228399D02*
X1972396D01*
X1923160Y1975499D02*
X1972290D01*
X1969833Y1928699D02*
X1972190D01*
X1911538Y2028599D02*
X1972102D01*
X1913132Y2026799D02*
X1972032D01*
X1960776Y1922399D02*
X1971997D01*
X1913440Y2354399D02*
X1971969D01*
X1912571Y2027699D02*
X1971906D01*
X1923855Y1917899D02*
X1971469D01*
X1959600Y2357999D02*
X1971375D01*
X1922219Y1979999D02*
X1971337D01*
X1970255Y1929599D02*
X1971210D01*
X1913175Y2036699D02*
X1971198D01*
X1913495Y2355299D02*
X1971194D01*
X1959439Y2357099D02*
X1970970D01*
X1923855Y1976399D02*
X1970952D01*
X1958875Y2356199D02*
X1970917D01*
X1961401Y1921499D02*
X1970875D01*
X1953877Y2229299D02*
X1970869D01*
X1902800Y1889999D02*
X1970790D01*
X1960966Y1918799D02*
X1970694D01*
X1923550Y1979099D02*
X1970644D01*
X1924092Y1977299D02*
X1970496D01*
X1960523Y2231999D02*
X1970493D01*
X1961598Y1920599D02*
X1970470D01*
X1910661Y2041199D02*
X1970448D01*
X1961473Y1919699D02*
X1970417D01*
X1924004Y1978199D02*
X1970408D01*
X1902800Y2230199D02*
X1970386D01*
X1959397Y2231099D02*
X1970278D01*
X1955945Y2394899D02*
X1970224D01*
X1910936Y2391299D02*
X1970034D01*
X1912651Y2037599D02*
X1969970D01*
X1958388Y2243699D02*
X1969937D01*
X1958227Y2244599D02*
X1969891D01*
X1959323Y2245499D02*
X1969875D01*
X1913456Y1894499D02*
X1969837D01*
X1902800Y2040299D02*
X1969719D01*
X1954974Y2393999D02*
X1969599D01*
X1911693Y2038499D02*
X1969538D01*
X1912297Y2392199D02*
X1969527D01*
X1961356Y2213099D02*
X1969503D01*
X1902800Y2039399D02*
X1969465D01*
X1902800Y1890899D02*
X1969452D01*
X1912978Y2393099D02*
X1969402D01*
X1967710Y1852199D02*
X1969290D01*
X1913215Y1893599D02*
X1969144D01*
X1967888Y1856699D02*
X1969112D01*
X1962877Y1942199D02*
X1969017D01*
X1911831Y1891799D02*
X1968996D01*
X1944030Y2217599D02*
X1968965D01*
X1912723Y1892699D02*
X1968908D01*
X1958123Y2119499D02*
X1968781D01*
X1948062Y1934999D02*
X1968626D01*
X1960663Y2213999D02*
X1968377D01*
X1939692Y2255399D02*
X1968271D01*
X1956909Y2238299D02*
X1968206D01*
X1902800Y2250899D02*
X1968194D01*
X1950135Y2216699D02*
X1968193D01*
X1948103Y1934099D02*
X1968062D01*
X1961000Y2195999D02*
X1967980D01*
X1951274Y2214899D02*
X1967970D01*
X1950970Y2215799D02*
X1967917D01*
X1947812Y1933199D02*
X1967889D01*
X1960930Y2232899D02*
X1967889D01*
X1902800Y2200499D02*
X1967843D01*
X1943660Y2114999D02*
X1967840D01*
X1956553Y2237399D02*
X1967835D01*
X1955710Y2333699D02*
X1967778D01*
X1902800Y2330099D02*
X1967727D01*
X1951233Y2163599D02*
X1967703D01*
X1938884Y2251799D02*
X1967674D01*
X1959252Y2242799D02*
X1967545D01*
X1940052Y2254499D02*
X1967495D01*
X1956997Y2118599D02*
X1967450D01*
X1959730Y2246399D02*
X1967426D01*
X1945968Y1937699D02*
X1967327D01*
X1939751Y2252699D02*
X1967269D01*
X1902800Y2249999D02*
X1967240D01*
X1940069Y2253599D02*
X1967218D01*
X1912793Y2332799D02*
X1967199D01*
X1902800Y2330999D02*
X1967179D01*
X1953077Y2168099D02*
X1967165D01*
X1944355Y2115899D02*
X1967145D01*
X1963185Y1941299D02*
X1967132D01*
X1958210Y2239199D02*
X1967089D01*
X1911962Y2331899D02*
X1967028D01*
X1960840Y2196899D02*
X1967014D01*
X1944504Y2117699D02*
X1966996D01*
X1902800Y2199599D02*
X1966966D01*
X1960983Y2233799D02*
X1966952D01*
X1955585Y2236499D02*
X1966933D01*
X1944592Y2116799D02*
X1966908D01*
X1959569Y2241899D02*
X1966825D01*
X1912487Y1927799D02*
X1966807D01*
X1959783Y2247299D02*
X1966803D01*
X1958735Y2249099D02*
X1966732D01*
X1961779Y1938599D02*
X1966701D01*
X1960277Y2197799D02*
X1966658D01*
X1959190Y2240099D02*
X1966651D01*
X1911365Y2198699D02*
X1966644D01*
X1963159Y1940399D02*
X1966626D01*
X1960707Y2234699D02*
X1966607D01*
X1959507Y2248199D02*
X1966606D01*
X1959935Y2235599D02*
X1966601D01*
X1952269Y2164499D02*
X1966577D01*
X1959551Y2240999D02*
X1966575D01*
X1962788Y1939499D02*
X1966502D01*
X1943997Y2267099D02*
X1966396D01*
X1953199Y2167199D02*
X1966393D01*
X1952830Y2165399D02*
X1966170D01*
X1947008Y1932299D02*
X1966157D01*
X1953121Y2166299D02*
X1966117D01*
X1902800Y2349899D02*
X1965724D01*
X1911365Y1928699D02*
X1965629D01*
X1913321Y2346299D02*
X1965534D01*
X1911164Y1931399D02*
X1965409D01*
X1962300Y1852199D02*
X1965290D01*
X1902800Y1929599D02*
X1965208D01*
X1902800Y1930499D02*
X1965145D01*
X1962300Y1856699D02*
X1965112D01*
X1910669Y2348999D02*
X1965099D01*
X1912922Y2347199D02*
X1965027D01*
X1912196Y2348099D02*
X1964902D01*
X1944535Y2271599D02*
X1964834D01*
X1945123Y2267999D02*
X1964626D01*
X1962300Y1853099D02*
X1964310D01*
X1962300Y1855799D02*
X1964248D01*
X1945307Y2270699D02*
X1964203D01*
X1945530Y2268899D02*
X1964124D01*
X1945583Y2269799D02*
X1964002D01*
X1962300Y1853999D02*
X1963949D01*
X1962300Y1854899D02*
X1963931D01*
X1961323Y1880099D02*
X1962465D01*
X1956052Y1876499D02*
X1961788D01*
X1960210Y1879199D02*
X1961676D01*
X1955692Y1877399D02*
X1961470D01*
X1954715Y1878299D02*
X1961417D01*
X1913083Y2193299D02*
X1961285D01*
X1941592Y2188799D02*
X1961116D01*
X1902800Y2360699D02*
X1960625D01*
X1959627Y2364299D02*
X1960623D01*
X1912649Y2082599D02*
X1960503D01*
X1912484Y2192399D02*
X1960308D01*
X1941504Y2189699D02*
X1960249D01*
X1953930Y2304899D02*
X1960224D01*
X1911164Y2111399D02*
X1960224D01*
X1911533Y2361599D02*
X1960061D01*
X1932474Y2301299D02*
X1960034D01*
X1912487Y2107799D02*
X1960034D01*
X1912980Y2087099D02*
X1959965D01*
X1939719Y2191499D02*
X1959948D01*
X1941050Y2190599D02*
X1959931D01*
X1958660Y2362499D02*
X1959900D01*
X1953140Y2156399D02*
X1959724D01*
X1953523Y2303999D02*
X1959599D01*
X1902800Y2110499D02*
X1959599D01*
X1912793Y2152799D02*
X1959534D01*
X1931968Y2302199D02*
X1959527D01*
X1911365Y2108699D02*
X1959527D01*
X1946901Y1938599D02*
X1959445D01*
X1952397Y2303099D02*
X1959402D01*
X1902800Y2109599D02*
X1959402D01*
X1913174Y2083499D02*
X1959377D01*
X1913350Y2086199D02*
X1959193D01*
X1952874Y2155499D02*
X1959099D01*
X1951389Y2153699D02*
X1959027D01*
X1912978Y1943099D02*
X1958990D01*
X1913440Y2084399D02*
X1958970D01*
X1956069Y1875599D02*
X1958965D01*
X1913495Y2085299D02*
X1958917D01*
X1952349Y2154599D02*
X1958902D01*
X1946966Y2067299D02*
X1958885D01*
X1945914Y1947599D02*
X1958770D01*
X1912793Y2062799D02*
X1958716D01*
X1947283Y1939499D02*
X1958436D01*
X1944633Y1943999D02*
X1958398D01*
X1946198Y1942199D02*
X1958347D01*
X1956706Y2209499D02*
X1958290D01*
X1955751Y1874699D02*
X1958193D01*
X1946193Y1946699D02*
X1958081D01*
X1947317Y1940399D02*
X1958065D01*
X1947019Y1941299D02*
X1958039D01*
X1902800Y1872899D02*
X1957970D01*
X1945742Y1944899D02*
X1957939D01*
X1954884Y1873799D02*
X1957917D01*
X1913289Y2066399D02*
X1957908D01*
X1903002Y1871999D02*
X1957900D01*
X1913253Y2063699D02*
X1957849D01*
X1946144Y1945799D02*
X1957848D01*
X1902800Y1879199D02*
X1957790D01*
X1913253Y1883699D02*
X1957612D01*
X1913481Y2065499D02*
X1957548D01*
X1913469Y2064599D02*
X1957531D01*
X1950901Y1957499D02*
X1957522D01*
X1951024Y1952099D02*
X1957503D01*
X1910294Y2231099D02*
X1957403D01*
X1951245Y2213999D02*
X1957337D01*
X1912484Y1922399D02*
X1957224D01*
X1924092Y1918799D02*
X1957034D01*
X1951098Y1956599D02*
X1956965D01*
X1913470Y2235599D02*
X1956865D01*
X1902800Y1880099D02*
X1956810D01*
X1912793Y1882799D02*
X1956748D01*
X1950870Y2213099D02*
X1956644D01*
X1933273Y1965599D02*
X1956608D01*
X1922219Y1921499D02*
X1956599D01*
X1949625Y1961999D02*
X1956544D01*
X1924004Y1919699D02*
X1956527D01*
X1913400Y2194199D02*
X1956525D01*
X1912487Y2197799D02*
X1956523D01*
X1950276Y1958399D02*
X1956464D01*
X1902800Y1880999D02*
X1956449D01*
X1911962Y1881899D02*
X1956431D01*
X1955265Y2211299D02*
X1956411D01*
X1949849Y2212199D02*
X1956408D01*
X1923550Y1920599D02*
X1956402D01*
X1951085Y1952999D02*
X1956377D01*
X1913034Y2366999D02*
X1956281D01*
X1912082Y2231999D02*
X1956277D01*
X1950973Y1955699D02*
X1956193D01*
X1950030Y1961099D02*
X1956136D01*
X1913480Y2234699D02*
X1956093D01*
X1913469Y2244599D02*
X1956076D01*
X1948503Y1962899D02*
X1956067D01*
X1913480Y1964699D02*
X1956055D01*
X1949806Y1959299D02*
X1956001D01*
X1913495Y2265299D02*
X1955985D01*
X1950819Y1953899D02*
X1955970D01*
X1913500Y2195099D02*
X1955961D01*
X1913084Y2196899D02*
X1955960D01*
X1950495Y1954799D02*
X1955917D01*
X1950083Y1960199D02*
X1955906D01*
X1913288Y1963799D02*
X1955900D01*
X1912859Y2232899D02*
X1955870D01*
X1913288Y2233799D02*
X1955817D01*
X1918974Y2260799D02*
X1955816D01*
X1913400Y2195999D02*
X1955800D01*
X1910306Y2249099D02*
X1955665D01*
X1913253Y2243699D02*
X1955612D01*
X1912569Y2362499D02*
X1955340D01*
X1913350Y2356199D02*
X1955125D01*
X1902800Y2359799D02*
X1955123D01*
X1913481Y2245499D02*
X1955077D01*
X1913440Y2264399D02*
X1955008D01*
X1944050Y2118599D02*
X1955003D01*
X1913377Y2366099D02*
X1954950D01*
X1918468Y2261699D02*
X1954949D01*
X1912085Y2248199D02*
X1954893D01*
X1912793Y2242799D02*
X1954748D01*
X1913289Y2246399D02*
X1954670D01*
X1913174Y2263499D02*
X1954648D01*
X1913130Y2363399D02*
X1954645D01*
X1916583Y2262599D02*
X1954631D01*
X1912861Y2247299D02*
X1954617D01*
X1912980Y2357099D02*
X1954561D01*
X1910943Y2358899D02*
X1954560D01*
X1913499Y2365199D02*
X1954496D01*
X1912978Y2123099D02*
X1954465D01*
X1911962Y2241899D02*
X1954431D01*
X1913421Y2364299D02*
X1954408D01*
X1912300Y2357999D02*
X1954400D01*
X1942719Y2119499D02*
X1953877D01*
X1912297Y2122199D02*
X1953693D01*
X1902800Y2120399D02*
X1953470D01*
X1910936Y2121299D02*
X1953417D01*
X1913253Y2333699D02*
X1953290D01*
X1913254Y2236499D02*
X1953127D01*
X1912085Y2338199D02*
X1953112D01*
X1948143Y2211299D02*
X1953035D01*
X1902800Y2240999D02*
X1952984D01*
X1940966Y2206799D02*
X1952690D01*
X1913469Y2334599D02*
X1952310D01*
X1902800Y1878299D02*
X1952285D01*
X1912861Y2337299D02*
X1952248D01*
X1912795Y2237399D02*
X1952160D01*
X1902800Y1873799D02*
X1952116D01*
X1902800Y2240099D02*
X1952110D01*
X1948640Y2210399D02*
X1951991D01*
X1913481Y2335499D02*
X1951949D01*
X1913289Y2336399D02*
X1951931D01*
X1948075Y2207699D02*
X1951871D01*
X1911965Y2238299D02*
X1951803D01*
X1909505Y2239199D02*
X1951788D01*
X1948800Y2209499D02*
X1951609D01*
X1948639Y2208599D02*
X1951574D01*
X1902800Y1877399D02*
X1951308D01*
X1902800Y1874699D02*
X1951249D01*
X1910661Y2401199D02*
X1951127D01*
X1902800Y1876499D02*
X1950948D01*
X1913400Y2375999D02*
X1950946D01*
X1902800Y1875599D02*
X1950931D01*
X1913033Y2383199D02*
X1950572D01*
X1913349Y2393999D02*
X1950445D01*
X1930083Y2303099D02*
X1950403D01*
X1913456Y2225699D02*
X1950125D01*
X1902800Y2229299D02*
X1950123D01*
X1912651Y2307599D02*
X1949865D01*
X1902800Y2400299D02*
X1949793D01*
X1913084Y2376899D02*
X1949716D01*
X1913216Y2226599D02*
X1949561D01*
X1911835Y2228399D02*
X1949560D01*
X1912394Y2382299D02*
X1949538D01*
X1913495Y2394899D02*
X1949474D01*
X1912725Y2227499D02*
X1949400D01*
X1913349Y2303999D02*
X1949277D01*
X1902800Y2399399D02*
X1949120D01*
X1913175Y2306699D02*
X1949093D01*
X1912487Y2377799D02*
X1949077D01*
X1911164Y2381399D02*
X1948978D01*
X1913440Y2395799D02*
X1948942D01*
X1913495Y2304899D02*
X1948870D01*
X1913440Y2305799D02*
X1948817D01*
X1911693Y2398499D02*
X1948755D01*
X1911365Y2378699D02*
X1948734D01*
X1902800Y2380499D02*
X1948688D01*
X1913175Y2396699D02*
X1948673D01*
X1912651Y2397599D02*
X1948613D01*
X1902800Y2379599D02*
X1948611D01*
X1910294Y2141099D02*
X1948194D01*
X1902800Y2150999D02*
X1947831D01*
X1902800Y1950299D02*
X1947560D01*
X1902800Y2160899D02*
X1947557D01*
X1902800Y2170799D02*
X1947331D01*
X1944083Y2216699D02*
X1947265D01*
X1913174Y2173499D02*
X1947140D01*
X1919092Y2180699D02*
X1947135D01*
X1913215Y2163599D02*
X1946967D01*
X1913253Y2153699D02*
X1946811D01*
X1913288Y2143799D02*
X1946669D01*
X1912297Y2212199D02*
X1946575D01*
X1913320Y2133899D02*
X1946538D01*
X1912978Y2213099D02*
X1946530D01*
X1913489Y1954799D02*
X1946505D01*
X1912859Y1962899D02*
X1946497D01*
X1943806Y2215799D02*
X1946430D01*
X1902800Y2140199D02*
X1946415D01*
X1910661Y1951199D02*
X1946394D01*
X1902800Y2150099D02*
X1946304D01*
X1902800Y2159999D02*
X1946200D01*
X1913320Y1953899D02*
X1946181D01*
X1913349Y2213999D02*
X1946155D01*
X1943031Y2214899D02*
X1946126D01*
X1902800Y2169899D02*
X1946104D01*
X1912725Y1957499D02*
X1946099D01*
X1913456Y1955699D02*
X1946027D01*
X1913440Y2174399D02*
X1946016D01*
X1919004Y2179799D02*
X1946013D01*
X1912193Y1952099D02*
X1945976D01*
X1911835Y1958399D02*
X1945969D01*
X1913456Y2164499D02*
X1945931D01*
X1912921Y1952999D02*
X1945915D01*
X1913216Y1956599D02*
X1945902D01*
X1913469Y2154599D02*
X1945851D01*
X1913480Y2144699D02*
X1945777D01*
X1913489Y2134799D02*
X1945707D01*
X1902800Y2139299D02*
X1945639D01*
X1909505Y2149199D02*
X1945578D01*
X1910306Y2159099D02*
X1945520D01*
X1910669Y2168999D02*
X1945466D01*
X1913495Y2175299D02*
X1945417D01*
X1918548Y2178899D02*
X1945416D01*
X1912082Y1961999D02*
X1945375D01*
X1913489Y2165399D02*
X1945370D01*
X1913481Y2155499D02*
X1945326D01*
X1913470Y2145599D02*
X1945285D01*
X1913456Y2135699D02*
X1945247D01*
X1911835Y2138399D02*
X1945211D01*
X1902800Y1959299D02*
X1945194D01*
X1911965Y2148299D02*
X1945179D01*
X1912085Y2158199D02*
X1945150D01*
X1912196Y2168099D02*
X1945123D01*
X1913350Y2176199D02*
X1945100D01*
X1917210Y2177999D02*
X1945100D01*
X1913321Y2166299D02*
X1945079D01*
X1913289Y2156399D02*
X1945060D01*
X1913254Y2146499D02*
X1945044D01*
X1913216Y2136599D02*
X1945031D01*
X1912725Y2137499D02*
X1945019D01*
X1912795Y2147399D02*
X1945011D01*
X1912861Y2157299D02*
X1945005D01*
X1912922Y2167199D02*
X1945001D01*
X1912980Y2177099D02*
X1945000D01*
X1910294Y1961099D02*
X1944970D01*
X1902800Y1960199D02*
X1944917D01*
X1941473Y2207699D02*
X1944325D01*
X1910936Y2211299D02*
X1944323D01*
X1913132Y1936799D02*
X1944309D01*
X1912394Y1932299D02*
X1944040D01*
X1941598Y2208599D02*
X1943761D01*
X1940776Y2210399D02*
X1943760D01*
X1912571Y1937699D02*
X1943622D01*
X1941401Y2209499D02*
X1943600D01*
X1913421Y1935899D02*
X1943376D01*
X1912297Y1942199D02*
X1943284D01*
X1913033Y1933199D02*
X1943236D01*
X1902800Y2070899D02*
X1943224D01*
X1912861Y2067299D02*
X1943034D01*
X1913499Y1934999D02*
X1942986D01*
X1913376Y1934099D02*
X1942946D01*
X1902800Y2069999D02*
X1942599D01*
X1913349Y1943999D02*
X1942590D01*
X1911538Y1938599D02*
X1942581D01*
X1912085Y2068199D02*
X1942527D01*
X1910936Y1941299D02*
X1942463D01*
X1910306Y2069099D02*
X1942402D01*
X1902800Y1939499D02*
X1942199D01*
X1902800Y1940399D02*
X1942165D01*
X1911693Y1948499D02*
X1942091D01*
X1912980Y2267099D02*
X1942003D01*
X1913495Y1944899D02*
X1941482D01*
X1911533Y2271599D02*
X1941465D01*
X1912651Y1947599D02*
X1941310D01*
X1902800Y2119499D02*
X1941281D01*
X1913440Y1945799D02*
X1941080D01*
X1913175Y1946699D02*
X1941030D01*
X1912300Y2267999D02*
X1940877D01*
X1902800Y2270699D02*
X1940693D01*
X1910943Y2268899D02*
X1940470D01*
X1902800Y2269799D02*
X1940417D01*
X1913499Y2114999D02*
X1940340D01*
X1913495Y2214899D02*
X1939969D01*
X1911538Y2118599D02*
X1939950D01*
X1913421Y2115899D02*
X1939645D01*
X1912571Y2117699D02*
X1939496D01*
X1913132Y2116799D02*
X1939408D01*
X1913440Y2215799D02*
X1939194D01*
X1913175Y2216699D02*
X1938917D01*
X1911360Y2191499D02*
X1938281D01*
X1912651Y2217599D02*
X1938003D01*
X1934069Y2222099D02*
X1937465D01*
X1913034Y2186999D02*
X1937340D01*
X1902800Y2210399D02*
X1937224D01*
X1913132Y2206799D02*
X1937034D01*
X1902800Y2190599D02*
X1936950D01*
X1911693Y2218499D02*
X1936877D01*
X1933751Y2221199D02*
X1936693D01*
X1912396Y2187899D02*
X1936645D01*
X1902800Y2209499D02*
X1936599D01*
X1912571Y2207699D02*
X1936527D01*
X1902800Y2189699D02*
X1936496D01*
X1902800Y2219399D02*
X1936470D01*
X1932884Y2220299D02*
X1936417D01*
X1911169Y2188799D02*
X1936408D01*
X1911538Y2208599D02*
X1936402D01*
X1913321Y2256299D02*
X1936285D01*
X1911831Y2251799D02*
X1936116D01*
X1913489Y2255399D02*
X1935308D01*
X1912723Y2252699D02*
X1935249D01*
X1913456Y2254499D02*
X1934948D01*
X1913215Y2253599D02*
X1934931D01*
X1902800Y1970099D02*
X1931417D01*
X1913489Y2224799D02*
X1930285D01*
X1902800Y2220299D02*
X1930116D01*
X1912978Y2303099D02*
X1929917D01*
X1913470Y1965599D02*
X1929727D01*
X1909505Y1969199D02*
X1929532D01*
X1913320Y2223899D02*
X1929308D01*
X1910661Y2221199D02*
X1929249D01*
X1913254Y1966499D02*
X1929101D01*
X1911965Y1968299D02*
X1929026D01*
X1912921Y2222999D02*
X1928948D01*
X1912193Y2222099D02*
X1928931D01*
X1912795Y1967399D02*
X1928902D01*
X1911538Y2298599D02*
X1928227D01*
X1912297Y2302199D02*
X1928032D01*
X1904623Y2299499D02*
X1927601D01*
X1910936Y2301299D02*
X1927526D01*
X1905030Y2300399D02*
X1927402D01*
X1902800Y1979999D02*
X1920781D01*
X1911360Y1921499D02*
X1920781D01*
X1913481Y1975499D02*
X1919840D01*
X1913034Y1916999D02*
X1919840D01*
X1910306Y1979099D02*
X1919450D01*
X1902800Y1920599D02*
X1919450D01*
X1913289Y1976399D02*
X1919145D01*
X1912396Y1917899D02*
X1919145D01*
X1912085Y1978199D02*
X1918996D01*
X1902800Y1919699D02*
X1918996D01*
X1912861Y1977299D02*
X1918908D01*
X1911169Y1918799D02*
X1918908D01*
X1912649Y2262599D02*
X1916417D01*
X1912300Y2177999D02*
X1915790D01*
X1911533Y1911599D02*
X1915503D01*
X1913377Y1916099D02*
X1914965D01*
X1912569Y2182499D02*
X1914837D01*
X1912196Y2258099D02*
X1914727D01*
X1911689Y2261699D02*
X1914532D01*
X1910943Y2178899D02*
X1914452D01*
X1912569Y1912499D02*
X1914377D01*
X1911533Y2181599D02*
X1914144D01*
X1910669Y2258999D02*
X1914101D01*
X1902800Y2260799D02*
X1914026D01*
X1902800Y2179799D02*
X1913996D01*
X1913145Y1913399D02*
X1913929D01*
X1902800Y2180699D02*
X1913908D01*
X1902800Y2259899D02*
X1913902D01*
X1902800Y2419199D02*
X1909295D01*
X1902800Y2329199D02*
X1909295D01*
X1902800Y2239199D02*
X1909295D01*
X1902800Y2149199D02*
X1909295D01*
X1902800Y2059199D02*
X1909295D01*
X1902800Y1969199D02*
X1909295D01*
X1902800Y2411099D02*
X1908506D01*
X1902800Y2321099D02*
X1908506D01*
X1902800Y2231099D02*
X1908506D01*
X1902800Y2141099D02*
X1908506D01*
X1902800Y2051099D02*
X1908506D01*
X1902800Y1961099D02*
X1908506D01*
X1902800Y2339099D02*
X1908494D01*
X1902800Y2249099D02*
X1908494D01*
X1902800Y2159099D02*
X1908494D01*
X1902800Y2069099D02*
X1908494D01*
X1902800Y1979099D02*
X1908494D01*
X1902800Y1889099D02*
X1908494D01*
X1902800Y2401199D02*
X1908139D01*
X1902800Y2311199D02*
X1908139D01*
X1902800Y2221199D02*
X1908139D01*
X1902800Y2131199D02*
X1908139D01*
X1902800Y2041199D02*
X1908139D01*
X1902800Y1951199D02*
X1908139D01*
X1902800Y2438999D02*
X1908131D01*
X1902800Y2348999D02*
X1908131D01*
X1902800Y2258999D02*
X1908131D01*
X1902800Y2168999D02*
X1908131D01*
X1902800Y2078999D02*
X1908131D01*
X1902800Y1988999D02*
X1908131D01*
X1902800Y1898999D02*
X1908131D01*
X1902800Y2391299D02*
X1907864D01*
X1905083Y2301299D02*
X1907864D01*
X1902800Y2211299D02*
X1907864D01*
X1902800Y2121299D02*
X1907864D01*
X1902800Y2031299D02*
X1907864D01*
X1902800Y1941299D02*
X1907864D01*
X1902800Y2448899D02*
X1907857D01*
X1902800Y2358899D02*
X1907857D01*
X1902800Y2268899D02*
X1907857D01*
X1902800Y2178899D02*
X1907857D01*
X1902800Y2088899D02*
X1907857D01*
X1902800Y1998899D02*
X1907857D01*
X1902800Y1908899D02*
X1907857D01*
X1902800Y2381399D02*
X1907636D01*
X1902800Y2291399D02*
X1907636D01*
X1902800Y2201399D02*
X1907636D01*
X1902800Y2111399D02*
X1907636D01*
X1902800Y2021399D02*
X1907636D01*
X1902800Y1931399D02*
X1907636D01*
X1902800Y2458799D02*
X1907631D01*
X1902800Y2368799D02*
X1907631D01*
X1902800Y2278799D02*
X1907631D01*
X1902800Y2188799D02*
X1907631D01*
X1902800Y2098799D02*
X1907631D01*
X1902800Y2008799D02*
X1907631D01*
X1902800Y1918799D02*
X1907631D01*
X1902800Y2371499D02*
X1907440D01*
X1902800Y2281499D02*
X1907440D01*
X1902800Y2191499D02*
X1907440D01*
X1902800Y2101499D02*
X1907440D01*
X1902800Y2011499D02*
X1907440D01*
X1902800Y1921499D02*
X1907440D01*
X1902800Y2378699D02*
X1907435D01*
X1902800Y2288699D02*
X1907435D01*
X1902800Y2198699D02*
X1907435D01*
X1902800Y2108699D02*
X1907435D01*
X1902800Y2018699D02*
X1907435D01*
X1902800Y1928699D02*
X1907435D01*
X1902800Y2451599D02*
X1907267D01*
X1902800Y2361599D02*
X1907267D01*
X1902800Y2271599D02*
X1907267D01*
X1902800Y2181599D02*
X1907267D01*
X1902800Y2091599D02*
X1907267D01*
X1902800Y2001599D02*
X1907267D01*
X1902800Y1911599D02*
X1907267D01*
X1902800Y2388599D02*
X1907262D01*
X1903497Y2298599D02*
X1907262D01*
X1902800Y2208599D02*
X1907262D01*
X1902800Y2118599D02*
X1907262D01*
X1902800Y2028599D02*
X1907262D01*
X1902800Y1938599D02*
X1907262D01*
X1902800Y2441699D02*
X1907111D01*
X1902800Y2351699D02*
X1907111D01*
X1902800Y2261699D02*
X1907111D01*
X1902800Y2171699D02*
X1907111D01*
X1902800Y2081699D02*
X1907111D01*
X1902800Y1991699D02*
X1907111D01*
X1902800Y1901699D02*
X1907111D01*
X1902800Y2398499D02*
X1907107D01*
X1902800Y2308499D02*
X1907107D01*
X1902800Y2218499D02*
X1907107D01*
X1902800Y2128499D02*
X1907107D01*
X1902800Y2038499D02*
X1907107D01*
X1902800Y1948499D02*
X1907107D01*
X1902800Y2341799D02*
X1906969D01*
X1902800Y2251799D02*
X1906969D01*
X1902800Y2161799D02*
X1906969D01*
X1902800Y2071799D02*
X1906969D01*
X1902800Y1981799D02*
X1906969D01*
X1902800Y1891799D02*
X1906969D01*
X1902800Y2408399D02*
X1906965D01*
X1902800Y2318399D02*
X1906965D01*
X1902800Y2228399D02*
X1906965D01*
X1902800Y2138399D02*
X1906965D01*
X1902800Y2048399D02*
X1906965D01*
X1902800Y1958399D02*
X1906965D01*
X1902800Y2421899D02*
X1906838D01*
X1902800Y2331899D02*
X1906838D01*
X1902800Y2241899D02*
X1906838D01*
X1902800Y2151899D02*
X1906838D01*
X1902800Y2061899D02*
X1906838D01*
X1902800Y1971899D02*
X1906838D01*
X1902800Y1881899D02*
X1906838D01*
X1902800Y2418299D02*
X1906835D01*
X1902800Y2328299D02*
X1906835D01*
X1902800Y2238299D02*
X1906835D01*
X1902800Y2148299D02*
X1906835D01*
X1902800Y2058299D02*
X1906835D01*
X1902800Y1968299D02*
X1906835D01*
X1902800Y2411999D02*
X1906718D01*
X1902800Y2321999D02*
X1906718D01*
X1902800Y2231999D02*
X1906718D01*
X1902800Y2141999D02*
X1906718D01*
X1902800Y2051999D02*
X1906718D01*
X1902800Y1961999D02*
X1906718D01*
X1902800Y2338199D02*
X1906715D01*
X1902800Y2248199D02*
X1906715D01*
X1902800Y2158199D02*
X1906715D01*
X1902800Y2068199D02*
X1906715D01*
X1902800Y1978199D02*
X1906715D01*
X1902800Y1888199D02*
X1906715D01*
X1902800Y2402099D02*
X1906607D01*
X1902800Y2312099D02*
X1906607D01*
X1902800Y2222099D02*
X1906607D01*
X1902800Y2132099D02*
X1906607D01*
X1902800Y2042099D02*
X1906607D01*
X1902800Y1952099D02*
X1906607D01*
X1902800Y2438099D02*
X1906604D01*
X1902800Y2348099D02*
X1906604D01*
X1902800Y2258099D02*
X1906604D01*
X1902800Y2168099D02*
X1906604D01*
X1902800Y2078099D02*
X1906604D01*
X1902800Y1988099D02*
X1906604D01*
X1902800Y1898099D02*
X1906604D01*
X1902800Y2392199D02*
X1906503D01*
X1904807Y2302199D02*
X1906503D01*
X1902800Y2212199D02*
X1906503D01*
X1902800Y2122199D02*
X1906503D01*
X1902800Y2032199D02*
X1906503D01*
X1902800Y1942199D02*
X1906503D01*
X1902800Y2447999D02*
X1906500D01*
X1902800Y2357999D02*
X1906500D01*
X1902800Y2267999D02*
X1906500D01*
X1902800Y2177999D02*
X1906500D01*
X1902800Y2087999D02*
X1906500D01*
X1902800Y1997999D02*
X1906500D01*
X1902800Y1907999D02*
X1906500D01*
X1902800Y2382299D02*
X1906406D01*
X1902800Y2292299D02*
X1906406D01*
X1902800Y2202299D02*
X1906406D01*
X1902800Y2112299D02*
X1906406D01*
X1902800Y2022299D02*
X1906406D01*
X1902800Y1932299D02*
X1906406D01*
X1902800Y2457899D02*
X1906404D01*
X1902800Y2367899D02*
X1906404D01*
X1902800Y2277899D02*
X1906404D01*
X1902800Y2187899D02*
X1906404D01*
X1902800Y2097899D02*
X1906404D01*
X1902800Y2007899D02*
X1906404D01*
X1902800Y1917899D02*
X1906404D01*
X1902800Y2372399D02*
X1906316D01*
X1902800Y2282399D02*
X1906316D01*
X1902800Y2192399D02*
X1906316D01*
X1902800Y2102399D02*
X1906316D01*
X1902800Y2012399D02*
X1906316D01*
X1902800Y1922399D02*
X1906316D01*
X1902800Y2377799D02*
X1906313D01*
X1902800Y2287799D02*
X1906313D01*
X1902800Y2197799D02*
X1906313D01*
X1902800Y2107799D02*
X1906313D01*
X1902800Y2017799D02*
X1906313D01*
X1902800Y1927799D02*
X1906313D01*
X1902800Y2452499D02*
X1906231D01*
X1902800Y2362499D02*
X1906231D01*
X1902800Y2272499D02*
X1906231D01*
X1902800Y2182499D02*
X1906231D01*
X1902800Y2092499D02*
X1906231D01*
X1902800Y2002499D02*
X1906231D01*
X1902800Y1912499D02*
X1906231D01*
X1902800Y2387699D02*
X1906229D01*
X1902800Y2297699D02*
X1906229D01*
X1902800Y2207699D02*
X1906229D01*
X1902800Y2117699D02*
X1906229D01*
X1902800Y2027699D02*
X1906229D01*
X1902800Y1937699D02*
X1906229D01*
X1902800Y2442599D02*
X1906151D01*
X1902800Y2352599D02*
X1906151D01*
X1902800Y2262599D02*
X1906151D01*
X1902800Y2172599D02*
X1906151D01*
X1902800Y2082599D02*
X1906151D01*
X1902800Y1992599D02*
X1906151D01*
X1902800Y1902599D02*
X1906151D01*
X1902800Y2397599D02*
X1906149D01*
X1902800Y2307599D02*
X1906149D01*
X1902800Y2217599D02*
X1906149D01*
X1902800Y2127599D02*
X1906149D01*
X1902800Y2037599D02*
X1906149D01*
X1902800Y1947599D02*
X1906149D01*
X1902800Y2342699D02*
X1906077D01*
X1902800Y2252699D02*
X1906077D01*
X1902800Y2162699D02*
X1906077D01*
X1902800Y2072699D02*
X1906077D01*
X1902800Y1982699D02*
X1906077D01*
X1902800Y1892699D02*
X1906077D01*
X1902800Y2407499D02*
X1906075D01*
X1902800Y2317499D02*
X1906075D01*
X1902800Y2227499D02*
X1906075D01*
X1902800Y2137499D02*
X1906075D01*
X1902800Y2047499D02*
X1906075D01*
X1902800Y1957499D02*
X1906075D01*
X1902800Y2422799D02*
X1906007D01*
X1902800Y2332799D02*
X1906007D01*
X1902800Y2242799D02*
X1906007D01*
X1902800Y2152799D02*
X1906007D01*
X1902800Y2062799D02*
X1906007D01*
X1902800Y1972799D02*
X1906007D01*
X1902800Y1882799D02*
X1906007D01*
X1902800Y2417399D02*
X1906005D01*
X1902800Y2327399D02*
X1906005D01*
X1902800Y2237399D02*
X1906005D01*
X1902800Y2147399D02*
X1906005D01*
X1902800Y2057399D02*
X1906005D01*
X1902800Y1967399D02*
X1906005D01*
X1902800Y2432699D02*
X1905976D01*
X1902800Y2412899D02*
X1905941D01*
X1902800Y2322899D02*
X1905941D01*
X1902800Y2232899D02*
X1905941D01*
X1902800Y2142899D02*
X1905941D01*
X1902800Y2052899D02*
X1905941D01*
X1902800Y1962899D02*
X1905941D01*
X1902800Y2337299D02*
X1905939D01*
X1902800Y2247299D02*
X1905939D01*
X1902800Y2157299D02*
X1905939D01*
X1902800Y2067299D02*
X1905939D01*
X1902800Y1977299D02*
X1905939D01*
X1902800Y1887299D02*
X1905939D01*
X1902800Y2427299D02*
X1905886D01*
X1902800Y2402999D02*
X1905879D01*
X1902800Y2312999D02*
X1905879D01*
X1902800Y2222999D02*
X1905879D01*
X1902800Y2132999D02*
X1905879D01*
X1902800Y2042999D02*
X1905879D01*
X1902800Y1952999D02*
X1905879D01*
X1902800Y2437199D02*
X1905878D01*
X1902800Y2347199D02*
X1905878D01*
X1902800Y2257199D02*
X1905878D01*
X1902800Y2167199D02*
X1905878D01*
X1902800Y2077199D02*
X1905878D01*
X1902800Y1987199D02*
X1905878D01*
X1902800Y1897199D02*
X1905878D01*
X1902800Y2393099D02*
X1905822D01*
X1904035Y2303099D02*
X1905822D01*
X1902800Y2213099D02*
X1905822D01*
X1902800Y2123099D02*
X1905822D01*
X1902800Y2033099D02*
X1905822D01*
X1902800Y1943099D02*
X1905822D01*
X1902800Y2447099D02*
X1905820D01*
X1902800Y2357099D02*
X1905820D01*
X1902800Y2267099D02*
X1905820D01*
X1902800Y2177099D02*
X1905820D01*
X1902800Y2087099D02*
X1905820D01*
X1902800Y1997099D02*
X1905820D01*
X1902800Y1907099D02*
X1905820D01*
X1902800Y2383199D02*
X1905767D01*
X1902800Y2293199D02*
X1905767D01*
X1902800Y2203199D02*
X1905767D01*
X1902800Y2113199D02*
X1905767D01*
X1902800Y2023199D02*
X1905767D01*
X1902800Y1933199D02*
X1905767D01*
X1902800Y2456999D02*
X1905766D01*
X1902800Y2366999D02*
X1905766D01*
X1902800Y2276999D02*
X1905766D01*
X1902800Y2186999D02*
X1905766D01*
X1902800Y2096999D02*
X1905766D01*
X1902800Y2006999D02*
X1905766D01*
X1902800Y1916999D02*
X1905766D01*
X1902800Y2373299D02*
X1905717D01*
X1902800Y2283299D02*
X1905717D01*
X1902800Y2193299D02*
X1905717D01*
X1902800Y2103299D02*
X1905717D01*
X1902800Y2013299D02*
X1905717D01*
X1902800Y1923299D02*
X1905717D01*
X1902800Y2376899D02*
X1905716D01*
X1902800Y2286899D02*
X1905716D01*
X1902800Y2196899D02*
X1905716D01*
X1902800Y2106899D02*
X1905716D01*
X1902800Y2016899D02*
X1905716D01*
X1902800Y1926899D02*
X1905716D01*
X1902800Y2453399D02*
X1905670D01*
X1902800Y2363399D02*
X1905670D01*
X1902800Y2273399D02*
X1905670D01*
X1902800Y2183399D02*
X1905670D01*
X1902800Y2093399D02*
X1905670D01*
X1902800Y2003399D02*
X1905670D01*
X1902800Y1913399D02*
X1905670D01*
X1902800Y2386799D02*
X1905668D01*
X1902800Y2296799D02*
X1905668D01*
X1902800Y2206799D02*
X1905668D01*
X1902800Y2116799D02*
X1905668D01*
X1902800Y2026799D02*
X1905668D01*
X1902800Y1936799D02*
X1905668D01*
X1902800Y2443499D02*
X1905626D01*
X1902800Y2353499D02*
X1905626D01*
X1902800Y2263499D02*
X1905626D01*
X1902800Y2173499D02*
X1905626D01*
X1902800Y2083499D02*
X1905626D01*
X1902800Y1993499D02*
X1905626D01*
X1902800Y1903499D02*
X1905626D01*
X1902800Y2396699D02*
X1905625D01*
X1902800Y2306699D02*
X1905625D01*
X1902800Y2216699D02*
X1905625D01*
X1902800Y2126699D02*
X1905625D01*
X1902800Y2036699D02*
X1905625D01*
X1902800Y1946699D02*
X1905625D01*
X1902800Y2433599D02*
X1905585D01*
X1902800Y2343599D02*
X1905585D01*
X1902800Y2253599D02*
X1905585D01*
X1902800Y2163599D02*
X1905585D01*
X1902800Y2073599D02*
X1905585D01*
X1902800Y1983599D02*
X1905585D01*
X1902800Y1893599D02*
X1905585D01*
X1902800Y2406599D02*
X1905584D01*
X1902800Y2316599D02*
X1905584D01*
X1902800Y2226599D02*
X1905584D01*
X1902800Y2136599D02*
X1905584D01*
X1902800Y2046599D02*
X1905584D01*
X1902800Y1956599D02*
X1905584D01*
X1902800Y2423699D02*
X1905547D01*
X1902800Y2333699D02*
X1905547D01*
X1902800Y2243699D02*
X1905547D01*
X1902800Y2153699D02*
X1905547D01*
X1902800Y2063699D02*
X1905547D01*
X1902800Y1973699D02*
X1905547D01*
X1902800Y1883699D02*
X1905547D01*
X1902800Y2416499D02*
X1905546D01*
X1902800Y2326499D02*
X1905546D01*
X1902800Y2236499D02*
X1905546D01*
X1902800Y2146499D02*
X1905546D01*
X1902800Y2056499D02*
X1905546D01*
X1902800Y1966499D02*
X1905546D01*
X1902800Y2413799D02*
X1905512D01*
X1902800Y2323799D02*
X1905512D01*
X1902800Y2233799D02*
X1905512D01*
X1902800Y2143799D02*
X1905512D01*
X1902800Y2053799D02*
X1905512D01*
X1902800Y1963799D02*
X1905512D01*
X1902800Y2426399D02*
X1905511D01*
X1902800Y2336399D02*
X1905511D01*
X1902800Y2246399D02*
X1905511D01*
X1902800Y2156399D02*
X1905511D01*
X1902800Y2066399D02*
X1905511D01*
X1902800Y1976399D02*
X1905511D01*
X1902800Y1886399D02*
X1905511D01*
X1902800Y2403899D02*
X1905480D01*
X1902800Y2313899D02*
X1905480D01*
X1902800Y2223899D02*
X1905480D01*
X1902800Y2133899D02*
X1905480D01*
X1902800Y2043899D02*
X1905480D01*
X1902800Y1953899D02*
X1905480D01*
X1902800Y2436299D02*
X1905479D01*
X1902800Y2346299D02*
X1905479D01*
X1902800Y2256299D02*
X1905479D01*
X1902800Y2166299D02*
X1905479D01*
X1902800Y2076299D02*
X1905479D01*
X1902800Y1986299D02*
X1905479D01*
X1902800Y1896299D02*
X1905479D01*
X1902800Y2393999D02*
X1905451D01*
X1902800Y2303999D02*
X1905451D01*
X1902800Y2213999D02*
X1905451D01*
X1902800Y2123999D02*
X1905451D01*
X1902800Y2033999D02*
X1905451D01*
X1902800Y1943999D02*
X1905451D01*
X1902800Y2446199D02*
X1905450D01*
X1902800Y2356199D02*
X1905450D01*
X1902800Y2266199D02*
X1905450D01*
X1902800Y2176199D02*
X1905450D01*
X1902800Y2086199D02*
X1905450D01*
X1902800Y1996199D02*
X1905450D01*
X1902800Y1906199D02*
X1905450D01*
X1902800Y2384099D02*
X1905424D01*
X1902800Y2294099D02*
X1905424D01*
X1902800Y2204099D02*
X1905424D01*
X1902800Y2114099D02*
X1905424D01*
X1902800Y2024099D02*
X1905424D01*
X1902800Y1934099D02*
X1905424D01*
X1902800Y2456099D02*
X1905423D01*
X1902800Y2366099D02*
X1905423D01*
X1902800Y2276099D02*
X1905423D01*
X1902800Y2186099D02*
X1905423D01*
X1902800Y2096099D02*
X1905423D01*
X1902800Y2006099D02*
X1905423D01*
X1902800Y1916099D02*
X1905423D01*
X1902800Y2374199D02*
X1905400D01*
X1902800Y2284199D02*
X1905400D01*
X1902800Y2194199D02*
X1905400D01*
X1902800Y2104199D02*
X1905400D01*
X1902800Y2014199D02*
X1905400D01*
X1902800Y1924199D02*
X1905400D01*
X1902800Y2375999D02*
X1905400D01*
X1902800Y2285999D02*
X1905400D01*
X1902800Y2195999D02*
X1905400D01*
X1902800Y2105999D02*
X1905400D01*
X1902800Y2015999D02*
X1905400D01*
X1902800Y1925999D02*
X1905400D01*
X1902800Y2454299D02*
X1905379D01*
X1902800Y2364299D02*
X1905379D01*
X1902800Y2274299D02*
X1905379D01*
X1902800Y2184299D02*
X1905379D01*
X1902800Y2094299D02*
X1905379D01*
X1902800Y2004299D02*
X1905379D01*
X1902800Y1914299D02*
X1905379D01*
X1902800Y2385899D02*
X1905379D01*
X1902800Y2295899D02*
X1905379D01*
X1902800Y2205899D02*
X1905379D01*
X1902800Y2115899D02*
X1905379D01*
X1902800Y2025899D02*
X1905379D01*
X1902800Y1935899D02*
X1905379D01*
X1902800Y2444399D02*
X1905360D01*
X1902800Y2354399D02*
X1905360D01*
X1902800Y2264399D02*
X1905360D01*
X1902800Y2174399D02*
X1905360D01*
X1902800Y2084399D02*
X1905360D01*
X1902800Y1994399D02*
X1905360D01*
X1902800Y1904399D02*
X1905360D01*
X1902800Y2395799D02*
X1905360D01*
X1902800Y2305799D02*
X1905360D01*
X1902800Y2215799D02*
X1905360D01*
X1902800Y2125799D02*
X1905360D01*
X1902800Y2035799D02*
X1905360D01*
X1902800Y1945799D02*
X1905360D01*
X1902800Y2434499D02*
X1905344D01*
X1902800Y2344499D02*
X1905344D01*
X1902800Y2254499D02*
X1905344D01*
X1902800Y2164499D02*
X1905344D01*
X1902800Y2074499D02*
X1905344D01*
X1902800Y1984499D02*
X1905344D01*
X1902800Y1894499D02*
X1905344D01*
X1902800Y2405699D02*
X1905344D01*
X1902800Y2315699D02*
X1905344D01*
X1902800Y2225699D02*
X1905344D01*
X1902800Y2135699D02*
X1905344D01*
X1902800Y2045699D02*
X1905344D01*
X1902800Y1955699D02*
X1905344D01*
X1902800Y2424599D02*
X1905331D01*
X1902800Y2334599D02*
X1905331D01*
X1902800Y2244599D02*
X1905331D01*
X1902800Y2154599D02*
X1905331D01*
X1902800Y2064599D02*
X1905331D01*
X1902800Y1974599D02*
X1905331D01*
X1902800Y1884599D02*
X1905331D01*
X1902800Y2415599D02*
X1905330D01*
X1902800Y2325599D02*
X1905330D01*
X1902800Y2235599D02*
X1905330D01*
X1902800Y2145599D02*
X1905330D01*
X1902800Y2055599D02*
X1905330D01*
X1902800Y1965599D02*
X1905330D01*
X1902800Y2414699D02*
X1905320D01*
X1902800Y2324699D02*
X1905320D01*
X1902800Y2234699D02*
X1905320D01*
X1902800Y2144699D02*
X1905320D01*
X1902800Y2054699D02*
X1905320D01*
X1902800Y1964699D02*
X1905320D01*
X1902800Y2425499D02*
X1905319D01*
X1902800Y2335499D02*
X1905319D01*
X1902800Y2245499D02*
X1905319D01*
X1902800Y2155499D02*
X1905319D01*
X1902800Y2065499D02*
X1905319D01*
X1902800Y1975499D02*
X1905319D01*
X1902800Y1885499D02*
X1905319D01*
X1902800Y2404799D02*
X1905311D01*
X1902800Y2314799D02*
X1905311D01*
X1902800Y2224799D02*
X1905311D01*
X1902800Y2134799D02*
X1905311D01*
X1902800Y2044799D02*
X1905311D01*
X1902800Y1954799D02*
X1905311D01*
X1902800Y2435399D02*
X1905311D01*
X1902800Y2345399D02*
X1905311D01*
X1902800Y2255399D02*
X1905311D01*
X1902800Y2165399D02*
X1905311D01*
X1902800Y2075399D02*
X1905311D01*
X1902800Y1985399D02*
X1905311D01*
X1902800Y1895399D02*
X1905311D01*
X1902800Y2394899D02*
X1905305D01*
X1902800Y2304899D02*
X1905305D01*
X1902800Y2214899D02*
X1905305D01*
X1902800Y2124899D02*
X1905305D01*
X1902800Y2034899D02*
X1905305D01*
X1902800Y1944899D02*
X1905305D01*
X1902800Y2445299D02*
X1905305D01*
X1902800Y2355299D02*
X1905305D01*
X1902800Y2265299D02*
X1905305D01*
X1902800Y2175299D02*
X1905305D01*
X1902800Y2085299D02*
X1905305D01*
X1902800Y1995299D02*
X1905305D01*
X1902800Y1905299D02*
X1905305D01*
X1902800Y2384999D02*
X1905301D01*
X1902800Y2294999D02*
X1905301D01*
X1902800Y2204999D02*
X1905301D01*
X1902800Y2114999D02*
X1905301D01*
X1902800Y2024999D02*
X1905301D01*
X1902800Y1934999D02*
X1905301D01*
X1902800Y2455199D02*
X1905301D01*
X1902800Y2365199D02*
X1905301D01*
X1902800Y2275199D02*
X1905301D01*
X1902800Y2185199D02*
X1905301D01*
X1902800Y2095199D02*
X1905301D01*
X1902800Y2005199D02*
X1905301D01*
X1902800Y1915199D02*
X1905301D01*
X1902800Y2375099D02*
X1905300D01*
X1902800Y2285099D02*
X1905300D01*
X1902800Y2195099D02*
X1905300D01*
X1902800Y2105099D02*
X1905300D01*
X1902800Y2015099D02*
X1905300D01*
X1902800Y1925099D02*
X1905300D01*
X1902800Y2428199D02*
X1905125D01*
X1902800Y2431799D02*
X1905123D01*
X1902800Y2429099D02*
X1904561D01*
X1902800Y2430899D02*
X1904560D01*
X1902800Y2429999D02*
X1904400D01*
G54D28*
X1982500Y1854500D03*
X2035500Y1895500D03*
X1976000Y1934000D03*
X2033489Y1936142D03*
X2023489D03*
X2043489D03*
X2029753Y1941542D03*
X2047342Y1955370D03*
Y1945370D03*
X2039418Y1941208D03*
X2041942Y1951299D03*
X1958500Y1963815D03*
X1989000Y1975500D03*
X2047342Y1975370D03*
Y1965370D03*
X2041942Y1961299D03*
Y1971299D03*
X2047342Y1995370D03*
Y1985370D03*
X2041942Y1981299D03*
Y1991299D03*
X2047342Y2015370D03*
Y2005370D03*
X2041942Y2001299D03*
Y2011299D03*
X2035689Y2031329D03*
X2031571Y2027810D03*
X2042760Y2024258D03*
X2038254Y2021128D03*
X2035600Y2051329D03*
Y2041329D03*
X2030200Y2037716D03*
X2030496Y2047716D03*
X2035600Y2071329D03*
Y2061329D03*
X2030200Y2057716D03*
Y2067716D03*
X2035600Y2091329D03*
Y2081329D03*
X2030200Y2078300D03*
Y2087716D03*
X2035600Y2111329D03*
Y2101329D03*
X2030429Y2097945D03*
X2030200Y2107716D03*
X2035600Y2131329D03*
Y2121329D03*
X2030200Y2117716D03*
Y2127716D03*
X2035600Y2151329D03*
X2036285Y2142014D03*
X2030200Y2137716D03*
Y2147716D03*
X2045652Y2152630D03*
X2075553Y2152300D03*
X2065553D03*
X2059435D03*
X2023290Y2173111D03*
X2032210Y2157512D03*
X2043085Y2157700D03*
X2052208D03*
X2062208D03*
X2072208D03*
X1958400Y2196000D03*
X1985000Y2193500D03*
X1996354Y2179638D03*
X2011500Y2193500D03*
X2082200Y2185125D03*
Y2195125D03*
X1939000Y2208500D03*
X2043500Y2214000D03*
X2082200Y2205125D03*
X2081026Y2215055D03*
X2065500Y2233000D03*
X2043500Y2264000D03*
X2065500Y2267500D03*
X2013000Y2279500D03*
X2020500Y2383500D03*
X2041500Y2395500D03*
X2020500Y2443500D03*
G54D29*
X1912299Y2447999D02*
X1911521Y2447221D01*
X1906501Y2447999D02*
X1907279Y2447221D01*
X1906501Y2442201D02*
X1907279Y2442979D01*
X1912299Y2442201D02*
X1911521Y2442979D01*
X2016017Y2240117D02*
X2015239Y2239339D01*
X1996783Y2240117D02*
X1997561Y2239339D01*
X1996783Y2220883D02*
X1997561Y2221661D01*
X2016017Y2220883D02*
X2015239Y2221661D01*
X2052901Y2342799D02*
X2053679Y2342021D01*
X2052901Y2337001D02*
X2053679Y2337779D01*
X2058699Y2337001D02*
X2057921Y2337779D01*
X2058699Y2342799D02*
X2057921Y2342021D01*
X2072801Y1960301D02*
X2073579Y1961079D01*
X2078599Y1960301D02*
X2077821Y1961079D01*
X2078599Y1966099D02*
X2077821Y1965321D01*
X2072801Y1966099D02*
X2073579Y1965321D01*
X2052901Y2302799D02*
X2053679Y2302021D01*
X2052901Y2297001D02*
X2053679Y2297779D01*
X2058699Y2297001D02*
X2057921Y2297779D01*
X2058699Y2302799D02*
X2057921Y2302021D01*
X1949810Y2382599D02*
X1950588Y2381821D01*
X1949810Y2376801D02*
X1950588Y2377579D01*
X1955609Y2376801D02*
X1954831Y2377579D01*
X1955609Y2382599D02*
X1954831Y2381821D01*
X2084299Y2122601D02*
X2083521Y2123379D01*
X2084299Y2128399D02*
X2083521Y2127621D01*
X2078501Y2128399D02*
X2079279Y2127621D01*
X2078501Y2122601D02*
X2079279Y2123379D01*
X2084299Y2112601D02*
X2083521Y2113379D01*
X2084299Y2118399D02*
X2083521Y2117621D01*
X2078501Y2118399D02*
X2079279Y2117621D01*
X2078501Y2112601D02*
X2079279Y2113379D01*
X2084299Y2102601D02*
X2083521Y2103379D01*
X2084299Y2108399D02*
X2083521Y2107621D01*
X2078501Y2108399D02*
X2079279Y2107621D01*
X2078501Y2102601D02*
X2079279Y2103379D01*
X2084299Y2092601D02*
X2083521Y2093379D01*
X2084299Y2098399D02*
X2083521Y2097621D01*
X2078501Y2098399D02*
X2079279Y2097621D01*
X2078501Y2092601D02*
X2079279Y2093379D01*
X2084299Y2082601D02*
X2083521Y2083379D01*
X2084299Y2088399D02*
X2083521Y2087621D01*
X2078501Y2088399D02*
X2079279Y2087621D01*
X2078501Y2082601D02*
X2079279Y2083379D01*
X2084299Y2072601D02*
X2083521Y2073379D01*
X2084299Y2078399D02*
X2083521Y2077621D01*
X2078501Y2078399D02*
X2079279Y2077621D01*
X2078501Y2072601D02*
X2079279Y2073379D01*
X2084299Y2062601D02*
X2083521Y2063379D01*
X2084299Y2068399D02*
X2083521Y2067621D01*
X2078501Y2068399D02*
X2079279Y2067621D01*
X2078501Y2062601D02*
X2079279Y2063379D01*
X2084299Y2052601D02*
X2083521Y2053379D01*
X2084299Y2058399D02*
X2083521Y2057621D01*
X2078501Y2058399D02*
X2079279Y2057621D01*
X2078501Y2052601D02*
X2079279Y2053379D01*
X2084299Y2042601D02*
X2083521Y2043379D01*
X2084299Y2048399D02*
X2083521Y2047621D01*
X2078501Y2048399D02*
X2079279Y2047621D01*
X2078501Y2042601D02*
X2079279Y2043379D01*
X2084299Y2032601D02*
X2083521Y2033379D01*
X2084299Y2038399D02*
X2083521Y2037621D01*
X2078501Y2038399D02*
X2079279Y2037621D01*
X2078501Y2032601D02*
X2079279Y2033379D01*
X1951999Y2174201D02*
X1951221Y2174979D01*
X1951999Y2179999D02*
X1951221Y2179221D01*
X1946201Y2179999D02*
X1946979Y2179221D01*
X1946201Y2174201D02*
X1946979Y2174979D01*
X2066537Y1907163D02*
X2067315Y1906385D01*
X2071063Y1902637D02*
X2070285Y1903415D01*
X2071063Y1907163D02*
X2070285Y1906385D01*
X2071063Y1892637D02*
X2070285Y1893415D01*
X2071063Y1897163D02*
X2070285Y1896385D01*
X2071063Y1887637D02*
X2070285Y1888415D01*
X2071063Y1892163D02*
X2070285Y1891385D01*
X2072801Y1934710D02*
X2073579Y1935488D01*
X2078599Y1934710D02*
X2077821Y1935488D01*
X2078599Y1940509D02*
X2077821Y1939731D01*
X2072801Y1940509D02*
X2073579Y1939731D01*
X1975401Y2382599D02*
X1976179Y2381821D01*
X1981199Y2376801D02*
X1980421Y2377579D01*
X1981199Y2382599D02*
X1980421Y2381821D01*
X1977838Y1935838D02*
X1977061Y1935061D01*
X1974162Y1935838D02*
X1974939Y1935061D01*
X1977838Y1932162D02*
X1977061Y1932939D01*
X1998192Y2181476D02*
X1997415Y2180699D01*
X1998192Y2177799D02*
X1997415Y2178577D01*
X2067391Y2154138D02*
X2066613Y2153361D01*
X2063714Y2154138D02*
X2064492Y2153361D01*
X2063714Y2150462D02*
X2064492Y2151239D01*
X2067391Y2150462D02*
X2066613Y2151239D01*
X2077391Y2154138D02*
X2076613Y2153361D01*
X2073714Y2154138D02*
X2074492Y2153361D01*
X2073714Y2150462D02*
X2074492Y2151239D01*
X2077391Y2150462D02*
X2076613Y2151239D01*
X2061274Y2154138D02*
X2060496Y2153361D01*
X2057597Y2154138D02*
X2058374Y2153361D01*
X2057597Y2150462D02*
X2058374Y2151239D01*
X2061274Y2150462D02*
X2060496Y2151239D01*
X2047490Y2154469D02*
X2046712Y2153691D01*
X2043813Y2154469D02*
X2044591Y2153691D01*
X2043813Y2150792D02*
X2044591Y2151570D01*
X2047490Y2150792D02*
X2046712Y2151570D01*
X2037438Y2153168D02*
X2036661Y2152390D01*
X2033762Y2153168D02*
X2034539Y2152390D01*
X2033762Y2149491D02*
X2034539Y2150268D01*
X2037438Y2149491D02*
X2036661Y2150268D01*
X2038123Y2143852D02*
X2037345Y2143074D01*
X2034446Y2143852D02*
X2035224Y2143074D01*
X2034446Y2140175D02*
X2035224Y2140953D01*
X2038123Y2140175D02*
X2037345Y2140953D01*
X2037438Y2133168D02*
X2036661Y2132390D01*
X2033762Y2133168D02*
X2034539Y2132390D01*
X2033762Y2129491D02*
X2034539Y2130268D01*
X2037438Y2129491D02*
X2036661Y2130268D01*
X2037438Y2123168D02*
X2036661Y2122390D01*
X2033762Y2123168D02*
X2034539Y2122390D01*
X2033762Y2119491D02*
X2034539Y2120268D01*
X2037438Y2119491D02*
X2036661Y2120268D01*
X2037438Y2113168D02*
X2036661Y2112390D01*
X2033762Y2113168D02*
X2034539Y2112390D01*
X2033762Y2109491D02*
X2034539Y2110268D01*
X2037438Y2109491D02*
X2036661Y2110268D01*
X2037438Y2103168D02*
X2036661Y2102390D01*
X2033762Y2103168D02*
X2034539Y2102390D01*
X2033762Y2099491D02*
X2034539Y2100268D01*
X2037438Y2099491D02*
X2036661Y2100268D01*
X2037438Y2093168D02*
X2036661Y2092390D01*
X2033762Y2093168D02*
X2034539Y2092390D01*
X2033762Y2089491D02*
X2034539Y2090268D01*
X2037438Y2089491D02*
X2036661Y2090268D01*
X2037438Y2083168D02*
X2036661Y2082390D01*
X2033762Y2083168D02*
X2034539Y2082390D01*
X2033762Y2079491D02*
X2034539Y2080268D01*
X2037438Y2079491D02*
X2036661Y2080268D01*
X2037438Y2073168D02*
X2036661Y2072390D01*
X2033762Y2073168D02*
X2034539Y2072390D01*
X2033762Y2069491D02*
X2034539Y2070268D01*
X2037438Y2069491D02*
X2036661Y2070268D01*
X2037438Y2063168D02*
X2036661Y2062390D01*
X2033762Y2063168D02*
X2034539Y2062390D01*
X2033762Y2059491D02*
X2034539Y2060268D01*
X2037438Y2059491D02*
X2036661Y2060268D01*
X2033762Y2053168D02*
X2034539Y2052390D01*
X2033762Y2049491D02*
X2034539Y2050268D01*
X2037438Y2049491D02*
X2036661Y2050268D01*
X2033762Y2043168D02*
X2034539Y2042390D01*
X2033762Y2039491D02*
X2034539Y2040268D01*
X2037438Y2039491D02*
X2036661Y2040268D01*
X2037527Y2033168D02*
X2036750Y2032390D01*
X2033850Y2033168D02*
X2034628Y2032390D01*
X2037527Y2029491D02*
X2036750Y2030269D01*
X2044598Y2026097D02*
X2043821Y2025319D01*
X2040922Y2026097D02*
X2041699Y2025319D01*
X2040922Y2022420D02*
X2041699Y2023198D01*
X2044598Y2022420D02*
X2043821Y2023198D01*
X2049180Y2017208D02*
X2048402Y2016430D01*
X2045503Y2017208D02*
X2046281Y2016430D01*
X2045503Y2013531D02*
X2046281Y2014309D01*
X2049180Y2013531D02*
X2048402Y2014309D01*
X2049180Y2007208D02*
X2048402Y2006430D01*
X2045503Y2007208D02*
X2046281Y2006430D01*
X2045503Y2003531D02*
X2046281Y2004309D01*
X2049180Y2003531D02*
X2048402Y2004309D01*
X2049180Y1997208D02*
X2048402Y1996430D01*
X2045503Y1997208D02*
X2046281Y1996430D01*
X2045503Y1993531D02*
X2046281Y1994309D01*
X2049180Y1993531D02*
X2048402Y1994309D01*
X2049180Y1987208D02*
X2048402Y1986430D01*
X2045503Y1987208D02*
X2046281Y1986430D01*
X2045503Y1983531D02*
X2046281Y1984309D01*
X2049180Y1983531D02*
X2048402Y1984309D01*
X2049180Y1977208D02*
X2048402Y1976430D01*
X2045503Y1977208D02*
X2046281Y1976430D01*
X2045503Y1973531D02*
X2046281Y1974309D01*
X2049180Y1973531D02*
X2048402Y1974309D01*
X2049180Y1967208D02*
X2048402Y1966430D01*
X2045503Y1967208D02*
X2046281Y1966430D01*
X2045503Y1963531D02*
X2046281Y1964309D01*
X2049180Y1963531D02*
X2048402Y1964309D01*
X2049180Y1957208D02*
X2048402Y1956430D01*
X2045503Y1957208D02*
X2046281Y1956430D01*
X2045503Y1953531D02*
X2046281Y1954309D01*
X2049180Y1953531D02*
X2048402Y1954309D01*
X2049180Y1947208D02*
X2048402Y1946430D01*
X2045503Y1947208D02*
X2046281Y1946430D01*
X2045503Y1943531D02*
X2046281Y1944309D01*
X2049180Y1943531D02*
X2048402Y1944309D01*
X2045327Y1937980D02*
X2044550Y1937202D01*
X2041650Y1937980D02*
X2042428Y1937202D01*
X2041650Y1934303D02*
X2042428Y1935081D01*
X2045327Y1934303D02*
X2044550Y1935081D01*
X2035327Y1937980D02*
X2034550Y1937202D01*
X2031650Y1937980D02*
X2032428Y1937202D01*
X2031650Y1934303D02*
X2032428Y1935081D01*
X2035327Y1934303D02*
X2034550Y1935081D01*
X2084038Y2186963D02*
X2083261Y2186185D01*
X2080362Y2186963D02*
X2081139Y2186185D01*
X2080362Y2183286D02*
X2081139Y2184064D01*
X2084038Y2183286D02*
X2083261Y2184064D01*
X2084038Y2196963D02*
X2083261Y2196185D01*
X2080362Y2196963D02*
X2081139Y2196185D01*
X2080362Y2193286D02*
X2081139Y2194064D01*
X2084038Y2193286D02*
X2083261Y2194064D01*
X2082865Y2216894D02*
X2082087Y2216116D01*
X2079188Y2216894D02*
X2079966Y2216116D01*
X2079188Y2213217D02*
X2079966Y2213995D01*
X2082865Y2213217D02*
X2082087Y2213995D01*
X2031591Y1943380D02*
X2030813Y1942602D01*
X2027914Y1943380D02*
X2028692Y1942602D01*
X2027914Y1939703D02*
X2028692Y1940481D01*
X2031591Y1939703D02*
X2030813Y1940481D01*
X2037580Y1943046D02*
X2038358Y1942268D01*
X2037580Y1939369D02*
X2038358Y1940147D01*
X2041257Y1939369D02*
X2040479Y1940147D01*
X2043780Y1963138D02*
X2043002Y1962360D01*
X2040103Y1963138D02*
X2040881Y1962360D01*
X2040103Y1959461D02*
X2040881Y1960239D01*
X2043780Y1959461D02*
X2043002Y1960239D01*
X2043780Y1973138D02*
X2043002Y1972360D01*
X2040103Y1973138D02*
X2040881Y1972360D01*
X2040103Y1969461D02*
X2040881Y1970239D01*
X2043780Y1969461D02*
X2043002Y1970239D01*
X2043780Y2013138D02*
X2043002Y2012360D01*
X2040103Y2013138D02*
X2040881Y2012360D01*
X2040103Y2009461D02*
X2040881Y2010239D01*
X2043780Y2009461D02*
X2043002Y2010239D01*
X2040092Y2022966D02*
X2039314Y2022188D01*
X2036415Y2019289D02*
X2037193Y2020067D01*
X2029733Y2029649D02*
X2030511Y2028871D01*
X2029733Y2025972D02*
X2030511Y2026750D01*
X2032038Y2039554D02*
X2031261Y2038776D01*
X2028362Y2039554D02*
X2029139Y2038776D01*
X2028362Y2035877D02*
X2029139Y2036655D01*
X2032038Y2035877D02*
X2031261Y2036655D01*
X2032334Y2049554D02*
X2031556Y2048776D01*
X2028657Y2049554D02*
X2029435Y2048776D01*
X2028657Y2045877D02*
X2029435Y2046655D01*
X2032334Y2045877D02*
X2031556Y2046655D01*
X2032038Y2059554D02*
X2031261Y2058776D01*
X2028362Y2059554D02*
X2029139Y2058776D01*
X2028362Y2055877D02*
X2029139Y2056655D01*
X2032038Y2055877D02*
X2031261Y2056655D01*
X2032038Y2069554D02*
X2031261Y2068776D01*
X2028362Y2069554D02*
X2029139Y2068776D01*
X2028362Y2065877D02*
X2029139Y2066655D01*
X2032038Y2065877D02*
X2031261Y2066655D01*
X2032038Y2089554D02*
X2031261Y2088776D01*
X2028362Y2089554D02*
X2029139Y2088776D01*
X2028362Y2085877D02*
X2029139Y2086655D01*
X2032038Y2085877D02*
X2031261Y2086655D01*
X2032268Y2099783D02*
X2031490Y2099006D01*
X2028591Y2099783D02*
X2029368Y2099006D01*
X2032268Y2096106D02*
X2031490Y2096884D01*
X2032038Y2109554D02*
X2031261Y2108776D01*
X2028362Y2109554D02*
X2029139Y2108776D01*
X2028362Y2105877D02*
X2029139Y2106655D01*
X2032038Y2105877D02*
X2031261Y2106655D01*
X2032038Y2119554D02*
X2031261Y2118776D01*
X2028362Y2119554D02*
X2029139Y2118776D01*
X2028362Y2115877D02*
X2029139Y2116655D01*
X2032038Y2115877D02*
X2031261Y2116655D01*
X2032038Y2129554D02*
X2031261Y2128776D01*
X2028362Y2129554D02*
X2029139Y2128776D01*
X2028362Y2125877D02*
X2029139Y2126655D01*
X2032038Y2125877D02*
X2031261Y2126655D01*
X2032038Y2139554D02*
X2031261Y2138776D01*
X2028362Y2139554D02*
X2029139Y2138776D01*
X2028362Y2135877D02*
X2029139Y2136655D01*
X2032038Y2135877D02*
X2031261Y2136655D01*
X2034048Y2159350D02*
X2033270Y2158572D01*
X2030371Y2159350D02*
X2031149Y2158572D01*
X2030371Y2155673D02*
X2031149Y2156451D01*
X2034048Y2155673D02*
X2033270Y2156451D01*
X2044923Y2159538D02*
X2044145Y2158761D01*
X2041246Y2159538D02*
X2042024Y2158761D01*
X2041246Y2155862D02*
X2042024Y2156639D01*
X2044923Y2155862D02*
X2044145Y2156639D01*
X2054046Y2159538D02*
X2053269Y2158761D01*
X2050369Y2159538D02*
X2051147Y2158761D01*
X2050369Y2155862D02*
X2051147Y2156639D01*
X2054046Y2155862D02*
X2053269Y2156639D01*
X2064046Y2159538D02*
X2063269Y2158761D01*
X2060369Y2159538D02*
X2061147Y2158761D01*
X2060369Y2155862D02*
X2061147Y2156639D01*
X2064046Y2155862D02*
X2063269Y2156639D01*
X2074046Y2159538D02*
X2073269Y2158761D01*
X2070369Y2159538D02*
X2071147Y2158761D01*
X2070369Y2155862D02*
X2071147Y2156639D01*
X2074046Y2155862D02*
X2073269Y2156639D01*
X2032038Y2149554D02*
X2031261Y2148776D01*
X2028362Y2149554D02*
X2029139Y2148776D01*
X2028362Y2145877D02*
X2029139Y2146655D01*
X2032038Y2145877D02*
X2031261Y2146655D01*
X2014838Y2281338D02*
X2014061Y2280561D01*
X2011162Y2281338D02*
X2011939Y2280561D01*
X2011162Y2277662D02*
X2011939Y2278439D01*
X2045338Y2265838D02*
X2044561Y2265061D01*
X2041662Y2265838D02*
X2042439Y2265061D01*
X2041662Y2262162D02*
X2042439Y2262939D01*
X2045338Y2262162D02*
X2044561Y2262939D01*
X2045338Y2215838D02*
X2044561Y2215061D01*
X2041662Y2215838D02*
X2042439Y2215061D01*
X2041662Y2212162D02*
X2042439Y2212939D01*
X2045338Y2212162D02*
X2044561Y2212939D01*
X2025128Y2174950D02*
X2024351Y2174172D01*
X2021451Y2171273D02*
X2022229Y2172051D01*
X2025128Y2171273D02*
X2024351Y2172051D01*
X2013338Y2195338D02*
X2012561Y2194561D01*
X2009662Y2195338D02*
X2010439Y2194561D01*
X2009662Y2191662D02*
X2010439Y2192439D01*
X2013338Y2191662D02*
X2012561Y2192439D01*
X1986838Y2195338D02*
X1986061Y2194561D01*
X1983162Y2195338D02*
X1983939Y2194561D01*
X1983162Y2191662D02*
X1983939Y2192439D01*
X1986838Y2191662D02*
X1986061Y2192439D01*
X1960238Y2197838D02*
X1959461Y2197061D01*
X1956562Y2197838D02*
X1957339Y2197061D01*
X1956562Y2194162D02*
X1957339Y2194939D01*
X1960238Y2194162D02*
X1959461Y2194939D01*
X2037338Y1897338D02*
X2036561Y1896561D01*
X2033662Y1897338D02*
X2034439Y1896561D01*
X2033662Y1893662D02*
X2034439Y1894439D01*
X2037338Y1893662D02*
X2036561Y1894439D01*
X2043780Y2003138D02*
X2043002Y2002360D01*
X2040103Y2003138D02*
X2040881Y2002360D01*
X2040103Y1999461D02*
X2040881Y2000239D01*
X2043780Y1999461D02*
X2043002Y2000239D01*
X2043780Y1993138D02*
X2043002Y1992360D01*
X2040103Y1993138D02*
X2040881Y1992360D01*
X2040103Y1989461D02*
X2040881Y1990239D01*
X2043780Y1989461D02*
X2043002Y1990239D01*
X1980662Y1856338D02*
X1981439Y1855561D01*
X1980662Y1852662D02*
X1981439Y1853439D01*
X1984338Y1852662D02*
X1983561Y1853439D01*
X2022338Y2385338D02*
X2021561Y2384561D01*
X2018662Y2385338D02*
X2019439Y2384561D01*
X2018662Y2381662D02*
X2019439Y2382439D01*
X2022338Y2381662D02*
X2021561Y2382439D01*
X1940838Y2210338D02*
X1940061Y2209561D01*
X1937162Y2210338D02*
X1937939Y2209561D01*
X1937162Y2206662D02*
X1937939Y2207439D01*
X1940838Y2206662D02*
X1940061Y2207439D01*
X2043780Y1983138D02*
X2043002Y1982360D01*
X2040103Y1983138D02*
X2040881Y1982360D01*
X2040103Y1979461D02*
X2040881Y1980239D01*
X2043780Y1979461D02*
X2043002Y1980239D01*
X2022338Y2445338D02*
X2021561Y2444561D01*
X2018662Y2445338D02*
X2019439Y2444561D01*
X2018662Y2441662D02*
X2019439Y2442439D01*
X2022338Y2441662D02*
X2021561Y2442439D01*
X2043338Y2397338D02*
X2042561Y2396561D01*
X2039662Y2397338D02*
X2040439Y2396561D01*
X2039662Y2393662D02*
X2040439Y2394439D01*
X2043338Y2393662D02*
X2042561Y2394439D01*
X2067338Y2269338D02*
X2066561Y2268561D01*
X2063662Y2269338D02*
X2064439Y2268561D01*
X2063662Y2265662D02*
X2064439Y2266439D01*
X2067338Y2265662D02*
X2066561Y2266439D01*
X2084038Y2206963D02*
X2083261Y2206185D01*
X2080362Y2206963D02*
X2081139Y2206185D01*
X2080362Y2203286D02*
X2081139Y2204064D01*
X2084038Y2203286D02*
X2083261Y2204064D01*
X2067338Y2234838D02*
X2066561Y2234061D01*
X2063662Y2234838D02*
X2064439Y2234061D01*
X2063662Y2231162D02*
X2064439Y2231939D01*
X2067338Y2231162D02*
X2066561Y2231939D01*
X2043780Y1953138D02*
X2043002Y1952360D01*
X2040103Y1953138D02*
X2040881Y1952360D01*
X2040103Y1949461D02*
X2040881Y1950239D01*
X2043780Y1949461D02*
X2043002Y1950239D01*
X2025327Y1937980D02*
X2024550Y1937202D01*
X2021650Y1937980D02*
X2022428Y1937202D01*
X2021650Y1934303D02*
X2022428Y1935081D01*
X2025327Y1934303D02*
X2024550Y1935081D01*
X1990838Y1977338D02*
X1990061Y1976561D01*
X1987162Y1977338D02*
X1987939Y1976561D01*
X1987162Y1973662D02*
X1987939Y1974439D01*
X1990838Y1973662D02*
X1990061Y1974439D01*
X1960338Y1965654D02*
X1959561Y1964876D01*
X1956662Y1965654D02*
X1957439Y1964876D01*
X2032038Y2080138D02*
X2031261Y2079361D01*
X2028362Y2080138D02*
X2029139Y2079361D01*
G54D54*
X2068800Y1889900D03*
Y1894900D03*
Y1904900D03*
G74*
X0Y0D02*
M02*
