*
*
G04 PADS VX.2.1 Build Number: 6554490 generated Gerber (RS-274-X) file*
G04 PC Version=2.1*
*
%IN "uMuddMarkVLayout_3.pcb"*%
*
%MOIN*%
*
%FSLAX35Y35*%
*
*
*
*
G04 PC Standard Apertures*
*
*
G04 Thermal Relief Aperture macro.*
%AMTER*
1,1,$1,0,0*
1,0,$1-$2,0,0*
21,0,$3,$4,0,0,45*
21,0,$3,$4,0,0,135*
%
*
*
G04 Annular Aperture macro.*
%AMANN*
1,1,$1,0,0*
1,0,$2,0,0*
%
*
*
G04 Odd Aperture macro.*
%AMODD*
1,1,$1,0,0*
1,0,$1-0.005,0,0*
%
*
*
G04 PC Custom Aperture Macros*
*
*
*
*
*
*
G04 PC Aperture Table*
*
%ADD010C,0.001*%
%ADD011R,0.06X0.05*%
%ADD012R,0.05X0.06*%
%ADD013R,0.06X0.06*%
%ADD014C,0.06*%
%ADD015R,0.08X0.04*%
%ADD017R,0.02756X0.12598*%
%ADD018R,0.02756X0.16535*%
%ADD019R,0.01181X0.05709*%
%ADD020R,0.05709X0.01181*%
%ADD022R,0.01181X0.05512*%
%ADD023R,0.05512X0.01181*%
%ADD024C,0.25*%
%ADD025R,0.05709X0.02362*%
%ADD026C,0.008*%
%ADD027C,0.01*%
%ADD028C,0.03*%
%ADD052R,0.3X0.2*%
%ADD054C,0.042*%
*
*
*
*
G04 PC Circuitry*
G04 Layer Name uMuddMarkVLayout_3.pcb - circuitry*
%LPD*%
*
*
G04 PC Custom Flashes*
G04 Layer Name uMuddMarkVLayout_3.pcb - flashes*
%LPD*%
*
*
G04 PC Circuitry*
G04 Layer Name uMuddMarkVLayout_3.pcb - circuitry*
%LPD*%
*
G54D10*
G54D11*
G01X1953100Y2331000D03*
X1962100D03*
X2006600Y2414900D03*
X2015600D03*
X2006300Y2445600D03*
X2015300D03*
X2010300Y2351000D03*
X2019300D03*
X1985300Y1885000D03*
X1994300D03*
X1981700Y2350600D03*
X1990700D03*
X1985100Y1896300D03*
X1994100D03*
X2021900Y1980300D03*
X2030900D03*
X2010400Y2331100D03*
X2019400D03*
X1984800Y1907400D03*
X1993800D03*
X2006300Y2385500D03*
X2015300D03*
X1953000Y2350900D03*
X1962000D03*
X1981800Y2330700D03*
X1990800D03*
X2021700Y1991600D03*
X2030700D03*
X2021900Y2003300D03*
X2030900D03*
X2021200Y1895700D03*
X2030200D03*
X2021000Y1885500D03*
X2030000D03*
G54D12*
X2070000Y2228400D03*
Y2237400D03*
X2069900Y2195200D03*
Y2204200D03*
X2070100Y2258900D03*
Y2267900D03*
X1939200Y2194100D03*
Y2203100D03*
X1938300Y2259400D03*
Y2268400D03*
X1938900Y2225300D03*
Y2234300D03*
G54D13*
X2075700Y1937609D03*
X2057800Y2012291D03*
X1949100Y2177100D03*
X2051400Y2125500D03*
X1952709Y2379700D03*
X1991300Y2123300D03*
X1977000Y2123400D03*
X2065800Y2299900D03*
X2047600Y2140700D03*
G54D14*
X2075700Y1963200D03*
X2057983Y1937609D03*
Y1963200D03*
X2057800Y1986700D03*
X2075517Y2012291D03*
Y1986700D03*
X1949100Y2167100D03*
Y2157100D03*
Y2147100D03*
Y2137100D03*
X2051400Y2115500D03*
Y2105500D03*
Y2095500D03*
Y2085500D03*
Y2075500D03*
Y2065500D03*
Y2055500D03*
Y2045500D03*
Y2035500D03*
X2081400D03*
Y2045500D03*
Y2055500D03*
Y2065500D03*
Y2075500D03*
Y2085500D03*
Y2095500D03*
Y2105500D03*
Y2115500D03*
Y2125500D03*
X1978300Y2379700D03*
X1952709Y2397417D03*
X1978300D03*
X1991300Y2113300D03*
Y2103300D03*
Y2093300D03*
Y2083300D03*
Y2073300D03*
Y2063300D03*
Y2053300D03*
Y2043300D03*
Y2033300D03*
X1977000Y2113400D03*
Y2103400D03*
Y2093400D03*
Y2083400D03*
Y2073400D03*
Y2063400D03*
Y2053400D03*
Y2043400D03*
Y2033400D03*
X2055800Y2299900D03*
X2065800Y2309900D03*
X2055800D03*
X2065800Y2319900D03*
X2055800D03*
X2065800Y2329900D03*
X2055800D03*
X2065800Y2339900D03*
X2055800D03*
X2027400Y1916400D03*
Y1966400D03*
X1909400Y2455100D03*
Y2445100D03*
Y2435100D03*
Y2425100D03*
Y2415100D03*
Y2405100D03*
Y2395100D03*
Y2385100D03*
Y2375100D03*
Y2365100D03*
Y2355100D03*
Y2345100D03*
Y2335100D03*
Y2325100D03*
Y2315100D03*
Y2305100D03*
Y2295100D03*
Y2285100D03*
Y2275100D03*
Y2265100D03*
Y2255100D03*
Y2245100D03*
Y2235100D03*
Y2225100D03*
Y2215100D03*
Y2205100D03*
Y2195100D03*
Y2185100D03*
Y2175100D03*
Y2165100D03*
Y2155100D03*
Y2145100D03*
Y2135100D03*
Y2125100D03*
Y2115100D03*
Y2105100D03*
Y2095100D03*
Y2085100D03*
Y2075100D03*
Y2065100D03*
Y2055100D03*
Y2045100D03*
Y2035100D03*
Y2025100D03*
Y2015100D03*
Y2005100D03*
Y1995100D03*
Y1985100D03*
Y1975100D03*
Y1965100D03*
Y1955100D03*
Y1945100D03*
Y1935100D03*
Y1925100D03*
Y1915100D03*
Y1905100D03*
Y1895100D03*
Y1885100D03*
X2057600Y2140700D03*
X2067600D03*
X2077600D03*
Y2170700D03*
X2067600D03*
X2057600D03*
X2047600D03*
G54D15*
X2035200Y2395700D03*
Y2377700D03*
X2034500Y2446300D03*
Y2428300D03*
X1955300Y2447200D03*
Y2429200D03*
G54D17*
X2033465Y1845748D03*
G54D18*
X1962598Y1843780D03*
X1966535D03*
X1970472D03*
X1974409D03*
X1978346D03*
X1982283D03*
X1986220D03*
X1990157D03*
X1994094D03*
X1998031D03*
X2001969D03*
X2013780D03*
X2017717D03*
X2021654D03*
X2025591D03*
X2029528D03*
X2037402D03*
G54D19*
X1990764Y1970239D03*
X1988795D03*
X1986827D03*
X1984858D03*
X1982890D03*
X1980921D03*
X1978953D03*
X1976984D03*
X1975016D03*
X1973047D03*
X1971079D03*
X1969110D03*
X1967142D03*
X1965173D03*
X1963205D03*
X1961236D03*
Y1925161D03*
X1963205D03*
X1965173D03*
X1967142D03*
X1969110D03*
X1971079D03*
X1973047D03*
X1975016D03*
X1976984D03*
X1978953D03*
X1980921D03*
X1982890D03*
X1984858D03*
X1986827D03*
X1988795D03*
X1990764D03*
G54D20*
X1953461Y1962464D03*
Y1960495D03*
Y1958527D03*
Y1956558D03*
Y1954590D03*
Y1952621D03*
Y1950653D03*
Y1948684D03*
Y1946716D03*
Y1944747D03*
Y1942779D03*
Y1940810D03*
Y1938842D03*
Y1936873D03*
Y1934905D03*
Y1932936D03*
X1998539D03*
Y1934905D03*
Y1936873D03*
Y1938842D03*
Y1940810D03*
Y1942779D03*
Y1944747D03*
Y1946716D03*
Y1948684D03*
Y1950653D03*
Y1952621D03*
Y1954590D03*
Y1956558D03*
Y1958527D03*
Y1960495D03*
Y1962464D03*
G54D22*
X1971951Y2188374D03*
X1973920D03*
X1975888D03*
X1977857D03*
X1979825D03*
X1981794D03*
X1983762D03*
X1985731D03*
X1987699D03*
X1989668D03*
X1991636D03*
X1993605D03*
X1995573D03*
X1997542D03*
X1999510D03*
X2001479D03*
X2003447D03*
X2005416D03*
X2007384D03*
X2009353D03*
X2011321D03*
X2013290D03*
X2015258D03*
X2017227D03*
X2019195D03*
X2021164D03*
X2023132D03*
X2025101D03*
X2027069D03*
X2029038D03*
X2031006D03*
X2032975D03*
X2034943D03*
X2036912D03*
X2038880D03*
X2040849D03*
Y2272626D03*
X2038880D03*
X2036912D03*
X2034943D03*
X2032975D03*
X2031006D03*
X2029038D03*
X2027069D03*
X2025101D03*
X2023132D03*
X2021164D03*
X2019195D03*
X2017227D03*
X2015258D03*
X2013290D03*
X2011321D03*
X2009353D03*
X2007384D03*
X2005416D03*
X2003447D03*
X2001479D03*
X1999510D03*
X1997542D03*
X1995573D03*
X1993605D03*
X1991636D03*
X1989668D03*
X1987699D03*
X1985731D03*
X1983762D03*
X1981794D03*
X1979825D03*
X1977857D03*
X1975888D03*
X1973920D03*
X1971951D03*
G54D23*
X1964274Y2264949D03*
Y2262980D03*
Y2261012D03*
Y2259043D03*
Y2257075D03*
Y2255106D03*
Y2253138D03*
Y2251169D03*
Y2249201D03*
Y2247232D03*
Y2245264D03*
Y2243295D03*
Y2241327D03*
Y2239358D03*
Y2237390D03*
Y2235421D03*
Y2233453D03*
Y2231484D03*
Y2229516D03*
Y2227547D03*
Y2225579D03*
Y2223610D03*
Y2221642D03*
Y2219673D03*
Y2217705D03*
Y2215736D03*
Y2213768D03*
Y2211799D03*
Y2209831D03*
Y2207862D03*
Y2205894D03*
Y2203925D03*
Y2201957D03*
Y2199988D03*
Y2198020D03*
Y2196051D03*
X2048526D03*
Y2198020D03*
Y2199988D03*
Y2201957D03*
Y2203925D03*
Y2205894D03*
Y2207862D03*
Y2209831D03*
Y2211799D03*
Y2213768D03*
Y2215736D03*
Y2217705D03*
Y2219673D03*
Y2221642D03*
Y2223610D03*
Y2225579D03*
Y2227547D03*
Y2229516D03*
Y2231484D03*
Y2233453D03*
Y2235421D03*
Y2237390D03*
Y2239358D03*
Y2241327D03*
Y2243295D03*
Y2245264D03*
Y2247232D03*
Y2249201D03*
Y2251169D03*
Y2253138D03*
Y2255106D03*
Y2257075D03*
Y2259043D03*
Y2261012D03*
Y2262980D03*
Y2264949D03*
G54D24*
X2006400Y2230500D03*
G54D25*
X1975169Y2159400D03*
Y2154400D03*
Y2149400D03*
Y2144400D03*
X1996231D03*
Y2149400D03*
Y2154400D03*
Y2159400D03*
G54D26*
X1970500Y1854500D02*
X1976500D01*
X1990000D02*
X2007400Y1871900D01*
X2036479*
X2049479Y1884900*
X2063800*
X2002000Y1854500D02*
Y1860019D01*
X2011381Y1869400*
X2015000*
X2017500Y1854500D02*
X2031900Y1868900D01*
X2037464*
X2041064Y1872500*
X2088500*
X1953500Y1876000D02*
X1958500Y1871000D01*
X1960414*
X1966500Y1864914*
Y1854500*
X1960500Y1873500D02*
X1964000Y1878000D01*
X2024000Y1857000D02*
X2029500D01*
X2032000Y1854500*
X2037500*
X2021500Y1865000D02*
X2026900Y1870400D01*
X2036970*
X2041570Y1875000*
X2085500*
X1909400Y1885100D02*
X1916800Y1892500D01*
X1971500*
X1909400Y1895100D02*
X1943900D01*
X1950800Y1902000*
X1992000*
X1959000Y1881500D02*
X2002489D01*
X2002589Y1881600*
X2010937*
X2012337Y1880200*
X2036700*
X2043500Y1887000*
X1985100Y1896300D02*
X1986374D01*
X1988557Y1892843*
X1990400Y1891000*
X2018000*
X2008400Y1879100D02*
X2014200Y1873300D01*
X2035892*
X2052492Y1889900*
X2063800*
X2026200Y1892786D02*
X2028386Y1890600D01*
X2028400*
X2030000Y1889000*
Y1885500*
X2026200Y1892786D02*
Y1906000D01*
X2027400Y1907200*
Y1916400*
X2021000Y1885500D02*
Y1890500D01*
X2021200Y1890700*
Y1895700*
X1905400Y1913443D02*
X1907743Y1911100D01*
X1967636*
X1976984Y1920449*
Y1925161*
X1905400Y1913443D02*
Y1926900D01*
X1909400Y1930900*
Y1935100*
X1916500Y1914000D02*
X1963593D01*
X1970400Y1920807*
Y1920936*
X1970764Y1921300*
X1971079Y1924872*
Y1925161*
X1909400Y1905100D02*
X1946800D01*
X1948000Y1903900*
X1988214*
X1989400Y1905086*
Y1909998*
X1998539Y1919137*
Y1932936*
X1909400Y1915100D02*
X1913700D01*
X1920100Y1921500*
X1939000*
X1940000Y1920500*
X1959000*
X2029500Y1900500D02*
Y1907900D01*
X2031400Y1909800*
X2029500Y1900500D02*
X2058200D01*
X2063800Y1894900*
X1909400Y1925100D02*
X1955106D01*
X1967106Y1937100*
X1976718*
X1978953Y1934866*
Y1925161*
X1921500Y1919000D02*
X1940500D01*
X1941500Y1918000*
X1964840*
X1969110Y1922270*
Y1925161*
X1945524Y1934434D02*
X1948534D01*
X1949005Y1934905*
X1953461*
Y1932936D02*
X1960962D01*
X1964800Y1936774*
Y1938936*
X1967964Y1942100*
X1984400*
X1991500Y1935000*
X1973000Y1920000D02*
X1973047D01*
Y1925161*
X1959000Y1920500D02*
X1961236Y1922912D01*
Y1925161*
X1967142D02*
Y1926365D01*
X1967731Y1930229*
X1965173Y1925161D02*
Y1931207D01*
X1967162Y1933196*
X1970500*
X1963205Y1925161D02*
Y1931219D01*
X1967686Y1935700*
X1971532*
X1973200Y1934032*
Y1931000*
X1973400*
X1983928Y1918392D02*
X1986191Y1919666D01*
X1987154*
X1988795Y1921306*
Y1925161*
X1990764D02*
X1992354D01*
X1992437Y1925078*
Y1918495*
X1982890Y1925161D02*
X1983080D01*
Y1927615*
X1983348Y1931397*
X2015500Y1929500D02*
X2064500D01*
X2009500Y1932000D02*
X2045770D01*
X2051379Y1937609*
X2057983*
X1998539Y1932936D02*
X2000803D01*
X2007739Y1926000*
X2023457*
X2031400Y1918057*
Y1909800*
X1944741Y1940045D02*
X1947822D01*
X1949026Y1938842*
X1953461*
X1943612Y1946390D02*
X1947223Y1942779D01*
X1953461*
X1948500Y1952723D02*
Y1952621D01*
X1953461*
Y1936873D02*
X1959073D01*
X1960612Y1938412*
Y1940922*
X1953461Y1940810D02*
X1957315D01*
X1960491Y1945574*
X1953461Y1948684D02*
X1957315D01*
X1969110Y1960480*
X1953461Y1954590D02*
X1958500D01*
Y1954500*
X1960441Y1945607D02*
X1960491Y1945574D01*
X1969100Y1939600D02*
X1976198D01*
X1980600Y1935198*
Y1929973*
X1980921Y1929651*
Y1925161*
X1998539Y1952621D02*
X2003508D01*
Y1952492*
X1998539Y1948684D02*
X2005316D01*
X2005500Y1948500*
X2011000*
X1998539Y1946716D02*
X2008347D01*
X2009063Y1946000*
X2014000*
X1998539Y1944747D02*
X2007566D01*
X2008813Y1943500*
X2021464*
X2022464Y1944500*
X2041500*
X1998539Y1940810D02*
Y1941001D01*
X2003001*
X2003400Y1941400*
X2006607*
X1998539Y1938842D02*
X2000421D01*
X2002400Y1939500*
X2004714*
X2005314Y1938900*
X2026528*
X2026628Y1938800*
X2031613*
X2031713Y1938900*
X2036210*
X2036610Y1938500*
X2040529*
X2044642Y1942612*
Y2018558*
X1998539Y1936873D02*
X2003500D01*
Y1936936*
X1909400Y1965100D02*
X1919500Y1955000D01*
X1938620*
X1948873Y1944747*
X1953461*
X1909400Y1975100D02*
X1928000Y1956500D01*
X1939147*
X1948932Y1946716*
X1953461*
X1931500Y1967500D02*
X1958875D01*
X1960075Y1966300*
X1967057*
X1967142Y1966385*
Y1970239*
X1948500Y1956500D02*
Y1956558D01*
X1953461*
Y1958527D02*
X1957315D01*
X1958500Y1959712*
Y1960015*
X1977352Y1973726D02*
X1978500Y1974873D01*
Y1977940*
X1981860Y1981300*
X1983336*
X1985636Y1983600*
X1987777*
X1989677Y1981700*
X2011700*
X2013100Y1980300*
X2021900*
X1969110Y1966385D02*
X1969195Y1966300D01*
X1975935*
X1976900Y1967265*
Y1973273*
X1977352Y1973726*
X1969110Y1966385D02*
Y1970239D01*
Y1960480D02*
X1986811Y1942779D01*
X1998539*
X1969110Y1960480D02*
Y1966385D01*
X1972700Y1974257D02*
X1972857Y1974101D01*
Y1970239*
X1973047*
X1972700Y1974257D02*
Y1978000D01*
X1973000*
X1975016Y1970239D02*
X1975206D01*
Y1972694*
X1975296Y1975204*
X1976984Y1970239D02*
X1977352Y1973726D01*
X1994685Y1963469D02*
X1995616Y1964400D01*
X2014000*
X2014400Y1964000*
X2021500*
X1994685Y1963469D02*
Y1956558D01*
X1998539*
X1984925Y1962385D02*
X1986827Y1964287D01*
Y1970239*
X1980921D02*
Y1974321D01*
X1981400Y1974800*
Y1977600*
X1981696*
X1982890Y1970239D02*
Y1975223D01*
X1984545Y1976879*
Y1978974*
X1986662Y1981091*
X1984858Y1970239D02*
Y1975177D01*
X1988182Y1978500*
X2006500*
X1998539Y1962464D02*
X2000218D01*
X2002400Y1963000*
X2008978*
X2010178Y1961800*
X2018400*
X2021200Y1959000*
X2027000*
X1998539Y1960495D02*
X2003500D01*
Y1960500*
X1998539Y1958527D02*
X2000197D01*
X2002400Y1958000*
X2009000*
X2009500Y1958500*
X2016500*
X2027000Y1959000D02*
X2031400Y1963400D01*
Y1970471*
X1909400Y1985100D02*
X1936500Y1958000D01*
X1939675*
X1947475Y1950200*
X1949600*
X1952028Y1950653*
X1953461*
X1909400Y1995100D02*
X1942198D01*
X1963205Y1974094*
Y1970239*
X1921500Y1977500D02*
X1956239D01*
X1961236Y1972503*
Y1970239*
X1983500Y1985000D02*
X1990000D01*
X2021700Y1991600D02*
Y1986000D01*
X2021900Y1985800*
Y1980300*
Y1971900*
X2027400Y1966400*
X1909400Y2005100D02*
X1934178D01*
X1965173Y1974105*
Y1970239*
X1909400Y2015100D02*
X1930072D01*
X1971079Y1974094*
Y1970239*
X2021900Y2003300D02*
Y1999100D01*
X2026300Y1994700*
Y1975571*
X2031400Y1970471*
X1973000Y2031675D02*
Y2035811D01*
X1974600Y2037411*
X1973000Y2031675D02*
X1974504Y2030172D01*
Y2027604*
X1977000Y2033400D02*
X1992900Y2017500D01*
X2040000*
X1991300Y2033300D02*
X2000100Y2024500D01*
X2035000*
X1909400Y2045100D02*
X1966108D01*
X1972054Y2039154*
X1909400Y2055100D02*
X1959643D01*
X1974600Y2040143*
Y2037411*
X1977000Y2053400D02*
X1983400D01*
X1988300Y2058300*
X2016373*
X2029273Y2071200*
X2030236*
X2039700Y2080664*
Y2083800*
X2051400Y2095500*
X1979200Y2048484D02*
X2002108D01*
X2002388Y2048204*
X2025296*
X1991300Y2043300D02*
X2023927D01*
X2027796Y2047169*
Y2049240*
X1991300Y2053300D02*
X2008500D01*
X2008700Y2053500*
X2030000*
X2032900Y2044375D02*
Y2030300D01*
X2044642Y2018558*
X2032900Y2044375D02*
X2033196Y2044670D01*
Y2049375*
X2023000Y2051000D02*
X2026036D01*
X2027796Y2049240*
X2037500Y2055500D02*
X2051400D01*
X2037500Y2045500D02*
X2051400D01*
X1909400Y2065100D02*
X1935400D01*
X1935500Y2065000*
X1960100*
X1945000Y2069000D02*
X1982000D01*
X1977000Y2063400D02*
X1983372D01*
X1989072Y2069100*
X2024600*
X2030000Y2074500*
X1977000Y2073400D02*
X1983400D01*
X1988300Y2078300*
X2015784*
X2034584Y2097100*
X2043000*
X2051400Y2105500*
X1991300Y2063300D02*
X2001100D01*
X2004300Y2066500*
X2012500*
X1991300Y2073300D02*
X2015784D01*
X2025484Y2083000*
X2031500*
X2041500Y2093000*
X2032900Y2063629D02*
Y2049670D01*
X2033196Y2049375*
X2032900Y2063629D02*
X2042800Y2073529D01*
Y2082557*
X2050743Y2090500*
X2052057*
X2055400Y2093843*
Y2107157*
X1909400Y2085100D02*
X1936100D01*
X1936200Y2085000*
X1961500*
X1977000Y2083400D02*
X1983400D01*
X1989100Y2089100*
X2021100*
X2027500Y2095500*
X1991300Y2083300D02*
X2004100D01*
X2007300Y2086500*
X2018500*
X1991300Y2093300D02*
X2020684D01*
X2034384Y2107000*
X2044000*
X1909400Y2115100D02*
X1926700D01*
X1932300Y2109500*
X1962000*
X1977000Y2113400D02*
X1983400D01*
X1988300Y2118300*
X2025784*
X2032984Y2125500*
X2051400*
X1991300Y2113300D02*
X2031581D01*
X2041281Y2123000*
X2046000*
X2032900Y2112447D02*
Y2110211D01*
X2034511Y2108600*
X2039377*
X2040277Y2109500*
X2053057*
X2055400Y2107157*
X2032900Y2112447D02*
X2040453Y2120000D01*
X2053314*
X2055400Y2122086*
Y2128914*
X2051400Y2115500D02*
X2060500D01*
X2064500Y2111500*
X1909400Y2135100D02*
X1941900D01*
X1956000Y2121000*
X2032900Y2132447D02*
Y2130211D01*
X2034511Y2128600*
X2041888*
X2042788Y2129500*
X2054814*
X2055400Y2128914*
X2032900Y2132447D02*
X2035853Y2135400D01*
X2067957*
X2071600Y2139043*
Y2142357*
X1909400Y2155100D02*
X1927400D01*
X1933700Y2161400*
X1969673*
X1971273Y2163000*
X1979181*
X1981181Y2161000*
X1989818*
X1991818Y2163000*
X1999374*
X2017227Y2180853*
Y2188374*
X1949100Y2137100D02*
X1960200D01*
X1960300Y2137000*
X2001000*
X1949100Y2147100D02*
X1955200D01*
X1960300Y2142000*
X2006500*
X1961500Y2154500D02*
X1967607D01*
X1967707Y2154400*
X1975169*
X1981790Y2147210D02*
X1983980Y2149400D01*
X1996231*
X1987000Y2144500D02*
X1990550D01*
X1990650Y2144400*
X1996231*
X2006500Y2142000D02*
X2011100D01*
X2013900Y2144800*
X2053500*
X2057600Y2140700*
X2001000Y2137000D02*
X2015351D01*
X2018851Y2140500*
X2032607*
X2033807Y2139300*
X2039800*
X2041200Y2140700*
X2047600*
X2042900Y2153697D02*
Y2151563D01*
X2045563Y2148900*
X2065057*
X2071600Y2142357*
X2042900Y2153697D02*
X2044603Y2155400D01*
X2048670*
X2049070Y2155000*
X2073326*
X2084900Y2166574*
Y2215000*
X1909400Y2165100D02*
X1929400D01*
X1931400Y2163100*
X1969364*
X1970664Y2164400*
X1979926*
X1981926Y2162400*
X1988997*
X1991097Y2164500*
X1998894*
X2015258Y2180865*
Y2188374*
X1909400Y2175100D02*
X1914900D01*
X1918800Y2171200*
X1955272*
X1957972Y2168500*
X1969736*
X1971736Y2166500*
X1980043*
X1982743Y2163800*
X1988207*
X1990407Y2166000*
X1998414*
X2013290Y2180876*
Y2188374*
X1949100Y2157100D02*
X1967384D01*
X1971884Y2161600*
X1978491*
X1980491Y2159600*
X1990675*
X1992675Y2161600*
X1999581*
X2000081Y2161100*
X2001558Y2159042*
X1949100Y2167100D02*
X1962000D01*
X1963100Y2166000*
X1968700*
X1975169Y2159400D02*
X1975752D01*
X1981500Y2157000*
X2004705Y2164795D02*
X2026911D01*
X2041000Y2178885*
Y2183672*
X2008194Y2168285D02*
X2028421D01*
X2039600Y2179464*
Y2182314*
X2001558Y2159042D02*
X2001500Y2159000D01*
X2023422*
X2035622Y2146800*
X2057300*
X2063400Y2140700*
X2067600*
X1916500Y2180500D02*
X1932000D01*
X1932600Y2181100*
X1955291*
X1964991Y2171400*
X1970795*
X1972695Y2169500*
X1981621*
X1983398Y2167722*
X1983398D02*
X1986222D01*
X1909400Y2185100D02*
X1913114Y2181386D01*
Y2180350*
X1920764Y2172700*
X1959236*
X1961936Y2170000*
X1970215*
X1972215Y2168000*
X1980817*
X1983617Y2165200*
X1987431*
X1989731Y2167500*
X1997934*
X2006700Y2176266*
Y2184043*
X2006900Y2184243*
Y2184600*
X2007384Y2186938*
Y2188374*
X1909400Y2195100D02*
X1921900Y2182600D01*
X1958246*
X1968046Y2172800*
X1971375*
X1973275Y2170900*
X1986663*
X1987963Y2169600*
X1998054*
X2005100Y2176646*
Y2184300*
X2005416Y2184616*
Y2188374*
X1975121Y2180509D02*
Y2183424D01*
X1975888Y2184192*
Y2188374*
X1962500Y2191000D02*
X1968900Y2184600D01*
X1973902*
X1973920Y2184618*
Y2188374*
X1989500Y2192764D02*
Y2195118D01*
X1990400Y2196018*
Y2196064*
X1992268Y2197932*
X1992400Y2197800*
X1989500Y2192764D02*
X1989668Y2192597D01*
Y2188374*
X1979674Y2179807D02*
X1980500Y2183500D01*
X1980676*
X1981794Y2184618*
Y2188374*
X1986096Y2179404D02*
X1986296Y2179366D01*
X1986800Y2181961*
X1995562Y2183438D02*
X1995573D01*
Y2188374*
X1985731D02*
Y2184413D01*
X1986800Y2183344*
Y2181961*
X1983762Y2188374D02*
X1983953D01*
Y2186018*
X1984100Y2182500*
X2001479Y2188374D02*
Y2184005D01*
X2001854Y2183629*
X1999510Y2188374D02*
Y2183412D01*
X2000454Y2182468*
X1997542Y2188374D02*
Y2187348D01*
X1997936Y2184600*
X1998100Y2184436*
Y2182276*
X1999054Y2181322*
X2023500Y2195500D02*
X2035100D01*
X2035651Y2196051*
X2048526*
X2033500Y2180500D02*
X2034943Y2182592D01*
Y2188374*
X2031409Y2183500D02*
X2031857D01*
X2032975Y2184618*
Y2188374*
X2036912D02*
Y2183903D01*
X2037100Y2183715*
Y2180500*
X2040849Y2188374D02*
Y2183823D01*
X2041000Y2183672*
X2038880Y2188374D02*
Y2183034D01*
X2039600Y2182314*
X1909400Y2205100D02*
X1930400Y2184100D01*
X1959653*
X1969553Y2174200*
X1971955*
X1973755Y2172400*
X1987290*
X1988690Y2171000*
X1997474*
X2003447Y2176973*
Y2188374*
X1909400Y2215100D02*
X1924264Y2200236D01*
Y2199917*
X1938582Y2185600*
X1960758*
X1970658Y2175700*
X1972435*
X1974235Y2173900*
X1987996*
X1989496Y2172400*
X1996894*
X2001854Y2177360*
Y2183629*
X1946200Y2209500D02*
X1948400Y2207300D01*
Y2207205*
X1953648Y2201957*
X1964274*
X1954150Y2208950D02*
X1958040D01*
X1959128Y2207862*
X1964274*
X1948700Y2214531D02*
Y2210505D01*
X1949800Y2209405*
Y2207785*
X1953659Y2203925*
X1964274*
X1959000Y2212000D02*
X1961918Y2211990D01*
X1964274*
Y2211799*
X2008500Y2205500D02*
X2010984Y2203016D01*
X2020201*
X2025217Y2198000*
X2039643*
X2039663Y2198020*
X2048526*
X2033500Y2200500D02*
X2037200D01*
X2038200Y2199500*
X2042900*
X2043388Y2199988*
X2048526*
X2043500Y2208000D02*
X2044159Y2205500D01*
Y2204536*
X2044770Y2203925*
X2048526*
X2040500Y2202000D02*
X2043863D01*
X2043907Y2201957*
X2048526*
Y2215736D02*
X2051523D01*
X2052259Y2215000*
X2071500*
X2048526Y2209831D02*
X2050087D01*
X2052300Y2209300*
X2056800*
X2057600Y2208500*
X2061500*
X1909400Y2225100D02*
X1935900Y2198600D01*
X1945499*
X1956999Y2187100*
X1961695*
X1971595Y2177200*
X1972915*
X1974715Y2175400*
X1988769*
X1990369Y2173800*
X1996314*
X2000454Y2177940*
Y2182468*
X1909400Y2235100D02*
X1928900Y2215600D01*
X1935718*
X1942000Y2209318*
Y2207964*
X1961464Y2188500*
X1962647*
X1972447Y2178700*
X1973395*
X1975195Y2176900*
X1989574*
X1991274Y2175200*
X1995734*
X1999054Y2178520*
Y2181322*
X1931500Y2222500D02*
X1943600Y2210400D01*
Y2208564*
X1952176Y2199988*
X1964274*
X1941500Y2217000D02*
X1945800D01*
X1945900Y2217100*
X1949666*
X1951400Y2215366*
Y2208164*
X1953671Y2205894*
X1964274*
X1952000Y2227500D02*
X1957500D01*
X1957547Y2227547*
X1964274*
X1975500Y2217000D02*
X2044394D01*
X2045658Y2215736*
X2048526*
X1964274Y2231484D02*
X1970300D01*
X1972874Y2230954*
X1964274Y2235421D02*
Y2235231D01*
X1966630*
X1969164Y2235164*
X2038000Y2233500D02*
X2042611D01*
X2042659Y2233453*
X2048526*
Y2225579D02*
X2057221D01*
X2062500Y2220300*
X2079600*
X2084900Y2215000*
X2048526Y2217705D02*
Y2217514D01*
X2050882*
X2053500Y2217500*
X1909400Y2255100D02*
X1913114Y2258814D01*
Y2260150*
X1930976Y2278012*
X1977512*
X1957000Y2241500D02*
X1959922D01*
X1960096Y2241327*
X1964274*
X1954356Y2238790D02*
X1957987D01*
X1959387Y2237390*
X1964274*
X1937500Y2254000D02*
X1942332D01*
X1953832Y2265500*
X1959451*
X1960002Y2264949*
X1964274*
X1957200Y2247000D02*
X1960000D01*
X1960232Y2247232*
X1964274*
Y2239358D02*
X1968030D01*
X1969164Y2240493*
Y2240764*
X1964274Y2243295D02*
X1968130D01*
X1968135Y2243300*
X1970164*
X1971464Y2242000*
X1976000*
X1978000Y2244000*
X1983000*
X1964274Y2245264D02*
X1968778D01*
X1969242Y2244800*
X1972490*
Y2244510*
X1964274Y2249201D02*
X1968299D01*
X1969204Y2248296*
X1964274Y2251169D02*
X1968210D01*
X1968584Y2250796*
X1974596*
X1975300Y2251500*
X1981500*
X1964274Y2253138D02*
X1969800D01*
Y2253296*
X1964274Y2255106D02*
X1968053D01*
X1968747Y2255800*
X1972600*
X1973400Y2255000*
X1977600*
X1916500Y2260000D02*
X1928900Y2272400D01*
X1967709*
X1969300Y2270809*
Y2262282*
X1909400Y2265100D02*
X1930800Y2286500D01*
X1990500*
X1909400Y2275100D02*
X1923700Y2289400D01*
X1985700*
X1986300Y2290000*
X1996500*
X1957200Y2263000D02*
X1959983D01*
X1960002Y2262980*
X1964274*
Y2261012D02*
X1968030D01*
X1969300Y2262282*
X1995500Y2267500D02*
X2004046D01*
X2005416Y2268870*
Y2272626*
X2007384D02*
Y2279683D01*
X2012202Y2284500*
X2015000*
X2018000Y2287500*
X2009353Y2272626D02*
Y2279671D01*
X2012782Y2283100*
X2018691*
X2021296Y2285704*
X2011321Y2272626D02*
Y2268334D01*
X2015156Y2264500*
X2026000*
X1909400Y2285100D02*
X1915400D01*
X1922504Y2292204*
X1977296*
X1909400Y2295100D02*
X1943000D01*
X1943300Y2295400*
X1975400*
X1902500Y2301000D02*
X1916000D01*
X1916500Y2300500*
X1930000*
X1909400Y2305100D02*
X1914400D01*
X1916500Y2303000*
X1962000*
X1951400Y2305500D02*
X2057200D01*
X2061600Y2309900*
X2065800*
X1954500Y2336000D02*
X1966000D01*
X1966302Y2335698*
X1977338*
X1977640Y2336000*
X1992414*
X1994800Y2333614*
Y2327804*
X1953100Y2331000D02*
X1953600D01*
X1960600Y2324000*
X1975500*
X1980300*
X1980500Y2323800*
X2033979*
X2034079Y2323900*
X2061800*
X2065800Y2319900*
X1994800Y2327804D02*
X1995004Y2327600D01*
X2035329*
X2042629Y2334900*
X2060800*
X2065800Y2339900*
X1981800Y2330700D02*
X1982300D01*
X1985800Y2327200*
X1994214*
X1994800Y2327786*
Y2327804*
X1909400Y2355100D02*
X1932500D01*
X1935400Y2358000*
X1957000*
X1953000Y2350900D02*
X1953500D01*
X1957409Y2354809*
X1957809*
X1959500Y2356500*
X1976302Y2338198D02*
X1993902D01*
X1994200Y2337900*
X2010700*
X2006910Y2344505D02*
X2008905Y2346500D01*
X2012714*
X2015100Y2348886*
Y2353714*
X2015886Y2354500*
X2086000*
X2006910Y2344505D02*
X2010700Y2340714D01*
Y2337900*
X2012100*
X2018900Y2331100*
X2019400*
X2010300Y2351000D02*
X2011574D01*
X2013757Y2354457*
X2016300Y2357000*
X2061500*
X1905400Y2366757D02*
X1908143Y2369500D01*
X2088500*
X1905400Y2366757D02*
Y2363443D01*
X1908043Y2360800*
X1957736*
X1959500Y2359036*
Y2356500*
X1909400Y2365100D02*
X1933600D01*
X1934200Y2364500*
X1957000*
X1909400Y2375100D02*
X1943600D01*
X1944200Y2374500*
X1977000*
X1959500Y2356500D02*
X1973500D01*
X1960000Y2363536D02*
X1962464Y2366000D01*
X2038000*
X1960000Y2363536D02*
Y2361464D01*
X1961964Y2359500*
X1974036*
X1977000Y2356536*
Y2354800*
X1981200Y2350600*
X1981700*
X1962500Y2362500D02*
X1998300D01*
X2009800Y2351000*
X2010300*
X1985500Y2358500D02*
X1992914D01*
X2006910Y2344505*
X1909400Y2395100D02*
X1931400D01*
X1933500Y2393000*
X1972000*
X1952709Y2397417D02*
X1978300D01*
G54D27*
X1980000Y1885000D02*
X1985300D01*
X1994100Y1896300D02*
Y1900000D01*
X1997900Y1903800*
Y1907400*
X1994300Y1885000D02*
X2011442D01*
X2014542Y1881900*
X2033456*
X2034100Y1882544*
X2030200Y1895700D02*
X2030700D01*
X2034100Y1892300*
Y1882544*
X2030200Y1895700D02*
Y1895500D01*
X2035500*
X1981000Y1899256D02*
X1981644Y1899900D01*
X1990000*
X1993600Y1896300*
X1994100*
X1981000Y1899256D02*
Y1893344D01*
X1983744Y1890600*
X1988200*
X1993800Y1885000*
X1994300*
X1981022Y1910678D02*
Y1919446D01*
X1982776Y1921200*
X1984852*
X1984858Y1921206*
Y1925161*
X1981022Y1910678D02*
X1984300Y1907400D01*
X1984800*
X1993800D02*
X1997900D01*
X1984800D02*
X1987146D01*
X1987500Y1912000*
X1976000Y1934000D02*
X1976300D01*
Y1929709*
X1975016Y1925161D02*
Y1928424D01*
X1976300Y1929709*
X1986827Y1925161D02*
Y1929115D01*
X1988412Y1930700*
X1991160*
X1994400Y1933940*
Y1934720*
X1994585Y1934905*
X1998539*
X2001571*
X2002376Y1934100*
X2006132*
X2008174Y1936142*
X2023489*
X1998539Y1954590D02*
X2001601D01*
X2002311Y1955300*
X2021750*
X2025751Y1951299*
X2041942*
X1947500Y1960500D02*
Y1960495D01*
X1953461*
Y1962464D02*
X1955622D01*
X1958500Y1963815*
X1990764Y1970239D02*
Y1963789D01*
X1992500Y1962053*
Y1953660*
X1995507Y1950653*
X1998539*
X1978500Y1965000D02*
X1978953Y1968606D01*
Y1970239*
X1978500Y1965000D02*
X1981232Y1962268D01*
Y1962119*
X1983851Y1959500*
X1986475*
X1990764Y1963789*
X1988795Y1970239D02*
Y1970289D01*
X1989000Y1975500*
X2030700Y1991600D02*
X2036920D01*
X2037221Y1991299*
X2041942*
X2030900Y1980300D02*
X2036700D01*
X2037699Y1981299*
X2041942*
X2075517Y1986700D02*
X2078500Y1991000D01*
X2030900Y2003300D02*
X2036170D01*
X2038171Y2001299*
X2041942*
X2075517Y2012291D02*
Y1995983D01*
X2078500Y1993000*
Y1991000*
X1942000Y2117000D02*
X1969500D01*
X1945000Y2148798D02*
X1947402Y2151200D01*
X1967607*
X1969407Y2149400*
X1975169*
X1945000Y2148798D02*
Y2135402D01*
X1952002Y2128400*
X1960200*
X1965200Y2123400*
X1977000*
X1975169Y2144400D02*
X1982940D01*
X1985840Y2147300*
X1990450*
X1990650Y2147100*
X2013300*
X2013916Y2147716*
X2030200*
X1975169Y2149400D02*
X1979600D01*
X1984600Y2154400*
X1996231*
Y2159400*
X2019976Y2176188D02*
Y2181059D01*
X2021164Y2182247*
Y2188374*
X1939000Y2189000D02*
Y2194100D01*
X1939200*
X1958400Y2196000D02*
Y2196051D01*
X1964274*
X1971951Y2188374D02*
Y2193991D01*
X1972300Y2194339*
Y2197700*
X1987869Y2195891D02*
X1988900Y2196923D01*
Y2198260*
X1991240Y2200600*
X2012965*
X2020265Y2193300*
X1992762Y2184598D02*
X1993605Y2185440D01*
Y2188374*
X1992762Y2184598D02*
Y2181959D01*
X1993922Y2180800*
X1996236Y2179437*
X1996354Y2179638*
X1991636Y2188374D02*
Y2189985D01*
X1992200Y2194000*
X1987699Y2188374D02*
Y2186686D01*
X1988048Y2184500*
X1989700Y2182848*
Y2180918*
X1992696Y2177922*
X1987699Y2188374D02*
Y2192235D01*
X1987800Y2192335*
Y2195823*
X1987869Y2195891*
X1979825Y2188374D02*
Y2191308D01*
X1982018Y2193500*
X1985000*
X1977857Y2188374D02*
X1977947D01*
Y2190630*
X1978000Y2193500*
X2011321Y2188374D02*
X2011412D01*
Y2190630*
X2011500Y2193500*
X2009353Y2188374D02*
X2009443D01*
Y2186118*
X2009500Y2183500*
X2020265Y2193300D02*
X2021065Y2192500D01*
X2041833*
X2042133Y2192200*
X2049577*
X2052382Y2195005*
Y2205000*
X2023132Y2188374D02*
Y2180194D01*
X2023290Y2180036*
Y2173111*
X2019195Y2188374D02*
Y2192230D01*
X2020265Y2193300*
X2069900Y2195200D02*
X2064572D01*
X2064500Y2192500*
X1939000Y2208500D02*
Y2203100D01*
X1939200*
X1972300Y2197700D02*
X1986060D01*
X1987869Y2195891*
X1964274Y2198020D02*
X1965166D01*
X1969212Y2198288*
X1964274Y2209831D02*
X1968130D01*
X1972300Y2205661*
Y2197700*
X1964274Y2213768D02*
X1968232D01*
X1969300Y2212700*
X2005600*
X2006900Y2214000*
X2043500*
X1964274Y2215736D02*
Y2215646D01*
X1966530*
X1970500Y2215500*
X2052382Y2205000D02*
X2054772D01*
X2064572Y2195200*
X2043500Y2214000D02*
X2048040Y2213768D01*
X2048526*
Y2211799D02*
X2048549D01*
X2053500Y2212000*
X2048526Y2207862D02*
X2050829D01*
X2051091Y2207600*
X2054772*
X2058172Y2204200*
X2069900*
X2048526Y2205894D02*
X2048720Y2205700D01*
X2051682*
X2052382Y2205000*
X2069900Y2204200D02*
X2076100D01*
X2077025Y2205125*
X2082200*
X1938900Y2234300D02*
Y2233800D01*
X1948000Y2224700*
X1956300*
X1957179Y2225579*
X1964274*
X1938900Y2234300D02*
Y2234800D01*
X1951300Y2247200*
Y2249925*
X1960418Y2259043*
X1964274*
X1938900Y2234300D02*
X1952400D01*
X1957184Y2229516*
X1964274*
X1938900Y2225300D02*
X1939000D01*
Y2220000*
X1958400Y2233500D02*
Y2233453D01*
X1964274*
Y2223610D02*
X1966530D01*
Y2225579*
X1964274*
X1979679*
X1984600Y2230500*
X2006400*
X2048526Y2235421D02*
X2053500D01*
Y2235500*
X2064500Y2227000D02*
X2070000D01*
Y2228400*
X2065500Y2233000D02*
X2070000Y2236420D01*
Y2237400*
Y2228400D02*
Y2229555D01*
X2073528Y2231928*
X2073700Y2232100*
X2048526Y2243295D02*
X2044670D01*
Y2239358*
X2048526*
Y2241327D02*
X2052382D01*
X2053500Y2242445*
Y2262980*
X2050782Y2239358D02*
X2048526D01*
X2059042*
X2061000Y2237400*
X2070000*
X2048526Y2237390D02*
X2050782D01*
Y2239358*
X1934700Y2264800D02*
X1934772Y2264872D01*
X1938300Y2267245*
Y2268400*
X1934700Y2264800D02*
Y2247700D01*
X1938900Y2243500*
Y2234300*
X1945450Y2267050D02*
X1948091Y2269691D01*
X1966600*
X1943000Y2269500D02*
X1945450Y2267050D01*
X1938300Y2259400D02*
Y2259900D01*
X1945450Y2267050*
X1964274Y2257075D02*
X1966078D01*
X1968200Y2257500*
X1973893*
X1983797Y2267404*
X1991636*
X1964274Y2259043D02*
X1964531Y2259300D01*
X1970701*
X1979825Y2268424*
Y2272626*
X1991636Y2267404D02*
X1997340Y2261700D01*
X2027160*
X2028800Y2263340*
Y2266300*
X1991636Y2267404D02*
Y2272626D01*
X1979825D02*
Y2276308D01*
X1980312Y2276795*
Y2278660*
X1983152Y2281500*
X1994360*
X1996500Y2279360*
Y2276697*
X1997542Y2275655*
Y2272626*
X1981794D02*
Y2275674D01*
X1983112Y2276992*
Y2277500*
X1991636Y2272626D02*
Y2276587D01*
X1993475Y2278425*
X1999510Y2272626D02*
Y2273310D01*
X1999752Y2277500*
X2013290Y2272626D02*
Y2268770D01*
X2013360Y2268700*
X2023062*
X2023132Y2268770*
Y2272626*
X2015258D02*
Y2276482D01*
X2016276Y2277500*
X2016374*
X2027069Y2272626D02*
Y2268031D01*
X2028800Y2266300*
X2027069Y2272626D02*
Y2275560D01*
X2028010Y2276500*
X2040831*
X2040849Y2276482*
Y2272626*
X2053500Y2262980D02*
Y2263000D01*
X2041683Y2266800D02*
X2057400D01*
X2060800Y2263400*
X2072656*
X2073700Y2262356*
Y2232100*
X2040700Y2265520D02*
Y2257108D01*
X2044670Y2253138*
X2048526*
X2040700Y2265520D02*
X2041683Y2266800D01*
X2053500Y2263000D02*
X2057400D01*
X2061500Y2258900*
X2070100*
X2043500Y2264000D02*
X2044449Y2264949D01*
X2048526*
X2040849Y2272626D02*
Y2270574D01*
X2041683Y2268700*
Y2266800*
X2048526Y2262980D02*
X2053500D01*
X2065500Y2267500D02*
X2070100D01*
Y2267900*
X1993200Y2278700D02*
X1993475Y2278425D01*
X2013000Y2279500D02*
X2013290D01*
Y2272626*
X2025000Y2277500D02*
X2025010Y2274882D01*
Y2272626*
X2025101*
X2055800Y2309900D02*
X2060800Y2314900D01*
X2066598*
X2069900Y2318202*
X1969628Y2331872D02*
X1973619D01*
X1975647Y2333900*
X1977602*
X1977700Y2333998*
X1962100Y2331000D02*
Y2331872D01*
X1969628*
X1977700Y2333998D02*
Y2327744D01*
X1979044Y2326400*
X1982550*
X1983450Y2325500*
X2013211*
X2013311Y2325600*
X2065898*
X2069900Y2321598*
Y2318202*
X1977700Y2333998D02*
X1977798Y2333900D01*
X1977944*
X1978344Y2334300*
X1986700*
X1990300Y2330700*
X1990800*
X2005000Y2331000D02*
X2010400D01*
Y2331100*
X1962000Y2350900D02*
Y2348900D01*
X1964500*
X1967500Y2348000*
X1990700Y2350600D02*
Y2350500D01*
X1996000*
X2019300Y2351000D02*
X2044700D01*
X2055800Y2339900*
X2001000Y2385500D02*
X2006300D01*
X2015300D02*
Y2400000D01*
X2015600Y2400300*
Y2414900*
X2015300Y2385500D02*
Y2383500D01*
X2020500*
X2030100Y2389600D02*
Y2409500D01*
X2034500Y2413900*
X2030100Y2389600D02*
X2035200Y2384500D01*
Y2377700*
X2034800D02*
X2035200D01*
X2034800Y2395700D02*
Y2395500D01*
X2041500*
X2058800Y2386700D02*
Y2386500D01*
X2076000*
X1994500Y2415000D02*
Y2422400D01*
X1994678Y2422578*
Y2427422*
X1994500Y2415000D02*
X1999700D01*
X1999800Y2414900*
X2006600*
X1907000Y2430000D02*
X1909400Y2435100D01*
X1954900Y2429200D02*
X1957300D01*
X1961600Y2433500*
Y2447456*
X1963444Y2449300*
X1994950*
X2015950Y2428300*
X2034100*
X2034500*
Y2413900*
X2051500Y2425000D02*
Y2437300D01*
X2058100*
X1909400Y2455100D02*
X1927400D01*
X1953300Y2429200*
X1954900*
X1978900Y2438200D02*
X1983900D01*
X1994678Y2427422*
X2015300Y2445600D02*
Y2443600D01*
X2017800*
X2020500Y2443500*
X2006300Y2445600D02*
X2007455D01*
X2009828Y2449128*
X2010100Y2449400*
X2038956*
X2040800Y2447556*
Y2438500*
X2042000Y2437300*
X2058100*
X2020500Y2443500D02*
X2024900D01*
X2027700Y2446300*
X2034100*
X1905300Y2456798D02*
X1907702Y2459200D01*
X1941300*
X1953300Y2447200*
X1954900*
X1905300Y2456798D02*
Y2449200D01*
X1909400Y2445100*
G54D28*
X1976500Y1854500D03*
X1970500D03*
X1966500D03*
X1986000Y1856374D03*
X1990000Y1854500D03*
X1982500D03*
X2002000D03*
X2017500D03*
X2037500D03*
X1953500Y1876000D03*
X1960500Y1873500D03*
X2015000Y1869400D03*
X2024000Y1857000D03*
X2021500Y1865000D03*
X2088500Y1872500D03*
X2085500Y1875000D03*
X1971500Y1892500D03*
X1964000Y1878000D03*
X1959000Y1881500D03*
X1980000Y1885000D03*
X2008400Y1879100D03*
X2018000Y1891000D03*
X2035500Y1895500D03*
X2043500Y1887000D03*
X1916500Y1914000D03*
X1992000Y1902000D03*
X1987500Y1912000D03*
X2029500Y1900500D03*
X1921500Y1919000D03*
X1945524Y1934434D03*
X1973400Y1931000D03*
X1970500Y1933196D03*
X1967731Y1930229D03*
X1973000Y1920000D03*
X1959000Y1920500D03*
X1976000Y1934000D03*
X1991500Y1935000D03*
X1983348Y1931397D03*
X1983928Y1918392D03*
X1992437Y1918495D03*
X2015500Y1929500D03*
X2009500Y1932000D03*
X2033489Y1936142D03*
X2023489D03*
X2043489D03*
X2064500Y1929500D03*
X1944741Y1940045D03*
X1943612Y1946390D03*
X1948500Y1952723D03*
X1960612Y1940922D03*
X1960441Y1945607D03*
X1969100Y1939600D03*
X1958500Y1954500D03*
X2003508Y1952492D03*
X2011000Y1948500D03*
X2014000Y1946000D03*
X2006607Y1941400D03*
X2003500Y1936936D03*
X2029753Y1941542D03*
X2041500Y1944500D03*
X2047342Y1955370D03*
Y1945370D03*
X2039418Y1941208D03*
X2041942Y1951299D03*
X1931500Y1967500D03*
X1947500Y1960500D03*
X1948500Y1956500D03*
X1975296Y1975204D03*
X1958500Y1960015D03*
Y1963815D03*
X1984925Y1962385D03*
X1978500Y1965000D03*
X1989000Y1975500D03*
X2003500Y1960500D03*
X2016500Y1958500D03*
X2027000Y1959000D03*
X2021500Y1964000D03*
X2047342Y1975370D03*
Y1965370D03*
X2041942Y1961299D03*
Y1971299D03*
X1921500Y1977500D03*
X1973000Y1978000D03*
X1981696Y1977600D03*
X1990000Y1985000D03*
X1983500D03*
X1986662Y1981091D03*
X2006500Y1978500D03*
X2047342Y1995370D03*
Y1985370D03*
X2041942Y1981299D03*
Y1991299D03*
X2078500Y1991000D03*
X2047342Y2015370D03*
Y2005370D03*
X2041942Y2001299D03*
Y2011299D03*
X1974504Y2027604D03*
X2035000Y2024500D03*
X2035689Y2031329D03*
X2031571Y2027810D03*
X2040000Y2017500D03*
X2042760Y2024258D03*
X2038254Y2021128D03*
X1972054Y2039154D03*
X1979200Y2048484D03*
X2023000Y2051000D03*
X2025296Y2048204D03*
X2030000Y2053500D03*
X2035600Y2051329D03*
Y2041329D03*
X2030200Y2037716D03*
X2030496Y2047716D03*
X2037500Y2055500D03*
Y2045500D03*
X1945000Y2069000D03*
X1960100Y2065000D03*
X1982000Y2069000D03*
X2012500Y2066500D03*
X2030000Y2074500D03*
X2035600Y2071329D03*
Y2061329D03*
X2030200Y2057716D03*
Y2067716D03*
X1961500Y2085000D03*
X2018500Y2086500D03*
X2027500Y2095500D03*
X2035600Y2091329D03*
Y2081329D03*
X2030200Y2078300D03*
Y2087716D03*
X2041500Y2093000D03*
X1962000Y2109500D03*
X2035600Y2111329D03*
Y2101329D03*
X2030429Y2097945D03*
X2030200Y2107716D03*
X2044000Y2107000D03*
X2064500Y2111500D03*
X1956000Y2121000D03*
X1942000Y2117000D03*
X1969500D03*
X2035600Y2131329D03*
Y2121329D03*
X2030200Y2117716D03*
Y2127716D03*
X2046000Y2123000D03*
X1961500Y2154500D03*
X1981790Y2147210D03*
X1987000Y2144500D03*
X2006500Y2142000D03*
X2001000Y2137000D03*
X2035600Y2151329D03*
X2036285Y2142014D03*
X2030200Y2137716D03*
Y2147716D03*
X2045652Y2152630D03*
X2075553Y2152300D03*
X2065553D03*
X2059435D03*
X1968700Y2166000D03*
X1981500Y2157000D03*
X1986222Y2167722D03*
X2004705Y2164795D03*
X2008194Y2168285D03*
X2001500Y2159000D03*
X2019976Y2176188D03*
X2023290Y2173111D03*
X2032210Y2157512D03*
X2043085Y2157700D03*
X2052208D03*
X2062208D03*
X2072208D03*
X1916500Y2180500D03*
X1939000Y2189000D03*
X1975121Y2180509D03*
X1962500Y2191000D03*
X1958400Y2196000D03*
X1979674Y2179807D03*
X1978000Y2193500D03*
X1992200Y2194000D03*
X1992696Y2177922D03*
X1984100Y2182500D03*
X1986096Y2179404D03*
X1995562Y2183438D03*
X1985000Y2193500D03*
X1996354Y2179638D03*
X2009500Y2183500D03*
X2011500Y2193500D03*
X2023500Y2195500D03*
X2037100Y2180500D03*
X2033500D03*
X2031409Y2183500D03*
X2064500Y2192500D03*
X2082200Y2185125D03*
Y2195125D03*
X1946200Y2209500D03*
X1954150Y2208950D03*
X1948700Y2214531D03*
X1939000Y2208500D03*
X1970500Y2215500D03*
X1969212Y2198288D03*
X1959000Y2212000D03*
X1992400Y2197800D03*
X2008500Y2205500D03*
X2033500Y2200500D03*
X2043500Y2208000D03*
X2040500Y2202000D03*
X2053500Y2212000D03*
X2043500Y2214000D03*
X2071500Y2215000D03*
X2061500Y2208500D03*
X2082200Y2205125D03*
X2081026Y2215055D03*
X1931500Y2222500D03*
X1939000Y2220000D03*
X1941500Y2217000D03*
X1952000Y2227500D03*
X1975500Y2217000D03*
X1958400Y2233500D03*
X1972874Y2230954D03*
X1969164Y2235164D03*
X2053500Y2217500D03*
X2038000Y2233500D03*
X2053500Y2235500D03*
X2064500Y2227000D03*
X2065500Y2233000D03*
X1957000Y2241500D03*
X1954356Y2238790D03*
X1937500Y2254000D03*
X1957200Y2247000D03*
X1969204Y2248296D03*
X1969164Y2240764D03*
X1972490Y2244510D03*
X1969800Y2253296D03*
X1983000Y2244000D03*
X1977600Y2255000D03*
X1981500Y2251500D03*
X1916500Y2260000D03*
X1943000Y2269500D03*
X1957200Y2263000D03*
X1966600Y2269691D03*
X1995500Y2267500D03*
X2026000Y2264500D03*
X2053500Y2263000D03*
X2043500Y2264000D03*
X2065500Y2267500D03*
X1977296Y2292204D03*
X1975400Y2295400D03*
X1983112Y2277500D03*
X1993200Y2278700D03*
X1996500Y2290000D03*
X1990500Y2286500D03*
X1977512Y2278012D03*
X2016374Y2277500D03*
X1999752D03*
X2013000Y2279500D03*
X2018000Y2287500D03*
X2021296Y2285704D03*
X2025000Y2277500D03*
X1902500Y2301000D03*
X1930000Y2300500D03*
X1951400Y2305500D03*
X1962000Y2303000D03*
X1954500Y2336000D03*
X1969628Y2331872D03*
X1975500Y2324000D03*
X2005000Y2331000D03*
X1976302Y2338198D03*
X1967500Y2348000D03*
X1996000Y2350500D03*
X2086000Y2354500D03*
X1957000Y2364500D03*
Y2358000D03*
X1973500Y2356500D03*
X1962500Y2362500D03*
X1977000Y2374500D03*
X1985500Y2358500D03*
X2038000Y2366000D03*
X2061500Y2357000D03*
X2088500Y2369500D03*
X1972000Y2393000D03*
X2001000Y2385500D03*
X2020500Y2383500D03*
X2041500Y2395500D03*
X2076000Y2386500D03*
X1994500Y2415000D03*
X1907000Y2430000D03*
X2051500Y2425000D03*
X2020500Y2443500D03*
G54D52*
X2058800Y2386700D03*
X2058100Y2437300D03*
X1978900Y2438200D03*
G54D54*
X2068800Y1884900D03*
X2063800D03*
X2068800Y1889900D03*
X2063800D03*
X2068800Y1894900D03*
X2063800D03*
X2068800Y1899900D03*
X2063800D03*
X2068800Y1904900D03*
X2063800D03*
X0Y0D02*
M02*
