*
*
G04 PADS VX.2.3 Build Number: 9191294 generated Gerber (RS-274-X) file*
G04 PC Version=2.1*
*
%IN "uMuddMarkVLayout_3_osci"*%
*
%MOIN*%
*
%FSLAX35Y35*%
*
*
*
*
G04 PC Standard Apertures*
*
*
G04 Thermal Relief Aperture macro.*
%AMTER*
1,1,$1,0,0*
1,0,$1-$2,0,0*
21,0,$3,$4,0,0,45*
21,0,$3,$4,0,0,135*
%
*
*
G04 Annular Aperture macro.*
%AMANN*
1,1,$1,0,0*
1,0,$2,0,0*
%
*
*
G04 Odd Aperture macro.*
%AMODD*
1,1,$1,0,0*
1,0,$1-0.005,0,0*
%
*
*
G04 PC Custom Aperture Macros*
*
*
*
*
*
*
G04 PC Aperture Table*
*
%ADD010C,0.001*%
%ADD027C,0.01*%
*
*
*
*
G04 PC Circuitry*
G04 Layer Name uMuddMarkVLayout_3_osci - circuitry*
%LPD*%
*
*
G04 PC Custom Flashes*
G04 Layer Name uMuddMarkVLayout_3_osci - flashes*
%LPD*%
*
*
G04 PC Circuitry*
G04 Layer Name uMuddMarkVLayout_3_osci - circuitry*
%LPD*%
*
G54D10*
G01X1902300Y2468300D02*
X1902303D01*
X2088400D02*
X2088403D01*
X2088400Y1871800D02*
X2088403D01*
X2088400Y2468300D02*
X2088403D01*
G54D27*
X2053800Y1986700D02*
X2061800D01*
X2057800Y1982700D02*
Y1990700D01*
X2053800Y2012291D02*
X2061800D01*
X2057800Y2008291D02*
Y2016291D01*
X2071517Y2012291D02*
X2079517D01*
X2075517Y2008291D02*
Y2016291D01*
X2071517Y1986700D02*
X2079517D01*
X2075517Y1982700D02*
Y1990700D01*
X2071700Y1963200D02*
X2079700D01*
X2075700Y1959200D02*
Y1967200D01*
X2071700Y1937609D02*
X2079700D01*
X2075700Y1933609D02*
Y1941609D01*
X2053983Y1937609D02*
X2061983D01*
X2057983Y1933609D02*
Y1941609D01*
X2053983Y1963200D02*
X2061983D01*
X2057983Y1959200D02*
Y1967200D01*
X2064800Y1880900D02*
X2072800Y1888900D01*
X2064800D02*
X2072800Y1880900D01*
X2059800D02*
X2067800Y1888900D01*
X2059800D02*
X2067800Y1880900D01*
X2064800Y1885900D02*
X2072800Y1893900D01*
X2064800D02*
X2072800Y1885900D01*
X2059800D02*
X2067800Y1893900D01*
X2059800D02*
X2067800Y1885900D01*
X2064800Y1890900D02*
X2072800Y1898900D01*
X2064800D02*
X2072800Y1890900D01*
X2059800D02*
X2067800Y1898900D01*
X2059800D02*
X2067800Y1890900D01*
X2064800Y1895900D02*
X2072800Y1903900D01*
X2064800D02*
X2072800Y1895900D01*
X2059800D02*
X2067800Y1903900D01*
X2059800D02*
X2067800Y1895900D01*
X2064800Y1900900D02*
X2072800Y1908900D01*
X2064800D02*
X2072800Y1900900D01*
X2059800D02*
X2067800Y1908900D01*
X2059800D02*
X2067800Y1900900D01*
X1934700Y2177500D02*
X1942700D01*
X1938700Y2173500D02*
Y2181500D01*
X1934700Y2167500D02*
X1942700D01*
X1938700Y2163500D02*
Y2171500D01*
X1934700Y2157500D02*
X1942700D01*
X1938700Y2153500D02*
Y2161500D01*
X1934700Y2147500D02*
X1942700D01*
X1938700Y2143500D02*
Y2151500D01*
X1934700Y2137500D02*
X1942700D01*
X1938700Y2133500D02*
Y2141500D01*
X2047400Y2125500D02*
X2055400D01*
X2051400Y2121500D02*
Y2129500D01*
X2047400Y2115500D02*
X2055400D01*
X2051400Y2111500D02*
Y2119500D01*
X2047400Y2105500D02*
X2055400D01*
X2051400Y2101500D02*
Y2109500D01*
X2047400Y2095500D02*
X2055400D01*
X2051400Y2091500D02*
Y2099500D01*
X2047400Y2085500D02*
X2055400D01*
X2051400Y2081500D02*
Y2089500D01*
X2047400Y2075500D02*
X2055400D01*
X2051400Y2071500D02*
Y2079500D01*
X2047400Y2065500D02*
X2055400D01*
X2051400Y2061500D02*
Y2069500D01*
X2047400Y2055500D02*
X2055400D01*
X2051400Y2051500D02*
Y2059500D01*
X2047400Y2045500D02*
X2055400D01*
X2051400Y2041500D02*
Y2049500D01*
X2047400Y2035500D02*
X2055400D01*
X2051400Y2031500D02*
Y2039500D01*
X2077400Y2035500D02*
X2085400D01*
X2081400Y2031500D02*
Y2039500D01*
X2077400Y2045500D02*
X2085400D01*
X2081400Y2041500D02*
Y2049500D01*
X2077400Y2055500D02*
X2085400D01*
X2081400Y2051500D02*
Y2059500D01*
X2077400Y2065500D02*
X2085400D01*
X2081400Y2061500D02*
Y2069500D01*
X2077400Y2075500D02*
X2085400D01*
X2081400Y2071500D02*
Y2079500D01*
X2077400Y2085500D02*
X2085400D01*
X2081400Y2081500D02*
Y2089500D01*
X2077400Y2095500D02*
X2085400D01*
X2081400Y2091500D02*
Y2099500D01*
X2077400Y2105500D02*
X2085400D01*
X2081400Y2101500D02*
Y2109500D01*
X2077400Y2115500D02*
X2085400D01*
X2081400Y2111500D02*
Y2119500D01*
X2077400Y2125500D02*
X2085400D01*
X2081400Y2121500D02*
Y2129500D01*
X1974300Y2379700D02*
X1982300D01*
X1978300Y2375700D02*
Y2383700D01*
X1948709Y2379700D02*
X1956709D01*
X1952709Y2375700D02*
Y2383700D01*
X1948709Y2397417D02*
X1956709D01*
X1952709Y2393417D02*
Y2401417D01*
X1974300Y2397417D02*
X1982300D01*
X1978300Y2393417D02*
Y2401417D01*
X2009309Y2125272D02*
X2017309D01*
X2013309Y2121272D02*
Y2129272D01*
X2009309Y2115272D02*
X2017309D01*
X2013309Y2111272D02*
Y2119272D01*
X2009309Y2105272D02*
X2017309D01*
X2013309Y2101272D02*
Y2109272D01*
X2009309Y2095272D02*
X2017309D01*
X2013309Y2091272D02*
Y2099272D01*
X2009309Y2085272D02*
X2017309D01*
X2013309Y2081272D02*
Y2089272D01*
X2009309Y2075272D02*
X2017309D01*
X2013309Y2071272D02*
Y2079272D01*
X2009309Y2065272D02*
X2017309D01*
X2013309Y2061272D02*
Y2069272D01*
X2009309Y2055272D02*
X2017309D01*
X2013309Y2051272D02*
Y2059272D01*
X2009309Y2045272D02*
X2017309D01*
X2013309Y2041272D02*
Y2049272D01*
X2009309Y2035272D02*
X2017309D01*
X2013309Y2031272D02*
Y2039272D01*
X1994609Y2125272D02*
X2002609D01*
X1998609Y2121272D02*
Y2129272D01*
X1994609Y2115272D02*
X2002609D01*
X1998609Y2111272D02*
Y2119272D01*
X1994609Y2105272D02*
X2002609D01*
X1998609Y2101272D02*
Y2109272D01*
X1994609Y2095272D02*
X2002609D01*
X1998609Y2091272D02*
Y2099272D01*
X1994609Y2085272D02*
X2002609D01*
X1998609Y2081272D02*
Y2089272D01*
X1994609Y2075272D02*
X2002609D01*
X1998609Y2071272D02*
Y2079272D01*
X1994609Y2065272D02*
X2002609D01*
X1998609Y2061272D02*
Y2069272D01*
X1994609Y2055272D02*
X2002609D01*
X1998609Y2051272D02*
Y2059272D01*
X1994609Y2045272D02*
X2002609D01*
X1998609Y2041272D02*
Y2049272D01*
X1994609Y2035272D02*
X2002609D01*
X1998609Y2031272D02*
Y2039272D01*
X2061800Y2295900D02*
X2069800D01*
Y2303900*
X2061800*
Y2295900*
X2065800Y2299900D02*
Y2303900D01*
X2051800Y2295900D02*
X2059800D01*
Y2303900*
X2051800*
Y2295900*
X2055800Y2299900D02*
Y2303900D01*
X2061800Y2305900D02*
X2069800D01*
Y2313900*
X2061800*
Y2305900*
X2065800Y2309900D02*
Y2313900D01*
X2051800Y2305900D02*
X2059800D01*
Y2313900*
X2051800*
Y2305900*
X2055800Y2309900D02*
Y2313900D01*
X2061800Y2315900D02*
X2069800D01*
Y2323900*
X2061800*
Y2315900*
X2065800Y2319900D02*
Y2323900D01*
X2051800Y2315900D02*
X2059800D01*
Y2323900*
X2051800*
Y2315900*
X2055800Y2319900D02*
Y2323900D01*
X2061800Y2325900D02*
X2069800D01*
Y2333900*
X2061800*
Y2325900*
X2065800Y2329900D02*
Y2333900D01*
X2051800Y2325900D02*
X2059800D01*
Y2333900*
X2051800*
Y2325900*
X2055800Y2329900D02*
Y2333900D01*
X2061800Y2335900D02*
X2069800D01*
Y2343900*
X2061800*
Y2335900*
X2065800Y2339900D02*
Y2343900D01*
X2051800Y2335900D02*
X2059800D01*
Y2343900*
X2051800*
Y2335900*
X2055800Y2339900D02*
Y2343900D01*
X2023400Y1912400D02*
X2031400D01*
Y1920400*
X2023400*
Y1912400*
X2027400Y1916400D02*
Y1920400D01*
X2023400Y1962400D02*
X2031400D01*
Y1970400*
X2023400*
Y1962400*
X2027400Y1966400D02*
Y1970400D01*
X2006400Y2226500D02*
X2010400Y2230500D01*
X2006400Y2234500*
X2002400Y2230500*
X2006400Y2226500*
Y2230500D02*
Y2234500D01*
X1905400Y2455100D02*
X1913400D01*
X1909400Y2451100D02*
Y2459100D01*
X1905400Y2445100D02*
X1913400D01*
X1909400Y2441100D02*
Y2449100D01*
X1905400Y2435100D02*
X1913400D01*
X1909400Y2431100D02*
Y2439100D01*
X1905400Y2425100D02*
X1913400D01*
X1909400Y2421100D02*
Y2429100D01*
X1905400Y2415100D02*
X1913400D01*
X1909400Y2411100D02*
Y2419100D01*
X1905400Y2405100D02*
X1913400D01*
X1909400Y2401100D02*
Y2409100D01*
X1905400Y2395100D02*
X1913400D01*
X1909400Y2391100D02*
Y2399100D01*
X1905400Y2385100D02*
X1913400D01*
X1909400Y2381100D02*
Y2389100D01*
X1905400Y2375100D02*
X1913400D01*
X1909400Y2371100D02*
Y2379100D01*
X1905400Y2365100D02*
X1913400D01*
X1909400Y2361100D02*
Y2369100D01*
X1905400Y2355100D02*
X1913400D01*
X1909400Y2351100D02*
Y2359100D01*
X1905400Y2345100D02*
X1913400D01*
X1909400Y2341100D02*
Y2349100D01*
X1905400Y2335100D02*
X1913400D01*
X1909400Y2331100D02*
Y2339100D01*
X1905400Y2325100D02*
X1913400D01*
X1909400Y2321100D02*
Y2329100D01*
X1905400Y2315100D02*
X1913400D01*
X1909400Y2311100D02*
Y2319100D01*
X1905400Y2305100D02*
X1913400D01*
X1909400Y2301100D02*
Y2309100D01*
X1905400Y2295100D02*
X1913400D01*
X1909400Y2291100D02*
Y2299100D01*
X1905400Y2285100D02*
X1913400D01*
X1909400Y2281100D02*
Y2289100D01*
X1905400Y2275100D02*
X1913400D01*
X1909400Y2271100D02*
Y2279100D01*
X1905400Y2265100D02*
X1913400D01*
X1909400Y2261100D02*
Y2269100D01*
X1905400Y2255100D02*
X1913400D01*
X1909400Y2251100D02*
Y2259100D01*
X1905400Y2245100D02*
X1913400D01*
X1909400Y2241100D02*
Y2249100D01*
X1905400Y2235100D02*
X1913400D01*
X1909400Y2231100D02*
Y2239100D01*
X1905400Y2225100D02*
X1913400D01*
X1909400Y2221100D02*
Y2229100D01*
X1905400Y2215100D02*
X1913400D01*
X1909400Y2211100D02*
Y2219100D01*
X1905400Y2205100D02*
X1913400D01*
X1909400Y2201100D02*
Y2209100D01*
X1905400Y2195100D02*
X1913400D01*
X1909400Y2191100D02*
Y2199100D01*
X1905400Y2185100D02*
X1913400D01*
X1909400Y2181100D02*
Y2189100D01*
X1905400Y2175100D02*
X1913400D01*
X1909400Y2171100D02*
Y2179100D01*
X1905400Y2165100D02*
X1913400D01*
X1909400Y2161100D02*
Y2169100D01*
X1905400Y2155100D02*
X1913400D01*
X1909400Y2151100D02*
Y2159100D01*
X1905400Y2145100D02*
X1913400D01*
X1909400Y2141100D02*
Y2149100D01*
X1905400Y2135100D02*
X1913400D01*
X1909400Y2131100D02*
Y2139100D01*
X1905400Y2125100D02*
X1913400D01*
X1909400Y2121100D02*
Y2129100D01*
X1905400Y2115100D02*
X1913400D01*
X1909400Y2111100D02*
Y2119100D01*
X1905400Y2105100D02*
X1913400D01*
X1909400Y2101100D02*
Y2109100D01*
X1905400Y2095100D02*
X1913400D01*
X1909400Y2091100D02*
Y2099100D01*
X1905400Y2085100D02*
X1913400D01*
X1909400Y2081100D02*
Y2089100D01*
X1905400Y2075100D02*
X1913400D01*
X1909400Y2071100D02*
Y2079100D01*
X1905400Y2065100D02*
X1913400D01*
X1909400Y2061100D02*
Y2069100D01*
X1905400Y2055100D02*
X1913400D01*
X1909400Y2051100D02*
Y2059100D01*
X1905400Y2045100D02*
X1913400D01*
X1909400Y2041100D02*
Y2049100D01*
X1905400Y2035100D02*
X1913400D01*
X1909400Y2031100D02*
Y2039100D01*
X1905400Y2025100D02*
X1913400D01*
X1909400Y2021100D02*
Y2029100D01*
X1905400Y2015100D02*
X1913400D01*
X1909400Y2011100D02*
Y2019100D01*
X1905400Y2005100D02*
X1913400D01*
X1909400Y2001100D02*
Y2009100D01*
X1905400Y1995100D02*
X1913400D01*
X1909400Y1991100D02*
Y1999100D01*
X1905400Y1985100D02*
X1913400D01*
X1909400Y1981100D02*
Y1989100D01*
X1905400Y1975100D02*
X1913400D01*
X1909400Y1971100D02*
Y1979100D01*
X1905400Y1965100D02*
X1913400D01*
X1909400Y1961100D02*
Y1969100D01*
X1905400Y1955100D02*
X1913400D01*
X1909400Y1951100D02*
Y1959100D01*
X1905400Y1945100D02*
X1913400D01*
X1909400Y1941100D02*
Y1949100D01*
X1905400Y1935100D02*
X1913400D01*
X1909400Y1931100D02*
Y1939100D01*
X1905400Y1925100D02*
X1913400D01*
X1909400Y1921100D02*
Y1929100D01*
X1905400Y1915100D02*
X1913400D01*
X1909400Y1911100D02*
Y1919100D01*
X1905400Y1905100D02*
X1913400D01*
X1909400Y1901100D02*
Y1909100D01*
X1905400Y1895100D02*
X1913400D01*
X1909400Y1891100D02*
Y1899100D01*
X1905400Y1885100D02*
X1913400D01*
X1909400Y1881100D02*
Y1889100D01*
X2043600Y2140700D02*
X2051600D01*
X2047600Y2136700D02*
Y2144700D01*
X2053600Y2140700D02*
X2061600D01*
X2057600Y2136700D02*
Y2144700D01*
X2063600Y2140700D02*
X2071600D01*
X2067600Y2136700D02*
Y2144700D01*
X2073600Y2140700D02*
X2081600D01*
X2077600Y2136700D02*
Y2144700D01*
X2073600Y2170700D02*
X2081600D01*
X2077600Y2166700D02*
Y2174700D01*
X2063600Y2170700D02*
X2071600D01*
X2067600Y2166700D02*
Y2174700D01*
X2053600Y2170700D02*
X2061600D01*
X2057600Y2166700D02*
Y2174700D01*
X2043600Y2170700D02*
X2051600D01*
X2047600Y2166700D02*
Y2174700D01*
X1962500Y1850500D02*
X1970500D01*
X1962500Y1858500*
X1970500*
X1962500Y1850500*
X1958500D02*
X1966500D01*
X1958500Y1858500*
X1966500*
X1958500Y1850500*
X1986000D02*
X1994000D01*
X1986000Y1858500*
X1994000*
X1986000Y1850500*
X1977876Y1851750D02*
X1985876D01*
X1977876Y1859750*
X1985876*
X1977876Y1851750*
X1982000Y1850500D02*
X1990000D01*
X1982000Y1858500*
X1990000*
X1982000Y1850500*
X1998000D02*
X2006000D01*
X1998000Y1858500*
X2006000*
X1998000Y1850500*
X2020000Y1853000D02*
X2028000D01*
X2020000Y1861000*
X2028000*
X2020000Y1853000*
X2013500Y1850500D02*
X2021500D01*
X2013500Y1858500*
X2021500*
X2013500Y1850500*
X2033500D02*
X2041500D01*
X2033500Y1858500*
X2041500*
X2033500Y1850500*
X1979500Y1855500D02*
X1987500D01*
X1979500Y1863500*
X1987500*
X1979500Y1855500*
X1971000Y1864000D02*
X1979000D01*
X1971000Y1872000*
X1979000*
X1971000Y1864000*
X2015500Y1875000D02*
X2023500D01*
X2015500Y1883000*
X2023500*
X2015500Y1875000*
X2010500D02*
X2018500D01*
X2010500Y1883000*
X2018500*
X2010500Y1875000*
X2017500Y1861000D02*
X2025500D01*
X2017500Y1869000*
X2025500*
X2017500Y1861000*
X2029500Y1875000D02*
X2037500D01*
X2029500Y1883000*
X2037500*
X2029500Y1875000*
X2084500Y1868500D02*
X2092500D01*
X2084500Y1876500*
X2092500*
X2084500Y1868500*
X2081500Y1871000D02*
X2089500D01*
X2081500Y1879000*
X2089500*
X2081500Y1871000*
X2077500Y1873500D02*
X2085500D01*
X2077500Y1881500*
X2085500*
X2077500Y1873500*
X1920500Y1880500D02*
X1928500D01*
X1920500Y1888500*
X1928500*
X1920500Y1880500*
X1974000Y1892500D02*
X1982000D01*
X1974000Y1900500*
X1982000*
X1974000Y1892500*
X1976000Y1881000D02*
X1984000D01*
X1976000Y1889000*
X1984000*
X1976000Y1881000*
X2002000Y1877500D02*
X2010000D01*
X2002000Y1885500*
X2010000*
X2002000Y1877500*
X2013000Y1887000D02*
X2021000D01*
X2013000Y1895000*
X2021000*
X2013000Y1887000*
X2031500Y1891500D02*
X2039500D01*
X2031500Y1899500*
X2039500*
X2031500Y1891500*
X1961500Y1914000D02*
X1969500D01*
X1961500Y1922000*
X1969500*
X1961500Y1914000*
X1970000Y1909000D02*
X1978000D01*
X1970000Y1917000*
X1978000*
X1970000Y1909000*
X1975500Y1902500D02*
X1983500D01*
X1975500Y1910500*
X1983500*
X1975500Y1902500*
X1995000Y1903500D02*
X2003000D01*
X1995000Y1911500*
X2003000*
X1995000Y1903500*
X2025500Y1896500D02*
X2033500D01*
X2025500Y1904500*
X2033500*
X2025500Y1896500*
X2012000Y1907000D02*
X2020000D01*
X2012000Y1915000*
X2020000*
X2012000Y1907000*
X1944500Y1935000D02*
X1952500D01*
X1944500Y1943000*
X1952500*
X1944500Y1935000*
Y1931000D02*
X1952500D01*
X1944500Y1939000*
X1952500*
X1944500Y1931000*
X1956906Y1933000D02*
X1964906D01*
X1956906Y1941000*
X1964906*
X1956906Y1933000*
X1954500Y1930315D02*
X1962500D01*
X1954500Y1938315*
X1962500*
X1954500Y1930315*
X1958409Y1916000D02*
X1966409D01*
X1958409Y1924000*
X1966409*
X1958409Y1916000*
X1972704Y1926204D02*
X1980704D01*
X1972704Y1934204*
X1980704*
X1972704Y1926204*
X1985385Y1929741D02*
X1993385D01*
X1985385Y1937741*
X1993385*
X1985385Y1929741*
X1982190Y1933690D02*
X1990190D01*
X1982190Y1941690*
X1990190*
X1982190Y1933690*
X1982500Y1916000D02*
X1990500D01*
X1982500Y1924000*
X1990500*
X1982500Y1916000*
X1971500D02*
X1979500D01*
X1971500Y1924000*
X1979500*
X1971500Y1916000*
X1978444Y1926500D02*
X1986444D01*
X1978444Y1934500*
X1986444*
X1978444Y1926500*
X2004374Y1933000D02*
X2012374D01*
X2004374Y1941000*
X2012374*
X2004374Y1933000*
X2000510Y1932000D02*
X2008510D01*
X2000510Y1940000*
X2008510*
X2000510Y1932000*
X2016500Y1925500D02*
X2024500D01*
X2016500Y1933500*
X2024500*
X2016500Y1925500*
X1944500Y1952500D02*
X1952500D01*
X1944500Y1960500*
X1952500*
X1944500Y1952500*
Y1948500D02*
X1952500D01*
X1944500Y1956500*
X1952500*
X1944500Y1948500*
Y1939000D02*
X1952500D01*
X1944500Y1947000*
X1952500*
X1944500Y1939000*
X1954500Y1950500D02*
X1962500D01*
X1954500Y1958500*
X1962500*
X1954500Y1950500*
Y1937000D02*
X1962500D01*
X1954500Y1945000*
X1962500*
X1954500Y1937000*
X1974000Y1939000D02*
X1982000D01*
X1974000Y1947000*
X1982000*
X1974000Y1939000*
X1978495Y1948086D02*
X1986495D01*
X1978495Y1956086*
X1986495*
X1978495Y1948086*
X1980000Y1944500D02*
X1988000D01*
X1980000Y1952500*
X1988000*
X1980000Y1944500*
X1999500Y1937200D02*
X2007500D01*
X1999500Y1945200*
X2007500*
X1999500Y1937200*
X1989500Y1948500D02*
X1997500D01*
X1989500Y1956500*
X1997500*
X1989500Y1948500*
Y1955000D02*
X1997500D01*
X1989500Y1963000*
X1997500*
X1989500Y1955000*
X1999500Y1950500D02*
X2007500D01*
X1999500Y1958500*
X2007500*
X1999500Y1950500*
Y1946500D02*
X2007500D01*
X1999500Y1954500*
X2007500*
X1999500Y1946500*
X2047500Y1940500D02*
X2055500D01*
X2047500Y1948500*
X2055500*
X2047500Y1940500*
X1911500Y1961000D02*
X1919500D01*
X1911500Y1969000*
X1919500*
X1911500Y1961000*
X1917500Y1973500D02*
X1925500D01*
X1917500Y1981500*
X1925500*
X1917500Y1973500*
X1927500Y1963500D02*
X1935500D01*
X1927500Y1971500*
X1935500*
X1927500Y1963500*
X1937500Y1962000D02*
X1945500D01*
X1937500Y1970000*
X1945500*
X1937500Y1962000*
X1944500Y1956500D02*
X1952500D01*
X1944500Y1964500*
X1952500*
X1944500Y1956500*
X1954500Y1958500D02*
X1962500D01*
X1954500Y1966500*
X1962500*
X1954500Y1958500*
X1982260Y1956280D02*
X1990260D01*
X1982260Y1964280*
X1990260*
X1982260Y1956280*
X1981000Y1971500D02*
X1989000D01*
X1981000Y1979500*
X1989000*
X1981000Y1971500*
X1983500Y1961000D02*
X1991500D01*
X1983500Y1969000*
X1991500*
X1983500Y1961000*
X1985000Y1971500D02*
X1993000D01*
X1985000Y1979500*
X1993000*
X1985000Y1971500*
X1975000Y1961000D02*
X1983000D01*
X1975000Y1969000*
X1983000*
X1975000Y1961000*
X1999500Y1956500D02*
X2007500D01*
X1999500Y1964500*
X2007500*
X1999500Y1956500*
X1988700Y1960200D02*
X1996700D01*
X1988700Y1968200*
X1996700*
X1988700Y1960200*
X2019000Y1958500D02*
X2027000D01*
X2019000Y1966500*
X2027000*
X2019000Y1958500*
X1980500Y1975551D02*
X1988500D01*
X1980500Y1983551*
X1988500*
X1980500Y1975551*
X2032000Y1976500D02*
X2040000D01*
X2032000Y1984500*
X2040000*
X2032000Y1976500*
Y1987500D02*
X2040000D01*
X2032000Y1995500*
X2040000*
X2032000Y1987500*
X2074500Y1987000D02*
X2082500D01*
X2074500Y1995000*
X2082500*
X2074500Y1987000*
X2032000Y1999500D02*
X2040000D01*
X2032000Y2007500*
X2040000*
X2032000Y1999500*
X2071000Y2014000D02*
X2079000D01*
X2071000Y2022000*
X2079000*
X2071000Y2014000*
X1937500Y2022500D02*
X1945500D01*
X1937500Y2030500*
X1945500*
X1937500Y2022500*
X1960500Y2019500D02*
X1968500D01*
X1960500Y2027500*
X1968500*
X1960500Y2019500*
X1980800D02*
X1988800D01*
X1980800Y2027500*
X1988800*
X1980800Y2019500*
X1989500Y2028500D02*
X1997500D01*
X1989500Y2036500*
X1997500*
X1989500Y2028500*
X2067500Y2027000D02*
X2075500D01*
X2067500Y2035000*
X2075500*
X2067500Y2027000*
X1968000Y2048500D02*
X1976000D01*
X1968000Y2056500*
X1976000*
X1968000Y2048500*
X1989500Y2042000D02*
X1997500D01*
X1989500Y2050000*
X1997500*
X1989500Y2042000*
X2042500Y2054000D02*
X2050500D01*
X2042500Y2062000*
X2050500*
X2042500Y2054000*
X1950204Y2067204D02*
X1958204D01*
X1950204Y2075204*
X1958204*
X1950204Y2067204*
X1952000Y2070500D02*
X1960000D01*
X1952000Y2078500*
X1960000*
X1952000Y2070500*
X1971500Y2065000D02*
X1979500D01*
X1971500Y2073000*
X1979500*
X1971500Y2065000*
X1942000Y2096500D02*
X1950000D01*
X1942000Y2104500*
X1950000*
X1942000Y2096500*
X1982000D02*
X1990000D01*
X1982000Y2104500*
X1990000*
X1982000Y2096500*
X1972000Y2114500D02*
X1980000D01*
X1972000Y2122500*
X1980000*
X1972000Y2114500*
X2033000Y2098500D02*
X2041000D01*
X2033000Y2106500*
X2041000*
X2033000Y2098500*
X2032500Y2103000D02*
X2040500D01*
X2032500Y2111000*
X2040500*
X2032500Y2103000*
X2042500Y2104500D02*
X2050500D01*
X2042500Y2112500*
X2050500*
X2042500Y2104500*
X2038000Y2107000D02*
X2046000D01*
X2038000Y2115000*
X2046000*
X2038000Y2107000*
X1952000Y2134000D02*
X1960000D01*
X1952000Y2142000*
X1960000*
X1952000Y2134000*
X1956500Y2119000D02*
X1964500D01*
X1956500Y2127000*
X1964500*
X1956500Y2119000*
X1973000Y2122000D02*
X1981000D01*
X1973000Y2130000*
X1981000*
X1973000Y2122000*
X1976036Y2117536D02*
X1984036D01*
X1976036Y2125536*
X1984036*
X1976036Y2117536*
X1977500Y2131500D02*
X1985500D01*
X1977500Y2139500*
X1985500*
X1977500Y2131500*
X1987500Y2140500D02*
X1995500D01*
X1987500Y2148500*
X1995500*
X1987500Y2140500*
X1989296Y2143796D02*
X1997296D01*
X1989296Y2151796*
X1997296*
X1989296Y2143796*
X1992286Y2138214D02*
X2000286D01*
X1992286Y2146214*
X2000286*
X1992286Y2138214*
X1912500Y2166500D02*
X1920500D01*
X1912500Y2174500*
X1920500*
X1912500Y2166500*
X1960500Y2162500D02*
X1968500D01*
X1960500Y2170500*
X1968500*
X1960500Y2162500*
X1968000D02*
X1976000D01*
X1968000Y2170500*
X1976000*
X1968000Y2162500*
X2006157Y2172843D02*
X2014157D01*
X2006157Y2180843*
X2014157*
X2006157Y2172843*
X2002000Y2164000D02*
X2010000D01*
X2002000Y2172000*
X2010000*
X2002000Y2164000*
X1935000Y2185000D02*
X1943000D01*
X1935000Y2193000*
X1943000*
X1935000Y2185000*
X1965169Y2194100D02*
X1973169D01*
X1965169Y2202100*
X1973169*
X1965169Y2194100*
X1965261Y2182239D02*
X1973261D01*
X1965261Y2190239*
X1973261*
X1965261Y2182239*
X1965500Y2188500D02*
X1973500D01*
X1965500Y2196500*
X1973500*
X1965500Y2188500*
X1985600Y2179500D02*
X1993600D01*
X1985600Y2187500*
X1993600*
X1985600Y2179500*
X1979673Y2193088D02*
X1987673D01*
X1979673Y2201088*
X1987673*
X1979673Y2193088*
X1978156Y2189514D02*
X1986156D01*
X1978156Y2197514*
X1986156*
X1978156Y2189514*
X1971600Y2179300D02*
X1979600D01*
X1971600Y2187300*
X1979600*
X1971600Y2179300*
X1976000Y2179500D02*
X1984000D01*
X1976000Y2187500*
X1984000*
X1976000Y2179500*
X1987500Y2189500D02*
X1995500D01*
X1987500Y2197500*
X1995500*
X1987500Y2189500*
X1994700Y2191878D02*
X2002700D01*
X1994700Y2199878*
X2002700*
X1994700Y2191878*
X2005500Y2189500D02*
X2013500D01*
X2005500Y2197500*
X2013500*
X2005500Y2189500*
X2020000Y2192500D02*
X2028000D01*
X2020000Y2200500*
X2028000*
X2020000Y2192500*
X2026500Y2192000D02*
X2034500D01*
X2026500Y2200000*
X2034500*
X2026500Y2192000*
X2022000Y2189500D02*
X2030000D01*
X2022000Y2197500*
X2030000*
X2022000Y2189500*
X2017626D02*
X2025626D01*
X2017626Y2197500*
X2025626*
X2017626Y2189500*
X2007937Y2192437D02*
X2015937D01*
X2007937Y2200437*
X2015937*
X2007937Y2192437*
X2017000Y2179500D02*
X2025000D01*
X2017000Y2187500*
X2025000*
X2017000Y2179500*
X2032033Y2191163D02*
X2040033D01*
X2032033Y2199163*
X2040033*
X2032033Y2191163*
X2031557Y2176200D02*
X2039557D01*
X2031557Y2184200*
X2039557*
X2031557Y2176200*
X2029500Y2179500D02*
X2037500D01*
X2029500Y2187500*
X2037500*
X2029500Y2179500*
X1947600Y2202400D02*
X1955600D01*
X1947600Y2210400*
X1955600*
X1947600Y2202400*
X1945000Y2212500D02*
X1953000D01*
X1945000Y2220500*
X1953000*
X1945000Y2212500*
X1932500Y2204500D02*
X1940500D01*
X1932500Y2212500*
X1940500*
X1932500Y2204500*
X1965500Y2214800D02*
X1973500D01*
X1965500Y2222800*
X1973500*
X1965500Y2214800*
X1949814Y2198814D02*
X1957814D01*
X1949814Y2206814*
X1957814*
X1949814Y2198814*
X1954500Y2201200D02*
X1962500D01*
X1954500Y2209200*
X1962500*
X1954500Y2201200*
X1953500Y2206800D02*
X1961500D01*
X1953500Y2214800*
X1961500*
X1953500Y2206800*
X1965500Y2209200D02*
X1973500D01*
X1965500Y2217200*
X1973500*
X1965500Y2209200*
X1955000Y2212000D02*
X1963000D01*
X1955000Y2220000*
X1963000*
X1955000Y2212000*
X1983990Y2201990D02*
X1991990D01*
X1983990Y2209990*
X1991990*
X1983990Y2201990*
X1982869Y2206431D02*
X1990869D01*
X1982869Y2214431*
X1990869*
X1982869Y2206431*
X1969010Y2196490D02*
X1977010D01*
X1969010Y2204490*
X1977010*
X1969010Y2196490*
X1968000Y2202591D02*
X1976000D01*
X1968000Y2210591*
X1976000*
X1968000Y2202591*
X2001000Y2197000D02*
X2009000D01*
X2001000Y2205000*
X2009000*
X2001000Y2197000*
X2039500Y2204000D02*
X2047500D01*
X2039500Y2212000*
X2047500*
X2039500Y2204000*
Y2210000D02*
X2047500D01*
X2039500Y2218000*
X2047500*
X2039500Y2210000*
X2067500Y2210500D02*
X2075500D01*
X2067500Y2218500*
X2075500*
X2067500Y2210500*
X2052510Y2204510D02*
X2060510D01*
X2052510Y2212510*
X2060510*
X2052510Y2204510*
X2049500Y2199600D02*
X2057500D01*
X2049500Y2207600*
X2057500*
X2049500Y2199600*
Y2196000D02*
X2057500D01*
X2049500Y2204000*
X2057500*
X2049500Y2196000*
Y2213500D02*
X2057500D01*
X2049500Y2221500*
X2057500*
X2049500Y2213500*
X2066000Y2205500D02*
X2074000D01*
X2066000Y2213500*
X2074000*
X2066000Y2205500*
X2049500Y2208000D02*
X2057500D01*
X2049500Y2216000*
X2057500*
X2049500Y2208000*
X1935000Y2216000D02*
X1943000D01*
X1935000Y2224000*
X1943000*
X1935000Y2216000*
X1955000Y2233500D02*
X1963000D01*
X1955000Y2241500*
X1963000*
X1955000Y2233500*
X1965480Y2230400D02*
X1973480D01*
X1965480Y2238400*
X1973480*
X1965480Y2230400*
X1955000Y2225500D02*
X1963000D01*
X1955000Y2233500*
X1963000*
X1955000Y2225500*
Y2221500D02*
X1963000D01*
X1955000Y2229500*
X1963000*
X1955000Y2221500*
Y2229500D02*
X1963000D01*
X1955000Y2237500*
X1963000*
X1955000Y2229500*
X1974824Y2223905D02*
X1982824D01*
X1974824Y2231905*
X1982824*
X1974824Y2223905*
X1974600Y2219559D02*
X1982600D01*
X1974600Y2227559*
X1982600*
X1974600Y2219559*
X2037500Y2229500D02*
X2045500D01*
X2037500Y2237500*
X2045500*
X2037500Y2229500*
X2049500Y2221500D02*
X2057500D01*
X2049500Y2229500*
X2057500*
X2049500Y2221500*
Y2231500D02*
X2057500D01*
X2049500Y2239500*
X2057500*
X2049500Y2231500*
X1901000Y2247000D02*
X1909000D01*
X1901000Y2255000*
X1909000*
X1901000Y2247000*
X1898500Y2255000D02*
X1906500D01*
X1898500Y2263000*
X1906500*
X1898500Y2255000*
X1916000Y2245500D02*
X1924000D01*
X1916000Y2253500*
X1924000*
X1916000Y2245500*
X1917500Y2240000D02*
X1925500D01*
X1917500Y2248000*
X1925500*
X1917500Y2240000*
X1936000Y2247000D02*
X1944000D01*
X1936000Y2255000*
X1944000*
X1936000Y2247000*
X1932000Y2235500D02*
X1940000D01*
X1932000Y2243500*
X1940000*
X1932000Y2235500*
X1955000Y2243600D02*
X1963000D01*
X1955000Y2251600*
X1963000*
X1955000Y2243600*
X1965500Y2245000D02*
X1973500D01*
X1965500Y2253000*
X1973500*
X1965500Y2245000*
X1952000Y2247000D02*
X1960000D01*
X1952000Y2255000*
X1960000*
X1952000Y2247000*
X1975001Y2241490D02*
X1983001D01*
X1975001Y2249490*
X1983001*
X1975001Y2241490*
X1978900Y2251000D02*
X1986900D01*
X1978900Y2259000*
X1986900*
X1978900Y2251000*
X1983680Y2236559D02*
X1991680D01*
X1983680Y2244559*
X1991680*
X1983680Y2236559*
X2006500Y2242500D02*
X2014500D01*
X2006500Y2250500*
X2014500*
X2006500Y2242500*
X2039500Y2249000D02*
X2047500D01*
X2039500Y2257000*
X2047500*
X2039500Y2249000*
Y2239500D02*
X2047500D01*
X2039500Y2247500*
X2047500*
X2039500Y2239500*
X2066000Y2238500D02*
X2074000D01*
X2066000Y2246500*
X2074000*
X2066000Y2238500*
X1941000Y2258500D02*
X1949000D01*
X1941000Y2266500*
X1949000*
X1941000Y2258500*
X1931500Y2269500D02*
X1939500D01*
X1931500Y2277500*
X1939500*
X1931500Y2269500*
X1961623Y2264877D02*
X1969623D01*
X1961623Y2272877*
X1969623*
X1961623Y2264877*
X1955000Y2259000D02*
X1963000D01*
X1955000Y2267000*
X1963000*
X1955000Y2259000*
X1978000Y2273500D02*
X1986000D01*
X1978000Y2281500*
X1986000*
X1978000Y2273500*
X1993500D02*
X2001500D01*
X1993500Y2281500*
X2001500*
X1993500Y2273500*
X1995500Y2263500D02*
X2003500D01*
X1995500Y2271500*
X2003500*
X1995500Y2263500*
X2019000Y2273500D02*
X2027000D01*
X2019000Y2281500*
X2027000*
X2019000Y2273500*
X2009500D02*
X2017500D01*
X2009500Y2281500*
X2017500*
X2009500Y2273500*
X2021000Y2263500D02*
X2029000D01*
X2021000Y2271500*
X2029000*
X2021000Y2263500*
X2011500D02*
X2019500D01*
X2011500Y2271500*
X2019500*
X2011500Y2263500*
X2044000Y2264500D02*
X2052000D01*
X2044000Y2272500*
X2052000*
X2044000Y2264500*
X2028704Y2260704D02*
X2036704D01*
X2028704Y2268704*
X2036704*
X2028704Y2260704*
X2031000Y2263500D02*
X2039000D01*
X2031000Y2271500*
X2039000*
X2031000Y2263500*
X2034384Y2259813D02*
X2042384D01*
X2034384Y2267813*
X2042384*
X2034384Y2259813*
X2036000Y2263500D02*
X2044000D01*
X2036000Y2271500*
X2044000*
X2036000Y2263500*
X2049500Y2259000D02*
X2057500D01*
X2049500Y2267000*
X2057500*
X2049500Y2259000*
X2066000Y2269000D02*
X2074000D01*
X2066000Y2277000*
X2074000*
X2066000Y2269000*
X1936000Y2287500D02*
X1944000D01*
X1936000Y2295500*
X1944000*
X1936000Y2287500*
X1981165Y2282165D02*
X1989165D01*
X1981165Y2290165*
X1989165*
X1981165Y2282165*
X1978000Y2285000D02*
X1986000D01*
X1978000Y2293000*
X1986000*
X1978000Y2285000*
X1978880Y2277380D02*
X1986880D01*
X1978880Y2285380*
X1986880*
X1978880Y2277380*
X1973880Y2278120D02*
X1981880D01*
X1973880Y2286120*
X1981880*
X1973880Y2278120*
X1975500Y2282000D02*
X1983500D01*
X1975500Y2290000*
X1983500*
X1975500Y2282000*
X1990500Y2276000D02*
X1998500D01*
X1990500Y2284000*
X1998500*
X1990500Y2276000*
X2016000Y2287500D02*
X2024000D01*
X2016000Y2295500*
X2024000*
X2016000Y2287500*
X1974000Y2301500D02*
X1982000D01*
X1974000Y2309500*
X1982000*
X1974000Y2301500*
X1969623Y2299000D02*
X1977623D01*
X1969623Y2307000*
X1977623*
X1969623Y2299000*
X1975500Y2311000D02*
X1983500D01*
X1975500Y2319000*
X1983500*
X1975500Y2311000*
X1947600Y2317000D02*
X1955600D01*
X1947600Y2325000*
X1955600*
X1947600Y2317000*
X1966500Y2327000D02*
X1974500D01*
X1966500Y2335000*
X1974500*
X1966500Y2327000*
X1955000Y2332000D02*
X1963000D01*
X1955000Y2340000*
X1963000*
X1955000Y2332000*
X1977000Y2320000D02*
X1985000D01*
X1977000Y2328000*
X1985000*
X1977000Y2320000*
X2006500Y2332500D02*
X2014500D01*
X2006500Y2340500*
X2014500*
X2006500Y2332500*
X2001000Y2327000D02*
X2009000D01*
X2001000Y2335000*
X2009000*
X2001000Y2327000*
X1943000Y2341500D02*
X1951000D01*
X1943000Y2349500*
X1951000*
X1943000Y2341500*
X1941000Y2336000D02*
X1949000D01*
X1941000Y2344000*
X1949000*
X1941000Y2336000*
X1955500D02*
X1963500D01*
X1955500Y2344000*
X1963500*
X1955500Y2336000*
X1963500Y2344000D02*
X1971500D01*
X1963500Y2352000*
X1971500*
X1963500Y2344000*
X1968000Y2340000D02*
X1976000D01*
X1968000Y2348000*
X1976000*
X1968000Y2340000*
X1969500Y2352500D02*
X1977500D01*
X1969500Y2360500*
X1977500*
X1969500Y2352500*
X1981500Y2354500D02*
X1989500D01*
X1981500Y2362500*
X1989500*
X1981500Y2354500*
X2020500Y2347000D02*
X2028500D01*
X2020500Y2355000*
X2028500*
X2020500Y2347000*
X2057500Y2353000D02*
X2065500D01*
X2057500Y2361000*
X2065500*
X2057500Y2353000*
X2082000Y2340500D02*
X2090000D01*
X2082000Y2348500*
X2090000*
X2082000Y2340500*
X1959000Y2357500D02*
X1967000D01*
X1959000Y2365500*
X1967000*
X1959000Y2357500*
X2038500Y2362000D02*
X2046500D01*
X2038500Y2370000*
X2046500*
X2038500Y2362000*
X2084500Y2365500D02*
X2092500D01*
X2084500Y2373500*
X2092500*
X2084500Y2365500*
X1997000Y2381500D02*
X2005000D01*
X1997000Y2389500*
X2005000*
X1997000Y2381500*
X2025000Y2391500D02*
X2033000D01*
X2025000Y2399500*
X2033000*
X2025000Y2391500*
X2016500Y2381500D02*
X2024500D01*
X2016500Y2389500*
X2024500*
X2016500Y2381500*
X2072000Y2382500D02*
X2080000D01*
X2072000Y2390500*
X2080000*
X2072000Y2382500*
X1990500Y2411000D02*
X1998500D01*
X1990500Y2419000*
X1998500*
X1990500Y2411000*
X2017000D02*
X2025000D01*
X2017000Y2419000*
X2025000*
X2017000Y2411000*
X1903000Y2426000D02*
X1911000D01*
X1903000Y2434000*
X1911000*
X1903000Y2426000*
X1955500Y2418000D02*
X1963500D01*
X1955500Y2426000*
X1963500*
X1955500Y2418000*
X2047500Y2421000D02*
X2055500D01*
X2047500Y2429000*
X2055500*
X2047500Y2421000*
X1945000Y2443000D02*
X1953000D01*
X1945000Y2451000*
X1953000*
X1945000Y2443000*
X2016500Y2439000D02*
X2024500D01*
X2016500Y2447000*
X2024500*
X2016500Y2439000*
X1900000Y2472000D02*
Y1870000D01*
X1960000*
Y1830000*
X2004700*
Y1860000*
X2011000D02*
G75*
G03X2004700I-3150J0D01*
G01X2011000D02*
Y1830000D01*
X2040000*
Y1870000*
X2091000*
Y2472000*
X1900000*
X1902300Y2504000D02*
X1969736D01*
X1902300D02*
X1912300Y2506500D01*
Y2501500*
X1902300Y2504000*
X2088400D02*
X2020964D01*
X2088400D02*
X2078400Y2501500D01*
Y2506500*
X2088400Y2504000*
X1902300Y2473300D02*
Y2509000D01*
X2088400Y2473300D02*
Y2509000D01*
X1972736Y2505563D02*
X1973191Y2505875D01*
X1973873Y2506813*
X1973873D02*
Y2500250D01*
X1977055Y2506813D02*
X1976373Y2506500D01*
X1976145Y2505875*
Y2505250*
X1976373Y2504625*
X1976827Y2504313*
X1976827D02*
X1977736Y2504000D01*
X1978418Y2503688*
X1978418D02*
X1978873Y2503063D01*
X1978873D02*
X1979100Y2502438D01*
X1979100D02*
Y2501500D01*
X1978873Y2500875*
X1978645Y2500563*
X1978645D02*
X1977964Y2500250D01*
X1977055*
X1976373Y2500563*
X1976373D02*
X1976145Y2500875D01*
X1975918Y2501500*
Y2502438*
X1975918D02*
X1976145Y2503063D01*
X1976145D02*
X1976600Y2503688D01*
X1976600D02*
X1977282Y2504000D01*
X1978191Y2504313*
X1978191D02*
X1978645Y2504625D01*
X1978873Y2505250*
Y2505875*
X1978645Y2506500*
X1977964Y2506813*
X1977964D02*
X1977055D01*
X1983873Y2505875D02*
X1983645Y2506500D01*
X1982964Y2506813*
X1982964D02*
X1982509D01*
X1982509D02*
X1981827Y2506500D01*
X1981373Y2505563*
X1981373D02*
X1981145Y2504000D01*
Y2502438*
X1981145D02*
X1981373Y2501188D01*
X1981373D02*
X1981827Y2500563D01*
X1981827D02*
X1982509Y2500250D01*
X1982736*
X1983418Y2500563*
X1983418D02*
X1983873Y2501188D01*
X1983873D02*
X1984100Y2502125D01*
Y2502438*
X1984100D02*
X1983873Y2503375D01*
X1983418Y2504000*
X1982736Y2504313*
X1982736D02*
X1982509D01*
X1982509D02*
X1981827Y2504000D01*
X1981373Y2503375*
X1981145Y2502438*
X1986145Y2505563D02*
X1986600Y2505875D01*
X1987282Y2506813*
X1987282D02*
Y2500250D01*
X1989555Y2500875D02*
X1989327Y2500563D01*
X1989327D02*
X1989555Y2500250D01*
X1989782Y2500563*
X1989782D02*
X1989555Y2500875D01*
X1993191Y2506813D02*
X1992509Y2506500D01*
X1992055Y2505563*
X1992055D02*
X1991827Y2504000D01*
Y2503063*
X1991827D02*
X1992055Y2501500D01*
X1992509Y2500563*
X1992509D02*
X1993191Y2500250D01*
X1993645*
X1994327Y2500563*
X1994327D02*
X1994782Y2501500D01*
X1995009Y2503063*
X1995009D02*
Y2504000D01*
X1994782Y2505563*
X1994782D02*
X1994327Y2506500D01*
X1993645Y2506813*
X1993645D02*
X1993191D01*
X1998418D02*
X1997736Y2506500D01*
X1997282Y2505563*
X1997282D02*
X1997055Y2504000D01*
Y2503063*
X1997055D02*
X1997282Y2501500D01*
X1997736Y2500563*
X1997736D02*
X1998418Y2500250D01*
X1998873*
X1999555Y2500563*
X1999555D02*
X2000009Y2501500D01*
X2000236Y2503063*
X2000236D02*
Y2504000D01*
X2000009Y2505563*
X2000009D02*
X1999555Y2506500D01*
X1998873Y2506813*
X1998873D02*
X1998418D01*
X2003645D02*
X2002964Y2506500D01*
X2002509Y2505563*
X2002509D02*
X2002282Y2504000D01*
Y2503063*
X2002282D02*
X2002509Y2501500D01*
X2002964Y2500563*
X2002964D02*
X2003645Y2500250D01*
X2004100*
X2004782Y2500563*
X2004782D02*
X2005236Y2501500D01*
X2005464Y2503063*
X2005464D02*
Y2504000D01*
X2005236Y2505563*
X2005236D02*
X2004782Y2506500D01*
X2004100Y2506813*
X2004100D02*
X2003645D01*
X2007509Y2504625D02*
Y2500250D01*
Y2503375D02*
X2008191Y2504313D01*
X2008191D02*
X2008645Y2504625D01*
X2009327*
X2009782Y2504313*
X2009782D02*
X2010009Y2503375D01*
Y2500250*
Y2503375D02*
X2010691Y2504313D01*
X2010691D02*
X2011145Y2504625D01*
X2011827*
X2012282Y2504313*
X2012282D02*
X2012509Y2503375D01*
Y2500250*
X2014555Y2506813D02*
X2014782Y2506500D01*
X2015009Y2506813*
X2015009D02*
X2014782Y2507125D01*
X2014555Y2506813*
X2014782Y2504625D02*
Y2500250D01*
X2017055Y2506813D02*
Y2500250D01*
X2181800Y1871800D02*
Y2163300D01*
Y1871800D02*
X2179300Y1881800D01*
X2184300*
X2181800Y1871800*
Y2468300D02*
Y2176800D01*
Y2468300D02*
X2184300Y2458300D01*
X2179300*
X2181800Y2468300*
X2093400Y1871800D02*
X2186800D01*
X2093400Y2468300D02*
X2186800D01*
X2159982Y2172863D02*
X2157709D01*
X2157709D02*
X2157482Y2170050D01*
X2157709Y2170363*
X2157709D02*
X2158391Y2170675D01*
X2159073*
X2159755Y2170363*
X2159755D02*
X2160209Y2169738D01*
X2160209D02*
X2160436Y2168800D01*
X2160209Y2168175*
X2159982Y2167238*
X2159982D02*
X2159527Y2166613D01*
X2159527D02*
X2158845Y2166300D01*
X2158164*
X2157482Y2166613*
X2157482D02*
X2157255Y2166925D01*
X2157027Y2167550*
X2165436Y2170675D02*
X2165209Y2169738D01*
X2165209D02*
X2164755Y2169113D01*
X2164755D02*
X2164073Y2168800D01*
X2163845*
X2163164Y2169113*
X2163164D02*
X2162709Y2169738D01*
X2162709D02*
X2162482Y2170675D01*
Y2170988*
X2162482D02*
X2162709Y2171925D01*
X2163164Y2172550*
X2163845Y2172863*
X2163845D02*
X2164073D01*
X2164073D02*
X2164755Y2172550D01*
X2165209Y2171925*
X2165436Y2170675*
Y2169113*
X2165436D02*
X2165209Y2167550D01*
X2164755Y2166613*
X2164755D02*
X2164073Y2166300D01*
X2163618*
X2162936Y2166613*
X2162936D02*
X2162709Y2167238D01*
X2170209Y2171925D02*
X2169982Y2172550D01*
X2169300Y2172863*
X2169300D02*
X2168845D01*
X2168845D02*
X2168164Y2172550D01*
X2167709Y2171613*
X2167709D02*
X2167482Y2170050D01*
Y2168488*
X2167482D02*
X2167709Y2167238D01*
X2167709D02*
X2168164Y2166613D01*
X2168164D02*
X2168845Y2166300D01*
X2169073*
X2169755Y2166613*
X2169755D02*
X2170209Y2167238D01*
X2170209D02*
X2170436Y2168175D01*
Y2168488*
X2170436D02*
X2170209Y2169425D01*
X2169755Y2170050*
X2169073Y2170363*
X2169073D02*
X2168845D01*
X2168845D02*
X2168164Y2170050D01*
X2167709Y2169425*
X2167482Y2168488*
X2175436Y2172863D02*
X2173164D01*
X2173164D02*
X2172936Y2170050D01*
X2173164Y2170363*
X2173164D02*
X2173845Y2170675D01*
X2174527*
X2175209Y2170363*
X2175209D02*
X2175664Y2169738D01*
X2175664D02*
X2175891Y2168800D01*
X2175664Y2168175*
X2175436Y2167238*
X2175436D02*
X2174982Y2166613D01*
X2174982D02*
X2174300Y2166300D01*
X2173618*
X2172936Y2166613*
X2172936D02*
X2172709Y2166925D01*
X2172482Y2167550*
X2178164Y2166925D02*
X2177936Y2166613D01*
X2177936D02*
X2178164Y2166300D01*
X2178391Y2166613*
X2178391D02*
X2178164Y2166925D01*
X2181800Y2172863D02*
X2181118Y2172550D01*
X2180664Y2171613*
X2180664D02*
X2180436Y2170050D01*
Y2169113*
X2180436D02*
X2180664Y2167550D01*
X2181118Y2166613*
X2181118D02*
X2181800Y2166300D01*
X2182255*
X2182936Y2166613*
X2182936D02*
X2183391Y2167550D01*
X2183618Y2169113*
X2183618D02*
Y2170050D01*
X2183391Y2171613*
X2183391D02*
X2182936Y2172550D01*
X2182255Y2172863*
X2182255D02*
X2181800D01*
X2187027D02*
X2186345Y2172550D01*
X2185891Y2171613*
X2185891D02*
X2185664Y2170050D01*
Y2169113*
X2185664D02*
X2185891Y2167550D01*
X2186345Y2166613*
X2186345D02*
X2187027Y2166300D01*
X2187482*
X2188164Y2166613*
X2188164D02*
X2188618Y2167550D01*
X2188845Y2169113*
X2188845D02*
Y2170050D01*
X2188618Y2171613*
X2188618D02*
X2188164Y2172550D01*
X2187482Y2172863*
X2187482D02*
X2187027D01*
X2192255D02*
X2191573Y2172550D01*
X2191118Y2171613*
X2191118D02*
X2190891Y2170050D01*
Y2169113*
X2190891D02*
X2191118Y2167550D01*
X2191573Y2166613*
X2191573D02*
X2192255Y2166300D01*
X2192709*
X2193391Y2166613*
X2193391D02*
X2193845Y2167550D01*
X2194073Y2169113*
X2194073D02*
Y2170050D01*
X2193845Y2171613*
X2193845D02*
X2193391Y2172550D01*
X2192709Y2172863*
X2192709D02*
X2192255D01*
X2196118Y2170675D02*
Y2166300D01*
Y2169425D02*
X2196800Y2170363D01*
X2196800D02*
X2197255Y2170675D01*
X2197936*
X2198391Y2170363*
X2198391D02*
X2198618Y2169425D01*
Y2166300*
Y2169425D02*
X2199300Y2170363D01*
X2199300D02*
X2199755Y2170675D01*
X2200436*
X2200891Y2170363*
X2200891D02*
X2201118Y2169425D01*
Y2166300*
X2203164Y2172863D02*
X2203391Y2172550D01*
X2203618Y2172863*
X2203618D02*
X2203391Y2173175D01*
X2203164Y2172863*
X2203391Y2170675D02*
Y2166300D01*
X2205664Y2172863D02*
Y2166300D01*
X100000Y244000D02*
X358000D01*
X100000Y220000D02*
X358000D01*
X100000Y196000D02*
X358000D01*
X100000Y172000D02*
X358000D01*
X100000Y148000D02*
X358000D01*
X100000Y124000D02*
X358000D01*
X100000Y100000D02*
X358000D01*
X100000Y244000D02*
Y100000D01*
X184000Y244000D02*
Y100000D01*
X220000Y244000D02*
Y100000D01*
X256000Y244000D02*
Y100000D01*
X310000Y244000D02*
Y100000D01*
X358000Y244000D02*
Y100000D01*
X135500Y232750D02*
X134955Y233500D01*
X134136Y233875*
X133045*
X132227Y233500*
X131682Y232750*
Y232000*
X131955Y231250*
X132227Y230875*
X132773Y230500*
X134409Y229750*
X134955Y229375*
X135227Y229000*
X135500Y228250*
Y227125*
X134955Y226375*
X134136Y226000*
X133045*
X132227Y226375*
X131682Y227125*
X137955Y233875D02*
Y226000D01*
X144227Y233875D02*
X140409Y226000D01*
Y233875D02*
X144227D01*
X140409Y226000D02*
X144227D01*
X146682Y233875D02*
Y226000D01*
Y233875D02*
X150227D01*
X146682Y230125D02*
X148864D01*
X146682Y226000D02*
X150227D01*
X193864Y233875D02*
X193318Y233500D01*
X192773Y232750*
X192500Y232000*
X192227Y230875*
Y229000*
X192500Y227875*
X192773Y227125*
X193318Y226375*
X193864Y226000*
X194955*
X195500Y226375*
X196045Y227125*
X196318Y227875*
X196591Y229000*
Y230875*
X196318Y232000*
X196045Y232750*
X195500Y233500*
X194955Y233875*
X193864*
X194682Y227500D02*
X196318Y225250D01*
X200955Y233875D02*
Y226000D01*
X199045Y233875D02*
X202864D01*
X205318D02*
X207500Y230125D01*
Y226000*
X209682Y233875D02*
X207500Y230125D01*
X232045Y232750D02*
X231500Y233500D01*
X230682Y233875*
X229591*
X228773Y233500*
X228227Y232750*
Y232000*
X228500Y231250*
X228773Y230875*
X229318Y230500*
X230955Y229750*
X231500Y229375*
X231773Y229000*
X232045Y228250*
Y227125*
X231500Y226375*
X230682Y226000*
X229591*
X228773Y226375*
X228227Y227125*
X234500Y233875D02*
X236682Y230125D01*
Y226000*
X238864Y233875D02*
X236682Y230125D01*
X241318Y233875D02*
Y226000D01*
Y233875D02*
X243500Y226000D01*
X245682Y233875D02*
X243500Y226000D01*
X245682Y233875D02*
Y226000D01*
X267500Y233875D02*
Y226000D01*
Y233875D02*
X269955D01*
X270773Y233500*
X271045Y233125*
X271318Y232375*
Y231250*
X271045Y230500*
X270773Y230125*
X269955Y229750*
X267500*
X273773Y233875D02*
Y226000D01*
X277045*
X281682Y233875D02*
X279500Y226000D01*
X281682Y233875D02*
X283864Y226000D01*
X280318Y228625D02*
X283045D01*
X288227Y233875D02*
Y226000D01*
X286318Y233875D02*
X290136D01*
X292591D02*
Y226000D01*
Y233875D02*
X296136D01*
X292591Y230125D02*
X294773D01*
X292591Y226000D02*
X296136D01*
X298591Y233875D02*
Y226000D01*
Y233875D02*
X300500D01*
X301318Y233500*
X301864Y232750*
X302136Y232000*
X302409Y230875*
Y229000*
X302136Y227875*
X301864Y227125*
X301318Y226375*
X300500Y226000*
X298591*
X326682Y233875D02*
Y226000D01*
X324773Y233875D02*
X328591D01*
X332682D02*
X332136Y233500D01*
X331591Y232750*
X331318Y232000*
X331045Y230875*
Y229000*
X331318Y227875*
X331591Y227125*
X332136Y226375*
X332682Y226000*
X333773*
X334318Y226375*
X334864Y227125*
X335136Y227875*
X335409Y229000*
Y230875*
X335136Y232000*
X334864Y232750*
X334318Y233500*
X333773Y233875*
X332682*
X337864D02*
Y226000D01*
X341136*
X106545Y209875D02*
X109545D01*
X107909Y206875*
X108727*
X109273Y206500*
X109545Y206125*
X109818Y205000*
Y204250*
X109545Y203125*
X109000Y202375*
X108182Y202000*
X107364*
X106545Y202375*
X106273Y202750*
X106000Y203500*
X115818Y209875D02*
X113091D01*
X112818Y206500*
X113091Y206875*
X113909Y207250*
X114727*
X115545Y206875*
X116091Y206125*
X116364Y205000*
X116091Y204250*
X115818Y203125*
X115273Y202375*
X114455Y202000*
X113636*
X112818Y202375*
X112545Y202750*
X112273Y203500*
X194000Y208375D02*
X194545Y208750D01*
X195364Y209875*
Y202000*
X198091Y208000D02*
Y208375D01*
X198364Y209125*
X198636Y209500*
X199182Y209875*
X200273*
X200818Y209500*
X201091Y209125*
X201364Y208375*
Y207625*
X201091Y206875*
X200545Y205750*
X197818Y202000*
X201636*
X204636Y209875D02*
X207636D01*
X206000Y206875*
X206818*
X207364Y206500*
X207636Y206125*
X207909Y205000*
Y204250*
X207636Y203125*
X207091Y202375*
X206273Y202000*
X205455*
X204636Y202375*
X204364Y202750*
X204091Y203500*
X232000Y208000D02*
X244000D01*
X238000Y202000D02*
Y214000D01*
X264636Y209875D02*
X266818Y206125D01*
Y202000*
X269000Y209875D02*
X266818Y206125D01*
X271455Y209875D02*
Y202000D01*
Y209875D02*
X275000D01*
X271455Y206125D02*
X273636D01*
X271455Y202000D02*
X275000D01*
X281273Y208750D02*
X280727Y209500D01*
X279909Y209875*
X278818*
X278000Y209500*
X277455Y208750*
Y208000*
X277727Y207250*
X278000Y206875*
X278545Y206500*
X280182Y205750*
X280727Y205375*
X281000Y205000*
X281273Y204250*
Y203125*
X280727Y202375*
X279909Y202000*
X278818*
X278000Y202375*
X277455Y203125*
X317818Y208750D02*
Y202000D01*
X315364Y205375D02*
X320273D01*
X327636Y211375D02*
X322727Y199375D01*
X330091Y205375D02*
X335000D01*
X339091Y209875D02*
X338273Y209500D01*
X337727Y208375*
X337455Y206500*
Y205375*
X337727Y203500*
X338273Y202375*
X339091Y202000*
X339636*
X340455Y202375*
X341000Y203500*
X341273Y205375*
Y206500*
X341000Y208375*
X340455Y209500*
X339636Y209875*
X339091*
X344000Y202750D02*
X343727Y202375D01*
X344000Y202000*
X344273Y202375*
X344000Y202750*
X348364Y209875D02*
X347545Y209500D01*
X347000Y208375*
X346727Y206500*
Y205375*
X347000Y203500*
X347545Y202375*
X348364Y202000*
X348909*
X349727Y202375*
X350273Y203500*
X350545Y205375*
Y206500*
X350273Y208375*
X349727Y209500*
X348909Y209875*
X348364*
X106273Y184000D02*
Y184375D01*
X106545Y185125*
X106818Y185500*
X107364Y185875*
X108455*
X109000Y185500*
X109273Y185125*
X109545Y184375*
Y183625*
X109273Y182875*
X108727Y181750*
X106000Y178000*
X109818*
X113636Y185875D02*
X112818Y185500D01*
X112545Y184750*
Y184000*
X112818Y183250*
X113364Y182875*
X114455Y182500*
X115273Y182125*
X115818Y181375*
X116091Y180625*
Y179500*
X115818Y178750*
X115545Y178375*
X114727Y178000*
X113636*
X112818Y178375*
X112545Y178750*
X112273Y179500*
Y180625*
X112545Y181375*
X113091Y182125*
X113909Y182500*
X115000Y182875*
X115545Y183250*
X115818Y184000*
Y184750*
X115545Y185500*
X114727Y185875*
X113636*
X197136Y184375D02*
X197682Y184750D01*
X198500Y185875*
Y178000*
X202591Y185875D02*
X201773Y185500D01*
X201227Y184375*
X200955Y182500*
Y181375*
X201227Y179500*
X201773Y178375*
X202591Y178000*
X203136*
X203955Y178375*
X204500Y179500*
X204773Y181375*
Y182500*
X204500Y184375*
X203955Y185500*
X203136Y185875*
X202591*
X232000Y178000D02*
X244000Y190000D01*
X232000D02*
X244000Y178000D01*
X264636Y185875D02*
X266818Y182125D01*
Y178000*
X269000Y185875D02*
X266818Y182125D01*
X271455Y185875D02*
Y178000D01*
Y185875D02*
X275000D01*
X271455Y182125D02*
X273636D01*
X271455Y178000D02*
X275000D01*
X281273Y184750D02*
X280727Y185500D01*
X279909Y185875*
X278818*
X278000Y185500*
X277455Y184750*
Y184000*
X277727Y183250*
X278000Y182875*
X278545Y182500*
X280182Y181750*
X280727Y181375*
X281000Y181000*
X281273Y180250*
Y179125*
X280727Y178375*
X279909Y178000*
X278818*
X278000Y178375*
X277455Y179125*
X317818Y184750D02*
Y178000D01*
X315364Y181375D02*
X320273D01*
X327636Y187375D02*
X322727Y175375D01*
X330091Y181375D02*
X335000D01*
X339091Y185875D02*
X338273Y185500D01*
X337727Y184375*
X337455Y182500*
Y181375*
X337727Y179500*
X338273Y178375*
X339091Y178000*
X339636*
X340455Y178375*
X341000Y179500*
X341273Y181375*
Y182500*
X341000Y184375*
X340455Y185500*
X339636Y185875*
X339091*
X344000Y178750D02*
X343727Y178375D01*
X344000Y178000*
X344273Y178375*
X344000Y178750*
X348364Y185875D02*
X347545Y185500D01*
X347000Y184375*
X346727Y182500*
Y181375*
X347000Y179500*
X347545Y178375*
X348364Y178000*
X348909*
X349727Y178375*
X350273Y179500*
X350545Y181375*
Y182500*
X350273Y184375*
X349727Y185500*
X348909Y185875*
X348364*
X106545Y161875D02*
X109545D01*
X107909Y158875*
X108727*
X109273Y158500*
X109545Y158125*
X109818Y157000*
Y156250*
X109545Y155125*
X109000Y154375*
X108182Y154000*
X107364*
X106545Y154375*
X106273Y154750*
X106000Y155500*
X116091Y161875D02*
X113364Y154000D01*
X112273Y161875D02*
X116091D01*
X197136Y160375D02*
X197682Y160750D01*
X198500Y161875*
Y154000*
X201227Y160000D02*
Y160375D01*
X201500Y161125*
X201773Y161500*
X202318Y161875*
X203409*
X203955Y161500*
X204227Y161125*
X204500Y160375*
Y159625*
X204227Y158875*
X203682Y157750*
X200955Y154000*
X204773*
X232000D02*
X244000D01*
Y166000*
X232000*
Y154000*
X238000Y160000D02*
Y166000D01*
X264636Y161875D02*
X266818Y158125D01*
Y154000*
X269000Y161875D02*
X266818Y158125D01*
X271455Y161875D02*
Y154000D01*
Y161875D02*
X275000D01*
X271455Y158125D02*
X273636D01*
X271455Y154000D02*
X275000D01*
X281273Y160750D02*
X280727Y161500D01*
X279909Y161875*
X278818*
X278000Y161500*
X277455Y160750*
Y160000*
X277727Y159250*
X278000Y158875*
X278545Y158500*
X280182Y157750*
X280727Y157375*
X281000Y157000*
X281273Y156250*
Y155125*
X280727Y154375*
X279909Y154000*
X278818*
X278000Y154375*
X277455Y155125*
X317818Y160750D02*
Y154000D01*
X315364Y157375D02*
X320273D01*
X327636Y163375D02*
X322727Y151375D01*
X330091Y157375D02*
X335000D01*
X339091Y161875D02*
X338273Y161500D01*
X337727Y160375*
X337455Y158500*
Y157375*
X337727Y155500*
X338273Y154375*
X339091Y154000*
X339636*
X340455Y154375*
X341000Y155500*
X341273Y157375*
Y158500*
X341000Y160375*
X340455Y161500*
X339636Y161875*
X339091*
X344000Y154750D02*
X343727Y154375D01*
X344000Y154000*
X344273Y154375*
X344000Y154750*
X348364Y161875D02*
X347545Y161500D01*
X347000Y160375*
X346727Y158500*
Y157375*
X347000Y155500*
X347545Y154375*
X348364Y154000*
X348909*
X349727Y154375*
X350273Y155500*
X350545Y157375*
Y158500*
X350273Y160375*
X349727Y161500*
X348909Y161875*
X348364*
X106000Y136375D02*
X106545Y136750D01*
X107364Y137875*
Y130000*
X111182Y137875D02*
X110364Y137500D01*
X110091Y136750*
Y136000*
X110364Y135250*
X110909Y134875*
X112000Y134500*
X112818Y134125*
X113364Y133375*
X113636Y132625*
Y131500*
X113364Y130750*
X113091Y130375*
X112273Y130000*
X111182*
X110364Y130375*
X110091Y130750*
X109818Y131500*
Y132625*
X110091Y133375*
X110636Y134125*
X111455Y134500*
X112545Y134875*
X113091Y135250*
X113364Y136000*
Y136750*
X113091Y137500*
X112273Y137875*
X111182*
X119909D02*
X117182Y130000D01*
X116091Y137875D02*
X119909D01*
X122636Y130750D02*
X122364Y130375D01*
X122636Y130000*
X122909Y130375*
X122636Y130750*
X128909Y137875D02*
X126182D01*
X125909Y134500*
X126182Y134875*
X127000Y135250*
X127818*
X128636Y134875*
X129182Y134125*
X129455Y133000*
X129182Y132250*
X128909Y131125*
X128364Y130375*
X127545Y130000*
X126727*
X125909Y130375*
X125636Y130750*
X125364Y131500*
X200273Y136375D02*
X200818Y136750D01*
X201636Y137875*
Y130000*
X238000D02*
X244000Y136000D01*
X238000Y142000*
X232000Y136000*
X238000Y130000*
Y136000D02*
Y142000D01*
X264636Y137875D02*
X266818Y134125D01*
Y130000*
X269000Y137875D02*
X266818Y134125D01*
X271455Y137875D02*
Y130000D01*
Y137875D02*
X275000D01*
X271455Y134125D02*
X273636D01*
X271455Y130000D02*
X275000D01*
X281273Y136750D02*
X280727Y137500D01*
X279909Y137875*
X278818*
X278000Y137500*
X277455Y136750*
Y136000*
X277727Y135250*
X278000Y134875*
X278545Y134500*
X280182Y133750*
X280727Y133375*
X281000Y133000*
X281273Y132250*
Y131125*
X280727Y130375*
X279909Y130000*
X278818*
X278000Y130375*
X277455Y131125*
X317818Y136750D02*
Y130000D01*
X315364Y133375D02*
X320273D01*
X327636Y139375D02*
X322727Y127375D01*
X330091Y133375D02*
X335000D01*
X339091Y137875D02*
X338273Y137500D01*
X337727Y136375*
X337455Y134500*
Y133375*
X337727Y131500*
X338273Y130375*
X339091Y130000*
X339636*
X340455Y130375*
X341000Y131500*
X341273Y133375*
Y134500*
X341000Y136375*
X340455Y137500*
X339636Y137875*
X339091*
X344000Y130750D02*
X343727Y130375D01*
X344000Y130000*
X344273Y130375*
X344000Y130750*
X348364Y137875D02*
X347545Y137500D01*
X347000Y136375*
X346727Y134500*
Y133375*
X347000Y131500*
X347545Y130375*
X348364Y130000*
X348909*
X349727Y130375*
X350273Y131500*
X350545Y133375*
Y134500*
X350273Y136375*
X349727Y137500*
X348909Y137875*
X348364*
X106000Y112375D02*
X106545Y112750D01*
X107364Y113875*
Y106000*
X111455Y113875D02*
X110636Y113500D01*
X110091Y112375*
X109818Y110500*
Y109375*
X110091Y107500*
X110636Y106375*
X111455Y106000*
X112000*
X112818Y106375*
X113364Y107500*
X113636Y109375*
Y110500*
X113364Y112375*
X112818Y113500*
X112000Y113875*
X111455*
X193182Y112000D02*
Y112375D01*
X193455Y113125*
X193727Y113500*
X194273Y113875*
X195364*
X195909Y113500*
X196182Y113125*
X196455Y112375*
Y111625*
X196182Y110875*
X195636Y109750*
X192909Y106000*
X196727*
X199727Y113875D02*
X202727D01*
X201091Y110875*
X201909*
X202455Y110500*
X202727Y110125*
X203000Y109000*
Y108250*
X202727Y107125*
X202182Y106375*
X201364Y106000*
X200545*
X199727Y106375*
X199455Y106750*
X199182Y107500*
X209000Y111250D02*
X208727Y110125D01*
X208182Y109375*
X207364Y109000*
X207091*
X206273Y109375*
X205727Y110125*
X205455Y111250*
Y111625*
X205727Y112750*
X206273Y113500*
X207091Y113875*
X207364*
X208182Y113500*
X208727Y112750*
X209000Y111250*
Y109375*
X208727Y107500*
X208182Y106375*
X207364Y106000*
X206818*
X206000Y106375*
X205727Y107125*
X232000Y106000D02*
X244000D01*
X232000Y118000*
X244000*
X232000Y106000*
X264636Y113875D02*
X266818Y110125D01*
Y106000*
X269000Y113875D02*
X266818Y110125D01*
X271455Y113875D02*
Y106000D01*
Y113875D02*
X275000D01*
X271455Y110125D02*
X273636D01*
X271455Y106000D02*
X275000D01*
X281273Y112750D02*
X280727Y113500D01*
X279909Y113875*
X278818*
X278000Y113500*
X277455Y112750*
Y112000*
X277727Y111250*
X278000Y110875*
X278545Y110500*
X280182Y109750*
X280727Y109375*
X281000Y109000*
X281273Y108250*
Y107125*
X280727Y106375*
X279909Y106000*
X278818*
X278000Y106375*
X277455Y107125*
X317818Y112750D02*
Y106000D01*
X315364Y109375D02*
X320273D01*
X327636Y115375D02*
X322727Y103375D01*
X330091Y109375D02*
X335000D01*
X339091Y113875D02*
X338273Y113500D01*
X337727Y112375*
X337455Y110500*
Y109375*
X337727Y107500*
X338273Y106375*
X339091Y106000*
X339636*
X340455Y106375*
X341000Y107500*
X341273Y109375*
Y110500*
X341000Y112375*
X340455Y113500*
X339636Y113875*
X339091*
X344000Y106750D02*
X343727Y106375D01*
X344000Y106000*
X344273Y106375*
X344000Y106750*
X348364Y113875D02*
X347545Y113500D01*
X347000Y112375*
X346727Y110500*
Y109375*
X347000Y107500*
X347545Y106375*
X348364Y106000*
X348909*
X349727Y106375*
X350273Y107500*
X350545Y109375*
Y110500*
X350273Y112375*
X349727Y113500*
X348909Y113875*
X348364*
G74*
X0Y0D02*
M02*
