*
*
G04 PADS VX.2.3 Build Number: 9191294 generated Gerber (RS-274-X) file*
G04 PC Version=2.1*
*
%IN "uMuddMarkVLayout_3_osci"*%
*
%MOIN*%
*
%FSLAX35Y35*%
*
*
*
*
G04 PC Standard Apertures*
*
*
G04 Thermal Relief Aperture macro.*
%AMTER*
1,1,$1,0,0*
1,0,$1-$2,0,0*
21,0,$3,$4,0,0,45*
21,0,$3,$4,0,0,135*
%
*
*
G04 Annular Aperture macro.*
%AMANN*
1,1,$1,0,0*
1,0,$2,0,0*
%
*
*
G04 Odd Aperture macro.*
%AMODD*
1,1,$1,0,0*
1,0,$1-0.005,0,0*
%
*
*
G04 PC Custom Aperture Macros*
*
*
*
*
*
*
G04 PC Aperture Table*
*
%ADD010C,0.001*%
%ADD014C,0.06*%
%ADD024C,0.25*%
%ADD027C,0.01*%
%ADD028C,0.03*%
%ADD029C,0.015*%
%ADD054C,0.042*%
*
*
*
*
G04 PC Circuitry*
G04 Layer Name uMuddMarkVLayout_3_osci - circuitry*
%LPD*%
*
*
G04 PC Custom Flashes*
G04 Layer Name uMuddMarkVLayout_3_osci - flashes*
%LPD*%
*
*
G04 PC Circuitry*
G04 Layer Name uMuddMarkVLayout_3_osci - circuitry*
%LPD*%
*
G54D10*
G54D14*
G01X2075700Y1963200D03*
Y1937609D03*
X1938700Y2177500D03*
X2081400Y2035500D03*
Y2045500D03*
Y2055500D03*
Y2065500D03*
Y2075500D03*
Y2085500D03*
Y2095500D03*
Y2105500D03*
Y2115500D03*
Y2125500D03*
X1978300Y2379700D03*
X1952709D03*
X2055800Y2299900D03*
Y2339900D03*
X1909400Y2445100D03*
G54D24*
X2006400Y2230500D03*
G54D27*
X1902800Y1872400D02*
G75*
G03X1903300Y1871900I500J0D01*
G01X1961800*
X1962300Y1871400D02*
G03X1961800Y1871900I-500J0D01*
G01X1962300Y1871400D02*
Y1857585D01*
G03X1962752Y1857088I500J0*
G01X1964177Y1856487D02*
G03X1962752Y1857088I-1677J-1987D01*
G01X1964177Y1856487D02*
G03X1964823I323J382D01*
G01X1969100Y1854500D02*
G03X1964823Y1856487I-2600J0D01*
G01Y1852513D02*
G03X1969100Y1854500I1677J1987D01*
G01X1964823Y1852513D02*
G03X1964177I-323J-382D01*
G01X1962752Y1851912D02*
G03X1964177Y1852513I-252J2588D01*
G01X1962752Y1851912D02*
G03X1962300Y1851415I48J-497D01*
G01Y1832900*
G03X1962800Y1832400I500J0*
G01X1999900*
G03X2000400Y1832900I0J500*
G01Y1852220*
G03X2000239Y1852587I-500J-0*
G01X1999400Y1854500D02*
G03X2000239Y1852587I2600J0D01*
G01Y1856413D02*
G03X1999400Y1854500I1761J-1913D01*
G01X2000239Y1856413D02*
G03X2000400Y1856780I-339J367D01*
G01Y1865500*
X2000900Y1866000D02*
G03X2000400Y1865500I0J-500D01*
G01X2000900Y1866000D02*
X2015100D01*
X2015600Y1865500D02*
G03X2015100Y1866000I-500J0D01*
G01X2015600Y1865500D02*
Y1857266D01*
G03X2016326Y1856820I500J-0*
G01X2020100Y1854500D02*
G03X2016326Y1856820I-2600J0D01*
G01Y1852180D02*
G03X2020100Y1854500I1174J2320D01*
G01X2016326Y1852180D02*
G03X2015600Y1851734I-226J-446D01*
G01Y1833900*
G03X2016100Y1833400I500J0*
G01X2036400*
G03X2036900Y1833900I0J500*
G01Y1851602*
G03X2036577Y1852069I-500J-0*
G01X2034900Y1854500D02*
G03X2036577Y1852069I2600J0D01*
G01Y1856931D02*
G03X2034900Y1854500I923J-2431D01*
G01X2036577Y1856931D02*
G03X2036900Y1857398I-177J467D01*
G01Y1871800*
X2037400Y1872300D02*
G03X2036900Y1871800I0J-500D01*
G01X2037400Y1872300D02*
X2083316D01*
G03X2083816Y1872800I-0J500*
X2083668Y1873155I-500J0*
G01X2082928Y1874618D02*
G03X2083668Y1873155I2572J382D01*
G01X2082928Y1874618D02*
G03X2082283Y1875021I-494J-74D01*
G01X2078900Y1877500D02*
G03X2082283Y1875021I2600J0D01*
G01X2084072Y1877882D02*
G03X2078900Y1877500I-2572J-382D01*
G01X2084072Y1877882D02*
G03X2084717Y1877479I494J74D01*
G01X2087094Y1877054D02*
G03X2084717Y1877479I-1594J-2054D01*
G01X2087094Y1877054D02*
G03X2087900Y1877449I306J395D01*
G01Y2341734*
G03X2087174Y2342180I-500J0*
G01X2083400Y2344500D02*
G03X2087174Y2342180I2600J0D01*
G01Y2346820D02*
G03X2083400Y2344500I-1174J-2320D01*
G01X2087174Y2346820D02*
G03X2087900Y2347266I226J446D01*
G01Y2366602*
G03X2087577Y2367069I-500J-0*
G01X2085900Y2369500D02*
G03X2087577Y2367069I2600J0D01*
G01Y2371931D02*
G03X2085900Y2369500I923J-2431D01*
G01X2087577Y2371931D02*
G03X2087900Y2372398I-177J467D01*
G01Y2467300*
G03X2087400Y2467800I-500J0*
G01X1903300*
G03X1902800Y2467300I0J-500*
G01Y2261995*
G03X1903171Y2261512I500J-0*
G01X1905100Y2259000D02*
G03X1903171Y2261512I-2600J0D01*
G01Y2256488D02*
G03X1905100Y2259000I-671J2512D01*
G01X1903171Y2256488D02*
G03X1902800Y2256005I129J-483D01*
G01Y2253592*
G03X1903574Y2253174I500J0*
G01X1904925Y2253599D02*
G03X1903574Y2253174I75J-2599D01*
G01X1904925Y2253599D02*
G03X1905410Y2254099I-15J500D01*
X1905398Y2254208I-500J-0*
G01X1905300Y2255100D02*
G03X1905398Y2254208I4100J-0D01*
G01X1905300Y2255100D02*
X1905300D01*
X1913500D02*
G03X1905300I-4100J0D01*
G01X1908228Y2251171D02*
G03X1913500Y2255100I1172J3929D01*
G01X1908228Y2251171D02*
G03X1907587Y2250742I-143J-479D01*
G01X1907196Y2249609D02*
G03X1907587Y2250742I-2196J1391D01*
G01X1907196Y2249609D02*
G03X1907119Y2249341I423J-268D01*
X1907812Y2248880I500J0*
G01X1913500Y2245100D02*
G03X1907812Y2248880I-4100J0D01*
G01X1905300Y2245100D02*
G03X1913500I4100J0D01*
G01X1906230Y2247700D02*
G03X1905300Y2245100I3170J-2600D01*
G01X1906230Y2247700D02*
G03X1906343Y2248017I-387J317D01*
X1905707Y2248498I-500J-0*
G01X1903574Y2248826D02*
G03X1905707Y2248498I1426J2174D01*
G01X1903574Y2248826D02*
G03X1902800Y2248408I-274J-418D01*
G01Y1872400*
X2085500Y2125500D02*
G03X2077300I-4100J0D01*
X2085500I4100J0*
G01Y2115500D02*
G03X2077300I-4100J0D01*
X2085500I4100J0*
G01Y2105500D02*
G03X2077300I-4100J0D01*
X2085500I4100J0*
G01Y2095500D02*
G03X2077300I-4100J0D01*
X2085500I4100J0*
G01Y2085500D02*
G03X2077300I-4100J0D01*
X2085500I4100J0*
G01Y2075500D02*
G03X2077300I-4100J0D01*
X2085500I4100J0*
G01Y2065500D02*
G03X2077300I-4100J0D01*
X2085500I4100J0*
G01Y2055500D02*
G03X2077300I-4100J0D01*
X2085500I4100J0*
G01Y2045500D02*
G03X2077300I-4100J0D01*
X2085500I4100J0*
G01Y2035500D02*
G03X2077300I-4100J0D01*
X2085500I4100J0*
G01X2081700Y2170700D02*
G03X2073500I-4100J0D01*
X2081700I4100J0*
G01Y2140700D02*
G03X2073500I-4100J0D01*
X2081700I4100J0*
G01X2078600Y2386500D02*
G03X2073400I-2600J0D01*
X2078600I2600J0*
G01X2079800Y1963200D02*
G03X2071600I-4100J0D01*
X2079800I4100J0*
G01Y1937609D02*
G03X2071600I-4100J0D01*
X2079800I4100J0*
G01X2071417Y2012291D02*
X2071417D01*
X2073003Y2015530D02*
G03X2071417Y2012291I2514J-3239D01*
G01X2073003Y2015530D02*
G03X2073197Y2015925I-306J395D01*
G01X2073197*
G03X2073068Y2016260I-500J0*
G01X2072400Y2018000D02*
G03X2073068Y2016260I2600J-0D01*
G01X2072400Y2018000D02*
X2072400D01*
X2077600D02*
G03X2072400I-2600J0D01*
G01X2077213Y2016635D02*
G03X2077600Y2018000I-2213J1365D01*
G01X2077213Y2016635D02*
G03X2077138Y2016372I425J-263D01*
X2077408Y2015928I500J0*
G01X2079617Y2012291D02*
G03X2077408Y2015928I-4100J-0D01*
G01X2071417Y2012291D02*
G03X2079617I4100J-0D01*
G01X2075426Y1990799D02*
G03X2071417Y1986700I91J-4099D01*
G01X2075426Y1990799D02*
G03X2075912Y1991251I-12J500D01*
G01X2081100Y1991000D02*
G03X2075912Y1991251I-2600J0D01*
G01X2079641Y1988664D02*
G03X2081100Y1991000I-1141J2336D01*
G01X2079641Y1988664D02*
G03X2079360Y1988214I219J-450D01*
G01X2079360*
G03X2079388Y1988050I500J0*
G01X2079617Y1986700D02*
G03X2079388Y1988050I-4100J-0D01*
G01X2071417Y1986700D02*
G03X2079617I4100J0D01*
G01X2074100Y2031000D02*
G03X2068900I-2600J0D01*
X2074100I2600J0*
G01X2072600Y2273000D02*
G03X2067400I-2600J0D01*
X2072600I2600J0*
G01Y2242500D02*
G03X2067400I-2600J0D01*
X2072600I2600J0*
G01X2069285Y2212000D02*
G03X2067400Y2209500I715J-2500D01*
G01X2069285Y2212000D02*
G03X2069648Y2212481I-137J481D01*
X2069527Y2212806I-500J-0*
G01X2068900Y2214500D02*
G03X2069527Y2212806I2600J0D01*
G01X2074100Y2214500D02*
G03X2068900I-2600J0D01*
G01X2072215Y2212000D02*
G03X2074100Y2214500I-715J2500D01*
G01X2072215Y2212000D02*
G03X2071852Y2211519I137J-481D01*
X2071973Y2211194I500J0*
G01X2072600Y2209500D02*
G03X2071973Y2211194I-2600J0D01*
G01X2067400Y2209500D02*
G03X2072600I2600J0D01*
G01X2071700Y2170700D02*
G03X2063500I-4100J0D01*
X2071700I4100J0*
G01Y2140700D02*
G03X2063500I-4100J0D01*
X2071700I4100J0*
G01X2069900Y2339900D02*
G03X2061700I-4100J0D01*
X2069900I4100J0*
G01Y2329900D02*
G03X2061700I-4100J0D01*
X2069900I4100J0*
G01Y2319900D02*
G03X2061700I-4100J0D01*
X2069900I4100J0*
G01Y2309900D02*
G03X2061700I-4100J0D01*
X2069900I4100J0*
G01X2061700Y2296300D02*
Y2303500D01*
X2062200Y2304000D02*
G03X2061700Y2303500I0J-500D01*
G01X2062200Y2304000D02*
X2069400D01*
X2069900Y2303500D02*
G03X2069400Y2304000I-500J0D01*
G01X2069900Y2303500D02*
Y2296300D01*
X2069400Y2295800D02*
G03X2069900Y2296300I0J500D01*
G01X2069400Y2295800D02*
X2062200D01*
X2061700Y2296300D02*
G03X2062200Y2295800I500J0D01*
G01X2061441Y1887062D02*
G03X2060600Y1884900I2359J-2162D01*
G01X2061441Y1887062D02*
G03X2061572Y1887400I-369J338D01*
X2061441Y1887738I-500J0*
G01X2060600Y1889900D02*
G03X2061441Y1887738I3200J0D01*
G01Y1892062D02*
G03X2060600Y1889900I2359J-2162D01*
G01X2061441Y1892062D02*
G03X2061572Y1892400I-369J338D01*
X2061441Y1892738I-500J0*
G01X2060600Y1894900D02*
G03X2061441Y1892738I3200J0D01*
G01Y1897062D02*
G03X2060600Y1894900I2359J-2162D01*
G01X2061441Y1897062D02*
G03X2061572Y1897400I-369J338D01*
X2061441Y1897738I-500J0*
G01X2060600Y1899900D02*
G03X2061441Y1897738I3200J0D01*
G01Y1902062D02*
G03X2060600Y1899900I2359J-2162D01*
G01X2061441Y1902062D02*
G03X2061572Y1902400I-369J338D01*
X2061441Y1902738I-500J0*
G01X2060600Y1904900D02*
G03X2061441Y1902738I3200J0D01*
G01X2065962Y1907259D02*
G03X2060600Y1904900I-2162J-2359D01*
G01X2065962Y1907259D02*
G03X2066638I338J369D01*
G01X2072000Y1904900D02*
G03X2066638Y1907259I-3200J0D01*
G01X2071159Y1902738D02*
G03X2072000Y1904900I-2359J2162D01*
G01X2071159Y1902738D02*
G03X2071028Y1902400I369J-338D01*
X2071159Y1902062I500J0*
G01X2072000Y1899900D02*
G03X2071159Y1902062I-3200J0D01*
G01Y1897738D02*
G03X2072000Y1899900I-2359J2162D01*
G01X2071159Y1897738D02*
G03X2071028Y1897400I369J-338D01*
X2071159Y1897062I500J0*
G01X2072000Y1894900D02*
G03X2071159Y1897062I-3200J0D01*
G01Y1892738D02*
G03X2072000Y1894900I-2359J2162D01*
G01X2071159Y1892738D02*
G03X2071028Y1892400I369J-338D01*
X2071159Y1892062I500J0*
G01X2072000Y1889900D02*
G03X2071159Y1892062I-3200J0D01*
G01Y1887738D02*
G03X2072000Y1889900I-2359J2162D01*
G01X2071159Y1887738D02*
G03X2071028Y1887400I369J-338D01*
X2071159Y1887062I500J0*
G01X2072000Y1884900D02*
G03X2071159Y1887062I-3200J0D01*
G01X2066638Y1882541D02*
G03X2072000Y1884900I2162J2359D01*
G01X2066638Y1882541D02*
G03X2065962I-338J-369D01*
G01X2060600Y1884900D02*
G03X2065962Y1882541I3200J0D01*
G01X2064100Y2357000D02*
G03X2058900I-2600J0D01*
X2064100I2600J0*
G01X2062083Y1963200D02*
G03X2053883I-4100J0D01*
X2062083I4100J0*
G01Y1937609D02*
G03X2053883I-4100J0D01*
X2062083I4100J0*
G01X2061900Y2012291D02*
G03X2053700I-4100J-0D01*
X2061900I4100J-0*
G01Y1986700D02*
G03X2053700I-4100J0D01*
X2061900I4100J0*
G01X2061700Y2170700D02*
G03X2053500I-4100J0D01*
X2061700I4100J0*
G01Y2140700D02*
G03X2053500I-4100J0D01*
X2061700I4100J0*
G01X2059900Y2339900D02*
G03X2051700I-4100J0D01*
X2059900I4100J0*
G01Y2329900D02*
G03X2051700I-4100J0D01*
X2059900I4100J0*
G01Y2319900D02*
G03X2051700I-4100J0D01*
X2059900I4100J0*
G01Y2309900D02*
G03X2051700I-4100J0D01*
X2059900I4100J0*
G01Y2299900D02*
G03X2051700I-4100J0D01*
X2059900I4100J0*
G01X2056100Y2263000D02*
G03X2050900I-2600J0D01*
X2056100I2600J0*
G01Y2235500D02*
G03X2050900I-2600J0D01*
X2056100I2600J0*
G01Y2225500D02*
G03X2050900I-2600J0D01*
X2056100I2600J0*
G01X2051383Y2201510D02*
G03X2050900Y2200000I2117J-1510D01*
G01X2051383Y2201510D02*
G03X2051476Y2201800I-407J290D01*
X2051383Y2202090I-500J0*
G01X2050900Y2203600D02*
G03X2051383Y2202090I2600J0D01*
G01X2053941Y2206162D02*
G03X2050900Y2203600I-441J-2562D01*
G01X2053941Y2206162D02*
G03X2054526Y2206655I85J493D01*
G01X2054526*
G03X2054426Y2206954I-500J0*
G01X2053910Y2208510D02*
G03X2054426Y2206954I2600J-0D01*
G01X2053910Y2208510D02*
X2053910D01*
X2053931Y2208838D02*
G03X2053910Y2208510I2579J-328D01*
G01X2053931Y2208838D02*
G03X2053935Y2208901I-496J63D01*
G01X2053935*
G03X2053445Y2209401I-500J-0*
G01X2050900Y2212000D02*
G03X2053445Y2209401I2600J0D01*
G01X2052300Y2214306D02*
G03X2050900Y2212000I1200J-2306D01*
G01X2052300Y2214306D02*
G03X2052569Y2214750I-231J444D01*
X2052300Y2215194I-500J0*
G01X2050900Y2217500D02*
G03X2052300Y2215194I2600J0D01*
G01X2056100Y2217500D02*
G03X2050900I-2600J0D01*
G01X2054700Y2215194D02*
G03X2056100Y2217500I-1200J2306D01*
G01X2054700Y2215194D02*
G03X2054431Y2214750I231J-444D01*
X2054700Y2214306I500J0*
G01X2056100Y2212000D02*
G03X2054700Y2214306I-2600J0D01*
G01X2056100Y2212000D02*
X2056100D01*
X2056079Y2211672D02*
G03X2056100Y2212000I-2579J328D01*
G01X2056079Y2211672D02*
G03X2056075Y2211609I496J-63D01*
G01X2056075*
G03X2056565Y2211109I500J0*
G01X2059110Y2208510D02*
G03X2056565Y2211109I-2600J-0D01*
G01X2056069Y2205947D02*
G03X2059110Y2208510I441J2563D01*
G01X2056069Y2205947D02*
G03X2055484Y2205455I-85J-492D01*
G01X2055484*
G03X2055583Y2205156I500J-0*
G01X2056100Y2203600D02*
G03X2055583Y2205156I-2600J-0D01*
G01X2055617Y2202090D02*
G03X2056100Y2203600I-2117J1510D01*
G01X2055617Y2202090D02*
G03X2055524Y2201800I407J-290D01*
X2055617Y2201510I500J0*
G01X2056100Y2200000D02*
G03X2055617Y2201510I-2600J-0D01*
G01X2050900Y2200000D02*
G03X2056100I2600J0D01*
G01X2054100Y2425000D02*
G03X2048900I-2600J0D01*
X2054100I2600J0*
G01Y1944500D02*
G03X2048900I-2600J0D01*
X2054100I2600J0*
G01X2055500Y2125500D02*
G03X2047300I-4100J0D01*
X2055500I4100J0*
G01Y2115500D02*
G03X2047300I-4100J0D01*
X2055500I4100J0*
G01Y2095500D02*
G03X2047300I-4100J0D01*
X2055500I4100J0*
G01Y2085500D02*
G03X2047300I-4100J0D01*
X2055500I4100J0*
G01Y2075500D02*
G03X2047300I-4100J0D01*
X2055500I4100J0*
G01Y2065500D02*
G03X2047300I-4100J0D01*
X2055500I4100J0*
G01Y2045500D02*
G03X2047300I-4100J0D01*
X2055500I4100J0*
G01Y2035500D02*
G03X2047300I-4100J0D01*
X2055500I4100J0*
G01X2050600Y2268500D02*
G03X2045400I-2600J0D01*
X2050600I2600J0*
G01X2048758Y2059288D02*
G03X2043900Y2058000I-2258J-1288D01*
G01X2048758Y2059288D02*
G03X2049433Y2059097I435J248D01*
G01X2055500Y2055500D02*
G03X2049433Y2059097I-4100J0D01*
G01X2047333Y2054982D02*
G03X2055500Y2055500I4067J518D01*
G01X2047333Y2054982D02*
G03X2046783Y2055415I-496J-64D01*
G01X2043900Y2058000D02*
G03X2046783Y2055415I2600J0D01*
G01X2051700Y2170700D02*
G03X2043500I-4100J0D01*
X2051700I4100J0*
G01Y2140700D02*
G03X2043500I-4100J0D01*
X2051700I4100J0*
G01X2046100Y2253000D02*
G03X2040900I-2600J0D01*
X2046100I2600J0*
G01Y2243500D02*
G03X2040900I-2600J0D01*
X2046100I2600J0*
G01X2042845Y2210516D02*
G03X2040900Y2208000I655J-2516D01*
G01X2042845Y2210516D02*
G03X2043219Y2211000I-126J484D01*
X2042845Y2211484I-500J0*
G01X2040900Y2214000D02*
G03X2042845Y2211484I2600J0D01*
G01X2046100Y2214000D02*
G03X2040900I-2600J0D01*
G01X2044155Y2211484D02*
G03X2046100Y2214000I-655J2516D01*
G01X2044155Y2211484D02*
G03X2043781Y2211000I126J-484D01*
X2044155Y2210516I500J0*
G01X2046100Y2208000D02*
G03X2044155Y2210516I-2600J0D01*
G01X2040900Y2208000D02*
G03X2046100I2600J0D01*
G01X2045100Y2366000D02*
G03X2039900I-2600J0D01*
X2045100I2600J0*
G01X2044591Y2111218D02*
G03X2039400Y2111000I-2591J-218D01*
G01X2044591Y2111218D02*
G03X2045317Y2110815I498J42D01*
G01X2048919Y2109452D02*
G03X2045317Y2110815I-2419J-952D01*
G01X2048919Y2109452D02*
G03X2049604Y2109186I466J183D01*
G01X2055500Y2105500D02*
G03X2049604Y2109186I-4100J0D01*
G01X2047301Y2105424D02*
G03X2055500Y2105500I4099J76D01*
G01X2047301Y2105424D02*
G03X2046752Y2105912I-500J-9D01*
G01X2043909Y2108282D02*
G03X2046752Y2105912I2591J218D01*
G01X2043909Y2108282D02*
G03X2043183Y2108685I-498J-42D01*
G01X2039400Y2111000D02*
G03X2043183Y2108685I2600J0D01*
G01X2044100Y2233500D02*
G03X2038900I-2600J0D01*
X2044100I2600J0*
G01X2039100Y2107000D02*
G03X2033900I-2600J0D01*
G01X2039100D02*
X2039100D01*
X2038475Y2105309D02*
G03X2039100Y2107000I-1975J1691D01*
G01X2038475Y2105309D02*
G03X2038355Y2104984I380J-325D01*
X2038556Y2104583I500J-0*
G01X2039600Y2102500D02*
G03X2038556Y2104583I-2600J0D01*
G01X2034400Y2102500D02*
G03X2039600I2600J0D01*
G01X2034400D02*
X2034400D01*
X2035025Y2104191D02*
G03X2034400Y2102500I1975J-1691D01*
G01X2035025Y2104191D02*
G03X2035145Y2104516I-380J325D01*
X2034944Y2104917I-500J0*
G01X2033900Y2107000D02*
G03X2034944Y2104917I2600J0D01*
G01X2038600Y2003500D02*
G03X2033400I-2600J0D01*
X2038600I2600J0*
G01Y1991500D02*
G03X2033400I-2600J0D01*
X2038600I2600J0*
G01Y1980500D02*
G03X2033400I-2600J0D01*
X2038600I2600J0*
G01X2038100Y1895500D02*
G03X2032900I-2600J0D01*
X2038100I2600J0*
G01X2036100Y2183500D02*
G03X2030900I-2600J0D01*
G01X2036100D02*
X2036100D01*
X2036081Y2183187D02*
G03X2036100Y2183500I-2581J313D01*
G01X2036081Y2183187D02*
G03X2036078Y2183127I497J-60D01*
X2036413Y2182655I500J0*
G01X2038157Y2180200D02*
G03X2036413Y2182655I-2600J0D01*
G01X2032957Y2180200D02*
G03X2038157I2600J0D01*
G01X2032957D02*
X2032957D01*
X2032976Y2180513D02*
G03X2032957Y2180200I2581J-313D01*
G01X2032976Y2180513D02*
G03X2032980Y2180573I-496J60D01*
X2032644Y2181045I-500J-0*
G01X2030900Y2183500D02*
G03X2032644Y2181045I2600J0D01*
G01X2036100Y1879000D02*
G03X2030900I-2600J0D01*
X2036100I2600J0*
G01X2032035Y2267217D02*
G03X2030104Y2264704I669J-2513D01*
G01X2032035Y2267217D02*
G03X2032405Y2267668I-129J483D01*
G01X2037097Y2269037D02*
G03X2032405Y2267668I-2097J-1537D01*
G01X2037097Y2269037D02*
G03X2037903I403J296D01*
G01X2042600Y2267500D02*
G03X2037903Y2269037I-2600J0D01*
G01X2041133Y2265160D02*
G03X2042600Y2267500I-1133J2340D01*
G01X2041133Y2265160D02*
G03X2040851Y2264710I218J-450D01*
G01X2040851*
G03X2040873Y2264565I500J-0*
G01X2040984Y2263813D02*
G03X2040873Y2264565I-2600J-0D01*
G01X2035851Y2263225D02*
G03X2040984Y2263813I2533J588D01*
G01X2035851Y2263225D02*
G03X2034935Y2263369I-487J-113D01*
G01X2030104Y2264704D02*
G03X2034935Y2263369I2600J0D01*
G01X2032100Y1900500D02*
G03X2026900I-2600J0D01*
X2032100I2600J0*
G01X2031600Y2395500D02*
G03X2026400I-2600J0D01*
X2031600I2600J0*
G01X2031500Y1916400D02*
G03X2023300I-4100J0D01*
X2031500I4100J0*
G01X2027600Y2267500D02*
G03X2022400I-2600J0D01*
X2027600I2600J0*
G01X2027100Y2351000D02*
G03X2021900I-2600J0D01*
X2027100I2600J0*
G01X2026600Y1857000D02*
G03X2021400I-2600J0D01*
X2026600I2600J0*
G01X2025600Y2277500D02*
G03X2020400I-2600J0D01*
X2025600I2600J0*
G01X2022891Y1965098D02*
G03X2020400Y1962500I109J-2598D01*
G01X2022891Y1965098D02*
G03X2023371Y1965597I-20J499D01*
X2023363Y1965685I-500J0*
G01X2023300Y1966400D02*
G03X2023363Y1965685I4100J-0D01*
G01X2023300Y1966400D02*
X2023300D01*
X2031500D02*
G03X2023300I-4100J0D01*
G01X2026205Y1962478D02*
G03X2031500Y1966400I1195J3922D01*
G01X2026205Y1962478D02*
G03X2025566Y1962080I-146J-478D01*
G01X2020400Y1962500D02*
G03X2025566Y1962080I2600J0D01*
G01X2021017Y2196028D02*
G03X2019026Y2193500I609J-2528D01*
G01X2021017Y2196028D02*
G03X2021400Y2196512I-117J486D01*
G01X2026600Y2196500D02*
G03X2021400Y2196512I-2600J0D01*
G01X2026600Y2196500D02*
X2026600D01*
X2026599Y2196415D02*
G03X2026600Y2196500I-2599J85D01*
G01X2026599Y2196415D02*
G03X2026598Y2196399I499J-16D01*
G01X2026598*
G03X2026921Y2195931I500J-0*
G01X2027183Y2195815D02*
G03X2026921Y2195931I-1183J-2315D01*
G01X2027183Y2195815D02*
G03X2027909Y2196218I228J445D01*
G01X2032988Y2196756D02*
G03X2027909Y2196218I-2488J-756D01*
G01X2032988Y2196756D02*
G03X2033880Y2196621I478J145D01*
G01X2038633Y2195163D02*
G03X2033880Y2196621I-2600J0D01*
G01X2033546Y2194408D02*
G03X2038633Y2195163I2487J755D01*
G01X2033546Y2194408D02*
G03X2032653Y2194543I-479J-146D01*
G01X2029317Y2193685D02*
G03X2032653Y2194543I1183J2315D01*
G01X2029317Y2193685D02*
G03X2028591Y2193282I-228J-445D01*
G01X2024166Y2191657D02*
G03X2028591Y2193282I1834J1843D01*
G01X2024166Y2191657D02*
G03X2023460I-353J-354D01*
G01X2019026Y2193500D02*
G03X2023460Y2191657I2600J0D01*
G01X2024100Y1865000D02*
G03X2018900I-2600J0D01*
X2024100I2600J0*
G01X2023600Y2415000D02*
G03X2018400I-2600J0D01*
X2023600I2600J0*
G01Y2183500D02*
G03X2018400I-2600J0D01*
X2023600I2600J0*
G01X2023100Y2443000D02*
G03X2017900I-2600J0D01*
X2023100I2600J0*
G01Y2385500D02*
G03X2017900I-2600J0D01*
X2023100I2600J0*
G01Y1929500D02*
G03X2017900I-2600J0D01*
X2023100I2600J0*
G01X2022600Y2291500D02*
G03X2017400I-2600J0D01*
X2022600I2600J0*
G01X2019600Y1891000D02*
G03X2014400I-2600J0D01*
X2019600I2600J0*
G01X2018600Y1911000D02*
G03X2013400I-2600J0D01*
X2018600I2600J0*
G01X2018100Y2267500D02*
G03X2012900I-2600J0D01*
X2018100I2600J0*
G01X2016597Y1880537D02*
G03X2011900Y1879000I-2097J-1537D01*
G01X2016597Y1880537D02*
G03X2017403I403J296D01*
G01X2022100Y1879000D02*
G03X2017403Y1880537I-2600J0D01*
G01Y1877463D02*
G03X2022100Y1879000I2097J1537D01*
G01X2017403Y1877463D02*
G03X2016597I-403J-296D01*
G01X2011900Y1879000D02*
G03X2016597Y1877463I2600J0D01*
G01X2016100Y2277500D02*
G03X2010900I-2600J0D01*
X2016100I2600J0*
G01X2017409Y2125272D02*
G03X2009209I-4100J0D01*
X2017409I4100J0*
G01Y2115272D02*
G03X2009209I-4100J0D01*
X2017409I4100J0*
G01Y2105272D02*
G03X2009209I-4100J0D01*
X2017409I4100J0*
G01Y2095272D02*
G03X2009209I-4100J0D01*
X2017409I4100J0*
G01Y2085272D02*
G03X2009209I-4100J0D01*
X2017409I4100J0*
G01Y2075272D02*
G03X2009209I-4100J0D01*
X2017409I4100J0*
G01Y2065272D02*
G03X2009209I-4100J0D01*
X2017409I4100J0*
G01Y2055272D02*
G03X2009209I-4100J0D01*
X2017409I4100J0*
G01Y2045272D02*
G03X2009209I-4100J0D01*
X2017409I4100J0*
G01Y2035272D02*
G03X2009209I-4100J0D01*
X2017409I4100J0*
G01X2013100Y2336500D02*
G03X2007900I-2600J0D01*
X2013100I2600J0*
G01X2012757Y2176843D02*
G03X2007557I-2600J-0D01*
X2012757I2600J-0*
G01X2008945Y2196040D02*
G03X2006900Y2193500I555J-2540D01*
G01X2008945Y2196040D02*
G03X2009338Y2196514I-107J489D01*
G01X2014537Y2196437D02*
G03X2009338Y2196514I-2600J0D01*
G01X2012492Y2193897D02*
G03X2014537Y2196437I-555J2540D01*
G01X2012492Y2193897D02*
G03X2012099Y2193423I107J-489D01*
G01X2006900Y2193500D02*
G03X2012099Y2193423I2600J0D01*
G01X2008600Y2168000D02*
G03X2003400I-2600J0D01*
X2008600I2600J0*
G01Y1881500D02*
G03X2003400I-2600J0D01*
X2008600I2600J0*
G01X2007600Y2331000D02*
G03X2002400I-2600J0D01*
X2007600I2600J0*
G01Y2201000D02*
G03X2002400I-2600J0D01*
X2007600I2600J0*
G01X2001513Y1952177D02*
G03X2000900Y1950500I1987J-1677D01*
G01X2001513Y1952177D02*
G03X2001631Y1952500I-382J323D01*
X2001513Y1952823I-500J0*
G01X2000900Y1954500D02*
G03X2001513Y1952823I2600J0D01*
G01X2002845Y1957016D02*
G03X2000900Y1954500I655J-2516D01*
G01X2002845Y1957016D02*
G03X2003219Y1957500I-126J484D01*
X2002845Y1957984I-500J0*
G01X2000900Y1960500D02*
G03X2002845Y1957984I2600J0D01*
G01X2006100Y1960500D02*
G03X2000900I-2600J0D01*
G01X2004155Y1957984D02*
G03X2006100Y1960500I-655J2516D01*
G01X2004155Y1957984D02*
G03X2003781Y1957500I126J-484D01*
X2004155Y1957016I500J0*
G01X2006100Y1954500D02*
G03X2004155Y1957016I-2600J0D01*
G01X2005487Y1952823D02*
G03X2006100Y1954500I-1987J1677D01*
G01X2005487Y1952823D02*
G03X2005369Y1952500I382J-323D01*
X2005487Y1952177I500J0*
G01X2006100Y1950500D02*
G03X2005487Y1952177I-2600J0D01*
G01X2000900Y1950500D02*
G03X2006100I2600J0D01*
G01Y1941200D02*
G03X2000900I-2600J0D01*
G01X2005250Y1939277D02*
G03X2006100Y1941200I-1750J1923D01*
G01X2005250Y1939277D02*
G03X2005086Y1938907I336J-370D01*
X2005413Y1938438I500J0*
G01X2005632Y1938346D02*
G03X2005413Y1938438I-1122J-2346D01*
G01X2005632Y1938346D02*
G03X2006255Y1938507I216J451D01*
G01X2010974Y1937000D02*
G03X2006255Y1938507I-2600J0D01*
G01X2007252Y1934655D02*
G03X2010974Y1937000I1122J2345D01*
G01X2007252Y1934655D02*
G03X2006629Y1934493I-216J-452D01*
G01X2001910Y1936000D02*
G03X2006629Y1934493I2600J0D01*
G01X2002760Y1937923D02*
G03X2001910Y1936000I1750J-1923D01*
G01X2002760Y1937923D02*
G03X2002924Y1938293I-336J370D01*
X2002597Y1938762I-500J0*
G01X2000900Y1941200D02*
G03X2002597Y1938762I2600J0D01*
G01X2003600Y2385500D02*
G03X1998400I-2600J0D01*
X2003600I2600J0*
G01X2002100Y2267500D02*
G03X1996900I-2600J0D01*
X2002100I2600J0*
G01X2001600Y1907500D02*
G03X1996400I-2600J0D01*
X2001600I2600J0*
G01X2001300Y2195878D02*
G03X1996100I-2600J-0D01*
X2001300I2600J-0*
G01X2002709Y2125272D02*
G03X1994509I-4100J0D01*
X2002709I4100J0*
G01Y2115272D02*
G03X1994509I-4100J0D01*
X2002709I4100J0*
G01Y2105272D02*
G03X1994509I-4100J0D01*
X2002709I4100J0*
G01Y2095272D02*
G03X1994509I-4100J0D01*
X2002709I4100J0*
G01Y2085272D02*
G03X1994509I-4100J0D01*
X2002709I4100J0*
G01Y2075272D02*
G03X1994509I-4100J0D01*
X2002709I4100J0*
G01Y2065272D02*
G03X1994509I-4100J0D01*
X2002709I4100J0*
G01Y2055272D02*
G03X1994509I-4100J0D01*
X2002709I4100J0*
G01X2008076Y2243996D02*
G03X1992800Y2230500I-1676J-13496D01*
G01X2008076Y2243996D02*
G03X2008638Y2244492I62J496D01*
X2008519Y2244816I-500J0*
G01X2007900Y2246500D02*
G03X2008519Y2244816I2600J0D01*
G01X2013100Y2246500D02*
G03X2007900I-2600J0D01*
G01X2011427Y2244071D02*
G03X2013100Y2246500I-927J2429D01*
G01X2011427Y2244071D02*
G03X2011106Y2243604I179J-467D01*
X2011421Y2243139I500J-0*
G01X2020000Y2230500D02*
G03X2011421Y2243139I-13600J0D01*
G01X1992800Y2230500D02*
G03X2020000I13600J0D01*
G01X1997100Y2415000D02*
G03X1991900I-2600J0D01*
X1997100I2600J0*
G01X1997051Y2280503D02*
G03X1991900Y2280000I-2551J-503D01*
G01X1997051Y2280503D02*
G03X1997535Y2280100I490J97D01*
G01X2000100Y2277500D02*
G03X1997535Y2280100I-2600J0D01*
G01X1994949Y2276997D02*
G03X2000100Y2277500I2551J503D01*
G01X1994949Y2276997D02*
G03X1994465Y2277400I-490J-97D01*
G01X1991900Y2280000D02*
G03X1994465Y2277400I2600J0D01*
G01X1995037Y2048097D02*
G03X1990900Y2046000I-1537J-2097D01*
G01X1995037Y2048097D02*
G03X1995688Y2048150I295J404D01*
G01X2002709Y2045272D02*
G03X1995688Y2048150I-4100J0D01*
G01X1995001Y2043325D02*
G03X2002709Y2045272I3608J1947D01*
G01X1995001Y2043325D02*
G03X1994390Y2043557I-440J-238D01*
G01X1990900Y2046000D02*
G03X1994390Y2043557I2600J0D01*
G01X1993934Y2035064D02*
G03X1990900Y2032500I-434J-2564D01*
G01X1993934Y2035064D02*
G03X1994517Y2035526I84J492D01*
G01X2002709Y2035272D02*
G03X1994517Y2035526I-4100J0D01*
G01X1996591Y2031703D02*
G03X2002709Y2035272I2018J3569D01*
G01X1996591Y2031703D02*
G03X1995886Y2031467I-246J-435D01*
G01X1990900Y2032500D02*
G03X1995886Y2031467I2600J0D01*
G01X1996100Y1952500D02*
G03X1990900I-2600J0D01*
X1996100I2600J0*
G01X1994100Y2193500D02*
G03X1988900I-2600J0D01*
X1994100I2600J0*
G01X1990436Y2146872D02*
G03X1988900Y2144500I1064J-2372D01*
G01X1990436Y2146872D02*
G03X1990731Y2147328I-205J456D01*
G01X1990731*
G03X1990725Y2147404I-500J0*
G01X1990696Y2147796D02*
G03X1990725Y2147404I2600J-0D01*
G01X1995896Y2147796D02*
G03X1990696I-2600J-0D01*
G01X1994360Y2145423D02*
G03X1995896Y2147796I-1064J2373D01*
G01X1994360Y2145423D02*
G03X1994065Y2144967I205J-456D01*
X1994070Y2144892I500J0*
G01X1994087Y2144757D02*
G03X1994070Y2144892I-2587J-257D01*
G01X1994087Y2144757D02*
G03X1994859Y2144388I498J49D01*
G01X1998886Y2142214D02*
G03X1994859Y2144388I-2600J0D01*
G01X1993698Y2141958D02*
G03X1998886Y2142214I2588J256D01*
G01X1993698Y2141958D02*
G03X1992926Y2142326I-497J-50D01*
G01X1988900Y2144500D02*
G03X1992926Y2142326I2600J0D01*
G01X1992200Y2183500D02*
G03X1987000I-2600J0D01*
X1992200I2600J0*
G01X1990280Y2240559D02*
G03X1985080I-2600J-0D01*
X1990280I2600J-0*
G01X1989469Y2210431D02*
G03X1984269I-2600J-0D01*
G01X1989469D02*
X1989469D01*
X1989039Y2208997D02*
G03X1989469Y2210431I-2170J1434D01*
G01X1989039Y2208997D02*
G03X1988956Y2208722I417J-275D01*
X1989219Y2208281I500J-0*
G01X1990590Y2205990D02*
G03X1989219Y2208281I-2600J-0D01*
G01X1985390Y2205990D02*
G03X1990590I2600J-0D01*
G01X1985390D02*
X1985390D01*
X1985821Y2207423D02*
G03X1985390Y2205990I2169J-1433D01*
G01X1985821Y2207423D02*
G03X1985904Y2207699I-417J276D01*
X1985640Y2208140I-500J0*
G01X1984269Y2210431D02*
G03X1985640Y2208140I2600J-0D01*
G01X1989100Y1920000D02*
G03X1983900I-2600J0D01*
X1989100I2600J0*
G01X1985229Y1962667D02*
G03X1983660Y1960280I1031J-2387D01*
G01X1985229Y1962667D02*
G03X1985530Y1963126I-199J459D01*
X1985429Y1963428I-500J0*
G01X1984900Y1965000D02*
G03X1985429Y1963428I2600J0D01*
G01X1989890Y1966024D02*
G03X1984900Y1965000I-2390J-1024D01*
G01X1989890Y1966024D02*
G03X1990729Y1965895I459J197D01*
G01X1995300Y1964200D02*
G03X1990729Y1965895I-2600J0D01*
G01X1994395Y1962229D02*
G03X1995300Y1964200I-1695J1971D01*
G01X1994395Y1962229D02*
G03X1994221Y1961849I326J-380D01*
X1994524Y1961390I500J0*
G01X1996100Y1959000D02*
G03X1994524Y1961390I-2600J-0D01*
G01X1990900Y1959000D02*
G03X1996100I2600J0D01*
G01X1991805Y1960971D02*
G03X1990900Y1959000I1695J-1971D01*
G01X1991805Y1960971D02*
G03X1991979Y1961351I-326J380D01*
X1991676Y1961810I-500J-0*
G01X1990310Y1963176D02*
G03X1991676Y1961810I2390J1024D01*
G01X1990310Y1963176D02*
G03X1989471Y1963305I-459J-197D01*
G01X1988531Y1962613D02*
G03X1989471Y1963305I-1031J2387D01*
G01X1988531Y1962613D02*
G03X1988229Y1962154I198J-459D01*
X1988331Y1961852I500J0*
G01X1988860Y1960280D02*
G03X1988331Y1961852I-2600J0D01*
G01X1983660Y1960280D02*
G03X1988860I2600J0D01*
G01X1988790Y1937690D02*
G03X1983590I-2600J-0D01*
G01X1988689Y1936972D02*
G03X1988790Y1937690I-2499J718D01*
G01X1988689Y1936972D02*
G03X1988669Y1936834I480J-138D01*
X1989204Y1936335I500J-0*
G01X1991985Y1933741D02*
G03X1989204Y1936335I-2600J0D01*
G01X1986785Y1933741D02*
G03X1991985I2600J0D01*
G01X1986886Y1934459D02*
G03X1986785Y1933741I2499J-718D01*
G01X1986886Y1934459D02*
G03X1986906Y1934597I-480J138D01*
X1986371Y1935096I-500J0*
G01X1983590Y1937690D02*
G03X1986371Y1935096I2600J-0D01*
G01X1988600Y2100500D02*
G03X1983400I-2600J0D01*
X1988600I2600J0*
G01X1988100Y2358500D02*
G03X1982900I-2600J0D01*
X1988100I2600J0*
G01X1987400Y2023500D02*
G03X1982200I-2600J0D01*
X1987400I2600J0*
G01X1987100Y1979551D02*
G03X1981900I-2600J-0D01*
G01X1987100D02*
X1987100D01*
X1986761Y1978268D02*
G03X1987100Y1979551I-2261J1283D01*
G01X1986761Y1978268D02*
G03X1986696Y1978021I435J-247D01*
X1987487Y1977615I500J0*
G01X1991600Y1975500D02*
G03X1987487Y1977615I-2600J0D01*
G01X1987323Y1973513D02*
G03X1991600Y1975500I1677J1987D01*
G01X1987323Y1973513D02*
G03X1986677I-323J-382D01*
G01X1982400Y1975500D02*
G03X1986677Y1973513I2600J0D01*
G01X1982848Y1976959D02*
G03X1982400Y1975500I2152J-1459D01*
G01X1982848Y1976959D02*
G03X1982934Y1977240I-414J281D01*
G01X1982934*
G03X1982767Y1977612I-500J-0*
G01X1981900Y1979551D02*
G03X1982767Y1977612I2600J-0D01*
G01X1985500Y2255000D02*
G03X1980300I-2600J0D01*
X1985500I2600J0*
G01X1985095Y1952086D02*
G03X1979895I-2600J-0D01*
G01X1984993Y1951366D02*
G03X1985095Y1952086I-2498J720D01*
G01X1984993Y1951366D02*
G03X1984973Y1951227I480J-139D01*
X1985236Y1950788I500J0*
G01X1986600Y1948500D02*
G03X1985236Y1950788I-2600J0D01*
G01X1981400Y1948500D02*
G03X1986600I2600J0D01*
G01X1981502Y1949220D02*
G03X1981400Y1948500I2498J-720D01*
G01X1981502Y1949220D02*
G03X1981521Y1949358I-481J138D01*
X1981259Y1949798I-500J0*
G01X1979895Y1952086D02*
G03X1981259Y1949798I2600J-0D01*
G01X1980926Y2195805D02*
G03X1979556Y2193514I1230J-2291D01*
G01X1980926Y2195805D02*
G03X1981190Y2196245I-236J440D01*
X1981171Y2196381I-500J0*
G01X1981073Y2197088D02*
G03X1981171Y2196381I2600J0D01*
G01X1981073Y2197088D02*
X1981073D01*
X1986273D02*
G03X1981073I-2600J0D01*
G01X1984903Y2194797D02*
G03X1986273Y2197088I-1230J2291D01*
G01X1984903Y2194797D02*
G03X1984639Y2194357I236J-440D01*
X1984658Y2194221I500J-0*
G01X1984756Y2193514D02*
G03X1984658Y2194221I-2600J-0D01*
G01X1979556Y2193514D02*
G03X1984756I2600J-0D01*
G01X1980763Y1858100D02*
G03X1979276Y1855750I1113J-2350D01*
G01X1980763Y1858100D02*
G03X1981049Y1858551I-214J451D01*
G01X1981049*
G03X1981025Y1858704I-500J0*
G01X1980900Y1859500D02*
G03X1981025Y1858704I2600J-0D01*
G01X1980900Y1859500D02*
X1980900D01*
X1986100D02*
G03X1980900I-2600J0D01*
G01X1985554Y1857906D02*
G03X1986100Y1859500I-2054J1594D01*
G01X1985554Y1857906D02*
G03X1985449Y1857600I395J-306D01*
X1985957Y1857100I500J-0*
G01X1987677Y1856487D02*
G03X1985957Y1857100I-1677J-1987D01*
G01X1987677Y1856487D02*
G03X1988323I323J382D01*
G01X1992600Y1854500D02*
G03X1988323Y1856487I-2600J0D01*
G01Y1852513D02*
G03X1992600Y1854500I1677J1987D01*
G01X1988323Y1852513D02*
G03X1987677I-323J-382D01*
G01X1983728Y1853235D02*
G03X1987677Y1852513I2272J1265D01*
G01X1983728Y1853235D02*
G03X1983063Y1853437I-437J-243D01*
G01X1979276Y1855750D02*
G03X1983063Y1853437I2600J0D01*
G01X1984100Y2135500D02*
G03X1978900I-2600J0D01*
X1984100I2600J0*
G01X1983600Y2324000D02*
G03X1978400I-2600J0D01*
X1983600I2600J0*
G01X1982600Y1885000D02*
G03X1977400I-2600J0D01*
X1982600I2600J0*
G01X1982100Y2315000D02*
G03X1976900I-2600J0D01*
X1982100I2600J0*
G01Y1906500D02*
G03X1976900I-2600J0D01*
X1982100I2600J0*
G01X1981601Y2245490D02*
G03X1976401I-2600J-0D01*
X1981601I2600J-0*
G01X1981600Y1965000D02*
G03X1976400I-2600J0D01*
X1981600I2600J0*
G01X1976845Y2225477D02*
G03X1976000Y2223559I1755J-1918D01*
G01X1976845Y2225477D02*
G03X1977007Y2225846I-338J369D01*
X1976881Y2226178I-500J0*
G01X1976224Y2227905D02*
G03X1976881Y2226178I2600J0D01*
G01X1981424Y2227905D02*
G03X1976224I-2600J0D01*
G01X1980580Y2225987D02*
G03X1981424Y2227905I-1756J1918D01*
G01X1980580Y2225987D02*
G03X1980417Y2225618I337J-369D01*
X1980544Y2225286I500J0*
G01X1981200Y2223559D02*
G03X1980544Y2225286I-2600J0D01*
G01X1976000Y2223559D02*
G03X1981200I2600J0D01*
G01X1980600Y1943000D02*
G03X1975400I-2600J0D01*
X1980600I2600J0*
G01Y1896500D02*
G03X1975400I-2600J0D01*
X1980600I2600J0*
G01X1976796Y2284483D02*
G03X1975280Y2282120I1084J-2363D01*
G01X1976796Y2284483D02*
G03X1977088Y2284938I-208J455D01*
X1977057Y2285109I-500J-0*
G01X1976900Y2286000D02*
G03X1977057Y2285109I2600J-0D01*
G01X1976900Y2286000D02*
X1976900D01*
X1978997Y2288551D02*
G03X1976900Y2286000I503J-2551D01*
G01X1978997Y2288551D02*
G03X1979400Y2289035I-97J490D01*
G01X1984591Y2289222D02*
G03X1979400Y2289035I-2591J-222D01*
G01X1984591Y2289222D02*
G03X1985101Y2288765I498J42D01*
G01X1987765Y2286165D02*
G03X1985101Y2288765I-2600J0D01*
G01X1985422Y2283578D02*
G03X1987765Y2286165I-257J2587D01*
G01X1985422Y2283578D02*
G03X1984972Y2283081I50J-497D01*
X1985054Y2282806I500J-0*
G01X1985480Y2281380D02*
G03X1985054Y2282806I-2600J-0D01*
G01X1985480Y2281380D02*
X1985480D01*
X1984456Y2279312D02*
G03X1985480Y2281380I-1576J2068D01*
G01X1984456Y2279312D02*
G03X1984259Y2278914I303J-398D01*
X1984314Y2278686I500J0*
G01X1984600Y2277500D02*
G03X1984314Y2278686I-2600J0D01*
G01X1979400Y2277500D02*
G03X1984600I2600J0D01*
G01X1980164Y2279341D02*
G03X1979400Y2277500I1836J-1841D01*
G01X1980164Y2279341D02*
G03X1980252Y2279460I-353J354D01*
X1980380Y2279534I-183J465*
G01X1980424Y2279568D02*
G03X1980380Y2279534I1576J-2068D01*
G01X1980424Y2279568D02*
G03X1980621Y2279966I-303J398D01*
X1980567Y2280193I-500J-0*
G01X1980562Y2280201*
G03X1979756Y2280320I-445J-227*
G01X1979716Y2280279D02*
G03X1979756Y2280320I-1836J1841D01*
G01X1979716Y2280279D02*
G03X1979628Y2280160I353J-354D01*
X1979500Y2280086I183J-465*
G01X1975280Y2282120D02*
G03X1979500Y2280086I2600J0D01*
G01X1982400Y2397417D02*
G03X1974200I-4100J-0D01*
X1982400I4100J-0*
G01Y2379700D02*
G03X1974200I-4100J0D01*
X1982400I4100J0*
G01X1979061Y1931303D02*
G03X1974104Y1930204I-2357J-1099D01*
G01X1979061Y1931303D02*
G03X1979987Y1931350I453J211D01*
G01X1985044Y1930500D02*
G03X1979987Y1931350I-2600J0D01*
G01X1980087Y1929402D02*
G03X1985044Y1930500I2357J1098D01*
G01X1980087Y1929402D02*
G03X1979161Y1929354I-453J-211D01*
G01X1974104Y1930204D02*
G03X1979161Y1929354I2600J0D01*
G01X1976786Y2120978D02*
G03X1973400Y2118500I-786J-2478D01*
G01X1976786Y2120979D02*
G03X1977437Y2121455I151J476D01*
G01X1977437*
G03X1977436Y2121468I-501J0*
G01Y2121536D02*
G03Y2121468I2600J-0D01*
G01Y2121536D02*
X1977436D01*
X1977705Y2122689D02*
G03X1977436Y2121536I2331J-1153D01*
G01X1977705Y2122689D02*
G03X1977757Y2122911I-448J222D01*
X1977216Y2123409I-500J-0*
G01X1974400Y2126000D02*
G03X1977216Y2123409I2600J0D01*
G01X1979600Y2126000D02*
G03X1974400I-2600J0D01*
G01X1979600D02*
X1979600D01*
X1979330Y2124847D02*
G03X1979600Y2126000I-2330J1153D01*
G01X1979330Y2124847D02*
G03X1979278Y2124625I448J-222D01*
X1979820Y2124127I500J-0*
G01X1982636Y2121536D02*
G03X1979820Y2124127I-2600J-0D01*
G01X1979250Y2119057D02*
G03X1982636Y2121536I786J2479D01*
G01X1979250Y2119057D02*
G03X1978599Y2118580I-151J-477D01*
G01X1978599*
G03Y2118567I500J0*
G01X1978600Y2118500D02*
G03X1978599Y2118567I-2600J0D01*
G01X1978600Y2118500D02*
X1978600D01*
X1973400D02*
G03X1978600I2600J0D01*
G01X1977362Y2185212D02*
G03X1973000Y2183300I-1762J-1912D01*
G01X1977362Y2185212D02*
G03X1978072Y2185244I339J367D01*
G01X1982600Y2183500D02*
G03X1978072Y2185244I-2600J0D01*
G01X1978238Y2181588D02*
G03X1982600Y2183500I1762J1912D01*
G01X1978238Y2181588D02*
G03X1977528Y2181556I-339J-367D01*
G01X1973000Y2183300D02*
G03X1977528Y2181556I2600J0D01*
G01X1978100Y2069000D02*
G03X1972900I-2600J0D01*
X1978100I2600J0*
G01Y1920000D02*
G03X1972900I-2600J0D01*
X1978100I2600J0*
G01X1977600Y1868000D02*
G03X1972400I-2600J0D01*
X1977600I2600J0*
G01X1976600Y1913000D02*
G03X1971400I-2600J0D01*
X1976600I2600J0*
G01X1974708Y2305363D02*
G03X1971023Y2303000I-1085J-2363D01*
G01X1974708Y2305363D02*
G03X1975414Y2305766I208J454D01*
G01X1980600Y2305500D02*
G03X1975414Y2305766I-2600J0D01*
G01X1976915Y2303137D02*
G03X1980600Y2305500I1085J2363D01*
G01X1976915Y2303137D02*
G03X1976209Y2302734I-208J-454D01*
G01X1971023Y2303000D02*
G03X1976209Y2302734I2600J0D01*
G01X1976100Y2356500D02*
G03X1970900I-2600J0D01*
X1976100I2600J0*
G01X1974600Y2206591D02*
G03X1969400I-2600J0D01*
G01X1972606Y2204063D02*
G03X1974600Y2206591I-606J2528D01*
G01X1972606Y2204063D02*
G03X1972432Y2203983I117J-486D01*
X1972241Y2204002I-145J-478*
G01X1969400Y2206591D02*
G03X1972241Y2204002I2600J0D01*
G01X1974600Y2166500D02*
G03X1969400I-2600J0D01*
X1974600I2600J0*
G01Y2052500D02*
G03X1969400I-2600J0D01*
X1974600I2600J0*
G01X1973100Y2331000D02*
G03X1967900I-2600J0D01*
X1973100I2600J0*
G01X1972100Y2249000D02*
G03X1966900I-2600J0D01*
X1972100I2600J0*
G01X1968384Y2215548D02*
G03X1966900Y2213200I1116J-2348D01*
G01X1968384Y2215548D02*
G03X1968670Y2216000I-214J452D01*
X1968384Y2216452I-500J0*
G01X1966900Y2218800D02*
G03X1968384Y2216452I2600J-0D01*
G01X1966900Y2218800D02*
X1966900D01*
X1972100D02*
G03X1966900I-2600J0D01*
G01X1970616Y2216452D02*
G03X1972100Y2218800I-1116J2348D01*
G01X1970616Y2216452D02*
G03X1970330Y2216000I214J-452D01*
X1970616Y2215548I500J0*
G01X1972100Y2213200D02*
G03X1970616Y2215548I-2600J0D01*
G01X1972100Y2213200D02*
X1972100D01*
X1966900D02*
G03X1972100I2600J0D01*
G01X1972080Y2234400D02*
G03X1966880I-2600J0D01*
X1972080I2600J0*
G01X1971861Y2186239D02*
G03X1966661I-2600J0D01*
X1971861I2600J0*
G01X1969840Y2200612D02*
G03X1966569Y2198100I-671J-2512D01*
G01X1969840Y2200612D02*
G03X1970460Y2200997I130J483D01*
G01X1972404Y2203018D02*
G03X1970460Y2200997I606J-2528D01*
G01X1972404Y2203018D02*
G03X1972578Y2203098I-117J487D01*
X1972769Y2203079I145J479*
G01X1975610Y2200490D02*
G03X1972769Y2203079I-2600J-0D01*
G01X1972338Y2197978D02*
G03X1975610Y2200490I672J2512D01*
G01X1972338Y2197978D02*
G03X1971719Y2197593I-129J-483D01*
G01X1970413Y2195817D02*
G03X1971719Y2197593I-1244J2283D01*
G01X1970413Y2195817D02*
G03X1970152Y2195378I239J-439D01*
X1970466Y2194914I500J-0*
G01X1972100Y2192500D02*
G03X1970466Y2194914I-2600J0D01*
G01X1966900Y2192500D02*
G03X1972100I2600J0D01*
G01X1968256Y2194783D02*
G03X1966900Y2192500I1244J-2283D01*
G01X1968256Y2194783D02*
G03X1968517Y2195222I-239J439D01*
X1968202Y2195686I-500J0*
G01X1966569Y2198100D02*
G03X1968202Y2195686I2600J0D01*
G01X1970100Y2348000D02*
G03X1964900I-2600J0D01*
G01X1970100D02*
X1970100D01*
X1969799Y2346786D02*
G03X1970100Y2348000I-2299J1214D01*
G01X1969799Y2346786D02*
G03X1969742Y2346553I443J-233D01*
X1970525Y2346141I500J0*
G01X1974600Y2344000D02*
G03X1970525Y2346141I-2600J0D01*
G01X1969400Y2344000D02*
G03X1974600I2600J0D01*
G01X1969400D02*
X1969400D01*
X1969701Y2345214D02*
G03X1969400Y2344000I2299J-1214D01*
G01X1969701Y2345214D02*
G03X1969758Y2345447I-443J233D01*
X1968975Y2345859I-500J-0*
G01X1964900Y2348000D02*
G03X1968975Y2345859I2600J0D01*
G01X1968223Y2268877D02*
G03X1963023I-2600J-0D01*
X1968223I2600J-0*
G01X1967100Y2166500D02*
G03X1961900I-2600J0D01*
X1967100I2600J0*
G01Y2023500D02*
G03X1961900I-2600J0D01*
X1967100I2600J0*
G01X1965600Y2361500D02*
G03X1960400I-2600J0D01*
X1965600I2600J0*
G01X1964842Y1920918D02*
G03X1959809Y1920000I-2433J-918D01*
G01X1964842Y1920918D02*
G03X1965340Y1920595I467J176D01*
G01X1968100Y1918000D02*
G03X1965340Y1920595I-2600J0D01*
G01X1963067Y1917082D02*
G03X1968100Y1918000I2433J918D01*
G01X1963067Y1917082D02*
G03X1962569Y1917405I-467J-176D01*
G01X1959809Y1920000D02*
G03X1962569Y1917405I2600J0D01*
G01X1963100Y2123000D02*
G03X1957900I-2600J0D01*
X1963100I2600J0*
G01X1962100Y2422000D02*
G03X1956900I-2600J0D01*
X1962100I2600J0*
G01X1956400Y2336000D02*
X1956400D01*
X1957250Y2337922D02*
G03X1956400Y2336000I1750J-1922D01*
G01X1957250Y2337922D02*
G03X1957413Y2338292I-337J370D01*
X1957330Y2338568I-500J0*
G01X1956900Y2340000D02*
G03X1957330Y2338568I2600J0D01*
G01X1962100Y2340000D02*
G03X1956900I-2600J0D01*
G01X1962100D02*
X1962100D01*
X1961250Y2338078D02*
G03X1962100Y2340000I-1750J1922D01*
G01X1961250Y2338078D02*
G03X1961087Y2337708I337J-370D01*
X1961170Y2337432I500J-0*
G01X1961600Y2336000D02*
G03X1961170Y2337432I-2600J0D01*
G01X1956400Y2336000D02*
G03X1961600I2600J0D01*
G01Y2263000D02*
G03X1956400I-2600J0D01*
X1961600I2600J0*
G01X1957013Y2227177D02*
G03X1956400Y2225500I1987J-1677D01*
G01X1957013Y2227177D02*
G03X1957131Y2227500I-382J323D01*
X1957013Y2227823I-500J0*
G01X1956400Y2229500D02*
G03X1957013Y2227823I2600J0D01*
G01Y2231177D02*
G03X1956400Y2229500I1987J-1677D01*
G01X1957013Y2231177D02*
G03X1957131Y2231500I-382J323D01*
X1957013Y2231823I-500J0*
G01X1956400Y2233500D02*
G03X1957013Y2231823I2600J0D01*
G01Y2235177D02*
G03X1956400Y2233500I1987J-1677D01*
G01X1957013Y2235177D02*
G03X1957131Y2235500I-382J323D01*
X1957013Y2235823I-500J0*
G01X1956400Y2237500D02*
G03X1957013Y2235823I2600J0D01*
G01X1961600Y2237500D02*
G03X1956400I-2600J0D01*
G01X1960987Y2235823D02*
G03X1961600Y2237500I-1987J1677D01*
G01X1960987Y2235823D02*
G03X1960869Y2235500I382J-323D01*
X1960987Y2235177I500J0*
G01X1961600Y2233500D02*
G03X1960987Y2235177I-2600J0D01*
G01Y2231823D02*
G03X1961600Y2233500I-1987J1677D01*
G01X1960987Y2231823D02*
G03X1960869Y2231500I382J-323D01*
X1960987Y2231177I500J0*
G01X1961600Y2229500D02*
G03X1960987Y2231177I-2600J0D01*
G01Y2227823D02*
G03X1961600Y2229500I-1987J1677D01*
G01X1960987Y2227823D02*
G03X1960869Y2227500I382J-323D01*
X1960987Y2227177I500J0*
G01X1961600Y2225500D02*
G03X1960987Y2227177I-2600J0D01*
G01X1956400Y2225500D02*
G03X1961600I2600J0D01*
G01X1961100Y1962500D02*
G03X1955900I-2600J0D01*
X1961100I2600J0*
G01Y1954500D02*
G03X1955900I-2600J0D01*
X1961100I2600J0*
G01X1957934Y1936853D02*
G03X1955900Y1934315I566J-2538D01*
G01X1957934Y1936853D02*
G03X1958322Y1937286I-109J488D01*
G01X1958431Y1937795D02*
G03X1958322Y1937286I2475J-795D01*
G01X1958431Y1937795D02*
G03X1958455Y1937948I-476J153D01*
X1958043Y1938441I-500J0*
G01X1955900Y1941000D02*
G03X1958043Y1938441I2600J0D01*
G01X1961100Y1941000D02*
G03X1955900I-2600J0D01*
G01X1961100D02*
X1961100D01*
X1960975Y1940205D02*
G03X1961100Y1941000I-2475J795D01*
G01X1960975Y1940205D02*
G03X1960951Y1940052I476J-153D01*
X1961363Y1939559I500J-0*
G01X1963506Y1937000D02*
G03X1961363Y1939559I-2600J0D01*
G01X1961472Y1934462D02*
G03X1963506Y1937000I-566J2538D01*
G01X1961472Y1934462D02*
G03X1961084Y1934029I109J-488D01*
G01X1955900Y1934315D02*
G03X1961084Y1934029I2600J-0D01*
G01X1958600Y2251000D02*
G03X1953400I-2600J0D01*
G01X1958600D02*
X1958600D01*
X1958588Y2250747D02*
G03X1958600Y2251000I-2588J253D01*
G01X1958588Y2250747D02*
G03X1958585Y2250699I497J-48D01*
G01X1958585*
G03X1959072Y2250199I500J-0*
G01X1961600Y2247600D02*
G03X1959072Y2250199I-2600J0D01*
G01X1956400Y2247600D02*
G03X1961600I2600J0D01*
G01X1956400D02*
X1956400D01*
X1956412Y2247853D02*
G03X1956400Y2247600I2588J-253D01*
G01X1956412Y2247853D02*
G03X1956415Y2247901I-497J48D01*
G01X1956415*
G03X1955928Y2248401I-500J0*
G01X1953400Y2251000D02*
G03X1955928Y2248401I2600J0D01*
G01X1958600Y2138000D02*
G03X1953400I-2600J0D01*
X1958600I2600J0*
G01X1953140Y2073577D02*
G03X1951604Y2071204I1064J-2373D01*
G01X1953140Y2073577D02*
G03X1953435Y2074033I-205J456D01*
G01X1953435*
G03X1953430Y2074108I-500J-0*
G01X1953400Y2074500D02*
G03X1953430Y2074108I2600J0D01*
G01X1958600Y2074500D02*
G03X1953400I-2600J0D01*
G01X1957064Y2072128D02*
G03X1958600Y2074500I-1064J2372D01*
G01X1957064Y2072128D02*
G03X1956769Y2071672I205J-456D01*
G01X1956769*
G03X1956775Y2071596I500J-0*
G01X1956804Y2071204D02*
G03X1956775Y2071596I-2600J0D01*
G01X1951604Y2071204D02*
G03X1956804I2600J0D01*
G01X1954200Y2321000D02*
G03X1949000I-2600J0D01*
X1954200I2600J0*
G01Y2206400D02*
G03X1949000I-2600J0D01*
G01X1954200D02*
X1954200D01*
X1954151Y2205898D02*
G03X1954200Y2206400I-2551J502D01*
G01X1954151Y2205898D02*
G03X1954142Y2205802I491J-96D01*
X1954508Y2205320I500J0*
G01X1955154Y2205043D02*
G03X1954508Y2205320I-1340J-2229D01*
G01X1955154Y2205043D02*
G03X1955910Y2205427I258J428D01*
G01X1957063Y2207367D02*
G03X1955910Y2205427I1437J-2167D01*
G01X1957063Y2207367D02*
G03X1957286Y2207783I-277J416D01*
X1956901Y2208270I-500J0*
G01X1954900Y2210800D02*
G03X1956901Y2208270I2600J0D01*
G01X1956910Y2213332D02*
G03X1954900Y2210800I590J-2532D01*
G01X1956910Y2213332D02*
G03X1957297Y2213819I-113J487D01*
X1957152Y2214171I-500J0*
G01X1956400Y2216000D02*
G03X1957152Y2214171I2600J0D01*
G01X1961600Y2216000D02*
G03X1956400I-2600J0D01*
G01X1959590Y2213468D02*
G03X1961600Y2216000I-590J2532D01*
G01X1959590Y2213468D02*
G03X1959203Y2212981I113J-487D01*
X1959348Y2212629I500J-0*
G01X1960100Y2210800D02*
G03X1959348Y2212629I-2600J0D01*
G01X1958937Y2208633D02*
G03X1960100Y2210800I-1437J2167D01*
G01X1958937Y2208633D02*
G03X1958714Y2208217I277J-416D01*
X1959099Y2207730I500J-0*
G01X1961100Y2205200D02*
G03X1959099Y2207730I-2600J0D01*
G01X1957160Y2202972D02*
G03X1961100Y2205200I1340J2228D01*
G01X1957160Y2202972D02*
G03X1956404Y2202587I-257J-429D01*
G01X1951214Y2202814D02*
G03X1956404Y2202587I2600J0D01*
G01X1951214Y2202814D02*
X1951214D01*
X1951263Y2203316D02*
G03X1951214Y2202814I2551J-502D01*
G01X1951263Y2203316D02*
G03X1951273Y2203412I-490J96D01*
X1950906Y2203894I-500J0*
G01X1949000Y2206400D02*
G03X1950906Y2203894I2600J0D01*
G01X1956809Y2397417D02*
G03X1948609I-4100J-0D01*
X1956809I4100J-0*
G01Y2379700D02*
G03X1948609I-4100J0D01*
X1956809I4100J0*
G01X1951600Y2447000D02*
G03X1946400I-2600J0D01*
X1951600I2600J0*
G01Y2216500D02*
G03X1946400I-2600J0D01*
X1951600I2600J0*
G01X1946513Y1954177D02*
G03X1945900Y1952500I1987J-1677D01*
G01X1946513Y1954177D02*
G03X1946631Y1954500I-382J323D01*
X1946513Y1954823I-500J0*
G01X1945900Y1956500D02*
G03X1946513Y1954823I2600J0D01*
G01Y1958177D02*
G03X1945900Y1956500I1987J-1677D01*
G01X1946513Y1958177D02*
G03X1946631Y1958500I-382J323D01*
X1946513Y1958823I-500J0*
G01X1945900Y1960500D02*
G03X1946513Y1958823I2600J0D01*
G01X1951100Y1960500D02*
G03X1945900I-2600J0D01*
G01X1950487Y1958823D02*
G03X1951100Y1960500I-1987J1677D01*
G01X1950487Y1958823D02*
G03X1950369Y1958500I382J-323D01*
X1950487Y1958177I500J0*
G01X1951100Y1956500D02*
G03X1950487Y1958177I-2600J0D01*
G01Y1954823D02*
G03X1951100Y1956500I-1987J1677D01*
G01X1950487Y1954823D02*
G03X1950369Y1954500I382J-323D01*
X1950487Y1954177I500J0*
G01X1951100Y1952500D02*
G03X1950487Y1954177I-2600J0D01*
G01X1945900Y1952500D02*
G03X1951100I2600J0D01*
G01X1946513Y1936677D02*
G03X1945900Y1935000I1987J-1677D01*
G01X1946513Y1936677D02*
G03X1946631Y1937000I-382J323D01*
X1946513Y1937323I-500J0*
G01X1945900Y1939000D02*
G03X1946513Y1937323I2600J0D01*
G01Y1940677D02*
G03X1945900Y1939000I1987J-1677D01*
G01X1946513Y1940677D02*
G03X1946631Y1941000I-382J323D01*
X1946513Y1941323I-500J0*
G01X1945900Y1943000D02*
G03X1946513Y1941323I2600J0D01*
G01X1951100Y1943000D02*
G03X1945900I-2600J0D01*
G01X1950487Y1941323D02*
G03X1951100Y1943000I-1987J1677D01*
G01X1950487Y1941323D02*
G03X1950369Y1941000I382J-323D01*
X1950487Y1940677I500J0*
G01X1951100Y1939000D02*
G03X1950487Y1940677I-2600J0D01*
G01Y1937323D02*
G03X1951100Y1939000I-1987J1677D01*
G01X1950487Y1937323D02*
G03X1950369Y1937000I382J-323D01*
X1950487Y1936677I500J0*
G01X1951100Y1935000D02*
G03X1950487Y1936677I-2600J0D01*
G01X1945900Y1935000D02*
G03X1951100I2600J0D01*
G01X1948600Y2100500D02*
G03X1943400I-2600J0D01*
X1948600I2600J0*
G01X1945032Y2342600D02*
G03X1942400Y2340000I-32J-2600D01*
G01X1945032Y2342600D02*
G03X1945538Y2343100I6J500D01*
X1945355Y2343487I-500J-0*
G01X1944400Y2345500D02*
G03X1945355Y2343487I2600J0D01*
G01X1949600Y2345500D02*
G03X1944400I-2600J0D01*
G01X1946968Y2342900D02*
G03X1949600Y2345500I32J2600D01*
G01X1946968Y2342900D02*
G03X1946462Y2342400I-6J-500D01*
X1946645Y2342013I500J0*
G01X1947600Y2340000D02*
G03X1946645Y2342013I-2600J0D01*
G01X1942400Y2340000D02*
G03X1947600I2600J0D01*
G01Y2262500D02*
G03X1942400I-2600J0D01*
X1947600I2600J0*
G01X1944100Y2026500D02*
G03X1938900I-2600J0D01*
X1944100I2600J0*
G01Y1966000D02*
G03X1938900I-2600J0D01*
X1944100I2600J0*
G01X1942600Y2291500D02*
G03X1937400I-2600J0D01*
X1942600I2600J0*
G01Y2251000D02*
G03X1937400I-2600J0D01*
X1942600I2600J0*
G01X1941600Y2220000D02*
G03X1936400I-2600J0D01*
X1941600I2600J0*
G01Y2189000D02*
G03X1936400I-2600J0D01*
X1941600I2600J0*
G01X1942800Y2177500D02*
G03X1934600I-4100J0D01*
X1942800I4100J0*
G01Y2167500D02*
G03X1934600I-4100J0D01*
X1942800I4100J0*
G01Y2157500D02*
G03X1934600I-4100J0D01*
X1942800I4100J0*
G01Y2147500D02*
G03X1934600I-4100J0D01*
X1942800I4100J0*
G01Y2137500D02*
G03X1934600I-4100J0D01*
X1942800I4100J0*
G01X1939100Y2208500D02*
G03X1933900I-2600J0D01*
X1939100I2600J0*
G01X1938600Y2239500D02*
G03X1933400I-2600J0D01*
X1938600I2600J0*
G01X1938100Y2273500D02*
G03X1932900I-2600J0D01*
X1938100I2600J0*
G01X1934100Y1967500D02*
G03X1928900I-2600J0D01*
X1934100I2600J0*
G01X1927100Y1884500D02*
G03X1921900I-2600J0D01*
X1927100I2600J0*
G01X1924100Y1977500D02*
G03X1918900I-2600J0D01*
X1924100I2600J0*
G01X1922600Y2249500D02*
G03X1917400I-2600J0D01*
G01X1922600D02*
X1922600D01*
X1921615Y2247462D02*
G03X1922600Y2249500I-1615J2038D01*
G01X1921615Y2247462D02*
G03X1921426Y2247071I311J-391D01*
X1921857Y2246575I500J-0*
G01X1924100Y2244000D02*
G03X1921857Y2246575I-2600J-0D01*
G01X1918900Y2244000D02*
G03X1924100I2600J0D01*
G01X1918900D02*
X1918900D01*
X1919885Y2246038D02*
G03X1918900Y2244000I1615J-2038D01*
G01X1919885Y2246038D02*
G03X1920074Y2246429I-311J391D01*
X1919643Y2246925I-500J0*
G01X1917400Y2249500D02*
G03X1919643Y2246925I2600J0D01*
G01X1919100Y2170500D02*
G03X1913900I-2600J0D01*
X1919100I2600J0*
G01X1913500Y2455100D02*
G03X1905300I-4100J0D01*
X1913500I4100J0*
G01Y2445100D02*
G03X1905300I-4100J0D01*
X1913500I4100J0*
G01Y2415100D02*
G03X1905300I-4100J0D01*
X1913500I4100J0*
G01Y2405100D02*
G03X1905300I-4100J0D01*
X1913500I4100J0*
G01Y2395100D02*
G03X1905300I-4100J0D01*
X1913500I4100J0*
G01Y2385100D02*
G03X1905300I-4100J0D01*
X1913500I4100J0*
G01Y2375100D02*
G03X1905300I-4100J0D01*
X1913500I4100J0*
G01Y2365100D02*
G03X1905300I-4100J0D01*
X1913500I4100J0*
G01Y2355100D02*
G03X1905300I-4100J0D01*
X1913500I4100J0*
G01Y2345100D02*
G03X1905300I-4100J0D01*
X1913500I4100J0*
G01Y2335100D02*
G03X1905300I-4100J0D01*
X1913500I4100J0*
G01Y2325100D02*
G03X1905300I-4100J0D01*
X1913500I4100J0*
G01Y2315100D02*
G03X1905300I-4100J0D01*
X1913500I4100J0*
G01Y2305100D02*
G03X1905300I-4100J0D01*
X1913500I4100J0*
G01Y2295100D02*
G03X1905300I-4100J0D01*
X1913500I4100J0*
G01Y2285100D02*
G03X1905300I-4100J0D01*
X1913500I4100J0*
G01Y2275100D02*
G03X1905300I-4100J0D01*
X1913500I4100J0*
G01Y2265100D02*
G03X1905300I-4100J0D01*
X1913500I4100J0*
G01Y2235100D02*
G03X1905300I-4100J0D01*
X1913500I4100J0*
G01Y2225100D02*
G03X1905300I-4100J0D01*
X1913500I4100J0*
G01Y2215100D02*
G03X1905300I-4100J0D01*
X1913500I4100J0*
G01Y2205100D02*
G03X1905300I-4100J0D01*
X1913500I4100J0*
G01Y2195100D02*
G03X1905300I-4100J0D01*
X1913500I4100J0*
G01Y2185100D02*
G03X1905300I-4100J0D01*
X1913500I4100J0*
G01Y2175100D02*
G03X1905300I-4100J0D01*
X1913500I4100J0*
G01Y2165100D02*
G03X1905300I-4100J0D01*
X1913500I4100J0*
G01Y2155100D02*
G03X1905300I-4100J0D01*
X1913500I4100J0*
G01Y2145100D02*
G03X1905300I-4100J0D01*
X1913500I4100J0*
G01Y2135100D02*
G03X1905300I-4100J0D01*
X1913500I4100J0*
G01Y2125100D02*
G03X1905300I-4100J0D01*
X1913500I4100J0*
G01Y2115100D02*
G03X1905300I-4100J0D01*
X1913500I4100J0*
G01Y2105100D02*
G03X1905300I-4100J0D01*
X1913500I4100J0*
G01Y2095100D02*
G03X1905300I-4100J0D01*
X1913500I4100J0*
G01Y2085100D02*
G03X1905300I-4100J0D01*
X1913500I4100J0*
G01Y2075100D02*
G03X1905300I-4100J0D01*
X1913500I4100J0*
G01Y2065100D02*
G03X1905300I-4100J0D01*
X1913500I4100J0*
G01Y2055100D02*
G03X1905300I-4100J0D01*
X1913500I4100J0*
G01Y2045100D02*
G03X1905300I-4100J0D01*
X1913500I4100J0*
G01Y2035100D02*
G03X1905300I-4100J0D01*
X1913500I4100J0*
G01Y2025100D02*
G03X1905300I-4100J0D01*
X1913500I4100J0*
G01Y2015100D02*
G03X1905300I-4100J0D01*
X1913500I4100J0*
G01Y2005100D02*
G03X1905300I-4100J0D01*
X1913500I4100J0*
G01Y1995100D02*
G03X1905300I-4100J0D01*
X1913500I4100J0*
G01Y1985100D02*
G03X1905300I-4100J0D01*
X1913500I4100J0*
G01Y1975100D02*
G03X1905300I-4100J0D01*
X1913500I4100J0*
G01X1912995Y1967071D02*
G03X1905300Y1965100I-3595J-1971D01*
G01X1912995Y1967071D02*
G03X1913767Y1966938I439J240D01*
G01X1918100Y1965000D02*
G03X1913767Y1966938I-2600J0D01*
G01X1913704Y1963120D02*
G03X1918100Y1965000I1796J1880D01*
G01X1913704Y1963120D02*
G03X1912929Y1963013I-345J-362D01*
G01X1905300Y1965100D02*
G03X1912929Y1963013I4100J0D01*
G01X1913500Y1955100D02*
G03X1905300I-4100J0D01*
X1913500I4100J0*
G01Y1945100D02*
G03X1905300I-4100J0D01*
X1913500I4100J0*
G01Y1935100D02*
G03X1905300I-4100J0D01*
X1913500I4100J0*
G01Y1925100D02*
G03X1905300I-4100J0D01*
X1913500I4100J0*
G01Y1915100D02*
G03X1905300I-4100J0D01*
X1913500I4100J0*
G01Y1905100D02*
G03X1905300I-4100J0D01*
X1913500I4100J0*
G01Y1895100D02*
G03X1905300I-4100J0D01*
X1913500I4100J0*
G01Y1885100D02*
G03X1905300I-4100J0D01*
X1913500I4100J0*
G01X1905722Y2432264D02*
G03X1904400Y2430000I1278J-2264D01*
G01X1905722Y2432264D02*
G03X1905976Y2432700I-246J436D01*
G01X1905976*
G03X1905903Y2432960I-500J-0*
G01X1905300Y2435100D02*
G03X1905903Y2432960I4100J0D01*
G01X1913500Y2435100D02*
G03X1905300I-4100J0D01*
G01X1909981Y2431041D02*
G03X1913500Y2435100I-581J4059D01*
G01X1909981Y2431041D02*
G03X1909551Y2430546I70J-495D01*
X1909559Y2430458I500J0*
G01X1909600Y2430000D02*
G03X1909559Y2430458I-2600J-0D01*
G01X1909600Y2430000D02*
X1909600D01*
X1909583Y2429706D02*
G03X1909600Y2430000I-2583J294D01*
G01X1909583Y2429706D02*
G03X1909580Y2429649I497J-57D01*
X1910006Y2429155I500J0*
G01X1913500Y2425100D02*
G03X1910006Y2429155I-4100J0D01*
G01X1905300Y2425100D02*
G03X1913500I4100J0D01*
G01X1905825Y2427107D02*
G03X1905300Y2425100I3575J-2007D01*
G01X1905825Y2427107D02*
G03X1905889Y2427352I-436J245D01*
X1905649Y2427779I-500J-0*
G01X1904400Y2430000D02*
G03X1905649Y2427779I2600J0D01*
G01X1902800Y2466899D02*
X2087900D01*
X1902800Y2465999D02*
X2087900D01*
X1902800Y2465099D02*
X2087900D01*
X1902800Y2464199D02*
X2087900D01*
X1902800Y2463299D02*
X2087900D01*
X1902800Y2462399D02*
X2087900D01*
X1902800Y2461499D02*
X2087900D01*
X1902800Y2460599D02*
X2087900D01*
X1902800Y2459699D02*
X2087900D01*
X1911169Y2458799D02*
X2087900D01*
X1912396Y2457899D02*
X2087900D01*
X1913034Y2456999D02*
X2087900D01*
X1913377Y2456099D02*
X2087900D01*
X1913499Y2455199D02*
X2087900D01*
X1913421Y2454299D02*
X2087900D01*
X1913130Y2453399D02*
X2087900D01*
X1912569Y2452499D02*
X2087900D01*
X1911533Y2451599D02*
X2087900D01*
X1902800Y2450699D02*
X2087900D01*
X1902800Y2449799D02*
X2087900D01*
X1950776Y2448899D02*
X2087900D01*
X1951401Y2447999D02*
X2087900D01*
X1951598Y2447099D02*
X2087900D01*
X1951473Y2446199D02*
X2087900D01*
X2021715Y2445299D02*
X2087900D01*
X2022692Y2444399D02*
X2087900D01*
X2023052Y2443499D02*
X2087900D01*
X2023069Y2442599D02*
X2087900D01*
X2022751Y2441699D02*
X2087900D01*
X2021884Y2440799D02*
X2087900D01*
X1902800Y2439899D02*
X2087900D01*
X1910669Y2438999D02*
X2087900D01*
X1912196Y2438099D02*
X2087900D01*
X1912922Y2437199D02*
X2087900D01*
X1913321Y2436299D02*
X2087900D01*
X1913489Y2435399D02*
X2087900D01*
X1913456Y2434499D02*
X2087900D01*
X1913215Y2433599D02*
X2087900D01*
X1912723Y2432699D02*
X2087900D01*
X1911831Y2431799D02*
X2087900D01*
X1909697Y2430899D02*
X2087900D01*
X1909600Y2429999D02*
X2087900D01*
X1910306Y2429099D02*
X2087900D01*
X1912085Y2428199D02*
X2087900D01*
X2052715Y2427299D02*
X2087900D01*
X2053692Y2426399D02*
X2087900D01*
X2054052Y2425499D02*
X2087900D01*
X2054069Y2424599D02*
X2087900D01*
X2053751Y2423699D02*
X2087900D01*
X2052884Y2422799D02*
X2087900D01*
X1962098Y2421899D02*
X2087900D01*
X1961899Y2420999D02*
X2087900D01*
X1961273Y2420099D02*
X2087900D01*
X1909504Y2419199D02*
X2087900D01*
X1911965Y2418299D02*
X2087900D01*
X2022003Y2417399D02*
X2087900D01*
X2023125Y2416499D02*
X2087900D01*
X2023530Y2415599D02*
X2087900D01*
X2023582Y2414699D02*
X2087900D01*
X2023306Y2413799D02*
X2087900D01*
X2022531Y2412899D02*
X2087900D01*
X1912082Y2411999D02*
X2087900D01*
X1910294Y2411099D02*
X2087900D01*
X1902800Y2410199D02*
X2087900D01*
X1902800Y2409299D02*
X2087900D01*
X1911835Y2408399D02*
X2087900D01*
X1912725Y2407499D02*
X2087900D01*
X1913216Y2406599D02*
X2087900D01*
X1913456Y2405699D02*
X2087900D01*
X1913489Y2404799D02*
X2087900D01*
X1913320Y2403899D02*
X2087900D01*
X1912921Y2402999D02*
X2087900D01*
X1912193Y2402099D02*
X2087900D01*
X1979883Y2401199D02*
X2087900D01*
X1981216Y2400299D02*
X2087900D01*
X1981889Y2399399D02*
X2087900D01*
X1982255Y2398499D02*
X2087900D01*
X2030535Y2397599D02*
X2087900D01*
X2031307Y2396699D02*
X2087900D01*
X2031583Y2395799D02*
X2087900D01*
X2031530Y2394899D02*
X2087900D01*
X2031123Y2393999D02*
X2087900D01*
X2029997Y2393099D02*
X2087900D01*
X1912297Y2392199D02*
X2087900D01*
X1910936Y2391299D02*
X2087900D01*
X1902800Y2390399D02*
X2087900D01*
X1902800Y2389499D02*
X2087900D01*
X2077535Y2388599D02*
X2087900D01*
X2078307Y2387699D02*
X2087900D01*
X2078583Y2386799D02*
X2087900D01*
X2078530Y2385899D02*
X2087900D01*
X2078123Y2384999D02*
X2087900D01*
X2076997Y2384099D02*
X2087900D01*
X2021710Y2383199D02*
X2087900D01*
X1981471Y2382299D02*
X2087900D01*
X1982032Y2381399D02*
X2087900D01*
X1982321Y2380499D02*
X2087900D01*
X1982399Y2379599D02*
X2087900D01*
X1982276Y2378699D02*
X2087900D01*
X1981932Y2377799D02*
X2087900D01*
X1981294Y2376899D02*
X2087900D01*
X1980064Y2375999D02*
X2087900D01*
X1913500Y2375099D02*
X2087900D01*
X1913400Y2374199D02*
X2087900D01*
X1913083Y2373299D02*
X2087900D01*
X1912484Y2372399D02*
X2087900D01*
X2045098Y2366099D02*
X2087900D01*
X2044973Y2365199D02*
X2087900D01*
X2044466Y2364299D02*
X2087900D01*
X1964776Y2363399D02*
X2087900D01*
X1965401Y2362499D02*
X2087900D01*
X1965598Y2361599D02*
X2087900D01*
X1986888Y2360699D02*
X2087900D01*
X1987752Y2359799D02*
X2087900D01*
X2063276Y2358899D02*
X2087900D01*
X2063901Y2357999D02*
X2087900D01*
X2064098Y2357099D02*
X2087900D01*
X2063973Y2356199D02*
X2087900D01*
X2063466Y2355299D02*
X2087900D01*
X1975031Y2354399D02*
X2087900D01*
X2025219Y2353499D02*
X2087900D01*
X2026550Y2352599D02*
X2087900D01*
X2027004Y2351699D02*
X2087900D01*
X2027092Y2350799D02*
X2087900D01*
X2026855Y2349899D02*
X2087900D01*
X2026160Y2348999D02*
X2087900D01*
X1970098Y2348099D02*
X2087900D01*
X2069777Y2340899D02*
X2087900D01*
X2069899Y2339999D02*
X2087900D01*
X2069821Y2339099D02*
X2087900D01*
X2069530Y2338199D02*
X2087900D01*
X2068969Y2337299D02*
X2087900D01*
X2067933Y2336399D02*
X2087900D01*
X2012899Y2335499D02*
X2087900D01*
X2012273Y2334599D02*
X2087900D01*
X2067343Y2333699D02*
X2087900D01*
X2068700Y2332799D02*
X2087900D01*
X2069380Y2331899D02*
X2087900D01*
X2069750Y2330999D02*
X2087900D01*
X2069895Y2330099D02*
X2087900D01*
X2069840Y2329199D02*
X2087900D01*
X2069574Y2328299D02*
X2087900D01*
X2069049Y2327399D02*
X2087900D01*
X2068089Y2326499D02*
X2087900D01*
X1983050Y2325599D02*
X2087900D01*
X1983504Y2324699D02*
X2087900D01*
X2067069Y2323799D02*
X2087900D01*
X2068596Y2322899D02*
X2087900D01*
X2069322Y2321999D02*
X2087900D01*
X2069721Y2321099D02*
X2087900D01*
X2069889Y2320199D02*
X2087900D01*
X2069856Y2319299D02*
X2087900D01*
X2069615Y2318399D02*
X2087900D01*
X2069123Y2317499D02*
X2087900D01*
X2068231Y2316599D02*
X2087900D01*
X1982004Y2315699D02*
X2087900D01*
X1982092Y2314799D02*
X2087900D01*
X2066706Y2313899D02*
X2087900D01*
X2068485Y2312999D02*
X2087900D01*
X2069261Y2312099D02*
X2087900D01*
X2069689Y2311199D02*
X2087900D01*
X2069881Y2310299D02*
X2087900D01*
X2069869Y2309399D02*
X2087900D01*
X2069653Y2308499D02*
X2087900D01*
X2069193Y2307599D02*
X2087900D01*
X2068362Y2306699D02*
X2087900D01*
X1980583Y2305799D02*
X2087900D01*
X1980530Y2304899D02*
X2087900D01*
X2069436Y2303999D02*
X2087900D01*
X2069900Y2303099D02*
X2087900D01*
X2069900Y2302199D02*
X2087900D01*
X2069900Y2301299D02*
X2087900D01*
X2069900Y2300399D02*
X2087900D01*
X2069900Y2299499D02*
X2087900D01*
X2069900Y2298599D02*
X2087900D01*
X2069900Y2297699D02*
X2087900D01*
X2069900Y2296799D02*
X2087900D01*
X2069698Y2295899D02*
X2087900D01*
X1913499Y2294999D02*
X2087900D01*
X2020083Y2294099D02*
X2087900D01*
X2021968Y2293199D02*
X2087900D01*
X2022474Y2292299D02*
X2087900D01*
X2022598Y2291399D02*
X2087900D01*
X2022399Y2290499D02*
X2087900D01*
X2021773Y2289599D02*
X2087900D01*
X1985751Y2288699D02*
X2087900D01*
X1987188Y2287799D02*
X2087900D01*
X1987660Y2286899D02*
X2087900D01*
X1987760Y2285999D02*
X2087900D01*
X1987537Y2285099D02*
X2087900D01*
X1986866Y2284199D02*
X2087900D01*
X1985022Y2283299D02*
X2087900D01*
X1995503Y2282399D02*
X2087900D01*
X1996625Y2281499D02*
X2087900D01*
X1997030Y2280599D02*
X2087900D01*
X2024388Y2279699D02*
X2087900D01*
X2025252Y2278799D02*
X2087900D01*
X2025569Y2277899D02*
X2087900D01*
X2025551Y2276999D02*
X2087900D01*
X2025190Y2276099D02*
X2087900D01*
X2071388Y2275199D02*
X2087900D01*
X2072252Y2274299D02*
X2087900D01*
X2072569Y2273399D02*
X2087900D01*
X2072551Y2272499D02*
X2087900D01*
X2072190Y2271599D02*
X2087900D01*
X2071210Y2270699D02*
X2087900D01*
X2050252Y2269799D02*
X2087900D01*
X2050569Y2268899D02*
X2087900D01*
X2050551Y2267999D02*
X2087900D01*
X2050190Y2267099D02*
X2087900D01*
X2049210Y2266199D02*
X2087900D01*
X2054715Y2265299D02*
X2087900D01*
X2055692Y2264399D02*
X2087900D01*
X2056052Y2263499D02*
X2087900D01*
X2056069Y2262599D02*
X2087900D01*
X2055751Y2261699D02*
X2087900D01*
X2054884Y2260799D02*
X2087900D01*
X1904940Y2259899D02*
X2087900D01*
X1910669Y2258999D02*
X2087900D01*
X1912196Y2258099D02*
X2087900D01*
X1984288Y2257199D02*
X2087900D01*
X1985152Y2256299D02*
X2087900D01*
X2044503Y2255399D02*
X2087900D01*
X2045625Y2254499D02*
X2087900D01*
X2046030Y2253599D02*
X2087900D01*
X2046082Y2252699D02*
X2087900D01*
X2045806Y2251799D02*
X2087900D01*
X2045031Y2250899D02*
X2087900D01*
X1971901Y2249999D02*
X2087900D01*
X2010583Y2249099D02*
X2087900D01*
X2012468Y2248199D02*
X2087900D01*
X2012974Y2247299D02*
X2087900D01*
X2013098Y2246399D02*
X2087900D01*
X2045163Y2245499D02*
X2087900D01*
X2071535Y2244599D02*
X2087900D01*
X2072307Y2243699D02*
X2087900D01*
X2072583Y2242799D02*
X2087900D01*
X2072530Y2241899D02*
X2087900D01*
X2072123Y2240999D02*
X2087900D01*
X2070997Y2240099D02*
X2087900D01*
X2016854Y2239199D02*
X2087900D01*
X2017542Y2238299D02*
X2087900D01*
X2055276Y2237399D02*
X2087900D01*
X2055901Y2236499D02*
X2087900D01*
X2056098Y2235599D02*
X2087900D01*
X2055973Y2234699D02*
X2087900D01*
X2055466Y2233799D02*
X2087900D01*
X2044030Y2232899D02*
X2087900D01*
X2043623Y2231999D02*
X2087900D01*
X2042497Y2231099D02*
X2087900D01*
X2019997Y2230199D02*
X2087900D01*
X2019947Y2229299D02*
X2087900D01*
X2019837Y2228399D02*
X2087900D01*
X2055163Y2227499D02*
X2087900D01*
X2055856Y2226599D02*
X2087900D01*
X2056092Y2225699D02*
X2087900D01*
X2056004Y2224799D02*
X2087900D01*
X2055548Y2223899D02*
X2087900D01*
X2054210Y2222999D02*
X2087900D01*
X2017095Y2222099D02*
X2087900D01*
X2016322Y2221199D02*
X2087900D01*
X2015394Y2220299D02*
X2087900D01*
X2055276Y2219399D02*
X2087900D01*
X2055901Y2218499D02*
X2087900D01*
X2056098Y2217599D02*
X2087900D01*
X2072888Y2216699D02*
X2087900D01*
X2073752Y2215799D02*
X2087900D01*
X2074069Y2214899D02*
X2087900D01*
X2074051Y2213999D02*
X2087900D01*
X2073690Y2213099D02*
X2087900D01*
X2072710Y2212199D02*
X2087900D01*
X2071903Y2211299D02*
X2087900D01*
X2072440Y2210399D02*
X2087900D01*
X2072600Y2209499D02*
X2087900D01*
X2072439Y2208599D02*
X2087900D01*
X2071875Y2207699D02*
X2087900D01*
X2058467Y2206799D02*
X2087900D01*
X2055754Y2205899D02*
X2087900D01*
X2055692Y2204999D02*
X2087900D01*
X2056052Y2204099D02*
X2087900D01*
X2056069Y2203199D02*
X2087900D01*
X2055751Y2202299D02*
X2087900D01*
X2055692Y2201399D02*
X2087900D01*
X2056052Y2200499D02*
X2087900D01*
X2056069Y2199599D02*
X2087900D01*
X2055751Y2198699D02*
X2087900D01*
X2054884Y2197799D02*
X2087900D01*
X2037969Y2196899D02*
X2087900D01*
X2038495Y2195999D02*
X2087900D01*
X2038632Y2195099D02*
X2087900D01*
X2038448Y2194199D02*
X2087900D01*
X2037845Y2193299D02*
X2087900D01*
X2028355Y2192399D02*
X2087900D01*
X2027660Y2191499D02*
X2087900D01*
X1971273Y2190599D02*
X2087900D01*
X1941504Y2189699D02*
X2087900D01*
X1969719Y2188799D02*
X2087900D01*
X1971262Y2187899D02*
X2087900D01*
X1971747Y2186999D02*
X2087900D01*
X2033583Y2186099D02*
X2087900D01*
X2035468Y2185199D02*
X2087900D01*
X2035974Y2184299D02*
X2087900D01*
X2036098Y2183399D02*
X2087900D01*
X2036772Y2182499D02*
X2087900D01*
X2037749Y2181599D02*
X2087900D01*
X2038109Y2180699D02*
X2087900D01*
X2038126Y2179799D02*
X2087900D01*
X2037808Y2178899D02*
X2087900D01*
X2036941Y2177999D02*
X2087900D01*
X2012745Y2177099D02*
X2087900D01*
X2012676Y2176199D02*
X2087900D01*
X2012249Y2175299D02*
X2087900D01*
X2079369Y2174399D02*
X2087900D01*
X2080596Y2173499D02*
X2087900D01*
X2081234Y2172599D02*
X2087900D01*
X2081577Y2171699D02*
X2087900D01*
X2081699Y2170799D02*
X2087900D01*
X2081621Y2169899D02*
X2087900D01*
X2081330Y2168999D02*
X2087900D01*
X2080769Y2168099D02*
X2087900D01*
X2079733Y2167199D02*
X2087900D01*
X2007966Y2166299D02*
X2087900D01*
X1974355Y2165399D02*
X2087900D01*
X1973660Y2164499D02*
X2087900D01*
X1939961Y2163599D02*
X2087900D01*
X1912723Y2162699D02*
X2087900D01*
X1911831Y2161799D02*
X2087900D01*
X1940993Y2160899D02*
X2087900D01*
X1941951Y2159999D02*
X2087900D01*
X1942475Y2159099D02*
X2087900D01*
X1942740Y2158199D02*
X2087900D01*
X1942795Y2157299D02*
X2087900D01*
X1942649Y2156399D02*
X2087900D01*
X1942278Y2155499D02*
X2087900D01*
X1941597Y2154599D02*
X2087900D01*
X1940236Y2153699D02*
X2087900D01*
X1912793Y2152799D02*
X2087900D01*
X1911962Y2151899D02*
X2087900D01*
X1940838Y2150999D02*
X2087900D01*
X1994502Y2150099D02*
X2087900D01*
X1995484Y2149199D02*
X2087900D01*
X1995846Y2148299D02*
X2087900D01*
X1995865Y2147399D02*
X2087900D01*
X1995549Y2146499D02*
X2087900D01*
X1994686Y2145599D02*
X2087900D01*
X2078506Y2144699D02*
X2087900D01*
X2080285Y2143799D02*
X2087900D01*
X2081061Y2142899D02*
X2087900D01*
X2081489Y2141999D02*
X2087900D01*
X2081681Y2141099D02*
X2087900D01*
X2081669Y2140199D02*
X2087900D01*
X2081453Y2139299D02*
X2087900D01*
X2080993Y2138399D02*
X2087900D01*
X2080162Y2137499D02*
X2087900D01*
X1983856Y2136599D02*
X2087900D01*
X1984092Y2135699D02*
X2087900D01*
X1984004Y2134799D02*
X2087900D01*
X1983548Y2133899D02*
X2087900D01*
X1982210Y2132999D02*
X2087900D01*
X1912193Y2132099D02*
X2087900D01*
X1910661Y2131199D02*
X2087900D01*
X1902800Y2130299D02*
X2087900D01*
X2082669Y2129399D02*
X2087900D01*
X2084196Y2128499D02*
X2087900D01*
X2084922Y2127599D02*
X2087900D01*
X2085321Y2126699D02*
X2087900D01*
X2085489Y2125799D02*
X2087900D01*
X2085456Y2124899D02*
X2087900D01*
X2085215Y2123999D02*
X2087900D01*
X2084723Y2123099D02*
X2087900D01*
X2083831Y2122199D02*
X2087900D01*
X2014319Y2121299D02*
X2087900D01*
X1982374Y2120399D02*
X2087900D01*
X2082306Y2119499D02*
X2087900D01*
X2084085Y2118599D02*
X2087900D01*
X2084861Y2117699D02*
X2087900D01*
X2085289Y2116799D02*
X2087900D01*
X2085481Y2115899D02*
X2087900D01*
X2085469Y2114999D02*
X2087900D01*
X2085253Y2114099D02*
X2087900D01*
X2084793Y2113199D02*
X2087900D01*
X2083962Y2112299D02*
X2087900D01*
X2044569Y2111399D02*
X2087900D01*
X2048163Y2110499D02*
X2087900D01*
X2081504Y2109599D02*
X2087900D01*
X2083965Y2108699D02*
X2087900D01*
X2084795Y2107799D02*
X2087900D01*
X2085254Y2106899D02*
X2087900D01*
X2085470Y2105999D02*
X2087900D01*
X2085480Y2105099D02*
X2087900D01*
X2085288Y2104199D02*
X2087900D01*
X2084859Y2103299D02*
X2087900D01*
X2084082Y2102399D02*
X2087900D01*
X2082294Y2101499D02*
X2087900D01*
X2038773Y2100599D02*
X2087900D01*
X1988473Y2099699D02*
X2087900D01*
X2083835Y2098799D02*
X2087900D01*
X2084725Y2097899D02*
X2087900D01*
X2085216Y2096999D02*
X2087900D01*
X2085456Y2096099D02*
X2087900D01*
X2085489Y2095199D02*
X2087900D01*
X2085320Y2094299D02*
X2087900D01*
X2084921Y2093399D02*
X2087900D01*
X2084193Y2092499D02*
X2087900D01*
X2082661Y2091599D02*
X2087900D01*
X1902800Y2090699D02*
X2087900D01*
X1902800Y2089799D02*
X2087900D01*
X2083693Y2088899D02*
X2087900D01*
X2084651Y2087999D02*
X2087900D01*
X2085175Y2087099D02*
X2087900D01*
X2085440Y2086199D02*
X2087900D01*
X2085495Y2085299D02*
X2087900D01*
X2085349Y2084399D02*
X2087900D01*
X2084978Y2083499D02*
X2087900D01*
X2084297Y2082599D02*
X2087900D01*
X2082936Y2081699D02*
X2087900D01*
X1902800Y2080799D02*
X2087900D01*
X1902800Y2079899D02*
X2087900D01*
X2083538Y2078999D02*
X2087900D01*
X2084571Y2078099D02*
X2087900D01*
X2085132Y2077199D02*
X2087900D01*
X2085421Y2076299D02*
X2087900D01*
X2085499Y2075399D02*
X2087900D01*
X2085376Y2074499D02*
X2087900D01*
X2085032Y2073599D02*
X2087900D01*
X2084394Y2072699D02*
X2087900D01*
X2083164Y2071799D02*
X2087900D01*
X1977276Y2070899D02*
X2087900D01*
X1977901Y2069999D02*
X2087900D01*
X2083365Y2069099D02*
X2087900D01*
X2084487Y2068199D02*
X2087900D01*
X2085084Y2067299D02*
X2087900D01*
X2085400Y2066399D02*
X2087900D01*
X2085500Y2065499D02*
X2087900D01*
X2085400Y2064599D02*
X2087900D01*
X2085083Y2063699D02*
X2087900D01*
X2084484Y2062799D02*
X2087900D01*
X2083360Y2061899D02*
X2087900D01*
X1902800Y2060999D02*
X2087900D01*
X2048035Y2060099D02*
X2087900D01*
X2083169Y2059199D02*
X2087900D01*
X2084396Y2058299D02*
X2087900D01*
X2085034Y2057399D02*
X2087900D01*
X2085377Y2056499D02*
X2087900D01*
X2085499Y2055599D02*
X2087900D01*
X2085421Y2054699D02*
X2087900D01*
X2085130Y2053799D02*
X2087900D01*
X2084569Y2052899D02*
X2087900D01*
X2083533Y2051999D02*
X2087900D01*
X1974190Y2051099D02*
X2087900D01*
X1973210Y2050199D02*
X2087900D01*
X2082943Y2049299D02*
X2087900D01*
X2084300Y2048399D02*
X2087900D01*
X2084980Y2047499D02*
X2087900D01*
X2085350Y2046599D02*
X2087900D01*
X2085495Y2045699D02*
X2087900D01*
X2085440Y2044799D02*
X2087900D01*
X2085174Y2043899D02*
X2087900D01*
X2084649Y2042999D02*
X2087900D01*
X2083689Y2042099D02*
X2087900D01*
X2013773Y2041199D02*
X2087900D01*
X1902800Y2040299D02*
X2087900D01*
X2082669Y2039399D02*
X2087900D01*
X2084196Y2038499D02*
X2087900D01*
X2084922Y2037599D02*
X2087900D01*
X2085321Y2036699D02*
X2087900D01*
X2085489Y2035799D02*
X2087900D01*
X2085456Y2034899D02*
X2087900D01*
X2085215Y2033999D02*
X2087900D01*
X2084723Y2033099D02*
X2087900D01*
X2083831Y2032199D02*
X2087900D01*
X2074083Y2031299D02*
X2087900D01*
X2074030Y2030399D02*
X2087900D01*
X2073623Y2029499D02*
X2087900D01*
X2072497Y2028599D02*
X2087900D01*
X1943807Y2027699D02*
X2087900D01*
X1944083Y2026799D02*
X2087900D01*
X1985803Y2025899D02*
X2087900D01*
X1986925Y2024999D02*
X2087900D01*
X1987330Y2024099D02*
X2087900D01*
X1987382Y2023199D02*
X2087900D01*
X1987106Y2022299D02*
X2087900D01*
X1986331Y2021399D02*
X2087900D01*
X2075719Y2020499D02*
X2087900D01*
X2077050Y2019599D02*
X2087900D01*
X2077504Y2018699D02*
X2087900D01*
X2077592Y2017799D02*
X2087900D01*
X2077355Y2016899D02*
X2087900D01*
X2077306Y2015999D02*
X2087900D01*
X2078504Y2015099D02*
X2087900D01*
X2079145Y2014199D02*
X2087900D01*
X2079491Y2013299D02*
X2087900D01*
X2079615Y2012399D02*
X2087900D01*
X2079539Y2011499D02*
X2087900D01*
X2079251Y2010599D02*
X2087900D01*
X2078693Y2009699D02*
X2087900D01*
X2077665Y2008799D02*
X2087900D01*
X1912396Y2007899D02*
X2087900D01*
X1913034Y2006999D02*
X2087900D01*
X2036083Y2006099D02*
X2087900D01*
X2037968Y2005199D02*
X2087900D01*
X2038474Y2004299D02*
X2087900D01*
X2038598Y2003399D02*
X2087900D01*
X2038399Y2002499D02*
X2087900D01*
X2037773Y2001599D02*
X2087900D01*
X1902800Y2000699D02*
X2087900D01*
X1902800Y1999799D02*
X2087900D01*
X1910943Y1998899D02*
X2087900D01*
X1912300Y1997999D02*
X2087900D01*
X1912980Y1997099D02*
X2087900D01*
X1913350Y1996199D02*
X2087900D01*
X1913495Y1995299D02*
X2087900D01*
X1913440Y1994399D02*
X2087900D01*
X2079219Y1993499D02*
X2087900D01*
X2080550Y1992599D02*
X2087900D01*
X2081004Y1991699D02*
X2087900D01*
X2081092Y1990799D02*
X2087900D01*
X2080855Y1989899D02*
X2087900D01*
X2080160Y1988999D02*
X2087900D01*
X2079374Y1988099D02*
X2087900D01*
X2079586Y1987199D02*
X2087900D01*
X2079597Y1986299D02*
X2087900D01*
X2079405Y1985399D02*
X2087900D01*
X2078975Y1984499D02*
X2087900D01*
X2078198Y1983599D02*
X2087900D01*
X2076411Y1982699D02*
X2087900D01*
X2038252Y1981799D02*
X2087900D01*
X2038569Y1980899D02*
X2087900D01*
X2038551Y1979999D02*
X2087900D01*
X2038190Y1979099D02*
X2087900D01*
X2037210Y1978199D02*
X2087900D01*
X1990877Y1977299D02*
X2087900D01*
X1991440Y1976399D02*
X2087900D01*
X1991600Y1975499D02*
X2087900D01*
X1991439Y1974599D02*
X2087900D01*
X1990875Y1973699D02*
X2087900D01*
X1912793Y1972799D02*
X2087900D01*
X1911962Y1971899D02*
X2087900D01*
X1902800Y1970999D02*
X2087900D01*
X2029169Y1970099D02*
X2087900D01*
X2030396Y1969199D02*
X2087900D01*
X2031034Y1968299D02*
X2087900D01*
X2031377Y1967399D02*
X2087900D01*
X2078135Y1966499D02*
X2087900D01*
X2079025Y1965599D02*
X2087900D01*
X2079516Y1964699D02*
X2087900D01*
X2079756Y1963799D02*
X2087900D01*
X2079789Y1962899D02*
X2087900D01*
X2079620Y1961999D02*
X2087900D01*
X2079221Y1961099D02*
X2087900D01*
X2078493Y1960199D02*
X2087900D01*
X2076961Y1959299D02*
X2087900D01*
X2005031Y1958399D02*
X2087900D01*
X2003781Y1957499D02*
X2087900D01*
X2005035Y1956599D02*
X2087900D01*
X2005807Y1955699D02*
X2087900D01*
X2006083Y1954799D02*
X2087900D01*
X2006030Y1953899D02*
X2087900D01*
X2005623Y1952999D02*
X2087900D01*
X2005550Y1952099D02*
X2087900D01*
X2006004Y1951199D02*
X2087900D01*
X2006092Y1950299D02*
X2087900D01*
X2005855Y1949399D02*
X2087900D01*
X2005160Y1948499D02*
X2087900D01*
X1986439Y1947599D02*
X2087900D01*
X2052888Y1946699D02*
X2087900D01*
X2053752Y1945799D02*
X2087900D01*
X2054069Y1944899D02*
X2087900D01*
X2054051Y1943999D02*
X2087900D01*
X2053690Y1943099D02*
X2087900D01*
X2052710Y1942199D02*
X2087900D01*
X2077489Y1941299D02*
X2087900D01*
X2078705Y1940399D02*
X2087900D01*
X2079339Y1939499D02*
X2087900D01*
X2079679Y1938599D02*
X2087900D01*
X2079799Y1937699D02*
X2087900D01*
X2079719Y1936799D02*
X2087900D01*
X2079426Y1935899D02*
X2087900D01*
X2078861Y1934999D02*
X2087900D01*
X2077818Y1934099D02*
X2087900D01*
X1991928Y1933199D02*
X2087900D01*
X1991548Y1932299D02*
X2087900D01*
X2022276Y1931399D02*
X2087900D01*
X2022901Y1930499D02*
X2087900D01*
X2023098Y1929599D02*
X2087900D01*
X2022973Y1928699D02*
X2087900D01*
X2022466Y1927799D02*
X2087900D01*
X1913084Y1926899D02*
X2087900D01*
X1913400Y1925999D02*
X2087900D01*
X1913500Y1925099D02*
X2087900D01*
X1913400Y1924199D02*
X2087900D01*
X1913083Y1923299D02*
X2087900D01*
X1987503Y1922399D02*
X2087900D01*
X1988625Y1921499D02*
X2087900D01*
X1989030Y1920599D02*
X2087900D01*
X2029835Y1919699D02*
X2087900D01*
X2030725Y1918799D02*
X2087900D01*
X2031216Y1917899D02*
X2087900D01*
X2031456Y1916999D02*
X2087900D01*
X2031489Y1916099D02*
X2087900D01*
X2031320Y1915199D02*
X2087900D01*
X2030921Y1914299D02*
X2087900D01*
X2030193Y1913399D02*
X2087900D01*
X2028661Y1912499D02*
X2087900D01*
X2018530Y1911599D02*
X2087900D01*
X2018582Y1910699D02*
X2087900D01*
X2018306Y1909799D02*
X2087900D01*
X2017531Y1908899D02*
X2087900D01*
X2069599Y1907999D02*
X2087900D01*
X2071125Y1907099D02*
X2087900D01*
X2071725Y1906199D02*
X2087900D01*
X2071975Y1905299D02*
X2087900D01*
X2071960Y1904399D02*
X2087900D01*
X2071677Y1903499D02*
X2087900D01*
X2071069Y1902599D02*
X2087900D01*
X2071447Y1901699D02*
X2087900D01*
X2071871Y1900799D02*
X2087900D01*
X2072000Y1899899D02*
X2087900D01*
X2071870Y1898999D02*
X2087900D01*
X2071445Y1898099D02*
X2087900D01*
X2071070Y1897199D02*
X2087900D01*
X2071678Y1896299D02*
X2087900D01*
X2071961Y1895399D02*
X2087900D01*
X2071975Y1894499D02*
X2087900D01*
X2071723Y1893599D02*
X2087900D01*
X2071127Y1892699D02*
X2087900D01*
X2071376Y1891799D02*
X2087900D01*
X2071840Y1890899D02*
X2087900D01*
X2071998Y1889999D02*
X2087900D01*
X2071898Y1889099D02*
X2087900D01*
X2071510Y1888199D02*
X2087900D01*
X2071038Y1887299D02*
X2087900D01*
X2071627Y1886399D02*
X2087900D01*
X2071943Y1885499D02*
X2087900D01*
X2071986Y1884599D02*
X2087900D01*
X2071766Y1883699D02*
X2087900D01*
X2071213Y1882799D02*
X2087900D01*
X2069910Y1881899D02*
X2087900D01*
X2035163Y1880999D02*
X2087900D01*
X2081583Y1880099D02*
X2087900D01*
X2083468Y1879199D02*
X2087900D01*
X2083974Y1878299D02*
X2087900D01*
X2086503Y1877399D02*
X2087897D01*
X2069434Y2341799D02*
X2087896D01*
X1969973Y2347199D02*
X2087895D01*
X2044901Y2366999D02*
X2087704D01*
X1903264Y2467799D02*
X2087436D01*
X1911360Y2371499D02*
X2086837D01*
X2044276Y2367899D02*
X2086452D01*
X1902800Y2370599D02*
X2086144D01*
X1911169Y2368799D02*
X2085996D01*
X1902800Y2369699D02*
X2085908D01*
X2068796Y2342699D02*
X2084125D01*
X1973215Y2346299D02*
X2084123D01*
X1902800Y1872899D02*
X2083806D01*
X2067569Y2343599D02*
X2083561D01*
X1974192Y2345399D02*
X2083560D01*
X1974552Y2344499D02*
X2083400D01*
X1902800Y1873799D02*
X2083194D01*
X1902800Y1874699D02*
X2082909D01*
X2035856Y1880099D02*
X2081417D01*
X2051504Y2109599D02*
X2081296D01*
X2052294Y2101499D02*
X2080506D01*
X2052306Y2119499D02*
X2080494D01*
X2052661Y2091599D02*
X2080139D01*
X2052669Y2129399D02*
X2080131D01*
X2052669Y2039399D02*
X2080131D01*
X2052936Y2081699D02*
X2079864D01*
X2052943Y2049299D02*
X2079857D01*
X1902800Y1875599D02*
X2079727D01*
X2053164Y2071799D02*
X2079636D01*
X2053169Y2059199D02*
X2079631D01*
X2036092Y1879199D02*
X2079532D01*
X2053360Y2061899D02*
X2079440D01*
X2053365Y2069099D02*
X2079435D01*
X2053533Y2051999D02*
X2079267D01*
X2053538Y2078999D02*
X2079262D01*
X2053689Y2042099D02*
X2079111D01*
X2053693Y2088899D02*
X2079107D01*
X2034210Y1876499D02*
X2079101D01*
X2036004Y1878299D02*
X2079026D01*
X2053831Y2122199D02*
X2078969D01*
X2073807Y2032199D02*
X2078969D01*
X2053835Y2098799D02*
X2078965D01*
X2035548Y1877399D02*
X2078902D01*
X2053962Y2112299D02*
X2078838D01*
X2053965Y2108699D02*
X2078835D01*
X2054082Y2102399D02*
X2078718D01*
X2054085Y2118599D02*
X2078715D01*
X2054193Y2092499D02*
X2078607D01*
X2054196Y2128499D02*
X2078604D01*
X2054196Y2038499D02*
X2078604D01*
X2054297Y2082599D02*
X2078503D01*
X2054300Y2048399D02*
X2078500D01*
X2054394Y2072699D02*
X2078406D01*
X2054396Y2058299D02*
X2078404D01*
X2054484Y2062799D02*
X2078316D01*
X2054487Y2068199D02*
X2078313D01*
X2054569Y2052899D02*
X2078231D01*
X2054571Y2078099D02*
X2078229D01*
X2054649Y2042999D02*
X2078151D01*
X2054651Y2087999D02*
X2078149D01*
X2054723Y2123099D02*
X2078077D01*
X2073035Y2033099D02*
X2078077D01*
X2054725Y2097899D02*
X2078075D01*
X2054793Y2113199D02*
X2078007D01*
X2054795Y2107799D02*
X2078005D01*
X2054859Y2103299D02*
X2077941D01*
X2054861Y2117699D02*
X2077939D01*
X2054921Y2093399D02*
X2077879D01*
X2054922Y2127599D02*
X2077878D01*
X2054922Y2037599D02*
X2077878D01*
X2054978Y2083499D02*
X2077822D01*
X2054980Y2047499D02*
X2077820D01*
X2037663Y1993499D02*
X2077781D01*
X2055032Y2073599D02*
X2077768D01*
X2055034Y2057399D02*
X2077766D01*
X2055083Y2063699D02*
X2077717D01*
X2055084Y2067299D02*
X2077716D01*
X2055130Y2053799D02*
X2077670D01*
X2055132Y2077199D02*
X2077668D01*
X2055174Y2043899D02*
X2077626D01*
X2055175Y2087099D02*
X2077625D01*
X2055215Y2123999D02*
X2077585D01*
X2055215Y2033999D02*
X2077585D01*
X2055216Y2096999D02*
X2077584D01*
X2055253Y2114099D02*
X2077547D01*
X2055254Y2106899D02*
X2077546D01*
X2055288Y2104199D02*
X2077512D01*
X2055289Y2116799D02*
X2077511D01*
X2055320Y2094299D02*
X2077480D01*
X2055321Y2126699D02*
X2077479D01*
X2055321Y2036699D02*
X2077479D01*
X2055349Y2084399D02*
X2077451D01*
X2055350Y2046599D02*
X2077450D01*
X2055376Y2074499D02*
X2077424D01*
X2055377Y2056499D02*
X2077423D01*
X2055400Y2064599D02*
X2077400D01*
X2055400Y2066399D02*
X2077400D01*
X2055421Y2054699D02*
X2077379D01*
X2055421Y2076299D02*
X2077379D01*
X2055440Y2044799D02*
X2077360D01*
X2055440Y2086199D02*
X2077360D01*
X2055456Y2124899D02*
X2077344D01*
X2055456Y2034899D02*
X2077344D01*
X2055456Y2096099D02*
X2077344D01*
X2055469Y2114999D02*
X2077331D01*
X2055470Y2105999D02*
X2077330D01*
X2055480Y2105099D02*
X2077320D01*
X2055481Y2115899D02*
X2077319D01*
X2055489Y2095199D02*
X2077311D01*
X2055489Y2125799D02*
X2077311D01*
X2055489Y2035799D02*
X2077311D01*
X2055495Y2085299D02*
X2077305D01*
X2055495Y2045699D02*
X2077305D01*
X2055499Y2075399D02*
X2077301D01*
X2055499Y2055599D02*
X2077301D01*
X2055500Y2065499D02*
X2077300D01*
X2068506Y2144699D02*
X2076694D01*
X2038356Y1992599D02*
X2076450D01*
X2038592Y1991699D02*
X2075996D01*
X2069369Y2174399D02*
X2075831D01*
X2069733Y2167199D02*
X2075467D01*
X2057904Y1990799D02*
X2075413D01*
X2070162Y2137499D02*
X2075038D01*
X2022690Y2384099D02*
X2075003D01*
X2070285Y2143799D02*
X2074915D01*
X2058694Y1982699D02*
X2074622D01*
X2070596Y2173499D02*
X2074604D01*
X1911538Y2388599D02*
X2074465D01*
X2059244Y1959299D02*
X2074439D01*
X2070769Y2168099D02*
X2074431D01*
X1902800Y2020499D02*
X2074281D01*
X2070993Y2138399D02*
X2074207D01*
X2071061Y2142899D02*
X2074139D01*
X2071234Y2172599D02*
X2073966D01*
X2059772Y1941299D02*
X2073911D01*
X2023051Y2384999D02*
X2073877D01*
X2071330Y2168999D02*
X2073870D01*
X2071453Y2139299D02*
X2073747D01*
X2071489Y2141999D02*
X2073711D01*
X2021888Y2387699D02*
X2073693D01*
X2071577Y2171699D02*
X2073623D01*
X2060101Y1934099D02*
X2073582D01*
X2071621Y2169899D02*
X2073579D01*
X2071669Y2140199D02*
X2073531D01*
X2071681Y2141099D02*
X2073519D01*
X2071699Y2170799D02*
X2073501D01*
X2023069Y2385899D02*
X2073470D01*
X2022752Y2386799D02*
X2073417D01*
X2059949Y2008799D02*
X2073368D01*
X2060418Y1966499D02*
X2073265D01*
X2059549Y2015999D02*
X2073191D01*
X2060365Y1989899D02*
X2072952D01*
X1902800Y2019599D02*
X2072950D01*
X2060777Y1960199D02*
X2072907D01*
X2060482Y1983599D02*
X2072835D01*
X2060988Y1940399D02*
X2072695D01*
X1913084Y2016899D02*
X2072645D01*
X2061145Y1934999D02*
X2072539D01*
X2060787Y2015099D02*
X2072529D01*
X1911365Y2018699D02*
X2072496D01*
X1912487Y2017799D02*
X2072408D01*
X2061309Y1965599D02*
X2072375D01*
X2060977Y2009699D02*
X2072340D01*
X2061504Y1961099D02*
X2072179D01*
X2061195Y1988999D02*
X2072122D01*
X2061622Y1939499D02*
X2072061D01*
X2061259Y1984499D02*
X2072058D01*
X2061709Y1935899D02*
X2071974D01*
X2061429Y2014199D02*
X2071888D01*
X2061800Y1964699D02*
X2071884D01*
X2061535Y2010599D02*
X2071782D01*
X2061904Y1961999D02*
X2071780D01*
X2061962Y1938599D02*
X2071721D01*
X2062003Y1936799D02*
X2071681D01*
X2061654Y1988099D02*
X2071662D01*
X2062040Y1963799D02*
X2071644D01*
X2061688Y1985399D02*
X2071629D01*
X2062072Y1962899D02*
X2071611D01*
X2062082Y1937699D02*
X2071601D01*
X2061774Y2013299D02*
X2071542D01*
X2061823Y2011499D02*
X2071494D01*
X2061870Y1987199D02*
X2071447D01*
X2061880Y1986299D02*
X2071436D01*
X2061899Y2012399D02*
X2071418D01*
X1943035Y2028599D02*
X2070503D01*
X2055973Y2216699D02*
X2070112D01*
X2054723Y2033099D02*
X2069965D01*
X2056092Y2212199D02*
X2069561D01*
X1902800Y2029499D02*
X2069377D01*
X2055856Y2213099D02*
X2069310D01*
X2055466Y2215799D02*
X2069248D01*
X2053831Y2032199D02*
X2069193D01*
X2016035Y2240099D02*
X2069003D01*
X1995031Y2030399D02*
X2068970D01*
X2055163Y2213999D02*
X2068949D01*
X2054454Y2214899D02*
X2068931D01*
X2014319Y2031299D02*
X2068917D01*
X2049388Y2270699D02*
X2068790D01*
X2024210Y2275199D02*
X2068612D01*
X2045856Y2244599D02*
X2068465D01*
X2058980Y2207699D02*
X2068125D01*
X2056183Y2211299D02*
X2068123D01*
X2064599Y1907999D02*
X2068001D01*
X2044210Y2240999D02*
X2067877D01*
X1937273Y2271599D02*
X2067810D01*
X1937974Y2274299D02*
X2067748D01*
X2046092Y2243699D02*
X2067693D01*
X2064910Y1881899D02*
X2067690D01*
X2059108Y2208599D02*
X2067561D01*
X2058296Y2210399D02*
X2067560D01*
X2045548Y2241899D02*
X2067470D01*
X1937899Y2272499D02*
X2067449D01*
X1938098Y2273399D02*
X2067431D01*
X2046004Y2242799D02*
X2067417D01*
X2058914Y2209499D02*
X2067400D01*
X2058506Y2144699D02*
X2066694D01*
X2059369Y2174399D02*
X2065831D01*
X2059733Y2167199D02*
X2065467D01*
X2060162Y2137499D02*
X2065038D01*
X2060285Y2143799D02*
X2064915D01*
X2056706Y2313899D02*
X2064894D01*
X2060596Y2173499D02*
X2064604D01*
X2057069Y2323799D02*
X2064531D01*
X2060769Y2168099D02*
X2064431D01*
X2057343Y2333699D02*
X2064257D01*
X2060993Y2138399D02*
X2064207D01*
X2061061Y2142899D02*
X2064139D01*
X2057569Y2343599D02*
X2064031D01*
X2061234Y2172599D02*
X2063966D01*
X2061330Y2168999D02*
X2063870D01*
X2061453Y2139299D02*
X2063747D01*
X2061489Y2141999D02*
X2063711D01*
X2057933Y2336399D02*
X2063667D01*
X2061577Y2171699D02*
X2063623D01*
X2061621Y2169899D02*
X2063579D01*
X2061669Y2140199D02*
X2063531D01*
X2061681Y2141099D02*
X2063519D01*
X2058089Y2326499D02*
X2063511D01*
X2061699Y2170799D02*
X2063501D01*
X2058231Y2316599D02*
X2063369D01*
X2058362Y2306699D02*
X2063238D01*
X2058485Y2312999D02*
X2063115D01*
X2058596Y2322899D02*
X2063004D01*
X2001552Y1907999D02*
X2063001D01*
X2058700Y2332799D02*
X2062900D01*
X2058796Y2342699D02*
X2062804D01*
X2008569Y1881899D02*
X2062690D01*
X2058969Y2337299D02*
X2062631D01*
X2059049Y2327399D02*
X2062551D01*
X2059123Y2317499D02*
X2062477D01*
X2059193Y2307599D02*
X2062407D01*
X2059261Y2312099D02*
X2062339D01*
X2059322Y2321999D02*
X2062278D01*
X2059380Y2331899D02*
X2062220D01*
X2059434Y2341799D02*
X2062166D01*
X2055904Y2303999D02*
X2062164D01*
X2059530Y2338199D02*
X2062070D01*
X2059574Y2328299D02*
X2062026D01*
X2059615Y2318399D02*
X2061985D01*
X2059653Y2308499D02*
X2061947D01*
X2059689Y2311199D02*
X2061911D01*
X2056694Y2295899D02*
X2061902D01*
X2059721Y2321099D02*
X2061879D01*
X2059750Y2330999D02*
X2061850D01*
X2059777Y2340899D02*
X2061823D01*
X2059821Y2339099D02*
X2061779D01*
X2059840Y2329199D02*
X2061760D01*
X2059856Y2319299D02*
X2061744D01*
X2059869Y2309399D02*
X2061731D01*
X2059881Y2310299D02*
X2061719D01*
X2059889Y2320199D02*
X2061711D01*
X2059895Y2330099D02*
X2061705D01*
X2059899Y2339999D02*
X2061701D01*
X2058365Y2303099D02*
X2061700D01*
X2059195Y2302199D02*
X2061700D01*
X2059654Y2301299D02*
X2061700D01*
X2059870Y2300399D02*
X2061700D01*
X2059880Y2299499D02*
X2061700D01*
X2059688Y2298599D02*
X2061700D01*
X2059259Y2297699D02*
X2061700D01*
X2058482Y2296799D02*
X2061700D01*
X1981215Y1887299D02*
X2061562D01*
X2031035Y1902599D02*
X2061531D01*
X2037468Y1897199D02*
X2061530D01*
X2001569Y1907099D02*
X2061475D01*
X2018968Y1892699D02*
X2061473D01*
X2008252Y1882799D02*
X2061387D01*
X2019474Y1891799D02*
X2061224D01*
X2035583Y1898099D02*
X2061155D01*
X2031807Y1901699D02*
X2061153D01*
X1912085Y1888199D02*
X2061090D01*
X1982192Y1886399D02*
X2060973D01*
X1913174Y1903499D02*
X2060923D01*
X2037974Y1896299D02*
X2060922D01*
X2037273Y1893599D02*
X2060877D01*
X2001251Y1906199D02*
X2060875D01*
X2007388Y1883699D02*
X2060834D01*
X2019598Y1890899D02*
X2060760D01*
X2031623Y1898999D02*
X2060730D01*
X2032083Y1900799D02*
X2060729D01*
X2018773Y1889099D02*
X2060702D01*
X1982552Y1885499D02*
X2060657D01*
X1981031Y1904399D02*
X2060640D01*
X2038098Y1895399D02*
X2060639D01*
X2037899Y1894499D02*
X2060625D01*
X2000384Y1905299D02*
X2060625D01*
X1982569Y1884599D02*
X2060614D01*
X2019399Y1889999D02*
X2060602D01*
X2032030Y1899899D02*
X2060600D01*
X1988069Y2358899D02*
X2059724D01*
X1975806Y2355299D02*
X2059534D01*
X1988051Y2357999D02*
X2059099D01*
X1986710Y2356199D02*
X2059027D01*
X1987690Y2357099D02*
X2058902D01*
X2038504Y1990799D02*
X2057696D01*
X2037388Y1982699D02*
X2056906D01*
X2005806Y1959299D02*
X2056723D01*
X2048506Y2144699D02*
X2056694D01*
X2006098Y1941299D02*
X2056195D01*
X1913400Y2015999D02*
X2056051D01*
X2006283Y1934099D02*
X2055866D01*
X2049369Y2174399D02*
X2055831D01*
X1980123Y2303999D02*
X2055696D01*
X1911169Y2008799D02*
X2055651D01*
X2031499Y1966499D02*
X2055549D01*
X2049733Y2167199D02*
X2055467D01*
X2038048Y1989899D02*
X2055235D01*
X2024210Y1960199D02*
X2055190D01*
X1913215Y1983599D02*
X2055118D01*
X2050162Y2137499D02*
X2055038D01*
X2005973Y1940399D02*
X2054978D01*
X2050285Y2143799D02*
X2054915D01*
X1913421Y2295899D02*
X2054906D01*
X1981855Y2313899D02*
X2054894D01*
X2010034Y1934999D02*
X2054822D01*
X1913500Y2015099D02*
X2054813D01*
X2031421Y1965599D02*
X2054658D01*
X1902800Y2009699D02*
X2054623D01*
X2050596Y2173499D02*
X2054604D01*
X1983592Y2323799D02*
X2054531D01*
X2045806Y2206799D02*
X2054505D01*
X2025190Y1961099D02*
X2054463D01*
X2050769Y2168099D02*
X2054431D01*
X2036710Y1988999D02*
X2054405D01*
X2009093Y1939499D02*
X2054345D01*
X1913456Y1984499D02*
X2054341D01*
X2010729Y1935899D02*
X2054257D01*
X1960210Y2333699D02*
X2054257D01*
X2050993Y2138399D02*
X2054207D01*
X1913400Y2014199D02*
X2054171D01*
X2031130Y1964699D02*
X2054167D01*
X2051061Y2142899D02*
X2054139D01*
X1902800Y2010599D02*
X2054065D01*
X2025551Y1961999D02*
X2054063D01*
X2046082Y2207699D02*
X2054040D01*
X1974569Y2343599D02*
X2054031D01*
X2010424Y1938599D02*
X2054005D01*
X2051234Y2172599D02*
X2053966D01*
X2010966Y1936799D02*
X2053964D01*
X1912196Y1988099D02*
X2053946D01*
X2030569Y1963799D02*
X2053927D01*
X1913489Y1985399D02*
X2053912D01*
X2046030Y2208599D02*
X2053911D01*
X2029533Y1962899D02*
X2053895D01*
X2010878Y1937699D02*
X2053884D01*
X2051330Y2168999D02*
X2053870D01*
X1913083Y2013299D02*
X2053826D01*
X1911360Y2011499D02*
X2053777D01*
X2051453Y2139299D02*
X2053747D01*
X1912922Y1987199D02*
X2053730D01*
X1913321Y1986299D02*
X2053720D01*
X2051489Y2141999D02*
X2053711D01*
X1912484Y2012399D02*
X2053701D01*
X2013098Y2336399D02*
X2053667D01*
X2051577Y2171699D02*
X2053623D01*
X2051621Y2169899D02*
X2053579D01*
X2051669Y2140199D02*
X2053531D01*
X2051681Y2141099D02*
X2053519D01*
X1981719Y2326499D02*
X2053511D01*
X2051699Y2170799D02*
X2053501D01*
X1981550Y2316599D02*
X2053369D01*
X1980307Y2306699D02*
X2053238D01*
X1978997Y2303099D02*
X2053235D01*
X1913132Y2296799D02*
X2053118D01*
X1981160Y2312999D02*
X2053115D01*
X1983355Y2322899D02*
X2053004D01*
X2006877Y2332799D02*
X2052900D01*
X1974251Y2342699D02*
X2052804D01*
X2017744Y2222999D02*
X2052790D01*
X2045625Y2209499D02*
X2052790D01*
X2012974Y2337299D02*
X2052631D01*
X1912795Y2327399D02*
X2052551D01*
X2045940Y2214899D02*
X2052546D01*
X1980219Y2317499D02*
X2052477D01*
X1979535Y2307599D02*
X2052407D01*
X1976096Y2302199D02*
X2052405D01*
X1912571Y2297699D02*
X2052341D01*
X1912193Y2312099D02*
X2052339D01*
X2041384Y2265299D02*
X2052285D01*
X2045031Y2205899D02*
X2052285D01*
X1982660Y2321999D02*
X2052278D01*
X2007440Y2331899D02*
X2052220D01*
X1973384Y2341799D02*
X2052166D01*
X1960384Y2260799D02*
X2052116D01*
X2032377Y2197799D02*
X2052116D01*
X2012468Y2338199D02*
X2052070D01*
X1911965Y2328299D02*
X2052026D01*
X1911835Y2318399D02*
X2051985D01*
X1911693Y2308499D02*
X2051947D01*
X1975589Y2301299D02*
X2051946D01*
X1911538Y2298599D02*
X2051912D01*
X1910661Y2311199D02*
X2051911D01*
X1954198Y2321099D02*
X2051879D01*
X2007600Y2330999D02*
X2051850D01*
X2019665Y2227499D02*
X2051837D01*
X2046100Y2213999D02*
X2051837D01*
X1961940Y2340899D02*
X2051823D01*
X2010583Y2339099D02*
X2051779D01*
X2006875Y2329199D02*
X2051760D01*
X1953566Y2319299D02*
X2051744D01*
X1902800Y2309399D02*
X2051731D01*
X1902800Y2300399D02*
X2051730D01*
X2018120Y2237399D02*
X2051724D01*
X2014256Y2219399D02*
X2051724D01*
X1902800Y2299499D02*
X2051720D01*
X1902800Y2310299D02*
X2051719D01*
X1954073Y2320199D02*
X2051711D01*
X2007439Y2330099D02*
X2051705D01*
X1962100Y2339999D02*
X2051701D01*
X2044083Y2233799D02*
X2051534D01*
X2045377Y2215799D02*
X2051534D01*
X2018290Y2223899D02*
X2051452D01*
X2044503Y2210399D02*
X2051452D01*
X2040917Y2264399D02*
X2051308D01*
X2007569Y2201399D02*
X2051308D01*
X1990394Y2204999D02*
X2051308D01*
X2048856Y2109599D02*
X2051296D01*
X2007252Y2202299D02*
X2051249D01*
X2039897Y2261699D02*
X2051249D01*
X2025388Y2198699D02*
X2051249D01*
X2019428Y2226599D02*
X2051144D01*
X2045939Y2213099D02*
X2051144D01*
X2018606Y2236499D02*
X2051099D01*
X2012798Y2218499D02*
X2051099D01*
X2043807Y2234699D02*
X2051027D01*
X1971031Y2216699D02*
X2051027D01*
X2018747Y2224799D02*
X2050996D01*
X2043880Y2211299D02*
X2050996D01*
X2040965Y2263499D02*
X2050948D01*
X1989774Y2204099D02*
X2050948D01*
X2007551Y2200499D02*
X2050948D01*
X2040683Y2262599D02*
X2050931D01*
X2006388Y2203199D02*
X2050931D01*
X2007190Y2199599D02*
X2050931D01*
X2019124Y2225699D02*
X2050908D01*
X2045375Y2212199D02*
X2050908D01*
X2043035Y2235599D02*
X2050902D01*
X2010703Y2217599D02*
X2050902D01*
X2039399Y2101499D02*
X2050506D01*
X1981651Y2119499D02*
X2050494D01*
X2005901Y1942199D02*
X2050290D01*
X1912861Y2427299D02*
X2050285D01*
X2015129Y2091599D02*
X2050139D01*
X1902800Y2129399D02*
X2050131D01*
X1902800Y2039399D02*
X2050131D01*
X1961974Y2422799D02*
X2050116D01*
X1985875Y1946699D02*
X2050112D01*
X2015318Y2081699D02*
X2049864D01*
X2014083Y2049299D02*
X2049857D01*
X2015487Y2071799D02*
X2049636D01*
X2048824Y2059199D02*
X2049631D01*
X2015639Y2061899D02*
X2049440D01*
X2014782Y2069099D02*
X2049435D01*
X2005276Y1943099D02*
X2049310D01*
X1913289Y2426399D02*
X2049308D01*
X2015777Y2051999D02*
X2049267D01*
X2015019Y2078999D02*
X2049262D01*
X1961468Y2423699D02*
X2049249D01*
X1913440Y1945799D02*
X2049248D01*
X2015905Y2042099D02*
X2049111D01*
X2015222Y2088899D02*
X2049107D01*
X2016022Y2122199D02*
X2048969D01*
X2016022Y2032199D02*
X2048969D01*
X2015400Y2098799D02*
X2048965D01*
X1980401Y1943999D02*
X2048949D01*
X1913481Y2425499D02*
X2048948D01*
X1959583Y2424599D02*
X2048931D01*
X1979776Y1944899D02*
X2048931D01*
X2044252Y2112299D02*
X2048838D01*
X2039598Y2102399D02*
X2048718D01*
X2015706Y2118599D02*
X2048715D01*
X2016328Y2092499D02*
X2048607D01*
X2015839Y2128499D02*
X2048604D01*
X2015839Y2038499D02*
X2048604D01*
X2016417Y2082599D02*
X2048503D01*
X2015961Y2048399D02*
X2048500D01*
X2016500Y2072699D02*
X2048406D01*
X2016579Y2062799D02*
X2048316D01*
X2016181Y2068199D02*
X2048313D01*
X2016652Y2052899D02*
X2048231D01*
X2016279Y2078099D02*
X2048229D01*
X2016721Y2042999D02*
X2048151D01*
X2016371Y2087999D02*
X2048149D01*
X2016785Y2123099D02*
X2048077D01*
X2016785Y2033099D02*
X2048077D01*
X2016457Y2097899D02*
X2048075D01*
X2043388Y2113199D02*
X2048007D01*
X2039474Y2103299D02*
X2047941D01*
X2016614Y2117699D02*
X2047939D01*
X2016956Y2093399D02*
X2047879D01*
X2016685Y2127599D02*
X2047878D01*
X2016685Y2037599D02*
X2047878D01*
X2017005Y2083499D02*
X2047822D01*
X2016752Y2047499D02*
X2047820D01*
X2017052Y2073599D02*
X2047768D01*
X2017095Y2063699D02*
X2047717D01*
X2016873Y2067299D02*
X2047716D01*
X2017135Y2053799D02*
X2047670D01*
X2016928Y2077199D02*
X2047668D01*
X2017172Y2043899D02*
X2047626D01*
X2016980Y2087099D02*
X2047625D01*
X2017206Y2123999D02*
X2047585D01*
X2017206Y2033999D02*
X2047585D01*
X2017028Y2096999D02*
X2047584D01*
X2017237Y2114099D02*
X2047547D01*
X2038968Y2104199D02*
X2047512D01*
X2017114Y2116799D02*
X2047511D01*
X2017292Y2094299D02*
X2047480D01*
X2017153Y2126699D02*
X2047479D01*
X2017153Y2036699D02*
X2047479D01*
X2017315Y2084399D02*
X2047451D01*
X2017188Y2046599D02*
X2047450D01*
X2017335Y2074499D02*
X2047424D01*
X2017353Y2064599D02*
X2047400D01*
X2017251Y2066399D02*
X2047400D01*
X2017368Y2054699D02*
X2047379D01*
X2017278Y2076299D02*
X2047379D01*
X2017381Y2044799D02*
X2047360D01*
X2017303Y2086199D02*
X2047360D01*
X2017392Y2124899D02*
X2047344D01*
X2017392Y2034899D02*
X2047344D01*
X2017325Y2096099D02*
X2047344D01*
X2017400Y2114999D02*
X2047331D01*
X2038368Y2105099D02*
X2047320D01*
X2017361Y2115899D02*
X2047319D01*
X2017408Y2095199D02*
X2047311D01*
X2017375Y2125799D02*
X2047311D01*
X2017375Y2035799D02*
X2047311D01*
X2017409Y2085299D02*
X2047305D01*
X2017387Y2045699D02*
X2047305D01*
X2017407Y2075399D02*
X2047301D01*
X2017403Y2065499D02*
X2047300D01*
X2042251Y2266199D02*
X2046790D01*
X1997053Y2144699D02*
X2046694D01*
X1967478Y2270699D02*
X2046612D01*
X2011044Y2174399D02*
X2045831D01*
X2042569Y2267099D02*
X2045810D01*
X2038899Y2105999D02*
X2045790D01*
X2041215Y2269799D02*
X2045748D01*
X2017396Y2055599D02*
X2045503D01*
X2008473Y2167199D02*
X2045467D01*
X2042552Y2267999D02*
X2045449D01*
X2042192Y2268899D02*
X2045431D01*
X1983163Y2137499D02*
X2045038D01*
X1902800Y2060099D02*
X2044965D01*
X1998347Y2143799D02*
X2044915D01*
X1939594Y2173499D02*
X2044604D01*
X2039098Y2106899D02*
X2044452D01*
X2008598Y2168099D02*
X2044431D01*
X2017221Y2056499D02*
X2044377D01*
X1958569Y2138399D02*
X2044207D01*
X2014490Y2059199D02*
X2044193D01*
X1998794Y2142899D02*
X2044139D01*
X2038974Y2107799D02*
X2043996D01*
X2016814Y2057399D02*
X2043970D01*
X1918035Y2172599D02*
X2043966D01*
X2016075Y2058299D02*
X2043917D01*
X2008401Y2168999D02*
X2043870D01*
X1958252Y2139299D02*
X2043747D01*
X1998877Y2141999D02*
X2043711D01*
X1918807Y2171699D02*
X2043623D01*
X2043213Y2108699D02*
X2043609D01*
X2007776Y2169899D02*
X2043579D01*
X1997928Y2140199D02*
X2043531D01*
X1998634Y2141099D02*
X2043519D01*
X1941135Y2170799D02*
X2043501D01*
X1989320Y2211299D02*
X2043120D01*
X2015045Y2240999D02*
X2042790D01*
X1985469Y2255399D02*
X2042497D01*
X1989469Y2210399D02*
X2042497D01*
X1971276Y2250899D02*
X2041969D01*
X1990588Y2205899D02*
X2041969D01*
X2012899Y2245499D02*
X2041837D01*
X1988776Y2212199D02*
X2041625D01*
X1970373Y2215799D02*
X2041623D01*
X2013818Y2241899D02*
X2041452D01*
X1985451Y2254499D02*
X2041375D01*
X1989297Y2209499D02*
X2041375D01*
X1958474Y2251799D02*
X2041194D01*
X1990461Y2206799D02*
X2041194D01*
X2012273Y2244599D02*
X2041144D01*
X1972098Y2213099D02*
X2041061D01*
X1971468Y2214899D02*
X2041060D01*
X2012205Y2242799D02*
X2040996D01*
X1985090Y2253599D02*
X2040970D01*
X1988971Y2208599D02*
X2040970D01*
X1984110Y2252699D02*
X2040918D01*
X1989950Y2207699D02*
X2040918D01*
X2011115Y2243699D02*
X2040908D01*
X1971974Y2213999D02*
X2040900D01*
X2038468Y2108699D02*
X2040790D01*
X1912396Y2367899D02*
X2040724D01*
X2016846Y2113199D02*
X2040612D01*
X1913421Y2364299D02*
X2040534D01*
X2019987Y2231099D02*
X2040503D01*
X1913034Y2366999D02*
X2040099D01*
X1913499Y2365199D02*
X2040027D01*
X2019008Y2235599D02*
X2039965D01*
X1913377Y2366099D02*
X2039902D01*
X2036583Y2109599D02*
X2039810D01*
X2016131Y2112299D02*
X2039748D01*
X1902800Y2110499D02*
X2039449D01*
X2014652Y2111399D02*
X2039431D01*
X2019917Y2231999D02*
X2039377D01*
X2019336Y2234699D02*
X2039193D01*
X2019787Y2232899D02*
X2038970D01*
X2019594Y2233799D02*
X2038917D01*
X2036215Y2269799D02*
X2038785D01*
X2037252Y2268899D02*
X2037748D01*
X1903002Y1871999D02*
X2036941D01*
X1962300Y1871099D02*
X2036900D01*
X1976388Y1870199D02*
X2036900D01*
X1977252Y1869299D02*
X2036900D01*
X1977569Y1868399D02*
X2036900D01*
X2022219Y1867499D02*
X2036900D01*
X2023550Y1866599D02*
X2036900D01*
X2024004Y1865699D02*
X2036900D01*
X2024092Y1864799D02*
X2036900D01*
X2023855Y1863899D02*
X2036900D01*
X2023160Y1862999D02*
X2036900D01*
X2015600Y1862099D02*
X2036900D01*
X2015600Y1861199D02*
X2036900D01*
X2015600Y1860299D02*
X2036900D01*
X2025003Y1859399D02*
X2036900D01*
X2026125Y1858499D02*
X2036900D01*
X2026530Y1857599D02*
X2036900D01*
X2015600Y1851299D02*
X2036900D01*
X2015600Y1850399D02*
X2036900D01*
X2015600Y1849499D02*
X2036900D01*
X2015600Y1848599D02*
X2036900D01*
X2015600Y1847699D02*
X2036900D01*
X2015600Y1846799D02*
X2036900D01*
X2015600Y1845899D02*
X2036900D01*
X2015600Y1844999D02*
X2036900D01*
X2015600Y1844099D02*
X2036900D01*
X2015600Y1843199D02*
X2036900D01*
X2015600Y1842299D02*
X2036900D01*
X2015600Y1841399D02*
X2036900D01*
X2015600Y1840499D02*
X2036900D01*
X2015600Y1839599D02*
X2036900D01*
X2015600Y1838699D02*
X2036900D01*
X2015600Y1837799D02*
X2036900D01*
X2015600Y1836899D02*
X2036900D01*
X2015600Y1835999D02*
X2036900D01*
X2015600Y1835099D02*
X2036900D01*
X2015600Y1834199D02*
X2036900D01*
X1961251Y2261699D02*
X2036870D01*
X1902800Y2109599D02*
X2036417D01*
X2018710Y1852199D02*
X2036290D01*
X2026582Y1856699D02*
X2036112D01*
X2034230Y2262599D02*
X2036085D01*
X1913377Y2006099D02*
X2035917D01*
X2035047Y2263499D02*
X2035681D01*
X2030497Y1898099D02*
X2035417D01*
X2019690Y1853099D02*
X2035310D01*
X1910669Y1988999D02*
X2035290D01*
X2026306Y1855799D02*
X2035248D01*
X1988598Y2100599D02*
X2035227D01*
X2017266Y2104199D02*
X2035031D01*
X2020051Y1853999D02*
X2034949D01*
X2025531Y1854899D02*
X2034931D01*
X1986729Y1978199D02*
X2034790D01*
X2017405Y2105099D02*
X2034727D01*
X1912723Y1982699D02*
X2034612D01*
X2014912Y2101499D02*
X2034601D01*
X2015561Y2108699D02*
X2034532D01*
X2016902Y2103299D02*
X2034526D01*
X2016233Y2102399D02*
X2034402D01*
X1913174Y1993499D02*
X2034337D01*
X1911533Y2001599D02*
X2034227D01*
X2028593Y2193299D02*
X2034221D01*
X2012486Y2177999D02*
X2034174D01*
X2017344Y2105999D02*
X2034101D01*
X2032940Y2196899D02*
X2034097D01*
X1913499Y2005199D02*
X2034032D01*
X2016538Y2107799D02*
X2034026D01*
X1902800Y1989899D02*
X2033952D01*
X2017072Y2106899D02*
X2033902D01*
X1987060Y1979099D02*
X2033810D01*
X2026215Y2269799D02*
X2033785D01*
X1985807Y1981799D02*
X2033748D01*
X2017083Y1893599D02*
X2033727D01*
X1912649Y1992599D02*
X2033644D01*
X2032375Y2194199D02*
X2033619D01*
X1912569Y2002499D02*
X2033601D01*
X1980504Y1897199D02*
X2033532D01*
X1913421Y2004299D02*
X2033526D01*
X1902800Y1990799D02*
X2033496D01*
X1987061Y1979999D02*
X2033449D01*
X1986723Y1980899D02*
X2033431D01*
X2021083Y2186099D02*
X2033417D01*
X1911689Y1991699D02*
X2033408D01*
X1913130Y2003399D02*
X2033402D01*
X2011749Y2178899D02*
X2033306D01*
X1979660Y1894499D02*
X2033101D01*
X1980592Y1896299D02*
X2033026D01*
X1942095Y2179799D02*
X2032988D01*
X1941265Y2180699D02*
X2032964D01*
X1980355Y1895399D02*
X2032902D01*
X2027192Y2268899D02*
X2032808D01*
X2020210Y1876499D02*
X2032790D01*
X2027552Y2267999D02*
X2032448D01*
X2021163Y1880999D02*
X2031837D01*
X2022773Y2181599D02*
X2031727D01*
X2027569Y2267099D02*
X2031691D01*
X2022968Y2185199D02*
X2031532D01*
X2021548Y1877399D02*
X2031452D01*
X1961569Y2262599D02*
X2031179D01*
X2021856Y1880099D02*
X2031144D01*
X2023399Y2182499D02*
X2031101D01*
X2023474Y2184299D02*
X2031026D01*
X2022004Y1878299D02*
X2030996D01*
X2022092Y1879199D02*
X2030908D01*
X2023598Y2183399D02*
X2030902D01*
X2027251Y2266199D02*
X2030577D01*
X1961552Y2263499D02*
X2030401D01*
X2026384Y2265299D02*
X2030173D01*
X1961192Y2264399D02*
X2030122D01*
X2026252Y2197799D02*
X2028623D01*
X1980050Y1898099D02*
X2028503D01*
X2026569Y2196899D02*
X2028060D01*
X1912978Y2393099D02*
X2028003D01*
X1912649Y1902599D02*
X2027965D01*
X2026799Y2195999D02*
X2027837D01*
X1982396Y2397599D02*
X2027465D01*
X1978719Y1898999D02*
X2027377D01*
X1911689Y1901699D02*
X2027193D01*
X1902800Y1899899D02*
X2026970D01*
X1902800Y1900799D02*
X2026917D01*
X1980565Y2393999D02*
X2026877D01*
X1982337Y2396699D02*
X2026693D01*
X1981536Y2394899D02*
X2026470D01*
X1982067Y2395799D02*
X2026417D01*
X2018125Y1912499D02*
X2026139D01*
X1931583Y1970099D02*
X2025631D01*
X1989082Y1919699D02*
X2024965D01*
X2017003Y1913399D02*
X2024607D01*
X1933468Y1969199D02*
X2024404D01*
X2023286Y2191499D02*
X2024340D01*
X1988806Y1918799D02*
X2024075D01*
X1976252Y1914299D02*
X2023879D01*
X2016715Y2269799D02*
X2023785D01*
X1913174Y2353499D02*
X2023781D01*
X1942715Y1968299D02*
X2023766D01*
X2016884Y2265299D02*
X2023616D01*
X1988031Y1917899D02*
X2023584D01*
X1975388Y1915199D02*
X2023480D01*
X1988503Y1967399D02*
X2023423D01*
X1994892Y1965599D02*
X2023371D01*
X1967899Y1916999D02*
X2023344D01*
X1967273Y1916099D02*
X2023311D01*
X1993915Y1966499D02*
X2023301D01*
X2015600Y1859399D02*
X2022997D01*
X1969901Y2348999D02*
X2022840D01*
X2017692Y2268899D02*
X2022808D01*
X2017751Y2266199D02*
X2022749D01*
X2013219Y2198699D02*
X2022612D01*
X2020069Y1854899D02*
X2022469D01*
X1912649Y2352599D02*
X2022450D01*
X2018052Y2267999D02*
X2022448D01*
X2018069Y2267099D02*
X2022431D01*
X1969276Y2349899D02*
X2022145D01*
X1911689Y2351699D02*
X2021996D01*
X1902800Y2350799D02*
X2021908D01*
X2015600Y1858499D02*
X2021875D01*
X2014710Y2275199D02*
X2021790D01*
X2006082Y1960199D02*
X2021790D01*
X2014152Y2197799D02*
X2021748D01*
X2019752Y1855799D02*
X2021694D01*
X2014888Y2279699D02*
X2021612D01*
X1995252Y1964699D02*
X2021612D01*
X2015600Y1857599D02*
X2021470D01*
X2014496Y2196899D02*
X2021431D01*
X2018888Y1856699D02*
X2021418D01*
X1989683Y2186099D02*
X2020917D01*
X2014500Y2195999D02*
X2020907D01*
X2015690Y2276099D02*
X2020810D01*
X2006030Y1961099D02*
X2020810D01*
X1977551Y1867499D02*
X2020781D01*
X2015752Y2278799D02*
X2020748D01*
X1995269Y1963799D02*
X2020748D01*
X2016051Y2276999D02*
X2020449D01*
X2005625Y1961999D02*
X2020449D01*
X2016069Y2277899D02*
X2020431D01*
X2004503Y1962899D02*
X2020431D01*
X1995503Y2417399D02*
X2019997D01*
X2011160Y2191499D02*
X2019966D01*
X1940083Y2294099D02*
X2019917D01*
X2015600Y1862999D02*
X2019840D01*
X2014166Y2195099D02*
X2019576D01*
X1996031Y2412899D02*
X2019469D01*
X1977190Y1866599D02*
X2019450D01*
X2002210Y2383199D02*
X2019290D01*
X1950966Y2445299D02*
X2019285D01*
X2011855Y2192399D02*
X2019271D01*
X1991373Y2181599D02*
X2019227D01*
X2015600Y1863899D02*
X2019145D01*
X2013260Y2194199D02*
X2019122D01*
X1902800Y2440799D02*
X2019116D01*
X2002388Y2387699D02*
X2019112D01*
X2012092Y2193299D02*
X2019034D01*
X1991568Y2185199D02*
X2019032D01*
X2015559Y1865699D02*
X2018996D01*
X2015600Y1864799D02*
X2018908D01*
X1996625Y2416499D02*
X2018875D01*
X2015210Y1876499D02*
X2018790D01*
X1990513Y1931399D02*
X2018724D01*
X1996806Y2413799D02*
X2018694D01*
X1991999Y2182499D02*
X2018601D01*
X1977691Y1927799D02*
X2018534D01*
X1992074Y2184299D02*
X2018526D01*
X1997030Y2415599D02*
X2018470D01*
X1997082Y2414699D02*
X2018418D01*
X1992198Y2183399D02*
X2018402D01*
X2003190Y2384099D02*
X2018310D01*
X1913440Y2444399D02*
X2018308D01*
X1911689Y2441699D02*
X2018249D01*
X2003252Y2386799D02*
X2018248D01*
X1984530Y2289599D02*
X2018227D01*
X1985044Y1930499D02*
X2018099D01*
X1941968Y2293199D02*
X2018032D01*
X1984319Y1928699D02*
X2018027D01*
X2003551Y2384999D02*
X2017949D01*
X1913174Y2443499D02*
X2017948D01*
X1912649Y2442599D02*
X2017931D01*
X2003569Y2385899D02*
X2017931D01*
X1984883Y1929599D02*
X2017902D01*
X2016163Y1880999D02*
X2017837D01*
X1984125Y2290499D02*
X2017601D01*
X1942474Y2292299D02*
X2017526D01*
X2016548Y1877399D02*
X2017452D01*
X1983003Y2291399D02*
X2017402D01*
X1913215Y1893599D02*
X2016917D01*
X2015915Y1852199D02*
X2016285D01*
X1910306Y1889099D02*
X2015227D01*
X1912723Y1892699D02*
X2015032D01*
X1976569Y1913399D02*
X2014997D01*
X1902800Y1889999D02*
X2014601D01*
X1911831Y1891799D02*
X2014526D01*
X2001192Y1908899D02*
X2014469D01*
X1902800Y1890899D02*
X2014402D01*
X2000715Y2269799D02*
X2014285D01*
X2000884Y2265299D02*
X2014116D01*
X1976551Y1912499D02*
X2013875D01*
X1902800Y1876499D02*
X2013790D01*
X2000215Y1909799D02*
X2013694D01*
X1976190Y1911599D02*
X2013470D01*
X1975210Y1910699D02*
X2013418D01*
X2001692Y2268899D02*
X2013308D01*
X2001751Y2266199D02*
X2013249D01*
X2002052Y2267999D02*
X2012948D01*
X2002069Y2267099D02*
X2012931D01*
X1999073Y2041199D02*
X2012845D01*
X2008551Y1880999D02*
X2012837D01*
X1999383Y2049299D02*
X2012535D01*
X1902800Y1877399D02*
X2012452D01*
X1999619Y2121299D02*
X2012299D01*
X1999619Y2031299D02*
X2012299D01*
X1998710Y2275199D02*
X2012290D01*
X2008190Y1880099D02*
X2012144D01*
X1999790Y2059199D02*
X2012128D01*
X1998888Y2279699D02*
X2012112D01*
X1902800Y1878299D02*
X2011996D01*
X1999952Y2111399D02*
X2011965D01*
X2007210Y1879199D02*
X2011908D01*
X2000082Y2069099D02*
X2011836D01*
X2000212Y2101499D02*
X2011706D01*
X2000319Y2078999D02*
X2011599D01*
X2000429Y2091599D02*
X2011488D01*
X2000522Y2088899D02*
X2011396D01*
X1999690Y2276099D02*
X2011310D01*
X2000618Y2081699D02*
X2011299D01*
X1999752Y2278799D02*
X2011248D01*
X2000700Y2098799D02*
X2011217D01*
X2000787Y2071799D02*
X2011131D01*
X2000861Y2108699D02*
X2011057D01*
X2000939Y2061899D02*
X2010979D01*
X2000051Y2276999D02*
X2010949D01*
X2000069Y2277899D02*
X2010931D01*
X2001006Y2118599D02*
X2010912D01*
X2001077Y2051999D02*
X2010840D01*
X2001139Y2128499D02*
X2010779D01*
X2001139Y2038499D02*
X2010779D01*
X2001205Y2042099D02*
X2010713D01*
X2001261Y2048399D02*
X2010656D01*
X2006210Y2198699D02*
X2010655D01*
X2001322Y2122199D02*
X2010595D01*
X2001322Y2032199D02*
X2010595D01*
X2001375Y2058299D02*
X2010543D01*
X2001431Y2112299D02*
X2010486D01*
X2001481Y2068199D02*
X2010437D01*
X1961939Y2339099D02*
X2010417D01*
X1972098Y2249099D02*
X2010417D01*
X2001533Y2102399D02*
X2010384D01*
X2001579Y2078099D02*
X2010339D01*
X2001628Y2092499D02*
X2010289D01*
X2001671Y2087999D02*
X2010247D01*
X2001717Y2082599D02*
X2010201D01*
X2001757Y2097899D02*
X2010160D01*
X2001800Y2072699D02*
X2010117D01*
X2001838Y2107799D02*
X2010080D01*
X2001879Y2062799D02*
X2010039D01*
X2001914Y2117699D02*
X2010004D01*
X2001952Y2052899D02*
X2009966D01*
X2001985Y2127599D02*
X2009933D01*
X2001985Y2037599D02*
X2009933D01*
X2002021Y2042999D02*
X2009897D01*
X2002052Y2047499D02*
X2009866D01*
X2002085Y2123099D02*
X2009832D01*
X2002085Y2033099D02*
X2009832D01*
X2002114Y2057399D02*
X2009803D01*
X2002146Y2113199D02*
X2009772D01*
X2002173Y2067299D02*
X2009745D01*
X2000452Y2197799D02*
X2009722D01*
X2002202Y2103299D02*
X2009715D01*
X2002228Y2077199D02*
X2009690D01*
X2002256Y2093399D02*
X2009662D01*
X2002280Y2087099D02*
X2009638D01*
X2002305Y2083499D02*
X2009612D01*
X2002328Y2096999D02*
X2009590D01*
X2002352Y2073599D02*
X2009566D01*
X2002372Y2106899D02*
X2009545D01*
X2002395Y2063699D02*
X2009523D01*
X2002414Y2116799D02*
X2009504D01*
X2002435Y2053799D02*
X2009483D01*
X2002453Y2126699D02*
X2009465D01*
X2002453Y2036699D02*
X2009465D01*
X2002472Y2043899D02*
X2009446D01*
X2002488Y2046599D02*
X2009429D01*
X2002506Y2123999D02*
X2009412D01*
X2002506Y2033999D02*
X2009412D01*
X2002521Y2056499D02*
X2009397D01*
X2002537Y2114099D02*
X2009380D01*
X2001091Y2196899D02*
X2009378D01*
X2002551Y2066399D02*
X2009367D01*
X2002566Y2104199D02*
X2009352D01*
X2002578Y2076299D02*
X2009339D01*
X2002592Y2094299D02*
X2009326D01*
X2002603Y2086199D02*
X2009315D01*
X2002615Y2084399D02*
X2009303D01*
X2002625Y2096099D02*
X2009293D01*
X2002635Y2074499D02*
X2009282D01*
X2002644Y2105999D02*
X2009274D01*
X1941382Y2174399D02*
X2009270D01*
X2002653Y2064599D02*
X2009265D01*
X2002661Y2115899D02*
X2009257D01*
X2002668Y2054699D02*
X2009249D01*
X2002675Y2125799D02*
X2009243D01*
X2002675Y2035799D02*
X2009243D01*
X2002681Y2044799D02*
X2009236D01*
X2002687Y2045699D02*
X2009231D01*
X2002692Y2124899D02*
X2009226D01*
X2002692Y2034899D02*
X2009226D01*
X2002696Y2055599D02*
X2009222D01*
X2002700Y2114999D02*
X2009218D01*
X2002703Y2065499D02*
X2009215D01*
X2002705Y2105099D02*
X2009212D01*
X2002707Y2075399D02*
X2009211D01*
X2002708Y2095199D02*
X2009209D01*
X2002709Y2085299D02*
X2009209D01*
X2001297Y2195999D02*
X2008781D01*
X1961190Y2334599D02*
X2008727D01*
X1981443Y2244599D02*
X2008626D01*
X1942554Y2178899D02*
X2008566D01*
X1961375Y2338199D02*
X2008532D01*
X1971973Y2248199D02*
X2008532D01*
X1961551Y2335499D02*
X2008101D01*
X1981601Y2245499D02*
X2008101D01*
X1942159Y2175299D02*
X2008065D01*
X1961252Y2337299D02*
X2008026D01*
X1980868Y2247299D02*
X2008026D01*
X1961569Y2336399D02*
X2007902D01*
X1981437Y2246399D02*
X2007902D01*
X1993160Y2191499D02*
X2007840D01*
X1942770Y2177999D02*
X2007828D01*
X2005466Y1939499D02*
X2007655D01*
X1942588Y2176199D02*
X2007638D01*
X1942780Y2177099D02*
X2007570D01*
X2001180Y2195099D02*
X2007450D01*
X1993855Y2192399D02*
X2007145D01*
X2000685Y2194199D02*
X2006996D01*
X1999028Y2193299D02*
X2006908D01*
X2005193Y1938599D02*
X2006324D01*
X1902800Y1879199D02*
X2004790D01*
X1982251Y1883699D02*
X2004612D01*
X1942025Y2169899D02*
X2004224D01*
X1974592Y2166299D02*
X2004034D01*
X1902800Y1880099D02*
X2003810D01*
X1985714Y2198699D02*
X2003790D01*
X1981384Y1882799D02*
X2003748D01*
X1960160Y2203199D02*
X2003612D01*
X1972719Y2168999D02*
X2003599D01*
X1974504Y2167199D02*
X2003527D01*
X1902800Y1880999D02*
X2003449D01*
X1911962Y1881899D02*
X2003431D01*
X1974050Y2168099D02*
X2003402D01*
X1995623Y1957499D02*
X2003219D01*
X1972375Y2329199D02*
X2003125D01*
X1972377Y2332799D02*
X2003123D01*
X1980885Y2243699D02*
X2003121D01*
X1988626Y1938599D02*
X2002819D01*
X1984348Y2199599D02*
X2002810D01*
X1974878Y2202299D02*
X2002748D01*
X1991960Y1934099D02*
X2002737D01*
X1972939Y2330099D02*
X2002561D01*
X1972940Y2331899D02*
X2002560D01*
X1988790Y1937699D02*
X2002542D01*
X1994951Y1962899D02*
X2002497D01*
X1975610Y2200499D02*
X2002449D01*
X1975446Y2201399D02*
X2002431D01*
X1973100Y2330999D02*
X2002400D01*
X1991661Y1934999D02*
X2002111D01*
X1971806Y2217599D02*
X2002097D01*
X1988670Y1936799D02*
X2002036D01*
X1996030Y1958399D02*
X2001969D01*
X1994497Y1956599D02*
X2001965D01*
X1990836Y1935899D02*
X2001912D01*
X1986600Y1948499D02*
X2001840D01*
X1980598Y1943099D02*
X2001724D01*
X1988057Y1939499D02*
X2001534D01*
X1996069Y1952099D02*
X2001450D01*
X1996052Y1952999D02*
X2001377D01*
X1994244Y1961999D02*
X2001375D01*
X1996083Y1959299D02*
X2001194D01*
X1960807Y1955699D02*
X2001193D01*
X1986440Y1949399D02*
X2001145D01*
X1980473Y1942199D02*
X2001099D01*
X1961030Y1940399D02*
X2001027D01*
X1995751Y1951199D02*
X2000996D01*
X1995692Y1953899D02*
X2000970D01*
X1995035Y1961099D02*
X2000970D01*
X1995807Y1960199D02*
X2000918D01*
X1994715Y1954799D02*
X2000917D01*
X1994884Y1950299D02*
X2000908D01*
X1979966Y1941299D02*
X2000902D01*
X1989000Y2242799D02*
X2000595D01*
X1976210Y1865699D02*
X2000441D01*
X1962300Y1864799D02*
X2000400D01*
X1962300Y1863899D02*
X2000400D01*
X1962300Y1862999D02*
X2000400D01*
X1983583Y1862099D02*
X2000400D01*
X1985468Y1861199D02*
X2000400D01*
X1985974Y1860299D02*
X2000400D01*
X1986098Y1859399D02*
X2000400D01*
X1985899Y1858499D02*
X2000400D01*
X1985449Y1857599D02*
X2000400D01*
X1991210Y1852199D02*
X2000400D01*
X1962300Y1851299D02*
X2000400D01*
X1962300Y1850399D02*
X2000400D01*
X1962300Y1849499D02*
X2000400D01*
X1962300Y1848599D02*
X2000400D01*
X1962300Y1847699D02*
X2000400D01*
X1962300Y1846799D02*
X2000400D01*
X1962300Y1845899D02*
X2000400D01*
X1962300Y1844999D02*
X2000400D01*
X1962300Y1844099D02*
X2000400D01*
X1962300Y1843199D02*
X2000400D01*
X1962300Y1842299D02*
X2000400D01*
X1962300Y1841399D02*
X2000400D01*
X1962300Y1840499D02*
X2000400D01*
X1962300Y1839599D02*
X2000400D01*
X1962300Y1838699D02*
X2000400D01*
X1962300Y1837799D02*
X2000400D01*
X1962300Y1836899D02*
X2000400D01*
X1962300Y1835999D02*
X2000400D01*
X1962300Y1835099D02*
X2000400D01*
X1962300Y1834199D02*
X2000400D01*
X1962300Y1833299D02*
X2000400D01*
X1991388Y1856699D02*
X2000393D01*
X1972082Y2218499D02*
X2000002D01*
X1992190Y1853099D02*
X1999810D01*
X1980438Y2383199D02*
X1999790D01*
X1992252Y1855799D02*
X1999748D01*
X1912571Y2387699D02*
X1999612D01*
X1992551Y1853999D02*
X1999449D01*
X1992569Y1854899D02*
X1999431D01*
X1989908Y2241899D02*
X1998982D01*
X1913376Y2384099D02*
X1998810D01*
X1913132Y2386799D02*
X1998748D01*
X1972030Y2219399D02*
X1998544D01*
X1913499Y2384999D02*
X1998449D01*
X1913421Y2385899D02*
X1998431D01*
X1994092Y2193299D02*
X1998372D01*
X1968054Y2269799D02*
X1998285D01*
X1910661Y2041199D02*
X1998145D01*
X1960215Y2265299D02*
X1998116D01*
X1902800Y2049299D02*
X1997835D01*
X1902800Y1909799D02*
X1997785D01*
X1990242Y2240999D02*
X1997755D01*
X1981806Y1905299D02*
X1997616D01*
X1995806Y2031299D02*
X1997599D01*
X1982625Y2121299D02*
X1997599D01*
X1909504Y2059199D02*
X1997428D01*
X1971625Y2220299D02*
X1997406D01*
X1968223Y2268899D02*
X1997308D01*
X1911164Y2111399D02*
X1997265D01*
X1913350Y2266199D02*
X1997249D01*
X1978098Y2069099D02*
X1997136D01*
X1988401Y2101499D02*
X1997006D01*
X1968070Y2267999D02*
X1996948D01*
X1986174Y2197799D02*
X1996948D01*
X1967520Y2267099D02*
X1996931D01*
X1910669Y2078999D02*
X1996899D01*
X1980503Y1908899D02*
X1996808D01*
X1911533Y2091599D02*
X1996788D01*
X1990239Y2240099D02*
X1996765D01*
X1982082Y1906199D02*
X1996749D01*
X1994004Y2194199D02*
X1996715D01*
X1910943Y2088899D02*
X1996696D01*
X1911689Y2081699D02*
X1996599D01*
X1987966Y2098799D02*
X1996517D01*
X1979690Y2221199D02*
X1996478D01*
X1981625Y1907999D02*
X1996448D01*
X1982030Y1907099D02*
X1996431D01*
X1956785Y2071799D02*
X1996431D01*
X1911365Y2108699D02*
X1996357D01*
X1986266Y2196899D02*
X1996309D01*
X1983210Y2275199D02*
X1996290D01*
X1911962Y2061899D02*
X1996279D01*
X1993550Y2195099D02*
X1996220D01*
X1978599Y2118599D02*
X1996212D01*
X1974551Y2051999D02*
X1996140D01*
X1992219Y2195999D02*
X1996103D01*
X1977719Y2128499D02*
X1996079D01*
X1911693Y2038499D02*
X1996079D01*
X1912193Y2042099D02*
X1996013D01*
X1994503Y2048399D02*
X1995956D01*
X1989896Y2239199D02*
X1995946D01*
X1982550Y2122199D02*
X1995895D01*
X1911965Y2058299D02*
X1995843D01*
X1912394Y2112299D02*
X1995786D01*
X1977973Y2068199D02*
X1995737D01*
X1980751Y2222099D02*
X1995705D01*
X1987776Y2102399D02*
X1995684D01*
X1912196Y2078099D02*
X1995639D01*
X1912569Y2092499D02*
X1995589D01*
X1912300Y2087999D02*
X1995547D01*
X1994097Y2144699D02*
X1995518D01*
X1912649Y2082599D02*
X1995501D01*
X1912396Y2097899D02*
X1995460D01*
X1957875Y2072699D02*
X1995417D01*
X1912487Y2107799D02*
X1995380D01*
X1912793Y2062799D02*
X1995339D01*
X1984190Y2276099D02*
X1995310D01*
X1978473Y2117699D02*
X1995304D01*
X1974569Y2052899D02*
X1995266D01*
X1988966Y2238299D02*
X1995258D01*
X1979050Y2127599D02*
X1995233D01*
X1912651Y2037599D02*
X1995233D01*
X1912921Y2042999D02*
X1995197D01*
X1982113Y2123099D02*
X1995132D01*
X1912795Y2057399D02*
X1995103D01*
X1913032Y2113199D02*
X1995072D01*
X1981139Y2222999D02*
X1995056D01*
X1977466Y2067299D02*
X1995045D01*
X1913083Y2103299D02*
X1995015D01*
X1912922Y2077199D02*
X1994990D01*
X1913130Y2093399D02*
X1994962D01*
X1984551Y2276999D02*
X1994949D01*
X1912980Y2087099D02*
X1994938D01*
X1913174Y2083499D02*
X1994912D01*
X1913034Y2096999D02*
X1994890D01*
X1958439Y2073599D02*
X1994866D01*
X1913084Y2106899D02*
X1994845D01*
X1913253Y2063699D02*
X1994823D01*
X1977966Y2116799D02*
X1994804D01*
X1974252Y2053799D02*
X1994783D01*
X1979504Y2126699D02*
X1994765D01*
X1913175Y2036699D02*
X1994765D01*
X1980868Y2123999D02*
X1994712D01*
X1913254Y2056499D02*
X1994697D01*
X1913376Y2114099D02*
X1994680D01*
X1961598Y2237399D02*
X1994680D01*
X1913289Y2066399D02*
X1994667D01*
X1913400Y2104199D02*
X1994652D01*
X1957388Y2140199D02*
X1994643D01*
X1957877Y2076299D02*
X1994639D01*
X1913421Y2094299D02*
X1994626D01*
X1913350Y2086199D02*
X1994615D01*
X1913440Y2084399D02*
X1994603D01*
X1913377Y2096099D02*
X1994593D01*
X1958600Y2074499D02*
X1994582D01*
X1913400Y2105999D02*
X1994574D01*
X1913469Y2064599D02*
X1994565D01*
X1913421Y2115899D02*
X1994557D01*
X1973388Y2054699D02*
X1994549D01*
X1979592Y2125799D02*
X1994543D01*
X1913440Y2035799D02*
X1994543D01*
X1979355Y2124899D02*
X1994526D01*
X1913470Y2055599D02*
X1994522D01*
X1913499Y2114999D02*
X1994518D01*
X1913481Y2065499D02*
X1994515D01*
X1913500Y2105099D02*
X1994512D01*
X1958440Y2075399D02*
X1994511D01*
X1981178Y2223899D02*
X1994510D01*
X1913499Y2095199D02*
X1994509D01*
X1913495Y2085299D02*
X1994509D01*
X1971015Y2236499D02*
X1994194D01*
X1980886Y2224799D02*
X1994053D01*
X1940665Y2141099D02*
X1993937D01*
X1971787Y2235599D02*
X1993792D01*
X1992210Y2141999D02*
X1993692D01*
X1980424Y2225699D02*
X1993676D01*
X1912795Y2417399D02*
X1993497D01*
X1985272Y2282399D02*
X1993497D01*
X1972063Y2234699D02*
X1993464D01*
X1981072Y2226599D02*
X1993372D01*
X1972009Y2233799D02*
X1993206D01*
X1981392Y2227499D02*
X1993135D01*
X1971603Y2232899D02*
X1993013D01*
X1912859Y2412899D02*
X1992969D01*
X1984569Y2277899D02*
X1992969D01*
X1981377Y2228399D02*
X1992963D01*
X1970477Y2231999D02*
X1992883D01*
X1981019Y2229299D02*
X1992853D01*
X1961050Y2231099D02*
X1992813D01*
X1980049Y2230199D02*
X1992803D01*
X1960035Y1956599D02*
X1992503D01*
X1913495Y2034899D02*
X1992497D01*
X1911835Y2048399D02*
X1992497D01*
X1913254Y2416499D02*
X1992375D01*
X1985477Y2281499D02*
X1992375D01*
X1961083Y1954799D02*
X1992285D01*
X1913288Y2413799D02*
X1992194D01*
X1984272Y2278799D02*
X1992194D01*
X1985877Y1950299D02*
X1992116D01*
X1941871Y2150099D02*
X1992089D01*
X1913470Y2415599D02*
X1991970D01*
X1985360Y2280599D02*
X1991970D01*
X1913320Y2043899D02*
X1991969D01*
X1902800Y2030399D02*
X1991969D01*
X1913480Y2414699D02*
X1991918D01*
X1984863Y2279699D02*
X1991918D01*
X1988728Y1961099D02*
X1991911D01*
X1989625Y1966499D02*
X1991485D01*
X1950901Y1957499D02*
X1991377D01*
X1913349Y2033999D02*
X1991375D01*
X1912725Y2047499D02*
X1991375D01*
X1988254Y1961999D02*
X1991316D01*
X1984358Y1953899D02*
X1991308D01*
X1984974Y1951199D02*
X1991249D01*
X1913489Y2044799D02*
X1991194D01*
X1910936Y2031299D02*
X1991194D01*
X1988858Y1960199D02*
X1991193D01*
X1942432Y2149199D02*
X1991107D01*
X1988054Y1958399D02*
X1990970D01*
X1912978Y2033099D02*
X1990970D01*
X1913216Y2046599D02*
X1990970D01*
X1984929Y1952999D02*
X1990948D01*
X1985095Y1952099D02*
X1990931D01*
X1913456Y2045699D02*
X1990918D01*
X1912297Y2032199D02*
X1990918D01*
X1988667Y1959299D02*
X1990917D01*
X1912082Y2141999D02*
X1990790D01*
X1986034Y2195999D02*
X1990781D01*
X1942721Y2148299D02*
X1990745D01*
X1942799Y2147399D02*
X1990726D01*
X1989031Y1962899D02*
X1990449D01*
X1983799Y2191499D02*
X1989840D01*
X1942676Y2146499D02*
X1989837D01*
X1980083Y2186099D02*
X1989517D01*
X1912859Y2142899D02*
X1989452D01*
X1985347Y2195099D02*
X1989450D01*
X1984505Y2192399D02*
X1989145D01*
X1942332Y2145599D02*
X1989144D01*
X1940464Y2143799D02*
X1988996D01*
X1984664Y2194199D02*
X1988996D01*
X1984747Y2193299D02*
X1988908D01*
X1941694Y2144699D02*
X1988908D01*
X1987210Y1852199D02*
X1988790D01*
X1987388Y1856699D02*
X1988612D01*
X1984884Y1931399D02*
X1988257D01*
X1981773Y2181599D02*
X1987827D01*
X1981968Y2185199D02*
X1987632D01*
X1984321Y1932299D02*
X1987222D01*
X1982399Y2182499D02*
X1987201D01*
X1982474Y2184299D02*
X1987126D01*
X1982598Y2183399D02*
X1987002D01*
X1960848Y1933199D02*
X1986842D01*
X1961097Y1934099D02*
X1986810D01*
X1962566Y1934999D02*
X1986704D01*
X1980003Y1967399D02*
X1986497D01*
X1961474Y2238299D02*
X1986394D01*
X1923806Y2242799D02*
X1986360D01*
X1972740Y2204099D02*
X1986206D01*
X1974352Y2207699D02*
X1985904D01*
X1974055Y2204999D02*
X1985586D01*
X1974592Y2206799D02*
X1985519D01*
X1976503Y1922399D02*
X1985497D01*
X1980531Y1962899D02*
X1985476D01*
X1960968Y2239199D02*
X1985464D01*
X1937003Y2241899D02*
X1985452D01*
X1974506Y2205899D02*
X1985392D01*
X1981125Y1966499D02*
X1985375D01*
X1981306Y1963799D02*
X1985194D01*
X1959083Y2240099D02*
X1985121D01*
X1938125Y2240999D02*
X1985117D01*
X1973652Y2208599D02*
X1985024D01*
X1981530Y1965599D02*
X1984970D01*
X1977031Y1917899D02*
X1984969D01*
X1971899Y2212199D02*
X1984963D01*
X1981582Y1964699D02*
X1984918D01*
X1967710Y1852199D02*
X1984790D01*
X1950379Y1958399D02*
X1984465D01*
X1959751Y2209499D02*
X1984442D01*
X1971273Y2211299D02*
X1984419D01*
X1977625Y1921499D02*
X1984375D01*
X1961625Y1939499D02*
X1984322D01*
X1961051Y1961999D02*
X1984309D01*
X1963261Y1935899D02*
X1984305D01*
X1976082Y2356199D02*
X1984290D01*
X1960069Y2210399D02*
X1984270D01*
X1947776Y2102399D02*
X1984224D01*
X1977806Y1918799D02*
X1984194D01*
X1965473Y2360699D02*
X1984112D01*
X1947966Y2098799D02*
X1984034D01*
X1978030Y1920599D02*
X1983970D01*
X1978082Y1919699D02*
X1983918D01*
X1950806Y1959299D02*
X1983852D01*
X1968690Y1853099D02*
X1983810D01*
X1965503Y2025899D02*
X1983797D01*
X1960690Y1961099D02*
X1983792D01*
X1962957Y1938599D02*
X1983754D01*
X1963498Y1936799D02*
X1983747D01*
X1959710Y1960199D02*
X1983661D01*
X1948401Y2101499D02*
X1983599D01*
X1963410Y1937699D02*
X1983590D01*
X1948473Y2099699D02*
X1983527D01*
X1962300Y1862099D02*
X1983417D01*
X1948598Y2100599D02*
X1983402D01*
X1976030Y2357099D02*
X1983310D01*
X1966031Y2021399D02*
X1983269D01*
X1964966Y2359799D02*
X1983248D01*
X1911831Y1981799D02*
X1983193D01*
X1913253Y1973699D02*
X1983125D01*
X1975453Y2199599D02*
X1982997D01*
X1975625Y2357999D02*
X1982949D01*
X1974503Y2358899D02*
X1982931D01*
X1924092Y1977299D02*
X1982931D01*
X1966625Y2024999D02*
X1982675D01*
X1913469Y1974599D02*
X1982561D01*
X1923855Y1976399D02*
X1982560D01*
X1966806Y2022299D02*
X1982494D01*
X1923160Y1975499D02*
X1982400D01*
X1924004Y1978199D02*
X1982279D01*
X1902800Y1980899D02*
X1982277D01*
X1967030Y2024099D02*
X1982270D01*
X1967082Y2023199D02*
X1982218D01*
X1913175Y1946699D02*
X1982125D01*
X1923550Y1979099D02*
X1981940D01*
X1922219Y1979999D02*
X1981939D01*
X1957968Y2252699D02*
X1981690D01*
X1974895Y2198699D02*
X1981632D01*
X1912651Y1947599D02*
X1981561D01*
X1962300Y1861199D02*
X1981532D01*
X1902800Y1949399D02*
X1981520D01*
X1912922Y2257199D02*
X1981512D01*
X1911693Y1948499D02*
X1981400D01*
X1971812Y2197799D02*
X1981172D01*
X1970700Y2195999D02*
X1981125D01*
X1971474Y2196899D02*
X1981080D01*
X1962300Y1858499D02*
X1981046D01*
X1962300Y1860299D02*
X1981026D01*
X1942598Y2291399D02*
X1980997D01*
X1962300Y1859399D02*
X1980902D01*
X1912921Y2132999D02*
X1980790D01*
X1937468Y2275199D02*
X1980790D01*
X1956083Y2253599D02*
X1980710D01*
X1913321Y2256299D02*
X1980648D01*
X1961030Y1953899D02*
X1980631D01*
X1949884Y1950299D02*
X1980606D01*
X1978824Y1928699D02*
X1980569D01*
X1978245Y1932299D02*
X1980566D01*
X1978827Y2279699D02*
X1980544D01*
X1971899Y2191499D02*
X1980513D01*
X1913456Y2254499D02*
X1980349D01*
X1913489Y2255399D02*
X1980331D01*
X1913254Y2326499D02*
X1980281D01*
X1970237Y2195099D02*
X1980095D01*
X1960623Y1952999D02*
X1980060D01*
X1950751Y1951199D02*
X1980051D01*
X1962300Y1857599D02*
X1980048D01*
X1979014Y1931399D02*
X1980004D01*
X1969051Y1853999D02*
X1979954D01*
X1979345Y1929599D02*
X1979923D01*
X1971857Y2186099D02*
X1979917D01*
X1959497Y1952099D02*
X1979895D01*
X1942399Y2290499D02*
X1979875D01*
X1958551Y2137499D02*
X1979837D01*
X1935583Y2276099D02*
X1979810D01*
X1972098Y2192399D02*
X1979807D01*
X1911169Y2278799D02*
X1979748D01*
X1971468Y2194199D02*
X1979648D01*
X1971974Y2193299D02*
X1979565D01*
X1941773Y2289599D02*
X1979470D01*
X1967888Y1856699D02*
X1979455D01*
X1940660Y2133899D02*
X1979452D01*
X1913034Y2276999D02*
X1979449D01*
X1912396Y2277899D02*
X1979431D01*
X1969069Y1854899D02*
X1979419D01*
X1954001Y2321999D02*
X1979340D01*
X1968752Y1855799D02*
X1979276D01*
X1911365Y2288699D02*
X1979264D01*
X1958190Y2136599D02*
X1979144D01*
X1941784Y2134799D02*
X1978996D01*
X1913470Y2325599D02*
X1978950D01*
X1957210Y2135699D02*
X1978908D01*
X1912861Y1887299D02*
X1978785D01*
X1912725Y2317499D02*
X1978781D01*
X1953376Y2322899D02*
X1978645D01*
X1926466Y1882799D02*
X1978616D01*
X1910943Y1908899D02*
X1978497D01*
X1913480Y2324699D02*
X1978496D01*
X1913288Y2323799D02*
X1978408D01*
X1977572Y2181599D02*
X1978226D01*
X1977377Y2185199D02*
X1978025D01*
X1943692Y1967399D02*
X1977997D01*
X1913440Y1904399D02*
X1977969D01*
X1912921Y2312999D02*
X1977840D01*
X1926276Y1886399D02*
X1977808D01*
X1926973Y1883699D02*
X1977749D01*
X1963098Y2123099D02*
X1977721D01*
X1912487Y2287799D02*
X1977623D01*
X1961504Y2230199D02*
X1977600D01*
X1962973Y2122199D02*
X1977522D01*
X1970503Y2221199D02*
X1977510D01*
X1961069Y1962899D02*
X1977469D01*
X1913216Y2316599D02*
X1977450D01*
X1926901Y1885499D02*
X1977448D01*
X1927098Y1884599D02*
X1977431D01*
X1962466Y2121299D02*
X1977411D01*
X1912300Y1907999D02*
X1977375D01*
X1910669Y1898999D02*
X1977281D01*
X1913495Y1905299D02*
X1977194D01*
X1913320Y2313899D02*
X1977145D01*
X1971466Y2247299D02*
X1977133D01*
X1924082Y2243699D02*
X1977116D01*
X1913500Y2285099D02*
X1977061D01*
X1913084Y2286899D02*
X1977060D01*
X1976429Y2303099D02*
X1977003D01*
X1913456Y2315699D02*
X1976996D01*
X1961592Y2225699D02*
X1976985D01*
X1912980Y1907099D02*
X1976970D01*
X1902800Y2279699D02*
X1976933D01*
X1913350Y1906199D02*
X1976918D01*
X1913489Y2314799D02*
X1976908D01*
X1913400Y2285999D02*
X1976900D01*
X1944052Y1966499D02*
X1976875D01*
X1954292Y2401199D02*
X1976717D01*
X1960752Y1963799D02*
X1976694D01*
X1961592Y2229299D02*
X1976629D01*
X1961356Y2226599D02*
X1976577D01*
X1961306Y2246399D02*
X1976565D01*
X1924030Y2244599D02*
X1976558D01*
X1954473Y2375999D02*
X1976536D01*
X1944069Y1965599D02*
X1976470D01*
X1912651Y2307599D02*
X1976465D01*
X1940535Y2222099D02*
X1976449D01*
X1959888Y1964699D02*
X1976418D01*
X1960531Y2245499D02*
X1976401D01*
X1913456Y1894499D02*
X1976340D01*
X1913400Y2284199D02*
X1976318D01*
X1961504Y2224799D02*
X1976314D01*
X1911693Y2128499D02*
X1976281D01*
X1961355Y2228399D02*
X1976272D01*
X1960869Y2227499D02*
X1976256D01*
X1950276Y1944899D02*
X1976224D01*
X1954847Y2383199D02*
X1976162D01*
X1959710Y2222999D02*
X1976061D01*
X1954974Y2393999D02*
X1976035D01*
X1961083Y1941299D02*
X1976034D01*
X1961048Y2223899D02*
X1976022D01*
X1912196Y1898099D02*
X1975950D01*
X1902800Y2280599D02*
X1975772D01*
X1912487Y1927799D02*
X1975718D01*
X1913175Y2306699D02*
X1975693D01*
X1913489Y1895399D02*
X1975645D01*
X1950901Y1943999D02*
X1975599D01*
X1913083Y2283299D02*
X1975562D01*
X1960807Y1942199D02*
X1975527D01*
X1912922Y1897199D02*
X1975496D01*
X1913440Y2305799D02*
X1975417D01*
X1913321Y1896299D02*
X1975408D01*
X1960035Y1943099D02*
X1975402D01*
X1955625Y2400299D02*
X1975384D01*
X1911360Y2281499D02*
X1975355D01*
X1962901Y2123999D02*
X1975340D01*
X1955703Y2376899D02*
X1975306D01*
X1912484Y2282399D02*
X1975295D01*
X1960142Y1932299D02*
X1975164D01*
X1955881Y2382299D02*
X1975129D01*
X1955945Y2394899D02*
X1975064D01*
X1912651Y2127599D02*
X1974950D01*
X1956298Y2399399D02*
X1974711D01*
X1956342Y2377799D02*
X1974668D01*
X1962276Y2124899D02*
X1974645D01*
X1911365Y1928699D02*
X1974585D01*
X1956441Y2381399D02*
X1974568D01*
X1956477Y2395799D02*
X1974533D01*
X1963412Y1922399D02*
X1974497D01*
X1913175Y2126699D02*
X1974496D01*
X1913440Y2125799D02*
X1974408D01*
X1911164Y1931399D02*
X1974395D01*
X1956664Y2398499D02*
X1974345D01*
X1956685Y2378699D02*
X1974324D01*
X1956731Y2380499D02*
X1974279D01*
X1956746Y2396699D02*
X1974263D01*
X1902800Y2120399D02*
X1974224D01*
X1956805Y2397599D02*
X1974204D01*
X1956808Y2379599D02*
X1974201D01*
X1902800Y1929599D02*
X1974176D01*
X1902800Y1930499D02*
X1974121D01*
X1913132Y2116799D02*
X1974034D01*
X1968098Y1917899D02*
X1973969D01*
X1971643Y2185199D02*
X1973824D01*
X1962300Y1865699D02*
X1973790D01*
X1956786Y2070899D02*
X1973724D01*
X1938804Y2181599D02*
X1973634D01*
X1962300Y1870199D02*
X1973612D01*
X1902800Y2119499D02*
X1973599D01*
X1912861Y2067299D02*
X1973534D01*
X1912571Y2117699D02*
X1973527D01*
X1911538Y2118599D02*
X1973402D01*
X1964533Y1921499D02*
X1973375D01*
X1970991Y2184299D02*
X1973199D01*
X1967974Y1918799D02*
X1973194D01*
X1912569Y2182499D02*
X1973127D01*
X1956508Y2069999D02*
X1973099D01*
X1912085Y2068199D02*
X1973027D01*
X1913130Y2183399D02*
X1973002D01*
X1965583Y1920599D02*
X1972970D01*
X1967468Y1919699D02*
X1972918D01*
X1955730Y2069099D02*
X1972902D01*
X1962300Y1866599D02*
X1972810D01*
X1902800Y1910699D02*
X1972790D01*
X1962300Y1869299D02*
X1972748D01*
X1913499Y1915199D02*
X1972612D01*
X1910943Y2358899D02*
X1972497D01*
X1962300Y1867499D02*
X1972449D01*
X1962300Y1868399D02*
X1972431D01*
X1913440Y2354399D02*
X1971969D01*
X1913495Y2304899D02*
X1971847D01*
X1911533Y1911599D02*
X1971810D01*
X1913421Y1914299D02*
X1971748D01*
X1910936Y2301299D02*
X1971657D01*
X1912569Y1912499D02*
X1971449D01*
X1913130Y1913399D02*
X1971431D01*
X1912300Y2357999D02*
X1971375D01*
X1965219Y2168999D02*
X1971281D01*
X1960855Y2204099D02*
X1971260D01*
X1913349Y2303999D02*
X1971223D01*
X1913495Y2355299D02*
X1971194D01*
X1912297Y2302199D02*
X1971150D01*
X1956363Y2202299D02*
X1971142D01*
X1912978Y2303099D02*
X1971025D01*
X1912980Y2357099D02*
X1970970D01*
X1913350Y2356199D02*
X1970918D01*
X1902800Y2050199D02*
X1970790D01*
X1969811Y2346299D02*
X1970785D01*
X1961377Y2341799D02*
X1970616D01*
X1913480Y2054699D02*
X1970612D01*
X1955995Y2201399D02*
X1970574D01*
X1958891Y2208599D02*
X1970348D01*
X1966160Y2164499D02*
X1970340D01*
X1966550Y2168099D02*
X1969950D01*
X1961092Y2204999D02*
X1969945D01*
X1910294Y2051099D02*
X1969810D01*
X1949598Y2345399D02*
X1969756D01*
X1946561Y2342699D02*
X1969749D01*
X1913288Y2053799D02*
X1969748D01*
X1959219Y2207699D02*
X1969648D01*
X1966855Y2165399D02*
X1969645D01*
X1967004Y2167199D02*
X1969496D01*
X1961004Y2205899D02*
X1969494D01*
X1912082Y2051999D02*
X1969449D01*
X1949399Y2344499D02*
X1969448D01*
X1948773Y2343599D02*
X1969431D01*
X1912859Y2052899D02*
X1969431D01*
X1960550Y2206799D02*
X1969408D01*
X1967092Y2166299D02*
X1969408D01*
X1941592Y2188799D02*
X1968802D01*
X1961592Y2215799D02*
X1968627D01*
X1909504Y2329199D02*
X1968625D01*
X1912793Y2332799D02*
X1968623D01*
X1913500Y2195099D02*
X1968501D01*
X1941307Y2221199D02*
X1968497D01*
X1961123Y2231999D02*
X1968483D01*
X1954996Y2200499D02*
X1968166D01*
X1902800Y2330099D02*
X1968061D01*
X1911962Y2331899D02*
X1968060D01*
X1961504Y2216699D02*
X1967969D01*
X1961399Y2236499D02*
X1967945D01*
X1902800Y2330999D02*
X1967900D01*
X1960052Y2211299D02*
X1967727D01*
X1941050Y2190599D02*
X1967727D01*
X1958598Y2250899D02*
X1967724D01*
X1913400Y2195999D02*
X1967637D01*
X1961582Y2247299D02*
X1967534D01*
X1961355Y2214899D02*
X1967532D01*
X1913400Y2194199D02*
X1967532D01*
X1913421Y2184299D02*
X1967530D01*
X1941583Y2220299D02*
X1967375D01*
X1961530Y2232899D02*
X1967357D01*
X1941355Y2187899D02*
X1967259D01*
X1961050Y2217599D02*
X1967194D01*
X1960878Y2235599D02*
X1967173D01*
X1959692Y2212199D02*
X1967101D01*
X1939719Y2191499D02*
X1967101D01*
X1960003Y2249999D02*
X1967099D01*
X1902800Y2199599D02*
X1967044D01*
X1961530Y2248199D02*
X1967027D01*
X1960660Y2213999D02*
X1967026D01*
X1913083Y2193299D02*
X1967026D01*
X1941530Y2219399D02*
X1966970D01*
X1961583Y2233799D02*
X1966950D01*
X1959719Y2218499D02*
X1966918D01*
X1959217Y2213099D02*
X1966902D01*
X1912484Y2192399D02*
X1966902D01*
X1961125Y2249099D02*
X1966902D01*
X1961307Y2234699D02*
X1966897D01*
X1913499Y2185199D02*
X1966878D01*
X1913084Y2196899D02*
X1966863D01*
X1940660Y2186999D02*
X1966774D01*
X1913377Y2186099D02*
X1966664D01*
X1911365Y2198699D02*
X1966639D01*
X1912487Y2197799D02*
X1966586D01*
X1902800Y2349899D02*
X1965724D01*
X1949474Y2346299D02*
X1965534D01*
X1965242Y1920599D02*
X1965417D01*
X1963710Y1852199D02*
X1965290D01*
X1963888Y1856699D02*
X1965112D01*
X1910669Y2348999D02*
X1965099D01*
X1948968Y2347199D02*
X1965027D01*
X1947083Y2348099D02*
X1964902D01*
X1942516Y2168999D02*
X1963781D01*
X1902800Y2270699D02*
X1963768D01*
X1913377Y1916099D02*
X1963727D01*
X1912980Y2267099D02*
X1963726D01*
X1944030Y2025899D02*
X1963497D01*
X1902800Y2269799D02*
X1963192D01*
X1912300Y2267999D02*
X1963176D01*
X1913034Y1916999D02*
X1963101D01*
X1910943Y2268899D02*
X1963023D01*
X1911164Y2021399D02*
X1962969D01*
X1941493Y2164499D02*
X1962840D01*
X1942756Y2168099D02*
X1962450D01*
X1943623Y2024999D02*
X1962375D01*
X1912394Y2022299D02*
X1962194D01*
X1942221Y2165399D02*
X1962145D01*
X1942789Y2167199D02*
X1961996D01*
X1942497Y2024099D02*
X1961970D01*
X1913032Y2023199D02*
X1961918D01*
X1942620Y2166299D02*
X1961908D01*
X1912484Y1922399D02*
X1961406D01*
X1913130Y2363399D02*
X1961224D01*
X1902800Y2359799D02*
X1961034D01*
X1912396Y1917899D02*
X1960878D01*
X1912569Y2362499D02*
X1960599D01*
X1902800Y2360699D02*
X1960527D01*
X1911533Y2361599D02*
X1960402D01*
X1911360Y1921499D02*
X1960284D01*
X1911169Y1918799D02*
X1960103D01*
X1902800Y1920599D02*
X1959879D01*
X1902800Y1919699D02*
X1959826D01*
X1913469Y2424599D02*
X1959417D01*
X1938530Y2240099D02*
X1958917D01*
X1913495Y2124899D02*
X1958724D01*
X1910936Y2121299D02*
X1958534D01*
X1950751Y1937699D02*
X1958402D01*
X1912921Y2222999D02*
X1958290D01*
X1950663Y2218499D02*
X1958281D01*
X1913349Y2123999D02*
X1958099D01*
X1912297Y2122199D02*
X1958027D01*
X1912978Y2123099D02*
X1957902D01*
X1913253Y2333699D02*
X1957790D01*
X1913495Y2265299D02*
X1957785D01*
X1950411Y1936799D02*
X1957731D01*
X1902800Y2420099D02*
X1957727D01*
X1946877Y2341799D02*
X1957623D01*
X1946966Y2260799D02*
X1957616D01*
X1913253Y2423699D02*
X1957532D01*
X1951069Y1952099D02*
X1957503D01*
X1951069Y1938599D02*
X1957503D01*
X1923625Y2245499D02*
X1957469D01*
X1946875Y2338199D02*
X1957404D01*
X1951082Y1960199D02*
X1957290D01*
X1953852Y2207699D02*
X1957279D01*
X1949710Y2213999D02*
X1957263D01*
X1912725Y2227499D02*
X1957131D01*
X1913470Y2235599D02*
X1957122D01*
X1943751Y1964699D02*
X1957112D01*
X1902800Y2420999D02*
X1957101D01*
X1947439Y2339099D02*
X1957061D01*
X1947440Y2340899D02*
X1957060D01*
X1938582Y2239199D02*
X1957032D01*
X1912793Y2422799D02*
X1957026D01*
X1951098Y1956599D02*
X1956965D01*
X1951098Y1943099D02*
X1956965D01*
X1913320Y2223899D02*
X1956952D01*
X1910294Y2231099D02*
X1956950D01*
X1951356Y2217599D02*
X1956950D01*
X1911962Y2421899D02*
X1956902D01*
X1947600Y2339999D02*
X1956900D01*
X1912082Y2231999D02*
X1956877D01*
X1912394Y1932299D02*
X1956858D01*
X1913469Y2334599D02*
X1956810D01*
X1946776Y2264399D02*
X1956808D01*
X1947473Y2261699D02*
X1956749D01*
X1912861Y2337299D02*
X1956748D01*
X1922503Y2246399D02*
X1956694D01*
X1913480Y2234699D02*
X1956693D01*
X1911835Y2228399D02*
X1956645D01*
X1951048Y2214899D02*
X1956645D01*
X1913216Y2226599D02*
X1956644D01*
X1913254Y2236499D02*
X1956601D01*
X1938306Y2238299D02*
X1956526D01*
X1913489Y2224799D02*
X1956496D01*
X1902800Y2230199D02*
X1956496D01*
X1951592Y2216699D02*
X1956496D01*
X1912859Y2232899D02*
X1956470D01*
X1954169Y2206799D02*
X1956450D01*
X1913481Y2335499D02*
X1956449D01*
X1947401Y2263499D02*
X1956448D01*
X1950940Y1935899D02*
X1956438D01*
X1947598Y2262599D02*
X1956431D01*
X1913289Y2336399D02*
X1956431D01*
X1921481Y2247299D02*
X1956418D01*
X1913288Y2233799D02*
X1956417D01*
X1902800Y2229299D02*
X1956408D01*
X1951504Y2215799D02*
X1956408D01*
X1913456Y2225699D02*
X1956408D01*
X1937531Y2237399D02*
X1956402D01*
X1951052Y1952999D02*
X1956377D01*
X1951052Y1939499D02*
X1956377D01*
X1922251Y2248199D02*
X1956317D01*
X1951030Y1961099D02*
X1956310D01*
X1912978Y2213099D02*
X1956285D01*
X1942884Y1963799D02*
X1956248D01*
X1950973Y1955699D02*
X1956193D01*
X1950973Y1942199D02*
X1956193D01*
X1950375Y1933199D02*
X1956152D01*
X1952988Y2208599D02*
X1956116D01*
X1954151Y2205899D02*
X1955996D01*
X1951100Y1934999D02*
X1955992D01*
X1950692Y1953899D02*
X1955970D01*
X1950692Y1940399D02*
X1955970D01*
X1950625Y1961999D02*
X1955949D01*
X1949503Y1962899D02*
X1955931D01*
X1940083Y2253599D02*
X1955917D01*
X1950468Y1954799D02*
X1955917D01*
X1950468Y1941299D02*
X1955917D01*
X1950939Y1934099D02*
X1955909D01*
X1955248Y2204999D02*
X1955575D01*
X1912297Y2212199D02*
X1955308D01*
X1938901Y2209499D02*
X1955249D01*
X1910936Y2211299D02*
X1954948D01*
X1938276Y2210399D02*
X1954931D01*
X1942383Y2135699D02*
X1954790D01*
X1941787Y2140199D02*
X1954612D01*
X1941773Y2249099D02*
X1954227D01*
X1913321Y2076299D02*
X1954123D01*
X1941968Y2252699D02*
X1954032D01*
X1942700Y2136599D02*
X1953810D01*
X1942384Y2139299D02*
X1953748D01*
X1942399Y2249999D02*
X1953601D01*
X1913489Y2075399D02*
X1953560D01*
X1942474Y2251799D02*
X1953526D01*
X1942800Y2137499D02*
X1953449D01*
X1942700Y2138399D02*
X1953431D01*
X1942598Y2250899D02*
X1953402D01*
X1913456Y2074499D02*
X1953400D01*
X1913215Y2073599D02*
X1953184D01*
X1910306Y2069099D02*
X1952679D01*
X1902800Y2200499D02*
X1952632D01*
X1912723Y2072699D02*
X1952077D01*
X1902800Y2069999D02*
X1951901D01*
X1911831Y2071799D02*
X1951673D01*
X1911164Y2201399D02*
X1951634D01*
X1902800Y2070899D02*
X1951622D01*
X1912394Y2202299D02*
X1951266D01*
X1913032Y2203199D02*
X1951243D01*
X1910661Y2401199D02*
X1951127D01*
X1913400Y2375999D02*
X1950946D01*
X1913032Y2383199D02*
X1950572D01*
X1913349Y2393999D02*
X1950445D01*
X1913376Y2204099D02*
X1950390D01*
X1939098Y2208599D02*
X1950212D01*
X1912859Y2322899D02*
X1949824D01*
X1902800Y2400299D02*
X1949793D01*
X1913084Y2376899D02*
X1949716D01*
X1902800Y2319299D02*
X1949634D01*
X1912394Y2382299D02*
X1949538D01*
X1913495Y2394899D02*
X1949474D01*
X1913499Y2204999D02*
X1949410D01*
X1938973Y2207699D02*
X1949348D01*
X1912082Y2321999D02*
X1949199D01*
X1902800Y2320199D02*
X1949127D01*
X1902800Y2399399D02*
X1949120D01*
X1912487Y2377799D02*
X1949077D01*
X1913421Y2205899D02*
X1949049D01*
X1938466Y2206799D02*
X1949031D01*
X1910294Y2321099D02*
X1949002D01*
X1911164Y2381399D02*
X1948978D01*
X1913440Y2395799D02*
X1948942D01*
X1911693Y2398499D02*
X1948755D01*
X1911365Y2378699D02*
X1948734D01*
X1902800Y2380499D02*
X1948688D01*
X1913175Y2396699D02*
X1948673D01*
X1912651Y2397599D02*
X1948613D01*
X1902800Y2379599D02*
X1948611D01*
X1913349Y2213999D02*
X1948290D01*
X1917031Y1962899D02*
X1947497D01*
X1941123Y2218499D02*
X1947337D01*
X1910943Y2448899D02*
X1947224D01*
X1902800Y1950299D02*
X1947116D01*
X1913495Y2445299D02*
X1947034D01*
X1913495Y2214899D02*
X1946952D01*
X1912196Y2348099D02*
X1946917D01*
X1913495Y1944899D02*
X1946724D01*
X1939997Y2217599D02*
X1946644D01*
X1913032Y1933199D02*
X1946625D01*
X1911835Y1958399D02*
X1946621D01*
X1912300Y2447999D02*
X1946599D01*
X1913132Y1936799D02*
X1946589D01*
X1913489Y1954799D02*
X1946532D01*
X1910936Y1941299D02*
X1946532D01*
X1913350Y2446199D02*
X1946527D01*
X1913440Y2215799D02*
X1946496D01*
X1913175Y2216699D02*
X1946408D01*
X1912980Y2447099D02*
X1946402D01*
X1912082Y1961999D02*
X1946375D01*
X1913320Y1953899D02*
X1946308D01*
X1902800Y1940399D02*
X1946308D01*
X1910661Y1951199D02*
X1946249D01*
X1912571Y1937699D02*
X1946249D01*
X1902800Y1959299D02*
X1946194D01*
X1912725Y1957499D02*
X1946099D01*
X1913349Y1943999D02*
X1946099D01*
X1913376Y1934099D02*
X1946061D01*
X1913421Y1935899D02*
X1946060D01*
X1913456Y1955699D02*
X1946027D01*
X1912297Y1942199D02*
X1946027D01*
X1910294Y1961099D02*
X1945970D01*
X1912921Y1952999D02*
X1945948D01*
X1902800Y1939499D02*
X1945948D01*
X1912193Y1952099D02*
X1945931D01*
X1911538Y1938599D02*
X1945931D01*
X1902800Y1960199D02*
X1945918D01*
X1913216Y1956599D02*
X1945902D01*
X1912978Y1943099D02*
X1945902D01*
X1913499Y1934999D02*
X1945900D01*
X1912723Y2342699D02*
X1945337D01*
X1913215Y2343599D02*
X1945227D01*
X1912922Y2347199D02*
X1945032D01*
X1913456Y2344499D02*
X1944601D01*
X1913321Y2346299D02*
X1944526D01*
X1913489Y2345399D02*
X1944402D01*
X1912484Y2102399D02*
X1944224D01*
X1911169Y2098799D02*
X1944034D01*
X1911360Y2101499D02*
X1943599D01*
X1902800Y2099699D02*
X1943527D01*
X1902800Y2100599D02*
X1943402D01*
X1913440Y2264399D02*
X1943224D01*
X1912085Y2338199D02*
X1943125D01*
X1911831Y2341799D02*
X1943123D01*
X1904377Y2260799D02*
X1943034D01*
X1913174Y2263499D02*
X1942599D01*
X1910306Y2339099D02*
X1942561D01*
X1902800Y2340899D02*
X1942560D01*
X1911689Y2261699D02*
X1942527D01*
X1912649Y2262599D02*
X1942402D01*
X1902800Y2339999D02*
X1942400D01*
X1913376Y2024099D02*
X1940503D01*
X1933974Y1968299D02*
X1940285D01*
X1917806Y1963799D02*
X1940116D01*
X1911538Y2028599D02*
X1939965D01*
X1913376Y2294099D02*
X1939917D01*
X1913215Y2253599D02*
X1939917D01*
X1913499Y2024999D02*
X1939377D01*
X1934098Y1967399D02*
X1939308D01*
X1918082Y1964699D02*
X1939249D01*
X1912571Y2027699D02*
X1939193D01*
X1913421Y2025899D02*
X1938970D01*
X1933899Y1966499D02*
X1938948D01*
X1933273Y1965599D02*
X1938931D01*
X1913132Y2026799D02*
X1938917D01*
X1911533Y2181599D02*
X1938596D01*
X1911360Y2191499D02*
X1938281D01*
X1902800Y2289599D02*
X1938227D01*
X1922569Y2249099D02*
X1938227D01*
X1913032Y2293199D02*
X1938032D01*
X1912723Y2252699D02*
X1938032D01*
X1912651Y2217599D02*
X1938003D01*
X1913174Y2173499D02*
X1937806D01*
X1902800Y2290499D02*
X1937601D01*
X1922552Y2249999D02*
X1937601D01*
X1912394Y2292299D02*
X1937526D01*
X1921215Y2251799D02*
X1937526D01*
X1912193Y2222099D02*
X1937465D01*
X1913215Y2163599D02*
X1937439D01*
X1911164Y2291399D02*
X1937402D01*
X1922192Y2250899D02*
X1937402D01*
X1913034Y2186999D02*
X1937340D01*
X1913253Y2153699D02*
X1937164D01*
X1902800Y2190599D02*
X1936950D01*
X1913288Y2143799D02*
X1936936D01*
X1911693Y2218499D02*
X1936877D01*
X1913320Y2133899D02*
X1936740D01*
X1910294Y2141099D02*
X1936735D01*
X1910661Y2221199D02*
X1936693D01*
X1912396Y2187899D02*
X1936645D01*
X1902800Y2150999D02*
X1936562D01*
X1902800Y2189699D02*
X1936496D01*
X1902800Y2219399D02*
X1936470D01*
X1902800Y2220299D02*
X1936417D01*
X1911169Y2188799D02*
X1936408D01*
X1902800Y2160899D02*
X1936407D01*
X1919083Y2170799D02*
X1936265D01*
X1902800Y2180699D02*
X1936135D01*
X1913440Y2174399D02*
X1936018D01*
X1913456Y2164499D02*
X1935907D01*
X1913469Y2154599D02*
X1935803D01*
X1913480Y2144699D02*
X1935706D01*
X1913489Y2134799D02*
X1935616D01*
X1902800Y2140199D02*
X1935613D01*
X1902800Y2150099D02*
X1935529D01*
X1902800Y2159999D02*
X1935449D01*
X1913377Y2276099D02*
X1935417D01*
X1919030Y2169899D02*
X1935375D01*
X1902800Y2179799D02*
X1935305D01*
X1913495Y2175299D02*
X1935241D01*
X1913489Y2165399D02*
X1935179D01*
X1913481Y2155499D02*
X1935122D01*
X1913470Y2145599D02*
X1935068D01*
X1913456Y2135699D02*
X1935017D01*
X1902800Y2139299D02*
X1935016D01*
X1923031Y2241899D02*
X1934997D01*
X1909504Y2149199D02*
X1934968D01*
X1910306Y2159099D02*
X1934925D01*
X1918623Y2168999D02*
X1934884D01*
X1910943Y2178899D02*
X1934846D01*
X1913350Y2176199D02*
X1934812D01*
X1913321Y2166299D02*
X1934780D01*
X1913289Y2156399D02*
X1934751D01*
X1913254Y2146499D02*
X1934724D01*
X1902800Y2210399D02*
X1934724D01*
X1913216Y2136599D02*
X1934700D01*
X1911835Y2138399D02*
X1934700D01*
X1911965Y2148299D02*
X1934679D01*
X1912085Y2158199D02*
X1934660D01*
X1917497Y2168099D02*
X1934644D01*
X1912300Y2177999D02*
X1934630D01*
X1912980Y2177099D02*
X1934620D01*
X1912922Y2167199D02*
X1934611D01*
X1912861Y2157299D02*
X1934605D01*
X1912795Y2147399D02*
X1934601D01*
X1912725Y2137499D02*
X1934600D01*
X1913132Y2206799D02*
X1934534D01*
X1912795Y2237399D02*
X1934469D01*
X1902800Y2209499D02*
X1934099D01*
X1912571Y2207699D02*
X1934027D01*
X1911538Y2208599D02*
X1933902D01*
X1902800Y2240999D02*
X1933875D01*
X1911533Y2271599D02*
X1933727D01*
X1911965Y2238299D02*
X1933694D01*
X1913499Y2275199D02*
X1933532D01*
X1902800Y2240099D02*
X1933470D01*
X1909504Y2239199D02*
X1933418D01*
X1912569Y2272499D02*
X1933101D01*
X1913421Y2274299D02*
X1933026D01*
X1913130Y2273399D02*
X1932902D01*
X1902800Y1970099D02*
X1931417D01*
X1918030Y1965599D02*
X1929727D01*
X1909504Y1969199D02*
X1929532D01*
X1917625Y1966499D02*
X1929101D01*
X1911965Y1968299D02*
X1929026D01*
X1916503Y1967399D02*
X1928902D01*
X1913289Y1886399D02*
X1922724D01*
X1912793Y1882799D02*
X1922534D01*
X1913481Y1885499D02*
X1922099D01*
X1913253Y1883699D02*
X1922027D01*
X1913469Y1884599D02*
X1921902D01*
X1902800Y1979999D02*
X1920781D01*
X1913289Y2246399D02*
X1920073D01*
X1911962Y2241899D02*
X1919969D01*
X1913481Y1975499D02*
X1919840D01*
X1910306Y1979099D02*
X1919450D01*
X1913481Y2245499D02*
X1919375D01*
X1912793Y2242799D02*
X1919194D01*
X1913289Y1976399D02*
X1919145D01*
X1912085Y1978199D02*
X1918996D01*
X1913469Y2244599D02*
X1918970D01*
X1913253Y2243699D02*
X1918918D01*
X1912861Y1977299D02*
X1918908D01*
X1911831Y2251799D02*
X1918785D01*
X1912861Y2247299D02*
X1918616D01*
X1907629Y2250899D02*
X1917808D01*
X1912085Y2248199D02*
X1917749D01*
X1907399Y2249999D02*
X1917448D01*
X1910306Y2249099D02*
X1917431D01*
X1912196Y2168099D02*
X1915503D01*
X1912649Y2172599D02*
X1914965D01*
X1912795Y1967399D02*
X1914497D01*
X1910669Y2168999D02*
X1914377D01*
X1911689Y2171699D02*
X1914193D01*
X1902800Y2169899D02*
X1913970D01*
X1912859Y1962899D02*
X1913969D01*
X1902800Y2170799D02*
X1913917D01*
X1902800Y2419199D02*
X1909296D01*
X1902800Y2329199D02*
X1909296D01*
X1902800Y2239199D02*
X1909296D01*
X1902800Y2149199D02*
X1909296D01*
X1902800Y2059199D02*
X1909296D01*
X1902800Y1969199D02*
X1909296D01*
X1902800Y2411099D02*
X1908506D01*
X1902800Y2321099D02*
X1908506D01*
X1902800Y2231099D02*
X1908506D01*
X1902800Y2141099D02*
X1908506D01*
X1902800Y2051099D02*
X1908506D01*
X1902800Y1961099D02*
X1908506D01*
X1902800Y2339099D02*
X1908494D01*
X1907182Y2249099D02*
X1908494D01*
X1902800Y2159099D02*
X1908494D01*
X1902800Y2069099D02*
X1908494D01*
X1902800Y1979099D02*
X1908494D01*
X1902800Y1889099D02*
X1908494D01*
X1902800Y2401199D02*
X1908139D01*
X1902800Y2311199D02*
X1908139D01*
X1902800Y2221199D02*
X1908139D01*
X1902800Y2131199D02*
X1908139D01*
X1902800Y2041199D02*
X1908139D01*
X1902800Y1951199D02*
X1908139D01*
X1902800Y2438999D02*
X1908131D01*
X1902800Y2348999D02*
X1908131D01*
X1905100Y2258999D02*
X1908131D01*
X1902800Y2168999D02*
X1908131D01*
X1902800Y2078999D02*
X1908131D01*
X1902800Y1988999D02*
X1908131D01*
X1902800Y1898999D02*
X1908131D01*
X1902800Y2391299D02*
X1907864D01*
X1902800Y2301299D02*
X1907864D01*
X1902800Y2211299D02*
X1907864D01*
X1902800Y2121299D02*
X1907864D01*
X1902800Y2031299D02*
X1907864D01*
X1902800Y1941299D02*
X1907864D01*
X1902800Y2448899D02*
X1907857D01*
X1902800Y2358899D02*
X1907857D01*
X1902800Y2268899D02*
X1907857D01*
X1902800Y2178899D02*
X1907857D01*
X1902800Y2088899D02*
X1907857D01*
X1902800Y1998899D02*
X1907857D01*
X1902800Y1908899D02*
X1907857D01*
X1902800Y2381399D02*
X1907636D01*
X1902800Y2291399D02*
X1907636D01*
X1902800Y2201399D02*
X1907636D01*
X1902800Y2111399D02*
X1907636D01*
X1902800Y2021399D02*
X1907636D01*
X1902800Y1931399D02*
X1907636D01*
X1902800Y2458799D02*
X1907631D01*
X1902800Y2368799D02*
X1907631D01*
X1902800Y2278799D02*
X1907631D01*
X1902800Y2188799D02*
X1907631D01*
X1902800Y2098799D02*
X1907631D01*
X1902800Y2008799D02*
X1907631D01*
X1902800Y1918799D02*
X1907631D01*
X1902800Y2371499D02*
X1907440D01*
X1902800Y2281499D02*
X1907440D01*
X1902800Y2191499D02*
X1907440D01*
X1902800Y2101499D02*
X1907440D01*
X1902800Y2011499D02*
X1907440D01*
X1902800Y1921499D02*
X1907440D01*
X1902800Y2378699D02*
X1907435D01*
X1902800Y2288699D02*
X1907435D01*
X1902800Y2198699D02*
X1907435D01*
X1902800Y2108699D02*
X1907435D01*
X1902800Y2018699D02*
X1907435D01*
X1902800Y1928699D02*
X1907435D01*
X1902800Y2451599D02*
X1907267D01*
X1902800Y2361599D02*
X1907267D01*
X1902800Y2271599D02*
X1907267D01*
X1902800Y2181599D02*
X1907267D01*
X1902800Y2091599D02*
X1907267D01*
X1902800Y2001599D02*
X1907267D01*
X1902800Y1911599D02*
X1907267D01*
X1902800Y2388599D02*
X1907262D01*
X1902800Y2298599D02*
X1907262D01*
X1902800Y2208599D02*
X1907262D01*
X1902800Y2118599D02*
X1907262D01*
X1902800Y2028599D02*
X1907262D01*
X1902800Y1938599D02*
X1907262D01*
X1902800Y2441699D02*
X1907111D01*
X1902800Y2351699D02*
X1907111D01*
X1902897Y2261699D02*
X1907111D01*
X1902800Y2171699D02*
X1907111D01*
X1902800Y2081699D02*
X1907111D01*
X1902800Y1991699D02*
X1907111D01*
X1902800Y1901699D02*
X1907111D01*
X1902800Y2398499D02*
X1907107D01*
X1902800Y2308499D02*
X1907107D01*
X1902800Y2218499D02*
X1907107D01*
X1902800Y2128499D02*
X1907107D01*
X1902800Y2038499D02*
X1907107D01*
X1902800Y1948499D02*
X1907107D01*
X1902800Y2341799D02*
X1906969D01*
X1902800Y2161799D02*
X1906969D01*
X1902800Y2071799D02*
X1906969D01*
X1902800Y1981799D02*
X1906969D01*
X1902800Y1891799D02*
X1906969D01*
X1902800Y2408399D02*
X1906965D01*
X1902800Y2318399D02*
X1906965D01*
X1902800Y2228399D02*
X1906965D01*
X1902800Y2138399D02*
X1906965D01*
X1902800Y2048399D02*
X1906965D01*
X1902800Y1958399D02*
X1906965D01*
X1902800Y2421899D02*
X1906838D01*
X1902800Y2331899D02*
X1906838D01*
X1902800Y2241899D02*
X1906838D01*
X1902800Y2151899D02*
X1906838D01*
X1902800Y2061899D02*
X1906838D01*
X1902800Y1971899D02*
X1906838D01*
X1902800Y1881899D02*
X1906838D01*
X1902800Y2418299D02*
X1906835D01*
X1902800Y2328299D02*
X1906835D01*
X1902800Y2238299D02*
X1906835D01*
X1902800Y2148299D02*
X1906835D01*
X1902800Y2058299D02*
X1906835D01*
X1902800Y1968299D02*
X1906835D01*
X1902800Y2411999D02*
X1906718D01*
X1902800Y2321999D02*
X1906718D01*
X1902800Y2231999D02*
X1906718D01*
X1902800Y2141999D02*
X1906718D01*
X1902800Y2051999D02*
X1906718D01*
X1902800Y1961999D02*
X1906718D01*
X1902800Y2338199D02*
X1906715D01*
X1902800Y2158199D02*
X1906715D01*
X1902800Y2068199D02*
X1906715D01*
X1902800Y1978199D02*
X1906715D01*
X1902800Y1888199D02*
X1906715D01*
X1902800Y2402099D02*
X1906607D01*
X1902800Y2312099D02*
X1906607D01*
X1902800Y2222099D02*
X1906607D01*
X1902800Y2132099D02*
X1906607D01*
X1902800Y2042099D02*
X1906607D01*
X1902800Y1952099D02*
X1906607D01*
X1902800Y2438099D02*
X1906604D01*
X1902800Y2348099D02*
X1906604D01*
X1904939Y2258099D02*
X1906604D01*
X1902800Y2168099D02*
X1906604D01*
X1902800Y2078099D02*
X1906604D01*
X1902800Y1988099D02*
X1906604D01*
X1902800Y1898099D02*
X1906604D01*
X1902800Y2392199D02*
X1906503D01*
X1902800Y2302199D02*
X1906503D01*
X1902800Y2212199D02*
X1906503D01*
X1902800Y2122199D02*
X1906503D01*
X1902800Y2032199D02*
X1906503D01*
X1902800Y1942199D02*
X1906503D01*
X1902800Y2447999D02*
X1906500D01*
X1902800Y2357999D02*
X1906500D01*
X1902800Y2267999D02*
X1906500D01*
X1902800Y2177999D02*
X1906500D01*
X1902800Y2087999D02*
X1906500D01*
X1902800Y1997999D02*
X1906500D01*
X1902800Y1907999D02*
X1906500D01*
X1902800Y2382299D02*
X1906406D01*
X1902800Y2292299D02*
X1906406D01*
X1902800Y2202299D02*
X1906406D01*
X1902800Y2112299D02*
X1906406D01*
X1902800Y2022299D02*
X1906406D01*
X1902800Y1932299D02*
X1906406D01*
X1902800Y2457899D02*
X1906404D01*
X1902800Y2367899D02*
X1906404D01*
X1902800Y2277899D02*
X1906404D01*
X1902800Y2187899D02*
X1906404D01*
X1902800Y2097899D02*
X1906404D01*
X1902800Y2007899D02*
X1906404D01*
X1902800Y1917899D02*
X1906404D01*
X1902800Y2372399D02*
X1906316D01*
X1902800Y2282399D02*
X1906316D01*
X1902800Y2192399D02*
X1906316D01*
X1902800Y2102399D02*
X1906316D01*
X1902800Y2012399D02*
X1906316D01*
X1902800Y1922399D02*
X1906316D01*
X1902800Y2377799D02*
X1906313D01*
X1902800Y2287799D02*
X1906313D01*
X1902800Y2197799D02*
X1906313D01*
X1902800Y2107799D02*
X1906313D01*
X1902800Y2017799D02*
X1906313D01*
X1902800Y1927799D02*
X1906313D01*
X1902800Y2248199D02*
X1906309D01*
X1902800Y2452499D02*
X1906231D01*
X1902800Y2362499D02*
X1906231D01*
X1902800Y2272499D02*
X1906231D01*
X1902800Y2182499D02*
X1906231D01*
X1902800Y2092499D02*
X1906231D01*
X1902800Y2002499D02*
X1906231D01*
X1902800Y1912499D02*
X1906231D01*
X1902800Y2387699D02*
X1906229D01*
X1902800Y2297699D02*
X1906229D01*
X1902800Y2207699D02*
X1906229D01*
X1902800Y2117699D02*
X1906229D01*
X1902800Y2027699D02*
X1906229D01*
X1902800Y1937699D02*
X1906229D01*
X1902800Y2442599D02*
X1906151D01*
X1902800Y2352599D02*
X1906151D01*
X1902800Y2262599D02*
X1906151D01*
X1902800Y2172599D02*
X1906151D01*
X1902800Y2082599D02*
X1906151D01*
X1902800Y1992599D02*
X1906151D01*
X1902800Y1902599D02*
X1906151D01*
X1902800Y2397599D02*
X1906149D01*
X1902800Y2307599D02*
X1906149D01*
X1902800Y2217599D02*
X1906149D01*
X1902800Y2127599D02*
X1906149D01*
X1902800Y2037599D02*
X1906149D01*
X1902800Y1947599D02*
X1906149D01*
X1902800Y2342699D02*
X1906077D01*
X1902800Y2162699D02*
X1906077D01*
X1902800Y2072699D02*
X1906077D01*
X1902800Y1982699D02*
X1906077D01*
X1902800Y1892699D02*
X1906077D01*
X1902800Y2407499D02*
X1906075D01*
X1902800Y2317499D02*
X1906075D01*
X1902800Y2227499D02*
X1906075D01*
X1902800Y2137499D02*
X1906075D01*
X1902800Y2047499D02*
X1906075D01*
X1902800Y1957499D02*
X1906075D01*
X1902800Y2422799D02*
X1906007D01*
X1902800Y2332799D02*
X1906007D01*
X1902800Y2242799D02*
X1906007D01*
X1902800Y2152799D02*
X1906007D01*
X1902800Y2062799D02*
X1906007D01*
X1902800Y1972799D02*
X1906007D01*
X1902800Y1882799D02*
X1906007D01*
X1902800Y2417399D02*
X1906005D01*
X1902800Y2327399D02*
X1906005D01*
X1902800Y2237399D02*
X1906005D01*
X1902800Y2147399D02*
X1906005D01*
X1902800Y2057399D02*
X1906005D01*
X1902800Y1967399D02*
X1906005D01*
X1902800Y2432699D02*
X1905976D01*
X1902800Y2412899D02*
X1905941D01*
X1902800Y2322899D02*
X1905941D01*
X1902800Y2232899D02*
X1905941D01*
X1902800Y2142899D02*
X1905941D01*
X1902800Y2052899D02*
X1905941D01*
X1902800Y1962899D02*
X1905941D01*
X1902800Y2337299D02*
X1905939D01*
X1902800Y2247299D02*
X1905939D01*
X1902800Y2157299D02*
X1905939D01*
X1902800Y2067299D02*
X1905939D01*
X1902800Y1977299D02*
X1905939D01*
X1902800Y1887299D02*
X1905939D01*
X1902800Y2427299D02*
X1905886D01*
X1902800Y2402999D02*
X1905879D01*
X1902800Y2312999D02*
X1905879D01*
X1902800Y2222999D02*
X1905879D01*
X1902800Y2132999D02*
X1905879D01*
X1902800Y2042999D02*
X1905879D01*
X1902800Y1952999D02*
X1905879D01*
X1902800Y2437199D02*
X1905878D01*
X1902800Y2347199D02*
X1905878D01*
X1904375Y2257199D02*
X1905878D01*
X1902800Y2167199D02*
X1905878D01*
X1902800Y2077199D02*
X1905878D01*
X1902800Y1987199D02*
X1905878D01*
X1902800Y1897199D02*
X1905878D01*
X1902800Y2393099D02*
X1905822D01*
X1902800Y2303099D02*
X1905822D01*
X1902800Y2213099D02*
X1905822D01*
X1902800Y2123099D02*
X1905822D01*
X1902800Y2033099D02*
X1905822D01*
X1902800Y1943099D02*
X1905822D01*
X1902800Y2447099D02*
X1905820D01*
X1902800Y2357099D02*
X1905820D01*
X1902800Y2267099D02*
X1905820D01*
X1902800Y2177099D02*
X1905820D01*
X1902800Y2087099D02*
X1905820D01*
X1902800Y1997099D02*
X1905820D01*
X1902800Y1907099D02*
X1905820D01*
X1902800Y2383199D02*
X1905768D01*
X1902800Y2293199D02*
X1905768D01*
X1902800Y2203199D02*
X1905768D01*
X1902800Y2113199D02*
X1905768D01*
X1902800Y2023199D02*
X1905768D01*
X1902800Y1933199D02*
X1905768D01*
X1902800Y2456999D02*
X1905766D01*
X1902800Y2366999D02*
X1905766D01*
X1902800Y2276999D02*
X1905766D01*
X1902800Y2186999D02*
X1905766D01*
X1902800Y2096999D02*
X1905766D01*
X1902800Y2006999D02*
X1905766D01*
X1902800Y1916999D02*
X1905766D01*
X1902800Y2373299D02*
X1905717D01*
X1902800Y2283299D02*
X1905717D01*
X1902800Y2193299D02*
X1905717D01*
X1902800Y2103299D02*
X1905717D01*
X1902800Y2013299D02*
X1905717D01*
X1902800Y1923299D02*
X1905717D01*
X1902800Y2376899D02*
X1905716D01*
X1902800Y2286899D02*
X1905716D01*
X1902800Y2196899D02*
X1905716D01*
X1902800Y2106899D02*
X1905716D01*
X1902800Y2016899D02*
X1905716D01*
X1902800Y1926899D02*
X1905716D01*
X1902800Y2453399D02*
X1905670D01*
X1902800Y2363399D02*
X1905670D01*
X1902800Y2273399D02*
X1905670D01*
X1902800Y2183399D02*
X1905670D01*
X1902800Y2093399D02*
X1905670D01*
X1902800Y2003399D02*
X1905670D01*
X1902800Y1913399D02*
X1905670D01*
X1902800Y2386799D02*
X1905668D01*
X1902800Y2296799D02*
X1905668D01*
X1902800Y2206799D02*
X1905668D01*
X1902800Y2116799D02*
X1905668D01*
X1902800Y2026799D02*
X1905668D01*
X1902800Y1936799D02*
X1905668D01*
X1902800Y2443499D02*
X1905626D01*
X1902800Y2353499D02*
X1905626D01*
X1902800Y2263499D02*
X1905626D01*
X1902800Y2173499D02*
X1905626D01*
X1902800Y2083499D02*
X1905626D01*
X1902800Y1993499D02*
X1905626D01*
X1902800Y1903499D02*
X1905626D01*
X1902800Y2396699D02*
X1905625D01*
X1902800Y2306699D02*
X1905625D01*
X1902800Y2216699D02*
X1905625D01*
X1902800Y2126699D02*
X1905625D01*
X1902800Y2036699D02*
X1905625D01*
X1902800Y1946699D02*
X1905625D01*
X1902800Y2433599D02*
X1905585D01*
X1902800Y2343599D02*
X1905585D01*
X1902800Y2163599D02*
X1905585D01*
X1902800Y2073599D02*
X1905585D01*
X1902800Y1983599D02*
X1905585D01*
X1902800Y1893599D02*
X1905585D01*
X1902800Y2406599D02*
X1905584D01*
X1902800Y2316599D02*
X1905584D01*
X1902800Y2226599D02*
X1905584D01*
X1902800Y2136599D02*
X1905584D01*
X1902800Y2046599D02*
X1905584D01*
X1902800Y1956599D02*
X1905584D01*
X1902800Y2423699D02*
X1905547D01*
X1902800Y2333699D02*
X1905547D01*
X1902800Y2243699D02*
X1905547D01*
X1902800Y2153699D02*
X1905547D01*
X1902800Y2063699D02*
X1905547D01*
X1902800Y1973699D02*
X1905547D01*
X1902800Y1883699D02*
X1905547D01*
X1902800Y2416499D02*
X1905546D01*
X1902800Y2326499D02*
X1905546D01*
X1902800Y2236499D02*
X1905546D01*
X1902800Y2146499D02*
X1905546D01*
X1902800Y2056499D02*
X1905546D01*
X1902800Y1966499D02*
X1905546D01*
X1902800Y2413799D02*
X1905512D01*
X1902800Y2323799D02*
X1905512D01*
X1902800Y2233799D02*
X1905512D01*
X1902800Y2143799D02*
X1905512D01*
X1902800Y2053799D02*
X1905512D01*
X1902800Y1963799D02*
X1905512D01*
X1902800Y2426399D02*
X1905511D01*
X1902800Y2336399D02*
X1905511D01*
X1902800Y2246399D02*
X1905511D01*
X1902800Y2156399D02*
X1905511D01*
X1902800Y2066399D02*
X1905511D01*
X1902800Y1976399D02*
X1905511D01*
X1902800Y1886399D02*
X1905511D01*
X1902800Y2403899D02*
X1905480D01*
X1902800Y2313899D02*
X1905480D01*
X1902800Y2223899D02*
X1905480D01*
X1902800Y2133899D02*
X1905480D01*
X1902800Y2043899D02*
X1905480D01*
X1902800Y1953899D02*
X1905480D01*
X1902800Y2436299D02*
X1905479D01*
X1902800Y2346299D02*
X1905479D01*
X1902895Y2256299D02*
X1905479D01*
X1902800Y2166299D02*
X1905479D01*
X1902800Y2076299D02*
X1905479D01*
X1902800Y1986299D02*
X1905479D01*
X1902800Y1896299D02*
X1905479D01*
X1902800Y2393999D02*
X1905451D01*
X1902800Y2303999D02*
X1905451D01*
X1902800Y2213999D02*
X1905451D01*
X1902800Y2123999D02*
X1905451D01*
X1902800Y2033999D02*
X1905451D01*
X1902800Y1943999D02*
X1905451D01*
X1902800Y2446199D02*
X1905450D01*
X1902800Y2356199D02*
X1905450D01*
X1902800Y2266199D02*
X1905450D01*
X1902800Y2176199D02*
X1905450D01*
X1902800Y2086199D02*
X1905450D01*
X1902800Y1996199D02*
X1905450D01*
X1902800Y1906199D02*
X1905450D01*
X1902800Y2384099D02*
X1905424D01*
X1902800Y2294099D02*
X1905424D01*
X1902800Y2204099D02*
X1905424D01*
X1902800Y2114099D02*
X1905424D01*
X1902800Y2024099D02*
X1905424D01*
X1902800Y1934099D02*
X1905424D01*
X1902800Y2456099D02*
X1905423D01*
X1902800Y2366099D02*
X1905423D01*
X1902800Y2276099D02*
X1905423D01*
X1902800Y2186099D02*
X1905423D01*
X1902800Y2096099D02*
X1905423D01*
X1902800Y2006099D02*
X1905423D01*
X1902800Y1916099D02*
X1905423D01*
X1902800Y2374199D02*
X1905400D01*
X1902800Y2284199D02*
X1905400D01*
X1902800Y2194199D02*
X1905400D01*
X1902800Y2104199D02*
X1905400D01*
X1902800Y2014199D02*
X1905400D01*
X1902800Y1924199D02*
X1905400D01*
X1902800Y2375999D02*
X1905400D01*
X1902800Y2285999D02*
X1905400D01*
X1902800Y2195999D02*
X1905400D01*
X1902800Y2105999D02*
X1905400D01*
X1902800Y2015999D02*
X1905400D01*
X1902800Y1925999D02*
X1905400D01*
X1902800Y2454299D02*
X1905379D01*
X1902800Y2364299D02*
X1905379D01*
X1902800Y2274299D02*
X1905379D01*
X1902800Y2184299D02*
X1905379D01*
X1902800Y2094299D02*
X1905379D01*
X1902800Y2004299D02*
X1905379D01*
X1902800Y1914299D02*
X1905379D01*
X1902800Y2385899D02*
X1905379D01*
X1902800Y2295899D02*
X1905379D01*
X1902800Y2205899D02*
X1905379D01*
X1902800Y2115899D02*
X1905379D01*
X1902800Y2025899D02*
X1905379D01*
X1902800Y1935899D02*
X1905379D01*
X1902800Y2444399D02*
X1905360D01*
X1902800Y2354399D02*
X1905360D01*
X1902800Y2264399D02*
X1905360D01*
X1902800Y2174399D02*
X1905360D01*
X1902800Y2084399D02*
X1905360D01*
X1902800Y1994399D02*
X1905360D01*
X1902800Y1904399D02*
X1905360D01*
X1902800Y2395799D02*
X1905360D01*
X1902800Y2305799D02*
X1905360D01*
X1902800Y2215799D02*
X1905360D01*
X1902800Y2125799D02*
X1905360D01*
X1902800Y2035799D02*
X1905360D01*
X1902800Y1945799D02*
X1905360D01*
X1902800Y2434499D02*
X1905344D01*
X1902800Y2344499D02*
X1905344D01*
X1902800Y2254499D02*
X1905344D01*
X1902800Y2164499D02*
X1905344D01*
X1902800Y2074499D02*
X1905344D01*
X1902800Y1984499D02*
X1905344D01*
X1902800Y1894499D02*
X1905344D01*
X1902800Y2405699D02*
X1905344D01*
X1902800Y2315699D02*
X1905344D01*
X1902800Y2225699D02*
X1905344D01*
X1902800Y2135699D02*
X1905344D01*
X1902800Y2045699D02*
X1905344D01*
X1902800Y1955699D02*
X1905344D01*
X1902800Y2424599D02*
X1905331D01*
X1902800Y2334599D02*
X1905331D01*
X1902800Y2244599D02*
X1905331D01*
X1902800Y2154599D02*
X1905331D01*
X1902800Y2064599D02*
X1905331D01*
X1902800Y1974599D02*
X1905331D01*
X1902800Y1884599D02*
X1905331D01*
X1902800Y2415599D02*
X1905330D01*
X1902800Y2325599D02*
X1905330D01*
X1902800Y2235599D02*
X1905330D01*
X1902800Y2145599D02*
X1905330D01*
X1902800Y2055599D02*
X1905330D01*
X1902800Y1965599D02*
X1905330D01*
X1902800Y2414699D02*
X1905320D01*
X1902800Y2324699D02*
X1905320D01*
X1902800Y2234699D02*
X1905320D01*
X1902800Y2144699D02*
X1905320D01*
X1902800Y2054699D02*
X1905320D01*
X1902800Y1964699D02*
X1905320D01*
X1902800Y2425499D02*
X1905319D01*
X1902800Y2335499D02*
X1905319D01*
X1902800Y2245499D02*
X1905319D01*
X1902800Y2155499D02*
X1905319D01*
X1902800Y2065499D02*
X1905319D01*
X1902800Y1975499D02*
X1905319D01*
X1902800Y1885499D02*
X1905319D01*
X1902800Y2404799D02*
X1905311D01*
X1902800Y2314799D02*
X1905311D01*
X1902800Y2224799D02*
X1905311D01*
X1902800Y2134799D02*
X1905311D01*
X1902800Y2044799D02*
X1905311D01*
X1902800Y1954799D02*
X1905311D01*
X1902800Y2435399D02*
X1905311D01*
X1902800Y2345399D02*
X1905311D01*
X1902800Y2255399D02*
X1905311D01*
X1902800Y2165399D02*
X1905311D01*
X1902800Y2075399D02*
X1905311D01*
X1902800Y1985399D02*
X1905311D01*
X1902800Y1895399D02*
X1905311D01*
X1902800Y2394899D02*
X1905305D01*
X1902800Y2304899D02*
X1905305D01*
X1902800Y2214899D02*
X1905305D01*
X1902800Y2124899D02*
X1905305D01*
X1902800Y2034899D02*
X1905305D01*
X1902800Y1944899D02*
X1905305D01*
X1902800Y2445299D02*
X1905305D01*
X1902800Y2355299D02*
X1905305D01*
X1902800Y2265299D02*
X1905305D01*
X1902800Y2175299D02*
X1905305D01*
X1902800Y2085299D02*
X1905305D01*
X1902800Y1995299D02*
X1905305D01*
X1902800Y1905299D02*
X1905305D01*
X1902800Y2384999D02*
X1905301D01*
X1902800Y2294999D02*
X1905301D01*
X1902800Y2204999D02*
X1905301D01*
X1902800Y2114999D02*
X1905301D01*
X1902800Y2024999D02*
X1905301D01*
X1902800Y1934999D02*
X1905301D01*
X1902800Y2455199D02*
X1905301D01*
X1902800Y2365199D02*
X1905301D01*
X1902800Y2275199D02*
X1905301D01*
X1902800Y2185199D02*
X1905301D01*
X1902800Y2095199D02*
X1905301D01*
X1902800Y2005199D02*
X1905301D01*
X1902800Y1915199D02*
X1905301D01*
X1902800Y2375099D02*
X1905300D01*
X1902800Y2285099D02*
X1905300D01*
X1902800Y2195099D02*
X1905300D01*
X1902800Y2105099D02*
X1905300D01*
X1902800Y2015099D02*
X1905300D01*
X1902800Y1925099D02*
X1905300D01*
X1902800Y2428199D02*
X1905125D01*
X1902800Y2431799D02*
X1905123D01*
X1902800Y2253599D02*
X1904917D01*
X1902800Y2429099D02*
X1904561D01*
X1902800Y2430899D02*
X1904560D01*
X1902800Y2429999D02*
X1904400D01*
G54D28*
X1981876Y1855750D03*
X2035500Y1895500D03*
X1999000Y1907500D03*
X1986500Y1920000D03*
X1975500D03*
X2004510Y1936000D03*
X2003500Y1954500D03*
X1958500Y1962500D03*
X1989000Y1975500D03*
X2036000Y1980500D03*
Y1991500D03*
Y2003500D03*
X1984800Y2023500D03*
X1960500Y2123000D03*
X1980000Y2183500D03*
X1998700Y2195878D03*
X2021626Y2193500D03*
X2011937Y2196437D03*
X1936500Y2208500D03*
X1969500Y2213200D03*
X2043500Y2208000D03*
Y2214000D03*
X2070000Y2209500D03*
X1959000Y2229500D03*
Y2225500D03*
X1936000Y2239500D03*
X2043500Y2243500D03*
X2070000Y2242500D03*
X1935500Y2273500D03*
X1997500Y2277500D03*
X2023000D03*
X2013500D03*
X2070000Y2273000D03*
X2024500Y2351000D03*
X2029000Y2395500D03*
X2020500Y2385500D03*
X2021000Y2415000D03*
X1949000Y2447000D03*
X2020500Y2443000D03*
G54D29*
X2077821Y1965321D02*
X2078599Y1966099D01*
X2077821Y1961079D02*
X2078599Y1960301D01*
X2073579Y1965321D02*
X2072801Y1966099D01*
X2073579Y1961079D02*
X2072801Y1960301D01*
X2077821Y1939731D02*
X2078599Y1940509D01*
X2077821Y1935488D02*
X2078599Y1934710D01*
X2073579Y1939731D02*
X2072801Y1940509D01*
X2073579Y1935488D02*
X2072801Y1934710D01*
X2070285Y1891385D02*
X2071063Y1892163D01*
X2070285Y1888415D02*
X2071063Y1887637D01*
X2070285Y1896385D02*
X2071063Y1897163D01*
X2070285Y1893415D02*
X2071063Y1892637D01*
X2070285Y1903415D02*
X2071063Y1902637D01*
X2067315Y1906385D02*
X2066537Y1907163D01*
X2070285Y1906385D02*
X2071063Y1907163D01*
X1940821Y2179621D02*
X1941599Y2180399D01*
X1940821Y2175379D02*
X1941599Y2174601D01*
X1936579Y2179621D02*
X1935801Y2180399D01*
X1936579Y2175379D02*
X1935801Y2174601D01*
X2083521Y2037621D02*
X2084299Y2038399D01*
X2083521Y2033379D02*
X2084299Y2032601D01*
X2079279Y2037621D02*
X2078501Y2038399D01*
X2079279Y2033379D02*
X2078501Y2032601D01*
X2083521Y2047621D02*
X2084299Y2048399D01*
X2083521Y2043379D02*
X2084299Y2042601D01*
X2079279Y2047621D02*
X2078501Y2048399D01*
X2079279Y2043379D02*
X2078501Y2042601D01*
X2083521Y2057621D02*
X2084299Y2058399D01*
X2083521Y2053379D02*
X2084299Y2052601D01*
X2079279Y2057621D02*
X2078501Y2058399D01*
X2079279Y2053379D02*
X2078501Y2052601D01*
X2083521Y2067621D02*
X2084299Y2068399D01*
X2083521Y2063379D02*
X2084299Y2062601D01*
X2079279Y2067621D02*
X2078501Y2068399D01*
X2079279Y2063379D02*
X2078501Y2062601D01*
X2083521Y2077621D02*
X2084299Y2078399D01*
X2083521Y2073379D02*
X2084299Y2072601D01*
X2079279Y2077621D02*
X2078501Y2078399D01*
X2079279Y2073379D02*
X2078501Y2072601D01*
X2083521Y2087621D02*
X2084299Y2088399D01*
X2083521Y2083379D02*
X2084299Y2082601D01*
X2079279Y2087621D02*
X2078501Y2088399D01*
X2079279Y2083379D02*
X2078501Y2082601D01*
X2083521Y2097621D02*
X2084299Y2098399D01*
X2083521Y2093379D02*
X2084299Y2092601D01*
X2079279Y2097621D02*
X2078501Y2098399D01*
X2079279Y2093379D02*
X2078501Y2092601D01*
X2083521Y2107621D02*
X2084299Y2108399D01*
X2083521Y2103379D02*
X2084299Y2102601D01*
X2079279Y2107621D02*
X2078501Y2108399D01*
X2079279Y2103379D02*
X2078501Y2102601D01*
X2083521Y2117621D02*
X2084299Y2118399D01*
X2083521Y2113379D02*
X2084299Y2112601D01*
X2079279Y2117621D02*
X2078501Y2118399D01*
X2079279Y2113379D02*
X2078501Y2112601D01*
X2083521Y2127621D02*
X2084299Y2128399D01*
X2083521Y2123379D02*
X2084299Y2122601D01*
X2079279Y2127621D02*
X2078501Y2128399D01*
X2079279Y2123379D02*
X2078501Y2122601D01*
X1980421Y2381821D02*
X1981199Y2382599D01*
X1980421Y2377579D02*
X1981199Y2376801D01*
X1976179Y2381821D02*
X1975401Y2382599D01*
X1976179Y2377579D02*
X1975401Y2376801D01*
X1954831Y2381821D02*
X1955609Y2382599D01*
X1954831Y2377579D02*
X1955609Y2376801D01*
X1950588Y2381821D02*
X1949810Y2382599D01*
X1950588Y2377579D02*
X1949810Y2376801D01*
X2057921Y2302021D02*
X2058699Y2302799D01*
X2057921Y2297779D02*
X2058699Y2297001D01*
X2053679Y2302021D02*
X2052901Y2302799D01*
X2053679Y2297779D02*
X2052901Y2297001D01*
X2057921Y2342021D02*
X2058699Y2342799D01*
X2057921Y2337779D02*
X2058699Y2337001D01*
X2053679Y2342021D02*
X2052901Y2342799D01*
X2053679Y2337779D02*
X2052901Y2337001D01*
X2015239Y2239339D02*
X2016017Y2240117D01*
X2015239Y2221661D02*
X2016017Y2220883D01*
X1997561Y2239339D02*
X1996783Y2240117D01*
X1997561Y2221661D02*
X1996783Y2220883D01*
X1911521Y2447221D02*
X1912299Y2447999D01*
X1911521Y2442979D02*
X1912299Y2442201D01*
X1907279Y2447221D02*
X1906501Y2447999D01*
X1907279Y2442979D02*
X1906501Y2442201D01*
X1936561Y2274561D02*
X1937338Y2275338D01*
X1936561Y2272439D02*
X1937338Y2271662D01*
X1934439Y2274561D02*
X1933662Y2275338D01*
X1934439Y2272439D02*
X1933662Y2271662D01*
X1937061Y2240561D02*
X1937838Y2241338D01*
X1937061Y2238439D02*
X1937838Y2237662D01*
X1934939Y2240561D02*
X1934162Y2241338D01*
X1934939Y2238439D02*
X1934162Y2237662D01*
X1937561Y2209561D02*
X1938338Y2210338D01*
X1937561Y2207439D02*
X1938338Y2206662D01*
X1935439Y2209561D02*
X1934662Y2210338D01*
X1935439Y2207439D02*
X1934662Y2206662D01*
X1959561Y1963561D02*
X1960338Y1964338D01*
X1959561Y1961439D02*
X1960338Y1960662D01*
X1957439Y1963561D02*
X1956662Y1964338D01*
X1957439Y1961439D02*
X1956662Y1960662D01*
X1950061Y2448061D02*
X1950838Y2448838D01*
X1950061Y2445939D02*
X1950838Y2445162D01*
X1947939Y2448061D02*
X1947162Y2448838D01*
X1947939Y2445939D02*
X1947162Y2445162D01*
X1970561Y2214261D02*
X1971338Y2215038D01*
X1970561Y2212139D02*
X1971338Y2211362D01*
X1968439Y2214261D02*
X1967662Y2215038D01*
X1968439Y2212139D02*
X1967662Y2211362D01*
X1960061Y2226561D02*
X1960838Y2227338D01*
X1957939Y2226561D02*
X1957162Y2227338D01*
X1960061Y2224439D02*
X1960838Y2223662D01*
X1957939Y2224439D02*
X1957162Y2223662D01*
X1960061Y2228439D02*
X1960838Y2227662D01*
X1957939Y2228439D02*
X1957162Y2227662D01*
X1961561Y2124061D02*
X1962338Y2124838D01*
X1961561Y2121939D02*
X1962338Y2121162D01*
X1959439Y2124061D02*
X1958662Y2124838D01*
X1959439Y2121939D02*
X1958662Y2121162D01*
X1976561Y1921061D02*
X1977338Y1921838D01*
X1976561Y1918939D02*
X1977338Y1918162D01*
X1974439Y1921061D02*
X1973662Y1921838D01*
X1974439Y1918939D02*
X1973662Y1918162D01*
X1985861Y2024561D02*
X1986638Y2025338D01*
X1985861Y2022439D02*
X1986638Y2021662D01*
X1983739Y2024561D02*
X1982962Y2025338D01*
X1983739Y2022439D02*
X1982962Y2021662D01*
X1980815Y1856811D02*
X1980038Y1857588D01*
X1980815Y1854689D02*
X1980038Y1853912D01*
X1999761Y2196939D02*
X2000538Y2197716D01*
X1999761Y2194817D02*
X2000538Y2194039D01*
X1997639Y2196939D02*
X1996862Y2197716D01*
X1997639Y2194817D02*
X1996862Y2194039D01*
X1998561Y2278561D02*
X1999338Y2279338D01*
X1998561Y2276439D02*
X1999338Y2275662D01*
X1996439Y2276439D02*
X1995662Y2275662D01*
X2012998Y2197498D02*
X2013775Y2198275D01*
X2012998Y2195376D02*
X2013775Y2194599D01*
X2010876Y2197498D02*
X2010099Y2198275D01*
X2014561Y2278561D02*
X2015338Y2279338D01*
X2014561Y2276439D02*
X2015338Y2275662D01*
X2012439Y2278561D02*
X2011662Y2279338D01*
X2012439Y2276439D02*
X2011662Y2275662D01*
X2021561Y2386561D02*
X2022338Y2387338D01*
X2021561Y2384439D02*
X2022338Y2383662D01*
X2019439Y2386561D02*
X2018662Y2387338D01*
X2019439Y2384439D02*
X2018662Y2383662D01*
X2022061Y2416061D02*
X2022838Y2416838D01*
X2022061Y2413939D02*
X2022838Y2413162D01*
X2019939Y2416061D02*
X2019162Y2416838D01*
X2019939Y2413939D02*
X2019162Y2413162D01*
X2025561Y2352061D02*
X2026338Y2352838D01*
X2025561Y2349939D02*
X2026338Y2349162D01*
X2023439Y2352061D02*
X2022662Y2352838D01*
X2023439Y2349939D02*
X2022662Y2349162D01*
X2022687Y2192439D02*
X2023464Y2191662D01*
X2020565Y2194561D02*
X2019788Y2195338D01*
X2020565Y2192439D02*
X2019788Y2191662D01*
X2024061Y2278561D02*
X2024838Y2279338D01*
X2024061Y2276439D02*
X2024838Y2275662D01*
X2021939Y2278561D02*
X2021162Y2279338D01*
X2021939Y2276439D02*
X2021162Y2275662D01*
X2036561Y1896561D02*
X2037338Y1897338D01*
X2036561Y1894439D02*
X2037338Y1893662D01*
X2034439Y1896561D02*
X2033662Y1897338D01*
X2034439Y1894439D02*
X2033662Y1893662D01*
X2037061Y1992561D02*
X2037838Y1993338D01*
X2037061Y1990439D02*
X2037838Y1989662D01*
X2034939Y1992561D02*
X2034162Y1993338D01*
X2034939Y1990439D02*
X2034162Y1989662D01*
X2037061Y1981561D02*
X2037838Y1982338D01*
X2037061Y1979439D02*
X2037838Y1978662D01*
X2034939Y1981561D02*
X2034162Y1982338D01*
X2034939Y1979439D02*
X2034162Y1978662D01*
X2037061Y2004561D02*
X2037838Y2005338D01*
X2037061Y2002439D02*
X2037838Y2001662D01*
X2034939Y2004561D02*
X2034162Y2005338D01*
X2034939Y2002439D02*
X2034162Y2001662D01*
X2030061Y2396561D02*
X2030838Y2397338D01*
X2030061Y2394439D02*
X2030838Y2393662D01*
X2027939Y2396561D02*
X2027162Y2397338D01*
X2027939Y2394439D02*
X2027162Y2393662D01*
X2044561Y2215061D02*
X2045338Y2215838D01*
X2044561Y2212939D02*
X2045338Y2212162D01*
X2042439Y2215061D02*
X2041662Y2215838D01*
X2042439Y2212939D02*
X2041662Y2212162D01*
X2071061Y2243561D02*
X2071838Y2244338D01*
X2071061Y2241439D02*
X2071838Y2240662D01*
X2068939Y2243561D02*
X2068162Y2244338D01*
X2068939Y2241439D02*
X2068162Y2240662D01*
X2044561Y2244561D02*
X2045338Y2245338D01*
X2044561Y2242439D02*
X2045338Y2241662D01*
X2042439Y2244561D02*
X2041662Y2245338D01*
X2042439Y2242439D02*
X2041662Y2241662D01*
X2071061Y2210561D02*
X2071838Y2211338D01*
X2071061Y2208439D02*
X2071838Y2207662D01*
X2068939Y2210561D02*
X2068162Y2211338D01*
X2068939Y2208439D02*
X2068162Y2207662D01*
X2071061Y2274061D02*
X2071838Y2274838D01*
X2071061Y2271939D02*
X2071838Y2271162D01*
X2068939Y2274061D02*
X2068162Y2274838D01*
X2068939Y2271939D02*
X2068162Y2271162D01*
X2044561Y2209061D02*
X2045338Y2209838D01*
X2044561Y2206939D02*
X2045338Y2206162D01*
X2042439Y2209061D02*
X2041662Y2209838D01*
X2042439Y2206939D02*
X2041662Y2206162D01*
X1990061Y1976561D02*
X1990838Y1977338D01*
X1990061Y1974439D02*
X1990838Y1973662D01*
X2000061Y1908561D02*
X2000838Y1909338D01*
X2000061Y1906439D02*
X2000838Y1905662D01*
X1997939Y1908561D02*
X1997162Y1909338D01*
X1997939Y1906439D02*
X1997162Y1905662D01*
X1987561Y1921061D02*
X1988338Y1921838D01*
X1987561Y1918939D02*
X1988338Y1918162D01*
X1985439Y1921061D02*
X1984662Y1921838D01*
X1985439Y1918939D02*
X1984662Y1918162D01*
X2004561Y1955561D02*
X2005338Y1956338D01*
X2002439Y1955561D02*
X2001662Y1956338D01*
X2021561Y2444061D02*
X2022338Y2444838D01*
X2021561Y2441939D02*
X2022338Y2441162D01*
X2019439Y2444061D02*
X2018662Y2444838D01*
X2019439Y2441939D02*
X2018662Y2441162D01*
X1978939Y2182439D02*
X1978162Y2181662D01*
X1981061Y2184561D02*
X1981838Y2185338D01*
X1981061Y2182439D02*
X1981838Y2181662D01*
X1978939Y2184561D02*
X1978162Y2185338D01*
X2005571Y1934940D02*
X2006349Y1934162D01*
X2003449Y1937061D02*
X2002672Y1937839D01*
X2003449Y1934940D02*
X2002672Y1934162D01*
G54D54*
X2068800Y1889900D03*
Y1894900D03*
Y1904900D03*
G74*
X0Y0D02*
M02*
