*
*
G04 PADS VX.2.3 Build Number: 9191294 generated Gerber (RS-274-X) file*
G04 PC Version=2.1*
*
%IN "uMuddMarkVLayout_3_osci"*%
*
%MOIN*%
*
%FSLAX35Y35*%
*
*
*
*
G04 PC Standard Apertures*
*
*
G04 Thermal Relief Aperture macro.*
%AMTER*
1,1,$1,0,0*
1,0,$1-$2,0,0*
21,0,$3,$4,0,0,45*
21,0,$3,$4,0,0,135*
%
*
*
G04 Annular Aperture macro.*
%AMANN*
1,1,$1,0,0*
1,0,$2,0,0*
%
*
*
G04 Odd Aperture macro.*
%AMODD*
1,1,$1,0,0*
1,0,$1-0.005,0,0*
%
*
*
G04 PC Custom Aperture Macros*
*
*
*
*
*
*
G04 PC Aperture Table*
*
%ADD010C,0.001*%
%ADD011R,0.06X0.05*%
%ADD012R,0.05X0.06*%
%ADD015R,0.08X0.04*%
%ADD017R,0.02756X0.12598*%
%ADD018R,0.02756X0.16535*%
%ADD019R,0.01181X0.05709*%
%ADD020R,0.05709X0.01181*%
%ADD022R,0.01181X0.05512*%
%ADD023R,0.05512X0.01181*%
%ADD025R,0.05709X0.02362*%
%ADD027C,0.01*%
%ADD052R,0.3X0.2*%
%ADD056R,0.10236X0.05906*%
*
*
*
*
G04 PC Circuitry*
G04 Layer Name uMuddMarkVLayout_3_osci - circuitry*
%LPD*%
*
*
G04 PC Custom Flashes*
G04 Layer Name uMuddMarkVLayout_3_osci - flashes*
%LPD*%
*
*
G04 PC Circuitry*
G04 Layer Name uMuddMarkVLayout_3_osci - circuitry*
%LPD*%
*
G54D10*
G54D11*
G01X1969820Y2023279D03*
X1978820D03*
X1953100Y2331000D03*
X1962100D03*
X2006600Y2414900D03*
X2015600D03*
X2006300Y2445600D03*
X2015300D03*
X2010300Y2351000D03*
X2019300D03*
X1985300Y1885000D03*
X1994300D03*
X1981700Y2350600D03*
X1990700D03*
X1985100Y1896300D03*
X1994100D03*
X2021900Y1980300D03*
X2030900D03*
X2010400Y2331100D03*
X2019400D03*
X1984800Y1907400D03*
X1993800D03*
X2006300Y2385500D03*
X2015300D03*
X1953000Y2350900D03*
X1962000D03*
X1981800Y2330700D03*
X1990800D03*
X2021700Y1991600D03*
X2030700D03*
X2021900Y2003300D03*
X2030900D03*
X2021200Y1895700D03*
X2030200D03*
X2021000Y1885500D03*
X2030000D03*
G54D12*
X1938900Y2225300D03*
Y2234300D03*
X2070000Y2228400D03*
Y2237400D03*
X2069900Y2195200D03*
Y2204200D03*
X2070100Y2258900D03*
Y2267900D03*
X1939200Y2194100D03*
Y2203100D03*
X1938300Y2259400D03*
Y2268400D03*
G54D15*
X2035200Y2395700D03*
Y2377700D03*
X2034500Y2446300D03*
Y2428300D03*
X1955300Y2447200D03*
Y2429200D03*
G54D17*
X2033465Y1845748D03*
G54D18*
X1962598Y1843780D03*
X1966535D03*
X1970472D03*
X1974409D03*
X1978346D03*
X1982283D03*
X1986220D03*
X1990157D03*
X1994094D03*
X1998031D03*
X2001969D03*
X2013780D03*
X2017717D03*
X2021654D03*
X2025591D03*
X2029528D03*
X2037402D03*
G54D19*
X1990764Y1970239D03*
X1988795D03*
X1986827D03*
X1984858D03*
X1982890D03*
X1980921D03*
X1978953D03*
X1976984D03*
X1975016D03*
X1973047D03*
X1971079D03*
X1969110D03*
X1967142D03*
X1965173D03*
X1963205D03*
X1961236D03*
Y1925161D03*
X1963205D03*
X1965173D03*
X1967142D03*
X1969110D03*
X1971079D03*
X1973047D03*
X1975016D03*
X1976984D03*
X1978953D03*
X1980921D03*
X1982890D03*
X1984858D03*
X1986827D03*
X1988795D03*
X1990764D03*
G54D20*
X1953461Y1962464D03*
Y1960495D03*
Y1958527D03*
Y1956558D03*
Y1954590D03*
Y1952621D03*
Y1950653D03*
Y1948684D03*
Y1946716D03*
Y1944747D03*
Y1942779D03*
Y1940810D03*
Y1938842D03*
Y1936873D03*
Y1934905D03*
Y1932936D03*
X1998539D03*
Y1934905D03*
Y1936873D03*
Y1938842D03*
Y1940810D03*
Y1942779D03*
Y1944747D03*
Y1946716D03*
Y1948684D03*
Y1950653D03*
Y1952621D03*
Y1954590D03*
Y1956558D03*
Y1958527D03*
Y1960495D03*
Y1962464D03*
G54D22*
X1971951Y2188374D03*
X1973920D03*
X1975888D03*
X1977857D03*
X1979825D03*
X1981794D03*
X1983762D03*
X1985731D03*
X1987699D03*
X1989668D03*
X1991636D03*
X1993605D03*
X1995573D03*
X1997542D03*
X1999510D03*
X2001479D03*
X2003447D03*
X2005416D03*
X2007384D03*
X2009353D03*
X2011321D03*
X2013290D03*
X2015258D03*
X2017227D03*
X2019195D03*
X2021164D03*
X2023132D03*
X2025101D03*
X2027069D03*
X2029038D03*
X2031006D03*
X2032975D03*
X2034943D03*
X2036912D03*
X2038880D03*
X2040849D03*
Y2272626D03*
X2038880D03*
X2036912D03*
X2034943D03*
X2032975D03*
X2031006D03*
X2029038D03*
X2027069D03*
X2025101D03*
X2023132D03*
X2021164D03*
X2019195D03*
X2017227D03*
X2015258D03*
X2013290D03*
X2011321D03*
X2009353D03*
X2007384D03*
X2005416D03*
X2003447D03*
X2001479D03*
X1999510D03*
X1997542D03*
X1995573D03*
X1993605D03*
X1991636D03*
X1989668D03*
X1987699D03*
X1985731D03*
X1983762D03*
X1981794D03*
X1979825D03*
X1977857D03*
X1975888D03*
X1973920D03*
X1971951D03*
G54D23*
X1964274Y2264949D03*
Y2262980D03*
Y2261012D03*
Y2259043D03*
Y2257075D03*
Y2255106D03*
Y2253138D03*
Y2251169D03*
Y2249201D03*
Y2247232D03*
Y2245264D03*
Y2243295D03*
Y2241327D03*
Y2239358D03*
Y2237390D03*
Y2235421D03*
Y2233453D03*
Y2231484D03*
Y2229516D03*
Y2227547D03*
Y2225579D03*
Y2223610D03*
Y2221642D03*
Y2219673D03*
Y2217705D03*
Y2215736D03*
Y2213768D03*
Y2211799D03*
Y2209831D03*
Y2207862D03*
Y2205894D03*
Y2203925D03*
Y2201957D03*
Y2199988D03*
Y2198020D03*
Y2196051D03*
X2048526D03*
Y2198020D03*
Y2199988D03*
Y2201957D03*
Y2203925D03*
Y2205894D03*
Y2207862D03*
Y2209831D03*
Y2211799D03*
Y2213768D03*
Y2215736D03*
Y2217705D03*
Y2219673D03*
Y2221642D03*
Y2223610D03*
Y2225579D03*
Y2227547D03*
Y2229516D03*
Y2231484D03*
Y2233453D03*
Y2235421D03*
Y2237390D03*
Y2239358D03*
Y2241327D03*
Y2243295D03*
Y2245264D03*
Y2247232D03*
Y2249201D03*
Y2251169D03*
Y2253138D03*
Y2255106D03*
Y2257075D03*
Y2259043D03*
Y2261012D03*
Y2262980D03*
Y2264949D03*
G54D25*
X1965740Y2138207D03*
Y2133207D03*
Y2128207D03*
Y2123207D03*
X1986803D03*
Y2128207D03*
Y2133207D03*
Y2138207D03*
G54D27*
X1900000Y2472000D02*
Y1870000D01*
X1960000*
Y1830000*
X2004700*
Y1860000*
X2011000D02*
G75*
G03X2004700I-3150J0D01*
G01X2011000D02*
Y1830000D01*
X2040000*
Y1870000*
X2091000*
Y2472000*
X1900000*
G54D52*
X2058800Y2386700D03*
X2058100Y2437300D03*
X1978900Y2438200D03*
G54D56*
X1966988Y2067236D03*
Y2047236D03*
X1982736D03*
Y2067236D03*
G74*
X0Y0D02*
M02*
