*
*
G04 PADS VX.2.3 Build Number: 9191294 generated Gerber (RS-274-X) file*
G04 PC Version=2.1*
*
%IN "uMuddMarkVLayout_3_osci"*%
*
%MOIN*%
*
%FSLAX35Y35*%
*
*
*
*
G04 PC Standard Apertures*
*
*
G04 Thermal Relief Aperture macro.*
%AMTER*
1,1,$1,0,0*
1,0,$1-$2,0,0*
21,0,$3,$4,0,0,45*
21,0,$3,$4,0,0,135*
%
*
*
G04 Annular Aperture macro.*
%AMANN*
1,1,$1,0,0*
1,0,$2,0,0*
%
*
*
G04 Odd Aperture macro.*
%AMODD*
1,1,$1,0,0*
1,0,$1-0.005,0,0*
%
*
*
G04 PC Custom Aperture Macros*
*
*
*
*
*
*
G04 PC Aperture Table*
*
%ADD010C,0.001*%
%ADD013R,0.06X0.06*%
%ADD014C,0.06*%
%ADD017R,0.02756X0.12598*%
%ADD018R,0.02756X0.16535*%
%ADD024C,0.25*%
%ADD026C,0.008*%
%ADD027C,0.01*%
%ADD028C,0.03*%
%ADD054C,0.042*%
*
*
*
*
G04 PC Circuitry*
G04 Layer Name uMuddMarkVLayout_3_osci - circuitry*
%LPD*%
*
*
G04 PC Custom Flashes*
G04 Layer Name uMuddMarkVLayout_3_osci - flashes*
%LPD*%
*
*
G04 PC Circuitry*
G04 Layer Name uMuddMarkVLayout_3_osci - circuitry*
%LPD*%
*
G54D10*
G54D13*
G01X2051400Y2125500D03*
X2047600Y2140700D03*
X1998609Y2125272D03*
X2013309D03*
X2065800Y2299900D03*
G54D14*
X2051400Y2115500D03*
Y2105500D03*
Y2095500D03*
Y2085500D03*
Y2075500D03*
Y2065500D03*
Y2055500D03*
Y2045500D03*
Y2035500D03*
X2081400D03*
Y2045500D03*
Y2055500D03*
Y2065500D03*
Y2075500D03*
Y2085500D03*
Y2095500D03*
Y2105500D03*
Y2115500D03*
Y2125500D03*
X2057600Y2140700D03*
X2067600D03*
X2077600D03*
Y2170700D03*
X2067600D03*
X2057600D03*
X2047600D03*
X2027400Y1916400D03*
Y1966400D03*
X1978300Y2379700D03*
X1952709D03*
Y2397417D03*
X1978300D03*
X1938700Y2177500D03*
Y2167500D03*
Y2157500D03*
Y2147500D03*
Y2137500D03*
X1998609Y2115272D03*
Y2105272D03*
Y2095272D03*
Y2085272D03*
Y2075272D03*
Y2065272D03*
Y2055272D03*
Y2045272D03*
Y2035272D03*
X2013309Y2115272D03*
Y2105272D03*
Y2095272D03*
Y2085272D03*
Y2075272D03*
Y2065272D03*
Y2055272D03*
Y2045272D03*
Y2035272D03*
X2055800Y2299900D03*
X2065800Y2309900D03*
X2055800D03*
X2065800Y2319900D03*
X2055800D03*
X2065800Y2329900D03*
X2055800D03*
X2065800Y2339900D03*
X2055800D03*
X2057800Y1986700D03*
Y2012291D03*
X2075517D03*
Y1986700D03*
X2075700Y1963200D03*
Y1937609D03*
X2057983D03*
Y1963200D03*
X1909400Y2455100D03*
Y2445100D03*
Y2435100D03*
Y2425100D03*
Y2415100D03*
Y2405100D03*
Y2395100D03*
Y2385100D03*
Y2375100D03*
Y2365100D03*
Y2355100D03*
Y2345100D03*
Y2335100D03*
Y2325100D03*
Y2315100D03*
Y2305100D03*
Y2295100D03*
Y2285100D03*
Y2275100D03*
Y2265100D03*
Y2255100D03*
Y2245100D03*
Y2235100D03*
Y2225100D03*
Y2215100D03*
Y2205100D03*
Y2195100D03*
Y2185100D03*
Y2175100D03*
Y2165100D03*
Y2155100D03*
Y2145100D03*
Y2135100D03*
Y2125100D03*
Y2115100D03*
Y2105100D03*
Y2095100D03*
Y2085100D03*
Y2075100D03*
Y2065100D03*
Y2055100D03*
Y2045100D03*
Y2035100D03*
Y2025100D03*
Y2015100D03*
Y2005100D03*
Y1995100D03*
Y1985100D03*
Y1975100D03*
Y1965100D03*
Y1955100D03*
Y1945100D03*
Y1935100D03*
Y1925100D03*
Y1915100D03*
Y1905100D03*
Y1895100D03*
Y1885100D03*
G54D17*
X1962598Y1845748D03*
G54D18*
X1966535Y1843780D03*
X1970472D03*
X1974409D03*
X1978346D03*
X1982283D03*
X1986220D03*
X1990157D03*
X1994094D03*
X1998031D03*
X2001969D03*
X2013780D03*
X2017717D03*
X2021654D03*
X2025591D03*
X2029528D03*
X2033465D03*
X2037402D03*
G54D24*
X2006400Y2230500D03*
G54D26*
X1970472Y1843780D02*
X1970500D01*
Y1854500*
X1966535Y1843780D02*
Y1873887D01*
X1970444Y1877796*
Y1935259*
X1971000Y1935815*
Y1967721*
X1962598Y1845748D02*
Y1891747D01*
X1968987Y1898136*
Y1941640*
X1969600Y1942252*
Y1967140*
X1990000Y1854500D02*
X2001755Y1866255D01*
Y1936553*
X2003392Y1938190*
X2006028*
X1990157Y1843780D02*
X1990000D01*
Y1854500*
X1974409Y1843780D02*
X1974500D01*
Y1854500*
X2001969Y1843780D02*
X2002000D01*
Y1854500*
X1994094Y1843780D02*
Y1855935D01*
X2006000Y1867840*
Y1881500*
X2025474Y1850786D02*
X2028009Y1853321D01*
Y1900928*
X2030081Y1903000*
X2032152*
X2021537Y1850786D02*
X2023906Y1853155D01*
Y1856730*
X2026490Y1859314*
Y1904963*
X2053442Y1931915*
Y1940815*
X2054000Y1941374*
Y1953531*
X2029528Y1843780D02*
Y1874729D01*
X2031117Y1876318*
Y1900500*
X2025591Y1843780D02*
X2025474D01*
Y1850786*
X2021654Y1843780D02*
X2021537D01*
Y1850786*
X2017717Y1843780D02*
X2017500D01*
Y1854500*
X2013780Y1843780D02*
Y1869580D01*
X2022455Y1878256*
Y1905595*
X2032350Y1915490*
Y1982350*
X2041850Y1991850*
Y2041607*
X2050743Y2050500*
X2052057*
X2065030Y2063473*
Y2132154*
X2072136Y2139260*
Y2156948*
X2073000Y2157813*
Y2198000*
X2037500Y1858500D02*
Y1868914D01*
X2043586Y1875000*
X2059500*
X2037402Y1843780D02*
X2037500D01*
Y1854500*
X2033465Y1843780D02*
Y1868965D01*
X2043500Y1879000*
X1905000Y1874500D02*
Y1970000D01*
X1959500Y1877500D02*
Y1917500D01*
X1986000Y1859500D02*
Y1906409D01*
X1989500Y1909909*
Y1915000*
X2021500Y1859500D02*
Y1874666D01*
X2025090Y1878256*
Y1905595*
X2051500Y1932005*
Y1944500*
X2043500Y1879000D02*
X2053438Y1888938D01*
Y1889538*
X2063800Y1899900*
X2088500Y1875000D02*
Y2362500D01*
X2072000Y1872500D02*
Y1920868D01*
X2071517Y1921352*
Y2061232*
X1991036Y1887000D02*
X1996274Y1892238D01*
Y1944478*
X1991036Y1887000D02*
X1988964D01*
X1987500Y1888464*
Y1896126*
X1992374Y1901000*
X1990000Y1889500D02*
X1994874Y1894374D01*
Y1920331*
X2010874Y1886374D02*
Y1938036D01*
X2008010Y1940900*
X2003500*
X2006000Y1881500D02*
X2010874Y1886374D01*
X2015500Y1887500D02*
Y1948500D01*
X2003500Y1960500*
X2063800Y1904900D02*
X2051700Y1892800D01*
X2034382*
X2032800Y1894382*
X2033617Y1898450D02*
Y1901536D01*
X2032152Y1903000*
X2032800Y1894382D02*
Y1897633D01*
X2033617Y1898450*
X1965000Y1917500D02*
Y1924466D01*
X1967273Y1926739*
Y1946026*
X1968200Y1946953*
X1985818Y1915500D02*
X1991000Y1920682D01*
Y1952005*
X1992464Y1953469*
X1994536*
X2000585Y1959519*
Y1995209*
X2008759Y2003383*
Y2096551*
X2013309Y2101101*
Y2105272*
X1985818Y1915500D02*
X1979464D01*
X1978000Y1916964*
Y1923500*
X1979204Y1924704*
X1980500Y1918000D02*
X1989600Y1927100D01*
Y1956243*
X1996600Y1963243*
Y2031484*
X2027400Y1916400D02*
Y1958100D01*
X2023000Y1962500*
X2063800Y1904900D02*
Y1917896D01*
X2057983Y1923713*
Y1937609*
X1948500Y1935000D02*
X1951685Y1931815D01*
X1959536*
X1963832Y1936111*
Y1948860*
X1965400Y1950429*
X1948500Y1939000D02*
X1917400Y1970100D01*
X1908743*
X1901200Y1977643*
X1960906Y1937000D02*
Y1939685D01*
X1962022Y1940802*
Y1949610*
X1964000Y1951587*
X1958500Y1934315D02*
X1958406D01*
Y1937187*
X1956000Y1939593*
X1962409Y1920000D02*
Y1928281D01*
X1965873Y1931746*
Y1948015*
X1966800Y1948941*
X1979204Y1924704D02*
Y1933000D01*
X1979000*
X1976704Y1930204D02*
X1976500D01*
Y1942334*
X1975500Y1943334*
X1987100Y1930500D02*
Y1934182D01*
X1988200Y1935282*
Y1957760*
X1991200Y1960760*
Y1966295*
X1994500Y1969595*
Y2031464*
X1985700Y1937500D02*
Y1958289D01*
X1989800Y1962389*
Y1967052*
X1993100Y1970352*
Y2030771*
X1994874Y1920331D02*
X1993500Y1921705D01*
Y1942500*
X2008374Y1937000D02*
X2006028Y1938190D01*
X2022500Y1919500D02*
Y1955000D01*
X2057983Y1937609D02*
Y1963200D01*
X1958496Y1958500D02*
X1949996Y1950000D01*
X1947464*
X1946000Y1951464*
Y1953536*
X1947788Y1955323*
Y1957394*
X1942070Y1963112*
Y2032430*
X1909400Y2065100*
X1951200Y1955200D02*
Y2003033D01*
X1947470Y2006763*
Y2057030*
X1909400Y2095100*
X1945288Y1956359D02*
X1939570Y1962076D01*
Y2030587*
X1910057Y2060100*
X1908743*
X1905400Y2063443*
X1948500Y1952500D02*
X1951200Y1955200D01*
X1948500Y1943000D02*
X1915850Y1975650D01*
Y2014307*
X1910757Y2019400*
X1907463*
X1902600Y2024263*
X1958496Y1954500D02*
X1952596Y1948600D01*
X1946864*
X1917250Y1978214*
Y2014887*
X1911337Y2020800*
X1908043*
X1904000Y2024843*
X1968200Y1946953D02*
Y1966559D01*
X1961800Y1972959*
X1966800Y1948941D02*
Y1965974D01*
X1966800D02*
X1960400Y1972374D01*
X1960400D02*
Y2045296D01*
X1956500Y2049196*
Y2058000*
X1965400Y1950429D02*
Y1965387D01*
X1959000Y1971787*
Y2044347*
X1951670Y2051677*
Y2102830*
X1909400Y2145100*
X1964000Y1951587D02*
Y1964800D01*
X1957600Y1971200*
Y2042887*
X1950270Y2050217*
Y2094230*
X1909400Y2135100*
X1962600Y1952746D02*
Y1964213D01*
X1956200Y1970613*
Y2041427*
X1948870Y2048757*
Y2075630*
X1909400Y2115100*
X1961200Y1953576D02*
Y1963625D01*
X1953700Y1971125*
Y2039000*
X1956000Y1939593D02*
Y1948376D01*
X1961200Y1953576*
X1958500Y1941000D02*
Y1948646D01*
X1962600Y1952746*
X1978000Y1958597D02*
Y1962864D01*
X1976576Y1964288*
Y1968935*
X1971761Y1973750*
X1975500Y1943334D02*
Y1956097D01*
X1978000Y1958597*
X1982000Y1956000D02*
Y1959510D01*
X1983782Y1961292*
Y1976253*
X1978000Y1954000D02*
Y1956559D01*
X1980000Y1958559*
Y1960499*
X1982382Y1962882*
Y1966118*
X1996274Y1944478D02*
X1993500Y1947252D01*
Y1950969*
Y1955969D02*
X1998085Y1960554D01*
Y1995209*
X2002609Y1999733*
Y2036929*
X2051500Y1944500D02*
Y1972642D01*
X2057800Y1978942*
Y1986700*
X2054000Y1953531D02*
X2053983Y1953548D01*
Y1969387*
X2086000Y1955000D02*
Y2319700D01*
X2065800Y2339900*
X1901200Y1977643D02*
Y2116900D01*
X1909400Y2125100*
X1921500Y1977500D02*
Y2013000D01*
X1909400Y2025100*
X1931500Y1967500D02*
Y2013000D01*
X1909400Y2035100*
X1968361Y1972341D02*
Y1997227D01*
X1970000Y1998866*
X1971000Y1967721D02*
X1966961Y1971760D01*
Y2005036*
X1969600Y1967140D02*
X1965561Y1971179D01*
Y2012844*
X1961800Y1972959D02*
Y2036550D01*
X1962343Y2037093*
X1971761Y1973750D02*
Y1985119D01*
X1973400Y1986758*
X1983782Y1976253D02*
X1982601Y1977435D01*
Y2006486*
X1982382Y1966118D02*
X1978218Y1970283D01*
X1977208*
X1973161Y1974330*
Y1981705*
X1975661Y1975366D02*
Y1980045D01*
X1976200Y1980584*
X1981000Y1975500D02*
Y2003591D01*
X1980300Y2004291*
Y2059316*
X1973500Y1961000D02*
X1972400Y1963436D01*
Y1968302*
X1968361Y1972341*
X1985101Y1978470D02*
Y1995209D01*
X1988100Y1998208*
Y2031744*
X1987300Y1965000D02*
X1988268Y1967500D01*
X1991700Y1970932*
Y2030153*
X2053983Y1969387D02*
X2069288Y1984691D01*
Y2130288*
X2074500Y2135500*
X1970000Y1998866D02*
Y2027398D01*
X1966760Y2030637*
Y2125738*
X1966500Y2125999*
Y2157500*
X1976200Y1980584D02*
Y2040747D01*
X1975500Y2041447*
Y2048000*
X1973400Y1986758D02*
Y2032077D01*
X1971600Y2033877*
X1973161Y1981705D02*
X1974800Y1983344D01*
Y2036115*
X2057800Y1986700D02*
Y2012291D01*
X1966961Y2005036D02*
X1968600Y2006675D01*
Y2026162*
X1965561Y2012844D02*
X1967200Y2014483D01*
Y2024927*
X1982601Y2006486D02*
X1986700Y2010585D01*
Y2031141*
X1902600Y2024263D02*
Y2094128D01*
X1909400Y2100928*
Y2105100*
X1904000Y2024843D02*
Y2075528D01*
X1909400Y2080928*
Y2085100*
X1968600Y2026162D02*
X1965306Y2029456D01*
Y2101461*
X1964657Y2102110*
Y2145429*
X1964000Y2146086*
Y2178923*
X1967200Y2024927D02*
X1963852Y2028275D01*
Y2077183*
X1963257Y2077778*
Y2134470*
X1960593Y2137134*
Y2209877*
X1962343Y2037093D02*
Y2058209D01*
X1959500Y2061052*
Y2070500*
X1971600Y2033877D02*
Y2092009D01*
X1973000Y2093409*
Y2118000*
X1974800Y2036115D02*
X1973000Y2037915D01*
Y2058839*
X1988100Y2031744D02*
X1986400Y2033444D01*
Y2050588*
X1986700Y2031141D02*
X1985000Y2032841D01*
Y2053192*
X1991700Y2030153D02*
X1987800Y2034053D01*
Y2048248*
X1996600Y2031484D02*
X1992000Y2036084D01*
Y2042664*
X2002609Y2036929D02*
X2000036Y2039502D01*
X1996498*
X1994500Y2041500*
Y2031464D02*
X1990600Y2035364D01*
Y2043243*
X1993100Y2030771D02*
X1989200Y2034671D01*
Y2045803*
X2075500Y2025000D02*
Y2129100D01*
X2084400Y2138000*
X1973000Y2058839D02*
X1979212Y2065051D01*
Y2109764*
X1982231Y2112784*
Y2131585*
X1985900Y2135254*
Y2150576*
X1986500Y2151176*
Y2177472*
X1980300Y2059316D02*
X1981623Y2060640D01*
Y2102784*
X1983863Y2105024*
X1983863D02*
Y2130126D01*
X1983863D02*
X1987300Y2133564D01*
Y2147119*
X1989000Y2148819*
Y2166500*
X1987800Y2048248D02*
X1992995Y2053443D01*
Y2095316*
X1997952Y2100272*
X1999266*
X2002609Y2103616*
Y2106929*
X1986400Y2050588D02*
X1991500Y2055688D01*
Y2099000*
X1985000Y2053192D02*
X1986172Y2054364D01*
Y2094111*
X1987525Y2095464*
Y2127356*
X1990700Y2130531*
Y2143441*
X2000082Y2152823*
Y2199333*
X2022700Y2221951*
Y2237252*
X1989200Y2045803D02*
X1994491Y2051093D01*
Y2076983*
X1998609Y2081101*
Y2085272*
X1990600Y2043243D02*
X1997629Y2050272D01*
X1999266*
X2002609Y2053616*
Y2061272*
X1992000Y2042664D02*
X1994609Y2045272D01*
X1998609*
X2006809Y2053472*
Y2111219*
X2013309Y2045272D02*
X2035516D01*
X2050743Y2060500*
X2052057*
X2063000Y2071443*
Y2190800*
X2047490Y2041951D02*
X2047500Y2042000D01*
X2045604Y2058896D02*
Y2065361D01*
X2050743Y2070500*
X2052057*
X2055400Y2073843*
Y2087328*
X2053007Y2041451D02*
X2067060Y2055503D01*
Y2131885*
X2073536Y2138361*
Y2151632*
X2081600Y2159697*
Y2193509*
X2053007Y2041451D02*
X2049990D01*
X2047490Y2041951*
X1905400Y2063443D02*
Y2071100D01*
X1909400Y2075100*
X2002609Y2061272D02*
X1998609Y2065272D01*
Y2069444*
X2005409Y2076244*
Y2109703*
X2013309Y2065272D02*
Y2069444D01*
X2018709Y2074844*
Y2107509*
X2051400Y2075500D02*
X2034340Y2092560D01*
Y2094241*
X2013309Y2115272*
X2071517Y2061232D02*
X2073000Y2062715D01*
Y2112500*
X1991500Y2099000D02*
X1990500Y2100000D01*
Y2119499*
X1989000Y2091000D02*
Y2126249D01*
X1992100Y2129349*
Y2142063*
X2001535Y2151497*
Y2191072*
X2032704Y2222242*
Y2264704*
X1998609Y2085272D02*
Y2089444D01*
X2004009Y2094844*
Y2108251*
X2013309Y2085272D02*
Y2089444D01*
X2017309Y2093444*
Y2106929*
X2055400Y2087328D02*
X2051400Y2091328D01*
Y2095500*
X1990500Y2119499D02*
X1992075Y2121074D01*
Y2125425*
X2005409Y2109703D02*
X2005109Y2110003D01*
Y2119598*
X2004009Y2108251D02*
X2003709Y2108551D01*
Y2120610*
X2002609Y2106929D02*
X1999266Y2110272D01*
X1997952*
X1994609Y2113616*
Y2116929*
X2006509Y2118553D02*
X2007873Y2119918D01*
Y2157873*
X2033500Y2183500*
X1994609Y2116929D02*
X1997952Y2120272D01*
X2001023*
X2002609Y2121858*
Y2131391*
X2006809Y2111219D02*
X2006509Y2111519D01*
Y2118553*
X2007909Y2117509D02*
X2011667Y2121268D01*
X2016718*
X2018016Y2122566*
Y2158089*
X2040857Y2180929*
Y2185643*
X2009309Y2116929D02*
X2012247Y2119868D01*
X2017298*
X2019416Y2121986*
Y2156480*
X2042257Y2179321*
Y2188939*
X1993000Y2108000D02*
Y2118660D01*
X1994575Y2120235*
Y2131175*
X2017309Y2106929D02*
X2014366Y2109872D01*
X2011072*
X2007909Y2113036*
Y2117509*
X2018709Y2107509D02*
X2014946Y2111272D01*
X2011652*
X2009309Y2113616*
Y2116929*
X2030500Y2111000D02*
Y2163000D01*
X2042000Y2117500D02*
Y2175624D01*
X2043657Y2177282*
X2051400Y2115500D02*
X2055400Y2119500D01*
X2056800Y2116110D02*
Y2133791D01*
X2053106Y2137485*
Y2185457*
X2049900Y2188663*
X2056500Y2110500D02*
Y2115810D01*
X2056800Y2116110*
X1956000Y2138000D02*
Y2243300D01*
X1955475Y2243826*
Y2248505*
X1977000Y2126000D02*
Y2155091D01*
X1969000Y2163091*
Y2170376*
X1979500Y2121000D02*
Y2130500D01*
X1979000Y2131000*
Y2154151*
X1981500Y2135500D02*
Y2151032D01*
X1985100Y2154632*
Y2174690*
X2005109Y2119598D02*
X2006145Y2120634D01*
Y2161389*
X2006992Y2162236*
Y2168000*
X2002609Y2131391D02*
X1996000Y2138000D01*
X2003709Y2120610D02*
X2004439Y2121341D01*
X2004439D02*
Y2171921D01*
X2026009Y2193491*
X1994575Y2131175D02*
X1993500Y2132250D01*
Y2140432*
X2013309Y2125272D02*
Y2157952D01*
X2038357Y2183000*
X2055400Y2119500D02*
Y2131159D01*
X2051706Y2134852*
Y2179290*
X2047479Y2183518*
Y2227521*
X2041500Y2233500*
X2084400Y2138000D02*
Y2301300D01*
X2065800Y2319900*
X1953500Y2144500D02*
Y2239500D01*
X1979000Y2154151D02*
X1983700Y2158851D01*
Y2170923*
X1993500Y2140432D02*
X2002987Y2149919D01*
Y2180887*
X2035352Y2213252*
Y2256847*
X2037296Y2258790*
Y2264704*
X2043600Y2158872D02*
Y2173785D01*
X2045057Y2175242*
X2047600Y2140700D02*
Y2154872D01*
X2043600Y2158872*
X2061600Y2157813D02*
Y2184530D01*
X2051300Y2194830*
X2067600Y2140700D02*
Y2159718D01*
X2071600Y2163718*
X2057600Y2140700D02*
Y2153813D01*
X2061600Y2157813*
X2083000Y2154608D02*
Y2203000D01*
X2071500Y2214500*
X2077600Y2140700D02*
Y2149208D01*
X2083000Y2154608*
X1946500Y2165000D02*
Y2190000D01*
X1918450Y2218050*
Y2291878*
X1909400Y2300928*
Y2305100*
X1969000Y2170376D02*
X1969393Y2170769D01*
Y2185703*
X1979080Y2195390*
Y2206033*
X1981000Y2207953*
Y2219781*
X1983535Y2222317*
Y2239031*
X1984770Y2240266*
Y2242561*
X1964000Y2178923D02*
X1965993Y2180916D01*
Y2189161*
X1967700Y2190868*
Y2194373*
X1971500Y2165000D02*
Y2174053D01*
X1971893Y2174447*
Y2183500*
X1986500Y2177472D02*
X1985793Y2178179D01*
Y2183157*
X1985100Y2174690D02*
X1980793Y2178997D01*
Y2186761*
X1983700Y2170923D02*
X1979393Y2175230D01*
Y2187965*
X1981200Y2166700D02*
X1974393Y2173507D01*
Y2188135*
X2045057Y2175242D02*
Y2197443D01*
X2040500Y2202000*
X2043657Y2177282D02*
Y2193191D01*
X2038000Y2198848*
X2071600Y2163718D02*
Y2193420D01*
X2056510Y2208510*
X1967700Y2194373D02*
X1964704Y2197369D01*
Y2211830*
X1987108Y2197030D02*
X1988508Y2199166D01*
X1989273Y2199932*
Y2206231*
X1990445Y2207404*
Y2236421*
X1992570Y2238546*
X1974393Y2188135D02*
X1980480Y2194223D01*
Y2204634*
X1983250Y2207403*
Y2212710*
X1983500Y2212961*
Y2215500*
X1985793Y2183157D02*
X1992592Y2189956D01*
X1994125*
X1996682Y2192513*
Y2194825*
X1979393Y2187965D02*
X1983280Y2191852D01*
Y2201371*
X1986312Y2204403*
Y2210840*
X1987570Y2212097*
Y2243924*
X1980793Y2186761D02*
X1984680Y2190648D01*
Y2199506*
X1987766Y2202592*
Y2209095*
X1989010Y2210340*
X1989010D02*
Y2237498D01*
X1990070Y2239974*
X1990780Y2197784D02*
Y2203021D01*
X1991863Y2204104*
Y2235457*
X1993970Y2237564*
X1987180Y2196983D02*
X1987108Y2197030D01*
X1983293Y2183500D02*
Y2186761D01*
X1993280Y2196748*
Y2200969*
X2004786Y2212475*
X2007466*
X2019900Y2224908*
Y2236092*
X1976580Y2196989D02*
Y2200047D01*
X1977413Y2200879*
Y2206728*
X1979600Y2208915*
Y2222830*
X1981000Y2224230*
X1976893Y2183500D02*
Y2188068D01*
X1981880Y2193056*
X1981880D02*
Y2203235D01*
X1984859Y2206213*
Y2212585*
X1986070Y2213796*
Y2239458*
X1986170Y2239558*
Y2243238*
X1996682Y2194825D02*
X1994680Y2196827D01*
Y2200389*
X2002582Y2196500D02*
X2024100Y2218018D01*
X2026009Y2193491D02*
X2026000Y2193500D01*
X2051300Y2194830D02*
Y2201400D01*
X2053500Y2203600*
X2049900Y2188663D02*
Y2234281D01*
X2050700Y2235081*
X2038000Y2198848D02*
Y2256847D01*
X2040000Y2258847*
Y2267500*
X2042257Y2188939D02*
X2036033Y2195163D01*
X2040857Y2185643D02*
X2030500Y2196000D01*
X2063000Y2190800D02*
X2053800Y2200000D01*
X2081600Y2193509D02*
X2053500Y2221609D01*
Y2225500*
X2073000Y2198000D02*
X2053500Y2217500D01*
X1969361Y2209617D02*
X1974000Y2214255D01*
Y2230110*
X1975400Y2231510*
Y2236844*
X1969361Y2209617D02*
X1969204Y2209774D01*
X1959009Y2211991D02*
X1961901Y2214882D01*
Y2253299*
X1959009Y2211991D02*
X1959000Y2212000D01*
X1971373Y2207218D02*
X1975400Y2211244D01*
X1975400D02*
Y2229129D01*
X1976800Y2230529*
Y2237424*
X1964704Y2211830D02*
X1964987Y2212112D01*
Y2217160*
X1967000Y2219174*
X1969500*
X1960593Y2209877D02*
X1963461Y2212744D01*
Y2228361*
X1969500Y2234400*
X1969204Y2204296D02*
X1972353D01*
X1974199Y2206142*
Y2207960*
X1976800Y2210561*
Y2227503*
X1978200Y2228903*
Y2238004*
X1971557Y2207035D02*
X1971373Y2207218D01*
X1974000Y2199500D02*
Y2202981D01*
X1975771Y2204753*
Y2207309*
X1978200Y2209738*
Y2225166*
X1979600Y2226566*
X1994680Y2200389D02*
X2000814Y2206522D01*
X2003494*
X2021300Y2224328*
Y2236672*
X2024100Y2218018D02*
Y2238457D01*
X1996800Y2265757*
X1970801Y2227500D02*
X1972584Y2229284D01*
Y2230837*
X1974000Y2232253*
Y2236264*
X1959000Y2237500D02*
Y2242532D01*
X1960501Y2244033*
Y2252405*
X1969500Y2234400D02*
X1967350Y2235786D01*
X1963444Y2239692*
Y2254701*
X1962283Y2255862*
Y2264588*
X1959701Y2267171*
X1981000Y2224230D02*
Y2239163D01*
X1979600Y2240563*
Y2269048*
X1974389Y2274259*
X1979600Y2226566D02*
Y2238584D01*
X1978200Y2239984*
Y2268391*
X1972989Y2273601*
X1978200Y2238004D02*
X1976800Y2239404D01*
Y2267733*
X1971589Y2272944*
Y2308100*
X1976800Y2237424D02*
X1975400Y2238824D01*
Y2267125*
X1970125Y2272400*
Y2322447*
X1975400Y2236844D02*
X1974000Y2238244D01*
Y2266537*
X1968725Y2271812*
Y2323314*
X1974000Y2236264D02*
X1972600Y2237664D01*
Y2265957*
X1967325Y2271231*
Y2324099*
X1993970Y2237564D02*
Y2241589D01*
X1990472Y2245088*
Y2250449*
X1988807Y2252113*
Y2256397*
X1986300Y2258904*
Y2261667*
X1992570Y2238546D02*
Y2241010D01*
X1988878Y2244701*
Y2249244*
X1987407Y2250715*
Y2255553*
X1983800Y2259160*
Y2271544*
X1979300Y2276044*
X2022700Y2237252D02*
X2013152Y2246800D01*
X1999648*
X2021300Y2236672D02*
X2012572Y2245400D01*
X2000228*
X2019900Y2236092D02*
X2011992Y2244000D01*
X2000808*
X2050700Y2235081D02*
Y2269618D01*
X2049118Y2271200*
X1904000Y2251000D02*
X1905400Y2253136D01*
Y2366928*
X1909400Y2370928*
Y2375100*
X1902500Y2255000D02*
Y2384028D01*
X1909400Y2390928*
Y2395100*
X1926000Y2255000D02*
Y2364500D01*
X1918000Y2372500*
X1958001Y2247600D02*
X1958027Y2247595D01*
X1958526Y2250095*
Y2252086*
X1944547Y2266065*
Y2349953*
X1909400Y2385100*
X1955475Y2248505D02*
X1955974Y2251005D01*
X1960501Y2252405D02*
X1959483Y2253422D01*
Y2263313*
X1956901Y2265896*
Y2330992*
X1961901Y2253299D02*
X1960883Y2254316D01*
Y2263922*
X1958301Y2266504*
Y2330003*
X1970100Y2247000D02*
Y2266476D01*
X1965925Y2270651*
Y2324884*
X1956000Y2251000D02*
X1955974Y2251005D01*
X1969500Y2240000D02*
Y2243282D01*
X1967294Y2245489*
Y2267302*
X1964525Y2270070*
Y2325617*
X1987570Y2243924D02*
X1987403Y2244090D01*
Y2248272*
X1984900Y2250775*
Y2254267*
X1986170Y2243238D02*
X1986003Y2243404D01*
Y2247552*
X1982400Y2251155*
Y2270627*
X1977189Y2275838*
Y2286503*
X1984770Y2242561D02*
X1983500Y2243831D01*
Y2246429*
X1982270Y2241429D02*
X1982100D01*
Y2244111*
X1981000Y2245211*
Y2269838*
X1975789Y2275048*
X1996138Y2245361D02*
X1994673Y2246826D01*
Y2261651*
X1993670Y2262654*
Y2269113*
X1989743Y2273040*
Y2281257*
X1985000Y2286000*
X1996138Y2245361D02*
X1998209D01*
X1999648Y2246800*
X1995558Y2243961D02*
X1993273Y2246247D01*
Y2255820*
X1991630Y2257463*
Y2266510*
X1988329Y2269811*
Y2278821*
X1982000Y2285150*
Y2289000*
X1995558Y2243961D02*
X1998789D01*
X2000228Y2245400*
X1994978Y2242561D02*
X1991872Y2245668D01*
Y2251847*
X1990230Y2253489*
Y2263485*
X1985800Y2267915*
Y2277500*
X1994978Y2242561D02*
X1999369D01*
X2000808Y2244000*
X1997174Y2247861D02*
Y2261338D01*
X1995216Y2263295*
Y2272209*
X1991157Y2276269*
Y2348378*
X1981536Y2358000*
X1959701Y2267171D02*
Y2328271D01*
X1963000Y2331570*
Y2358000*
X1954126Y2263126D02*
X1949296Y2267956D01*
Y2365204*
X1909400Y2405100*
X1956983Y2260892D02*
Y2263804D01*
X1951796Y2268992*
Y2372704*
X1909400Y2415100*
X1979300Y2276044D02*
Y2280571D01*
X1979689*
X1975789Y2275048D02*
Y2306141D01*
X1977989Y2308341*
X1974389Y2274259D02*
Y2306720D01*
X1976589Y2308920*
X1972989Y2273601D02*
Y2307300D01*
X1975189Y2309500*
X1996800Y2265757D02*
Y2270800D01*
X2000200Y2274200*
Y2279300*
X1997000Y2282500*
X2035000Y2267500D02*
X2038700Y2271200D01*
X2049118*
X1977189Y2286503D02*
X1978289Y2287603D01*
Y2295000*
X1971589Y2308100D02*
X1972689Y2310536D01*
X1977989Y2308341D02*
Y2317818D01*
X1975500Y2320308*
Y2324000*
X1976589Y2308920D02*
Y2316046D01*
X1974836Y2317800*
X1972625Y2319125*
X1975189Y2309500D02*
Y2313063D01*
X1973846Y2315254*
X1987000Y2313816D02*
Y2345536D01*
X1985536Y2347000*
X1978487Y2305303D02*
X1987000Y2313816D01*
X2065800Y2299900D02*
Y2304072D01*
X2061500Y2308372*
Y2357000*
X1956901Y2330992D02*
X1959000Y2333091D01*
Y2336000*
X1958301Y2330003D02*
X1961500Y2333202D01*
Y2346500*
X1970125Y2322447D02*
X1985512Y2337834D01*
Y2342005*
X1968725Y2323314D02*
X1983000Y2337588D01*
Y2341000*
X1965925Y2324884D02*
X1979027Y2337986D01*
Y2348035*
X1980500Y2349508*
Y2355500*
X1964525Y2325617D02*
X1972525Y2333616D01*
Y2335276*
X1975874Y2338626*
X1967325Y2324099D02*
X1980464Y2337237D01*
Y2343999*
X1983464Y2347000*
X1985536*
X1961500Y2346500D02*
X1960500Y2347500D01*
Y2364500*
X1985512Y2342005D02*
X1984512Y2344505D01*
X1984500Y2344500*
X1985500Y2358500D02*
Y2390217D01*
X1978300Y2397417*
X1976500Y2350500D02*
Y2355036D01*
X1979464Y2358000*
X1981536*
X1924500Y2377000D02*
Y2385657D01*
X1910057Y2400100*
X1908743*
X1905400Y2403443*
Y2416928*
X1909400Y2420928*
Y2425100*
G54D27*
X1986220Y1843780D02*
X1986000D01*
Y1854500*
X1982283Y1843780D02*
X1982500D01*
Y1856374*
X1978346Y1843780D02*
Y1868654D01*
X1972200Y1874800*
X1998031Y1843780D02*
Y1856852D01*
X2019500Y1878320*
Y2030500*
X1972200Y1874800D02*
Y1927885D01*
X1973250Y1928935*
Y1956521*
X1976300Y1959571*
X1970061Y1973046D02*
Y1991173D01*
X1971700Y1992812*
X1976300Y1959571D02*
Y1962160D01*
X1974488Y1963972*
Y1968619*
X1970061Y1973046*
X1971700Y1992812D02*
Y2029737D01*
X1969600Y2031837*
Y2159223*
X1967300Y2161523*
X1983000Y2031000D02*
Y2056604D01*
X1983898Y2057502*
Y2098448*
X1985694Y2100244*
Y2128741*
X1989000Y2132047*
Y2145280*
X1991800Y2148080*
Y2171626*
X1967300Y2161523D02*
Y2175449D01*
X1967693Y2175842*
Y2187432*
X1969400Y2189139*
X1991800Y2171626D02*
X1988493Y2174933D01*
Y2181500*
X1969400Y2189139D02*
Y2196977D01*
X1969169*
Y2199975*
X1969169D02*
X1966404Y2202739D01*
X1988493Y2181500D02*
X1989140Y2184100D01*
X1992318Y2187278*
X1993851*
X1998382Y2191809*
Y2195599*
X1997380Y2196601*
Y2199270*
X1966404Y2202739D02*
Y2210949D01*
X1966693Y2211238*
Y2214727*
X1968340Y2216374*
X1970660*
X1972300Y2218014*
Y2221187*
X1968001Y2225486*
Y2228800*
X1972300Y2233100*
Y2235560*
X1970660Y2237200*
X1968340*
X1965369Y2240171*
Y2265408*
X1962401Y2268376*
X2043500Y2253000D02*
Y2264000D01*
X2048000Y2268500*
X1962401Y2268376D02*
Y2327414D01*
X1962401D02*
X1968243Y2333257D01*
X2053500Y2263000D02*
Y2282812D01*
X2051700Y2284612*
Y2301649*
X1994126Y2280000D02*
Y2347806D01*
X1994500Y2348180*
Y2415000*
X2051700Y2301649D02*
X2055800Y2305749D01*
Y2309900*
Y2314051*
X2051500Y2318351*
Y2425000*
G54D28*
X1970500Y1854500D03*
X1974500D03*
X1990000D03*
X1982500Y1856374D03*
X1986000Y1854500D03*
X2002000D03*
X2017500D03*
X2037500D03*
Y1858500D03*
X1905000Y1874500D03*
X1959500Y1877500D03*
X1986000Y1859500D03*
X2021500D03*
X2043500Y1879000D03*
X2059500Y1875000D03*
X2088500D03*
X2072000Y1872500D03*
X1990000Y1889500D03*
X1980000Y1885000D03*
X2006000Y1881500D03*
X2015500Y1887500D03*
X2035500Y1895500D03*
X1959500Y1917500D03*
X1965000D03*
X1989500Y1915000D03*
X1980500Y1918000D03*
X1989000Y1903000D03*
X1992374Y1901000D03*
X1999000Y1907500D03*
X2031117Y1900500D03*
X1948500Y1939000D03*
Y1935000D03*
X1960906Y1937000D03*
X1958500Y1934315D03*
X1962409Y1920000D03*
X1979000Y1933000D03*
X1976704Y1930204D03*
X1987100Y1930500D03*
X1985700Y1937500D03*
X1986500Y1920000D03*
X1975000D03*
X1983300Y1930500D03*
X2008374Y1937000D03*
X2004510Y1935490D03*
X2022500Y1919500D03*
X1945288Y1956359D03*
X1948500Y1952500D03*
Y1943000D03*
X1958496Y1958500D03*
Y1954500D03*
X1958500Y1941000D03*
X1982000Y1956000D03*
X1978000Y1954000D03*
X1993500Y1942500D03*
X2003500Y1940900D03*
X1993500Y1950969D03*
Y1955969D03*
X2003500Y1954500D03*
Y1950500D03*
X2022500Y1955000D03*
X2051500Y1944500D03*
X2086000Y1955000D03*
X1905000Y1970000D03*
X1921500Y1977500D03*
X1931500Y1967500D03*
X1948500Y1960500D03*
X1958500Y1962500D03*
X1975661Y1975366D03*
X1981000Y1975500D03*
X1973500Y1961000D03*
X1985101Y1978470D03*
X1987300Y1965000D03*
X1989000Y1975500D03*
X1979682Y1965000D03*
X2003500Y1960500D03*
X1993900Y1965000D03*
X2023000Y1962500D03*
X2036000Y1980500D03*
Y1991500D03*
X2078500Y1991000D03*
X2036000Y2003500D03*
X1953700Y2039000D03*
X1964500Y2023500D03*
X1983000Y2031000D03*
X1984000Y2023500D03*
X2019500Y2030500D03*
X2075500Y2025000D03*
X1956500Y2058000D03*
X1959643Y2050143D03*
X1975500Y2048000D03*
X1994500Y2041500D03*
X2045604Y2058896D03*
X2047500Y2042000D03*
X1959500Y2070500D03*
X1975500Y2070000D03*
X1989000Y2091000D03*
X1973000Y2118000D03*
X1993000Y2108000D03*
X2030500Y2111000D03*
X2042000Y2117500D03*
X2056500Y2110500D03*
X2073000Y2112500D03*
X1956000Y2138000D03*
X1960500Y2123000D03*
X1977000Y2126000D03*
X1979500Y2121000D03*
X1981500Y2135500D03*
X1992075Y2125425D03*
X1996000Y2138000D03*
X2074500Y2135500D03*
X1966500Y2157500D03*
X1953500Y2144500D03*
X1946500Y2165000D03*
X1971500D03*
X1989000Y2166500D03*
X1981200Y2166700D03*
X2006992Y2168000D03*
X2030500Y2163000D03*
X1939000Y2189000D03*
X1969169Y2196977D03*
X1971893Y2183500D03*
X1965000Y2193000D03*
X1963293Y2186432D03*
X1988493Y2181500D03*
X1990780Y2197784D03*
X1987180Y2196983D03*
X1983293Y2183500D03*
X1976580Y2196989D03*
X1976893Y2183500D03*
X1997380Y2199270D03*
X2002582Y2196500D03*
X2011500Y2196000D03*
X1993982Y2193632D03*
X1992500Y2183500D03*
X2008626Y2193500D03*
X2030500Y2196000D03*
X2026000Y2193500D03*
X2022200D03*
X2021107Y2183393D03*
X2036033Y2195163D03*
X2038357Y2183000D03*
X2033500Y2183500D03*
X1936500Y2208500D03*
X1969500Y2219174D03*
X1969204Y2204296D03*
X1971557Y2207035D03*
X1969204Y2209774D03*
X1959000Y2212000D03*
X1969500Y2213574D03*
X1959000Y2215800D03*
X1983500Y2215500D03*
X1974000Y2199500D03*
X2040500Y2202000D03*
X2043500Y2208000D03*
Y2214000D03*
X2071500Y2214500D03*
X2056510Y2208510D03*
X2053500Y2203600D03*
X2053800Y2200000D03*
X2053500Y2217500D03*
X2070000Y2209500D03*
X2053500Y2212000D03*
X1939000Y2220000D03*
X1970801Y2227500D03*
X1959000Y2237500D03*
X1969500Y2234400D03*
X1959000Y2229500D03*
Y2225500D03*
X2041500Y2233500D03*
X2053500Y2225500D03*
Y2235500D03*
X1904000Y2251000D03*
X1902500Y2255000D03*
X1926000D03*
X1936000Y2239500D03*
X1958001Y2247600D03*
X1970100Y2247000D03*
X1956000Y2251000D03*
X1953500Y2239500D03*
X1969500Y2240000D03*
X1982270Y2241429D03*
X1983500Y2246429D03*
X1984900Y2254267D03*
X1990070Y2239974D03*
X1997174Y2247861D03*
X2043500Y2253000D03*
Y2243500D03*
X2070000Y2242500D03*
X1935500Y2273500D03*
X1962401Y2268376D03*
X1954126Y2263126D03*
X1956983Y2260892D03*
X1986300Y2261667D03*
X1985800Y2277500D03*
X1982000D03*
X1997500D03*
X1999500Y2267500D03*
X2023000Y2277500D03*
X2013500D03*
X2025000Y2267500D03*
X2015500D03*
X2048000Y2268500D03*
X2032704Y2264704D03*
X2035000Y2267500D03*
X2037296Y2264704D03*
X2040000Y2267500D03*
X2053500Y2263000D03*
X2070000Y2273000D03*
X1985000Y2286000D03*
X1982000Y2289000D03*
X1979689Y2280571D03*
X1978289Y2295000D03*
X1994126Y2280000D03*
X1997000Y2282500D03*
X1978487Y2305303D03*
X1973846Y2315254D03*
X1972625Y2319125D03*
X1972689Y2310536D03*
X1968243Y2333257D03*
X1959000Y2336000D03*
X1975500Y2324000D03*
X1975874Y2338626D03*
X2005000Y2331000D03*
X1963000Y2358000D03*
X1967500Y2348000D03*
X1984500Y2344500D03*
X1983000Y2341000D03*
X1980500Y2355500D03*
X1985500Y2358500D03*
X1976500Y2350500D03*
X2024500Y2351000D03*
X2061500Y2357000D03*
X1918000Y2372500D03*
X1924500Y2377000D03*
X1960500Y2364500D03*
X2088500Y2362500D03*
X2001000Y2385500D03*
X2029000Y2395500D03*
X2020500Y2385500D03*
X2076000Y2386500D03*
X1994500Y2415000D03*
X2021000D03*
X2051500Y2425000D03*
X1949000Y2447000D03*
X2020500Y2443000D03*
G54D54*
X2068800Y1884900D03*
X2063800D03*
X2068800Y1889900D03*
X2063800D03*
X2068800Y1894900D03*
X2063800D03*
X2068800Y1899900D03*
X2063800D03*
X2068800Y1904900D03*
X2063800D03*
X0Y0D02*
M02*
