*
*
G04 PADS VX.2.3 Build Number: 9191294 generated Gerber (RS-274-X) file*
G04 PC Version=2.1*
*
%IN "uMuddMarkVLayout_3_osci"*%
*
%MOIN*%
*
%FSLAX35Y35*%
*
*
*
*
G04 PC Standard Apertures*
*
*
G04 Thermal Relief Aperture macro.*
%AMTER*
1,1,$1,0,0*
1,0,$1-$2,0,0*
21,0,$3,$4,0,0,45*
21,0,$3,$4,0,0,135*
%
*
*
G04 Annular Aperture macro.*
%AMANN*
1,1,$1,0,0*
1,0,$2,0,0*
%
*
*
G04 Odd Aperture macro.*
%AMODD*
1,1,$1,0,0*
1,0,$1-0.005,0,0*
%
*
*
G04 PC Custom Aperture Macros*
*
*
*
*
*
*
G04 PC Aperture Table*
*
%ADD010C,0.001*%
%ADD014C,0.06*%
%ADD024C,0.25*%
%ADD027C,0.01*%
%ADD028C,0.03*%
%ADD029C,0.015*%
%ADD054C,0.042*%
*
*
*
*
G04 PC Circuitry*
G04 Layer Name uMuddMarkVLayout_3_osci - circuitry*
%LPD*%
*
*
G04 PC Custom Flashes*
G04 Layer Name uMuddMarkVLayout_3_osci - flashes*
%LPD*%
*
*
G04 PC Circuitry*
G04 Layer Name uMuddMarkVLayout_3_osci - circuitry*
%LPD*%
*
G54D10*
G54D14*
G01X2081400Y2035500D03*
Y2045500D03*
Y2055500D03*
Y2065500D03*
Y2075500D03*
Y2085500D03*
Y2095500D03*
Y2105500D03*
Y2115500D03*
Y2125500D03*
X1978300Y2379700D03*
X1952709D03*
X1938700Y2177500D03*
X2055800Y2299900D03*
Y2339900D03*
X2075700Y1963200D03*
Y1937609D03*
X1909400Y2445100D03*
G54D24*
X2006400Y2230500D03*
G54D27*
X1902800Y1877092D02*
G75*
G03X1903574Y1876674I500J0D01*
G01X1907600Y1874500D02*
G03X1903574Y1876674I-2600J0D01*
G01X1907600Y1874500D02*
X1907600D01*
X1906913Y1872739D02*
G03X1907600Y1874500I-1913J1761D01*
G01X1906913Y1872739D02*
G03X1906780Y1872400I367J-339D01*
X1907280Y1871900I500J0*
G01X1961800*
X1962300Y1871400D02*
G03X1961800Y1871900I-500J0D01*
G01X1962300Y1871400D02*
Y1832900D01*
G03X1962800Y1832400I500J0*
G01X1999900*
G03X2000400Y1832900I0J500*
G01Y1852220*
G03X2000239Y1852587I-500J-0*
G01X1999400Y1854500D02*
G03X2000239Y1852587I2600J0D01*
G01Y1856413D02*
G03X1999400Y1854500I1761J-1913D01*
G01X2000239Y1856413D02*
G03X2000400Y1856780I-339J367D01*
G01Y1865500*
X2000900Y1866000D02*
G03X2000400Y1865500I0J-500D01*
G01X2000900Y1866000D02*
X2015100D01*
X2015600Y1865500D02*
G03X2015100Y1866000I-500J0D01*
G01X2015600Y1865500D02*
Y1857266D01*
G03X2016326Y1856820I500J-0*
G01X2020100Y1854500D02*
G03X2016326Y1856820I-2600J0D01*
G01Y1852180D02*
G03X2020100Y1854500I1174J2320D01*
G01X2016326Y1852180D02*
G03X2015600Y1851734I-226J-446D01*
G01Y1833900*
G03X2016100Y1833400I500J0*
G01X2036400*
G03X2036900Y1833900I0J500*
G01Y1851602*
G03X2036577Y1852069I-500J-0*
G01X2034900Y1854500D02*
G03X2036577Y1852069I2600J0D01*
G01X2035513Y1856177D02*
G03X2034900Y1854500I1987J-1677D01*
G01X2035513Y1856177D02*
G03X2035631Y1856500I-382J323D01*
X2035513Y1856823I-500J0*
G01X2034900Y1858500D02*
G03X2035513Y1856823I2600J0D01*
G01X2036577Y1860931D02*
G03X2034900Y1858500I923J-2431D01*
G01X2036577Y1860931D02*
G03X2036900Y1861398I-177J467D01*
G01Y1871800*
X2037400Y1872300D02*
G03X2036900Y1871800I0J-500D01*
G01X2037400Y1872300D02*
X2057316D01*
G03X2057816Y1872800I-0J500*
X2057668Y1873155I-500J0*
G01X2056900Y1875000D02*
G03X2057668Y1873155I2600J0D01*
G01X2062100Y1875000D02*
G03X2056900I-2600J0D01*
G01X2061332Y1873155D02*
G03X2062100Y1875000I-1832J1845D01*
G01X2061332Y1873155D02*
G03X2061184Y1872800I352J-355D01*
X2061684Y1872300I500J0*
G01X2068915*
G03X2069412Y1872752I-0J500*
G01X2074588D02*
G03X2069412I-2588J-252D01*
G01X2074588D02*
G03X2075085Y1872300I497J48D01*
G01X2086316*
G03X2086816Y1872800I-0J500*
X2086668Y1873155I-500J0*
G01X2085900Y1875000D02*
G03X2086668Y1873155I2600J0D01*
G01X2087577Y1877431D02*
G03X2085900Y1875000I923J-2431D01*
G01X2087577Y1877431D02*
G03X2087900Y1877898I-177J467D01*
G01Y1952234*
G03X2087174Y1952680I-500J0*
G01X2083400Y1955000D02*
G03X2087174Y1952680I2600J0D01*
G01Y1957320D02*
G03X2083400Y1955000I-1174J-2320D01*
G01X2087174Y1957320D02*
G03X2087900Y1957766I226J446D01*
G01Y2359602*
G03X2087577Y2360069I-500J-0*
G01X2085900Y2362500D02*
G03X2087577Y2360069I2600J0D01*
G01Y2364931D02*
G03X2085900Y2362500I923J-2431D01*
G01X2087577Y2364931D02*
G03X2087900Y2365398I-177J467D01*
G01Y2467300*
G03X2087400Y2467800I-500J0*
G01X1903300*
G03X1902800Y2467300I0J-500*
G01Y2257995*
G03X1903171Y2257512I500J-0*
G01X1904671Y2256430D02*
G03X1903171Y2257512I-2171J-1430D01*
G01X1904671Y2256430D02*
G03X1905558Y2256530I418J275D01*
G01X1913500Y2255100D02*
G03X1905558Y2256530I-4100J0D01*
G01X1907348Y2251550D02*
G03X1913500Y2255100I2052J3550D01*
G01X1907348Y2251550D02*
G03X1906598Y2251118I-250J-432D01*
G01X1906598*
G03Y2251099I500J-0*
G01X1906600Y2251000D02*
G03X1906598Y2251099I-2600J-0D01*
G01X1903413Y2248467D02*
G03X1906600Y2251000I587J2533D01*
G01X1903413Y2248467D02*
G03X1902800Y2247980I-113J-487D01*
G01Y1972592*
G03X1903574Y1972174I500J0*
G01X1905221Y1972591D02*
G03X1903574Y1972174I-221J-2591D01*
G01X1905221Y1972591D02*
G03X1905763Y1973089I42J498D01*
G01X1905763*
G03X1905713Y1973307I-500J-0*
G01X1905300Y1975100D02*
G03X1905713Y1973307I4100J0D01*
G01X1913500Y1975100D02*
G03X1905300I-4100J0D01*
G01X1908167Y1971190D02*
G03X1913500Y1975100I1233J3910D01*
G01X1908167Y1971190D02*
G03X1907517Y1970713I-150J-477D01*
X1907530Y1970598I500J-0*
G01X1907600Y1970000D02*
G03X1907530Y1970598I-2600J-0D01*
G01X1907600Y1970000D02*
X1907600D01*
X1907566Y1969581D02*
G03X1907600Y1970000I-2566J419D01*
G01X1907566Y1969581D02*
G03X1907559Y1969500I493J-81D01*
X1908205Y1969022I500J0*
G01X1913500Y1965100D02*
G03X1908205Y1969022I-4100J0D01*
G01X1905300Y1965100D02*
G03X1913500I4100J0D01*
G01X1905629Y1966708D02*
G03X1905300Y1965100I3771J-1608D01*
G01X1905629Y1966708D02*
G03X1905669Y1966905I-460J197D01*
G01X1905669*
G03X1905142Y1967404I-500J-0*
G01X1903574Y1967826D02*
G03X1905142Y1967404I1426J2174D01*
G01X1903574Y1967826D02*
G03X1902800Y1967408I-274J-418D01*
G01Y1877092*
X2085500Y2125500D02*
G03X2077300I-4100J0D01*
X2085500I4100J0*
G01Y2115500D02*
G03X2077300I-4100J0D01*
X2085500I4100J0*
G01Y2105500D02*
G03X2077300I-4100J0D01*
X2085500I4100J0*
G01Y2095500D02*
G03X2077300I-4100J0D01*
X2085500I4100J0*
G01Y2085500D02*
G03X2077300I-4100J0D01*
X2085500I4100J0*
G01Y2075500D02*
G03X2077300I-4100J0D01*
X2085500I4100J0*
G01Y2065500D02*
G03X2077300I-4100J0D01*
X2085500I4100J0*
G01Y2055500D02*
G03X2077300I-4100J0D01*
X2085500I4100J0*
G01Y2045500D02*
G03X2077300I-4100J0D01*
X2085500I4100J0*
G01Y2035500D02*
G03X2077300I-4100J0D01*
X2085500I4100J0*
G01X2081700Y2170700D02*
G03X2073500I-4100J0D01*
X2081700I4100J0*
G01X2078600Y2386500D02*
G03X2073400I-2600J0D01*
X2078600I2600J0*
G01X2078100Y2025000D02*
G03X2072900I-2600J0D01*
X2078100I2600J0*
G01X2073730Y2137983D02*
G03X2071900Y2135500I770J-2483D01*
G01X2073730Y2137983D02*
G03X2074082Y2138461I-148J478D01*
X2074019Y2138704I-500J-0*
G01X2073500Y2140700D02*
G03X2074019Y2138704I4100J0D01*
G01X2073500Y2140700D02*
X2073500D01*
X2081700D02*
G03X2073500I-4100J0D01*
G01X2077548Y2136600D02*
G03X2081700Y2140700I52J4100D01*
G01X2077548Y2136600D02*
G03X2077041Y2136100I-7J-500D01*
X2077051Y2136004I500J0*
G01X2077100Y2135500D02*
G03X2077051Y2136004I-2600J0D01*
G01X2071900Y2135500D02*
G03X2077100I2600J0D01*
G01X2079800Y1963200D02*
G03X2071600I-4100J0D01*
X2079800I4100J0*
G01Y1937609D02*
G03X2071600I-4100J0D01*
X2079800I4100J0*
G01X2079617Y2012291D02*
G03X2071417I-4100J-0D01*
X2079617I4100J-0*
G01X2075426Y1990799D02*
G03X2071417Y1986700I91J-4099D01*
G01X2075426Y1990799D02*
G03X2075912Y1991251I-12J500D01*
G01X2081100Y1991000D02*
G03X2075912Y1991251I-2600J0D01*
G01X2079641Y1988664D02*
G03X2081100Y1991000I-1141J2336D01*
G01X2079641Y1988664D02*
G03X2079360Y1988214I219J-450D01*
G01X2079360*
G03X2079388Y1988050I500J0*
G01X2079617Y1986700D02*
G03X2079388Y1988050I-4100J-0D01*
G01X2071417Y1986700D02*
G03X2079617I4100J0D01*
G01X2075600Y2112500D02*
G03X2070400I-2600J0D01*
X2075600I2600J0*
G01X2072600Y2273000D02*
G03X2067400I-2600J0D01*
X2072600I2600J0*
G01Y2242500D02*
G03X2067400I-2600J0D01*
X2072600I2600J0*
G01X2069285Y2212000D02*
G03X2067400Y2209500I715J-2500D01*
G01X2069285Y2212000D02*
G03X2069648Y2212481I-137J481D01*
X2069527Y2212806I-500J-0*
G01X2068900Y2214500D02*
G03X2069527Y2212806I2600J0D01*
G01X2074100Y2214500D02*
G03X2068900I-2600J0D01*
G01X2072215Y2212000D02*
G03X2074100Y2214500I-715J2500D01*
G01X2072215Y2212000D02*
G03X2071852Y2211519I137J-481D01*
X2071973Y2211194I500J0*
G01X2072600Y2209500D02*
G03X2071973Y2211194I-2600J0D01*
G01X2067400Y2209500D02*
G03X2072600I2600J0D01*
G01X2071700Y2170700D02*
G03X2063500I-4100J0D01*
X2071700I4100J0*
G01Y2140700D02*
G03X2063500I-4100J0D01*
X2071700I4100J0*
G01X2069900Y2339900D02*
G03X2061700I-4100J0D01*
X2069900I4100J0*
G01Y2329900D02*
G03X2061700I-4100J0D01*
X2069900I4100J0*
G01Y2319900D02*
G03X2061700I-4100J0D01*
X2069900I4100J0*
G01Y2309900D02*
G03X2061700I-4100J0D01*
X2069900I4100J0*
G01X2061700Y2296300D02*
Y2303500D01*
X2062200Y2304000D02*
G03X2061700Y2303500I0J-500D01*
G01X2062200Y2304000D02*
X2069400D01*
X2069900Y2303500D02*
G03X2069400Y2304000I-500J0D01*
G01X2069900Y2303500D02*
Y2296300D01*
X2069400Y2295800D02*
G03X2069900Y2296300I0J500D01*
G01X2069400Y2295800D02*
X2062200D01*
X2061700Y2296300D02*
G03X2062200Y2295800I500J0D01*
G01X2061441Y1887062D02*
G03X2060600Y1884900I2359J-2162D01*
G01X2061441Y1887062D02*
G03X2061572Y1887400I-369J338D01*
X2061441Y1887738I-500J0*
G01X2060600Y1889900D02*
G03X2061441Y1887738I3200J0D01*
G01Y1892062D02*
G03X2060600Y1889900I2359J-2162D01*
G01X2061441Y1892062D02*
G03X2061572Y1892400I-369J338D01*
X2061441Y1892738I-500J0*
G01X2060600Y1894900D02*
G03X2061441Y1892738I3200J0D01*
G01Y1897062D02*
G03X2060600Y1894900I2359J-2162D01*
G01X2061441Y1897062D02*
G03X2061572Y1897400I-369J338D01*
X2061441Y1897738I-500J0*
G01X2060600Y1899900D02*
G03X2061441Y1897738I3200J0D01*
G01Y1902062D02*
G03X2060600Y1899900I2359J-2162D01*
G01X2061441Y1902062D02*
G03X2061572Y1902400I-369J338D01*
X2061441Y1902738I-500J0*
G01X2060600Y1904900D02*
G03X2061441Y1902738I3200J0D01*
G01X2065962Y1907259D02*
G03X2060600Y1904900I-2162J-2359D01*
G01X2065962Y1907259D02*
G03X2066638I338J369D01*
G01X2072000Y1904900D02*
G03X2066638Y1907259I-3200J0D01*
G01X2071159Y1902738D02*
G03X2072000Y1904900I-2359J2162D01*
G01X2071159Y1902738D02*
G03X2071028Y1902400I369J-338D01*
X2071159Y1902062I500J0*
G01X2072000Y1899900D02*
G03X2071159Y1902062I-3200J0D01*
G01Y1897738D02*
G03X2072000Y1899900I-2359J2162D01*
G01X2071159Y1897738D02*
G03X2071028Y1897400I369J-338D01*
X2071159Y1897062I500J0*
G01X2072000Y1894900D02*
G03X2071159Y1897062I-3200J0D01*
G01Y1892738D02*
G03X2072000Y1894900I-2359J2162D01*
G01X2071159Y1892738D02*
G03X2071028Y1892400I369J-338D01*
X2071159Y1892062I500J0*
G01X2072000Y1889900D02*
G03X2071159Y1892062I-3200J0D01*
G01Y1887738D02*
G03X2072000Y1889900I-2359J2162D01*
G01X2071159Y1887738D02*
G03X2071028Y1887400I369J-338D01*
X2071159Y1887062I500J0*
G01X2072000Y1884900D02*
G03X2071159Y1887062I-3200J0D01*
G01X2066638Y1882541D02*
G03X2072000Y1884900I2162J2359D01*
G01X2066638Y1882541D02*
G03X2065962I-338J-369D01*
G01X2060600Y1884900D02*
G03X2065962Y1882541I3200J0D01*
G01X2064100Y2357000D02*
G03X2058900I-2600J0D01*
X2064100I2600J0*
G01X2062083Y1963200D02*
G03X2053883I-4100J0D01*
X2062083I4100J0*
G01Y1937609D02*
G03X2053883I-4100J0D01*
X2062083I4100J0*
G01X2061900Y2012291D02*
G03X2053700I-4100J-0D01*
X2061900I4100J-0*
G01Y1986700D02*
G03X2053700I-4100J0D01*
X2061900I4100J0*
G01X2061700Y2170700D02*
G03X2053500I-4100J0D01*
X2061700I4100J0*
G01Y2140700D02*
G03X2053500I-4100J0D01*
X2061700I4100J0*
G01X2059900Y2339900D02*
G03X2051700I-4100J0D01*
X2059900I4100J0*
G01Y2329900D02*
G03X2051700I-4100J0D01*
X2059900I4100J0*
G01Y2319900D02*
G03X2051700I-4100J0D01*
X2059900I4100J0*
G01Y2309900D02*
G03X2051700I-4100J0D01*
X2059900I4100J0*
G01Y2299900D02*
G03X2051700I-4100J0D01*
X2059900I4100J0*
G01X2056100Y2263000D02*
G03X2050900I-2600J0D01*
X2056100I2600J0*
G01Y2235500D02*
G03X2050900I-2600J0D01*
X2056100I2600J0*
G01Y2225500D02*
G03X2050900I-2600J0D01*
X2056100I2600J0*
G01X2053941Y2206162D02*
G03X2050900Y2203600I-441J-2562D01*
G01X2053941Y2206162D02*
G03X2054526Y2206655I85J493D01*
G01X2054526*
G03X2054426Y2206954I-500J0*
G01X2053910Y2208510D02*
G03X2054426Y2206954I2600J-0D01*
G01X2053910Y2208510D02*
X2053910D01*
X2053931Y2208838D02*
G03X2053910Y2208510I2579J-328D01*
G01X2053931Y2208838D02*
G03X2053935Y2208901I-496J63D01*
G01X2053935*
G03X2053445Y2209401I-500J-0*
G01X2050900Y2212000D02*
G03X2053445Y2209401I2600J0D01*
G01X2052300Y2214306D02*
G03X2050900Y2212000I1200J-2306D01*
G01X2052300Y2214306D02*
G03X2052569Y2214750I-231J444D01*
X2052300Y2215194I-500J0*
G01X2050900Y2217500D02*
G03X2052300Y2215194I2600J0D01*
G01X2056100Y2217500D02*
G03X2050900I-2600J0D01*
G01X2054700Y2215194D02*
G03X2056100Y2217500I-1200J2306D01*
G01X2054700Y2215194D02*
G03X2054431Y2214750I231J-444D01*
X2054700Y2214306I500J0*
G01X2056100Y2212000D02*
G03X2054700Y2214306I-2600J0D01*
G01X2056100Y2212000D02*
X2056100D01*
X2056079Y2211672D02*
G03X2056100Y2212000I-2579J328D01*
G01X2056079Y2211672D02*
G03X2056075Y2211609I496J-63D01*
G01X2056075*
G03X2056565Y2211109I500J0*
G01X2059110Y2208510D02*
G03X2056565Y2211109I-2600J-0D01*
G01X2056069Y2205947D02*
G03X2059110Y2208510I441J2563D01*
G01X2056069Y2205947D02*
G03X2055484Y2205455I-85J-492D01*
G01X2055484*
G03X2055583Y2205156I500J-0*
G01X2056100Y2203600D02*
G03X2055583Y2205156I-2600J-0D01*
G01X2055732Y2202266D02*
G03X2056100Y2203600I-2232J1334D01*
G01X2055732Y2202266D02*
G03X2055661Y2202009I429J-257D01*
G01X2055661*
G03X2055780Y2201685I500J0*
G01X2056400Y2200000D02*
G03X2055780Y2201685I-2600J0D01*
G01X2051200Y2200000D02*
G03X2056400I2600J0D01*
G01X2051200D02*
X2051200D01*
X2051568Y2201334D02*
G03X2051200Y2200000I2232J-1334D01*
G01X2051568Y2201334D02*
G03X2051639Y2201591I-429J257D01*
G01X2051639*
G03X2051520Y2201915I-500J-0*
G01X2050900Y2203600D02*
G03X2051520Y2201915I2600J0D01*
G01X2054100Y2425000D02*
G03X2048900I-2600J0D01*
X2054100I2600J0*
G01Y1944500D02*
G03X2048900I-2600J0D01*
X2054100I2600J0*
G01X2055500Y2125500D02*
G03X2047300I-4100J0D01*
X2055500I4100J0*
G01X2053310Y2109128D02*
G03X2047300Y2105500I-1910J-3628D01*
G01X2053310Y2109128D02*
G03X2054043Y2109571I233J443D01*
G01X2054043*
G03X2054020Y2109720I-500J-0*
G01X2053900Y2110500D02*
G03X2054020Y2109720I2600J0D01*
G01Y2111280D02*
G03X2053900Y2110500I2480J-780D01*
G01X2054020Y2111280D02*
G03X2054043Y2111429I-477J149D01*
X2053310Y2111872I-500J0*
G01X2047300Y2115500D02*
G03X2053310Y2111872I4100J0D01*
G01X2055500Y2115500D02*
G03X2047300I-4100J0D01*
G01X2055065Y2113662D02*
G03X2055500Y2115500I-3665J1838D01*
G01X2055065Y2113662D02*
G03X2055012Y2113438I447J-224D01*
X2055671Y2112964I500J0*
G01X2059100Y2110500D02*
G03X2055671Y2112964I-2600J0D01*
G01Y2108036D02*
G03X2059100Y2110500I829J2464D01*
G01X2055671Y2108036D02*
G03X2055012Y2107562I-159J-474D01*
X2055065Y2107338I500J-0*
G01X2055500Y2105500D02*
G03X2055065Y2107338I-4100J-0D01*
G01X2047300Y2105500D02*
G03X2055500I4100J0D01*
G01Y2095500D02*
G03X2047300I-4100J0D01*
X2055500I4100J0*
G01Y2085500D02*
G03X2047300I-4100J0D01*
X2055500I4100J0*
G01Y2075500D02*
G03X2047300I-4100J0D01*
X2055500I4100J0*
G01Y2065500D02*
G03X2047300I-4100J0D01*
X2055500I4100J0*
G01X2050600Y2268500D02*
G03X2045400I-2600J0D01*
X2050600I2600J0*
G01X2046933Y2044538D02*
G03X2044900Y2042000I567J-2538D01*
G01X2046933Y2044538D02*
G03X2047325Y2045026I-108J488D01*
X2047322Y2045077I-500J-0*
G01X2047300Y2045500D02*
G03X2047322Y2045077I4100J-0D01*
G01X2047300Y2045500D02*
X2047300D01*
X2055500D02*
G03X2047300I-4100J0D01*
G01X2050540Y2041491D02*
G03X2055500Y2045500I860J4009D01*
G01X2050540Y2041491D02*
G03X2049962Y2041163I-105J-489D01*
G01X2049284Y2040108D02*
G03X2049962Y2041163I-1784J1892D01*
G01X2049284Y2040108D02*
G03X2049127Y2039744I343J-364D01*
X2049819Y2039283I500J0*
G01X2055500Y2035500D02*
G03X2049819Y2039283I-4100J0D01*
G01X2047300Y2035500D02*
G03X2055500I4100J0D01*
G01X2048806Y2038675D02*
G03X2047300Y2035500I2594J-3175D01*
G01X2048806Y2038675D02*
G03X2048990Y2039062I-316J387D01*
X2048330Y2039536I-500J0*
G01X2044900Y2042000D02*
G03X2048330Y2039536I2600J0D01*
G01X2051700Y2170700D02*
G03X2043500I-4100J0D01*
X2051700I4100J0*
G01Y2140700D02*
G03X2043500I-4100J0D01*
X2051700I4100J0*
G01X2048190Y2059164D02*
G03X2043004Y2058896I-2586J-268D01*
G01X2048190Y2059164D02*
G03X2048982Y2058811I497J51D01*
G01X2055500Y2055500D02*
G03X2048982Y2058811I-4100J0D01*
G01X2047300Y2055500D02*
G03X2055500I4100J0D01*
G01X2047300D02*
X2047300D01*
X2047329Y2055991D02*
G03X2047300Y2055500I4071J-491D01*
G01X2047329Y2055991D02*
G03X2047333Y2056050I-496J59D01*
G01X2047333*
G03X2046635Y2056509I-500J0*
G01X2043004Y2058896D02*
G03X2046635Y2056509I2600J0D01*
G01X2046100Y2253000D02*
G03X2040900I-2600J0D01*
X2046100I2600J0*
G01Y2243500D02*
G03X2040900I-2600J0D01*
X2046100I2600J0*
G01X2042845Y2210516D02*
G03X2040900Y2208000I655J-2516D01*
G01X2042845Y2210516D02*
G03X2043219Y2211000I-126J484D01*
X2042845Y2211484I-500J0*
G01X2040900Y2214000D02*
G03X2042845Y2211484I2600J0D01*
G01X2046100Y2214000D02*
G03X2040900I-2600J0D01*
G01X2044155Y2211484D02*
G03X2046100Y2214000I-655J2516D01*
G01X2044155Y2211484D02*
G03X2043781Y2211000I126J-484D01*
X2044155Y2210516I500J0*
G01X2046100Y2208000D02*
G03X2044155Y2210516I-2600J0D01*
G01X2040900Y2208000D02*
G03X2046100I2600J0D01*
G01Y1879000D02*
G03X2040900I-2600J0D01*
X2046100I2600J0*
G01X2044600Y2117500D02*
G03X2039400I-2600J0D01*
X2044600I2600J0*
G01X2044100Y2233500D02*
G03X2038900I-2600J0D01*
X2044100I2600J0*
G01X2043100Y2202000D02*
G03X2037900I-2600J0D01*
X2043100I2600J0*
G01X2038600Y2003500D02*
G03X2033400I-2600J0D01*
X2038600I2600J0*
G01Y1991500D02*
G03X2033400I-2600J0D01*
X2038600I2600J0*
G01Y1980500D02*
G03X2033400I-2600J0D01*
X2038600I2600J0*
G01X2038100Y1895500D02*
G03X2032900I-2600J0D01*
X2038100I2600J0*
G01X2035701Y2184884D02*
G03X2030900Y2183500I-2201J-1384D01*
G01X2035701Y2184884D02*
G03X2036484Y2184803I423J266D01*
G01X2040957Y2183000D02*
G03X2036484Y2184803I-2600J0D01*
G01X2036156Y2181616D02*
G03X2040957Y2183000I2201J1384D01*
G01X2036156Y2181616D02*
G03X2035373Y2181697I-423J-266D01*
G01X2030900Y2183500D02*
G03X2035373Y2181697I2600J0D01*
G01X2032035Y2267217D02*
G03X2030104Y2264704I669J-2513D01*
G01X2032035Y2267217D02*
G03X2032405Y2267668I-129J483D01*
G01X2037097Y2269037D02*
G03X2032405Y2267668I-2097J-1537D01*
G01X2037097Y2269037D02*
G03X2037903I403J296D01*
G01X2042600Y2267500D02*
G03X2037903Y2269037I-2600J0D01*
G01X2040321Y2264920D02*
G03X2042600Y2267500I-321J2580D01*
G01X2040321Y2264920D02*
G03X2039885Y2264469I62J-496D01*
G01X2035370Y2262957D02*
G03X2039885Y2264469I1926J1747D01*
G01X2035370Y2262957D02*
G03X2034630I-370J-336D01*
G01X2030104Y2264704D02*
G03X2034630Y2262957I2600J0D01*
G01X2033717Y1900500D02*
G03X2028517I-2600J0D01*
X2033717I2600J0*
G01X2033100Y2163000D02*
G03X2027900I-2600J0D01*
X2033100I2600J0*
G01Y2111000D02*
G03X2027900I-2600J0D01*
X2033100I2600J0*
G01X2031600Y2395500D02*
G03X2026400I-2600J0D01*
X2031600I2600J0*
G01X2027600Y2267500D02*
G03X2022400I-2600J0D01*
X2027600I2600J0*
G01X2027100Y2351000D02*
G03X2021900I-2600J0D01*
X2027100I2600J0*
G01X2025600Y2277500D02*
G03X2020400I-2600J0D01*
X2025600I2600J0*
G01X2022891Y1965098D02*
G03X2020400Y1962500I109J-2598D01*
G01X2022891Y1965098D02*
G03X2023371Y1965597I-20J499D01*
X2023363Y1965685I-500J0*
G01X2023300Y1966400D02*
G03X2023363Y1965685I4100J-0D01*
G01X2023300Y1966400D02*
X2023300D01*
X2031500D02*
G03X2023300I-4100J0D01*
G01X2026205Y1962478D02*
G03X2031500Y1966400I1195J3922D01*
G01X2026205Y1962478D02*
G03X2025566Y1962080I-146J-478D01*
G01X2020400Y1962500D02*
G03X2025566Y1962080I2600J0D01*
G01X2025100Y1955000D02*
G03X2019900I-2600J0D01*
X2025100I2600J0*
G01X2024946Y1920381D02*
G03X2019900Y1919500I-2446J-881D01*
G01X2024946Y1920381D02*
G03X2025632Y1920099I471J169D01*
G01X2031500Y1916400D02*
G03X2025632Y1920099I-4100J0D01*
G01X2023300Y1916400D02*
G03X2031500I4100J0D01*
G01X2023300D02*
Y1916415D01*
G03X2022752Y1916912I-500J-0*
G01X2019900Y1919500D02*
G03X2022752Y1916912I2600J0D01*
G01X2023794Y2195554D02*
G03X2019600Y2193500I-1594J-2054D01*
G01X2023794Y2195554D02*
G03X2024406I306J395D01*
G01X2027183Y2195815D02*
G03X2024406Y2195554I-1183J-2315D01*
G01X2027183Y2195815D02*
G03X2027909Y2196218I228J445D01*
G01X2032988Y2196756D02*
G03X2027909Y2196218I-2488J-756D01*
G01X2032988Y2196756D02*
G03X2033880Y2196621I478J145D01*
G01X2038633Y2195163D02*
G03X2033880Y2196621I-2600J0D01*
G01X2033546Y2194408D02*
G03X2038633Y2195163I2487J755D01*
G01X2033546Y2194408D02*
G03X2032653Y2194543I-479J-146D01*
G01X2029317Y2193685D02*
G03X2032653Y2194543I1183J2315D01*
G01X2029317Y2193685D02*
G03X2028591Y2193282I-228J-445D01*
G01X2024406Y2191446D02*
G03X2028591Y2193282I1594J2054D01*
G01X2024406Y2191446D02*
G03X2023794I-306J-395D01*
G01X2019600Y2193500D02*
G03X2023794Y2191446I2600J0D01*
G01X2024100Y1859500D02*
G03X2018900I-2600J0D01*
X2024100I2600J0*
G01X2023707Y2183393D02*
G03X2018507I-2600J-0D01*
X2023707I2600J-0*
G01X2023600Y2415000D02*
G03X2018400I-2600J0D01*
X2023600I2600J0*
G01X2023100Y2443000D02*
G03X2017900I-2600J0D01*
X2023100I2600J0*
G01Y2385500D02*
G03X2017900I-2600J0D01*
X2023100I2600J0*
G01X2022100Y2030500D02*
G03X2016900I-2600J0D01*
X2022100I2600J0*
G01X2018100Y2267500D02*
G03X2012900I-2600J0D01*
X2018100I2600J0*
G01Y1887500D02*
G03X2012900I-2600J0D01*
X2018100I2600J0*
G01X2016100Y2277500D02*
G03X2010900I-2600J0D01*
X2016100I2600J0*
G01X2017409Y2125272D02*
G03X2009209I-4100J0D01*
X2017409I4100J0*
G01Y2115272D02*
G03X2009209I-4100J0D01*
X2017409I4100J0*
G01Y2105272D02*
G03X2009209I-4100J0D01*
X2017409I4100J0*
G01Y2095272D02*
G03X2009209I-4100J0D01*
X2017409I4100J0*
G01Y2085272D02*
G03X2009209I-4100J0D01*
X2017409I4100J0*
G01Y2075272D02*
G03X2009209I-4100J0D01*
X2017409I4100J0*
G01Y2065272D02*
G03X2009209I-4100J0D01*
X2017409I4100J0*
G01Y2055272D02*
G03X2009209I-4100J0D01*
X2017409I4100J0*
G01Y2045272D02*
G03X2009209I-4100J0D01*
X2017409I4100J0*
G01Y2035272D02*
G03X2009209I-4100J0D01*
X2017409I4100J0*
G01X2008485Y2196096D02*
G03X2006026Y2193500I141J-2596D01*
G01X2008485Y2196096D02*
G03X2008948Y2196499I-27J499D01*
G01X2014100Y2196000D02*
G03X2008948Y2196499I-2600J0D01*
G01X2011641Y2193404D02*
G03X2014100Y2196000I-141J2596D01*
G01X2011641Y2193404D02*
G03X2011178Y2193001I27J-499D01*
G01X2006026Y2193500D02*
G03X2011178Y2193001I2600J0D01*
G01X2009592Y2168000D02*
G03X2004392I-2600J0D01*
X2009592I2600J0*
G01X2008600Y1881500D02*
G03X2003400I-2600J0D01*
X2008600I2600J0*
G01X2007600Y2331000D02*
G03X2002400I-2600J0D01*
X2007600I2600J0*
G01X2001513Y1952177D02*
G03X2000900Y1950500I1987J-1677D01*
G01X2001513Y1952177D02*
G03X2001631Y1952500I-382J323D01*
X2001513Y1952823I-500J0*
G01X2000900Y1954500D02*
G03X2001513Y1952823I2600J0D01*
G01X2002845Y1957016D02*
G03X2000900Y1954500I655J-2516D01*
G01X2002845Y1957016D02*
G03X2003219Y1957500I-126J484D01*
X2002845Y1957984I-500J0*
G01X2000900Y1960500D02*
G03X2002845Y1957984I2600J0D01*
G01X2006100Y1960500D02*
G03X2000900I-2600J0D01*
G01X2004155Y1957984D02*
G03X2006100Y1960500I-655J2516D01*
G01X2004155Y1957984D02*
G03X2003781Y1957500I126J-484D01*
X2004155Y1957016I500J0*
G01X2006100Y1954500D02*
G03X2004155Y1957016I-2600J0D01*
G01X2005487Y1952823D02*
G03X2006100Y1954500I-1987J1677D01*
G01X2005487Y1952823D02*
G03X2005369Y1952500I382J-323D01*
X2005487Y1952177I500J0*
G01X2006100Y1950500D02*
G03X2005487Y1952177I-2600J0D01*
G01X2000900Y1950500D02*
G03X2006100I2600J0D01*
G01Y1940900D02*
G03X2000900I-2600J0D01*
G01X2005101Y1938851D02*
G03X2006100Y1940900I-1601J2049D01*
G01X2005101Y1938851D02*
G03X2004908Y1938457I307J-394D01*
G01X2004908*
G03X2005263Y1937978I500J-0*
G01X2005427Y1937923D02*
G03X2005263Y1937978I-917J-2433D01*
G01X2005427Y1937923D02*
G03X2006050Y1938166I176J468D01*
G01X2010974Y1937000D02*
G03X2006050Y1938166I-2600J0D01*
G01X2007457Y1934567D02*
G03X2010974Y1937000I917J2433D01*
G01X2007457Y1934567D02*
G03X2006834Y1934324I-176J-468D01*
G01X2001910Y1935490D02*
G03X2006834Y1934324I2600J-0D01*
G01X2002910Y1937539D02*
G03X2001910Y1935490I1600J-2049D01*
G01X2002910Y1937539D02*
G03X2003102Y1937933I-308J394D01*
G01X2003102*
G03X2002747Y1938412I-500J-0*
G01X2000900Y1940900D02*
G03X2002747Y1938412I2600J0D01*
G01X2003600Y2385500D02*
G03X1998400I-2600J0D01*
X2003600I2600J0*
G01X2002100Y2267500D02*
G03X1996900I-2600J0D01*
X2002100I2600J0*
G01X2001600Y1907500D02*
G03X1996400I-2600J0D01*
X2001600I2600J0*
G01X1999980Y2199270D02*
G03X1994780I-2600J0D01*
G01X1999980D02*
X1999980D01*
X1999941Y2198821D02*
G03X1999980Y2199270I-2561J449D01*
G01X1999941Y2198821D02*
G03X1999934Y2198735I493J-86D01*
G01X1999934*
G03X2000780Y2198374I500J-0*
G01X2005182Y2196500D02*
G03X2000780Y2198374I-2600J0D01*
G01X1999982Y2196500D02*
G03X2005182I2600J0D01*
G01X1999982D02*
X1999982D01*
X2000021Y2196949D02*
G03X1999982Y2196500I2561J-449D01*
G01X2000021Y2196949D02*
G03X2000029Y2197035I-492J86D01*
G01X2000029*
G03X1999182Y2197396I-500J0*
G01X1994780Y2199270D02*
G03X1999182Y2197396I2600J0D01*
G01X1999774Y2247861D02*
G03X1994574I-2600J-0D01*
X1999774I2600J-0*
G01X2002709Y2115272D02*
G03X1994509I-4100J0D01*
X2002709I4100J0*
G01Y2095272D02*
G03X1994509I-4100J0D01*
X2002709I4100J0*
G01Y2085272D02*
G03X1994509I-4100J0D01*
X2002709I4100J0*
G01Y2075272D02*
G03X1994509I-4100J0D01*
X2002709I4100J0*
G01Y2065272D02*
G03X1994509I-4100J0D01*
X2002709I4100J0*
G01Y2055272D02*
G03X1994509I-4100J0D01*
X2002709I4100J0*
G01X1998600Y2138000D02*
G03X1993400I-2600J0D01*
X1998600I2600J0*
G01X2020000Y2230500D02*
G03X1992800I-13600J0D01*
X2020000I13600J0*
G01X1997100Y2415000D02*
G03X1991900I-2600J0D01*
X1997100I2600J0*
G01X1994133Y2044074D02*
G03X1991900Y2041500I367J-2574D01*
G01X1994133Y2044074D02*
G03X1994563Y2044569I-70J495D01*
X1994557Y2044645I-500J0*
G01X1994509Y2045272D02*
G03X1994557Y2044645I4100J0D01*
G01X2002709Y2045272D02*
G03X1994509I-4100J0D01*
G01X1997639Y2041289D02*
G03X2002709Y2045272I970J3983D01*
G01X1997639Y2041289D02*
G03X1997033Y2040915I-118J-486D01*
G01X1996518Y2039861D02*
G03X1997033Y2040915I-2018J1639D01*
G01X1996518Y2039861D02*
G03X1996406Y2039546I388J-315D01*
X1997091Y2039081I500J-0*
G01X2002709Y2035272D02*
G03X1997091Y2039081I-4100J0D01*
G01X1994509Y2035272D02*
G03X2002709I4100J0D01*
G01X1995704Y2038166D02*
G03X1994509Y2035272I2905J-2894D01*
G01X1995704Y2038166D02*
G03X1995850Y2038519I-354J353D01*
X1995213Y2039000I-500J-0*
G01X1991900Y2041500D02*
G03X1995213Y2039000I2600J0D01*
G01X1993985Y2282596D02*
G03X1991526Y2280000I141J-2596D01*
G01X1993985Y2282596D02*
G03X1994448Y2282999I-27J499D01*
G01X1999600Y2282500D02*
G03X1994448Y2282999I-2600J0D01*
G01X1998725Y2280555D02*
G03X1999600Y2282500I-1725J1945D01*
G01X1998725Y2280555D02*
G03X1998557Y2280181I332J-374D01*
X1998806Y2279748I500J-0*
G01X2000100Y2277500D02*
G03X1998806Y2279748I-2600J0D01*
G01X1994946Y2277011D02*
G03X2000100Y2277500I2554J489D01*
G01X1994946Y2277011D02*
G03X1994402Y2277415I-491J-93D01*
G01X1991526Y2280000D02*
G03X1994402Y2277415I2600J0D01*
G01X1996500Y1965000D02*
G03X1991300I-2600J0D01*
X1996500I2600J0*
G01X1991963Y1953066D02*
G03X1990900Y1950969I1537J-2097D01*
G01X1991963Y1953066D02*
G03X1992167Y1953469I-296J403D01*
X1991963Y1953872I-500J0*
G01X1990900Y1955969D02*
G03X1991963Y1953872I2600J0D01*
G01X1996100Y1955969D02*
G03X1990900I-2600J0D01*
G01X1995037Y1953872D02*
G03X1996100Y1955969I-1537J2097D01*
G01X1995037Y1953872D02*
G03X1994833Y1953469I296J-403D01*
X1995037Y1953066I500J0*
G01X1996100Y1950969D02*
G03X1995037Y1953066I-2600J0D01*
G01X1990900Y1950969D02*
G03X1996100I2600J0D01*
G01Y1942500D02*
G03X1990900I-2600J0D01*
X1996100I2600J0*
G01X1995458Y2108849D02*
G03X1990400Y2108000I-2458J-849D01*
G01X1995458Y2108849D02*
G03X1996221Y2108606I472J163D01*
G01X2002709Y2105272D02*
G03X1996221Y2108606I-4100J0D01*
G01X1994513Y2105092D02*
G03X2002709Y2105272I4096J180D01*
G01X1994513Y2105092D02*
G03X1993850Y2105543I-500J-22D01*
G01X1990400Y2108000D02*
G03X1993850Y2105543I2600J0D01*
G01X1994113Y2127040D02*
G03X1989475Y2125425I-2038J-1615D01*
G01X1994113Y2127040D02*
G03X1994951Y2127124I392J310D01*
G01X2002709Y2125272D02*
G03X1994951Y2127124I-4100J0D01*
G01X1994869Y2123593D02*
G03X2002709Y2125272I3740J1679D01*
G01X1994869Y2123593D02*
G03X1994036Y2123716I-456J-205D01*
G01X1989475Y2125425D02*
G03X1994036Y2123716I2600J-0D01*
G01X1992670Y2239974D02*
G03X1987470I-2600J0D01*
X1992670I2600J0*
G01X1992600Y1889500D02*
G03X1987400I-2600J0D01*
X1992600I2600J0*
G01X1991600Y2166500D02*
G03X1986400I-2600J0D01*
X1991600I2600J0*
G01Y2091000D02*
G03X1986400I-2600J0D01*
X1991600I2600J0*
G01X1991442Y1903893D02*
G03X1986400Y1903000I-2442J-893D01*
G01X1991442Y1903893D02*
G03X1991986Y1903571I469J172D01*
G01X1994974Y1901000D02*
G03X1991986Y1903571I-2600J0D01*
G01X1989932Y1900107D02*
G03X1994974Y1901000I2442J893D01*
G01X1989932Y1900107D02*
G03X1989388Y1900429I-469J-172D01*
G01X1986400Y1903000D02*
G03X1989388Y1900429I2600J0D01*
G01X1989900Y1965000D02*
G03X1984700I-2600J0D01*
X1989900I2600J0*
G01X1988236Y2199359D02*
G03X1984580Y2196983I-1056J-2376D01*
G01X1988236Y2199359D02*
G03X1988817Y2199488I203J457D01*
G01X1993380Y2197784D02*
G03X1988817Y2199488I-2600J-0D01*
G01X1993380Y2197784D02*
X1993380D01*
X1993222Y2196890D02*
G03X1993380Y2197784I-2442J894D01*
G01X1993222Y2196890D02*
G03X1993191Y2196718I469J-172D01*
X1993738Y2196220I500J0*
G01X1996582Y2193632D02*
G03X1993738Y2196220I-2600J-0D01*
G01X1991382Y2193632D02*
G03X1996582I2600J-0D01*
G01X1991382D02*
X1991382D01*
X1991541Y2194526D02*
G03X1991382Y2193632I2441J-894D01*
G01X1991541Y2194526D02*
G03X1991571Y2194698I-470J172D01*
X1991024Y2195195I-500J-0*
G01X1989725Y2195408D02*
G03X1991024Y2195195I1055J2376D01*
G01X1989725Y2195408D02*
G03X1989144Y2195279I-203J-457D01*
G01X1984580Y2196983D02*
G03X1989144Y2195279I2600J-0D01*
G01X1989100Y1920000D02*
G03X1983900I-2600J0D01*
G01X1988516Y1918358D02*
G03X1989100Y1920000I-2016J1642D01*
G01X1988516Y1918358D02*
G03X1988403Y1918042I387J-316D01*
X1989000Y1917551I500J0*
G01X1992100Y1915000D02*
G03X1989000Y1917551I-2600J0D01*
G01X1986900Y1915000D02*
G03X1992100I2600J0D01*
G01X1987484Y1916642D02*
G03X1986900Y1915000I2016J-1642D01*
G01X1987484Y1916642D02*
G03X1987597Y1916958I-387J316D01*
X1987000Y1917449I-500J-0*
G01X1983900Y1920000D02*
G03X1987000Y1917449I2600J0D01*
G01X1988900Y2261667D02*
G03X1983700I-2600J0D01*
X1988900I2600J0*
G01X1988300Y1937500D02*
G03X1983100I-2600J0D01*
X1988300I2600J0*
G01X1987500Y2254267D02*
G03X1982300I-2600J0D01*
X1987500I2600J0*
G01X1986600Y2023500D02*
G03X1981400I-2600J0D01*
X1986600I2600J0*
G01X1986100Y2215500D02*
G03X1980900I-2600J0D01*
X1986100I2600J0*
G01X1985883Y2183726D02*
G03X1980693Y2183500I-2590J-226D01*
G01X1985883Y2183726D02*
G03X1986722Y2183403I498J43D01*
G01X1989370Y2183948D02*
G03X1986722Y2183403I-877J-2448D01*
G01X1989370Y2183948D02*
G03X1990017Y2184270I169J470D01*
G01X1995100Y2183500D02*
G03X1990017Y2184270I-2600J0D01*
G01X1991623Y2181052D02*
G03X1995100Y2183500I877J2448D01*
G01X1991623Y2181052D02*
G03X1990976Y2180730I-169J-470D01*
G01X1985903Y2181274D02*
G03X1990976Y2180730I2590J226D01*
G01X1985903Y2181274D02*
G03X1985064Y2181597I-498J-43D01*
G01X1980693Y2183500D02*
G03X1985064Y2181597I2600J0D01*
G01X1981743Y2343276D02*
G03X1980400Y2341000I1257J-2276D01*
G01X1981743Y2343276D02*
G03X1982001Y2343714I-242J438D01*
X1981985Y2343841I-500J-0*
G01X1981900Y2344500D02*
G03X1981985Y2343841I2600J-0D01*
G01X1981900Y2344500D02*
X1981900D01*
X1987100D02*
G03X1981900I-2600J0D01*
G01X1985757Y2342224D02*
G03X1987100Y2344500I-1257J2276D01*
G01X1985757Y2342224D02*
G03X1985499Y2341786I242J-438D01*
X1985515Y2341659I500J0*
G01X1985600Y2341000D02*
G03X1985515Y2341659I-2600J0D01*
G01X1985600Y2341000D02*
X1985600D01*
X1980400D02*
G03X1985600I2600J0D01*
G01Y2031000D02*
G03X1980400I-2600J0D01*
X1985600I2600J0*
G01X1982836Y1858952D02*
G03X1979900Y1856374I-336J-2578D01*
G01X1982836Y1858952D02*
G03X1983400Y1859448I64J496D01*
Y1859456I-500J0*
G01Y1859500D02*
G03Y1859456I2600J-0D01*
G01Y1859500D02*
X1983400D01*
X1988600D02*
G03X1983400I-2600J0D01*
G01X1987537Y1857403D02*
G03X1988600Y1859500I-1537J2097D01*
G01X1987537Y1857403D02*
G03X1987333Y1857000I296J-403D01*
X1987537Y1856597I500J0*
G01X1987677Y1856487D02*
G03X1987537Y1856597I-1677J-1987D01*
G01X1987677Y1856487D02*
G03X1988323I323J382D01*
G01X1992600Y1854500D02*
G03X1988323Y1856487I-2600J0D01*
G01Y1852513D02*
G03X1992600Y1854500I1677J1987D01*
G01X1988323Y1852513D02*
G03X1987677I-323J-382D01*
G01X1983590Y1853525D02*
G03X1987677Y1852513I2410J975D01*
G01X1983590Y1853525D02*
G03X1983025Y1853828I-464J-187D01*
G01X1979900Y1856374D02*
G03X1983025Y1853828I2600J0D01*
G01X1981379Y2243872D02*
G03X1979670Y2241429I891J-2443D01*
G01X1981379Y2243872D02*
G03X1981708Y2244342I-171J470D01*
X1981578Y2244678I-500J-0*
G01X1980900Y2246429D02*
G03X1981578Y2244678I2600J0D01*
G01X1986100Y2246429D02*
G03X1980900I-2600J0D01*
G01X1984390Y2243986D02*
G03X1986100Y2246429I-890J2443D01*
G01X1984390Y2243986D02*
G03X1984062Y2243517I172J-469D01*
X1984192Y2243180I500J-0*
G01X1984870Y2241429D02*
G03X1984192Y2243180I-2600J0D01*
G01X1979670Y2241429D02*
G03X1984870I2600J0D01*
G01X1984599Y2289083D02*
G03X1979400Y2289000I-2599J-83D01*
G01X1984599Y2289083D02*
G03X1985083Y2288599I499J15D01*
G01X1987600Y2286000D02*
G03X1985083Y2288599I-2600J0D01*
G01X1982401Y2285917D02*
G03X1987600Y2286000I2599J83D01*
G01X1982401Y2285917D02*
G03X1981917Y2286401I-499J-15D01*
G01X1979400Y2289000D02*
G03X1981917Y2286401I2600J0D01*
G01X1984100Y2135500D02*
G03X1978900I-2600J0D01*
X1984100I2600J0*
G01X1983800Y2166700D02*
G03X1978600I-2600J0D01*
X1983800I2600J0*
G01X1982142Y2357516D02*
G03X1977900Y2355500I-1642J-2016D01*
G01X1982142Y2357516D02*
G03X1982958Y2357903I316J387D01*
X1982949Y2358000I-500J0*
G01X1982900Y2358500D02*
G03X1982949Y2358000I2600J-0D01*
G01X1982900Y2358500D02*
X1982900D01*
X1988100D02*
G03X1982900I-2600J0D01*
G01X1983858Y2356484D02*
G03X1988100Y2358500I1642J2016D01*
G01X1983858Y2356484D02*
G03X1983042Y2356097I-316J-387D01*
X1983051Y2356000I500J-0*
G01X1983100Y2355500D02*
G03X1983051Y2356000I-2600J0D01*
G01X1983100Y2355500D02*
X1983100D01*
X1977900D02*
G03X1983100I2600J0D01*
G01X1982600Y1885000D02*
G03X1977400I-2600J0D01*
X1982600I2600J0*
G01X1982289Y2280571D02*
G03X1977089I-2600J0D01*
G01X1982289Y2280510D02*
G03Y2280571I-2600J61D01*
G01Y2280510D02*
G03Y2280498I500J-12D01*
G01X1982289*
G03X1982661Y2280014I500J0*
G01X1983594Y2279554D02*
G03X1982661Y2280014I-1594J-2054D01*
G01X1983594Y2279554D02*
G03X1984206I306J395D01*
G01X1988400Y2277500D02*
G03X1984206Y2279554I-2600J0D01*
G01Y2275446D02*
G03X1988400Y2277500I1594J2054D01*
G01X1984206Y2275446D02*
G03X1983594I-306J-395D01*
G01X1979400Y2277500D02*
G03X1983594Y2275446I2600J0D01*
G01X1979401Y2277561D02*
G03X1979400Y2277500I2599J-61D01*
G01X1979401Y2277561D02*
G03Y2277573I-500J12D01*
G01X1979401*
G03X1979028Y2278057I-500J0*
G01X1977089Y2280571D02*
G03X1979028Y2278057I2600J0D01*
G01X1982282Y1965000D02*
G03X1977082I-2600J0D01*
X1982282I2600J0*
G01X1981087Y2305303D02*
G03X1975887I-2600J-0D01*
X1981087I2600J-0*
G01X1980889Y2295000D02*
G03X1975689I-2600J0D01*
X1980889I2600J0*
G01X1978872Y1956449D02*
G03X1975400Y1954000I-872J-2449D01*
G01X1978872Y1956449D02*
G03X1979517Y1956772I168J471D01*
G01X1984600Y1956000D02*
G03X1979517Y1956772I-2600J0D01*
G01X1981128Y1953551D02*
G03X1984600Y1956000I872J2449D01*
G01X1981128Y1953551D02*
G03X1980483Y1953228I-168J-471D01*
G01X1975400Y1954000D02*
G03X1980483Y1953228I2600J0D01*
G01X1979600Y2126000D02*
G03X1974400I-2600J0D01*
G01X1979054Y2124406D02*
G03X1979600Y2126000I-2054J1594D01*
G01X1979054Y2124406D02*
G03X1978949Y2124100I395J-306D01*
X1979457Y2123600I500J-0*
G01X1982100Y2121000D02*
G03X1979457Y2123600I-2600J0D01*
G01X1976900Y2121000D02*
G03X1982100I2600J0D01*
G01X1977446Y2122594D02*
G03X1976900Y2121000I2054J-1594D01*
G01X1977446Y2122594D02*
G03X1977551Y2122900I-395J306D01*
X1977043Y2123400I-500J0*
G01X1974400Y2126000D02*
G03X1977043Y2123400I2600J0D01*
G01X1982400Y2397417D02*
G03X1974200I-4100J-0D01*
X1982400I4100J-0*
G01Y2379700D02*
G03X1974200I-4100J0D01*
X1982400I4100J0*
G01X1976035Y1932717D02*
G03X1974104Y1930204I669J-2513D01*
G01X1976035Y1932717D02*
G03X1976405Y1933168I-129J483D01*
G01X1981583Y1933293D02*
G03X1976405Y1933168I-2583J-293D01*
G01X1981583Y1933293D02*
G03X1982277Y1932890I497J57D01*
G01X1984894Y1932554D02*
G03X1982277Y1932890I-1594J-2054D01*
G01X1984894Y1932554D02*
G03X1985506I306J395D01*
G01X1989700Y1930500D02*
G03X1985506Y1932554I-2600J0D01*
G01Y1928446D02*
G03X1989700Y1930500I1594J2054D01*
G01X1985506Y1928446D02*
G03X1984894I-306J-395D01*
G01X1980717Y1930207D02*
G03X1984894Y1928446I2583J293D01*
G01X1980717Y1930207D02*
G03X1980023Y1930610I-497J-57D01*
G01X1979669Y1930488D02*
G03X1980023Y1930610I-669J2512D01*
G01X1979669Y1930488D02*
G03X1979299Y1930037I129J-484D01*
G01X1974104Y1930204D02*
G03X1979299Y1930037I2600J0D01*
G01X1979100Y2350500D02*
G03X1973900I-2600J0D01*
X1979100I2600J0*
G01X1978474Y2338626D02*
G03X1973274I-2600J-0D01*
X1978474I2600J-0*
G01X1977867Y1976742D02*
G03X1973061Y1975366I-2206J-1376D01*
G01X1977867Y1976742D02*
G03X1978728Y1976764I424J265D01*
G01X1981839Y1977961D02*
G03X1978728Y1976764I-839J-2461D01*
G01X1981839Y1977961D02*
G03X1982501Y1978434I162J473D01*
G01X1982501*
G03Y1978440I-500J0*
G01Y1978470D02*
G03Y1978440I2600J1D01*
G01X1987700Y1978491D02*
G03X1982501Y1978470I-2599J-21D01*
G01X1987701Y1978491D02*
G03X1988329Y1978012I499J4D01*
G01X1991600Y1975500D02*
G03X1988329Y1978012I-2600J0D01*
G01X1986400Y1975479D02*
G03X1991600Y1975500I2600J21D01*
G01X1986400Y1975479D02*
G03X1985771Y1975958I-500J-4D01*
G01X1984261Y1976010D02*
G03X1985771Y1975958I840J2460D01*
G01X1984261Y1976010D02*
G03X1983600Y1975536I-161J-474D01*
G01X1983600*
G03Y1975531I500J0*
G01Y1975500D02*
G03Y1975531I-2600J-0D01*
G01X1978794Y1974123D02*
G03X1983600Y1975500I2206J1377D01*
G01X1978794Y1974123D02*
G03X1977933Y1974102I-424J-264D01*
G01X1973061Y1975366D02*
G03X1977933Y1974102I2600J-0D01*
G01X1978100Y2070000D02*
G03X1972900I-2600J0D01*
X1978100I2600J0*
G01Y2048000D02*
G03X1972900I-2600J0D01*
X1978100I2600J0*
G01X1977600Y1920000D02*
G03X1972400I-2600J0D01*
G01X1977600D02*
X1977600D01*
Y1919968D02*
G03Y1920000I-2600J32D01*
G01Y1919968D02*
G03Y1919962I500J-6D01*
G01X1977600*
G03X1978487Y1919645I500J-0*
G01X1983100Y1918000D02*
G03X1978487Y1919645I-2600J0D01*
G01X1977900Y1918000D02*
G03X1983100I2600J0D01*
G01X1977900D02*
X1977900D01*
Y1918032D02*
G03Y1918000I2600J-32D01*
G01Y1918032D02*
G03Y1918038I-500J6D01*
G01X1977900*
G03X1977013Y1918355I-500J0*
G01X1972400Y1920000D02*
G03X1977013Y1918355I2600J0D01*
G01X1976100Y1961000D02*
G03X1970900I-2600J0D01*
X1976100I2600J0*
G01X1975600Y2118000D02*
G03X1970400I-2600J0D01*
X1975600I2600J0*
G01X1972916Y2321709D02*
G03X1970025Y2319125I-291J-2584D01*
G01X1972916Y2321709D02*
G03X1973472Y2322206I56J497D01*
X1973380Y2322495I-500J-0*
G01X1972900Y2324000D02*
G03X1973380Y2322495I2600J0D01*
G01X1978100Y2324000D02*
G03X1972900I-2600J0D01*
G01X1975209Y2321416D02*
G03X1978100Y2324000I291J2584D01*
G01X1975209Y2321416D02*
G03X1974653Y2320919I-56J-497D01*
X1974746Y2320630I500J0*
G01X1975225Y2319125D02*
G03X1974746Y2320630I-2600J0D01*
G01X1975225Y2319125D02*
X1975225D01*
X1975012Y2318093D02*
G03X1975225Y2319125I-2387J1032D01*
G01X1975012Y2318093D02*
G03X1974970Y2317894I458J-199D01*
X1975208Y2317469I500J0*
G01X1976446Y2315254D02*
G03X1975208Y2317469I-2600J0D01*
G01X1974930Y2312891D02*
G03X1976446Y2315254I-1084J2363D01*
G01X1974930Y2312891D02*
G03X1974638Y2312437I208J-454D01*
G01X1974638*
G03X1974743Y2312130I500J-0*
G01X1975289Y2310536D02*
G03X1974743Y2312130I-2600J-0D01*
G01X1975289Y2310536D02*
X1975289D01*
X1970089D02*
G03X1975289I2600J-0D01*
G01X1971605Y2312899D02*
G03X1970089Y2310536I1084J-2363D01*
G01X1971605Y2312899D02*
G03X1971897Y2313354I-208J455D01*
G01X1971897*
G03X1971792Y2313660I-500J-0*
G01X1971246Y2315254D02*
G03X1971792Y2313660I2600J0D01*
G01X1971246Y2315254D02*
X1971246D01*
X1971459Y2316287D02*
G03X1971246Y2315254I2387J-1033D01*
G01X1971459Y2316287D02*
G03X1971500Y2316485I-459J198D01*
X1971262Y2316911I-500J0*
G01X1970025Y2319125D02*
G03X1971263Y2316911I2600J0D01*
G01X1973990Y2185037D02*
G03X1969293Y2183500I-2097J-1537D01*
G01X1973990Y2185037D02*
G03X1974796I403J296D01*
G01X1979493Y2183500D02*
G03X1974796Y2185037I-2600J0D01*
G01Y2181963D02*
G03X1979493Y2183500I2097J1537D01*
G01X1974796Y2181963D02*
G03X1973990I-403J-296D01*
G01X1969293Y2183500D02*
G03X1973990Y2181963I2600J0D01*
G01X1974100Y2165000D02*
G03X1968900I-2600J0D01*
X1974100I2600J0*
G01X1973401Y2227500D02*
G03X1968201I-2600J0D01*
X1973401I2600J0*
G01X1972177Y1856487D02*
G03X1967900Y1854500I-1677J-1987D01*
G01X1972177Y1856487D02*
G03X1972823I323J382D01*
G01X1977100Y1854500D02*
G03X1972823Y1856487I-2600J0D01*
G01Y1852513D02*
G03X1977100Y1854500I1677J1987D01*
G01X1972823Y1852513D02*
G03X1972177I-323J-382D01*
G01X1967900Y1854500D02*
G03X1972177Y1852513I2600J0D01*
G01X1972700Y2247000D02*
G03X1967500I-2600J0D01*
X1972700I2600J0*
G01X1968384Y2236748D02*
G03X1966900Y2234400I1116J-2348D01*
G01X1968384Y2236748D02*
G03X1968670Y2237200I-214J452D01*
X1968384Y2237652I-500J0*
G01X1966900Y2240000D02*
G03X1968384Y2237652I2600J-0D01*
G01X1966900Y2240000D02*
X1966900D01*
X1972100D02*
G03X1966900I-2600J0D01*
G01X1970616Y2237652D02*
G03X1972100Y2240000I-1116J2348D01*
G01X1970616Y2237652D02*
G03X1970330Y2237200I214J-452D01*
X1970616Y2236748I500J0*
G01X1972100Y2234400D02*
G03X1970616Y2236748I-2600J0D01*
G01X1972100Y2234400D02*
X1972100D01*
X1966900D02*
G03X1972100I2600J0D01*
G01X1967987Y2206593D02*
G03X1966604Y2204296I1217J-2297D01*
G01X1967987Y2206593D02*
G03X1968253Y2207035I-234J442D01*
X1967987Y2207476I-500J-0*
G01X1966604Y2209774D02*
G03X1967987Y2207476I2600J-0D01*
G01X1967284Y2211526D02*
G03X1966604Y2209774I1920J-1752D01*
G01X1967284Y2211526D02*
G03X1967415Y2211863I-369J337D01*
X1967332Y2212139I-500J0*
G01X1966900Y2213574D02*
G03X1967332Y2212139I2600J-0D01*
G01X1966900Y2213574D02*
X1966900D01*
X1968384Y2215922D02*
G03X1966900Y2213574I1116J-2348D01*
G01X1968384Y2215922D02*
G03X1968670Y2216374I-214J452D01*
X1968384Y2216825I-500J-0*
G01X1966900Y2219174D02*
G03X1968384Y2216825I2600J-0D01*
G01X1966900Y2219174D02*
X1966900D01*
X1972100D02*
G03X1966900I-2600J-0D01*
G01X1970616Y2216825D02*
G03X1972100Y2219174I-1116J2349D01*
G01X1970616Y2216825D02*
G03X1970330Y2216374I214J-451D01*
X1970616Y2215922I500J-0*
G01X1972100Y2213574D02*
G03X1970616Y2215922I-2600J-0D01*
G01X1972100Y2213574D02*
X1972100D01*
X1971421Y2211821D02*
G03X1972100Y2213574I-1921J1753D01*
G01X1971421Y2211821D02*
G03X1971290Y2211484I369J-337D01*
G01X1971290*
G03X1971373Y2211208I500J-0*
G01X1971794Y2210002D02*
G03X1971373Y2211208I-2590J-228D01*
G01X1971794Y2210002D02*
G03X1972174Y2209560I498J44D01*
G01X1974157Y2207035D02*
G03X1972174Y2209560I-2600J-0D01*
G01Y2204509D02*
G03X1974157Y2207035I-617J2526D01*
G01X1972174Y2204509D02*
G03X1971794Y2204067I118J-486D01*
G01X1966604Y2204296D02*
G03X1971794Y2204067I2600J-0D01*
G01X1970843Y2333257D02*
G03X1965643I-2600J-0D01*
X1970843I2600J-0*
G01X1970100Y2348000D02*
G03X1964900I-2600J0D01*
X1970100I2600J0*
G01X1969100Y2157500D02*
G03X1963900I-2600J0D01*
X1969100I2600J0*
G01X1966085Y2195363D02*
G03X1962400Y2193000I-1085J-2363D01*
G01X1966085Y2195363D02*
G03X1966794Y2195817I209J454D01*
X1966758Y2196004I-500J-0*
G01X1966569Y2196977D02*
G03X1966758Y2196004I2600J0D01*
G01X1970621Y2199134D02*
G03X1966569Y2196977I-1452J-2157D01*
G01X1970621Y2199134D02*
G03X1971400Y2199541I279J415D01*
G01X1976558Y2199964D02*
G03X1971400Y2199541I-2558J-464D01*
G01X1976558Y2199964D02*
G03X1976974Y2199559I492J89D01*
G01X1979180Y2196989D02*
G03X1976974Y2199559I-2600J0D01*
G01X1974022Y2196525D02*
G03X1979180Y2196989I2558J464D01*
G01X1974022Y2196525D02*
G03X1973606Y2196930I-492J-89D01*
G01X1972548Y2197344D02*
G03X1973606Y2196930I1452J2156D01*
G01X1972548Y2197344D02*
G03X1971768Y2196937I-280J-415D01*
G01X1968083Y2194615D02*
G03X1971768Y2196937I1086J2362D01*
G01X1968083Y2194615D02*
G03X1967375Y2194160I-208J-455D01*
X1967411Y2193973I500J0*
G01X1967600Y2193000D02*
G03X1967411Y2193973I-2600J-0D01*
G01X1962400Y2193000D02*
G03X1967600I2600J0D01*
G01X1967100Y2023500D02*
G03X1961900I-2600J0D01*
X1967100I2600J0*
G01X1965893Y2186432D02*
G03X1960693I-2600J-0D01*
X1965893I2600J-0*
G01X1965600Y2358000D02*
G03X1960400I-2600J0D01*
X1965600I2600J0*
G01X1965001Y2268376D02*
G03X1959801I-2600J0D01*
X1965001I2600J0*
G01X1963100Y2364500D02*
G03X1957900I-2600J0D01*
X1963100I2600J0*
G01Y2123000D02*
G03X1957900I-2600J0D01*
X1963100I2600J0*
G01X1962243Y2050143D02*
G03X1957043I-2600J0D01*
X1962243I2600J0*
G01X1962100Y2070500D02*
G03X1956900I-2600J0D01*
X1962100I2600J0*
G01X1959388Y1920098D02*
G03X1956900Y1917500I112J-2598D01*
G01X1959388Y1920098D02*
G03X1959858Y1920501I-21J499D01*
G01X1964965Y1920475D02*
G03X1959858Y1920501I-2556J-475D01*
G01X1964965Y1920475D02*
G03X1965383Y1920072I492J91D01*
G01X1967600Y1917500D02*
G03X1965383Y1920072I-2600J0D01*
G01X1962694Y1916300D02*
G03X1967600Y1917500I2306J1200D01*
G01X1962694Y1916300D02*
G03X1961806I-444J-231D01*
G01X1956900Y1917500D02*
G03X1961806Y1916300I2600J0D01*
G01X1962100Y1877500D02*
G03X1956900I-2600J0D01*
X1962100I2600J0*
G01X1961600Y2336000D02*
G03X1956400I-2600J0D01*
X1961600I2600J0*
G01X1957013Y2227177D02*
G03X1956400Y2225500I1987J-1677D01*
G01X1957013Y2227177D02*
G03X1957131Y2227500I-382J323D01*
X1957013Y2227823I-500J0*
G01X1956400Y2229500D02*
G03X1957013Y2227823I2600J0D01*
G01X1961600Y2229500D02*
G03X1956400I-2600J0D01*
G01X1960987Y2227823D02*
G03X1961600Y2229500I-1987J1677D01*
G01X1960987Y2227823D02*
G03X1960869Y2227500I382J-323D01*
X1960987Y2227177I500J0*
G01X1961600Y2225500D02*
G03X1960987Y2227177I-2600J0D01*
G01X1956400Y2225500D02*
G03X1961600I2600J0D01*
G01X1956946Y2213594D02*
G03X1956400Y2212000I2054J-1594D01*
G01X1956946Y2213594D02*
G03X1957051Y2213900I-395J306D01*
X1956946Y2214206I-500J0*
G01X1956400Y2215800D02*
G03X1956946Y2214206I2600J0D01*
G01X1961600Y2215800D02*
G03X1956400I-2600J0D01*
G01X1961054Y2214206D02*
G03X1961600Y2215800I-2054J1594D01*
G01X1961054Y2214206D02*
G03X1960949Y2213900I395J-306D01*
X1961054Y2213594I500J0*
G01X1961600Y2212000D02*
G03X1961054Y2213594I-2600J0D01*
G01X1956400Y2212000D02*
G03X1961600I2600J0D01*
G01X1957934Y1936853D02*
G03X1955900Y1934315I566J-2538D01*
G01X1957934Y1936853D02*
G03X1958322Y1937286I-109J488D01*
G01X1958431Y1937795D02*
G03X1958322Y1937286I2475J-795D01*
G01X1958431Y1937795D02*
G03X1958455Y1937948I-476J153D01*
X1958043Y1938441I-500J0*
G01X1955900Y1941000D02*
G03X1958043Y1938441I2600J0D01*
G01X1961100Y1941000D02*
G03X1955900I-2600J0D01*
G01X1961100D02*
X1961100D01*
X1960975Y1940205D02*
G03X1961100Y1941000I-2475J795D01*
G01X1960975Y1940205D02*
G03X1960951Y1940052I476J-153D01*
X1961363Y1939559I500J-0*
G01X1963506Y1937000D02*
G03X1961363Y1939559I-2600J0D01*
G01X1961472Y1934462D02*
G03X1963506Y1937000I-566J2538D01*
G01X1961472Y1934462D02*
G03X1961084Y1934029I109J-488D01*
G01X1955900Y1934315D02*
G03X1961084Y1934029I2600J-0D01*
G01X1956509Y1956177D02*
G03X1955896Y1954500I1987J-1677D01*
G01X1956509Y1956177D02*
G03X1956627Y1956500I-382J323D01*
X1956509Y1956823I-500J0*
G01X1955896Y1958500D02*
G03X1956509Y1956823I2600J0D01*
G01X1955896Y1958500D02*
X1955896D01*
X1956511Y1960180D02*
G03X1955896Y1958500I1985J-1680D01*
G01X1956511Y1960180D02*
G03X1956629Y1960503I-382J323D01*
X1956512Y1960825I-500J-0*
G01X1955900Y1962500D02*
G03X1956512Y1960825I2600J-0D01*
G01X1955900Y1962500D02*
X1955900D01*
X1961100D02*
G03X1955900I-2600J0D01*
G01X1961100D02*
X1961100D01*
X1960485Y1960820D02*
G03X1961100Y1962500I-1985J1680D01*
G01X1960485Y1960820D02*
G03X1960366Y1960497I381J-323D01*
X1960484Y1960175I500J0*
G01X1961096Y1958500D02*
G03X1960484Y1960175I-2600J0D01*
G01X1961096Y1958500D02*
X1961096D01*
X1960482Y1956823D02*
G03X1961096Y1958500I-1986J1677D01*
G01X1960482Y1956823D02*
G03X1960364Y1956500I382J-323D01*
X1960482Y1956177I500J0*
G01X1961096Y1954500D02*
G03X1960482Y1956177I-2600J0D01*
G01X1955896Y1954500D02*
G03X1961096I2600J0D01*
G01X1959100Y2058000D02*
G03X1953900I-2600J0D01*
X1959100I2600J0*
G01X1958600Y2251000D02*
G03X1953400I-2600J0D01*
G01X1958568Y2250591D02*
G03X1958600Y2251000I-2568J409D01*
G01X1958568Y2250591D02*
G03X1958561Y2250513I493J-78D01*
X1958890Y2250043I500J-0*
G01X1960601Y2247600D02*
G03X1958890Y2250043I-2600J0D01*
G01X1955401Y2247600D02*
G03X1960601I2600J0D01*
G01X1955433Y2248009D02*
G03X1955401Y2247600I2568J-409D01*
G01X1955433Y2248009D02*
G03X1955439Y2248087I-494J78D01*
X1955110Y2248557I-500J0*
G01X1953400Y2251000D02*
G03X1955110Y2248557I2600J0D01*
G01X1958600Y2138000D02*
G03X1953400I-2600J0D01*
X1958600I2600J0*
G01X1956623Y2263851D02*
G03X1951526Y2263126I-2497J-725D01*
G01X1956623Y2263851D02*
G03X1957084Y2263490I480J139D01*
G01X1959583Y2260892D02*
G03X1957084Y2263490I-2600J0D01*
G01X1954487Y2260168D02*
G03X1959583Y2260892I2496J724D01*
G01X1954487Y2260168D02*
G03X1954026Y2260528I-481J-140D01*
G01X1951526Y2263126D02*
G03X1954026Y2260528I2600J-0D01*
G01X1956300Y2039000D02*
G03X1951100I-2600J0D01*
X1956300I2600J0*
G01X1956100Y2239500D02*
G03X1950900I-2600J0D01*
G01X1956100D02*
X1956100D01*
Y2239468D02*
G03Y2239500I-2600J32D01*
G01Y2239468D02*
G03Y2239462I500J-6D01*
G01X1956100*
G03X1956987Y2239145I500J-0*
G01X1961600Y2237500D02*
G03X1956987Y2239145I-2600J0D01*
G01X1956400Y2237500D02*
G03X1961600I2600J0D01*
G01X1956400D02*
X1956400D01*
Y2237532D02*
G03Y2237500I2600J-32D01*
G01Y2237532D02*
G03Y2237538I-500J6D01*
G01X1956400*
G03X1955513Y2237855I-500J0*
G01X1950900Y2239500D02*
G03X1955513Y2237855I2600J0D01*
G01X1956100Y2144500D02*
G03X1950900I-2600J0D01*
X1956100I2600J0*
G01X1956809Y2397417D02*
G03X1948609I-4100J-0D01*
X1956809I4100J-0*
G01Y2379700D02*
G03X1948609I-4100J0D01*
X1956809I4100J0*
G01X1951600Y2447000D02*
G03X1946400I-2600J0D01*
X1951600I2600J0*
G01X1946513Y1936677D02*
G03X1945900Y1935000I1987J-1677D01*
G01X1946513Y1936677D02*
G03X1946631Y1937000I-382J323D01*
X1946513Y1937323I-500J0*
G01X1945900Y1939000D02*
G03X1946513Y1937323I2600J0D01*
G01Y1940677D02*
G03X1945900Y1939000I1987J-1677D01*
G01X1946513Y1940677D02*
G03X1946631Y1941000I-382J323D01*
X1946513Y1941323I-500J0*
G01X1945900Y1943000D02*
G03X1946513Y1941323I2600J0D01*
G01X1951100Y1943000D02*
G03X1945900I-2600J0D01*
G01X1950487Y1941323D02*
G03X1951100Y1943000I-1987J1677D01*
G01X1950487Y1941323D02*
G03X1950369Y1941000I382J-323D01*
X1950487Y1940677I500J0*
G01X1951100Y1939000D02*
G03X1950487Y1940677I-2600J0D01*
G01Y1937323D02*
G03X1951100Y1939000I-1987J1677D01*
G01X1950487Y1937323D02*
G03X1950369Y1937000I382J-323D01*
X1950487Y1936677I500J0*
G01X1951100Y1935000D02*
G03X1950487Y1936677I-2600J0D01*
G01X1945900Y1935000D02*
G03X1951100I2600J0D01*
G01X1949100Y2165000D02*
G03X1943900I-2600J0D01*
X1949100I2600J0*
G01X1945537Y1958947D02*
G03X1942688Y1956359I-249J-2588D01*
G01X1945537Y1958947D02*
G03X1946085Y1959444I48J497D01*
X1946055Y1959615I-500J0*
G01X1945900Y1960500D02*
G03X1946055Y1959615I2600J0D01*
G01X1951100Y1960500D02*
G03X1945900I-2600J0D01*
G01X1948250Y1957912D02*
G03X1951100Y1960500I250J2588D01*
G01X1948250Y1957912D02*
G03X1947702Y1957414I-48J-498D01*
X1947732Y1957244I500J0*
G01X1947888Y1956359D02*
G03X1947732Y1957244I-2600J-0D01*
G01X1947888Y1956359D02*
X1947888D01*
X1947807Y1955716D02*
G03X1947888Y1956359I-2519J643D01*
G01X1947807Y1955716D02*
G03X1947791Y1955593I484J-123D01*
X1948325Y1955094I500J-0*
G01X1951100Y1952500D02*
G03X1948325Y1955094I-2600J0D01*
G01X1945900Y1952500D02*
G03X1951100I2600J0D01*
G01X1945900D02*
X1945900D01*
X1945981Y1953142D02*
G03X1945900Y1952500I2519J-642D01*
G01X1945981Y1953142D02*
G03X1945996Y1953266I-485J124D01*
X1945462Y1953764I-500J-0*
G01X1942688Y1956359D02*
G03X1945462Y1953764I2600J-0D01*
G01X1941600Y2220000D02*
G03X1936400I-2600J0D01*
X1941600I2600J0*
G01Y2189000D02*
G03X1936400I-2600J0D01*
X1941600I2600J0*
G01X1942800Y2177500D02*
G03X1934600I-4100J0D01*
X1942800I4100J0*
G01Y2167500D02*
G03X1934600I-4100J0D01*
X1942800I4100J0*
G01Y2157500D02*
G03X1934600I-4100J0D01*
X1942800I4100J0*
G01Y2147500D02*
G03X1934600I-4100J0D01*
X1942800I4100J0*
G01Y2137500D02*
G03X1934600I-4100J0D01*
X1942800I4100J0*
G01X1939100Y2208500D02*
G03X1933900I-2600J0D01*
X1939100I2600J0*
G01X1938600Y2239500D02*
G03X1933400I-2600J0D01*
X1938600I2600J0*
G01X1938100Y2273500D02*
G03X1932900I-2600J0D01*
X1938100I2600J0*
G01X1934100Y1967500D02*
G03X1928900I-2600J0D01*
X1934100I2600J0*
G01X1928600Y2255000D02*
G03X1923400I-2600J0D01*
X1928600I2600J0*
G01X1927100Y2377000D02*
G03X1921900I-2600J0D01*
X1927100I2600J0*
G01X1924100Y1977500D02*
G03X1918900I-2600J0D01*
X1924100I2600J0*
G01X1920600Y2372500D02*
G03X1915400I-2600J0D01*
X1920600I2600J0*
G01X1913500Y2455100D02*
G03X1905300I-4100J0D01*
X1913500I4100J0*
G01Y2445100D02*
G03X1905300I-4100J0D01*
X1913500I4100J0*
G01Y2435100D02*
G03X1905300I-4100J0D01*
X1913500I4100J0*
G01Y2425100D02*
G03X1905300I-4100J0D01*
X1913500I4100J0*
G01Y2415100D02*
G03X1905300I-4100J0D01*
X1913500I4100J0*
G01Y2405100D02*
G03X1905300I-4100J0D01*
X1913500I4100J0*
G01Y2395100D02*
G03X1905300I-4100J0D01*
X1913500I4100J0*
G01Y2385100D02*
G03X1905300I-4100J0D01*
X1913500I4100J0*
G01Y2375100D02*
G03X1905300I-4100J0D01*
X1913500I4100J0*
G01Y2365100D02*
G03X1905300I-4100J0D01*
X1913500I4100J0*
G01Y2355100D02*
G03X1905300I-4100J0D01*
X1913500I4100J0*
G01Y2345100D02*
G03X1905300I-4100J0D01*
X1913500I4100J0*
G01Y2335100D02*
G03X1905300I-4100J0D01*
X1913500I4100J0*
G01Y2325100D02*
G03X1905300I-4100J0D01*
X1913500I4100J0*
G01Y2315100D02*
G03X1905300I-4100J0D01*
X1913500I4100J0*
G01Y2305100D02*
G03X1905300I-4100J0D01*
X1913500I4100J0*
G01Y2295100D02*
G03X1905300I-4100J0D01*
X1913500I4100J0*
G01Y2285100D02*
G03X1905300I-4100J0D01*
X1913500I4100J0*
G01Y2275100D02*
G03X1905300I-4100J0D01*
X1913500I4100J0*
G01Y2265100D02*
G03X1905300I-4100J0D01*
X1913500I4100J0*
G01Y2245100D02*
G03X1905300I-4100J0D01*
X1913500I4100J0*
G01Y2235100D02*
G03X1905300I-4100J0D01*
X1913500I4100J0*
G01Y2225100D02*
G03X1905300I-4100J0D01*
X1913500I4100J0*
G01Y2215100D02*
G03X1905300I-4100J0D01*
X1913500I4100J0*
G01Y2205100D02*
G03X1905300I-4100J0D01*
X1913500I4100J0*
G01Y2195100D02*
G03X1905300I-4100J0D01*
X1913500I4100J0*
G01Y2185100D02*
G03X1905300I-4100J0D01*
X1913500I4100J0*
G01Y2175100D02*
G03X1905300I-4100J0D01*
X1913500I4100J0*
G01Y2165100D02*
G03X1905300I-4100J0D01*
X1913500I4100J0*
G01Y2155100D02*
G03X1905300I-4100J0D01*
X1913500I4100J0*
G01Y2145100D02*
G03X1905300I-4100J0D01*
X1913500I4100J0*
G01Y2135100D02*
G03X1905300I-4100J0D01*
X1913500I4100J0*
G01Y2125100D02*
G03X1905300I-4100J0D01*
X1913500I4100J0*
G01Y2115100D02*
G03X1905300I-4100J0D01*
X1913500I4100J0*
G01Y2105100D02*
G03X1905300I-4100J0D01*
X1913500I4100J0*
G01Y2095100D02*
G03X1905300I-4100J0D01*
X1913500I4100J0*
G01Y2085100D02*
G03X1905300I-4100J0D01*
X1913500I4100J0*
G01Y2075100D02*
G03X1905300I-4100J0D01*
X1913500I4100J0*
G01Y2065100D02*
G03X1905300I-4100J0D01*
X1913500I4100J0*
G01Y2055100D02*
G03X1905300I-4100J0D01*
X1913500I4100J0*
G01Y2045100D02*
G03X1905300I-4100J0D01*
X1913500I4100J0*
G01Y2035100D02*
G03X1905300I-4100J0D01*
X1913500I4100J0*
G01Y2025100D02*
G03X1905300I-4100J0D01*
X1913500I4100J0*
G01Y2015100D02*
G03X1905300I-4100J0D01*
X1913500I4100J0*
G01Y2005100D02*
G03X1905300I-4100J0D01*
X1913500I4100J0*
G01Y1995100D02*
G03X1905300I-4100J0D01*
X1913500I4100J0*
G01Y1985100D02*
G03X1905300I-4100J0D01*
X1913500I4100J0*
G01Y1955100D02*
G03X1905300I-4100J0D01*
X1913500I4100J0*
G01Y1945100D02*
G03X1905300I-4100J0D01*
X1913500I4100J0*
G01Y1935100D02*
G03X1905300I-4100J0D01*
X1913500I4100J0*
G01Y1925100D02*
G03X1905300I-4100J0D01*
X1913500I4100J0*
G01Y1915100D02*
G03X1905300I-4100J0D01*
X1913500I4100J0*
G01Y1905100D02*
G03X1905300I-4100J0D01*
X1913500I4100J0*
G01Y1895100D02*
G03X1905300I-4100J0D01*
X1913500I4100J0*
G01Y1885100D02*
G03X1905300I-4100J0D01*
X1913500I4100J0*
G01X1902800Y2466899D02*
X2087900D01*
X1902800Y2465999D02*
X2087900D01*
X1902800Y2465099D02*
X2087900D01*
X1902800Y2464199D02*
X2087900D01*
X1902800Y2463299D02*
X2087900D01*
X1902800Y2462399D02*
X2087900D01*
X1902800Y2461499D02*
X2087900D01*
X1902800Y2460599D02*
X2087900D01*
X1902800Y2459699D02*
X2087900D01*
X1911169Y2458799D02*
X2087900D01*
X1912396Y2457899D02*
X2087900D01*
X1913034Y2456999D02*
X2087900D01*
X1913377Y2456099D02*
X2087900D01*
X1913499Y2455199D02*
X2087900D01*
X1913421Y2454299D02*
X2087900D01*
X1913130Y2453399D02*
X2087900D01*
X1912569Y2452499D02*
X2087900D01*
X1911533Y2451599D02*
X2087900D01*
X1902800Y2450699D02*
X2087900D01*
X1902800Y2449799D02*
X2087900D01*
X1950776Y2448899D02*
X2087900D01*
X1951401Y2447999D02*
X2087900D01*
X1951598Y2447099D02*
X2087900D01*
X1951473Y2446199D02*
X2087900D01*
X2021715Y2445299D02*
X2087900D01*
X2022692Y2444399D02*
X2087900D01*
X2023052Y2443499D02*
X2087900D01*
X2023069Y2442599D02*
X2087900D01*
X2022751Y2441699D02*
X2087900D01*
X2021884Y2440799D02*
X2087900D01*
X1902800Y2439899D02*
X2087900D01*
X1910669Y2438999D02*
X2087900D01*
X1912196Y2438099D02*
X2087900D01*
X1912922Y2437199D02*
X2087900D01*
X1913321Y2436299D02*
X2087900D01*
X1913489Y2435399D02*
X2087900D01*
X1913456Y2434499D02*
X2087900D01*
X1913215Y2433599D02*
X2087900D01*
X1912723Y2432699D02*
X2087900D01*
X1911831Y2431799D02*
X2087900D01*
X1902800Y2430899D02*
X2087900D01*
X1902800Y2429999D02*
X2087900D01*
X1910306Y2429099D02*
X2087900D01*
X1912085Y2428199D02*
X2087900D01*
X2052715Y2427299D02*
X2087900D01*
X2053692Y2426399D02*
X2087900D01*
X2054052Y2425499D02*
X2087900D01*
X2054069Y2424599D02*
X2087900D01*
X2053751Y2423699D02*
X2087900D01*
X2052884Y2422799D02*
X2087900D01*
X1911962Y2421899D02*
X2087900D01*
X1902800Y2420999D02*
X2087900D01*
X1902800Y2420099D02*
X2087900D01*
X1909504Y2419199D02*
X2087900D01*
X1911965Y2418299D02*
X2087900D01*
X2022003Y2417399D02*
X2087900D01*
X2023125Y2416499D02*
X2087900D01*
X2023530Y2415599D02*
X2087900D01*
X2023582Y2414699D02*
X2087900D01*
X2023306Y2413799D02*
X2087900D01*
X2022531Y2412899D02*
X2087900D01*
X1912082Y2411999D02*
X2087900D01*
X1910294Y2411099D02*
X2087900D01*
X1902800Y2410199D02*
X2087900D01*
X1902800Y2409299D02*
X2087900D01*
X1911835Y2408399D02*
X2087900D01*
X1912725Y2407499D02*
X2087900D01*
X1913216Y2406599D02*
X2087900D01*
X1913456Y2405699D02*
X2087900D01*
X1913489Y2404799D02*
X2087900D01*
X1913320Y2403899D02*
X2087900D01*
X1912921Y2402999D02*
X2087900D01*
X1912193Y2402099D02*
X2087900D01*
X1979883Y2401199D02*
X2087900D01*
X1981216Y2400299D02*
X2087900D01*
X1981889Y2399399D02*
X2087900D01*
X1982255Y2398499D02*
X2087900D01*
X2030535Y2397599D02*
X2087900D01*
X2031307Y2396699D02*
X2087900D01*
X2031583Y2395799D02*
X2087900D01*
X2031530Y2394899D02*
X2087900D01*
X2031123Y2393999D02*
X2087900D01*
X2029997Y2393099D02*
X2087900D01*
X1912297Y2392199D02*
X2087900D01*
X1910936Y2391299D02*
X2087900D01*
X1902800Y2390399D02*
X2087900D01*
X1902800Y2389499D02*
X2087900D01*
X2077535Y2388599D02*
X2087900D01*
X2078307Y2387699D02*
X2087900D01*
X2078583Y2386799D02*
X2087900D01*
X2078530Y2385899D02*
X2087900D01*
X2078123Y2384999D02*
X2087900D01*
X2076997Y2384099D02*
X2087900D01*
X2021710Y2383199D02*
X2087900D01*
X1981471Y2382299D02*
X2087900D01*
X1982032Y2381399D02*
X2087900D01*
X1982321Y2380499D02*
X2087900D01*
X1982399Y2379599D02*
X2087900D01*
X1982276Y2378699D02*
X2087900D01*
X1981932Y2377799D02*
X2087900D01*
X1981294Y2376899D02*
X2087900D01*
X1980064Y2375999D02*
X2087900D01*
X1926273Y2375099D02*
X2087900D01*
X1919968Y2374199D02*
X2087900D01*
X1920474Y2373299D02*
X2087900D01*
X1920598Y2372399D02*
X2087900D01*
X1920399Y2371499D02*
X2087900D01*
X1919773Y2370599D02*
X2087900D01*
X1902800Y2369699D02*
X2087900D01*
X1911169Y2368799D02*
X2087900D01*
X1912396Y2367899D02*
X2087900D01*
X1961219Y2366999D02*
X2087900D01*
X1962550Y2366099D02*
X2087900D01*
X2063276Y2358899D02*
X2087900D01*
X2063901Y2357999D02*
X2087900D01*
X2064098Y2357099D02*
X2087900D01*
X2063973Y2356199D02*
X2087900D01*
X2063466Y2355299D02*
X2087900D01*
X1982855Y2354399D02*
X2087900D01*
X2025219Y2353499D02*
X2087900D01*
X2026550Y2352599D02*
X2087900D01*
X2027004Y2351699D02*
X2087900D01*
X2027092Y2350799D02*
X2087900D01*
X2026855Y2349899D02*
X2087900D01*
X2026160Y2348999D02*
X2087900D01*
X1977497Y2348099D02*
X2087900D01*
X1969973Y2347199D02*
X2087900D01*
X1986377Y2346299D02*
X2087900D01*
X1986940Y2345399D02*
X2087900D01*
X1987100Y2344499D02*
X2087900D01*
X2067569Y2343599D02*
X2087900D01*
X2068796Y2342699D02*
X2087900D01*
X2069434Y2341799D02*
X2087900D01*
X2069777Y2340899D02*
X2087900D01*
X2069899Y2339999D02*
X2087900D01*
X2069821Y2339099D02*
X2087900D01*
X2069530Y2338199D02*
X2087900D01*
X2068969Y2337299D02*
X2087900D01*
X2067933Y2336399D02*
X2087900D01*
X1969560Y2335499D02*
X2087900D01*
X1970470Y2334599D02*
X2087900D01*
X2067343Y2333699D02*
X2087900D01*
X2068700Y2332799D02*
X2087900D01*
X2069380Y2331899D02*
X2087900D01*
X2069750Y2330999D02*
X2087900D01*
X2069895Y2330099D02*
X2087900D01*
X2069840Y2329199D02*
X2087900D01*
X2069574Y2328299D02*
X2087900D01*
X2069049Y2327399D02*
X2087900D01*
X2068089Y2326499D02*
X2087900D01*
X1977550Y2325599D02*
X2087900D01*
X1978004Y2324699D02*
X2087900D01*
X2067069Y2323799D02*
X2087900D01*
X2068596Y2322899D02*
X2087900D01*
X2069322Y2321999D02*
X2087900D01*
X2069721Y2321099D02*
X2087900D01*
X2069889Y2320199D02*
X2087900D01*
X2069856Y2319299D02*
X2087900D01*
X2069615Y2318399D02*
X2087900D01*
X2069123Y2317499D02*
X2087900D01*
X2068231Y2316599D02*
X2087900D01*
X1976407Y2315699D02*
X2087900D01*
X1976405Y2314799D02*
X2087900D01*
X2066706Y2313899D02*
X2087900D01*
X2068485Y2312999D02*
X2087900D01*
X2069261Y2312099D02*
X2087900D01*
X2069689Y2311199D02*
X2087900D01*
X2069881Y2310299D02*
X2087900D01*
X2069869Y2309399D02*
X2087900D01*
X2069653Y2308499D02*
X2087900D01*
X2069193Y2307599D02*
X2087900D01*
X2068362Y2306699D02*
X2087900D01*
X1981039Y2305799D02*
X2087900D01*
X1981055Y2304899D02*
X2087900D01*
X2069436Y2303999D02*
X2087900D01*
X2069900Y2303099D02*
X2087900D01*
X2069900Y2302199D02*
X2087900D01*
X2069900Y2301299D02*
X2087900D01*
X2069900Y2300399D02*
X2087900D01*
X2069900Y2299499D02*
X2087900D01*
X2069900Y2298599D02*
X2087900D01*
X2069900Y2297699D02*
X2087900D01*
X2069900Y2296799D02*
X2087900D01*
X2069698Y2295899D02*
X2087900D01*
X1980889Y2294999D02*
X2087900D01*
X1980728Y2294099D02*
X2087900D01*
X1980164Y2293199D02*
X2087900D01*
X1912394Y2292299D02*
X2087900D01*
X1983003Y2291399D02*
X2087900D01*
X1984125Y2290499D02*
X2087900D01*
X1984530Y2289599D02*
X2087900D01*
X1984798Y2288699D02*
X2087900D01*
X1986877Y2287799D02*
X2087900D01*
X1987440Y2286899D02*
X2087900D01*
X1987600Y2285999D02*
X2087900D01*
X1997083Y2285099D02*
X2087900D01*
X1998968Y2284199D02*
X2087900D01*
X1999474Y2283299D02*
X2087900D01*
X1999598Y2282399D02*
X2087900D01*
X1999399Y2281499D02*
X2087900D01*
X1998773Y2280599D02*
X2087900D01*
X2024388Y2279699D02*
X2087900D01*
X2025252Y2278799D02*
X2087900D01*
X2025569Y2277899D02*
X2087900D01*
X2025551Y2276999D02*
X2087900D01*
X2025190Y2276099D02*
X2087900D01*
X2071388Y2275199D02*
X2087900D01*
X2072252Y2274299D02*
X2087900D01*
X2072569Y2273399D02*
X2087900D01*
X2072551Y2272499D02*
X2087900D01*
X2072190Y2271599D02*
X2087900D01*
X2071210Y2270699D02*
X2087900D01*
X2050252Y2269799D02*
X2087900D01*
X2050569Y2268899D02*
X2087900D01*
X2050551Y2267999D02*
X2087900D01*
X2050190Y2267099D02*
X2087900D01*
X2049210Y2266199D02*
X2087900D01*
X2054715Y2265299D02*
X2087900D01*
X2055692Y2264399D02*
X2087900D01*
X2056052Y2263499D02*
X2087900D01*
X2056069Y2262599D02*
X2087900D01*
X2055751Y2261699D02*
X2087900D01*
X2054884Y2260799D02*
X2087900D01*
X1988206Y2259899D02*
X2087900D01*
X1958765Y2258999D02*
X2087900D01*
X1912196Y2258099D02*
X2087900D01*
X1927388Y2257199D02*
X2087900D01*
X1986523Y2256299D02*
X2087900D01*
X2044503Y2255399D02*
X2087900D01*
X2045625Y2254499D02*
X2087900D01*
X2046030Y2253599D02*
X2087900D01*
X2046082Y2252699D02*
X2087900D01*
X2045806Y2251799D02*
X2087900D01*
X2045031Y2250899D02*
X2087900D01*
X1998653Y2249999D02*
X2087900D01*
X1999460Y2249099D02*
X2087900D01*
X1999752Y2248199D02*
X2087900D01*
X1999712Y2247299D02*
X2087900D01*
X1999324Y2246399D02*
X2087900D01*
X2045163Y2245499D02*
X2087900D01*
X2071535Y2244599D02*
X2087900D01*
X2072307Y2243699D02*
X2087900D01*
X2072583Y2242799D02*
X2087900D01*
X2072530Y2241899D02*
X2087900D01*
X2072123Y2240999D02*
X2087900D01*
X2070997Y2240099D02*
X2087900D01*
X2016854Y2239199D02*
X2087900D01*
X2017542Y2238299D02*
X2087900D01*
X2055276Y2237399D02*
X2087900D01*
X2055901Y2236499D02*
X2087900D01*
X2056098Y2235599D02*
X2087900D01*
X2055973Y2234699D02*
X2087900D01*
X2055466Y2233799D02*
X2087900D01*
X2044030Y2232899D02*
X2087900D01*
X2043623Y2231999D02*
X2087900D01*
X2042497Y2231099D02*
X2087900D01*
X2019997Y2230199D02*
X2087900D01*
X2019947Y2229299D02*
X2087900D01*
X2019837Y2228399D02*
X2087900D01*
X2055163Y2227499D02*
X2087900D01*
X2055856Y2226599D02*
X2087900D01*
X2056092Y2225699D02*
X2087900D01*
X2056004Y2224799D02*
X2087900D01*
X2055548Y2223899D02*
X2087900D01*
X2054210Y2222999D02*
X2087900D01*
X2017095Y2222099D02*
X2087900D01*
X2016322Y2221199D02*
X2087900D01*
X2015394Y2220299D02*
X2087900D01*
X2055276Y2219399D02*
X2087900D01*
X2055901Y2218499D02*
X2087900D01*
X2056098Y2217599D02*
X2087900D01*
X2072888Y2216699D02*
X2087900D01*
X2073752Y2215799D02*
X2087900D01*
X2074069Y2214899D02*
X2087900D01*
X2074051Y2213999D02*
X2087900D01*
X2073690Y2213099D02*
X2087900D01*
X2072710Y2212199D02*
X2087900D01*
X2071903Y2211299D02*
X2087900D01*
X2072440Y2210399D02*
X2087900D01*
X2072600Y2209499D02*
X2087900D01*
X2072439Y2208599D02*
X2087900D01*
X2071875Y2207699D02*
X2087900D01*
X2058467Y2206799D02*
X2087900D01*
X2055754Y2205899D02*
X2087900D01*
X2055692Y2204999D02*
X2087900D01*
X2056052Y2204099D02*
X2087900D01*
X2056069Y2203199D02*
X2087900D01*
X2055751Y2202299D02*
X2087900D01*
X2055992Y2201399D02*
X2087900D01*
X2056352Y2200499D02*
X2087900D01*
X2056369Y2199599D02*
X2087900D01*
X2056051Y2198699D02*
X2087900D01*
X2055184Y2197799D02*
X2087900D01*
X2037969Y2196899D02*
X2087900D01*
X2038495Y2195999D02*
X2087900D01*
X2038632Y2195099D02*
X2087900D01*
X2038448Y2194199D02*
X2087900D01*
X2037845Y2193299D02*
X2087900D01*
X2028355Y2192399D02*
X2087900D01*
X2027660Y2191499D02*
X2087900D01*
X1965997Y2190599D02*
X2087900D01*
X1941504Y2189699D02*
X2087900D01*
X1964369Y2188799D02*
X2087900D01*
X1965440Y2187899D02*
X2087900D01*
X1965831Y2186999D02*
X2087900D01*
X2033583Y2186099D02*
X2087900D01*
X2039745Y2185199D02*
X2087900D01*
X2040610Y2184299D02*
X2087900D01*
X2040926Y2183399D02*
X2087900D01*
X2040908Y2182499D02*
X2087900D01*
X2040547Y2181599D02*
X2087900D01*
X2039567Y2180699D02*
X2087900D01*
X1990459Y2179799D02*
X2087900D01*
X1942554Y2178899D02*
X2087900D01*
X1942770Y2177999D02*
X2087900D01*
X1942780Y2177099D02*
X2087900D01*
X1942588Y2176199D02*
X2087900D01*
X1942159Y2175299D02*
X2087900D01*
X2079369Y2174399D02*
X2087900D01*
X2080596Y2173499D02*
X2087900D01*
X2081234Y2172599D02*
X2087900D01*
X2081577Y2171699D02*
X2087900D01*
X2081699Y2170799D02*
X2087900D01*
X2081621Y2169899D02*
X2087900D01*
X2081330Y2168999D02*
X2087900D01*
X2080769Y2168099D02*
X2087900D01*
X2079733Y2167199D02*
X2087900D01*
X2008958Y2166299D02*
X2087900D01*
X2031503Y2165399D02*
X2087900D01*
X2032625Y2164499D02*
X2087900D01*
X2033030Y2163599D02*
X2087900D01*
X2033082Y2162699D02*
X2087900D01*
X2032806Y2161799D02*
X2087900D01*
X2032031Y2160899D02*
X2087900D01*
X1967219Y2159999D02*
X2087900D01*
X1968550Y2159099D02*
X2087900D01*
X1969004Y2158199D02*
X2087900D01*
X1969092Y2157299D02*
X2087900D01*
X1968855Y2156399D02*
X2087900D01*
X1968160Y2155499D02*
X2087900D01*
X1941597Y2154599D02*
X2087900D01*
X1940236Y2153699D02*
X2087900D01*
X1912793Y2152799D02*
X2087900D01*
X1911962Y2151899D02*
X2087900D01*
X1940838Y2150999D02*
X2087900D01*
X1941871Y2150099D02*
X2087900D01*
X1942432Y2149199D02*
X2087900D01*
X1942721Y2148299D02*
X2087900D01*
X1942799Y2147399D02*
X2087900D01*
X1955163Y2146499D02*
X2087900D01*
X1955856Y2145599D02*
X2087900D01*
X2078506Y2144699D02*
X2087900D01*
X2080285Y2143799D02*
X2087900D01*
X2081061Y2142899D02*
X2087900D01*
X2081489Y2141999D02*
X2087900D01*
X2081681Y2141099D02*
X2087900D01*
X2081669Y2140199D02*
X2087900D01*
X2081453Y2139299D02*
X2087900D01*
X2080993Y2138399D02*
X2087900D01*
X2080162Y2137499D02*
X2087900D01*
X2077500Y2136599D02*
X2087900D01*
X2077092Y2135699D02*
X2087900D01*
X2077004Y2134799D02*
X2087900D01*
X2076548Y2133899D02*
X2087900D01*
X2075210Y2132999D02*
X2087900D01*
X1912193Y2132099D02*
X2087900D01*
X1910661Y2131199D02*
X2087900D01*
X1902800Y2130299D02*
X2087900D01*
X2082669Y2129399D02*
X2087900D01*
X2084196Y2128499D02*
X2087900D01*
X2084922Y2127599D02*
X2087900D01*
X2085321Y2126699D02*
X2087900D01*
X2085489Y2125799D02*
X2087900D01*
X2085456Y2124899D02*
X2087900D01*
X2085215Y2123999D02*
X2087900D01*
X2084723Y2123099D02*
X2087900D01*
X2083831Y2122199D02*
X2087900D01*
X2014319Y2121299D02*
X2087900D01*
X1982030Y2120399D02*
X2087900D01*
X2082306Y2119499D02*
X2087900D01*
X2084085Y2118599D02*
X2087900D01*
X2084861Y2117699D02*
X2087900D01*
X2085289Y2116799D02*
X2087900D01*
X2085481Y2115899D02*
X2087900D01*
X2085469Y2114999D02*
X2087900D01*
X2085253Y2114099D02*
X2087900D01*
X2084793Y2113199D02*
X2087900D01*
X2083962Y2112299D02*
X2087900D01*
X2075355Y2111399D02*
X2087900D01*
X2074660Y2110499D02*
X2087900D01*
X2081504Y2109599D02*
X2087900D01*
X2083965Y2108699D02*
X2087900D01*
X2084795Y2107799D02*
X2087900D01*
X2085254Y2106899D02*
X2087900D01*
X2085470Y2105999D02*
X2087900D01*
X2085480Y2105099D02*
X2087900D01*
X2085288Y2104199D02*
X2087900D01*
X2084859Y2103299D02*
X2087900D01*
X2084082Y2102399D02*
X2087900D01*
X2082294Y2101499D02*
X2087900D01*
X1902800Y2100599D02*
X2087900D01*
X1902800Y2099699D02*
X2087900D01*
X2083835Y2098799D02*
X2087900D01*
X2084725Y2097899D02*
X2087900D01*
X2085216Y2096999D02*
X2087900D01*
X2085456Y2096099D02*
X2087900D01*
X2085489Y2095199D02*
X2087900D01*
X2085320Y2094299D02*
X2087900D01*
X2084921Y2093399D02*
X2087900D01*
X2084193Y2092499D02*
X2087900D01*
X2082661Y2091599D02*
X2087900D01*
X1991582Y2090699D02*
X2087900D01*
X1991306Y2089799D02*
X2087900D01*
X2083693Y2088899D02*
X2087900D01*
X2084651Y2087999D02*
X2087900D01*
X2085175Y2087099D02*
X2087900D01*
X2085440Y2086199D02*
X2087900D01*
X2085495Y2085299D02*
X2087900D01*
X2085349Y2084399D02*
X2087900D01*
X2084978Y2083499D02*
X2087900D01*
X2084297Y2082599D02*
X2087900D01*
X2082936Y2081699D02*
X2087900D01*
X1902800Y2080799D02*
X2087900D01*
X1902800Y2079899D02*
X2087900D01*
X2083538Y2078999D02*
X2087900D01*
X2084571Y2078099D02*
X2087900D01*
X2085132Y2077199D02*
X2087900D01*
X2085421Y2076299D02*
X2087900D01*
X2085499Y2075399D02*
X2087900D01*
X2085376Y2074499D02*
X2087900D01*
X2085032Y2073599D02*
X2087900D01*
X2084394Y2072699D02*
X2087900D01*
X2083164Y2071799D02*
X2087900D01*
X1977940Y2070899D02*
X2087900D01*
X1978100Y2069999D02*
X2087900D01*
X2083365Y2069099D02*
X2087900D01*
X2084487Y2068199D02*
X2087900D01*
X2085084Y2067299D02*
X2087900D01*
X2085400Y2066399D02*
X2087900D01*
X2085500Y2065499D02*
X2087900D01*
X2085400Y2064599D02*
X2087900D01*
X2085083Y2063699D02*
X2087900D01*
X2084484Y2062799D02*
X2087900D01*
X2083360Y2061899D02*
X2087900D01*
X2047133Y2060999D02*
X2087900D01*
X2047909Y2060099D02*
X2087900D01*
X2083169Y2059199D02*
X2087900D01*
X2084396Y2058299D02*
X2087900D01*
X2085034Y2057399D02*
X2087900D01*
X2085377Y2056499D02*
X2087900D01*
X2085499Y2055599D02*
X2087900D01*
X2085421Y2054699D02*
X2087900D01*
X2085130Y2053799D02*
X2087900D01*
X2084569Y2052899D02*
X2087900D01*
X2083533Y2051999D02*
X2087900D01*
X1962061Y2051099D02*
X2087900D01*
X1976888Y2050199D02*
X2087900D01*
X2082943Y2049299D02*
X2087900D01*
X2084300Y2048399D02*
X2087900D01*
X2084980Y2047499D02*
X2087900D01*
X2085350Y2046599D02*
X2087900D01*
X2085495Y2045699D02*
X2087900D01*
X2085440Y2044799D02*
X2087900D01*
X2085174Y2043899D02*
X2087900D01*
X2084649Y2042999D02*
X2087900D01*
X2083689Y2042099D02*
X2087900D01*
X2049975Y2041199D02*
X2087900D01*
X2049466Y2040299D02*
X2087900D01*
X2082669Y2039399D02*
X2087900D01*
X2084196Y2038499D02*
X2087900D01*
X2084922Y2037599D02*
X2087900D01*
X2085321Y2036699D02*
X2087900D01*
X2085489Y2035799D02*
X2087900D01*
X2085456Y2034899D02*
X2087900D01*
X2085215Y2033999D02*
X2087900D01*
X2084723Y2033099D02*
X2087900D01*
X2083831Y2032199D02*
X2087900D01*
X2021974Y2031299D02*
X2087900D01*
X2022098Y2030399D02*
X2087900D01*
X2021899Y2029499D02*
X2087900D01*
X2021273Y2028599D02*
X2087900D01*
X1912571Y2027699D02*
X2087900D01*
X2077377Y2026799D02*
X2087900D01*
X2077940Y2025899D02*
X2087900D01*
X2078100Y2024999D02*
X2087900D01*
X2077939Y2024099D02*
X2087900D01*
X2077375Y2023199D02*
X2087900D01*
X1986306Y2022299D02*
X2087900D01*
X1985531Y2021399D02*
X2087900D01*
X1902800Y2020499D02*
X2087900D01*
X1902800Y2019599D02*
X2087900D01*
X1911365Y2018699D02*
X2087900D01*
X1912487Y2017799D02*
X2087900D01*
X1913084Y2016899D02*
X2087900D01*
X2077266Y2015999D02*
X2087900D01*
X2078504Y2015099D02*
X2087900D01*
X2079145Y2014199D02*
X2087900D01*
X2079491Y2013299D02*
X2087900D01*
X2079615Y2012399D02*
X2087900D01*
X2079539Y2011499D02*
X2087900D01*
X2079251Y2010599D02*
X2087900D01*
X2078693Y2009699D02*
X2087900D01*
X2077665Y2008799D02*
X2087900D01*
X1912396Y2007899D02*
X2087900D01*
X1913034Y2006999D02*
X2087900D01*
X2036083Y2006099D02*
X2087900D01*
X2037968Y2005199D02*
X2087900D01*
X2038474Y2004299D02*
X2087900D01*
X2038598Y2003399D02*
X2087900D01*
X2038399Y2002499D02*
X2087900D01*
X2037773Y2001599D02*
X2087900D01*
X1902800Y2000699D02*
X2087900D01*
X1902800Y1999799D02*
X2087900D01*
X1910943Y1998899D02*
X2087900D01*
X1912300Y1997999D02*
X2087900D01*
X1912980Y1997099D02*
X2087900D01*
X1913350Y1996199D02*
X2087900D01*
X1913495Y1995299D02*
X2087900D01*
X1913440Y1994399D02*
X2087900D01*
X2079219Y1993499D02*
X2087900D01*
X2080550Y1992599D02*
X2087900D01*
X2081004Y1991699D02*
X2087900D01*
X2081092Y1990799D02*
X2087900D01*
X2080855Y1989899D02*
X2087900D01*
X2080160Y1988999D02*
X2087900D01*
X2079374Y1988099D02*
X2087900D01*
X2079586Y1987199D02*
X2087900D01*
X2079597Y1986299D02*
X2087900D01*
X2079405Y1985399D02*
X2087900D01*
X2078975Y1984499D02*
X2087900D01*
X2078198Y1983599D02*
X2087900D01*
X2076411Y1982699D02*
X2087900D01*
X2038252Y1981799D02*
X2087900D01*
X2038569Y1980899D02*
X2087900D01*
X2038551Y1979999D02*
X2087900D01*
X2038190Y1979099D02*
X2087900D01*
X2037210Y1978199D02*
X2087900D01*
X1990877Y1977299D02*
X2087900D01*
X1991440Y1976399D02*
X2087900D01*
X1991600Y1975499D02*
X2087900D01*
X1991439Y1974599D02*
X2087900D01*
X1990875Y1973699D02*
X2087900D01*
X1976075Y1972799D02*
X2087900D01*
X1911962Y1971899D02*
X2087900D01*
X1907607Y1970999D02*
X2087900D01*
X2029169Y1970099D02*
X2087900D01*
X2030396Y1969199D02*
X2087900D01*
X2031034Y1968299D02*
X2087900D01*
X2031377Y1967399D02*
X2087900D01*
X2078135Y1966499D02*
X2087900D01*
X2079025Y1965599D02*
X2087900D01*
X2079516Y1964699D02*
X2087900D01*
X2079756Y1963799D02*
X2087900D01*
X2079789Y1962899D02*
X2087900D01*
X2079620Y1961999D02*
X2087900D01*
X2079221Y1961099D02*
X2087900D01*
X2078493Y1960199D02*
X2087900D01*
X2076961Y1959299D02*
X2087900D01*
X2005031Y1958399D02*
X2087900D01*
X2005550Y1952099D02*
X2087900D01*
X2006004Y1951199D02*
X2087900D01*
X2006092Y1950299D02*
X2087900D01*
X2005855Y1949399D02*
X2087900D01*
X2005160Y1948499D02*
X2087900D01*
X1912651Y1947599D02*
X2087900D01*
X2052888Y1946699D02*
X2087900D01*
X2053752Y1945799D02*
X2087900D01*
X2054069Y1944899D02*
X2087900D01*
X2054051Y1943999D02*
X2087900D01*
X2053690Y1943099D02*
X2087900D01*
X2052710Y1942199D02*
X2087900D01*
X2077489Y1941299D02*
X2087900D01*
X2078705Y1940399D02*
X2087900D01*
X2079339Y1939499D02*
X2087900D01*
X2079679Y1938599D02*
X2087900D01*
X2079799Y1937699D02*
X2087900D01*
X2079719Y1936799D02*
X2087900D01*
X2079426Y1935899D02*
X2087900D01*
X2078861Y1934999D02*
X2087900D01*
X2077818Y1934099D02*
X2087900D01*
X2005739Y1933199D02*
X2087900D01*
X1988977Y1932299D02*
X2087900D01*
X1989540Y1931399D02*
X2087900D01*
X1989700Y1930499D02*
X2087900D01*
X1989539Y1929599D02*
X2087900D01*
X1988975Y1928699D02*
X2087900D01*
X1977691Y1927799D02*
X2087900D01*
X1913084Y1926899D02*
X2087900D01*
X1913400Y1925999D02*
X2087900D01*
X1913500Y1925099D02*
X2087900D01*
X1913400Y1924199D02*
X2087900D01*
X1913083Y1923299D02*
X2087900D01*
X1987503Y1922399D02*
X2087900D01*
X2024163Y1921499D02*
X2087900D01*
X2024856Y1920599D02*
X2087900D01*
X2029835Y1919699D02*
X2087900D01*
X2030725Y1918799D02*
X2087900D01*
X2031216Y1917899D02*
X2087900D01*
X2031456Y1916999D02*
X2087900D01*
X2031489Y1916099D02*
X2087900D01*
X2031320Y1915199D02*
X2087900D01*
X2030921Y1914299D02*
X2087900D01*
X2030193Y1913399D02*
X2087900D01*
X2028661Y1912499D02*
X2087900D01*
X1911533Y1911599D02*
X2087900D01*
X1902800Y1910699D02*
X2087900D01*
X2000215Y1909799D02*
X2087900D01*
X2001192Y1908899D02*
X2087900D01*
X2069599Y1907999D02*
X2087900D01*
X2071125Y1907099D02*
X2087900D01*
X2071725Y1906199D02*
X2087900D01*
X2071975Y1905299D02*
X2087900D01*
X2071960Y1904399D02*
X2087900D01*
X2071677Y1903499D02*
X2087900D01*
X2071069Y1902599D02*
X2087900D01*
X2071447Y1901699D02*
X2087900D01*
X2071871Y1900799D02*
X2087900D01*
X2072000Y1899899D02*
X2087900D01*
X2071870Y1898999D02*
X2087900D01*
X2071445Y1898099D02*
X2087900D01*
X2071070Y1897199D02*
X2087900D01*
X2071678Y1896299D02*
X2087900D01*
X2071961Y1895399D02*
X2087900D01*
X2071975Y1894499D02*
X2087900D01*
X2071723Y1893599D02*
X2087900D01*
X2071127Y1892699D02*
X2087900D01*
X2071376Y1891799D02*
X2087900D01*
X2071840Y1890899D02*
X2087900D01*
X2071998Y1889999D02*
X2087900D01*
X2071898Y1889099D02*
X2087900D01*
X2071510Y1888199D02*
X2087900D01*
X2071038Y1887299D02*
X2087900D01*
X2071627Y1886399D02*
X2087900D01*
X2071943Y1885499D02*
X2087900D01*
X2071986Y1884599D02*
X2087900D01*
X2071766Y1883699D02*
X2087900D01*
X2071213Y1882799D02*
X2087900D01*
X2069910Y1881899D02*
X2087900D01*
X2045163Y1880999D02*
X2087900D01*
X2045856Y1880099D02*
X2087900D01*
X2046092Y1879199D02*
X2087900D01*
X2046004Y1878299D02*
X2087900D01*
X1987752Y2359799D02*
X2087860D01*
X1963004Y2365199D02*
X2087858D01*
X2086719Y1957499D02*
X2087823D01*
X2060503Y1877399D02*
X2087497D01*
X1903264Y2467799D02*
X2087436D01*
X2074569Y1872899D02*
X2086806D01*
X1986888Y2360699D02*
X2086625D01*
X1963092Y2364299D02*
X2086623D01*
X2061625Y1876499D02*
X2086375D01*
X2074252Y1873799D02*
X2086194D01*
X1911533Y2361599D02*
X2086061D01*
X1962855Y2363399D02*
X2086060D01*
X2062030Y1875599D02*
X2085970D01*
X2073388Y1874699D02*
X2085918D01*
X1962160Y2362499D02*
X2085900D01*
X2023219Y1957499D02*
X2085281D01*
X2024160Y1952999D02*
X2084340D01*
X2024550Y1956599D02*
X2083950D01*
X2024855Y1953899D02*
X2083645D01*
X2025004Y1955699D02*
X2083496D01*
X2025092Y1954799D02*
X2083408D01*
X2058939Y2109599D02*
X2081296D01*
X2052294Y2101499D02*
X2080506D01*
X2052306Y2119499D02*
X2080494D01*
X2052661Y2091599D02*
X2080139D01*
X2052669Y2129399D02*
X2080131D01*
X2052669Y2039399D02*
X2080131D01*
X2052936Y2081699D02*
X2079864D01*
X2052943Y2049299D02*
X2079857D01*
X2053164Y2071799D02*
X2079636D01*
X2053169Y2059199D02*
X2079631D01*
X2053360Y2061899D02*
X2079440D01*
X2053365Y2069099D02*
X2079435D01*
X2053533Y2051999D02*
X2079267D01*
X2053538Y2078999D02*
X2079262D01*
X2053689Y2042099D02*
X2079111D01*
X2053693Y2088899D02*
X2079107D01*
X2053831Y2122199D02*
X2078969D01*
X2053831Y2032199D02*
X2078969D01*
X2053835Y2098799D02*
X2078965D01*
X2075592Y2112299D02*
X2078838D01*
X2058375Y2108699D02*
X2078835D01*
X2054082Y2102399D02*
X2078718D01*
X2054085Y2118599D02*
X2078715D01*
X2054193Y2092499D02*
X2078607D01*
X2054196Y2128499D02*
X2078604D01*
X2054196Y2038499D02*
X2078604D01*
X2054297Y2082599D02*
X2078503D01*
X2054300Y2048399D02*
X2078500D01*
X2054394Y2072699D02*
X2078406D01*
X2054396Y2058299D02*
X2078404D01*
X2054484Y2062799D02*
X2078316D01*
X2054487Y2068199D02*
X2078313D01*
X2054569Y2052899D02*
X2078231D01*
X2054571Y2078099D02*
X2078229D01*
X2054649Y2042999D02*
X2078151D01*
X2054651Y2087999D02*
X2078149D01*
X2054723Y2123099D02*
X2078077D01*
X2054723Y2033099D02*
X2078077D01*
X2054725Y2097899D02*
X2078075D01*
X2075504Y2113199D02*
X2078007D01*
X2055072Y2107799D02*
X2078005D01*
X2054859Y2103299D02*
X2077941D01*
X2054861Y2117699D02*
X2077939D01*
X2054921Y2093399D02*
X2077879D01*
X2054922Y2127599D02*
X2077878D01*
X2054922Y2037599D02*
X2077878D01*
X2054978Y2083499D02*
X2077822D01*
X2054980Y2047499D02*
X2077820D01*
X2037663Y1993499D02*
X2077781D01*
X2055032Y2073599D02*
X2077768D01*
X2055034Y2057399D02*
X2077766D01*
X2055083Y2063699D02*
X2077717D01*
X2055084Y2067299D02*
X2077716D01*
X2055130Y2053799D02*
X2077670D01*
X2055132Y2077199D02*
X2077668D01*
X2055174Y2043899D02*
X2077626D01*
X2055175Y2087099D02*
X2077625D01*
X2055215Y2123999D02*
X2077585D01*
X2055215Y2033999D02*
X2077585D01*
X2055216Y2096999D02*
X2077584D01*
X2075050Y2114099D02*
X2077547D01*
X2055254Y2106899D02*
X2077546D01*
X2055288Y2104199D02*
X2077512D01*
X2055289Y2116799D02*
X2077511D01*
X2055320Y2094299D02*
X2077480D01*
X2055321Y2126699D02*
X2077479D01*
X2055321Y2036699D02*
X2077479D01*
X2055349Y2084399D02*
X2077451D01*
X2055350Y2046599D02*
X2077450D01*
X2055376Y2074499D02*
X2077424D01*
X2055377Y2056499D02*
X2077423D01*
X2055400Y2064599D02*
X2077400D01*
X2055400Y2066399D02*
X2077400D01*
X2055421Y2054699D02*
X2077379D01*
X2055421Y2076299D02*
X2077379D01*
X2055440Y2044799D02*
X2077360D01*
X2055440Y2086199D02*
X2077360D01*
X2055456Y2124899D02*
X2077344D01*
X2055456Y2034899D02*
X2077344D01*
X2055456Y2096099D02*
X2077344D01*
X2073719Y2114999D02*
X2077331D01*
X2055470Y2105999D02*
X2077330D01*
X2055480Y2105099D02*
X2077320D01*
X2055481Y2115899D02*
X2077319D01*
X2055489Y2095199D02*
X2077311D01*
X2055489Y2125799D02*
X2077311D01*
X2055489Y2035799D02*
X2077311D01*
X2055495Y2085299D02*
X2077305D01*
X2055495Y2045699D02*
X2077305D01*
X2055499Y2075399D02*
X2077301D01*
X2055499Y2055599D02*
X2077301D01*
X2055500Y2065499D02*
X2077300D01*
X2068506Y2144699D02*
X2076694D01*
X2038356Y1992599D02*
X2076450D01*
X2038592Y1991699D02*
X2075996D01*
X2069369Y2174399D02*
X2075831D01*
X2069733Y2167199D02*
X2075467D01*
X2057904Y1990799D02*
X2075413D01*
X2022690Y2384099D02*
X2075003D01*
X2070285Y2143799D02*
X2074915D01*
X2058694Y1982699D02*
X2074622D01*
X2070596Y2173499D02*
X2074604D01*
X1911538Y2388599D02*
X2074465D01*
X2059244Y1959299D02*
X2074439D01*
X2070769Y2168099D02*
X2074431D01*
X2071061Y2142899D02*
X2074139D01*
X2070993Y2138399D02*
X2074078D01*
X2071234Y2172599D02*
X2073966D01*
X2059772Y1941299D02*
X2073911D01*
X2023051Y2384999D02*
X2073877D01*
X2071330Y2168999D02*
X2073870D01*
X1982210Y2132999D02*
X2073790D01*
X2059549Y2015999D02*
X2073767D01*
X2071453Y2139299D02*
X2073747D01*
X2071489Y2141999D02*
X2073711D01*
X2021888Y2387699D02*
X2073693D01*
X1986582Y2023199D02*
X2073625D01*
X2071577Y2171699D02*
X2073623D01*
X1913132Y2026799D02*
X2073623D01*
X2060101Y1934099D02*
X2073582D01*
X2071621Y2169899D02*
X2073579D01*
X2071669Y2140199D02*
X2073531D01*
X2071681Y2141099D02*
X2073519D01*
X2071699Y2170799D02*
X2073501D01*
X2023069Y2385899D02*
X2073470D01*
X2022752Y2386799D02*
X2073417D01*
X2059949Y2008799D02*
X2073368D01*
X2060418Y1966499D02*
X2073265D01*
X1986530Y2024099D02*
X2073061D01*
X1985003Y2025899D02*
X2073060D01*
X2060365Y1989899D02*
X2072952D01*
X2060777Y1960199D02*
X2072907D01*
X1986125Y2024999D02*
X2072900D01*
X2070162Y2137499D02*
X2072837D01*
X2060482Y1983599D02*
X2072835D01*
X2060988Y1940399D02*
X2072695D01*
X2061145Y1934999D02*
X2072539D01*
X2060787Y2015099D02*
X2072529D01*
X1983548Y2133899D02*
X2072452D01*
X2061309Y1965599D02*
X2072375D01*
X2060977Y2009699D02*
X2072340D01*
X2055469Y2114999D02*
X2072281D01*
X2061504Y1961099D02*
X2072179D01*
X1998190Y2136599D02*
X2072144D01*
X2061195Y1988999D02*
X2072122D01*
X2061622Y1939499D02*
X2072061D01*
X2061259Y1984499D02*
X2072058D01*
X1984004Y2134799D02*
X2071996D01*
X2061709Y1935899D02*
X2071974D01*
X1997210Y2135699D02*
X2071908D01*
X2061429Y2014199D02*
X2071888D01*
X2061800Y1964699D02*
X2071884D01*
X2061535Y2010599D02*
X2071782D01*
X2061904Y1961999D02*
X2071780D01*
X2061962Y1938599D02*
X2071721D01*
X2062003Y1936799D02*
X2071681D01*
X2061654Y1988099D02*
X2071662D01*
X2062040Y1963799D02*
X2071644D01*
X2061688Y1985399D02*
X2071629D01*
X2062072Y1962899D02*
X2071611D01*
X2062082Y1937699D02*
X2071601D01*
X2061774Y2013299D02*
X2071542D01*
X2061823Y2011499D02*
X2071494D01*
X2061870Y1987199D02*
X2071447D01*
X2061880Y1986299D02*
X2071436D01*
X2061899Y2012399D02*
X2071418D01*
X2059100Y2110499D02*
X2071340D01*
X2055253Y2114099D02*
X2070950D01*
X2058940Y2111399D02*
X2070645D01*
X2062082Y1874699D02*
X2070612D01*
X2055073Y2113199D02*
X2070496D01*
X2058377Y2112299D02*
X2070408D01*
X2055973Y2216699D02*
X2070112D01*
X2061806Y1873799D02*
X2069748D01*
X2056092Y2212199D02*
X2069561D01*
X2061194Y1872899D02*
X2069431D01*
X2055856Y2213099D02*
X2069310D01*
X2055466Y2215799D02*
X2069248D01*
X2016035Y2240099D02*
X2069003D01*
X2055163Y2213999D02*
X2068949D01*
X2054454Y2214899D02*
X2068931D01*
X2049388Y2270699D02*
X2068790D01*
X2024210Y2275199D02*
X2068612D01*
X2045856Y2244599D02*
X2068465D01*
X2058980Y2207699D02*
X2068125D01*
X2056183Y2211299D02*
X2068123D01*
X2064599Y1907999D02*
X2068001D01*
X2044210Y2240999D02*
X2067877D01*
X1937273Y2271599D02*
X2067810D01*
X1937974Y2274299D02*
X2067748D01*
X2046092Y2243699D02*
X2067693D01*
X2064910Y1881899D02*
X2067690D01*
X2059108Y2208599D02*
X2067561D01*
X2058296Y2210399D02*
X2067560D01*
X2045548Y2241899D02*
X2067470D01*
X1937899Y2272499D02*
X2067449D01*
X1938098Y2273399D02*
X2067431D01*
X2046004Y2242799D02*
X2067417D01*
X2058914Y2209499D02*
X2067400D01*
X2058506Y2144699D02*
X2066694D01*
X2059369Y2174399D02*
X2065831D01*
X2059733Y2167199D02*
X2065467D01*
X2060162Y2137499D02*
X2065038D01*
X2060285Y2143799D02*
X2064915D01*
X2056706Y2313899D02*
X2064894D01*
X2060596Y2173499D02*
X2064604D01*
X2057069Y2323799D02*
X2064531D01*
X2060769Y2168099D02*
X2064431D01*
X2057343Y2333699D02*
X2064257D01*
X2060993Y2138399D02*
X2064207D01*
X2061061Y2142899D02*
X2064139D01*
X2057569Y2343599D02*
X2064031D01*
X2061234Y2172599D02*
X2063966D01*
X2061330Y2168999D02*
X2063870D01*
X2061453Y2139299D02*
X2063747D01*
X2061489Y2141999D02*
X2063711D01*
X2057933Y2336399D02*
X2063667D01*
X2061577Y2171699D02*
X2063623D01*
X2061621Y2169899D02*
X2063579D01*
X2061669Y2140199D02*
X2063531D01*
X2061681Y2141099D02*
X2063519D01*
X2058089Y2326499D02*
X2063511D01*
X2061699Y2170799D02*
X2063501D01*
X2058231Y2316599D02*
X2063369D01*
X2058362Y2306699D02*
X2063238D01*
X2058485Y2312999D02*
X2063115D01*
X2058596Y2322899D02*
X2063004D01*
X2001552Y1907999D02*
X2063001D01*
X2058700Y2332799D02*
X2062900D01*
X2058796Y2342699D02*
X2062804D01*
X2008569Y1881899D02*
X2062690D01*
X2058969Y2337299D02*
X2062631D01*
X2059049Y2327399D02*
X2062551D01*
X2059123Y2317499D02*
X2062477D01*
X2059193Y2307599D02*
X2062407D01*
X2059261Y2312099D02*
X2062339D01*
X2059322Y2321999D02*
X2062278D01*
X2059380Y2331899D02*
X2062220D01*
X2059434Y2341799D02*
X2062166D01*
X2055904Y2303999D02*
X2062164D01*
X2059530Y2338199D02*
X2062070D01*
X2059574Y2328299D02*
X2062026D01*
X2059615Y2318399D02*
X2061985D01*
X2059653Y2308499D02*
X2061947D01*
X2059689Y2311199D02*
X2061911D01*
X2056694Y2295899D02*
X2061902D01*
X2059721Y2321099D02*
X2061879D01*
X2059750Y2330999D02*
X2061850D01*
X2059777Y2340899D02*
X2061823D01*
X2059821Y2339099D02*
X2061779D01*
X2059840Y2329199D02*
X2061760D01*
X2059856Y2319299D02*
X2061744D01*
X2059869Y2309399D02*
X2061731D01*
X2059881Y2310299D02*
X2061719D01*
X2059889Y2320199D02*
X2061711D01*
X2059895Y2330099D02*
X2061705D01*
X2059899Y2339999D02*
X2061701D01*
X2058365Y2303099D02*
X2061700D01*
X2059195Y2302199D02*
X2061700D01*
X2059654Y2301299D02*
X2061700D01*
X2059870Y2300399D02*
X2061700D01*
X2059880Y2299499D02*
X2061700D01*
X2059688Y2298599D02*
X2061700D01*
X2059259Y2297699D02*
X2061700D01*
X2058482Y2296799D02*
X2061700D01*
X2018092Y1887299D02*
X2061562D01*
X2032652Y1902599D02*
X2061531D01*
X2037468Y1897199D02*
X2061530D01*
X2001569Y1907099D02*
X2061475D01*
X1912723Y1892699D02*
X2061473D01*
X2008252Y1882799D02*
X2061387D01*
X1991215Y1891799D02*
X2061224D01*
X2035583Y1898099D02*
X2061155D01*
X2033424Y1901699D02*
X2061153D01*
X2018004Y1888199D02*
X2061090D01*
X2017855Y1886399D02*
X2060973D01*
X1993093Y1903499D02*
X2060923D01*
X2037974Y1896299D02*
X2060922D01*
X2037273Y1893599D02*
X2060877D01*
X2001251Y1906199D02*
X2060875D01*
X2007388Y1883699D02*
X2060834D01*
X1992192Y1890899D02*
X2060760D01*
X2033240Y1898999D02*
X2060730D01*
X2033700Y1900799D02*
X2060729D01*
X2017550Y1889099D02*
X2060702D01*
X2017160Y1885499D02*
X2060657D01*
X1991192Y1904399D02*
X2060640D01*
X2038098Y1895399D02*
X2060639D01*
X2037899Y1894499D02*
X2060625D01*
X2000384Y1905299D02*
X2060625D01*
X1982569Y1884599D02*
X2060614D01*
X2016219Y1889999D02*
X2060602D01*
X2033646Y1899899D02*
X2060600D01*
X1988069Y2358899D02*
X2059724D01*
X1983092Y2355299D02*
X2059534D01*
X1988051Y2357999D02*
X2059099D01*
X1986710Y2356199D02*
X2059027D01*
X1987690Y2357099D02*
X2058902D01*
X2045548Y1877399D02*
X2058497D01*
X1907048Y1872899D02*
X2057806D01*
X2038504Y1990799D02*
X2057696D01*
X2044210Y1876499D02*
X2057375D01*
X1907504Y1873799D02*
X2057194D01*
X1961273Y1875599D02*
X2056970D01*
X1907592Y1874699D02*
X2056918D01*
X2037388Y1982699D02*
X2056906D01*
X2005806Y1959299D02*
X2056723D01*
X2048506Y2144699D02*
X2056694D01*
X2006069Y1941299D02*
X2056195D01*
X1913400Y2015999D02*
X2056051D01*
X2006706Y1934099D02*
X2055866D01*
X2049369Y2174399D02*
X2055831D01*
X1980736Y2303999D02*
X2055696D01*
X1911169Y2008799D02*
X2055651D01*
X2031499Y1966499D02*
X2055549D01*
X2049733Y2167199D02*
X2055467D01*
X2038048Y1989899D02*
X2055235D01*
X2024210Y1960199D02*
X2055190D01*
X1913215Y1983599D02*
X2055118D01*
X2050162Y2137499D02*
X2055038D01*
X2006051Y1940399D02*
X2054978D01*
X2050285Y2143799D02*
X2054915D01*
X1980729Y2295899D02*
X2054906D01*
X1976064Y2313899D02*
X2054894D01*
X2010034Y1934999D02*
X2054822D01*
X1913500Y2015099D02*
X2054813D01*
X2031421Y1965599D02*
X2054658D01*
X1902800Y2009699D02*
X2054623D01*
X2050596Y2173499D02*
X2054604D01*
X1978092Y2323799D02*
X2054531D01*
X2045806Y2206799D02*
X2054505D01*
X2025190Y1961099D02*
X2054463D01*
X2050769Y2168099D02*
X2054431D01*
X2036710Y1988999D02*
X2054405D01*
X2009093Y1939499D02*
X2054345D01*
X1913456Y1984499D02*
X2054341D01*
X2010729Y1935899D02*
X2054257D01*
X1970805Y2333699D02*
X2054257D01*
X2050993Y2138399D02*
X2054207D01*
X1913400Y2014199D02*
X2054171D01*
X2031130Y1964699D02*
X2054167D01*
X2051061Y2142899D02*
X2054139D01*
X1902800Y2010599D02*
X2054065D01*
X2025551Y1961999D02*
X2054063D01*
X2051504Y2109599D02*
X2054042D01*
X2033069Y2111399D02*
X2054042D01*
X2046082Y2207699D02*
X2054040D01*
X1986939Y2343599D02*
X2054031D01*
X2010424Y1938599D02*
X2054005D01*
X2051234Y2172599D02*
X2053966D01*
X2010966Y1936799D02*
X2053964D01*
X1912196Y1988099D02*
X2053946D01*
X2030569Y1963799D02*
X2053927D01*
X1913489Y1985399D02*
X2053912D01*
X2046030Y2208599D02*
X2053911D01*
X2033051Y2110499D02*
X2053900D01*
X2029533Y1962899D02*
X2053895D01*
X2010878Y1937699D02*
X2053884D01*
X2051330Y2168999D02*
X2053870D01*
X1913083Y2013299D02*
X2053826D01*
X1911360Y2011499D02*
X2053777D01*
X2051453Y2139299D02*
X2053747D01*
X1912922Y1987199D02*
X2053730D01*
X1913321Y1986299D02*
X2053720D01*
X2051489Y2141999D02*
X2053711D01*
X1912484Y2012399D02*
X2053701D01*
X1977216Y2336399D02*
X2053667D01*
X2051577Y2171699D02*
X2053623D01*
X2051621Y2169899D02*
X2053579D01*
X2051669Y2140199D02*
X2053531D01*
X2051681Y2141099D02*
X2053519D01*
X1976219Y2326499D02*
X2053511D01*
X2051699Y2170799D02*
X2053501D01*
X1976071Y2316599D02*
X2053369D01*
X1980680Y2306699D02*
X2053238D01*
X1979866Y2303099D02*
X2053235D01*
X1980167Y2296799D02*
X2053118D01*
X1975139Y2312999D02*
X2053115D01*
X1977855Y2322899D02*
X2053004D01*
X2006877Y2332799D02*
X2052900D01*
X1986375Y2342699D02*
X2052804D01*
X2017744Y2222999D02*
X2052790D01*
X2045625Y2209499D02*
X2052790D01*
X1978110Y2337299D02*
X2052631D01*
X1912795Y2327399D02*
X2052551D01*
X2045940Y2214899D02*
X2052546D01*
X1975165Y2317499D02*
X2052477D01*
X2032377Y2197799D02*
X2052416D01*
X1979707Y2307599D02*
X2052407D01*
X1912297Y2302199D02*
X2052405D01*
X1912571Y2297699D02*
X2052341D01*
X1974767Y2312099D02*
X2052339D01*
X2041384Y2265299D02*
X2052285D01*
X2045031Y2205899D02*
X2052285D01*
X1977160Y2321999D02*
X2052278D01*
X2007440Y2331899D02*
X2052220D01*
X1985499Y2341799D02*
X2052166D01*
X1988751Y2260799D02*
X2052116D01*
X1978439Y2338199D02*
X2052070D01*
X1911965Y2328299D02*
X2052026D01*
X1975122Y2318399D02*
X2051985D01*
X1974305Y2308499D02*
X2051947D01*
X1910936Y2301299D02*
X2051946D01*
X1911538Y2298599D02*
X2051912D01*
X1975204Y2311199D02*
X2051911D01*
X1974687Y2321099D02*
X2051879D01*
X2007600Y2330999D02*
X2051850D01*
X2019665Y2227499D02*
X2051837D01*
X2046100Y2213999D02*
X2051837D01*
X1985598Y2340899D02*
X2051823D01*
X1984773Y2339099D02*
X2051779D01*
X2006875Y2329199D02*
X2051760D01*
X1975220Y2319299D02*
X2051744D01*
X1975027Y2309399D02*
X2051731D01*
X1902800Y2300399D02*
X2051730D01*
X2018120Y2237399D02*
X2051724D01*
X2014256Y2219399D02*
X2051724D01*
X1902800Y2299499D02*
X2051720D01*
X1975279Y2310299D02*
X2051719D01*
X1974993Y2320199D02*
X2051711D01*
X2007439Y2330099D02*
X2051705D01*
X1985399Y2339999D02*
X2051701D01*
X2043030Y2201399D02*
X2051601D01*
X2003970Y2198699D02*
X2051549D01*
X2044083Y2233799D02*
X2051534D01*
X2045377Y2215799D02*
X2051534D01*
X2018290Y2223899D02*
X2051452D01*
X2044503Y2210399D02*
X2051452D01*
X2039878Y2264399D02*
X2051308D01*
X1973174Y2204999D02*
X2051308D01*
X2032690Y2109599D02*
X2051296D01*
X1988900Y2261699D02*
X2051249D01*
X2043083Y2202299D02*
X2051249D01*
X2042623Y2200499D02*
X2051248D01*
X2041497Y2199599D02*
X2051231D01*
X2019428Y2226599D02*
X2051144D01*
X2045939Y2213099D02*
X2051144D01*
X2018606Y2236499D02*
X2051099D01*
X2012798Y2218499D02*
X2051099D01*
X2043807Y2234699D02*
X2051027D01*
X1985807Y2216699D02*
X2051027D01*
X2018747Y2224799D02*
X2050996D01*
X2043880Y2211299D02*
X2050996D01*
X2039599Y2263499D02*
X2050948D01*
X2042035Y2204099D02*
X2050948D01*
X2038821Y2262599D02*
X2050931D01*
X2042807Y2203199D02*
X2050931D01*
X2019124Y2225699D02*
X2050908D01*
X2045375Y2212199D02*
X2050908D01*
X2043035Y2235599D02*
X2050902D01*
X2010703Y2217599D02*
X2050902D01*
X2014912Y2101499D02*
X2050506D01*
X2043663Y2119499D02*
X2050494D01*
X2005752Y1942199D02*
X2050290D01*
X1912861Y2427299D02*
X2050285D01*
X2015129Y2091599D02*
X2050139D01*
X1902800Y2129399D02*
X2050131D01*
X2049265Y2039399D02*
X2050131D01*
X1912793Y2422799D02*
X2050116D01*
X1913175Y1946699D02*
X2050112D01*
X2015318Y2081699D02*
X2049864D01*
X2014083Y2049299D02*
X2049857D01*
X2015487Y2071799D02*
X2049636D01*
X2048186Y2059199D02*
X2049631D01*
X2015639Y2061899D02*
X2049440D01*
X2014782Y2069099D02*
X2049435D01*
X2004888Y1943099D02*
X2049310D01*
X1913289Y2426399D02*
X2049308D01*
X2015777Y2051999D02*
X2049267D01*
X2015019Y2078999D02*
X2049262D01*
X1913253Y2423699D02*
X2049249D01*
X1913440Y1945799D02*
X2049248D01*
X2015222Y2088899D02*
X2049107D01*
X2016022Y2122199D02*
X2048969D01*
X2021468Y2032199D02*
X2048969D01*
X2015400Y2098799D02*
X2048965D01*
X1995625Y1943999D02*
X2048949D01*
X1913481Y2425499D02*
X2048948D01*
X1913469Y2424599D02*
X2048931D01*
X1994503Y1944899D02*
X2048931D01*
X1996429Y2039399D02*
X2048859D01*
X2032752Y2112299D02*
X2048838D01*
X2031710Y2108699D02*
X2048835D01*
X2016233Y2102399D02*
X2048718D01*
X2044356Y2118599D02*
X2048715D01*
X2016328Y2092499D02*
X2048607D01*
X2015839Y2128499D02*
X2048604D01*
X2015839Y2038499D02*
X2048604D01*
X2016417Y2082599D02*
X2048503D01*
X2015961Y2048399D02*
X2048500D01*
X2016500Y2072699D02*
X2048406D01*
X2016579Y2062799D02*
X2048316D01*
X2016181Y2068199D02*
X2048313D01*
X2016652Y2052899D02*
X2048231D01*
X2016279Y2078099D02*
X2048229D01*
X2016371Y2087999D02*
X2048149D01*
X2016785Y2123099D02*
X2048077D01*
X2019583Y2033099D02*
X2048077D01*
X2016457Y2097899D02*
X2048075D01*
X2031888Y2113199D02*
X2048007D01*
X2016538Y2107799D02*
X2048005D01*
X2016902Y2103299D02*
X2047941D01*
X2044592Y2117699D02*
X2047939D01*
X2016956Y2093399D02*
X2047879D01*
X2016685Y2127599D02*
X2047878D01*
X2016685Y2037599D02*
X2047878D01*
X2017005Y2083499D02*
X2047822D01*
X2016752Y2047499D02*
X2047820D01*
X2017052Y2073599D02*
X2047768D01*
X2017095Y2063699D02*
X2047717D01*
X2016873Y2067299D02*
X2047716D01*
X2017135Y2053799D02*
X2047670D01*
X2016928Y2077199D02*
X2047668D01*
X2016980Y2087099D02*
X2047625D01*
X2017206Y2123999D02*
X2047585D01*
X2017206Y2033999D02*
X2047585D01*
X2017028Y2096999D02*
X2047584D01*
X2017237Y2114099D02*
X2047547D01*
X2017072Y2106899D02*
X2047546D01*
X2017266Y2104199D02*
X2047512D01*
X2044504Y2116799D02*
X2047511D01*
X2017292Y2094299D02*
X2047480D01*
X2017153Y2126699D02*
X2047479D01*
X2017153Y2036699D02*
X2047479D01*
X2017315Y2084399D02*
X2047451D01*
X2017188Y2046599D02*
X2047450D01*
X2017335Y2074499D02*
X2047424D01*
X2017353Y2064599D02*
X2047400D01*
X2017251Y2066399D02*
X2047400D01*
X2017368Y2054699D02*
X2047379D01*
X2017278Y2076299D02*
X2047379D01*
X2017303Y2086199D02*
X2047360D01*
X2017392Y2124899D02*
X2047344D01*
X2017392Y2034899D02*
X2047344D01*
X2017325Y2096099D02*
X2047344D01*
X2042710Y2114999D02*
X2047331D01*
X2017344Y2105999D02*
X2047330D01*
X2017405Y2105099D02*
X2047320D01*
X2044048Y2115899D02*
X2047319D01*
X2017408Y2095199D02*
X2047311D01*
X2017375Y2125799D02*
X2047311D01*
X2017375Y2035799D02*
X2047311D01*
X2017409Y2085299D02*
X2047305D01*
X2017387Y2045699D02*
X2047305D01*
X2017407Y2075399D02*
X2047301D01*
X2017396Y2055599D02*
X2047301D01*
X2017403Y2065499D02*
X2047300D01*
X2017381Y2044799D02*
X2047270D01*
X2046610Y2056499D02*
X2047054D01*
X2042251Y2266199D02*
X2046790D01*
X1956092Y2144699D02*
X2046694D01*
X1963570Y2270699D02*
X2046612D01*
X1941382Y2174399D02*
X2045831D01*
X2042569Y2267099D02*
X2045810D01*
X2041215Y2269799D02*
X2045748D01*
X2017172Y2043899D02*
X2045724D01*
X1996806Y2040299D02*
X2045534D01*
X2009465Y2167199D02*
X2045467D01*
X2042552Y2267999D02*
X2045449D01*
X2042192Y2268899D02*
X2045431D01*
X2016721Y2042999D02*
X2045099D01*
X1998551Y2137499D02*
X2045038D01*
X2013773Y2041199D02*
X2045027D01*
X1956004Y2143799D02*
X2044915D01*
X2015905Y2042099D02*
X2044902D01*
X1939594Y2173499D02*
X2044604D01*
X2017221Y2056499D02*
X2044598D01*
X2009590Y2168099D02*
X2044431D01*
X1998569Y2138399D02*
X2044207D01*
X1955548Y2142899D02*
X2044139D01*
X1902800Y2060999D02*
X2044074D01*
X1912649Y2172599D02*
X2043966D01*
X2009392Y2168999D02*
X2043870D01*
X1998252Y2139299D02*
X2043747D01*
X1954210Y2141999D02*
X2043711D01*
X1911689Y2171699D02*
X2043623D01*
X2008768Y2169899D02*
X2043579D01*
X1997388Y2140199D02*
X2043531D01*
X1940665Y2141099D02*
X2043519D01*
X1941135Y2170799D02*
X2043501D01*
X2016814Y2057399D02*
X2043478D01*
X1958035Y2060099D02*
X2043299D01*
X1971325Y2211299D02*
X2043120D01*
X2016075Y2058299D02*
X2043073D01*
X2014490Y2059199D02*
X2043021D01*
X2015045Y2240999D02*
X2042790D01*
X1961899Y1876499D02*
X2042790D01*
X1987241Y2255399D02*
X2042497D01*
X1971728Y2210399D02*
X2042497D01*
X1958598Y2250899D02*
X2041969D01*
X1973895Y2205899D02*
X2041969D01*
X1998260Y2245499D02*
X2041837D01*
X2008551Y1880999D02*
X2041837D01*
X1971707Y2212199D02*
X2041625D01*
X1986083Y2215799D02*
X2041623D01*
X2013818Y2241899D02*
X2041452D01*
X1962098Y1877399D02*
X2041452D01*
X1987490Y2254499D02*
X2041375D01*
X1972386Y2209499D02*
X2041375D01*
X2017400Y2114999D02*
X2041290D01*
X1985716Y2251799D02*
X2041194D01*
X1974146Y2206799D02*
X2041194D01*
X1985346Y2244599D02*
X2041144D01*
X2008190Y1880099D02*
X2041144D01*
X1984497Y2213099D02*
X2041061D01*
X1986030Y2214899D02*
X2041060D01*
X2012205Y2242799D02*
X2040996D01*
X1961974Y1878299D02*
X2040996D01*
X1987413Y2253599D02*
X2040970D01*
X1973634Y2208599D02*
X2040970D01*
X1986973Y2252699D02*
X2040918D01*
X1974070Y2207699D02*
X2040918D01*
X2009679Y2243699D02*
X2040908D01*
X2007210Y1879199D02*
X2040908D01*
X1985623Y2213999D02*
X2040900D01*
X2019987Y2231099D02*
X2040503D01*
X1981623Y2119499D02*
X2040337D01*
X2019008Y2235599D02*
X2039965D01*
X2017361Y2115899D02*
X2039952D01*
X2015706Y2118599D02*
X2039644D01*
X1999960Y2199599D02*
X2039503D01*
X2017114Y2116799D02*
X2039496D01*
X2016614Y2117699D02*
X2039408D01*
X2019917Y2231999D02*
X2039377D01*
X2019336Y2234699D02*
X2039193D01*
X2019787Y2232899D02*
X2038970D01*
X1971798Y2204099D02*
X2038965D01*
X2019594Y2233799D02*
X2038917D01*
X2036215Y2269799D02*
X2038785D01*
X1999672Y2200499D02*
X2038377D01*
X1971562Y2203199D02*
X2038193D01*
X1998874Y2201399D02*
X2037970D01*
X1970869Y2202299D02*
X2037917D01*
X2037252Y2268899D02*
X2037748D01*
X1990967Y2180699D02*
X2037147D01*
X2035468Y2185199D02*
X2036970D01*
X1906982Y1871999D02*
X2036941D01*
X1962300Y1871099D02*
X2036900D01*
X1962300Y1870199D02*
X2036900D01*
X1962300Y1869299D02*
X2036900D01*
X1962300Y1868399D02*
X2036900D01*
X1962300Y1867499D02*
X2036900D01*
X1962300Y1866599D02*
X2036900D01*
X2015559Y1865699D02*
X2036900D01*
X2015600Y1864799D02*
X2036900D01*
X2015600Y1863899D02*
X2036900D01*
X2015600Y1862999D02*
X2036900D01*
X2021583Y1862099D02*
X2036900D01*
X2015600Y1851299D02*
X2036900D01*
X2015600Y1850399D02*
X2036900D01*
X2015600Y1849499D02*
X2036900D01*
X2015600Y1848599D02*
X2036900D01*
X2015600Y1847699D02*
X2036900D01*
X2015600Y1846799D02*
X2036900D01*
X2015600Y1845899D02*
X2036900D01*
X2015600Y1844999D02*
X2036900D01*
X2015600Y1844099D02*
X2036900D01*
X2015600Y1843199D02*
X2036900D01*
X2015600Y1842299D02*
X2036900D01*
X2015600Y1841399D02*
X2036900D01*
X2015600Y1840499D02*
X2036900D01*
X2015600Y1839599D02*
X2036900D01*
X2015600Y1838699D02*
X2036900D01*
X2015600Y1837799D02*
X2036900D01*
X2015600Y1836899D02*
X2036900D01*
X2015600Y1835999D02*
X2036900D01*
X2015600Y1835099D02*
X2036900D01*
X2015600Y1834199D02*
X2036900D01*
X2023468Y1861199D02*
X2036858D01*
X2018710Y1852199D02*
X2036290D01*
X2035273Y2181599D02*
X2036167D01*
X1913377Y2006099D02*
X2035917D01*
X2034230Y2262599D02*
X2035770D01*
X2023974Y1860299D02*
X2035623D01*
X2018888Y1856699D02*
X2035590D01*
X2032114Y1898099D02*
X2035417D01*
X2019690Y1853099D02*
X2035310D01*
X1910669Y1988999D02*
X2035290D01*
X2019752Y1855799D02*
X2035248D01*
X2023273Y1857599D02*
X2035061D01*
X2024098Y1859399D02*
X2035060D01*
X2020051Y1853999D02*
X2034949D01*
X2020069Y1854899D02*
X2034931D01*
X2023899Y1858499D02*
X2034900D01*
X1987798Y1978199D02*
X2034790D01*
X1912723Y1982699D02*
X2034612D01*
X1913174Y1993499D02*
X2034337D01*
X1911533Y2001599D02*
X2034227D01*
X2028593Y2193299D02*
X2034221D01*
X2032940Y2196899D02*
X2034097D01*
X1913499Y2005199D02*
X2034032D01*
X1902800Y1989899D02*
X2033952D01*
X1987624Y1979099D02*
X2033810D01*
X2026215Y2269799D02*
X2033785D01*
X1911831Y1981799D02*
X2033748D01*
X1913215Y1893599D02*
X2033727D01*
X1912649Y1992599D02*
X2033644D01*
X2032375Y2194199D02*
X2033619D01*
X1912569Y2002499D02*
X2033601D01*
X1912922Y1897199D02*
X2033532D01*
X1913421Y2004299D02*
X2033526D01*
X1902800Y1990799D02*
X2033496D01*
X1987204Y1979999D02*
X2033449D01*
X1986030Y1980899D02*
X2033431D01*
X1992583Y2186099D02*
X2033417D01*
X1911689Y1991699D02*
X2033408D01*
X1913130Y2003399D02*
X2033402D01*
X1913456Y1894499D02*
X2033101D01*
X1913321Y1896299D02*
X2033026D01*
X1913489Y1895399D02*
X2032902D01*
X2027192Y2268899D02*
X2032808D01*
X2027552Y2267999D02*
X2032448D01*
X2022989Y2181599D02*
X2031727D01*
X2027569Y2267099D02*
X2031691D01*
X2022978Y2185199D02*
X2031532D01*
X1988727Y2262599D02*
X2031179D01*
X2023549Y2182499D02*
X2031101D01*
X2023544Y2184299D02*
X2031026D01*
X2023707Y2183399D02*
X2030902D01*
X2027251Y2266199D02*
X2030577D01*
X1988146Y2263499D02*
X2030401D01*
X2026384Y2265299D02*
X2030173D01*
X1956393Y2264399D02*
X2030122D01*
X1912196Y1898099D02*
X2030120D01*
X1994424Y1902599D02*
X2029582D01*
X1991355Y2165399D02*
X2029497D01*
X2015561Y2108699D02*
X2029290D01*
X2016846Y2113199D02*
X2029112D01*
X1994034Y1898999D02*
X2028994D01*
X1940993Y2160899D02*
X2028969D01*
X1994878Y1901699D02*
X2028810D01*
X2013377Y2197799D02*
X2028623D01*
X1994729Y1899899D02*
X2028587D01*
X1994966Y1900799D02*
X2028534D01*
X1990660Y2164499D02*
X2028375D01*
X1995050Y2109599D02*
X2028310D01*
X2016131Y2112299D02*
X2028248D01*
X1911831Y2161799D02*
X2028194D01*
X2013940Y2196899D02*
X2028060D01*
X1912978Y2393099D02*
X2028003D01*
X1973690Y2163599D02*
X2027970D01*
X1993719Y2110499D02*
X2027949D01*
X2014652Y2111399D02*
X2027931D01*
X1972710Y2162699D02*
X2027918D01*
X2026719Y2195999D02*
X2027837D01*
X1982396Y2397599D02*
X2027465D01*
X1980565Y2393999D02*
X2026877D01*
X1982337Y2396699D02*
X2026693D01*
X1981536Y2394899D02*
X2026470D01*
X1982067Y2395799D02*
X2026417D01*
X1990210Y1912499D02*
X2026139D01*
X1931583Y1970099D02*
X2025631D01*
X2022919Y2195999D02*
X2025281D01*
X1991548Y1913399D02*
X2024607D01*
X1933468Y1969199D02*
X2024404D01*
X2023878Y2191499D02*
X2024322D01*
X1992004Y1914299D02*
X2023879D01*
X2016715Y2269799D02*
X2023785D01*
X1982160Y2353499D02*
X2023781D01*
X1933974Y1968299D02*
X2023766D01*
X2016884Y2265299D02*
X2023616D01*
X1992092Y1915199D02*
X2023480D01*
X1994903Y1967399D02*
X2023423D01*
X1996430Y1965599D02*
X2023371D01*
X1991856Y1916099D02*
X2023311D01*
X1996025Y1966499D02*
X2023301D01*
X1978623Y2348999D02*
X2022840D01*
X2017692Y2268899D02*
X2022808D01*
X2017751Y2266199D02*
X2022749D01*
X1978035Y2352599D02*
X2022450D01*
X2018052Y2267999D02*
X2022448D01*
X2018069Y2267099D02*
X2022431D01*
X1979030Y2349899D02*
X2022145D01*
X1978807Y2351699D02*
X2021996D01*
X1979083Y2350799D02*
X2021908D01*
X1991163Y1916999D02*
X2021790D01*
X2014710Y2275199D02*
X2021790D01*
X2006082Y1960199D02*
X2021790D01*
X2003781Y1957499D02*
X2021781D01*
X2014888Y2279699D02*
X2021612D01*
X1996482Y1964699D02*
X2021612D01*
X2014100Y2195999D02*
X2021481D01*
X2015600Y1862099D02*
X2021417D01*
X2005623Y1952999D02*
X2020840D01*
X1988625Y1921499D02*
X2020837D01*
X2015690Y2276099D02*
X2020810D01*
X2006030Y1961099D02*
X2020810D01*
X2015752Y2278799D02*
X2020748D01*
X1996206Y1963799D02*
X2020748D01*
X2010286Y2191499D02*
X2020540D01*
X1988424Y1917899D02*
X2020452D01*
X2005035Y1956599D02*
X2020450D01*
X2016051Y2276999D02*
X2020449D01*
X2005625Y1961999D02*
X2020449D01*
X2016069Y2277899D02*
X2020431D01*
X2004503Y1962899D02*
X2020431D01*
X2013939Y2195099D02*
X2020150D01*
X2006030Y1953899D02*
X2020145D01*
X1989030Y1920599D02*
X2020144D01*
X1995503Y2417399D02*
X2019997D01*
X1988806Y1918799D02*
X2019996D01*
X2005807Y1955699D02*
X2019996D01*
X2006083Y1954799D02*
X2019908D01*
X1989082Y1919699D02*
X2019908D01*
X2010981Y2192399D02*
X2019845D01*
X2015600Y1857599D02*
X2019727D01*
X2013375Y2194199D02*
X2019696D01*
X2011361Y2193299D02*
X2019608D01*
X2015600Y1861199D02*
X2019532D01*
X1996031Y2412899D02*
X2019469D01*
X2016785Y2033099D02*
X2019417D01*
X2002210Y2383199D02*
X2019290D01*
X1950966Y2445299D02*
X2019285D01*
X1994468Y2185199D02*
X2019237D01*
X1994273Y2181599D02*
X2019225D01*
X1902800Y2440799D02*
X2019116D01*
X2002388Y2387699D02*
X2019112D01*
X2015600Y1858499D02*
X2019101D01*
X2015600Y1860299D02*
X2019026D01*
X2015600Y1859399D02*
X2018902D01*
X1996625Y2416499D02*
X2018875D01*
X1996806Y2413799D02*
X2018694D01*
X1994974Y2184299D02*
X2018670D01*
X1994899Y2182499D02*
X2018666D01*
X1995098Y2183399D02*
X2018507D01*
X1997030Y2415599D02*
X2018470D01*
X1997082Y2414699D02*
X2018418D01*
X2003190Y2384099D02*
X2018310D01*
X1913440Y2444399D02*
X2018308D01*
X1911689Y2441699D02*
X2018249D01*
X2003252Y2386799D02*
X2018248D01*
X2003551Y2384999D02*
X2017949D01*
X1913174Y2443499D02*
X2017948D01*
X1912649Y2442599D02*
X2017931D01*
X2003569Y2385899D02*
X2017931D01*
X1983997Y2028599D02*
X2017727D01*
X2016022Y2032199D02*
X2017532D01*
X1985123Y2029499D02*
X2017101D01*
X2014319Y2031299D02*
X2017026D01*
X1985530Y2030399D02*
X2016902D01*
X2015915Y1852199D02*
X2016285D01*
X1992552Y1889999D02*
X2014781D01*
X2000715Y2269799D02*
X2014285D01*
X2000884Y2265299D02*
X2014116D01*
X1982552Y1885499D02*
X2013840D01*
X1992569Y1889099D02*
X2013450D01*
X2001692Y2268899D02*
X2013308D01*
X2001751Y2266199D02*
X2013249D01*
X1982192Y1886399D02*
X2013145D01*
X1992251Y1888199D02*
X2012996D01*
X2002052Y2267999D02*
X2012948D01*
X2002069Y2267099D02*
X2012931D01*
X1991384Y1887299D02*
X2012908D01*
X1999073Y2041199D02*
X2012845D01*
X1999383Y2049299D02*
X2012535D01*
X1999619Y2121299D02*
X2012299D01*
X1999619Y2031299D02*
X2012299D01*
X1998710Y2275199D02*
X2012290D01*
X1999790Y2059199D02*
X2012128D01*
X1998888Y2279699D02*
X2012112D01*
X1999952Y2111399D02*
X2011965D01*
X2000082Y2069099D02*
X2011836D01*
X2000212Y2101499D02*
X2011706D01*
X2000319Y2078999D02*
X2011599D01*
X2000429Y2091599D02*
X2011488D01*
X2000522Y2088899D02*
X2011396D01*
X1999690Y2276099D02*
X2011310D01*
X2000618Y2081699D02*
X2011299D01*
X1999752Y2278799D02*
X2011248D01*
X2000700Y2098799D02*
X2011217D01*
X2000787Y2071799D02*
X2011131D01*
X2000861Y2108699D02*
X2011057D01*
X2000939Y2061899D02*
X2010979D01*
X2000051Y2276999D02*
X2010949D01*
X2000069Y2277899D02*
X2010931D01*
X2001006Y2118599D02*
X2010912D01*
X2001077Y2051999D02*
X2010840D01*
X2001139Y2128499D02*
X2010779D01*
X2001139Y2038499D02*
X2010779D01*
X2001205Y2042099D02*
X2010713D01*
X2001261Y2048399D02*
X2010656D01*
X2001322Y2122199D02*
X2010595D01*
X2001322Y2032199D02*
X2010595D01*
X2001375Y2058299D02*
X2010543D01*
X2001431Y2112299D02*
X2010486D01*
X2001481Y2068199D02*
X2010437D01*
X2001533Y2102399D02*
X2010384D01*
X2001579Y2078099D02*
X2010339D01*
X2001628Y2092499D02*
X2010289D01*
X2001671Y2087999D02*
X2010247D01*
X2001717Y2082599D02*
X2010201D01*
X2001757Y2097899D02*
X2010160D01*
X2001800Y2072699D02*
X2010117D01*
X2001838Y2107799D02*
X2010080D01*
X2001879Y2062799D02*
X2010039D01*
X2001914Y2117699D02*
X2010004D01*
X2001952Y2052899D02*
X2009966D01*
X2001985Y2127599D02*
X2009933D01*
X2001985Y2037599D02*
X2009933D01*
X2002021Y2042999D02*
X2009897D01*
X2002052Y2047499D02*
X2009866D01*
X2002085Y2123099D02*
X2009832D01*
X2002085Y2033099D02*
X2009832D01*
X2002114Y2057399D02*
X2009803D01*
X2002146Y2113199D02*
X2009772D01*
X2002173Y2067299D02*
X2009745D01*
X2002202Y2103299D02*
X2009715D01*
X2002228Y2077199D02*
X2009690D01*
X2002256Y2093399D02*
X2009662D01*
X2002280Y2087099D02*
X2009638D01*
X2004835Y2197799D02*
X2009623D01*
X2002305Y2083499D02*
X2009612D01*
X2002328Y2096999D02*
X2009590D01*
X2002352Y2073599D02*
X2009566D01*
X2002372Y2106899D02*
X2009545D01*
X2002395Y2063699D02*
X2009523D01*
X2002414Y2116799D02*
X2009504D01*
X2002435Y2053799D02*
X2009483D01*
X2002453Y2126699D02*
X2009465D01*
X2002453Y2036699D02*
X2009465D01*
X2002472Y2043899D02*
X2009446D01*
X2002488Y2046599D02*
X2009429D01*
X2002506Y2123999D02*
X2009412D01*
X2002506Y2033999D02*
X2009412D01*
X2002521Y2056499D02*
X2009397D01*
X2002537Y2114099D02*
X2009380D01*
X2002551Y2066399D02*
X2009367D01*
X2002566Y2104199D02*
X2009352D01*
X2002578Y2076299D02*
X2009339D01*
X2002592Y2094299D02*
X2009326D01*
X2002603Y2086199D02*
X2009315D01*
X2002615Y2084399D02*
X2009303D01*
X2002625Y2096099D02*
X2009293D01*
X2002635Y2074499D02*
X2009282D01*
X2002644Y2105999D02*
X2009274D01*
X2002653Y2064599D02*
X2009265D01*
X2002661Y2115899D02*
X2009257D01*
X2002668Y2054699D02*
X2009249D01*
X2002675Y2125799D02*
X2009243D01*
X2002675Y2035799D02*
X2009243D01*
X2002681Y2044799D02*
X2009236D01*
X2002687Y2045699D02*
X2009231D01*
X2002692Y2124899D02*
X2009226D01*
X2002692Y2034899D02*
X2009226D01*
X2002696Y2055599D02*
X2009222D01*
X2002700Y2114999D02*
X2009218D01*
X2002703Y2065499D02*
X2009215D01*
X2002705Y2105099D02*
X2009212D01*
X2002707Y2075399D02*
X2009211D01*
X2002708Y2095199D02*
X2009209D01*
X2002709Y2085299D02*
X2009209D01*
X2005151Y2196899D02*
X2009060D01*
X2005133Y2195999D02*
X2007907D01*
X2005690Y1939499D02*
X2007655D01*
X1995469Y2191499D02*
X2006966D01*
X2004772Y2195099D02*
X2006576D01*
X2004929Y1938599D02*
X2006324D01*
X1996271Y2192399D02*
X2006271D01*
X2003792Y2194199D02*
X2006122D01*
X1996561Y2193299D02*
X2006034D01*
X1942025Y2169899D02*
X2005215D01*
X1991592Y2166299D02*
X2005025D01*
X1961468Y1879199D02*
X2004790D01*
X1982251Y1883699D02*
X2004612D01*
X1989719Y2168999D02*
X2004591D01*
X1991504Y2167199D02*
X2004518D01*
X1991050Y2168099D02*
X2004393D01*
X1959583Y1880099D02*
X2003810D01*
X1981384Y1882799D02*
X2003748D01*
X1902800Y1880999D02*
X2003449D01*
X1911962Y1881899D02*
X2003431D01*
X1981604Y1933199D02*
X2003281D01*
X1995602Y1957499D02*
X2003219D01*
X1909504Y2329199D02*
X2003125D01*
X1970802Y2332799D02*
X2003123D01*
X1984096Y2243699D02*
X2003121D01*
X1988292Y1937699D02*
X2003043D01*
X1902800Y2330099D02*
X2002561D01*
X1970460Y2331899D02*
X2002560D01*
X1995431Y1962899D02*
X2002497D01*
X1969532Y2330999D02*
X2002400D01*
X1981356Y1934099D02*
X2002314D01*
X1988056Y1938599D02*
X2002290D01*
X1988204Y1936799D02*
X2002263D01*
X1996030Y1943099D02*
X2002112D01*
X1985035Y2217599D02*
X2002097D01*
X1994426Y1958399D02*
X2001969D01*
X1996023Y1956599D02*
X2001965D01*
X1986410Y1934999D02*
X2001957D01*
X1987748Y1935899D02*
X2001942D01*
X1994310Y1948499D02*
X2001840D01*
X1995842Y1952099D02*
X2001450D01*
X1995125Y1952999D02*
X2001377D01*
X1975901Y1961999D02*
X2001375D01*
X1996520Y2194199D02*
X2001372D01*
X1987363Y1939499D02*
X2001310D01*
X1996082Y1942199D02*
X2001248D01*
X1999935Y2198699D02*
X2001194D01*
X1975466Y1959299D02*
X2001194D01*
X1996086Y1955699D02*
X2001193D01*
X1995572Y1949399D02*
X2001145D01*
X1996090Y1951199D02*
X2000996D01*
X1995073Y1953899D02*
X2000970D01*
X1976098Y1961099D02*
X2000970D01*
X1995031Y1940399D02*
X2000949D01*
X1995806Y1941299D02*
X2000931D01*
X1975973Y1960199D02*
X2000918D01*
X1995822Y1954799D02*
X2000917D01*
X1996012Y1950299D02*
X2000908D01*
X1984480Y2242799D02*
X2000595D01*
X1962300Y1865699D02*
X2000441D01*
X1962300Y1864799D02*
X2000400D01*
X1962300Y1863899D02*
X2000400D01*
X1962300Y1862999D02*
X2000400D01*
X1986083Y1862099D02*
X2000400D01*
X1987968Y1861199D02*
X2000400D01*
X1988474Y1860299D02*
X2000400D01*
X1988598Y1859399D02*
X2000400D01*
X1988399Y1858499D02*
X2000400D01*
X1987773Y1857599D02*
X2000400D01*
X1991210Y1852199D02*
X2000400D01*
X1962300Y1851299D02*
X2000400D01*
X1962300Y1850399D02*
X2000400D01*
X1962300Y1849499D02*
X2000400D01*
X1962300Y1848599D02*
X2000400D01*
X1962300Y1847699D02*
X2000400D01*
X1962300Y1846799D02*
X2000400D01*
X1962300Y1845899D02*
X2000400D01*
X1962300Y1844999D02*
X2000400D01*
X1962300Y1844099D02*
X2000400D01*
X1962300Y1843199D02*
X2000400D01*
X1962300Y1842299D02*
X2000400D01*
X1962300Y1841399D02*
X2000400D01*
X1962300Y1840499D02*
X2000400D01*
X1962300Y1839599D02*
X2000400D01*
X1962300Y1838699D02*
X2000400D01*
X1962300Y1837799D02*
X2000400D01*
X1962300Y1836899D02*
X2000400D01*
X1962300Y1835999D02*
X2000400D01*
X1962300Y1835099D02*
X2000400D01*
X1962300Y1834199D02*
X2000400D01*
X1962300Y1833299D02*
X2000400D01*
X1991388Y1856699D02*
X2000393D01*
X1996129Y2195099D02*
X2000392D01*
X1995058Y2195999D02*
X2000031D01*
X1998446Y2196899D02*
X2000013D01*
X1972011Y2218499D02*
X2000002D01*
X1992190Y1853099D02*
X1999810D01*
X1980438Y2383199D02*
X1999790D01*
X1992252Y1855799D02*
X1999748D01*
X1912571Y2387699D02*
X1999612D01*
X1992551Y1853999D02*
X1999449D01*
X1992569Y1854899D02*
X1999431D01*
X1991818Y2241899D02*
X1998982D01*
X1913376Y2384099D02*
X1998810D01*
X1913132Y2386799D02*
X1998748D01*
X1972090Y2219399D02*
X1998544D01*
X1913499Y2384999D02*
X1998449D01*
X1913421Y2385899D02*
X1998431D01*
X1964577Y2269799D02*
X1998285D01*
X1997215Y2041199D02*
X1998145D01*
X1955554Y2265299D02*
X1998116D01*
X1977752Y2049299D02*
X1997835D01*
X1902800Y1909799D02*
X1997785D01*
X1992459Y2240999D02*
X1997755D01*
X1990215Y1905299D02*
X1997616D01*
X1982083Y2121299D02*
X1997599D01*
X1985583Y2031299D02*
X1997599D01*
X1958807Y2059199D02*
X1997428D01*
X1971844Y2220299D02*
X1997406D01*
X1964948Y2268899D02*
X1997308D01*
X1911164Y2111399D02*
X1997265D01*
X1963821Y2266199D02*
X1997249D01*
X1977939Y2069099D02*
X1997136D01*
X1911360Y2101499D02*
X1997006D01*
X1964973Y2267999D02*
X1996948D01*
X1964665Y2267099D02*
X1996931D01*
X1987439Y2285099D02*
X1996917D01*
X1910669Y2078999D02*
X1996899D01*
X1910943Y1908899D02*
X1996808D01*
X1991530Y2091599D02*
X1996788D01*
X1992667Y2240099D02*
X1996765D01*
X1913350Y1906199D02*
X1996749D01*
X1990531Y2088899D02*
X1996696D01*
X1911689Y2081699D02*
X1996599D01*
X1911169Y2098799D02*
X1996517D01*
X1971131Y2221199D02*
X1996478D01*
X1912300Y1907999D02*
X1996448D01*
X1912980Y1907099D02*
X1996431D01*
X1977377Y2071799D02*
X1996431D01*
X1995541Y2108699D02*
X1996357D01*
X1993225Y2196899D02*
X1996315D01*
X1987010Y2275199D02*
X1996290D01*
X1911962Y2061899D02*
X1996279D01*
X1980497Y2118599D02*
X1996212D01*
X1961464Y2051999D02*
X1996140D01*
X1985928Y2245499D02*
X1996087D01*
X1977719Y2128499D02*
X1996079D01*
X1978069Y2048399D02*
X1995956D01*
X1992552Y2239199D02*
X1995946D01*
X1981807Y2122199D02*
X1995895D01*
X1985307Y2032199D02*
X1995895D01*
X1975776Y2201399D02*
X1995887D01*
X1956251Y2038499D02*
X1995849D01*
X1959083Y2058299D02*
X1995843D01*
X1912394Y2112299D02*
X1995786D01*
X1977375Y2068199D02*
X1995737D01*
X1940535Y2222099D02*
X1995705D01*
X1959004Y2249999D02*
X1995694D01*
X1912484Y2102399D02*
X1995684D01*
X1912196Y2078099D02*
X1995639D01*
X1991125Y2092499D02*
X1995589D01*
X1912300Y2087999D02*
X1995547D01*
X1912649Y2082599D02*
X1995501D01*
X1912396Y2097899D02*
X1995460D01*
X1960888Y2072699D02*
X1995417D01*
X1912793Y2062799D02*
X1995339D01*
X1987990Y2276099D02*
X1995310D01*
X1975582Y2117699D02*
X1995304D01*
X1912859Y2052899D02*
X1995266D01*
X1992058Y2238299D02*
X1995258D01*
X1993380Y2197799D02*
X1995237D01*
X1993501Y2127599D02*
X1995233D01*
X1955890Y2037599D02*
X1995233D01*
X1978051Y2047499D02*
X1995166D01*
X1993237Y2123099D02*
X1995132D01*
X1984535Y2033099D02*
X1995132D01*
X1959030Y2057399D02*
X1995103D01*
X1976401Y2200499D02*
X1995089D01*
X1913032Y2113199D02*
X1995072D01*
X1959710Y2222999D02*
X1995056D01*
X1912861Y2067299D02*
X1995045D01*
X1986875Y2284199D02*
X1995032D01*
X1986100Y2246399D02*
X1995024D01*
X1913083Y2103299D02*
X1995015D01*
X1912922Y2077199D02*
X1994990D01*
X1990003Y2093399D02*
X1994962D01*
X1988351Y2276999D02*
X1994949D01*
X1912980Y2087099D02*
X1994938D01*
X1913174Y2083499D02*
X1994912D01*
X1913034Y2096999D02*
X1994890D01*
X1971635Y2249099D02*
X1994887D01*
X1913215Y2073599D02*
X1994866D01*
X1993214Y2198699D02*
X1994844D01*
X1913253Y2063699D02*
X1994823D01*
X1975306Y2116799D02*
X1994804D01*
X1992642Y2199599D02*
X1994801D01*
X1984092Y2135699D02*
X1994790D01*
X1913288Y2053799D02*
X1994783D01*
X1954910Y2036699D02*
X1994765D01*
X1977690Y2046599D02*
X1994729D01*
X1913349Y2033999D02*
X1994712D01*
X1958623Y2056499D02*
X1994697D01*
X1913376Y2114099D02*
X1994680D01*
X1990427Y2237399D02*
X1994680D01*
X1913289Y2066399D02*
X1994667D01*
X1913400Y2104199D02*
X1994652D01*
X1913321Y2076299D02*
X1994639D01*
X1985950Y2247299D02*
X1994635D01*
X1913421Y2094299D02*
X1994626D01*
X1913350Y2086199D02*
X1994615D01*
X1957388Y2140199D02*
X1994612D01*
X1913440Y2084399D02*
X1994603D01*
X1985405Y2248199D02*
X1994596D01*
X1913377Y2096099D02*
X1994593D01*
X1913456Y2074499D02*
X1994582D01*
X1913469Y2064599D02*
X1994565D01*
X1974531Y2115899D02*
X1994557D01*
X1913480Y2054699D02*
X1994549D01*
X1913440Y2035799D02*
X1994543D01*
X1913489Y2044799D02*
X1994536D01*
X1976710Y2045699D02*
X1994531D01*
X1913495Y2034899D02*
X1994526D01*
X1913083Y2283299D02*
X1994526D01*
X1957497Y2055599D02*
X1994522D01*
X1913499Y2114999D02*
X1994518D01*
X1913481Y2065499D02*
X1994515D01*
X1913500Y2105099D02*
X1994512D01*
X1913489Y2075399D02*
X1994511D01*
X1961048Y2223899D02*
X1994510D01*
X1913499Y2095199D02*
X1994509D01*
X1913495Y2085299D02*
X1994509D01*
X1971035Y2236499D02*
X1994194D01*
X1961504Y2224799D02*
X1994053D01*
X1983856Y2136599D02*
X1993810D01*
X1971807Y2235599D02*
X1993792D01*
X1958252Y2139299D02*
X1993748D01*
X1972676Y2225699D02*
X1993676D01*
X1913320Y2043899D02*
X1993497D01*
X1912795Y2417399D02*
X1993497D01*
X1972083Y2234699D02*
X1993464D01*
X1983163Y2137499D02*
X1993449D01*
X1958569Y2138399D02*
X1993431D01*
X1973240Y2226599D02*
X1993372D01*
X1972030Y2233799D02*
X1993206D01*
X1973401Y2227499D02*
X1993135D01*
X1981539Y2282399D02*
X1993123D01*
X1971623Y2232899D02*
X1993013D01*
X1912859Y2412899D02*
X1992969D01*
X1956269Y2039399D02*
X1992969D01*
X1973240Y2228399D02*
X1992963D01*
X1988303Y1967399D02*
X1992897D01*
X1970497Y2231999D02*
X1992883D01*
X1972678Y2229299D02*
X1992853D01*
X1961050Y2231099D02*
X1992813D01*
X1961504Y2230199D02*
X1992803D01*
X1911693Y1948499D02*
X1992690D01*
X1988369Y2277899D02*
X1992595D01*
X1983003Y1958399D02*
X1992574D01*
X1950276Y1944899D02*
X1992497D01*
X1967123Y2191499D02*
X1992495D01*
X1983376Y2186099D02*
X1992417D01*
X1912921Y2042999D02*
X1992375D01*
X1913254Y2416499D02*
X1992375D01*
X1988831Y1962899D02*
X1992369D01*
X1902800Y2110499D02*
X1992281D01*
X1913288Y2413799D02*
X1992194D01*
X1955952Y2040299D02*
X1992194D01*
X1982118Y2281499D02*
X1992001D01*
X1912193Y2042099D02*
X1991970D01*
X1913470Y2415599D02*
X1991970D01*
X1961030Y1940399D02*
X1991969D01*
X1983531Y1953899D02*
X1991927D01*
X1913480Y2414699D02*
X1991918D01*
X1955088Y2041199D02*
X1991918D01*
X1980399Y1952999D02*
X1991875D01*
X1988052Y2278799D02*
X1991820D01*
X1989425Y1966499D02*
X1991775D01*
X1967530Y2192399D02*
X1991693D01*
X1982289Y2280599D02*
X1991596D01*
X1989606Y1963799D02*
X1991594D01*
X1987188Y2279699D02*
X1991544D01*
X1967376Y2194199D02*
X1991445D01*
X1902800Y1949399D02*
X1991428D01*
X1967583Y2193299D02*
X1991404D01*
X1984125Y1957499D02*
X1991398D01*
X1950901Y1943999D02*
X1991375D01*
X1989830Y1965599D02*
X1991370D01*
X1988972Y2195099D02*
X1991370D01*
X1913400Y2105999D02*
X1991340D01*
X1989882Y1964699D02*
X1991318D01*
X1961083Y1941299D02*
X1991194D01*
X1984306Y1954799D02*
X1991178D01*
X1979773Y1952099D02*
X1991158D01*
X1949884Y1950299D02*
X1990988D01*
X1984530Y1956599D02*
X1990977D01*
X1960035Y1943099D02*
X1990970D01*
X1902800Y2109599D02*
X1990950D01*
X1960807Y1942199D02*
X1990918D01*
X1984582Y1955699D02*
X1990914D01*
X1981035Y2123099D02*
X1990913D01*
X1950751Y1951199D02*
X1990910D01*
X1910669Y1898999D02*
X1990714D01*
X1979050Y2127599D02*
X1990649D01*
X1913084Y2106899D02*
X1990645D01*
X1985261Y2185199D02*
X1990532D01*
X1911365Y2108699D02*
X1990496D01*
X1912487Y2107799D02*
X1990408D01*
X1985767Y2184299D02*
X1990026D01*
X1902800Y1899899D02*
X1990019D01*
X1978959Y2123999D02*
X1989901D01*
X1979504Y2126699D02*
X1989809D01*
X1970372Y2237399D02*
X1989713D01*
X1979355Y2124899D02*
X1989529D01*
X1979592Y2125799D02*
X1989502D01*
X1976842Y2199599D02*
X1988919D01*
X1912569Y1912499D02*
X1988790D01*
X1987210Y1852199D02*
X1988790D01*
X1911831Y1891799D02*
X1988785D01*
X1981215Y1887299D02*
X1988616D01*
X1987434Y1856699D02*
X1988612D01*
X1984827Y2241899D02*
X1988322D01*
X1982415Y2168999D02*
X1988281D01*
X1971466Y2238299D02*
X1988082D01*
X1913130Y2093399D02*
X1987997D01*
X1902800Y1890899D02*
X1987808D01*
X1913495Y1905299D02*
X1987785D01*
X1912085Y1888199D02*
X1987749D01*
X1984834Y2240999D02*
X1987680D01*
X1902800Y1900799D02*
X1987616D01*
X1982899Y1916999D02*
X1987595D01*
X1983606Y2239199D02*
X1987588D01*
X1984504Y2240099D02*
X1987473D01*
X1910943Y2088899D02*
X1987469D01*
X1913130Y1913399D02*
X1987452D01*
X1902800Y1889999D02*
X1987448D01*
X1910306Y1889099D02*
X1987431D01*
X1982584Y2164499D02*
X1987340D01*
X1982273Y1916099D02*
X1987144D01*
X1982875Y1973699D02*
X1987125D01*
X1913421Y1914299D02*
X1986996D01*
X1983392Y2168099D02*
X1986950D01*
X1966210Y1915199D02*
X1986908D01*
X1912569Y2092499D02*
X1986875D01*
X1913440Y1904399D02*
X1986808D01*
X1911689Y1901699D02*
X1986749D01*
X1986046Y2183399D02*
X1986717D01*
X1902800Y2089799D02*
X1986694D01*
X1983451Y2165399D02*
X1986645D01*
X1983439Y1974599D02*
X1986561D01*
X1942095Y2179799D02*
X1986527D01*
X1983752Y2167199D02*
X1986496D01*
X1911533Y2091599D02*
X1986470D01*
X1913174Y1903499D02*
X1986448D01*
X1912649Y1902599D02*
X1986431D01*
X1902800Y2090699D02*
X1986418D01*
X1983769Y2166299D02*
X1986408D01*
X1983600Y1975499D02*
X1986400D01*
X1980685Y1967399D02*
X1986297D01*
X1941265Y2180699D02*
X1986020D01*
X1962300Y1862099D02*
X1985917D01*
X1981214Y1962899D02*
X1985769D01*
X1985067Y2181599D02*
X1985743D01*
X1976003Y1922399D02*
X1985497D01*
X1978365Y2195099D02*
X1985389D01*
X1978539Y2198699D02*
X1985227D01*
X1981807Y1966499D02*
X1985175D01*
X1981988Y1963799D02*
X1984994D01*
X1980663Y1934999D02*
X1984990D01*
X1983098Y1917899D02*
X1984969D01*
X1975710Y1852199D02*
X1984790D01*
X1978984Y2195999D02*
X1984774D01*
X1982212Y1965599D02*
X1984770D01*
X1982265Y1964699D02*
X1984718D01*
X1979051Y2197799D02*
X1984712D01*
X1983210Y2275199D02*
X1984590D01*
X1979179Y2196899D02*
X1984582D01*
X1957010Y2263499D02*
X1984454D01*
X1983388Y2279699D02*
X1984412D01*
X1959386Y2259899D02*
X1984394D01*
X1977125Y1921499D02*
X1984375D01*
X1983053Y2356199D02*
X1984290D01*
X1982974Y1918799D02*
X1984194D01*
X1902800Y1980899D02*
X1984171D01*
X1902800Y2360699D02*
X1984112D01*
X1958474Y2251799D02*
X1984084D01*
X1961625Y1939499D02*
X1984037D01*
X1962300Y1861199D02*
X1984032D01*
X1980583Y1920599D02*
X1983970D01*
X1982468Y1919699D02*
X1983918D01*
X1958945Y2262599D02*
X1983873D01*
X1959582Y2260799D02*
X1983849D01*
X1976690Y1853099D02*
X1983810D01*
X1959455Y2261699D02*
X1983700D01*
X1963261Y1935899D02*
X1983652D01*
X1962300Y1860299D02*
X1983526D01*
X1962300Y1859399D02*
X1983398D01*
X1962957Y1938599D02*
X1983344D01*
X1928252Y2256299D02*
X1983277D01*
X1964877Y2359799D02*
X1983248D01*
X1976976Y2186099D02*
X1983211D01*
X1963498Y1936799D02*
X1983196D01*
X1913400Y2284199D02*
X1983125D01*
X1963410Y1937699D02*
X1983108D01*
X1922219Y1979999D02*
X1982997D01*
X1965503Y2025899D02*
X1982997D01*
X1981219Y2357999D02*
X1982949D01*
X1965440Y2358899D02*
X1982931D01*
X1957968Y2252699D02*
X1982827D01*
X1969466Y2346299D02*
X1982623D01*
X1923550Y1979099D02*
X1982578D01*
X1913500Y2285099D02*
X1982561D01*
X1928569Y2255399D02*
X1982559D01*
X1972056Y2213099D02*
X1982503D01*
X1966031Y2021399D02*
X1982469D01*
X1924004Y1978199D02*
X1982442D01*
X1913400Y2285999D02*
X1982392D01*
X1956083Y2253599D02*
X1982387D01*
X1928551Y2254499D02*
X1982310D01*
X1913489Y2345399D02*
X1982060D01*
X1911538Y2028599D02*
X1982003D01*
X1913215Y2343599D02*
X1981988D01*
X1971569Y2217599D02*
X1981965D01*
X1913456Y2344499D02*
X1981900D01*
X1966625Y2024999D02*
X1981875D01*
X1966806Y2022299D02*
X1981694D01*
X1971097Y2244599D02*
X1981637D01*
X1972407Y2248199D02*
X1981595D01*
X1978667Y2181599D02*
X1981520D01*
X1967030Y2024099D02*
X1981470D01*
X1912978Y2033099D02*
X1981465D01*
X1977051Y1853999D02*
X1981443D01*
X1978824Y1928699D02*
X1981425D01*
X1967082Y2023199D02*
X1981418D01*
X1972065Y2213999D02*
X1981377D01*
X1978861Y2185199D02*
X1981325D01*
X1978431Y2339099D02*
X1981227D01*
X1970451Y2216699D02*
X1981193D01*
X1972223Y2245499D02*
X1981072D01*
X1972683Y2247299D02*
X1981050D01*
X1912723Y2342699D02*
X1981032D01*
X1962300Y1858499D02*
X1981001D01*
X1913253Y2243699D02*
X1981001D01*
X1911164Y2291399D02*
X1980997D01*
X1961094Y1958399D02*
X1980997D01*
X1971737Y2214899D02*
X1980970D01*
X1971973Y2239199D02*
X1980934D01*
X1970845Y2215799D02*
X1980917D01*
X1972630Y2246399D02*
X1980900D01*
X1979293Y2182499D02*
X1980894D01*
X1902800Y2029499D02*
X1980877D01*
X1979233Y1929599D02*
X1980861D01*
X1979367Y2184299D02*
X1980819D01*
X1912921Y2132999D02*
X1980790D01*
X1937468Y2275199D02*
X1980790D01*
X1979491Y2183399D02*
X1980695D01*
X1912297Y2032199D02*
X1980693D01*
X1978082Y2339999D02*
X1980601D01*
X1979710Y1930499D02*
X1980578D01*
X1911831Y2341799D02*
X1980526D01*
X1902800Y2030399D02*
X1980470D01*
X1913084Y2286899D02*
X1980469D01*
X1977530Y1920599D02*
X1980417D01*
X1910936Y2031299D02*
X1980417D01*
X1977137Y2340899D02*
X1980402D01*
X1977069Y1854899D02*
X1980359D01*
X1962300Y1857599D02*
X1980206D01*
X1912793Y2242799D02*
X1980060D01*
X1972098Y2240099D02*
X1980036D01*
X1942516Y2168999D02*
X1979985D01*
X1976752Y1855799D02*
X1979964D01*
X1975888Y1856699D02*
X1979920D01*
X1902800Y2290499D02*
X1979875D01*
X1960895Y1957499D02*
X1979875D01*
X1958551Y2137499D02*
X1979837D01*
X1974051Y2164499D02*
X1979816D01*
X1935583Y2276099D02*
X1979810D01*
X1965600Y2357999D02*
X1979781D01*
X1971276Y2241899D02*
X1979713D01*
X1971901Y2240999D02*
X1979706D01*
X1912487Y2287799D02*
X1979694D01*
X1902800Y2289599D02*
X1979470D01*
X1940660Y2133899D02*
X1979452D01*
X1913034Y2276999D02*
X1979449D01*
X1978083Y1956599D02*
X1979423D01*
X1911365Y2288699D02*
X1979418D01*
X1912396Y2277899D02*
X1979280D01*
X1958190Y2136599D02*
X1979144D01*
X1977657Y1973699D02*
X1979125D01*
X1977400Y1977299D02*
X1979123D01*
X1942756Y2168099D02*
X1979008D01*
X1941784Y2134799D02*
X1978996D01*
X1974069Y2165399D02*
X1978949D01*
X1957210Y2135699D02*
X1978908D01*
X1913174Y2353499D02*
X1978840D01*
X1912861Y1887299D02*
X1978785D01*
X1967190Y1916099D02*
X1978727D01*
X1934098Y1967399D02*
X1978679D01*
X1972888Y2167199D02*
X1978648D01*
X1973752Y2166299D02*
X1978631D01*
X1912793Y1882799D02*
X1978616D01*
X1977675Y1919699D02*
X1978532D01*
X1975530Y2118599D02*
X1978503D01*
X1965439Y2357099D02*
X1978450D01*
X1975276Y1962899D02*
X1978151D01*
X1913440Y2354399D02*
X1978145D01*
X1967551Y1916999D02*
X1978101D01*
X1964875Y2356199D02*
X1977996D01*
X1960374Y1956599D02*
X1977917D01*
X1913495Y2355299D02*
X1977908D01*
X1976531Y1917899D02*
X1977902D01*
X1912484Y2282399D02*
X1977840D01*
X1913289Y1886399D02*
X1977808D01*
X1911169Y2278799D02*
X1977787D01*
X1913253Y1883699D02*
X1977749D01*
X1933899Y1966499D02*
X1977558D01*
X1963098Y2123099D02*
X1977510D01*
X1913481Y1885499D02*
X1977448D01*
X1913469Y1884599D02*
X1977431D01*
X1975125Y2119499D02*
X1977377D01*
X1960752Y1963799D02*
X1977377D01*
X1962566Y1934999D02*
X1977337D01*
X1912651Y2307599D02*
X1977267D01*
X1911360Y2281499D02*
X1977260D01*
X1902800Y2279699D02*
X1977240D01*
X1962973Y2122199D02*
X1977193D01*
X1933273Y1965599D02*
X1977152D01*
X1912978Y2303099D02*
X1977107D01*
X1959888Y1964699D02*
X1977100D01*
X1902800Y2280599D02*
X1977090D01*
X1974003Y2120399D02*
X1976970D01*
X1962466Y2121299D02*
X1976917D01*
X1971976Y2186099D02*
X1976811D01*
X1954292Y2401199D02*
X1976717D01*
X1961097Y1934099D02*
X1976644D01*
X1954473Y2375999D02*
X1976536D01*
X1913032Y2293199D02*
X1976414D01*
X1913132Y2296799D02*
X1976412D01*
X1960848Y1933199D02*
X1976408D01*
X1913175Y2306699D02*
X1976294D01*
X1911693Y2128499D02*
X1976281D01*
X1913349Y2303999D02*
X1976237D01*
X1959492Y1952099D02*
X1976227D01*
X1954847Y2383199D02*
X1976162D01*
X1954974Y2393999D02*
X1976035D01*
X1960803Y1955699D02*
X1976032D01*
X1913440Y2305799D02*
X1975935D01*
X1913495Y2304899D02*
X1975918D01*
X1913376Y2294099D02*
X1975851D01*
X1913421Y2295899D02*
X1975850D01*
X1912487Y1927799D02*
X1975718D01*
X1913499Y2294999D02*
X1975689D01*
X1960618Y1952999D02*
X1975601D01*
X1961078Y1954799D02*
X1975526D01*
X1970098Y2348099D02*
X1975503D01*
X1961025Y1953899D02*
X1975402D01*
X1955625Y2400299D02*
X1975384D01*
X1962901Y2123999D02*
X1975340D01*
X1955703Y2376899D02*
X1975306D01*
X1912793Y1972799D02*
X1975248D01*
X1960142Y1932299D02*
X1975164D01*
X1955881Y2382299D02*
X1975129D01*
X1973667Y2181599D02*
X1975120D01*
X1955945Y2394899D02*
X1975064D01*
X1912649Y2352599D02*
X1974965D01*
X1912651Y2127599D02*
X1974950D01*
X1973861Y2185199D02*
X1974925D01*
X1970966Y2195099D02*
X1974796D01*
X1913254Y2326499D02*
X1974781D01*
X1956298Y2399399D02*
X1974711D01*
X1956342Y2377799D02*
X1974668D01*
X1962276Y2124899D02*
X1974645D01*
X1902800Y2340899D02*
X1974612D01*
X1911365Y1928699D02*
X1974585D01*
X1956441Y2381399D02*
X1974568D01*
X1956477Y2395799D02*
X1974533D01*
X1961569Y2336399D02*
X1974532D01*
X1913175Y2126699D02*
X1974496D01*
X1913440Y2125799D02*
X1974408D01*
X1911164Y1931399D02*
X1974395D01*
X1969901Y2348999D02*
X1974377D01*
X1956664Y2398499D02*
X1974345D01*
X1956685Y2378699D02*
X1974324D01*
X1913456Y2045699D02*
X1974290D01*
X1956731Y2380499D02*
X1974279D01*
X1956746Y2396699D02*
X1974263D01*
X1956805Y2397599D02*
X1974204D01*
X1956808Y2379599D02*
X1974201D01*
X1911689Y2351699D02*
X1974193D01*
X1971577Y2195999D02*
X1974177D01*
X1902800Y1929599D02*
X1974176D01*
X1902800Y1930499D02*
X1974121D01*
X1962243Y2050199D02*
X1974112D01*
X1963412Y1922399D02*
X1973997D01*
X1969276Y2349899D02*
X1973970D01*
X1924092Y1977299D02*
X1973922D01*
X1902800Y2350799D02*
X1973917D01*
X1971767Y2196899D02*
X1973719D01*
X1902800Y2339999D02*
X1973667D01*
X1913253Y1973699D02*
X1973666D01*
X1961252Y2337299D02*
X1973639D01*
X1960710Y2068199D02*
X1973625D01*
X1961752Y2071799D02*
X1973623D01*
X1967569Y1917899D02*
X1973469D01*
X1913470Y2325599D02*
X1973450D01*
X1912082Y2321999D02*
X1973427D01*
X1910306Y2339099D02*
X1973318D01*
X1913216Y2046599D02*
X1973310D01*
X1960388Y2338199D02*
X1973310D01*
X1971710Y1852199D02*
X1973290D01*
X1923855Y1976399D02*
X1973275D01*
X1962102Y2049299D02*
X1973248D01*
X1913469Y1974599D02*
X1973177D01*
X1912859Y2322899D02*
X1973145D01*
X1971888Y1856699D02*
X1973112D01*
X1923160Y1975499D02*
X1973065D01*
X1961690Y2069099D02*
X1973061D01*
X1962069Y2070899D02*
X1973060D01*
X1913480Y2324699D02*
X1972996D01*
X1912725Y2047499D02*
X1972949D01*
X1961571Y2048399D02*
X1972931D01*
X1913288Y2323799D02*
X1972908D01*
X1962051Y2069999D02*
X1972900D01*
X1964533Y1921499D02*
X1972875D01*
X1967252Y1918799D02*
X1972694D01*
X1964939Y1920599D02*
X1972470D01*
X1966388Y1919699D02*
X1972418D01*
X1911164Y2201399D02*
X1972224D01*
X1902800Y2120399D02*
X1971997D01*
X1965872Y2186099D02*
X1971811D01*
X1912921Y2312999D02*
X1971749D01*
X1961069Y1962899D02*
X1971724D01*
X1913320Y2313899D02*
X1971627D01*
X1902800Y2200499D02*
X1971599D01*
X1960970Y1959299D02*
X1971534D01*
X1913216Y2316599D02*
X1971487D01*
X1913421Y2115899D02*
X1971469D01*
X1902800Y2199599D02*
X1971402D01*
X1913489Y2314799D02*
X1971286D01*
X1913456Y2315699D02*
X1971284D01*
X1961051Y1961999D02*
X1971099D01*
X1911693Y2308499D02*
X1971074D01*
X1960465Y1960199D02*
X1971027D01*
X1910294Y2321099D02*
X1970932D01*
X1960690Y1961099D02*
X1970902D01*
X1902800Y2119499D02*
X1970875D01*
X1913132Y2116799D02*
X1970694D01*
X1912193Y2312099D02*
X1970611D01*
X1912725Y2317499D02*
X1970597D01*
X1911538Y2118599D02*
X1970470D01*
X1912571Y2117699D02*
X1970418D01*
X1902800Y2309399D02*
X1970351D01*
X1947710Y2162699D02*
X1970290D01*
X1902800Y2320199D02*
X1970257D01*
X1910661Y2311199D02*
X1970175D01*
X1911835Y2318399D02*
X1970129D01*
X1938804Y2181599D02*
X1970120D01*
X1947888Y2167199D02*
X1970112D01*
X1902800Y2310299D02*
X1970100D01*
X1902800Y2319299D02*
X1970031D01*
X1965582Y2185199D02*
X1969925D01*
X1912569Y2182499D02*
X1969494D01*
X1964780Y2184299D02*
X1969419D01*
X1948690Y2163599D02*
X1969310D01*
X1913130Y2183399D02*
X1969295D01*
X1962300Y1852199D02*
X1969290D01*
X1948752Y2166299D02*
X1969248D01*
X1962300Y1856699D02*
X1969112D01*
X1913469Y2244599D02*
X1969103D01*
X1949051Y2164499D02*
X1968949D01*
X1949069Y2165399D02*
X1968931D01*
X1961592Y2225699D02*
X1968926D01*
X1961592Y2229299D02*
X1968923D01*
X1961598Y2237399D02*
X1968628D01*
X1960125Y2249099D02*
X1968565D01*
X1961440Y2216699D02*
X1968549D01*
X1959719Y2231999D02*
X1968503D01*
X1961356Y2226599D02*
X1968362D01*
X1961355Y2228399D02*
X1968361D01*
X1962300Y1853099D02*
X1968310D01*
X1962300Y1855799D02*
X1968248D01*
X1960869Y2227499D02*
X1968201D01*
X1938466Y2206799D02*
X1968193D01*
X1961600Y2215799D02*
X1968155D01*
X1959532Y2245499D02*
X1967977D01*
X1961399Y2236499D02*
X1967965D01*
X1962300Y1853999D02*
X1967949D01*
X1962300Y1854899D02*
X1967931D01*
X1941307Y2221199D02*
X1967869D01*
X1960531Y2248199D02*
X1967793D01*
X1954503Y2241899D02*
X1967724D01*
X1938973Y2207699D02*
X1967638D01*
X1960306Y2246399D02*
X1967570D01*
X1912394Y2202299D02*
X1967539D01*
X1961474Y2238299D02*
X1967534D01*
X1960583Y2247299D02*
X1967517D01*
X1960877Y2217599D02*
X1967431D01*
X1912859Y2232899D02*
X1967377D01*
X1961592Y2212199D02*
X1967293D01*
X1961439Y2214899D02*
X1967263D01*
X1911365Y2198699D02*
X1967220D01*
X1960773Y2235599D02*
X1967193D01*
X1913421Y2205899D02*
X1967157D01*
X1941583Y2220299D02*
X1967156D01*
X1955625Y2240999D02*
X1967099D01*
X1961504Y2211299D02*
X1967099D01*
X1960968Y2239199D02*
X1967027D01*
X1941123Y2218499D02*
X1966989D01*
X1913288Y2233799D02*
X1966970D01*
X1902800Y2330999D02*
X1966955D01*
X1961356Y2213099D02*
X1966944D01*
X1960959Y2213999D02*
X1966935D01*
X1961551Y2335499D02*
X1966926D01*
X1913480Y2234699D02*
X1966917D01*
X1941530Y2219399D02*
X1966910D01*
X1959083Y2240099D02*
X1966902D01*
X1939098Y2208599D02*
X1966885D01*
X1913032Y2203199D02*
X1966847D01*
X1913400Y2195999D02*
X1966760D01*
X1912487Y2197799D02*
X1966702D01*
X1913499Y2204999D02*
X1966701D01*
X1961048Y2210399D02*
X1966681D01*
X1959710Y2209499D02*
X1966619D01*
X1913376Y2204099D02*
X1966612D01*
X1913084Y2196899D02*
X1966570D01*
X1911962Y2331899D02*
X1966026D01*
X1961190Y2334599D02*
X1966016D01*
X1941951Y2159999D02*
X1965781D01*
X1902800Y2349899D02*
X1965724D01*
X1912793Y2332799D02*
X1965684D01*
X1960210Y2333699D02*
X1965681D01*
X1913321Y2346299D02*
X1965534D01*
X1910669Y2348999D02*
X1965099D01*
X1912922Y2347199D02*
X1965027D01*
X1912196Y2348099D02*
X1964902D01*
X1942278Y2155499D02*
X1964840D01*
X1942475Y2159099D02*
X1964450D01*
X1942649Y2156399D02*
X1964145D01*
X1941050Y2190599D02*
X1964003D01*
X1942740Y2158199D02*
X1963996D01*
X1942795Y2157299D02*
X1963908D01*
X1960710Y1915199D02*
X1963790D01*
X1913421Y2025899D02*
X1963497D01*
X1913500Y2195099D02*
X1963465D01*
X1911164Y2021399D02*
X1962969D01*
X1939719Y2191499D02*
X1962877D01*
X1961690Y1916099D02*
X1962810D01*
X1913400Y2194199D02*
X1962693D01*
X1912484Y2192399D02*
X1962470D01*
X1913083Y2193299D02*
X1962417D01*
X1913499Y2024999D02*
X1962375D01*
X1941592Y2188799D02*
X1962217D01*
X1912394Y2022299D02*
X1962194D01*
X1913376Y2024099D02*
X1961970D01*
X1913032Y2023199D02*
X1961918D01*
X1913421Y2184299D02*
X1961807D01*
X1912484Y1922399D02*
X1961406D01*
X1902800Y2270699D02*
X1961231D01*
X1941355Y2187899D02*
X1961146D01*
X1913350Y2356199D02*
X1961125D01*
X1902800Y2359799D02*
X1961123D01*
X1913499Y2185199D02*
X1961004D01*
X1913350Y2266199D02*
X1960980D01*
X1940660Y2186999D02*
X1960756D01*
X1913377Y2186099D02*
X1960715D01*
X1912980Y2357099D02*
X1960561D01*
X1910943Y2358899D02*
X1960560D01*
X1912300Y2357999D02*
X1960400D01*
X1911360Y1921499D02*
X1960284D01*
X1902800Y2269799D02*
X1960224D01*
X1912980Y2267099D02*
X1960136D01*
X1902800Y1920599D02*
X1959879D01*
X1910943Y2268899D02*
X1959854D01*
X1912300Y2267999D02*
X1959828D01*
X1913034Y2366999D02*
X1959781D01*
X1902800Y1880099D02*
X1959417D01*
X1956030Y2240099D02*
X1958917D01*
X1912569Y2362499D02*
X1958840D01*
X1913495Y2124899D02*
X1958724D01*
X1910936Y2121299D02*
X1958534D01*
X1913377Y2366099D02*
X1958450D01*
X1950751Y1937699D02*
X1958402D01*
X1912921Y2222999D02*
X1958290D01*
X1938901Y2209499D02*
X1958290D01*
X1912085Y2068199D02*
X1958290D01*
X1913499Y1915199D02*
X1958290D01*
X1912082Y2231999D02*
X1958281D01*
X1913130Y2363399D02*
X1958145D01*
X1912723Y2072699D02*
X1958112D01*
X1902800Y1919699D02*
X1958112D01*
X1913349Y2123999D02*
X1958099D01*
X1912297Y2122199D02*
X1958027D01*
X1913499Y2365199D02*
X1957996D01*
X1913421Y2364299D02*
X1957908D01*
X1912978Y2123099D02*
X1957902D01*
X1912082Y2051999D02*
X1957822D01*
X1913253Y2333699D02*
X1957790D01*
X1950411Y1936799D02*
X1957731D01*
X1907356Y1875599D02*
X1957727D01*
X1911835Y2048399D02*
X1957715D01*
X1912085Y2338199D02*
X1957612D01*
X1902800Y1879199D02*
X1957532D01*
X1951069Y1938599D02*
X1957503D01*
X1951069Y1952099D02*
X1957499D01*
X1910306Y2069099D02*
X1957310D01*
X1913377Y1916099D02*
X1957310D01*
X1911831Y2071799D02*
X1957248D01*
X1911169Y1918799D02*
X1957248D01*
X1913470Y2235599D02*
X1957227D01*
X1910294Y2051099D02*
X1957225D01*
X1902800Y2049299D02*
X1957184D01*
X1912725Y2227499D02*
X1957131D01*
X1939997Y2217599D02*
X1957123D01*
X1913480Y1964699D02*
X1957112D01*
X1906663Y1876499D02*
X1957101D01*
X1902800Y2050199D02*
X1957044D01*
X1913349Y2213999D02*
X1957041D01*
X1956175Y2239199D02*
X1957032D01*
X1902800Y1878299D02*
X1957026D01*
X1951098Y1943099D02*
X1956965D01*
X1913320Y2223899D02*
X1956952D01*
X1938276Y2210399D02*
X1956952D01*
X1910294Y2231099D02*
X1956950D01*
X1902800Y2069999D02*
X1956949D01*
X1913034Y1916999D02*
X1956949D01*
X1902800Y2070899D02*
X1956931D01*
X1912396Y1917899D02*
X1956931D01*
X1902800Y1877399D02*
X1956902D01*
X1912394Y1932299D02*
X1956858D01*
X1913469Y2334599D02*
X1956810D01*
X1912861Y2337299D02*
X1956748D01*
X1911835Y2228399D02*
X1956645D01*
X1913216Y2226599D02*
X1956644D01*
X1912978Y2213099D02*
X1956644D01*
X1947876Y1956599D02*
X1956617D01*
X1913254Y2236499D02*
X1956601D01*
X1913495Y2214899D02*
X1956561D01*
X1913175Y2216699D02*
X1956560D01*
X1951082Y1960199D02*
X1956526D01*
X1913489Y2224799D02*
X1956496D01*
X1910936Y2211299D02*
X1956496D01*
X1902800Y2230199D02*
X1956496D01*
X1913481Y2245499D02*
X1956469D01*
X1913481Y2335499D02*
X1956449D01*
X1950940Y1935899D02*
X1956438D01*
X1913289Y2336399D02*
X1956431D01*
X1902800Y2229299D02*
X1956408D01*
X1913456Y2225699D02*
X1956408D01*
X1912297Y2212199D02*
X1956408D01*
X1955031Y2237399D02*
X1956402D01*
X1913440Y2215799D02*
X1956400D01*
X1951052Y1939499D02*
X1956377D01*
X1951052Y1952999D02*
X1956373D01*
X1951030Y1961099D02*
X1956310D01*
X1913288Y1963799D02*
X1956248D01*
X1950973Y1942199D02*
X1956193D01*
X1947803Y1955699D02*
X1956188D01*
X1950375Y1933199D02*
X1956152D01*
X1947709Y1957499D02*
X1956096D01*
X1950806Y1959299D02*
X1956021D01*
X1951100Y1934999D02*
X1955992D01*
X1950692Y1940399D02*
X1955970D01*
X1950692Y1953899D02*
X1955966D01*
X1950625Y1961999D02*
X1955949D01*
X1949503Y1962899D02*
X1955931D01*
X1928190Y2253599D02*
X1955917D01*
X1950468Y1941299D02*
X1955917D01*
X1949715Y1954799D02*
X1955913D01*
X1950939Y1934099D02*
X1955909D01*
X1950031Y1958399D02*
X1955898D01*
X1913289Y2246399D02*
X1955695D01*
X1913470Y2055599D02*
X1955503D01*
X1912085Y2248199D02*
X1955427D01*
X1912861Y2247299D02*
X1955418D01*
X1910669Y2258999D02*
X1955202D01*
X1902800Y2060099D02*
X1954965D01*
X1942383Y2135699D02*
X1954790D01*
X1941787Y2140199D02*
X1954612D01*
X1902800Y2259899D02*
X1954581D01*
X1913254Y2056499D02*
X1954377D01*
X1910306Y2249099D02*
X1954227D01*
X1909504Y2059199D02*
X1954193D01*
X1927210Y2252699D02*
X1954032D01*
X1912795Y2057399D02*
X1953970D01*
X1911965Y2058299D02*
X1953917D01*
X1942700Y2136599D02*
X1953810D01*
X1942384Y2139299D02*
X1953748D01*
X1906399Y2249999D02*
X1953601D01*
X1911831Y2251799D02*
X1953526D01*
X1942800Y2137499D02*
X1953449D01*
X1942700Y2138399D02*
X1953431D01*
X1906598Y2250899D02*
X1953402D01*
X1902800Y2260799D02*
X1952967D01*
X1912082Y2141999D02*
X1952790D01*
X1913495Y2265299D02*
X1952698D01*
X1937003Y2241899D02*
X1952497D01*
X1913175Y2036699D02*
X1952490D01*
X1910661Y2041199D02*
X1952312D01*
X1937531Y2237399D02*
X1951969D01*
X1911689Y2261699D02*
X1951953D01*
X1913440Y2264399D02*
X1951859D01*
X1942676Y2146499D02*
X1951837D01*
X1912649Y2262599D02*
X1951580D01*
X1913174Y2263499D02*
X1951553D01*
X1912651Y2037599D02*
X1951510D01*
X1912859Y2142899D02*
X1951452D01*
X1902800Y2040299D02*
X1951448D01*
X1938125Y2240999D02*
X1951375D01*
X1938306Y2238299D02*
X1951194D01*
X1911693Y2038499D02*
X1951149D01*
X1942332Y2145599D02*
X1951144D01*
X1902800Y2039399D02*
X1951131D01*
X1910661Y2401199D02*
X1951127D01*
X1940464Y2143799D02*
X1950996D01*
X1938530Y2240099D02*
X1950970D01*
X1926899Y2375999D02*
X1950946D01*
X1938582Y2239199D02*
X1950918D01*
X1941694Y2144699D02*
X1950908D01*
X1913032Y2383199D02*
X1950572D01*
X1913349Y2393999D02*
X1950445D01*
X1902800Y2400299D02*
X1949793D01*
X1927098Y2376899D02*
X1949716D01*
X1912394Y2382299D02*
X1949538D01*
X1913495Y2394899D02*
X1949474D01*
X1902800Y2399399D02*
X1949120D01*
X1926974Y2377799D02*
X1949077D01*
X1911164Y2381399D02*
X1948978D01*
X1913440Y2395799D02*
X1948942D01*
X1911693Y2398499D02*
X1948755D01*
X1926468Y2378699D02*
X1948734D01*
X1902800Y2380499D02*
X1948688D01*
X1913175Y2396699D02*
X1948673D01*
X1912651Y2397599D02*
X1948613D01*
X1924583Y2379599D02*
X1948611D01*
X1912859Y1962899D02*
X1947497D01*
X1910943Y2448899D02*
X1947224D01*
X1902800Y1950299D02*
X1947116D01*
X1913495Y2445299D02*
X1947034D01*
X1913495Y1944899D02*
X1946724D01*
X1913032Y1933199D02*
X1946625D01*
X1912300Y2447999D02*
X1946599D01*
X1913132Y1936799D02*
X1946589D01*
X1910936Y1941299D02*
X1946532D01*
X1913350Y2446199D02*
X1946527D01*
X1912980Y2447099D02*
X1946402D01*
X1912082Y1961999D02*
X1946375D01*
X1902800Y1940399D02*
X1946308D01*
X1910661Y1951199D02*
X1946249D01*
X1912571Y1937699D02*
X1946249D01*
X1913349Y1943999D02*
X1946099D01*
X1902800Y1959299D02*
X1946064D01*
X1913376Y1934099D02*
X1946061D01*
X1913421Y1935899D02*
X1946060D01*
X1912297Y1942199D02*
X1946027D01*
X1910294Y1961099D02*
X1945970D01*
X1912921Y1952999D02*
X1945948D01*
X1902800Y1939499D02*
X1945948D01*
X1912193Y1952099D02*
X1945931D01*
X1911538Y1938599D02*
X1945931D01*
X1902800Y1960199D02*
X1945918D01*
X1912978Y1943099D02*
X1945902D01*
X1913499Y1934999D02*
X1945900D01*
X1912723Y2162699D02*
X1945290D01*
X1942789Y2167199D02*
X1945112D01*
X1913320Y1953899D02*
X1944446D01*
X1939961Y2163599D02*
X1944310D01*
X1942620Y2166299D02*
X1944248D01*
X1941493Y2164499D02*
X1943949D01*
X1942221Y2165399D02*
X1943931D01*
X1911835Y1958399D02*
X1943676D01*
X1913489Y1954799D02*
X1943207D01*
X1912725Y1957499D02*
X1942951D01*
X1913456Y1955699D02*
X1942773D01*
X1913216Y1956599D02*
X1942699D01*
X1911533Y2181599D02*
X1938596D01*
X1911360Y2191499D02*
X1938281D01*
X1912651Y2217599D02*
X1938003D01*
X1913174Y2173499D02*
X1937806D01*
X1912193Y2222099D02*
X1937465D01*
X1913215Y2163599D02*
X1937439D01*
X1913034Y2186999D02*
X1937340D01*
X1913253Y2153699D02*
X1937164D01*
X1902800Y2190599D02*
X1936950D01*
X1913288Y2143799D02*
X1936936D01*
X1911693Y2218499D02*
X1936877D01*
X1913320Y2133899D02*
X1936740D01*
X1910294Y2141099D02*
X1936735D01*
X1910661Y2221199D02*
X1936693D01*
X1912396Y2187899D02*
X1936645D01*
X1902800Y2150999D02*
X1936562D01*
X1902800Y2189699D02*
X1936496D01*
X1902800Y2219399D02*
X1936470D01*
X1902800Y2220299D02*
X1936417D01*
X1911169Y2188799D02*
X1936408D01*
X1902800Y2160899D02*
X1936407D01*
X1902800Y2170799D02*
X1936265D01*
X1902800Y2180699D02*
X1936135D01*
X1913440Y2174399D02*
X1936018D01*
X1913456Y2164499D02*
X1935907D01*
X1913469Y2154599D02*
X1935803D01*
X1913480Y2144699D02*
X1935706D01*
X1913489Y2134799D02*
X1935616D01*
X1902800Y2140199D02*
X1935613D01*
X1902800Y2150099D02*
X1935529D01*
X1902800Y2159999D02*
X1935449D01*
X1913377Y2276099D02*
X1935417D01*
X1902800Y2169899D02*
X1935375D01*
X1902800Y2179799D02*
X1935305D01*
X1913495Y2175299D02*
X1935241D01*
X1913489Y2165399D02*
X1935179D01*
X1913481Y2155499D02*
X1935122D01*
X1913470Y2145599D02*
X1935068D01*
X1913456Y2135699D02*
X1935017D01*
X1902800Y2139299D02*
X1935016D01*
X1911962Y2241899D02*
X1934997D01*
X1909504Y2149199D02*
X1934968D01*
X1910306Y2159099D02*
X1934925D01*
X1910669Y2168999D02*
X1934884D01*
X1910943Y2178899D02*
X1934846D01*
X1913350Y2176199D02*
X1934812D01*
X1913321Y2166299D02*
X1934780D01*
X1913289Y2156399D02*
X1934751D01*
X1913254Y2146499D02*
X1934724D01*
X1902800Y2210399D02*
X1934724D01*
X1913216Y2136599D02*
X1934700D01*
X1911835Y2138399D02*
X1934700D01*
X1911965Y2148299D02*
X1934679D01*
X1912085Y2158199D02*
X1934660D01*
X1912196Y2168099D02*
X1934644D01*
X1912300Y2177999D02*
X1934630D01*
X1912980Y2177099D02*
X1934620D01*
X1912922Y2167199D02*
X1934611D01*
X1912861Y2157299D02*
X1934605D01*
X1912795Y2147399D02*
X1934601D01*
X1912725Y2137499D02*
X1934600D01*
X1913132Y2206799D02*
X1934534D01*
X1912795Y2237399D02*
X1934469D01*
X1902800Y2209499D02*
X1934099D01*
X1912571Y2207699D02*
X1934027D01*
X1911538Y2208599D02*
X1933902D01*
X1902800Y2240999D02*
X1933875D01*
X1911533Y2271599D02*
X1933727D01*
X1911965Y2238299D02*
X1933694D01*
X1913499Y2275199D02*
X1933532D01*
X1902800Y2240099D02*
X1933470D01*
X1909504Y2239199D02*
X1933418D01*
X1912569Y2272499D02*
X1933101D01*
X1913421Y2274299D02*
X1933026D01*
X1913130Y2273399D02*
X1932902D01*
X1907598Y1970099D02*
X1931417D01*
X1913470Y1965599D02*
X1929727D01*
X1909504Y1969199D02*
X1929532D01*
X1913254Y1966499D02*
X1929101D01*
X1911965Y1968299D02*
X1929026D01*
X1912795Y1967399D02*
X1928902D01*
X1912723Y2252699D02*
X1924790D01*
X1912922Y2257199D02*
X1924612D01*
X1902800Y2379599D02*
X1924417D01*
X1913215Y2253599D02*
X1923810D01*
X1913321Y2256299D02*
X1923748D01*
X1913456Y2254499D02*
X1923449D01*
X1913489Y2255399D02*
X1923431D01*
X1918083Y2375099D02*
X1922727D01*
X1911365Y2378699D02*
X1922532D01*
X1913400Y2375999D02*
X1922101D01*
X1912487Y2377799D02*
X1922026D01*
X1913084Y2376899D02*
X1921902D01*
X1902800Y1979999D02*
X1920781D01*
X1913481Y1975499D02*
X1919840D01*
X1910306Y1979099D02*
X1919450D01*
X1913289Y1976399D02*
X1919145D01*
X1912085Y1978199D02*
X1918996D01*
X1912861Y1977299D02*
X1918908D01*
X1913500Y2375099D02*
X1917917D01*
X1902800Y2370599D02*
X1916227D01*
X1913400Y2374199D02*
X1916032D01*
X1911360Y2371499D02*
X1915601D01*
X1913083Y2373299D02*
X1915526D01*
X1912484Y2372399D02*
X1915402D01*
X1902800Y2419199D02*
X1909296D01*
X1902800Y2329199D02*
X1909296D01*
X1902800Y2239199D02*
X1909296D01*
X1902800Y2149199D02*
X1909296D01*
X1902800Y2059199D02*
X1909296D01*
X1907661Y1969199D02*
X1909296D01*
X1902800Y2411099D02*
X1908506D01*
X1902800Y2321099D02*
X1908506D01*
X1902800Y2231099D02*
X1908506D01*
X1902800Y2141099D02*
X1908506D01*
X1902800Y2051099D02*
X1908506D01*
X1902800Y1961099D02*
X1908506D01*
X1902800Y2429099D02*
X1908494D01*
X1902800Y2339099D02*
X1908494D01*
X1905773Y2249099D02*
X1908494D01*
X1902800Y2159099D02*
X1908494D01*
X1902800Y2069099D02*
X1908494D01*
X1902800Y1979099D02*
X1908494D01*
X1902800Y1889099D02*
X1908494D01*
X1902800Y2401199D02*
X1908139D01*
X1902800Y2311199D02*
X1908139D01*
X1902800Y2221199D02*
X1908139D01*
X1902800Y2131199D02*
X1908139D01*
X1902800Y2041199D02*
X1908139D01*
X1902800Y1951199D02*
X1908139D01*
X1902800Y2438999D02*
X1908131D01*
X1902800Y2348999D02*
X1908131D01*
X1902800Y2258999D02*
X1908131D01*
X1902800Y2168999D02*
X1908131D01*
X1902800Y2078999D02*
X1908131D01*
X1902800Y1988999D02*
X1908131D01*
X1902800Y1898999D02*
X1908131D01*
X1902800Y2391299D02*
X1907864D01*
X1902800Y2301299D02*
X1907864D01*
X1902800Y2211299D02*
X1907864D01*
X1902800Y2121299D02*
X1907864D01*
X1902800Y2031299D02*
X1907864D01*
X1902800Y1941299D02*
X1907864D01*
X1902800Y2448899D02*
X1907857D01*
X1902800Y2358899D02*
X1907857D01*
X1902800Y2268899D02*
X1907857D01*
X1902800Y2178899D02*
X1907857D01*
X1902800Y2088899D02*
X1907857D01*
X1902800Y1998899D02*
X1907857D01*
X1902800Y1908899D02*
X1907857D01*
X1902800Y2381399D02*
X1907636D01*
X1902800Y2291399D02*
X1907636D01*
X1902800Y2201399D02*
X1907636D01*
X1902800Y2111399D02*
X1907636D01*
X1902800Y2021399D02*
X1907636D01*
X1902800Y1931399D02*
X1907636D01*
X1902800Y2458799D02*
X1907631D01*
X1902800Y2368799D02*
X1907631D01*
X1902800Y2278799D02*
X1907631D01*
X1902800Y2188799D02*
X1907631D01*
X1902800Y2098799D02*
X1907631D01*
X1902800Y2008799D02*
X1907631D01*
X1902800Y1918799D02*
X1907631D01*
X1902800Y2371499D02*
X1907440D01*
X1902800Y2281499D02*
X1907440D01*
X1902800Y2191499D02*
X1907440D01*
X1902800Y2101499D02*
X1907440D01*
X1902800Y2011499D02*
X1907440D01*
X1902800Y1921499D02*
X1907440D01*
X1902800Y2378699D02*
X1907435D01*
X1902800Y2288699D02*
X1907435D01*
X1902800Y2198699D02*
X1907435D01*
X1902800Y2108699D02*
X1907435D01*
X1902800Y2018699D02*
X1907435D01*
X1902800Y1928699D02*
X1907435D01*
X1902800Y2451599D02*
X1907267D01*
X1902800Y2361599D02*
X1907267D01*
X1902800Y2271599D02*
X1907267D01*
X1902800Y2181599D02*
X1907267D01*
X1902800Y2091599D02*
X1907267D01*
X1902800Y2001599D02*
X1907267D01*
X1902800Y1911599D02*
X1907267D01*
X1902800Y2388599D02*
X1907262D01*
X1902800Y2298599D02*
X1907262D01*
X1902800Y2208599D02*
X1907262D01*
X1902800Y2118599D02*
X1907262D01*
X1902800Y2028599D02*
X1907262D01*
X1902800Y1938599D02*
X1907262D01*
X1902800Y2441699D02*
X1907111D01*
X1902800Y2351699D02*
X1907111D01*
X1902800Y2261699D02*
X1907111D01*
X1902800Y2171699D02*
X1907111D01*
X1902800Y2081699D02*
X1907111D01*
X1902800Y1991699D02*
X1907111D01*
X1902800Y1901699D02*
X1907111D01*
X1902800Y2398499D02*
X1907107D01*
X1902800Y2308499D02*
X1907107D01*
X1902800Y2218499D02*
X1907107D01*
X1902800Y2128499D02*
X1907107D01*
X1902800Y2038499D02*
X1907107D01*
X1902800Y1948499D02*
X1907107D01*
X1902800Y2431799D02*
X1906969D01*
X1902800Y2341799D02*
X1906969D01*
X1902800Y2161799D02*
X1906969D01*
X1902800Y2071799D02*
X1906969D01*
X1902800Y1981799D02*
X1906969D01*
X1902800Y1891799D02*
X1906969D01*
X1902800Y2408399D02*
X1906965D01*
X1902800Y2318399D02*
X1906965D01*
X1902800Y2228399D02*
X1906965D01*
X1902800Y2138399D02*
X1906965D01*
X1902800Y2048399D02*
X1906965D01*
X1902800Y1958399D02*
X1906965D01*
X1902800Y2421899D02*
X1906838D01*
X1902800Y2331899D02*
X1906838D01*
X1902800Y2241899D02*
X1906838D01*
X1902800Y2151899D02*
X1906838D01*
X1902800Y2061899D02*
X1906838D01*
X1902800Y1881899D02*
X1906838D01*
X1902800Y2418299D02*
X1906835D01*
X1902800Y2328299D02*
X1906835D01*
X1902800Y2238299D02*
X1906835D01*
X1902800Y2148299D02*
X1906835D01*
X1902800Y2058299D02*
X1906835D01*
X1902800Y2411999D02*
X1906718D01*
X1902800Y2321999D02*
X1906718D01*
X1902800Y2231999D02*
X1906718D01*
X1902800Y2141999D02*
X1906718D01*
X1902800Y2051999D02*
X1906718D01*
X1902800Y1961999D02*
X1906718D01*
X1902800Y2428199D02*
X1906715D01*
X1902800Y2338199D02*
X1906715D01*
X1902850Y2248199D02*
X1906715D01*
X1902800Y2158199D02*
X1906715D01*
X1902800Y2068199D02*
X1906715D01*
X1902800Y1978199D02*
X1906715D01*
X1902800Y1888199D02*
X1906715D01*
X1902800Y2402099D02*
X1906607D01*
X1902800Y2312099D02*
X1906607D01*
X1902800Y2222099D02*
X1906607D01*
X1902800Y2132099D02*
X1906607D01*
X1902800Y2042099D02*
X1906607D01*
X1902800Y1952099D02*
X1906607D01*
X1902800Y2438099D02*
X1906604D01*
X1902800Y2348099D02*
X1906604D01*
X1902800Y2258099D02*
X1906604D01*
X1902800Y2168099D02*
X1906604D01*
X1902800Y2078099D02*
X1906604D01*
X1902800Y1988099D02*
X1906604D01*
X1902800Y1898099D02*
X1906604D01*
X1902800Y2392199D02*
X1906503D01*
X1902800Y2302199D02*
X1906503D01*
X1902800Y2212199D02*
X1906503D01*
X1902800Y2122199D02*
X1906503D01*
X1902800Y2032199D02*
X1906503D01*
X1902800Y1942199D02*
X1906503D01*
X1902800Y2447999D02*
X1906500D01*
X1902800Y2357999D02*
X1906500D01*
X1902800Y2267999D02*
X1906500D01*
X1902800Y2177999D02*
X1906500D01*
X1902800Y2087999D02*
X1906500D01*
X1902800Y1997999D02*
X1906500D01*
X1902800Y1907999D02*
X1906500D01*
X1902800Y2382299D02*
X1906406D01*
X1902800Y2292299D02*
X1906406D01*
X1902800Y2202299D02*
X1906406D01*
X1902800Y2112299D02*
X1906406D01*
X1902800Y2022299D02*
X1906406D01*
X1902800Y1932299D02*
X1906406D01*
X1902800Y2457899D02*
X1906404D01*
X1902800Y2367899D02*
X1906404D01*
X1902800Y2277899D02*
X1906404D01*
X1902800Y2187899D02*
X1906404D01*
X1902800Y2097899D02*
X1906404D01*
X1902800Y2007899D02*
X1906404D01*
X1902800Y1917899D02*
X1906404D01*
X1902800Y2372399D02*
X1906316D01*
X1902800Y2282399D02*
X1906316D01*
X1902800Y2192399D02*
X1906316D01*
X1902800Y2102399D02*
X1906316D01*
X1902800Y2012399D02*
X1906316D01*
X1902800Y1922399D02*
X1906316D01*
X1902800Y2377799D02*
X1906313D01*
X1902800Y2287799D02*
X1906313D01*
X1902800Y2197799D02*
X1906313D01*
X1902800Y2107799D02*
X1906313D01*
X1902800Y2017799D02*
X1906313D01*
X1902800Y1927799D02*
X1906313D01*
X1902800Y2452499D02*
X1906231D01*
X1902800Y2362499D02*
X1906231D01*
X1902800Y2272499D02*
X1906231D01*
X1902800Y2182499D02*
X1906231D01*
X1902800Y2092499D02*
X1906231D01*
X1902800Y2002499D02*
X1906231D01*
X1902800Y1912499D02*
X1906231D01*
X1902800Y2387699D02*
X1906229D01*
X1902800Y2297699D02*
X1906229D01*
X1902800Y2207699D02*
X1906229D01*
X1902800Y2117699D02*
X1906229D01*
X1902800Y2027699D02*
X1906229D01*
X1902800Y1937699D02*
X1906229D01*
X1902800Y2442599D02*
X1906151D01*
X1902800Y2352599D02*
X1906151D01*
X1902800Y2262599D02*
X1906151D01*
X1902800Y2172599D02*
X1906151D01*
X1902800Y2082599D02*
X1906151D01*
X1902800Y1992599D02*
X1906151D01*
X1902800Y1902599D02*
X1906151D01*
X1902800Y2397599D02*
X1906149D01*
X1902800Y2307599D02*
X1906149D01*
X1902800Y2217599D02*
X1906149D01*
X1902800Y2127599D02*
X1906149D01*
X1902800Y2037599D02*
X1906149D01*
X1902800Y1947599D02*
X1906149D01*
X1902800Y2432699D02*
X1906077D01*
X1902800Y2342699D02*
X1906077D01*
X1902800Y2162699D02*
X1906077D01*
X1902800Y2072699D02*
X1906077D01*
X1902800Y1982699D02*
X1906077D01*
X1902800Y1892699D02*
X1906077D01*
X1902800Y2407499D02*
X1906075D01*
X1902800Y2317499D02*
X1906075D01*
X1902800Y2227499D02*
X1906075D01*
X1902800Y2137499D02*
X1906075D01*
X1902800Y2047499D02*
X1906075D01*
X1902800Y1957499D02*
X1906075D01*
X1902800Y2422799D02*
X1906007D01*
X1902800Y2332799D02*
X1906007D01*
X1902800Y2242799D02*
X1906007D01*
X1902800Y2152799D02*
X1906007D01*
X1902800Y2062799D02*
X1906007D01*
X1902800Y1882799D02*
X1906007D01*
X1902800Y2417399D02*
X1906005D01*
X1902800Y2327399D02*
X1906005D01*
X1902800Y2237399D02*
X1906005D01*
X1902800Y2147399D02*
X1906005D01*
X1902800Y2057399D02*
X1906005D01*
X1902800Y2412899D02*
X1905941D01*
X1902800Y2322899D02*
X1905941D01*
X1902800Y2232899D02*
X1905941D01*
X1902800Y2142899D02*
X1905941D01*
X1902800Y2052899D02*
X1905941D01*
X1902800Y1962899D02*
X1905941D01*
X1902800Y2427299D02*
X1905939D01*
X1902800Y2337299D02*
X1905939D01*
X1902800Y2247299D02*
X1905939D01*
X1902800Y2157299D02*
X1905939D01*
X1902800Y2067299D02*
X1905939D01*
X1902800Y1977299D02*
X1905939D01*
X1902800Y1887299D02*
X1905939D01*
X1902800Y2402999D02*
X1905879D01*
X1902800Y2312999D02*
X1905879D01*
X1902800Y2222999D02*
X1905879D01*
X1902800Y2132999D02*
X1905879D01*
X1902800Y2042999D02*
X1905879D01*
X1902800Y1952999D02*
X1905879D01*
X1902800Y2437199D02*
X1905878D01*
X1902800Y2347199D02*
X1905878D01*
X1903888Y2257199D02*
X1905878D01*
X1902800Y2167199D02*
X1905878D01*
X1902800Y2077199D02*
X1905878D01*
X1902800Y1987199D02*
X1905878D01*
X1902800Y1897199D02*
X1905878D01*
X1902800Y2393099D02*
X1905822D01*
X1902800Y2303099D02*
X1905822D01*
X1902800Y2213099D02*
X1905822D01*
X1902800Y2123099D02*
X1905822D01*
X1902800Y2033099D02*
X1905822D01*
X1902800Y1943099D02*
X1905822D01*
X1902800Y2447099D02*
X1905820D01*
X1902800Y2357099D02*
X1905820D01*
X1902800Y2267099D02*
X1905820D01*
X1902800Y2177099D02*
X1905820D01*
X1902800Y2087099D02*
X1905820D01*
X1902800Y1997099D02*
X1905820D01*
X1902800Y1907099D02*
X1905820D01*
X1902800Y2383199D02*
X1905768D01*
X1902800Y2293199D02*
X1905768D01*
X1902800Y2203199D02*
X1905768D01*
X1902800Y2113199D02*
X1905768D01*
X1902800Y2023199D02*
X1905768D01*
X1902800Y1933199D02*
X1905768D01*
X1902800Y2456999D02*
X1905766D01*
X1902800Y2366999D02*
X1905766D01*
X1902800Y2276999D02*
X1905766D01*
X1902800Y2186999D02*
X1905766D01*
X1902800Y2096999D02*
X1905766D01*
X1902800Y2006999D02*
X1905766D01*
X1902800Y1916999D02*
X1905766D01*
X1902800Y2373299D02*
X1905717D01*
X1902800Y2283299D02*
X1905717D01*
X1902800Y2193299D02*
X1905717D01*
X1902800Y2103299D02*
X1905717D01*
X1902800Y2013299D02*
X1905717D01*
X1902800Y1923299D02*
X1905717D01*
X1902800Y2376899D02*
X1905716D01*
X1902800Y2286899D02*
X1905716D01*
X1902800Y2196899D02*
X1905716D01*
X1902800Y2106899D02*
X1905716D01*
X1902800Y2016899D02*
X1905716D01*
X1902800Y1926899D02*
X1905716D01*
X1902800Y1972799D02*
X1905670D01*
X1902800Y2453399D02*
X1905670D01*
X1902800Y2363399D02*
X1905670D01*
X1902800Y2273399D02*
X1905670D01*
X1902800Y2183399D02*
X1905670D01*
X1902800Y2093399D02*
X1905670D01*
X1902800Y2003399D02*
X1905670D01*
X1902800Y1913399D02*
X1905670D01*
X1902800Y2386799D02*
X1905668D01*
X1902800Y2296799D02*
X1905668D01*
X1902800Y2206799D02*
X1905668D01*
X1902800Y2116799D02*
X1905668D01*
X1902800Y2026799D02*
X1905668D01*
X1902800Y1936799D02*
X1905668D01*
X1902800Y2443499D02*
X1905626D01*
X1902800Y2353499D02*
X1905626D01*
X1902800Y2263499D02*
X1905626D01*
X1902800Y2173499D02*
X1905626D01*
X1902800Y2083499D02*
X1905626D01*
X1902800Y1993499D02*
X1905626D01*
X1902800Y1903499D02*
X1905626D01*
X1902800Y2396699D02*
X1905625D01*
X1902800Y2306699D02*
X1905625D01*
X1902800Y2216699D02*
X1905625D01*
X1902800Y2126699D02*
X1905625D01*
X1902800Y2036699D02*
X1905625D01*
X1902800Y1946699D02*
X1905625D01*
X1902800Y2433599D02*
X1905585D01*
X1902800Y2343599D02*
X1905585D01*
X1902800Y2163599D02*
X1905585D01*
X1902800Y2073599D02*
X1905585D01*
X1902800Y1983599D02*
X1905585D01*
X1902800Y1893599D02*
X1905585D01*
X1902800Y2406599D02*
X1905584D01*
X1902800Y2316599D02*
X1905584D01*
X1902800Y2226599D02*
X1905584D01*
X1902800Y2136599D02*
X1905584D01*
X1902800Y2046599D02*
X1905584D01*
X1902800Y1956599D02*
X1905584D01*
X1902800Y2423699D02*
X1905547D01*
X1902800Y2333699D02*
X1905547D01*
X1902800Y2243699D02*
X1905547D01*
X1902800Y2153699D02*
X1905547D01*
X1902800Y2063699D02*
X1905547D01*
X1902800Y1973699D02*
X1905547D01*
X1902800Y1883699D02*
X1905547D01*
X1902800Y1966499D02*
X1905546D01*
X1902800Y2416499D02*
X1905546D01*
X1902800Y2326499D02*
X1905546D01*
X1902800Y2236499D02*
X1905546D01*
X1902800Y2146499D02*
X1905546D01*
X1902800Y2056499D02*
X1905546D01*
X1902800Y2413799D02*
X1905512D01*
X1902800Y2323799D02*
X1905512D01*
X1902800Y2233799D02*
X1905512D01*
X1902800Y2143799D02*
X1905512D01*
X1902800Y2053799D02*
X1905512D01*
X1902800Y1963799D02*
X1905512D01*
X1902800Y2426399D02*
X1905511D01*
X1902800Y2336399D02*
X1905511D01*
X1902800Y2246399D02*
X1905511D01*
X1902800Y2156399D02*
X1905511D01*
X1902800Y2066399D02*
X1905511D01*
X1902800Y1976399D02*
X1905511D01*
X1902800Y1886399D02*
X1905511D01*
X1902800Y2403899D02*
X1905480D01*
X1902800Y2313899D02*
X1905480D01*
X1902800Y2223899D02*
X1905480D01*
X1902800Y2133899D02*
X1905480D01*
X1902800Y2043899D02*
X1905480D01*
X1902800Y1953899D02*
X1905480D01*
X1902800Y2436299D02*
X1905479D01*
X1902800Y2346299D02*
X1905479D01*
X1902800Y2166299D02*
X1905479D01*
X1902800Y2076299D02*
X1905479D01*
X1902800Y1986299D02*
X1905479D01*
X1902800Y1896299D02*
X1905479D01*
X1902800Y2393999D02*
X1905451D01*
X1902800Y2303999D02*
X1905451D01*
X1902800Y2213999D02*
X1905451D01*
X1902800Y2123999D02*
X1905451D01*
X1902800Y2033999D02*
X1905451D01*
X1902800Y1943999D02*
X1905451D01*
X1902800Y2446199D02*
X1905450D01*
X1902800Y2356199D02*
X1905450D01*
X1902800Y2266199D02*
X1905450D01*
X1902800Y2176199D02*
X1905450D01*
X1902800Y2086199D02*
X1905450D01*
X1902800Y1996199D02*
X1905450D01*
X1902800Y1906199D02*
X1905450D01*
X1902800Y2384099D02*
X1905424D01*
X1902800Y2294099D02*
X1905424D01*
X1902800Y2204099D02*
X1905424D01*
X1902800Y2114099D02*
X1905424D01*
X1902800Y2024099D02*
X1905424D01*
X1902800Y1934099D02*
X1905424D01*
X1902800Y2456099D02*
X1905423D01*
X1902800Y2366099D02*
X1905423D01*
X1902800Y2276099D02*
X1905423D01*
X1902800Y2186099D02*
X1905423D01*
X1902800Y2096099D02*
X1905423D01*
X1902800Y2006099D02*
X1905423D01*
X1902800Y1916099D02*
X1905423D01*
X1902800Y2374199D02*
X1905400D01*
X1902800Y2284199D02*
X1905400D01*
X1902800Y2194199D02*
X1905400D01*
X1902800Y2104199D02*
X1905400D01*
X1902800Y2014199D02*
X1905400D01*
X1902800Y1924199D02*
X1905400D01*
X1902800Y2375999D02*
X1905400D01*
X1902800Y2285999D02*
X1905400D01*
X1902800Y2195999D02*
X1905400D01*
X1902800Y2105999D02*
X1905400D01*
X1902800Y2015999D02*
X1905400D01*
X1902800Y1925999D02*
X1905400D01*
X1904798Y2256299D02*
X1905381D01*
X1902800Y2454299D02*
X1905379D01*
X1902800Y2364299D02*
X1905379D01*
X1902800Y2274299D02*
X1905379D01*
X1902800Y2184299D02*
X1905379D01*
X1902800Y2094299D02*
X1905379D01*
X1902800Y2004299D02*
X1905379D01*
X1902800Y1914299D02*
X1905379D01*
X1902800Y2385899D02*
X1905379D01*
X1902800Y2295899D02*
X1905379D01*
X1902800Y2205899D02*
X1905379D01*
X1902800Y2115899D02*
X1905379D01*
X1902800Y2025899D02*
X1905379D01*
X1902800Y1935899D02*
X1905379D01*
X1902800Y2444399D02*
X1905360D01*
X1902800Y2354399D02*
X1905360D01*
X1902800Y2264399D02*
X1905360D01*
X1902800Y2174399D02*
X1905360D01*
X1902800Y2084399D02*
X1905360D01*
X1902800Y1994399D02*
X1905360D01*
X1902800Y1904399D02*
X1905360D01*
X1902800Y2395799D02*
X1905360D01*
X1902800Y2305799D02*
X1905360D01*
X1902800Y2215799D02*
X1905360D01*
X1902800Y2125799D02*
X1905360D01*
X1902800Y2035799D02*
X1905360D01*
X1902800Y1945799D02*
X1905360D01*
X1902800Y2434499D02*
X1905344D01*
X1902800Y2344499D02*
X1905344D01*
X1902800Y2164499D02*
X1905344D01*
X1902800Y2074499D02*
X1905344D01*
X1902800Y1984499D02*
X1905344D01*
X1902800Y1894499D02*
X1905344D01*
X1902800Y2405699D02*
X1905344D01*
X1902800Y2315699D02*
X1905344D01*
X1902800Y2225699D02*
X1905344D01*
X1902800Y2135699D02*
X1905344D01*
X1902800Y2045699D02*
X1905344D01*
X1902800Y1955699D02*
X1905344D01*
X1902800Y2424599D02*
X1905331D01*
X1902800Y2334599D02*
X1905331D01*
X1902800Y2244599D02*
X1905331D01*
X1902800Y2154599D02*
X1905331D01*
X1902800Y2064599D02*
X1905331D01*
X1902800Y1974599D02*
X1905331D01*
X1902800Y1884599D02*
X1905331D01*
X1902800Y2415599D02*
X1905330D01*
X1902800Y2325599D02*
X1905330D01*
X1902800Y2235599D02*
X1905330D01*
X1902800Y2145599D02*
X1905330D01*
X1902800Y2055599D02*
X1905330D01*
X1902800Y1965599D02*
X1905330D01*
X1902800Y2414699D02*
X1905320D01*
X1902800Y2324699D02*
X1905320D01*
X1902800Y2234699D02*
X1905320D01*
X1902800Y2144699D02*
X1905320D01*
X1902800Y2054699D02*
X1905320D01*
X1902800Y1964699D02*
X1905320D01*
X1902800Y2425499D02*
X1905319D01*
X1902800Y2335499D02*
X1905319D01*
X1902800Y2245499D02*
X1905319D01*
X1902800Y2155499D02*
X1905319D01*
X1902800Y2065499D02*
X1905319D01*
X1902800Y1975499D02*
X1905319D01*
X1902800Y1885499D02*
X1905319D01*
X1902800Y2404799D02*
X1905311D01*
X1902800Y2314799D02*
X1905311D01*
X1902800Y2224799D02*
X1905311D01*
X1902800Y2134799D02*
X1905311D01*
X1902800Y2044799D02*
X1905311D01*
X1902800Y1954799D02*
X1905311D01*
X1902800Y2435399D02*
X1905311D01*
X1902800Y2345399D02*
X1905311D01*
X1902800Y2165399D02*
X1905311D01*
X1902800Y2075399D02*
X1905311D01*
X1902800Y1985399D02*
X1905311D01*
X1902800Y1895399D02*
X1905311D01*
X1902800Y2394899D02*
X1905305D01*
X1902800Y2304899D02*
X1905305D01*
X1902800Y2214899D02*
X1905305D01*
X1902800Y2124899D02*
X1905305D01*
X1902800Y2034899D02*
X1905305D01*
X1902800Y1944899D02*
X1905305D01*
X1902800Y2445299D02*
X1905305D01*
X1902800Y2355299D02*
X1905305D01*
X1902800Y2265299D02*
X1905305D01*
X1902800Y2175299D02*
X1905305D01*
X1902800Y2085299D02*
X1905305D01*
X1902800Y1995299D02*
X1905305D01*
X1902800Y1905299D02*
X1905305D01*
X1902800Y2384999D02*
X1905301D01*
X1902800Y2294999D02*
X1905301D01*
X1902800Y2204999D02*
X1905301D01*
X1902800Y2114999D02*
X1905301D01*
X1902800Y2024999D02*
X1905301D01*
X1902800Y1934999D02*
X1905301D01*
X1902800Y2455199D02*
X1905301D01*
X1902800Y2365199D02*
X1905301D01*
X1902800Y2275199D02*
X1905301D01*
X1902800Y2185199D02*
X1905301D01*
X1902800Y2095199D02*
X1905301D01*
X1902800Y2005199D02*
X1905301D01*
X1902800Y1915199D02*
X1905301D01*
X1902800Y2375099D02*
X1905300D01*
X1902800Y2285099D02*
X1905300D01*
X1902800Y2195099D02*
X1905300D01*
X1902800Y2105099D02*
X1905300D01*
X1902800Y2015099D02*
X1905300D01*
X1902800Y1925099D02*
X1905300D01*
X1902800Y1967399D02*
X1905245D01*
G54D28*
X1982500Y1856374D03*
X2035500Y1895500D03*
X1999000Y1907500D03*
X1986500Y1920000D03*
X1975000D03*
X2004510Y1935490D03*
X2003500Y1954500D03*
X1958500Y1962500D03*
X1989000Y1975500D03*
X2036000Y1980500D03*
Y1991500D03*
Y2003500D03*
X1984000Y2023500D03*
X1959643Y2050143D03*
X1960500Y2123000D03*
X1965000Y2193000D03*
X2011500Y2196000D03*
X1993982Y2193632D03*
X2022200Y2193500D03*
X1936500Y2208500D03*
X1969500Y2213574D03*
X2043500Y2208000D03*
Y2214000D03*
X2070000Y2209500D03*
X1959000Y2229500D03*
Y2225500D03*
X1936000Y2239500D03*
X2043500Y2243500D03*
X2070000Y2242500D03*
X1935500Y2273500D03*
X1997500Y2277500D03*
X2023000D03*
X2013500D03*
X2070000Y2273000D03*
X2024500Y2351000D03*
X2029000Y2395500D03*
X2020500Y2385500D03*
X2021000Y2415000D03*
X1949000Y2447000D03*
X2020500Y2443000D03*
G54D29*
X2083521Y2037621D02*
X2084299Y2038399D01*
X2083521Y2033379D02*
X2084299Y2032601D01*
X2079279Y2037621D02*
X2078501Y2038399D01*
X2079279Y2033379D02*
X2078501Y2032601D01*
X2083521Y2047621D02*
X2084299Y2048399D01*
X2083521Y2043379D02*
X2084299Y2042601D01*
X2079279Y2047621D02*
X2078501Y2048399D01*
X2079279Y2043379D02*
X2078501Y2042601D01*
X2083521Y2057621D02*
X2084299Y2058399D01*
X2083521Y2053379D02*
X2084299Y2052601D01*
X2079279Y2057621D02*
X2078501Y2058399D01*
X2079279Y2053379D02*
X2078501Y2052601D01*
X2083521Y2067621D02*
X2084299Y2068399D01*
X2083521Y2063379D02*
X2084299Y2062601D01*
X2079279Y2067621D02*
X2078501Y2068399D01*
X2079279Y2063379D02*
X2078501Y2062601D01*
X2083521Y2077621D02*
X2084299Y2078399D01*
X2083521Y2073379D02*
X2084299Y2072601D01*
X2079279Y2077621D02*
X2078501Y2078399D01*
X2079279Y2073379D02*
X2078501Y2072601D01*
X2083521Y2087621D02*
X2084299Y2088399D01*
X2083521Y2083379D02*
X2084299Y2082601D01*
X2079279Y2087621D02*
X2078501Y2088399D01*
X2079279Y2083379D02*
X2078501Y2082601D01*
X2083521Y2097621D02*
X2084299Y2098399D01*
X2083521Y2093379D02*
X2084299Y2092601D01*
X2079279Y2097621D02*
X2078501Y2098399D01*
X2079279Y2093379D02*
X2078501Y2092601D01*
X2083521Y2107621D02*
X2084299Y2108399D01*
X2083521Y2103379D02*
X2084299Y2102601D01*
X2079279Y2107621D02*
X2078501Y2108399D01*
X2079279Y2103379D02*
X2078501Y2102601D01*
X2083521Y2117621D02*
X2084299Y2118399D01*
X2083521Y2113379D02*
X2084299Y2112601D01*
X2079279Y2117621D02*
X2078501Y2118399D01*
X2079279Y2113379D02*
X2078501Y2112601D01*
X2083521Y2127621D02*
X2084299Y2128399D01*
X2083521Y2123379D02*
X2084299Y2122601D01*
X2079279Y2127621D02*
X2078501Y2128399D01*
X2079279Y2123379D02*
X2078501Y2122601D01*
X1980421Y2381821D02*
X1981199Y2382599D01*
X1980421Y2377579D02*
X1981199Y2376801D01*
X1976179Y2381821D02*
X1975401Y2382599D01*
X1976179Y2377579D02*
X1975401Y2376801D01*
X1954831Y2381821D02*
X1955609Y2382599D01*
X1954831Y2377579D02*
X1955609Y2376801D01*
X1950588Y2381821D02*
X1949810Y2382599D01*
X1950588Y2377579D02*
X1949810Y2376801D01*
X1940821Y2179621D02*
X1941599Y2180399D01*
X1940821Y2175379D02*
X1941599Y2174601D01*
X1936579Y2179621D02*
X1935801Y2180399D01*
X1936579Y2175379D02*
X1935801Y2174601D01*
X2057921Y2302021D02*
X2058699Y2302799D01*
X2057921Y2297779D02*
X2058699Y2297001D01*
X2053679Y2302021D02*
X2052901Y2302799D01*
X2053679Y2297779D02*
X2052901Y2297001D01*
X2057921Y2342021D02*
X2058699Y2342799D01*
X2057921Y2337779D02*
X2058699Y2337001D01*
X2053679Y2342021D02*
X2052901Y2342799D01*
X2053679Y2337779D02*
X2052901Y2337001D01*
X2077821Y1965321D02*
X2078599Y1966099D01*
X2077821Y1961079D02*
X2078599Y1960301D01*
X2073579Y1965321D02*
X2072801Y1966099D01*
X2073579Y1961079D02*
X2072801Y1960301D01*
X2077821Y1939731D02*
X2078599Y1940509D01*
X2077821Y1935488D02*
X2078599Y1934710D01*
X2073579Y1939731D02*
X2072801Y1940509D01*
X2073579Y1935488D02*
X2072801Y1934710D01*
X2070285Y1891385D02*
X2071063Y1892163D01*
X2070285Y1888415D02*
X2071063Y1887637D01*
X2070285Y1896385D02*
X2071063Y1897163D01*
X2070285Y1893415D02*
X2071063Y1892637D01*
X2070285Y1903415D02*
X2071063Y1902637D01*
X2067315Y1906385D02*
X2066537Y1907163D01*
X2070285Y1906385D02*
X2071063Y1907163D01*
X2015239Y2239339D02*
X2016017Y2240117D01*
X2015239Y2221661D02*
X2016017Y2220883D01*
X1997561Y2239339D02*
X1996783Y2240117D01*
X1997561Y2221661D02*
X1996783Y2220883D01*
X1911521Y2447221D02*
X1912299Y2447999D01*
X1911521Y2442979D02*
X1912299Y2442201D01*
X1907279Y2447221D02*
X1906501Y2447999D01*
X1907279Y2442979D02*
X1906501Y2442201D01*
X1936561Y2274561D02*
X1937338Y2275338D01*
X1936561Y2272439D02*
X1937338Y2271662D01*
X1934439Y2274561D02*
X1933662Y2275338D01*
X1934439Y2272439D02*
X1933662Y2271662D01*
X1937061Y2240561D02*
X1937838Y2241338D01*
X1937061Y2238439D02*
X1937838Y2237662D01*
X1934939Y2240561D02*
X1934162Y2241338D01*
X1934939Y2238439D02*
X1934162Y2237662D01*
X1937561Y2209561D02*
X1938338Y2210338D01*
X1937561Y2207439D02*
X1938338Y2206662D01*
X1935439Y2209561D02*
X1934662Y2210338D01*
X1935439Y2207439D02*
X1934662Y2206662D01*
X1959561Y1963561D02*
X1960338Y1964338D01*
X1957439Y1963561D02*
X1956662Y1964338D01*
X1950061Y2448061D02*
X1950838Y2448838D01*
X1950061Y2445939D02*
X1950838Y2445162D01*
X1947939Y2448061D02*
X1947162Y2448838D01*
X1947939Y2445939D02*
X1947162Y2445162D01*
X1970561Y2212513D02*
X1971338Y2211735D01*
X1970561Y2214634D02*
X1971338Y2215412D01*
X1968439Y2214634D02*
X1967662Y2215412D01*
X1960061Y2226561D02*
X1960838Y2227338D01*
X1957939Y2226561D02*
X1957162Y2227338D01*
X1960061Y2224439D02*
X1960838Y2223662D01*
X1957939Y2224439D02*
X1957162Y2223662D01*
X1960061Y2228439D02*
X1960838Y2227662D01*
X1957939Y2228439D02*
X1957162Y2227662D01*
X1960061Y2230561D02*
X1960838Y2231338D01*
X1957939Y2230561D02*
X1957162Y2231338D01*
X1961561Y2124061D02*
X1962338Y2124838D01*
X1961561Y2121939D02*
X1962338Y2121162D01*
X1959439Y2124061D02*
X1958662Y2124838D01*
X1959439Y2121939D02*
X1958662Y2121162D01*
X1960704Y2051204D02*
X1961482Y2051982D01*
X1960704Y2049082D02*
X1961482Y2048305D01*
X1958582Y2051204D02*
X1957805Y2051982D01*
X1958582Y2049082D02*
X1957805Y2048305D01*
X1976061Y1921061D02*
X1976838Y1921838D01*
X1976061Y1918939D02*
X1976838Y1918162D01*
X1973939Y1921061D02*
X1973162Y1921838D01*
X1973939Y1918939D02*
X1973162Y1918162D01*
X1985061Y2024561D02*
X1985838Y2025338D01*
X1985061Y2022439D02*
X1985838Y2021662D01*
X1982939Y2024561D02*
X1982162Y2025338D01*
X1982939Y2022439D02*
X1982162Y2021662D01*
X1981439Y1857435D02*
X1980662Y1858212D01*
X1981439Y1855313D02*
X1980662Y1854536D01*
X1995043Y2194692D02*
X1995821Y2195470D01*
X1995043Y2192571D02*
X1995821Y2191793D01*
X1992921Y2192571D02*
X1992144Y2191793D01*
X1998561Y2278561D02*
X1999338Y2279338D01*
X1998561Y2276439D02*
X1999338Y2275662D01*
X1996439Y2276439D02*
X1995662Y2275662D01*
X2012561Y2197061D02*
X2013338Y2197838D01*
X2012561Y2194939D02*
X2013338Y2194162D01*
X2010439Y2197061D02*
X2009662Y2197838D01*
X2014561Y2278561D02*
X2015338Y2279338D01*
X2014561Y2276439D02*
X2015338Y2275662D01*
X2012439Y2278561D02*
X2011662Y2279338D01*
X2012439Y2276439D02*
X2011662Y2275662D01*
X2021561Y2386561D02*
X2022338Y2387338D01*
X2021561Y2384439D02*
X2022338Y2383662D01*
X2019439Y2386561D02*
X2018662Y2387338D01*
X2019439Y2384439D02*
X2018662Y2383662D01*
X2022061Y2416061D02*
X2022838Y2416838D01*
X2022061Y2413939D02*
X2022838Y2413162D01*
X2019939Y2416061D02*
X2019162Y2416838D01*
X2019939Y2413939D02*
X2019162Y2413162D01*
X2025561Y2352061D02*
X2026338Y2352838D01*
X2025561Y2349939D02*
X2026338Y2349162D01*
X2023439Y2352061D02*
X2022662Y2352838D01*
X2023439Y2349939D02*
X2022662Y2349162D01*
X2021139Y2194561D02*
X2020362Y2195338D01*
X2021139Y2192439D02*
X2020362Y2191662D01*
X2024061Y2278561D02*
X2024838Y2279338D01*
X2024061Y2276439D02*
X2024838Y2275662D01*
X2021939Y2278561D02*
X2021162Y2279338D01*
X2021939Y2276439D02*
X2021162Y2275662D01*
X2036561Y1896561D02*
X2037338Y1897338D01*
X2036561Y1894439D02*
X2037338Y1893662D01*
X2034439Y1896561D02*
X2033662Y1897338D01*
X2034439Y1894439D02*
X2033662Y1893662D01*
X2037061Y1992561D02*
X2037838Y1993338D01*
X2037061Y1990439D02*
X2037838Y1989662D01*
X2034939Y1992561D02*
X2034162Y1993338D01*
X2034939Y1990439D02*
X2034162Y1989662D01*
X2037061Y1981561D02*
X2037838Y1982338D01*
X2037061Y1979439D02*
X2037838Y1978662D01*
X2034939Y1981561D02*
X2034162Y1982338D01*
X2034939Y1979439D02*
X2034162Y1978662D01*
X2037061Y2004561D02*
X2037838Y2005338D01*
X2037061Y2002439D02*
X2037838Y2001662D01*
X2034939Y2004561D02*
X2034162Y2005338D01*
X2034939Y2002439D02*
X2034162Y2001662D01*
X2030061Y2396561D02*
X2030838Y2397338D01*
X2030061Y2394439D02*
X2030838Y2393662D01*
X2027939Y2396561D02*
X2027162Y2397338D01*
X2027939Y2394439D02*
X2027162Y2393662D01*
X2044561Y2215061D02*
X2045338Y2215838D01*
X2044561Y2212939D02*
X2045338Y2212162D01*
X2042439Y2215061D02*
X2041662Y2215838D01*
X2042439Y2212939D02*
X2041662Y2212162D01*
X2071061Y2243561D02*
X2071838Y2244338D01*
X2071061Y2241439D02*
X2071838Y2240662D01*
X2068939Y2243561D02*
X2068162Y2244338D01*
X2068939Y2241439D02*
X2068162Y2240662D01*
X2044561Y2244561D02*
X2045338Y2245338D01*
X2044561Y2242439D02*
X2045338Y2241662D01*
X2042439Y2244561D02*
X2041662Y2245338D01*
X2042439Y2242439D02*
X2041662Y2241662D01*
X2071061Y2210561D02*
X2071838Y2211338D01*
X2071061Y2208439D02*
X2071838Y2207662D01*
X2068939Y2210561D02*
X2068162Y2211338D01*
X2068939Y2208439D02*
X2068162Y2207662D01*
X2071061Y2274061D02*
X2071838Y2274838D01*
X2071061Y2271939D02*
X2071838Y2271162D01*
X2068939Y2274061D02*
X2068162Y2274838D01*
X2068939Y2271939D02*
X2068162Y2271162D01*
X2044561Y2209061D02*
X2045338Y2209838D01*
X2044561Y2206939D02*
X2045338Y2206162D01*
X2042439Y2209061D02*
X2041662Y2209838D01*
X2042439Y2206939D02*
X2041662Y2206162D01*
X1990061Y1976561D02*
X1990838Y1977338D01*
X1990061Y1974439D02*
X1990838Y1973662D01*
X1987939Y1974439D02*
X1987162Y1973662D01*
X2000061Y1908561D02*
X2000838Y1909338D01*
X2000061Y1906439D02*
X2000838Y1905662D01*
X1997939Y1908561D02*
X1997162Y1909338D01*
X1997939Y1906439D02*
X1997162Y1905662D01*
X1987561Y1918939D02*
X1988338Y1918162D01*
X1987561Y1921061D02*
X1988338Y1921838D01*
X1985439Y1921061D02*
X1984662Y1921838D01*
X1985439Y1918939D02*
X1984662Y1918162D01*
X2004561Y1955561D02*
X2005338Y1956338D01*
X2002439Y1955561D02*
X2001662Y1956338D01*
X2021561Y2444061D02*
X2022338Y2444838D01*
X2021561Y2441939D02*
X2022338Y2441162D01*
X2019439Y2444061D02*
X2018662Y2444838D01*
X2019439Y2441939D02*
X2018662Y2441162D01*
X1966061Y2191939D02*
X1966838Y2191162D01*
X1963939Y2194061D02*
X1963162Y2194838D01*
X1963939Y2191939D02*
X1963162Y2191162D01*
X2005571Y1934429D02*
X2006349Y1933651D01*
X2003449Y1936551D02*
X2002672Y1937328D01*
X2003449Y1934429D02*
X2002672Y1933651D01*
G54D54*
X2068800Y1889900D03*
Y1894900D03*
Y1904900D03*
G74*
X0Y0D02*
M02*
