M48
;FILE_FORMAT=2:4
INCH,LZ
FMAT,2
ICI,OFF
;TYPE=PLATED
T1C.01
T2C.028
T3C.035
T4C.037
T5C.1875
%
M72
G90
G93X0Y0
T1C.01F0S0
X1905Y18745
X19595Y18775
X19705Y18545
X19745Y18545
X19825Y185637
X1986Y18545
X1986Y18595
X199Y18545
X2002Y18545
X20175Y18545
X20215Y18595
X20375Y18545
X20375Y18585
X20435Y1879
X20595Y1875
X2072Y18725
X20885Y1875
X20355Y18955
X203112Y19005
X20155Y18875
X2006Y18815
X199237Y1901
X199Y18895
X1989Y1903
X198Y1885
X19595Y19175
X196241Y192
X1965Y19175
X1975Y192
X19805Y1918
X19865Y192
X19895Y1915
X1999Y19075
X20225Y19195
X20515Y19445
X200837Y1937
X200451Y193549
X20035Y19409
X20035Y19505
X19935Y19425
X19935Y195097
X19871Y19305
X19857Y19375
X19833Y19305
X1979Y1933
X1978Y1954
X19767Y19302
X196091Y1937
X19585Y1941
X19585Y193431
X19485Y1943
X19485Y19525
X19485Y1935
X19485Y1939
X1905Y197
X19215Y19775
X19315Y19675
X194529Y195636
X19485Y19605
X19585Y19545
X19585Y19585
X19585Y19625
X19735Y1961
X197566Y197537
X197968Y1965
X1981Y19755
X1982Y1956
X19851Y197847
X19873Y1965
X1989Y19755
X19935Y195597
X19939Y1965
X20035Y19545
X20035Y19605
X20225Y1955
X2023Y19625
X2086Y1955
X20785Y1991
X20755Y2025
X2036Y19805
X2036Y20035
X2036Y19915
X1984Y20235
X19645Y20235
X19537Y2039
X19565Y2058
X19595Y20705
X195964Y205014
X19755Y2048
X19755Y207
X1983Y2031
X19945Y20415
X20195Y20305
X20456Y20589
X20475Y2042
X2073Y21125
X20565Y21105
X2042Y21175
X20305Y2111
X1993Y2108
X199208Y212542
X1989Y2091
X19795Y2121
X1977Y2126
X1973Y2118
X19605Y2123
X19465Y2165
X19535Y21445
X1956Y2138
X19665Y21575
X19715Y2165
X19812Y21667
X19815Y21355
X1989Y21665
X1996Y2138
X200699Y2168
X20305Y2163
X20745Y21355
X20538Y22
X20535Y22036
X20405Y2202
X203836Y2183
X203603Y219516
X20335Y21835
X20305Y2196
X2026Y21935
X20222Y21935
X202111Y218339
X20115Y2196
X200863Y21935
X200258Y21965
X199738Y219927
X199398Y219363
X19925Y21835
X199078Y219778
X198849Y21815
X198718Y219698
X198329Y21835
X197689Y21835
X197658Y219699
X1974Y21995
X197189Y21835
X19692Y22043
X196917Y219698
X1965Y2193
X196329Y218643
X1939Y2189
X19365Y22085
X1939Y222
X1959Y22158
X1959Y2212
X1959Y22255
X19692Y220977
X19695Y221357
X19695Y221917
X19708Y22275
X197156Y220703
X19835Y22155
X20435Y2208
X20435Y2214
X20535Y2212
X20535Y22175
X20535Y22255
X205651Y220851
X207Y22095
X20715Y22145
X207Y22425
X20535Y22355
X20435Y2253
X20435Y22435
X20415Y22335
X199717Y224786
X199007Y223997
X19849Y225427
X19835Y224643
X198227Y224143
X19701Y2247
X19695Y224
X19695Y22344
X1959Y22375
X1959Y22295
X1958Y22476
X1956Y2251
X19535Y22395
X1936Y22395
X1904Y2251
X19025Y2255
X1926Y2255
X19355Y22735
X195413Y226313
X195698Y226089
X19624Y226838
X1982Y22775
X19858Y22775
X19863Y226167
X19975Y22775
X19995Y22675
X20135Y22775
X20155Y22675
X2023Y22775
X2025Y22675
X20327Y22647
X2035Y22675
X20373Y22647
X204Y22675
X2048Y22685
X20535Y2263
X207Y2273
X1997Y22825
X199413Y228
X1985Y2286
X1982Y2289
X197969Y228057
X197849Y23053
X197829Y2295
X19755Y2324
X197385Y231525
X197269Y231054
X197263Y231913
X1959Y2336
X19675Y2348
X196824Y233326
X197587Y233863
X19765Y23505
X1983Y2341
X19845Y23445
X2005Y2331
X20245Y2351
X20885Y23625
X20615Y2357
X19855Y23585
X19805Y23555
X1963Y2358
X19605Y23645
X19245Y2377
X1918Y23725
X19945Y2415
X2001Y23855
X20205Y23855
X2021Y2415
X2029Y23955
X20515Y2425
X2076Y23865
X20205Y2443
X1949Y2447
T2C.028F0S0
X20638Y18849
X20638Y18899
X20638Y18949
X20638Y18999
X20688Y18949
X20688Y18899
X20688Y18999
X20688Y18849
X20688Y19049
X20638Y19049
T3C.035F0S0
X19094Y18951
X19094Y18851
X19094Y19251
X19094Y19151
X19094Y19051
X20757Y193761
X20757Y19632
X205798Y193761
X205798Y19632
X19094Y19451
X19094Y19351
X19094Y19751
X19094Y19651
X19094Y19551
X19094Y19951
X19094Y19851
X19094Y20251
X19094Y20151
X19094Y20051
X20578Y19867
X20578Y201229
X207552Y19867
X207552Y201229
X20814Y20355
X20814Y20455
X20514Y20355
X20514Y20455
X201331Y204527
X201331Y203527
X199861Y203527
X199861Y204527
X19094Y20451
X19094Y20351
X19094Y20751
X19094Y20651
X19094Y20551
X199861Y207527
X199861Y206527
X199861Y205527
X201331Y207527
X201331Y206527
X201331Y205527
X20514Y20755
X20514Y20655
X20514Y20555
X20814Y20555
X20814Y20655
X20814Y20755
X20814Y20855
X20814Y20955
X20514Y20955
X20514Y20855
X201331Y208527
X201331Y209527
X199861Y208527
X199861Y209527
X19094Y20951
X19094Y20851
X19094Y21251
X19094Y21151
X19094Y21051
X199861Y212527
X199861Y211527
X199861Y210527
X201331Y211527
X201331Y210527
X201331Y212527
X20514Y21055
X20514Y21255
X20514Y21155
X20814Y21255
X20814Y21155
X20814Y21055
X20776Y21407
X20676Y21407
X20576Y21407
X20476Y21407
X19387Y21475
X19387Y21375
X19094Y21351
X19094Y21451
X19094Y21751
X19094Y21651
X19094Y21551
X19387Y21675
X19387Y21575
X19387Y21775
X20476Y21707
X20576Y21707
X20676Y21707
X20776Y21707
X19094Y21951
X19094Y21851
X19094Y22251
X19094Y22151
X19094Y22051
X19094Y22451
X19094Y22351
X19094Y22651
X19094Y22551
X19094Y22751
X19094Y22951
X19094Y22851
X19094Y23251
X19094Y23151
X19094Y23051
X19094Y23351
X19094Y23451
X19094Y23551
X19094Y23751
X19094Y23651
X19783Y239742
X19783Y23797
X195271Y239742
X195271Y23797
X19094Y23951
X19094Y23851
X19094Y24151
X19094Y24051
X19094Y24251
X19094Y24451
X19094Y24351
X19094Y24551
T4C.037F0S0
X20274Y19164
X20274Y19664
X20658Y22999
X20558Y22999
X20558Y23099
X20558Y23199
X20558Y23299
X20558Y23399
X20658Y23299
X20658Y23199
X20658Y23399
X20658Y23099
T5C.1875F0S0
X20064Y22305
M30
