*
*
G04 PADS VX.2.3 Build Number: 9191294 generated Gerber (RS-274-X) file*
G04 PC Version=2.1*
*
%IN "uMuddMarkVLayout_3_osci"*%
*
%MOIN*%
*
%FSLAX35Y35*%
*
*
*
*
G04 PC Standard Apertures*
*
*
G04 Thermal Relief Aperture macro.*
%AMTER*
1,1,$1,0,0*
1,0,$1-$2,0,0*
21,0,$3,$4,0,0,45*
21,0,$3,$4,0,0,135*
%
*
*
G04 Annular Aperture macro.*
%AMANN*
1,1,$1,0,0*
1,0,$2,0,0*
%
*
*
G04 Odd Aperture macro.*
%AMODD*
1,1,$1,0,0*
1,0,$1-0.005,0,0*
%
*
*
G04 PC Custom Aperture Macros*
*
*
*
*
*
*
G04 PC Aperture Table*
*
%ADD010C,0.001*%
%ADD011R,0.06X0.05*%
%ADD012R,0.05X0.06*%
%ADD013R,0.06X0.06*%
%ADD014C,0.06*%
%ADD015R,0.08X0.04*%
%ADD017R,0.02756X0.12598*%
%ADD018R,0.02756X0.16535*%
%ADD019R,0.01181X0.05709*%
%ADD020R,0.05709X0.01181*%
%ADD022R,0.01181X0.05512*%
%ADD023R,0.05512X0.01181*%
%ADD024C,0.25*%
%ADD025R,0.05709X0.02362*%
%ADD026C,0.008*%
%ADD027C,0.01*%
%ADD028C,0.03*%
%ADD052R,0.3X0.2*%
%ADD054C,0.042*%
%ADD056R,0.10236X0.05906*%
*
*
*
*
G04 PC Circuitry*
G04 Layer Name uMuddMarkVLayout_3_osci - circuitry*
%LPD*%
*
*
G04 PC Custom Flashes*
G04 Layer Name uMuddMarkVLayout_3_osci - flashes*
%LPD*%
*
*
G04 PC Circuitry*
G04 Layer Name uMuddMarkVLayout_3_osci - circuitry*
%LPD*%
*
G54D10*
G54D11*
G01X2021000Y1885500D03*
X2030000D03*
X1969820Y2023279D03*
X1978820D03*
X1953100Y2331000D03*
X1962100D03*
X1953000Y2350900D03*
X1962000D03*
X1985100Y1896300D03*
X1994100D03*
X1985300Y1885000D03*
X1994300D03*
X1984800Y1907400D03*
X1993800D03*
X1981700Y2350600D03*
X1990700D03*
X1981800Y2330700D03*
X1990800D03*
X2021900Y1980300D03*
X2030900D03*
X2021700Y1991600D03*
X2030700D03*
X2021900Y2003300D03*
X2030900D03*
X2021200Y1895700D03*
X2030200D03*
X2006300Y2385500D03*
X2015300D03*
X2006300Y2445600D03*
X2015300D03*
X2006600Y2414900D03*
X2015600D03*
X2010400Y2331100D03*
X2019400D03*
X2010300Y2351000D03*
X2019300D03*
G54D12*
X2070100Y2258900D03*
Y2267900D03*
X1939200Y2194100D03*
Y2203100D03*
X1938900Y2225300D03*
Y2234300D03*
X2069900Y2195200D03*
Y2204200D03*
X2070000Y2228400D03*
Y2237400D03*
X1938300Y2259400D03*
Y2268400D03*
G54D13*
X2051400Y2125500D03*
X2047600Y2140700D03*
X1952709Y2379700D03*
X1938700Y2177500D03*
X1998609Y2125272D03*
X2013309D03*
X2065800Y2299900D03*
X2057800Y2012291D03*
X2075700Y1937609D03*
G54D14*
X2051400Y2115500D03*
Y2105500D03*
Y2095500D03*
Y2085500D03*
Y2075500D03*
Y2065500D03*
Y2055500D03*
Y2045500D03*
Y2035500D03*
X2081400D03*
Y2045500D03*
Y2055500D03*
Y2065500D03*
Y2075500D03*
Y2085500D03*
Y2095500D03*
Y2105500D03*
Y2115500D03*
Y2125500D03*
X2057600Y2140700D03*
X2067600D03*
X2077600D03*
Y2170700D03*
X2067600D03*
X2057600D03*
X2047600D03*
X2027400Y1916400D03*
Y1966400D03*
X1978300Y2379700D03*
X1952709Y2397417D03*
X1978300D03*
X1938700Y2167500D03*
Y2157500D03*
Y2147500D03*
Y2137500D03*
X1998609Y2115272D03*
Y2105272D03*
Y2095272D03*
Y2085272D03*
Y2075272D03*
Y2065272D03*
Y2055272D03*
Y2045272D03*
Y2035272D03*
X2013309Y2115272D03*
Y2105272D03*
Y2095272D03*
Y2085272D03*
Y2075272D03*
Y2065272D03*
Y2055272D03*
Y2045272D03*
Y2035272D03*
X2055800Y2299900D03*
X2065800Y2309900D03*
X2055800D03*
X2065800Y2319900D03*
X2055800D03*
X2065800Y2329900D03*
X2055800D03*
X2065800Y2339900D03*
X2055800D03*
X2057800Y1986700D03*
X2075517Y2012291D03*
Y1986700D03*
X2075700Y1963200D03*
X2057983Y1937609D03*
Y1963200D03*
X1909400Y2455100D03*
Y2445100D03*
Y2435100D03*
Y2425100D03*
Y2415100D03*
Y2405100D03*
Y2395100D03*
Y2385100D03*
Y2375100D03*
Y2365100D03*
Y2355100D03*
Y2345100D03*
Y2335100D03*
Y2325100D03*
Y2315100D03*
Y2305100D03*
Y2295100D03*
Y2285100D03*
Y2275100D03*
Y2265100D03*
Y2255100D03*
Y2245100D03*
Y2235100D03*
Y2225100D03*
Y2215100D03*
Y2205100D03*
Y2195100D03*
Y2185100D03*
Y2175100D03*
Y2165100D03*
Y2155100D03*
Y2145100D03*
Y2135100D03*
Y2125100D03*
Y2115100D03*
Y2105100D03*
Y2095100D03*
Y2085100D03*
Y2075100D03*
Y2065100D03*
Y2055100D03*
Y2045100D03*
Y2035100D03*
Y2025100D03*
Y2015100D03*
Y2005100D03*
Y1995100D03*
Y1985100D03*
Y1975100D03*
Y1965100D03*
Y1955100D03*
Y1945100D03*
Y1935100D03*
Y1925100D03*
Y1915100D03*
Y1905100D03*
Y1895100D03*
Y1885100D03*
G54D15*
X1955300Y2447200D03*
Y2429200D03*
X2035200Y2395700D03*
Y2377700D03*
X2034500Y2446300D03*
Y2428300D03*
G54D17*
X2033465Y1845748D03*
G54D18*
X1962598Y1843780D03*
X1966535D03*
X1970472D03*
X1974409D03*
X1978346D03*
X1982283D03*
X1986220D03*
X1990157D03*
X1994094D03*
X1998031D03*
X2001969D03*
X2013780D03*
X2017717D03*
X2021654D03*
X2025591D03*
X2029528D03*
X2037402D03*
G54D19*
X1990764Y1970239D03*
X1988795D03*
X1986827D03*
X1984858D03*
X1982890D03*
X1980921D03*
X1978953D03*
X1976984D03*
X1975016D03*
X1973047D03*
X1971079D03*
X1969110D03*
X1967142D03*
X1965173D03*
X1963205D03*
X1961236D03*
Y1925161D03*
X1963205D03*
X1965173D03*
X1967142D03*
X1969110D03*
X1971079D03*
X1973047D03*
X1975016D03*
X1976984D03*
X1978953D03*
X1980921D03*
X1982890D03*
X1984858D03*
X1986827D03*
X1988795D03*
X1990764D03*
G54D20*
X1953461Y1962464D03*
Y1960495D03*
Y1958527D03*
Y1956558D03*
Y1954590D03*
Y1952621D03*
Y1950653D03*
Y1948684D03*
Y1946716D03*
Y1944747D03*
Y1942779D03*
Y1940810D03*
Y1938842D03*
Y1936873D03*
Y1934905D03*
Y1932936D03*
X1998539D03*
Y1934905D03*
Y1936873D03*
Y1938842D03*
Y1940810D03*
Y1942779D03*
Y1944747D03*
Y1946716D03*
Y1948684D03*
Y1950653D03*
Y1952621D03*
Y1954590D03*
Y1956558D03*
Y1958527D03*
Y1960495D03*
Y1962464D03*
G54D22*
X1971951Y2188374D03*
X1973920D03*
X1975888D03*
X1977857D03*
X1979825D03*
X1981794D03*
X1983762D03*
X1985731D03*
X1987699D03*
X1989668D03*
X1991636D03*
X1993605D03*
X1995573D03*
X1997542D03*
X1999510D03*
X2001479D03*
X2003447D03*
X2005416D03*
X2007384D03*
X2009353D03*
X2011321D03*
X2013290D03*
X2015258D03*
X2017227D03*
X2019195D03*
X2021164D03*
X2023132D03*
X2025101D03*
X2027069D03*
X2029038D03*
X2031006D03*
X2032975D03*
X2034943D03*
X2036912D03*
X2038880D03*
X2040849D03*
Y2272626D03*
X2038880D03*
X2036912D03*
X2034943D03*
X2032975D03*
X2031006D03*
X2029038D03*
X2027069D03*
X2025101D03*
X2023132D03*
X2021164D03*
X2019195D03*
X2017227D03*
X2015258D03*
X2013290D03*
X2011321D03*
X2009353D03*
X2007384D03*
X2005416D03*
X2003447D03*
X2001479D03*
X1999510D03*
X1997542D03*
X1995573D03*
X1993605D03*
X1991636D03*
X1989668D03*
X1987699D03*
X1985731D03*
X1983762D03*
X1981794D03*
X1979825D03*
X1977857D03*
X1975888D03*
X1973920D03*
X1971951D03*
G54D23*
X1964274Y2264949D03*
Y2262980D03*
Y2261012D03*
Y2259043D03*
Y2257075D03*
Y2255106D03*
Y2253138D03*
Y2251169D03*
Y2249201D03*
Y2247232D03*
Y2245264D03*
Y2243295D03*
Y2241327D03*
Y2239358D03*
Y2237390D03*
Y2235421D03*
Y2233453D03*
Y2231484D03*
Y2229516D03*
Y2227547D03*
Y2225579D03*
Y2223610D03*
Y2221642D03*
Y2219673D03*
Y2217705D03*
Y2215736D03*
Y2213768D03*
Y2211799D03*
Y2209831D03*
Y2207862D03*
Y2205894D03*
Y2203925D03*
Y2201957D03*
Y2199988D03*
Y2198020D03*
Y2196051D03*
X2048526D03*
Y2198020D03*
Y2199988D03*
Y2201957D03*
Y2203925D03*
Y2205894D03*
Y2207862D03*
Y2209831D03*
Y2211799D03*
Y2213768D03*
Y2215736D03*
Y2217705D03*
Y2219673D03*
Y2221642D03*
Y2223610D03*
Y2225579D03*
Y2227547D03*
Y2229516D03*
Y2231484D03*
Y2233453D03*
Y2235421D03*
Y2237390D03*
Y2239358D03*
Y2241327D03*
Y2243295D03*
Y2245264D03*
Y2247232D03*
Y2249201D03*
Y2251169D03*
Y2253138D03*
Y2255106D03*
Y2257075D03*
Y2259043D03*
Y2261012D03*
Y2262980D03*
Y2264949D03*
G54D24*
X2006400Y2230500D03*
G54D25*
X1965740Y2138207D03*
Y2133207D03*
Y2128207D03*
Y2123207D03*
X1986803D03*
Y2128207D03*
Y2133207D03*
Y2138207D03*
G54D26*
X1974500Y1854500D02*
X1979500Y1859500D01*
X1986000*
X1990000Y1854500D02*
X2010700Y1875200D01*
X2054100*
X2063800Y1884900*
X2002000Y1854500D02*
Y1860019D01*
X2014481Y1872500*
X2072000*
X2017500Y1854500D02*
Y1859036D01*
X2020464Y1862000*
X2027018*
X2030518Y1858500*
X2037500*
X1905000Y1874500D02*
X1956914D01*
X1970500Y1860914*
Y1854500*
X1959500Y1877500D02*
X2000750D01*
X2002250Y1879000*
X2043500*
X2021500Y1859500D02*
X2026500Y1854500D01*
X2037500*
X2059500Y1875000D02*
X2088500D01*
X1909400Y1885100D02*
X1944741D01*
X1948341Y1881500*
X2000089*
X2006089Y1887500*
X2015500*
X1909400Y1895100D02*
X1945193D01*
X1949893Y1899800*
X1990038*
X1992374Y1901000*
X1985100Y1896300D02*
X1985600D01*
X1989400Y1892500*
Y1892000*
X1990000Y1889500*
X2006000Y1881500D02*
X2055400D01*
X2063800Y1889900*
X2026200Y1892786D02*
X2028386Y1890600D01*
X2028400*
X2030000Y1889000*
Y1885500*
X2026200Y1892786D02*
Y1904907D01*
X2027400Y1906107*
Y1916400*
X2021000Y1885500D02*
Y1890500D01*
X2021200Y1890700*
Y1895700*
X1905400Y1913443D02*
X1907743Y1911100D01*
X1969918*
X1980921Y1922103*
Y1925161*
X1905400Y1913443D02*
Y1926928D01*
X1909400Y1930928*
Y1935100*
Y1905100D02*
X1975574D01*
X1996571Y1926097*
X2023360*
X1909400Y1915100D02*
X1948674D01*
X1958735Y1925161*
X1961236*
X1959500Y1917500D02*
Y1921161D01*
X1961236Y1922897*
Y1925161*
X1965000Y1917500D02*
Y1920567D01*
X1965173Y1920740*
Y1925161*
X1989500Y1915000D02*
X1994000Y1919500D01*
X2022500*
X1980500Y1918000D02*
X1982890Y1920390D01*
Y1925161*
X2031117Y1900500D02*
Y1908730D01*
X2031400Y1909013*
X2031117Y1900500D02*
X2058200D01*
X2063800Y1894900*
X1909400Y1925100D02*
X1955816D01*
X1959731Y1929015*
X1967142*
Y1925161*
X1948500Y1939000D02*
Y1938842D01*
X1953461*
X1948500Y1935000D02*
Y1934905D01*
X1953461*
X1962409Y1920000D02*
X1963205Y1923558D01*
Y1925161*
X1953461Y1932936D02*
X1955215D01*
X1955915Y1933127*
X1957315Y1933508*
X1957693*
X1958500Y1934315*
X1953461Y1936873D02*
X1957797D01*
X1957924Y1937000*
X1960906*
X1979000Y1933000D02*
X1979204D01*
X1976704Y1930204D02*
X1976794Y1927615D01*
Y1925161*
X1976984*
X1987100Y1930500D02*
X1987310D01*
X1988795Y1929015*
Y1925161*
X1985700Y1937500D02*
X1990764Y1932436D01*
Y1925161*
X1978953D02*
X1979143D01*
Y1929061*
X1979204Y1929123*
X1979204D02*
Y1933000D01*
X1973047Y1925161D02*
Y1930583D01*
X1982464Y1940000*
X1986736*
X1991443Y1935293*
Y1935174*
X1995271Y1931346*
X2033222*
X2039486Y1937609*
X2057983*
X1998539Y1936873D02*
X1998913D01*
X2000994Y1937064*
X2002394Y1937192*
X2003392Y1938190*
X2006028*
X2008374Y1937000*
X1998539Y1932936D02*
X2002820D01*
X2002966Y1932790*
X2020193*
X2029012Y1941609*
X2059640*
X2061983Y1939266*
Y1935953*
X2023360Y1926097D02*
X2031400Y1918057D01*
Y1909013*
X2023360Y1926097D02*
X2025779Y1928516D01*
X2054547*
X2061983Y1935953*
X1905400Y1943443D02*
X1908743Y1940100D01*
X1911238*
X1921393Y1929946*
X1958181*
X1958650Y1930415*
X1967722*
X1969110Y1929026*
Y1925161*
X1905400Y1943443D02*
Y1951100D01*
X1909400Y1955100*
Y1945100D02*
X1923154Y1931346D01*
X1957165*
X1957634Y1931815*
X1968302*
X1971079Y1929038*
Y1925161*
X1945288Y1956359D02*
X1948597D01*
X1948797Y1956558*
X1953461*
X1948500Y1952500D02*
Y1952621D01*
X1953461*
X1948500Y1943000D02*
X1951006Y1942969D01*
X1953461*
Y1942779*
Y1940810D02*
Y1941001D01*
X1955915*
X1958500Y1941000*
X1953461Y1948684D02*
X1957315D01*
X1969110Y1960480*
X1953461Y1954590D02*
X1958496D01*
Y1954500*
X1953461Y1958527D02*
X1958496D01*
Y1958500*
X1982000Y1956000D02*
X1989531Y1948469D01*
X1994598*
X1994623Y1948494*
X1998539*
Y1948684*
X1978000Y1954000D02*
X1985284Y1946716D01*
X1998539*
X1993500Y1942500D02*
X1996085Y1942588D01*
X1998539*
Y1942779*
X1993500Y1950969D02*
Y1951436D01*
X1994685Y1952621*
X1998539*
X1993500Y1955969D02*
Y1958469D01*
X1993558Y1958527*
X1998539*
Y1944747D02*
X2025573D01*
X2025820Y1944500*
X2051500*
X1998539Y1940810D02*
X2003500D01*
Y1940900*
X2022500Y1955000D02*
X2086000D01*
X1905000Y1970000D02*
Y2046357D01*
X1907743Y2049100*
X1925561*
X1947371Y2027290*
X2027369*
X2029659Y2025000*
X2075500*
X1909400Y1965100D02*
X1928997Y1945503D01*
X1949673*
X1950429Y1944747*
X1953461*
X1909400Y1975100D02*
X1937594Y1946906D01*
X1953461*
Y1946716*
X1921500Y1977500D02*
X1956239D01*
X1961236Y1972503*
Y1970239*
X1931500Y1967500D02*
X1946558D01*
X1947673Y1966385*
X1967142*
Y1970239*
X1969110D02*
Y1966385D01*
X1976984*
Y1970239*
X1969110Y1960480D02*
X1972800Y1956790D01*
Y1955664*
X1985964Y1942500*
X1993500*
X1969110Y1960480D02*
Y1966385D01*
X1976984Y1973153D02*
X1978250Y1974419D01*
Y1976286*
X1982935Y1980970*
X2001683*
X2002353Y1980300*
X2021900*
X1973500Y1961000D02*
X1979501D01*
X1982890Y1964389*
Y1970239*
X1975016D02*
Y1971574D01*
X1975661Y1975366*
X1976984Y1970239D02*
Y1973153D01*
X1980921Y1970239D02*
Y1975500D01*
X1981000*
X1984858Y1970239D02*
Y1974911D01*
X1985101Y1975153*
Y1978470*
X1986827Y1970239D02*
Y1969662D01*
X1987300Y1965000*
X1998539Y1962464D02*
X2000222D01*
X2000994Y1962654*
X2002394Y1963000*
X2012268*
X2012768Y1962500*
X2023000*
X1998539Y1960495D02*
X2003500D01*
Y1960500*
X2023000Y1962500D02*
X2025572D01*
X2025672Y1962400*
X2029057*
X2038700Y1972043*
X1909400Y1985100D02*
X1944500Y1950000D01*
X1949606*
X1951006Y1950462*
X1951583Y1950653*
X1953461*
X1909400Y1995100D02*
X1942198D01*
X1963205Y1974094*
Y1970239*
X2021700Y1991600D02*
Y1986050D01*
X2021900Y1985850*
Y1980300*
X2022400*
X2027400Y1975300*
Y1966400*
X1909400Y2005100D02*
X1934178D01*
X1965173Y1974105*
Y1970239*
X1909400Y2015100D02*
X1930072D01*
X1971079Y1974094*
Y1970239*
X2021900Y2003300D02*
X2022400D01*
X2026200Y1999500*
Y1989186*
X2029436Y1985950*
X2034368*
X2038700Y1981618*
Y1972043*
X1953700Y2039000D02*
X1996108D01*
X1997380Y2040272*
X2008309*
X2013309Y2045272*
X1998609Y2035272D02*
X2006470D01*
X2010698Y2039500*
X2051057*
X2055400Y2043843*
Y2077328*
X2013309Y2035272D02*
X2032241D01*
X2032468Y2035500*
X2051400*
X1909400Y2045100D02*
X1973047Y1981453D01*
Y1970239*
X1909400Y2055100D02*
X1968609D01*
X1973419Y2050289*
Y2050081*
X1975500Y2048000*
X1956500Y2058000D02*
X1977340D01*
X1979612Y2060272*
X2001787*
X2006787Y2065272*
X2013309*
X1982736Y2047236D02*
X1984901D01*
X1990637Y2041500*
X1994500*
Y2046820*
X1996952Y2049272*
X2040228*
X2047500Y2042000*
X1998609Y2055272D02*
X2005130D01*
X2009130Y2059272*
X2028847*
X2029223Y2058896*
X2045604*
X2013309Y2055272D02*
X2041628D01*
X2051400Y2045500*
X1959500Y2070500D02*
X1961700Y2072700D01*
X1988826*
X1990254Y2071272*
X2000266*
X2006545Y2077551*
Y2078508*
X2013309Y2085272*
X1998609Y2075272D02*
X2005959Y2082622D01*
Y2093579*
X2011727Y2099347*
X2035487*
X2041639Y2105500*
X2051400*
X2013309Y2075272D02*
X2032763D01*
X2048338Y2059698*
Y2058562*
X2051400Y2055500*
X1909400Y2085100D02*
X1947000D01*
X1952900Y2091000*
X1989000*
X1909400Y2095100D02*
X1953090D01*
X1958812Y2100822*
X2029221*
X2038899Y2110500*
X2056500*
X2013309Y2095272D02*
X2021628D01*
X2051400Y2065500*
Y2085500D02*
Y2081328D01*
X2055400Y2077328*
X1909400Y2105100D02*
X1950500D01*
X1953400Y2108000*
X1993000*
X1909400Y2115100D02*
X1953262D01*
X1957090Y2111272*
X2016147*
X2022375Y2117500*
X2042000*
X1973000Y2118000D02*
X1987858D01*
X1990130Y2120272*
X2008309*
X2013309Y2125272*
X1998609Y2115272D02*
X2006470D01*
X2011834Y2120636*
X2029312*
X2034175Y2125500*
X2051400*
X2013309Y2105272D02*
X2019036Y2111000D01*
X2030500*
X2051400Y2115500D02*
X2061450D01*
X2064450Y2112500*
X2073000*
X1934700Y2135843D02*
X1944680Y2125863D01*
X1971067*
X1973430Y2123500*
X1980017*
X1981941Y2125425*
X1992075*
X1934700Y2135843D02*
Y2143500D01*
X1938700Y2147500*
Y2137500D02*
X1947332D01*
X1950332Y2140500*
X1990480*
X1992980Y2138000*
X1996000*
X1956000D02*
X1960089D01*
X1960296Y2138207*
X1965740*
Y2133207D02*
X1972980D01*
X1975273Y2135500*
X1981500*
X1977000Y2126000D02*
X1980017D01*
X1982224Y2128207*
X1986803*
X1979500Y2121000D02*
X1981707Y2123207D01*
X1986803*
X1996000Y2138000D02*
X2019700D01*
X2022400Y2140700*
X2047600*
X1909400Y2155100D02*
X1922022D01*
X1928422Y2161500*
X1941776*
X1942176Y2161100*
X1993709*
X2017227Y2184618*
Y2188374*
X1938700Y2147500D02*
X2050800D01*
X2057600Y2140700*
X1938700Y2157500D02*
X1966500D01*
X2050800*
X2067600Y2140700*
X1953500Y2144500D02*
X1999993D01*
X2000193Y2144700*
X2051014*
X2052600Y2143114*
Y2140043*
X2057143Y2135500*
X2074500*
X1909400Y2165100D02*
X1924422D01*
X1926322Y2163200*
X1943475*
X1944175Y2162500*
X1991369*
X2010429Y2181560*
X2012009*
X2015068Y2184618*
Y2188374*
X2015258*
X1909400Y2175100D02*
X1915410D01*
X1919001Y2171509*
X1945142*
X1947452Y2169200*
X1982675*
X1982875Y2169000*
X1995678*
X2005000Y2178322*
Y2179038*
X2008922Y2182960*
X2010668*
X2013290Y2185582*
Y2188374*
X1946500Y2165000D02*
X1971500D01*
X1938700Y2167500D02*
X1975218D01*
X1976018Y2166700*
X1981200*
X1985000*
X1985200Y2166500*
X1989000*
X2004492Y2169036D02*
X2010956Y2175500D01*
X2034393*
X2040857Y2181964*
Y2184323*
X2004492Y2169036D02*
Y2166964D01*
X2008456Y2163000*
X2030500*
X2006992Y2168000D02*
X2028873D01*
X2042439Y2181567*
Y2191544*
X1909400Y2185100D02*
X1921591Y2172909D01*
X1949101*
X1951410Y2170600*
X1983420*
X1983620Y2170400*
X1995098*
X2003600Y2178902*
Y2179848*
X2007384Y2183632*
Y2188374*
X1909400Y2195100D02*
X1923000Y2181500D01*
X1945868*
X1955369Y2172000*
X1984165*
X1984365Y2171800*
X1994518*
X2002200Y2179482*
Y2180658*
X2005416Y2183874*
Y2188374*
X1971893Y2183500D02*
X1972802D01*
X1973920Y2184618*
Y2188374*
X1983293Y2183500D02*
X1983762Y2187741D01*
Y2188374*
X1989668D02*
Y2194071D01*
X1990780Y2195184*
Y2197784*
X1985731Y2188374D02*
Y2192582D01*
X1987180Y2194031*
Y2196983*
X1981794Y2188374D02*
Y2195132D01*
X1986946Y2200284*
X1992182*
X1995966Y2196500*
X2002582*
X1975888Y2188374D02*
Y2184505D01*
X1976893Y2183500*
X2030500Y2196000D02*
X2033167D01*
X2034830Y2197663*
X2041360*
X2042972Y2196051*
X2048526*
X2026000Y2193500D02*
X2031605D01*
X2032975Y2192130*
Y2188374*
X2036033Y2195163D02*
X2040207D01*
X2040909Y2194461*
X2051696*
X2052282Y2195046*
Y2197829*
X2038357Y2183000D02*
X2038880Y2187748D01*
Y2188374*
X2033500Y2183500D02*
X2034830D01*
X2036912Y2185582*
Y2188374*
X2048526Y2198020D02*
Y2197829D01*
X2052282*
X2040849Y2188374D02*
Y2184331D01*
X2040857Y2184323*
X2034943Y2188374D02*
Y2192130D01*
X2041854*
X2042439Y2191544*
X1909400Y2205100D02*
X1931599Y2182901D01*
X1949371*
X1958872Y2173400*
X1984855*
X1985055Y2173200*
X1993938*
X2000800Y2180062*
Y2181450*
X2003447Y2184097*
Y2188374*
X1909400Y2215100D02*
X1924264Y2200236D01*
Y2199917*
X1939880Y2184302*
X1951964*
X1961466Y2174800*
X1985435*
X1985635Y2174600*
X1993358*
X1999400Y2180642*
Y2182206*
X2001479Y2184285*
Y2188374*
X1969500Y2219174D02*
Y2222686D01*
X1970801Y2223987*
Y2227500*
X1959000Y2212000D02*
X1961918Y2211990D01*
X1964274*
Y2211799*
Y2199988D02*
X1970494D01*
X1970982Y2199500*
X1974000*
X1964274Y2201957D02*
Y2201766D01*
X1971471*
X1971704Y2202000*
X1975036*
X1976580Y2200455*
Y2196989*
X1964274Y2203925D02*
Y2204116D01*
X1966630*
X1969204Y2204296*
X1964274Y2205894D02*
X1967208D01*
X1968349Y2207035*
X1971557*
X1964274Y2207862D02*
X1967137D01*
X1969049Y2209774*
X1969204*
X1983500Y2215500D02*
X2013591D01*
X2014791Y2216700*
X2044694*
X2045658Y2215736*
X2048526*
X2040500Y2202000D02*
X2043863D01*
X2043907Y2201957*
X2048526*
Y2217705D02*
Y2217514D01*
X2050882*
X2053500Y2217500*
X2048526Y2215736D02*
X2051523D01*
X2052409Y2214850*
X2061559*
X2061909Y2214500*
X2071500*
X2048526Y2209831D02*
X2051585D01*
X2052905Y2208510*
X2056510*
X2048526Y2203925D02*
Y2203735D01*
X2050882*
X2053500Y2203600*
X2048526Y2199988D02*
X2053800D01*
Y2200000*
X1909400Y2225100D02*
X1924114D01*
X1946005Y2203210*
Y2193397*
X1963201Y2176200*
X1986015*
X1986215Y2176000*
X1992778*
X1998000Y2181222*
Y2182915*
X1999510Y2184425*
Y2188374*
X1909400Y2235100D02*
X1916094D01*
X1947405Y2203790*
Y2193977*
X1963781Y2177600*
X1986595*
X1986795Y2177400*
X1992198*
X1996600Y2181802*
Y2183578*
X1997542Y2184520*
Y2188374*
X1959000Y2237500D02*
Y2237390D01*
X1964274*
Y2227547D02*
X1970801D01*
Y2227500*
X1964274Y2231484D02*
X1972325D01*
X1982270Y2241429*
X1964274Y2235421D02*
X1968479D01*
X1969500Y2234400*
X1964274Y2239358D02*
X1965418D01*
X1969500Y2240000*
X2041500Y2233500D02*
Y2233453D01*
X2048526*
Y2225579D02*
X2053500D01*
Y2225500*
X1904000Y2251000D02*
X1905834Y2249166D01*
X1931945*
X1936011Y2245100*
X1959695*
X1959859Y2245264*
X1964274*
X1902500Y2255000D02*
X1904786Y2253750D01*
X1907436Y2251100*
X1939100*
X1941500Y2253500*
X1958596*
X1958958Y2253138*
X1964274*
X1909400Y2245100D02*
X1948805Y2205695D01*
Y2201973*
X1958793Y2191984*
Y2184568*
X1961429Y2181932*
X1966837*
X1969769Y2179000*
X1987175*
X1987375Y2178800*
X1991618*
X1995200Y2182382*
Y2184211*
X1995573Y2184584*
Y2188374*
X1909400Y2255100D02*
X1918200Y2263900D01*
X1944690*
X1951866Y2271076*
X1966130*
X1975539Y2261667*
X1986300*
X1926000Y2255000D02*
X1941241D01*
X1951866Y2265626*
X1957501*
X1958178Y2264949*
X1964274*
X1958001Y2247600D02*
Y2247232D01*
X1964274*
X1970100Y2247000D02*
X1970165Y2247065D01*
X1956000Y2251000D02*
X1959424D01*
X1959594Y2251169*
X1964274*
X1953500Y2239500D02*
X1956732D01*
X1957232Y2240000*
X1960051*
X1960502Y2239549*
X1964274*
Y2239358*
Y2241327D02*
X1967220D01*
X1968883Y2242990*
X1980295*
X1981234Y2243929*
X1986115*
X1990070Y2239974*
X1964274Y2243295D02*
X1967138D01*
X1968232Y2244390*
X1979715*
X1981000Y2245675*
X1983500Y2246429*
X1964274Y2249201D02*
X1968030D01*
X1970165Y2247065*
X1964274Y2255106D02*
X1974796D01*
X1975634Y2254267*
X1984900*
X1997174Y2247861D02*
X2027139D01*
X2041500Y2233500*
X1909400Y2265100D02*
X1924871Y2280571D01*
X1979689*
X1909400Y2275100D02*
X1917371Y2283071D01*
X1980725*
X1983115Y2280681*
Y2280203*
X1985809Y2277509*
X1954126Y2263126D02*
Y2260214D01*
X1955948Y2258392*
X1958019*
X1960001Y2260374*
Y2260494*
X1960518Y2261012*
X1964274*
X1956983Y2260892D02*
X1959071Y2262980D01*
X1964274*
X1985800Y2277500D02*
X1985809Y2277509D01*
X2032500Y2268561D02*
X2032784Y2268845D01*
Y2272626*
X2032975*
X2032500Y2268561D02*
Y2264704D01*
X2032704*
X2037296D02*
X2037500D01*
X2034943Y2272626D02*
Y2267500D01*
X2035000*
X2036912Y2272626D02*
X2037102D01*
Y2270270*
X2037153Y2268870*
X2037500Y2268523*
Y2267342*
X2037500*
Y2264704*
X2038880Y2272626D02*
X2039071D01*
Y2270270*
X2039133Y2268870*
Y2268367*
X2040000Y2267500*
X1909400Y2285100D02*
X1981520D01*
X1983920Y2282700*
X1997000*
Y2282500*
X1909400Y2295100D02*
X1944545D01*
X1944645Y2295000*
X1978289*
X1985000Y2286000D02*
X1997036D01*
X2005416Y2277620*
Y2272626*
X1982000Y2289000D02*
X1996015D01*
X2007384Y2277631*
Y2272626*
X1909400Y2315100D02*
X1942296D01*
X1942450Y2315254*
X1973846*
X1978487Y2305303D02*
X2057031D01*
X2061628Y2309900*
X2065800*
X1972689Y2310536D02*
X1976346Y2314192D01*
X1909400Y2325100D02*
X1915410D01*
X1921385Y2319125*
X1972625*
X1909400Y2335100D02*
X1922387Y2322113D01*
X1973174*
X1973174D02*
X1976346Y2318941D01*
Y2314192*
X1959000Y2336000D02*
X1992414D01*
X1994809Y2333605*
Y2326805*
X1953100Y2331000D02*
X1953600D01*
X1960600Y2324000*
X1975500*
X1980948*
X1982148Y2322800*
X2039860*
X2040960Y2323900*
X2061800*
X2065800Y2319900*
X1975874Y2338626D02*
X1980107D01*
X1980782Y2337950*
X1993338*
X2003688Y2327600*
X2015900*
X2015943Y2327643*
X2016800Y2329000*
X2018126Y2331100*
X2019400*
X1981800Y2330700D02*
X1982300D01*
X1986195Y2326805*
X1994809*
X1999356*
X1999961Y2326200*
X2023341*
X2032041Y2334900*
X2056628*
X2061628Y2339900*
X2065800*
X1905400Y2343443D02*
X1907743Y2341100D01*
X1942935*
X1942961Y2341126*
X1978642*
X1978768Y2341000*
X1983000*
X1905400Y2343443D02*
Y2351100D01*
X1909400Y2355100*
Y2345100D02*
X1947400D01*
X1948000Y2344500*
X1984500*
X1960500Y2355500D02*
Y2359036D01*
X1963964Y2362500*
X2088500*
X1960500Y2355500D02*
X1980500D01*
X1963000Y2358000D02*
X1973482D01*
X1976482Y2361000*
X1999800*
X2009800Y2351000*
X2010300*
X1953000Y2350900D02*
X1953500D01*
X1958100Y2355500*
X1960500*
X1985500Y2358500D02*
X1991500D01*
X2018900Y2331100*
X2019400*
X1976500Y2350500D02*
X1981700D01*
Y2350600*
X2010300Y2351000D02*
X2011574D01*
X2012900Y2353100*
X2013757Y2354457*
X2016300Y2357000*
X2061500*
X1909400Y2365100D02*
X1935400D01*
X1936000Y2364500*
X1960500*
X1918000Y2372500D02*
X1920250Y2374750D01*
X1922250*
X1924500Y2377000*
X1952709Y2397417D02*
X1978300D01*
G54D27*
X1980000Y1885000D02*
X1985300D01*
X1994100Y1896300D02*
X1994600D01*
X1997878Y1899578*
X1994100Y1896300D02*
Y1890750D01*
X1994300Y1890550*
Y1885000*
X2030200Y1895700D02*
Y1895500D01*
X2035500*
X1984800Y1907400D02*
X1985883D01*
X1989000Y1903000*
X1993800Y1907400D02*
Y1907500D01*
X1999000*
X1993800Y1907400D02*
X1994300D01*
X1997878Y1903822*
Y1899578*
X1986500Y1920000D02*
X1986827Y1923882D01*
Y1925161*
X1975000Y1920000D02*
X1975016D01*
Y1925161*
X1983300Y1930500D02*
Y1930046D01*
X1984858Y1928487*
Y1925161*
X1998539Y1934905D02*
X2000232D01*
X2004510Y1935490*
X1998539Y1954590D02*
X2003500D01*
Y1954500*
X1998539Y1950653D02*
Y1950562D01*
X2000894*
X2003500Y1950500*
X1948500Y1960500D02*
Y1960495D01*
X1953461*
Y1962464D02*
X1958500D01*
Y1962500*
X1978953Y1970239D02*
X1979182D01*
Y1965000*
X1979682*
X1988795Y1970239D02*
Y1970289D01*
X1989000Y1975500*
X1990764Y1970239D02*
Y1967971D01*
X1993900Y1965000*
X2030700Y1991600D02*
Y1991500D01*
X2036000*
X2030900Y1980300D02*
Y1980500D01*
X2036000*
X2075517Y1986700D02*
X2078500Y1991000D01*
X2030900Y2003300D02*
Y2003500D01*
X2036000*
X2075517Y2012291D02*
Y2002387D01*
X2078500Y1999404*
Y1991000*
X1964500Y2023500D02*
X1969820D01*
Y2023279*
X1983000Y2031000D02*
X2001000D01*
X2001500Y2030500*
X2019500*
X1978820Y2023279D02*
Y2023500D01*
X1984000*
X1959643Y2050143D02*
X1962370Y2049688D01*
X1966988*
Y2047236*
Y2067236D02*
X1982736D01*
X1975500Y2070000D02*
X1978118Y2069688D01*
X1982736*
Y2067236*
X1960500Y2123000D02*
Y2123178D01*
X1965740*
Y2123207*
Y2128207D02*
X1970954D01*
X1975273Y2132526*
X1986803*
Y2133207*
Y2138207D02*
Y2133207D01*
X1988476*
X1991534Y2130149*
X1993732*
X1998609Y2125272*
X1939000Y2189000D02*
Y2194100D01*
X1939200*
X1970261Y2188374D02*
X1971951D01*
X1960493Y2185272D02*
Y2187592D01*
X1961690Y2188789*
X1960493Y2185272D02*
X1962133Y2183632D01*
X1964832*
X1969574Y2188374*
X1970261*
X1971951*
X1969093Y2182340D02*
Y2187206D01*
X1970261Y2188374*
X1969093Y2182340D02*
X1970733Y2180700D01*
X1984773*
X1985573Y2181500*
X1988117*
X1960418Y2193901D02*
X1961690Y2192629D01*
Y2188789*
X1960418Y2193901D02*
Y2208908D01*
X1961340Y2209831*
X1964274*
X1963293Y2186432D02*
X1969091Y2192230D01*
X1976934*
X1977857Y2191308*
Y2188374*
X1964274Y2196051D02*
X1965000D01*
Y2193000*
X1964274Y2196051D02*
X1966485D01*
X1966530Y2195961*
X1967316Y2194361*
X1967573Y2194104*
X1977951*
X1979825Y2192230*
Y2188374*
X1964274Y2198020D02*
X1968130D01*
X1969169Y2196981*
Y2196977*
X1988117Y2181500D02*
X1988493D01*
X1991636Y2188374D02*
Y2184364D01*
X1992500Y2183500*
X1987699Y2188374D02*
Y2184518D01*
X1988117Y2184100*
Y2181500*
X1988493*
X1997380Y2199270D02*
X2000687D01*
X2000716Y2199300*
X2013550*
X2019195Y2193655*
X2008626Y2193500D02*
X2009126D01*
Y2188374*
X2009353*
X2011321D02*
Y2192233D01*
X2011500Y2192411*
Y2196000*
X1993605Y2188374D02*
Y2189682D01*
X1993982Y2193632*
X2019195Y2193655D02*
Y2194455D01*
X2029740Y2205000*
X2044579*
X2045473Y2205894*
X2048526*
X2022200Y2193500D02*
X2023132Y2192568D01*
Y2188374*
X2021107Y2183393D02*
X2021164D01*
Y2188374*
X2019195D02*
Y2193655D01*
X2069900Y2195200D02*
Y2196355D01*
X2071900Y2197700*
X2073428Y2198728*
X2074300Y2199600*
Y2217830*
X1936500Y2208500D02*
X1937200Y2205600D01*
Y2203100*
X1939200*
X1959000Y2215800D02*
Y2215736D01*
X1964274*
Y2213768D02*
X1969500D01*
Y2213574*
X2043500Y2208000D02*
X2046270Y2207953D01*
X2048526*
Y2207862*
X2043500Y2214000D02*
X2048040Y2213768D01*
X2048526*
Y2211799D02*
X2048549D01*
X2053500Y2212000*
X2048526Y2205894D02*
X2050433D01*
X2050782Y2205984*
X2052382Y2206400*
X2054664*
X2058721Y2202344*
X2063256*
X2069900Y2195700*
Y2195200*
Y2204200D02*
X2070000D01*
Y2209500*
X1938900Y2225300D02*
X1939000D01*
Y2220000*
X1956200Y2230660D02*
Y2222770D01*
X1959000Y2219970*
Y2215800*
X1956200Y2230660D02*
X1958993Y2233453D01*
X1964274*
X1959000Y2229500D02*
Y2229516D01*
X1964274*
X1959000Y2225500D02*
Y2225579D01*
X1964274*
Y2223610D02*
X1966530D01*
Y2225579*
X1964274D02*
X1966530D01*
X2050782Y2239358D02*
X2048526D01*
X2059022*
X2060980Y2237400*
X2070000*
X2048526Y2237390D02*
X2050782D01*
Y2239358*
X2048526Y2235421D02*
X2053500D01*
Y2235500*
X2070000Y2237400D02*
Y2242500D01*
Y2228400D02*
Y2222130D01*
X2074300Y2217830*
X2070000Y2228400D02*
Y2229555D01*
X2072000Y2230900*
X2073528Y2231928*
X2073600Y2232000*
X1936000Y2239500D02*
X1936900Y2236800D01*
Y2234300*
X1938900*
X1938300Y2259400D02*
X1942890D01*
X1951866Y2268376*
X1962401*
X1964274Y2257075D02*
X1973028D01*
X1973036Y2257067*
X1988205*
X1990900Y2259762*
Y2265974*
X1964274Y2259043D02*
X1979285D01*
X1979461Y2258867*
X1987460*
X1989100Y2260508*
Y2262827*
X2040700Y2259010D02*
X2044670Y2262980D01*
X2048526*
X2040700Y2259010D02*
Y2242340D01*
X2042340Y2240700*
X2044813*
X2045439Y2241327*
X2048526*
X2043500Y2253000D02*
X2046270Y2253047D01*
X2048526*
Y2253138*
X2043500Y2243500D02*
X2048467Y2243295D01*
X2048526*
Y2253138D02*
X2063322D01*
X2073600Y2242860*
Y2232000*
X1935500Y2273500D02*
X1936300Y2270900D01*
Y2268400*
X1938300*
Y2268900*
X1945882Y2276482*
X1978903*
X1979825Y2275560*
Y2272626*
X1991636Y2268770D02*
X1995706Y2264700D01*
X2026160*
X2027800Y2266340*
Y2268811*
X1991636Y2272626D02*
Y2268770D01*
X1990505Y2267639*
Y2266369*
X1990900Y2265974*
X1979825Y2272626D02*
Y2268770D01*
X1981977Y2266619*
X1985308*
X1989100Y2262827*
X1981794Y2272626D02*
Y2272834D01*
X1982000Y2277500*
X1991636Y2268770D02*
Y2272626D01*
Y2277510*
X1994126Y2280000*
X1997500Y2277500D02*
X1997542D01*
Y2272626*
X1999500Y2267500D02*
X1999510D01*
Y2272626*
X2023000Y2277500D02*
X2023042Y2274882D01*
Y2272626*
X2023132*
X2025000Y2267500D02*
X2025010Y2270370D01*
Y2272626*
X2025101*
X2013290D02*
Y2272901D01*
X2013500Y2277500*
X2015258Y2272626D02*
Y2272089D01*
X2015500Y2267500*
X2027069Y2272626D02*
Y2269541D01*
X2027800Y2268811*
X2027069Y2272626D02*
Y2276482D01*
X2040849*
Y2272626*
X2043874*
X2048000Y2268500*
X2048526Y2264949D02*
X2050691D01*
X2053643Y2267900*
X2070100*
X2048526Y2262980D02*
X2053500D01*
Y2263000*
X2059250*
X2063350Y2258900*
X2070100*
X2070000Y2273000D02*
Y2267900D01*
X2070100*
X2055800Y2309900D02*
X2060800Y2314900D01*
X2066598*
X2069900Y2318202*
X1968243Y2333257D02*
X1973570D01*
X1974311Y2333998*
X1977700*
X1962100Y2331000D02*
Y2333000D01*
X1964600*
X1968243Y2333257*
X1977700Y2333998D02*
Y2327744D01*
X1979044Y2326400*
X1983900*
X1985800Y2324500*
X2025973*
X2027073Y2325600*
X2065898*
X2069900Y2321598*
Y2318202*
X1977700Y2333998D02*
X1978042D01*
X1978344Y2334300*
X1986700*
X1990300Y2330700*
X1990800*
X2005000Y2331000D02*
X2010400D01*
Y2331100*
X1962000Y2350900D02*
Y2348900D01*
X1964500*
X1967500Y2348000*
X1990700Y2350600D02*
X1991200D01*
X2000550Y2341250*
Y2340450*
X2009900Y2331100*
X2010400*
X2019300Y2351000D02*
X2024500D01*
X2034800Y2377700D02*
X2035200D01*
Y2384472*
X2040300Y2389572*
X2001000Y2385500D02*
X2006300D01*
X2029000Y2395500D02*
X2034800D01*
Y2395700*
X2015300Y2385500D02*
X2020500D01*
X2058800Y2386700D02*
Y2386500D01*
X2076000*
X1994500Y2415000D02*
Y2422422D01*
X1994678Y2422600*
Y2427422*
X1994500Y2415000D02*
X1999750D01*
X1999850Y2414900*
X2006600*
X2015600D02*
Y2415000D01*
X2021000*
X1909400Y2435100D02*
X1930692Y2413808D01*
X1977492*
X2005800Y2385500*
X2006300*
X1954900Y2429200D02*
X1957300D01*
X1961600Y2433500*
Y2447456*
X1963444Y2449300*
X1994950*
X2015950Y2428300*
X2034100*
X1978900Y2438200D02*
X1983900D01*
X1994678Y2427422*
X2051500Y2425000D02*
Y2437300D01*
X2058100*
X2034100Y2428300D02*
X2034500D01*
Y2414578*
X2040300Y2408778*
Y2389572*
X1909400Y2455100D02*
X1927400D01*
X1953300Y2429200*
X1954900*
X1949000Y2447000D02*
X1954900D01*
Y2447200*
X2006300Y2445600D02*
X2007455D01*
X2008800Y2447600*
X2009828Y2449128*
X2010100Y2449400*
X2038956*
X2040800Y2447556*
Y2438500*
X2042000Y2437300*
X2058100*
X2015300Y2445600D02*
Y2443600D01*
X2017800*
X2020500Y2443000*
X2015300Y2445600D02*
X2024050D01*
X2024750Y2446300*
X2034100*
G54D28*
X1970500Y1854500D03*
X1974500D03*
X1990000D03*
X1982500Y1856374D03*
X1986000Y1854500D03*
X2002000D03*
X2017500D03*
X2037500D03*
Y1858500D03*
X1905000Y1874500D03*
X1959500Y1877500D03*
X1986000Y1859500D03*
X2021500D03*
X2043500Y1879000D03*
X2059500Y1875000D03*
X2088500D03*
X2072000Y1872500D03*
X1990000Y1889500D03*
X1980000Y1885000D03*
X2006000Y1881500D03*
X2015500Y1887500D03*
X2035500Y1895500D03*
X1959500Y1917500D03*
X1965000D03*
X1989500Y1915000D03*
X1980500Y1918000D03*
X1989000Y1903000D03*
X1992374Y1901000D03*
X1999000Y1907500D03*
X2031117Y1900500D03*
X1948500Y1939000D03*
Y1935000D03*
X1960906Y1937000D03*
X1958500Y1934315D03*
X1962409Y1920000D03*
X1979000Y1933000D03*
X1976704Y1930204D03*
X1987100Y1930500D03*
X1985700Y1937500D03*
X1986500Y1920000D03*
X1975000D03*
X1983300Y1930500D03*
X2008374Y1937000D03*
X2004510Y1935490D03*
X2022500Y1919500D03*
X1945288Y1956359D03*
X1948500Y1952500D03*
Y1943000D03*
X1958496Y1958500D03*
Y1954500D03*
X1958500Y1941000D03*
X1982000Y1956000D03*
X1978000Y1954000D03*
X1993500Y1942500D03*
X2003500Y1940900D03*
X1993500Y1950969D03*
Y1955969D03*
X2003500Y1954500D03*
Y1950500D03*
X2022500Y1955000D03*
X2051500Y1944500D03*
X2086000Y1955000D03*
X1905000Y1970000D03*
X1921500Y1977500D03*
X1931500Y1967500D03*
X1948500Y1960500D03*
X1958500Y1962500D03*
X1975661Y1975366D03*
X1981000Y1975500D03*
X1973500Y1961000D03*
X1985101Y1978470D03*
X1987300Y1965000D03*
X1989000Y1975500D03*
X1979682Y1965000D03*
X2003500Y1960500D03*
X1993900Y1965000D03*
X2023000Y1962500D03*
X2036000Y1980500D03*
Y1991500D03*
X2078500Y1991000D03*
X2036000Y2003500D03*
X1953700Y2039000D03*
X1964500Y2023500D03*
X1983000Y2031000D03*
X1984000Y2023500D03*
X2019500Y2030500D03*
X2075500Y2025000D03*
X1956500Y2058000D03*
X1959643Y2050143D03*
X1975500Y2048000D03*
X1994500Y2041500D03*
X2045604Y2058896D03*
X2047500Y2042000D03*
X1959500Y2070500D03*
X1975500Y2070000D03*
X1989000Y2091000D03*
X1973000Y2118000D03*
X1993000Y2108000D03*
X2030500Y2111000D03*
X2042000Y2117500D03*
X2056500Y2110500D03*
X2073000Y2112500D03*
X1956000Y2138000D03*
X1960500Y2123000D03*
X1977000Y2126000D03*
X1979500Y2121000D03*
X1981500Y2135500D03*
X1992075Y2125425D03*
X1996000Y2138000D03*
X2074500Y2135500D03*
X1966500Y2157500D03*
X1953500Y2144500D03*
X1946500Y2165000D03*
X1971500D03*
X1989000Y2166500D03*
X1981200Y2166700D03*
X2006992Y2168000D03*
X2030500Y2163000D03*
X1939000Y2189000D03*
X1969169Y2196977D03*
X1971893Y2183500D03*
X1965000Y2193000D03*
X1963293Y2186432D03*
X1988493Y2181500D03*
X1990780Y2197784D03*
X1987180Y2196983D03*
X1983293Y2183500D03*
X1976580Y2196989D03*
X1976893Y2183500D03*
X1997380Y2199270D03*
X2002582Y2196500D03*
X2011500Y2196000D03*
X1993982Y2193632D03*
X1992500Y2183500D03*
X2008626Y2193500D03*
X2030500Y2196000D03*
X2026000Y2193500D03*
X2022200D03*
X2021107Y2183393D03*
X2036033Y2195163D03*
X2038357Y2183000D03*
X2033500Y2183500D03*
X1936500Y2208500D03*
X1969500Y2219174D03*
X1969204Y2204296D03*
X1971557Y2207035D03*
X1969204Y2209774D03*
X1959000Y2212000D03*
X1969500Y2213574D03*
X1959000Y2215800D03*
X1983500Y2215500D03*
X1974000Y2199500D03*
X2040500Y2202000D03*
X2043500Y2208000D03*
Y2214000D03*
X2071500Y2214500D03*
X2056510Y2208510D03*
X2053500Y2203600D03*
X2053800Y2200000D03*
X2053500Y2217500D03*
X2070000Y2209500D03*
X2053500Y2212000D03*
X1939000Y2220000D03*
X1970801Y2227500D03*
X1959000Y2237500D03*
X1969500Y2234400D03*
X1959000Y2229500D03*
Y2225500D03*
X2041500Y2233500D03*
X2053500Y2225500D03*
Y2235500D03*
X1904000Y2251000D03*
X1902500Y2255000D03*
X1926000D03*
X1936000Y2239500D03*
X1958001Y2247600D03*
X1970100Y2247000D03*
X1956000Y2251000D03*
X1953500Y2239500D03*
X1969500Y2240000D03*
X1982270Y2241429D03*
X1983500Y2246429D03*
X1984900Y2254267D03*
X1990070Y2239974D03*
X1997174Y2247861D03*
X2043500Y2253000D03*
Y2243500D03*
X2070000Y2242500D03*
X1935500Y2273500D03*
X1962401Y2268376D03*
X1954126Y2263126D03*
X1956983Y2260892D03*
X1986300Y2261667D03*
X1985800Y2277500D03*
X1982000D03*
X1997500D03*
X1999500Y2267500D03*
X2023000Y2277500D03*
X2013500D03*
X2025000Y2267500D03*
X2015500D03*
X2048000Y2268500D03*
X2032704Y2264704D03*
X2035000Y2267500D03*
X2037296Y2264704D03*
X2040000Y2267500D03*
X2053500Y2263000D03*
X2070000Y2273000D03*
X1985000Y2286000D03*
X1982000Y2289000D03*
X1979689Y2280571D03*
X1978289Y2295000D03*
X1994126Y2280000D03*
X1997000Y2282500D03*
X1978487Y2305303D03*
X1973846Y2315254D03*
X1972625Y2319125D03*
X1972689Y2310536D03*
X1968243Y2333257D03*
X1959000Y2336000D03*
X1975500Y2324000D03*
X1975874Y2338626D03*
X2005000Y2331000D03*
X1963000Y2358000D03*
X1967500Y2348000D03*
X1984500Y2344500D03*
X1983000Y2341000D03*
X1980500Y2355500D03*
X1985500Y2358500D03*
X1976500Y2350500D03*
X2024500Y2351000D03*
X2061500Y2357000D03*
X1918000Y2372500D03*
X1924500Y2377000D03*
X1960500Y2364500D03*
X2088500Y2362500D03*
X2001000Y2385500D03*
X2029000Y2395500D03*
X2020500Y2385500D03*
X2076000Y2386500D03*
X1994500Y2415000D03*
X2021000D03*
X2051500Y2425000D03*
X1949000Y2447000D03*
X2020500Y2443000D03*
G54D52*
X1978900Y2438200D03*
X2058800Y2386700D03*
X2058100Y2437300D03*
G54D54*
X2068800Y1884900D03*
X2063800D03*
X2068800Y1889900D03*
X2063800D03*
X2068800Y1894900D03*
X2063800D03*
X2068800Y1899900D03*
X2063800D03*
X2068800Y1904900D03*
X2063800D03*
G54D56*
X1966988Y2067236D03*
Y2047236D03*
X1982736D03*
Y2067236D03*
X0Y0D02*
M02*
