*
*
G04 PADS VX.2.1 Build Number: 6554490 generated Gerber (RS-274-X) file*
G04 PC Version=2.1*
*
%IN "microp-revised-board.pc"*%
*
%MOIN*%
*
%FSLAX35Y35*%
*
*
*
*
G04 PC Standard Apertures*
*
*
G04 Thermal Relief Aperture macro.*
%AMTER*
1,1,$1,0,0*
1,0,$1-$2,0,0*
21,0,$3,$4,0,0,45*
21,0,$3,$4,0,0,135*
%
*
*
G04 Annular Aperture macro.*
%AMANN*
1,1,$1,0,0*
1,0,$2,0,0*
%
*
*
G04 Odd Aperture macro.*
%AMODD*
1,1,$1,0,0*
1,0,$1-0.005,0,0*
%
*
*
G04 PC Custom Aperture Macros*
*
*
*
*
*
*
G04 PC Aperture Table*
*
%ADD010C,0.001*%
%ADD011C,0.01*%
%ADD014R,0.157X0.035*%
%ADD015R,0.05X0.06*%
%ADD016R,0.06X0.05*%
%ADD017R,0.08X0.04*%
%ADD018R,0.25X0.2*%
%ADD019R,0.06X0.06*%
%ADD020C,0.06*%
%ADD021R,0.01181X0.05709*%
%ADD022R,0.05709X0.01181*%
%ADD023R,0.29528X0.29528*%
%ADD024R,0.05512X0.01181*%
%ADD025R,0.01181X0.05512*%
%ADD026C,0.25*%
%ADD027R,0.02362X0.05709*%
%ADD028C,0.006*%
%ADD029C,0.055*%
*
*
*
*
G04 PC Circuitry*
G04 Layer Name microp-revised-board.pc - circuitry*
%LPD*%
*
*
G04 PC Custom Flashes*
G04 Layer Name microp-revised-board.pc - flashes*
%LPD*%
*
*
G04 PC Circuitry*
G04 Layer Name microp-revised-board.pc - circuitry*
%LPD*%
*
G54D10*
G54D11*
G01X1832500Y1902500D02*
X2035000D01*
Y1942500*
X2005000*
Y1952500*
X2035000*
Y1970000*
X2005000*
Y2495000*
X1832500*
Y1902500*
G54D14*
X2025500Y1964100D03*
Y1956200D03*
Y1939500D03*
Y1931600D03*
Y1923700D03*
Y1915800D03*
Y1907900D03*
G54D15*
X1985000Y2350500D03*
Y2359500D03*
Y2325500D03*
Y2334500D03*
Y2300500D03*
Y2309500D03*
Y2275500D03*
Y2284500D03*
G54D16*
X1978000Y2397500D03*
X1987000D03*
Y2380000D03*
X1978000D03*
X1975500Y2255000D03*
X1984500D03*
X1948000D03*
X1957000D03*
X1945500Y2397500D03*
X1954500D03*
Y2380000D03*
X1945500D03*
X1952000Y2232500D03*
X1943000D03*
Y2215000D03*
X1952000D03*
X1943000Y2200000D03*
X1952000D03*
X1923000Y2480000D03*
X1932000D03*
X1923000Y2452500D03*
X1932000D03*
X1923000Y2422500D03*
X1932000D03*
X1913000Y2397500D03*
X1922000D03*
Y2380000D03*
X1913000D03*
X1917000Y2232500D03*
X1908000D03*
G54D17*
X1951400Y2479000D03*
Y2461000D03*
Y2439000D03*
Y2421000D03*
X1878900Y2476500D03*
Y2458500D03*
G54D18*
X1972500Y2470000D03*
Y2430000D03*
X1900000Y2467500D03*
G54D19*
X1977213Y1984009D03*
X1951500Y2154000D03*
X1946500Y2141500D03*
X1925583Y1926072D03*
X1987500Y2125000D03*
Y2082500D03*
Y2070000D03*
X1881909Y2420000D03*
X1866909Y2235000D03*
G54D20*
X1967213Y1984009D03*
X1977213Y1994009D03*
X1967213D03*
X1977213Y2004009D03*
X1967213D03*
X1977213Y2014009D03*
X1967213D03*
X1977213Y2024009D03*
X1967213D03*
X1961500Y2154000D03*
X1971500D03*
X1981500D03*
Y2184000D03*
X1971500D03*
X1961500D03*
X1951500D03*
X1956500Y2141500D03*
X1966500D03*
X1976500D03*
X1986500D03*
X1925583Y1936072D03*
X1935583Y1926072D03*
Y1936072D03*
X1945583Y1926072D03*
Y1936072D03*
X1955583Y1926072D03*
Y1936072D03*
X1965583Y1926072D03*
Y1936072D03*
X1977500Y2125000D03*
X1967500D03*
X1957500D03*
X1947500D03*
X1937500D03*
X1927500D03*
X1917500D03*
X1907500D03*
X1897500D03*
Y2095000D03*
X1907500D03*
X1917500D03*
X1927500D03*
X1937500D03*
X1947500D03*
X1957500D03*
X1967500D03*
X1977500D03*
X1987500D03*
X1977500Y2082500D03*
X1967500D03*
X1957500D03*
X1947500D03*
X1937500D03*
X1927500D03*
X1917500D03*
X1907500D03*
X1897500D03*
X1977500Y2070000D03*
X1967500D03*
X1957500D03*
X1947500D03*
X1937500D03*
X1927500D03*
X1917500D03*
X1907500D03*
X1897500D03*
X1907500Y2420000D03*
X1881909Y2437717D03*
X1907500D03*
X1892500Y2235000D03*
X1866909Y2252717D03*
X1892500D03*
X1840000Y2480000D03*
Y2470000D03*
Y2460000D03*
Y2450000D03*
Y2440000D03*
Y2430000D03*
Y2420000D03*
Y2410000D03*
Y2400000D03*
Y2390000D03*
Y2380000D03*
Y2370000D03*
Y2360000D03*
Y2350000D03*
Y2340000D03*
Y2330000D03*
Y2320000D03*
Y2310000D03*
Y2300000D03*
Y2290000D03*
Y2280000D03*
Y2270000D03*
Y2260000D03*
Y2250000D03*
Y2240000D03*
Y2230000D03*
Y2220000D03*
Y2210000D03*
Y2200000D03*
Y2190000D03*
Y2180000D03*
Y2170000D03*
Y2160000D03*
Y2150000D03*
Y2140000D03*
Y2130000D03*
Y2120000D03*
Y2110000D03*
Y2100000D03*
Y2090000D03*
Y2080000D03*
Y2070000D03*
Y2060000D03*
Y2050000D03*
Y2040000D03*
Y2030000D03*
Y2020000D03*
Y2010000D03*
Y2000000D03*
Y1990000D03*
Y1980000D03*
Y1970000D03*
Y1960000D03*
Y1950000D03*
Y1940000D03*
Y1930000D03*
Y1920000D03*
Y1910000D03*
G54D21*
X1918264Y2219039D03*
X1916295D03*
X1914327D03*
X1912358D03*
X1910390D03*
X1908421D03*
X1906453D03*
X1904484D03*
X1902516D03*
X1900547D03*
X1898579D03*
X1896610D03*
X1894642D03*
X1892673D03*
X1890705D03*
X1888736D03*
Y2173961D03*
X1890705D03*
X1892673D03*
X1894642D03*
X1896610D03*
X1898579D03*
X1900547D03*
X1902516D03*
X1904484D03*
X1906453D03*
X1908421D03*
X1910390D03*
X1912358D03*
X1914327D03*
X1916295D03*
X1918264D03*
G54D22*
X1880961Y2211264D03*
Y2209295D03*
Y2207327D03*
Y2205358D03*
Y2203390D03*
Y2201421D03*
Y2199453D03*
Y2197484D03*
Y2195516D03*
Y2193547D03*
Y2191579D03*
Y2189610D03*
Y2187642D03*
Y2185673D03*
Y2183705D03*
Y2181736D03*
X1926039D03*
Y2183705D03*
Y2185673D03*
Y2187642D03*
Y2189610D03*
Y2191579D03*
Y2193547D03*
Y2195516D03*
Y2197484D03*
Y2199453D03*
Y2201421D03*
Y2203390D03*
Y2205358D03*
Y2207327D03*
Y2209295D03*
Y2211264D03*
G54D23*
X1903500Y2196500D03*
G54D24*
X1877874Y2349449D03*
Y2347480D03*
Y2345512D03*
Y2343543D03*
Y2341575D03*
Y2339606D03*
Y2337638D03*
Y2335669D03*
Y2333701D03*
Y2331732D03*
Y2329764D03*
Y2327795D03*
Y2325827D03*
Y2323858D03*
Y2321890D03*
Y2319921D03*
Y2317953D03*
Y2315984D03*
Y2314016D03*
Y2312047D03*
Y2310079D03*
Y2308110D03*
Y2306142D03*
Y2304173D03*
Y2302205D03*
Y2300236D03*
Y2298268D03*
Y2296299D03*
Y2294331D03*
Y2292362D03*
Y2290394D03*
Y2288425D03*
Y2286457D03*
Y2284488D03*
Y2282520D03*
Y2280551D03*
X1962126D03*
Y2282520D03*
Y2284488D03*
Y2286457D03*
Y2288425D03*
Y2290394D03*
Y2292362D03*
Y2294331D03*
Y2296299D03*
Y2298268D03*
Y2300236D03*
Y2302205D03*
Y2304173D03*
Y2306142D03*
Y2308110D03*
Y2310079D03*
Y2312047D03*
Y2314016D03*
Y2315984D03*
Y2317953D03*
Y2319921D03*
Y2321890D03*
Y2323858D03*
Y2325827D03*
Y2327795D03*
Y2329764D03*
Y2331732D03*
Y2333701D03*
Y2335669D03*
Y2337638D03*
Y2339606D03*
Y2341575D03*
Y2343543D03*
Y2345512D03*
Y2347480D03*
Y2349449D03*
G54D25*
X1885551Y2272874D03*
X1887520D03*
X1889488D03*
X1891457D03*
X1893425D03*
X1895394D03*
X1897362D03*
X1899331D03*
X1901299D03*
X1903268D03*
X1905236D03*
X1907205D03*
X1909173D03*
X1911142D03*
X1913110D03*
X1915079D03*
X1917047D03*
X1919016D03*
X1920984D03*
X1922953D03*
X1924921D03*
X1926890D03*
X1928858D03*
X1930827D03*
X1932795D03*
X1934764D03*
X1936732D03*
X1938701D03*
X1940669D03*
X1942638D03*
X1944606D03*
X1946575D03*
X1948543D03*
X1950512D03*
X1952480D03*
X1954449D03*
Y2357126D03*
X1952480D03*
X1950512D03*
X1948543D03*
X1946575D03*
X1944606D03*
X1942638D03*
X1940669D03*
X1938701D03*
X1936732D03*
X1934764D03*
X1932795D03*
X1930827D03*
X1928858D03*
X1926890D03*
X1924921D03*
X1922953D03*
X1920984D03*
X1919016D03*
X1917047D03*
X1915079D03*
X1913110D03*
X1911142D03*
X1909173D03*
X1907205D03*
X1905236D03*
X1903268D03*
X1901299D03*
X1899331D03*
X1897362D03*
X1895394D03*
X1893425D03*
X1891457D03*
X1889488D03*
X1887520D03*
X1885551D03*
G54D26*
X1920000Y2315000D03*
G54D27*
X1877500Y2376969D03*
X1882500D03*
X1887500D03*
X1892500D03*
Y2398031D03*
X1887500D03*
X1882500D03*
X1877500D03*
G54D28*
X2014000Y1916000D02*
X2025500D01*
Y1915800*
X2007000Y1909000D02*
X2013150D01*
X2014250Y1907900*
X2025500*
X1840000Y1920000D02*
X1863125D01*
X1868125Y1925000*
X1891000*
X1935583Y1936072D02*
X1940000Y1931655D01*
Y1925000*
X1945000Y1920000*
X1989038*
X1992738Y1923700*
X2025500*
X1925583Y1926072D02*
X1930000Y1930490D01*
Y1937702*
X1952298Y1960000*
X2015300*
X2019400Y1964100*
X2025500*
X1945583Y1926072D02*
X1949775D01*
X1953703Y1930000*
X1991158*
X1993658Y1932500*
X2012662*
X2019662Y1939500*
X2025500*
X1965583Y1926072D02*
X2013872D01*
X2019400Y1931600*
X2025500*
X1931683Y1937688D02*
Y1929972D01*
X1935583Y1926072*
X1931683Y1937688D02*
X1950195Y1956200D01*
X2025500*
X1960000Y1942000D02*
X1983939D01*
X1986939Y1939000*
X2014000*
X1977000Y1975000D02*
X1996650Y1994650D01*
X2001000Y1976000D02*
X2003840Y1973160D01*
Y1969887*
X2009627Y1964100*
X2025500*
X1951000Y1978000D02*
X1957500D01*
X1960500Y1975000*
X1967000*
X1947000Y2017000D02*
X1957669D01*
X1960669Y2020000*
X1981035*
X1987035Y2026000*
X1993000*
X1840000Y2040000D02*
X1852500D01*
X1858500Y2046000*
X1870000*
X1840000Y2070000D02*
X1855000D01*
X1861000Y2076000*
X1874000*
X1893600Y2071615D02*
Y2068385D01*
X1896985Y2065000*
X1902500*
X1907500Y2070000*
X1893600Y2071615D02*
X1899485Y2077500D01*
X1908015*
X1912500Y2081985*
Y2096183*
X1914000Y2097683*
Y2102000*
X1881000Y2060000D02*
X1903015D01*
X1912500Y2069485*
Y2070515*
X1915885Y2073900*
X1929115*
X1932500Y2070515*
Y2069485*
X1935885Y2066100*
X1949115*
X1952500Y2069485*
Y2070515*
X1955885Y2073900*
X1960027*
X1960577Y2073350*
X1964512*
X1967500Y2076338*
Y2082500*
X1897500Y2070000D02*
X1902500Y2075000D01*
X1911250*
X1913750Y2077500*
X1924800*
X1926300Y2076000*
X1941000*
X1917500Y2070000D02*
X1925000Y2062500D01*
X1965515*
X1971400Y2068385*
Y2084115*
X1937500Y2070000D02*
X1941692D01*
X1949192Y2077500*
X1954021*
X1954521Y2077000*
X1963000*
X1840000Y2080000D02*
X1857625D01*
X1860625Y2083000*
X1878000*
X1870000Y2116162D02*
Y2109000D01*
X1880535Y2098465*
X1881535*
X1893000Y2087000*
X1870000Y2116162D02*
X1888838Y2135000D01*
X1933500*
X1940000Y2141500*
Y2149773*
X1948887Y2158660*
X1951660*
X1955000Y2162000*
X1874000Y2111000D02*
X1885465Y2099535D01*
X1886715*
X1898071Y2088179*
X1901821*
X1907500Y2082500*
X1941000Y2109000D02*
Y2101183D01*
X1942500Y2099683*
Y2087500*
X1947500Y2082500*
X1885000Y2126000D02*
X1890817D01*
X1894817Y2130000*
X1918015*
X1922500Y2125515*
Y2124485*
X1930644Y2116340*
X1933660*
X1941000Y2109000*
X1917500Y2125000D02*
X1932500Y2110000D01*
Y2092942*
X1937500Y2087942*
Y2082500*
X1933600Y2126615D02*
X1936985Y2130000D01*
X1948308*
X1953308Y2125000*
X1957500*
X1933600Y2126615D02*
Y2123322D01*
X1953530Y2103392*
Y2093455*
X1960156Y2086829*
X1968686*
X1968686D02*
X1971400Y2084115D01*
X1927500Y2125000D02*
X1935054Y2117446D01*
X1937716*
X1952260Y2102902*
Y2087740*
X1957500Y2082500*
X1937500Y2125000D02*
X1962500Y2100000D01*
Y2094485*
X1966985Y2090000*
X1970000*
X1977500Y2082500*
X1945000Y2135000D02*
X1970000D01*
X1975000Y2130000*
X2000000*
X1977500Y2125000D02*
Y2110808D01*
X1982500Y2105808*
Y2054695*
X1996650Y2040545*
Y1994650*
X1847000Y2150000D02*
X1854500Y2142500D01*
X1893175*
X1893675Y2143000*
X1936000*
X1840000Y2150000D02*
X1850625Y2160625D01*
Y2165787*
X1859781Y2174943*
X1875175*
X1879176Y2178944*
X1884584*
X1885915Y2180276*
Y2186442*
X1885350Y2154650D02*
X1892000Y2148000D01*
X1932000*
X1885350Y2154650D02*
Y2164702D01*
X1890705Y2170057*
Y2173961*
X1892000Y2154000D02*
X1896500D01*
X1905650Y2163150*
Y2168776*
X1956500Y2141500D02*
Y2155000D01*
X1961500Y2160000*
X1975500*
X1981500Y2154000*
X1951500D02*
Y2140985D01*
X1954985Y2137500*
X1978500*
X1982500Y2141500*
X1986500*
X1951500Y2154000D02*
X1955493Y2157993D01*
X1956487*
X1964650Y2166156*
X1961500Y2154000D02*
X1967750Y2147750D01*
X1970250*
X1976500Y2141500*
X1834900Y2172112D02*
X1838513Y2175725D01*
X1844073*
X1857399Y2189052*
X1874052*
X1876579Y2191579*
X1880961*
X1834900Y2172112D02*
Y2139292D01*
X1840000Y2134192*
Y2130000*
X1836100Y2171615D02*
X1838697Y2174213D01*
X1838697D02*
X1845453D01*
X1845453D02*
X1858774Y2187534D01*
X1874680*
X1876757Y2189610*
X1880961*
X1836100Y2171615D02*
Y2148092D01*
X1840000Y2144192*
Y2140000*
Y2160000D02*
X1857764Y2177764D01*
X1875153*
X1877533Y2180144*
X1884087*
X1884715Y2180773*
Y2185673*
X1840000Y2170000D02*
X1844134D01*
X1859784Y2185650*
X1875532*
X1877186Y2183995*
X1880961*
Y2183705*
X1861000Y2171000D02*
X1874075D01*
X1880579Y2177503*
X1885180*
X1886592Y2178915*
X1905253*
X1906453Y2177715*
Y2173961*
X1889000Y2162000D02*
X1889747Y2167253D01*
X1889994Y2167500*
X1890000*
X1892673Y2170173*
Y2173961*
X1879000Y2168000D02*
X1879338Y2172500D01*
X1882900Y2176062*
X1885778*
X1887431Y2177715*
X1894642*
Y2173961*
X1884000Y2172000D02*
Y2172261D01*
X1888736*
Y2173961*
X1897000Y2160000D02*
Y2163744D01*
X1898080Y2164824*
Y2168975*
X1898579Y2169473*
Y2173961*
X1894000Y2166000D02*
X1896581Y2168581D01*
Y2168975*
X1896610Y2169004*
Y2173961*
X1912000Y2167000D02*
X1912068Y2171406D01*
Y2173961*
X1912358*
X1918264D02*
Y2166574D01*
X1920488Y2164350*
X1925350*
X1929000Y2168000*
X1916295Y2173961D02*
Y2169965D01*
X1916984Y2169277*
Y2166157*
X1921141Y2162000*
X1941000*
X1914327Y2173961D02*
Y2170021D01*
X1915717Y2168631*
Y2164830*
X1916000Y2164547*
Y2160000*
X1910390Y2173961D02*
Y2177715D01*
X1919227*
X1920552Y2176390*
Y2174692*
X1922000Y2173244*
Y2168000*
X1908421Y2173961D02*
Y2177715D01*
X1909621Y2178915*
X1919724*
X1921350Y2177289*
X1925000*
Y2177000*
X1904484Y2173961D02*
Y2169942D01*
X1905650Y2168776*
X1900547Y2173961D02*
Y2172508D01*
X1902000Y2167000*
X1922000Y2168000D02*
X1929000Y2175000D01*
X1970000*
X1929000Y2168000D02*
X1934244D01*
X1935894Y2166350*
X1948106*
X1949756Y2168000*
X1961000*
X1939000Y2170000D02*
X1950244D01*
X1952744Y2172500*
X1961662*
X1964650Y2169512*
Y2166156*
X1833700Y2179215D02*
X1839485Y2185000D01*
X1840515*
X1844125Y2188610*
Y2200287*
X1850488Y2206650*
X1853850*
X1855150Y2205350*
X1867855*
X1867863Y2205358*
X1880961*
X1833700Y2179215D02*
Y2110492D01*
X1840000Y2104192*
Y2100000*
X1847000Y2186000D02*
X1861000Y2200000D01*
X1870000*
X1870547Y2199453*
X1880961*
X1848000Y2193000D02*
X1856421Y2201421D01*
X1880961*
X1874000Y2182000D02*
Y2181736D01*
X1880961*
X1872000Y2193000D02*
X1876031D01*
X1876579Y2193547*
X1880961*
X1863000Y2193000D02*
X1867500Y2197500D01*
X1875000*
X1876984Y2195516*
X1880961*
Y2185673D02*
X1884715D01*
X1880961Y2187642D02*
X1884715D01*
X1885915Y2186442*
X1926039Y2195516D02*
Y2195806D01*
X1928594*
X1933000Y2196000*
X1926039Y2193547D02*
X1930042D01*
X1931240Y2192350*
X1934606*
X1935256Y2193000*
X1939000*
X1926039Y2191579D02*
X1929922D01*
X1930690Y2190810*
X1934671*
X1936131Y2189350*
X1941897*
X1947669Y2195123*
X1960379*
X1964256Y2199000*
X1969000*
X1926039Y2189610D02*
X1930059D01*
X1930400Y2189270*
X1930400D02*
X1933157D01*
X1934277Y2188150*
X1943779*
X1948572Y2192944*
X1971583*
X1976364Y2197725*
X1988678*
X1988953Y2198000*
X1999000*
X1926039Y2187642D02*
X1931447D01*
X1932139Y2186950*
X1946480*
X1949470Y2189940*
X1971583*
X1975643Y2194000*
X1982000*
X1926039Y2185673D02*
X1939400D01*
X1946073Y2179000*
X1999000*
X1926039Y2181736D02*
X1933000D01*
Y2182000*
X1835000Y2210515D02*
Y2199192D01*
X1840000Y2194192*
Y2190000*
X1835000Y2210515D02*
X1839485Y2215000D01*
X1840515*
X1847850Y2222335*
Y2224910*
X1867949Y2245009*
X1871995*
X1875836Y2248850*
X1882290*
X1885924Y2245217*
X1905018*
X1914852Y2255050*
X1923637*
X1923637D02*
X1925337Y2253350D01*
X1925337D02*
X1928512D01*
X1930650Y2255488*
Y2267574*
X1853000Y2214000D02*
Y2228363D01*
X1868366Y2243730*
X1872990*
X1876911Y2247650*
X1881245*
X1884879Y2244017*
X1905592*
X1915426Y2253850*
X1922915*
X1924615Y2252150*
X1929009*
X1932500Y2255641*
Y2267500*
X1857000Y2209000D02*
X1866244D01*
X1867917Y2207327*
X1880961*
X1852000Y2203000D02*
X1866233D01*
X1866623Y2203390*
X1880961*
X1869000Y2216000D02*
X1876756D01*
X1877803Y2214953*
Y2214697*
X1878406Y2211554*
X1878462Y2211264*
X1880961*
X1874000Y2212000D02*
X1876705Y2209295D01*
X1880961*
X1859000Y2216000D02*
X1863276D01*
X1866926Y2219650*
X1877728*
X1882093Y2215285*
X1894642*
Y2219039*
X1884715Y2197484D02*
X1887476Y2194724D01*
Y2181724*
X1888363Y2180836*
X1918637*
X1920724Y2182924*
Y2190018*
X1922285Y2191579*
X1926039*
X1884715Y2197484D02*
Y2208515D01*
X1888700Y2212500*
X1893825*
X1896610Y2215285*
Y2219039*
X1884715Y2197484D02*
X1880961D01*
X1884715*
X1922285Y2205358D02*
Y2213459D01*
X1930123Y2221297*
X1933297*
X1936000Y2224000*
X1922285Y2205358D02*
X1926039D01*
X1936000Y2202000D02*
Y2202200D01*
X1943000*
Y2200000*
X1926039Y2211264D02*
Y2212898D01*
X1932990Y2219849*
X1937010*
X1940000Y2222838*
Y2225162*
X1943213Y2228375*
X1947375*
X1951500Y2232500*
X1952000*
X1926039Y2209295D02*
X1928789D01*
X1929970Y2210476*
Y2215131*
X1933238Y2218400*
X1937595*
X1940004Y2220810*
X1940810*
X1944000Y2224000*
X1926039Y2207327D02*
X1929794D01*
X1931294Y2208827*
Y2211294*
X1934000Y2214000*
X1926039Y2201421D02*
Y2201712D01*
X1929794*
X1929836Y2201755*
Y2204533*
X1938375Y2213072*
Y2217148*
X1940599Y2219372*
X1947896*
X1948524Y2220000*
X1959000*
X1926039Y2199453D02*
X1927738D01*
X1928594Y2199743*
X1930000Y2200221*
X1931076Y2201297*
Y2203934*
X1937210Y2210069*
X1937569*
X1942500Y2215000*
X1943000*
X1926039Y2197484D02*
X1927738D01*
X1928594Y2197775*
X1930000Y2198253*
X1932315Y2200567*
Y2203476*
X1935919Y2207081*
X1941000Y2208000*
X1952000Y2200000D02*
X1959000D01*
X1952000Y2215000D02*
Y2212800D01*
X1954700*
X1959000Y2211000*
X1943000Y2215000D02*
X1943789D01*
X1949000Y2209000*
X1969000Y2199000D02*
X1981650Y2211650D01*
X1840000Y2230000D02*
X1856291Y2246291D01*
X1871040*
X1874800Y2250050*
X1883369*
X1887002Y2246417*
X1904367*
X1915233Y2257283*
Y2267400*
X1917047Y2269214*
Y2272874*
X1863000Y2221000D02*
X1881680D01*
X1883641Y2219039*
X1888736*
X1873000Y2226000D02*
X1886493D01*
X1890705Y2221789*
Y2219039*
X1866000Y2227000D02*
X1868650Y2229650D01*
X1884864*
X1890942Y2223572*
X1891895*
X1892673Y2222794*
Y2219039*
X1892000Y2228000D02*
X1895894Y2224106D01*
X1897266*
X1898579Y2222794*
Y2219039*
X1892500Y2235000D02*
X1897441D01*
X1899941Y2232500*
X1908000*
X1900000Y2227000D02*
X1900257D01*
Y2219039*
X1900547*
X1902516D02*
Y2222794D01*
X1905722Y2226000*
X1907000*
X1906453Y2219039D02*
Y2215285D01*
X1908013Y2213724*
X1917076*
X1919524Y2211276*
Y2202213*
X1922285Y2199453*
X1926039*
X1908421Y2219039D02*
Y2222251D01*
X1915116Y2228946*
X1920219*
X1920912Y2229640*
Y2231468*
X1929494Y2240050*
X1939652*
X1940552Y2239150*
X1949503*
X1951353Y2241000*
X1956000*
X1910390Y2219039D02*
X1910680D01*
Y2222813*
X1915488Y2227621*
X1920787*
X1932016Y2238850*
X1938725*
X1940303Y2237272*
X1964984*
X1970256Y2232000*
X1978000*
X1912358Y2219039D02*
Y2222794D01*
X1915861Y2226296*
X1921356*
X1932710Y2237650*
X1937798*
X1939455Y2235994*
X1957006*
X1960000Y2233000*
X1914327Y2219039D02*
Y2222794D01*
X1916533Y2225000*
X1922150*
X1925150Y2228000*
X1929000*
X1916295Y2219039D02*
Y2216205D01*
X1917500Y2215000*
X1917536*
X1917536D02*
X1920752Y2211784D01*
Y2204923*
X1922285Y2203390*
X1926039*
X1916295Y2219039D02*
Y2222794D01*
X1917227Y2223725*
X1929887*
X1933035Y2226873*
Y2231035*
X1936000Y2234000*
X1918264Y2219039D02*
Y2220000D01*
X1923000*
X1917000Y2232500D02*
X1917500D01*
X1926250Y2241250*
X1941869*
X1942769Y2240350*
X1948507*
X1952807Y2244650*
X1961256*
X1966406Y2239500*
X1975662*
X1981650Y2233512*
Y2211650*
X1936000Y2234000D02*
X1943000D01*
Y2232500*
X1952000D02*
X1952500D01*
X1969000Y2216000*
Y2199000*
X1840000Y2240000D02*
X1847554Y2247554D01*
X1870236*
X1873933Y2251250*
X1884392*
X1888026Y2247617*
X1903870*
X1913847Y2257594*
Y2267848*
X1915079Y2269080*
Y2272874*
X1840000Y2250000D02*
X1849869D01*
X1851053Y2248817*
X1869427*
X1873061Y2252450*
X1885318*
X1888951Y2248817*
X1903373*
X1912494Y2257938*
Y2268397*
X1913110Y2269013*
Y2272874*
X1874000Y2240000D02*
X1909000D01*
X1916500Y2232500*
X1917000*
X1866909Y2252717D02*
X1871220D01*
X1873503Y2255000*
X1885318*
X1887601Y2252717*
X1892500*
X1879000Y2244000D02*
X1882650D01*
X1884150Y2242500*
X1905850*
X1908350Y2245000*
X1912000*
X1915000Y2250162D02*
X1917488Y2252650D01*
X1921465*
X1923165Y2250950*
X1929506*
X1933700Y2255144*
Y2268155*
X1915000Y2250162D02*
Y2247500D01*
X1917000Y2245500*
Y2232500*
X1919000Y2249000D02*
X1926598D01*
X1928098Y2247500*
X1932046*
X1937046Y2252500*
X1942695*
X1945195Y2250000*
X1949773*
X1952958Y2253185*
Y2260000*
X1946000Y2244000D02*
X1948581Y2246581D01*
X1950162Y2245000*
X1950307*
X1952807Y2247500*
X1955715*
X1956215Y2247000*
X1968000*
X1941000Y2248000D02*
X1950962D01*
X1953612Y2250650*
X1970125*
X1973775Y2247000*
X1984000*
X1957000Y2255000D02*
X1962369D01*
X1965269Y2252100*
X1971000*
X1971500Y2251600*
X1980000*
X1981800Y2252800*
X1984500*
Y2255000*
X1968000Y2256000D02*
X1975500D01*
Y2255000*
X1984500D02*
Y2252800D01*
X1991000*
Y2253000*
X1857000Y2265000D02*
X1874744D01*
X1877394Y2262350*
X1894512*
X1899331Y2267169*
Y2272874*
X1840000Y2260000D02*
X1845933D01*
X1848433Y2257500*
X1897656*
X1902656Y2252500*
X1905359*
X1911142Y2258283*
Y2272874*
X1840000Y2270000D02*
X1850675Y2259325D01*
X1897656*
X1901631Y2255350*
X1906512*
X1909850Y2258688*
Y2268340*
X1866000Y2274000D02*
X1865973Y2274037D01*
X1869204Y2276387*
X1869327*
X1869365Y2276350*
X1872512*
X1875170Y2279008*
X1880950*
X1881530Y2279588*
Y2281515*
X1881000Y2273000D02*
X1885551D01*
Y2272874*
X1893000Y2266000D02*
X1893135Y2270418D01*
Y2272874*
X1893425*
X1905000Y2259000D02*
X1908650Y2262650D01*
Y2267642*
X1905000Y2266000D02*
X1905236D01*
Y2272874*
X1909173D02*
Y2269017D01*
X1909850Y2268340*
X1907205Y2272874D02*
Y2269088D01*
X1908650Y2267642*
X1927000Y2257000D02*
X1923350Y2260650D01*
Y2267579*
X1924921Y2269151*
Y2272874*
X1919000Y2266000D02*
X1919735D01*
X1922953Y2269218*
Y2272874*
X1936732D02*
Y2268268D01*
X1937919Y2267081*
X1942000Y2266000*
X1934764Y2272874D02*
Y2279000D01*
X1935000*
X1932795Y2272874D02*
Y2269060D01*
X1933700Y2268155*
X1930827Y2272874D02*
Y2269173D01*
X1932500Y2267500*
X1928858Y2272874D02*
X1929149D01*
Y2269075*
X1930650Y2267574*
X1926890Y2272874D02*
Y2266000D01*
X1927000*
X1952958Y2260000D02*
X1990256D01*
X1995256Y2255000*
X2000000*
X1941000Y2259000D02*
X1945300Y2257200D01*
X1948000*
Y2255000*
X1954449Y2272874D02*
X1957103D01*
X1959977Y2270000*
X1965141*
X1966141Y2271000*
X1979000*
X1952480Y2272874D02*
Y2266450D01*
X1952958Y2265972*
Y2260000*
X1948543Y2272874D02*
Y2267662D01*
X1949000Y2267206*
Y2262000*
X1962000Y2276000D02*
Y2280551D01*
X1962126*
X1968000Y2264000D02*
X2000000D01*
X1836100Y2288385D02*
Y2301615D01*
X1839485Y2305000*
X1840515*
X1843900Y2308385*
X1836100Y2288385D02*
X1838718Y2285767D01*
X1846204*
X1862753Y2269218*
X1887520*
Y2272874*
X1834900Y2287888D02*
Y2310708D01*
X1840000Y2315808*
Y2320000*
X1834900Y2287888D02*
X1838554Y2284233D01*
X1844485*
X1860700Y2268018*
X1888288*
X1889488Y2269218*
Y2272874*
X1855000Y2293000D02*
X1860962Y2287038D01*
X1873363*
X1873944Y2286457*
X1877874*
X1857000Y2284000D02*
X1864244D01*
X1865894Y2285650*
X1872780*
X1873941Y2284488*
X1877874*
X1840000Y2280000D02*
X1848054Y2271946D01*
Y2268784*
X1855688Y2261150*
X1895009*
X1900940Y2267081*
Y2267142*
X1902977Y2269179*
Y2272874*
X1903268*
X1840000Y2290000D02*
X1850350D01*
X1871000Y2282000D02*
X1876526Y2280551D01*
X1877874*
X1863000Y2291000D02*
X1867396D01*
X1869970Y2288425*
X1877874*
X1870000Y2296000D02*
X1873638Y2292362D01*
X1877874*
Y2282520D02*
X1880525D01*
X1881530Y2281515*
X1877874Y2294331D02*
X1882275D01*
X1883605Y2293000*
X1888000*
X1897494Y2285000D02*
X1918025D01*
X1923213Y2279812*
X1930650*
X1897494Y2285000D02*
X1895350Y2282856D01*
Y2279488*
X1897898Y2276940*
X1900889*
X1901299Y2276530*
Y2272874*
X1888000Y2293000D02*
X1890965Y2290035D01*
X1894127*
X1897081Y2287081*
X1897494Y2285000*
X1889000Y2279000D02*
X1891457Y2276543D01*
Y2272874*
X1893000Y2286000D02*
Y2282104D01*
X1894006Y2281098*
Y2279008*
X1897362Y2275652*
Y2272874*
X1886000Y2285000D02*
X1889662Y2283500D01*
X1892800Y2280362*
Y2278381*
X1895394Y2275788*
Y2272874*
X1899000Y2281000D02*
X1903060Y2276940D01*
X1918606*
X1919016Y2276530*
Y2272874*
X1907000Y2281000D02*
X1916514D01*
X1920984Y2276530*
Y2272874*
X1930650Y2279812D02*
Y2277929D01*
X1932795Y2275784*
Y2272874*
X1930650Y2279812D02*
X1933488Y2282650D01*
X1955512*
X1958000Y2280162*
Y2274838*
X1960488Y2272350*
X1968350*
X1979000Y2283000*
X1925000Y2287000D02*
X1929209D01*
X1932326Y2283883*
X1956442*
X1957805Y2282520*
X1962126*
X1935000Y2289000D02*
X1945244D01*
X1947894Y2286350*
X1957938*
X1958044Y2286457*
X1962126*
X1921000Y2294000D02*
X1923965Y2291035D01*
X1927431*
X1933349Y2285116*
X1957372*
X1958000Y2284488*
X1962126*
X1954000Y2279000D02*
X1950350D01*
Y2272874*
X1950512*
X1953000Y2297000D02*
X1957202D01*
X1958470Y2298268*
X1962126*
X1956000Y2290000D02*
X1958362Y2292362D01*
X1962126*
X1946000Y2279000D02*
X1946284Y2275330D01*
Y2272874*
X1946575*
X1945000Y2297000D02*
X1950500Y2302500D01*
X1955000*
X1957264Y2300236*
X1962126*
X1973281Y2288119D02*
X1977500Y2292338D01*
Y2292662*
X1979838Y2295000*
X1980000*
X1985000Y2300000*
Y2300500*
X1973281Y2288119D02*
X1974974Y2286426D01*
X1975574*
X1979000Y2283000*
X1962126Y2296299D02*
X1967299D01*
X1969000Y2298000*
X1962126Y2294331D02*
X1966901D01*
X1968231Y2293000*
X1973000*
X1962126Y2290394D02*
X1969768D01*
X1971003Y2289159*
X1972241*
X1973281Y2288119*
X1962126Y2288425D02*
Y2288581D01*
X1966419*
X1969000Y2286000*
X1979000Y2283000D02*
X1982800Y2278200D01*
Y2275500*
X1985000*
X1981000Y2291000D02*
X1982800Y2287200D01*
Y2284500*
X1985000*
X1989000Y2294000D02*
X2000850Y2305850D01*
X1852000Y2308000D02*
X1856604Y2303396D01*
X1859053*
X1862450Y2300000*
X1871162*
X1873934Y2297228*
Y2296583*
X1874218Y2296299*
X1877874*
X1871000Y2314000D02*
Y2314016D01*
X1877874*
X1861000Y2307000D02*
X1866657D01*
X1873420Y2300236*
X1877874*
Y2298268D02*
X1884000D01*
Y2298000*
X1877874Y2308110D02*
X1878550D01*
X1884000Y2309000*
X1877874Y2310079D02*
X1878977D01*
X1884000Y2309000*
X1877874Y2312047D02*
X1881708D01*
X1882660Y2313000*
X1888256*
X1889256Y2314000*
X1896000*
X1962126Y2310079D02*
X1970527D01*
X1970605Y2310000*
X1979000*
X1962126Y2302205D02*
X1972205D01*
X1975000Y2305000*
X1987555*
X1990055Y2302500*
X1991662*
X1994871Y2305710*
X1996000Y2311000*
X1985000Y2309500D02*
Y2306800D01*
X1991000*
Y2307000*
X1985000Y2300500D02*
X1988500D01*
X1989000Y2300000*
X1992014*
X1999650Y2307636*
X1833700Y2329215D02*
Y2260785D01*
X1839485Y2255000*
X1846433*
X1848433Y2253000*
X1858000*
X1833700Y2329215D02*
X1839485Y2335000D01*
X1840515*
X1845000Y2339485*
Y2340515*
X1854000Y2328000D02*
X1865555D01*
X1867555Y2330000*
X1870768*
X1871005Y2329764*
X1877874*
X1857000Y2334000D02*
X1862047D01*
X1864315Y2331732*
X1877874*
X1840000Y2330000D02*
Y2325808D01*
X1843900Y2321908*
Y2308385*
X1866000Y2318000D02*
X1869162Y2320000D01*
X1871250*
X1872500Y2318750*
Y2317702*
X1874218Y2315984*
X1877874*
X1871000Y2324000D02*
Y2323858D01*
X1877874*
Y2317953D02*
X1878720D01*
X1884000Y2317000*
X1877874Y2319921D02*
X1881645D01*
X1882373Y2320650*
X1885792*
X1888292Y2318150*
X1900378*
X1914228Y2332000*
X1950000*
X1877874Y2321890D02*
X1886530D01*
X1889070Y2319350*
X1896696*
X1911621Y2334275*
X1939146*
X1946185Y2341315*
X1877874Y2325827D02*
X1880768D01*
X1882351Y2324244*
X1886530*
X1887774Y2323000*
X1892000*
X1877874Y2327795D02*
X1884000D01*
Y2328000*
X1942000Y2324000D02*
X1945465Y2327465D01*
X1950627*
X1953650Y2330488*
X1956000Y2327000D02*
X1961783Y2327795D01*
X1962126*
X1956000Y2320000D02*
Y2319921D01*
X1962126*
X1974000Y2318000D02*
X1982000D01*
X1983000Y2317000*
X1991000*
X1962126Y2325827D02*
Y2326117D01*
X1965782*
X1967500Y2327835*
Y2328494*
X1969006Y2330000*
X1970732*
X1975232Y2325500*
X1985000*
X1964582Y2323858D02*
X1962126D01*
X1969000*
Y2324000*
X1962126Y2321890D02*
X1964582D01*
Y2323858*
X1962126Y2317953D02*
X1967857D01*
X1968310Y2317500*
X1969750*
X1970250Y2318000*
X1974000*
X1985000Y2334500D02*
Y2341000D01*
Y2325500D02*
X1991500D01*
X1995000Y2322000*
X1857500Y2343338D02*
Y2355295D01*
X1877500Y2375295*
Y2376969*
X1857500Y2343338D02*
X1865838Y2335000D01*
X1870000*
X1870669Y2335669*
X1877874*
X1862000Y2351000D02*
X1868000Y2345000D01*
X1869479*
X1871959Y2347480*
X1877874*
X1862000Y2344000D02*
X1866476D01*
X1866676Y2343800*
X1871293*
X1873005Y2345512*
X1877874*
X1867000Y2340000D02*
X1871253D01*
X1873615Y2337638*
X1877874*
X1869000Y2351000D02*
X1872658D01*
X1874210Y2349449*
X1877874*
Y2339606D02*
X1882894D01*
X1885000Y2337500*
X1890425*
X1890925Y2338000*
X1900000*
X1877874Y2341575D02*
X1881727D01*
X1882153Y2342000*
X1886000*
X1877874Y2343543D02*
Y2343253D01*
X1882011*
X1884408Y2345650*
X1888606*
X1890256Y2344000*
X1895000*
X1877874Y2343543D02*
X1880330D01*
Y2344021*
X1881003*
X1881434Y2344453*
X1889481Y2352500*
X1892500*
X1893135Y2354670*
X1893425Y2355664*
Y2357126*
X1886000Y2342000D02*
X1890744D01*
X1892744Y2340000*
X1896162*
X1900000Y2343838*
Y2347756*
X1904744Y2352500*
X1904946Y2354670*
Y2357126*
X1905236*
X1895394D02*
X1895684D01*
Y2354670*
X1896000Y2351000*
X1917350Y2347488D02*
X1927338Y2337500D01*
X1931750*
X1933250Y2339000*
X1937000*
X1917350Y2347488D02*
Y2350582D01*
X1919016Y2352248*
Y2357126*
X1906000Y2347000D02*
X1909650D01*
X1911650Y2345000*
X1912162*
X1915900Y2348738*
Y2350900*
X1917047Y2352047*
Y2357126*
X1905236D02*
Y2358190D01*
X1905527Y2359582*
X1906082Y2362244*
X1911488Y2367650*
X1947581*
X1954449Y2360782*
Y2357126*
X1911142D02*
Y2356548D01*
X1912000Y2351000*
X1920984Y2357126D02*
Y2353068D01*
X1921000Y2353052*
Y2349000*
X1922953Y2357126D02*
Y2352515D01*
X1925083Y2350385*
Y2349382*
X1925815Y2348650*
Y2345000*
X1926000*
X1924921Y2357126D02*
Y2352702D01*
X1926283Y2351341*
Y2349879*
X1930000Y2346162*
X1932000Y2343000*
X1926890Y2357126D02*
Y2352890D01*
X1931000Y2351000*
X1936732Y2357126D02*
Y2355761D01*
X1938000Y2351000*
X1946185Y2341315D02*
Y2343428D01*
X1957500Y2354743*
X1946185Y2341315D02*
X1953650Y2333850D01*
Y2330488*
X1955000Y2347000D02*
X1957581Y2349581D01*
X1962126*
Y2349449*
X1938701Y2357126D02*
Y2358309D01*
X1940000Y2364000*
X1940669Y2357126D02*
X1940960D01*
Y2353470*
X1941930Y2352500*
X1953479*
X1954449Y2353470*
Y2357126*
X1962126Y2347480D02*
X1978480D01*
X1981500Y2350500*
X1985000*
X1962126Y2337638D02*
X1967362D01*
X1975000Y2330000*
X1992500*
X1999650Y2322850*
Y2307636*
X1985000Y2350500D02*
X1987200D01*
Y2353200*
X1988400Y2355000*
X1985000Y2350500D02*
Y2348263D01*
X1991000Y2347000*
X1834900Y2370415D02*
Y2349585D01*
X1839485Y2345000*
X1840515*
X1845000Y2340515*
X1834900Y2370415D02*
X1839485Y2375000D01*
X1842500*
X1880000Y2412500*
X1885425*
X1886925Y2411000*
X1896000*
X1836100Y2358385D02*
X1839485Y2355000D01*
X1840515*
X1847275Y2348240*
Y2307563*
X1854665Y2300173*
X1860191*
X1869970Y2290394*
X1877874*
X1836100Y2358385D02*
Y2366100D01*
X1840000Y2370000*
X1873000Y2364000D02*
X1905500D01*
X1921500Y2380000*
X1922000*
X1892500Y2376969D02*
Y2375563D01*
X1896000Y2371000*
X1882500Y2376969D02*
Y2375295D01*
X1884419Y2373376*
Y2371581*
X1887000Y2369000*
X1913000Y2364000D02*
X1913110D01*
Y2357126*
X1928000Y2364000D02*
X1928858Y2357321D01*
Y2357126*
X1982000Y2366000D02*
X1982800Y2362200D01*
Y2359500*
X1985000*
X1856300Y2382140D02*
X1876660Y2402500D01*
X1898720*
X1903720Y2397500*
X1913000*
X1856300Y2382140D02*
Y2342841D01*
X1865440Y2333701*
X1877874*
X1881350Y2387894D02*
Y2392820D01*
X1882500Y2393970*
Y2398031*
X1881350Y2387894D02*
X1882279Y2386965D01*
X1884035*
X1887000Y2384000*
X1887258*
Y2376969*
X1887500*
X1896000Y2387000D02*
X1905500D01*
X1912500Y2380000*
X1913000*
X1885000Y2391000D02*
X1887500Y2397914D01*
Y2398031*
X1913000Y2380000D02*
X1913500D01*
X1923775Y2390275*
X1939775*
X1941150Y2391650*
X1954512*
X1956650Y2389512*
Y2383400*
X1922000Y2380000D02*
X1932314D01*
X1940314Y2388000*
X1953000*
X1956650Y2383400D02*
X1962850D01*
X1973750Y2372500*
X1980662*
X1988400Y2364762*
Y2355000*
X1945500Y2380000D02*
Y2382200D01*
X1948200*
X1950000Y2383400*
X1956650*
X1954500Y2380000D02*
Y2369514D01*
X1957500Y2366514*
Y2354743*
X1966000Y2395000D02*
X1970625D01*
X1973125Y2397500*
X1978000*
Y2380000D02*
X1978500D01*
X2000850Y2357650*
Y2305850*
X1978000Y2380000D02*
Y2386119D01*
X1981900Y2390019*
X1987000Y2380000D02*
X1994000D01*
X1877500Y2398031D02*
X1882500D01*
X1892500D02*
Y2395950D01*
X1898000Y2393000*
X1913000Y2397500D02*
X1913500D01*
X1921000Y2405000*
X1946175*
X1947175Y2404000*
X1976000*
X1922000Y2397500D02*
Y2395300D01*
X1924700*
X1929000Y2395000*
X1954500Y2397500D02*
Y2399000D01*
X1961000*
X1945500Y2397500D02*
X1946000D01*
X1950025Y2393475*
X1958374*
X1960849Y2391000*
X1975000*
X1987000Y2397500D02*
Y2398000D01*
X1994000*
X1916000Y2420000D02*
X1920300Y2420300D01*
X1923000*
Y2422500*
X1932000D02*
Y2420300D01*
X1934700*
X1939000Y2420000*
X1956000Y2430000D02*
X1972500D01*
X1951000Y2421000D02*
X1951400D01*
Y2431145*
X1956300Y2436045*
Y2446200*
X1898000Y2449000D02*
X1908625D01*
X1912125Y2452500*
X1923000*
X1881909Y2437717D02*
X1907500D01*
X1914556*
X1927500Y2424773*
Y2420065*
X1935065Y2412500*
X1973500*
X1981900Y2404100*
Y2390019*
X1932000Y2452500D02*
X1932500D01*
X1940000Y2445000*
X1943744*
X1945000Y2443744*
Y2443400*
X1949400Y2439000*
X1951000*
X1923000Y2452500D02*
X1923500D01*
X1941000Y2470000*
X1972500*
X1944000Y2439000D02*
X1951000D01*
X1871000Y2477000D02*
X1878500D01*
Y2476500*
Y2458500D02*
X1880900D01*
X1894400Y2445000*
X1922273*
X1927500Y2450227*
Y2454773*
X1933727Y2461000*
X1951000*
X1944000Y2477000D02*
X1947700Y2477300D01*
X1951000*
Y2479000*
Y2461000D02*
X1951400D01*
Y2451100*
X1956300Y2446200*
X1840000Y2480000D02*
X1855400D01*
X1876900Y2458500*
X1878500*
X1898000Y2481000D02*
Y2467500D01*
X1900000*
X1898000Y2481000D02*
X1909875D01*
X1910875Y2480000*
X1923000*
X1932000D02*
X1936625D01*
X1939625Y2477000*
X1944000*
G54D29*
X2014000Y1916000D03*
X2007000Y1909000D03*
X1891000Y1925000D03*
X1960000Y1942000D03*
X2014000Y1939000D03*
X1967000Y1975000D03*
X1977000D03*
X2001000Y1976000D03*
X1951000Y1978000D03*
X1947000Y2017000D03*
X1993000Y2026000D03*
X1870000Y2046000D03*
X1874000Y2076000D03*
X1881000Y2060000D03*
X1941000Y2076000D03*
X1963000Y2077000D03*
X1878000Y2083000D03*
X1893000Y2087000D03*
X1874000Y2111000D03*
X1914000Y2102000D03*
X1941000Y2109000D03*
X1885000Y2126000D03*
X1945000Y2135000D03*
X2000000Y2130000D03*
X1847000Y2150000D03*
X1892000Y2154000D03*
X1932000Y2148000D03*
X1936000Y2143000D03*
X1861000Y2171000D03*
X1889000Y2162000D03*
X1879000Y2168000D03*
X1884000Y2172000D03*
X1897000Y2160000D03*
X1894000Y2166000D03*
X1916000Y2160000D03*
X1912000Y2167000D03*
X1902000D03*
X1925000Y2177000D03*
X1922000Y2168000D03*
X1929000D03*
X1941000Y2162000D03*
X1939000Y2170000D03*
X1955000Y2162000D03*
X1970000Y2175000D03*
X1961000Y2168000D03*
X1847000Y2186000D03*
X1848000Y2193000D03*
X1874000Y2182000D03*
X1872000Y2193000D03*
X1863000D03*
X1933000Y2182000D03*
Y2196000D03*
X1939000Y2193000D03*
X1982000Y2194000D03*
X1999000Y2179000D03*
X1853000Y2214000D03*
X1857000Y2209000D03*
X1852000Y2203000D03*
X1869000Y2216000D03*
X1874000Y2212000D03*
X1859000Y2216000D03*
X1936000Y2202000D03*
X1934000Y2214000D03*
X1949000Y2209000D03*
X1941000Y2208000D03*
X1969000Y2199000D03*
X1959000Y2211000D03*
Y2200000D03*
X1999000Y2198000D03*
X1863000Y2221000D03*
X1873000Y2226000D03*
X1866000Y2227000D03*
X1892000Y2228000D03*
X1907000Y2226000D03*
X1900000Y2227000D03*
X1936000Y2234000D03*
X1923000Y2220000D03*
X1929000Y2228000D03*
X1936000Y2224000D03*
X1944000D03*
X1978000Y2232000D03*
X1960000Y2233000D03*
X1959000Y2220000D03*
X1858000Y2253000D03*
X1874000Y2240000D03*
X1879000Y2244000D03*
X1912000Y2245000D03*
X1927000Y2257000D03*
X1919000Y2249000D03*
X1946000Y2244000D03*
X1941000Y2248000D03*
X1956000Y2241000D03*
X1968000Y2247000D03*
Y2256000D03*
X1991000Y2253000D03*
X1984000Y2247000D03*
X2000000Y2255000D03*
X1857000Y2265000D03*
X1866000Y2274000D03*
X1881000Y2273000D03*
X1893000Y2266000D03*
X1905000Y2259000D03*
Y2266000D03*
X1919000D03*
X1927000D03*
X1942000D03*
X1941000Y2259000D03*
X1949000Y2262000D03*
X1962000Y2276000D03*
X1968000Y2264000D03*
X1979000Y2271000D03*
X2000000Y2264000D03*
X1855000Y2293000D03*
X1857000Y2284000D03*
X1871000Y2282000D03*
X1863000Y2291000D03*
X1870000Y2296000D03*
X1888000Y2293000D03*
X1889000Y2279000D03*
X1893000Y2286000D03*
X1886000Y2285000D03*
X1899000Y2281000D03*
X1907000D03*
X1935000Y2279000D03*
X1925000Y2287000D03*
X1935000Y2289000D03*
X1921000Y2294000D03*
X1953000Y2297000D03*
X1956000Y2290000D03*
X1954000Y2279000D03*
X1946000D03*
X1945000Y2297000D03*
X1973000Y2293000D03*
X1969000Y2286000D03*
X1979000Y2283000D03*
X1981000Y2291000D03*
X1989000Y2294000D03*
X1852000Y2308000D03*
X1871000Y2314000D03*
X1861000Y2307000D03*
X1884000Y2309000D03*
Y2298000D03*
Y2317000D03*
X1896000Y2314000D03*
X1969000Y2298000D03*
X1991000Y2307000D03*
Y2317000D03*
X1996000Y2311000D03*
X1979000Y2310000D03*
X1854000Y2328000D03*
X1857000Y2334000D03*
X1866000Y2318000D03*
X1871000Y2324000D03*
X1892000Y2323000D03*
X1884000Y2328000D03*
X1942000Y2324000D03*
X1956000Y2327000D03*
Y2320000D03*
X1950000Y2332000D03*
X1969000Y2324000D03*
X1974000Y2318000D03*
X1995000Y2322000D03*
X1862000Y2351000D03*
Y2344000D03*
X1867000Y2340000D03*
X1869000Y2351000D03*
X1886000Y2342000D03*
X1895000Y2344000D03*
X1896000Y2351000D03*
X1912000D03*
X1906000Y2347000D03*
X1900000Y2338000D03*
X1938000Y2351000D03*
X1931000D03*
X1932000Y2343000D03*
X1926000Y2345000D03*
X1937000Y2339000D03*
X1921000Y2349000D03*
X1955000Y2347000D03*
X1985000Y2341000D03*
X1991000Y2347000D03*
X1873000Y2364000D03*
X1896000Y2371000D03*
X1887000Y2369000D03*
X1913000Y2364000D03*
X1928000D03*
X1940000D03*
X1982000Y2366000D03*
X1887000Y2384000D03*
X1896000Y2387000D03*
X1898000Y2393000D03*
X1885000Y2391000D03*
X1929000Y2395000D03*
X1953000Y2388000D03*
X1975000Y2391000D03*
X1966000Y2395000D03*
X1994000Y2380000D03*
X1896000Y2411000D03*
X1961000Y2399000D03*
X1976000Y2404000D03*
X1994000Y2398000D03*
X1916000Y2420000D03*
X1939000D03*
X1956000Y2430000D03*
X1898000Y2449000D03*
X1944000Y2439000D03*
X1871000Y2477000D03*
X1944000D03*
X1898000Y2481000D03*
X0Y0D02*
M02*
