*
*
G04 PADS VX.2.1 Build Number: 6554490 generated Gerber (RS-274-X) file*
G04 PC Version=2.1*
*
%IN "microp-revised-board.pc"*%
*
%MOIN*%
*
%FSLAX35Y35*%
*
*
*
*
G04 PC Standard Apertures*
*
*
G04 Thermal Relief Aperture macro.*
%AMTER*
1,1,$1,0,0*
1,0,$1-$2,0,0*
21,0,$3,$4,0,0,45*
21,0,$3,$4,0,0,135*
%
*
*
G04 Annular Aperture macro.*
%AMANN*
1,1,$1,0,0*
1,0,$2,0,0*
%
*
*
G04 Odd Aperture macro.*
%AMODD*
1,1,$1,0,0*
1,0,$1-0.005,0,0*
%
*
*
G04 PC Custom Aperture Macros*
*
*
*
*
*
*
G04 PC Aperture Table*
*
%ADD010C,0.001*%
%ADD011C,0.01*%
%ADD014R,0.157X0.035*%
%ADD019R,0.06X0.06*%
%ADD020C,0.06*%
%ADD026C,0.25*%
%ADD028C,0.006*%
%ADD029C,0.055*%
%ADD030C,0.012*%
*
*
*
*
G04 PC Circuitry*
G04 Layer Name microp-revised-board.pc - circuitry*
%LPD*%
*
*
G04 PC Custom Flashes*
G04 Layer Name microp-revised-board.pc - flashes*
%LPD*%
*
*
G04 PC Circuitry*
G04 Layer Name microp-revised-board.pc - circuitry*
%LPD*%
*
G54D10*
G54D11*
G01X232500Y200000D02*
X435000D01*
Y240000*
X405000*
Y250000*
X435000*
Y267500*
X405000*
Y792500*
X232500*
Y200000*
G54D14*
X425500Y261600D03*
Y253700D03*
Y237000D03*
Y229100D03*
Y221200D03*
Y213300D03*
Y205400D03*
G54D19*
X377213Y281509D03*
X351500Y451500D03*
X325583Y223572D03*
X387500Y422500D03*
Y380000D03*
Y367500D03*
G54D20*
X367213Y281509D03*
X377213Y291509D03*
X367213D03*
X377213Y301509D03*
X367213D03*
X377213Y311509D03*
X367213D03*
X377213Y321509D03*
X367213D03*
X361500Y451500D03*
X371500D03*
X381500D03*
Y481500D03*
X371500D03*
X361500D03*
X351500D03*
X346500Y439000D03*
X356500D03*
X366500D03*
X376500D03*
X386500D03*
X325583Y233572D03*
X335583Y223572D03*
Y233572D03*
X345583Y223572D03*
Y233572D03*
X355583Y223572D03*
Y233572D03*
X365583Y223572D03*
Y233572D03*
X377500Y422500D03*
X367500D03*
X357500D03*
X347500D03*
X337500D03*
X327500D03*
X317500D03*
X307500D03*
X297500D03*
Y392500D03*
X307500D03*
X317500D03*
X327500D03*
X337500D03*
X347500D03*
X357500D03*
X367500D03*
X377500D03*
X387500D03*
X377500Y380000D03*
X367500D03*
X357500D03*
X347500D03*
X337500D03*
X327500D03*
X317500D03*
X307500D03*
X297500D03*
X377500Y367500D03*
X367500D03*
X357500D03*
X347500D03*
X337500D03*
X327500D03*
X317500D03*
X307500D03*
X297500D03*
X307500Y717500D03*
X281909D03*
Y735217D03*
X307500D03*
X292500Y532500D03*
X266909D03*
Y550217D03*
X292500D03*
X240000Y777500D03*
Y767500D03*
Y757500D03*
Y747500D03*
Y737500D03*
Y727500D03*
Y717500D03*
Y707500D03*
Y697500D03*
Y687500D03*
Y677500D03*
Y667500D03*
Y657500D03*
Y647500D03*
Y637500D03*
Y627500D03*
Y617500D03*
Y607500D03*
Y597500D03*
Y587500D03*
Y577500D03*
Y567500D03*
Y557500D03*
Y547500D03*
Y537500D03*
Y527500D03*
Y517500D03*
Y507500D03*
Y497500D03*
Y487500D03*
Y477500D03*
Y467500D03*
Y457500D03*
Y447500D03*
Y437500D03*
Y427500D03*
Y417500D03*
Y407500D03*
Y397500D03*
Y387500D03*
Y377500D03*
Y367500D03*
Y357500D03*
Y347500D03*
Y337500D03*
Y327500D03*
Y317500D03*
Y307500D03*
Y297500D03*
Y287500D03*
Y277500D03*
Y267500D03*
Y257500D03*
Y247500D03*
Y237500D03*
Y227500D03*
Y217500D03*
Y207500D03*
G54D26*
X320000Y612500D03*
G54D28*
X240000Y207500D02*
Y211692D01*
X234900Y216792*
Y427915*
X361570Y212070D02*
X351570D01*
X341183Y222457*
Y227972*
X335583Y233572*
X425500Y205400D02*
X419400D01*
X415982Y208818*
X413520*
X370739Y251599*
Y273923*
X368425Y276237*
X365272*
X362113Y279396*
X425500Y213300D02*
X419400D01*
X372028Y260672*
Y274331*
X368835Y277524*
X365682*
X363313Y279893*
X291000Y222500D02*
Y302500D01*
X293000Y304500*
Y384500*
X335583Y217500D02*
X339483Y221400D01*
Y225188*
X335583Y217500D02*
X250000D01*
X240000Y227500*
X335583Y233572D02*
Y329156D01*
X351400Y344973*
Y369850*
X335583Y223572D02*
X331655Y227500D01*
X325000*
X312500Y240000*
Y368750*
X302400Y378850*
X339483Y225188D02*
X337170Y227500D01*
X335000*
X330000Y232500*
Y296229*
X322400Y303829*
Y450948*
X345583Y223572D02*
X349483Y227472D01*
Y253522*
X365583Y223572D02*
Y227765D01*
X369483Y231665*
Y250778*
X425500Y221200D02*
X419400D01*
X373289Y267311*
Y275615*
X372113Y276791*
X425500Y229100D02*
X414627D01*
X377000Y266727*
Y272500*
X240000Y237500D02*
X289025Y286525D01*
Y406793*
X292716Y410484*
Y434927*
X300650Y442861*
Y459850*
X240000Y247500D02*
Y251692D01*
X236100Y255592*
Y299115*
X349483Y253522D02*
X347000Y256004D01*
Y314500*
X369483Y250778D02*
X367000Y253260D01*
Y272500*
X360000Y239500D02*
Y335306D01*
X361400Y336706*
Y370027*
X414000Y236500D02*
X425500D01*
Y237000*
Y253700D02*
X401300D01*
X377500Y277500*
X373949*
X373313Y278136*
X240000Y257500D02*
X287500Y305000D01*
Y411203*
X290683Y414386*
Y434927*
X292000Y436244*
Y451500*
X240000Y267500D02*
X286075Y313575D01*
Y415713*
X288650Y418288*
Y437350*
X401000Y273500D02*
Y417037D01*
X403850Y419887*
X425500Y261600D02*
X397122D01*
X377213Y281509*
X240000Y277500D02*
X284650Y322150D01*
Y405945*
X240000Y287500D02*
X265000Y312500D01*
Y465338*
X267500Y467838*
Y481257*
X272000Y485757*
Y490500*
X351000Y275500D02*
Y311013D01*
X352600Y312613*
X362113Y279396D02*
Y335306D01*
X371900Y345093*
Y385246*
X373288Y386634*
X373288D02*
Y427038D01*
X373288D02*
X380850Y434600D01*
Y443545*
X387800Y450495*
X363313Y279893D02*
Y293124D01*
X366698Y296509*
X367728*
X371488Y300268*
Y341799*
X381736Y352047*
Y385997*
X383018Y387280*
Y408360*
X391400Y416741*
Y536572*
X394650Y539822*
X372113Y276791D02*
Y297106D01*
X373001Y297993*
Y332213*
X383268Y342481*
Y383041*
X386477Y386250*
X386765*
X392600Y392085*
Y523755*
X396000Y527155*
Y608500*
X373313Y278136D02*
Y294518D01*
X374359Y295564*
Y298655*
X377213Y301509*
Y281509D02*
X387775Y292071D01*
Y347488*
X396250Y355963*
Y439350*
X402650Y445750*
X236100Y299115D02*
X239485Y302500D01*
X240515*
X261000Y322985*
Y468500*
X240000Y297500D02*
X263000Y320500D01*
Y465338*
X264650Y466988*
Y477606*
X240000Y307500D02*
Y311692D01*
X236100Y315592*
Y419115*
X352600Y312613D02*
Y442122D01*
X347600Y447122*
X377213Y301509D02*
X385000Y309296D01*
Y353084*
X395000Y363084*
Y450236*
X399000Y454236*
Y476500*
X240000Y317500D02*
X259050Y336550D01*
Y465275*
X240000Y327500D02*
X257850Y345350D01*
Y464764*
X393000Y323500D02*
Y339083D01*
X397500Y343583*
Y418292*
X400000Y420792*
Y427500*
X240000Y347500D02*
X256650Y364150D01*
Y464195*
X270000Y343500D02*
Y481257D01*
X292000Y503257*
Y525500*
X240000Y357500D02*
Y361692D01*
X246604Y368297*
Y414057*
X255450Y422902*
Y463625*
X274000Y373500D02*
Y395945D01*
X277650Y399595*
Y441596*
X281650Y370394D02*
Y394630D01*
X280100Y396180*
Y454734*
X279000Y455834*
Y465500*
X281000Y357500D02*
Y369744D01*
X281650Y370394*
X338308Y362500D02*
X343308Y367500D01*
X347500*
X338308Y362500D02*
X326985D01*
X323600Y365885*
Y447662*
X334019Y458081*
Y471549*
X336650Y474180*
X327500Y367500D02*
Y372942D01*
X333400Y378842*
Y409297*
X341400Y417297*
X351400Y369850D02*
X343600Y377650D01*
Y402236*
X341000Y373500D02*
Y377567D01*
X341900Y378467*
Y402236*
X347500Y407836*
Y422500*
X361400Y370027D02*
X359350Y372077D01*
Y376173*
X363000Y374500D02*
Y403808D01*
X367500Y408308*
Y422500*
X377500Y367500D02*
X373600Y371400D01*
Y382350*
X240000Y387500D02*
Y391692D01*
X245000Y396692*
Y414435*
X254250Y423685*
Y462999*
X278000Y380500D02*
Y391199D01*
X278850Y392049*
Y448271*
X297500Y380000D02*
Y386073D01*
X293600Y389973*
Y404893*
X302400Y378850D02*
Y455418D01*
X307500Y460518*
Y466732*
X312000Y471232*
Y542500*
X307500Y380000D02*
X311400Y383900D01*
Y394955*
X317500Y380000D02*
X313100Y384400D01*
Y394955*
X307500Y400555*
Y422500*
X327500Y380000D02*
Y385442D01*
X332000Y389942*
Y445500*
X359350Y376173D02*
X361600Y378423D01*
Y442850*
X366183Y447433*
Y473845*
X369213Y476875*
X372390*
X375400Y479885*
Y490100*
X373600Y382350D02*
X381615Y390365D01*
Y408941*
X387500Y414827*
Y422500*
X367500Y380000D02*
X370479Y382979D01*
Y387743*
X371744Y389008*
Y441153*
X376500Y445909*
Y453409*
X386600Y463509*
X387500Y380000D02*
Y384594D01*
X393800Y390894*
Y510937*
X400000Y517137*
Y552500*
X240000Y407500D02*
X243338Y410838D01*
Y414848*
X253050Y424560*
Y462287*
X274000Y408500D02*
Y427850D01*
X272950Y428900*
Y472631*
X293600Y404893D02*
X297500Y408793D01*
Y422500*
X284650Y405945D02*
X281350Y409245D01*
Y457606*
X311400Y394955D02*
X303600Y402755D01*
Y450600*
X314000Y399500D02*
Y411817D01*
X313600Y412217*
Y447379*
X343600Y402236D02*
X351400Y410036D01*
Y424115*
X341000Y406500D02*
Y412675D01*
X342600Y414275*
Y426898*
X236100Y419115D02*
X239485Y422500D01*
X240515*
X250650Y432635*
Y460004*
X234900Y427915D02*
X239485Y432500D01*
X240515*
X247000Y438985*
Y447500*
X240000Y417500D02*
X251850Y429350D01*
Y461446*
X285000Y423500D02*
Y451604D01*
X289000Y455604*
Y459500*
X342600Y426898D02*
X340150Y429348D01*
Y436210*
X351400Y424115D02*
X348015Y427500D01*
X344838*
X341350Y430988*
Y434892*
X338950Y427709D02*
Y437527D01*
X339798Y438375*
Y451477*
X341000Y452680*
Y459500*
X341400Y417297D02*
Y425259D01*
X338950Y427709*
X345000Y432500D02*
X347590Y435090D01*
X348106*
X350400Y437385*
Y441620*
X377500Y422500D02*
X382500Y427500D01*
Y442007*
X389000Y448507*
Y547093*
X403850Y419887D02*
Y553906D01*
X400000Y557756*
Y561500*
X277650Y441596D02*
X274150Y445096D01*
Y469965*
X288350Y453012D02*
X292838Y457500D01*
X297000*
X288650Y437350D02*
X288350Y437650D01*
Y453012*
X278850Y448271D02*
X275350Y451771D01*
Y468240*
X303600Y450600D02*
X315650Y462650D01*
Y544350*
X313600Y447379D02*
X322000Y455779D01*
Y465500*
X322400Y450948D02*
X332735Y461283D01*
Y473773*
X333000Y474038*
Y479500*
X332000Y445500D02*
X334690Y448190D01*
Y452985*
X335285Y453579*
Y469292*
X337850Y471858*
X336000Y440500D02*
Y448527D01*
X336918Y449445*
Y460580*
X339838Y463500*
X340162*
X342650Y465988*
Y469945*
X350400Y441620D02*
X346400Y445620D01*
Y455738*
X347600Y447122D02*
Y455057D01*
X348700Y456157*
X340150Y436210D02*
X341149Y437209D01*
Y447771*
X342800Y449423*
Y455932*
X345050Y458182*
Y472885*
X341350Y434892D02*
X342500Y436042D01*
Y444065*
X344600Y446165*
Y455829*
X346250Y457479*
Y474381*
X356500Y439000D02*
Y453927D01*
X358650Y456077*
X366500Y439000D02*
X371500Y444000D01*
Y451500*
X385400Y465400*
Y483658*
X361500Y451500D02*
Y458119D01*
X364817Y461436*
Y475354*
X366600Y477138*
X387800Y450495D02*
Y546351D01*
X386150Y548001*
X402650Y445750D02*
Y483106D01*
X399000Y486756*
Y495500*
X250650Y460004D02*
X247000Y463654D01*
Y483500*
X251850Y461446D02*
X250150Y463146D01*
Y478303*
X253050Y462287D02*
X251350Y463987D01*
Y475682*
X252550Y473858D02*
X253500Y474808D01*
Y495674*
X257000Y499174*
Y506500*
X254250Y462999D02*
X252550Y464699D01*
Y473858*
X253750Y472565D02*
X255000Y473815D01*
Y494652*
X260650Y500302*
Y508106*
X255450Y463625D02*
X253750Y465325D01*
Y472565*
X254950Y471620D02*
X256329Y472999D01*
Y493603*
X263000Y500274*
Y518500*
X256650Y464195D02*
X254950Y465895D01*
Y471620*
X256150Y470675D02*
X257658Y472183D01*
Y492554*
X264775Y499670*
Y514775*
X266650Y516650*
Y520106*
X257850Y464764D02*
X256150Y466464D01*
Y470675*
X257350Y470095D02*
X258917Y471662D01*
Y491579*
X267338Y500000*
X269662*
X277650Y507988*
Y518850*
X240000Y457500D02*
X244000D01*
X245412Y458912*
X249100*
X272950Y472631D02*
X274000Y473681D01*
Y479500*
X274150Y469965D02*
X300000Y495815D01*
Y524500*
X275350Y468240D02*
X307000Y499890D01*
Y523500*
X259050Y465275D02*
X257350Y466975D01*
Y470095*
X281350Y457606D02*
X287244Y463500D01*
X294000*
X310650Y473150D02*
Y532067D01*
X292500Y550217*
X300650Y459850D02*
X298000Y462500D01*
Y464662*
X293162Y469500*
X284000*
X302000Y464500D02*
X310650Y473150D01*
X337850Y471858D02*
Y481650D01*
X326656Y492844*
Y519089*
X322950Y522796*
X336650Y474180D02*
Y481012D01*
X334512Y483150*
X325000Y474500D02*
Y494244D01*
X319000Y500244*
Y546500*
X329000Y465500D02*
Y480662D01*
X331488Y483150*
X334512*
X357350Y463150D02*
Y486777D01*
X362800Y492227*
Y501648*
X366250Y505098*
X346400Y455738D02*
X347500Y456838D01*
Y475937*
X348700Y456157D02*
Y477609D01*
X347500Y478809*
X345050Y472885D02*
X343800Y474135D01*
Y484941*
X343850Y471389D02*
X342500Y472739D01*
Y485391*
X346250Y474381D02*
X345000Y475631D01*
Y484390*
X342650Y469945D02*
X341300Y471295D01*
Y485916*
X341000Y459500D02*
X343850Y462350D01*
Y471389*
X339000Y467500D02*
Y471283D01*
X339575Y471858*
Y485901*
X342650Y488976*
X355000Y459500D02*
Y471317D01*
X355400Y471717*
Y489527*
X358650Y456077D02*
Y461850D01*
X357350Y463150*
X370000Y472500D02*
X376600Y479100D01*
X361000Y465500D02*
Y474413D01*
X365400Y478813*
Y486280*
X386600Y463509D02*
Y533073D01*
X379000Y540673*
Y568500*
X250650Y487819D02*
X248000Y490500D01*
X250150Y478303D02*
X250650Y478803D01*
Y487819*
X251350Y475682D02*
X252000Y476332D01*
Y500500*
X240000Y477500D02*
X243054Y480554D01*
Y484877*
X244125Y485948*
Y498381*
X253000Y507256*
Y511500*
X264650Y477606D02*
X263000Y479256D01*
Y490500*
X334606Y489850D02*
X335256Y490500D01*
X339000*
X334606Y489850D02*
X331488D01*
X327863Y493476*
X327863D02*
Y519664D01*
X327863D02*
X324150Y523376D01*
X333000Y493500D02*
Y497244D01*
X329069Y501175*
Y520190*
X325350Y523909*
X355400Y489527D02*
X355350Y489577D01*
Y499012*
X346300Y483873D02*
X351463Y489036D01*
Y498519*
X357632Y504688*
X357632D02*
X360349D01*
X360349D02*
X362650Y506988D01*
Y510012*
X345000Y484390D02*
X350213Y489603D01*
Y499038*
X355050Y503875*
Y511436*
X343800Y484941D02*
X348738Y489879D01*
Y499307*
X353850Y504419*
Y509967*
X342500Y485391D02*
X347500Y490391D01*
Y499814*
X352650Y504964*
Y508498*
X341300Y485916D02*
X345000Y489616D01*
Y511756*
X342650Y488976D02*
Y498012D01*
X335162Y505500*
X334838*
X330269Y510069*
Y520687*
X329106Y521850*
Y525500*
X329000*
X347500Y478809D02*
Y483196D01*
X353407Y489102*
Y498766*
X357804Y503163*
X357804D02*
X360521D01*
X360521D02*
X363850Y506491D01*
X347500Y475937D02*
X346300Y477137D01*
Y483873*
X365350Y491507D02*
Y499109D01*
X368650Y502409*
X375400Y490100D02*
X369000Y496500D01*
X366600Y477138D02*
Y490257D01*
X365350Y491507*
X365400Y486280D02*
X364150Y487530D01*
Y500703*
X376600Y479100D02*
Y509900D01*
X372100Y514400*
Y533792*
X360000Y545892*
Y568401*
X357465Y570936*
Y573035*
X354000Y576500*
X385400Y483658D02*
X381558Y487500D01*
X380838*
X378000Y490338*
Y529500*
X382000Y491500D02*
Y532311D01*
X377500Y536811*
Y563422*
X372800Y568122*
X240000Y497500D02*
X246625Y504125D01*
Y510287*
X264713Y528375*
X272734*
X287016Y542657*
X287016D02*
Y550385D01*
X301443Y564812*
Y565105*
X303488Y567150*
X323350*
X240000Y507500D02*
X252884Y520384D01*
Y523990*
X265294Y536400*
X269232*
X260650Y508106D02*
X259000Y509756D01*
Y513500*
X334000Y511500D02*
Y516744D01*
X332350Y518394*
X355350Y499012D02*
X357976Y501638D01*
X357976D02*
X360693D01*
X360693D02*
X365050Y505994D01*
Y511450*
X355050Y511436D02*
X350261Y516225D01*
Y527849*
X349800Y528310*
Y542862*
X347162Y545500*
X341000*
X353850Y509967D02*
X348977Y514840D01*
Y525991*
X347778Y527190*
Y531918*
X346000Y533696*
Y541500*
X352650Y508498D02*
X347692Y513456D01*
Y524132*
X345556Y526269*
Y531918*
X337350Y540123*
Y547012*
X345000Y511756D02*
X344000Y512756D01*
Y521500*
X341000Y505500D02*
Y514244D01*
X340000Y515244*
Y534842*
X335000Y539842*
X368650Y502409D02*
Y521850D01*
X360000Y530500*
X364150Y500703D02*
X367450Y504003D01*
Y517146*
X366250Y505098D02*
Y515907D01*
X355000Y527157*
X365050Y511450D02*
X359000Y517500D01*
X363850Y506491D02*
Y510509D01*
X360696Y513663*
X360696D02*
X357676D01*
X357676D02*
X353692Y517646D01*
Y532844*
X352350Y534185*
X362650Y510012D02*
X360387Y512275D01*
X357366*
X351693Y517948*
Y530343*
X351150Y530886*
Y551169*
X240000Y517500D02*
X262500Y540000D01*
Y555381*
X265000Y557881*
Y559662*
X280338Y575000*
X282360*
X276512Y533850D02*
X284233Y541571D01*
Y549435*
X300147Y565349*
Y571647*
X307000Y578500*
X276512Y533850D02*
X271782D01*
X271782D02*
X269232Y536400D01*
X266650Y520106D02*
X266000Y520756D01*
Y524500*
X277650Y518850D02*
X273000Y523500D01*
X332350Y518394D02*
Y523350D01*
X332650Y523650*
X332350Y529009D02*
Y533012D01*
X333688Y534349*
Y547438*
X336795Y550545*
Y557574*
X337850Y558630*
X331150Y528512D02*
Y533509D01*
X332375Y534734*
Y547925*
X335450Y551000*
Y558044*
X336650Y559244*
X322950Y522796D02*
Y545288D01*
X330650Y552988*
Y560261*
X331850Y561461*
X324150Y523376D02*
Y544791D01*
X331850Y552491*
Y559734*
X333050Y560934*
X325350Y523909D02*
Y544294D01*
X333050Y551994*
Y559191*
X334250Y560391*
X332650Y523650D02*
Y527012D01*
X331150Y528512*
X329000Y525500D02*
Y546247D01*
X334250Y551497*
Y558618*
X335450Y559818*
Y567217*
X336000Y521500D02*
X334720Y526639D01*
X332350Y529009*
X352350Y534185D02*
Y545342D01*
X353850Y546842*
X355000Y527157D02*
Y533669D01*
X356000Y534669*
Y538500*
X356350Y533132D02*
X359650Y536432D01*
Y540707*
X367450Y517146D02*
X356350Y528246D01*
Y533132*
X378000Y529500D02*
Y533811D01*
X375000Y536811*
Y561943*
X371600Y565343*
Y575742*
X360000Y530500D02*
Y534618D01*
X360850Y535468*
Y542275*
X258000Y550500D02*
X260940Y553440D01*
Y557202*
X263039Y559301*
Y563063*
X266000Y566024*
Y571500*
X240000Y537500D02*
X254000Y551500D01*
Y556500*
X274000Y537500D02*
Y563500D01*
X281000Y570500*
X279000Y541500D02*
Y554662D01*
X294338Y570000*
X296500*
X302650Y576150*
Y590606*
X315650Y544350D02*
X315350Y544650D01*
Y548012*
X326338Y559000*
X327662*
X330650Y561988*
Y565029*
X337350Y547012D02*
X340338Y550000D01*
X341852*
X346388Y554536*
Y556888*
X349000Y559500*
X335000Y539842D02*
Y546951D01*
X340549Y552500*
X342162*
X344840Y555178*
Y560840*
X345650Y561650*
X351150Y551169D02*
X352650Y552669D01*
Y561088*
X353850Y546842D02*
Y561656D01*
X341150Y574356*
X356000Y538500D02*
Y561274D01*
X342350Y574924*
Y578362*
X359650Y540707D02*
X357500Y542857D01*
Y565000*
X346000Y576500*
X360850Y542275D02*
X358750Y544375D01*
Y566018*
X350000Y574768*
Y578500*
X368000Y544500D02*
Y548244D01*
X362000Y554244*
Y573500*
X386150Y548001D02*
Y568754D01*
X389000Y571604*
Y591500*
X394650Y539822D02*
Y594943D01*
X387350Y602243*
X389000Y547093D02*
X387350Y548743D01*
Y566500*
X384000Y544500D02*
Y566500D01*
X384800Y567300*
Y615056*
X389244Y619500*
X395000*
X257000Y562500D02*
Y570500D01*
X240000Y587500*
X276548Y574650D02*
X278098Y576200D01*
X283498*
X276548Y574650D02*
X268991D01*
X262369Y581272*
Y581293*
X258387Y585275*
X252225*
X240000Y597500*
X290512Y572850D02*
X293000Y575338D01*
Y583500*
X290512Y572850D02*
X286848D01*
X283498Y576200*
X299000Y578500D02*
X290500Y570000D01*
X287360*
X282360Y575000*
X330650Y565029D02*
X321000Y574679D01*
Y591500*
X331850Y561461D02*
Y565559D01*
X325000Y572409*
Y584500*
X330150Y574292D02*
Y578509D01*
X334141Y582500*
X336162*
X338650Y584988*
X335450Y567217D02*
X328950Y573717D01*
Y579226*
X337850Y558630D02*
Y568389D01*
X331350Y574889*
X333050Y560934D02*
Y566088D01*
X326550Y572588*
Y580663*
X328650Y582763*
X336650Y559244D02*
Y567792D01*
X330150Y574292*
X334250Y560391D02*
Y566642D01*
X327750Y573142*
Y579943*
X330000Y582193*
Y595106*
X333400Y598506*
X327000Y563500D02*
X323350Y567150D01*
X352650Y561088D02*
X339950Y573788D01*
Y580195*
X341150Y574356D02*
Y579279D01*
X343700Y581829*
X345650Y561650D02*
Y565702D01*
X338750Y572602*
Y581181*
X341050Y583481*
X374000Y570350D02*
X376377Y572727D01*
Y577877*
X379000Y580500*
X372800Y568122D02*
Y573798D01*
X375135Y576132*
Y584635*
X377000Y586500*
Y595756*
X379000Y597756*
Y607500*
X368000Y561500D02*
Y575286D01*
X372650Y579936*
X387350Y566500D02*
X392650Y571800D01*
Y594129*
X255000Y590500D02*
X247918Y597582D01*
Y598645*
X245000Y601563*
Y638308*
X240000Y643308*
Y647500*
X257000Y581500D02*
X252433D01*
X241433Y592500*
X239485*
X236100Y595885*
X274308Y575850D02*
X277118Y578660D01*
X282160*
X286000Y582500*
X274308Y575850D02*
X269488D01*
X265288Y580051*
X265288D02*
Y580071D01*
X265288D02*
X258759Y586600D01*
X253738*
X246701Y593637*
Y598141*
X243279Y601563*
Y604221*
X240000Y607500*
X271000Y579500D02*
X278000Y586500D01*
X289162*
X292000Y589338*
Y614000*
X303650Y625650*
Y639350*
X263000Y588500D02*
X246250Y605250D01*
Y647058*
X240000Y653308*
Y657500*
X270000Y593500D02*
Y602500D01*
X248750Y623750*
Y668750*
X240000Y677500*
X288000Y590500D02*
Y631744D01*
X286000Y633744*
Y639500*
X302650Y590606D02*
X296000Y597256D01*
Y611500*
X328950Y579226D02*
X332419Y582695D01*
Y583919*
X335000Y586500*
X331350Y574889D02*
Y578012D01*
X334063Y580725*
X336084*
X339850Y584491*
X328650Y582763D02*
Y589850D01*
X321000Y597500*
X316050*
X306000Y607550*
Y644500*
X339950Y580195D02*
X342500Y582745D01*
Y589882*
X338350Y594032*
Y623850*
X343700Y581829D02*
Y590508D01*
X341350Y592858*
Y606606*
X342000Y607256*
Y621500*
X342350Y578362D02*
X345000Y581012D01*
Y594500*
X350000Y578500D02*
X355000Y583500D01*
X369000*
X339850Y584491D02*
Y588846D01*
X335875Y592821*
Y627017*
X332000Y630893*
Y640500*
X341050Y583481D02*
Y589502D01*
X337113Y593439*
Y630126*
X337000Y630239*
Y636500*
X338650Y584988D02*
Y588191D01*
X334638Y592203*
Y623908*
X326000Y632546*
Y642500*
X372650Y579936D02*
Y585219D01*
X362500Y595369*
Y623162*
X356162Y629500*
X350000*
X373850Y585858D02*
X373000Y586708D01*
Y590500*
X371600Y575742D02*
X373850Y577992D01*
Y585858*
X392650Y594129D02*
X386150Y600629D01*
Y609650*
X236100Y595885D02*
Y629408D01*
X240000Y633308*
Y637500*
X252000Y605500D02*
Y613976D01*
X247500Y618476*
Y665515*
X240515Y672500*
X239485*
X236100Y675885*
X333400Y598506D02*
Y620760D01*
X321000Y633160*
Y646500*
X387350Y602243D02*
Y606431D01*
X390919Y610000*
X391662*
X398650Y616988*
X386150Y609650D02*
X391000Y614500D01*
X254000Y625500D02*
Y629244D01*
X250000Y633244*
Y687500*
X240000Y697500*
X257000Y631500D02*
Y636396D01*
X251647Y641748*
Y695853*
X240000Y707500*
X266000Y615500D02*
Y624849D01*
X273000Y631849*
Y661500*
X271000Y621500D02*
Y625349D01*
X277500Y631849*
Y722757*
X281909Y727166*
Y735217*
X292000Y620500D02*
Y631744D01*
X290000Y633744*
Y652394*
X287000Y655394*
Y666500*
X284000Y625500D02*
Y632744D01*
X282150Y634594*
Y681906*
X338350Y623850D02*
X352000Y637500D01*
X353162*
X358650Y642988*
Y661106*
X350000Y629500D02*
X366000Y645500D01*
Y692500*
X374000Y615500D02*
Y651500D01*
X375000Y652500*
Y688500*
X395000Y619500D02*
Y630000D01*
X391000Y634000*
Y644500*
X398650Y616988D02*
Y654850D01*
X387500Y666000*
Y690000*
X376000Y701500*
X262000Y648500D02*
Y715500D01*
X240000Y737500*
X262000Y641500D02*
X255000Y648500D01*
Y712500*
X240000Y727500*
X267000Y637500D02*
X260838D01*
X253324Y645014*
Y704176*
X240000Y717500*
X269000Y648500D02*
Y718500D01*
X240000Y747500*
X286000Y639500D02*
Y652744D01*
X283350Y655394*
Y670350*
X302350Y646350D02*
X308500Y652500D01*
X347000*
X303650Y639350D02*
X302350Y640650D01*
Y646350*
X300000Y635500D02*
Y687169D01*
X298000Y690500*
X355000Y644500D02*
X347000Y652500D01*
X283350Y670350D02*
X291500Y678500D01*
Y756756*
X298000Y763256*
Y778500*
X358650Y661106D02*
X353000Y666756D01*
Y685500*
X236100Y675885D02*
Y683600D01*
X240000Y687500*
X282150Y681906D02*
X285000Y684756D01*
Y688500*
X296000Y684500D02*
X294350Y688850D01*
Y697606*
X296000Y699256*
Y708500*
Y726500*
X298000Y728500*
Y746500*
G54D29*
X414000Y213500D03*
X407000Y206500D03*
X291000Y222500D03*
X360000Y239500D03*
X414000Y236500D03*
X367000Y272500D03*
X377000D03*
X401000Y273500D03*
X351000Y275500D03*
X347000Y314500D03*
X393000Y323500D03*
X270000Y343500D03*
X274000Y373500D03*
X281000Y357500D03*
X341000Y373500D03*
X363000Y374500D03*
X278000Y380500D03*
X293000Y384500D03*
X274000Y408500D03*
X314000Y399500D03*
X341000Y406500D03*
X285000Y423500D03*
X345000Y432500D03*
X400000Y427500D03*
X247000Y447500D03*
X292000Y451500D03*
X332000Y445500D03*
X336000Y440500D03*
X261000Y468500D03*
X289000Y459500D03*
X279000Y465500D03*
X284000Y469500D03*
X297000Y457500D03*
X294000Y463500D03*
X316000Y457500D03*
X312000Y464500D03*
X302000D03*
X325000Y474500D03*
X322000Y465500D03*
X329000D03*
X341000Y459500D03*
X339000Y467500D03*
X355000Y459500D03*
X370000Y472500D03*
X361000Y465500D03*
X247000Y483500D03*
X248000Y490500D03*
X274000Y479500D03*
X272000Y490500D03*
X263000D03*
X333000Y479500D03*
Y493500D03*
X339000Y490500D03*
X382000Y491500D03*
X399000Y476500D03*
X253000Y511500D03*
X257000Y506500D03*
X252000Y500500D03*
X269000Y513500D03*
X274000Y509500D03*
X259000Y513500D03*
X336000Y499500D03*
X334000Y511500D03*
X349000Y506500D03*
X341000Y505500D03*
X369000Y496500D03*
X359000Y508500D03*
Y497500D03*
X399000Y495500D03*
X263000Y518500D03*
X273000Y523500D03*
X266000Y524500D03*
X292000Y525500D03*
X307000Y523500D03*
X300000Y524500D03*
X336000Y531500D03*
X323000Y517500D03*
X329000Y525500D03*
X336000Y521500D03*
X344000D03*
X378000Y529500D03*
X360000Y530500D03*
X359000Y517500D03*
X258000Y550500D03*
X274000Y537500D03*
X279000Y541500D03*
X312000Y542500D03*
X327000Y554500D03*
X319000Y546500D03*
X346000Y541500D03*
X341000Y545500D03*
X356000Y538500D03*
X368000Y544500D03*
Y553500D03*
X391000Y550500D03*
X384000Y544500D03*
X400000Y552500D03*
X257000Y562500D03*
X266000Y571500D03*
X281000Y570500D03*
X293000Y563500D03*
X305000Y556500D03*
Y563500D03*
X319000D03*
X327000D03*
X342000D03*
X341000Y556500D03*
X349000Y559500D03*
X362000Y573500D03*
X368000Y561500D03*
X379000Y568500D03*
X400000Y561500D03*
X255000Y590500D03*
X257000Y581500D03*
X271000Y579500D03*
X263000Y588500D03*
X270000Y593500D03*
X288000Y590500D03*
X289000Y576500D03*
X293000Y583500D03*
X286000Y582500D03*
X299000Y578500D03*
X307000D03*
X335000Y576500D03*
X325000Y584500D03*
X335000Y586500D03*
X321000Y591500D03*
X353000Y594500D03*
X356000Y587500D03*
X354000Y576500D03*
X346000D03*
X345000Y594500D03*
X373000Y590500D03*
X369000Y583500D03*
X379000Y580500D03*
X381000Y588500D03*
X389000Y591500D03*
X252000Y605500D03*
X271000Y611500D03*
X261000Y604500D03*
X284000Y606500D03*
Y595500D03*
Y614500D03*
X296000Y611500D03*
X369000Y595500D03*
X391000Y604500D03*
Y614500D03*
X396000Y608500D03*
X379000Y607500D03*
X254000Y625500D03*
X257000Y631500D03*
X266000Y615500D03*
X271000Y621500D03*
X292000Y620500D03*
X284000Y625500D03*
X342000Y621500D03*
X356000Y624500D03*
Y617500D03*
X350000Y629500D03*
X369000Y621500D03*
X374000Y615500D03*
X395000Y619500D03*
X262000Y648500D03*
Y641500D03*
X267000Y637500D03*
X269000Y648500D03*
X286000Y639500D03*
X295000Y641500D03*
X296000Y648500D03*
X312000D03*
X306000Y644500D03*
X300000Y635500D03*
X338000Y648500D03*
X331000D03*
X332000Y640500D03*
X326000Y642500D03*
X337000Y636500D03*
X321000Y646500D03*
X355000Y644500D03*
X385000Y638500D03*
X391000Y644500D03*
X273000Y661500D03*
X296000Y668500D03*
X287000Y666500D03*
X313000Y661500D03*
X328000D03*
X340000D03*
X382000Y663500D03*
X287000Y681500D03*
X296000Y684500D03*
X298000Y690500D03*
X285000Y688500D03*
X329000Y692500D03*
X353000Y685500D03*
X375000Y688500D03*
X366000Y692500D03*
X394000Y677500D03*
X296000Y708500D03*
X361000Y696500D03*
X376000Y701500D03*
X394000Y695500D03*
X316000Y717500D03*
X339000D03*
X356000Y727500D03*
X298000Y746500D03*
X344000Y736500D03*
X271000Y774500D03*
X344000D03*
X298000Y778500D03*
G54D30*
X361570Y212070D02*
X362000Y215500D01*
X0Y0D02*
M02*
