*
*
G04 PADS VX.2.1 Build Number: 6554490 generated Gerber (RS-274-X) file*
G04 PC Version=2.1*
*
%IN "microp-revised-board.pc"*%
*
%MOIN*%
*
%FSLAX35Y35*%
*
*
*
*
G04 PC Standard Apertures*
*
*
G04 Thermal Relief Aperture macro.*
%AMTER*
1,1,$1,0,0*
1,0,$1-$2,0,0*
21,0,$3,$4,0,0,45*
21,0,$3,$4,0,0,135*
%
*
*
G04 Annular Aperture macro.*
%AMANN*
1,1,$1,0,0*
1,0,$2,0,0*
%
*
*
G04 Odd Aperture macro.*
%AMODD*
1,1,$1,0,0*
1,0,$1-0.005,0,0*
%
*
*
G04 PC Custom Aperture Macros*
*
*
*
*
*
*
G04 PC Aperture Table*
*
%ADD010C,0.001*%
%ADD011C,0.01*%
*
*
*
*
G04 PC Circuitry*
G04 Layer Name microp-revised-board.pc - circuitry*
%LPD*%
*
*
G04 PC Custom Flashes*
G04 Layer Name microp-revised-board.pc - flashes*
%LPD*%
*
*
G04 PC Circuitry*
G04 Layer Name microp-revised-board.pc - circuitry*
%LPD*%
*
G54D10*
G54D11*
G01X373213Y281509D02*
X381213D01*
X377213Y277509D02*
Y285509D01*
X363213Y281509D02*
X371213D01*
X367213Y277509D02*
Y285509D01*
X373213Y291509D02*
X381213D01*
X377213Y287509D02*
Y295509D01*
X363213Y291509D02*
X371213D01*
X367213Y287509D02*
Y295509D01*
X373213Y301509D02*
X381213D01*
X377213Y297509D02*
Y305509D01*
X363213Y301509D02*
X371213D01*
X367213Y297509D02*
Y305509D01*
X373213Y311509D02*
X381213D01*
X377213Y307509D02*
Y315509D01*
X363213Y311509D02*
X371213D01*
X367213Y307509D02*
Y315509D01*
X373213Y321509D02*
X381213D01*
X377213Y317509D02*
Y325509D01*
X363213Y321509D02*
X371213D01*
X367213Y317509D02*
Y325509D01*
X347500Y447500D02*
X355500Y455500D01*
X347500D02*
X355500Y447500D01*
X357500D02*
X365500Y455500D01*
X357500D02*
X365500Y447500D01*
X367500D02*
X375500Y455500D01*
X367500D02*
X375500Y447500D01*
X377500D02*
X385500Y455500D01*
X377500D02*
X385500Y447500D01*
X377500Y477500D02*
X385500Y485500D01*
X377500D02*
X385500Y477500D01*
X367500D02*
X375500Y485500D01*
X367500D02*
X375500Y477500D01*
X357500D02*
X365500Y485500D01*
X357500D02*
X365500Y477500D01*
X347500D02*
X355500Y485500D01*
X347500D02*
X355500Y477500D01*
X342500Y435000D02*
X350500Y443000D01*
X342500D02*
X350500Y435000D01*
X352500D02*
X360500Y443000D01*
X352500D02*
X360500Y435000D01*
X362500D02*
X370500Y443000D01*
X362500D02*
X370500Y435000D01*
X372500D02*
X380500Y443000D01*
X372500D02*
X380500Y435000D01*
X382500D02*
X390500Y443000D01*
X382500D02*
X390500Y435000D01*
X321583Y223572D02*
X329583D01*
X325583Y219572D02*
Y227572D01*
X321583Y233572D02*
X329583D01*
X325583Y229572D02*
Y237572D01*
X331583Y223572D02*
X339583D01*
X335583Y219572D02*
Y227572D01*
X331583Y233572D02*
X339583D01*
X335583Y229572D02*
Y237572D01*
X341583Y223572D02*
X349583D01*
X345583Y219572D02*
Y227572D01*
X341583Y233572D02*
X349583D01*
X345583Y229572D02*
Y237572D01*
X351583Y223572D02*
X359583D01*
X355583Y219572D02*
Y227572D01*
X351583Y233572D02*
X359583D01*
X355583Y229572D02*
Y237572D01*
X361583Y223572D02*
X369583D01*
X365583Y219572D02*
Y227572D01*
X361583Y233572D02*
X369583D01*
X365583Y229572D02*
Y237572D01*
X383500Y418500D02*
X391500Y426500D01*
X383500D02*
X391500Y418500D01*
X373500D02*
X381500Y426500D01*
X373500D02*
X381500Y418500D01*
X363500D02*
X371500Y426500D01*
X363500D02*
X371500Y418500D01*
X353500D02*
X361500Y426500D01*
X353500D02*
X361500Y418500D01*
X343500D02*
X351500Y426500D01*
X343500D02*
X351500Y418500D01*
X333500D02*
X341500Y426500D01*
X333500D02*
X341500Y418500D01*
X323500D02*
X331500Y426500D01*
X323500D02*
X331500Y418500D01*
X313500D02*
X321500Y426500D01*
X313500D02*
X321500Y418500D01*
X303500D02*
X311500Y426500D01*
X303500D02*
X311500Y418500D01*
X293500D02*
X301500Y426500D01*
X293500D02*
X301500Y418500D01*
X293500Y388500D02*
X301500Y396500D01*
X293500D02*
X301500Y388500D01*
X303500D02*
X311500Y396500D01*
X303500D02*
X311500Y388500D01*
X313500D02*
X321500Y396500D01*
X313500D02*
X321500Y388500D01*
X323500D02*
X331500Y396500D01*
X323500D02*
X331500Y388500D01*
X333500D02*
X341500Y396500D01*
X333500D02*
X341500Y388500D01*
X343500D02*
X351500Y396500D01*
X343500D02*
X351500Y388500D01*
X353500D02*
X361500Y396500D01*
X353500D02*
X361500Y388500D01*
X363500D02*
X371500Y396500D01*
X363500D02*
X371500Y388500D01*
X373500D02*
X381500Y396500D01*
X373500D02*
X381500Y388500D01*
X383500D02*
X391500Y396500D01*
X383500D02*
X391500Y388500D01*
X383500Y376000D02*
X391500Y384000D01*
X383500D02*
X391500Y376000D01*
X373500D02*
X381500Y384000D01*
X373500D02*
X381500Y376000D01*
X363500D02*
X371500Y384000D01*
X363500D02*
X371500Y376000D01*
X353500D02*
X361500Y384000D01*
X353500D02*
X361500Y376000D01*
X343500D02*
X351500Y384000D01*
X343500D02*
X351500Y376000D01*
X333500D02*
X341500Y384000D01*
X333500D02*
X341500Y376000D01*
X323500D02*
X331500Y384000D01*
X323500D02*
X331500Y376000D01*
X313500D02*
X321500Y384000D01*
X313500D02*
X321500Y376000D01*
X303500D02*
X311500Y384000D01*
X303500D02*
X311500Y376000D01*
X293500D02*
X301500Y384000D01*
X293500D02*
X301500Y376000D01*
X383500Y363500D02*
X391500Y371500D01*
X383500D02*
X391500Y363500D01*
X373500D02*
X381500Y371500D01*
X373500D02*
X381500Y363500D01*
X363500D02*
X371500Y371500D01*
X363500D02*
X371500Y363500D01*
X353500D02*
X361500Y371500D01*
X353500D02*
X361500Y363500D01*
X343500D02*
X351500Y371500D01*
X343500D02*
X351500Y363500D01*
X333500D02*
X341500Y371500D01*
X333500D02*
X341500Y363500D01*
X323500D02*
X331500Y371500D01*
X323500D02*
X331500Y363500D01*
X313500D02*
X321500Y371500D01*
X313500D02*
X321500Y363500D01*
X303500D02*
X311500Y371500D01*
X303500D02*
X311500Y363500D01*
X293500D02*
X301500Y371500D01*
X293500D02*
X301500Y363500D01*
X316000Y608500D02*
X324000D01*
Y616500*
X316000*
Y608500*
X320000Y612500D02*
Y616500D01*
X303500Y713500D02*
X311500Y721500D01*
X303500D02*
X311500Y713500D01*
X277909D02*
X285909Y721500D01*
X277909D02*
X285909Y713500D01*
X277909Y731217D02*
X285909Y739217D01*
X277909D02*
X285909Y731217D01*
X303500D02*
X311500Y739217D01*
X303500D02*
X311500Y731217D01*
X288500Y528500D02*
X296500Y536500D01*
X288500D02*
X296500Y528500D01*
X262909D02*
X270909Y536500D01*
X262909D02*
X270909Y528500D01*
X262909Y546217D02*
X270909Y554217D01*
X262909D02*
X270909Y546217D01*
X288500D02*
X296500Y554217D01*
X288500D02*
X296500Y546217D01*
X236000Y773500D02*
X244000Y781500D01*
X236000D02*
X244000Y773500D01*
X236000Y763500D02*
X244000Y771500D01*
X236000D02*
X244000Y763500D01*
X236000Y753500D02*
X244000Y761500D01*
X236000D02*
X244000Y753500D01*
X236000Y743500D02*
X244000Y751500D01*
X236000D02*
X244000Y743500D01*
X236000Y733500D02*
X244000Y741500D01*
X236000D02*
X244000Y733500D01*
X236000Y723500D02*
X244000Y731500D01*
X236000D02*
X244000Y723500D01*
X236000Y713500D02*
X244000Y721500D01*
X236000D02*
X244000Y713500D01*
X236000Y703500D02*
X244000Y711500D01*
X236000D02*
X244000Y703500D01*
X236000Y693500D02*
X244000Y701500D01*
X236000D02*
X244000Y693500D01*
X236000Y683500D02*
X244000Y691500D01*
X236000D02*
X244000Y683500D01*
X236000Y673500D02*
X244000Y681500D01*
X236000D02*
X244000Y673500D01*
X236000Y663500D02*
X244000Y671500D01*
X236000D02*
X244000Y663500D01*
X236000Y653500D02*
X244000Y661500D01*
X236000D02*
X244000Y653500D01*
X236000Y643500D02*
X244000Y651500D01*
X236000D02*
X244000Y643500D01*
X236000Y633500D02*
X244000Y641500D01*
X236000D02*
X244000Y633500D01*
X236000Y623500D02*
X244000Y631500D01*
X236000D02*
X244000Y623500D01*
X236000Y613500D02*
X244000Y621500D01*
X236000D02*
X244000Y613500D01*
X236000Y603500D02*
X244000Y611500D01*
X236000D02*
X244000Y603500D01*
X236000Y593500D02*
X244000Y601500D01*
X236000D02*
X244000Y593500D01*
X236000Y583500D02*
X244000Y591500D01*
X236000D02*
X244000Y583500D01*
X236000Y573500D02*
X244000Y581500D01*
X236000D02*
X244000Y573500D01*
X236000Y563500D02*
X244000Y571500D01*
X236000D02*
X244000Y563500D01*
X236000Y553500D02*
X244000Y561500D01*
X236000D02*
X244000Y553500D01*
X236000Y543500D02*
X244000Y551500D01*
X236000D02*
X244000Y543500D01*
X236000Y533500D02*
X244000Y541500D01*
X236000D02*
X244000Y533500D01*
X236000Y523500D02*
X244000Y531500D01*
X236000D02*
X244000Y523500D01*
X236000Y513500D02*
X244000Y521500D01*
X236000D02*
X244000Y513500D01*
X236000Y503500D02*
X244000Y511500D01*
X236000D02*
X244000Y503500D01*
X236000Y493500D02*
X244000Y501500D01*
X236000D02*
X244000Y493500D01*
X236000Y483500D02*
X244000Y491500D01*
X236000D02*
X244000Y483500D01*
X236000Y473500D02*
X244000Y481500D01*
X236000D02*
X244000Y473500D01*
X236000Y463500D02*
X244000Y471500D01*
X236000D02*
X244000Y463500D01*
X236000Y453500D02*
X244000Y461500D01*
X236000D02*
X244000Y453500D01*
X236000Y443500D02*
X244000Y451500D01*
X236000D02*
X244000Y443500D01*
X236000Y433500D02*
X244000Y441500D01*
X236000D02*
X244000Y433500D01*
X236000Y423500D02*
X244000Y431500D01*
X236000D02*
X244000Y423500D01*
X236000Y413500D02*
X244000Y421500D01*
X236000D02*
X244000Y413500D01*
X236000Y403500D02*
X244000Y411500D01*
X236000D02*
X244000Y403500D01*
X236000Y393500D02*
X244000Y401500D01*
X236000D02*
X244000Y393500D01*
X236000Y383500D02*
X244000Y391500D01*
X236000D02*
X244000Y383500D01*
X236000Y373500D02*
X244000Y381500D01*
X236000D02*
X244000Y373500D01*
X236000Y363500D02*
X244000Y371500D01*
X236000D02*
X244000Y363500D01*
X236000Y353500D02*
X244000Y361500D01*
X236000D02*
X244000Y353500D01*
X236000Y343500D02*
X244000Y351500D01*
X236000D02*
X244000Y343500D01*
X236000Y333500D02*
X244000Y341500D01*
X236000D02*
X244000Y333500D01*
X236000Y323500D02*
X244000Y331500D01*
X236000D02*
X244000Y323500D01*
X236000Y313500D02*
X244000Y321500D01*
X236000D02*
X244000Y313500D01*
X236000Y303500D02*
X244000Y311500D01*
X236000D02*
X244000Y303500D01*
X236000Y293500D02*
X244000Y301500D01*
X236000D02*
X244000Y293500D01*
X236000Y283500D02*
X244000Y291500D01*
X236000D02*
X244000Y283500D01*
X236000Y273500D02*
X244000Y281500D01*
X236000D02*
X244000Y273500D01*
X236000Y263500D02*
X244000Y271500D01*
X236000D02*
X244000Y263500D01*
X236000Y253500D02*
X244000Y261500D01*
X236000D02*
X244000Y253500D01*
X236000Y243500D02*
X244000Y251500D01*
X236000D02*
X244000Y243500D01*
X236000Y233500D02*
X244000Y241500D01*
X236000D02*
X244000Y233500D01*
X236000Y223500D02*
X244000Y231500D01*
X236000D02*
X244000Y223500D01*
X236000Y213500D02*
X244000Y221500D01*
X236000D02*
X244000Y213500D01*
X236000Y203500D02*
X244000Y211500D01*
X236000D02*
X244000Y203500D01*
X410000Y213500D02*
X418000D01*
X414000Y209500D02*
Y217500D01*
X403000Y206500D02*
X411000D01*
X407000Y202500D02*
Y210500D01*
X287000Y222500D02*
X295000D01*
X291000Y218500D02*
Y226500D01*
X356000Y239500D02*
X364000D01*
X360000Y235500D02*
Y243500D01*
X410000Y236500D02*
X418000D01*
X414000Y232500D02*
Y240500D01*
X363000Y272500D02*
X371000D01*
X367000Y268500D02*
Y276500D01*
X373000Y272500D02*
X381000D01*
X377000Y268500D02*
Y276500D01*
X397000Y273500D02*
X405000D01*
X401000Y269500D02*
Y277500D01*
X347000Y275500D02*
X355000D01*
X351000Y271500D02*
Y279500D01*
X343000Y314500D02*
X351000D01*
X347000Y310500D02*
Y318500D01*
X389000Y323500D02*
X397000D01*
X393000Y319500D02*
Y327500D01*
X266000Y343500D02*
X274000D01*
X270000Y339500D02*
Y347500D01*
Y373500D02*
X278000D01*
X274000Y369500D02*
Y377500D01*
X277000Y357500D02*
X285000D01*
X281000Y353500D02*
Y361500D01*
X337000Y373500D02*
X345000D01*
X341000Y369500D02*
Y377500D01*
X359000Y374500D02*
X367000D01*
X363000Y370500D02*
Y378500D01*
X274000Y380500D02*
X282000D01*
X278000Y376500D02*
Y384500D01*
X289000D02*
X297000D01*
X293000Y380500D02*
Y388500D01*
X270000Y408500D02*
X278000D01*
X274000Y404500D02*
Y412500D01*
X310000Y399500D02*
X318000D01*
X314000Y395500D02*
Y403500D01*
X337000Y406500D02*
X345000D01*
X341000Y402500D02*
Y410500D01*
X281000Y423500D02*
X289000D01*
X285000Y419500D02*
Y427500D01*
X341000Y432500D02*
X349000D01*
X345000Y428500D02*
Y436500D01*
X396000Y427500D02*
X404000D01*
X400000Y423500D02*
Y431500D01*
X243000Y447500D02*
X251000D01*
X247000Y443500D02*
Y451500D01*
X288000D02*
X296000D01*
X292000Y447500D02*
Y455500D01*
X328000Y445500D02*
X336000D01*
X332000Y441500D02*
Y449500D01*
Y440500D02*
X340000D01*
X336000Y436500D02*
Y444500D01*
X257000Y468500D02*
X265000D01*
X261000Y464500D02*
Y472500D01*
X285000Y459500D02*
X293000D01*
X289000Y455500D02*
Y463500D01*
X275000Y465500D02*
X283000D01*
X279000Y461500D02*
Y469500D01*
X280000D02*
X288000D01*
X284000Y465500D02*
Y473500D01*
X293000Y457500D02*
X301000D01*
X297000Y453500D02*
Y461500D01*
X290000Y463500D02*
X298000D01*
X294000Y459500D02*
Y467500D01*
X312000Y457500D02*
X320000D01*
X316000Y453500D02*
Y461500D01*
X308000Y464500D02*
X316000D01*
X312000Y460500D02*
Y468500D01*
X298000Y464500D02*
X306000D01*
X302000Y460500D02*
Y468500D01*
X321000Y474500D02*
X329000D01*
X325000Y470500D02*
Y478500D01*
X318000Y465500D02*
X326000D01*
X322000Y461500D02*
Y469500D01*
X325000Y465500D02*
X333000D01*
X329000Y461500D02*
Y469500D01*
X337000Y459500D02*
X345000D01*
X341000Y455500D02*
Y463500D01*
X335000Y467500D02*
X343000D01*
X339000Y463500D02*
Y471500D01*
X351000Y459500D02*
X359000D01*
X355000Y455500D02*
Y463500D01*
X366000Y472500D02*
X374000D01*
X370000Y468500D02*
Y476500D01*
X357000Y465500D02*
X365000D01*
X361000Y461500D02*
Y469500D01*
X243000Y483500D02*
X251000D01*
X247000Y479500D02*
Y487500D01*
X244000Y490500D02*
X252000D01*
X248000Y486500D02*
Y494500D01*
X270000Y479500D02*
X278000D01*
X274000Y475500D02*
Y483500D01*
X268000Y490500D02*
X276000D01*
X272000Y486500D02*
Y494500D01*
X259000Y490500D02*
X267000D01*
X263000Y486500D02*
Y494500D01*
X329000Y479500D02*
X337000D01*
X333000Y475500D02*
Y483500D01*
X329000Y493500D02*
X337000D01*
X333000Y489500D02*
Y497500D01*
X335000Y490500D02*
X343000D01*
X339000Y486500D02*
Y494500D01*
X378000Y491500D02*
X386000D01*
X382000Y487500D02*
Y495500D01*
X395000Y476500D02*
X403000D01*
X399000Y472500D02*
Y480500D01*
X249000Y511500D02*
X257000D01*
X253000Y507500D02*
Y515500D01*
Y506500D02*
X261000D01*
X257000Y502500D02*
Y510500D01*
X248000Y500500D02*
X256000D01*
X252000Y496500D02*
Y504500D01*
X265000Y513500D02*
X273000D01*
X269000Y509500D02*
Y517500D01*
X270000Y509500D02*
X278000D01*
X274000Y505500D02*
Y513500D01*
X255000D02*
X263000D01*
X259000Y509500D02*
Y517500D01*
X332000Y499500D02*
X340000D01*
X336000Y495500D02*
Y503500D01*
X330000Y511500D02*
X338000D01*
X334000Y507500D02*
Y515500D01*
X345000Y506500D02*
X353000D01*
X349000Y502500D02*
Y510500D01*
X337000Y505500D02*
X345000D01*
X341000Y501500D02*
Y509500D01*
X365000Y496500D02*
X373000D01*
X369000Y492500D02*
Y500500D01*
X355000Y508500D02*
X363000D01*
X359000Y504500D02*
Y512500D01*
X355000Y497500D02*
X363000D01*
X359000Y493500D02*
Y501500D01*
X395000Y495500D02*
X403000D01*
X399000Y491500D02*
Y499500D01*
X259000Y518500D02*
X267000D01*
X263000Y514500D02*
Y522500D01*
X269000Y523500D02*
X277000D01*
X273000Y519500D02*
Y527500D01*
X262000Y524500D02*
X270000D01*
X266000Y520500D02*
Y528500D01*
X288000Y525500D02*
X296000D01*
X292000Y521500D02*
Y529500D01*
X303000Y523500D02*
X311000D01*
X307000Y519500D02*
Y527500D01*
X296000Y524500D02*
X304000D01*
X300000Y520500D02*
Y528500D01*
X332000Y531500D02*
X340000D01*
X336000Y527500D02*
Y535500D01*
X319000Y517500D02*
X327000D01*
X323000Y513500D02*
Y521500D01*
X325000Y525500D02*
X333000D01*
X329000Y521500D02*
Y529500D01*
X332000Y521500D02*
X340000D01*
X336000Y517500D02*
Y525500D01*
X340000Y521500D02*
X348000D01*
X344000Y517500D02*
Y525500D01*
X374000Y529500D02*
X382000D01*
X378000Y525500D02*
Y533500D01*
X356000Y530500D02*
X364000D01*
X360000Y526500D02*
Y534500D01*
X355000Y517500D02*
X363000D01*
X359000Y513500D02*
Y521500D01*
X254000Y550500D02*
X262000D01*
X258000Y546500D02*
Y554500D01*
X270000Y537500D02*
X278000D01*
X274000Y533500D02*
Y541500D01*
X275000D02*
X283000D01*
X279000Y537500D02*
Y545500D01*
X308000Y542500D02*
X316000D01*
X312000Y538500D02*
Y546500D01*
X323000Y554500D02*
X331000D01*
X327000Y550500D02*
Y558500D01*
X315000Y546500D02*
X323000D01*
X319000Y542500D02*
Y550500D01*
X342000Y541500D02*
X350000D01*
X346000Y537500D02*
Y545500D01*
X337000D02*
X345000D01*
X341000Y541500D02*
Y549500D01*
X352000Y538500D02*
X360000D01*
X356000Y534500D02*
Y542500D01*
X364000Y544500D02*
X372000D01*
X368000Y540500D02*
Y548500D01*
X364000Y553500D02*
X372000D01*
X368000Y549500D02*
Y557500D01*
X387000Y550500D02*
X395000D01*
X391000Y546500D02*
Y554500D01*
X380000Y544500D02*
X388000D01*
X384000Y540500D02*
Y548500D01*
X396000Y552500D02*
X404000D01*
X400000Y548500D02*
Y556500D01*
X253000Y562500D02*
X261000D01*
X257000Y558500D02*
Y566500D01*
X262000Y571500D02*
X270000D01*
X266000Y567500D02*
Y575500D01*
X277000Y570500D02*
X285000D01*
X281000Y566500D02*
Y574500D01*
X289000Y563500D02*
X297000D01*
X293000Y559500D02*
Y567500D01*
X301000Y556500D02*
X309000D01*
X305000Y552500D02*
Y560500D01*
X301000Y563500D02*
X309000D01*
X305000Y559500D02*
Y567500D01*
X315000Y563500D02*
X323000D01*
X319000Y559500D02*
Y567500D01*
X323000Y563500D02*
X331000D01*
X327000Y559500D02*
Y567500D01*
X338000Y563500D02*
X346000D01*
X342000Y559500D02*
Y567500D01*
X337000Y556500D02*
X345000D01*
X341000Y552500D02*
Y560500D01*
X345000Y559500D02*
X353000D01*
X349000Y555500D02*
Y563500D01*
X358000Y573500D02*
X366000D01*
X362000Y569500D02*
Y577500D01*
X364000Y561500D02*
X372000D01*
X368000Y557500D02*
Y565500D01*
X375000Y568500D02*
X383000D01*
X379000Y564500D02*
Y572500D01*
X396000Y561500D02*
X404000D01*
X400000Y557500D02*
Y565500D01*
X251000Y590500D02*
X259000D01*
X255000Y586500D02*
Y594500D01*
X253000Y581500D02*
X261000D01*
X257000Y577500D02*
Y585500D01*
X267000Y579500D02*
X275000D01*
X271000Y575500D02*
Y583500D01*
X259000Y588500D02*
X267000D01*
X263000Y584500D02*
Y592500D01*
X266000Y593500D02*
X274000D01*
X270000Y589500D02*
Y597500D01*
X284000Y590500D02*
X292000D01*
X288000Y586500D02*
Y594500D01*
X285000Y576500D02*
X293000D01*
X289000Y572500D02*
Y580500D01*
Y583500D02*
X297000D01*
X293000Y579500D02*
Y587500D01*
X282000Y582500D02*
X290000D01*
X286000Y578500D02*
Y586500D01*
X295000Y578500D02*
X303000D01*
X299000Y574500D02*
Y582500D01*
X303000Y578500D02*
X311000D01*
X307000Y574500D02*
Y582500D01*
X331000Y576500D02*
X339000D01*
X335000Y572500D02*
Y580500D01*
X321000Y584500D02*
X329000D01*
X325000Y580500D02*
Y588500D01*
X331000Y586500D02*
X339000D01*
X335000Y582500D02*
Y590500D01*
X317000Y591500D02*
X325000D01*
X321000Y587500D02*
Y595500D01*
X349000Y594500D02*
X357000D01*
X353000Y590500D02*
Y598500D01*
X352000Y587500D02*
X360000D01*
X356000Y583500D02*
Y591500D01*
X350000Y576500D02*
X358000D01*
X354000Y572500D02*
Y580500D01*
X342000Y576500D02*
X350000D01*
X346000Y572500D02*
Y580500D01*
X341000Y594500D02*
X349000D01*
X345000Y590500D02*
Y598500D01*
X369000Y590500D02*
X377000D01*
X373000Y586500D02*
Y594500D01*
X365000Y583500D02*
X373000D01*
X369000Y579500D02*
Y587500D01*
X375000Y580500D02*
X383000D01*
X379000Y576500D02*
Y584500D01*
X377000Y588500D02*
X385000D01*
X381000Y584500D02*
Y592500D01*
X385000Y591500D02*
X393000D01*
X389000Y587500D02*
Y595500D01*
X248000Y605500D02*
X256000D01*
X252000Y601500D02*
Y609500D01*
X267000Y611500D02*
X275000D01*
X271000Y607500D02*
Y615500D01*
X257000Y604500D02*
X265000D01*
X261000Y600500D02*
Y608500D01*
X280000Y606500D02*
X288000D01*
X284000Y602500D02*
Y610500D01*
X280000Y595500D02*
X288000D01*
X284000Y591500D02*
Y599500D01*
X280000Y614500D02*
X288000D01*
X284000Y610500D02*
Y618500D01*
X292000Y611500D02*
X300000D01*
X296000Y607500D02*
Y615500D01*
X365000Y595500D02*
X373000D01*
X369000Y591500D02*
Y599500D01*
X387000Y604500D02*
X395000D01*
X391000Y600500D02*
Y608500D01*
X387000Y614500D02*
X395000D01*
X391000Y610500D02*
Y618500D01*
X392000Y608500D02*
X400000D01*
X396000Y604500D02*
Y612500D01*
X375000Y607500D02*
X383000D01*
X379000Y603500D02*
Y611500D01*
X250000Y625500D02*
X258000D01*
X254000Y621500D02*
Y629500D01*
X253000Y631500D02*
X261000D01*
X257000Y627500D02*
Y635500D01*
X262000Y615500D02*
X270000D01*
X266000Y611500D02*
Y619500D01*
X267000Y621500D02*
X275000D01*
X271000Y617500D02*
Y625500D01*
X288000Y620500D02*
X296000D01*
X292000Y616500D02*
Y624500D01*
X280000Y625500D02*
X288000D01*
X284000Y621500D02*
Y629500D01*
X338000Y621500D02*
X346000D01*
X342000Y617500D02*
Y625500D01*
X352000Y624500D02*
X360000D01*
X356000Y620500D02*
Y628500D01*
X352000Y617500D02*
X360000D01*
X356000Y613500D02*
Y621500D01*
X346000Y629500D02*
X354000D01*
X350000Y625500D02*
Y633500D01*
X365000Y621500D02*
X373000D01*
X369000Y617500D02*
Y625500D01*
X370000Y615500D02*
X378000D01*
X374000Y611500D02*
Y619500D01*
X391000D02*
X399000D01*
X395000Y615500D02*
Y623500D01*
X258000Y648500D02*
X266000D01*
X262000Y644500D02*
Y652500D01*
X258000Y641500D02*
X266000D01*
X262000Y637500D02*
Y645500D01*
X263000Y637500D02*
X271000D01*
X267000Y633500D02*
Y641500D01*
X265000Y648500D02*
X273000D01*
X269000Y644500D02*
Y652500D01*
X282000Y639500D02*
X290000D01*
X286000Y635500D02*
Y643500D01*
X291000Y641500D02*
X299000D01*
X295000Y637500D02*
Y645500D01*
X292000Y648500D02*
X300000D01*
X296000Y644500D02*
Y652500D01*
X308000Y648500D02*
X316000D01*
X312000Y644500D02*
Y652500D01*
X302000Y644500D02*
X310000D01*
X306000Y640500D02*
Y648500D01*
X296000Y635500D02*
X304000D01*
X300000Y631500D02*
Y639500D01*
X334000Y648500D02*
X342000D01*
X338000Y644500D02*
Y652500D01*
X327000Y648500D02*
X335000D01*
X331000Y644500D02*
Y652500D01*
X328000Y640500D02*
X336000D01*
X332000Y636500D02*
Y644500D01*
X322000Y642500D02*
X330000D01*
X326000Y638500D02*
Y646500D01*
X333000Y636500D02*
X341000D01*
X337000Y632500D02*
Y640500D01*
X317000Y646500D02*
X325000D01*
X321000Y642500D02*
Y650500D01*
X351000Y644500D02*
X359000D01*
X355000Y640500D02*
Y648500D01*
X381000Y638500D02*
X389000D01*
X385000Y634500D02*
Y642500D01*
X387000Y644500D02*
X395000D01*
X391000Y640500D02*
Y648500D01*
X269000Y661500D02*
X277000D01*
X273000Y657500D02*
Y665500D01*
X292000Y668500D02*
X300000D01*
X296000Y664500D02*
Y672500D01*
X283000Y666500D02*
X291000D01*
X287000Y662500D02*
Y670500D01*
X309000Y661500D02*
X317000D01*
X313000Y657500D02*
Y665500D01*
X324000Y661500D02*
X332000D01*
X328000Y657500D02*
Y665500D01*
X336000Y661500D02*
X344000D01*
X340000Y657500D02*
Y665500D01*
X378000Y663500D02*
X386000D01*
X382000Y659500D02*
Y667500D01*
X283000Y681500D02*
X291000D01*
X287000Y677500D02*
Y685500D01*
X292000Y684500D02*
X300000D01*
X296000Y680500D02*
Y688500D01*
X294000Y690500D02*
X302000D01*
X298000Y686500D02*
Y694500D01*
X281000Y688500D02*
X289000D01*
X285000Y684500D02*
Y692500D01*
X325000D02*
X333000D01*
X329000Y688500D02*
Y696500D01*
X349000Y685500D02*
X357000D01*
X353000Y681500D02*
Y689500D01*
X371000Y688500D02*
X379000D01*
X375000Y684500D02*
Y692500D01*
X362000D02*
X370000D01*
X366000Y688500D02*
Y696500D01*
X390000Y677500D02*
X398000D01*
X394000Y673500D02*
Y681500D01*
X292000Y708500D02*
X300000D01*
X296000Y704500D02*
Y712500D01*
X357000Y696500D02*
X365000D01*
X361000Y692500D02*
Y700500D01*
X372000Y701500D02*
X380000D01*
X376000Y697500D02*
Y705500D01*
X390000Y695500D02*
X398000D01*
X394000Y691500D02*
Y699500D01*
X312000Y717500D02*
X320000D01*
X316000Y713500D02*
Y721500D01*
X335000Y717500D02*
X343000D01*
X339000Y713500D02*
Y721500D01*
X352000Y727500D02*
X360000D01*
X356000Y723500D02*
Y731500D01*
X294000Y746500D02*
X302000D01*
X298000Y742500D02*
Y750500D01*
X340000Y736500D02*
X348000D01*
X344000Y732500D02*
Y740500D01*
X267000Y774500D02*
X275000D01*
X271000Y770500D02*
Y778500D01*
X340000Y774500D02*
X348000D01*
X344000Y770500D02*
Y778500D01*
X294000D02*
X302000D01*
X298000Y774500D02*
Y782500D01*
X232500Y200000D02*
X435000D01*
Y240000*
X405000*
Y250000*
X435000*
Y267500*
X405000*
Y792500*
X232500*
Y200000*
X500000Y196000D02*
X758000D01*
X500000Y172000D02*
X758000D01*
X500000Y148000D02*
X758000D01*
X500000Y124000D02*
X758000D01*
X500000Y100000D02*
X758000D01*
X500000Y196000D02*
Y100000D01*
X584000Y196000D02*
Y100000D01*
X620000Y196000D02*
Y100000D01*
X656000Y196000D02*
Y100000D01*
X710000Y196000D02*
Y100000D01*
X758000Y196000D02*
Y100000D01*
X535500Y184750D02*
X534955Y185500D01*
X534136Y185875*
X533045*
X532227Y185500*
X531682Y184750*
Y184000*
X531955Y183250*
X532227Y182875*
X532773Y182500*
X534409Y181750*
X534955Y181375*
X535227Y181000*
X535500Y180250*
Y179125*
X534955Y178375*
X534136Y178000*
X533045*
X532227Y178375*
X531682Y179125*
X537955Y185875D02*
Y178000D01*
X544227Y185875D02*
X540409Y178000D01*
Y185875D02*
X544227D01*
X540409Y178000D02*
X544227D01*
X546682Y185875D02*
Y178000D01*
Y185875D02*
X550227D01*
X546682Y182125D02*
X548864D01*
X546682Y178000D02*
X550227D01*
X593864Y185875D02*
X593318Y185500D01*
X592773Y184750*
X592500Y184000*
X592227Y182875*
Y181000*
X592500Y179875*
X592773Y179125*
X593318Y178375*
X593864Y178000*
X594955*
X595500Y178375*
X596045Y179125*
X596318Y179875*
X596591Y181000*
Y182875*
X596318Y184000*
X596045Y184750*
X595500Y185500*
X594955Y185875*
X593864*
X594682Y179500D02*
X596318Y177250D01*
X600955Y185875D02*
Y178000D01*
X599045Y185875D02*
X602864D01*
X605318D02*
X607500Y182125D01*
Y178000*
X609682Y185875D02*
X607500Y182125D01*
X632045Y184750D02*
X631500Y185500D01*
X630682Y185875*
X629591*
X628773Y185500*
X628227Y184750*
Y184000*
X628500Y183250*
X628773Y182875*
X629318Y182500*
X630955Y181750*
X631500Y181375*
X631773Y181000*
X632045Y180250*
Y179125*
X631500Y178375*
X630682Y178000*
X629591*
X628773Y178375*
X628227Y179125*
X634500Y185875D02*
X636682Y182125D01*
Y178000*
X638864Y185875D02*
X636682Y182125D01*
X641318Y185875D02*
Y178000D01*
Y185875D02*
X643500Y178000D01*
X645682Y185875D02*
X643500Y178000D01*
X645682Y185875D02*
Y178000D01*
X667500Y185875D02*
Y178000D01*
Y185875D02*
X669955D01*
X670773Y185500*
X671045Y185125*
X671318Y184375*
Y183250*
X671045Y182500*
X670773Y182125*
X669955Y181750*
X667500*
X673773Y185875D02*
Y178000D01*
X677045*
X681682Y185875D02*
X679500Y178000D01*
X681682Y185875D02*
X683864Y178000D01*
X680318Y180625D02*
X683045D01*
X688227Y185875D02*
Y178000D01*
X686318Y185875D02*
X690136D01*
X692591D02*
Y178000D01*
Y185875D02*
X696136D01*
X692591Y182125D02*
X694773D01*
X692591Y178000D02*
X696136D01*
X698591Y185875D02*
Y178000D01*
Y185875D02*
X700500D01*
X701318Y185500*
X701864Y184750*
X702136Y184000*
X702409Y182875*
Y181000*
X702136Y179875*
X701864Y179125*
X701318Y178375*
X700500Y178000*
X698591*
X726682Y185875D02*
Y178000D01*
X724773Y185875D02*
X728591D01*
X732682D02*
X732136Y185500D01*
X731591Y184750*
X731318Y184000*
X731045Y182875*
Y181000*
X731318Y179875*
X731591Y179125*
X732136Y178375*
X732682Y178000*
X733773*
X734318Y178375*
X734864Y179125*
X735136Y179875*
X735409Y181000*
Y182875*
X735136Y184000*
X734864Y184750*
X734318Y185500*
X733773Y185875*
X732682*
X737864D02*
Y178000D01*
X741136*
X506545Y161875D02*
X509545D01*
X507909Y158875*
X508727*
X509273Y158500*
X509545Y158125*
X509818Y157000*
Y156250*
X509545Y155125*
X509000Y154375*
X508182Y154000*
X507364*
X506545Y154375*
X506273Y154750*
X506000Y155500*
X516091Y161875D02*
X513364Y154000D01*
X512273Y161875D02*
X516091D01*
X593182Y160000D02*
Y160375D01*
X593455Y161125*
X593727Y161500*
X594273Y161875*
X595364*
X595909Y161500*
X596182Y161125*
X596455Y160375*
Y159625*
X596182Y158875*
X595636Y157750*
X592909Y154000*
X596727*
X599455Y160000D02*
Y160375D01*
X599727Y161125*
X600000Y161500*
X600545Y161875*
X601636*
X602182Y161500*
X602455Y161125*
X602727Y160375*
Y159625*
X602455Y158875*
X601909Y157750*
X599182Y154000*
X603000*
X609000Y159250D02*
X608727Y158125D01*
X608182Y157375*
X607364Y157000*
X607091*
X606273Y157375*
X605727Y158125*
X605455Y159250*
Y159625*
X605727Y160750*
X606273Y161500*
X607091Y161875*
X607364*
X608182Y161500*
X608727Y160750*
X609000Y159250*
Y157375*
X608727Y155500*
X608182Y154375*
X607364Y154000*
X606818*
X606000Y154375*
X605727Y155125*
X632000Y160000D02*
X644000D01*
X638000Y154000D02*
Y166000D01*
X664636Y161875D02*
X666818Y158125D01*
Y154000*
X669000Y161875D02*
X666818Y158125D01*
X671455Y161875D02*
Y154000D01*
Y161875D02*
X675000D01*
X671455Y158125D02*
X673636D01*
X671455Y154000D02*
X675000D01*
X681273Y160750D02*
X680727Y161500D01*
X679909Y161875*
X678818*
X678000Y161500*
X677455Y160750*
Y160000*
X677727Y159250*
X678000Y158875*
X678545Y158500*
X680182Y157750*
X680727Y157375*
X681000Y157000*
X681273Y156250*
Y155125*
X680727Y154375*
X679909Y154000*
X678818*
X678000Y154375*
X677455Y155125*
X717818Y160750D02*
Y154000D01*
X715364Y157375D02*
X720273D01*
X727636Y163375D02*
X722727Y151375D01*
X730091Y157375D02*
X735000D01*
X739091Y161875D02*
X738273Y161500D01*
X737727Y160375*
X737455Y158500*
Y157375*
X737727Y155500*
X738273Y154375*
X739091Y154000*
X739636*
X740455Y154375*
X741000Y155500*
X741273Y157375*
Y158500*
X741000Y160375*
X740455Y161500*
X739636Y161875*
X739091*
X744000Y154750D02*
X743727Y154375D01*
X744000Y154000*
X744273Y154375*
X744000Y154750*
X748364Y161875D02*
X747545Y161500D01*
X747000Y160375*
X746727Y158500*
Y157375*
X747000Y155500*
X747545Y154375*
X748364Y154000*
X748909*
X749727Y154375*
X750273Y155500*
X750545Y157375*
Y158500*
X750273Y160375*
X749727Y161500*
X748909Y161875*
X748364*
X506545Y137875D02*
X509545D01*
X507909Y134875*
X508727*
X509273Y134500*
X509545Y134125*
X509818Y133000*
Y132250*
X509545Y131125*
X509000Y130375*
X508182Y130000*
X507364*
X506545Y130375*
X506273Y130750*
X506000Y131500*
X515818Y137875D02*
X513091D01*
X512818Y134500*
X513091Y134875*
X513909Y135250*
X514727*
X515545Y134875*
X516091Y134125*
X516364Y133000*
X516091Y132250*
X515818Y131125*
X515273Y130375*
X514455Y130000*
X513636*
X512818Y130375*
X512545Y130750*
X512273Y131500*
X595364Y136375D02*
X595909Y136750D01*
X596727Y137875*
Y130000*
X599182Y136375D02*
X599727Y136750D01*
X600545Y137875*
Y130000*
X606545Y135250D02*
X606273Y134125D01*
X605727Y133375*
X604909Y133000*
X604636*
X603818Y133375*
X603273Y134125*
X603000Y135250*
Y135625*
X603273Y136750*
X603818Y137500*
X604636Y137875*
X604909*
X605727Y137500*
X606273Y136750*
X606545Y135250*
Y133375*
X606273Y131500*
X605727Y130375*
X604909Y130000*
X604364*
X603545Y130375*
X603273Y131125*
X632000Y130000D02*
X644000Y142000D01*
X632000D02*
X644000Y130000D01*
X664636Y137875D02*
X666818Y134125D01*
Y130000*
X669000Y137875D02*
X666818Y134125D01*
X671455Y137875D02*
Y130000D01*
Y137875D02*
X675000D01*
X671455Y134125D02*
X673636D01*
X671455Y130000D02*
X675000D01*
X681273Y136750D02*
X680727Y137500D01*
X679909Y137875*
X678818*
X678000Y137500*
X677455Y136750*
Y136000*
X677727Y135250*
X678000Y134875*
X678545Y134500*
X680182Y133750*
X680727Y133375*
X681000Y133000*
X681273Y132250*
Y131125*
X680727Y130375*
X679909Y130000*
X678818*
X678000Y130375*
X677455Y131125*
X717818Y136750D02*
Y130000D01*
X715364Y133375D02*
X720273D01*
X727636Y139375D02*
X722727Y127375D01*
X730091Y133375D02*
X735000D01*
X739091Y137875D02*
X738273Y137500D01*
X737727Y136375*
X737455Y134500*
Y133375*
X737727Y131500*
X738273Y130375*
X739091Y130000*
X739636*
X740455Y130375*
X741000Y131500*
X741273Y133375*
Y134500*
X741000Y136375*
X740455Y137500*
X739636Y137875*
X739091*
X744000Y130750D02*
X743727Y130375D01*
X744000Y130000*
X744273Y130375*
X744000Y130750*
X748364Y137875D02*
X747545Y137500D01*
X747000Y136375*
X746727Y134500*
Y133375*
X747000Y131500*
X747545Y130375*
X748364Y130000*
X748909*
X749727Y130375*
X750273Y131500*
X750545Y133375*
Y134500*
X750273Y136375*
X749727Y137500*
X748909Y137875*
X748364*
X506000Y112375D02*
X506545Y112750D01*
X507364Y113875*
Y106000*
X511182Y113875D02*
X510364Y113500D01*
X510091Y112750*
Y112000*
X510364Y111250*
X510909Y110875*
X512000Y110500*
X512818Y110125*
X513364Y109375*
X513636Y108625*
Y107500*
X513364Y106750*
X513091Y106375*
X512273Y106000*
X511182*
X510364Y106375*
X510091Y106750*
X509818Y107500*
Y108625*
X510091Y109375*
X510636Y110125*
X511455Y110500*
X512545Y110875*
X513091Y111250*
X513364Y112000*
Y112750*
X513091Y113500*
X512273Y113875*
X511182*
X519909D02*
X517182Y106000D01*
X516091Y113875D02*
X519909D01*
X522636Y106750D02*
X522364Y106375D01*
X522636Y106000*
X522909Y106375*
X522636Y106750*
X528909Y113875D02*
X526182D01*
X525909Y110500*
X526182Y110875*
X527000Y111250*
X527818*
X528636Y110875*
X529182Y110125*
X529455Y109000*
X529182Y108250*
X528909Y107125*
X528364Y106375*
X527545Y106000*
X526727*
X525909Y106375*
X525636Y106750*
X525364Y107500*
X600273Y112375D02*
X600818Y112750D01*
X601636Y113875*
Y106000*
X632000D02*
X644000D01*
Y118000*
X632000*
Y106000*
X638000Y112000D02*
Y118000D01*
X664636Y113875D02*
X666818Y110125D01*
Y106000*
X669000Y113875D02*
X666818Y110125D01*
X671455Y113875D02*
Y106000D01*
Y113875D02*
X675000D01*
X671455Y110125D02*
X673636D01*
X671455Y106000D02*
X675000D01*
X681273Y112750D02*
X680727Y113500D01*
X679909Y113875*
X678818*
X678000Y113500*
X677455Y112750*
Y112000*
X677727Y111250*
X678000Y110875*
X678545Y110500*
X680182Y109750*
X680727Y109375*
X681000Y109000*
X681273Y108250*
Y107125*
X680727Y106375*
X679909Y106000*
X678818*
X678000Y106375*
X677455Y107125*
X717818Y112750D02*
Y106000D01*
X715364Y109375D02*
X720273D01*
X727636Y115375D02*
X722727Y103375D01*
X730091Y109375D02*
X735000D01*
X739091Y113875D02*
X738273Y113500D01*
X737727Y112375*
X737455Y110500*
Y109375*
X737727Y107500*
X738273Y106375*
X739091Y106000*
X739636*
X740455Y106375*
X741000Y107500*
X741273Y109375*
Y110500*
X741000Y112375*
X740455Y113500*
X739636Y113875*
X739091*
X744000Y106750D02*
X743727Y106375D01*
X744000Y106000*
X744273Y106375*
X744000Y106750*
X748364Y113875D02*
X747545Y113500D01*
X747000Y112375*
X746727Y110500*
Y109375*
X747000Y107500*
X747545Y106375*
X748364Y106000*
X748909*
X749727Y106375*
X750273Y107500*
X750545Y109375*
Y110500*
X750273Y112375*
X749727Y113500*
X748909Y113875*
X748364*
X0Y0D02*
M02*
