M48
;FILE_FORMAT=2:4
INCH,LZ
FMAT,2
ICI,OFF
;TYPE=PLATED
T1C.035
T2C.037
T3C.1875
%
M72
G90
G93X0Y0
T1C.035F197S55
X024Y02275
X024Y02175
X024Y02075
X024Y02475
X024Y02375
X024Y02775
X024Y02675
X024Y02575
X024Y02975
X024Y02875
X024Y03275
X024Y03175
X024Y03075
X024Y03475
X024Y03375
X03875Y038
X03875Y03675
X03775Y038
X03775Y03675
X03675Y038
X03675Y03675
X03575Y038
X03575Y03675
X03475Y038
X03475Y03675
X03375Y038
X03375Y03675
X03275Y038
X03275Y03675
X03175Y038
X03175Y03675
X03075Y038
X03075Y03675
X02975Y038
X02975Y03675
X024Y03775
X024Y03675
X024Y03575
X024Y03975
X024Y03875
X02975Y03925
X03075Y03925
X03175Y03925
X03275Y03925
X03375Y03925
X03475Y03925
X03575Y03925
X03675Y03925
X03775Y03925
X03875Y03925
X03875Y04225
X03775Y04225
X03675Y04225
X03575Y04225
X03475Y04225
X03375Y04225
X03275Y04225
X03175Y04225
X03075Y04225
X02975Y04225
X024Y04175
X024Y04075
X024Y04275
X024Y04475
X024Y04375
X03465Y0439
X03515Y04515
X03565Y0439
X03615Y04515
X03665Y0439
X03715Y04515
X03765Y0439
X03815Y04515
X03865Y0439
X03815Y04815
X03715Y04815
X03615Y04815
X03515Y04815
X024Y04875
X024Y04675
X024Y04575
X024Y04975
X024Y04775
X024Y05275
X024Y05175
X024Y05075
X024Y05475
X024Y05375
X026691Y05325
X026691Y055022
X02925Y05325
X02925Y055022
X024Y05575
X024Y05775
X024Y05675
X024Y05975
X024Y05875
X024Y06175
X024Y06075
X024Y06275
X024Y06375
X024Y06475
X024Y06775
X024Y06675
X024Y06575
X024Y06975
X024Y06875
X024Y07275
X024Y07175
X024Y07075
X024Y07375
X024Y07475
X028191Y073522
X028191Y07175
X03075Y073522
X03075Y07175
X024Y07675
X024Y07575
X024Y07775
T2C.037F197S55
X0291Y02225
X032558Y022357
X033558Y022357
X034558Y022357
X035558Y022357
X036558Y022357
X0407Y02065
X0414Y02135
X0414Y02365
X036558Y023357
X036Y02395
X035558Y023357
X034558Y023357
X033558Y023357
X032558Y023357
X0351Y02755
X0367Y02725
X036721Y028151
X036721Y030151
X036721Y029151
X0377Y02725
X037721Y029151
X037721Y028151
X037721Y030151
X0401Y02735
X0393Y03235
X037721Y032151
X037721Y031151
X036721Y032151
X036721Y031151
X0347Y03145
X027Y03435
X0274Y03735
X0278Y03805
X0281Y03575
X0293Y03845
X0314Y03995
X0341Y03735
X0363Y03745
X04Y04275
X0345Y04325
X0341Y04065
X0336Y04405
X0332Y04455
X0292Y04515
X0285Y04235
X0274Y04085
X0247Y04475
X0261Y04685
X0274Y04795
X0279Y04655
X0284Y04695
X0289Y04595
X0294Y04635
X0297Y04575
X0302Y04645
X0312Y04645
X0316Y04575
X0322Y04655
X0325Y04745
X0329Y04655
X0333Y04795
X0339Y04675
X0341Y04595
X0355Y04595
X0361Y04655
X037Y04725
X0399Y04765
X0399Y04955
X0382Y04915
X0369Y04965
X0359Y04975
X0341Y05055
X0339Y04905
X0336Y04995
X0333Y04935
X0272Y04905
X0263Y04905
X0252Y05005
X0248Y04905
X0247Y04835
X0253Y05115
X0257Y05065
X0259Y05135
X0263Y05185
X0266Y05245
X0269Y05135
X0273Y05235
X0274Y05095
X0292Y05255
X03Y05245
X0307Y05235
X0323Y05175
X0329Y05255
X0334Y05115
X0336Y05215
X0344Y05215
X0349Y05065
X0359Y05085
X0359Y05175
X036Y05305
X0378Y05295
X04Y05525
X0391Y05505
X0384Y05445
X0368Y05445
X0368Y05535
X0356Y05385
X0346Y05415
X0341Y05455
X0336Y05315
X0327Y05545
X0319Y05465
X0312Y05425
X0279Y05415
X0274Y05375
X0258Y05505
X0257Y05625
X0266Y05715
X0271Y05795
X0281Y05705
X0289Y05765
X0293Y05635
X0299Y05785
X0305Y05635
X0305Y05565
X0307Y05785
X0319Y05635
X0327Y05635
X0335Y05765
X0341Y05565
X0342Y05635
X0346Y05765
X0349Y05595
X0354Y05765
X0362Y05735
X0368Y05615
X0379Y05685
X0379Y05805
X04Y05615
X0391Y06045
X0389Y05915
X0381Y05885
X0373Y05905
X0369Y05835
X0369Y05955
X0356Y05875
X0353Y05945
X0345Y05945
X0335Y05865
X0325Y05845
X0321Y05915
X0293Y05835
X0288Y05905
X0286Y05825
X0284Y05955
X027Y05935
X0263Y05885
X0261Y06045
X0257Y05815
X0255Y05905
X0252Y06055
X0254Y06255
X0266Y06155
X0271Y06115
X0271Y06215
X0284Y06145
X0284Y06065
X0284Y06255
X0292Y06205
X0296Y06115
X0342Y06215
X035Y06295
X0356Y06245
X0356Y06175
X0369Y06215
X0374Y06155
X0379Y06075
X0391Y06145
X0395Y06195
X0396Y06085
X0391Y06445
X0385Y06385
X0355Y06445
X0338Y06485
X0337Y06365
X0332Y06405
X0331Y06485
X0326Y06425
X0321Y06465
X0312Y06485
X0306Y06445
X03Y06355
X0296Y06485
X0295Y06415
X0286Y06395
X0269Y06485
X0267Y06375
X0262Y06415
X0262Y06485
X0257Y06315
X0273Y06615
X0287Y06665
X0296Y06685
X0313Y06615
X0328Y06615
X034Y06615
X0382Y06635
X0394Y06775
X0394Y06955
X0376Y07015
X0375Y06885
X0366Y06925
X0361Y06965
X0353Y06855
X0329Y06925
X0298Y06905
X0296Y06845
X0287Y06815
X0285Y06885
X0296Y07085
X0298Y07465
X0316Y07175
X0339Y07175
X0344Y07365
X0356Y07275
X0344Y07745
X0298Y07785
X0271Y07745
T3C.1875F035S1033
X032Y06125
M30
