*
*
G04 PADS VX.2.1 Build Number: 6554490 generated Gerber (RS-274-X) file*
G04 PC Version=2.1*
*
%IN "microp-revised-board.pc"*%
*
%MOIN*%
*
%FSLAX35Y35*%
*
*
*
*
G04 PC Standard Apertures*
*
*
G04 Thermal Relief Aperture macro.*
%AMTER*
1,1,$1,0,0*
1,0,$1-$2,0,0*
21,0,$3,$4,0,0,45*
21,0,$3,$4,0,0,135*
%
*
*
G04 Annular Aperture macro.*
%AMANN*
1,1,$1,0,0*
1,0,$2,0,0*
%
*
*
G04 Odd Aperture macro.*
%AMODD*
1,1,$1,0,0*
1,0,$1-0.005,0,0*
%
*
*
G04 PC Custom Aperture Macros*
*
*
*
*
*
*
G04 PC Aperture Table*
*
%ADD010C,0.001*%
%ADD011C,0.01*%
%ADD020C,0.06*%
%ADD029C,0.055*%
%ADD034C,0.015*%
*
*
*
*
G04 PC Circuitry*
G04 Layer Name microp-revised-board.pc - circuitry*
%LPD*%
*
*
G04 PC Custom Flashes*
G04 Layer Name microp-revised-board.pc - flashes*
%LPD*%
*
*
G04 PC Circuitry*
G04 Layer Name microp-revised-board.pc - circuitry*
%LPD*%
*
G54D10*
G54D11*
G01X410850Y206500D02*
G75*
G03X410850I-3850J0D01*
G01X417850Y213500D02*
G03X417850I-3850J0D01*
G01X396850Y323500D02*
G03X396850I-3850J0D01*
G01X402850Y476500D02*
G03X402850I-3850J0D01*
G01Y495500D02*
G03X402850I-3850J0D01*
G01X391600Y367500D02*
G03X391600I-4100J0D01*
G01Y380000D02*
G03X391600I-4100J0D01*
G01Y392500D02*
G03X391600I-4100J0D01*
G01Y422500D02*
G03X391600I-4100J0D01*
G01X390600Y439000D02*
G03X390600I-4100J0D01*
G01X380850Y272500D02*
G03X380850I-3850J0D01*
G01X381313Y291509D02*
G03X381313I-4100J0D01*
G01Y301509D02*
G03X381313I-4100J0D01*
G01Y311509D02*
G03X381313I-4100J0D01*
G01Y321509D02*
G03X381313I-4100J0D01*
G01X381600Y367500D02*
G03X381600I-4100J0D01*
G01Y380000D02*
G03X381600I-4100J0D01*
G01Y392500D02*
G03X381600I-4100J0D01*
G01Y422500D02*
G03X381600I-4100J0D01*
G01X380600Y439000D02*
G03X380600I-4100J0D01*
G01X385600Y451500D02*
G03X385600I-4100J0D01*
G01Y481500D02*
G03X385600I-4100J0D01*
G01X385850Y491500D02*
G03X385850I-3850J0D01*
G01X369683Y223572D02*
G03X369683I-4100J0D01*
G01Y233572D02*
G03X369683I-4100J0D01*
G01X359683Y223572D02*
G03X359683I-4100J0D01*
G01X370850Y272500D02*
G03X370850I-3850J0D01*
G01X371313Y281509D02*
G03X371313I-4100J0D01*
G01Y291509D02*
G03X371313I-4100J0D01*
G01Y301509D02*
G03X371313I-4100J0D01*
G01Y311509D02*
G03X371313I-4100J0D01*
G01Y321509D02*
G03X371313I-4100J0D01*
G01X371600Y367500D02*
G03X371600I-4100J0D01*
G01X349683Y223572D02*
G03X349683I-4100J0D01*
G01Y233572D02*
G03X349683I-4100J0D01*
G01X354850Y275500D02*
G03X354850I-3850J0D01*
G01X361600Y367500D02*
G03X361600I-4100J0D01*
G01X371600Y392500D02*
G03X371600I-4100J0D01*
G01Y422500D02*
G03X371600I-4100J0D01*
G01X370600Y439000D02*
G03X370600I-4100J0D01*
G01X375600Y451500D02*
G03X375600I-4100J0D01*
G01X373850Y472500D02*
G03X373850I-3850J0D01*
G01X375600Y481500D02*
G03X375600I-4100J0D01*
G01X381850Y529500D02*
G03X381850I-3850J0D01*
G01X387850Y544500D02*
G03X387850I-3850J0D01*
G01X394850Y550500D02*
G03X394850I-3850J0D01*
G01X392850Y591500D02*
G03X392850I-3850J0D01*
G01X382850Y568500D02*
G03X382850I-3850J0D01*
G01Y580500D02*
G03X382850I-3850J0D01*
G01X384850Y588500D02*
G03X384850I-3850J0D01*
G01X361600Y392500D02*
G03X361600I-4100J0D01*
G01Y422500D02*
G03X361600I-4100J0D01*
G01X360600Y439000D02*
G03X360600I-4100J0D01*
G01X365600Y451500D02*
G03X365600I-4100J0D01*
G01X350850Y314500D02*
G03X350850I-3850J0D01*
G01X351600Y367500D02*
G03X351600I-4100J0D01*
G01X339683Y223572D02*
G03X339683I-4100J0D01*
G01Y233572D02*
G03X339683I-4100J0D01*
G01X351600Y380000D02*
G03X351600I-4100J0D01*
G01Y392500D02*
G03X351600I-4100J0D01*
G01X341600D02*
G03X341600I-4100J0D01*
G01X344850Y406500D02*
G03X344850I-3850J0D01*
G01X351600Y422500D02*
G03X351600I-4100J0D01*
G01X341600D02*
G03X341600I-4100J0D01*
G01X355600Y451500D02*
G03X355600I-4100J0D01*
G01X358850Y459500D02*
G03X358850I-3850J0D01*
G01X364850Y465500D02*
G03X364850I-3850J0D01*
G01X365600Y481500D02*
G03X365600I-4100J0D01*
G01X372850Y496500D02*
G03X372850I-3850J0D01*
G01X371850Y544500D02*
G03X371850I-3850J0D01*
G01Y553500D02*
G03X371850I-3850J0D01*
G01Y561500D02*
G03X371850I-3850J0D01*
G01X355600Y481500D02*
G03X355600I-4100J0D01*
G01X362850Y497500D02*
G03X362850I-3850J0D01*
G01Y508500D02*
G03X362850I-3850J0D01*
G01Y517500D02*
G03X362850I-3850J0D01*
G01X363850Y530500D02*
G03X363850I-3850J0D01*
G01X352850Y506500D02*
G03X352850I-3850J0D01*
G01X359850Y538500D02*
G03X359850I-3850J0D01*
G01X365850Y573500D02*
G03X365850I-3850J0D01*
G01X372850Y583500D02*
G03X372850I-3850J0D01*
G01X382850Y607500D02*
G03X382850I-3850J0D01*
G01X388850Y638500D02*
G03X388850I-3850J0D01*
G01X394850Y644500D02*
G03X394850I-3850J0D01*
G01X397850Y677500D02*
G03X397850I-3850J0D01*
G01Y695500D02*
G03X397850I-3850J0D01*
G01X385850Y663500D02*
G03X385850I-3850J0D01*
G01X377850Y615500D02*
G03X377850I-3850J0D01*
G01X372850Y621500D02*
G03X372850I-3850J0D01*
G01X378850Y688500D02*
G03X378850I-3850J0D01*
G01X379850Y701500D02*
G03X379850I-3850J0D01*
G01X344850Y459500D02*
G03X344850I-3850J0D01*
G01X342850Y467500D02*
G03X342850I-3850J0D01*
G01X329683Y233572D02*
G03X329683I-4100J0D01*
G01X331600Y367500D02*
G03X331600I-4100J0D01*
G01Y380000D02*
G03X331600I-4100J0D01*
G01Y392500D02*
G03X331600I-4100J0D01*
G01Y422500D02*
G03X331600I-4100J0D01*
G01X321600Y367500D02*
G03X321600I-4100J0D01*
G01Y380000D02*
G03X321600I-4100J0D01*
G01X311600Y367500D02*
G03X311600I-4100J0D01*
G01Y380000D02*
G03X311600I-4100J0D01*
G01Y392500D02*
G03X311600I-4100J0D01*
G01X321600Y422500D02*
G03X321600I-4100J0D01*
G01X319850Y457500D02*
G03X319850I-3850J0D01*
G01X336850Y479500D02*
G03X336850I-3850J0D01*
G01X344850Y505500D02*
G03X344850I-3850J0D01*
G01X347850Y521500D02*
G03X347850I-3850J0D01*
G01X352850Y559500D02*
G03X352850I-3850J0D01*
G01X357850Y576500D02*
G03X357850I-3850J0D01*
G01X337850Y511500D02*
G03X337850I-3850J0D01*
G01X339850Y521500D02*
G03X339850I-3850J0D01*
G01X328850Y474500D02*
G03X328850I-3850J0D01*
G01X326850Y517500D02*
G03X326850I-3850J0D01*
G01X332850Y525500D02*
G03X332850I-3850J0D01*
G01X339850Y531500D02*
G03X339850I-3850J0D01*
G01X349850Y576500D02*
G03X349850I-3850J0D01*
G01X348850Y594500D02*
G03X348850I-3850J0D01*
G01X353850Y629500D02*
G03X353850I-3850J0D01*
G01X358850Y644500D02*
G03X358850I-3850J0D01*
G01X356850Y685500D02*
G03X356850I-3850J0D01*
G01X359850Y727500D02*
G03X359850I-3850J0D01*
G01X338850Y576500D02*
G03X338850I-3850J0D01*
G01Y586500D02*
G03X338850I-3850J0D01*
G01X345850Y621500D02*
G03X345850I-3850J0D01*
G01X330850Y554500D02*
G03X330850I-3850J0D01*
G01Y563500D02*
G03X330850I-3850J0D01*
G01X311600Y422500D02*
G03X311600I-4100J0D01*
G01X315850Y464500D02*
G03X315850I-3850J0D01*
G01X294850Y222500D02*
G03X294850I-3850J0D01*
G01X301600Y367500D02*
G03X301600I-4100J0D01*
G01Y392500D02*
G03X301600I-4100J0D01*
G01Y422500D02*
G03X301600I-4100J0D01*
G01X284850Y357500D02*
G03X284850I-3850J0D01*
G01X273850Y343500D02*
G03X273850I-3850J0D01*
G01X277850Y373500D02*
G03X277850I-3850J0D01*
G01X281850Y380500D02*
G03X281850I-3850J0D01*
G01X288850Y423500D02*
G03X288850I-3850J0D01*
G01X295850Y451500D02*
G03X295850I-3850J0D01*
G01X305850Y464500D02*
G03X305850I-3850J0D01*
G01X315850Y542500D02*
G03X315850I-3850J0D01*
G01X322850Y546500D02*
G03X322850I-3850J0D01*
G01Y563500D02*
G03X322850I-3850J0D01*
G01X328850Y584500D02*
G03X328850I-3850J0D01*
G01X324850Y591500D02*
G03X324850I-3850J0D01*
G01X310850Y578500D02*
G03X310850I-3850J0D01*
G01X333600Y612500D02*
G03X333600I-13600J0D01*
G01X343850Y661500D02*
G03X343850I-3850J0D01*
G01X342850Y717500D02*
G03X342850I-3850J0D01*
G01X347850Y736500D02*
G03X347850I-3850J0D01*
G01Y774500D02*
G03X347850I-3850J0D01*
G01X331850Y661500D02*
G03X331850I-3850J0D01*
G01X332850Y692500D02*
G03X332850I-3850J0D01*
G01X296600Y550217D02*
G03X296600I-4100J0D01*
G01X296850Y563500D02*
G03X296850I-3850J0D01*
G01X302850Y578500D02*
G03X302850I-3850J0D01*
G01X277850Y408500D02*
G03X277850I-3850J0D01*
G01X299850Y611500D02*
G03X299850I-3850J0D01*
G01X303850Y635500D02*
G03X303850I-3850J0D01*
G01X316850Y661500D02*
G03X316850I-3850J0D01*
G01X319850Y717500D02*
G03X319850I-3850J0D01*
G01X311600D02*
G03X311600I-4100J0D01*
G01Y735217D02*
G03X311600I-4100J0D01*
G01X277850Y479500D02*
G03X277850I-3850J0D01*
G01X275850Y490500D02*
G03X275850I-3850J0D01*
G01X264850Y468500D02*
G03X264850I-3850J0D01*
G01X266850Y490500D02*
G03X266850I-3850J0D01*
G01X244100Y207500D02*
G03X244100I-4100J0D01*
G01Y217500D02*
G03X244100I-4100J0D01*
G01Y227500D02*
G03X244100I-4100J0D01*
G01Y237500D02*
G03X244100I-4100J0D01*
G01Y247500D02*
G03X244100I-4100J0D01*
G01Y257500D02*
G03X244100I-4100J0D01*
G01Y267500D02*
G03X244100I-4100J0D01*
G01Y277500D02*
G03X244100I-4100J0D01*
G01Y287500D02*
G03X244100I-4100J0D01*
G01Y297500D02*
G03X244100I-4100J0D01*
G01Y307500D02*
G03X244100I-4100J0D01*
G01Y317500D02*
G03X244100I-4100J0D01*
G01Y327500D02*
G03X244100I-4100J0D01*
G01Y337500D02*
G03X244100I-4100J0D01*
G01Y347500D02*
G03X244100I-4100J0D01*
G01Y357500D02*
G03X244100I-4100J0D01*
G01Y367500D02*
G03X244100I-4100J0D01*
G01Y377500D02*
G03X244100I-4100J0D01*
G01Y387500D02*
G03X244100I-4100J0D01*
G01Y397500D02*
G03X244100I-4100J0D01*
G01Y407500D02*
G03X244100I-4100J0D01*
G01Y417500D02*
G03X244100I-4100J0D01*
G01Y427500D02*
G03X244100I-4100J0D01*
G01Y437500D02*
G03X244100I-4100J0D01*
G01Y457500D02*
G03X244100I-4100J0D01*
G01Y467500D02*
G03X244100I-4100J0D01*
G01Y477500D02*
G03X244100I-4100J0D01*
G01X255850Y500500D02*
G03X255850I-3850J0D01*
G01X271009Y532500D02*
G03X271009I-4100J0D01*
G01X284850Y570500D02*
G03X284850I-3850J0D01*
G01X295850Y620500D02*
G03X295850I-3850J0D01*
G01X299850Y668500D02*
G03X299850I-3850J0D01*
G01Y708500D02*
G03X299850I-3850J0D01*
G01X301850Y746500D02*
G03X301850I-3850J0D01*
G01Y778500D02*
G03X301850I-3850J0D01*
G01X287850Y606500D02*
G03X287850I-3850J0D01*
G01Y614500D02*
G03X287850I-3850J0D01*
G01Y625500D02*
G03X287850I-3850J0D01*
G01X289850Y639500D02*
G03X289850I-3850J0D01*
G01X290850Y666500D02*
G03X290850I-3850J0D01*
G01X286009Y717500D02*
G03X286009I-4100J0D01*
G01Y735217D02*
G03X286009I-4100J0D01*
G01X271009Y550217D02*
G03X271009I-4100J0D01*
G01X269850Y571500D02*
G03X269850I-3850J0D01*
G01X274850Y579500D02*
G03X274850I-3850J0D01*
G01X261850Y550500D02*
G03X261850I-3850J0D01*
G01X260850Y562500D02*
G03X260850I-3850J0D01*
G01Y581500D02*
G03X260850I-3850J0D01*
G01X266850Y588500D02*
G03X266850I-3850J0D01*
G01X273850Y593500D02*
G03X273850I-3850J0D01*
G01X258850Y590500D02*
G03X258850I-3850J0D01*
G01X264850Y604500D02*
G03X264850I-3850J0D01*
G01X274850Y621500D02*
G03X274850I-3850J0D01*
G01X276850Y661500D02*
G03X276850I-3850J0D01*
G01X274850Y774500D02*
G03X274850I-3850J0D01*
G01X255850Y605500D02*
G03X255850I-3850J0D01*
G01X244100Y487500D02*
G03X244100I-4100J0D01*
G01Y497500D02*
G03X244100I-4100J0D01*
G01Y507500D02*
G03X244100I-4100J0D01*
G01Y517500D02*
G03X244100I-4100J0D01*
G01Y527500D02*
G03X244100I-4100J0D01*
G01Y537500D02*
G03X244100I-4100J0D01*
G01Y547500D02*
G03X244100I-4100J0D01*
G01Y557500D02*
G03X244100I-4100J0D01*
G01Y567500D02*
G03X244100I-4100J0D01*
G01Y577500D02*
G03X244100I-4100J0D01*
G01Y587500D02*
G03X244100I-4100J0D01*
G01Y597500D02*
G03X244100I-4100J0D01*
G01Y607500D02*
G03X244100I-4100J0D01*
G01Y617500D02*
G03X244100I-4100J0D01*
G01Y627500D02*
G03X244100I-4100J0D01*
G01Y637500D02*
G03X244100I-4100J0D01*
G01Y647500D02*
G03X244100I-4100J0D01*
G01Y657500D02*
G03X244100I-4100J0D01*
G01Y667500D02*
G03X244100I-4100J0D01*
G01Y677500D02*
G03X244100I-4100J0D01*
G01Y687500D02*
G03X244100I-4100J0D01*
G01Y697500D02*
G03X244100I-4100J0D01*
G01Y707500D02*
G03X244100I-4100J0D01*
G01Y717500D02*
G03X244100I-4100J0D01*
G01Y727500D02*
G03X244100I-4100J0D01*
G01Y737500D02*
G03X244100I-4100J0D01*
G01Y747500D02*
G03X244100I-4100J0D01*
G01Y757500D02*
G03X244100I-4100J0D01*
G01Y767500D02*
G03X244100I-4100J0D01*
G01Y777500D02*
G03X244100I-4100J0D01*
G01X433400Y265900D02*
X403400D01*
Y270490*
Y276510D02*
G03Y270490I-2400J-3010D01*
G01Y276510D02*
Y425694D01*
Y429306D02*
G03Y425694I-3400J-1806D01*
G01Y429306D02*
Y550694D01*
Y554306D02*
G03Y550694I-3400J-1806D01*
G01Y554306D02*
Y559694D01*
Y563306D02*
G03Y559694I-3400J-1806D01*
G01Y563306D02*
Y790900D01*
X234100*
Y201600*
X433400*
Y238400*
X417349*
X410651D02*
G03X417349I3349J-1900D01*
G01X410651D02*
X403400D01*
Y251600*
X433400*
Y265900*
X410850Y206500D02*
G03X410850I-3850J0D01*
G01X417850Y213500D02*
G03X417850I-3850J0D01*
G01X396850Y323500D02*
G03X396850I-3850J0D01*
G01X402850Y476500D02*
G03X402850I-3850J0D01*
G01Y495500D02*
G03X402850I-3850J0D01*
G01X391600Y367500D02*
G03X391600I-4100J0D01*
G01Y380000D02*
G03X391600I-4100J0D01*
G01Y392500D02*
G03X391600I-4100J0D01*
G01Y422500D02*
G03X391600I-4100J0D01*
G01X390600Y439000D02*
G03X390600I-4100J0D01*
G01X380850Y272500D02*
G03X380850I-3850J0D01*
G01X381313Y285109D02*
Y277909D01*
X380813Y277409D02*
G03X381313Y277909I0J500D01*
G01X380813Y277409D02*
X373613D01*
X373113Y277909D02*
G03X373613Y277409I500J-0D01*
G01X373113Y277909D02*
Y285109D01*
X373613Y285609D02*
G03X373113Y285109I0J-500D01*
G01X373613Y285609D02*
X380813D01*
X381313Y285109D02*
G03X380813Y285609I-500J-0D01*
G01X381313Y291509D02*
G03X381313I-4100J0D01*
G01Y301509D02*
G03X381313I-4100J0D01*
G01Y311509D02*
G03X381313I-4100J0D01*
G01Y321509D02*
G03X381313I-4100J0D01*
G01X381600Y367500D02*
G03X381600I-4100J0D01*
G01Y380000D02*
G03X381600I-4100J0D01*
G01Y392500D02*
G03X381600I-4100J0D01*
G01Y422500D02*
G03X381600I-4100J0D01*
G01X380600Y439000D02*
G03X380600I-4100J0D01*
G01X385600Y451500D02*
G03X385600I-4100J0D01*
G01Y481500D02*
G03X385600I-4100J0D01*
G01X385850Y491500D02*
G03X385850I-3850J0D01*
G01X369683Y223572D02*
G03X369683I-4100J0D01*
G01Y233572D02*
G03X369683I-4100J0D01*
G01X359683Y223572D02*
G03X359683I-4100J0D01*
G01X356700Y237517D02*
G03X359043Y235771I-1117J-3945D01*
X356700Y237517I957J3729*
G01X370850Y272500D02*
G03X370850I-3850J0D01*
G01X371313Y281509D02*
G03X371313I-4100J0D01*
G01Y291509D02*
G03X371313I-4100J0D01*
G01Y301509D02*
G03X371313I-4100J0D01*
G01Y311509D02*
G03X371313I-4100J0D01*
G01Y321509D02*
G03X371313I-4100J0D01*
G01X371600Y367500D02*
G03X371600I-4100J0D01*
G01X349683Y223572D02*
G03X349683I-4100J0D01*
G01Y233572D02*
G03X349683I-4100J0D01*
G01X354850Y275500D02*
G03X354850I-3850J0D01*
G01X361600Y367500D02*
G03X361600I-4100J0D01*
G01X359759Y376579D02*
G03X366540Y376014I3241J-2079D01*
G01X360921Y377741D02*
G03X359759Y376579I-3421J2259D01*
G01X363783Y378270D02*
G03X360921Y377741I-783J-3770D01*
G01X366540Y376014D02*
G03X363783Y378270I960J3986D01*
G01X371600Y392500D02*
G03X371600I-4100J0D01*
G01Y422500D02*
G03X371600I-4100J0D01*
G01X370600Y439000D02*
G03X370600I-4100J0D01*
G01X375600Y451500D02*
G03X375600I-4100J0D01*
G01X373850Y472500D02*
G03X373850I-3850J0D01*
G01X375600Y481500D02*
G03X375600I-4100J0D01*
G01X381850Y529500D02*
G03X381850I-3850J0D01*
G01X387850Y544500D02*
G03X387850I-3850J0D01*
G01X394850Y550500D02*
G03X394850I-3850J0D01*
G01X392850Y591500D02*
G03X392850I-3850J0D01*
G01X392164Y608170D02*
G03X394836Y604830I-1164J-3670D01*
X392164Y608170I1164J3670*
G01X391330Y618336D02*
G03X394670Y615664I-330J-3836D01*
X391330Y618336I330J3836*
G01X382850Y568500D02*
G03X382850I-3850J0D01*
G01Y580500D02*
G03X382850I-3850J0D01*
G01X384850Y588500D02*
G03X384850I-3850J0D01*
G01X361600Y392500D02*
G03X361600I-4100J0D01*
G01Y422500D02*
G03X361600I-4100J0D01*
G01X360600Y439000D02*
G03X360600I-4100J0D01*
G01X365600Y451500D02*
G03X365600I-4100J0D01*
G01X350850Y314500D02*
G03X350850I-3850J0D01*
G01X351600Y367500D02*
G03X351600I-4100J0D01*
G01X339683Y223572D02*
G03X339683I-4100J0D01*
G01Y233572D02*
G03X339683I-4100J0D01*
G01X337653Y371597D02*
G03X340991Y369650I-153J-4097D01*
G01X338016Y375933D02*
G03X337653Y371597I2984J-2433D01*
G01X340612Y377330D02*
G03X338016Y375933I-3112J2670D01*
G01X340991Y369650D02*
G03X340612Y377330I9J3850D01*
G01X351600Y380000D02*
G03X351600I-4100J0D01*
G01Y392500D02*
G03X351600I-4100J0D01*
G01X341600D02*
G03X341600I-4100J0D01*
G01X344850Y406500D02*
G03X344850I-3850J0D01*
G01X351600Y422500D02*
G03X351600I-4100J0D01*
G01X341600D02*
G03X341600I-4100J0D01*
G01X343611Y436091D02*
G03X347822Y435119I1389J-3591D01*
X343611Y436091I-1322J3881*
G01X355600Y451500D02*
G03X355600I-4100J0D01*
G01X358850Y459500D02*
G03X358850I-3850J0D01*
G01X364850Y465500D02*
G03X364850I-3850J0D01*
G01X365600Y481500D02*
G03X365600I-4100J0D01*
G01X372850Y496500D02*
G03X372850I-3850J0D01*
G01X371850Y544500D02*
G03X371850I-3850J0D01*
G01Y553500D02*
G03X371850I-3850J0D01*
G01Y561500D02*
G03X371850I-3850J0D01*
G01X355600Y481500D02*
G03X355600I-4100J0D01*
G01X362850Y497500D02*
G03X362850I-3850J0D01*
G01Y508500D02*
G03X362850I-3850J0D01*
G01Y517500D02*
G03X362850I-3850J0D01*
G01X363850Y530500D02*
G03X363850I-3850J0D01*
G01X352850Y506500D02*
G03X352850I-3850J0D01*
G01X359850Y538500D02*
G03X359850I-3850J0D01*
G01X365850Y573500D02*
G03X365850I-3850J0D01*
G01X372850Y583500D02*
G03X372850I-3850J0D01*
G01X372670Y594336D02*
G03X369330Y591664I-3670J1164D01*
X372670Y594336I3670J-1164*
G01X382850Y607500D02*
G03X382850I-3850J0D01*
G01X388850Y638500D02*
G03X388850I-3850J0D01*
G01X394850Y644500D02*
G03X394850I-3850J0D01*
G01X397850Y677500D02*
G03X397850I-3850J0D01*
G01Y695500D02*
G03X397850I-3850J0D01*
G01X385850Y663500D02*
G03X385850I-3850J0D01*
G01X377850Y615500D02*
G03X377850I-3850J0D01*
G01X372850Y621500D02*
G03X372850I-3850J0D01*
G01X378850Y688500D02*
G03X378850I-3850J0D01*
G01X379850Y701500D02*
G03X379850I-3850J0D01*
G01X364836Y696170D02*
G03X362164Y692830I-3836J330D01*
X364836Y696170I3836J-330*
G01X335670Y444336D02*
G03X332330Y441664I-3670J1164D01*
X335670Y444336I3670J-1164*
G01X344850Y459500D02*
G03X344850I-3850J0D01*
G01X342850Y467500D02*
G03X342850I-3850J0D01*
G01X329683Y227172D02*
Y219972D01*
X329183Y219472D02*
G03X329683Y219972I-0J500D01*
G01X329183Y219472D02*
X321983D01*
X321483Y219972D02*
G03X321983Y219472I500J0D01*
G01X321483Y219972D02*
Y227172D01*
X321983Y227672D02*
G03X321483Y227172I-0J-500D01*
G01X321983Y227672D02*
X329183D01*
X329683Y227172D02*
G03X329183Y227672I-500J0D01*
G01X329683Y233572D02*
G03X329683I-4100J0D01*
G01X331600Y367500D02*
G03X331600I-4100J0D01*
G01Y380000D02*
G03X331600I-4100J0D01*
G01Y392500D02*
G03X331600I-4100J0D01*
G01Y422500D02*
G03X331600I-4100J0D01*
G01X321600Y367500D02*
G03X321600I-4100J0D01*
G01Y380000D02*
G03X321600I-4100J0D01*
G01X316318Y396426D02*
G03X315069Y395801I-2318J3074D01*
X316318Y396426I2431J-3301*
G01X311600Y367500D02*
G03X311600I-4100J0D01*
G01Y380000D02*
G03X311600I-4100J0D01*
G01Y392500D02*
G03X311600I-4100J0D01*
G01X321600Y422500D02*
G03X321600I-4100J0D01*
G01X319850Y457500D02*
G03X319850I-3850J0D01*
G01X325500Y467104D02*
G03Y463896I-3500J-1604D01*
Y467104I3500J1604*
G01X336850Y479500D02*
G03X336850I-3850J0D01*
G01X332809Y497345D02*
G03X335155Y490309I191J-3845D01*
G01X336191Y495655D02*
G03X332809Y497345I-191J3845D01*
G01X336845Y493691D02*
G03X336191Y495655I-3845J-191D01*
G01X335155Y490309D02*
G03X336845Y493691I3845J191D01*
G01X344850Y505500D02*
G03X344850I-3850J0D01*
G01X347850Y521500D02*
G03X347850I-3850J0D01*
G01X344836Y545170D02*
G03X342164Y541830I-3836J330D01*
X344836Y545170I3836J-330*
G01X352850Y559500D02*
G03X352850I-3850J0D01*
G01X357850Y576500D02*
G03X357850I-3850J0D01*
G01X355022Y591224D02*
G03X353978Y590776I-2022J3276D01*
X355022Y591224I2022J-3276*
G01X337850Y511500D02*
G03X337850I-3850J0D01*
G01X339850Y521500D02*
G03X339850I-3850J0D01*
G01X328850Y474500D02*
G03X328850I-3850J0D01*
G01X326850Y517500D02*
G03X326850I-3850J0D01*
G01X332850Y525500D02*
G03X332850I-3850J0D01*
G01X339850Y531500D02*
G03X339850I-3850J0D01*
G01X339991Y560216D02*
G03X343009Y559784I1009J-3716D01*
X339991Y560216I-1009J3716*
G01X349850Y576500D02*
G03X349850I-3850J0D01*
G01X354396Y621000D02*
G03X357604I1604J-3500D01*
X354396I-1604J3500*
G01X348850Y594500D02*
G03X348850I-3850J0D01*
G01X353850Y629500D02*
G03X353850I-3850J0D01*
G01X358850Y644500D02*
G03X358850I-3850J0D01*
G01X356850Y685500D02*
G03X356850I-3850J0D01*
G01X359850Y727500D02*
G03X359850I-3850J0D01*
G01X338850Y576500D02*
G03X338850I-3850J0D01*
G01Y586500D02*
G03X338850I-3850J0D01*
G01X345850Y621500D02*
G03X345850I-3850J0D01*
G01X330850Y554500D02*
G03X330850I-3850J0D01*
G01Y563500D02*
G03X330850I-3850J0D01*
G01X311600Y422500D02*
G03X311600I-4100J0D01*
G01X315850Y464500D02*
G03X315850I-3850J0D01*
G01X294850Y222500D02*
G03X294850I-3850J0D01*
G01X301600Y367500D02*
G03X301600I-4100J0D01*
G01X296823Y384044D02*
G03X293456Y380677I-3823J456D01*
X296823Y384044I4044J-677*
G01X301600Y392500D02*
G03X301600I-4100J0D01*
G01Y422500D02*
G03X301600I-4100J0D01*
G01X284850Y357500D02*
G03X284850I-3850J0D01*
G01X273850Y343500D02*
G03X273850I-3850J0D01*
G01X277850Y373500D02*
G03X277850I-3850J0D01*
G01X281850Y380500D02*
G03X281850I-3850J0D01*
G01X288850Y423500D02*
G03X288850I-3850J0D01*
G01X295850Y451500D02*
G03X295850I-3850J0D01*
G01X292836Y459830D02*
G03X293809Y459655I1164J3670D01*
G01X290164Y463170D02*
G03X292836Y459830I-1164J-3670D01*
G01X297191Y461345D02*
G03X290164Y463170I-3191J2155D01*
G01X293809Y459655D02*
G03X297191Y461345I3191J-2155D01*
G01X305850Y464500D02*
G03X305850I-3850J0D01*
G01X303716Y525509D02*
G03X303284Y522491I-3716J-1009D01*
X303716Y525509I3716J1009*
G01X315850Y542500D02*
G03X315850I-3850J0D01*
G01X322850Y546500D02*
G03X322850I-3850J0D01*
G01Y563500D02*
G03X322850I-3850J0D01*
G01X328850Y584500D02*
G03X328850I-3850J0D01*
G01X324850Y591500D02*
G03X324850I-3850J0D01*
G01X303396Y560000D02*
G03X306604I1604J-3500D01*
X303396I-1604J3500*
G01X310850Y578500D02*
G03X310850I-3850J0D01*
G01X333600Y612500D02*
G03X333600I-13600J0D01*
G01X328306Y639417D02*
G03X333164Y636830I3694J1083D01*
G01X322164Y642830D02*
G03X328306Y639417I3836J-330D01*
G01X324836Y646170D02*
G03X322164Y642830I-3836J330D01*
G01X329694Y643583D02*
G03X324836Y646170I-3694J-1083D01*
G01X335836Y640170D02*
G03X329694Y643583I-3836J330D01*
G01X333164Y636830D02*
G03X335836Y640170I3836J-330D01*
G01X334500Y650104D02*
G03Y646896I-3500J-1604D01*
Y650104I3500J1604*
G01X343850Y661500D02*
G03X343850I-3850J0D01*
G01X342850Y717500D02*
G03X342850I-3850J0D01*
G01X347850Y736500D02*
G03X347850I-3850J0D01*
G01Y774500D02*
G03X347850I-3850J0D01*
G01X331850Y661500D02*
G03X331850I-3850J0D01*
G01X332850Y692500D02*
G03X332850I-3850J0D01*
G01X290378Y528992D02*
G03X294102Y528726I1622J-3492D01*
X290378Y528992I-1602J3774*
G01X296600Y550217D02*
G03X296600I-4100J0D01*
G01X296850Y563500D02*
G03X296850I-3850J0D01*
G01X302850Y578500D02*
G03X302850I-3850J0D01*
G01X277850Y408500D02*
G03X277850I-3850J0D01*
G01X280164Y469170D02*
G03X282836Y465830I-1164J-3670D01*
X280164Y469170I1164J3670*
G01X289191Y580345D02*
G03X289716Y581491I-3191J2155D01*
G01X285809Y578655D02*
G03X289191Y580345I3191J-2155D01*
G01X289284Y584509D02*
G03X285809Y578655I-3284J-2009D01*
G01X289716Y581491D02*
G03X289284Y584509I3284J2009D01*
G01X299850Y611500D02*
G03X299850I-3850J0D01*
G01X303850Y635500D02*
G03X303850I-3850J0D01*
G01X308251Y647623D02*
G03X309749Y645377I-2251J-3123D01*
X308251Y647623I2251J3123*
G01X316850Y661500D02*
G03X316850I-3850J0D01*
G01X319850Y717500D02*
G03X319850I-3850J0D01*
G01X311600D02*
G03X311600I-4100J0D01*
G01Y735217D02*
G03X311600I-4100J0D01*
G01X277850Y479500D02*
G03X277850I-3850J0D01*
G01X275850Y490500D02*
G03X275850I-3850J0D01*
G01X272836Y513170D02*
G03X270164Y509830I-3836J330D01*
X272836Y513170I3836J-330*
G01X264850Y468500D02*
G03X264850I-3850J0D01*
G01X266850Y490500D02*
G03X266850I-3850J0D01*
G01X244100Y207500D02*
G03X244100I-4100J0D01*
G01Y217500D02*
G03X244100I-4100J0D01*
G01Y227500D02*
G03X244100I-4100J0D01*
G01Y237500D02*
G03X244100I-4100J0D01*
G01Y247500D02*
G03X244100I-4100J0D01*
G01Y257500D02*
G03X244100I-4100J0D01*
G01Y267500D02*
G03X244100I-4100J0D01*
G01Y277500D02*
G03X244100I-4100J0D01*
G01Y287500D02*
G03X244100I-4100J0D01*
G01Y297500D02*
G03X244100I-4100J0D01*
G01Y307500D02*
G03X244100I-4100J0D01*
G01Y317500D02*
G03X244100I-4100J0D01*
G01Y327500D02*
G03X244100I-4100J0D01*
G01Y337500D02*
G03X244100I-4100J0D01*
G01Y347500D02*
G03X244100I-4100J0D01*
G01Y357500D02*
G03X244100I-4100J0D01*
G01Y367500D02*
G03X244100I-4100J0D01*
G01Y377500D02*
G03X244100I-4100J0D01*
G01Y387500D02*
G03X244100I-4100J0D01*
G01Y397500D02*
G03X244100I-4100J0D01*
G01Y407500D02*
G03X244100I-4100J0D01*
G01Y417500D02*
G03X244100I-4100J0D01*
G01Y427500D02*
G03X244100I-4100J0D01*
G01Y437500D02*
G03X244100I-4100J0D01*
G01X243642Y449383D02*
G03Y445617I-3642J-1883D01*
Y449383I3358J1883*
G01X244100Y457500D02*
G03X244100I-4100J0D01*
G01Y467500D02*
G03X244100I-4100J0D01*
G01Y477500D02*
G03X244100I-4100J0D01*
G01X245991Y487216D02*
G03X249009Y486784I1009J-3716D01*
X245991Y487216I-1009J3716*
G01X255850Y500500D02*
G03X255850I-3850J0D01*
G01X266191Y520655D02*
G03X269284Y522491I-191J3845D01*
G01X262670Y514664D02*
G03X266191Y520655I330J3836D01*
G01X259206Y509655D02*
G03X262670Y514664I-206J3845D01*
G01X253330Y507664D02*
G03X259206Y509655I3670J-1164D01*
G01X255306Y514583D02*
G03X253330Y507664I-2306J-3083D01*
G01X259330Y517336D02*
G03X255306Y514583I-330J-3836D01*
G01X262809Y522345D02*
G03X259330Y517336I191J-3845D01*
G01X269716Y525509D02*
G03X262809Y522345I-3716J-1009D01*
G01X269284Y522491D02*
G03X269716Y525509I3716J1009D01*
G01X271009Y532500D02*
G03X271009I-4100J0D01*
G01X275164Y541170D02*
G03X277836Y537830I-1164J-3670D01*
X275164Y541170I1164J3670*
G01X284850Y570500D02*
G03X284850I-3850J0D01*
G01X287670Y594336D02*
G03X284330Y591664I-3670J1164D01*
X287670Y594336I3670J-1164*
G01X295850Y620500D02*
G03X295850I-3850J0D01*
G01X293991Y645216D02*
G03X297009Y644784I1009J-3716D01*
X293991Y645216I-1009J3716*
G01X299850Y668500D02*
G03X299850I-3850J0D01*
G01X294917Y688194D02*
G03X299083Y686806I1083J-3694D01*
X294917Y688194I-1083J3694*
G01X299850Y708500D02*
G03X299850I-3850J0D01*
G01X301850Y746500D02*
G03X301850I-3850J0D01*
G01Y778500D02*
G03X301850I-3850J0D01*
G01X287850Y606500D02*
G03X287850I-3850J0D01*
G01Y614500D02*
G03X287850I-3850J0D01*
G01Y625500D02*
G03X287850I-3850J0D01*
G01X289850Y639500D02*
G03X289850I-3850J0D01*
G01X290850Y666500D02*
G03X290850I-3850J0D01*
G01X287206Y685345D02*
G03X284794Y684655I-2206J3155D01*
X287206Y685345I2206J-3155*
G01X286009Y717500D02*
G03X286009I-4100J0D01*
G01Y735217D02*
G03X286009I-4100J0D01*
G01X271009Y550217D02*
G03X271009I-4100J0D01*
G01X269850Y571500D02*
G03X269850I-3850J0D01*
G01X274850Y579500D02*
G03X274850I-3850J0D01*
G01X261850Y550500D02*
G03X261850I-3850J0D01*
G01X260850Y562500D02*
G03X260850I-3850J0D01*
G01Y581500D02*
G03X260850I-3850J0D01*
G01X266850Y588500D02*
G03X266850I-3850J0D01*
G01X273850Y593500D02*
G03X273850I-3850J0D01*
G01X269836Y615170D02*
G03X267164Y611830I-3836J330D01*
X269836Y615170I3836J-330*
G01X258850Y590500D02*
G03X258850I-3850J0D01*
G01X264850Y604500D02*
G03X264850I-3850J0D01*
G01X274850Y621500D02*
G03X274850I-3850J0D01*
G01X263604Y645000D02*
G03X265500Y646896I-1604J3500D01*
G01X265836Y641170D02*
G03X263604Y645000I-3836J330D01*
G01X263164Y637830D02*
G03X265836Y641170I3836J-330D01*
G01X260396Y645000D02*
G03X263164Y637830I1604J-3500D01*
G01X265500Y650104D02*
G03X260396Y645000I-3500J-1604D01*
G01X265500Y646896D02*
G03Y650104I3500J1604D01*
G01X276850Y661500D02*
G03X276850I-3850J0D01*
G01X274850Y774500D02*
G03X274850I-3850J0D01*
G01X255850Y605500D02*
G03X255850I-3850J0D01*
G01X253809Y629345D02*
G03X257191Y627655I191J-3845D01*
X253809Y629345I-191J3845*
G01X244100Y487500D02*
G03X244100I-4100J0D01*
G01Y497500D02*
G03X244100I-4100J0D01*
G01Y507500D02*
G03X244100I-4100J0D01*
G01Y517500D02*
G03X244100I-4100J0D01*
G01Y527500D02*
G03X244100I-4100J0D01*
G01Y537500D02*
G03X244100I-4100J0D01*
G01Y547500D02*
G03X244100I-4100J0D01*
G01Y557500D02*
G03X244100I-4100J0D01*
G01Y567500D02*
G03X244100I-4100J0D01*
G01Y577500D02*
G03X244100I-4100J0D01*
G01Y587500D02*
G03X244100I-4100J0D01*
G01Y597500D02*
G03X244100I-4100J0D01*
G01Y607500D02*
G03X244100I-4100J0D01*
G01Y617500D02*
G03X244100I-4100J0D01*
G01Y627500D02*
G03X244100I-4100J0D01*
G01Y637500D02*
G03X244100I-4100J0D01*
G01Y647500D02*
G03X244100I-4100J0D01*
G01Y657500D02*
G03X244100I-4100J0D01*
G01Y667500D02*
G03X244100I-4100J0D01*
G01Y677500D02*
G03X244100I-4100J0D01*
G01Y687500D02*
G03X244100I-4100J0D01*
G01Y697500D02*
G03X244100I-4100J0D01*
G01Y707500D02*
G03X244100I-4100J0D01*
G01Y717500D02*
G03X244100I-4100J0D01*
G01Y727500D02*
G03X244100I-4100J0D01*
G01Y737500D02*
G03X244100I-4100J0D01*
G01Y747500D02*
G03X244100I-4100J0D01*
G01Y757500D02*
G03X244100I-4100J0D01*
G01Y767500D02*
G03X244100I-4100J0D01*
G01Y777500D02*
G03X244100I-4100J0D01*
G01X243578Y265499D02*
X433400D01*
X242897Y264599D02*
X433400D01*
X241536Y263699D02*
X433400D01*
X234100Y262799D02*
X433400D01*
X234100Y261899D02*
X433400D01*
X242138Y260999D02*
X433400D01*
X243171Y260099D02*
X433400D01*
X243732Y259199D02*
X433400D01*
X244021Y258299D02*
X433400D01*
X244099Y257399D02*
X433400D01*
X243976Y256499D02*
X433400D01*
X243633Y255599D02*
X433400D01*
X242994Y254699D02*
X433400D01*
X241764Y253799D02*
X433400D01*
X234100Y252899D02*
X433400D01*
X234100Y251999D02*
X433400D01*
X417690Y237599D02*
X433400D01*
X417845Y236699D02*
X433400D01*
X417786Y235799D02*
X433400D01*
X417501Y234899D02*
X433400D01*
X416927Y233999D02*
X433400D01*
X415804Y233099D02*
X433400D01*
X369446Y232199D02*
X433400D01*
X368994Y231299D02*
X433400D01*
X368178Y230399D02*
X433400D01*
X366047Y229499D02*
X433400D01*
X243950Y228599D02*
X433400D01*
X244095Y227699D02*
X433400D01*
X368113Y226799D02*
X433400D01*
X368959Y225899D02*
X433400D01*
X369427Y224999D02*
X433400D01*
X369649Y224099D02*
X433400D01*
X369666Y223199D02*
X433400D01*
X369480Y222299D02*
X433400D01*
X369059Y221399D02*
X433400D01*
X368296Y220499D02*
X433400D01*
X366593Y219599D02*
X433400D01*
X291610Y218699D02*
X433400D01*
X244089Y217799D02*
X433400D01*
X415809Y216899D02*
X433400D01*
X416929Y215999D02*
X433400D01*
X417502Y215099D02*
X433400D01*
X417786Y214199D02*
X433400D01*
X417845Y213299D02*
X433400D01*
X417689Y212399D02*
X433400D01*
X417289Y211499D02*
X433400D01*
X416531Y210599D02*
X433400D01*
X414610Y209699D02*
X433400D01*
X410088Y208799D02*
X433400D01*
X410587Y207899D02*
X433400D01*
X410818Y206999D02*
X433400D01*
X410829Y206099D02*
X433400D01*
X410623Y205199D02*
X433400D01*
X410159Y204299D02*
X433400D01*
X409281Y203399D02*
X433400D01*
X234100Y202499D02*
X433400D01*
X409143Y209699D02*
X413390D01*
X369655Y233099D02*
X412196D01*
X244056Y216899D02*
X412191D01*
X242685Y210599D02*
X411469D01*
X369660Y233999D02*
X411073D01*
X243815Y215999D02*
X411071D01*
X240906Y211499D02*
X410711D01*
X369462Y234899D02*
X410499D01*
X243323Y215099D02*
X410498D01*
X234100Y212399D02*
X410311D01*
X366356Y237599D02*
X410310D01*
X369025Y235799D02*
X410214D01*
X242431Y214199D02*
X410214D01*
X234100Y213299D02*
X410155D01*
X368235Y236699D02*
X410155D01*
X243461Y209699D02*
X404857D01*
X234100Y203399D02*
X404719D01*
X243889Y208799D02*
X403912D01*
X242562Y204299D02*
X403841D01*
X244081Y207899D02*
X403413D01*
X234100Y790199D02*
X403400D01*
X234100Y789299D02*
X403400D01*
X234100Y788399D02*
X403400D01*
X234100Y787499D02*
X403400D01*
X234100Y786599D02*
X403400D01*
X234100Y785699D02*
X403400D01*
X234100Y784799D02*
X403400D01*
X234100Y783899D02*
X403400D01*
X234100Y782999D02*
X403400D01*
X299368Y782099D02*
X403400D01*
X300746Y781199D02*
X403400D01*
X301404Y780299D02*
X403400D01*
X301744Y779399D02*
X403400D01*
X301850Y778499D02*
X403400D01*
X346285Y777599D02*
X403400D01*
X347160Y776699D02*
X403400D01*
X347624Y775799D02*
X403400D01*
X347829Y774899D02*
X403400D01*
X347817Y773999D02*
X403400D01*
X347586Y773099D02*
X403400D01*
X347087Y772199D02*
X403400D01*
X346139Y771299D02*
X403400D01*
X242900Y770399D02*
X403400D01*
X243580Y769499D02*
X403400D01*
X243950Y768599D02*
X403400D01*
X244095Y767699D02*
X403400D01*
X244040Y766799D02*
X403400D01*
X243774Y765899D02*
X403400D01*
X243249Y764999D02*
X403400D01*
X242289Y764099D02*
X403400D01*
X234100Y763199D02*
X403400D01*
X234100Y762299D02*
X403400D01*
X241269Y761399D02*
X403400D01*
X242796Y760499D02*
X403400D01*
X243522Y759599D02*
X403400D01*
X243921Y758699D02*
X403400D01*
X244089Y757799D02*
X403400D01*
X244056Y756899D02*
X403400D01*
X243815Y755999D02*
X403400D01*
X243323Y755099D02*
X403400D01*
X242431Y754199D02*
X403400D01*
X234100Y753299D02*
X403400D01*
X234100Y752399D02*
X403400D01*
X240906Y751499D02*
X403400D01*
X242685Y750599D02*
X403400D01*
X300143Y749699D02*
X403400D01*
X301088Y748799D02*
X403400D01*
X301587Y747899D02*
X403400D01*
X301818Y746999D02*
X403400D01*
X301829Y746099D02*
X403400D01*
X301623Y745199D02*
X403400D01*
X301159Y744299D02*
X403400D01*
X300281Y743399D02*
X403400D01*
X234100Y742499D02*
X403400D01*
X240105Y741599D02*
X403400D01*
X242565Y740699D02*
X403400D01*
X345985Y739799D02*
X403400D01*
X347011Y738899D02*
X403400D01*
X347546Y737999D02*
X403400D01*
X347803Y737099D02*
X403400D01*
X347838Y736199D02*
X403400D01*
X347658Y735299D02*
X403400D01*
X347226Y734399D02*
X403400D01*
X346411Y733499D02*
X403400D01*
X310655Y732599D02*
X403400D01*
X309606Y731699D02*
X403400D01*
X357985Y730799D02*
X403400D01*
X359011Y729899D02*
X403400D01*
X359546Y728999D02*
X403400D01*
X359803Y728099D02*
X403400D01*
X359838Y727199D02*
X403400D01*
X359658Y726299D02*
X403400D01*
X359226Y725399D02*
X403400D01*
X358411Y724499D02*
X403400D01*
X241261Y723599D02*
X403400D01*
X234100Y722699D02*
X403400D01*
X234100Y721799D02*
X403400D01*
X340809Y720899D02*
X403400D01*
X341929Y719999D02*
X403400D01*
X342502Y719099D02*
X403400D01*
X342786Y718199D02*
X403400D01*
X342845Y717299D02*
X403400D01*
X342689Y716399D02*
X403400D01*
X342289Y715499D02*
X403400D01*
X341531Y714599D02*
X403400D01*
X339610Y713699D02*
X403400D01*
X234100Y712799D02*
X403400D01*
X297809Y711899D02*
X403400D01*
X298929Y710999D02*
X403400D01*
X299502Y710099D02*
X403400D01*
X299786Y709199D02*
X403400D01*
X299845Y708299D02*
X403400D01*
X299689Y707399D02*
X403400D01*
X299289Y706499D02*
X403400D01*
X298531Y705599D02*
X403400D01*
X378143Y704699D02*
X403400D01*
X379088Y703799D02*
X403400D01*
X379587Y702899D02*
X403400D01*
X379818Y701999D02*
X403400D01*
X379829Y701099D02*
X403400D01*
X379623Y700199D02*
X403400D01*
X394627Y699299D02*
X403400D01*
X396534Y698399D02*
X403400D01*
X397291Y697499D02*
X403400D01*
X397690Y696599D02*
X403400D01*
X397845Y695699D02*
X403400D01*
X397786Y694799D02*
X403400D01*
X397501Y693899D02*
X403400D01*
X396927Y692999D02*
X403400D01*
X395804Y692099D02*
X403400D01*
X377746Y691199D02*
X403400D01*
X378404Y690299D02*
X403400D01*
X378744Y689399D02*
X403400D01*
X378850Y688499D02*
X403400D01*
X378743Y687599D02*
X403400D01*
X378403Y686699D02*
X403400D01*
X377743Y685799D02*
X403400D01*
X376361Y684899D02*
X403400D01*
X356545Y683999D02*
X403400D01*
X356009Y683099D02*
X403400D01*
X354981Y682199D02*
X403400D01*
X394627Y681299D02*
X403400D01*
X396534Y680399D02*
X403400D01*
X397291Y679499D02*
X403400D01*
X397690Y678599D02*
X403400D01*
X397845Y677699D02*
X403400D01*
X397786Y676799D02*
X403400D01*
X397501Y675899D02*
X403400D01*
X396927Y674999D02*
X403400D01*
X395804Y674099D02*
X403400D01*
X234100Y673199D02*
X403400D01*
X296627Y672299D02*
X403400D01*
X298534Y671399D02*
X403400D01*
X299291Y670499D02*
X403400D01*
X299690Y669599D02*
X403400D01*
X299845Y668699D02*
X403400D01*
X299786Y667799D02*
X403400D01*
X383809Y666899D02*
X403400D01*
X384929Y665999D02*
X403400D01*
X385502Y665099D02*
X403400D01*
X385786Y664199D02*
X403400D01*
X385845Y663299D02*
X403400D01*
X385689Y662399D02*
X403400D01*
X385289Y661499D02*
X403400D01*
X384531Y660599D02*
X403400D01*
X382610Y659699D02*
X403400D01*
X342743Y658799D02*
X403400D01*
X341361Y657899D02*
X403400D01*
X244069Y656999D02*
X403400D01*
X243853Y656099D02*
X403400D01*
X243393Y655199D02*
X403400D01*
X242562Y654299D02*
X403400D01*
X234100Y653399D02*
X403400D01*
X234100Y652499D02*
X403400D01*
X340285Y651599D02*
X403400D01*
X341160Y650699D02*
X403400D01*
X341624Y649799D02*
X403400D01*
X341829Y648899D02*
X403400D01*
X392607Y647999D02*
X403400D01*
X393841Y647099D02*
X403400D01*
X394455Y646199D02*
X403400D01*
X394766Y645299D02*
X403400D01*
X394849Y644399D02*
X403400D01*
X394718Y643499D02*
X403400D01*
X394348Y642599D02*
X403400D01*
X393641Y641699D02*
X403400D01*
X392060Y640799D02*
X403400D01*
X388587Y639899D02*
X403400D01*
X388818Y638999D02*
X403400D01*
X388829Y638099D02*
X403400D01*
X388623Y637199D02*
X403400D01*
X388159Y636299D02*
X403400D01*
X387281Y635399D02*
X403400D01*
X340289Y634499D02*
X403400D01*
X339531Y633599D02*
X403400D01*
X352143Y632699D02*
X403400D01*
X353088Y631799D02*
X403400D01*
X353587Y630899D02*
X403400D01*
X353818Y629999D02*
X403400D01*
X353829Y629099D02*
X403400D01*
X357069Y628199D02*
X403400D01*
X358644Y627299D02*
X403400D01*
X359349Y626399D02*
X403400D01*
X359718Y625499D02*
X403400D01*
X371285Y624599D02*
X403400D01*
X372160Y623699D02*
X403400D01*
X396985Y622799D02*
X403400D01*
X398011Y621899D02*
X403400D01*
X398546Y620999D02*
X403400D01*
X398803Y620099D02*
X403400D01*
X398838Y619199D02*
X403400D01*
X398658Y618299D02*
X403400D01*
X398226Y617399D02*
X403400D01*
X397411Y616499D02*
X403400D01*
X394690Y615599D02*
X403400D01*
X394845Y614699D02*
X403400D01*
X394786Y613799D02*
X403400D01*
X394501Y612899D02*
X403400D01*
X397607Y611999D02*
X403400D01*
X398841Y611099D02*
X403400D01*
X399455Y610199D02*
X403400D01*
X399766Y609299D02*
X403400D01*
X399849Y608399D02*
X403400D01*
X399718Y607499D02*
X403400D01*
X399348Y606599D02*
X403400D01*
X398641Y605699D02*
X403400D01*
X397060Y604799D02*
X403400D01*
X394803Y603899D02*
X403400D01*
X394545Y602999D02*
X403400D01*
X394009Y602099D02*
X403400D01*
X392981Y601199D02*
X403400D01*
X326007Y600299D02*
X403400D01*
X323649Y599399D02*
X403400D01*
X371415Y598499D02*
X403400D01*
X372228Y597599D02*
X403400D01*
X372659Y596699D02*
X403400D01*
X372838Y595799D02*
X403400D01*
X390809Y594899D02*
X403400D01*
X391929Y593999D02*
X403400D01*
X392502Y593099D02*
X403400D01*
X392786Y592199D02*
X403400D01*
X392845Y591299D02*
X403400D01*
X392689Y590399D02*
X403400D01*
X392289Y589499D02*
X403400D01*
X391531Y588599D02*
X403400D01*
X389610Y587699D02*
X403400D01*
X384454Y586799D02*
X403400D01*
X383838Y585899D02*
X403400D01*
X382601Y584999D02*
X403400D01*
X380368Y584099D02*
X403400D01*
X381746Y583199D02*
X403400D01*
X382404Y582299D02*
X403400D01*
X382744Y581399D02*
X403400D01*
X382850Y580499D02*
X403400D01*
X382743Y579599D02*
X403400D01*
X382403Y578699D02*
X403400D01*
X381743Y577799D02*
X403400D01*
X380361Y576899D02*
X403400D01*
X364929Y575999D02*
X403400D01*
X365502Y575099D02*
X403400D01*
X365786Y574199D02*
X403400D01*
X365845Y573299D02*
X403400D01*
X365689Y572399D02*
X403400D01*
X381415Y571499D02*
X403400D01*
X382228Y570599D02*
X403400D01*
X382659Y569699D02*
X403400D01*
X382838Y568799D02*
X403400D01*
X382803Y567899D02*
X403400D01*
X382545Y566999D02*
X403400D01*
X382009Y566099D02*
X403400D01*
X401069Y565199D02*
X403400D01*
X402644Y564299D02*
X403400D01*
X403349Y563399D02*
X403400D01*
X402838Y558899D02*
X403400D01*
X401601Y557999D02*
X403400D01*
X369368Y557099D02*
X403400D01*
X401069Y556199D02*
X403400D01*
X402644Y555299D02*
X403400D01*
X403349Y554399D02*
X403400D01*
X402838Y549899D02*
X403400D01*
X401601Y548999D02*
X403400D01*
X394009Y548099D02*
X403400D01*
X392981Y547199D02*
X403400D01*
X387404Y546299D02*
X403400D01*
X387744Y545399D02*
X403400D01*
X387850Y544499D02*
X403400D01*
X387743Y543599D02*
X403400D01*
X387403Y542699D02*
X403400D01*
X386743Y541799D02*
X403400D01*
X385361Y540899D02*
X403400D01*
X359546Y539999D02*
X403400D01*
X359803Y539099D02*
X403400D01*
X359838Y538199D02*
X403400D01*
X359658Y537299D02*
X403400D01*
X359226Y536399D02*
X403400D01*
X358411Y535499D02*
X403400D01*
X338285Y534599D02*
X403400D01*
X362143Y533699D02*
X403400D01*
X379985Y532799D02*
X403400D01*
X381011Y531899D02*
X403400D01*
X381546Y530999D02*
X403400D01*
X381803Y530099D02*
X403400D01*
X381838Y529199D02*
X403400D01*
X381658Y528299D02*
X403400D01*
X381226Y527399D02*
X403400D01*
X380411Y526499D02*
X403400D01*
X332849Y525599D02*
X403400D01*
X346143Y524699D02*
X403400D01*
X347088Y523799D02*
X403400D01*
X347587Y522899D02*
X403400D01*
X347818Y521999D02*
X403400D01*
X360368Y521099D02*
X403400D01*
X361746Y520199D02*
X403400D01*
X362404Y519299D02*
X403400D01*
X362744Y518399D02*
X403400D01*
X362850Y517499D02*
X403400D01*
X362743Y516599D02*
X403400D01*
X362403Y515699D02*
X403400D01*
X361743Y514799D02*
X403400D01*
X360361Y513899D02*
X403400D01*
X337546Y512999D02*
X403400D01*
X360368Y512099D02*
X403400D01*
X361746Y511199D02*
X403400D01*
X362404Y510299D02*
X403400D01*
X362744Y509399D02*
X403400D01*
X362850Y508499D02*
X403400D01*
X362743Y507599D02*
X403400D01*
X362403Y506699D02*
X403400D01*
X361743Y505799D02*
X403400D01*
X360361Y504899D02*
X403400D01*
X351927Y503999D02*
X403400D01*
X350804Y503099D02*
X403400D01*
X342981Y502199D02*
X403400D01*
X359627Y501299D02*
X403400D01*
X361534Y500399D02*
X403400D01*
X371415Y499499D02*
X403400D01*
X401285Y498599D02*
X403400D01*
X402160Y497699D02*
X403400D01*
X402624Y496799D02*
X403400D01*
X402829Y495899D02*
X403400D01*
X402817Y494999D02*
X403400D01*
X402586Y494099D02*
X403400D01*
X402087Y493199D02*
X403400D01*
X401139Y492299D02*
X403400D01*
X385849Y491399D02*
X403400D01*
X385718Y490499D02*
X403400D01*
X385348Y489599D02*
X403400D01*
X384641Y488699D02*
X403400D01*
X383060Y487799D02*
X403400D01*
X340361Y486899D02*
X403400D01*
X249929Y485999D02*
X403400D01*
X383465Y485099D02*
X403400D01*
X384587Y484199D02*
X403400D01*
X385184Y483299D02*
X403400D01*
X385500Y482399D02*
X403400D01*
X385600Y481499D02*
X403400D01*
X385500Y480599D02*
X403400D01*
X401143Y479699D02*
X403400D01*
X402088Y478799D02*
X403400D01*
X402587Y477899D02*
X403400D01*
X402818Y476999D02*
X403400D01*
X402829Y476099D02*
X403400D01*
X402623Y475199D02*
X403400D01*
X402159Y474299D02*
X403400D01*
X401281Y473399D02*
X403400D01*
X373850Y472499D02*
X403400D01*
X373743Y471599D02*
X403400D01*
X373403Y470699D02*
X403400D01*
X372743Y469799D02*
X403400D01*
X371361Y468899D02*
X403400D01*
X363929Y467999D02*
X403400D01*
X364502Y467099D02*
X403400D01*
X364786Y466199D02*
X403400D01*
X364845Y465299D02*
X403400D01*
X364689Y464399D02*
X403400D01*
X364289Y463499D02*
X403400D01*
X363531Y462599D02*
X403400D01*
X361610Y461699D02*
X403400D01*
X358624Y460799D02*
X403400D01*
X358829Y459899D02*
X403400D01*
X358817Y458999D02*
X403400D01*
X358586Y458099D02*
X403400D01*
X358087Y457199D02*
X403400D01*
X357139Y456299D02*
X403400D01*
X382769Y455399D02*
X403400D01*
X384296Y454499D02*
X403400D01*
X385022Y453599D02*
X403400D01*
X385421Y452699D02*
X403400D01*
X385589Y451799D02*
X403400D01*
X385556Y450899D02*
X403400D01*
X385315Y449999D02*
X403400D01*
X384823Y449099D02*
X403400D01*
X383931Y448199D02*
X403400D01*
X335404Y447299D02*
X403400D01*
X335744Y446399D02*
X403400D01*
X335850Y445499D02*
X403400D01*
X335743Y444599D02*
X403400D01*
X338143Y443699D02*
X403400D01*
X388043Y442799D02*
X403400D01*
X389400Y441899D02*
X403400D01*
X390080Y440999D02*
X403400D01*
X390450Y440099D02*
X403400D01*
X390595Y439199D02*
X403400D01*
X390540Y438299D02*
X403400D01*
X390274Y437399D02*
X403400D01*
X389749Y436499D02*
X403400D01*
X388789Y435599D02*
X403400D01*
X348160Y434699D02*
X403400D01*
X348624Y433799D02*
X403400D01*
X348829Y432899D02*
X403400D01*
X348817Y431999D02*
X403400D01*
X401368Y431099D02*
X403400D01*
X402746Y430199D02*
X403400D01*
X402743Y424799D02*
X403400D01*
X401361Y423899D02*
X403400D01*
X391570Y422999D02*
X403400D01*
X391580Y422099D02*
X403400D01*
X391388Y421199D02*
X403400D01*
X390959Y420299D02*
X403400D01*
X390182Y419399D02*
X403400D01*
X388394Y418499D02*
X403400D01*
X244099Y417599D02*
X403400D01*
X244021Y416699D02*
X403400D01*
X243730Y415799D02*
X403400D01*
X243169Y414899D02*
X403400D01*
X242133Y413999D02*
X403400D01*
X234100Y413099D02*
X403400D01*
X275069Y412199D02*
X403400D01*
X276644Y411299D02*
X403400D01*
X277349Y410399D02*
X403400D01*
X343415Y409499D02*
X403400D01*
X344228Y408599D02*
X403400D01*
X344659Y407699D02*
X403400D01*
X344838Y406799D02*
X403400D01*
X344803Y405899D02*
X403400D01*
X344545Y404999D02*
X403400D01*
X344009Y404099D02*
X403400D01*
X342981Y403199D02*
X403400D01*
X316644Y402299D02*
X403400D01*
X317349Y401399D02*
X403400D01*
X317718Y400499D02*
X403400D01*
X317849Y399599D02*
X403400D01*
X317766Y398699D02*
X403400D01*
X317454Y397799D02*
X403400D01*
X316838Y396899D02*
X403400D01*
X389638Y395999D02*
X403400D01*
X390671Y395099D02*
X403400D01*
X391232Y394199D02*
X403400D01*
X391521Y393299D02*
X403400D01*
X391599Y392399D02*
X403400D01*
X391476Y391499D02*
X403400D01*
X391133Y390599D02*
X403400D01*
X390494Y389699D02*
X403400D01*
X389264Y388799D02*
X403400D01*
X294809Y387899D02*
X403400D01*
X295929Y386999D02*
X403400D01*
X296502Y386099D02*
X403400D01*
X296786Y385199D02*
X403400D01*
X296845Y384299D02*
X403400D01*
X389793Y383399D02*
X403400D01*
X390751Y382499D02*
X403400D01*
X391275Y381599D02*
X403400D01*
X391540Y380699D02*
X403400D01*
X391595Y379799D02*
X403400D01*
X391449Y378899D02*
X403400D01*
X391078Y377999D02*
X403400D01*
X390397Y377099D02*
X403400D01*
X389036Y376199D02*
X403400D01*
X366766Y375299D02*
X403400D01*
X366849Y374399D02*
X403400D01*
X366718Y373499D02*
X403400D01*
X366348Y372599D02*
X403400D01*
X365641Y371699D02*
X403400D01*
X389935Y370799D02*
X403400D01*
X390825Y369899D02*
X403400D01*
X391316Y368999D02*
X403400D01*
X391556Y368099D02*
X403400D01*
X391589Y367199D02*
X403400D01*
X391420Y366299D02*
X403400D01*
X391021Y365399D02*
X403400D01*
X390293Y364499D02*
X403400D01*
X388761Y363599D02*
X403400D01*
X234100Y362699D02*
X403400D01*
X234100Y361799D02*
X403400D01*
X282809Y360899D02*
X403400D01*
X283929Y359999D02*
X403400D01*
X284502Y359099D02*
X403400D01*
X284786Y358199D02*
X403400D01*
X284845Y357299D02*
X403400D01*
X284689Y356399D02*
X403400D01*
X284289Y355499D02*
X403400D01*
X283531Y354599D02*
X403400D01*
X281610Y353699D02*
X403400D01*
X234100Y352799D02*
X403400D01*
X234100Y351899D02*
X403400D01*
X242138Y350999D02*
X403400D01*
X243171Y350099D02*
X403400D01*
X243732Y349199D02*
X403400D01*
X244021Y348299D02*
X403400D01*
X244099Y347399D02*
X403400D01*
X272415Y346499D02*
X403400D01*
X273228Y345599D02*
X403400D01*
X273659Y344699D02*
X403400D01*
X273838Y343799D02*
X403400D01*
X273803Y342899D02*
X403400D01*
X273545Y341999D02*
X403400D01*
X273009Y341099D02*
X403400D01*
X271981Y340199D02*
X403400D01*
X243684Y339299D02*
X403400D01*
X244000Y338399D02*
X403400D01*
X244100Y337499D02*
X403400D01*
X244000Y336599D02*
X403400D01*
X243683Y335699D02*
X403400D01*
X243084Y334799D02*
X403400D01*
X241960Y333899D02*
X403400D01*
X234100Y332999D02*
X403400D01*
X234100Y332099D02*
X403400D01*
X241769Y331199D02*
X403400D01*
X242996Y330299D02*
X403400D01*
X243634Y329399D02*
X403400D01*
X243977Y328499D02*
X403400D01*
X244099Y327599D02*
X403400D01*
X395143Y326699D02*
X403400D01*
X396088Y325799D02*
X403400D01*
X396587Y324899D02*
X403400D01*
X396818Y323999D02*
X403400D01*
X396829Y323099D02*
X403400D01*
X396623Y322199D02*
X403400D01*
X396159Y321299D02*
X403400D01*
X395281Y320399D02*
X403400D01*
X380787Y319499D02*
X403400D01*
X380101Y318599D02*
X403400D01*
X378727Y317699D02*
X403400D01*
X350088Y316799D02*
X403400D01*
X350587Y315899D02*
X403400D01*
X379365Y314999D02*
X403400D01*
X380391Y314099D02*
X403400D01*
X380949Y313199D02*
X403400D01*
X381236Y312299D02*
X403400D01*
X381312Y311399D02*
X403400D01*
X381187Y310499D02*
X403400D01*
X380841Y309599D02*
X403400D01*
X380199Y308699D02*
X403400D01*
X378958Y307799D02*
X403400D01*
X244056Y306899D02*
X403400D01*
X243815Y305999D02*
X403400D01*
X379194Y305099D02*
X403400D01*
X380307Y304199D02*
X403400D01*
X380902Y303299D02*
X403400D01*
X381215Y302399D02*
X403400D01*
X381313Y301499D02*
X403400D01*
X381211Y300599D02*
X403400D01*
X380892Y299699D02*
X403400D01*
X380290Y298799D02*
X403400D01*
X379157Y297899D02*
X403400D01*
X244069Y296999D02*
X403400D01*
X243853Y296099D02*
X403400D01*
X379000Y295199D02*
X403400D01*
X380217Y294299D02*
X403400D01*
X380851Y293399D02*
X403400D01*
X381192Y292499D02*
X403400D01*
X381312Y291599D02*
X403400D01*
X381232Y290699D02*
X403400D01*
X380939Y289799D02*
X403400D01*
X380375Y288899D02*
X403400D01*
X379332Y287999D02*
X403400D01*
X244080Y287099D02*
X403400D01*
X243888Y286199D02*
X403400D01*
X381276Y285299D02*
X403400D01*
X381313Y284399D02*
X403400D01*
X381313Y283499D02*
X403400D01*
X381313Y282599D02*
X403400D01*
X381313Y281699D02*
X403400D01*
X381313Y280799D02*
X403400D01*
X381313Y279899D02*
X403400D01*
X381313Y278999D02*
X403400D01*
X381313Y278099D02*
X403400D01*
X402069Y277199D02*
X403400D01*
X402601Y269999D02*
X403400D01*
X378804Y269099D02*
X403400D01*
X244040Y268199D02*
X403400D01*
X244095Y267299D02*
X403400D01*
X243949Y266399D02*
X403400D01*
X241965Y251099D02*
X403400D01*
X243087Y250199D02*
X403400D01*
X243684Y249299D02*
X403400D01*
X244000Y248399D02*
X403400D01*
X244100Y247499D02*
X403400D01*
X244000Y246599D02*
X403400D01*
X243683Y245699D02*
X403400D01*
X243084Y244799D02*
X403400D01*
X241960Y243899D02*
X403400D01*
X361607Y242999D02*
X403400D01*
X362841Y242099D02*
X403400D01*
X363455Y241199D02*
X403400D01*
X363766Y240299D02*
X403400D01*
X363849Y239399D02*
X403400D01*
X363718Y238499D02*
X403400D01*
X243393Y205199D02*
X403377D01*
X244069Y206999D02*
X403182D01*
X243853Y206099D02*
X403171D01*
X354455Y277199D02*
X399931D01*
X379927Y269999D02*
X399399D01*
X380981Y565199D02*
X398931D01*
X370746Y556199D02*
X398931D01*
X391354Y423899D02*
X398639D01*
X348586Y431099D02*
X398632D01*
X369601Y557999D02*
X398399D01*
X394545Y548999D02*
X398399D01*
X377627Y276299D02*
X398356D01*
X380501Y270899D02*
X398162D01*
X379534Y275399D02*
X397651D01*
X380786Y271799D02*
X397546D01*
X370644Y564299D02*
X397356D01*
X371404Y555299D02*
X397356D01*
X380291Y274499D02*
X397282D01*
X390895Y424799D02*
X397257D01*
X348087Y430199D02*
X397254D01*
X380845Y272699D02*
X397234D01*
X370838Y558899D02*
X397162D01*
X394803Y549899D02*
X397162D01*
X380690Y273599D02*
X397151D01*
X385766Y492299D02*
X396861D01*
X385183Y479699D02*
X396857D01*
X373744Y473399D02*
X396719D01*
X372228Y498599D02*
X396715D01*
X371349Y563399D02*
X396651D01*
X371744Y554399D02*
X396651D01*
X390065Y425699D02*
X396597D01*
X347139Y429299D02*
X396596D01*
X371454Y559799D02*
X396546D01*
X394838Y550799D02*
X396546D01*
X371718Y562499D02*
X396282D01*
X393415Y553499D02*
X396282D01*
X387605Y426599D02*
X396257D01*
X244000Y428399D02*
X396256D01*
X371766Y560699D02*
X396234D01*
X394659Y551699D02*
X396234D01*
X371849Y561599D02*
X396151D01*
X394228Y552599D02*
X396151D01*
X244100Y427499D02*
X396150D01*
X385455Y493199D02*
X395913D01*
X384584Y478799D02*
X395912D01*
X373404Y474299D02*
X395841D01*
X372659Y497699D02*
X395840D01*
X384841Y494099D02*
X395414D01*
X383460Y477899D02*
X395413D01*
X372746Y475199D02*
X395377D01*
X372838Y496799D02*
X395376D01*
X383607Y494999D02*
X395183D01*
X335927Y476999D02*
X395182D01*
X371368Y476099D02*
X395171D01*
X372803Y495899D02*
X395171D01*
X394838Y604799D02*
X394940D01*
X393927Y611999D02*
X394393D01*
X379159Y699299D02*
X393373D01*
X298139Y681299D02*
X393373D01*
X392804Y611099D02*
X393159D01*
X372624Y622799D02*
X393015D01*
X381746Y610199D02*
X392545D01*
X382404Y609299D02*
X392234D01*
X376368Y692099D02*
X392196D01*
X242289Y674099D02*
X392196D01*
X382744Y608399D02*
X392151D01*
X372829Y621899D02*
X391989D01*
X378281Y698399D02*
X391466D01*
X290689Y680399D02*
X391466D01*
X372817Y620999D02*
X391454D01*
X372586Y620099D02*
X391197D01*
X375069Y619199D02*
X391162D01*
X369818Y692999D02*
X391073D01*
X243249Y674999D02*
X391073D01*
X244021Y326699D02*
X390857D01*
X381160Y320399D02*
X390719D01*
X364718Y697499D02*
X390709D01*
X290289Y679499D02*
X390709D01*
X369587Y693899D02*
X390499D01*
X243774Y675899D02*
X390499D01*
X376644Y618299D02*
X390373D01*
X364849Y696599D02*
X390310D01*
X289531Y678599D02*
X390310D01*
X369088Y694799D02*
X390214D01*
X244040Y676799D02*
X390214D01*
X368143Y695699D02*
X390155D01*
X287610Y677699D02*
X390155D01*
X388088Y640799D02*
X389940D01*
X243730Y325799D02*
X389912D01*
X381308Y321299D02*
X389841D01*
X379519Y324899D02*
X389413D01*
X356607Y647999D02*
X389393D01*
X381255Y322199D02*
X389377D01*
X380368Y611099D02*
X389196D01*
X380470Y323999D02*
X389182D01*
X380992Y323099D02*
X389171D01*
X327566Y601199D02*
X389019D01*
X386746Y547199D02*
X389019D01*
X382850Y607499D02*
X388585D01*
X371850Y553499D02*
X388585D01*
X377349Y617399D02*
X388466D01*
X384766Y587699D02*
X388390D01*
X387143Y641699D02*
X388359D01*
X357841Y647099D02*
X388159D01*
X375601Y611999D02*
X388073D01*
X328762Y602099D02*
X387991D01*
X385368Y548099D02*
X387991D01*
X382743Y606599D02*
X387772D01*
X371743Y552599D02*
X387772D01*
X377718Y616499D02*
X387709D01*
X358348Y642599D02*
X387652D01*
X358455Y646199D02*
X387545D01*
X376838Y612899D02*
X387499D01*
X329731Y602999D02*
X387455D01*
X342607Y548999D02*
X387455D01*
X377605Y426599D02*
X387395D01*
X382403Y605699D02*
X387341D01*
X371403Y551699D02*
X387341D01*
X377849Y615599D02*
X387310D01*
X358718Y643499D02*
X387282D01*
X358766Y645299D02*
X387234D01*
X377454Y613799D02*
X387214D01*
X380361Y603899D02*
X387197D01*
X369361Y549899D02*
X387197D01*
X372803Y594899D02*
X387191D01*
X381743Y604799D02*
X387162D01*
X370743Y550799D02*
X387162D01*
X377766Y614699D02*
X387155D01*
X358849Y644399D02*
X387151D01*
X378394Y418499D02*
X386606D01*
X384849Y588599D02*
X386469D01*
X378761Y363599D02*
X386239D01*
X374607Y593999D02*
X386071D01*
X379036Y376199D02*
X385964D01*
X379264Y388799D02*
X385736D01*
X384718Y589499D02*
X385711D01*
X375841Y593099D02*
X385498D01*
X379638Y395999D02*
X385362D01*
X384349Y590399D02*
X385311D01*
X382069Y592199D02*
X385214D01*
X379793Y383399D02*
X385207D01*
X383644Y591299D02*
X385155D01*
X379935Y370799D02*
X385065D01*
X378043Y442799D02*
X384957D01*
X380065Y425699D02*
X384935D01*
X380182Y419399D02*
X384818D01*
X380293Y364499D02*
X384707D01*
X380397Y377099D02*
X384603D01*
X380494Y389699D02*
X384506D01*
X380671Y395099D02*
X384329D01*
X380751Y382499D02*
X384249D01*
X378789Y435599D02*
X384211D01*
X380825Y369899D02*
X384175D01*
X380895Y424799D02*
X384105D01*
X380959Y420299D02*
X384041D01*
X381021Y365399D02*
X383979D01*
X381078Y377999D02*
X383922D01*
X381133Y390599D02*
X383867D01*
X381232Y394199D02*
X383768D01*
X381275Y381599D02*
X383725D01*
X381316Y368999D02*
X383684D01*
X381354Y423899D02*
X383646D01*
X381388Y421199D02*
X383612D01*
X379400Y441899D02*
X383600D01*
X381420Y366299D02*
X383580D01*
X381449Y378899D02*
X383551D01*
X381476Y391499D02*
X383524D01*
X381521Y393299D02*
X383479D01*
X381540Y380699D02*
X383460D01*
X381556Y368099D02*
X383444D01*
X381570Y422999D02*
X383430D01*
X381580Y422099D02*
X383420D01*
X381589Y367199D02*
X383411D01*
X381595Y379799D02*
X383405D01*
X381599Y392399D02*
X383401D01*
X379749Y436499D02*
X383251D01*
X380080Y440999D02*
X382920D01*
X357641Y641699D02*
X382857D01*
X380274Y437399D02*
X382726D01*
X340689Y635399D02*
X382719D01*
X369361Y540899D02*
X382639D01*
X369368Y548099D02*
X382632D01*
X380450Y440099D02*
X382550D01*
X380540Y438299D02*
X382460D01*
X380595Y439199D02*
X382405D01*
X356060Y640799D02*
X381912D01*
X340845Y636299D02*
X381841D01*
X338809Y639899D02*
X381413D01*
X343403Y659699D02*
X381390D01*
X340786Y637199D02*
X381377D01*
X370743Y541799D02*
X381257D01*
X370746Y547199D02*
X381254D01*
X339929Y638999D02*
X381182D01*
X340502Y638099D02*
X381171D01*
X341743Y487799D02*
X380940D01*
X371403Y542699D02*
X380597D01*
X371404Y546299D02*
X380596D01*
X372545Y494999D02*
X380393D01*
X371743Y543599D02*
X380257D01*
X371744Y545399D02*
X380256D01*
X372769Y455399D02*
X380231D01*
X299501Y666899D02*
X380191D01*
X371850Y544499D02*
X380150D01*
X376455Y592199D02*
X379931D01*
X373460Y477899D02*
X379540D01*
X373465Y485099D02*
X379535D01*
X343743Y660599D02*
X379469D01*
X372546Y584999D02*
X379399D01*
X342403Y488699D02*
X379359D01*
X372009Y494099D02*
X379159D01*
X298927Y665999D02*
X379071D01*
X373931Y448199D02*
X379069D01*
X343850Y661499D02*
X378711D01*
X374296Y454499D02*
X378704D01*
X342743Y489599D02*
X378652D01*
X370981Y493199D02*
X378545D01*
X341368Y665099D02*
X378498D01*
X374584Y478799D02*
X378416D01*
X374587Y484199D02*
X378413D01*
X376766Y591299D02*
X378356D01*
X343744Y662399D02*
X378311D01*
X342850Y490499D02*
X378282D01*
X342404Y492299D02*
X378234D01*
X342746Y664199D02*
X378214D01*
X374823Y449099D02*
X378177D01*
X372011Y585899D02*
X378162D01*
X343404Y663299D02*
X378155D01*
X342744Y491399D02*
X378151D01*
X375022Y453599D02*
X377978D01*
X375183Y479699D02*
X377817D01*
X375184Y483299D02*
X377816D01*
X375315Y449999D02*
X377685D01*
X376849Y590399D02*
X377651D01*
X330535Y603899D02*
X377639D01*
X363809Y576899D02*
X377639D01*
X333528Y611099D02*
X377632D01*
X372803Y584099D02*
X377632D01*
X375421Y452699D02*
X377579D01*
X374060Y586799D02*
X377546D01*
X375500Y480599D02*
X377500D01*
X375500Y482399D02*
X377500D01*
X375556Y450899D02*
X377444D01*
X375589Y451799D02*
X377411D01*
X375600Y481499D02*
X377400D01*
X367605Y426599D02*
X377395D01*
X376718Y589499D02*
X377282D01*
X375641Y587699D02*
X377234D01*
X376348Y588599D02*
X377151D01*
X369069Y565199D02*
X377019D01*
X368394Y418499D02*
X376606D01*
X365289Y571499D02*
X376585D01*
X367627Y276299D02*
X376373D01*
X331209Y604799D02*
X376257D01*
X357624Y577799D02*
X376257D01*
X333404Y610199D02*
X376254D01*
X372838Y583199D02*
X376254D01*
X368761Y363599D02*
X376239D01*
X363088Y532799D02*
X376015D01*
X344841Y566099D02*
X375991D01*
X369036Y376199D02*
X375964D01*
X364531Y570599D02*
X375772D01*
X369264Y388799D02*
X375736D01*
X368727Y317699D02*
X375699D01*
X331777Y605699D02*
X375597D01*
X357160Y578699D02*
X375597D01*
X333218Y609299D02*
X375596D01*
X372658Y582299D02*
X375596D01*
X332718Y526499D02*
X375589D01*
X368958Y307799D02*
X375468D01*
X343607Y566999D02*
X375455D01*
X369000Y295199D02*
X375426D01*
X369638Y395999D02*
X375362D01*
X362610Y569699D02*
X375341D01*
X369157Y297899D02*
X375269D01*
X332253Y606599D02*
X375257D01*
X356285Y579599D02*
X375257D01*
X332967Y608399D02*
X375256D01*
X372226Y581399D02*
X375256D01*
X369194Y305099D02*
X375232D01*
X369793Y383399D02*
X375207D01*
X283838Y567899D02*
X375197D01*
X368804Y269099D02*
X375196D01*
X284454Y568799D02*
X375162D01*
X332647Y607499D02*
X375150D01*
X371411Y580499D02*
X375150D01*
X369332Y287999D02*
X375094D01*
X369935Y370799D02*
X375065D01*
X369365Y314999D02*
X375061D01*
X363587Y531899D02*
X374989D01*
X368043Y442799D02*
X374957D01*
X370065Y425699D02*
X374935D01*
X369519Y324899D02*
X374907D01*
X370182Y419399D02*
X374818D01*
X362281Y527399D02*
X374774D01*
X370293Y364499D02*
X374707D01*
X370397Y377099D02*
X374603D01*
X370494Y389699D02*
X374506D01*
X369534Y275399D02*
X374466D01*
X363818Y530999D02*
X374454D01*
X363159Y528299D02*
X374342D01*
X370671Y395099D02*
X374329D01*
X370101Y318599D02*
X374325D01*
X370751Y382499D02*
X374249D01*
X370199Y308699D02*
X374227D01*
X368789Y435599D02*
X374211D01*
X370217Y294299D02*
X374209D01*
X363829Y530099D02*
X374197D01*
X370825Y369899D02*
X374175D01*
X363623Y529199D02*
X374162D01*
X370290Y298799D02*
X374136D01*
X370307Y304199D02*
X374119D01*
X370895Y424799D02*
X374105D01*
X369927Y269999D02*
X374073D01*
X370375Y288899D02*
X374051D01*
X370959Y420299D02*
X374041D01*
X370391Y314099D02*
X374035D01*
X371021Y365399D02*
X373979D01*
X370470Y323999D02*
X373956D01*
X371078Y377999D02*
X373922D01*
X371133Y390599D02*
X373867D01*
X296610Y704699D02*
X373857D01*
X371232Y394199D02*
X373768D01*
X371275Y381599D02*
X373725D01*
X364349Y698399D02*
X373719D01*
X370291Y274499D02*
X373709D01*
X371316Y368999D02*
X373684D01*
X371354Y423899D02*
X373646D01*
X370787Y319499D02*
X373640D01*
X356803Y684899D02*
X373639D01*
X369829Y692099D02*
X373632D01*
X371388Y421199D02*
X373612D01*
X369400Y441899D02*
X373600D01*
X370841Y309599D02*
X373585D01*
X371420Y366299D02*
X373580D01*
X370851Y293399D02*
X373575D01*
X371449Y378899D02*
X373551D01*
X370892Y299699D02*
X373534D01*
X370902Y303299D02*
X373524D01*
X371476Y391499D02*
X373524D01*
X370501Y270899D02*
X373499D01*
X370939Y289799D02*
X373487D01*
X371521Y393299D02*
X373479D01*
X370949Y313199D02*
X373477D01*
X371540Y380699D02*
X373460D01*
X371556Y368099D02*
X373444D01*
X370992Y323099D02*
X373434D01*
X371570Y422999D02*
X373430D01*
X371580Y422099D02*
X373420D01*
X371589Y367199D02*
X373411D01*
X371595Y379799D02*
X373405D01*
X371599Y392399D02*
X373401D01*
X370690Y273599D02*
X373310D01*
X371160Y320399D02*
X373266D01*
X369749Y436499D02*
X373251D01*
X371187Y310499D02*
X373239D01*
X371192Y292499D02*
X373234D01*
X371211Y300599D02*
X373215D01*
X370786Y271799D02*
X373214D01*
X371215Y302399D02*
X373211D01*
X371232Y290699D02*
X373194D01*
X371236Y312299D02*
X373190D01*
X371255Y322199D02*
X373171D01*
X370845Y272699D02*
X373155D01*
X368777Y285299D02*
X373150D01*
X371308Y321299D02*
X373118D01*
X371312Y311399D02*
X373114D01*
X371312Y291599D02*
X373114D01*
X371313Y301499D02*
X373113D01*
X370121Y284399D02*
X373113D01*
X370798Y283499D02*
X373113D01*
X371166Y282599D02*
X373113D01*
X371309Y281699D02*
X373113D01*
X371251Y280799D02*
X373113D01*
X370984Y279899D02*
X373113D01*
X370455Y278999D02*
X373113D01*
X369489Y278099D02*
X373113D01*
X372087Y619199D02*
X372931D01*
X370080Y440999D02*
X372920D01*
X241764Y703799D02*
X372912D01*
X363644Y699299D02*
X372841D01*
X370274Y437399D02*
X372726D01*
X370450Y440099D02*
X372550D01*
X370540Y438299D02*
X372460D01*
X234100Y702899D02*
X372413D01*
X370595Y439199D02*
X372405D01*
X333591Y611999D02*
X372399D01*
X362069Y700199D02*
X372377D01*
X356838Y685799D02*
X372257D01*
X369623Y691199D02*
X372254D01*
X234100Y701999D02*
X372182D01*
X241965Y701099D02*
X372171D01*
X370985Y586799D02*
X371940D01*
X356659Y686699D02*
X371597D01*
X369159Y690299D02*
X371596D01*
X371139Y618299D02*
X371356D01*
X356228Y687599D02*
X371257D01*
X368281Y689399D02*
X371256D01*
X333594Y612899D02*
X371162D01*
X355415Y688499D02*
X371150D01*
X359849Y617399D02*
X370651D01*
X357060Y613799D02*
X370546D01*
X359845Y587699D02*
X370359D01*
X359718Y616499D02*
X370282D01*
X358641Y614699D02*
X370234D01*
X362769Y455399D02*
X370231D01*
X359348Y615599D02*
X370151D01*
X359690Y588599D02*
X369652D01*
X363460Y477899D02*
X369540D01*
X363465Y485099D02*
X369535D01*
X359291Y589499D02*
X369282D01*
X356627Y591299D02*
X369234D01*
X358534Y590399D02*
X369151D01*
X363931Y448199D02*
X369069D01*
X364296Y454499D02*
X368704D01*
X362809Y468899D02*
X368639D01*
X334804Y476099D02*
X368632D01*
X364584Y478799D02*
X368416D01*
X364587Y484199D02*
X368413D01*
X364823Y449099D02*
X368177D01*
X365022Y453599D02*
X367978D01*
X365183Y479699D02*
X367817D01*
X365184Y483299D02*
X367816D01*
X365315Y449999D02*
X367685D01*
X365421Y452699D02*
X367579D01*
X365500Y480599D02*
X367500D01*
X365500Y482399D02*
X367500D01*
X365556Y450899D02*
X367444D01*
X365589Y451799D02*
X367411D01*
X365600Y481499D02*
X367400D01*
X357605Y426599D02*
X367395D01*
X342088Y469799D02*
X367257D01*
X328786Y475199D02*
X367254D01*
X356087Y592199D02*
X367019D01*
X341746Y493199D02*
X367019D01*
X359786Y586799D02*
X367015D01*
X345455Y565199D02*
X366931D01*
X359766Y618299D02*
X366861D01*
X359849Y624599D02*
X366715D01*
X320809Y549899D02*
X366639D01*
X359011Y540899D02*
X366639D01*
X352009Y557099D02*
X366632D01*
X343841Y548099D02*
X366632D01*
X358394Y418499D02*
X366606D01*
X341143Y470699D02*
X366597D01*
X328845Y474299D02*
X366596D01*
X310291Y580499D02*
X366589D01*
X286415Y598499D02*
X366585D01*
X362291Y499499D02*
X366585D01*
X352545Y557999D02*
X366399D01*
X354766Y276299D02*
X366373D01*
X327531Y471599D02*
X366257D01*
X328689Y473399D02*
X366256D01*
X358761Y363599D02*
X366239D01*
X328289Y472499D02*
X366150D01*
X356586Y593099D02*
X365991D01*
X360804Y494099D02*
X365991D01*
X359501Y585899D02*
X365989D01*
X359455Y619199D02*
X365913D01*
X359766Y623699D02*
X365840D01*
X327281Y581399D02*
X365774D01*
X355285Y597599D02*
X365772D01*
X362690Y498599D02*
X365772D01*
X359264Y388799D02*
X365736D01*
X349143Y317699D02*
X365699D01*
X243459Y285299D02*
X365649D01*
X244089Y307799D02*
X365468D01*
X356817Y593999D02*
X365455D01*
X361927Y494999D02*
X365455D01*
X358927Y584999D02*
X365454D01*
X243393Y295199D02*
X365426D01*
X358841Y620099D02*
X365414D01*
X359454Y622799D02*
X365376D01*
X359638Y395999D02*
X365362D01*
X345766Y564299D02*
X365356D01*
X328159Y582299D02*
X365342D01*
X356160Y596699D02*
X365341D01*
X362845Y497699D02*
X365341D01*
X244081Y297899D02*
X365269D01*
X328060Y550799D02*
X365257D01*
X357985Y541799D02*
X365257D01*
X350981Y556199D02*
X365254D01*
X344455Y547199D02*
X365254D01*
X243323Y305099D02*
X365232D01*
X359793Y383399D02*
X365207D01*
X356829Y594899D02*
X365197D01*
X362501Y495899D02*
X365197D01*
X357804Y584099D02*
X365197D01*
X243775Y269099D02*
X365196D01*
X357607Y620999D02*
X365183D01*
X358838Y621899D02*
X365171D01*
X336981Y583199D02*
X365162D01*
X352803Y558899D02*
X365162D01*
X356624Y595799D02*
X365162D01*
X362786Y496799D02*
X365162D01*
X356047Y229499D02*
X365118D01*
X244070Y287999D02*
X365094D01*
X364060Y370799D02*
X365065D01*
X350818Y314999D02*
X365061D01*
X358043Y442799D02*
X364957D01*
X353841Y278099D02*
X364937D01*
X360065Y425699D02*
X364935D01*
X243169Y324899D02*
X364907D01*
X360182Y419399D02*
X364818D01*
X363348Y237599D02*
X364809D01*
X360293Y364499D02*
X364707D01*
X345849Y563399D02*
X364651D01*
X329641Y551699D02*
X364597D01*
X349659Y542699D02*
X364597D01*
X344658Y555299D02*
X364596D01*
X344766Y546299D02*
X364596D01*
X356593Y219599D02*
X364572D01*
X352838Y559799D02*
X364546D01*
X360494Y389699D02*
X364506D01*
X354849Y275399D02*
X364466D01*
X360671Y395099D02*
X364329D01*
X243950Y318599D02*
X364325D01*
X242682Y284399D02*
X364305D01*
X351415Y562499D02*
X364282D01*
X330348Y552599D02*
X364257D01*
X349228Y543599D02*
X364257D01*
X344226Y554399D02*
X364256D01*
X344849Y545399D02*
X364256D01*
X360751Y382499D02*
X364249D01*
X352659Y560699D02*
X364234D01*
X243921Y308699D02*
X364227D01*
X358789Y435599D02*
X364211D01*
X242562Y294299D02*
X364209D01*
X360825Y369899D02*
X364175D01*
X352228Y561599D02*
X364151D01*
X343411Y553499D02*
X364150D01*
X348415Y544499D02*
X364150D01*
X243889Y298799D02*
X364136D01*
X242431Y304199D02*
X364119D01*
X360895Y424799D02*
X364105D01*
X243251Y269999D02*
X364073D01*
X243854Y288899D02*
X364051D01*
X360959Y420299D02*
X364041D01*
X350829Y314099D02*
X364035D01*
X361021Y365399D02*
X363979D01*
X352607Y278999D02*
X363971D01*
X242133Y323999D02*
X363956D01*
X361133Y390599D02*
X363867D01*
X361232Y394199D02*
X363768D01*
X361275Y381599D02*
X363725D01*
X331281Y689399D02*
X363719D01*
X354718Y274499D02*
X363709D01*
X361316Y368999D02*
X363684D01*
X361354Y423899D02*
X363646D01*
X243580Y319499D02*
X363640D01*
X240894Y283499D02*
X363628D01*
X361388Y421199D02*
X363612D01*
X359400Y441899D02*
X363600D01*
X243522Y309599D02*
X363585D01*
X361420Y366299D02*
X363580D01*
X234100Y293399D02*
X363575D01*
X361449Y378899D02*
X363551D01*
X243461Y299699D02*
X363534D01*
X234100Y303299D02*
X363524D01*
X361476Y391499D02*
X363524D01*
X242293Y270899D02*
X363499D01*
X243395Y289799D02*
X363487D01*
X361521Y393299D02*
X363479D01*
X350623Y313199D02*
X363477D01*
X361540Y380699D02*
X363460D01*
X361556Y368099D02*
X363444D01*
X243325Y279899D02*
X363442D01*
X234100Y323099D02*
X363434D01*
X361570Y422999D02*
X363430D01*
X361580Y422099D02*
X363420D01*
X361589Y367199D02*
X363411D01*
X361595Y379799D02*
X363405D01*
X361599Y392399D02*
X363401D01*
X354348Y273599D02*
X363310D01*
X242900Y320399D02*
X363266D01*
X234100Y282599D02*
X363261D01*
X359749Y436499D02*
X363251D01*
X242796Y310499D02*
X363239D01*
X234100Y292499D02*
X363234D01*
X242685Y300599D02*
X363215D01*
X352060Y271799D02*
X363214D01*
X234100Y302399D02*
X363211D01*
X242565Y290699D02*
X363194D01*
X350159Y312299D02*
X363190D01*
X242435Y280799D02*
X363175D01*
X234100Y322199D02*
X363171D01*
X353641Y272699D02*
X363155D01*
X241543Y321299D02*
X363118D01*
X234100Y281699D02*
X363117D01*
X349281Y311399D02*
X363114D01*
X240105Y291599D02*
X363114D01*
X240906Y301499D02*
X363113D01*
X358113Y226799D02*
X363053D01*
X358178Y230399D02*
X362987D01*
X362641Y236699D02*
X362930D01*
X360080Y440999D02*
X362920D01*
X358296Y220499D02*
X362869D01*
X332159Y690299D02*
X362841D01*
X360274Y437399D02*
X362726D01*
X360450Y440099D02*
X362550D01*
X360540Y438299D02*
X362460D01*
X360595Y439199D02*
X362405D01*
X332623Y691199D02*
X362377D01*
X358959Y225899D02*
X362206D01*
X332829Y692099D02*
X362171D01*
X358994Y231299D02*
X362171D01*
X361060Y235799D02*
X362140D01*
X359059Y221399D02*
X362106D01*
X359935Y370799D02*
X361940D01*
X359427Y224999D02*
X361739D01*
X359446Y232199D02*
X361720D01*
X359462Y234899D02*
X361703D01*
X359480Y222299D02*
X361685D01*
X359649Y224099D02*
X361516D01*
X359655Y233099D02*
X361510D01*
X359660Y233999D02*
X361505D01*
X359666Y223199D02*
X361500D01*
X361078Y377999D02*
X361393D01*
X284766Y569699D02*
X361390D01*
X358160Y461699D02*
X360390D01*
X344403Y371699D02*
X360359D01*
X352769Y455399D02*
X360231D01*
X357829Y576899D02*
X360191D01*
X243087Y700199D02*
X359931D01*
X344743Y372599D02*
X359652D01*
X359036Y376199D02*
X359545D01*
X353460Y477899D02*
X359540D01*
X353465Y485099D02*
X359535D01*
X284849Y570599D02*
X359469D01*
X332818Y692999D02*
X359399D01*
X344850Y373499D02*
X359282D01*
X344404Y375299D02*
X359234D01*
X342587Y468899D02*
X359191D01*
X344744Y374399D02*
X359151D01*
X357817Y575999D02*
X359071D01*
X353931Y448199D02*
X359069D01*
X284718Y571499D02*
X358711D01*
X354296Y454499D02*
X358704D01*
X357586Y575099D02*
X358498D01*
X357285Y462599D02*
X358469D01*
X354584Y478799D02*
X358416D01*
X354587Y484199D02*
X358413D01*
X234100Y242999D02*
X358393D01*
X339404Y501299D02*
X358373D01*
X243684Y699299D02*
X358356D01*
X284349Y572399D02*
X358311D01*
X357087Y574199D02*
X358214D01*
X354823Y449099D02*
X358177D01*
X332587Y693899D02*
X358162D01*
X356139Y573299D02*
X358155D01*
X342818Y467999D02*
X358071D01*
X355022Y453599D02*
X357978D01*
X339160Y533699D02*
X357857D01*
X355183Y479699D02*
X357817D01*
X355184Y483299D02*
X357816D01*
X332349Y527399D02*
X357719D01*
X332289Y463499D02*
X357711D01*
X355315Y449999D02*
X357685D01*
X244000Y698399D02*
X357651D01*
X337011Y513899D02*
X357639D01*
X352501Y504899D02*
X357639D01*
X347829Y521099D02*
X357632D01*
X337803Y512099D02*
X357632D01*
X355421Y452699D02*
X357579D01*
X332088Y694799D02*
X357546D01*
X355500Y480599D02*
X357500D01*
X355500Y482399D02*
X357500D01*
X342829Y467099D02*
X357498D01*
X355556Y450899D02*
X357444D01*
X355589Y451799D02*
X357411D01*
X355600Y481499D02*
X357400D01*
X347605Y426599D02*
X357395D01*
X341281Y464399D02*
X357311D01*
X244100Y697499D02*
X357282D01*
X331143Y695699D02*
X357234D01*
X342623Y466199D02*
X357214D01*
X340368Y494099D02*
X357196D01*
X234100Y242099D02*
X357159D01*
X342159Y465299D02*
X357155D01*
X244000Y696599D02*
X357151D01*
X339624Y532799D02*
X356912D01*
X338139Y528299D02*
X356841D01*
X356356Y237599D02*
X356652D01*
X348394Y418499D02*
X356606D01*
X241769Y241199D02*
X356545D01*
X339744Y500399D02*
X356466D01*
X339829Y531899D02*
X356413D01*
X339087Y529199D02*
X356377D01*
X243977Y238499D02*
X356282D01*
X335985Y514799D02*
X356257D01*
X352786Y505799D02*
X356257D01*
X347623Y520199D02*
X356254D01*
X337838Y511199D02*
X356254D01*
X348761Y363599D02*
X356239D01*
X242996Y240299D02*
X356234D01*
X339817Y530999D02*
X356182D01*
X339586Y530099D02*
X356171D01*
X243634Y239399D02*
X356151D01*
X336546Y494999D02*
X356073D01*
X349036Y376199D02*
X355964D01*
X349264Y388799D02*
X355736D01*
X339850Y499499D02*
X355709D01*
X326403Y515699D02*
X355597D01*
X352845Y506699D02*
X355597D01*
X347159Y519299D02*
X355596D01*
X349627Y510299D02*
X355596D01*
X337361Y495899D02*
X355499D01*
X355139Y591299D02*
X355373D01*
X349638Y395999D02*
X355362D01*
X339743Y498599D02*
X355310D01*
X326743Y516599D02*
X355257D01*
X352690Y507599D02*
X355257D01*
X346281Y518399D02*
X355256D01*
X351534Y509399D02*
X355256D01*
X338743Y496799D02*
X355214D01*
X349793Y383399D02*
X355207D01*
X339403Y497699D02*
X355155D01*
X326850Y517499D02*
X355150D01*
X352291Y508499D02*
X355150D01*
X346047Y229499D02*
X355118D01*
X349935Y370799D02*
X355065D01*
X348043Y442799D02*
X354957D01*
X333538Y613799D02*
X354940D01*
X350065Y425699D02*
X354935D01*
X353623Y628199D02*
X354931D01*
X350182Y419399D02*
X354818D01*
X346356Y237599D02*
X354809D01*
X350293Y364499D02*
X354707D01*
X350397Y377099D02*
X354603D01*
X346593Y219599D02*
X354572D01*
X350494Y389699D02*
X354506D01*
X345817Y620999D02*
X354393D01*
X350671Y395099D02*
X354329D01*
X350751Y382499D02*
X354249D01*
X348789Y435599D02*
X354211D01*
X338009Y584099D02*
X354196D01*
X350825Y369899D02*
X354175D01*
X350895Y424799D02*
X354105D01*
X350959Y420299D02*
X354041D01*
X242435Y730799D02*
X354015D01*
X349838Y541799D02*
X354015D01*
X351021Y365399D02*
X353979D01*
X335838Y640799D02*
X353940D01*
X351078Y377999D02*
X353922D01*
X351133Y390599D02*
X353867D01*
X351232Y394199D02*
X353768D01*
X351275Y381599D02*
X353725D01*
X351316Y368999D02*
X353684D01*
X351354Y423899D02*
X353646D01*
X351388Y421199D02*
X353612D01*
X349400Y441899D02*
X353600D01*
X242793Y724499D02*
X353589D01*
X295296Y535499D02*
X353589D01*
X351420Y366299D02*
X353580D01*
X351449Y378899D02*
X353551D01*
X351476Y391499D02*
X353524D01*
X351521Y393299D02*
X353479D01*
X324689Y590399D02*
X353466D01*
X351540Y380699D02*
X353460D01*
X351556Y368099D02*
X353444D01*
X351570Y422999D02*
X353430D01*
X351580Y422099D02*
X353420D01*
X351589Y367199D02*
X353411D01*
X351595Y379799D02*
X353405D01*
X351599Y392399D02*
X353401D01*
X341817Y647999D02*
X353393D01*
X333421Y614699D02*
X353359D01*
X353159Y627299D02*
X353356D01*
X349749Y436499D02*
X353251D01*
X345829Y621899D02*
X353162D01*
X345586Y620099D02*
X353159D01*
X338545Y584999D02*
X353073D01*
X348113Y226799D02*
X353053D01*
X243325Y729899D02*
X352989D01*
X349803Y540899D02*
X352989D01*
X348178Y230399D02*
X352987D01*
X348235Y236699D02*
X352930D01*
X350080Y440999D02*
X352920D01*
X348296Y220499D02*
X352869D01*
X343139Y456299D02*
X352861D01*
X243521Y725399D02*
X352774D01*
X293769Y536399D02*
X352774D01*
X350274Y437399D02*
X352726D01*
X343285Y462599D02*
X352715D01*
X337415Y589499D02*
X352709D01*
X333242Y615599D02*
X352652D01*
X352281Y626399D02*
X352651D01*
X350450Y440099D02*
X352550D01*
X345624Y622799D02*
X352546D01*
X345087Y619199D02*
X352545D01*
X338803Y585899D02*
X352499D01*
X350540Y438299D02*
X352460D01*
X243816Y728999D02*
X352454D01*
X349545Y539999D02*
X352454D01*
X350595Y439199D02*
X352405D01*
X335659Y641699D02*
X352359D01*
X243920Y726299D02*
X352342D01*
X277845Y537299D02*
X352342D01*
X338228Y588599D02*
X352310D01*
X332999Y616499D02*
X352282D01*
X323999Y625499D02*
X352282D01*
X345160Y623699D02*
X352234D01*
X344139Y618299D02*
X352234D01*
X338838Y586799D02*
X352214D01*
X348959Y225899D02*
X352206D01*
X244056Y728099D02*
X352197D01*
X349009Y539099D02*
X352197D01*
X348994Y231299D02*
X352171D01*
X244089Y727199D02*
X352162D01*
X347981Y538199D02*
X352162D01*
X341586Y647099D02*
X352159D01*
X338659Y587699D02*
X352155D01*
X332687Y617399D02*
X352151D01*
X344285Y624599D02*
X352151D01*
X349025Y235799D02*
X352140D01*
X349059Y221399D02*
X352106D01*
X344087Y457199D02*
X351913D01*
X348139Y573299D02*
X351861D01*
X344160Y461699D02*
X351840D01*
X349427Y224999D02*
X351739D01*
X349446Y232199D02*
X351720D01*
X348285Y579599D02*
X351715D01*
X349462Y234899D02*
X351703D01*
X349480Y222299D02*
X351685D01*
X335228Y642599D02*
X351652D01*
X341087Y646199D02*
X351545D01*
X349649Y224099D02*
X351516D01*
X349655Y233099D02*
X351510D01*
X349660Y233999D02*
X351505D01*
X349666Y223199D02*
X351500D01*
X344586Y458099D02*
X351414D01*
X344624Y460799D02*
X351376D01*
X334415Y643499D02*
X351282D01*
X340139Y645299D02*
X351234D01*
X344817Y458999D02*
X351183D01*
X344829Y459899D02*
X351171D01*
X329349Y644399D02*
X351151D01*
X299087Y682199D02*
X351019D01*
X349087Y574199D02*
X350913D01*
X347139Y591299D02*
X350861D01*
X349160Y578699D02*
X350840D01*
X347285Y597599D02*
X350715D01*
X301289Y688499D02*
X350585D01*
X349586Y575099D02*
X350414D01*
X349624Y577799D02*
X350376D01*
X319226Y455399D02*
X350231D01*
X349817Y575999D02*
X350183D01*
X349829Y576899D02*
X350171D01*
X299586Y683099D02*
X349991D01*
X234100Y271799D02*
X349940D01*
X348087Y592199D02*
X349913D01*
X348160Y596699D02*
X349840D01*
X300531Y687599D02*
X349772D01*
X336501Y477899D02*
X349540D01*
X250502Y485099D02*
X349535D01*
X299817Y683999D02*
X349455D01*
X348586Y593099D02*
X349414D01*
X243816Y278999D02*
X349393D01*
X348624Y595799D02*
X349376D01*
X299160Y686699D02*
X349341D01*
X299829Y684899D02*
X349197D01*
X348817Y593999D02*
X349183D01*
X348829Y594899D02*
X349171D01*
X299624Y685799D02*
X349162D01*
X334746Y448199D02*
X349069D01*
X318411Y454499D02*
X348704D01*
X336786Y478799D02*
X348416D01*
X250786Y484199D02*
X348413D01*
X337658Y510299D02*
X348373D01*
X234100Y272699D02*
X348359D01*
X333368Y449099D02*
X348177D01*
X244056Y278099D02*
X348159D01*
X295228Y453599D02*
X347978D01*
X337610Y632699D02*
X347857D01*
X336845Y479699D02*
X347817D01*
X333627Y483299D02*
X347816D01*
X287744Y626399D02*
X347719D01*
X295545Y449999D02*
X347685D01*
X241261Y273599D02*
X347652D01*
X295659Y452699D02*
X347579D01*
X244089Y277199D02*
X347545D01*
X336690Y480599D02*
X347500D01*
X335534Y482399D02*
X347500D01*
X295803Y450899D02*
X347444D01*
X295838Y451799D02*
X347411D01*
X336291Y481499D02*
X347400D01*
X337605Y426599D02*
X347395D01*
X242793Y274499D02*
X347282D01*
X243920Y276299D02*
X347234D01*
X344009Y503099D02*
X347196D01*
X243521Y275399D02*
X347151D01*
X344838Y556199D02*
X347019D01*
X301060Y631799D02*
X346912D01*
X287404Y627299D02*
X346841D01*
X338394Y418499D02*
X346606D01*
X345718Y562499D02*
X346585D01*
X337226Y509399D02*
X346466D01*
X260803Y630899D02*
X346413D01*
X286746Y628199D02*
X346377D01*
X338761Y363599D02*
X346239D01*
X260545Y629999D02*
X346182D01*
X285368Y629099D02*
X346171D01*
X344545Y503999D02*
X346073D01*
X344803Y557099D02*
X345991D01*
X343746Y376199D02*
X345964D01*
X345348Y561599D02*
X345772D01*
X339264Y388799D02*
X345736D01*
X343415Y508499D02*
X345709D01*
X344803Y504899D02*
X345499D01*
X344546Y557999D02*
X345455D01*
X339638Y395999D02*
X345362D01*
X344641Y560699D02*
X345341D01*
X344228Y507599D02*
X345310D01*
X344838Y505799D02*
X345214D01*
X339793Y383399D02*
X345207D01*
X344011Y558899D02*
X345197D01*
X343060Y559799D02*
X345162D01*
X344659Y506699D02*
X345155D01*
X336047Y229499D02*
X345118D01*
X343743Y370799D02*
X345065D01*
X339088Y442799D02*
X344957D01*
X340065Y425699D02*
X344935D01*
X244095Y317699D02*
X344857D01*
X340182Y419399D02*
X344818D01*
X336356Y237599D02*
X344809D01*
X241269Y311399D02*
X344719D01*
X340293Y364499D02*
X344707D01*
X342368Y377099D02*
X344603D01*
X336593Y219599D02*
X344572D01*
X340494Y389699D02*
X344506D01*
X340671Y395099D02*
X344329D01*
X340751Y382499D02*
X344249D01*
X342361Y369899D02*
X344175D01*
X340895Y424799D02*
X344105D01*
X340959Y420299D02*
X344041D01*
X280981Y538199D02*
X344019D01*
X341021Y365399D02*
X343979D01*
X341078Y377999D02*
X343922D01*
X244040Y316799D02*
X343912D01*
X341133Y390599D02*
X343867D01*
X337139Y573299D02*
X343861D01*
X234100Y312299D02*
X343841D01*
X341232Y394199D02*
X343768D01*
X341275Y381599D02*
X343725D01*
X337285Y579599D02*
X343715D01*
X341316Y368999D02*
X343684D01*
X341354Y423899D02*
X343646D01*
X341388Y421199D02*
X343612D01*
X339587Y441899D02*
X343600D01*
X341420Y366299D02*
X343580D01*
X341449Y378899D02*
X343551D01*
X341476Y391499D02*
X343524D01*
X341521Y393299D02*
X343479D01*
X341540Y380699D02*
X343460D01*
X341556Y368099D02*
X343444D01*
X341570Y422999D02*
X343430D01*
X341580Y422099D02*
X343420D01*
X243774Y315899D02*
X343413D01*
X341589Y367199D02*
X343411D01*
X341595Y379799D02*
X343405D01*
X341599Y392399D02*
X343401D01*
X234100Y313199D02*
X343377D01*
X243976Y436499D02*
X343251D01*
X243249Y314999D02*
X343182D01*
X242289Y314099D02*
X343171D01*
X338113Y226799D02*
X343053D01*
X313804Y539099D02*
X342991D01*
X338178Y230399D02*
X342987D01*
X338235Y236699D02*
X342930D01*
X339818Y440999D02*
X342920D01*
X338087Y574199D02*
X342913D01*
X338296Y220499D02*
X342869D01*
X324845Y591299D02*
X342861D01*
X243684Y429299D02*
X342861D01*
X338160Y578699D02*
X342840D01*
X338281Y437399D02*
X342726D01*
X287228Y597599D02*
X342715D01*
X243633Y435599D02*
X342715D01*
X339829Y440099D02*
X342550D01*
X339159Y438299D02*
X342460D01*
X314927Y539999D02*
X342455D01*
X338586Y575099D02*
X342414D01*
X339623Y439199D02*
X342405D01*
X338624Y577799D02*
X342376D01*
X338959Y225899D02*
X342206D01*
X315501Y540899D02*
X342197D01*
X338817Y575999D02*
X342183D01*
X338994Y231299D02*
X342171D01*
X338829Y576899D02*
X342171D01*
X342060Y541799D02*
X342162D01*
X339025Y235799D02*
X342140D01*
X339059Y221399D02*
X342106D01*
X243395Y739799D02*
X342015D01*
X324786Y592199D02*
X341913D01*
X243087Y430199D02*
X341913D01*
X273139Y771299D02*
X341861D01*
X338143Y524699D02*
X341857D01*
X287659Y596699D02*
X341840D01*
X242994Y434699D02*
X341840D01*
X339427Y224999D02*
X341739D01*
X339446Y232199D02*
X341720D01*
X338281Y518399D02*
X341719D01*
X301743Y777599D02*
X341715D01*
X339462Y234899D02*
X341703D01*
X339480Y222299D02*
X341685D01*
X311223Y733499D02*
X341589D01*
X339649Y224099D02*
X341516D01*
X339655Y233099D02*
X341510D01*
X339660Y233999D02*
X341505D01*
X339666Y223199D02*
X341500D01*
X324502Y593099D02*
X341414D01*
X241965Y431099D02*
X341414D01*
X287838Y595799D02*
X341376D01*
X241764Y433799D02*
X341376D01*
X323929Y593999D02*
X341183D01*
X234100Y431999D02*
X341183D01*
X322809Y594899D02*
X341171D01*
X234100Y432899D02*
X341171D01*
X309303Y738899D02*
X340989D01*
X274087Y772199D02*
X340913D01*
X339088Y523799D02*
X340912D01*
X339159Y519299D02*
X340841D01*
X301403Y776699D02*
X340840D01*
X311518Y734399D02*
X340774D01*
X310512Y737999D02*
X340454D01*
X274586Y773099D02*
X340414D01*
X339587Y522899D02*
X340413D01*
X328607Y566999D02*
X340393D01*
X339623Y520199D02*
X340377D01*
X300743Y775799D02*
X340376D01*
X311599Y735299D02*
X340342D01*
X311142Y737099D02*
X340197D01*
X274817Y773999D02*
X340183D01*
X339818Y521999D02*
X340182D01*
X339829Y521099D02*
X340171D01*
X299361Y774899D02*
X340171D01*
X311481Y736199D02*
X340162D01*
X315786Y541799D02*
X339940D01*
X332302Y618299D02*
X339861D01*
X326211Y624599D02*
X339715D01*
X321929Y548999D02*
X339393D01*
X329641Y560699D02*
X339359D01*
X329841Y566099D02*
X339159D01*
X338746Y502199D02*
X339019D01*
X315069Y403199D02*
X339019D01*
X328060Y559799D02*
X339015D01*
X331836Y619199D02*
X338913D01*
X319658Y456299D02*
X338861D01*
X327717Y623699D02*
X338840D01*
X331531Y462599D02*
X338715D01*
X330348Y561599D02*
X338652D01*
X329361Y657899D02*
X338639D01*
X329368Y665099D02*
X338632D01*
X330718Y553499D02*
X338589D01*
X336411Y508499D02*
X338585D01*
X277718Y409499D02*
X338585D01*
X330455Y565199D02*
X338545D01*
X331279Y620099D02*
X338414D01*
X316610Y713699D02*
X338390D01*
X328882Y622799D02*
X338376D01*
X319610Y542699D02*
X338359D01*
X330718Y562499D02*
X338282D01*
X330766Y564299D02*
X338234D01*
X330618Y620999D02*
X338183D01*
X329830Y621899D02*
X338171D01*
X322502Y548099D02*
X338159D01*
X330849Y563399D02*
X338151D01*
X337368Y503099D02*
X337991D01*
X242289Y404099D02*
X337991D01*
X308011Y558899D02*
X337989D01*
X319838Y457199D02*
X337913D01*
X329610Y461699D02*
X337840D01*
X330849Y554399D02*
X337774D01*
X277348Y507599D02*
X337772D01*
X277849Y408599D02*
X337772D01*
X321531Y543599D02*
X337652D01*
X273361Y486899D02*
X337639D01*
X336803Y494099D02*
X337632D01*
X277403Y371699D02*
X337597D01*
X277404Y375299D02*
X337596D01*
X322786Y547199D02*
X337545D01*
X259927Y503999D02*
X337455D01*
X275601Y404999D02*
X337455D01*
X328607Y557999D02*
X337454D01*
X319803Y458099D02*
X337414D01*
X327605Y426599D02*
X337395D01*
X317985Y460799D02*
X337376D01*
X330766Y555299D02*
X337342D01*
X276641Y506699D02*
X337341D01*
X277766Y407699D02*
X337341D01*
X322289Y544499D02*
X337282D01*
X277743Y372599D02*
X337257D01*
X330743Y658799D02*
X337257D01*
X277744Y374399D02*
X337256D01*
X330746Y664199D02*
X337254D01*
X322845Y546299D02*
X337234D01*
X260501Y504899D02*
X337197D01*
X276838Y405899D02*
X337197D01*
X329841Y557099D02*
X337197D01*
X317809Y720899D02*
X337191D01*
X319546Y458999D02*
X337183D01*
X319011Y459899D02*
X337171D01*
X330455Y556199D02*
X337162D01*
X275060Y505799D02*
X337162D01*
X277454Y406799D02*
X337162D01*
X322689Y545399D02*
X337151D01*
X277850Y373499D02*
X337150D01*
X325610Y470699D02*
X336857D01*
X332689Y464399D02*
X336719D01*
X328394Y418499D02*
X336606D01*
X331403Y659699D02*
X336597D01*
X331404Y663299D02*
X336596D01*
X318531Y714599D02*
X336469D01*
X302641Y632699D02*
X336390D01*
X331743Y660599D02*
X336257D01*
X274743Y487799D02*
X336257D01*
X331744Y662399D02*
X336256D01*
X328761Y363599D02*
X336239D01*
X331850Y661499D02*
X336150D01*
X318929Y719999D02*
X336071D01*
X329036Y376199D02*
X335964D01*
X287838Y469799D02*
X335912D01*
X333139Y645299D02*
X335861D01*
X332845Y465299D02*
X335841D01*
X329264Y388799D02*
X335736D01*
X333285Y651599D02*
X335715D01*
X319289Y715499D02*
X335711D01*
X275403Y488699D02*
X335597D01*
X319502Y719099D02*
X335498D01*
X330809Y468899D02*
X335413D01*
X332786Y466199D02*
X335377D01*
X329638Y395999D02*
X335362D01*
X319689Y716399D02*
X335311D01*
X275743Y489599D02*
X335257D01*
X319786Y718199D02*
X335214D01*
X329793Y383399D02*
X335207D01*
X331929Y467999D02*
X335182D01*
X332502Y467099D02*
X335171D01*
X319845Y717299D02*
X335155D01*
X326047Y229499D02*
X335118D01*
X329935Y370799D02*
X335065D01*
X330065Y425699D02*
X334935D01*
X334087Y646199D02*
X334913D01*
X334160Y650699D02*
X334840D01*
X330182Y419399D02*
X334818D01*
X326356Y237599D02*
X334809D01*
X330293Y364499D02*
X334707D01*
X258804Y503099D02*
X334632D01*
X330397Y377099D02*
X334603D01*
X329515Y219599D02*
X334572D01*
X330494Y389699D02*
X334506D01*
X303348Y633599D02*
X334469D01*
X330671Y395099D02*
X334329D01*
X330751Y382499D02*
X334249D01*
X330825Y369899D02*
X334175D01*
X330895Y424799D02*
X334105D01*
X330959Y420299D02*
X334041D01*
X331021Y365399D02*
X333979D01*
X331078Y377999D02*
X333922D01*
X331133Y390599D02*
X333867D01*
X331644Y528299D02*
X333861D01*
X332766Y524699D02*
X333857D01*
X331232Y394199D02*
X333768D01*
X331275Y381599D02*
X333725D01*
X326744Y518399D02*
X333719D01*
X244099Y437399D02*
X333719D01*
X296022Y534599D02*
X333715D01*
X303718Y634499D02*
X333711D01*
X331316Y368999D02*
X333684D01*
X331354Y423899D02*
X333646D01*
X331388Y421199D02*
X333612D01*
X331420Y366299D02*
X333580D01*
X331449Y378899D02*
X333551D01*
X331476Y391499D02*
X333524D01*
X331521Y393299D02*
X333479D01*
X331540Y380699D02*
X333460D01*
X331556Y368099D02*
X333444D01*
X331570Y422999D02*
X333430D01*
X331580Y422099D02*
X333420D01*
X331589Y367199D02*
X333411D01*
X331595Y379799D02*
X333405D01*
X331599Y392399D02*
X333401D01*
X303849Y635399D02*
X333311D01*
X255455Y502199D02*
X333254D01*
X303766Y636299D02*
X333155D01*
X329683Y226799D02*
X333053D01*
X328623Y583199D02*
X333019D01*
X328178Y230399D02*
X332987D01*
X328235Y236699D02*
X332930D01*
X330069Y529199D02*
X332913D01*
X332454Y523799D02*
X332912D01*
X329683Y220499D02*
X332869D01*
X291139Y573299D02*
X332861D01*
X326404Y519299D02*
X332841D01*
X244021Y438299D02*
X332841D01*
X296421Y533699D02*
X332840D01*
X310690Y579599D02*
X332715D01*
X254641Y497699D02*
X332597D01*
X255766Y501299D02*
X332596D01*
X324289Y589499D02*
X332585D01*
X295823Y530099D02*
X332414D01*
X331838Y522899D02*
X332413D01*
X325746Y520199D02*
X332377D01*
X243732Y439199D02*
X332377D01*
X296589Y532799D02*
X332376D01*
X274627Y483299D02*
X332373D01*
X255348Y498599D02*
X332257D01*
X255849Y500399D02*
X332256D01*
X329683Y225899D02*
X332206D01*
X296315Y530999D02*
X332183D01*
X330601Y521999D02*
X332182D01*
X242138Y440999D02*
X332182D01*
X324368Y521099D02*
X332171D01*
X243171Y440099D02*
X332171D01*
X328994Y231299D02*
X332171D01*
X296556Y531899D02*
X332171D01*
X255718Y499499D02*
X332150D01*
X329025Y235799D02*
X332140D01*
X329683Y221399D02*
X332106D01*
X325743Y514799D02*
X332015D01*
X328829Y584099D02*
X331991D01*
X292087Y574199D02*
X331913D01*
X310845Y578699D02*
X331840D01*
X323531Y588599D02*
X331772D01*
X329683Y224999D02*
X331739D01*
X329446Y232199D02*
X331720D01*
X329462Y234899D02*
X331703D01*
X329683Y222299D02*
X331685D01*
X277718Y508499D02*
X331589D01*
X329683Y224099D02*
X331516D01*
X329655Y233099D02*
X331510D01*
X329660Y233999D02*
X331505D01*
X329683Y223199D02*
X331500D01*
X328818Y584999D02*
X331455D01*
X308804Y575099D02*
X331414D01*
X310786Y577799D02*
X331376D01*
X327143Y587699D02*
X331341D01*
X328587Y585899D02*
X331197D01*
X328502Y476099D02*
X331196D01*
X309927Y575999D02*
X331183D01*
X310501Y576899D02*
X331171D01*
X328088Y586799D02*
X331162D01*
X253060Y496799D02*
X331015D01*
X324361Y513899D02*
X330989D01*
X277849Y509399D02*
X330774D01*
X234100Y441899D02*
X330639D01*
X295009Y449099D02*
X330632D01*
X275850Y490499D02*
X330589D01*
X276534Y482399D02*
X330466D01*
X275607Y512999D02*
X330454D01*
X277766Y510299D02*
X330342D01*
X276841Y512099D02*
X330197D01*
X277455Y511199D02*
X330162D01*
X327929Y476999D02*
X330073D01*
X303455Y637199D02*
X330019D01*
X243774Y495899D02*
X329989D01*
X275744Y491399D02*
X329774D01*
X277291Y481499D02*
X329709D01*
X326809Y477899D02*
X329499D01*
X243249Y494999D02*
X329454D01*
X275404Y492299D02*
X329342D01*
X277690Y480599D02*
X329310D01*
X234100Y442799D02*
X329257D01*
X293981Y448199D02*
X329254D01*
X277786Y478799D02*
X329214D01*
X273368Y494099D02*
X329197D01*
X274746Y493199D02*
X329162D01*
X277845Y479699D02*
X329155D01*
X302841Y638099D02*
X328991D01*
X328644Y645299D02*
X328861D01*
X314285Y651599D02*
X328715D01*
X247610Y443699D02*
X328597D01*
X250845Y447299D02*
X328596D01*
X327601Y638999D02*
X328455D01*
X322610Y461699D02*
X328390D01*
X249531Y444599D02*
X328257D01*
X250689Y446399D02*
X328256D01*
X250289Y445499D02*
X328150D01*
X294931Y529199D02*
X327931D01*
X327069Y646199D02*
X327913D01*
X315160Y650699D02*
X327840D01*
X324803Y647099D02*
X327414D01*
X310545Y521999D02*
X327399D01*
X317605Y426599D02*
X327395D01*
X322985Y649799D02*
X327376D01*
X323809Y468899D02*
X327191D01*
X324546Y647999D02*
X327183D01*
X324011Y648899D02*
X327171D01*
X243683Y695699D02*
X326857D01*
X301689Y689399D02*
X326719D01*
X314361Y657899D02*
X326639D01*
X314368Y665099D02*
X326632D01*
X318394Y418499D02*
X326606D01*
X324531Y462599D02*
X326469D01*
X300627Y528299D02*
X326356D01*
X318761Y363599D02*
X326239D01*
X310803Y522899D02*
X326162D01*
X324929Y467999D02*
X326071D01*
X319036Y376199D02*
X325964D01*
X320060Y559799D02*
X325940D01*
X296558Y550799D02*
X325940D01*
X243084Y694799D02*
X325912D01*
X301845Y690299D02*
X325841D01*
X319264Y388799D02*
X325736D01*
X325289Y463499D02*
X325711D01*
X302534Y527399D02*
X325651D01*
X310838Y523799D02*
X325546D01*
X299809Y693899D02*
X325413D01*
X320607Y566999D02*
X325393D01*
X308546Y557999D02*
X325393D01*
X301786Y691199D02*
X325377D01*
X319638Y395999D02*
X325362D01*
X309415Y526499D02*
X325282D01*
X315743Y658799D02*
X325257D01*
X315746Y664199D02*
X325254D01*
X310659Y524699D02*
X325234D01*
X319793Y383399D02*
X325207D01*
X300929Y692999D02*
X325182D01*
X301502Y692099D02*
X325171D01*
X310228Y525599D02*
X325151D01*
X243580Y229499D02*
X325118D01*
X319935Y370799D02*
X325065D01*
X320065Y425699D02*
X324935D01*
X324838Y646199D02*
X324931D01*
X320182Y419399D02*
X324818D01*
X244099Y237599D02*
X324809D01*
X320293Y364499D02*
X324707D01*
X320397Y377099D02*
X324603D01*
X316403Y659699D02*
X324597D01*
X316404Y663299D02*
X324596D01*
X320494Y389699D02*
X324506D01*
X301607Y638999D02*
X324399D01*
X287659Y470699D02*
X324390D01*
X321641Y560699D02*
X324359D01*
X296323Y551699D02*
X324359D01*
X320671Y395099D02*
X324329D01*
X316743Y660599D02*
X324257D01*
X316744Y662399D02*
X324256D01*
X320751Y382499D02*
X324249D01*
X320825Y369899D02*
X324175D01*
X321841Y566099D02*
X324159D01*
X308803Y557099D02*
X324159D01*
X316850Y661499D02*
X324150D01*
X320895Y424799D02*
X324105D01*
X320959Y420299D02*
X324041D01*
X321021Y365399D02*
X323979D01*
X321078Y377999D02*
X323922D01*
X321133Y390599D02*
X323867D01*
X321232Y394199D02*
X323768D01*
X321275Y381599D02*
X323725D01*
X321316Y368999D02*
X323684D01*
X322348Y561599D02*
X323652D01*
X295837Y552599D02*
X323652D01*
X321354Y423899D02*
X323646D01*
X321388Y421199D02*
X323612D01*
X321420Y366299D02*
X323580D01*
X321449Y378899D02*
X323551D01*
X322455Y565199D02*
X323545D01*
X308838Y556199D02*
X323545D01*
X321476Y391499D02*
X323524D01*
X321521Y393299D02*
X323479D01*
X321540Y380699D02*
X323460D01*
X321556Y368099D02*
X323444D01*
X321570Y422999D02*
X323430D01*
X321580Y422099D02*
X323420D01*
X321589Y367199D02*
X323411D01*
X321595Y379799D02*
X323405D01*
X321599Y392399D02*
X323401D01*
X322718Y562499D02*
X323282D01*
X307411Y553499D02*
X323282D01*
X322766Y564299D02*
X323234D01*
X308658Y555299D02*
X323234D01*
X277501Y477899D02*
X323191D01*
X298501Y639899D02*
X323162D01*
X322849Y563399D02*
X323151D01*
X308226Y554399D02*
X323151D01*
X242900Y230399D02*
X322987D01*
X244021Y236699D02*
X322930D01*
X321610Y587699D02*
X322857D01*
X309534Y581399D02*
X322719D01*
X307060Y640799D02*
X322546D01*
X287228Y471599D02*
X322469D01*
X308641Y641699D02*
X322234D01*
X241543Y231299D02*
X322171D01*
X309348Y642599D02*
X322151D01*
X243730Y235799D02*
X322140D01*
X276927Y476999D02*
X322071D01*
X294985Y586799D02*
X321912D01*
X307627Y582299D02*
X321841D01*
X234100Y232199D02*
X321720D01*
X286415Y472499D02*
X321711D01*
X243169Y234899D02*
X321703D01*
X293531Y219599D02*
X321650D01*
X272829Y513899D02*
X321639D01*
X310009Y521099D02*
X321632D01*
X234100Y233099D02*
X321510D01*
X242133Y233999D02*
X321505D01*
X275804Y476099D02*
X321498D01*
X244040Y226799D02*
X321483D01*
X292809Y225899D02*
X321483D01*
X293929Y224999D02*
X321483D01*
X294502Y224099D02*
X321483D01*
X294786Y223199D02*
X321483D01*
X294845Y222299D02*
X321483D01*
X294689Y221399D02*
X321483D01*
X294289Y220499D02*
X321483D01*
X296011Y585899D02*
X321413D01*
X314641Y461699D02*
X321390D01*
X296838Y583199D02*
X321377D01*
X234100Y473399D02*
X321311D01*
X243393Y475199D02*
X321214D01*
X296546Y584999D02*
X321182D01*
X296803Y584099D02*
X321171D01*
X242562Y474299D02*
X321155D01*
X290641Y587699D02*
X320390D01*
X272624Y514799D02*
X320257D01*
X308981Y520199D02*
X320254D01*
X287803Y468899D02*
X320191D01*
X272160Y515699D02*
X319597D01*
X266766Y519299D02*
X319596D01*
X315348Y462599D02*
X319469D01*
X271285Y516599D02*
X319257D01*
X266849Y518399D02*
X319256D01*
X287803Y594899D02*
X319191D01*
X266718Y517499D02*
X319150D01*
X313607Y467999D02*
X319071D01*
X315624Y649799D02*
X319015D01*
X315718Y463499D02*
X318711D01*
X309718Y643499D02*
X318589D01*
X314841Y467099D02*
X318498D01*
X291348Y588599D02*
X318469D01*
X315845Y542699D02*
X318390D01*
X315849Y464399D02*
X318311D01*
X315455Y466199D02*
X318214D01*
X315766Y465299D02*
X318155D01*
X289607Y593999D02*
X318071D01*
X315829Y648899D02*
X317989D01*
X306985Y559799D02*
X317940D01*
X309849Y644399D02*
X317774D01*
X291718Y589499D02*
X317711D01*
X290841Y593099D02*
X317498D01*
X315817Y647999D02*
X317454D01*
X307605Y426599D02*
X317395D01*
X306607Y566999D02*
X317393D01*
X314139Y645299D02*
X317342D01*
X291849Y590399D02*
X317311D01*
X291455Y592199D02*
X317214D01*
X315586Y647099D02*
X317197D01*
X296588Y549899D02*
X317191D01*
X315087Y646199D02*
X317162D01*
X291766Y591299D02*
X317155D01*
X308394Y418499D02*
X316606D01*
X315690Y543599D02*
X316469D01*
X307641Y560699D02*
X316359D01*
X243634Y599399D02*
X316351D01*
X308761Y363599D02*
X316239D01*
X307841Y566099D02*
X316159D01*
X296415Y548999D02*
X316071D01*
X287850Y625499D02*
X316001D01*
X309036Y376199D02*
X315964D01*
X309264Y388799D02*
X315736D01*
X315291Y544499D02*
X315711D01*
X308348Y561599D02*
X315652D01*
X308455Y565199D02*
X315545D01*
X296011Y548099D02*
X315498D01*
X309036Y713699D02*
X315390D01*
X314534Y545399D02*
X315311D01*
X308718Y562499D02*
X315282D01*
X308766Y564299D02*
X315234D01*
X295275Y547199D02*
X315214D01*
X309793Y383399D02*
X315207D01*
X312627Y546299D02*
X315155D01*
X308849Y563399D02*
X315151D01*
X309935Y370799D02*
X315065D01*
X310065Y425699D02*
X314935D01*
X310182Y419399D02*
X314818D01*
X310293Y364499D02*
X314707D01*
X310397Y377099D02*
X314603D01*
X310494Y389699D02*
X314506D01*
X310671Y395099D02*
X314329D01*
X310751Y382499D02*
X314249D01*
X309793Y720899D02*
X314191D01*
X310825Y369899D02*
X314175D01*
X310895Y424799D02*
X314105D01*
X310959Y420299D02*
X314041D01*
X313060Y460799D02*
X314015D01*
X242996Y600299D02*
X313993D01*
X311021Y365399D02*
X313979D01*
X311078Y377999D02*
X313922D01*
X311133Y390599D02*
X313867D01*
X287743Y624599D02*
X313789D01*
X311232Y394199D02*
X313768D01*
X311275Y381599D02*
X313725D01*
X311316Y368999D02*
X313684D01*
X311354Y423899D02*
X313646D01*
X311388Y421199D02*
X313612D01*
X299411Y454499D02*
X313589D01*
X311420Y366299D02*
X313580D01*
X311449Y378899D02*
X313551D01*
X311476Y391499D02*
X313524D01*
X311521Y393299D02*
X313479D01*
X310397Y714599D02*
X313469D01*
X311540Y380699D02*
X313460D01*
X311556Y368099D02*
X313444D01*
X311570Y422999D02*
X313430D01*
X311580Y422099D02*
X313420D01*
X311589Y367199D02*
X313411D01*
X311595Y379799D02*
X313405D01*
X311599Y392399D02*
X313401D01*
X310751Y719999D02*
X313071D01*
X300011Y459899D02*
X312989D01*
X234100Y403199D02*
X312931D01*
X300226Y455399D02*
X312774D01*
X311078Y715499D02*
X312711D01*
X311275Y719099D02*
X312498D01*
X300546Y458999D02*
X312454D01*
X262981Y601199D02*
X312434D01*
X309638Y395999D02*
X312399D01*
X300658Y456299D02*
X312342D01*
X311449Y716399D02*
X312311D01*
X294143Y623699D02*
X312283D01*
X311540Y718199D02*
X312214D01*
X300803Y458099D02*
X312197D01*
X300838Y457199D02*
X312162D01*
X311595Y717299D02*
X312155D01*
X274361Y657899D02*
X311639D01*
X297804Y665099D02*
X311632D01*
X293709Y546299D02*
X311373D01*
X234100Y402299D02*
X311356D01*
X264009Y602099D02*
X311238D01*
X244056Y396899D02*
X311162D01*
X295088Y622799D02*
X311118D01*
X303060Y460799D02*
X310940D01*
X241269Y401399D02*
X310651D01*
X244089Y397799D02*
X310546D01*
X303607Y467999D02*
X310393D01*
X242796Y400499D02*
X310282D01*
X285601Y602999D02*
X310269D01*
X275743Y658799D02*
X310257D01*
X290087Y664199D02*
X310254D01*
X243921Y398699D02*
X310234D01*
X282009Y539099D02*
X310196D01*
X295587Y621899D02*
X310170D01*
X243522Y399599D02*
X310151D01*
X309766Y645299D02*
X309861D01*
X298285Y651599D02*
X309715D01*
X276403Y659699D02*
X309597D01*
X289139Y663299D02*
X309596D01*
X243521Y545399D02*
X309466D01*
X286838Y603899D02*
X309465D01*
X295818Y620999D02*
X309382D01*
X304641Y461699D02*
X309359D01*
X276743Y660599D02*
X309257D01*
X276744Y662399D02*
X309256D01*
X304841Y467099D02*
X309159D01*
X276850Y661499D02*
X309150D01*
X282545Y539999D02*
X309073D01*
X299160Y650699D02*
X308840D01*
X287454Y604799D02*
X308791D01*
X295829Y620099D02*
X308721D01*
X281415Y544499D02*
X308709D01*
X305348Y462599D02*
X308652D01*
X305455Y466199D02*
X308545D01*
X282803Y540899D02*
X308499D01*
X299624Y649799D02*
X308376D01*
X282228Y543599D02*
X308310D01*
X305718Y463499D02*
X308282D01*
X305766Y465299D02*
X308234D01*
X287766Y605699D02*
X308223D01*
X282838Y541799D02*
X308214D01*
X307607Y647999D02*
X308183D01*
X299829Y648899D02*
X308171D01*
X295623Y619199D02*
X308164D01*
X282659Y542699D02*
X308155D01*
X305849Y464399D02*
X308151D01*
X287849Y606599D02*
X307747D01*
X295159Y618299D02*
X307698D01*
X297605Y426599D02*
X307395D01*
X287718Y607499D02*
X307353D01*
X294281Y617399D02*
X307313D01*
X298281Y608399D02*
X307033D01*
X287291Y616499D02*
X307001D01*
X299159Y609299D02*
X306782D01*
X287690Y615599D02*
X306758D01*
X298394Y418499D02*
X306606D01*
X299623Y610199D02*
X306596D01*
X298143Y614699D02*
X306579D01*
X299829Y611099D02*
X306472D01*
X299088Y613799D02*
X306462D01*
X299818Y611999D02*
X306409D01*
X299587Y612899D02*
X306406D01*
X299627Y582299D02*
X306373D01*
X298761Y363599D02*
X306239D01*
X283446Y713699D02*
X305964D01*
X299036Y376199D02*
X305964D01*
X299264Y388799D02*
X305736D01*
X283713Y738899D02*
X305697D01*
X284015Y731699D02*
X305394D01*
X299638Y395999D02*
X305362D01*
X284203Y720899D02*
X305207D01*
X299793Y383399D02*
X305207D01*
X300804Y575099D02*
X305196D01*
X299935Y370799D02*
X305065D01*
X274981Y520199D02*
X305019D01*
X298786Y640799D02*
X304940D01*
X300065Y425699D02*
X304935D01*
X300182Y419399D02*
X304818D01*
X300293Y364499D02*
X304707D01*
X284806Y714599D02*
X304603D01*
X300397Y377099D02*
X304603D01*
X303291Y526499D02*
X304585D01*
X300494Y389699D02*
X304506D01*
X284921Y737999D02*
X304488D01*
X301534Y581399D02*
X304466D01*
X299817Y647999D02*
X304393D01*
X285065Y732599D02*
X304345D01*
X300671Y395099D02*
X304329D01*
X285160Y719999D02*
X304249D01*
X300751Y382499D02*
X304249D01*
X300825Y369899D02*
X304175D01*
X300895Y424799D02*
X304105D01*
X301927Y575999D02*
X304073D01*
X300959Y420299D02*
X304041D01*
X301804Y521099D02*
X303991D01*
X301021Y365399D02*
X303979D01*
X285488Y715499D02*
X303922D01*
X301078Y377999D02*
X303922D01*
X301133Y390599D02*
X303867D01*
X285552Y737099D02*
X303858D01*
X285632Y733499D02*
X303777D01*
X303690Y525599D02*
X303772D01*
X301232Y394199D02*
X303768D01*
X285685Y719099D02*
X303725D01*
X301275Y381599D02*
X303725D01*
X302291Y580499D02*
X303709D01*
X301316Y368999D02*
X303684D01*
X301354Y423899D02*
X303646D01*
X301388Y421199D02*
X303612D01*
X301420Y366299D02*
X303580D01*
X285859Y716399D02*
X303551D01*
X301449Y378899D02*
X303551D01*
X301476Y391499D02*
X303524D01*
X285890Y736199D02*
X303519D01*
X302501Y576899D02*
X303499D01*
X285927Y734399D02*
X303482D01*
X301521Y393299D02*
X303479D01*
X285949Y718199D02*
X303460D01*
X301540Y380699D02*
X303460D01*
X302927Y521999D02*
X303455D01*
X301556Y368099D02*
X303444D01*
X301570Y422999D02*
X303430D01*
X301580Y422099D02*
X303420D01*
X301589Y367199D02*
X303411D01*
X286005Y717299D02*
X303405D01*
X301595Y379799D02*
X303405D01*
X301599Y392399D02*
X303401D01*
X286009Y735299D02*
X303401D01*
X294607Y566999D02*
X303393D01*
X298845Y641699D02*
X303359D01*
X302690Y579599D02*
X303310D01*
X302786Y577799D02*
X303214D01*
X299586Y647099D02*
X303159D01*
X302845Y578699D02*
X303155D01*
X294060Y559799D02*
X303015D01*
X298690Y642599D02*
X302652D01*
X294957Y553499D02*
X302589D01*
X299087Y646199D02*
X302545D01*
X295641Y560699D02*
X302359D01*
X298291Y643499D02*
X302282D01*
X298139Y645299D02*
X302234D01*
X295841Y566099D02*
X302159D01*
X297534Y644399D02*
X302151D01*
X258361Y558899D02*
X301989D01*
X242682Y554399D02*
X301774D01*
X296348Y561599D02*
X301652D01*
X296455Y565199D02*
X301545D01*
X244070Y557999D02*
X301454D01*
X243459Y555299D02*
X301342D01*
X296718Y562499D02*
X301282D01*
X296766Y564299D02*
X301234D01*
X244080Y557099D02*
X301197D01*
X243888Y556199D02*
X301162D01*
X296849Y563399D02*
X301151D01*
X298985Y460799D02*
X300940D01*
X287545Y467999D02*
X300393D01*
X294644Y528299D02*
X299373D01*
X297403Y461699D02*
X299359D01*
X295368Y467099D02*
X299159D01*
X260838Y631799D02*
X298940D01*
X297743Y462599D02*
X298652D01*
X296746Y466199D02*
X298545D01*
X297927Y638999D02*
X298393D01*
X296658Y582299D02*
X298373D01*
X297850Y463499D02*
X298282D01*
X297404Y465299D02*
X298234D01*
X276009Y521099D02*
X298196D01*
X297744Y464399D02*
X298151D01*
X295349Y527399D02*
X297466D01*
X287285Y426599D02*
X297395D01*
X260659Y632699D02*
X297359D01*
X292586Y575099D02*
X297196D01*
X296804Y638099D02*
X297159D01*
X293601Y521999D02*
X297073D01*
X295718Y526499D02*
X296709D01*
X260228Y633599D02*
X296652D01*
X274829Y774899D02*
X296639D01*
X234100Y782099D02*
X296632D01*
X243977Y418499D02*
X296606D01*
X289087Y637199D02*
X296545D01*
X294838Y522899D02*
X296499D01*
X296226Y581399D02*
X296466D01*
X295849Y525599D02*
X296310D01*
X269411Y634499D02*
X296282D01*
X241261Y363599D02*
X296239D01*
X288139Y636299D02*
X296234D01*
X295454Y523799D02*
X296214D01*
X241960Y693899D02*
X296191D01*
X295766Y524699D02*
X296155D01*
X270226Y635399D02*
X296151D01*
X292817Y575999D02*
X296073D01*
X276746Y376199D02*
X295964D01*
X243461Y749699D02*
X295857D01*
X243889Y388799D02*
X295736D01*
X234100Y743399D02*
X295719D01*
X295411Y580499D02*
X295709D01*
X292829Y576899D02*
X295499D01*
X242994Y704699D02*
X295390D01*
X234100Y672299D02*
X295373D01*
X243815Y395999D02*
X295362D01*
X291285Y579599D02*
X295310D01*
X274624Y775799D02*
X295257D01*
X241769Y781199D02*
X295254D01*
X292624Y577799D02*
X295214D01*
X292160Y578699D02*
X295155D01*
X234100Y692999D02*
X295071D01*
X276743Y370799D02*
X295065D01*
X288160Y425699D02*
X294935D01*
X243889Y748799D02*
X294912D01*
X242562Y744299D02*
X294841D01*
X243634Y419399D02*
X294818D01*
X288850Y688499D02*
X294711D01*
X242793Y364499D02*
X294707D01*
X279804Y377099D02*
X294603D01*
X274160Y776699D02*
X294597D01*
X242996Y780299D02*
X294596D01*
X294415Y454499D02*
X294589D01*
X243461Y389699D02*
X294506D01*
X286368Y692099D02*
X294498D01*
X244081Y747899D02*
X294413D01*
X243393Y745199D02*
X294377D01*
X243323Y395099D02*
X294329D01*
X288744Y689399D02*
X294311D01*
X273285Y777599D02*
X294257D01*
X243634Y779399D02*
X294256D01*
X287746Y691199D02*
X294214D01*
X290586Y665099D02*
X294196D01*
X234100Y711899D02*
X294191D01*
X244069Y746999D02*
X294182D01*
X275361Y369899D02*
X294175D01*
X243853Y746099D02*
X294171D01*
X288404Y690299D02*
X294155D01*
X243977Y778499D02*
X294150D01*
X288624Y424799D02*
X294105D01*
X287139Y420299D02*
X294041D01*
X243521Y365399D02*
X293979D01*
X280927Y377999D02*
X293922D01*
X242685Y390599D02*
X293867D01*
X290845Y681299D02*
X293861D01*
X271139Y645299D02*
X293861D01*
X287845Y614699D02*
X293857D01*
X243521Y455399D02*
X293774D01*
X242431Y394199D02*
X293768D01*
X287349Y608399D02*
X293719D01*
X288743Y687599D02*
X293715D01*
X271285Y651599D02*
X293715D01*
X243816Y368999D02*
X293684D01*
X288829Y423899D02*
X293646D01*
X288087Y421199D02*
X293612D01*
X243920Y366299D02*
X293580D01*
X281501Y378899D02*
X293551D01*
X240906Y391499D02*
X293524D01*
X234100Y393299D02*
X293479D01*
X243633Y705599D02*
X293469D01*
X241269Y671399D02*
X293466D01*
X292817Y458999D02*
X293454D01*
X244056Y368099D02*
X293444D01*
X288817Y422999D02*
X293430D01*
X288586Y422099D02*
X293420D01*
X244089Y367199D02*
X293411D01*
X281786Y379799D02*
X293405D01*
X234100Y392399D02*
X293401D01*
X291139Y456299D02*
X293342D01*
X292586Y458099D02*
X293197D01*
X289586Y638099D02*
X293196D01*
X292087Y457199D02*
X293162D01*
X290817Y665999D02*
X293073D01*
X242138Y710999D02*
X293071D01*
X290786Y682199D02*
X292913D01*
X272087Y646199D02*
X292913D01*
X287786Y613799D02*
X292912D01*
X286644Y609299D02*
X292841D01*
X288403Y686699D02*
X292840D01*
X272160Y650699D02*
X292840D01*
X243976Y706499D02*
X292711D01*
X242796Y670499D02*
X292709D01*
X287009Y467099D02*
X292632D01*
X290829Y666899D02*
X292499D01*
X243171Y710099D02*
X292498D01*
X264534Y644399D02*
X292466D01*
X290502Y683099D02*
X292414D01*
X272586Y647099D02*
X292414D01*
X287501Y612899D02*
X292413D01*
X281845Y380699D02*
X292390D01*
X285069Y610199D02*
X292377D01*
X287743Y685799D02*
X292376D01*
X272624Y649799D02*
X292376D01*
X244099Y707399D02*
X292311D01*
X289285Y669599D02*
X292310D01*
X290624Y667799D02*
X292214D01*
X243732Y709199D02*
X292214D01*
X289929Y683999D02*
X292183D01*
X272817Y647999D02*
X292183D01*
X286927Y611999D02*
X292182D01*
X285804Y611099D02*
X292171D01*
X288809Y684899D02*
X292171D01*
X272829Y648899D02*
X292171D01*
X244021Y708299D02*
X292155D01*
X290160Y668699D02*
X292155D01*
X289817Y638999D02*
X292073D01*
X259743Y559799D02*
X291940D01*
X265291Y643499D02*
X291709D01*
X289829Y639899D02*
X291499D01*
X282601Y566999D02*
X291393D01*
X288285Y642599D02*
X291310D01*
X268118Y546299D02*
X291291D01*
X285981Y466199D02*
X291254D01*
X277689Y536399D02*
X291231D01*
X289624Y640799D02*
X291214D01*
X244081Y387899D02*
X291191D01*
X289160Y641699D02*
X291155D01*
X289060Y586799D02*
X291015D01*
X282845Y465299D02*
X290596D01*
X289289Y580499D02*
X290589D01*
X281690Y381599D02*
X290469D01*
X276545Y521999D02*
X290399D01*
X243921Y218699D02*
X290390D01*
X260403Y560699D02*
X290359D01*
X282689Y464399D02*
X290256D01*
X258368Y566099D02*
X290159D01*
X282289Y463499D02*
X290150D01*
X244069Y386999D02*
X290071D01*
X269341Y529199D02*
X290069D01*
X269367Y553499D02*
X290043D01*
X250786Y448199D02*
X290019D01*
X287809Y585899D02*
X289989D01*
X287403Y623699D02*
X289857D01*
X289689Y581399D02*
X289774D01*
X269685Y547199D02*
X289725D01*
X286534Y617399D02*
X289719D01*
X281291Y382499D02*
X289711D01*
X277289Y535499D02*
X289704D01*
X260743Y561599D02*
X289652D01*
X242793Y454499D02*
X289585D01*
X259746Y565199D02*
X289545D01*
X243853Y386099D02*
X289498D01*
X288929Y584999D02*
X289454D01*
X266627Y528299D02*
X289356D01*
X280534Y383399D02*
X289311D01*
X260850Y562499D02*
X289282D01*
X260404Y564299D02*
X289234D01*
X243393Y385199D02*
X289214D01*
X243774Y225899D02*
X289191D01*
X270233Y530099D02*
X289177D01*
X270246Y552599D02*
X289163D01*
X276803Y522899D02*
X289162D01*
X278627Y384299D02*
X289155D01*
X260744Y563399D02*
X289151D01*
X250502Y449099D02*
X288991D01*
X270420Y548099D02*
X288989D01*
X276531Y534599D02*
X288978D01*
X286743Y622799D02*
X288912D01*
X284627Y618299D02*
X288841D01*
X241261Y453599D02*
X288772D01*
X270725Y530999D02*
X288685D01*
X270732Y551699D02*
X288677D01*
X268534Y527399D02*
X288651D01*
X270824Y548999D02*
X288585D01*
X274610Y533699D02*
X288579D01*
X276838Y523799D02*
X288546D01*
X243522Y219599D02*
X288469D01*
X249929Y449999D02*
X288455D01*
X270965Y531899D02*
X288444D01*
X270968Y550799D02*
X288442D01*
X285361Y621899D02*
X288413D01*
X270997Y549899D02*
X288412D01*
X270999Y532799D02*
X288411D01*
X274087Y619199D02*
X288377D01*
X234100Y452699D02*
X288341D01*
X275415Y526499D02*
X288282D01*
X276659Y524699D02*
X288234D01*
X248809Y450899D02*
X288197D01*
X274817Y620999D02*
X288182D01*
X274586Y620099D02*
X288171D01*
X234100Y451799D02*
X288162D01*
X276228Y525599D02*
X288151D01*
X243249Y224999D02*
X288071D01*
X242796Y220499D02*
X287711D01*
X242289Y224099D02*
X287498D01*
X241269Y221399D02*
X287311D01*
X234100Y223199D02*
X287214D01*
X234100Y222299D02*
X287155D01*
X266454Y586799D02*
X286940D01*
X243920Y456299D02*
X286861D01*
X283644Y573299D02*
X286861D01*
X281531Y462599D02*
X286715D01*
X244095Y677699D02*
X286390D01*
X244089Y457199D02*
X285913D01*
X282069Y574199D02*
X285913D01*
X279610Y461699D02*
X285840D01*
X244056Y458099D02*
X285414D01*
X267368Y575099D02*
X285414D01*
X274766Y578699D02*
X285390D01*
X242435Y460799D02*
X285376D01*
X274454Y577799D02*
X285376D01*
X266766Y587699D02*
X285359D01*
X243816Y458999D02*
X285183D01*
X272601Y575999D02*
X285183D01*
X243325Y459899D02*
X285171D01*
X273838Y576899D02*
X285171D01*
X276404Y663299D02*
X284861D01*
X243522Y669599D02*
X284715D01*
X266849Y588599D02*
X284652D01*
X243950Y678599D02*
X284469D01*
X266718Y589499D02*
X284282D01*
X273159Y591299D02*
X284234D01*
X265838Y585899D02*
X284191D01*
X272281Y590399D02*
X284151D01*
X242133Y683999D02*
X284071D01*
X275746Y664199D02*
X283913D01*
X270658Y636299D02*
X283861D01*
X243921Y668699D02*
X283840D01*
X265690Y642599D02*
X283715D01*
X243580Y679499D02*
X283711D01*
X243169Y684899D02*
X283639D01*
X234100Y692099D02*
X283632D01*
X234100Y683099D02*
X283498D01*
X274849Y579599D02*
X283469D01*
X274368Y665099D02*
X283414D01*
X244089Y667799D02*
X283376D01*
X273139Y618299D02*
X283373D01*
X242900Y680399D02*
X283311D01*
X234100Y682199D02*
X283214D01*
X243815Y665999D02*
X283183D01*
X244056Y666899D02*
X283171D01*
X241543Y681299D02*
X283155D01*
X264601Y584999D02*
X283071D01*
X274623Y610199D02*
X282931D01*
X270838Y637199D02*
X282913D01*
X242996Y420299D02*
X282861D01*
X265845Y641699D02*
X282840D01*
X244000Y426599D02*
X282715D01*
X274718Y580499D02*
X282711D01*
X274829Y621899D02*
X282639D01*
X260009Y629099D02*
X282632D01*
X259841Y584099D02*
X282498D01*
X270803Y638099D02*
X282414D01*
X264545Y602999D02*
X282399D01*
X268985Y640799D02*
X282376D01*
X274349Y581399D02*
X282311D01*
X243730Y685799D02*
X282257D01*
X241769Y691199D02*
X282254D01*
X272069Y583199D02*
X282214D01*
X274829Y611099D02*
X282196D01*
X270546Y638999D02*
X282183D01*
X270011Y639899D02*
X282171D01*
X273644Y582299D02*
X282155D01*
X273623Y592199D02*
X282019D01*
X241769Y421199D02*
X281913D01*
X243683Y425699D02*
X281840D01*
X244021Y686699D02*
X281597D01*
X242996Y690299D02*
X281596D01*
X234100Y472499D02*
X281585D01*
X243977Y598499D02*
X281585D01*
X269349Y617399D02*
X281466D01*
X234100Y422099D02*
X281414D01*
X243084Y424799D02*
X281376D01*
X274159Y609299D02*
X281356D01*
X244099Y687599D02*
X281257D01*
X274624Y622799D02*
X281257D01*
X243634Y689399D02*
X281256D01*
X258981Y628199D02*
X281254D01*
X234100Y422999D02*
X281183D01*
X241960Y423899D02*
X281171D01*
X264803Y603899D02*
X281162D01*
X243977Y688499D02*
X281150D01*
X274818Y611999D02*
X281073D01*
X273829Y593099D02*
X280991D01*
X263285Y471599D02*
X280772D01*
X244099Y597599D02*
X280772D01*
X269718Y616499D02*
X280709D01*
X273281Y608399D02*
X280651D01*
X274160Y623699D02*
X280597D01*
X257404Y627299D02*
X280596D01*
X264838Y604799D02*
X280546D01*
X274587Y612899D02*
X280499D01*
X273818Y593999D02*
X280455D01*
X241536Y353699D02*
X280390D01*
X241536Y713699D02*
X280373D01*
X264160Y470699D02*
X280341D01*
X272143Y596699D02*
X280341D01*
X269849Y615599D02*
X280310D01*
X263415Y607499D02*
X280282D01*
X273285Y624599D02*
X280257D01*
X257744Y626399D02*
X280256D01*
X264659Y605699D02*
X280234D01*
X274088Y613799D02*
X280214D01*
X273587Y594899D02*
X280197D01*
X264624Y469799D02*
X280162D01*
X273088Y595799D02*
X280162D01*
X273143Y614699D02*
X280155D01*
X264228Y606599D02*
X280151D01*
X257850Y625499D02*
X280150D01*
X243854Y738899D02*
X280106D01*
X268746Y574199D02*
X279931D01*
X234100Y731699D02*
X279804D01*
X242293Y720899D02*
X279616D01*
X244069Y566999D02*
X279399D01*
X242293Y360899D02*
X279191D01*
X242897Y714599D02*
X279012D01*
X244070Y737999D02*
X278898D01*
X234100Y732599D02*
X278754D01*
X243251Y719999D02*
X278659D01*
X242897Y354599D02*
X278469D01*
X234100Y461699D02*
X278390D01*
X269404Y573299D02*
X278356D01*
X243578Y715499D02*
X278331D01*
X244080Y737099D02*
X278267D01*
X240894Y733499D02*
X278187D01*
X267361Y567899D02*
X278162D01*
X243775Y719099D02*
X278134D01*
X243251Y359999D02*
X278071D01*
X243949Y716399D02*
X277960D01*
X243888Y736199D02*
X277929D01*
X242682Y734399D02*
X277892D01*
X244040Y718199D02*
X277869D01*
X244095Y717299D02*
X277814D01*
X243459Y735299D02*
X277810D01*
X243578Y355499D02*
X277711D01*
X269744Y572399D02*
X277651D01*
X268743Y568799D02*
X277546D01*
X243775Y359099D02*
X277498D01*
X242562Y384299D02*
X277373D01*
X243949Y356399D02*
X277311D01*
X269850Y571499D02*
X277282D01*
X269403Y569699D02*
X277234D01*
X244040Y358199D02*
X277214D01*
X264829Y468899D02*
X277191D01*
X244095Y357299D02*
X277155D01*
X269743Y570599D02*
X277151D01*
X242793Y544499D02*
X276585D01*
X234100Y462599D02*
X276469D01*
X275368Y377099D02*
X276196D01*
X264817Y467999D02*
X276071D01*
X241261Y543599D02*
X275772D01*
X240894Y463499D02*
X275711D01*
X264586Y467099D02*
X275498D01*
X234100Y383399D02*
X275466D01*
X234100Y542699D02*
X275341D01*
X242682Y464399D02*
X275311D01*
X264087Y466199D02*
X275214D01*
X234100Y541799D02*
X275162D01*
X263139Y465299D02*
X275155D01*
X244070Y377999D02*
X275073D01*
X234100Y382499D02*
X274709D01*
X243854Y378899D02*
X274499D01*
X240105Y381599D02*
X274310D01*
X243395Y379799D02*
X274214D01*
X242565Y380699D02*
X274155D01*
X270830Y533699D02*
X273390D01*
X250845Y483299D02*
X273373D01*
X260786Y505799D02*
X272940D01*
X234100Y412199D02*
X272931D01*
X243325Y369899D02*
X272639D01*
X244080Y377099D02*
X272632D01*
X243249Y404999D02*
X272399D01*
X243853Y476099D02*
X272196D01*
X242293Y540899D02*
X272191D01*
X244081Y657899D02*
X271639D01*
X243323Y665099D02*
X271632D01*
X270432Y534599D02*
X271469D01*
X250689Y482399D02*
X271466D01*
X260845Y506699D02*
X271359D01*
X241543Y411299D02*
X271356D01*
X242435Y370799D02*
X271257D01*
X243888Y376199D02*
X271254D01*
X243774Y405899D02*
X271162D01*
X244069Y476999D02*
X271073D01*
X243251Y539999D02*
X271071D01*
X266455Y520199D02*
X271019D01*
X269706Y535499D02*
X270711D01*
X250289Y481499D02*
X270709D01*
X260690Y507599D02*
X270652D01*
X242900Y410399D02*
X270651D01*
X264361Y486899D02*
X270639D01*
X264368Y494099D02*
X270632D01*
X234100Y371699D02*
X270597D01*
X243459Y375299D02*
X270596D01*
X269291Y526499D02*
X270585D01*
X244040Y406799D02*
X270546D01*
X244081Y477899D02*
X270499D01*
X243775Y539099D02*
X270498D01*
X268178Y536399D02*
X270311D01*
X249531Y480599D02*
X270310D01*
X260291Y508499D02*
X270282D01*
X243580Y409499D02*
X270282D01*
X234100Y372599D02*
X270257D01*
X243889Y658799D02*
X270257D01*
X242682Y374399D02*
X270256D01*
X242431Y664199D02*
X270254D01*
X244095Y407699D02*
X270234D01*
X243889Y478799D02*
X270214D01*
X244040Y538199D02*
X270214D01*
X244095Y537299D02*
X270155D01*
X247610Y479699D02*
X270155D01*
X259534Y509399D02*
X270151D01*
X243950Y408599D02*
X270151D01*
X240894Y373499D02*
X270150D01*
X267804Y521099D02*
X269991D01*
X260455Y583199D02*
X269931D01*
X269690Y525599D02*
X269772D01*
X243461Y659699D02*
X269597D01*
X234100Y663299D02*
X269596D01*
X268927Y521999D02*
X269455D01*
X243815Y575999D02*
X269399D01*
X242685Y660599D02*
X269257D01*
X265743Y487799D02*
X269257D01*
X234100Y662399D02*
X269256D01*
X265746Y493199D02*
X269254D01*
X240906Y661499D02*
X269150D01*
X241543Y771299D02*
X268861D01*
X268644Y618299D02*
X268861D01*
X254534Y608399D02*
X268719D01*
X244099Y777599D02*
X268715D01*
X257743Y624599D02*
X268715D01*
X266403Y488699D02*
X268597D01*
X266404Y492299D02*
X268596D01*
X260766Y582299D02*
X268356D01*
X266743Y489599D02*
X268257D01*
X266744Y491399D02*
X268256D01*
X244056Y576899D02*
X268162D01*
X266850Y490499D02*
X268150D01*
X243087Y340199D02*
X268019D01*
X234100Y772199D02*
X267913D01*
X267069Y619199D02*
X267913D01*
X244021Y596699D02*
X267857D01*
X252627Y609299D02*
X267841D01*
X244021Y776699D02*
X267840D01*
X257403Y623699D02*
X267840D01*
X266349Y590399D02*
X267719D01*
X260849Y581399D02*
X267651D01*
X243976Y346499D02*
X267585D01*
X258060Y577799D02*
X267546D01*
X234100Y773099D02*
X267414D01*
X243171Y620099D02*
X267414D01*
X243087Y610199D02*
X267377D01*
X243730Y775799D02*
X267376D01*
X256743Y622799D02*
X267376D01*
X260718Y580499D02*
X267282D01*
X259641Y578699D02*
X267234D01*
X242133Y773999D02*
X267183D01*
X242138Y620999D02*
X267183D01*
X241965Y611099D02*
X267171D01*
X243169Y774899D02*
X267171D01*
X255361Y621899D02*
X267171D01*
X260348Y579599D02*
X267151D01*
X241965Y341099D02*
X266991D01*
X243730Y595799D02*
X266912D01*
X264139Y645299D02*
X266861D01*
X261139Y510299D02*
X266861D01*
X265644Y591299D02*
X266841D01*
X243633Y345599D02*
X266772D01*
X264285Y651599D02*
X266715D01*
X266348Y516599D02*
X266715D01*
X234100Y341999D02*
X266455D01*
X243169Y594899D02*
X266413D01*
X264069Y592199D02*
X266377D01*
X242994Y344699D02*
X266341D01*
X234100Y342899D02*
X266197D01*
X256607Y593999D02*
X266182D01*
X257841Y593099D02*
X266171D01*
X241764Y343799D02*
X266162D01*
X265087Y646199D02*
X265913D01*
X262087Y511199D02*
X265913D01*
X265160Y650699D02*
X265840D01*
X265641Y515699D02*
X265840D01*
X243920Y546299D02*
X265701D01*
X243949Y536399D02*
X265640D01*
X262586Y512099D02*
X265414D01*
X264060Y514799D02*
X265376D01*
X244021Y528299D02*
X265373D01*
X262817Y512999D02*
X265183D01*
X262829Y513899D02*
X265171D01*
X243732Y619199D02*
X264931D01*
X244081Y567899D02*
X264639D01*
X243323Y575099D02*
X264632D01*
X259415Y634499D02*
X264589D01*
X243732Y529199D02*
X264478D01*
X260415Y553499D02*
X264452D01*
X234100Y611999D02*
X264399D01*
X259981Y547199D02*
X264134D01*
X243578Y535499D02*
X264113D01*
X243521Y635399D02*
X263774D01*
X243171Y530099D02*
X263586D01*
X261228Y552599D02*
X263572D01*
X244099Y527399D02*
X263466D01*
X261009Y548099D02*
X263399D01*
X242897Y534599D02*
X263387D01*
X244021Y618299D02*
X263356D01*
X243920Y636299D02*
X263342D01*
X243889Y568799D02*
X263257D01*
X242431Y574199D02*
X263254D01*
X244089Y637199D02*
X263162D01*
X234100Y612899D02*
X263162D01*
X242138Y530999D02*
X263094D01*
X261659Y551699D02*
X263087D01*
X261545Y548999D02*
X262994D01*
X241536Y533699D02*
X262989D01*
X234100Y531899D02*
X262854D01*
X261838Y550799D02*
X262851D01*
X261803Y549899D02*
X262822D01*
X234100Y532799D02*
X262820D01*
X243976Y526499D02*
X262709D01*
X244099Y617399D02*
X262651D01*
X243461Y569699D02*
X262597D01*
X234100Y573299D02*
X262596D01*
X241764Y613799D02*
X262546D01*
X234100Y522899D02*
X262499D01*
X243633Y525599D02*
X262310D01*
X243976Y616499D02*
X262282D01*
X242685Y570599D02*
X262257D01*
X234100Y572399D02*
X262256D01*
X242994Y614699D02*
X262234D01*
X241764Y523799D02*
X262214D01*
X242994Y524699D02*
X262155D01*
X243633Y615599D02*
X262151D01*
X240906Y571499D02*
X262150D01*
X258455Y592199D02*
X261931D01*
X249361Y486899D02*
X261639D01*
X249368Y494099D02*
X261632D01*
X258607Y584999D02*
X261399D01*
X234100Y521999D02*
X261393D01*
X258766Y591299D02*
X260356D01*
X250743Y487799D02*
X260257D01*
X250746Y493199D02*
X260254D01*
X244056Y638099D02*
X260196D01*
X243774Y585899D02*
X260162D01*
X241965Y521099D02*
X260159D01*
X243459Y645299D02*
X259861D01*
X240105Y651599D02*
X259715D01*
X258849Y590399D02*
X259651D01*
X251403Y488699D02*
X259597D01*
X251404Y492299D02*
X259596D01*
X256060Y586799D02*
X259546D01*
X243087Y520199D02*
X259545D01*
X242682Y644399D02*
X259466D01*
X244100Y517499D02*
X259282D01*
X258718Y589499D02*
X259282D01*
X251743Y489599D02*
X259257D01*
X251744Y491399D02*
X259256D01*
X257641Y587699D02*
X259234D01*
X243684Y519299D02*
X259234D01*
X244000Y518399D02*
X259151D01*
X258348Y588599D02*
X259151D01*
X251850Y490499D02*
X259150D01*
X243816Y638999D02*
X259073D01*
X241769Y601199D02*
X259019D01*
X243888Y646199D02*
X258913D01*
X243459Y465299D02*
X258861D01*
X242565Y650699D02*
X258840D01*
X240105Y471599D02*
X258715D01*
X240894Y643499D02*
X258709D01*
X255291Y607499D02*
X258585D01*
X243325Y639899D02*
X258499D01*
X244080Y647099D02*
X258414D01*
X243395Y649799D02*
X258376D01*
X234100Y642599D02*
X258310D01*
X242435Y640799D02*
X258214D01*
X244070Y647999D02*
X258183D01*
X243854Y648899D02*
X258171D01*
X234100Y641699D02*
X258155D01*
X253804Y602099D02*
X257991D01*
X243888Y466199D02*
X257913D01*
X242565Y470699D02*
X257840D01*
X255690Y606599D02*
X257772D01*
X254927Y602999D02*
X257455D01*
X244080Y467099D02*
X257414D01*
X243395Y469799D02*
X257376D01*
X255845Y605699D02*
X257341D01*
X255501Y603899D02*
X257197D01*
X244070Y467999D02*
X257183D01*
X243854Y468899D02*
X257171D01*
X255786Y604799D02*
X257162D01*
X244000Y516599D02*
X256715D01*
X244089Y547199D02*
X256019D01*
X244089Y577799D02*
X255940D01*
X243683Y515699D02*
X255840D01*
X243854Y558899D02*
X255639D01*
X243853Y566099D02*
X255632D01*
X240894Y553499D02*
X255585D01*
X243249Y584999D02*
X255393D01*
X254985Y514799D02*
X255376D01*
X254841Y503099D02*
X255196D01*
X244056Y548099D02*
X254991D01*
X234100Y552599D02*
X254772D01*
X242793Y634499D02*
X254585D01*
X243816Y548999D02*
X254455D01*
X243921Y578699D02*
X254359D01*
X234100Y551699D02*
X254341D01*
X243395Y559799D02*
X254257D01*
X243393Y565199D02*
X254254D01*
X243325Y549899D02*
X254197D01*
X242435Y550799D02*
X254162D01*
X242289Y584099D02*
X254159D01*
X253607Y503999D02*
X254073D01*
X244040Y586799D02*
X253940D01*
X241261Y633599D02*
X253772D01*
X243522Y579599D02*
X253652D01*
X242565Y560699D02*
X253597D01*
X242562Y564299D02*
X253596D01*
X234100Y583199D02*
X253545D01*
X243169Y504899D02*
X253499D01*
X243251Y629999D02*
X253455D01*
X242133Y593999D02*
X253393D01*
X234100Y632699D02*
X253341D01*
X244099Y507599D02*
X253310D01*
X242796Y580499D02*
X253282D01*
X240105Y561599D02*
X253257D01*
X234100Y563399D02*
X253256D01*
X234100Y582299D02*
X253234D01*
X243730Y505799D02*
X253214D01*
X242293Y630899D02*
X253197D01*
X234100Y631799D02*
X253162D01*
X244021Y506699D02*
X253155D01*
X241269Y581399D02*
X253151D01*
X234100Y562499D02*
X253150D01*
X234100Y621899D02*
X252639D01*
X243775Y629099D02*
X252632D01*
X244095Y587699D02*
X252359D01*
X234100Y593099D02*
X252159D01*
X243950Y588599D02*
X251652D01*
X234100Y592199D02*
X251545D01*
X243684Y609299D02*
X251373D01*
X243580Y589499D02*
X251282D01*
X234100Y622799D02*
X251257D01*
X244040Y628199D02*
X251254D01*
X241543Y591299D02*
X251234D01*
X242900Y590399D02*
X251151D01*
X243084Y514799D02*
X251015D01*
X244040Y496799D02*
X250940D01*
X241536Y623699D02*
X250597D01*
X244095Y627299D02*
X250596D01*
X243977Y508499D02*
X250589D01*
X242133Y503999D02*
X250393D01*
X242897Y624599D02*
X250257D01*
X243949Y626399D02*
X250256D01*
X234100Y602099D02*
X250196D01*
X243578Y625499D02*
X250150D01*
X241960Y513899D02*
X249989D01*
X243634Y509399D02*
X249774D01*
X244000Y608399D02*
X249466D01*
X234100Y512999D02*
X249454D01*
X244095Y497699D02*
X249359D01*
X242996Y510299D02*
X249342D01*
X234100Y512099D02*
X249197D01*
X241769Y511199D02*
X249162D01*
X234100Y503099D02*
X249159D01*
X234100Y602999D02*
X249073D01*
X244100Y607499D02*
X248709D01*
X243950Y498599D02*
X248652D01*
X234100Y502199D02*
X248545D01*
X241960Y603899D02*
X248499D01*
X244000Y606599D02*
X248310D01*
X243580Y499499D02*
X248282D01*
X241543Y501299D02*
X248234D01*
X243084Y604799D02*
X248214D01*
X243683Y605699D02*
X248155D01*
X242900Y500399D02*
X248151D01*
X242289Y494099D02*
X246632D01*
X243461Y479699D02*
X246390D01*
X241536Y443699D02*
X246390D01*
X244089Y487799D02*
X245257D01*
X234100Y493199D02*
X245254D01*
X244056Y486899D02*
X245191D01*
X242293Y450899D02*
X245191D01*
X243921Y488699D02*
X244597D01*
X234100Y492299D02*
X244596D01*
X242685Y480599D02*
X244469D01*
X242897Y444599D02*
X244469D01*
X243522Y489599D02*
X244257D01*
X241269Y491399D02*
X244256D01*
X242796Y490499D02*
X244150D01*
X243815Y485999D02*
X244071D01*
X243251Y449999D02*
X244071D01*
X240906Y481499D02*
X243711D01*
X243578Y445499D02*
X243711D01*
X243323Y485099D02*
X243498D01*
X234100Y482399D02*
X243311D01*
X242431Y484199D02*
X243214D01*
X234100Y483299D02*
X243155D01*
X234100Y741599D02*
X239895D01*
X234100Y651599D02*
X239895D01*
X234100Y561599D02*
X239895D01*
X234100Y471599D02*
X239895D01*
X234100Y381599D02*
X239895D01*
X234100Y291599D02*
X239895D01*
X234100Y733499D02*
X239106D01*
X234100Y643499D02*
X239106D01*
X234100Y553499D02*
X239106D01*
X234100Y463499D02*
X239106D01*
X234100Y373499D02*
X239106D01*
X234100Y283499D02*
X239106D01*
X234100Y751499D02*
X239094D01*
X234100Y661499D02*
X239094D01*
X234100Y571499D02*
X239094D01*
X234100Y481499D02*
X239094D01*
X234100Y391499D02*
X239094D01*
X234100Y301499D02*
X239094D01*
X234100Y211499D02*
X239094D01*
X234100Y723599D02*
X238739D01*
X234100Y633599D02*
X238739D01*
X234100Y543599D02*
X238739D01*
X234100Y453599D02*
X238739D01*
X234100Y363599D02*
X238739D01*
X234100Y273599D02*
X238739D01*
X234100Y761399D02*
X238731D01*
X234100Y671399D02*
X238731D01*
X234100Y581399D02*
X238731D01*
X234100Y491399D02*
X238731D01*
X234100Y401399D02*
X238731D01*
X234100Y311399D02*
X238731D01*
X234100Y221399D02*
X238731D01*
X234100Y713699D02*
X238464D01*
X234100Y623699D02*
X238464D01*
X234100Y533699D02*
X238464D01*
X234100Y443699D02*
X238464D01*
X234100Y353699D02*
X238464D01*
X234100Y263699D02*
X238464D01*
X234100Y771299D02*
X238457D01*
X234100Y681299D02*
X238457D01*
X234100Y591299D02*
X238457D01*
X234100Y501299D02*
X238457D01*
X234100Y411299D02*
X238457D01*
X234100Y321299D02*
X238457D01*
X234100Y231299D02*
X238457D01*
X234100Y703799D02*
X238236D01*
X234100Y613799D02*
X238236D01*
X234100Y523799D02*
X238236D01*
X234100Y433799D02*
X238236D01*
X234100Y343799D02*
X238236D01*
X234100Y253799D02*
X238236D01*
X234100Y781199D02*
X238231D01*
X234100Y691199D02*
X238231D01*
X234100Y601199D02*
X238231D01*
X234100Y511199D02*
X238231D01*
X234100Y421199D02*
X238231D01*
X234100Y331199D02*
X238231D01*
X234100Y241199D02*
X238231D01*
X234100Y693899D02*
X238040D01*
X234100Y603899D02*
X238040D01*
X234100Y513899D02*
X238040D01*
X234100Y423899D02*
X238040D01*
X234100Y333899D02*
X238040D01*
X234100Y243899D02*
X238040D01*
X234100Y701099D02*
X238035D01*
X234100Y611099D02*
X238035D01*
X234100Y521099D02*
X238035D01*
X234100Y431099D02*
X238035D01*
X234100Y341099D02*
X238035D01*
X234100Y251099D02*
X238035D01*
X234100Y773999D02*
X237867D01*
X234100Y683999D02*
X237867D01*
X234100Y593999D02*
X237867D01*
X234100Y503999D02*
X237867D01*
X234100Y413999D02*
X237867D01*
X234100Y323999D02*
X237867D01*
X234100Y233999D02*
X237867D01*
X234100Y710999D02*
X237862D01*
X234100Y620999D02*
X237862D01*
X234100Y530999D02*
X237862D01*
X234100Y440999D02*
X237862D01*
X234100Y350999D02*
X237862D01*
X234100Y260999D02*
X237862D01*
X234100Y764099D02*
X237711D01*
X234100Y674099D02*
X237711D01*
X234100Y584099D02*
X237711D01*
X234100Y494099D02*
X237711D01*
X234100Y404099D02*
X237711D01*
X234100Y314099D02*
X237711D01*
X234100Y224099D02*
X237711D01*
X234100Y720899D02*
X237707D01*
X234100Y630899D02*
X237707D01*
X234100Y540899D02*
X237707D01*
X234100Y450899D02*
X237707D01*
X234100Y360899D02*
X237707D01*
X234100Y270899D02*
X237707D01*
X234100Y754199D02*
X237569D01*
X234100Y664199D02*
X237569D01*
X234100Y574199D02*
X237569D01*
X234100Y484199D02*
X237569D01*
X234100Y394199D02*
X237569D01*
X234100Y304199D02*
X237569D01*
X234100Y214199D02*
X237569D01*
X234100Y730799D02*
X237565D01*
X234100Y640799D02*
X237565D01*
X234100Y550799D02*
X237565D01*
X234100Y460799D02*
X237565D01*
X234100Y370799D02*
X237565D01*
X234100Y280799D02*
X237565D01*
X234100Y744299D02*
X237438D01*
X234100Y654299D02*
X237438D01*
X234100Y564299D02*
X237438D01*
X234100Y474299D02*
X237438D01*
X234100Y384299D02*
X237438D01*
X234100Y294299D02*
X237438D01*
X234100Y204299D02*
X237438D01*
X234100Y740699D02*
X237435D01*
X234100Y650699D02*
X237435D01*
X234100Y560699D02*
X237435D01*
X234100Y470699D02*
X237435D01*
X234100Y380699D02*
X237435D01*
X234100Y290699D02*
X237435D01*
X234100Y734399D02*
X237318D01*
X234100Y644399D02*
X237318D01*
X234100Y554399D02*
X237318D01*
X234100Y464399D02*
X237318D01*
X234100Y374399D02*
X237318D01*
X234100Y284399D02*
X237318D01*
X234100Y750599D02*
X237315D01*
X234100Y660599D02*
X237315D01*
X234100Y570599D02*
X237315D01*
X234100Y480599D02*
X237315D01*
X234100Y390599D02*
X237315D01*
X234100Y300599D02*
X237315D01*
X234100Y210599D02*
X237315D01*
X234100Y724499D02*
X237207D01*
X234100Y634499D02*
X237207D01*
X234100Y544499D02*
X237207D01*
X234100Y454499D02*
X237207D01*
X234100Y364499D02*
X237207D01*
X234100Y274499D02*
X237207D01*
X234100Y760499D02*
X237204D01*
X234100Y670499D02*
X237204D01*
X234100Y580499D02*
X237204D01*
X234100Y490499D02*
X237204D01*
X234100Y400499D02*
X237204D01*
X234100Y310499D02*
X237204D01*
X234100Y220499D02*
X237204D01*
X234100Y714599D02*
X237103D01*
X234100Y624599D02*
X237103D01*
X234100Y534599D02*
X237103D01*
X234100Y444599D02*
X237103D01*
X234100Y354599D02*
X237103D01*
X234100Y264599D02*
X237103D01*
X234100Y770399D02*
X237100D01*
X234100Y680399D02*
X237100D01*
X234100Y590399D02*
X237100D01*
X234100Y500399D02*
X237100D01*
X234100Y410399D02*
X237100D01*
X234100Y320399D02*
X237100D01*
X234100Y230399D02*
X237100D01*
X234100Y704699D02*
X237006D01*
X234100Y614699D02*
X237006D01*
X234100Y524699D02*
X237006D01*
X234100Y434699D02*
X237006D01*
X234100Y344699D02*
X237006D01*
X234100Y254699D02*
X237006D01*
X234100Y780299D02*
X237004D01*
X234100Y690299D02*
X237004D01*
X234100Y600299D02*
X237004D01*
X234100Y510299D02*
X237004D01*
X234100Y420299D02*
X237004D01*
X234100Y330299D02*
X237004D01*
X234100Y240299D02*
X237004D01*
X234100Y694799D02*
X236916D01*
X234100Y604799D02*
X236916D01*
X234100Y514799D02*
X236916D01*
X234100Y424799D02*
X236916D01*
X234100Y334799D02*
X236916D01*
X234100Y244799D02*
X236916D01*
X234100Y700199D02*
X236913D01*
X234100Y610199D02*
X236913D01*
X234100Y520199D02*
X236913D01*
X234100Y430199D02*
X236913D01*
X234100Y340199D02*
X236913D01*
X234100Y250199D02*
X236913D01*
X234100Y774899D02*
X236831D01*
X234100Y684899D02*
X236831D01*
X234100Y594899D02*
X236831D01*
X234100Y504899D02*
X236831D01*
X234100Y414899D02*
X236831D01*
X234100Y324899D02*
X236831D01*
X234100Y234899D02*
X236831D01*
X234100Y710099D02*
X236829D01*
X234100Y620099D02*
X236829D01*
X234100Y530099D02*
X236829D01*
X234100Y440099D02*
X236829D01*
X234100Y350099D02*
X236829D01*
X234100Y260099D02*
X236829D01*
X234100Y764999D02*
X236751D01*
X234100Y674999D02*
X236751D01*
X234100Y584999D02*
X236751D01*
X234100Y494999D02*
X236751D01*
X234100Y404999D02*
X236751D01*
X234100Y314999D02*
X236751D01*
X234100Y224999D02*
X236751D01*
X234100Y719999D02*
X236749D01*
X234100Y629999D02*
X236749D01*
X234100Y539999D02*
X236749D01*
X234100Y449999D02*
X236749D01*
X234100Y359999D02*
X236749D01*
X234100Y269999D02*
X236749D01*
X234100Y755099D02*
X236677D01*
X234100Y665099D02*
X236677D01*
X234100Y575099D02*
X236677D01*
X234100Y485099D02*
X236677D01*
X234100Y395099D02*
X236677D01*
X234100Y305099D02*
X236677D01*
X234100Y215099D02*
X236677D01*
X234100Y729899D02*
X236675D01*
X234100Y639899D02*
X236675D01*
X234100Y549899D02*
X236675D01*
X234100Y459899D02*
X236675D01*
X234100Y369899D02*
X236675D01*
X234100Y279899D02*
X236675D01*
X234100Y745199D02*
X236607D01*
X234100Y655199D02*
X236607D01*
X234100Y565199D02*
X236607D01*
X234100Y475199D02*
X236607D01*
X234100Y385199D02*
X236607D01*
X234100Y295199D02*
X236607D01*
X234100Y205199D02*
X236607D01*
X234100Y739799D02*
X236605D01*
X234100Y649799D02*
X236605D01*
X234100Y559799D02*
X236605D01*
X234100Y469799D02*
X236605D01*
X234100Y379799D02*
X236605D01*
X234100Y289799D02*
X236605D01*
X234100Y735299D02*
X236541D01*
X234100Y645299D02*
X236541D01*
X234100Y555299D02*
X236541D01*
X234100Y465299D02*
X236541D01*
X234100Y375299D02*
X236541D01*
X234100Y285299D02*
X236541D01*
X234100Y749699D02*
X236539D01*
X234100Y659699D02*
X236539D01*
X234100Y569699D02*
X236539D01*
X234100Y479699D02*
X236539D01*
X234100Y389699D02*
X236539D01*
X234100Y299699D02*
X236539D01*
X234100Y209699D02*
X236539D01*
X234100Y725399D02*
X236479D01*
X234100Y635399D02*
X236479D01*
X234100Y545399D02*
X236479D01*
X234100Y455399D02*
X236479D01*
X234100Y365399D02*
X236479D01*
X234100Y275399D02*
X236479D01*
X234100Y759599D02*
X236478D01*
X234100Y669599D02*
X236478D01*
X234100Y579599D02*
X236478D01*
X234100Y489599D02*
X236478D01*
X234100Y399599D02*
X236478D01*
X234100Y309599D02*
X236478D01*
X234100Y219599D02*
X236478D01*
X234100Y715499D02*
X236422D01*
X234100Y625499D02*
X236422D01*
X234100Y535499D02*
X236422D01*
X234100Y445499D02*
X236422D01*
X234100Y355499D02*
X236422D01*
X234100Y265499D02*
X236422D01*
X234100Y769499D02*
X236420D01*
X234100Y679499D02*
X236420D01*
X234100Y589499D02*
X236420D01*
X234100Y499499D02*
X236420D01*
X234100Y409499D02*
X236420D01*
X234100Y319499D02*
X236420D01*
X234100Y229499D02*
X236420D01*
X234100Y705599D02*
X236367D01*
X234100Y615599D02*
X236367D01*
X234100Y525599D02*
X236367D01*
X234100Y435599D02*
X236367D01*
X234100Y345599D02*
X236367D01*
X234100Y255599D02*
X236367D01*
X234100Y779399D02*
X236366D01*
X234100Y689399D02*
X236366D01*
X234100Y599399D02*
X236366D01*
X234100Y509399D02*
X236366D01*
X234100Y419399D02*
X236366D01*
X234100Y329399D02*
X236366D01*
X234100Y239399D02*
X236366D01*
X234100Y695699D02*
X236317D01*
X234100Y605699D02*
X236317D01*
X234100Y515699D02*
X236317D01*
X234100Y425699D02*
X236317D01*
X234100Y335699D02*
X236317D01*
X234100Y245699D02*
X236317D01*
X234100Y699299D02*
X236316D01*
X234100Y609299D02*
X236316D01*
X234100Y519299D02*
X236316D01*
X234100Y429299D02*
X236316D01*
X234100Y339299D02*
X236316D01*
X234100Y249299D02*
X236316D01*
X234100Y775799D02*
X236270D01*
X234100Y685799D02*
X236270D01*
X234100Y595799D02*
X236270D01*
X234100Y505799D02*
X236270D01*
X234100Y415799D02*
X236270D01*
X234100Y325799D02*
X236270D01*
X234100Y235799D02*
X236270D01*
X234100Y709199D02*
X236268D01*
X234100Y619199D02*
X236268D01*
X234100Y529199D02*
X236268D01*
X234100Y439199D02*
X236268D01*
X234100Y349199D02*
X236268D01*
X234100Y259199D02*
X236268D01*
X234100Y765899D02*
X236226D01*
X234100Y675899D02*
X236226D01*
X234100Y585899D02*
X236226D01*
X234100Y495899D02*
X236226D01*
X234100Y405899D02*
X236226D01*
X234100Y315899D02*
X236226D01*
X234100Y225899D02*
X236226D01*
X234100Y719099D02*
X236225D01*
X234100Y629099D02*
X236225D01*
X234100Y539099D02*
X236225D01*
X234100Y449099D02*
X236225D01*
X234100Y359099D02*
X236225D01*
X234100Y269099D02*
X236225D01*
X234100Y755999D02*
X236185D01*
X234100Y665999D02*
X236185D01*
X234100Y575999D02*
X236185D01*
X234100Y485999D02*
X236185D01*
X234100Y395999D02*
X236185D01*
X234100Y305999D02*
X236185D01*
X234100Y215999D02*
X236185D01*
X234100Y728999D02*
X236184D01*
X234100Y638999D02*
X236184D01*
X234100Y548999D02*
X236184D01*
X234100Y458999D02*
X236184D01*
X234100Y368999D02*
X236184D01*
X234100Y278999D02*
X236184D01*
X234100Y746099D02*
X236147D01*
X234100Y656099D02*
X236147D01*
X234100Y566099D02*
X236147D01*
X234100Y476099D02*
X236147D01*
X234100Y386099D02*
X236147D01*
X234100Y296099D02*
X236147D01*
X234100Y206099D02*
X236147D01*
X234100Y738899D02*
X236146D01*
X234100Y648899D02*
X236146D01*
X234100Y558899D02*
X236146D01*
X234100Y468899D02*
X236146D01*
X234100Y378899D02*
X236146D01*
X234100Y288899D02*
X236146D01*
X234100Y736199D02*
X236112D01*
X234100Y646199D02*
X236112D01*
X234100Y556199D02*
X236112D01*
X234100Y466199D02*
X236112D01*
X234100Y376199D02*
X236112D01*
X234100Y286199D02*
X236112D01*
X234100Y748799D02*
X236111D01*
X234100Y658799D02*
X236111D01*
X234100Y568799D02*
X236111D01*
X234100Y478799D02*
X236111D01*
X234100Y388799D02*
X236111D01*
X234100Y298799D02*
X236111D01*
X234100Y208799D02*
X236111D01*
X234100Y726299D02*
X236080D01*
X234100Y636299D02*
X236080D01*
X234100Y546299D02*
X236080D01*
X234100Y456299D02*
X236080D01*
X234100Y366299D02*
X236080D01*
X234100Y276299D02*
X236080D01*
X234100Y758699D02*
X236079D01*
X234100Y668699D02*
X236079D01*
X234100Y578699D02*
X236079D01*
X234100Y488699D02*
X236079D01*
X234100Y398699D02*
X236079D01*
X234100Y308699D02*
X236079D01*
X234100Y218699D02*
X236079D01*
X234100Y716399D02*
X236051D01*
X234100Y626399D02*
X236051D01*
X234100Y536399D02*
X236051D01*
X234100Y446399D02*
X236051D01*
X234100Y356399D02*
X236051D01*
X234100Y266399D02*
X236051D01*
X234100Y768599D02*
X236050D01*
X234100Y678599D02*
X236050D01*
X234100Y588599D02*
X236050D01*
X234100Y498599D02*
X236050D01*
X234100Y408599D02*
X236050D01*
X234100Y318599D02*
X236050D01*
X234100Y228599D02*
X236050D01*
X234100Y706499D02*
X236024D01*
X234100Y616499D02*
X236024D01*
X234100Y526499D02*
X236024D01*
X234100Y436499D02*
X236024D01*
X234100Y346499D02*
X236024D01*
X234100Y256499D02*
X236024D01*
X234100Y778499D02*
X236023D01*
X234100Y688499D02*
X236023D01*
X234100Y598499D02*
X236023D01*
X234100Y508499D02*
X236023D01*
X234100Y418499D02*
X236023D01*
X234100Y328499D02*
X236023D01*
X234100Y238499D02*
X236023D01*
X234100Y696599D02*
X236000D01*
X234100Y606599D02*
X236000D01*
X234100Y516599D02*
X236000D01*
X234100Y426599D02*
X236000D01*
X234100Y336599D02*
X236000D01*
X234100Y246599D02*
X236000D01*
X234100Y698399D02*
X236000D01*
X234100Y608399D02*
X236000D01*
X234100Y518399D02*
X236000D01*
X234100Y428399D02*
X236000D01*
X234100Y338399D02*
X236000D01*
X234100Y248399D02*
X236000D01*
X234100Y776699D02*
X235979D01*
X234100Y686699D02*
X235979D01*
X234100Y596699D02*
X235979D01*
X234100Y506699D02*
X235979D01*
X234100Y416699D02*
X235979D01*
X234100Y326699D02*
X235979D01*
X234100Y236699D02*
X235979D01*
X234100Y708299D02*
X235979D01*
X234100Y618299D02*
X235979D01*
X234100Y528299D02*
X235979D01*
X234100Y438299D02*
X235979D01*
X234100Y348299D02*
X235979D01*
X234100Y258299D02*
X235979D01*
X234100Y766799D02*
X235960D01*
X234100Y676799D02*
X235960D01*
X234100Y586799D02*
X235960D01*
X234100Y496799D02*
X235960D01*
X234100Y406799D02*
X235960D01*
X234100Y316799D02*
X235960D01*
X234100Y226799D02*
X235960D01*
X234100Y718199D02*
X235960D01*
X234100Y628199D02*
X235960D01*
X234100Y538199D02*
X235960D01*
X234100Y448199D02*
X235960D01*
X234100Y358199D02*
X235960D01*
X234100Y268199D02*
X235960D01*
X234100Y756899D02*
X235944D01*
X234100Y666899D02*
X235944D01*
X234100Y576899D02*
X235944D01*
X234100Y486899D02*
X235944D01*
X234100Y396899D02*
X235944D01*
X234100Y306899D02*
X235944D01*
X234100Y216899D02*
X235944D01*
X234100Y728099D02*
X235944D01*
X234100Y638099D02*
X235944D01*
X234100Y548099D02*
X235944D01*
X234100Y458099D02*
X235944D01*
X234100Y368099D02*
X235944D01*
X234100Y278099D02*
X235944D01*
X234100Y746999D02*
X235931D01*
X234100Y656999D02*
X235931D01*
X234100Y566999D02*
X235931D01*
X234100Y476999D02*
X235931D01*
X234100Y386999D02*
X235931D01*
X234100Y296999D02*
X235931D01*
X234100Y206999D02*
X235931D01*
X234100Y737999D02*
X235930D01*
X234100Y647999D02*
X235930D01*
X234100Y557999D02*
X235930D01*
X234100Y467999D02*
X235930D01*
X234100Y377999D02*
X235930D01*
X234100Y287999D02*
X235930D01*
X234100Y737099D02*
X235920D01*
X234100Y647099D02*
X235920D01*
X234100Y557099D02*
X235920D01*
X234100Y467099D02*
X235920D01*
X234100Y377099D02*
X235920D01*
X234100Y287099D02*
X235920D01*
X234100Y747899D02*
X235919D01*
X234100Y657899D02*
X235919D01*
X234100Y567899D02*
X235919D01*
X234100Y477899D02*
X235919D01*
X234100Y387899D02*
X235919D01*
X234100Y297899D02*
X235919D01*
X234100Y207899D02*
X235919D01*
X234100Y727199D02*
X235911D01*
X234100Y637199D02*
X235911D01*
X234100Y547199D02*
X235911D01*
X234100Y457199D02*
X235911D01*
X234100Y367199D02*
X235911D01*
X234100Y277199D02*
X235911D01*
X234100Y757799D02*
X235911D01*
X234100Y667799D02*
X235911D01*
X234100Y577799D02*
X235911D01*
X234100Y487799D02*
X235911D01*
X234100Y397799D02*
X235911D01*
X234100Y307799D02*
X235911D01*
X234100Y217799D02*
X235911D01*
X234100Y717299D02*
X235905D01*
X234100Y627299D02*
X235905D01*
X234100Y537299D02*
X235905D01*
X234100Y447299D02*
X235905D01*
X234100Y357299D02*
X235905D01*
X234100Y267299D02*
X235905D01*
X234100Y767699D02*
X235905D01*
X234100Y677699D02*
X235905D01*
X234100Y587699D02*
X235905D01*
X234100Y497699D02*
X235905D01*
X234100Y407699D02*
X235905D01*
X234100Y317699D02*
X235905D01*
X234100Y227699D02*
X235905D01*
X234100Y707399D02*
X235901D01*
X234100Y617399D02*
X235901D01*
X234100Y527399D02*
X235901D01*
X234100Y437399D02*
X235901D01*
X234100Y347399D02*
X235901D01*
X234100Y257399D02*
X235901D01*
X234100Y777599D02*
X235901D01*
X234100Y687599D02*
X235901D01*
X234100Y597599D02*
X235901D01*
X234100Y507599D02*
X235901D01*
X234100Y417599D02*
X235901D01*
X234100Y327599D02*
X235901D01*
X234100Y237599D02*
X235901D01*
X234100Y697499D02*
X235900D01*
X234100Y607499D02*
X235900D01*
X234100Y517499D02*
X235900D01*
X234100Y427499D02*
X235900D01*
X234100Y337499D02*
X235900D01*
X234100Y247499D02*
X235900D01*
X232500Y200000D02*
X435000D01*
Y240000*
X405000*
Y250000*
X435000*
Y267500*
X405000*
Y792500*
X232500*
Y200000*
G54D20*
X367213Y291509D03*
X381500Y481500D03*
X371500D03*
X361500D03*
X351500D03*
X387500Y367500D03*
X240000Y757500D03*
G54D29*
X407000Y206500D03*
X312000Y464500D03*
X274000Y509500D03*
X336000Y499500D03*
X349000Y506500D03*
X323000Y517500D03*
X368000Y553500D03*
X305000Y563500D03*
X319000D03*
X341000Y556500D03*
X289000Y576500D03*
X335000D03*
X261000Y604500D03*
X284000Y614500D03*
X369000Y595500D03*
X356000Y617500D03*
X296000Y648500D03*
X313000Y661500D03*
X328000D03*
X340000D03*
X287000Y681500D03*
X329000Y692500D03*
X394000Y677500D03*
X361000Y696500D03*
X316000Y717500D03*
X356000Y727500D03*
G54D34*
X242899Y760399D02*
X242121Y759621D01*
X237101Y760399D02*
X237879Y759621D01*
X237101Y754601D02*
X237879Y755379D01*
X242899Y754601D02*
X242121Y755379D01*
X354399Y484399D02*
X353621Y483621D01*
X348601Y484399D02*
X349379Y483621D01*
X348601Y478601D02*
X349379Y479379D01*
X354399Y478601D02*
X353621Y479379D01*
X384601Y364601D02*
X385379Y365379D01*
X390399Y364601D02*
X389621Y365379D01*
X390399Y370399D02*
X389621Y369621D01*
X384601Y370399D02*
X385379Y369621D01*
X364399Y484399D02*
X363621Y483621D01*
X358601Y484399D02*
X359379Y483621D01*
X358601Y478601D02*
X359379Y479379D01*
X364399Y478601D02*
X363621Y479379D01*
X374399Y484399D02*
X373621Y483621D01*
X368601Y484399D02*
X369379Y483621D01*
X368601Y478601D02*
X369379Y479379D01*
X374399Y478601D02*
X373621Y479379D01*
X384399Y484399D02*
X383621Y483621D01*
X378601Y484399D02*
X379379Y483621D01*
X378601Y478601D02*
X379379Y479379D01*
X384399Y478601D02*
X383621Y479379D01*
X364314Y294408D02*
X365092Y293630D01*
X364314Y288610D02*
X365092Y289387D01*
X370112Y288610D02*
X369334Y289387D01*
X370112Y294408D02*
X369334Y293630D01*
X289722Y684222D02*
X288945Y683445D01*
X284278Y684222D02*
X285055Y683445D01*
X284278Y678778D02*
X285055Y679555D01*
X289722Y678778D02*
X288945Y679555D01*
X298722Y651222D02*
X297945Y650445D01*
X293278Y651222D02*
X294055Y650445D01*
X293278Y645778D02*
X294055Y646555D01*
X298722Y645778D02*
X297945Y646555D01*
X315722Y664222D02*
X314945Y663445D01*
X310278Y664222D02*
X311055Y663445D01*
X310278Y658778D02*
X311055Y659555D01*
X315722Y658778D02*
X314945Y659555D01*
X330722Y664222D02*
X329945Y663445D01*
X325278Y664222D02*
X326055Y663445D01*
X325278Y658778D02*
X326055Y659555D01*
X330722Y658778D02*
X329945Y659555D01*
X342722Y664222D02*
X341945Y663445D01*
X337278Y664222D02*
X338055Y663445D01*
X337278Y658778D02*
X338055Y659555D01*
X342722Y658778D02*
X341945Y659555D01*
X358722Y620222D02*
X357945Y619445D01*
X353278Y620222D02*
X354055Y619445D01*
X353278Y614778D02*
X354055Y615555D01*
X358722Y614778D02*
X357945Y615555D01*
X371722Y598222D02*
X370945Y597445D01*
X366278Y598222D02*
X367055Y597445D01*
X366278Y592778D02*
X367055Y593555D01*
X337722Y579222D02*
X336945Y578445D01*
X332278Y579222D02*
X333055Y578445D01*
X332278Y573778D02*
X333055Y574555D01*
X337722Y573778D02*
X336945Y574555D01*
X321722Y566222D02*
X320945Y565445D01*
X316278Y566222D02*
X317055Y565445D01*
X316278Y560778D02*
X317055Y561555D01*
X321722Y560778D02*
X320945Y561555D01*
X307722Y566222D02*
X306945Y565445D01*
X302278Y566222D02*
X303055Y565445D01*
X302278Y560778D02*
X303055Y561555D01*
X307722Y560778D02*
X306945Y561555D01*
X291722Y579222D02*
X290945Y578445D01*
X286278Y573778D02*
X287055Y574555D01*
X291722Y573778D02*
X290945Y574555D01*
X263722Y607222D02*
X262945Y606445D01*
X258278Y607222D02*
X259055Y606445D01*
X258278Y601778D02*
X259055Y602555D01*
X263722Y601778D02*
X262945Y602555D01*
X286722Y617222D02*
X285945Y616445D01*
X281278Y617222D02*
X282055Y616445D01*
X281278Y611778D02*
X282055Y612555D01*
X286722Y611778D02*
X285945Y612555D01*
X314722Y467222D02*
X313945Y466445D01*
X309278Y467222D02*
X310055Y466445D01*
X309278Y461778D02*
X310055Y462555D01*
X314722Y461778D02*
X313945Y462555D01*
X276722Y512222D02*
X275945Y511445D01*
X271278Y506778D02*
X272055Y507555D01*
X276722Y506778D02*
X275945Y507555D01*
X325722Y520222D02*
X324945Y519445D01*
X320278Y520222D02*
X321055Y519445D01*
X320278Y514778D02*
X321055Y515555D01*
X325722Y514778D02*
X324945Y515555D01*
X331722Y695222D02*
X330945Y694445D01*
X326278Y695222D02*
X327055Y694445D01*
X326278Y689778D02*
X327055Y690555D01*
X331722Y689778D02*
X330945Y690555D01*
X318722Y720222D02*
X317945Y719445D01*
X313278Y720222D02*
X314055Y719445D01*
X313278Y714778D02*
X314055Y715555D01*
X318722Y714778D02*
X317945Y715555D01*
X351722Y509222D02*
X350945Y508445D01*
X346278Y509222D02*
X347055Y508445D01*
X346278Y503778D02*
X347055Y504555D01*
X351722Y503778D02*
X350945Y504555D01*
X363722Y699222D02*
X362945Y698445D01*
X358278Y699222D02*
X359055Y698445D01*
X358278Y693778D02*
X359055Y694555D01*
X343722Y559222D02*
X342945Y558445D01*
X338278Y559222D02*
X339055Y558445D01*
X338278Y553778D02*
X339055Y554555D01*
X343722Y553778D02*
X342945Y554555D01*
X358722Y730222D02*
X357945Y729445D01*
X353278Y730222D02*
X354055Y729445D01*
X353278Y724778D02*
X354055Y725555D01*
X358722Y724778D02*
X357945Y725555D01*
X370722Y556222D02*
X369945Y555445D01*
X365278Y556222D02*
X366055Y555445D01*
X365278Y550778D02*
X366055Y551555D01*
X370722Y550778D02*
X369945Y551555D01*
X396722Y680222D02*
X395945Y679445D01*
X391278Y680222D02*
X392055Y679445D01*
X391278Y674778D02*
X392055Y675555D01*
X396722Y674778D02*
X395945Y675555D01*
X409722Y209222D02*
X408945Y208445D01*
X404278Y209222D02*
X405055Y208445D01*
X404278Y203778D02*
X405055Y204555D01*
X409722Y203778D02*
X408945Y204555D01*
X333278Y502222D02*
X334055Y501445D01*
X338722Y496778D02*
X337945Y497555D01*
G74*
X0Y0D02*
M02*
