*
*
G04 PADS VX.2.1 Build Number: 6554490 generated Gerber (RS-274-X) file*
G04 PC Version=2.1*
*
%IN "microp-revised-board.pc"*%
*
%MOIN*%
*
%FSLAX35Y35*%
*
*
*
*
G04 PC Standard Apertures*
*
*
G04 Thermal Relief Aperture macro.*
%AMTER*
1,1,$1,0,0*
1,0,$1-$2,0,0*
21,0,$3,$4,0,0,45*
21,0,$3,$4,0,0,135*
%
*
*
G04 Annular Aperture macro.*
%AMANN*
1,1,$1,0,0*
1,0,$2,0,0*
%
*
*
G04 Odd Aperture macro.*
%AMODD*
1,1,$1,0,0*
1,0,$1-0.005,0,0*
%
*
*
G04 PC Custom Aperture Macros*
*
*
*
*
*
*
G04 PC Aperture Table*
*
%ADD010C,0.001*%
%ADD011C,0.01*%
%ADD012C,0.0015*%
%ADD013C,0.005*%
%ADD030C,0.012*%
%ADD031C,0.00787*%
%ADD033C,0.00787*%
*
*
*
*
G04 PC Circuitry*
G04 Layer Name microp-revised-board.pc - circuitry*
%LPD*%
*
G54D10*
G01X295432Y643321D02*
X295035Y644510D01*
X294240Y645703*
X292644Y646501*
X291048Y646900*
X289453Y646501*
X287852Y645701*
X287061Y644910*
X286664Y643323*
X287061Y641735*
X287852Y640944*
X289453Y640144*
X291048Y639745*
X294243Y640544*
X295034Y641730*
X295432Y643321*
X286700Y643180D02*
Y643465D01*
X286800Y642780D02*
Y643865D01*
X286900Y642380D02*
Y644265D01*
X287000Y641980D02*
Y644665D01*
X287100Y641697D02*
Y644949D01*
X287200Y641597D02*
Y645049D01*
X287300Y641497D02*
Y645149D01*
X287400Y641397D02*
Y645249D01*
X287500Y641297D02*
Y645349D01*
X287600Y641197D02*
Y645449D01*
X287700Y641097D02*
Y645549D01*
X287800Y640997D02*
Y645649D01*
X287900Y640920D02*
Y645725D01*
X288000Y640870D02*
Y645775D01*
X288100Y640820D02*
Y645825D01*
X288200Y640770D02*
Y645875D01*
X288300Y640720D02*
Y645925D01*
X288400Y640670D02*
Y645975D01*
X288500Y640620D02*
Y646025D01*
X288600Y640570D02*
Y646075D01*
X288700Y640520D02*
Y646125D01*
X288800Y640470D02*
Y646175D01*
X288900Y640420D02*
Y646225D01*
X289000Y640370D02*
Y646275D01*
X289100Y640320D02*
Y646325D01*
X289200Y640270D02*
Y646375D01*
X289300Y640220D02*
Y646425D01*
X289400Y640170D02*
Y646475D01*
X289500Y640132D02*
Y646513D01*
X289600Y640107D02*
Y646538D01*
X289700Y640082D02*
Y646563D01*
X289800Y640057D02*
Y646588D01*
X289900Y640032D02*
Y646613D01*
X290000Y640007D02*
Y646638D01*
X290100Y639982D02*
Y646663D01*
X290200Y639957D02*
Y646688D01*
X290300Y639932D02*
Y646713D01*
X290400Y639907D02*
Y646738D01*
X290500Y639882D02*
Y646763D01*
X290600Y639857D02*
Y646788D01*
X290700Y639832D02*
Y646813D01*
X290800Y639807D02*
Y646838D01*
X290900Y639782D02*
Y646863D01*
X291000Y639757D02*
Y646888D01*
X291100Y639758D02*
Y646887D01*
X291200Y639783D02*
Y646862D01*
X291300Y639808D02*
Y646837D01*
X291400Y639833D02*
Y646812D01*
X291500Y639858D02*
Y646787D01*
X291600Y639883D02*
Y646762D01*
X291700Y639908D02*
Y646737D01*
X291800Y639933D02*
Y646712D01*
X291900Y639958D02*
Y646687D01*
X292000Y639983D02*
Y646662D01*
X292100Y640008D02*
Y646637D01*
X292200Y640033D02*
Y646612D01*
X292300Y640058D02*
Y646587D01*
X292400Y640083D02*
Y646562D01*
X292500Y640108D02*
Y646537D01*
X292600Y640133D02*
Y646512D01*
X292700Y640158D02*
Y646473D01*
X292800Y640183D02*
Y646423D01*
X292900Y640208D02*
Y646373D01*
X293000Y640233D02*
Y646323D01*
X293100Y640258D02*
Y646273D01*
X293200Y640283D02*
Y646223D01*
X293300Y640308D02*
Y646173D01*
X293400Y640333D02*
Y646123D01*
X293500Y640358D02*
Y646073D01*
X293600Y640383D02*
Y646023D01*
X293700Y640408D02*
Y645973D01*
X293800Y640433D02*
Y645923D01*
X293900Y640458D02*
Y645873D01*
X294000Y640483D02*
Y645823D01*
X294100Y640508D02*
Y645773D01*
X294200Y640533D02*
Y645723D01*
X294300Y640629D02*
Y645613D01*
X294400Y640779D02*
Y645463D01*
X294500Y640929D02*
Y645313D01*
X294600Y641079D02*
Y645163D01*
X294700Y641229D02*
Y645013D01*
X294800Y641379D02*
Y644863D01*
X294900Y641529D02*
Y644713D01*
X295000Y641679D02*
Y644563D01*
X295100Y641993D02*
Y644316D01*
X295200Y642393D02*
Y644016D01*
X295300Y642793D02*
Y643716D01*
X295400Y643193D02*
Y643416D01*
*
G04 PC Custom Flashes*
G04 Layer Name microp-revised-board.pc - flashes*
%LPD*%
*
*
G04 PC Circuitry*
G04 Layer Name microp-revised-board.pc - circuitry*
%LPD*%
*
G54D10*
G54D11*
X405500Y267500D02*
X433500D01*
Y250250*
X405900*
Y241350*
X433500*
Y200800*
X405500*
Y267500*
X380500Y651000D02*
Y643000D01*
X389500*
Y651000*
X380500Y654000D02*
Y662000D01*
X389500*
Y654000*
X380500Y626000D02*
Y618000D01*
X389500*
Y626000*
X380500Y629000D02*
Y637000D01*
X389500*
Y629000*
X380500Y601000D02*
Y593000D01*
X389500*
Y601000*
X380500Y604000D02*
Y612000D01*
X389500*
Y604000*
X380500Y576000D02*
Y568000D01*
X389500*
Y576000*
X380500Y579000D02*
Y587000D01*
X389500*
Y579000*
X381000Y699500D02*
X373000D01*
Y690500*
X381000*
X384000Y699500D02*
X392000D01*
Y690500*
X384000*
Y673000D02*
X392000D01*
Y682000*
X384000*
X381000Y673000D02*
X373000D01*
Y682000*
X381000*
X378500Y557000D02*
X370500D01*
Y548000*
X378500*
X381500Y557000D02*
X389500D01*
Y548000*
X381500*
X382500Y753750D02*
Y750000D01*
X357500*
Y753750*
Y781250D02*
Y785000D01*
X382500*
Y781250*
Y713750D02*
Y710000D01*
X357500*
Y713750*
Y741250D02*
Y745000D01*
X382500*
Y741250*
X351000Y557000D02*
X343000D01*
Y548000*
X351000*
X354000Y557000D02*
X362000D01*
Y548000*
X354000*
X342500Y447500D02*
X390500D01*
Y485500*
X342500*
Y471500*
X346500*
Y463500*
X342500*
Y447500*
X348500Y699500D02*
X340500D01*
Y690500*
X348500*
X351500Y699500D02*
X359500D01*
Y690500*
X351500*
Y673000D02*
X359500D01*
Y682000*
X351500*
X348500Y673000D02*
X340500D01*
Y682000*
X348500*
X349000Y525500D02*
X357000D01*
Y534500*
X349000*
X346000Y525500D02*
X338000D01*
Y534500*
X346000*
Y517000D02*
X338000D01*
Y508000*
X346000*
X349000Y517000D02*
X357000D01*
Y508000*
X349000*
X346000Y502000D02*
X338000D01*
Y493000*
X346000*
X349000Y502000D02*
X357000D01*
Y493000*
X349000*
X326000Y782000D02*
X318000D01*
Y773000*
X326000*
X329000Y782000D02*
X337000D01*
Y773000*
X329000*
X326000Y754500D02*
X318000D01*
Y745500*
X326000*
X329000Y754500D02*
X337000D01*
Y745500*
X329000*
X326000Y724500D02*
X318000D01*
Y715500*
X326000*
X329000Y724500D02*
X337000D01*
Y715500*
X329000*
X316000Y699500D02*
X308000D01*
Y690500*
X316000*
X319000Y699500D02*
X327000D01*
Y690500*
X319000*
Y673000D02*
X327000D01*
Y682000*
X319000*
X316000Y673000D02*
X308000D01*
Y682000*
X316000*
X314000Y525500D02*
X322000D01*
Y534500*
X314000*
X311000Y525500D02*
X303000D01*
Y534500*
X311000*
X392500Y417500D02*
X292500D01*
Y397500*
X392500*
Y417500*
Y405000D02*
X392500D01*
Y410000D02*
G75*
G03Y405000I0J-2500D01*
G01Y410000D02*
X392500D01*
Y375000D02*
X292500D01*
Y385000*
X392500*
Y375000*
Y362500D02*
X292500D01*
Y372500*
X392500*
Y362500*
X310000Y751250D02*
Y747500D01*
X285000*
Y751250*
Y778750D02*
Y782500D01*
X310000*
Y778750*
X277972Y713563D02*
Y739154D01*
X311437*
Y713563*
X277972*
X275354Y678701D02*
Y684213D01*
X276560*
Y685787*
X275354*
Y691299*
X294646*
Y678701*
X275354*
X262972Y528563D02*
Y554154D01*
X296437*
Y528563*
X262972*
X372500Y650909D02*
X371875Y650682D01*
X371250Y650227*
X370937Y649773*
X370937D02*
Y648864D01*
X370937D02*
X371250Y648409D01*
X371875Y647955*
X372500Y647727*
X373437Y647500*
X373437D02*
X375000D01*
X375937Y647727*
X375937D02*
X376562Y647955D01*
X376562D02*
X377187Y648409D01*
X377187D02*
X377500Y648864D01*
Y649773*
X377187Y650227*
X377187D02*
X376562Y650682D01*
X376562D02*
X375937Y650909D01*
X370937Y655227D02*
X375312Y652955D01*
X375312D02*
Y656364D01*
X370937Y655227D02*
X377500D01*
X372500Y625909D02*
X371875Y625682D01*
X371250Y625227*
X370937Y624773*
X370937D02*
Y623864D01*
X370937D02*
X371250Y623409D01*
X371875Y622955*
X372500Y622727*
X373437Y622500*
X373437D02*
X375000D01*
X375937Y622727*
X375937D02*
X376562Y622955D01*
X376562D02*
X377187Y623409D01*
X377187D02*
X377500Y623864D01*
Y624773*
X377187Y625227*
X377187D02*
X376562Y625682D01*
X376562D02*
X375937Y625909D01*
X370937Y630909D02*
Y628636D01*
X370937D02*
X373750Y628409D01*
X373437Y628636*
X373437D02*
X373125Y629318D01*
Y630000*
X373437Y630682*
X373437D02*
X374062Y631136D01*
X374062D02*
X375000Y631364D01*
X375625Y631136*
X376562Y630909*
X376562D02*
X377187Y630455D01*
X377187D02*
X377500Y629773D01*
Y629091*
X377187Y628409*
X377187D02*
X376875Y628182D01*
X376250Y627955*
X372500Y600909D02*
X371875Y600682D01*
X371250Y600227*
X370937Y599773*
X370937D02*
Y598864D01*
X370937D02*
X371250Y598409D01*
X371875Y597955*
X372500Y597727*
X373437Y597500*
X373437D02*
X375000D01*
X375937Y597727*
X375937D02*
X376562Y597955D01*
X376562D02*
X377187Y598409D01*
X377187D02*
X377500Y598864D01*
Y599773*
X377187Y600227*
X377187D02*
X376562Y600682D01*
X376562D02*
X375937Y600909D01*
X371875Y605682D02*
X371250Y605455D01*
X370937Y604773*
X370937D02*
Y604318D01*
X370937D02*
X371250Y603636D01*
X372187Y603182*
X372187D02*
X373750Y602955D01*
X375312*
X375312D02*
X376562Y603182D01*
X376562D02*
X377187Y603636D01*
X377187D02*
X377500Y604318D01*
Y604545*
X377187Y605227*
X377187D02*
X376562Y605682D01*
X376562D02*
X375625Y605909D01*
X375312*
X375312D02*
X374375Y605682D01*
X373750Y605227*
X373437Y604545*
X373437D02*
Y604318D01*
X373437D02*
X373750Y603636D01*
X374375Y603182*
X375312Y602955*
X372500Y575909D02*
X371875Y575682D01*
X371250Y575227*
X370937Y574773*
X370937D02*
Y573864D01*
X370937D02*
X371250Y573409D01*
X371875Y572955*
X372500Y572727*
X373437Y572500*
X373437D02*
X375000D01*
X375937Y572727*
X375937D02*
X376562Y572955D01*
X376562D02*
X377187Y573409D01*
X377187D02*
X377500Y573864D01*
Y574773*
X377187Y575227*
X377187D02*
X376562Y575682D01*
X376562D02*
X375937Y575909D01*
X370937Y581136D02*
X377500Y578864D01*
X370937Y577955D02*
Y581136D01*
X377500Y706562D02*
Y700000D01*
Y706562D02*
X379545D01*
X379545D02*
X380227Y706250D01*
X380455Y705937*
X380455D02*
X380682Y705312D01*
X380682D02*
Y704687D01*
X380682D02*
X380455Y704062D01*
X380455D02*
X380227Y703750D01*
X379545Y703437*
X379545D02*
X377500D01*
X379091D02*
X380682Y700000D01*
X383182Y706562D02*
X385682D01*
X385682D02*
X384318Y704062D01*
X384318D02*
X385000D01*
X385000D02*
X385455Y703750D01*
X385682Y703437*
X385682D02*
X385909Y702500D01*
Y701875*
X385682Y700937*
X385682D02*
X385227Y700312D01*
X385227D02*
X384545Y700000D01*
X383864*
X383182Y700312*
X383182D02*
X382955Y700625D01*
X382727Y701250*
X377409Y688750D02*
Y682188D01*
Y688750D02*
X379455D01*
X380136Y688438*
X380136D02*
X380364Y688125D01*
X380591Y687500*
Y686875*
X380364Y686250*
X380136Y685938*
X380136D02*
X379455Y685625D01*
X377409*
X379000D02*
X380591Y682188D01*
X385364Y687813D02*
X385136Y688438D01*
X385136D02*
X384455Y688750D01*
X384000*
X383318Y688438*
X383318D02*
X382864Y687500D01*
X382636Y685938*
X382636D02*
Y684375D01*
X382864Y683125*
X383318Y682500*
X384000Y682188*
X384000D02*
X384227D01*
X384227D02*
X384909Y682500D01*
X385364Y683125*
X385591Y684063*
X385591D02*
Y684375D01*
X385364Y685313*
X385364D02*
X384909Y685938D01*
X384909D02*
X384227Y686250D01*
X384000*
X383318Y685938*
X383318D02*
X382864Y685313D01*
X382864D02*
X382636Y684375D01*
X380909Y565000D02*
X380682Y565625D01*
X380227Y566250*
X379773Y566563*
X379773D02*
X378864D01*
X378864D02*
X378409Y566250D01*
X377955Y565625*
X377727Y565000*
X377500Y564063*
X377500D02*
Y562500D01*
X377727Y561563*
X377727D02*
X377955Y560938D01*
X377955D02*
X378409Y560313D01*
X378409D02*
X378864Y560000D01*
X379773*
X380227Y560313*
X380227D02*
X380682Y560938D01*
X380682D02*
X380909Y561563D01*
X384091Y566563D02*
X383409Y566250D01*
X383182Y565625*
Y565000*
X383409Y564375*
X383864Y564063*
X383864D02*
X384773Y563750D01*
X385455Y563438*
X385455D02*
X385909Y562813D01*
X385909D02*
X386136Y562188D01*
X386136D02*
Y561250D01*
X385909Y560625*
X385682Y560313*
X385682D02*
X385000Y560000D01*
X384091*
X383409Y560313*
X383409D02*
X383182Y560625D01*
X382955Y561250*
Y562188*
X382955D02*
X383182Y562813D01*
X383182D02*
X383636Y563438D01*
X383636D02*
X384318Y563750D01*
X385227Y564063*
X385227D02*
X385682Y564375D01*
X385909Y565000*
Y565625*
X385682Y566250*
X385000Y566563*
X385000D02*
X384091D01*
X390000Y771563D02*
Y766875D01*
X390227Y765938*
X390682Y765313*
X391364Y765000*
X391818*
X392500Y765313*
X392955Y765938*
X393182Y766875*
Y771563*
X395455Y770000D02*
Y770313D01*
X395682Y770938*
X395909Y771250*
X396364Y771563*
X397273*
X397727Y771250*
X397955Y770938*
X398182Y770313*
Y769688*
X397955Y769063*
X397500Y768125*
X395227Y765000*
X398409*
X390000Y731563D02*
Y726875D01*
X390227Y725938*
X390682Y725313*
X391364Y725000*
X391818*
X392500Y725313*
X392955Y725938*
X393182Y726875*
Y731563*
X395682D02*
X398182D01*
X396818Y729063*
X397500*
X397955Y728750*
X398182Y728438*
X398409Y727500*
Y726875*
X398182Y725938*
X397727Y725313*
X397045Y725000*
X396364*
X395682Y725313*
X395455Y725625*
X395227Y726250*
X357273Y351563D02*
Y346563D01*
X357273D02*
X357045Y345625D01*
X356818Y345313*
X356818D02*
X356364Y345000D01*
X355909*
X355455Y345313*
X355455D02*
X355227Y345625D01*
X355000Y346563*
X355000D02*
Y347188D01*
X360909Y351563D02*
Y345000D01*
X359318Y351563D02*
X362500D01*
X366364D02*
X364545Y345000D01*
X366364Y351563D02*
X368182Y345000D01*
X365227Y347188D02*
X367500D01*
X373636Y350000D02*
X373409Y350625D01*
X372955Y351250*
X372500Y351563*
X372500D02*
X371591D01*
X371591D02*
X371136Y351250D01*
X370682Y350625*
X370455Y350000*
X370227Y349063*
X370227D02*
Y347500D01*
X370455Y346563*
X370455D02*
X370682Y345938D01*
X370682D02*
X371136Y345313D01*
X371136D02*
X371591Y345000D01*
X372500*
X372955Y345313*
X372955D02*
X373409Y345938D01*
X373409D02*
X373636Y346563D01*
X373636D02*
Y347500D01*
X372500D02*
X373636D01*
X378864Y350625D02*
X378409Y351250D01*
X377727Y351563*
X377727D02*
X376818D01*
X376818D02*
X376136Y351250D01*
X375682Y350625*
Y350000*
X375909Y349375*
X376136Y349063*
X376136D02*
X376591Y348750D01*
X377955Y348125*
X378409Y347813*
X378409D02*
X378636Y347500D01*
X378864Y346875*
Y345938*
X378864D02*
X378409Y345313D01*
X378409D02*
X377727Y345000D01*
X376818*
X376136Y345313*
X376136D02*
X375682Y345938D01*
X382727Y351563D02*
X380909Y345000D01*
X382727Y351563D02*
X384545Y345000D01*
X381591Y347188D02*
X383864D01*
X386591Y351563D02*
Y345000D01*
Y351563D02*
X388409Y345000D01*
X390227Y351563D02*
X388409Y345000D01*
X390227Y351563D02*
Y345000D01*
X350909Y565000D02*
X350682Y565625D01*
X350227Y566250*
X349773Y566563*
X349773D02*
X348864D01*
X348864D02*
X348409Y566250D01*
X347955Y565625*
X347727Y565000*
X347500Y564063*
X347500D02*
Y562500D01*
X347727Y561563*
X347727D02*
X347955Y560938D01*
X347955D02*
X348409Y560313D01*
X348409D02*
X348864Y560000D01*
X349773*
X350227Y560313*
X350227D02*
X350682Y560938D01*
X350682D02*
X350909Y561563D01*
X355909Y564375D02*
X355682Y563438D01*
X355682D02*
X355227Y562813D01*
X355227D02*
X354545Y562500D01*
X354318*
X353636Y562813*
X353636D02*
X353182Y563438D01*
X353182D02*
X352955Y564375D01*
Y564688*
X352955D02*
X353182Y565625D01*
X353636Y566250*
X354318Y566563*
X354318D02*
X354545D01*
X354545D02*
X355227Y566250D01*
X355682Y565625*
X355909Y564375*
Y562813*
X355909D02*
X355682Y561250D01*
X355227Y560313*
X355227D02*
X354545Y560000D01*
X354091*
X353409Y560313*
X353409D02*
X353182Y560938D01*
X377500Y494063D02*
Y489375D01*
X377727Y488438*
X377727D02*
X378182Y487813D01*
X378182D02*
X378864Y487500D01*
X379318*
X380000Y487813*
X380000D02*
X380455Y488438D01*
X380455D02*
X380682Y489375D01*
Y494063*
X385682Y491875D02*
X385455Y490938D01*
X385455D02*
X385000Y490313D01*
X385000D02*
X384318Y490000D01*
X384091*
X383409Y490313*
X383409D02*
X382955Y490938D01*
X382955D02*
X382727Y491875D01*
Y492188*
X382727D02*
X382955Y493125D01*
X383409Y493750*
X384091Y494063*
X384091D02*
X384318D01*
X384318D02*
X385000Y493750D01*
X385455Y493125*
X385682Y491875*
Y490313*
X385682D02*
X385455Y488750D01*
X385000Y487813*
X385000D02*
X384318Y487500D01*
X383864*
X383182Y487813*
X383182D02*
X382955Y488438D01*
X332500Y444063D02*
Y437500D01*
Y444063D02*
X334545D01*
X334545D02*
X335227Y443750D01*
X335455Y443438*
X335455D02*
X335682Y442813D01*
X335682D02*
Y442188D01*
X335682D02*
X335455Y441563D01*
X335455D02*
X335227Y441250D01*
X334545Y440938*
X334545D02*
X332500D01*
X334091D02*
X335682Y437500D01*
X340909Y444063D02*
X338636Y437500D01*
X337727Y444063D02*
X340909D01*
X345000Y706562D02*
Y700000D01*
Y706562D02*
X347045D01*
X347045D02*
X347727Y706250D01*
X347955Y705937*
X347955D02*
X348182Y705312D01*
X348182D02*
Y704687D01*
X348182D02*
X347955Y704062D01*
X347955D02*
X347727Y703750D01*
X347045Y703437*
X347045D02*
X345000D01*
X346591D02*
X348182Y700000D01*
X350455Y705000D02*
Y705312D01*
X350455D02*
X350682Y705937D01*
X350682D02*
X350909Y706250D01*
X351364Y706562*
X351364D02*
X352273D01*
X352273D02*
X352727Y706250D01*
X352955Y705937*
X352955D02*
X353182Y705312D01*
X353182D02*
Y704687D01*
X353182D02*
X352955Y704062D01*
X352955D02*
X352500Y703125D01*
X350227Y700000*
X353409*
X344455Y688750D02*
Y682188D01*
Y688750D02*
X346500D01*
X347182Y688438*
X347182D02*
X347409Y688125D01*
X347636Y687500*
Y686875*
X347409Y686250*
X347182Y685938*
X347182D02*
X346500Y685625D01*
X344455*
X346045D02*
X347636Y682188D01*
X352636Y688750D02*
X350364D01*
X350136Y685938*
X350136D02*
X350364Y686250D01*
X351045Y686563*
X351045D02*
X351727D01*
X351727D02*
X352409Y686250D01*
X352864Y685625*
X353091Y684688*
X353091D02*
X352864Y684063D01*
X352864D02*
X352636Y683125D01*
X352182Y682500*
X351500Y682188*
X351500D02*
X350818D01*
X350818D02*
X350136Y682500D01*
X349909Y682813*
X349909D02*
X349682Y683438D01*
X363409Y532500D02*
X363182Y533125D01*
X362727Y533750*
X362273Y534063*
X361364*
X360909Y533750*
X360455Y533125*
X360227Y532500*
X360000Y531563*
Y530000*
X360227Y529063*
X360455Y528438*
X360909Y527813*
X361364Y527500*
X362273*
X362727Y527813*
X363182Y528438*
X363409Y529063*
X365455Y532813D02*
X365909Y533125D01*
X366591Y534063*
Y527500*
X368636Y532813D02*
X369091Y533125D01*
X369773Y534063*
Y527500*
X363409Y515000D02*
X363182Y515625D01*
X362727Y516250*
X362273Y516563*
X362273D02*
X361364D01*
X361364D02*
X360909Y516250D01*
X360455Y515625*
X360227Y515000*
X360000Y514063*
X360000D02*
Y512500D01*
X360227Y511563*
X360227D02*
X360455Y510938D01*
X360455D02*
X360909Y510313D01*
X360909D02*
X361364Y510000D01*
X362273*
X362727Y510313*
X362727D02*
X363182Y510938D01*
X363182D02*
X363409Y511563D01*
X365455Y515313D02*
X365909Y515625D01*
X366591Y516563*
X366591D02*
Y510000D01*
X368864Y515000D02*
Y515313D01*
X368864D02*
X369091Y515938D01*
X369091D02*
X369318Y516250D01*
X369773Y516563*
X369773D02*
X370682D01*
X370682D02*
X371136Y516250D01*
X371364Y515938*
X371364D02*
X371591Y515313D01*
X371591D02*
Y514688D01*
X371591D02*
X371364Y514063D01*
X371364D02*
X370909Y513125D01*
X368636Y510000*
X371818*
X363409Y500000D02*
X363182Y500625D01*
X362727Y501250*
X362273Y501563*
X362273D02*
X361364D01*
X361364D02*
X360909Y501250D01*
X360455Y500625*
X360227Y500000*
X360000Y499063*
X360000D02*
Y497500D01*
X360227Y496563*
X360227D02*
X360455Y495938D01*
X360455D02*
X360909Y495313D01*
X360909D02*
X361364Y495000D01*
X362273*
X362727Y495313*
X362727D02*
X363182Y495938D01*
X363182D02*
X363409Y496563D01*
X365455Y500313D02*
X365909Y500625D01*
X366591Y501563*
X366591D02*
Y495000D01*
X369091Y501563D02*
X371591D01*
X371591D02*
X370227Y499063D01*
X370227D02*
X370909D01*
X370909D02*
X371364Y498750D01*
X371591Y498438*
X371591D02*
X371818Y497500D01*
Y496875*
X371591Y495938*
X371591D02*
X371136Y495313D01*
X371136D02*
X370455Y495000D01*
X369773*
X369091Y495313*
X369091D02*
X368864Y495625D01*
X368636Y496250*
X325909Y790000D02*
X325682Y790625D01*
X325227Y791250*
X324773Y791563*
X324773D02*
X323864D01*
X323864D02*
X323409Y791250D01*
X322955Y790625*
X322727Y790000*
X322500Y789063*
X322500D02*
Y787500D01*
X322727Y786563*
X322727D02*
X322955Y785938D01*
X322955D02*
X323409Y785313D01*
X323409D02*
X323864Y785000D01*
X324773*
X325227Y785313*
X325227D02*
X325682Y785938D01*
X325682D02*
X325909Y786563D01*
X327955Y790313D02*
X328409Y790625D01*
X329091Y791563*
X329091D02*
Y785000D01*
X325909Y762500D02*
X325682Y763125D01*
X325227Y763750*
X324773Y764063*
X324773D02*
X323864D01*
X323864D02*
X323409Y763750D01*
X322955Y763125*
X322727Y762500*
X322500Y761563*
X322500D02*
Y760000D01*
X322727Y759063*
X322727D02*
X322955Y758438D01*
X322955D02*
X323409Y757813D01*
X323409D02*
X323864Y757500D01*
X324773*
X325227Y757813*
X325227D02*
X325682Y758438D01*
X325682D02*
X325909Y759063D01*
X328182Y762500D02*
Y762813D01*
X328182D02*
X328409Y763438D01*
X328409D02*
X328636Y763750D01*
X329091Y764063*
X329091D02*
X330000D01*
X330000D02*
X330455Y763750D01*
X330682Y763438*
X330682D02*
X330909Y762813D01*
X330909D02*
Y762188D01*
X330909D02*
X330682Y761563D01*
X330682D02*
X330227Y760625D01*
X327955Y757500*
X331136*
X325909Y732500D02*
X325682Y733125D01*
X325227Y733750*
X324773Y734063*
X324773D02*
X323864D01*
X323864D02*
X323409Y733750D01*
X322955Y733125*
X322727Y732500*
X322500Y731563*
X322500D02*
Y730000D01*
X322727Y729063*
X322727D02*
X322955Y728438D01*
X322955D02*
X323409Y727813D01*
X323409D02*
X323864Y727500D01*
X324773*
X325227Y727813*
X325227D02*
X325682Y728438D01*
X325682D02*
X325909Y729063D01*
X328409Y734063D02*
X330909D01*
X330909D02*
X329545Y731563D01*
X329545D02*
X330227D01*
X330227D02*
X330682Y731250D01*
X330909Y730938*
X330909D02*
X331136Y730000D01*
Y729375*
X330909Y728438*
X330909D02*
X330455Y727813D01*
X330455D02*
X329773Y727500D01*
X329091*
X328409Y727813*
X328409D02*
X328182Y728125D01*
X327955Y728750*
X311727Y706250D02*
Y699688D01*
Y706250D02*
X313773D01*
X314455Y705938*
X314455D02*
X314682Y705625D01*
X314909Y705000*
Y704375*
X314682Y703750*
X314455Y703438*
X314455D02*
X313773Y703125D01*
X311727*
X313318D02*
X314909Y699688D01*
X316955Y705000D02*
X317409Y705313D01*
X317409D02*
X318091Y706250D01*
Y699688*
X311955Y688750D02*
Y682188D01*
Y688750D02*
X314000D01*
X314682Y688438*
X314682D02*
X314909Y688125D01*
X315136Y687500*
Y686875*
X314909Y686250*
X314682Y685938*
X314682D02*
X314000Y685625D01*
X311955*
X313545D02*
X315136Y682188D01*
X319455Y688750D02*
X317182Y684375D01*
X320591*
X319455Y688750D02*
Y682188D01*
X327273Y256563D02*
Y251563D01*
X327273D02*
X327045Y250625D01*
X326818Y250313*
X326818D02*
X326364Y250000D01*
X325909*
X325455Y250313*
X325455D02*
X325227Y250625D01*
X325000Y251563*
X325000D02*
Y252188D01*
X330909Y256563D02*
Y250000D01*
X329318Y256563D02*
X332500D01*
X336364D02*
X334545Y250000D01*
X336364Y256563D02*
X338182Y250000D01*
X335227Y252188D02*
X337500D01*
X343636Y255000D02*
X343409Y255625D01*
X342955Y256250*
X342500Y256563*
X342500D02*
X341591D01*
X341591D02*
X341136Y256250D01*
X340682Y255625*
X340455Y255000*
X340227Y254063*
X340227D02*
Y252500D01*
X340455Y251563*
X340455D02*
X340682Y250938D01*
X340682D02*
X341136Y250313D01*
X341136D02*
X341591Y250000D01*
X342500*
X342955Y250313*
X342955D02*
X343409Y250938D01*
X343409D02*
X343636Y251563D01*
X343636D02*
Y252500D01*
X342500D02*
X343636D01*
X345682Y256563D02*
Y250000D01*
Y256563D02*
X348636D01*
X345682Y253438D02*
X347500D01*
X350682Y256563D02*
Y250000D01*
Y256563D02*
X352727D01*
X352727D02*
X353409Y256250D01*
X353636Y255938*
X353636D02*
X353864Y255313D01*
X353864D02*
Y254375D01*
X353636Y253750*
X353409Y253438*
X353409D02*
X352727Y253125D01*
X350682*
X359318Y255000D02*
X359091Y255625D01*
X358636Y256250*
X358182Y256563*
X358182D02*
X357273D01*
X357273D02*
X356818Y256250D01*
X356364Y255625*
X356136Y255000*
X355909Y254063*
X355909D02*
Y252500D01*
X356136Y251563*
X356136D02*
X356364Y250938D01*
X356364D02*
X356818Y250313D01*
X356818D02*
X357273Y250000D01*
X358182*
X358636Y250313*
X358636D02*
X359091Y250938D01*
X359091D02*
X359318Y251563D01*
X359318D02*
Y252500D01*
X358182D02*
X359318D01*
X363182Y256563D02*
X361364Y250000D01*
X363182Y256563D02*
X365000Y250000D01*
X362045Y252188D02*
X364318D01*
X325909Y532500D02*
X325682Y533125D01*
X325227Y533750*
X324773Y534063*
X323864*
X323409Y533750*
X322955Y533125*
X322727Y532500*
X322500Y531563*
Y530000*
X322727Y529063*
X322955Y528438*
X323409Y527813*
X323864Y527500*
X324773*
X325227Y527813*
X325682Y528438*
X325909Y529063*
X327955Y532813D02*
X328409Y533125D01*
X329091Y534063*
Y527500*
X332500Y534063D02*
X331818Y533750D01*
X331364Y532813*
X331136Y531250*
Y530313*
X331364Y528750*
X331818Y527813*
X332500Y527500*
X332955*
X333636Y527813*
X334091Y528750*
X334318Y530313*
Y531250*
X334091Y532813*
X333636Y533750*
X332955Y534063*
X332500*
X392500Y409063D02*
Y404375D01*
X392727Y403438*
X392727D02*
X393182Y402813D01*
X393182D02*
X393864Y402500D01*
X394318*
X395000Y402813*
X395000D02*
X395455Y403438D01*
X395455D02*
X395682Y404375D01*
Y409063*
X397727Y407813D02*
X398182Y408125D01*
X398864Y409063*
X398864D02*
Y402500D01*
X402273Y409063D02*
X401591Y408750D01*
X401136Y407813*
X401136D02*
X400909Y406250D01*
Y405313*
X400909D02*
X401136Y403750D01*
X401591Y402813*
X401591D02*
X402273Y402500D01*
X402727*
X403409Y402813*
X403409D02*
X403864Y403750D01*
X404091Y405313*
X404091D02*
Y406250D01*
X403864Y407813*
X403864D02*
X403409Y408750D01*
X402727Y409063*
X402727D02*
X402273D01*
X395000Y384063D02*
Y377500D01*
Y384063D02*
X397045D01*
X397727Y383750*
X397955Y383438*
X398182Y382813*
Y382188*
X397955Y381563*
X397727Y381250*
X397045Y380938*
X395000*
X396591D02*
X398182Y377500D01*
X401364Y384063D02*
X400682Y383750D01*
X400455Y383125*
Y382500*
X400682Y381875*
X401136Y381563*
X402045Y381250*
X402727Y380938*
X403182Y380313*
X403409Y379688*
Y378750*
X403182Y378125*
X402955Y377813*
X402273Y377500*
X401364*
X400682Y377813*
X400455Y378125*
X400227Y378750*
Y379688*
X400455Y380313*
X400909Y380938*
X401591Y381250*
X402500Y381563*
X402955Y381875*
X403182Y382500*
Y383125*
X402955Y383750*
X402273Y384063*
X401364*
X395000Y371563D02*
Y365000D01*
Y371563D02*
X397045D01*
X397727Y371250*
X397955Y370938*
X398182Y370313*
Y369688*
X397955Y369063*
X397727Y368750*
X397045Y368438*
X395000*
X396591D02*
X398182Y365000D01*
X403182Y369375D02*
X402955Y368438D01*
X402500Y367813*
X401818Y367500*
X401591*
X400909Y367813*
X400455Y368438*
X400227Y369375*
Y369688*
X400455Y370625*
X400909Y371250*
X401591Y371563*
X401818*
X402500Y371250*
X402955Y370625*
X403182Y369375*
Y367813*
X402955Y366250*
X402500Y365313*
X401818Y365000*
X401364*
X400682Y365313*
X400455Y365938*
X295000Y791563D02*
Y786875D01*
X295227Y785938*
X295227D02*
X295682Y785313D01*
X295682D02*
X296364Y785000D01*
X296818*
X297500Y785313*
X297500D02*
X297955Y785938D01*
X297955D02*
X298182Y786875D01*
Y791563*
X300227Y790313D02*
X300682Y790625D01*
X301364Y791563*
X301364D02*
Y785000D01*
X267500Y731562D02*
Y726875D01*
X267727Y725937*
X267727D02*
X268182Y725312D01*
X268182D02*
X268864Y725000D01*
X269318*
X270000Y725312*
X270000D02*
X270455Y725937D01*
X270455D02*
X270682Y726875D01*
Y731562*
X275000D02*
X272727Y727187D01*
X272727D02*
X276136D01*
X275000Y731562D02*
Y725000D01*
X280000Y706563D02*
Y701875D01*
X280227Y700938*
X280227D02*
X280682Y700313D01*
X280682D02*
X281364Y700000D01*
X281818*
X282500Y700313*
X282500D02*
X282955Y700938D01*
X282955D02*
X283182Y701875D01*
Y706563*
X288182D02*
X285909D01*
X285909D02*
X285682Y703750D01*
X285909Y704063*
X285909D02*
X286591Y704375D01*
X287273*
X287955Y704063*
X287955D02*
X288409Y703438D01*
X288409D02*
X288636Y702500D01*
X288409Y701875*
X288182Y700938*
X288182D02*
X287727Y700313D01*
X287727D02*
X287045Y700000D01*
X286364*
X285682Y700313*
X285682D02*
X285455Y700625D01*
X285227Y701250*
X275000Y561563D02*
Y556875D01*
X275227Y555938*
X275227D02*
X275682Y555313D01*
X275682D02*
X276364Y555000D01*
X276818*
X277500Y555313*
X277500D02*
X277955Y555938D01*
X277955D02*
X278182Y556875D01*
Y561563*
X283409D02*
X281136Y555000D01*
X280227Y561563D02*
X283409D01*
X245000Y781563D02*
X246818Y775000D01*
X248636Y781563D02*
X246818Y775000D01*
X250682Y781563D02*
Y775000D01*
X252727Y781563D02*
Y775000D01*
Y781563D02*
X255909Y775000D01*
Y781563D02*
Y775000D01*
X248409Y770000D02*
X248182Y770625D01*
X247727Y771250*
X247273Y771563*
X247273D02*
X246364D01*
X246364D02*
X245909Y771250D01*
X245455Y770625*
X245227Y770000*
X245000Y769063*
X245000D02*
Y767500D01*
X245227Y766563*
X245227D02*
X245455Y765938D01*
X245455D02*
X245909Y765313D01*
X245909D02*
X246364Y765000D01*
X247273*
X247727Y765313*
X247727D02*
X248182Y765938D01*
X248182D02*
X248409Y766563D01*
X248409D02*
Y767500D01*
X247273D02*
X248409D01*
X250455Y771563D02*
Y765000D01*
Y771563D02*
X253636Y765000D01*
Y771563D02*
Y765000D01*
X255682Y771563D02*
Y765000D01*
Y771563D02*
X257273D01*
X257273D02*
X257955Y771250D01*
X258409Y770625*
X258636Y770000*
X258864Y769063*
X258864D02*
Y767500D01*
X258636Y766563*
X258636D02*
X258409Y765938D01*
X258409D02*
X257955Y765313D01*
X257955D02*
X257273Y765000D01*
X255682*
X245000Y761563D02*
X246818Y755000D01*
X248636Y761563D02*
X246818Y755000D01*
X254091Y760000D02*
X253864Y760625D01*
X253409Y761250*
X252955Y761563*
X252955D02*
X252045D01*
X252045D02*
X251591Y761250D01*
X251136Y760625*
X250909Y760000*
X250682Y759063*
X250682D02*
Y757500D01*
X250909Y756563*
X250909D02*
X251136Y755938D01*
X251136D02*
X251591Y755313D01*
X251591D02*
X252045Y755000D01*
X252955*
X253409Y755313*
X253409D02*
X253864Y755938D01*
X253864D02*
X254091Y756563D01*
X259545Y760000D02*
X259318Y760625D01*
X258864Y761250*
X258409Y761563*
X258409D02*
X257500D01*
X257500D02*
X257045Y761250D01*
X256591Y760625*
X256364Y760000*
X256136Y759063*
X256136D02*
Y757500D01*
X256364Y756563*
X256364D02*
X256591Y755938D01*
X256591D02*
X257045Y755313D01*
X257045D02*
X257500Y755000D01*
X258409*
X258864Y755313*
X258864D02*
X259318Y755938D01*
X259318D02*
X259545Y756563D01*
X262045Y761563D02*
X264545D01*
X264545D02*
X263182Y759063D01*
X263182D02*
X263864D01*
X263864D02*
X264318Y758750D01*
X264545Y758438*
X264545D02*
X264773Y757500D01*
Y756875*
X264545Y755938*
X264545D02*
X264091Y755313D01*
X264091D02*
X263409Y755000D01*
X262727*
X262045Y755313*
X262045D02*
X261818Y755625D01*
X261591Y756250*
X267273Y761563D02*
X269773D01*
X269773D02*
X268409Y759063D01*
X268409D02*
X269091D01*
X269091D02*
X269545Y758750D01*
X269773Y758438*
X269773D02*
X270000Y757500D01*
Y756875*
X269773Y755938*
X269773D02*
X269318Y755313D01*
X269318D02*
X268636Y755000D01*
X267955*
X267273Y755313*
X267273D02*
X267045Y755625D01*
X266818Y756250*
X245000Y751563D02*
Y745000D01*
Y751563D02*
X247045D01*
X247045D02*
X247727Y751250D01*
X247955Y750938*
X247955D02*
X248182Y750313D01*
X248182D02*
Y749375D01*
X247955Y748750*
X247727Y748438*
X247727D02*
X247045Y748125D01*
X245000*
X250227Y750313D02*
X250682Y750625D01*
X251364Y751563*
X251364D02*
Y745000D01*
X245000Y741563D02*
Y735000D01*
Y741563D02*
X247045D01*
X247045D02*
X247727Y741250D01*
X247955Y740938*
X247955D02*
X248182Y740313D01*
X248182D02*
Y739375D01*
X247955Y738750*
X247727Y738438*
X247727D02*
X247045Y738125D01*
X245000*
X250455Y740000D02*
Y740313D01*
X250455D02*
X250682Y740938D01*
X250682D02*
X250909Y741250D01*
X251364Y741563*
X251364D02*
X252273D01*
X252273D02*
X252727Y741250D01*
X252955Y740938*
X252955D02*
X253182Y740313D01*
X253182D02*
Y739688D01*
X253182D02*
X252955Y739063D01*
X252955D02*
X252500Y738125D01*
X250227Y735000*
X253409*
X245000Y731563D02*
Y725000D01*
Y731563D02*
X247045D01*
X247045D02*
X247727Y731250D01*
X247955Y730938*
X247955D02*
X248182Y730313D01*
X248182D02*
Y729375D01*
X247955Y728750*
X247727Y728438*
X247727D02*
X247045Y728125D01*
X245000*
X250682Y731563D02*
X253182D01*
X253182D02*
X251818Y729063D01*
X251818D02*
X252500D01*
X252500D02*
X252955Y728750D01*
X253182Y728438*
X253182D02*
X253409Y727500D01*
Y726875*
X253182Y725938*
X253182D02*
X252727Y725313D01*
X252727D02*
X252045Y725000D01*
X251364*
X250682Y725313*
X250682D02*
X250455Y725625D01*
X250227Y726250*
X245000Y721563D02*
Y715000D01*
Y721563D02*
X247045D01*
X247045D02*
X247727Y721250D01*
X247955Y720938*
X247955D02*
X248182Y720313D01*
X248182D02*
Y719375D01*
X247955Y718750*
X247727Y718438*
X247727D02*
X247045Y718125D01*
X245000*
X253409Y721563D02*
X251136Y715000D01*
X250227Y721563D02*
X253409D01*
X245000Y711563D02*
Y705000D01*
Y711563D02*
X247045D01*
X247045D02*
X247727Y711250D01*
X247955Y710938*
X247955D02*
X248182Y710313D01*
X248182D02*
Y709375D01*
X247955Y708750*
X247727Y708438*
X247727D02*
X247045Y708125D01*
X245000*
X250227Y710313D02*
X250682Y710625D01*
X251364Y711563*
X251364D02*
Y705000D01*
X254773Y711563D02*
X254091Y711250D01*
X253636Y710313*
X253636D02*
X253409Y708750D01*
Y707813*
X253409D02*
X253636Y706250D01*
X254091Y705313*
X254091D02*
X254773Y705000D01*
X255227*
X255909Y705313*
X255909D02*
X256364Y706250D01*
X256591Y707813*
X256591D02*
Y708750D01*
X256364Y710313*
X256364D02*
X255909Y711250D01*
X255227Y711563*
X255227D02*
X254773D01*
X245000Y701563D02*
Y695000D01*
Y701563D02*
X247045D01*
X247045D02*
X247727Y701250D01*
X247955Y700938*
X247955D02*
X248182Y700313D01*
X248182D02*
Y699375D01*
X247955Y698750*
X247727Y698438*
X247727D02*
X247045Y698125D01*
X245000*
X250227Y700313D02*
X250682Y700625D01*
X251364Y701563*
X251364D02*
Y695000D01*
X253409Y700313D02*
X253864Y700625D01*
X254545Y701563*
X254545D02*
Y695000D01*
X245000Y691563D02*
Y685000D01*
Y691563D02*
X247045D01*
X247045D02*
X247727Y691250D01*
X247955Y690938*
X247955D02*
X248182Y690313D01*
X248182D02*
Y689375D01*
X247955Y688750*
X247727Y688438*
X247727D02*
X247045Y688125D01*
X245000*
X250455Y690000D02*
Y690313D01*
X250455D02*
X250682Y690938D01*
X250682D02*
X250909Y691250D01*
X251364Y691563*
X251364D02*
X252273D01*
X252273D02*
X252727Y691250D01*
X252955Y690938*
X252955D02*
X253182Y690313D01*
X253182D02*
Y689688D01*
X253182D02*
X252955Y689063D01*
X252955D02*
X252500Y688125D01*
X250227Y685000*
X253409*
X256591Y691563D02*
X255909Y691250D01*
X255682Y690625*
Y690000*
X255909Y689375*
X256364Y689063*
X256364D02*
X257273Y688750D01*
X257955Y688438*
X257955D02*
X258409Y687813D01*
X258409D02*
X258636Y687188D01*
X258636D02*
Y686250D01*
X258409Y685625*
X258182Y685313*
X258182D02*
X257500Y685000D01*
X256591*
X255909Y685313*
X255909D02*
X255682Y685625D01*
X255455Y686250*
Y687188*
X255455D02*
X255682Y687813D01*
X255682D02*
X256136Y688438D01*
X256136D02*
X256818Y688750D01*
X257727Y689063*
X257727D02*
X258182Y689375D01*
X258409Y690000*
Y690625*
X258182Y691250*
X257500Y691563*
X257500D02*
X256591D01*
X245000Y681563D02*
Y675000D01*
Y681563D02*
X247045D01*
X247045D02*
X247727Y681250D01*
X247955Y680938*
X247955D02*
X248182Y680313D01*
X248182D02*
Y679375D01*
X247955Y678750*
X247727Y678438*
X247727D02*
X247045Y678125D01*
X245000*
X250682Y681563D02*
X253182D01*
X253182D02*
X251818Y679063D01*
X251818D02*
X252500D01*
X252500D02*
X252955Y678750D01*
X253182Y678438*
X253182D02*
X253409Y677500D01*
Y676875*
X253182Y675938*
X253182D02*
X252727Y675313D01*
X252727D02*
X252045Y675000D01*
X251364*
X250682Y675313*
X250682D02*
X250455Y675625D01*
X250227Y676250*
X256818Y681563D02*
X256136Y681250D01*
X255682Y680313*
X255682D02*
X255455Y678750D01*
Y677813*
X255455D02*
X255682Y676250D01*
X256136Y675313*
X256136D02*
X256818Y675000D01*
X257273*
X257955Y675313*
X257955D02*
X258409Y676250D01*
X258636Y677813*
X258636D02*
Y678750D01*
X258409Y680313*
X258409D02*
X257955Y681250D01*
X257273Y681563*
X257273D02*
X256818D01*
X245000Y671563D02*
Y665000D01*
Y671563D02*
X247045D01*
X247045D02*
X247727Y671250D01*
X247955Y670938*
X247955D02*
X248182Y670313D01*
X248182D02*
Y669375D01*
X247955Y668750*
X247727Y668438*
X247727D02*
X247045Y668125D01*
X245000*
X250682Y671563D02*
X253182D01*
X253182D02*
X251818Y669063D01*
X251818D02*
X252500D01*
X252500D02*
X252955Y668750D01*
X253182Y668438*
X253182D02*
X253409Y667500D01*
Y666875*
X253182Y665938*
X253182D02*
X252727Y665313D01*
X252727D02*
X252045Y665000D01*
X251364*
X250682Y665313*
X250682D02*
X250455Y665625D01*
X250227Y666250*
X255455Y670313D02*
X255909Y670625D01*
X256591Y671563*
X256591D02*
Y665000D01*
X245000Y661563D02*
Y655000D01*
Y661563D02*
X247045D01*
X247045D02*
X247727Y661250D01*
X247955Y660938*
X247955D02*
X248182Y660313D01*
X248182D02*
Y659375D01*
X247955Y658750*
X247727Y658438*
X247727D02*
X247045Y658125D01*
X245000*
X250682Y661563D02*
X253182D01*
X253182D02*
X251818Y659063D01*
X251818D02*
X252500D01*
X252500D02*
X252955Y658750D01*
X253182Y658438*
X253182D02*
X253409Y657500D01*
Y656875*
X253182Y655938*
X253182D02*
X252727Y655313D01*
X252727D02*
X252045Y655000D01*
X251364*
X250682Y655313*
X250682D02*
X250455Y655625D01*
X250227Y656250*
X255682Y660000D02*
Y660313D01*
X255682D02*
X255909Y660938D01*
X255909D02*
X256136Y661250D01*
X256591Y661563*
X256591D02*
X257500D01*
X257500D02*
X257955Y661250D01*
X258182Y660938*
X258182D02*
X258409Y660313D01*
X258409D02*
Y659688D01*
X258409D02*
X258182Y659063D01*
X258182D02*
X257727Y658125D01*
X255455Y655000*
X258636*
X245000Y651563D02*
Y645000D01*
Y651563D02*
X247045D01*
X247045D02*
X247727Y651250D01*
X247955Y650938*
X247955D02*
X248182Y650313D01*
X248182D02*
Y649375D01*
X247955Y648750*
X247727Y648438*
X247727D02*
X247045Y648125D01*
X245000*
X250682Y651563D02*
X253182D01*
X253182D02*
X251818Y649063D01*
X251818D02*
X252500D01*
X252500D02*
X252955Y648750D01*
X253182Y648438*
X253182D02*
X253409Y647500D01*
Y646875*
X253182Y645938*
X253182D02*
X252727Y645313D01*
X252727D02*
X252045Y645000D01*
X251364*
X250682Y645313*
X250682D02*
X250455Y645625D01*
X250227Y646250*
X255909Y651563D02*
X258409D01*
X258409D02*
X257045Y649063D01*
X257045D02*
X257727D01*
X257727D02*
X258182Y648750D01*
X258409Y648438*
X258409D02*
X258636Y647500D01*
Y646875*
X258409Y645938*
X258409D02*
X257955Y645313D01*
X257955D02*
X257273Y645000D01*
X256591*
X255909Y645313*
X255909D02*
X255682Y645625D01*
X255455Y646250*
X245000Y641563D02*
Y635000D01*
Y641563D02*
X247045D01*
X247045D02*
X247727Y641250D01*
X247955Y640938*
X247955D02*
X248182Y640313D01*
X248182D02*
Y639375D01*
X247955Y638750*
X247727Y638438*
X247727D02*
X247045Y638125D01*
X245000*
X250682Y641563D02*
X253182D01*
X253182D02*
X251818Y639063D01*
X251818D02*
X252500D01*
X252500D02*
X252955Y638750D01*
X253182Y638438*
X253182D02*
X253409Y637500D01*
Y636875*
X253182Y635938*
X253182D02*
X252727Y635313D01*
X252727D02*
X252045Y635000D01*
X251364*
X250682Y635313*
X250682D02*
X250455Y635625D01*
X250227Y636250*
X257727Y641563D02*
X255455Y637188D01*
X255455D02*
X258864D01*
X257727Y641563D02*
Y635000D01*
X245000Y631563D02*
Y625000D01*
Y631563D02*
X247045D01*
X247045D02*
X247727Y631250D01*
X247955Y630938*
X247955D02*
X248182Y630313D01*
X248182D02*
Y629375D01*
X247955Y628750*
X247727Y628438*
X247727D02*
X247045Y628125D01*
X245000*
X250682Y631563D02*
X253182D01*
X253182D02*
X251818Y629063D01*
X251818D02*
X252500D01*
X252500D02*
X252955Y628750D01*
X253182Y628438*
X253182D02*
X253409Y627500D01*
Y626875*
X253182Y625938*
X253182D02*
X252727Y625313D01*
X252727D02*
X252045Y625000D01*
X251364*
X250682Y625313*
X250682D02*
X250455Y625625D01*
X250227Y626250*
X256591Y631563D02*
X255909Y631250D01*
X255682Y630625*
Y630000*
X255909Y629375*
X256364Y629063*
X256364D02*
X257273Y628750D01*
X257955Y628438*
X257955D02*
X258409Y627813D01*
X258409D02*
X258636Y627188D01*
X258636D02*
Y626250D01*
X258409Y625625*
X258182Y625313*
X258182D02*
X257500Y625000D01*
X256591*
X255909Y625313*
X255909D02*
X255682Y625625D01*
X255455Y626250*
Y627188*
X255455D02*
X255682Y627813D01*
X255682D02*
X256136Y628438D01*
X256136D02*
X256818Y628750D01*
X257727Y629063*
X257727D02*
X258182Y629375D01*
X258409Y630000*
Y630625*
X258182Y631250*
X257500Y631563*
X257500D02*
X256591D01*
X245000Y621563D02*
Y615000D01*
Y621563D02*
X247045D01*
X247045D02*
X247727Y621250D01*
X247955Y620938*
X247955D02*
X248182Y620313D01*
X248182D02*
Y619375D01*
X247955Y618750*
X247727Y618438*
X247727D02*
X247045Y618125D01*
X245000*
X250682Y621563D02*
X253182D01*
X253182D02*
X251818Y619063D01*
X251818D02*
X252500D01*
X252500D02*
X252955Y618750D01*
X253182Y618438*
X253182D02*
X253409Y617500D01*
Y616875*
X253182Y615938*
X253182D02*
X252727Y615313D01*
X252727D02*
X252045Y615000D01*
X251364*
X250682Y615313*
X250682D02*
X250455Y615625D01*
X250227Y616250*
X258409Y619375D02*
X258182Y618438D01*
X258182D02*
X257727Y617813D01*
X257727D02*
X257045Y617500D01*
X256818*
X256136Y617813*
X256136D02*
X255682Y618438D01*
X255682D02*
X255455Y619375D01*
Y619688*
X255455D02*
X255682Y620625D01*
X256136Y621250*
X256818Y621563*
X256818D02*
X257045D01*
X257045D02*
X257727Y621250D01*
X258182Y620625*
X258409Y619375*
Y617813*
X258409D02*
X258182Y616250D01*
X257727Y615313*
X257727D02*
X257045Y615000D01*
X256591*
X255909Y615313*
X255909D02*
X255682Y615938D01*
X245000Y611563D02*
Y605000D01*
Y611563D02*
X247045D01*
X247045D02*
X247727Y611250D01*
X247955Y610938*
X247955D02*
X248182Y610313D01*
X248182D02*
Y609375D01*
X247955Y608750*
X247727Y608438*
X247727D02*
X247045Y608125D01*
X245000*
X252500Y611563D02*
X250227Y607188D01*
X250227D02*
X253636D01*
X252500Y611563D02*
Y605000D01*
X255909Y610000D02*
Y610313D01*
X255909D02*
X256136Y610938D01*
X256136D02*
X256364Y611250D01*
X256818Y611563*
X256818D02*
X257727D01*
X257727D02*
X258182Y611250D01*
X258409Y610938*
X258409D02*
X258636Y610313D01*
X258636D02*
Y609688D01*
X258636D02*
X258409Y609063D01*
X258409D02*
X257955Y608125D01*
X255682Y605000*
X258864*
X245000Y601563D02*
Y595000D01*
Y601563D02*
X247045D01*
X247045D02*
X247727Y601250D01*
X247955Y600938*
X247955D02*
X248182Y600313D01*
X248182D02*
Y599375D01*
X247955Y598750*
X247727Y598438*
X247727D02*
X247045Y598125D01*
X245000*
X252500Y601563D02*
X250227Y597188D01*
X250227D02*
X253636D01*
X252500Y601563D02*
Y595000D01*
X256136Y601563D02*
X258636D01*
X258636D02*
X257273Y599063D01*
X257273D02*
X257955D01*
X257955D02*
X258409Y598750D01*
X258636Y598438*
X258636D02*
X258864Y597500D01*
Y596875*
X258636Y595938*
X258636D02*
X258182Y595313D01*
X258182D02*
X257500Y595000D01*
X256818*
X256136Y595313*
X256136D02*
X255909Y595625D01*
X255682Y596250*
X245000Y591563D02*
Y585000D01*
Y591563D02*
X247045D01*
X247045D02*
X247727Y591250D01*
X247955Y590938*
X247955D02*
X248182Y590313D01*
X248182D02*
Y589375D01*
X247955Y588750*
X247727Y588438*
X247727D02*
X247045Y588125D01*
X245000*
X252500Y591563D02*
X250227Y587188D01*
X250227D02*
X253636D01*
X252500Y591563D02*
Y585000D01*
X257955Y591563D02*
X255682Y587188D01*
X255682D02*
X259091D01*
X257955Y591563D02*
Y585000D01*
X245000Y581563D02*
Y575000D01*
Y581563D02*
X247045D01*
X247045D02*
X247727Y581250D01*
X247955Y580938*
X247955D02*
X248182Y580313D01*
X248182D02*
Y579375D01*
X247955Y578750*
X247727Y578438*
X247727D02*
X247045Y578125D01*
X245000*
X252500Y581563D02*
X250227Y577188D01*
X250227D02*
X253636D01*
X252500Y581563D02*
Y575000D01*
X258409Y580625D02*
X258182Y581250D01*
X257500Y581563*
X257500D02*
X257045D01*
X257045D02*
X256364Y581250D01*
X255909Y580313*
X255909D02*
X255682Y578750D01*
Y577188*
X255682D02*
X255909Y575938D01*
X255909D02*
X256364Y575313D01*
X256364D02*
X257045Y575000D01*
X257273*
X257955Y575313*
X257955D02*
X258409Y575938D01*
X258409D02*
X258636Y576875D01*
Y577188*
X258636D02*
X258409Y578125D01*
X257955Y578750*
X257273Y579063*
X257273D02*
X257045D01*
X257045D02*
X256364Y578750D01*
X255909Y578125*
X255682Y577188*
X245000Y571563D02*
Y565000D01*
Y571563D02*
X247045D01*
X247045D02*
X247727Y571250D01*
X247955Y570938*
X247955D02*
X248182Y570313D01*
X248182D02*
Y569375D01*
X247955Y568750*
X247727Y568438*
X247727D02*
X247045Y568125D01*
X245000*
X252500Y571563D02*
X250227Y567188D01*
X250227D02*
X253636D01*
X252500Y571563D02*
Y565000D01*
X258636Y569375D02*
X258409Y568438D01*
X258409D02*
X257955Y567813D01*
X257955D02*
X257273Y567500D01*
X257045*
X256364Y567813*
X256364D02*
X255909Y568438D01*
X255909D02*
X255682Y569375D01*
Y569688*
X255682D02*
X255909Y570625D01*
X256364Y571250*
X257045Y571563*
X257045D02*
X257273D01*
X257273D02*
X257955Y571250D01*
X258409Y570625*
X258636Y569375*
Y567813*
X258636D02*
X258409Y566250D01*
X257955Y565313*
X257955D02*
X257273Y565000D01*
X256818*
X256136Y565313*
X256136D02*
X255909Y565938D01*
X245000Y561563D02*
Y555000D01*
Y561563D02*
X247045D01*
X247045D02*
X247727Y561250D01*
X247955Y560938*
X247955D02*
X248182Y560313D01*
X248182D02*
Y559375D01*
X247955Y558750*
X247727Y558438*
X247727D02*
X247045Y558125D01*
X245000*
X253182Y561563D02*
X250909D01*
X250909D02*
X250682Y558750D01*
X250909Y559063*
X250909D02*
X251591Y559375D01*
X252273*
X252955Y559063*
X252955D02*
X253409Y558438D01*
X253409D02*
X253636Y557500D01*
X253409Y556875*
X253182Y555938*
X253182D02*
X252727Y555313D01*
X252727D02*
X252045Y555000D01*
X251364*
X250682Y555313*
X250682D02*
X250455Y555625D01*
X250227Y556250*
X257045Y561563D02*
X256364Y561250D01*
X255909Y560313*
X255909D02*
X255682Y558750D01*
Y557813*
X255682D02*
X255909Y556250D01*
X256364Y555313*
X256364D02*
X257045Y555000D01*
X257500*
X258182Y555313*
X258182D02*
X258636Y556250D01*
X258864Y557813*
X258864D02*
Y558750D01*
X258636Y560313*
X258636D02*
X258182Y561250D01*
X257500Y561563*
X257500D02*
X257045D01*
X245000Y551563D02*
Y545000D01*
Y551563D02*
X247045D01*
X247045D02*
X247727Y551250D01*
X247955Y550938*
X247955D02*
X248182Y550313D01*
X248182D02*
Y549375D01*
X247955Y548750*
X247727Y548438*
X247727D02*
X247045Y548125D01*
X245000*
X253182Y551563D02*
X250909D01*
X250909D02*
X250682Y548750D01*
X250909Y549063*
X250909D02*
X251591Y549375D01*
X252273*
X252955Y549063*
X252955D02*
X253409Y548438D01*
X253409D02*
X253636Y547500D01*
X253409Y546875*
X253182Y545938*
X253182D02*
X252727Y545313D01*
X252727D02*
X252045Y545000D01*
X251364*
X250682Y545313*
X250682D02*
X250455Y545625D01*
X250227Y546250*
X255682Y550313D02*
X256136Y550625D01*
X256818Y551563*
X256818D02*
Y545000D01*
X245000Y541563D02*
Y535000D01*
Y541563D02*
X247045D01*
X247045D02*
X247727Y541250D01*
X247955Y540938*
X247955D02*
X248182Y540313D01*
X248182D02*
Y539375D01*
X247955Y538750*
X247727Y538438*
X247727D02*
X247045Y538125D01*
X245000*
X253182Y541563D02*
X250909D01*
X250909D02*
X250682Y538750D01*
X250909Y539063*
X250909D02*
X251591Y539375D01*
X252273*
X252955Y539063*
X252955D02*
X253409Y538438D01*
X253409D02*
X253636Y537500D01*
X253409Y536875*
X253182Y535938*
X253182D02*
X252727Y535313D01*
X252727D02*
X252045Y535000D01*
X251364*
X250682Y535313*
X250682D02*
X250455Y535625D01*
X250227Y536250*
X255909Y540000D02*
Y540313D01*
X255909D02*
X256136Y540938D01*
X256136D02*
X256364Y541250D01*
X256818Y541563*
X256818D02*
X257727D01*
X257727D02*
X258182Y541250D01*
X258409Y540938*
X258409D02*
X258636Y540313D01*
X258636D02*
Y539688D01*
X258636D02*
X258409Y539063D01*
X258409D02*
X257955Y538125D01*
X255682Y535000*
X258864*
X245000Y531563D02*
Y525000D01*
Y531563D02*
X247045D01*
X247045D02*
X247727Y531250D01*
X247955Y530938*
X247955D02*
X248182Y530313D01*
X248182D02*
Y529375D01*
X247955Y528750*
X247727Y528438*
X247727D02*
X247045Y528125D01*
X245000*
X253182Y531563D02*
X250909D01*
X250909D02*
X250682Y528750D01*
X250909Y529063*
X250909D02*
X251591Y529375D01*
X252273*
X252955Y529063*
X252955D02*
X253409Y528438D01*
X253409D02*
X253636Y527500D01*
X253409Y526875*
X253182Y525938*
X253182D02*
X252727Y525313D01*
X252727D02*
X252045Y525000D01*
X251364*
X250682Y525313*
X250682D02*
X250455Y525625D01*
X250227Y526250*
X256136Y531563D02*
X258636D01*
X258636D02*
X257273Y529063D01*
X257273D02*
X257955D01*
X257955D02*
X258409Y528750D01*
X258636Y528438*
X258636D02*
X258864Y527500D01*
Y526875*
X258636Y525938*
X258636D02*
X258182Y525313D01*
X258182D02*
X257500Y525000D01*
X256818*
X256136Y525313*
X256136D02*
X255909Y525625D01*
X255682Y526250*
X245000Y521563D02*
Y515000D01*
Y521563D02*
X247045D01*
X247045D02*
X247727Y521250D01*
X247955Y520938*
X247955D02*
X248182Y520313D01*
X248182D02*
Y519375D01*
X247955Y518750*
X247727Y518438*
X247727D02*
X247045Y518125D01*
X245000*
X253182Y521563D02*
X250909D01*
X250909D02*
X250682Y518750D01*
X250909Y519063*
X250909D02*
X251591Y519375D01*
X252273*
X252955Y519063*
X252955D02*
X253409Y518438D01*
X253409D02*
X253636Y517500D01*
X253409Y516875*
X253182Y515938*
X253182D02*
X252727Y515313D01*
X252727D02*
X252045Y515000D01*
X251364*
X250682Y515313*
X250682D02*
X250455Y515625D01*
X250227Y516250*
X257955Y521563D02*
X255682Y517188D01*
X255682D02*
X259091D01*
X257955Y521563D02*
Y515000D01*
X245000Y511563D02*
Y505000D01*
Y511563D02*
X247045D01*
X247045D02*
X247727Y511250D01*
X247955Y510938*
X247955D02*
X248182Y510313D01*
X248182D02*
Y509375D01*
X247955Y508750*
X247727Y508438*
X247727D02*
X247045Y508125D01*
X245000*
X253182Y511563D02*
X250909D01*
X250909D02*
X250682Y508750D01*
X250909Y509063*
X250909D02*
X251591Y509375D01*
X252273*
X252955Y509063*
X252955D02*
X253409Y508438D01*
X253409D02*
X253636Y507500D01*
X253409Y506875*
X253182Y505938*
X253182D02*
X252727Y505313D01*
X252727D02*
X252045Y505000D01*
X251364*
X250682Y505313*
X250682D02*
X250455Y505625D01*
X250227Y506250*
X258636Y511563D02*
X256364D01*
X256364D02*
X256136Y508750D01*
X256364Y509063*
X256364D02*
X257045Y509375D01*
X257727*
X258409Y509063*
X258409D02*
X258864Y508438D01*
X258864D02*
X259091Y507500D01*
X258864Y506875*
X258636Y505938*
X258636D02*
X258182Y505313D01*
X258182D02*
X257500Y505000D01*
X256818*
X256136Y505313*
X256136D02*
X255909Y505625D01*
X255682Y506250*
X245000Y501563D02*
Y495000D01*
Y501563D02*
X247045D01*
X247045D02*
X247727Y501250D01*
X247955Y500938*
X247955D02*
X248182Y500313D01*
X248182D02*
Y499375D01*
X247955Y498750*
X247727Y498438*
X247727D02*
X247045Y498125D01*
X245000*
X253182Y501563D02*
X250909D01*
X250909D02*
X250682Y498750D01*
X250909Y499063*
X250909D02*
X251591Y499375D01*
X252273*
X252955Y499063*
X252955D02*
X253409Y498438D01*
X253409D02*
X253636Y497500D01*
X253409Y496875*
X253182Y495938*
X253182D02*
X252727Y495313D01*
X252727D02*
X252045Y495000D01*
X251364*
X250682Y495313*
X250682D02*
X250455Y495625D01*
X250227Y496250*
X256818Y501563D02*
X256136Y501250D01*
X255909Y500625*
Y500000*
X256136Y499375*
X256591Y499063*
X256591D02*
X257500Y498750D01*
X258182Y498438*
X258182D02*
X258636Y497813D01*
X258636D02*
X258864Y497188D01*
X258864D02*
Y496250D01*
X258636Y495625*
X258409Y495313*
X258409D02*
X257727Y495000D01*
X256818*
X256136Y495313*
X256136D02*
X255909Y495625D01*
X255682Y496250*
Y497188*
X255682D02*
X255909Y497813D01*
X255909D02*
X256364Y498438D01*
X256364D02*
X257045Y498750D01*
X257955Y499063*
X257955D02*
X258409Y499375D01*
X258636Y500000*
Y500625*
X258409Y501250*
X257727Y501563*
X257727D02*
X256818D01*
X245000Y491563D02*
Y485000D01*
Y491563D02*
X247045D01*
X247045D02*
X247727Y491250D01*
X247955Y490938*
X247955D02*
X248182Y490313D01*
X248182D02*
Y489375D01*
X247955Y488750*
X247727Y488438*
X247727D02*
X247045Y488125D01*
X245000*
X253182Y491563D02*
X250909D01*
X250909D02*
X250682Y488750D01*
X250909Y489063*
X250909D02*
X251591Y489375D01*
X252273*
X252955Y489063*
X252955D02*
X253409Y488438D01*
X253409D02*
X253636Y487500D01*
X253409Y486875*
X253182Y485938*
X253182D02*
X252727Y485313D01*
X252727D02*
X252045Y485000D01*
X251364*
X250682Y485313*
X250682D02*
X250455Y485625D01*
X250227Y486250*
X258636Y489375D02*
X258409Y488438D01*
X258409D02*
X257955Y487813D01*
X257955D02*
X257273Y487500D01*
X257045*
X256364Y487813*
X256364D02*
X255909Y488438D01*
X255909D02*
X255682Y489375D01*
Y489688*
X255682D02*
X255909Y490625D01*
X256364Y491250*
X257045Y491563*
X257045D02*
X257273D01*
X257273D02*
X257955Y491250D01*
X258409Y490625*
X258636Y489375*
Y487813*
X258636D02*
X258409Y486250D01*
X257955Y485313*
X257955D02*
X257273Y485000D01*
X256818*
X256136Y485313*
X256136D02*
X255909Y485938D01*
X245000Y481563D02*
Y475000D01*
Y481563D02*
X247045D01*
X247045D02*
X247727Y481250D01*
X247955Y480938*
X247955D02*
X248182Y480313D01*
X248182D02*
Y479375D01*
X247955Y478750*
X247727Y478438*
X247727D02*
X247045Y478125D01*
X245000*
X252955Y480625D02*
X252727Y481250D01*
X252045Y481563*
X252045D02*
X251591D01*
X251591D02*
X250909Y481250D01*
X250455Y480313*
X250455D02*
X250227Y478750D01*
Y477188*
X250227D02*
X250455Y475938D01*
X250455D02*
X250909Y475313D01*
X250909D02*
X251591Y475000D01*
X251818*
X252500Y475313*
X252500D02*
X252955Y475938D01*
X252955D02*
X253182Y476875D01*
Y477188*
X253182D02*
X252955Y478125D01*
X252500Y478750*
X251818Y479063*
X251818D02*
X251591D01*
X251591D02*
X250909Y478750D01*
X250455Y478125*
X250227Y477188*
X256591Y481563D02*
X255909Y481250D01*
X255455Y480313*
X255455D02*
X255227Y478750D01*
Y477813*
X255227D02*
X255455Y476250D01*
X255909Y475313*
X255909D02*
X256591Y475000D01*
X257045*
X257727Y475313*
X257727D02*
X258182Y476250D01*
X258409Y477813*
X258409D02*
Y478750D01*
X258182Y480313*
X258182D02*
X257727Y481250D01*
X257045Y481563*
X257045D02*
X256591D01*
X245000Y471563D02*
Y465000D01*
Y471563D02*
X247045D01*
X247045D02*
X247727Y471250D01*
X247955Y470938*
X247955D02*
X248182Y470313D01*
X248182D02*
Y469375D01*
X247955Y468750*
X247727Y468438*
X247727D02*
X247045Y468125D01*
X245000*
X252045Y471563D02*
X250227Y465000D01*
X252045Y471563D02*
X253864Y465000D01*
X250909Y467188D02*
X253182D01*
X257045Y471563D02*
X256364Y471250D01*
X256136Y470625*
Y470000*
X256364Y469375*
X256818Y469063*
X256818D02*
X257727Y468750D01*
X258409Y468438*
X258409D02*
X258864Y467813D01*
X258864D02*
X259091Y467188D01*
X259091D02*
Y466250D01*
X258864Y465625*
X258636Y465313*
X258636D02*
X257955Y465000D01*
X257045*
X256364Y465313*
X256364D02*
X256136Y465625D01*
X255909Y466250*
Y467188*
X255909D02*
X256136Y467813D01*
X256136D02*
X256591Y468438D01*
X256591D02*
X257273Y468750D01*
X258182Y469063*
X258182D02*
X258636Y469375D01*
X258864Y470000*
Y470625*
X258636Y471250*
X257955Y471563*
X257955D02*
X257045D01*
X245000Y461563D02*
Y455000D01*
Y461563D02*
X247045D01*
X247045D02*
X247727Y461250D01*
X247955Y460938*
X247955D02*
X248182Y460313D01*
X248182D02*
Y459375D01*
X247955Y458750*
X247727Y458438*
X247727D02*
X247045Y458125D01*
X245000*
X252045Y461563D02*
X250227Y455000D01*
X252045Y461563D02*
X253864Y455000D01*
X250909Y457188D02*
X253182D01*
X258864Y459375D02*
X258636Y458438D01*
X258636D02*
X258182Y457813D01*
X258182D02*
X257500Y457500D01*
X257273*
X256591Y457813*
X256591D02*
X256136Y458438D01*
X256136D02*
X255909Y459375D01*
Y459688*
X255909D02*
X256136Y460625D01*
X256591Y461250*
X257273Y461563*
X257273D02*
X257500D01*
X257500D02*
X258182Y461250D01*
X258636Y460625*
X258864Y459375*
Y457813*
X258864D02*
X258636Y456250D01*
X258182Y455313*
X258182D02*
X257500Y455000D01*
X257045*
X256364Y455313*
X256364D02*
X256136Y455938D01*
X245000Y451563D02*
Y445000D01*
Y451563D02*
X247045D01*
X247045D02*
X247727Y451250D01*
X247955Y450938*
X247955D02*
X248182Y450313D01*
X248182D02*
Y449375D01*
X247955Y448750*
X247727Y448438*
X247727D02*
X247045Y448125D01*
X245000*
X252045Y451563D02*
X250227Y445000D01*
X252045Y451563D02*
X253864Y445000D01*
X250909Y447188D02*
X253182D01*
X255909Y450313D02*
X256364Y450625D01*
X257045Y451563*
X257045D02*
Y445000D01*
X260455Y451563D02*
X259773Y451250D01*
X259318Y450313*
X259318D02*
X259091Y448750D01*
Y447813*
X259091D02*
X259318Y446250D01*
X259773Y445313*
X259773D02*
X260455Y445000D01*
X260909*
X261591Y445313*
X261591D02*
X262045Y446250D01*
X262273Y447813*
X262273D02*
Y448750D01*
X262045Y450313*
X262045D02*
X261591Y451250D01*
X260909Y451563*
X260909D02*
X260455D01*
X245000Y441563D02*
Y435000D01*
Y441563D02*
X247045D01*
X247045D02*
X247727Y441250D01*
X247955Y440938*
X247955D02*
X248182Y440313D01*
X248182D02*
Y439375D01*
X247955Y438750*
X247727Y438438*
X247727D02*
X247045Y438125D01*
X245000*
X252045Y441563D02*
X250227Y435000D01*
X252045Y441563D02*
X253864Y435000D01*
X250909Y437188D02*
X253182D01*
X255909Y440313D02*
X256364Y440625D01*
X257045Y441563*
X257045D02*
Y435000D01*
X259091Y440313D02*
X259545Y440625D01*
X260227Y441563*
X260227D02*
Y435000D01*
X266364Y442813D02*
X262273Y432812D01*
X268409Y441563D02*
Y435000D01*
Y441563D02*
X271591Y435000D01*
Y441563D02*
Y435000D01*
X273636Y441563D02*
Y435000D01*
Y441563D02*
X275682D01*
X275682D02*
X276364Y441250D01*
X276591Y440938*
X276591D02*
X276818Y440313D01*
X276818D02*
Y439375D01*
X276591Y438750*
X276364Y438438*
X276364D02*
X275682Y438125D01*
X273636*
X282273Y440000D02*
X282045Y440625D01*
X281591Y441250*
X281136Y441563*
X281136D02*
X280227D01*
X280227D02*
X279773Y441250D01*
X279318Y440625*
X279091Y440000*
X278864Y439063*
X278864D02*
Y437500D01*
X279091Y436563*
X279091D02*
X279318Y435938D01*
X279318D02*
X279773Y435313D01*
X279773D02*
X280227Y435000D01*
X281136*
X281591Y435313*
X281591D02*
X282045Y435938D01*
X282045D02*
X282273Y436563D01*
X287500Y440625D02*
X287045Y441250D01*
X286364Y441563*
X286364D02*
X285455D01*
X285455D02*
X284773Y441250D01*
X284318Y440625*
Y440000*
X284545Y439375*
X284773Y439063*
X284773D02*
X285227Y438750D01*
X286591Y438125*
X287045Y437813*
X287045D02*
X287273Y437500D01*
X287500Y436875*
Y435938*
X287500D02*
X287045Y435313D01*
X287045D02*
X286364Y435000D01*
X285455*
X284773Y435313*
X284773D02*
X284318Y435938D01*
X290909Y441563D02*
X290227Y441250D01*
X289773Y440313*
X289773D02*
X289545Y438750D01*
Y437813*
X289545D02*
X289773Y436250D01*
X290227Y435313*
X290227D02*
X290909Y435000D01*
X291364*
X292045Y435313*
X292045D02*
X292500Y436250D01*
X292727Y437813*
X292727D02*
Y438750D01*
X292500Y440313*
X292500D02*
X292045Y441250D01*
X291364Y441563*
X291364D02*
X290909D01*
X245000Y431563D02*
Y425000D01*
Y431563D02*
X247045D01*
X247045D02*
X247727Y431250D01*
X247955Y430938*
X247955D02*
X248182Y430313D01*
X248182D02*
Y429375D01*
X247955Y428750*
X247727Y428438*
X247727D02*
X247045Y428125D01*
X245000*
X252045Y431563D02*
X250227Y425000D01*
X252045Y431563D02*
X253864Y425000D01*
X250909Y427188D02*
X253182D01*
X255909Y430313D02*
X256364Y430625D01*
X257045Y431563*
X257045D02*
Y425000D01*
X259318Y430000D02*
Y430313D01*
X259318D02*
X259545Y430938D01*
X259545D02*
X259773Y431250D01*
X260227Y431563*
X260227D02*
X261136D01*
X261136D02*
X261591Y431250D01*
X261818Y430938*
X261818D02*
X262045Y430313D01*
X262045D02*
Y429688D01*
X262045D02*
X261818Y429063D01*
X261818D02*
X261364Y428125D01*
X259091Y425000*
X262273*
X268409Y432813D02*
X264318Y422812D01*
X270455Y431563D02*
Y425000D01*
Y431563D02*
X272273Y425000D01*
X274091Y431563D02*
X272273Y425000D01*
X274091Y431563D02*
Y425000D01*
X276136Y431563D02*
Y425000D01*
X281364Y430625D02*
X280909Y431250D01*
X280227Y431563*
X280227D02*
X279318D01*
X279318D02*
X278636Y431250D01*
X278182Y430625*
Y430000*
X278409Y429375*
X278636Y429063*
X278636D02*
X279091Y428750D01*
X280455Y428125*
X280909Y427813*
X280909D02*
X281136Y427500D01*
X281364Y426875*
Y425938*
X281364D02*
X280909Y425313D01*
X280909D02*
X280227Y425000D01*
X279318*
X278636Y425313*
X278636D02*
X278182Y425938D01*
X284773Y431563D02*
X284318Y431250D01*
X283864Y430625*
X283636Y430000*
X283409Y429063*
X283409D02*
Y427500D01*
X283636Y426563*
X283636D02*
X283864Y425938D01*
X283864D02*
X284318Y425313D01*
X284318D02*
X284773Y425000D01*
X285682*
X286136Y425313*
X286136D02*
X286591Y425938D01*
X286591D02*
X286818Y426563D01*
X286818D02*
X287045Y427500D01*
Y429063*
X287045D02*
X286818Y430000D01*
X286591Y430625*
X286136Y431250*
X285682Y431563*
X285682D02*
X284773D01*
X245000Y421563D02*
Y415000D01*
Y421563D02*
X247045D01*
X247045D02*
X247727Y421250D01*
X247955Y420938*
X247955D02*
X248182Y420313D01*
X248182D02*
Y419375D01*
X247955Y418750*
X247727Y418438*
X247727D02*
X247045Y418125D01*
X245000*
X252045Y421563D02*
X250227Y415000D01*
X252045Y421563D02*
X253864Y415000D01*
X250909Y417188D02*
X253182D01*
X255909Y420313D02*
X256364Y420625D01*
X257045Y421563*
X257045D02*
Y415000D01*
X259545Y421563D02*
X262045D01*
X262045D02*
X260682Y419063D01*
X260682D02*
X261364D01*
X261364D02*
X261818Y418750D01*
X262045Y418438*
X262045D02*
X262273Y417500D01*
Y416875*
X262045Y415938*
X262045D02*
X261591Y415313D01*
X261591D02*
X260909Y415000D01*
X260227*
X259545Y415313*
X259545D02*
X259318Y415625D01*
X259091Y416250*
X268409Y422813D02*
X264318Y412812D01*
X270455Y421563D02*
Y415000D01*
Y421563D02*
X272273Y415000D01*
X274091Y421563D02*
X272273Y415000D01*
X274091Y421563D02*
Y415000D01*
X277500Y421563D02*
X277045Y421250D01*
X276591Y420625*
X276364Y420000*
X276136Y419063*
X276136D02*
Y417500D01*
X276364Y416563*
X276364D02*
X276591Y415938D01*
X276591D02*
X277045Y415313D01*
X277045D02*
X277500Y415000D01*
X278409*
X278864Y415313*
X278864D02*
X279318Y415938D01*
X279318D02*
X279545Y416563D01*
X279545D02*
X279773Y417500D01*
Y419063*
X279773D02*
X279545Y420000D01*
X279318Y420625*
X278864Y421250*
X278409Y421563*
X278409D02*
X277500D01*
X285000Y420625D02*
X284545Y421250D01*
X283864Y421563*
X283864D02*
X282955D01*
X282955D02*
X282273Y421250D01*
X281818Y420625*
Y420000*
X282045Y419375*
X282273Y419063*
X282273D02*
X282727Y418750D01*
X284091Y418125*
X284545Y417813*
X284545D02*
X284773Y417500D01*
X285000Y416875*
Y415938*
X285000D02*
X284545Y415313D01*
X284545D02*
X283864Y415000D01*
X282955*
X282273Y415313*
X282273D02*
X281818Y415938D01*
X287045Y421563D02*
Y415000D01*
X245000Y411563D02*
Y405000D01*
Y411563D02*
X247045D01*
X247045D02*
X247727Y411250D01*
X247955Y410938*
X247955D02*
X248182Y410313D01*
X248182D02*
Y409375D01*
X247955Y408750*
X247727Y408438*
X247727D02*
X247045Y408125D01*
X245000*
X252045Y411563D02*
X250227Y405000D01*
X252045Y411563D02*
X253864Y405000D01*
X250909Y407188D02*
X253182D01*
X255909Y410313D02*
X256364Y410625D01*
X257045Y411563*
X257045D02*
Y405000D01*
X261364Y411563D02*
X259091Y407188D01*
X259091D02*
X262500D01*
X261364Y411563D02*
Y405000D01*
X268636Y412813D02*
X264545Y402812D01*
X273864Y410625D02*
X273409Y411250D01*
X272727Y411563*
X272727D02*
X271818D01*
X271818D02*
X271136Y411250D01*
X270682Y410625*
Y410000*
X270909Y409375*
X271136Y409063*
X271136D02*
X271591Y408750D01*
X272955Y408125*
X273409Y407813*
X273409D02*
X273636Y407500D01*
X273864Y406875*
Y405938*
X273864D02*
X273409Y405313D01*
X273409D02*
X272727Y405000D01*
X271818*
X271136Y405313*
X271136D02*
X270682Y405938D01*
X275909Y411563D02*
Y405000D01*
Y411563D02*
X277955D01*
X277955D02*
X278636Y411250D01*
X278864Y410938*
X278864D02*
X279091Y410313D01*
X279091D02*
Y409375D01*
X278864Y408750*
X278636Y408438*
X278636D02*
X277955Y408125D01*
X275909*
X284545Y410000D02*
X284318Y410625D01*
X283864Y411250*
X283409Y411563*
X283409D02*
X282500D01*
X282500D02*
X282045Y411250D01*
X281591Y410625*
X281364Y410000*
X281136Y409063*
X281136D02*
Y407500D01*
X281364Y406563*
X281364D02*
X281591Y405938D01*
X281591D02*
X282045Y405313D01*
X282045D02*
X282500Y405000D01*
X283409*
X283864Y405313*
X283864D02*
X284318Y405938D01*
X284318D02*
X284545Y406563D01*
X286591Y411563D02*
Y405000D01*
X289773Y411563D02*
X286591Y407188D01*
X287727Y408750D02*
X289773Y405000D01*
X245000Y401563D02*
Y395000D01*
Y401563D02*
X247045D01*
X247045D02*
X247727Y401250D01*
X247955Y400938*
X247955D02*
X248182Y400313D01*
X248182D02*
Y399375D01*
X247955Y398750*
X247727Y398438*
X247727D02*
X247045Y398125D01*
X245000*
X252045Y401563D02*
X250227Y395000D01*
X252045Y401563D02*
X253864Y395000D01*
X250909Y397188D02*
X253182D01*
X255909Y400313D02*
X256364Y400625D01*
X257045Y401563*
X257045D02*
Y395000D01*
X262045Y401563D02*
X259773D01*
X259773D02*
X259545Y398750D01*
X259773Y399063*
X259773D02*
X260455Y399375D01*
X261136*
X261818Y399063*
X261818D02*
X262273Y398438D01*
X262273D02*
X262500Y397500D01*
X262273Y396875*
X262045Y395938*
X262045D02*
X261591Y395313D01*
X261591D02*
X260909Y395000D01*
X260227*
X259545Y395313*
X259545D02*
X259318Y395625D01*
X259091Y396250*
X245000Y391563D02*
Y385000D01*
Y391563D02*
X247045D01*
X247045D02*
X247727Y391250D01*
X247955Y390938*
X247955D02*
X248182Y390313D01*
X248182D02*
Y389375D01*
X247955Y388750*
X247727Y388438*
X247727D02*
X247045Y388125D01*
X245000*
X252045Y391563D02*
X250227Y385000D01*
X252045Y391563D02*
X253864Y385000D01*
X250909Y387188D02*
X253182D01*
X255909Y390313D02*
X256364Y390625D01*
X257045Y391563*
X257045D02*
Y385000D01*
X261818Y390625D02*
X261591Y391250D01*
X260909Y391563*
X260909D02*
X260455D01*
X260455D02*
X259773Y391250D01*
X259318Y390313*
X259318D02*
X259091Y388750D01*
Y387188*
X259091D02*
X259318Y385938D01*
X259318D02*
X259773Y385313D01*
X259773D02*
X260455Y385000D01*
X260682*
X261364Y385313*
X261364D02*
X261818Y385938D01*
X261818D02*
X262045Y386875D01*
Y387188*
X262045D02*
X261818Y388125D01*
X261364Y388750*
X260682Y389063*
X260682D02*
X260455D01*
X260455D02*
X259773Y388750D01*
X259318Y388125*
X259091Y387188*
X245000Y381563D02*
Y375000D01*
Y381563D02*
X247045D01*
X247045D02*
X247727Y381250D01*
X247955Y380938*
X247955D02*
X248182Y380313D01*
X248182D02*
Y379375D01*
X247955Y378750*
X247727Y378438*
X247727D02*
X247045Y378125D01*
X245000*
X252045Y381563D02*
X250227Y375000D01*
X252045Y381563D02*
X253864Y375000D01*
X250909Y377188D02*
X253182D01*
X255909Y380313D02*
X256364Y380625D01*
X257045Y381563*
X257045D02*
Y375000D01*
X262273Y381563D02*
X260000Y375000D01*
X259091Y381563D02*
X262273D01*
X268409Y382813D02*
X264318Y372812D01*
X272273Y381563D02*
X270455Y375000D01*
X272273Y381563D02*
X274091Y375000D01*
X271136Y377188D02*
X273409D01*
X276136Y381563D02*
Y375000D01*
Y381563D02*
X277727D01*
X277727D02*
X278409Y381250D01*
X278864Y380625*
X279091Y380000*
X279318Y379063*
X279318D02*
Y377500D01*
X279091Y376563*
X279091D02*
X278864Y375938D01*
X278864D02*
X278409Y375313D01*
X278409D02*
X277727Y375000D01*
X276136*
X282727Y381563D02*
X282045Y381250D01*
X281591Y380313*
X281591D02*
X281364Y378750D01*
Y377813*
X281364D02*
X281591Y376250D01*
X282045Y375313*
X282045D02*
X282727Y375000D01*
X283182*
X283864Y375313*
X283864D02*
X284318Y376250D01*
X284545Y377813*
X284545D02*
Y378750D01*
X284318Y380313*
X284318D02*
X283864Y381250D01*
X283182Y381563*
X283182D02*
X282727D01*
X245000Y371563D02*
Y365000D01*
Y371563D02*
X247045D01*
X247045D02*
X247727Y371250D01*
X247955Y370938*
X247955D02*
X248182Y370313D01*
X248182D02*
Y369375D01*
X247955Y368750*
X247727Y368438*
X247727D02*
X247045Y368125D01*
X245000*
X252045Y371563D02*
X250227Y365000D01*
X252045Y371563D02*
X253864Y365000D01*
X250909Y367188D02*
X253182D01*
X255909Y370313D02*
X256364Y370625D01*
X257045Y371563*
X257045D02*
Y365000D01*
X260227Y371563D02*
X259545Y371250D01*
X259318Y370625*
Y370000*
X259545Y369375*
X260000Y369063*
X260000D02*
X260909Y368750D01*
X261591Y368438*
X261591D02*
X262045Y367813D01*
X262045D02*
X262273Y367188D01*
X262273D02*
Y366250D01*
X262045Y365625*
X261818Y365313*
X261818D02*
X261136Y365000D01*
X260227*
X259545Y365313*
X259545D02*
X259318Y365625D01*
X259091Y366250*
Y367188*
X259091D02*
X259318Y367813D01*
X259318D02*
X259773Y368438D01*
X259773D02*
X260455Y368750D01*
X261364Y369063*
X261364D02*
X261818Y369375D01*
X262045Y370000*
Y370625*
X261818Y371250*
X261136Y371563*
X261136D02*
X260227D01*
X268409Y372813D02*
X264318Y362812D01*
X272273Y371563D02*
X270455Y365000D01*
X272273Y371563D02*
X274091Y365000D01*
X271136Y367188D02*
X273409D01*
X276136Y371563D02*
Y365000D01*
Y371563D02*
X277727D01*
X277727D02*
X278409Y371250D01*
X278864Y370625*
X279091Y370000*
X279318Y369063*
X279318D02*
Y367500D01*
X279091Y366563*
X279091D02*
X278864Y365938D01*
X278864D02*
X278409Y365313D01*
X278409D02*
X277727Y365000D01*
X276136*
X281364Y370313D02*
X281818Y370625D01*
X282500Y371563*
X282500D02*
Y365000D01*
X245000Y361563D02*
Y355000D01*
Y361563D02*
X247045D01*
X247045D02*
X247727Y361250D01*
X247955Y360938*
X247955D02*
X248182Y360313D01*
X248182D02*
Y359375D01*
X247955Y358750*
X247727Y358438*
X247727D02*
X247045Y358125D01*
X245000*
X252045Y361563D02*
X250227Y355000D01*
X252045Y361563D02*
X253864Y355000D01*
X250909Y357188D02*
X253182D01*
X255909Y360313D02*
X256364Y360625D01*
X257045Y361563*
X257045D02*
Y355000D01*
X262045Y359375D02*
X261818Y358438D01*
X261818D02*
X261364Y357813D01*
X261364D02*
X260682Y357500D01*
X260455*
X259773Y357813*
X259773D02*
X259318Y358438D01*
X259318D02*
X259091Y359375D01*
Y359688*
X259091D02*
X259318Y360625D01*
X259773Y361250*
X260455Y361563*
X260455D02*
X260682D01*
X260682D02*
X261364Y361250D01*
X261818Y360625*
X262045Y359375*
Y357813*
X262045D02*
X261818Y356250D01*
X261364Y355313*
X261364D02*
X260682Y355000D01*
X260227*
X259545Y355313*
X259545D02*
X259318Y355938D01*
X268182Y362813D02*
X264091Y352812D01*
X272045Y361563D02*
X270227Y355000D01*
X272045Y361563D02*
X273864Y355000D01*
X270909Y357188D02*
X273182D01*
X275909Y361563D02*
Y355000D01*
Y361563D02*
X277500D01*
X277500D02*
X278182Y361250D01*
X278636Y360625*
X278864Y360000*
X279091Y359063*
X279091D02*
Y357500D01*
X278864Y356563*
X278864D02*
X278636Y355938D01*
X278636D02*
X278182Y355313D01*
X278182D02*
X277500Y355000D01*
X275909*
X281364Y360000D02*
Y360313D01*
X281364D02*
X281591Y360938D01*
X281591D02*
X281818Y361250D01*
X282273Y361563*
X282273D02*
X283182D01*
X283182D02*
X283636Y361250D01*
X283864Y360938*
X283864D02*
X284091Y360313D01*
X284091D02*
Y359688D01*
X284091D02*
X283864Y359063D01*
X283864D02*
X283409Y358125D01*
X281136Y355000*
X284318*
X245000Y351563D02*
Y345000D01*
Y351563D02*
X247045D01*
X247045D02*
X247727Y351250D01*
X247955Y350938*
X247955D02*
X248182Y350313D01*
X248182D02*
Y349375D01*
X247955Y348750*
X247727Y348438*
X247727D02*
X247045Y348125D01*
X245000*
X252045Y351563D02*
X250227Y345000D01*
X252045Y351563D02*
X253864Y345000D01*
X250909Y347188D02*
X253182D01*
X256136Y350000D02*
Y350313D01*
X256136D02*
X256364Y350938D01*
X256364D02*
X256591Y351250D01*
X257045Y351563*
X257045D02*
X257955D01*
X257955D02*
X258409Y351250D01*
X258636Y350938*
X258636D02*
X258864Y350313D01*
X258864D02*
Y349688D01*
X258864D02*
X258636Y349063D01*
X258636D02*
X258182Y348125D01*
X255909Y345000*
X259091*
X262500Y351563D02*
X261818Y351250D01*
X261364Y350313*
X261364D02*
X261136Y348750D01*
Y347813*
X261136D02*
X261364Y346250D01*
X261818Y345313*
X261818D02*
X262500Y345000D01*
X262955*
X263636Y345313*
X263636D02*
X264091Y346250D01*
X264318Y347813*
X264318D02*
Y348750D01*
X264091Y350313*
X264091D02*
X263636Y351250D01*
X262955Y351563*
X262955D02*
X262500D01*
X270455Y352813D02*
X266364Y342812D01*
X274318Y351563D02*
X272500Y345000D01*
X274318Y351563D02*
X276136Y345000D01*
X273182Y347188D02*
X275455D01*
X278182Y351563D02*
Y345000D01*
Y351563D02*
X279773D01*
X279773D02*
X280455Y351250D01*
X280909Y350625*
X281136Y350000*
X281364Y349063*
X281364D02*
Y347500D01*
X281136Y346563*
X281136D02*
X280909Y345938D01*
X280909D02*
X280455Y345313D01*
X280455D02*
X279773Y345000D01*
X278182*
X283864Y351563D02*
X286364D01*
X286364D02*
X285000Y349063D01*
X285000D02*
X285682D01*
X285682D02*
X286136Y348750D01*
X286364Y348438*
X286364D02*
X286591Y347500D01*
Y346875*
X286364Y345938*
X286364D02*
X285909Y345313D01*
X285909D02*
X285227Y345000D01*
X284545*
X283864Y345313*
X283864D02*
X283636Y345625D01*
X283409Y346250*
X245000Y341563D02*
Y335000D01*
Y341563D02*
X247045D01*
X247045D02*
X247727Y341250D01*
X247955Y340938*
X247955D02*
X248182Y340313D01*
X248182D02*
Y339375D01*
X247955Y338750*
X247727Y338438*
X247727D02*
X247045Y338125D01*
X245000*
X252045Y341563D02*
X250227Y335000D01*
X252045Y341563D02*
X253864Y335000D01*
X250909Y337188D02*
X253182D01*
X256136Y340000D02*
Y340313D01*
X256136D02*
X256364Y340938D01*
X256364D02*
X256591Y341250D01*
X257045Y341563*
X257045D02*
X257955D01*
X257955D02*
X258409Y341250D01*
X258636Y340938*
X258636D02*
X258864Y340313D01*
X258864D02*
Y339688D01*
X258864D02*
X258636Y339063D01*
X258636D02*
X258182Y338125D01*
X255909Y335000*
X259091*
X261136Y340313D02*
X261591Y340625D01*
X262273Y341563*
X262273D02*
Y335000D01*
X268409Y342813D02*
X264318Y332812D01*
X272273Y341563D02*
X270455Y335000D01*
X272273Y341563D02*
X274091Y335000D01*
X271136Y337188D02*
X273409D01*
X276136Y341563D02*
Y335000D01*
Y341563D02*
X277727D01*
X277727D02*
X278409Y341250D01*
X278864Y340625*
X279091Y340000*
X279318Y339063*
X279318D02*
Y337500D01*
X279091Y336563*
X279091D02*
X278864Y335938D01*
X278864D02*
X278409Y335313D01*
X278409D02*
X277727Y335000D01*
X276136*
X282500Y341563D02*
X281818Y341250D01*
X281591Y340625*
Y340000*
X281818Y339375*
X282273Y339063*
X282273D02*
X283182Y338750D01*
X283864Y338438*
X283864D02*
X284318Y337813D01*
X284318D02*
X284545Y337188D01*
X284545D02*
Y336250D01*
X284318Y335625*
X284091Y335313*
X284091D02*
X283409Y335000D01*
X282500*
X281818Y335313*
X281818D02*
X281591Y335625D01*
X281364Y336250*
Y337188*
X281364D02*
X281591Y337813D01*
X281591D02*
X282045Y338438D01*
X282045D02*
X282727Y338750D01*
X283636Y339063*
X283636D02*
X284091Y339375D01*
X284318Y340000*
Y340625*
X284091Y341250*
X283409Y341563*
X283409D02*
X282500D01*
X290682Y342813D02*
X286591Y332812D01*
X292727Y341563D02*
Y335000D01*
Y341563D02*
X294545Y335000D01*
X296364Y341563D02*
X294545Y335000D01*
X296364Y341563D02*
Y335000D01*
X299773Y341563D02*
X299318Y341250D01*
X298864Y340625*
X298636Y340000*
X298409Y339063*
X298409D02*
Y337500D01*
X298636Y336563*
X298636D02*
X298864Y335938D01*
X298864D02*
X299318Y335313D01*
X299318D02*
X299773Y335000D01*
X300682*
X301136Y335313*
X301136D02*
X301591Y335938D01*
X301591D02*
X301818Y336563D01*
X301818D02*
X302045Y337500D01*
Y339063*
X302045D02*
X301818Y340000D01*
X301591Y340625*
X301136Y341250*
X300682Y341563*
X300682D02*
X299773D01*
X307273Y340625D02*
X306818Y341250D01*
X306136Y341563*
X306136D02*
X305227D01*
X305227D02*
X304545Y341250D01*
X304091Y340625*
Y340000*
X304318Y339375*
X304545Y339063*
X304545D02*
X305000Y338750D01*
X306364Y338125*
X306818Y337813*
X306818D02*
X307045Y337500D01*
X307273Y336875*
Y335938*
X307273D02*
X306818Y335313D01*
X306818D02*
X306136Y335000D01*
X305227*
X304545Y335313*
X304545D02*
X304091Y335938D01*
X309318Y341563D02*
Y335000D01*
X311364Y340313D02*
X311818Y340625D01*
X312500Y341563*
X312500D02*
Y335000D01*
X245000Y331563D02*
Y325000D01*
Y331563D02*
X247045D01*
X247045D02*
X247727Y331250D01*
X247955Y330938*
X247955D02*
X248182Y330313D01*
X248182D02*
Y329375D01*
X247955Y328750*
X247727Y328438*
X247727D02*
X247045Y328125D01*
X245000*
X252045Y331563D02*
X250227Y325000D01*
X252045Y331563D02*
X253864Y325000D01*
X250909Y327188D02*
X253182D01*
X256136Y330000D02*
Y330313D01*
X256136D02*
X256364Y330938D01*
X256364D02*
X256591Y331250D01*
X257045Y331563*
X257045D02*
X257955D01*
X257955D02*
X258409Y331250D01*
X258636Y330938*
X258636D02*
X258864Y330313D01*
X258864D02*
Y329688D01*
X258864D02*
X258636Y329063D01*
X258636D02*
X258182Y328125D01*
X255909Y325000*
X259091*
X261364Y330000D02*
Y330313D01*
X261364D02*
X261591Y330938D01*
X261591D02*
X261818Y331250D01*
X262273Y331563*
X262273D02*
X263182D01*
X263182D02*
X263636Y331250D01*
X263864Y330938*
X263864D02*
X264091Y330313D01*
X264091D02*
Y329688D01*
X264091D02*
X263864Y329063D01*
X263864D02*
X263409Y328125D01*
X261136Y325000*
X264318*
X270455Y332813D02*
X266364Y322812D01*
X274318Y331563D02*
X272500Y325000D01*
X274318Y331563D02*
X276136Y325000D01*
X273182Y327188D02*
X275455D01*
X278182Y331563D02*
Y325000D01*
Y331563D02*
X279773D01*
X279773D02*
X280455Y331250D01*
X280909Y330625*
X281136Y330000*
X281364Y329063*
X281364D02*
Y327500D01*
X281136Y326563*
X281136D02*
X280909Y325938D01*
X280909D02*
X280455Y325313D01*
X280455D02*
X279773Y325000D01*
X278182*
X286364Y329375D02*
X286136Y328438D01*
X286136D02*
X285682Y327813D01*
X285682D02*
X285000Y327500D01*
X284773*
X284091Y327813*
X284091D02*
X283636Y328438D01*
X283636D02*
X283409Y329375D01*
Y329688*
X283409D02*
X283636Y330625D01*
X284091Y331250*
X284773Y331563*
X284773D02*
X285000D01*
X285000D02*
X285682Y331250D01*
X286136Y330625*
X286364Y329375*
Y327813*
X286364D02*
X286136Y326250D01*
X285682Y325313*
X285682D02*
X285000Y325000D01*
X284545*
X283864Y325313*
X283864D02*
X283636Y325938D01*
X292500Y332813D02*
X288409Y322812D01*
X294545Y331563D02*
Y325000D01*
Y331563D02*
X296364Y325000D01*
X298182Y331563D02*
X296364Y325000D01*
X298182Y331563D02*
Y325000D01*
X300227Y331563D02*
Y325000D01*
X305455Y330625D02*
X305000Y331250D01*
X304318Y331563*
X304318D02*
X303409D01*
X303409D02*
X302727Y331250D01*
X302273Y330625*
Y330000*
X302500Y329375*
X302727Y329063*
X302727D02*
X303182Y328750D01*
X304545Y328125*
X305000Y327813*
X305000D02*
X305227Y327500D01*
X305455Y326875*
Y325938*
X305455D02*
X305000Y325313D01*
X305000D02*
X304318Y325000D01*
X303409*
X302727Y325313*
X302727D02*
X302273Y325938D01*
X308864Y331563D02*
X308409Y331250D01*
X307955Y330625*
X307727Y330000*
X307500Y329063*
X307500D02*
Y327500D01*
X307727Y326563*
X307727D02*
X307955Y325938D01*
X307955D02*
X308409Y325313D01*
X308409D02*
X308864Y325000D01*
X309773*
X310227Y325313*
X310227D02*
X310682Y325938D01*
X310682D02*
X310909Y326563D01*
X310909D02*
X311136Y327500D01*
Y329063*
X311136D02*
X310909Y330000D01*
X310682Y330625*
X310227Y331250*
X309773Y331563*
X309773D02*
X308864D01*
X313182Y330313D02*
X313636Y330625D01*
X314318Y331563*
X314318D02*
Y325000D01*
X245000Y321563D02*
Y315000D01*
Y321563D02*
X247045D01*
X247045D02*
X247727Y321250D01*
X247955Y320938*
X247955D02*
X248182Y320313D01*
X248182D02*
Y319375D01*
X247955Y318750*
X247727Y318438*
X247727D02*
X247045Y318125D01*
X245000*
X252045Y321563D02*
X250227Y315000D01*
X252045Y321563D02*
X253864Y315000D01*
X250909Y317188D02*
X253182D01*
X256136Y320000D02*
Y320313D01*
X256136D02*
X256364Y320938D01*
X256364D02*
X256591Y321250D01*
X257045Y321563*
X257045D02*
X257955D01*
X257955D02*
X258409Y321250D01*
X258636Y320938*
X258636D02*
X258864Y320313D01*
X258864D02*
Y319688D01*
X258864D02*
X258636Y319063D01*
X258636D02*
X258182Y318125D01*
X255909Y315000*
X259091*
X261591Y321563D02*
X264091D01*
X264091D02*
X262727Y319063D01*
X262727D02*
X263409D01*
X263409D02*
X263864Y318750D01*
X264091Y318438*
X264091D02*
X264318Y317500D01*
Y316875*
X264091Y315938*
X264091D02*
X263636Y315313D01*
X263636D02*
X262955Y315000D01*
X262273*
X261591Y315313*
X261591D02*
X261364Y315625D01*
X261136Y316250*
X270455Y322813D02*
X266364Y312812D01*
X275682Y320625D02*
X275227Y321250D01*
X274545Y321563*
X274545D02*
X273636D01*
X273636D02*
X272955Y321250D01*
X272500Y320625*
Y320000*
X272727Y319375*
X272955Y319063*
X272955D02*
X273409Y318750D01*
X274773Y318125*
X275227Y317813*
X275227D02*
X275455Y317500D01*
X275682Y316875*
Y315938*
X275682D02*
X275227Y315313D01*
X275227D02*
X274545Y315000D01*
X273636*
X272955Y315313*
X272955D02*
X272500Y315938D01*
X281136Y320000D02*
X280909Y320625D01*
X280455Y321250*
X280000Y321563*
X280000D02*
X279091D01*
X279091D02*
X278636Y321250D01*
X278182Y320625*
X277955Y320000*
X277727Y319063*
X277727D02*
Y317500D01*
X277955Y316563*
X277955D02*
X278182Y315938D01*
X278182D02*
X278636Y315313D01*
X278636D02*
X279091Y315000D01*
X280000*
X280455Y315313*
X280455D02*
X280909Y315938D01*
X280909D02*
X281136Y316563D01*
X283182Y321563D02*
Y315000D01*
X286364Y321563D02*
X283182Y317188D01*
X284318Y318750D02*
X286364Y315000D01*
X288409Y320313D02*
X288864Y320625D01*
X289545Y321563*
X289545D02*
Y315000D01*
X245000Y311563D02*
Y305000D01*
Y311563D02*
X247045D01*
X247045D02*
X247727Y311250D01*
X247955Y310938*
X247955D02*
X248182Y310313D01*
X248182D02*
Y309375D01*
X247955Y308750*
X247727Y308438*
X247727D02*
X247045Y308125D01*
X245000*
X252045Y311563D02*
X250227Y305000D01*
X252045Y311563D02*
X253864Y305000D01*
X250909Y307188D02*
X253182D01*
X256136Y310000D02*
Y310313D01*
X256136D02*
X256364Y310938D01*
X256364D02*
X256591Y311250D01*
X257045Y311563*
X257045D02*
X257955D01*
X257955D02*
X258409Y311250D01*
X258636Y310938*
X258636D02*
X258864Y310313D01*
X258864D02*
Y309688D01*
X258864D02*
X258636Y309063D01*
X258636D02*
X258182Y308125D01*
X255909Y305000*
X259091*
X263409Y311563D02*
X261136Y307188D01*
X261136D02*
X264545D01*
X263409Y311563D02*
Y305000D01*
X270682Y312813D02*
X266591Y302812D01*
X272727Y311563D02*
Y305000D01*
Y311563D02*
X275909Y305000D01*
Y311563D02*
Y305000D01*
X281136Y310625D02*
X280682Y311250D01*
X280000Y311563*
X280000D02*
X279091D01*
X279091D02*
X278409Y311250D01*
X277955Y310625*
Y310000*
X278182Y309375*
X278409Y309063*
X278409D02*
X278864Y308750D01*
X280227Y308125*
X280682Y307813*
X280682D02*
X280909Y307500D01*
X281136Y306875*
Y305938*
X281136D02*
X280682Y305313D01*
X280682D02*
X280000Y305000D01*
X279091*
X278409Y305313*
X278409D02*
X277955Y305938D01*
X286364Y310625D02*
X285909Y311250D01*
X285227Y311563*
X285227D02*
X284318D01*
X284318D02*
X283636Y311250D01*
X283182Y310625*
Y310000*
X283409Y309375*
X283636Y309063*
X283636D02*
X284091Y308750D01*
X285455Y308125*
X285909Y307813*
X285909D02*
X286136Y307500D01*
X286364Y306875*
Y305938*
X286364D02*
X285909Y305313D01*
X285909D02*
X285227Y305000D01*
X284318*
X283636Y305313*
X283636D02*
X283182Y305938D01*
X288409Y310313D02*
X288864Y310625D01*
X289545Y311563*
X289545D02*
Y305000D01*
X245000Y301563D02*
Y295000D01*
Y301563D02*
X247045D01*
X247045D02*
X247727Y301250D01*
X247955Y300938*
X247955D02*
X248182Y300313D01*
X248182D02*
Y299375D01*
X247955Y298750*
X247727Y298438*
X247727D02*
X247045Y298125D01*
X245000*
X252045Y301563D02*
X250227Y295000D01*
X252045Y301563D02*
X253864Y295000D01*
X250909Y297188D02*
X253182D01*
X256136Y300000D02*
Y300313D01*
X256136D02*
X256364Y300938D01*
X256364D02*
X256591Y301250D01*
X257045Y301563*
X257045D02*
X257955D01*
X257955D02*
X258409Y301250D01*
X258636Y300938*
X258636D02*
X258864Y300313D01*
X258864D02*
Y299688D01*
X258864D02*
X258636Y299063D01*
X258636D02*
X258182Y298125D01*
X255909Y295000*
X259091*
X264091Y301563D02*
X261818D01*
X261818D02*
X261591Y298750D01*
X261818Y299063*
X261818D02*
X262500Y299375D01*
X263182*
X263864Y299063*
X263864D02*
X264318Y298438D01*
X264318D02*
X264545Y297500D01*
X264318Y296875*
X264091Y295938*
X264091D02*
X263636Y295313D01*
X263636D02*
X262955Y295000D01*
X262273*
X261591Y295313*
X261591D02*
X261364Y295625D01*
X261136Y296250*
X245000Y291563D02*
Y285000D01*
Y291563D02*
X247045D01*
X247045D02*
X247727Y291250D01*
X247955Y290938*
X247955D02*
X248182Y290313D01*
X248182D02*
Y289375D01*
X247955Y288750*
X247727Y288438*
X247727D02*
X247045Y288125D01*
X245000*
X252045Y291563D02*
X250227Y285000D01*
X252045Y291563D02*
X253864Y285000D01*
X250909Y287188D02*
X253182D01*
X256136Y290000D02*
Y290313D01*
X256136D02*
X256364Y290938D01*
X256364D02*
X256591Y291250D01*
X257045Y291563*
X257045D02*
X257955D01*
X257955D02*
X258409Y291250D01*
X258636Y290938*
X258636D02*
X258864Y290313D01*
X258864D02*
Y289688D01*
X258864D02*
X258636Y289063D01*
X258636D02*
X258182Y288125D01*
X255909Y285000*
X259091*
X263864Y290625D02*
X263636Y291250D01*
X262955Y291563*
X262955D02*
X262500D01*
X262500D02*
X261818Y291250D01*
X261364Y290313*
X261364D02*
X261136Y288750D01*
Y287188*
X261136D02*
X261364Y285938D01*
X261364D02*
X261818Y285313D01*
X261818D02*
X262500Y285000D01*
X262727*
X263409Y285313*
X263409D02*
X263864Y285938D01*
X263864D02*
X264091Y286875D01*
Y287188*
X264091D02*
X263864Y288125D01*
X263409Y288750*
X262727Y289063*
X262727D02*
X262500D01*
X262500D02*
X261818Y288750D01*
X261364Y288125*
X261136Y287188*
X245000Y281563D02*
Y275000D01*
Y281563D02*
X247045D01*
X247045D02*
X247727Y281250D01*
X247955Y280938*
X247955D02*
X248182Y280313D01*
X248182D02*
Y279375D01*
X247955Y278750*
X247727Y278438*
X247727D02*
X247045Y278125D01*
X245000*
X252045Y281563D02*
X250227Y275000D01*
X252045Y281563D02*
X253864Y275000D01*
X250909Y277188D02*
X253182D01*
X256136Y280000D02*
Y280313D01*
X256136D02*
X256364Y280938D01*
X256364D02*
X256591Y281250D01*
X257045Y281563*
X257045D02*
X257955D01*
X257955D02*
X258409Y281250D01*
X258636Y280938*
X258636D02*
X258864Y280313D01*
X258864D02*
Y279688D01*
X258864D02*
X258636Y279063D01*
X258636D02*
X258182Y278125D01*
X255909Y275000*
X259091*
X264318Y281563D02*
X262045Y275000D01*
X261136Y281563D02*
X264318D01*
X245000Y271563D02*
Y265000D01*
Y271563D02*
X247045D01*
X247045D02*
X247727Y271250D01*
X247955Y270938*
X247955D02*
X248182Y270313D01*
X248182D02*
Y269375D01*
X247955Y268750*
X247727Y268438*
X247727D02*
X247045Y268125D01*
X245000*
X252045Y271563D02*
X250227Y265000D01*
X252045Y271563D02*
X253864Y265000D01*
X250909Y267188D02*
X253182D01*
X256136Y270000D02*
Y270313D01*
X256136D02*
X256364Y270938D01*
X256364D02*
X256591Y271250D01*
X257045Y271563*
X257045D02*
X257955D01*
X257955D02*
X258409Y271250D01*
X258636Y270938*
X258636D02*
X258864Y270313D01*
X258864D02*
Y269688D01*
X258864D02*
X258636Y269063D01*
X258636D02*
X258182Y268125D01*
X255909Y265000*
X259091*
X262273Y271563D02*
X261591Y271250D01*
X261364Y270625*
Y270000*
X261591Y269375*
X262045Y269063*
X262045D02*
X262955Y268750D01*
X263636Y268438*
X263636D02*
X264091Y267813D01*
X264091D02*
X264318Y267188D01*
X264318D02*
Y266250D01*
X264091Y265625*
X263864Y265313*
X263864D02*
X263182Y265000D01*
X262273*
X261591Y265313*
X261591D02*
X261364Y265625D01*
X261136Y266250*
Y267188*
X261136D02*
X261364Y267813D01*
X261364D02*
X261818Y268438D01*
X261818D02*
X262500Y268750D01*
X263409Y269063*
X263409D02*
X263864Y269375D01*
X264091Y270000*
Y270625*
X263864Y271250*
X263182Y271563*
X263182D02*
X262273D01*
X245000Y261563D02*
Y255000D01*
Y261563D02*
X247045D01*
X247045D02*
X247727Y261250D01*
X247955Y260938*
X247955D02*
X248182Y260313D01*
X248182D02*
Y259375D01*
X247955Y258750*
X247727Y258438*
X247727D02*
X247045Y258125D01*
X245000*
X252045Y261563D02*
X250227Y255000D01*
X252045Y261563D02*
X253864Y255000D01*
X250909Y257188D02*
X253182D01*
X256136Y260000D02*
Y260313D01*
X256136D02*
X256364Y260938D01*
X256364D02*
X256591Y261250D01*
X257045Y261563*
X257045D02*
X257955D01*
X257955D02*
X258409Y261250D01*
X258636Y260938*
X258636D02*
X258864Y260313D01*
X258864D02*
Y259688D01*
X258864D02*
X258636Y259063D01*
X258636D02*
X258182Y258125D01*
X255909Y255000*
X259091*
X264091Y259375D02*
X263864Y258438D01*
X263864D02*
X263409Y257813D01*
X263409D02*
X262727Y257500D01*
X262500*
X261818Y257813*
X261818D02*
X261364Y258438D01*
X261364D02*
X261136Y259375D01*
Y259688*
X261136D02*
X261364Y260625D01*
X261818Y261250*
X262500Y261563*
X262500D02*
X262727D01*
X262727D02*
X263409Y261250D01*
X263864Y260625*
X264091Y259375*
Y257813*
X264091D02*
X263864Y256250D01*
X263409Y255313*
X263409D02*
X262727Y255000D01*
X262273*
X261591Y255313*
X261591D02*
X261364Y255938D01*
X245000Y251563D02*
Y245000D01*
Y251563D02*
X247045D01*
X247045D02*
X247727Y251250D01*
X247955Y250938*
X247955D02*
X248182Y250313D01*
X248182D02*
Y249375D01*
X247955Y248750*
X247727Y248438*
X247727D02*
X247045Y248125D01*
X245000*
X252045Y251563D02*
X250227Y245000D01*
X252045Y251563D02*
X253864Y245000D01*
X250909Y247188D02*
X253182D01*
X256364Y251563D02*
X258864D01*
X258864D02*
X257500Y249063D01*
X257500D02*
X258182D01*
X258182D02*
X258636Y248750D01*
X258864Y248438*
X258864D02*
X259091Y247500D01*
Y246875*
X258864Y245938*
X258864D02*
X258409Y245313D01*
X258409D02*
X257727Y245000D01*
X257045*
X256364Y245313*
X256364D02*
X256136Y245625D01*
X255909Y246250*
X262500Y251563D02*
X261818Y251250D01*
X261364Y250313*
X261364D02*
X261136Y248750D01*
Y247813*
X261136D02*
X261364Y246250D01*
X261818Y245313*
X261818D02*
X262500Y245000D01*
X262955*
X263636Y245313*
X263636D02*
X264091Y246250D01*
X264318Y247813*
X264318D02*
Y248750D01*
X264091Y250313*
X264091D02*
X263636Y251250D01*
X262955Y251563*
X262955D02*
X262500D01*
X245000Y241563D02*
Y235000D01*
Y241563D02*
X247045D01*
X247045D02*
X247727Y241250D01*
X247955Y240938*
X247955D02*
X248182Y240313D01*
X248182D02*
Y239375D01*
X247955Y238750*
X247727Y238438*
X247727D02*
X247045Y238125D01*
X245000*
X250227Y241563D02*
Y235000D01*
Y241563D02*
X252273D01*
X252273D02*
X252955Y241250D01*
X253182Y240938*
X253182D02*
X253409Y240313D01*
X253409D02*
Y239688D01*
X253409D02*
X253182Y239063D01*
X253182D02*
X252955Y238750D01*
X252273Y238438*
X250227D02*
X252273D01*
X252273D02*
X252955Y238125D01*
X253182Y237813*
X253182D02*
X253409Y237188D01*
X253409D02*
Y236250D01*
X253182Y235625*
X252955Y235313*
X252955D02*
X252273Y235000D01*
X250227*
X257727Y241563D02*
X255455Y237188D01*
X255455D02*
X258864D01*
X257727Y241563D02*
Y235000D01*
X265000Y242813D02*
X260909Y232812D01*
X268636Y241563D02*
Y235000D01*
X267045Y241563D02*
X270227D01*
X272273D02*
X273409Y235000D01*
X274545Y241563D02*
X273409Y235000D01*
X274545Y241563D02*
X275682Y235000D01*
X276818Y241563D02*
X275682Y235000D01*
X278864Y241563D02*
Y235000D01*
Y241563D02*
X280455D01*
X280455D02*
X281136Y241250D01*
X281591Y240625*
X281818Y240000*
X282045Y239063*
X282045D02*
Y237500D01*
X281818Y236563*
X281818D02*
X281591Y235938D01*
X281591D02*
X281136Y235313D01*
X281136D02*
X280455Y235000D01*
X278864*
X284091Y240313D02*
X284545Y240625D01*
X285227Y241563*
X285227D02*
Y235000D01*
X245000Y231563D02*
Y225000D01*
Y231563D02*
X247045D01*
X247045D02*
X247727Y231250D01*
X247955Y230938*
X247955D02*
X248182Y230313D01*
X248182D02*
Y229375D01*
X247955Y228750*
X247727Y228438*
X247727D02*
X247045Y228125D01*
X245000*
X250227Y231563D02*
Y225000D01*
Y231563D02*
X252273D01*
X252273D02*
X252955Y231250D01*
X253182Y230938*
X253182D02*
X253409Y230313D01*
X253409D02*
Y229688D01*
X253409D02*
X253182Y229063D01*
X253182D02*
X252955Y228750D01*
X252273Y228438*
X250227D02*
X252273D01*
X252273D02*
X252955Y228125D01*
X253182Y227813*
X253182D02*
X253409Y227188D01*
X253409D02*
Y226250D01*
X253182Y225625*
X252955Y225313*
X252955D02*
X252273Y225000D01*
X250227*
X258409Y231563D02*
X256136D01*
X256136D02*
X255909Y228750D01*
X256136Y229063*
X256136D02*
X256818Y229375D01*
X257500*
X258182Y229063*
X258182D02*
X258636Y228438D01*
X258636D02*
X258864Y227500D01*
X258636Y226875*
X258409Y225938*
X258409D02*
X257955Y225313D01*
X257955D02*
X257273Y225000D01*
X256591*
X255909Y225313*
X255909D02*
X255682Y225625D01*
X255455Y226250*
X265000Y232813D02*
X260909Y222812D01*
X268636Y231563D02*
Y225000D01*
X267045Y231563D02*
X270227D01*
X272273D02*
X273409Y225000D01*
X274545Y231563D02*
X273409Y225000D01*
X274545Y231563D02*
X275682Y225000D01*
X276818Y231563D02*
X275682Y225000D01*
X282273Y230000D02*
X282045Y230625D01*
X281591Y231250*
X281136Y231563*
X281136D02*
X280227D01*
X280227D02*
X279773Y231250D01*
X279318Y230625*
X279091Y230000*
X278864Y229063*
X278864D02*
Y227500D01*
X279091Y226563*
X279091D02*
X279318Y225938D01*
X279318D02*
X279773Y225313D01*
X279773D02*
X280227Y225000D01*
X281136*
X281591Y225313*
X281591D02*
X282045Y225938D01*
X282045D02*
X282273Y226563D01*
X284318Y231563D02*
Y225000D01*
X287500Y231563D02*
X284318Y227188D01*
X285455Y228750D02*
X287500Y225000D01*
X289545Y230313D02*
X290000Y230625D01*
X290682Y231563*
X290682D02*
Y225000D01*
X245000Y221563D02*
Y215000D01*
Y221563D02*
X247045D01*
X247045D02*
X247727Y221250D01*
X247955Y220938*
X247955D02*
X248182Y220313D01*
X248182D02*
Y219375D01*
X247955Y218750*
X247727Y218438*
X247727D02*
X247045Y218125D01*
X245000*
X250227Y221563D02*
Y215000D01*
Y221563D02*
X252273D01*
X252273D02*
X252955Y221250D01*
X253182Y220938*
X253182D02*
X253409Y220313D01*
X253409D02*
Y219688D01*
X253409D02*
X253182Y219063D01*
X253182D02*
X252955Y218750D01*
X252273Y218438*
X250227D02*
X252273D01*
X252273D02*
X252955Y218125D01*
X253182Y217813*
X253182D02*
X253409Y217188D01*
X253409D02*
Y216250D01*
X253182Y215625*
X252955Y215313*
X252955D02*
X252273Y215000D01*
X250227*
X255455Y220313D02*
X255909Y220625D01*
X256591Y221563*
X256591D02*
Y215000D01*
X259091Y221563D02*
X261591D01*
X261591D02*
X260227Y219063D01*
X260227D02*
X260909D01*
X260909D02*
X261364Y218750D01*
X261591Y218438*
X261591D02*
X261818Y217500D01*
Y216875*
X261591Y215938*
X261591D02*
X261136Y215313D01*
X261136D02*
X260455Y215000D01*
X259773*
X259091Y215313*
X259091D02*
X258864Y215625D01*
X258636Y216250*
X267955Y222813D02*
X263864Y212812D01*
X270000Y221563D02*
Y215000D01*
Y221563D02*
X271591D01*
X271591D02*
X272273Y221250D01*
X272727Y220625*
X272955Y220000*
X273182Y219063*
X273182D02*
Y217500D01*
X272955Y216563*
X272955D02*
X272727Y215938D01*
X272727D02*
X272273Y215313D01*
X272273D02*
X271591Y215000D01*
X270000*
X277045Y221563D02*
X275227Y215000D01*
X277045Y221563D02*
X278864Y215000D01*
X275909Y217188D02*
X278182D01*
X284318Y220000D02*
X284091Y220625D01*
X283636Y221250*
X283182Y221563*
X283182D02*
X282273D01*
X282273D02*
X281818Y221250D01*
X281364Y220625*
X281136Y220000*
X280909Y219063*
X280909D02*
Y217500D01*
X281136Y216563*
X281136D02*
X281364Y215938D01*
X281364D02*
X281818Y215313D01*
X281818D02*
X282273Y215000D01*
X283182*
X283636Y215313*
X283636D02*
X284091Y215938D01*
X284091D02*
X284318Y216563D01*
X287727Y221563D02*
X287045Y221250D01*
X286591Y220313*
X286591D02*
X286364Y218750D01*
Y217813*
X286364D02*
X286591Y216250D01*
X287045Y215313*
X287045D02*
X287727Y215000D01*
X288182*
X288864Y215313*
X288864D02*
X289318Y216250D01*
X289545Y217813*
X289545D02*
Y218750D01*
X289318Y220313*
X289318D02*
X288864Y221250D01*
X288182Y221563*
X288182D02*
X287727D01*
X245000Y211563D02*
Y205000D01*
Y211563D02*
X247045D01*
X247045D02*
X247727Y211250D01*
X247955Y210938*
X247955D02*
X248182Y210313D01*
X248182D02*
Y209375D01*
X247955Y208750*
X247727Y208438*
X247727D02*
X247045Y208125D01*
X245000*
X250227Y211563D02*
Y205000D01*
Y211563D02*
X252273D01*
X252273D02*
X252955Y211250D01*
X253182Y210938*
X253182D02*
X253409Y210313D01*
X253409D02*
Y209688D01*
X253409D02*
X253182Y209063D01*
X253182D02*
X252955Y208750D01*
X252273Y208438*
X250227D02*
X252273D01*
X252273D02*
X252955Y208125D01*
X253182Y207813*
X253182D02*
X253409Y207188D01*
X253409D02*
Y206250D01*
X253182Y205625*
X252955Y205313*
X252955D02*
X252273Y205000D01*
X250227*
X255455Y210313D02*
X255909Y210625D01*
X256591Y211563*
X256591D02*
Y205000D01*
X260909Y211563D02*
X258636Y207188D01*
X258636D02*
X262045D01*
X260909Y211563D02*
Y205000D01*
X268182Y212813D02*
X264091Y202812D01*
X270227Y211563D02*
Y205000D01*
Y211563D02*
X271818D01*
X271818D02*
X272500Y211250D01*
X272955Y210625*
X273182Y210000*
X273409Y209063*
X273409D02*
Y207500D01*
X273182Y206563*
X273182D02*
X272955Y205938D01*
X272955D02*
X272500Y205313D01*
X272500D02*
X271818Y205000D01*
X270227*
X277273Y211563D02*
X275455Y205000D01*
X277273Y211563D02*
X279091Y205000D01*
X276136Y207188D02*
X278409D01*
X284545Y210000D02*
X284318Y210625D01*
X283864Y211250*
X283409Y211563*
X283409D02*
X282500D01*
X282500D02*
X282045Y211250D01*
X281591Y210625*
X281364Y210000*
X281136Y209063*
X281136D02*
Y207500D01*
X281364Y206563*
X281364D02*
X281591Y205938D01*
X281591D02*
X282045Y205313D01*
X282045D02*
X282500Y205000D01*
X283409*
X283864Y205313*
X283864D02*
X284318Y205938D01*
X284318D02*
X284545Y206563D01*
X286591Y210313D02*
X287045Y210625D01*
X287727Y211563*
X287727D02*
Y205000D01*
X315937Y262500D02*
X322500D01*
X315937Y265682D02*
X320312Y262500D01*
X318750Y263636D02*
X322500Y265682D01*
X321875Y267955D02*
X322187Y267727D01*
X322187D02*
X322500Y267955D01*
X322187Y268182*
X322187D02*
X321875Y267955D01*
X315937Y275455D02*
X322500D01*
X315937Y278636D02*
X320312Y275455D01*
X318750Y276591D02*
X322500Y278636D01*
X318125Y283409D02*
X322500D01*
X319062D02*
X318437Y282955D01*
X318437D02*
X318125Y282500D01*
Y281818*
X318437Y281364*
X318437D02*
X319062Y280909D01*
X319062D02*
X320000Y280682D01*
X320625*
X321562Y280909*
X321562D02*
X322187Y281364D01*
X322187D02*
X322500Y281818D01*
Y282500*
X322187Y282955*
X322187D02*
X321562Y283409D01*
X318125Y285455D02*
X322500D01*
X319375D02*
X318437Y286136D01*
X318437D02*
X318125Y286591D01*
Y287273*
X318437Y287727*
X318437D02*
X319375Y287955D01*
X322500*
X320000Y290000D02*
Y292727D01*
X319375*
X318750Y292500*
X318437Y292273*
X318437D02*
X318125Y291818D01*
Y291136*
X318437Y290682*
X318437D02*
X319062Y290227D01*
X319062D02*
X320000Y290000D01*
X320625*
X321562Y290227*
X321562D02*
X322187Y290682D01*
X322187D02*
X322500Y291136D01*
Y291818*
X322187Y292273*
X322187D02*
X321562Y292727D01*
X319062Y297273D02*
X318437Y297045D01*
X318437D02*
X318125Y296364D01*
Y295682*
X318437Y295000*
X318437D02*
X319062Y294773D01*
X319062D02*
X319687Y295000D01*
X319687D02*
X320000Y295455D01*
X320312Y296591*
X320312D02*
X320625Y297045D01*
X321250Y297273*
X321562*
X321562D02*
X322187Y297045D01*
X322187D02*
X322500Y296364D01*
Y295682*
X322187Y295000*
X322187D02*
X321562Y294773D01*
X315937Y299318D02*
X322500D01*
X319375D02*
X318437Y300000D01*
X318437D02*
X318125Y300455D01*
Y301136*
X318437Y301591*
X318437D02*
X319375Y301818D01*
X322500*
X315937Y303864D02*
X316250Y304091D01*
X315937Y304318*
X315937D02*
X315625Y304091D01*
X315937Y303864*
X318125Y304091D02*
X322500D01*
X318125Y306364D02*
X322500D01*
X319375D02*
X318437Y307045D01*
X318437D02*
X318125Y307500D01*
Y308182*
X318437Y308636*
X318437D02*
X319375Y308864D01*
X322500*
X318125Y313636D02*
X322500D01*
X319062D02*
X318437Y313182D01*
X318437D02*
X318125Y312727D01*
Y312045*
X318437Y311591*
X318437D02*
X319062Y311136D01*
X319062D02*
X320000Y310909D01*
X320625*
X321562Y311136*
X321562D02*
X322187Y311591D01*
X322187D02*
X322500Y312045D01*
Y312727*
X322187Y313182*
X322187D02*
X321562Y313636D01*
X305937Y264091D02*
X312500D01*
X305937Y262500D02*
Y265682D01*
X311875Y267955D02*
X312187Y267727D01*
X312187D02*
X312500Y267955D01*
X312187Y268182*
X312187D02*
X311875Y267955D01*
X305937Y277727D02*
X310937D01*
X310937D02*
X311875Y277500D01*
X312187Y277273*
X312187D02*
X312500Y276818D01*
Y276364*
X312187Y275909*
X312187D02*
X311875Y275682D01*
X310937Y275455*
X310937D02*
X310312D01*
X310000Y279773D02*
Y282500D01*
X309375*
X308750Y282273*
X308437Y282045*
X308437D02*
X308125Y281591D01*
Y280909*
X308437Y280455*
X308437D02*
X309062Y280000D01*
X309062D02*
X310000Y279773D01*
X310625*
X311562Y280000*
X311562D02*
X312187Y280455D01*
X312187D02*
X312500Y280909D01*
Y281591*
X312187Y282045*
X312187D02*
X311562Y282500D01*
X308125Y284545D02*
X312500D01*
X309375D02*
X308437Y285227D01*
X308437D02*
X308125Y285682D01*
Y286364*
X308437Y286818*
X308437D02*
X309375Y287045D01*
X312500*
X308125Y289091D02*
X312500D01*
X310000D02*
X309062Y289318D01*
X309062D02*
X308437Y289773D01*
X308437D02*
X308125Y290227D01*
Y290909*
Y292955D02*
X311250D01*
X312187Y293182*
X312187D02*
X312500Y293636D01*
Y294318*
X312187Y294773*
X312187D02*
X311250Y295455D01*
X308125D02*
X312500D01*
X308125Y297500D02*
X312500D01*
X309375D02*
X308437Y298182D01*
X308437D02*
X308125Y298636D01*
Y299318*
X308437Y299773*
X308437D02*
X309375Y300000D01*
X312500*
X308125Y304773D02*
X313125D01*
X314063Y304545*
X314063D02*
X314375Y304318D01*
X314688Y303864*
X314688D02*
Y303182D01*
X314688D02*
X314375Y302727D01*
X309062Y304773D02*
X308437Y304318D01*
X308437D02*
X308125Y303864D01*
Y303182*
X308437Y302727*
X308437D02*
X309062Y302273D01*
X309062D02*
X310000Y302045D01*
X310625*
X311562Y302273*
X311562D02*
X312187Y302727D01*
X312187D02*
X312500Y303182D01*
Y303864*
X312187Y304318*
X312187D02*
X311562Y304773D01*
X308125Y306818D02*
X312500D01*
X310000D02*
X309062Y307045D01*
X309062D02*
X308437Y307500D01*
X308437D02*
X308125Y307955D01*
Y308636*
Y311818D02*
X308437Y311364D01*
X308437D02*
X309062Y310909D01*
X309062D02*
X310000Y310682D01*
X310625*
X311562Y310909*
X311562D02*
X312187Y311364D01*
X312187D02*
X312500Y311818D01*
Y312500*
X312187Y312955*
X312187D02*
X311562Y313409D01*
X311562D02*
X310625Y313636D01*
X310000*
X309062Y313409*
X309062D02*
X308437Y312955D01*
X308437D02*
X308125Y312500D01*
Y311818*
X305937Y316364D02*
X311250D01*
X312187Y316591*
X312187D02*
X312500Y317045D01*
Y317500*
X308125Y315682D02*
Y317273D01*
X328125Y262500D02*
X331250D01*
X332187Y262727*
X332187D02*
X332500Y263182D01*
Y263864*
X332187Y264318*
X332187D02*
X331250Y265000D01*
X328125D02*
X332500D01*
X325937Y267045D02*
X332500D01*
X325937D02*
X332500Y268864D01*
X325937Y270682D02*
X332500Y268864D01*
X325937Y270682D02*
X332500D01*
X328125Y272727D02*
X331250D01*
X332187Y272955*
X332187D02*
X332500Y273409D01*
Y274091*
X332187Y274545*
X332187D02*
X331250Y275227D01*
X328125D02*
X332500D01*
X325937Y280000D02*
X332500D01*
X329062D02*
X328437Y279545D01*
X328437D02*
X328125Y279091D01*
Y278409*
X328437Y277955*
X328437D02*
X329062Y277500D01*
X329062D02*
X330000Y277273D01*
X330625*
X331562Y277500*
X331562D02*
X332187Y277955D01*
X332187D02*
X332500Y278409D01*
Y279091*
X332187Y279545*
X332187D02*
X331562Y280000D01*
X325937Y284773D02*
X332500D01*
X329062D02*
X328437Y284318D01*
X328437D02*
X328125Y283864D01*
Y283182*
X328437Y282727*
X328437D02*
X329062Y282273D01*
X329062D02*
X330000Y282045D01*
X330625*
X331562Y282273*
X331562D02*
X332187Y282727D01*
X332187D02*
X332500Y283182D01*
Y283864*
X332187Y284318*
X332187D02*
X331562Y284773D01*
X325937Y292045D02*
X332500D01*
X325937D02*
X332500Y293864D01*
X325937Y295682D02*
X332500Y293864D01*
X325937Y295682D02*
X332500D01*
X328125Y300455D02*
X332500D01*
X329062D02*
X328437Y300000D01*
X328437D02*
X328125Y299545D01*
Y298864*
X328437Y298409*
X328437D02*
X329062Y297955D01*
X329062D02*
X330000Y297727D01*
X330625*
X331562Y297955*
X331562D02*
X332187Y298409D01*
X332187D02*
X332500Y298864D01*
Y299545*
X332187Y300000*
X332187D02*
X331562Y300455D01*
X328125Y302500D02*
X332500D01*
X330000D02*
X329062Y302727D01*
X329062D02*
X328437Y303182D01*
X328437D02*
X328125Y303636D01*
Y304318*
X325937Y306364D02*
X332500D01*
X328125Y308636D02*
X331250Y306364D01*
X330000Y307273D02*
X332500Y308864D01*
X325937Y316136D02*
X332500Y317955D01*
X325937Y319773D02*
X332500Y317955D01*
X337500Y262727D02*
X337187D01*
X337187D02*
X336562Y262955D01*
X336562D02*
X336250Y263182D01*
X335937Y263636*
X335937D02*
Y264545D01*
X335937D02*
X336250Y265000D01*
X336562Y265227*
X336562D02*
X337187Y265455D01*
X337187D02*
X337812D01*
X337812D02*
X338437Y265227D01*
X338437D02*
X339375Y264773D01*
X342500Y262500*
Y265682*
X335937Y269091D02*
X336250Y268409D01*
X337187Y267955*
X337187D02*
X338750Y267727D01*
X339687*
X339687D02*
X341250Y267955D01*
X342187Y268409*
X342187D02*
X342500Y269091D01*
Y269545*
X342187Y270227*
X342187D02*
X341250Y270682D01*
X339687Y270909*
X339687D02*
X338750D01*
X337187Y270682*
X337187D02*
X336250Y270227D01*
X335937Y269545*
X335937D02*
Y269091D01*
X337187Y272955D02*
X336875Y273409D01*
X335937Y274091*
X335937D02*
X342500D01*
X335937Y279318D02*
X342500Y277045D01*
X335937Y276136D02*
Y279318D01*
X232500Y200000D02*
X435000D01*
Y240000*
X405000*
Y250000*
X435000*
Y267500*
X405000*
Y792500*
X232500*
Y200000*
G54D12*
X303500Y494984D02*
Y494281D01*
X303534Y494141*
X303602Y494047*
X303705Y494000*
X303773*
X303875Y494047*
X303943Y494141*
X303977Y494281*
Y494984*
X304455D02*
X304352Y494938D01*
X304352D02*
X304318Y494844D01*
Y494750*
X304352Y494656*
X304420Y494609*
X304557Y494563*
X304557D02*
X304659Y494516D01*
X304727Y494422*
X304761Y494328*
Y494188*
X304761D02*
X304727Y494094D01*
X304693Y494047*
X304591Y494000*
X304455*
X304352Y494047*
X304318Y494094*
X304284Y494188*
X304284D02*
Y494328D01*
X304318Y494422*
X304386Y494516*
X304489Y494563*
X304489D02*
X304625Y494609D01*
X304693Y494656*
X304727Y494750*
Y494844*
X304693Y494938*
X304693D02*
X304591Y494984D01*
X304455*
G54D13*
X320000Y615781D02*
Y613438D01*
X320000D02*
X320114Y612969D01*
X320341Y612656*
X320682Y612500*
X320909*
X321250Y612656*
X321477Y612969*
X321591Y613438*
X321591D02*
Y615781D01*
X323977Y615313D02*
X323864Y615625D01*
X323523Y615781*
X323295*
X322955Y615625*
X322727Y615156*
X322614Y614375*
Y613594*
X322727Y612969*
X322955Y612656*
X323295Y612500*
X323409*
X323750Y612656*
X323977Y612969*
X324091Y613438*
X324091D02*
Y613594D01*
X323977Y614063*
X323977D02*
X323750Y614375D01*
X323409Y614531*
X323295*
X322955Y614375*
X322727Y614063*
X322727D02*
X322614Y613594D01*
G54D30*
X352213Y261509D02*
Y341509D01*
X392213*
Y311509*
X387213*
Y291509*
X392213*
Y261509*
X352213*
X305583Y248572D02*
X385583D01*
Y208572*
X355583*
Y213572*
X335583*
Y208572*
X305583*
Y248572*
G54D31*
X285193Y475693D02*
X321807D01*
Y512307*
X318854*
X318264Y511126*
X317673Y512307*
X285193*
Y475693*
X282008Y574508D02*
X357992D01*
Y650492*
X282008*
Y647539*
X283189Y646949*
X282008Y646358*
Y574508*
G54D33*
X342500Y435000D02*
X390500D01*
Y443000*
X342500*
Y435000*
G74*
X0Y0D02*
M02*
