*
*
G04 PADS VX.2.1 Build Number: 6554490 generated Gerber (RS-274-X) file*
G04 PC Version=2.1*
*
%IN "microp-revised-board.pc"*%
*
%MOIN*%
*
%FSLAX35Y35*%
*
*
*
*
G04 PC Standard Apertures*
*
*
G04 Thermal Relief Aperture macro.*
%AMTER*
1,1,$1,0,0*
1,0,$1-$2,0,0*
21,0,$3,$4,0,0,45*
21,0,$3,$4,0,0,135*
%
*
*
G04 Annular Aperture macro.*
%AMANN*
1,1,$1,0,0*
1,0,$2,0,0*
%
*
*
G04 Odd Aperture macro.*
%AMODD*
1,1,$1,0,0*
1,0,$1-0.005,0,0*
%
*
*
G04 PC Custom Aperture Macros*
*
*
*
*
*
*
G04 PC Aperture Table*
*
%ADD010C,0.001*%
%ADD011C,0.01*%
%ADD014R,0.157X0.035*%
%ADD015R,0.05X0.06*%
%ADD016R,0.06X0.05*%
%ADD017R,0.08X0.04*%
%ADD018R,0.25X0.2*%
%ADD019R,0.06X0.06*%
%ADD020C,0.06*%
%ADD021R,0.01181X0.05709*%
%ADD022R,0.05709X0.01181*%
%ADD023R,0.29528X0.29528*%
%ADD024R,0.05512X0.01181*%
%ADD025R,0.01181X0.05512*%
%ADD026C,0.25*%
%ADD027R,0.02362X0.05709*%
%ADD028C,0.006*%
%ADD029C,0.055*%
*
*
*
*
G04 PC Circuitry*
G04 Layer Name microp-revised-board.pc - circuitry*
%LPD*%
*
*
G04 PC Custom Flashes*
G04 Layer Name microp-revised-board.pc - flashes*
%LPD*%
*
*
G04 PC Circuitry*
G04 Layer Name microp-revised-board.pc - circuitry*
%LPD*%
*
G54D10*
G54D11*
G01X232500Y200000D02*
X435000D01*
Y240000*
X405000*
Y250000*
X435000*
Y267500*
X405000*
Y792500*
X232500*
Y200000*
G54D14*
X425500Y261600D03*
Y253700D03*
Y237000D03*
Y229100D03*
Y221200D03*
Y213300D03*
Y205400D03*
G54D15*
X385000Y648000D03*
Y657000D03*
Y623000D03*
Y632000D03*
Y598000D03*
Y607000D03*
Y573000D03*
Y582000D03*
G54D16*
X378000Y695000D03*
X387000D03*
Y677500D03*
X378000D03*
X375500Y552500D03*
X384500D03*
X348000D03*
X357000D03*
X345500Y695000D03*
X354500D03*
Y677500D03*
X345500D03*
X352000Y530000D03*
X343000D03*
Y512500D03*
X352000D03*
X343000Y497500D03*
X352000D03*
X323000Y777500D03*
X332000D03*
X323000Y750000D03*
X332000D03*
X323000Y720000D03*
X332000D03*
X313000Y695000D03*
X322000D03*
Y677500D03*
X313000D03*
X317000Y530000D03*
X308000D03*
G54D17*
X351400Y776500D03*
Y758500D03*
Y736500D03*
Y718500D03*
X278900Y774000D03*
Y756000D03*
G54D18*
X372500Y767500D03*
Y727500D03*
X300000Y765000D03*
G54D19*
X377213Y281509D03*
X351500Y451500D03*
X346500Y439000D03*
X325583Y223572D03*
X387500Y422500D03*
Y380000D03*
Y367500D03*
X281909Y717500D03*
X266909Y532500D03*
G54D20*
X367213Y281509D03*
X377213Y291509D03*
X367213D03*
X377213Y301509D03*
X367213D03*
X377213Y311509D03*
X367213D03*
X377213Y321509D03*
X367213D03*
X361500Y451500D03*
X371500D03*
X381500D03*
Y481500D03*
X371500D03*
X361500D03*
X351500D03*
X356500Y439000D03*
X366500D03*
X376500D03*
X386500D03*
X325583Y233572D03*
X335583Y223572D03*
Y233572D03*
X345583Y223572D03*
Y233572D03*
X355583Y223572D03*
Y233572D03*
X365583Y223572D03*
Y233572D03*
X377500Y422500D03*
X367500D03*
X357500D03*
X347500D03*
X337500D03*
X327500D03*
X317500D03*
X307500D03*
X297500D03*
Y392500D03*
X307500D03*
X317500D03*
X327500D03*
X337500D03*
X347500D03*
X357500D03*
X367500D03*
X377500D03*
X387500D03*
X377500Y380000D03*
X367500D03*
X357500D03*
X347500D03*
X337500D03*
X327500D03*
X317500D03*
X307500D03*
X297500D03*
X377500Y367500D03*
X367500D03*
X357500D03*
X347500D03*
X337500D03*
X327500D03*
X317500D03*
X307500D03*
X297500D03*
X307500Y717500D03*
X281909Y735217D03*
X307500D03*
X292500Y532500D03*
X266909Y550217D03*
X292500D03*
X240000Y777500D03*
Y767500D03*
Y757500D03*
Y747500D03*
Y737500D03*
Y727500D03*
Y717500D03*
Y707500D03*
Y697500D03*
Y687500D03*
Y677500D03*
Y667500D03*
Y657500D03*
Y647500D03*
Y637500D03*
Y627500D03*
Y617500D03*
Y607500D03*
Y597500D03*
Y587500D03*
Y577500D03*
Y567500D03*
Y557500D03*
Y547500D03*
Y537500D03*
Y527500D03*
Y517500D03*
Y507500D03*
Y497500D03*
Y487500D03*
Y477500D03*
Y467500D03*
Y457500D03*
Y447500D03*
Y437500D03*
Y427500D03*
Y417500D03*
Y407500D03*
Y397500D03*
Y387500D03*
Y377500D03*
Y367500D03*
Y357500D03*
Y347500D03*
Y337500D03*
Y327500D03*
Y317500D03*
Y307500D03*
Y297500D03*
Y287500D03*
Y277500D03*
Y267500D03*
Y257500D03*
Y247500D03*
Y237500D03*
Y227500D03*
Y217500D03*
Y207500D03*
G54D21*
X318264Y516539D03*
X316295D03*
X314327D03*
X312358D03*
X310390D03*
X308421D03*
X306453D03*
X304484D03*
X302516D03*
X300547D03*
X298579D03*
X296610D03*
X294642D03*
X292673D03*
X290705D03*
X288736D03*
Y471461D03*
X290705D03*
X292673D03*
X294642D03*
X296610D03*
X298579D03*
X300547D03*
X302516D03*
X304484D03*
X306453D03*
X308421D03*
X310390D03*
X312358D03*
X314327D03*
X316295D03*
X318264D03*
G54D22*
X280961Y508764D03*
Y506795D03*
Y504827D03*
Y502858D03*
Y500890D03*
Y498921D03*
Y496953D03*
Y494984D03*
Y493016D03*
Y491047D03*
Y489079D03*
Y487110D03*
Y485142D03*
Y483173D03*
Y481205D03*
Y479236D03*
X326039D03*
Y481205D03*
Y483173D03*
Y485142D03*
Y487110D03*
Y489079D03*
Y491047D03*
Y493016D03*
Y494984D03*
Y496953D03*
Y498921D03*
Y500890D03*
Y502858D03*
Y504827D03*
Y506795D03*
Y508764D03*
G54D23*
X303500Y494000D03*
G54D24*
X277874Y646949D03*
Y644980D03*
Y643012D03*
Y641043D03*
Y639075D03*
Y637106D03*
Y635138D03*
Y633169D03*
Y631201D03*
Y629232D03*
Y627264D03*
Y625295D03*
Y623327D03*
Y621358D03*
Y619390D03*
Y617421D03*
Y615453D03*
Y613484D03*
Y611516D03*
Y609547D03*
Y607579D03*
Y605610D03*
Y603642D03*
Y601673D03*
Y599705D03*
Y597736D03*
Y595768D03*
Y593799D03*
Y591831D03*
Y589862D03*
Y587894D03*
Y585925D03*
Y583957D03*
Y581988D03*
Y580020D03*
Y578051D03*
X362126D03*
Y580020D03*
Y581988D03*
Y583957D03*
Y585925D03*
Y587894D03*
Y589862D03*
Y591831D03*
Y593799D03*
Y595768D03*
Y597736D03*
Y599705D03*
Y601673D03*
Y603642D03*
Y605610D03*
Y607579D03*
Y609547D03*
Y611516D03*
Y613484D03*
Y615453D03*
Y617421D03*
Y619390D03*
Y621358D03*
Y623327D03*
Y625295D03*
Y627264D03*
Y629232D03*
Y631201D03*
Y633169D03*
Y635138D03*
Y637106D03*
Y639075D03*
Y641043D03*
Y643012D03*
Y644980D03*
Y646949D03*
G54D25*
X285551Y570374D03*
X287520D03*
X289488D03*
X291457D03*
X293425D03*
X295394D03*
X297362D03*
X299331D03*
X301299D03*
X303268D03*
X305236D03*
X307205D03*
X309173D03*
X311142D03*
X313110D03*
X315079D03*
X317047D03*
X319016D03*
X320984D03*
X322953D03*
X324921D03*
X326890D03*
X328858D03*
X330827D03*
X332795D03*
X334764D03*
X336732D03*
X338701D03*
X340669D03*
X342638D03*
X344606D03*
X346575D03*
X348543D03*
X350512D03*
X352480D03*
X354449D03*
Y654626D03*
X352480D03*
X350512D03*
X348543D03*
X346575D03*
X344606D03*
X342638D03*
X340669D03*
X338701D03*
X336732D03*
X334764D03*
X332795D03*
X330827D03*
X328858D03*
X326890D03*
X324921D03*
X322953D03*
X320984D03*
X319016D03*
X317047D03*
X315079D03*
X313110D03*
X311142D03*
X309173D03*
X307205D03*
X305236D03*
X303268D03*
X301299D03*
X299331D03*
X297362D03*
X295394D03*
X293425D03*
X291457D03*
X289488D03*
X287520D03*
X285551D03*
G54D26*
X320000Y612500D03*
G54D27*
X277500Y674469D03*
X282500D03*
X287500D03*
X292500D03*
Y695531D03*
X287500D03*
X282500D03*
X277500D03*
G54D28*
X414000Y213500D02*
X425500D01*
Y213300*
X407000Y206500D02*
X413150D01*
X414250Y205400*
X425500*
X240000Y217500D02*
X263125D01*
X268125Y222500*
X291000*
X335583Y233572D02*
X340000Y229155D01*
Y222500*
X345000Y217500*
X389038*
X392738Y221200*
X425500*
X325583Y223572D02*
X330000Y227990D01*
Y235202*
X352298Y257500*
X415300*
X419400Y261600*
X425500*
X345583Y223572D02*
X349775D01*
X353703Y227500*
X391158*
X393658Y230000*
X412662*
X419662Y237000*
X425500*
X365583Y223572D02*
X413872D01*
X419400Y229100*
X425500*
X331683Y235188D02*
Y227472D01*
X335583Y223572*
X331683Y235188D02*
X350195Y253700D01*
X425500*
X360000Y239500D02*
X383939D01*
X386939Y236500*
X414000*
X377000Y272500D02*
X396650Y292150D01*
X401000Y273500D02*
X403840Y270660D01*
Y267387*
X409627Y261600*
X425500*
X351000Y275500D02*
X357500D01*
X360500Y272500*
X367000*
X347000Y314500D02*
X357669D01*
X360669Y317500*
X381035*
X387035Y323500*
X393000*
X240000Y337500D02*
X252500D01*
X258500Y343500*
X270000*
X240000Y367500D02*
X255000D01*
X261000Y373500*
X274000*
X293600Y369115D02*
Y365885D01*
X296985Y362500*
X302500*
X307500Y367500*
X293600Y369115D02*
X299485Y375000D01*
X308015*
X312500Y379485*
Y393683*
X314000Y395183*
Y399500*
X281000Y357500D02*
X303015D01*
X312500Y366985*
Y368015*
X315885Y371400*
X329115*
X332500Y368015*
Y366985*
X335885Y363600*
X349115*
X352500Y366985*
Y368015*
X355885Y371400*
X360027*
X360577Y370850*
X364512*
X367500Y373838*
Y380000*
X297500Y367500D02*
X302500Y372500D01*
X311250*
X313750Y375000*
X324800*
X326300Y373500*
X341000*
X317500Y367500D02*
X325000Y360000D01*
X365515*
X371400Y365885*
Y381615*
X337500Y367500D02*
X341692D01*
X349192Y375000*
X354021*
X354521Y374500*
X363000*
X240000Y377500D02*
X257625D01*
X260625Y380500*
X278000*
X270000Y413662D02*
Y406500D01*
X280535Y395965*
X281535*
X293000Y384500*
X270000Y413662D02*
X288838Y432500D01*
X333500*
X340000Y439000*
Y447273*
X348887Y456160*
X351660*
X355000Y459500*
X274000Y408500D02*
X285465Y397035D01*
X286715*
X298071Y385679*
X301821*
X307500Y380000*
X341000Y406500D02*
Y398683D01*
X342500Y397183*
Y385000*
X347500Y380000*
X285000Y423500D02*
X290817D01*
X294817Y427500*
X318015*
X322500Y423015*
Y421985*
X330644Y413840*
X333660*
X341000Y406500*
X317500Y422500D02*
X332500Y407500D01*
Y390442*
X337500Y385442*
Y380000*
X333600Y424115D02*
X336985Y427500D01*
X348308*
X353308Y422500*
X357500*
X333600Y424115D02*
Y420822D01*
X353530Y400892*
Y390955*
X360156Y384329*
X368686*
X368686D02*
X371400Y381615D01*
X327500Y422500D02*
X335054Y414946D01*
X337716*
X352260Y400402*
Y385240*
X357500Y380000*
X337500Y422500D02*
X362500Y397500D01*
Y391985*
X366985Y387500*
X370000*
X377500Y380000*
X345000Y432500D02*
X370000D01*
X375000Y427500*
X400000*
X377500Y422500D02*
Y408308D01*
X382500Y403308*
Y352195*
X396650Y338045*
Y292150*
X247000Y447500D02*
X254500Y440000D01*
X293175*
X293675Y440500*
X336000*
X240000Y447500D02*
X250625Y458125D01*
Y463287*
X259781Y472443*
X275175*
X279176Y476444*
X284584*
X285915Y477776*
Y483942*
X285350Y452150D02*
X292000Y445500D01*
X332000*
X285350Y452150D02*
Y462202D01*
X290705Y467557*
Y471461*
X292000Y451500D02*
X296500D01*
X305650Y460650*
Y466276*
X356500Y439000D02*
Y452500D01*
X361500Y457500*
X375500*
X381500Y451500*
X351500D02*
Y438485D01*
X354985Y435000*
X378500*
X382500Y439000*
X386500*
X351500Y451500D02*
X355493Y455493D01*
X356487*
X364650Y463656*
X361500Y451500D02*
X367750Y445250D01*
X370250*
X376500Y439000*
X234900Y469612D02*
X238513Y473225D01*
X244073*
X257399Y486552*
X274052*
X276579Y489079*
X280961*
X234900Y469612D02*
Y436792D01*
X240000Y431692*
Y427500*
X236100Y469115D02*
X238697Y471713D01*
X238697D02*
X245453D01*
X245453D02*
X258774Y485034D01*
X274680*
X276757Y487110*
X280961*
X236100Y469115D02*
Y445592D01*
X240000Y441692*
Y437500*
Y457500D02*
X257764Y475264D01*
X275153*
X277533Y477644*
X284087*
X284715Y478273*
Y483173*
X240000Y467500D02*
X244134D01*
X259784Y483150*
X275532*
X277186Y481495*
X280961*
Y481205*
X261000Y468500D02*
X274075D01*
X280579Y475003*
X285180*
X286592Y476415*
X305253*
X306453Y475215*
Y471461*
X289000Y459500D02*
X289747Y464753D01*
X289994Y465000*
X290000*
X292673Y467673*
Y471461*
X279000Y465500D02*
X279338Y470000D01*
X282900Y473562*
X285778*
X287431Y475215*
X294642*
Y471461*
X284000Y469500D02*
Y469761D01*
X288736*
Y471461*
X297000Y457500D02*
Y461244D01*
X298080Y462324*
Y466475*
X298579Y466973*
Y471461*
X294000Y463500D02*
X296581Y466081D01*
Y466475*
X296610Y466504*
Y471461*
X312000Y464500D02*
X312068Y468906D01*
Y471461*
X312358*
X318264D02*
Y464074D01*
X320488Y461850*
X325350*
X329000Y465500*
X316295Y471461D02*
Y467465D01*
X316984Y466777*
Y463657*
X321141Y459500*
X341000*
X314327Y471461D02*
Y467521D01*
X315717Y466131*
Y462330*
X316000Y462047*
Y457500*
X310390Y471461D02*
Y475215D01*
X319227*
X320552Y473890*
Y472192*
X322000Y470744*
Y465500*
X308421Y471461D02*
Y475215D01*
X309621Y476415*
X319724*
X321350Y474789*
X325000*
Y474500*
X304484Y471461D02*
Y467442D01*
X305650Y466276*
X300547Y471461D02*
Y470008D01*
X302000Y464500*
X322000Y465500D02*
X329000Y472500D01*
X370000*
X329000Y465500D02*
X334244D01*
X335894Y463850*
X348106*
X349756Y465500*
X361000*
X339000Y467500D02*
X350244D01*
X352744Y470000*
X361662*
X364650Y467012*
Y463656*
X233700Y476715D02*
X239485Y482500D01*
X240515*
X244125Y486110*
Y497787*
X250488Y504150*
X253850*
X255150Y502850*
X267855*
X267863Y502858*
X280961*
X233700Y476715D02*
Y407992D01*
X240000Y401692*
Y397500*
X247000Y483500D02*
X261000Y497500D01*
X270000*
X270547Y496953*
X280961*
X248000Y490500D02*
X256421Y498921D01*
X280961*
X274000Y479500D02*
Y479236D01*
X280961*
X272000Y490500D02*
X276031D01*
X276579Y491047*
X280961*
X263000Y490500D02*
X267500Y495000D01*
X275000*
X276984Y493016*
X280961*
Y483173D02*
X284715D01*
X280961Y485142D02*
X284715D01*
X285915Y483942*
X326039Y493016D02*
Y493306D01*
X328594*
X333000Y493500*
X326039Y491047D02*
X330042D01*
X331240Y489850*
X334606*
X335256Y490500*
X339000*
X326039Y489079D02*
X329922D01*
X330690Y488310*
X334671*
X336131Y486850*
X341897*
X347669Y492623*
X360379*
X364256Y496500*
X369000*
X326039Y487110D02*
X330059D01*
X330400Y486770*
X330400D02*
X333157D01*
X334277Y485650*
X343779*
X348572Y490444*
X371583*
X376364Y495225*
X388678*
X388953Y495500*
X399000*
X326039Y485142D02*
X331447D01*
X332139Y484450*
X346480*
X349470Y487440*
X371583*
X375643Y491500*
X382000*
X326039Y483173D02*
X339400D01*
X346073Y476500*
X399000*
X326039Y479236D02*
X333000D01*
Y479500*
X235000Y508015D02*
Y496692D01*
X240000Y491692*
Y487500*
X235000Y508015D02*
X239485Y512500D01*
X240515*
X247850Y519835*
Y522410*
X267949Y542509*
X271995*
X275836Y546350*
X282290*
X285924Y542717*
X305018*
X314852Y552550*
X323637*
X323637D02*
X325337Y550850D01*
X325337D02*
X328512D01*
X330650Y552988*
Y565074*
X253000Y511500D02*
Y525863D01*
X268366Y541230*
X272990*
X276911Y545150*
X281245*
X284879Y541517*
X305592*
X315426Y551350*
X322915*
X324615Y549650*
X329009*
X332500Y553141*
Y565000*
X257000Y506500D02*
X266244D01*
X267917Y504827*
X280961*
X252000Y500500D02*
X266233D01*
X266623Y500890*
X280961*
X269000Y513500D02*
X276756D01*
X277803Y512453*
Y512197*
X278406Y509054*
X278462Y508764*
X280961*
X274000Y509500D02*
X276705Y506795D01*
X280961*
X259000Y513500D02*
X263276D01*
X266926Y517150*
X277728*
X282093Y512785*
X294642*
Y516539*
X284715Y494984D02*
X287476Y492224D01*
Y479224*
X288363Y478336*
X318637*
X320724Y480424*
Y487518*
X322285Y489079*
X326039*
X284715Y494984D02*
Y506015D01*
X288700Y510000*
X293825*
X296610Y512785*
Y516539*
X284715Y494984D02*
X280961D01*
X284715*
X322285Y502858D02*
Y510959D01*
X330123Y518797*
X333297*
X336000Y521500*
X322285Y502858D02*
X326039D01*
X336000Y499500D02*
Y499700D01*
X343000*
Y497500*
X326039Y508764D02*
Y510398D01*
X332990Y517349*
X337010*
X340000Y520338*
Y522662*
X343213Y525875*
X347375*
X351500Y530000*
X352000*
X326039Y506795D02*
X328789D01*
X329970Y507976*
Y512631*
X333238Y515900*
X337595*
X340004Y518310*
X340810*
X344000Y521500*
X326039Y504827D02*
X329794D01*
X331294Y506327*
Y508794*
X334000Y511500*
X326039Y498921D02*
Y499212D01*
X329794*
X329836Y499255*
Y502033*
X338375Y510572*
Y514648*
X340599Y516872*
X347896*
X348524Y517500*
X359000*
X326039Y496953D02*
X327738D01*
X328594Y497243*
X330000Y497721*
X331076Y498797*
Y501434*
X337210Y507569*
X337569*
X342500Y512500*
X343000*
X326039Y494984D02*
X327738D01*
X328594Y495275*
X330000Y495753*
X332315Y498067*
Y500976*
X335919Y504581*
X341000Y505500*
X352000Y497500D02*
X359000D01*
X352000Y512500D02*
Y510300D01*
X354700*
X359000Y508500*
X343000Y512500D02*
X343789D01*
X349000Y506500*
X369000Y496500D02*
X381650Y509150D01*
X240000Y527500D02*
X256291Y543791D01*
X271040*
X274800Y547550*
X283369*
X287002Y543917*
X304367*
X315233Y554783*
Y564900*
X317047Y566714*
Y570374*
X263000Y518500D02*
X281680D01*
X283641Y516539*
X288736*
X273000Y523500D02*
X286493D01*
X290705Y519289*
Y516539*
X266000Y524500D02*
X268650Y527150D01*
X284864*
X290942Y521072*
X291895*
X292673Y520294*
Y516539*
X292000Y525500D02*
X295894Y521606D01*
X297266*
X298579Y520294*
Y516539*
X292500Y532500D02*
X297441D01*
X299941Y530000*
X308000*
X300000Y524500D02*
X300257D01*
Y516539*
X300547*
X302516D02*
Y520294D01*
X305722Y523500*
X307000*
X306453Y516539D02*
Y512785D01*
X308013Y511224*
X317076*
X319524Y508776*
Y499713*
X322285Y496953*
X326039*
X308421Y516539D02*
Y519751D01*
X315116Y526446*
X320219*
X320912Y527140*
Y528968*
X329494Y537550*
X339652*
X340552Y536650*
X349503*
X351353Y538500*
X356000*
X310390Y516539D02*
X310680D01*
Y520313*
X315488Y525121*
X320787*
X332016Y536350*
X338725*
X340303Y534772*
X364984*
X370256Y529500*
X378000*
X312358Y516539D02*
Y520294D01*
X315861Y523796*
X321356*
X332710Y535150*
X337798*
X339455Y533494*
X357006*
X360000Y530500*
X314327Y516539D02*
Y520294D01*
X316533Y522500*
X322150*
X325150Y525500*
X329000*
X316295Y516539D02*
Y513705D01*
X317500Y512500*
X317536*
X317536D02*
X320752Y509284D01*
Y502423*
X322285Y500890*
X326039*
X316295Y516539D02*
Y520294D01*
X317227Y521225*
X329887*
X333035Y524373*
Y528535*
X336000Y531500*
X318264Y516539D02*
Y517500D01*
X323000*
X317000Y530000D02*
X317500D01*
X326250Y538750*
X341869*
X342769Y537850*
X348507*
X352807Y542150*
X361256*
X366406Y537000*
X375662*
X381650Y531012*
Y509150*
X336000Y531500D02*
X343000D01*
Y530000*
X352000D02*
X352500D01*
X369000Y513500*
Y496500*
X240000Y537500D02*
X247554Y545054D01*
X270236*
X273933Y548750*
X284392*
X288026Y545117*
X303870*
X313847Y555094*
Y565348*
X315079Y566580*
Y570374*
X240000Y547500D02*
X249869D01*
X251053Y546317*
X269427*
X273061Y549950*
X285318*
X288951Y546317*
X303373*
X312494Y555438*
Y565897*
X313110Y566513*
Y570374*
X274000Y537500D02*
X309000D01*
X316500Y530000*
X317000*
X266909Y550217D02*
X271220D01*
X273503Y552500*
X285318*
X287601Y550217*
X292500*
X279000Y541500D02*
X282650D01*
X284150Y540000*
X305850*
X308350Y542500*
X312000*
X315000Y547662D02*
X317488Y550150D01*
X321465*
X323165Y548450*
X329506*
X333700Y552644*
Y565655*
X315000Y547662D02*
Y545000D01*
X317000Y543000*
Y530000*
X319000Y546500D02*
X326598D01*
X328098Y545000*
X332046*
X337046Y550000*
X342695*
X345195Y547500*
X349773*
X352958Y550685*
Y557500*
X346000Y541500D02*
X348581Y544081D01*
X350162Y542500*
X350307*
X352807Y545000*
X355715*
X356215Y544500*
X368000*
X341000Y545500D02*
X350962D01*
X353612Y548150*
X370125*
X373775Y544500*
X384000*
X357000Y552500D02*
X362369D01*
X365269Y549600*
X371000*
X371500Y549100*
X380000*
X381800Y550300*
X384500*
Y552500*
X368000Y553500D02*
X375500D01*
Y552500*
X384500D02*
Y550300D01*
X391000*
Y550500*
X257000Y562500D02*
X274744D01*
X277394Y559850*
X294512*
X299331Y564669*
Y570374*
X240000Y557500D02*
X245933D01*
X248433Y555000*
X297656*
X302656Y550000*
X305359*
X311142Y555783*
Y570374*
X240000Y567500D02*
X250675Y556825D01*
X297656*
X301631Y552850*
X306512*
X309850Y556188*
Y565840*
X266000Y571500D02*
X265973Y571537D01*
X269204Y573887*
X269327*
X269365Y573850*
X272512*
X275170Y576508*
X280950*
X281530Y577088*
Y579015*
X281000Y570500D02*
X285551D01*
Y570374*
X293000Y563500D02*
X293135Y567918D01*
Y570374*
X293425*
X305000Y556500D02*
X308650Y560150D01*
Y565142*
X305000Y563500D02*
X305236D01*
Y570374*
X309173D02*
Y566517D01*
X309850Y565840*
X307205Y570374D02*
Y566588D01*
X308650Y565142*
X327000Y554500D02*
X323350Y558150D01*
Y565079*
X324921Y566651*
Y570374*
X319000Y563500D02*
X319735D01*
X322953Y566718*
Y570374*
X336732D02*
Y565768D01*
X337919Y564581*
X342000Y563500*
X334764Y570374D02*
Y576500D01*
X335000*
X332795Y570374D02*
Y566560D01*
X333700Y565655*
X330827Y570374D02*
Y566673D01*
X332500Y565000*
X328858Y570374D02*
X329149D01*
Y566575*
X330650Y565074*
X326890Y570374D02*
Y563500D01*
X327000*
X352958Y557500D02*
X390256D01*
X395256Y552500*
X400000*
X341000Y556500D02*
X345300Y554700D01*
X348000*
Y552500*
X354449Y570374D02*
X357103D01*
X359977Y567500*
X365141*
X366141Y568500*
X379000*
X352480Y570374D02*
Y563950D01*
X352958Y563472*
Y557500*
X348543Y570374D02*
Y565162D01*
X349000Y564706*
Y559500*
X362000Y573500D02*
Y578051D01*
X362126*
X368000Y561500D02*
X400000D01*
X236100Y585885D02*
Y599115D01*
X239485Y602500*
X240515*
X243900Y605885*
X236100Y585885D02*
X238718Y583267D01*
X246204*
X262753Y566718*
X287520*
Y570374*
X234900Y585388D02*
Y608208D01*
X240000Y613308*
Y617500*
X234900Y585388D02*
X238554Y581733D01*
X244485*
X260700Y565518*
X288288*
X289488Y566718*
Y570374*
X255000Y590500D02*
X260962Y584538D01*
X273363*
X273944Y583957*
X277874*
X257000Y581500D02*
X264244D01*
X265894Y583150*
X272780*
X273941Y581988*
X277874*
X240000Y577500D02*
X248054Y569446D01*
Y566284*
X255688Y558650*
X295009*
X300940Y564581*
Y564642*
X302977Y566679*
Y570374*
X303268*
X240000Y587500D02*
X250350D01*
X271000Y579500D02*
X276526Y578051D01*
X277874*
X263000Y588500D02*
X267396D01*
X269970Y585925*
X277874*
X270000Y593500D02*
X273638Y589862D01*
X277874*
Y580020D02*
X280525D01*
X281530Y579015*
X277874Y591831D02*
X282275D01*
X283605Y590500*
X288000*
X297494Y582500D02*
X318025D01*
X323213Y577312*
X330650*
X297494Y582500D02*
X295350Y580356D01*
Y576988*
X297898Y574440*
X300889*
X301299Y574030*
Y570374*
X288000Y590500D02*
X290965Y587535D01*
X294127*
X297081Y584581*
X297494Y582500*
X289000Y576500D02*
X291457Y574043D01*
Y570374*
X293000Y583500D02*
Y579604D01*
X294006Y578598*
Y576508*
X297362Y573152*
Y570374*
X286000Y582500D02*
X289662Y581000D01*
X292800Y577862*
Y575881*
X295394Y573288*
Y570374*
X299000Y578500D02*
X303060Y574440D01*
X318606*
X319016Y574030*
Y570374*
X307000Y578500D02*
X316514D01*
X320984Y574030*
Y570374*
X330650Y577312D02*
Y575429D01*
X332795Y573284*
Y570374*
X330650Y577312D02*
X333488Y580150D01*
X355512*
X358000Y577662*
Y572338*
X360488Y569850*
X368350*
X379000Y580500*
X325000Y584500D02*
X329209D01*
X332326Y581383*
X356442*
X357805Y580020*
X362126*
X335000Y586500D02*
X345244D01*
X347894Y583850*
X357938*
X358044Y583957*
X362126*
X321000Y591500D02*
X323965Y588535D01*
X327431*
X333349Y582616*
X357372*
X358000Y581988*
X362126*
X354000Y576500D02*
X350350D01*
Y570374*
X350512*
X353000Y594500D02*
X357202D01*
X358470Y595768*
X362126*
X356000Y587500D02*
X358362Y589862D01*
X362126*
X346000Y576500D02*
X346284Y572830D01*
Y570374*
X346575*
X345000Y594500D02*
X350500Y600000D01*
X355000*
X357264Y597736*
X362126*
X373281Y585619D02*
X377500Y589838D01*
Y590162*
X379838Y592500*
X380000*
X385000Y597500*
Y598000*
X373281Y585619D02*
X374974Y583926D01*
X375574*
X379000Y580500*
X362126Y593799D02*
X367299D01*
X369000Y595500*
X362126Y591831D02*
X366901D01*
X368231Y590500*
X373000*
X362126Y587894D02*
X369768D01*
X371003Y586659*
X372241*
X373281Y585619*
X362126Y585925D02*
Y586081D01*
X366419*
X369000Y583500*
X379000Y580500D02*
X382800Y575700D01*
Y573000*
X385000*
X381000Y588500D02*
X382800Y584700D01*
Y582000*
X385000*
X389000Y591500D02*
X400850Y603350D01*
X252000Y605500D02*
X256604Y600896D01*
X259053*
X262450Y597500*
X271162*
X273934Y594728*
Y594083*
X274218Y593799*
X277874*
X271000Y611500D02*
Y611516D01*
X277874*
X261000Y604500D02*
X266657D01*
X273420Y597736*
X277874*
Y595768D02*
X284000D01*
Y595500*
X277874Y605610D02*
X278550D01*
X284000Y606500*
X277874Y607579D02*
X278977D01*
X284000Y606500*
X277874Y609547D02*
X281708D01*
X282660Y610500*
X288256*
X289256Y611500*
X296000*
X362126Y607579D02*
X370527D01*
X370605Y607500*
X379000*
X362126Y599705D02*
X372205D01*
X375000Y602500*
X387555*
X390055Y600000*
X391662*
X394871Y603210*
X396000Y608500*
X385000Y607000D02*
Y604300D01*
X391000*
Y604500*
X385000Y598000D02*
X388500D01*
X389000Y597500*
X392014*
X399650Y605136*
X233700Y626715D02*
Y558285D01*
X239485Y552500*
X246433*
X248433Y550500*
X258000*
X233700Y626715D02*
X239485Y632500D01*
X240515*
X245000Y636985*
Y638015*
X254000Y625500D02*
X265555D01*
X267555Y627500*
X270768*
X271005Y627264*
X277874*
X257000Y631500D02*
X262047D01*
X264315Y629232*
X277874*
X240000Y627500D02*
Y623308D01*
X243900Y619408*
Y605885*
X266000Y615500D02*
X269162Y617500D01*
X271250*
X272500Y616250*
Y615202*
X274218Y613484*
X277874*
X271000Y621500D02*
Y621358D01*
X277874*
Y615453D02*
X278720D01*
X284000Y614500*
X277874Y617421D02*
X281645D01*
X282373Y618150*
X285792*
X288292Y615650*
X300378*
X314228Y629500*
X350000*
X277874Y619390D02*
X286530D01*
X289070Y616850*
X296696*
X311621Y631775*
X339146*
X346185Y638815*
X277874Y623327D02*
X280768D01*
X282351Y621744*
X286530*
X287774Y620500*
X292000*
X277874Y625295D02*
X284000D01*
Y625500*
X342000Y621500D02*
X345465Y624965D01*
X350627*
X353650Y627988*
X356000Y624500D02*
X361783Y625295D01*
X362126*
X356000Y617500D02*
Y617421D01*
X362126*
X374000Y615500D02*
X382000D01*
X383000Y614500*
X391000*
X362126Y623327D02*
Y623617D01*
X365782*
X367500Y625335*
Y625994*
X369006Y627500*
X370732*
X375232Y623000*
X385000*
X364582Y621358D02*
X362126D01*
X369000*
Y621500*
X362126Y619390D02*
X364582D01*
Y621358*
X362126Y615453D02*
X367857D01*
X368310Y615000*
X369750*
X370250Y615500*
X374000*
X385000Y632000D02*
Y638500D01*
Y623000D02*
X391500D01*
X395000Y619500*
X257500Y640838D02*
Y652795D01*
X277500Y672795*
Y674469*
X257500Y640838D02*
X265838Y632500D01*
X270000*
X270669Y633169*
X277874*
X262000Y648500D02*
X268000Y642500D01*
X269479*
X271959Y644980*
X277874*
X262000Y641500D02*
X266476D01*
X266676Y641300*
X271293*
X273005Y643012*
X277874*
X267000Y637500D02*
X271253D01*
X273615Y635138*
X277874*
X269000Y648500D02*
X272658D01*
X274210Y646949*
X277874*
Y637106D02*
X282894D01*
X285000Y635000*
X290425*
X290925Y635500*
X300000*
X277874Y639075D02*
X281727D01*
X282153Y639500*
X286000*
X277874Y641043D02*
Y640753D01*
X282011*
X284408Y643150*
X288606*
X290256Y641500*
X295000*
X277874Y641043D02*
X280330D01*
Y641521*
X281003*
X281434Y641953*
X289481Y650000*
X292500*
X293135Y652170*
X293425Y653164*
Y654626*
X286000Y639500D02*
X290744D01*
X292744Y637500*
X296162*
X300000Y641338*
Y645256*
X304744Y650000*
X304946Y652170*
Y654626*
X305236*
X295394D02*
X295684D01*
Y652170*
X296000Y648500*
X317350Y644988D02*
X327338Y635000D01*
X331750*
X333250Y636500*
X337000*
X317350Y644988D02*
Y648082D01*
X319016Y649748*
Y654626*
X306000Y644500D02*
X309650D01*
X311650Y642500*
X312162*
X315900Y646238*
Y648400*
X317047Y649547*
Y654626*
X305236D02*
Y655690D01*
X305527Y657082*
X306082Y659744*
X311488Y665150*
X347581*
X354449Y658282*
Y654626*
X311142D02*
Y654048D01*
X312000Y648500*
X320984Y654626D02*
Y650568D01*
X321000Y650552*
Y646500*
X322953Y654626D02*
Y650015D01*
X325083Y647885*
Y646882*
X325815Y646150*
Y642500*
X326000*
X324921Y654626D02*
Y650202D01*
X326283Y648841*
Y647379*
X330000Y643662*
X332000Y640500*
X326890Y654626D02*
Y650390D01*
X331000Y648500*
X336732Y654626D02*
Y653261D01*
X338000Y648500*
X346185Y638815D02*
Y640928D01*
X357500Y652243*
X346185Y638815D02*
X353650Y631350D01*
Y627988*
X355000Y644500D02*
X357581Y647081D01*
X362126*
Y646949*
X338701Y654626D02*
Y655809D01*
X340000Y661500*
X340669Y654626D02*
X340960D01*
Y650970*
X341930Y650000*
X353479*
X354449Y650970*
Y654626*
X362126Y644980D02*
X378480D01*
X381500Y648000*
X385000*
X362126Y635138D02*
X367362D01*
X375000Y627500*
X392500*
X399650Y620350*
Y605136*
X385000Y648000D02*
X387200D01*
Y650700*
X388400Y652500*
X385000Y648000D02*
Y645763D01*
X391000Y644500*
X234900Y667915D02*
Y647085D01*
X239485Y642500*
X240515*
X245000Y638015*
X234900Y667915D02*
X239485Y672500D01*
X242500*
X280000Y710000*
X285425*
X286925Y708500*
X296000*
X236100Y655885D02*
X239485Y652500D01*
X240515*
X247275Y645740*
Y605063*
X254665Y597673*
X260191*
X269970Y587894*
X277874*
X236100Y655885D02*
Y663600D01*
X240000Y667500*
X273000Y661500D02*
X305500D01*
X321500Y677500*
X322000*
X292500Y674469D02*
Y673063D01*
X296000Y668500*
X282500Y674469D02*
Y672795D01*
X284419Y670876*
Y669081*
X287000Y666500*
X313000Y661500D02*
X313110D01*
Y654626*
X328000Y661500D02*
X328858Y654821D01*
Y654626*
X382000Y663500D02*
X382800Y659700D01*
Y657000*
X385000*
X256300Y679640D02*
X276660Y700000D01*
X298720*
X303720Y695000*
X313000*
X256300Y679640D02*
Y640341D01*
X265440Y631201*
X277874*
X281350Y685394D02*
Y690320D01*
X282500Y691470*
Y695531*
X281350Y685394D02*
X282279Y684465D01*
X284035*
X287000Y681500*
X287258*
Y674469*
X287500*
X296000Y684500D02*
X305500D01*
X312500Y677500*
X313000*
X285000Y688500D02*
X287500Y695414D01*
Y695531*
X313000Y677500D02*
X313500D01*
X323775Y687775*
X339775*
X341150Y689150*
X354512*
X356650Y687012*
Y680900*
X322000Y677500D02*
X332314D01*
X340314Y685500*
X353000*
X356650Y680900D02*
X362850D01*
X373750Y670000*
X380662*
X388400Y662262*
Y652500*
X345500Y677500D02*
Y679700D01*
X348200*
X350000Y680900*
X356650*
X354500Y677500D02*
Y667014D01*
X357500Y664014*
Y652243*
X366000Y692500D02*
X370625D01*
X373125Y695000*
X378000*
Y677500D02*
X378500D01*
X400850Y655150*
Y603350*
X378000Y677500D02*
Y683619D01*
X381900Y687519*
X387000Y677500D02*
X394000D01*
X277500Y695531D02*
X282500D01*
X292500D02*
Y693450D01*
X298000Y690500*
X313000Y695000D02*
X313500D01*
X321000Y702500*
X346175*
X347175Y701500*
X376000*
X322000Y695000D02*
Y692800D01*
X324700*
X329000Y692500*
X354500Y695000D02*
Y696500D01*
X361000*
X345500Y695000D02*
X346000D01*
X350025Y690975*
X358374*
X360849Y688500*
X375000*
X387000Y695000D02*
Y695500D01*
X394000*
X316000Y717500D02*
X320300Y717800D01*
X323000*
Y720000*
X332000D02*
Y717800D01*
X334700*
X339000Y717500*
X356000Y727500D02*
X372500D01*
X351000Y718500D02*
X351400D01*
Y728645*
X356300Y733545*
Y743700*
X298000Y746500D02*
X308625D01*
X312125Y750000*
X323000*
X281909Y735217D02*
X307500D01*
X314556*
X327500Y722273*
Y717565*
X335065Y710000*
X373500*
X381900Y701600*
Y687519*
X332000Y750000D02*
X332500D01*
X340000Y742500*
X343744*
X345000Y741244*
Y740900*
X349400Y736500*
X351000*
X323000Y750000D02*
X323500D01*
X341000Y767500*
X372500*
X344000Y736500D02*
X351000D01*
X271000Y774500D02*
X278500D01*
Y774000*
Y756000D02*
X280900D01*
X294400Y742500*
X322273*
X327500Y747727*
Y752273*
X333727Y758500*
X351000*
X344000Y774500D02*
X347700Y774800D01*
X351000*
Y776500*
Y758500D02*
X351400D01*
Y748600*
X356300Y743700*
X240000Y777500D02*
X255400D01*
X276900Y756000*
X278500*
X298000Y778500D02*
Y765000D01*
X300000*
X298000Y778500D02*
X309875D01*
X310875Y777500*
X323000*
X332000D02*
X336625D01*
X339625Y774500*
X344000*
G54D29*
X414000Y213500D03*
X407000Y206500D03*
X291000Y222500D03*
X360000Y239500D03*
X414000Y236500D03*
X367000Y272500D03*
X377000D03*
X401000Y273500D03*
X351000Y275500D03*
X347000Y314500D03*
X393000Y323500D03*
X270000Y343500D03*
X274000Y373500D03*
X281000Y357500D03*
X341000Y373500D03*
X363000Y374500D03*
X278000Y380500D03*
X293000Y384500D03*
X274000Y408500D03*
X314000Y399500D03*
X341000Y406500D03*
X285000Y423500D03*
X345000Y432500D03*
X400000Y427500D03*
X247000Y447500D03*
X292000Y451500D03*
X332000Y445500D03*
X336000Y440500D03*
X261000Y468500D03*
X289000Y459500D03*
X279000Y465500D03*
X284000Y469500D03*
X297000Y457500D03*
X294000Y463500D03*
X316000Y457500D03*
X312000Y464500D03*
X302000D03*
X325000Y474500D03*
X322000Y465500D03*
X329000D03*
X341000Y459500D03*
X339000Y467500D03*
X355000Y459500D03*
X370000Y472500D03*
X361000Y465500D03*
X247000Y483500D03*
X248000Y490500D03*
X274000Y479500D03*
X272000Y490500D03*
X263000D03*
X333000Y479500D03*
Y493500D03*
X339000Y490500D03*
X382000Y491500D03*
X399000Y476500D03*
X253000Y511500D03*
X257000Y506500D03*
X252000Y500500D03*
X269000Y513500D03*
X274000Y509500D03*
X259000Y513500D03*
X336000Y499500D03*
X334000Y511500D03*
X349000Y506500D03*
X341000Y505500D03*
X369000Y496500D03*
X359000Y508500D03*
Y497500D03*
X399000Y495500D03*
X263000Y518500D03*
X273000Y523500D03*
X266000Y524500D03*
X292000Y525500D03*
X307000Y523500D03*
X300000Y524500D03*
X336000Y531500D03*
X323000Y517500D03*
X329000Y525500D03*
X336000Y521500D03*
X344000D03*
X378000Y529500D03*
X360000Y530500D03*
X359000Y517500D03*
X258000Y550500D03*
X274000Y537500D03*
X279000Y541500D03*
X312000Y542500D03*
X327000Y554500D03*
X319000Y546500D03*
X346000Y541500D03*
X341000Y545500D03*
X356000Y538500D03*
X368000Y544500D03*
Y553500D03*
X391000Y550500D03*
X384000Y544500D03*
X400000Y552500D03*
X257000Y562500D03*
X266000Y571500D03*
X281000Y570500D03*
X293000Y563500D03*
X305000Y556500D03*
Y563500D03*
X319000D03*
X327000D03*
X342000D03*
X341000Y556500D03*
X349000Y559500D03*
X362000Y573500D03*
X368000Y561500D03*
X379000Y568500D03*
X400000Y561500D03*
X255000Y590500D03*
X257000Y581500D03*
X271000Y579500D03*
X263000Y588500D03*
X270000Y593500D03*
X288000Y590500D03*
X289000Y576500D03*
X293000Y583500D03*
X286000Y582500D03*
X299000Y578500D03*
X307000D03*
X335000Y576500D03*
X325000Y584500D03*
X335000Y586500D03*
X321000Y591500D03*
X353000Y594500D03*
X356000Y587500D03*
X354000Y576500D03*
X346000D03*
X345000Y594500D03*
X373000Y590500D03*
X369000Y583500D03*
X379000Y580500D03*
X381000Y588500D03*
X389000Y591500D03*
X252000Y605500D03*
X271000Y611500D03*
X261000Y604500D03*
X284000Y606500D03*
Y595500D03*
Y614500D03*
X296000Y611500D03*
X369000Y595500D03*
X391000Y604500D03*
Y614500D03*
X396000Y608500D03*
X379000Y607500D03*
X254000Y625500D03*
X257000Y631500D03*
X266000Y615500D03*
X271000Y621500D03*
X292000Y620500D03*
X284000Y625500D03*
X342000Y621500D03*
X356000Y624500D03*
Y617500D03*
X350000Y629500D03*
X369000Y621500D03*
X374000Y615500D03*
X395000Y619500D03*
X262000Y648500D03*
Y641500D03*
X267000Y637500D03*
X269000Y648500D03*
X286000Y639500D03*
X295000Y641500D03*
X296000Y648500D03*
X312000D03*
X306000Y644500D03*
X300000Y635500D03*
X338000Y648500D03*
X331000D03*
X332000Y640500D03*
X326000Y642500D03*
X337000Y636500D03*
X321000Y646500D03*
X355000Y644500D03*
X385000Y638500D03*
X391000Y644500D03*
X273000Y661500D03*
X296000Y668500D03*
X287000Y666500D03*
X313000Y661500D03*
X328000D03*
X340000D03*
X382000Y663500D03*
X287000Y681500D03*
X296000Y684500D03*
X298000Y690500D03*
X285000Y688500D03*
X329000Y692500D03*
X353000Y685500D03*
X375000Y688500D03*
X366000Y692500D03*
X394000Y677500D03*
X296000Y708500D03*
X361000Y696500D03*
X376000Y701500D03*
X394000Y695500D03*
X316000Y717500D03*
X339000D03*
X356000Y727500D03*
X298000Y746500D03*
X344000Y736500D03*
X271000Y774500D03*
X344000D03*
X298000Y778500D03*
X0Y0D02*
M02*
