*
*
G04 PADS VX.2.1 Build Number: 6554490 generated Gerber (RS-274-X) file*
G04 PC Version=2.1*
*
%IN "microp-revised-board.pc"*%
*
%MOIN*%
*
%FSLAX35Y35*%
*
*
*
*
G04 PC Standard Apertures*
*
*
G04 Thermal Relief Aperture macro.*
%AMTER*
1,1,$1,0,0*
1,0,$1-$2,0,0*
21,0,$3,$4,0,0,45*
21,0,$3,$4,0,0,135*
%
*
*
G04 Annular Aperture macro.*
%AMANN*
1,1,$1,0,0*
1,0,$2,0,0*
%
*
*
G04 Odd Aperture macro.*
%AMODD*
1,1,$1,0,0*
1,0,$1-0.005,0,0*
%
*
*
G04 PC Custom Aperture Macros*
*
*
*
*
*
*
G04 PC Aperture Table*
*
%ADD010C,0.001*%
%ADD011C,0.01*%
%ADD035R,0.167X0.045*%
%ADD036R,0.06X0.07*%
%ADD037R,0.07X0.06*%
%ADD038R,0.09X0.05*%
%ADD039R,0.26X0.21*%
%ADD040R,0.07X0.07*%
%ADD041C,0.07*%
%ADD042R,0.30528X0.30528*%
%ADD043C,0.26*%
%ADD044R,0.02181X0.06709*%
%ADD045R,0.06709X0.02181*%
%ADD046R,0.06512X0.02181*%
%ADD047R,0.02181X0.06512*%
%ADD048R,0.03362X0.06709*%
*
*
*
*
G04 PC Circuitry*
G04 Layer Name microp-revised-board.pc - circuitry*
%LPD*%
*
*
G04 PC Custom Flashes*
G04 Layer Name microp-revised-board.pc - flashes*
%LPD*%
*
*
G04 PC Circuitry*
G04 Layer Name microp-revised-board.pc - circuitry*
%LPD*%
*
G54D10*
G54D11*
G01X232500Y200000D02*
X435000D01*
Y240000*
X405000*
Y250000*
X435000*
Y267500*
X405000*
Y792500*
X232500*
Y200000*
G54D35*
X425500Y261600D03*
Y253700D03*
Y237000D03*
Y229100D03*
Y221200D03*
Y213300D03*
Y205400D03*
G54D36*
X385000Y648000D03*
Y657000D03*
Y623000D03*
Y632000D03*
Y598000D03*
Y607000D03*
Y573000D03*
Y582000D03*
G54D37*
X378000Y695000D03*
X387000D03*
Y677500D03*
X378000D03*
X375500Y552500D03*
X384500D03*
X348000D03*
X357000D03*
X345500Y695000D03*
X354500D03*
Y677500D03*
X345500D03*
X352000Y530000D03*
X343000D03*
Y512500D03*
X352000D03*
X343000Y497500D03*
X352000D03*
X323000Y777500D03*
X332000D03*
X323000Y750000D03*
X332000D03*
X323000Y720000D03*
X332000D03*
X313000Y695000D03*
X322000D03*
Y677500D03*
X313000D03*
X317000Y530000D03*
X308000D03*
G54D38*
X351400Y776500D03*
Y758500D03*
Y736500D03*
Y718500D03*
X278900Y774000D03*
Y756000D03*
G54D39*
X372500Y767500D03*
Y727500D03*
X300000Y765000D03*
G54D40*
X377213Y281509D03*
X351500Y451500D03*
X346500Y439000D03*
X325583Y223572D03*
X387500Y422500D03*
Y380000D03*
Y367500D03*
X281909Y717500D03*
X266909Y532500D03*
G54D41*
X367213Y281509D03*
X377213Y291509D03*
X367213D03*
X377213Y301509D03*
X367213D03*
X377213Y311509D03*
X367213D03*
X377213Y321509D03*
X367213D03*
X361500Y451500D03*
X371500D03*
X381500D03*
Y481500D03*
X371500D03*
X361500D03*
X351500D03*
X356500Y439000D03*
X366500D03*
X376500D03*
X386500D03*
X325583Y233572D03*
X335583Y223572D03*
Y233572D03*
X345583Y223572D03*
Y233572D03*
X355583Y223572D03*
Y233572D03*
X365583Y223572D03*
Y233572D03*
X377500Y422500D03*
X367500D03*
X357500D03*
X347500D03*
X337500D03*
X327500D03*
X317500D03*
X307500D03*
X297500D03*
Y392500D03*
X307500D03*
X317500D03*
X327500D03*
X337500D03*
X347500D03*
X357500D03*
X367500D03*
X377500D03*
X387500D03*
X377500Y380000D03*
X367500D03*
X357500D03*
X347500D03*
X337500D03*
X327500D03*
X317500D03*
X307500D03*
X297500D03*
X377500Y367500D03*
X367500D03*
X357500D03*
X347500D03*
X337500D03*
X327500D03*
X317500D03*
X307500D03*
X297500D03*
X307500Y717500D03*
X281909Y735217D03*
X307500D03*
X292500Y532500D03*
X266909Y550217D03*
X292500D03*
X240000Y777500D03*
Y767500D03*
Y757500D03*
Y747500D03*
Y737500D03*
Y727500D03*
Y717500D03*
Y707500D03*
Y697500D03*
Y687500D03*
Y677500D03*
Y667500D03*
Y657500D03*
Y647500D03*
Y637500D03*
Y627500D03*
Y617500D03*
Y607500D03*
Y597500D03*
Y587500D03*
Y577500D03*
Y567500D03*
Y557500D03*
Y547500D03*
Y537500D03*
Y527500D03*
Y517500D03*
Y507500D03*
Y497500D03*
Y487500D03*
Y477500D03*
Y467500D03*
Y457500D03*
Y447500D03*
Y437500D03*
Y427500D03*
Y417500D03*
Y407500D03*
Y397500D03*
Y387500D03*
Y377500D03*
Y367500D03*
Y357500D03*
Y347500D03*
Y337500D03*
Y327500D03*
Y317500D03*
Y307500D03*
Y297500D03*
Y287500D03*
Y277500D03*
Y267500D03*
Y257500D03*
Y247500D03*
Y237500D03*
Y227500D03*
Y217500D03*
Y207500D03*
G54D42*
X303500Y494000D03*
G54D43*
X320000Y612500D03*
G54D44*
X318264Y516539D03*
X316295D03*
X314327D03*
X312358D03*
X310390D03*
X308421D03*
X306453D03*
X304484D03*
X302516D03*
X300547D03*
X298579D03*
X296610D03*
X294642D03*
X292673D03*
X290705D03*
X288736D03*
Y471461D03*
X290705D03*
X292673D03*
X294642D03*
X296610D03*
X298579D03*
X300547D03*
X302516D03*
X304484D03*
X306453D03*
X308421D03*
X310390D03*
X312358D03*
X314327D03*
X316295D03*
X318264D03*
G54D45*
X280961Y508764D03*
Y506795D03*
Y504827D03*
Y502858D03*
Y500890D03*
Y498921D03*
Y496953D03*
Y494984D03*
Y493016D03*
Y491047D03*
Y489079D03*
Y487110D03*
Y485142D03*
Y483173D03*
Y481205D03*
Y479236D03*
X326039D03*
Y481205D03*
Y483173D03*
Y485142D03*
Y487110D03*
Y489079D03*
Y491047D03*
Y493016D03*
Y494984D03*
Y496953D03*
Y498921D03*
Y500890D03*
Y502858D03*
Y504827D03*
Y506795D03*
Y508764D03*
G54D46*
X277874Y646949D03*
Y644980D03*
Y643012D03*
Y641043D03*
Y639075D03*
Y637106D03*
Y635138D03*
Y633169D03*
Y631201D03*
Y629232D03*
Y627264D03*
Y625295D03*
Y623327D03*
Y621358D03*
Y619390D03*
Y617421D03*
Y615453D03*
Y613484D03*
Y611516D03*
Y609547D03*
Y607579D03*
Y605610D03*
Y603642D03*
Y601673D03*
Y599705D03*
Y597736D03*
Y595768D03*
Y593799D03*
Y591831D03*
Y589862D03*
Y587894D03*
Y585925D03*
Y583957D03*
Y581988D03*
Y580020D03*
Y578051D03*
X362126D03*
Y580020D03*
Y581988D03*
Y583957D03*
Y585925D03*
Y587894D03*
Y589862D03*
Y591831D03*
Y593799D03*
Y595768D03*
Y597736D03*
Y599705D03*
Y601673D03*
Y603642D03*
Y605610D03*
Y607579D03*
Y609547D03*
Y611516D03*
Y613484D03*
Y615453D03*
Y617421D03*
Y619390D03*
Y621358D03*
Y623327D03*
Y625295D03*
Y627264D03*
Y629232D03*
Y631201D03*
Y633169D03*
Y635138D03*
Y637106D03*
Y639075D03*
Y641043D03*
Y643012D03*
Y644980D03*
Y646949D03*
G54D47*
X285551Y570374D03*
X287520D03*
X289488D03*
X291457D03*
X293425D03*
X295394D03*
X297362D03*
X299331D03*
X301299D03*
X303268D03*
X305236D03*
X307205D03*
X309173D03*
X311142D03*
X313110D03*
X315079D03*
X317047D03*
X319016D03*
X320984D03*
X322953D03*
X324921D03*
X326890D03*
X328858D03*
X330827D03*
X332795D03*
X334764D03*
X336732D03*
X338701D03*
X340669D03*
X342638D03*
X344606D03*
X346575D03*
X348543D03*
X350512D03*
X352480D03*
X354449D03*
Y654626D03*
X352480D03*
X350512D03*
X348543D03*
X346575D03*
X344606D03*
X342638D03*
X340669D03*
X338701D03*
X336732D03*
X334764D03*
X332795D03*
X330827D03*
X328858D03*
X326890D03*
X324921D03*
X322953D03*
X320984D03*
X319016D03*
X317047D03*
X315079D03*
X313110D03*
X311142D03*
X309173D03*
X307205D03*
X305236D03*
X303268D03*
X301299D03*
X299331D03*
X297362D03*
X295394D03*
X293425D03*
X291457D03*
X289488D03*
X287520D03*
X285551D03*
G54D48*
X277500Y674469D03*
X282500D03*
X287500D03*
X292500D03*
Y695531D03*
X287500D03*
X282500D03*
X277500D03*
X0Y0D02*
M02*
