*
*
G04 PADS VX.2.1 Build Number: 6554490 generated Gerber (RS-274-X) file*
G04 PC Version=2.1*
*
%IN "uMuddMarkVLayout.pcb"*%
*
%MOIN*%
*
%FSLAX35Y35*%
*
*
*
*
G04 PC Standard Apertures*
*
*
G04 Thermal Relief Aperture macro.*
%AMTER*
1,1,$1,0,0*
1,0,$1-$2,0,0*
21,0,$3,$4,0,0,45*
21,0,$3,$4,0,0,135*
%
*
*
G04 Annular Aperture macro.*
%AMANN*
1,1,$1,0,0*
1,0,$2,0,0*
%
*
*
G04 Odd Aperture macro.*
%AMODD*
1,1,$1,0,0*
1,0,$1-0.005,0,0*
%
*
*
G04 PC Custom Aperture Macros*
*
*
*
*
*
*
G04 PC Aperture Table*
*
%ADD010C,0.001*%
%ADD027C,0.01*%
%ADD045C,0.012*%
%ADD046C,0.00787*%
%ADD047C,0.00787*%
%ADD050C,0.009*%
%ADD051C,0.007*%
*
*
*
*
G04 PC Circuitry*
G04 Layer Name uMuddMarkVLayout.pcb - circuitry*
%LPD*%
*
G54D10*
G01X2039314Y1854306D02*
X2039262Y1854613D01*
X2039262D02*
X2039161Y1854866D01*
X2038960Y1855067*
X2038646Y1855224*
X2038642Y1855312*
X2038905Y1855470*
X2039056Y1855620*
X2039157Y1855822*
X2039207Y1856022*
X2039156Y1856427*
X2038902Y1856732*
X2038597Y1856935*
X2038132Y1856987*
X2037668Y1856935*
X2037363Y1856732*
X2037108Y1856427*
X2037058Y1856074*
X2037109Y1855821*
X2037209Y1855620*
X2037360Y1855470*
X2037622Y1855312*
X2037612Y1855222*
X2037302Y1855118*
X2037105Y1854921*
X2037002Y1854614*
X2036951Y1854306*
X2037055Y1853841*
X2037259Y1853483*
X2037667Y1853228*
X2038132Y1853177*
X2038598Y1853228*
X2039006Y1853483*
X2039210Y1853841*
X2039314Y1854306*
X2038824Y1856007D02*
X2038770Y1855793D01*
X2038763Y1855777*
X2038656Y1855616*
X2038637Y1855599*
X2038423Y1855492*
X2038410Y1855488*
X2038142Y1855434*
X2038123*
X2037855Y1855488*
X2037842Y1855492*
X2037628Y1855599*
X2037609Y1855616*
X2037501Y1855777*
X2037494Y1855795*
X2037440Y1856063*
X2037441Y1856085*
X2037495Y1856299*
X2037501Y1856315*
X2037609Y1856475*
X2037628Y1856492*
X2037842Y1856600*
X2037855Y1856604*
X2038123Y1856657*
X2038142*
X2038410Y1856604*
X2038423Y1856600*
X2038637Y1856492*
X2038659Y1856470*
X2038766Y1856256*
X2038770Y1856246*
X2038824Y1856031*
Y1856007*
X2038932Y1854305D02*
Y1854297D01*
X2038878Y1853975*
X2038869Y1853953*
X2038708Y1853739*
X2038698Y1853729*
X2038484Y1853568*
X2038462Y1853559*
X2038141Y1853506*
X2038132Y1853505*
X2037918*
X2037890Y1853513*
X2037732Y1853619*
X2037521Y1853724*
X2037501Y1853741*
X2037394Y1853902*
X2037386Y1853923*
X2037333Y1854298*
X2037332Y1854305*
X2037333Y1854315*
X2037387Y1854583*
X2037387D02*
X2037393Y1854598D01*
X2037554Y1854866*
X2037567Y1854881*
X2037781Y1855041*
X2037803Y1855051*
X2038124Y1855104*
X2038141*
X2038462Y1855051*
X2038484Y1855041*
X2038698Y1854881*
X2038711Y1854866*
X2038872Y1854598*
X2038878Y1854583*
X2038878D02*
X2038931Y1854315D01*
X2038932Y1854305*
X2035618Y1856987D02*
X2035375D01*
X2035229Y1856743*
X2035221Y1856734*
X2034953Y1856466*
X2034946Y1856460*
X2034624Y1856245*
X2034621Y1856244*
X2034272Y1856044*
Y1855671*
X2034731Y1855901*
X2035156Y1856220*
X2035236Y1856180*
Y1853230*
X2035618*
Y1856987*
X2040800Y2259352D02*
X2040401Y2260947D01*
X2039601Y2262548*
X2038810Y2263339*
X2037223Y2263736*
X2035635Y2263339*
X2034844Y2262548*
X2034044Y2260947*
X2033645Y2259352*
X2034444Y2256157*
X2035630Y2255366*
X2037221Y2254968*
X2038410Y2255365*
X2039603Y2256160*
X2040401Y2257756*
X2040800Y2259352*
X2033315Y1854300D02*
X2033264Y1854554D01*
X2033111Y1854810*
X2032906Y1855014*
X2032592Y1855171*
X2032589Y1855258*
X2032848Y1855414*
X2033000Y1855617*
X2033103Y1855822*
X2033153Y1856020*
X2033102Y1856273*
X2032999Y1856530*
X2032848Y1856731*
X2032596Y1856883*
X2032339Y1856934*
X2031915Y1856987*
X2030522*
Y1853230*
X2032288*
X2032545Y1853281*
X2032964Y1853491*
X2033111Y1853589*
X2033212Y1853790*
X2033315Y1854047*
X2033315D02*
Y1854300D01*
X2032879Y1854466D02*
Y1854251D01*
X2032878Y1854243*
X2032825Y1853922*
X2032811Y1853894*
X2032596Y1853680*
X2032580Y1853669*
X2032580D02*
X2032312Y1853562D01*
X2032293Y1853558*
X2031007*
X2030957Y1853608*
Y1854948*
X2031007Y1854998*
X2032186*
X2032198Y1854996*
X2032412Y1854943*
X2032432Y1854933*
X2032754Y1854665*
X2032763Y1854654*
X2032870Y1854493*
X2032879Y1854466*
X2032718Y1855966D02*
Y1855805D01*
X2032710Y1855777*
X2032603Y1855616*
X2032592Y1855605*
X2032324Y1855391*
X2032305Y1855381*
X2032091Y1855328*
X2032079Y1855326*
X2031007*
X2030957Y1855376*
Y1856608*
X2031007Y1856658*
X2032079*
X2032089Y1856657*
X2032356Y1856604*
X2032382Y1856590*
X2032596Y1856376*
X2032609Y1856354*
X2032716Y1855979*
X2032718Y1855966*
X1966113Y1856987D02*
X1965870D01*
X1965724Y1856743*
X1965717Y1856734*
X1965449Y1856466*
X1965441Y1856460*
X1965120Y1856245*
X1965117Y1856244*
X1964767Y1856044*
Y1855671*
X1965226Y1855901*
X1965651Y1856220*
X1965731Y1856180*
Y1853230*
X1966113*
Y1856987*
X1964054Y1853230D02*
X1962540Y1856987D01*
X1962019*
X1960505Y1853230*
X1960986*
X1961402Y1854375*
X1961449Y1854408*
X1963110*
X1963157Y1854375*
X1963573Y1853230*
X1964054*
X1962949Y1854737D02*
X1961610D01*
X1961563Y1854805*
X1961992Y1855930*
X1962260Y1856626*
X1962354Y1856622*
X1962461Y1856249*
X1962621Y1855822*
X1962996Y1854804*
X1962949Y1854737*
X1960600Y1853230D02*
Y1853465D01*
X1960700Y1853230D02*
Y1853713D01*
X1960800Y1853230D02*
Y1853961D01*
X1960900Y1853230D02*
Y1854210D01*
X1961000Y1853269D02*
Y1854458D01*
X1961100Y1853544D02*
Y1854706D01*
X1961200Y1853819D02*
Y1854954D01*
X1961300Y1854094D02*
Y1855203D01*
X1961400Y1854369D02*
Y1855451D01*
X1961500Y1854408D02*
Y1855699D01*
X1961600Y1854408D02*
Y1854738D01*
Y1854901D02*
Y1855948D01*
X1961700Y1854408D02*
Y1854737D01*
Y1855164D02*
Y1856196D01*
X1961800Y1854408D02*
Y1854737D01*
Y1855426D02*
Y1856444D01*
X1961900Y1854408D02*
Y1854737D01*
Y1855689D02*
Y1856692D01*
X1962000Y1854408D02*
Y1854737D01*
Y1855951D02*
Y1856941D01*
X1962100Y1854408D02*
Y1854737D01*
Y1856211D02*
Y1856987D01*
X1962200Y1854408D02*
Y1854737D01*
Y1856471D02*
Y1856987D01*
X1962300Y1854408D02*
Y1854737D01*
Y1856658D02*
Y1856987D01*
X1962400Y1854408D02*
Y1854737D01*
Y1856463D02*
Y1856987D01*
X1962500Y1854408D02*
Y1854737D01*
Y1856145D02*
Y1856987D01*
X1962600Y1854408D02*
Y1854737D01*
Y1855878D02*
Y1856839D01*
X1962700Y1854408D02*
Y1854737D01*
Y1855608D02*
Y1856591D01*
X1962800Y1854408D02*
Y1854737D01*
Y1855337D02*
Y1856342D01*
X1962900Y1854408D02*
Y1854737D01*
Y1855065D02*
Y1856094D01*
X1963000Y1854408D02*
Y1855846D01*
X1963100Y1854408D02*
Y1855598D01*
X1963200Y1854257D02*
Y1855349D01*
X1963300Y1853982D02*
Y1855101D01*
X1963400Y1853707D02*
Y1854853D01*
X1963500Y1853432D02*
Y1854605D01*
X1963600Y1853230D02*
Y1854356D01*
X1963700Y1853230D02*
Y1854108D01*
X1963800Y1853230D02*
Y1853860D01*
X1963900Y1853230D02*
Y1853611D01*
X1964000Y1853230D02*
Y1853363D01*
X1964800Y1855688D02*
Y1856063D01*
X1964900Y1855738D02*
Y1856120D01*
X1965000Y1855788D02*
Y1856177D01*
X1965100Y1855838D02*
Y1856234D01*
X1965200Y1855888D02*
Y1856299D01*
X1965300Y1855956D02*
Y1856366D01*
X1965400Y1856031D02*
Y1856432D01*
X1965500Y1856106D02*
Y1856517D01*
X1965600Y1856181D02*
Y1856617D01*
X1965700Y1856226D02*
Y1856717D01*
X1965800Y1853230D02*
Y1856870D01*
X1965900Y1853230D02*
Y1856987D01*
X1966000Y1853230D02*
Y1856987D01*
X1966100Y1853230D02*
Y1856987D01*
X2030600Y1853230D02*
Y1856987D01*
X2030700Y1853230D02*
Y1856987D01*
X2030800Y1853230D02*
Y1856987D01*
X2030900Y1853230D02*
Y1856987D01*
X2031000Y1853230D02*
Y1853559D01*
Y1854997D02*
Y1855327D01*
Y1856658D02*
Y1856987D01*
X2031100Y1853230D02*
Y1853558D01*
Y1854998D02*
Y1855326D01*
Y1856658D02*
Y1856987D01*
X2031200Y1853230D02*
Y1853558D01*
Y1854998D02*
Y1855326D01*
Y1856658D02*
Y1856987D01*
X2031300Y1853230D02*
Y1853558D01*
Y1854998D02*
Y1855326D01*
Y1856658D02*
Y1856987D01*
X2031400Y1853230D02*
Y1853558D01*
Y1854998D02*
Y1855326D01*
Y1856658D02*
Y1856987D01*
X2031500Y1853230D02*
Y1853558D01*
Y1854998D02*
Y1855326D01*
Y1856658D02*
Y1856987D01*
X2031600Y1853230D02*
Y1853558D01*
Y1854998D02*
Y1855326D01*
Y1856658D02*
Y1856987D01*
X2031700Y1853230D02*
Y1853558D01*
Y1854998D02*
Y1855326D01*
Y1856658D02*
Y1856987D01*
X2031800Y1853230D02*
Y1853558D01*
Y1854998D02*
Y1855326D01*
Y1856658D02*
Y1856987D01*
X2031900Y1853230D02*
Y1853558D01*
Y1854998D02*
Y1855326D01*
Y1856658D02*
Y1856987D01*
X2032000Y1853230D02*
Y1853558D01*
Y1854998D02*
Y1855326D01*
Y1856658D02*
Y1856976D01*
X2032100Y1853230D02*
Y1853558D01*
Y1854998D02*
Y1855330D01*
Y1856655D02*
Y1856964D01*
X2032200Y1853230D02*
Y1853558D01*
Y1854996D02*
Y1855355D01*
Y1856635D02*
Y1856951D01*
X2032300Y1853232D02*
Y1853559D01*
Y1854971D02*
Y1855380D01*
Y1856615D02*
Y1856939D01*
X2032400Y1853252D02*
Y1853597D01*
Y1854946D02*
Y1855451D01*
Y1856572D02*
Y1856922D01*
X2032500Y1853272D02*
Y1853637D01*
Y1854876D02*
Y1855531D01*
Y1856472D02*
Y1856902D01*
X2032600Y1853309D02*
Y1853684D01*
Y1854793D02*
Y1855167D01*
Y1855265D02*
Y1855613D01*
Y1856372D02*
Y1856880D01*
X2032700Y1853359D02*
Y1853784D01*
Y1854709D02*
Y1855117D01*
Y1855325D02*
Y1855763D01*
Y1856036D02*
Y1856820D01*
X2032800Y1853409D02*
Y1853884D01*
Y1854599D02*
Y1855067D01*
Y1855385D02*
Y1856760D01*
X2032900Y1853459D02*
Y1855017D01*
Y1855483D02*
Y1856662D01*
X2033000Y1853515D02*
Y1854920D01*
Y1855616D02*
Y1856528D01*
X2033100Y1853581D02*
Y1854820D01*
Y1855816D02*
Y1856278D01*
X2033200Y1853766D02*
Y1854660D01*
X2033300Y1854010D02*
Y1854372D01*
X2033700Y2259132D02*
Y2259571D01*
X2033800Y2258732D02*
Y2259971D01*
X2033900Y2258332D02*
Y2260371D01*
X2034000Y2257932D02*
Y2260771D01*
X2034100Y2257532D02*
Y2261059D01*
X2034200Y2257132D02*
Y2261259D01*
X2034300Y1855686D02*
Y1856060D01*
Y2256732D02*
Y2261459D01*
X2034400Y1855736D02*
Y1856117D01*
Y2256332D02*
Y2261659D01*
X2034500Y1855786D02*
Y1856174D01*
Y2256119D02*
Y2261859D01*
X2034600Y1855836D02*
Y1856231D01*
Y2256053D02*
Y2262059D01*
X2034700Y1855886D02*
Y1856296D01*
Y2255986D02*
Y2262259D01*
X2034800Y1855953D02*
Y1856362D01*
Y2255919D02*
Y2262459D01*
X2034900Y1856028D02*
Y1856429D01*
Y2255853D02*
Y2262603D01*
X2035000Y1856103D02*
Y1856512D01*
Y2255786D02*
Y2262703D01*
X2035100Y1856178D02*
Y1856612D01*
Y2255719D02*
Y2262803D01*
X2035200Y1856228D02*
Y1856712D01*
Y2255653D02*
Y2262903D01*
X2035300Y1853230D02*
Y1856862D01*
Y2255586D02*
Y2263003D01*
X2035400Y1853230D02*
Y1856987D01*
Y2255519D02*
Y2263103D01*
X2035500Y1853230D02*
Y1856987D01*
Y2255453D02*
Y2263203D01*
X2035600Y1853230D02*
Y1856987D01*
Y2255386D02*
Y2263303D01*
X2035700Y2255348D02*
Y2263355D01*
X2035800Y2255323D02*
Y2263380D01*
X2035900Y2255298D02*
Y2263405D01*
X2036000Y2255273D02*
Y2263430D01*
X2036100Y2255248D02*
Y2263455D01*
X2036200Y2255223D02*
Y2263480D01*
X2036300Y2255198D02*
Y2263505D01*
X2036400Y2255173D02*
Y2263530D01*
X2036500Y2255148D02*
Y2263555D01*
X2036600Y2255123D02*
Y2263580D01*
X2036700Y2255098D02*
Y2263605D01*
X2036800Y2255073D02*
Y2263630D01*
X2036900Y2255048D02*
Y2263655D01*
X2037000Y1854086D02*
Y1854599D01*
Y2255023D02*
Y2263680D01*
X2037100Y1853761D02*
Y1854907D01*
Y1855864D02*
Y1856368D01*
Y2254998D02*
Y2263705D01*
X2037200Y1853586D02*
Y1855016D01*
Y1855639D02*
Y1856536D01*
Y2254973D02*
Y2263730D01*
X2037300Y1853458D02*
Y1855116D01*
Y1855529D02*
Y1856656D01*
Y2254995D02*
Y2263716D01*
X2037400Y1853395D02*
Y1853894D01*
Y1854610D02*
Y1855151D01*
Y1855445D02*
Y1856757D01*
Y2255028D02*
Y2263691D01*
X2037500Y1853333D02*
Y1853744D01*
Y1854777D02*
Y1855184D01*
Y1855385D02*
Y1855779D01*
Y1856312D02*
Y1856823D01*
Y2255061D02*
Y2263666D01*
X2037600Y1853270D02*
Y1853685D01*
Y1854906D02*
Y1855218D01*
Y1855325D02*
Y1855629D01*
Y1856463D02*
Y1856890D01*
Y2255095D02*
Y2263641D01*
X2037700Y1853225D02*
Y1853635D01*
Y1854981D02*
Y1855563D01*
Y1856528D02*
Y1856939D01*
Y2255128D02*
Y2263616D01*
X2037800Y1853214D02*
Y1853573D01*
Y1855050D02*
Y1855513D01*
Y1856578D02*
Y1856950D01*
Y2255161D02*
Y2263591D01*
X2037900Y1853202D02*
Y1853508D01*
Y1855067D02*
Y1855479D01*
Y1856613D02*
Y1856961D01*
Y2255195D02*
Y2263566D01*
X2038000Y1853191D02*
Y1853505D01*
Y1855083D02*
Y1855459D01*
Y1856633D02*
Y1856972D01*
Y2255228D02*
Y2263541D01*
X2038100Y1853180D02*
Y1853505D01*
Y1855100D02*
Y1855439D01*
Y1856653D02*
Y1856983D01*
Y2255261D02*
Y2263516D01*
X2038200Y1853184D02*
Y1853515D01*
Y1855094D02*
Y1855446D01*
Y1856646D02*
Y1856979D01*
Y2255295D02*
Y2263491D01*
X2038300Y1853195D02*
Y1853532D01*
Y1855078D02*
Y1855466D01*
Y1856626D02*
Y1856968D01*
Y2255328D02*
Y2263466D01*
X2038400Y1853206D02*
Y1853549D01*
Y1855061D02*
Y1855486D01*
Y1856606D02*
Y1856957D01*
Y2255361D02*
Y2263441D01*
X2038500Y1853217D02*
Y1853581D01*
Y1855029D02*
Y1855531D01*
Y1856561D02*
Y1856946D01*
Y2255425D02*
Y2263416D01*
X2038600Y1853230D02*
Y1853656D01*
Y1854954D02*
Y1855581D01*
Y1856511D02*
Y1856933D01*
Y2255491D02*
Y2263391D01*
X2038700Y1853292D02*
Y1853731D01*
Y1854879D02*
Y1855197D01*
Y1855347D02*
Y1855682D01*
Y1856389D02*
Y1856866D01*
Y2255558D02*
Y2263366D01*
X2038800Y1853355D02*
Y1853862D01*
Y1854718D02*
Y1855147D01*
Y1855407D02*
Y1855912D01*
Y1856126D02*
Y1856800D01*
Y2255625D02*
Y2263341D01*
X2038900Y1853417D02*
Y1854107D01*
Y1854472D02*
Y1855097D01*
Y1855467D02*
Y1856733D01*
Y2255691D02*
Y2263249D01*
X2039000Y1853480D02*
Y1855027D01*
Y1855565D02*
Y1856614D01*
Y2255758D02*
Y2263149D01*
X2039100Y1853648D02*
Y1854927D01*
Y1855709D02*
Y1856494D01*
Y2255825D02*
Y2263049D01*
X2039200Y1853823D02*
Y1854769D01*
Y1855996D02*
Y1856075D01*
Y2255891D02*
Y2262949D01*
X2039300Y1854245D02*
Y1854388D01*
Y2255958D02*
Y2262849D01*
X2039400Y2256025D02*
Y2262749D01*
X2039500Y2256091D02*
Y2262649D01*
X2039600Y2256158D02*
Y2262549D01*
X2039700Y2256354D02*
Y2262349D01*
X2039800Y2256554D02*
Y2262149D01*
X2039900Y2256754D02*
Y2261949D01*
X2040000Y2256954D02*
Y2261749D01*
X2040100Y2257154D02*
Y2261549D01*
X2040200Y2257354D02*
Y2261349D01*
X2040300Y2257554D02*
Y2261149D01*
X2040400Y2257754D02*
Y2260949D01*
X2040500Y2258151D02*
Y2260552D01*
X2040600Y2258551D02*
Y2260152D01*
X2040700Y2258951D02*
Y2259752D01*
X2040800Y2259351D02*
Y2259352D01*
*
G04 PC Custom Flashes*
G04 Layer Name uMuddMarkVLayout.pcb - flashes*
%LPD*%
*
*
G04 PC Circuitry*
G04 Layer Name uMuddMarkVLayout.pcb - circuitry*
%LPD*%
*
G54D10*
G54D27*
X1983272Y1877763D02*
Y1903354D01*
X2016737*
Y1877763*
X1983272*
X1956100Y2335500D02*
X1948100D01*
Y2326500*
X1956100*
X1959100Y2335500D02*
X1967100D01*
Y2326500*
X1959100*
X2075500Y2198300D02*
Y2190300D01*
X2084500*
Y2198300*
X2075500Y2201300D02*
Y2209300D01*
X2084500*
Y2201300*
X2075500Y2168300D02*
Y2160300D01*
X2084500*
Y2168300*
X2075500Y2171300D02*
Y2179300D01*
X2084500*
Y2171300*
X2076200Y2261600D02*
Y2253600D01*
X2085200*
Y2261600*
X2076200Y2264600D02*
Y2272600D01*
X2085200*
Y2264600*
X2076200Y2231600D02*
Y2223600D01*
X2085200*
Y2231600*
X2076200Y2234600D02*
Y2242600D01*
X2085200*
Y2234600*
X2013300Y2355500D02*
X2005300D01*
Y2346500*
X2013300*
X2016300Y2355500D02*
X2024300D01*
Y2346500*
X2016300*
X2066300Y2372950D02*
Y2369200D01*
X2041300*
Y2372950*
Y2400450D02*
Y2404200D01*
X2066300*
Y2400450*
X2065600Y2423550D02*
Y2419800D01*
X2040600*
Y2423550*
Y2451050D02*
Y2454800D01*
X2065600*
Y2451050*
X2041700Y2012600D02*
X2033700D01*
Y2003600*
X2041700*
X2044700Y2012600D02*
X2052700D01*
Y2003600*
X2044700*
X1945500Y2127200D02*
X1993500D01*
Y2165200*
X1945500*
Y2151200*
X1949500*
Y2143200*
X1945500*
Y2127200*
X1984700Y2355100D02*
X1976700D01*
Y2346100*
X1984700*
X1987700Y2355100D02*
X1995700D01*
Y2346100*
X1987700*
X2026000Y1961500D02*
X2018000D01*
Y1952500*
X2026000*
X2029000Y1961500D02*
X2037000D01*
Y1952500*
X2029000*
X2026400Y1942600D02*
X2018400D01*
Y1933600*
X2026400*
X2029400Y1942600D02*
X2037400D01*
Y1933600*
X2029400*
X2017200Y1993700D02*
X2009200D01*
Y1984700*
X2017200*
X2020200Y1993700D02*
X2028200D01*
Y1984700*
X2020200*
X2013400Y2335600D02*
X2005400D01*
Y2326600*
X2013400*
X2016400Y2335600D02*
X2024400D01*
Y2326600*
X2016400*
X2009400Y2449700D02*
X2001400D01*
Y2440700*
X2009400*
X2012400Y2449700D02*
X2020400D01*
Y2440700*
X2012400*
X2009400Y2419700D02*
X2001400D01*
Y2410700*
X2009400*
X2012400Y2419700D02*
X2020400D01*
Y2410700*
X2012400*
X2009400Y2389700D02*
X2001400D01*
Y2380700*
X2009400*
X2012400Y2389700D02*
X2020400D01*
Y2380700*
X2012400*
X2001700Y2012600D02*
X1993700D01*
Y2003600*
X2001700*
X2004700Y2012600D02*
X2012700D01*
Y2003600*
X2004700*
X1956000Y2355400D02*
X1948000D01*
Y2346400*
X1956000*
X1959000Y2355400D02*
X1967000D01*
Y2346400*
X1959000*
X1984800Y2335200D02*
X1976800D01*
Y2326200*
X1984800*
X1987800Y2335200D02*
X1995800D01*
Y2326200*
X1987800*
X2086400Y2130500D02*
X2049400D01*
X2046400Y2127500*
Y2030500*
X2086400*
Y2130500*
X1977200Y1993700D02*
X1969200D01*
Y1984700*
X1977200*
X1980200Y1993700D02*
X1988200D01*
Y1984700*
X1980200*
X1986400Y2424450D02*
Y2420700D01*
X1961400*
Y2424450*
Y2451950D02*
Y2455700D01*
X1986400*
Y2451950*
X1948772Y2375763D02*
Y2401354D01*
X1982237*
Y2375763*
X1948772*
X2032201Y2167646D02*
X2037713D01*
Y2166440*
X2039287*
Y2167646*
X2044799*
Y2148354*
X2032201*
Y2167646*
X2033600Y2134900D02*
Y2034900D01*
X2023600*
Y2134900*
X2033600*
X2016400Y2134800D02*
Y2034800D01*
X2006400*
Y2134800*
X2016400*
X1953800Y2343563D02*
Y2337000D01*
Y2343563D02*
X1955845D01*
X1955845D02*
X1956527Y2343250D01*
X1956755Y2342938*
X1956755D02*
X1956982Y2342313D01*
X1956982D02*
Y2341688D01*
X1956982D02*
X1956755Y2341063D01*
X1956755D02*
X1956527Y2340750D01*
X1955845Y2340438*
X1955845D02*
X1953800D01*
X1955391D02*
X1956982Y2337000D01*
X1961300Y2343563D02*
X1959027Y2339188D01*
X1959027D02*
X1962436D01*
X1961300Y2343563D02*
Y2337000D01*
X2067800Y2199809D02*
X2067175Y2199582D01*
X2066550Y2199127*
X2066237Y2198673*
X2066237D02*
Y2197764D01*
X2066237D02*
X2066550Y2197309D01*
X2067175Y2196855*
X2067800Y2196627*
X2068737Y2196400*
X2068737D02*
X2070300D01*
X2071237Y2196627*
X2071237D02*
X2071862Y2196855D01*
X2071862D02*
X2072487Y2197309D01*
X2072487D02*
X2072800Y2197764D01*
Y2198673*
X2072487Y2199127*
X2072487D02*
X2071862Y2199582D01*
X2071862D02*
X2071237Y2199809D01*
X2067175Y2204582D02*
X2066550Y2204355D01*
X2066237Y2203673*
X2066237D02*
Y2203218D01*
X2066237D02*
X2066550Y2202536D01*
X2067487Y2202082*
X2067487D02*
X2069050Y2201855D01*
X2070612*
X2070612D02*
X2071862Y2202082D01*
X2071862D02*
X2072487Y2202536D01*
X2072487D02*
X2072800Y2203218D01*
Y2203445*
X2072487Y2204127*
X2072487D02*
X2071862Y2204582D01*
X2071862D02*
X2070925Y2204809D01*
X2070612*
X2070612D02*
X2069675Y2204582D01*
X2069050Y2204127*
X2068737Y2203445*
X2068737D02*
Y2203218D01*
X2068737D02*
X2069050Y2202536D01*
X2069675Y2202082*
X2070612Y2201855*
X2068000Y2170209D02*
X2067375Y2169982D01*
X2066750Y2169527*
X2066437Y2169073*
X2066437D02*
Y2168164D01*
X2066437D02*
X2066750Y2167709D01*
X2067375Y2167255*
X2068000Y2167027*
X2068937Y2166800*
X2068937D02*
X2070500D01*
X2071437Y2167027*
X2071437D02*
X2072062Y2167255D01*
X2072062D02*
X2072687Y2167709D01*
X2072687D02*
X2073000Y2168164D01*
Y2169073*
X2072687Y2169527*
X2072687D02*
X2072062Y2169982D01*
X2072062D02*
X2071437Y2170209D01*
X2066437Y2175436D02*
X2073000Y2173164D01*
X2066437Y2172255D02*
Y2175436D01*
X2068600Y2261509D02*
X2067975Y2261282D01*
X2067350Y2260827*
X2067037Y2260373*
X2067037D02*
Y2259464D01*
X2067037D02*
X2067350Y2259009D01*
X2067975Y2258555*
X2068600Y2258327*
X2069537Y2258100*
X2069537D02*
X2071100D01*
X2072037Y2258327*
X2072037D02*
X2072662Y2258555D01*
X2072662D02*
X2073287Y2259009D01*
X2073287D02*
X2073600Y2259464D01*
Y2260373*
X2073287Y2260827*
X2073287D02*
X2072662Y2261282D01*
X2072662D02*
X2072037Y2261509D01*
X2067037Y2265827D02*
X2071412Y2263555D01*
X2071412D02*
Y2266964D01*
X2067037Y2265827D02*
X2073600D01*
X2068100Y2232909D02*
X2067475Y2232682D01*
X2066850Y2232227*
X2066537Y2231773*
X2066537D02*
Y2230864D01*
X2066537D02*
X2066850Y2230409D01*
X2067475Y2229955*
X2068100Y2229727*
X2069037Y2229500*
X2069037D02*
X2070600D01*
X2071537Y2229727*
X2071537D02*
X2072162Y2229955D01*
X2072162D02*
X2072787Y2230409D01*
X2072787D02*
X2073100Y2230864D01*
Y2231773*
X2072787Y2232227*
X2072787D02*
X2072162Y2232682D01*
X2072162D02*
X2071537Y2232909D01*
X2066537Y2237909D02*
Y2235636D01*
X2066537D02*
X2069350Y2235409D01*
X2069037Y2235636*
X2069037D02*
X2068725Y2236318D01*
Y2237000*
X2069037Y2237682*
X2069037D02*
X2069662Y2238136D01*
X2069662D02*
X2070600Y2238364D01*
X2071225Y2238136*
X2072162Y2237909*
X2072162D02*
X2072787Y2237455D01*
X2072787D02*
X2073100Y2236773D01*
Y2236091*
X2072787Y2235409*
X2072787D02*
X2072475Y2235182D01*
X2071850Y2234955*
X2034837Y1882373D02*
X2039837D01*
X2039837D02*
X2040775Y1882145D01*
X2041087Y1881918*
X2041087D02*
X2041400Y1881464D01*
Y1881009*
X2041087Y1880555*
X2041087D02*
X2040775Y1880327D01*
X2039837Y1880100*
X2039837D02*
X2039212D01*
X2034837Y1886009D02*
X2041400D01*
X2034837Y1884418D02*
Y1887600D01*
Y1891464D02*
X2041400Y1889645D01*
X2034837Y1891464D02*
X2041400Y1893282D01*
X2039212Y1890327D02*
Y1892600D01*
X2036400Y1898736D02*
X2035775Y1898509D01*
X2035150Y1898055*
X2034837Y1897600*
X2034837D02*
Y1896691D01*
X2034837D02*
X2035150Y1896236D01*
X2035775Y1895782*
X2036400Y1895555*
X2037337Y1895327*
X2037337D02*
X2038900D01*
X2039837Y1895555*
X2039837D02*
X2040462Y1895782D01*
X2040462D02*
X2041087Y1896236D01*
X2041087D02*
X2041400Y1896691D01*
Y1897600*
X2041087Y1898055*
X2041087D02*
X2040462Y1898509D01*
X2040462D02*
X2039837Y1898736D01*
X2039837D02*
X2038900D01*
Y1897600D02*
Y1898736D01*
X2035775Y1903964D02*
X2035150Y1903509D01*
X2034837Y1902827*
X2034837D02*
Y1901918D01*
X2034837D02*
X2035150Y1901236D01*
X2035775Y1900782*
X2036400*
X2037025Y1901009*
X2037337Y1901236*
X2037337D02*
X2037650Y1901691D01*
X2038275Y1903055*
X2038587Y1903509*
X2038587D02*
X2038900Y1903736D01*
X2039525Y1903964*
X2040462*
X2040462D02*
X2041087Y1903509D01*
X2041087D02*
X2041400Y1902827D01*
Y1901918*
X2041087Y1901236*
X2041087D02*
X2040462Y1900782D01*
X2034837Y1907827D02*
X2041400Y1906009D01*
X2034837Y1907827D02*
X2041400Y1909645D01*
X2039212Y1906691D02*
Y1908964D01*
X2034837Y1911691D02*
X2041400D01*
X2034837D02*
X2041400Y1913509D01*
X2034837Y1915327D02*
X2041400Y1913509D01*
X2034837Y1915327D02*
X2041400D01*
X2010600Y2363863D02*
Y2357300D01*
Y2363863D02*
X2012645D01*
X2012645D02*
X2013327Y2363550D01*
X2013555Y2363238*
X2013555D02*
X2013782Y2362613D01*
X2013782D02*
Y2361988D01*
X2013782D02*
X2013555Y2361363D01*
X2013555D02*
X2013327Y2361050D01*
X2012645Y2360738*
X2012645D02*
X2010600D01*
X2012191D02*
X2013782Y2357300D01*
X2016282Y2363863D02*
X2018782D01*
X2018782D02*
X2017418Y2361363D01*
X2017418D02*
X2018100D01*
X2018100D02*
X2018555Y2361050D01*
X2018782Y2360738*
X2018782D02*
X2019009Y2359800D01*
Y2359175*
X2018782Y2358238*
X2018782D02*
X2018327Y2357613D01*
X2018327D02*
X2017645Y2357300D01*
X2016964*
X2016282Y2357613*
X2016282D02*
X2016055Y2357925D01*
X2015827Y2358550*
X2029237Y2302173D02*
X2034237D01*
X2034237D02*
X2035175Y2301945D01*
X2035487Y2301718*
X2035487D02*
X2035800Y2301264D01*
Y2300809*
X2035487Y2300355*
X2035487D02*
X2035175Y2300127D01*
X2034237Y2299900*
X2034237D02*
X2033612D01*
X2029237Y2305809D02*
X2035800D01*
X2029237Y2304218D02*
Y2307400D01*
Y2311264D02*
X2035800Y2309445D01*
X2029237Y2311264D02*
X2035800Y2313082D01*
X2033612Y2310127D02*
Y2312400D01*
X2030800Y2318536D02*
X2030175Y2318309D01*
X2029550Y2317855*
X2029237Y2317400*
X2029237D02*
Y2316491D01*
X2029237D02*
X2029550Y2316036D01*
X2030175Y2315582*
X2030800Y2315355*
X2031737Y2315127*
X2031737D02*
X2033300D01*
X2034237Y2315355*
X2034237D02*
X2034862Y2315582D01*
X2034862D02*
X2035487Y2316036D01*
X2035487D02*
X2035800Y2316491D01*
Y2317400*
X2035487Y2317855*
X2035487D02*
X2034862Y2318309D01*
X2034862D02*
X2034237Y2318536D01*
X2034237D02*
X2033300D01*
Y2317400D02*
Y2318536D01*
X2029237Y2320582D02*
X2035800D01*
X2029237D02*
Y2323536D01*
X2032362Y2320582D02*
Y2322400D01*
X2029237Y2325582D02*
X2035800D01*
X2029237D02*
Y2327627D01*
X2029237D02*
X2029550Y2328309D01*
X2029862Y2328536*
X2029862D02*
X2030487Y2328764D01*
X2030487D02*
X2031425D01*
X2032050Y2328536*
X2032362Y2328309*
X2032362D02*
X2032675Y2327627D01*
Y2325582*
X2030800Y2334218D02*
X2030175Y2333991D01*
X2029550Y2333536*
X2029237Y2333082*
X2029237D02*
Y2332173D01*
X2029237D02*
X2029550Y2331718D01*
X2030175Y2331264*
X2030800Y2331036*
X2031737Y2330809*
X2031737D02*
X2033300D01*
X2034237Y2331036*
X2034237D02*
X2034862Y2331264D01*
X2034862D02*
X2035487Y2331718D01*
X2035487D02*
X2035800Y2332173D01*
Y2333082*
X2035487Y2333536*
X2035487D02*
X2034862Y2333991D01*
X2034862D02*
X2034237Y2334218D01*
X2034237D02*
X2033300D01*
Y2333082D02*
Y2334218D01*
X2029237Y2338082D02*
X2035800Y2336264D01*
X2029237Y2338082D02*
X2035800Y2339900D01*
X2033612Y2336945D02*
Y2339218D01*
X2058009Y2010400D02*
X2057782Y2011025D01*
X2057327Y2011650*
X2056873Y2011963*
X2056873D02*
X2055964D01*
X2055964D02*
X2055509Y2011650D01*
X2055055Y2011025*
X2054827Y2010400*
X2054600Y2009463*
X2054600D02*
Y2007900D01*
X2054827Y2006963*
X2054827D02*
X2055055Y2006338D01*
X2055055D02*
X2055509Y2005713D01*
X2055509D02*
X2055964Y2005400D01*
X2056873*
X2057327Y2005713*
X2057327D02*
X2057782Y2006338D01*
X2057782D02*
X2058009Y2006963D01*
X2061191Y2011963D02*
X2060509Y2011650D01*
X2060282Y2011025*
Y2010400*
X2060509Y2009775*
X2060964Y2009463*
X2060964D02*
X2061873Y2009150D01*
X2062555Y2008838*
X2062555D02*
X2063009Y2008213D01*
X2063009D02*
X2063236Y2007588D01*
X2063236D02*
Y2006650D01*
X2063009Y2006025*
X2062782Y2005713*
X2062782D02*
X2062100Y2005400D01*
X2061191*
X2060509Y2005713*
X2060509D02*
X2060282Y2006025D01*
X2060055Y2006650*
Y2007588*
X2060055D02*
X2060282Y2008213D01*
X2060282D02*
X2060736Y2008838D01*
X2060736D02*
X2061418Y2009150D01*
X2062327Y2009463*
X2062327D02*
X2062782Y2009775D01*
X2063009Y2010400*
Y2011025*
X2062782Y2011650*
X2062100Y2011963*
X2062100D02*
X2061191D01*
X1981700Y2083062D02*
Y2076500D01*
Y2083062D02*
X1983745D01*
X1983745D02*
X1984427Y2082750D01*
X1984655Y2082437*
X1984655D02*
X1984882Y2081812D01*
X1984882D02*
Y2081187D01*
X1984882D02*
X1984655Y2080562D01*
X1984655D02*
X1984427Y2080250D01*
X1983745Y2079937*
X1983745D02*
X1981700D01*
X1983291D02*
X1984882Y2076500D01*
X1990109Y2083062D02*
X1987836Y2076500D01*
X1986927Y2083062D02*
X1990109D01*
X1982100Y2364063D02*
Y2357500D01*
Y2364063D02*
X1984145D01*
X1984145D02*
X1984827Y2363750D01*
X1985055Y2363438*
X1985055D02*
X1985282Y2362813D01*
X1985282D02*
Y2362188D01*
X1985282D02*
X1985055Y2361563D01*
X1985055D02*
X1984827Y2361250D01*
X1984145Y2360938*
X1984145D02*
X1982100D01*
X1983691D02*
X1985282Y2357500D01*
X1987555Y2362500D02*
Y2362813D01*
X1987555D02*
X1987782Y2363438D01*
X1987782D02*
X1988009Y2363750D01*
X1988464Y2364063*
X1988464D02*
X1989373D01*
X1989373D02*
X1989827Y2363750D01*
X1990055Y2363438*
X1990055D02*
X1990282Y2362813D01*
X1990282D02*
Y2362188D01*
X1990282D02*
X1990055Y2361563D01*
X1990055D02*
X1989600Y2360625D01*
X1987327Y2357500*
X1990509*
X2026209Y1968300D02*
X2025982Y1968925D01*
X2025527Y1969550*
X2025073Y1969863*
X2025073D02*
X2024164D01*
X2024164D02*
X2023709Y1969550D01*
X2023255Y1968925*
X2023027Y1968300*
X2022800Y1967363*
X2022800D02*
Y1965800D01*
X2023027Y1964863*
X2023027D02*
X2023255Y1964238D01*
X2023255D02*
X2023709Y1963613D01*
X2023709D02*
X2024164Y1963300D01*
X2025073*
X2025527Y1963613*
X2025527D02*
X2025982Y1964238D01*
X2025982D02*
X2026209Y1964863D01*
X2028255Y1968613D02*
X2028709Y1968925D01*
X2029391Y1969863*
X2029391D02*
Y1963300D01*
X2031664Y1968300D02*
Y1968613D01*
X2031664D02*
X2031891Y1969238D01*
X2031891D02*
X2032118Y1969550D01*
X2032573Y1969863*
X2032573D02*
X2033482D01*
X2033482D02*
X2033936Y1969550D01*
X2034164Y1969238*
X2034164D02*
X2034391Y1968613D01*
X2034391D02*
Y1967988D01*
X2034391D02*
X2034164Y1967363D01*
X2034164D02*
X2033709Y1966425D01*
X2031436Y1963300*
X2034618*
X2026409Y1949200D02*
X2026182Y1949825D01*
X2025727Y1950450*
X2025273Y1950763*
X2025273D02*
X2024364D01*
X2024364D02*
X2023909Y1950450D01*
X2023455Y1949825*
X2023227Y1949200*
X2023000Y1948263*
X2023000D02*
Y1946700D01*
X2023227Y1945763*
X2023227D02*
X2023455Y1945138D01*
X2023455D02*
X2023909Y1944513D01*
X2023909D02*
X2024364Y1944200D01*
X2025273*
X2025727Y1944513*
X2025727D02*
X2026182Y1945138D01*
X2026182D02*
X2026409Y1945763D01*
X2028455Y1949513D02*
X2028909Y1949825D01*
X2029591Y1950763*
X2029591D02*
Y1944200D01*
X2032091Y1950763D02*
X2034591D01*
X2034591D02*
X2033227Y1948263D01*
X2033227D02*
X2033909D01*
X2033909D02*
X2034364Y1947950D01*
X2034591Y1947638*
X2034591D02*
X2034818Y1946700D01*
Y1946075*
X2034591Y1945138*
X2034591D02*
X2034136Y1944513D01*
X2034136D02*
X2033455Y1944200D01*
X2032773*
X2032091Y1944513*
X2032091D02*
X2031864Y1944825D01*
X2031636Y1945450*
X2034209Y1991600D02*
X2033982Y1992225D01*
X2033527Y1992850*
X2033073Y1993163*
X2033073D02*
X2032164D01*
X2032164D02*
X2031709Y1992850D01*
X2031255Y1992225*
X2031027Y1991600*
X2030800Y1990663*
X2030800D02*
Y1989100D01*
X2031027Y1988163*
X2031027D02*
X2031255Y1987538D01*
X2031255D02*
X2031709Y1986913D01*
X2031709D02*
X2032164Y1986600D01*
X2033073*
X2033527Y1986913*
X2033527D02*
X2033982Y1987538D01*
X2033982D02*
X2034209Y1988163D01*
X2036255Y1991913D02*
X2036709Y1992225D01*
X2037391Y1993163*
X2037391D02*
Y1986600D01*
X2039436Y1991913D02*
X2039891Y1992225D01*
X2040573Y1993163*
X2040573D02*
Y1986600D01*
X2009800Y2344263D02*
Y2337700D01*
Y2344263D02*
X2011845D01*
X2011845D02*
X2012527Y2343950D01*
X2012755Y2343638*
X2012755D02*
X2012982Y2343013D01*
X2012982D02*
Y2342388D01*
X2012982D02*
X2012755Y2341763D01*
X2012755D02*
X2012527Y2341450D01*
X2011845Y2341138*
X2011845D02*
X2009800D01*
X2011391D02*
X2012982Y2337700D01*
X2017755Y2343325D02*
X2017527Y2343950D01*
X2016845Y2344263*
X2016845D02*
X2016391D01*
X2016391D02*
X2015709Y2343950D01*
X2015255Y2343013*
X2015255D02*
X2015027Y2341450D01*
Y2339888*
X2015027D02*
X2015255Y2338638D01*
X2015255D02*
X2015709Y2338013D01*
X2015709D02*
X2016391Y2337700D01*
X2016618*
X2017300Y2338013*
X2017300D02*
X2017755Y2338638D01*
X2017755D02*
X2017982Y2339575D01*
Y2339888*
X2017982D02*
X2017755Y2340825D01*
X2017300Y2341450*
X2016618Y2341763*
X2016618D02*
X2016391D01*
X2016391D02*
X2015709Y2341450D01*
X2015255Y2340825*
X2015027Y2339888*
X2009909Y2457200D02*
X2009682Y2457825D01*
X2009227Y2458450*
X2008773Y2458763*
X2008773D02*
X2007864D01*
X2007864D02*
X2007409Y2458450D01*
X2006955Y2457825*
X2006727Y2457200*
X2006500Y2456263*
X2006500D02*
Y2454700D01*
X2006727Y2453763*
X2006727D02*
X2006955Y2453138D01*
X2006955D02*
X2007409Y2452513D01*
X2007409D02*
X2007864Y2452200D01*
X2008773*
X2009227Y2452513*
X2009227D02*
X2009682Y2453138D01*
X2009682D02*
X2009909Y2453763D01*
X2011955Y2457513D02*
X2012409Y2457825D01*
X2013091Y2458763*
X2013091D02*
Y2452200D01*
X2009209Y2426800D02*
X2008982Y2427425D01*
X2008527Y2428050*
X2008073Y2428363*
X2008073D02*
X2007164D01*
X2007164D02*
X2006709Y2428050D01*
X2006255Y2427425*
X2006027Y2426800*
X2005800Y2425863*
X2005800D02*
Y2424300D01*
X2006027Y2423363*
X2006027D02*
X2006255Y2422738D01*
X2006255D02*
X2006709Y2422113D01*
X2006709D02*
X2007164Y2421800D01*
X2008073*
X2008527Y2422113*
X2008527D02*
X2008982Y2422738D01*
X2008982D02*
X2009209Y2423363D01*
X2011482Y2426800D02*
Y2427113D01*
X2011482D02*
X2011709Y2427738D01*
X2011709D02*
X2011936Y2428050D01*
X2012391Y2428363*
X2012391D02*
X2013300D01*
X2013300D02*
X2013755Y2428050D01*
X2013982Y2427738*
X2013982D02*
X2014209Y2427113D01*
X2014209D02*
Y2426488D01*
X2014209D02*
X2013982Y2425863D01*
X2013982D02*
X2013527Y2424925D01*
X2011255Y2421800*
X2014436*
X2009009Y2397500D02*
X2008782Y2398125D01*
X2008327Y2398750*
X2007873Y2399063*
X2007873D02*
X2006964D01*
X2006964D02*
X2006509Y2398750D01*
X2006055Y2398125*
X2005827Y2397500*
X2005600Y2396563*
X2005600D02*
Y2395000D01*
X2005827Y2394063*
X2005827D02*
X2006055Y2393438D01*
X2006055D02*
X2006509Y2392813D01*
X2006509D02*
X2006964Y2392500D01*
X2007873*
X2008327Y2392813*
X2008327D02*
X2008782Y2393438D01*
X2008782D02*
X2009009Y2394063D01*
X2011509Y2399063D02*
X2014009D01*
X2014009D02*
X2012645Y2396563D01*
X2012645D02*
X2013327D01*
X2013327D02*
X2013782Y2396250D01*
X2014009Y2395938*
X2014009D02*
X2014236Y2395000D01*
Y2394375*
X2014009Y2393438*
X2014009D02*
X2013555Y2392813D01*
X2013555D02*
X2012873Y2392500D01*
X2012191*
X2011509Y2392813*
X2011509D02*
X2011282Y2393125D01*
X2011055Y2393750*
X2018209Y2010000D02*
X2017982Y2010625D01*
X2017527Y2011250*
X2017073Y2011563*
X2017073D02*
X2016164D01*
X2016164D02*
X2015709Y2011250D01*
X2015255Y2010625*
X2015027Y2010000*
X2014800Y2009063*
X2014800D02*
Y2007500D01*
X2015027Y2006563*
X2015027D02*
X2015255Y2005938D01*
X2015255D02*
X2015709Y2005313D01*
X2015709D02*
X2016164Y2005000D01*
X2017073*
X2017527Y2005313*
X2017527D02*
X2017982Y2005938D01*
X2017982D02*
X2018209Y2006563D01*
X2023209Y2009375D02*
X2022982Y2008438D01*
X2022982D02*
X2022527Y2007813D01*
X2022527D02*
X2021845Y2007500D01*
X2021618*
X2020936Y2007813*
X2020936D02*
X2020482Y2008438D01*
X2020482D02*
X2020255Y2009375D01*
Y2009688*
X2020255D02*
X2020482Y2010625D01*
X2020936Y2011250*
X2021618Y2011563*
X2021618D02*
X2021845D01*
X2021845D02*
X2022527Y2011250D01*
X2022982Y2010625*
X2023209Y2009375*
Y2007813*
X2023209D02*
X2022982Y2006250D01*
X2022527Y2005313*
X2022527D02*
X2021845Y2005000D01*
X2021391*
X2020709Y2005313*
X2020709D02*
X2020482Y2005938D01*
X1954600Y2364463D02*
Y2357900D01*
Y2364463D02*
X1956645D01*
X1956645D02*
X1957327Y2364150D01*
X1957555Y2363838*
X1957555D02*
X1957782Y2363213D01*
X1957782D02*
Y2362588D01*
X1957782D02*
X1957555Y2361963D01*
X1957555D02*
X1957327Y2361650D01*
X1956645Y2361338*
X1956645D02*
X1954600D01*
X1956191D02*
X1957782Y2357900D01*
X1959827Y2363213D02*
X1960282Y2363525D01*
X1960964Y2364463*
X1960964D02*
Y2357900D01*
X1982200Y2343063D02*
Y2336500D01*
Y2343063D02*
X1984245D01*
X1984245D02*
X1984927Y2342750D01*
X1985155Y2342438*
X1985155D02*
X1985382Y2341813D01*
X1985382D02*
Y2341188D01*
X1985382D02*
X1985155Y2340563D01*
X1985155D02*
X1984927Y2340250D01*
X1984245Y2339938*
X1984245D02*
X1982200D01*
X1983791D02*
X1985382Y2336500D01*
X1990382Y2343063D02*
X1988109D01*
X1988109D02*
X1987882Y2340250D01*
X1988109Y2340563*
X1988109D02*
X1988791Y2340875D01*
X1989473*
X1990155Y2340563*
X1990155D02*
X1990609Y2339938D01*
X1990609D02*
X1990836Y2339000D01*
X1990609Y2338375*
X1990382Y2337438*
X1990382D02*
X1989927Y2336813D01*
X1989927D02*
X1989245Y2336500D01*
X1988564*
X1987882Y2336813*
X1987882D02*
X1987655Y2337125D01*
X1987427Y2337750*
X1994209Y1991400D02*
X1993982Y1992025D01*
X1993527Y1992650*
X1993073Y1992963*
X1993073D02*
X1992164D01*
X1992164D02*
X1991709Y1992650D01*
X1991255Y1992025*
X1991027Y1991400*
X1990800Y1990463*
X1990800D02*
Y1988900D01*
X1991027Y1987963*
X1991027D02*
X1991255Y1987338D01*
X1991255D02*
X1991709Y1986713D01*
X1991709D02*
X1992164Y1986400D01*
X1993073*
X1993527Y1986713*
X1993527D02*
X1993982Y1987338D01*
X1993982D02*
X1994209Y1987963D01*
X1996255Y1991713D02*
X1996709Y1992025D01*
X1997391Y1992963*
X1997391D02*
Y1986400D01*
X2000800Y1992963D02*
X2000118Y1992650D01*
X1999664Y1991713*
X1999664D02*
X1999436Y1990150D01*
Y1989213*
X1999436D02*
X1999664Y1987650D01*
X2000118Y1986713*
X2000118D02*
X2000800Y1986400D01*
X2001255*
X2001936Y1986713*
X2001936D02*
X2002391Y1987650D01*
X2002618Y1989213*
X2002618D02*
Y1990150D01*
X2002391Y1991713*
X2002391D02*
X2001936Y1992650D01*
X2001255Y1992963*
X2001255D02*
X2000800D01*
X2031663Y2031500D02*
X2025100D01*
X2031663D02*
Y2029455D01*
X2031663D02*
X2031350Y2028773D01*
X2031038Y2028545*
X2031038D02*
X2030413Y2028318D01*
X2030413D02*
X2029788D01*
X2029788D02*
X2029163Y2028545D01*
X2029163D02*
X2028850Y2028773D01*
X2028538Y2029455*
X2028538D02*
Y2031500D01*
Y2029909D02*
X2025100Y2028318D01*
X2031663Y2025136D02*
X2031350Y2025818D01*
X2030725Y2026045*
X2030100*
X2029475Y2025818*
X2029163Y2025364*
X2029163D02*
X2028850Y2024455D01*
X2028538Y2023773*
X2028538D02*
X2027913Y2023318D01*
X2027913D02*
X2027288Y2023091D01*
X2027288D02*
X2026350D01*
X2025725Y2023318*
X2025413Y2023545*
X2025413D02*
X2025100Y2024227D01*
Y2025136*
X2025413Y2025818*
X2025413D02*
X2025725Y2026045D01*
X2026350Y2026273*
X2027288*
X2027288D02*
X2027913Y2026045D01*
X2027913D02*
X2028538Y2025591D01*
X2028538D02*
X2028850Y2024909D01*
X2029163Y2024000*
X2029163D02*
X2029475Y2023545D01*
X2030100Y2023318*
X2030725*
X2031350Y2023545*
X2031663Y2024227*
X2031663D02*
Y2025136D01*
X2014663Y2031400D02*
X2008100D01*
X2014663D02*
Y2029355D01*
X2014663D02*
X2014350Y2028673D01*
X2014038Y2028445*
X2014038D02*
X2013413Y2028218D01*
X2013413D02*
X2012788D01*
X2012788D02*
X2012163Y2028445D01*
X2012163D02*
X2011850Y2028673D01*
X2011538Y2029355*
X2011538D02*
Y2031400D01*
Y2029809D02*
X2008100Y2028218D01*
X2012475Y2023218D02*
X2011538Y2023445D01*
X2011538D02*
X2010913Y2023900D01*
X2010913D02*
X2010600Y2024582D01*
Y2024809*
X2010913Y2025491*
X2010913D02*
X2011538Y2025945D01*
X2011538D02*
X2012475Y2026173D01*
X2012788*
X2012788D02*
X2013725Y2025945D01*
X2014350Y2025491*
X2014663Y2024809*
X2014663D02*
Y2024582D01*
X2014663D02*
X2014350Y2023900D01*
X2013725Y2023445*
X2012475Y2023218*
X2010913*
X2010913D02*
X2009350Y2023445D01*
X2008413Y2023900*
X2008413D02*
X2008100Y2024582D01*
Y2025036*
X2008413Y2025718*
X2008413D02*
X2009038Y2025945D01*
X1915800Y2458463D02*
X1917618Y2451900D01*
X1919436Y2458463D02*
X1917618Y2451900D01*
X1921482Y2458463D02*
Y2451900D01*
X1923527Y2458463D02*
Y2451900D01*
Y2458463D02*
X1926709Y2451900D01*
Y2458463D02*
Y2451900D01*
X1919209Y2446900D02*
X1918982Y2447525D01*
X1918527Y2448150*
X1918073Y2448463*
X1918073D02*
X1917164D01*
X1917164D02*
X1916709Y2448150D01*
X1916255Y2447525*
X1916027Y2446900*
X1915800Y2445963*
X1915800D02*
Y2444400D01*
X1916027Y2443463*
X1916027D02*
X1916255Y2442838D01*
X1916255D02*
X1916709Y2442213D01*
X1916709D02*
X1917164Y2441900D01*
X1918073*
X1918527Y2442213*
X1918527D02*
X1918982Y2442838D01*
X1918982D02*
X1919209Y2443463D01*
X1919209D02*
Y2444400D01*
X1918073D02*
X1919209D01*
X1921255Y2448463D02*
Y2441900D01*
Y2448463D02*
X1924436Y2441900D01*
Y2448463D02*
Y2441900D01*
X1926482Y2448463D02*
Y2441900D01*
Y2448463D02*
X1928073D01*
X1928073D02*
X1928755Y2448150D01*
X1929209Y2447525*
X1929436Y2446900*
X1929664Y2445963*
X1929664D02*
Y2444400D01*
X1929436Y2443463*
X1929436D02*
X1929209Y2442838D01*
X1929209D02*
X1928755Y2442213D01*
X1928755D02*
X1928073Y2441900D01*
X1926482*
X1915800Y2438463D02*
X1917618Y2431900D01*
X1919436Y2438463D02*
X1917618Y2431900D01*
X1924891Y2436900D02*
X1924664Y2437525D01*
X1924209Y2438150*
X1923755Y2438463*
X1923755D02*
X1922845D01*
X1922845D02*
X1922391Y2438150D01*
X1921936Y2437525*
X1921709Y2436900*
X1921482Y2435963*
X1921482D02*
Y2434400D01*
X1921709Y2433463*
X1921709D02*
X1921936Y2432838D01*
X1921936D02*
X1922391Y2432213D01*
X1922391D02*
X1922845Y2431900D01*
X1923755*
X1924209Y2432213*
X1924209D02*
X1924664Y2432838D01*
X1924664D02*
X1924891Y2433463D01*
X1930345Y2436900D02*
X1930118Y2437525D01*
X1929664Y2438150*
X1929209Y2438463*
X1929209D02*
X1928300D01*
X1928300D02*
X1927845Y2438150D01*
X1927391Y2437525*
X1927164Y2436900*
X1926936Y2435963*
X1926936D02*
Y2434400D01*
X1927164Y2433463*
X1927164D02*
X1927391Y2432838D01*
X1927391D02*
X1927845Y2432213D01*
X1927845D02*
X1928300Y2431900D01*
X1929209*
X1929664Y2432213*
X1929664D02*
X1930118Y2432838D01*
X1930118D02*
X1930345Y2433463D01*
X1932845Y2438463D02*
X1935345D01*
X1935345D02*
X1933982Y2435963D01*
X1933982D02*
X1934664D01*
X1934664D02*
X1935118Y2435650D01*
X1935345Y2435338*
X1935345D02*
X1935573Y2434400D01*
Y2433775*
X1935345Y2432838*
X1935345D02*
X1934891Y2432213D01*
X1934891D02*
X1934209Y2431900D01*
X1933527*
X1932845Y2432213*
X1932845D02*
X1932618Y2432525D01*
X1932391Y2433150*
X1938073Y2438463D02*
X1940573D01*
X1940573D02*
X1939209Y2435963D01*
X1939209D02*
X1939891D01*
X1939891D02*
X1940345Y2435650D01*
X1940573Y2435338*
X1940573D02*
X1940800Y2434400D01*
Y2433775*
X1940573Y2432838*
X1940573D02*
X1940118Y2432213D01*
X1940118D02*
X1939436Y2431900D01*
X1938755*
X1938073Y2432213*
X1938073D02*
X1937845Y2432525D01*
X1937618Y2433150*
X1915800Y2428463D02*
Y2421900D01*
Y2428463D02*
X1917845D01*
X1917845D02*
X1918527Y2428150D01*
X1918755Y2427838*
X1918755D02*
X1918982Y2427213D01*
X1918982D02*
Y2426275D01*
X1918755Y2425650*
X1918527Y2425338*
X1918527D02*
X1917845Y2425025D01*
X1915800*
X1921027Y2427213D02*
X1921482Y2427525D01*
X1922164Y2428463*
X1922164D02*
Y2421900D01*
X1915800Y2418463D02*
Y2411900D01*
Y2418463D02*
X1917845D01*
X1917845D02*
X1918527Y2418150D01*
X1918755Y2417838*
X1918755D02*
X1918982Y2417213D01*
X1918982D02*
Y2416275D01*
X1918755Y2415650*
X1918527Y2415338*
X1918527D02*
X1917845Y2415025D01*
X1915800*
X1921255Y2416900D02*
Y2417213D01*
X1921255D02*
X1921482Y2417838D01*
X1921482D02*
X1921709Y2418150D01*
X1922164Y2418463*
X1922164D02*
X1923073D01*
X1923073D02*
X1923527Y2418150D01*
X1923755Y2417838*
X1923755D02*
X1923982Y2417213D01*
X1923982D02*
Y2416588D01*
X1923982D02*
X1923755Y2415963D01*
X1923755D02*
X1923300Y2415025D01*
X1921027Y2411900*
X1924209*
X1915800Y2408463D02*
Y2401900D01*
Y2408463D02*
X1917845D01*
X1917845D02*
X1918527Y2408150D01*
X1918755Y2407838*
X1918755D02*
X1918982Y2407213D01*
X1918982D02*
Y2406275D01*
X1918755Y2405650*
X1918527Y2405338*
X1918527D02*
X1917845Y2405025D01*
X1915800*
X1921482Y2408463D02*
X1923982D01*
X1923982D02*
X1922618Y2405963D01*
X1922618D02*
X1923300D01*
X1923300D02*
X1923755Y2405650D01*
X1923982Y2405338*
X1923982D02*
X1924209Y2404400D01*
Y2403775*
X1923982Y2402838*
X1923982D02*
X1923527Y2402213D01*
X1923527D02*
X1922845Y2401900D01*
X1922164*
X1921482Y2402213*
X1921482D02*
X1921255Y2402525D01*
X1921027Y2403150*
X1915800Y2398463D02*
Y2391900D01*
Y2398463D02*
X1917845D01*
X1917845D02*
X1918527Y2398150D01*
X1918755Y2397838*
X1918755D02*
X1918982Y2397213D01*
X1918982D02*
Y2396275D01*
X1918755Y2395650*
X1918527Y2395338*
X1918527D02*
X1917845Y2395025D01*
X1915800*
X1924209Y2398463D02*
X1921936Y2391900D01*
X1921027Y2398463D02*
X1924209D01*
X1915800Y2388463D02*
Y2381900D01*
Y2388463D02*
X1917845D01*
X1917845D02*
X1918527Y2388150D01*
X1918755Y2387838*
X1918755D02*
X1918982Y2387213D01*
X1918982D02*
Y2386275D01*
X1918755Y2385650*
X1918527Y2385338*
X1918527D02*
X1917845Y2385025D01*
X1915800*
X1921027Y2387213D02*
X1921482Y2387525D01*
X1922164Y2388463*
X1922164D02*
Y2381900D01*
X1925573Y2388463D02*
X1924891Y2388150D01*
X1924436Y2387213*
X1924436D02*
X1924209Y2385650D01*
Y2384713*
X1924209D02*
X1924436Y2383150D01*
X1924891Y2382213*
X1924891D02*
X1925573Y2381900D01*
X1926027*
X1926709Y2382213*
X1926709D02*
X1927164Y2383150D01*
X1927391Y2384713*
X1927391D02*
Y2385650D01*
X1927164Y2387213*
X1927164D02*
X1926709Y2388150D01*
X1926027Y2388463*
X1926027D02*
X1925573D01*
X1915800Y2378463D02*
Y2371900D01*
Y2378463D02*
X1917845D01*
X1917845D02*
X1918527Y2378150D01*
X1918755Y2377838*
X1918755D02*
X1918982Y2377213D01*
X1918982D02*
Y2376275D01*
X1918755Y2375650*
X1918527Y2375338*
X1918527D02*
X1917845Y2375025D01*
X1915800*
X1921027Y2377213D02*
X1921482Y2377525D01*
X1922164Y2378463*
X1922164D02*
Y2371900D01*
X1924209Y2377213D02*
X1924664Y2377525D01*
X1925345Y2378463*
X1925345D02*
Y2371900D01*
X1915800Y2368463D02*
Y2361900D01*
Y2368463D02*
X1917845D01*
X1917845D02*
X1918527Y2368150D01*
X1918755Y2367838*
X1918755D02*
X1918982Y2367213D01*
X1918982D02*
Y2366275D01*
X1918755Y2365650*
X1918527Y2365338*
X1918527D02*
X1917845Y2365025D01*
X1915800*
X1921255Y2366900D02*
Y2367213D01*
X1921255D02*
X1921482Y2367838D01*
X1921482D02*
X1921709Y2368150D01*
X1922164Y2368463*
X1922164D02*
X1923073D01*
X1923073D02*
X1923527Y2368150D01*
X1923755Y2367838*
X1923755D02*
X1923982Y2367213D01*
X1923982D02*
Y2366588D01*
X1923982D02*
X1923755Y2365963D01*
X1923755D02*
X1923300Y2365025D01*
X1921027Y2361900*
X1924209*
X1927391Y2368463D02*
X1926709Y2368150D01*
X1926482Y2367525*
Y2366900*
X1926709Y2366275*
X1927164Y2365963*
X1927164D02*
X1928073Y2365650D01*
X1928755Y2365338*
X1928755D02*
X1929209Y2364713D01*
X1929209D02*
X1929436Y2364088D01*
X1929436D02*
Y2363150D01*
X1929209Y2362525*
X1928982Y2362213*
X1928982D02*
X1928300Y2361900D01*
X1927391*
X1926709Y2362213*
X1926709D02*
X1926482Y2362525D01*
X1926255Y2363150*
Y2364088*
X1926255D02*
X1926482Y2364713D01*
X1926482D02*
X1926936Y2365338D01*
X1926936D02*
X1927618Y2365650D01*
X1928527Y2365963*
X1928527D02*
X1928982Y2366275D01*
X1929209Y2366900*
Y2367525*
X1928982Y2368150*
X1928300Y2368463*
X1928300D02*
X1927391D01*
X1915800Y2358463D02*
Y2351900D01*
Y2358463D02*
X1917845D01*
X1917845D02*
X1918527Y2358150D01*
X1918755Y2357838*
X1918755D02*
X1918982Y2357213D01*
X1918982D02*
Y2356275D01*
X1918755Y2355650*
X1918527Y2355338*
X1918527D02*
X1917845Y2355025D01*
X1915800*
X1921482Y2358463D02*
X1923982D01*
X1923982D02*
X1922618Y2355963D01*
X1922618D02*
X1923300D01*
X1923300D02*
X1923755Y2355650D01*
X1923982Y2355338*
X1923982D02*
X1924209Y2354400D01*
Y2353775*
X1923982Y2352838*
X1923982D02*
X1923527Y2352213D01*
X1923527D02*
X1922845Y2351900D01*
X1922164*
X1921482Y2352213*
X1921482D02*
X1921255Y2352525D01*
X1921027Y2353150*
X1927618Y2358463D02*
X1926936Y2358150D01*
X1926482Y2357213*
X1926482D02*
X1926255Y2355650D01*
Y2354713*
X1926255D02*
X1926482Y2353150D01*
X1926936Y2352213*
X1926936D02*
X1927618Y2351900D01*
X1928073*
X1928755Y2352213*
X1928755D02*
X1929209Y2353150D01*
X1929436Y2354713*
X1929436D02*
Y2355650D01*
X1929209Y2357213*
X1929209D02*
X1928755Y2358150D01*
X1928073Y2358463*
X1928073D02*
X1927618D01*
X1915800Y2348463D02*
Y2341900D01*
Y2348463D02*
X1917845D01*
X1917845D02*
X1918527Y2348150D01*
X1918755Y2347838*
X1918755D02*
X1918982Y2347213D01*
X1918982D02*
Y2346275D01*
X1918755Y2345650*
X1918527Y2345338*
X1918527D02*
X1917845Y2345025D01*
X1915800*
X1921482Y2348463D02*
X1923982D01*
X1923982D02*
X1922618Y2345963D01*
X1922618D02*
X1923300D01*
X1923300D02*
X1923755Y2345650D01*
X1923982Y2345338*
X1923982D02*
X1924209Y2344400D01*
Y2343775*
X1923982Y2342838*
X1923982D02*
X1923527Y2342213D01*
X1923527D02*
X1922845Y2341900D01*
X1922164*
X1921482Y2342213*
X1921482D02*
X1921255Y2342525D01*
X1921027Y2343150*
X1926255Y2347213D02*
X1926709Y2347525D01*
X1927391Y2348463*
X1927391D02*
Y2341900D01*
X1915800Y2338463D02*
Y2331900D01*
Y2338463D02*
X1917845D01*
X1917845D02*
X1918527Y2338150D01*
X1918755Y2337838*
X1918755D02*
X1918982Y2337213D01*
X1918982D02*
Y2336275D01*
X1918755Y2335650*
X1918527Y2335338*
X1918527D02*
X1917845Y2335025D01*
X1915800*
X1921482Y2338463D02*
X1923982D01*
X1923982D02*
X1922618Y2335963D01*
X1922618D02*
X1923300D01*
X1923300D02*
X1923755Y2335650D01*
X1923982Y2335338*
X1923982D02*
X1924209Y2334400D01*
Y2333775*
X1923982Y2332838*
X1923982D02*
X1923527Y2332213D01*
X1923527D02*
X1922845Y2331900D01*
X1922164*
X1921482Y2332213*
X1921482D02*
X1921255Y2332525D01*
X1921027Y2333150*
X1926482Y2336900D02*
Y2337213D01*
X1926482D02*
X1926709Y2337838D01*
X1926709D02*
X1926936Y2338150D01*
X1927391Y2338463*
X1927391D02*
X1928300D01*
X1928300D02*
X1928755Y2338150D01*
X1928982Y2337838*
X1928982D02*
X1929209Y2337213D01*
X1929209D02*
Y2336588D01*
X1929209D02*
X1928982Y2335963D01*
X1928982D02*
X1928527Y2335025D01*
X1926255Y2331900*
X1929436*
X1915800Y2328463D02*
Y2321900D01*
Y2328463D02*
X1917845D01*
X1917845D02*
X1918527Y2328150D01*
X1918755Y2327838*
X1918755D02*
X1918982Y2327213D01*
X1918982D02*
Y2326275D01*
X1918755Y2325650*
X1918527Y2325338*
X1918527D02*
X1917845Y2325025D01*
X1915800*
X1921482Y2328463D02*
X1923982D01*
X1923982D02*
X1922618Y2325963D01*
X1922618D02*
X1923300D01*
X1923300D02*
X1923755Y2325650D01*
X1923982Y2325338*
X1923982D02*
X1924209Y2324400D01*
Y2323775*
X1923982Y2322838*
X1923982D02*
X1923527Y2322213D01*
X1923527D02*
X1922845Y2321900D01*
X1922164*
X1921482Y2322213*
X1921482D02*
X1921255Y2322525D01*
X1921027Y2323150*
X1926709Y2328463D02*
X1929209D01*
X1929209D02*
X1927845Y2325963D01*
X1927845D02*
X1928527D01*
X1928527D02*
X1928982Y2325650D01*
X1929209Y2325338*
X1929209D02*
X1929436Y2324400D01*
Y2323775*
X1929209Y2322838*
X1929209D02*
X1928755Y2322213D01*
X1928755D02*
X1928073Y2321900D01*
X1927391*
X1926709Y2322213*
X1926709D02*
X1926482Y2322525D01*
X1926255Y2323150*
X1915800Y2318463D02*
Y2311900D01*
Y2318463D02*
X1917845D01*
X1917845D02*
X1918527Y2318150D01*
X1918755Y2317838*
X1918755D02*
X1918982Y2317213D01*
X1918982D02*
Y2316275D01*
X1918755Y2315650*
X1918527Y2315338*
X1918527D02*
X1917845Y2315025D01*
X1915800*
X1921482Y2318463D02*
X1923982D01*
X1923982D02*
X1922618Y2315963D01*
X1922618D02*
X1923300D01*
X1923300D02*
X1923755Y2315650D01*
X1923982Y2315338*
X1923982D02*
X1924209Y2314400D01*
Y2313775*
X1923982Y2312838*
X1923982D02*
X1923527Y2312213D01*
X1923527D02*
X1922845Y2311900D01*
X1922164*
X1921482Y2312213*
X1921482D02*
X1921255Y2312525D01*
X1921027Y2313150*
X1928527Y2318463D02*
X1926255Y2314088D01*
X1926255D02*
X1929664D01*
X1928527Y2318463D02*
Y2311900D01*
X1915800Y2308463D02*
Y2301900D01*
Y2308463D02*
X1917845D01*
X1917845D02*
X1918527Y2308150D01*
X1918755Y2307838*
X1918755D02*
X1918982Y2307213D01*
X1918982D02*
Y2306275D01*
X1918755Y2305650*
X1918527Y2305338*
X1918527D02*
X1917845Y2305025D01*
X1915800*
X1921482Y2308463D02*
X1923982D01*
X1923982D02*
X1922618Y2305963D01*
X1922618D02*
X1923300D01*
X1923300D02*
X1923755Y2305650D01*
X1923982Y2305338*
X1923982D02*
X1924209Y2304400D01*
Y2303775*
X1923982Y2302838*
X1923982D02*
X1923527Y2302213D01*
X1923527D02*
X1922845Y2301900D01*
X1922164*
X1921482Y2302213*
X1921482D02*
X1921255Y2302525D01*
X1921027Y2303150*
X1927391Y2308463D02*
X1926709Y2308150D01*
X1926482Y2307525*
Y2306900*
X1926709Y2306275*
X1927164Y2305963*
X1927164D02*
X1928073Y2305650D01*
X1928755Y2305338*
X1928755D02*
X1929209Y2304713D01*
X1929209D02*
X1929436Y2304088D01*
X1929436D02*
Y2303150D01*
X1929209Y2302525*
X1928982Y2302213*
X1928982D02*
X1928300Y2301900D01*
X1927391*
X1926709Y2302213*
X1926709D02*
X1926482Y2302525D01*
X1926255Y2303150*
Y2304088*
X1926255D02*
X1926482Y2304713D01*
X1926482D02*
X1926936Y2305338D01*
X1926936D02*
X1927618Y2305650D01*
X1928527Y2305963*
X1928527D02*
X1928982Y2306275D01*
X1929209Y2306900*
Y2307525*
X1928982Y2308150*
X1928300Y2308463*
X1928300D02*
X1927391D01*
X1915800Y2298463D02*
Y2291900D01*
Y2298463D02*
X1917845D01*
X1917845D02*
X1918527Y2298150D01*
X1918755Y2297838*
X1918755D02*
X1918982Y2297213D01*
X1918982D02*
Y2296275D01*
X1918755Y2295650*
X1918527Y2295338*
X1918527D02*
X1917845Y2295025D01*
X1915800*
X1921482Y2298463D02*
X1923982D01*
X1923982D02*
X1922618Y2295963D01*
X1922618D02*
X1923300D01*
X1923300D02*
X1923755Y2295650D01*
X1923982Y2295338*
X1923982D02*
X1924209Y2294400D01*
Y2293775*
X1923982Y2292838*
X1923982D02*
X1923527Y2292213D01*
X1923527D02*
X1922845Y2291900D01*
X1922164*
X1921482Y2292213*
X1921482D02*
X1921255Y2292525D01*
X1921027Y2293150*
X1929209Y2296275D02*
X1928982Y2295338D01*
X1928982D02*
X1928527Y2294713D01*
X1928527D02*
X1927845Y2294400D01*
X1927618*
X1926936Y2294713*
X1926936D02*
X1926482Y2295338D01*
X1926482D02*
X1926255Y2296275D01*
Y2296588*
X1926255D02*
X1926482Y2297525D01*
X1926936Y2298150*
X1927618Y2298463*
X1927618D02*
X1927845D01*
X1927845D02*
X1928527Y2298150D01*
X1928982Y2297525*
X1929209Y2296275*
Y2294713*
X1929209D02*
X1928982Y2293150D01*
X1928527Y2292213*
X1928527D02*
X1927845Y2291900D01*
X1927391*
X1926709Y2292213*
X1926709D02*
X1926482Y2292838D01*
X1915800Y2288463D02*
Y2281900D01*
Y2288463D02*
X1917845D01*
X1917845D02*
X1918527Y2288150D01*
X1918755Y2287838*
X1918755D02*
X1918982Y2287213D01*
X1918982D02*
Y2286275D01*
X1918755Y2285650*
X1918527Y2285338*
X1918527D02*
X1917845Y2285025D01*
X1915800*
X1923300Y2288463D02*
X1921027Y2284088D01*
X1921027D02*
X1924436D01*
X1923300Y2288463D02*
Y2281900D01*
X1926709Y2286900D02*
Y2287213D01*
X1926709D02*
X1926936Y2287838D01*
X1926936D02*
X1927164Y2288150D01*
X1927618Y2288463*
X1927618D02*
X1928527D01*
X1928527D02*
X1928982Y2288150D01*
X1929209Y2287838*
X1929209D02*
X1929436Y2287213D01*
X1929436D02*
Y2286588D01*
X1929436D02*
X1929209Y2285963D01*
X1929209D02*
X1928755Y2285025D01*
X1926482Y2281900*
X1929664*
X1915800Y2278463D02*
Y2271900D01*
Y2278463D02*
X1917845D01*
X1917845D02*
X1918527Y2278150D01*
X1918755Y2277838*
X1918755D02*
X1918982Y2277213D01*
X1918982D02*
Y2276275D01*
X1918755Y2275650*
X1918527Y2275338*
X1918527D02*
X1917845Y2275025D01*
X1915800*
X1923300Y2278463D02*
X1921027Y2274088D01*
X1921027D02*
X1924436D01*
X1923300Y2278463D02*
Y2271900D01*
X1926936Y2278463D02*
X1929436D01*
X1929436D02*
X1928073Y2275963D01*
X1928073D02*
X1928755D01*
X1928755D02*
X1929209Y2275650D01*
X1929436Y2275338*
X1929436D02*
X1929664Y2274400D01*
Y2273775*
X1929436Y2272838*
X1929436D02*
X1928982Y2272213D01*
X1928982D02*
X1928300Y2271900D01*
X1927618*
X1926936Y2272213*
X1926936D02*
X1926709Y2272525D01*
X1926482Y2273150*
X1915800Y2268463D02*
Y2261900D01*
Y2268463D02*
X1917845D01*
X1917845D02*
X1918527Y2268150D01*
X1918755Y2267838*
X1918755D02*
X1918982Y2267213D01*
X1918982D02*
Y2266275D01*
X1918755Y2265650*
X1918527Y2265338*
X1918527D02*
X1917845Y2265025D01*
X1915800*
X1923300Y2268463D02*
X1921027Y2264088D01*
X1921027D02*
X1924436D01*
X1923300Y2268463D02*
Y2261900D01*
X1928755Y2268463D02*
X1926482Y2264088D01*
X1926482D02*
X1929891D01*
X1928755Y2268463D02*
Y2261900D01*
X1915800Y2258463D02*
Y2251900D01*
Y2258463D02*
X1917845D01*
X1917845D02*
X1918527Y2258150D01*
X1918755Y2257838*
X1918755D02*
X1918982Y2257213D01*
X1918982D02*
Y2256275D01*
X1918755Y2255650*
X1918527Y2255338*
X1918527D02*
X1917845Y2255025D01*
X1915800*
X1923300Y2258463D02*
X1921027Y2254088D01*
X1921027D02*
X1924436D01*
X1923300Y2258463D02*
Y2251900D01*
X1929209Y2257525D02*
X1928982Y2258150D01*
X1928300Y2258463*
X1928300D02*
X1927845D01*
X1927845D02*
X1927164Y2258150D01*
X1926709Y2257213*
X1926709D02*
X1926482Y2255650D01*
Y2254088*
X1926482D02*
X1926709Y2252838D01*
X1926709D02*
X1927164Y2252213D01*
X1927164D02*
X1927845Y2251900D01*
X1928073*
X1928755Y2252213*
X1928755D02*
X1929209Y2252838D01*
X1929209D02*
X1929436Y2253775D01*
Y2254088*
X1929436D02*
X1929209Y2255025D01*
X1928755Y2255650*
X1928073Y2255963*
X1928073D02*
X1927845D01*
X1927845D02*
X1927164Y2255650D01*
X1926709Y2255025*
X1926482Y2254088*
X1915800Y2248463D02*
Y2241900D01*
Y2248463D02*
X1917845D01*
X1917845D02*
X1918527Y2248150D01*
X1918755Y2247838*
X1918755D02*
X1918982Y2247213D01*
X1918982D02*
Y2246275D01*
X1918755Y2245650*
X1918527Y2245338*
X1918527D02*
X1917845Y2245025D01*
X1915800*
X1923300Y2248463D02*
X1921027Y2244088D01*
X1921027D02*
X1924436D01*
X1923300Y2248463D02*
Y2241900D01*
X1929436Y2246275D02*
X1929209Y2245338D01*
X1929209D02*
X1928755Y2244713D01*
X1928755D02*
X1928073Y2244400D01*
X1927845*
X1927164Y2244713*
X1927164D02*
X1926709Y2245338D01*
X1926709D02*
X1926482Y2246275D01*
Y2246588*
X1926482D02*
X1926709Y2247525D01*
X1927164Y2248150*
X1927845Y2248463*
X1927845D02*
X1928073D01*
X1928073D02*
X1928755Y2248150D01*
X1929209Y2247525*
X1929436Y2246275*
Y2244713*
X1929436D02*
X1929209Y2243150D01*
X1928755Y2242213*
X1928755D02*
X1928073Y2241900D01*
X1927618*
X1926936Y2242213*
X1926936D02*
X1926709Y2242838D01*
X1915800Y2238463D02*
Y2231900D01*
Y2238463D02*
X1917845D01*
X1917845D02*
X1918527Y2238150D01*
X1918755Y2237838*
X1918755D02*
X1918982Y2237213D01*
X1918982D02*
Y2236275D01*
X1918755Y2235650*
X1918527Y2235338*
X1918527D02*
X1917845Y2235025D01*
X1915800*
X1923982Y2238463D02*
X1921709D01*
X1921709D02*
X1921482Y2235650D01*
X1921709Y2235963*
X1921709D02*
X1922391Y2236275D01*
X1923073*
X1923755Y2235963*
X1923755D02*
X1924209Y2235338D01*
X1924209D02*
X1924436Y2234400D01*
X1924209Y2233775*
X1923982Y2232838*
X1923982D02*
X1923527Y2232213D01*
X1923527D02*
X1922845Y2231900D01*
X1922164*
X1921482Y2232213*
X1921482D02*
X1921255Y2232525D01*
X1921027Y2233150*
X1927845Y2238463D02*
X1927164Y2238150D01*
X1926709Y2237213*
X1926709D02*
X1926482Y2235650D01*
Y2234713*
X1926482D02*
X1926709Y2233150D01*
X1927164Y2232213*
X1927164D02*
X1927845Y2231900D01*
X1928300*
X1928982Y2232213*
X1928982D02*
X1929436Y2233150D01*
X1929664Y2234713*
X1929664D02*
Y2235650D01*
X1929436Y2237213*
X1929436D02*
X1928982Y2238150D01*
X1928300Y2238463*
X1928300D02*
X1927845D01*
X1915800Y2228463D02*
Y2221900D01*
Y2228463D02*
X1917845D01*
X1917845D02*
X1918527Y2228150D01*
X1918755Y2227838*
X1918755D02*
X1918982Y2227213D01*
X1918982D02*
Y2226275D01*
X1918755Y2225650*
X1918527Y2225338*
X1918527D02*
X1917845Y2225025D01*
X1915800*
X1923982Y2228463D02*
X1921709D01*
X1921709D02*
X1921482Y2225650D01*
X1921709Y2225963*
X1921709D02*
X1922391Y2226275D01*
X1923073*
X1923755Y2225963*
X1923755D02*
X1924209Y2225338D01*
X1924209D02*
X1924436Y2224400D01*
X1924209Y2223775*
X1923982Y2222838*
X1923982D02*
X1923527Y2222213D01*
X1923527D02*
X1922845Y2221900D01*
X1922164*
X1921482Y2222213*
X1921482D02*
X1921255Y2222525D01*
X1921027Y2223150*
X1926482Y2227213D02*
X1926936Y2227525D01*
X1927618Y2228463*
X1927618D02*
Y2221900D01*
X1915800Y2218463D02*
Y2211900D01*
Y2218463D02*
X1917845D01*
X1917845D02*
X1918527Y2218150D01*
X1918755Y2217838*
X1918755D02*
X1918982Y2217213D01*
X1918982D02*
Y2216275D01*
X1918755Y2215650*
X1918527Y2215338*
X1918527D02*
X1917845Y2215025D01*
X1915800*
X1923982Y2218463D02*
X1921709D01*
X1921709D02*
X1921482Y2215650D01*
X1921709Y2215963*
X1921709D02*
X1922391Y2216275D01*
X1923073*
X1923755Y2215963*
X1923755D02*
X1924209Y2215338D01*
X1924209D02*
X1924436Y2214400D01*
X1924209Y2213775*
X1923982Y2212838*
X1923982D02*
X1923527Y2212213D01*
X1923527D02*
X1922845Y2211900D01*
X1922164*
X1921482Y2212213*
X1921482D02*
X1921255Y2212525D01*
X1921027Y2213150*
X1926709Y2216900D02*
Y2217213D01*
X1926709D02*
X1926936Y2217838D01*
X1926936D02*
X1927164Y2218150D01*
X1927618Y2218463*
X1927618D02*
X1928527D01*
X1928527D02*
X1928982Y2218150D01*
X1929209Y2217838*
X1929209D02*
X1929436Y2217213D01*
X1929436D02*
Y2216588D01*
X1929436D02*
X1929209Y2215963D01*
X1929209D02*
X1928755Y2215025D01*
X1926482Y2211900*
X1929664*
X1915800Y2208463D02*
Y2201900D01*
Y2208463D02*
X1917845D01*
X1917845D02*
X1918527Y2208150D01*
X1918755Y2207838*
X1918755D02*
X1918982Y2207213D01*
X1918982D02*
Y2206275D01*
X1918755Y2205650*
X1918527Y2205338*
X1918527D02*
X1917845Y2205025D01*
X1915800*
X1923982Y2208463D02*
X1921709D01*
X1921709D02*
X1921482Y2205650D01*
X1921709Y2205963*
X1921709D02*
X1922391Y2206275D01*
X1923073*
X1923755Y2205963*
X1923755D02*
X1924209Y2205338D01*
X1924209D02*
X1924436Y2204400D01*
X1924209Y2203775*
X1923982Y2202838*
X1923982D02*
X1923527Y2202213D01*
X1923527D02*
X1922845Y2201900D01*
X1922164*
X1921482Y2202213*
X1921482D02*
X1921255Y2202525D01*
X1921027Y2203150*
X1926936Y2208463D02*
X1929436D01*
X1929436D02*
X1928073Y2205963D01*
X1928073D02*
X1928755D01*
X1928755D02*
X1929209Y2205650D01*
X1929436Y2205338*
X1929436D02*
X1929664Y2204400D01*
Y2203775*
X1929436Y2202838*
X1929436D02*
X1928982Y2202213D01*
X1928982D02*
X1928300Y2201900D01*
X1927618*
X1926936Y2202213*
X1926936D02*
X1926709Y2202525D01*
X1926482Y2203150*
X1915800Y2198463D02*
Y2191900D01*
Y2198463D02*
X1917845D01*
X1917845D02*
X1918527Y2198150D01*
X1918755Y2197838*
X1918755D02*
X1918982Y2197213D01*
X1918982D02*
Y2196275D01*
X1918755Y2195650*
X1918527Y2195338*
X1918527D02*
X1917845Y2195025D01*
X1915800*
X1923982Y2198463D02*
X1921709D01*
X1921709D02*
X1921482Y2195650D01*
X1921709Y2195963*
X1921709D02*
X1922391Y2196275D01*
X1923073*
X1923755Y2195963*
X1923755D02*
X1924209Y2195338D01*
X1924209D02*
X1924436Y2194400D01*
X1924209Y2193775*
X1923982Y2192838*
X1923982D02*
X1923527Y2192213D01*
X1923527D02*
X1922845Y2191900D01*
X1922164*
X1921482Y2192213*
X1921482D02*
X1921255Y2192525D01*
X1921027Y2193150*
X1928755Y2198463D02*
X1926482Y2194088D01*
X1926482D02*
X1929891D01*
X1928755Y2198463D02*
Y2191900D01*
X1915800Y2188463D02*
Y2181900D01*
Y2188463D02*
X1917845D01*
X1917845D02*
X1918527Y2188150D01*
X1918755Y2187838*
X1918755D02*
X1918982Y2187213D01*
X1918982D02*
Y2186275D01*
X1918755Y2185650*
X1918527Y2185338*
X1918527D02*
X1917845Y2185025D01*
X1915800*
X1923982Y2188463D02*
X1921709D01*
X1921709D02*
X1921482Y2185650D01*
X1921709Y2185963*
X1921709D02*
X1922391Y2186275D01*
X1923073*
X1923755Y2185963*
X1923755D02*
X1924209Y2185338D01*
X1924209D02*
X1924436Y2184400D01*
X1924209Y2183775*
X1923982Y2182838*
X1923982D02*
X1923527Y2182213D01*
X1923527D02*
X1922845Y2181900D01*
X1922164*
X1921482Y2182213*
X1921482D02*
X1921255Y2182525D01*
X1921027Y2183150*
X1929436Y2188463D02*
X1927164D01*
X1927164D02*
X1926936Y2185650D01*
X1927164Y2185963*
X1927164D02*
X1927845Y2186275D01*
X1928527*
X1929209Y2185963*
X1929209D02*
X1929664Y2185338D01*
X1929664D02*
X1929891Y2184400D01*
X1929664Y2183775*
X1929436Y2182838*
X1929436D02*
X1928982Y2182213D01*
X1928982D02*
X1928300Y2181900D01*
X1927618*
X1926936Y2182213*
X1926936D02*
X1926709Y2182525D01*
X1926482Y2183150*
X1915800Y2178463D02*
Y2171900D01*
Y2178463D02*
X1917845D01*
X1917845D02*
X1918527Y2178150D01*
X1918755Y2177838*
X1918755D02*
X1918982Y2177213D01*
X1918982D02*
Y2176275D01*
X1918755Y2175650*
X1918527Y2175338*
X1918527D02*
X1917845Y2175025D01*
X1915800*
X1923982Y2178463D02*
X1921709D01*
X1921709D02*
X1921482Y2175650D01*
X1921709Y2175963*
X1921709D02*
X1922391Y2176275D01*
X1923073*
X1923755Y2175963*
X1923755D02*
X1924209Y2175338D01*
X1924209D02*
X1924436Y2174400D01*
X1924209Y2173775*
X1923982Y2172838*
X1923982D02*
X1923527Y2172213D01*
X1923527D02*
X1922845Y2171900D01*
X1922164*
X1921482Y2172213*
X1921482D02*
X1921255Y2172525D01*
X1921027Y2173150*
X1927618Y2178463D02*
X1926936Y2178150D01*
X1926709Y2177525*
Y2176900*
X1926936Y2176275*
X1927391Y2175963*
X1927391D02*
X1928300Y2175650D01*
X1928982Y2175338*
X1928982D02*
X1929436Y2174713D01*
X1929436D02*
X1929664Y2174088D01*
X1929664D02*
Y2173150D01*
X1929436Y2172525*
X1929209Y2172213*
X1929209D02*
X1928527Y2171900D01*
X1927618*
X1926936Y2172213*
X1926936D02*
X1926709Y2172525D01*
X1926482Y2173150*
Y2174088*
X1926482D02*
X1926709Y2174713D01*
X1926709D02*
X1927164Y2175338D01*
X1927164D02*
X1927845Y2175650D01*
X1928755Y2175963*
X1928755D02*
X1929209Y2176275D01*
X1929436Y2176900*
Y2177525*
X1929209Y2178150*
X1928527Y2178463*
X1928527D02*
X1927618D01*
X1915800Y2168463D02*
Y2161900D01*
Y2168463D02*
X1917845D01*
X1917845D02*
X1918527Y2168150D01*
X1918755Y2167838*
X1918755D02*
X1918982Y2167213D01*
X1918982D02*
Y2166275D01*
X1918755Y2165650*
X1918527Y2165338*
X1918527D02*
X1917845Y2165025D01*
X1915800*
X1923982Y2168463D02*
X1921709D01*
X1921709D02*
X1921482Y2165650D01*
X1921709Y2165963*
X1921709D02*
X1922391Y2166275D01*
X1923073*
X1923755Y2165963*
X1923755D02*
X1924209Y2165338D01*
X1924209D02*
X1924436Y2164400D01*
X1924209Y2163775*
X1923982Y2162838*
X1923982D02*
X1923527Y2162213D01*
X1923527D02*
X1922845Y2161900D01*
X1922164*
X1921482Y2162213*
X1921482D02*
X1921255Y2162525D01*
X1921027Y2163150*
X1929436Y2166275D02*
X1929209Y2165338D01*
X1929209D02*
X1928755Y2164713D01*
X1928755D02*
X1928073Y2164400D01*
X1927845*
X1927164Y2164713*
X1927164D02*
X1926709Y2165338D01*
X1926709D02*
X1926482Y2166275D01*
Y2166588*
X1926482D02*
X1926709Y2167525D01*
X1927164Y2168150*
X1927845Y2168463*
X1927845D02*
X1928073D01*
X1928073D02*
X1928755Y2168150D01*
X1929209Y2167525*
X1929436Y2166275*
Y2164713*
X1929436D02*
X1929209Y2163150D01*
X1928755Y2162213*
X1928755D02*
X1928073Y2161900D01*
X1927618*
X1926936Y2162213*
X1926936D02*
X1926709Y2162838D01*
X1915800Y2158463D02*
Y2151900D01*
Y2158463D02*
X1917845D01*
X1917845D02*
X1918527Y2158150D01*
X1918755Y2157838*
X1918755D02*
X1918982Y2157213D01*
X1918982D02*
Y2156275D01*
X1918755Y2155650*
X1918527Y2155338*
X1918527D02*
X1917845Y2155025D01*
X1915800*
X1923755Y2157525D02*
X1923527Y2158150D01*
X1922845Y2158463*
X1922845D02*
X1922391D01*
X1922391D02*
X1921709Y2158150D01*
X1921255Y2157213*
X1921255D02*
X1921027Y2155650D01*
Y2154088*
X1921027D02*
X1921255Y2152838D01*
X1921255D02*
X1921709Y2152213D01*
X1921709D02*
X1922391Y2151900D01*
X1922618*
X1923300Y2152213*
X1923300D02*
X1923755Y2152838D01*
X1923755D02*
X1923982Y2153775D01*
Y2154088*
X1923982D02*
X1923755Y2155025D01*
X1923300Y2155650*
X1922618Y2155963*
X1922618D02*
X1922391D01*
X1922391D02*
X1921709Y2155650D01*
X1921255Y2155025*
X1921027Y2154088*
X1927391Y2158463D02*
X1926709Y2158150D01*
X1926255Y2157213*
X1926255D02*
X1926027Y2155650D01*
Y2154713*
X1926027D02*
X1926255Y2153150D01*
X1926709Y2152213*
X1926709D02*
X1927391Y2151900D01*
X1927845*
X1928527Y2152213*
X1928527D02*
X1928982Y2153150D01*
X1929209Y2154713*
X1929209D02*
Y2155650D01*
X1928982Y2157213*
X1928982D02*
X1928527Y2158150D01*
X1927845Y2158463*
X1927845D02*
X1927391D01*
X1915800Y2148463D02*
Y2141900D01*
Y2148463D02*
X1917845D01*
X1917845D02*
X1918527Y2148150D01*
X1918755Y2147838*
X1918755D02*
X1918982Y2147213D01*
X1918982D02*
Y2146275D01*
X1918755Y2145650*
X1918527Y2145338*
X1918527D02*
X1917845Y2145025D01*
X1915800*
X1922845Y2148463D02*
X1921027Y2141900D01*
X1922845Y2148463D02*
X1924664Y2141900D01*
X1921709Y2144088D02*
X1923982D01*
X1927845Y2148463D02*
X1927164Y2148150D01*
X1926936Y2147525*
Y2146900*
X1927164Y2146275*
X1927618Y2145963*
X1927618D02*
X1928527Y2145650D01*
X1929209Y2145338*
X1929209D02*
X1929664Y2144713D01*
X1929664D02*
X1929891Y2144088D01*
X1929891D02*
Y2143150D01*
X1929664Y2142525*
X1929436Y2142213*
X1929436D02*
X1928755Y2141900D01*
X1927845*
X1927164Y2142213*
X1927164D02*
X1926936Y2142525D01*
X1926709Y2143150*
Y2144088*
X1926709D02*
X1926936Y2144713D01*
X1926936D02*
X1927391Y2145338D01*
X1927391D02*
X1928073Y2145650D01*
X1928982Y2145963*
X1928982D02*
X1929436Y2146275D01*
X1929664Y2146900*
Y2147525*
X1929436Y2148150*
X1928755Y2148463*
X1928755D02*
X1927845D01*
X1915800Y2138463D02*
Y2131900D01*
Y2138463D02*
X1917845D01*
X1917845D02*
X1918527Y2138150D01*
X1918755Y2137838*
X1918755D02*
X1918982Y2137213D01*
X1918982D02*
Y2136275D01*
X1918755Y2135650*
X1918527Y2135338*
X1918527D02*
X1917845Y2135025D01*
X1915800*
X1922845Y2138463D02*
X1921027Y2131900D01*
X1922845Y2138463D02*
X1924664Y2131900D01*
X1921709Y2134088D02*
X1923982D01*
X1929664Y2136275D02*
X1929436Y2135338D01*
X1929436D02*
X1928982Y2134713D01*
X1928982D02*
X1928300Y2134400D01*
X1928073*
X1927391Y2134713*
X1927391D02*
X1926936Y2135338D01*
X1926936D02*
X1926709Y2136275D01*
Y2136588*
X1926709D02*
X1926936Y2137525D01*
X1927391Y2138150*
X1928073Y2138463*
X1928073D02*
X1928300D01*
X1928300D02*
X1928982Y2138150D01*
X1929436Y2137525*
X1929664Y2136275*
Y2134713*
X1929664D02*
X1929436Y2133150D01*
X1928982Y2132213*
X1928982D02*
X1928300Y2131900D01*
X1927845*
X1927164Y2132213*
X1927164D02*
X1926936Y2132838D01*
X1915800Y2128463D02*
Y2121900D01*
Y2128463D02*
X1917845D01*
X1917845D02*
X1918527Y2128150D01*
X1918755Y2127838*
X1918755D02*
X1918982Y2127213D01*
X1918982D02*
Y2126275D01*
X1918755Y2125650*
X1918527Y2125338*
X1918527D02*
X1917845Y2125025D01*
X1915800*
X1922845Y2128463D02*
X1921027Y2121900D01*
X1922845Y2128463D02*
X1924664Y2121900D01*
X1921709Y2124088D02*
X1923982D01*
X1926709Y2127213D02*
X1927164Y2127525D01*
X1927845Y2128463*
X1927845D02*
Y2121900D01*
X1931255Y2128463D02*
X1930573Y2128150D01*
X1930118Y2127213*
X1930118D02*
X1929891Y2125650D01*
Y2124713*
X1929891D02*
X1930118Y2123150D01*
X1930573Y2122213*
X1930573D02*
X1931255Y2121900D01*
X1931709*
X1932391Y2122213*
X1932391D02*
X1932845Y2123150D01*
X1933073Y2124713*
X1933073D02*
Y2125650D01*
X1932845Y2127213*
X1932845D02*
X1932391Y2128150D01*
X1931709Y2128463*
X1931709D02*
X1931255D01*
X1915800Y2118463D02*
Y2111900D01*
Y2118463D02*
X1917845D01*
X1917845D02*
X1918527Y2118150D01*
X1918755Y2117838*
X1918755D02*
X1918982Y2117213D01*
X1918982D02*
Y2116275D01*
X1918755Y2115650*
X1918527Y2115338*
X1918527D02*
X1917845Y2115025D01*
X1915800*
X1922845Y2118463D02*
X1921027Y2111900D01*
X1922845Y2118463D02*
X1924664Y2111900D01*
X1921709Y2114088D02*
X1923982D01*
X1926709Y2117213D02*
X1927164Y2117525D01*
X1927845Y2118463*
X1927845D02*
Y2111900D01*
X1929891Y2117213D02*
X1930345Y2117525D01*
X1931027Y2118463*
X1931027D02*
Y2111900D01*
X1937164Y2119713D02*
X1933073Y2109712D01*
X1939209Y2118463D02*
Y2111900D01*
Y2118463D02*
X1942391Y2111900D01*
Y2118463D02*
Y2111900D01*
X1944436Y2118463D02*
Y2111900D01*
Y2118463D02*
X1946482D01*
X1946482D02*
X1947164Y2118150D01*
X1947391Y2117838*
X1947391D02*
X1947618Y2117213D01*
X1947618D02*
Y2116275D01*
X1947391Y2115650*
X1947164Y2115338*
X1947164D02*
X1946482Y2115025D01*
X1944436*
X1953073Y2116900D02*
X1952845Y2117525D01*
X1952391Y2118150*
X1951936Y2118463*
X1951936D02*
X1951027D01*
X1951027D02*
X1950573Y2118150D01*
X1950118Y2117525*
X1949891Y2116900*
X1949664Y2115963*
X1949664D02*
Y2114400D01*
X1949891Y2113463*
X1949891D02*
X1950118Y2112838D01*
X1950118D02*
X1950573Y2112213D01*
X1950573D02*
X1951027Y2111900D01*
X1951936*
X1952391Y2112213*
X1952391D02*
X1952845Y2112838D01*
X1952845D02*
X1953073Y2113463D01*
X1958300Y2117525D02*
X1957845Y2118150D01*
X1957164Y2118463*
X1957164D02*
X1956255D01*
X1956255D02*
X1955573Y2118150D01*
X1955118Y2117525*
Y2116900*
X1955345Y2116275*
X1955573Y2115963*
X1955573D02*
X1956027Y2115650D01*
X1957391Y2115025*
X1957845Y2114713*
X1957845D02*
X1958073Y2114400D01*
X1958300Y2113775*
Y2112838*
X1958300D02*
X1957845Y2112213D01*
X1957845D02*
X1957164Y2111900D01*
X1956255*
X1955573Y2112213*
X1955573D02*
X1955118Y2112838D01*
X1961709Y2118463D02*
X1961027Y2118150D01*
X1960573Y2117213*
X1960573D02*
X1960345Y2115650D01*
Y2114713*
X1960345D02*
X1960573Y2113150D01*
X1961027Y2112213*
X1961027D02*
X1961709Y2111900D01*
X1962164*
X1962845Y2112213*
X1962845D02*
X1963300Y2113150D01*
X1963527Y2114713*
X1963527D02*
Y2115650D01*
X1963300Y2117213*
X1963300D02*
X1962845Y2118150D01*
X1962164Y2118463*
X1962164D02*
X1961709D01*
X1915800Y2108463D02*
Y2101900D01*
Y2108463D02*
X1917845D01*
X1917845D02*
X1918527Y2108150D01*
X1918755Y2107838*
X1918755D02*
X1918982Y2107213D01*
X1918982D02*
Y2106275D01*
X1918755Y2105650*
X1918527Y2105338*
X1918527D02*
X1917845Y2105025D01*
X1915800*
X1922845Y2108463D02*
X1921027Y2101900D01*
X1922845Y2108463D02*
X1924664Y2101900D01*
X1921709Y2104088D02*
X1923982D01*
X1926709Y2107213D02*
X1927164Y2107525D01*
X1927845Y2108463*
X1927845D02*
Y2101900D01*
X1930118Y2106900D02*
Y2107213D01*
X1930118D02*
X1930345Y2107838D01*
X1930345D02*
X1930573Y2108150D01*
X1931027Y2108463*
X1931027D02*
X1931936D01*
X1931936D02*
X1932391Y2108150D01*
X1932618Y2107838*
X1932618D02*
X1932845Y2107213D01*
X1932845D02*
Y2106588D01*
X1932845D02*
X1932618Y2105963D01*
X1932618D02*
X1932164Y2105025D01*
X1929891Y2101900*
X1933073*
X1939209Y2109713D02*
X1935118Y2099712D01*
X1941255Y2108463D02*
Y2101900D01*
Y2108463D02*
X1943073Y2101900D01*
X1944891Y2108463D02*
X1943073Y2101900D01*
X1944891Y2108463D02*
Y2101900D01*
X1946936Y2108463D02*
Y2101900D01*
X1952164Y2107525D02*
X1951709Y2108150D01*
X1951027Y2108463*
X1951027D02*
X1950118D01*
X1950118D02*
X1949436Y2108150D01*
X1948982Y2107525*
Y2106900*
X1949209Y2106275*
X1949436Y2105963*
X1949436D02*
X1949891Y2105650D01*
X1951255Y2105025*
X1951709Y2104713*
X1951709D02*
X1951936Y2104400D01*
X1952164Y2103775*
Y2102838*
X1952164D02*
X1951709Y2102213D01*
X1951709D02*
X1951027Y2101900D01*
X1950118*
X1949436Y2102213*
X1949436D02*
X1948982Y2102838D01*
X1955573Y2108463D02*
X1955118Y2108150D01*
X1954664Y2107525*
X1954436Y2106900*
X1954209Y2105963*
X1954209D02*
Y2104400D01*
X1954436Y2103463*
X1954436D02*
X1954664Y2102838D01*
X1954664D02*
X1955118Y2102213D01*
X1955118D02*
X1955573Y2101900D01*
X1956482*
X1956936Y2102213*
X1956936D02*
X1957391Y2102838D01*
X1957391D02*
X1957618Y2103463D01*
X1957618D02*
X1957845Y2104400D01*
Y2105963*
X1957845D02*
X1957618Y2106900D01*
X1957391Y2107525*
X1956936Y2108150*
X1956482Y2108463*
X1956482D02*
X1955573D01*
X1915800Y2098463D02*
Y2091900D01*
Y2098463D02*
X1917845D01*
X1917845D02*
X1918527Y2098150D01*
X1918755Y2097838*
X1918755D02*
X1918982Y2097213D01*
X1918982D02*
Y2096275D01*
X1918755Y2095650*
X1918527Y2095338*
X1918527D02*
X1917845Y2095025D01*
X1915800*
X1922845Y2098463D02*
X1921027Y2091900D01*
X1922845Y2098463D02*
X1924664Y2091900D01*
X1921709Y2094088D02*
X1923982D01*
X1926709Y2097213D02*
X1927164Y2097525D01*
X1927845Y2098463*
X1927845D02*
Y2091900D01*
X1930345Y2098463D02*
X1932845D01*
X1932845D02*
X1931482Y2095963D01*
X1931482D02*
X1932164D01*
X1932164D02*
X1932618Y2095650D01*
X1932845Y2095338*
X1932845D02*
X1933073Y2094400D01*
Y2093775*
X1932845Y2092838*
X1932845D02*
X1932391Y2092213D01*
X1932391D02*
X1931709Y2091900D01*
X1931027*
X1930345Y2092213*
X1930345D02*
X1930118Y2092525D01*
X1929891Y2093150*
X1939209Y2099713D02*
X1935118Y2089712D01*
X1941255Y2098463D02*
Y2091900D01*
Y2098463D02*
X1943073Y2091900D01*
X1944891Y2098463D02*
X1943073Y2091900D01*
X1944891Y2098463D02*
Y2091900D01*
X1948300Y2098463D02*
X1947845Y2098150D01*
X1947391Y2097525*
X1947164Y2096900*
X1946936Y2095963*
X1946936D02*
Y2094400D01*
X1947164Y2093463*
X1947164D02*
X1947391Y2092838D01*
X1947391D02*
X1947845Y2092213D01*
X1947845D02*
X1948300Y2091900D01*
X1949209*
X1949664Y2092213*
X1949664D02*
X1950118Y2092838D01*
X1950118D02*
X1950345Y2093463D01*
X1950345D02*
X1950573Y2094400D01*
Y2095963*
X1950573D02*
X1950345Y2096900D01*
X1950118Y2097525*
X1949664Y2098150*
X1949209Y2098463*
X1949209D02*
X1948300D01*
X1955800Y2097525D02*
X1955345Y2098150D01*
X1954664Y2098463*
X1954664D02*
X1953755D01*
X1953755D02*
X1953073Y2098150D01*
X1952618Y2097525*
Y2096900*
X1952845Y2096275*
X1953073Y2095963*
X1953073D02*
X1953527Y2095650D01*
X1954891Y2095025*
X1955345Y2094713*
X1955345D02*
X1955573Y2094400D01*
X1955800Y2093775*
Y2092838*
X1955800D02*
X1955345Y2092213D01*
X1955345D02*
X1954664Y2091900D01*
X1953755*
X1953073Y2092213*
X1953073D02*
X1952618Y2092838D01*
X1957845Y2098463D02*
Y2091900D01*
X1915800Y2088463D02*
Y2081900D01*
Y2088463D02*
X1917845D01*
X1917845D02*
X1918527Y2088150D01*
X1918755Y2087838*
X1918755D02*
X1918982Y2087213D01*
X1918982D02*
Y2086275D01*
X1918755Y2085650*
X1918527Y2085338*
X1918527D02*
X1917845Y2085025D01*
X1915800*
X1922845Y2088463D02*
X1921027Y2081900D01*
X1922845Y2088463D02*
X1924664Y2081900D01*
X1921709Y2084088D02*
X1923982D01*
X1926709Y2087213D02*
X1927164Y2087525D01*
X1927845Y2088463*
X1927845D02*
Y2081900D01*
X1932164Y2088463D02*
X1929891Y2084088D01*
X1929891D02*
X1933300D01*
X1932164Y2088463D02*
Y2081900D01*
X1939436Y2089713D02*
X1935345Y2079712D01*
X1944664Y2087525D02*
X1944209Y2088150D01*
X1943527Y2088463*
X1943527D02*
X1942618D01*
X1942618D02*
X1941936Y2088150D01*
X1941482Y2087525*
Y2086900*
X1941709Y2086275*
X1941936Y2085963*
X1941936D02*
X1942391Y2085650D01*
X1943755Y2085025*
X1944209Y2084713*
X1944209D02*
X1944436Y2084400D01*
X1944664Y2083775*
Y2082838*
X1944664D02*
X1944209Y2082213D01*
X1944209D02*
X1943527Y2081900D01*
X1942618*
X1941936Y2082213*
X1941936D02*
X1941482Y2082838D01*
X1946709Y2088463D02*
Y2081900D01*
Y2088463D02*
X1948755D01*
X1948755D02*
X1949436Y2088150D01*
X1949664Y2087838*
X1949664D02*
X1949891Y2087213D01*
X1949891D02*
Y2086275D01*
X1949664Y2085650*
X1949436Y2085338*
X1949436D02*
X1948755Y2085025D01*
X1946709*
X1955345Y2086900D02*
X1955118Y2087525D01*
X1954664Y2088150*
X1954209Y2088463*
X1954209D02*
X1953300D01*
X1953300D02*
X1952845Y2088150D01*
X1952391Y2087525*
X1952164Y2086900*
X1951936Y2085963*
X1951936D02*
Y2084400D01*
X1952164Y2083463*
X1952164D02*
X1952391Y2082838D01*
X1952391D02*
X1952845Y2082213D01*
X1952845D02*
X1953300Y2081900D01*
X1954209*
X1954664Y2082213*
X1954664D02*
X1955118Y2082838D01*
X1955118D02*
X1955345Y2083463D01*
X1957391Y2088463D02*
Y2081900D01*
X1960573Y2088463D02*
X1957391Y2084088D01*
X1958527Y2085650D02*
X1960573Y2081900D01*
X1915800Y2078463D02*
Y2071900D01*
Y2078463D02*
X1917845D01*
X1917845D02*
X1918527Y2078150D01*
X1918755Y2077838*
X1918755D02*
X1918982Y2077213D01*
X1918982D02*
Y2076275D01*
X1918755Y2075650*
X1918527Y2075338*
X1918527D02*
X1917845Y2075025D01*
X1915800*
X1922845Y2078463D02*
X1921027Y2071900D01*
X1922845Y2078463D02*
X1924664Y2071900D01*
X1921709Y2074088D02*
X1923982D01*
X1926709Y2077213D02*
X1927164Y2077525D01*
X1927845Y2078463*
X1927845D02*
Y2071900D01*
X1932845Y2078463D02*
X1930573D01*
X1930573D02*
X1930345Y2075650D01*
X1930573Y2075963*
X1930573D02*
X1931255Y2076275D01*
X1931936*
X1932618Y2075963*
X1932618D02*
X1933073Y2075338D01*
X1933073D02*
X1933300Y2074400D01*
X1933073Y2073775*
X1932845Y2072838*
X1932845D02*
X1932391Y2072213D01*
X1932391D02*
X1931709Y2071900D01*
X1931027*
X1930345Y2072213*
X1930345D02*
X1930118Y2072525D01*
X1929891Y2073150*
X1915800Y2068463D02*
Y2061900D01*
Y2068463D02*
X1917845D01*
X1917845D02*
X1918527Y2068150D01*
X1918755Y2067838*
X1918755D02*
X1918982Y2067213D01*
X1918982D02*
Y2066275D01*
X1918755Y2065650*
X1918527Y2065338*
X1918527D02*
X1917845Y2065025D01*
X1915800*
X1922845Y2068463D02*
X1921027Y2061900D01*
X1922845Y2068463D02*
X1924664Y2061900D01*
X1921709Y2064088D02*
X1923982D01*
X1926709Y2067213D02*
X1927164Y2067525D01*
X1927845Y2068463*
X1927845D02*
Y2061900D01*
X1932618Y2067525D02*
X1932391Y2068150D01*
X1931709Y2068463*
X1931709D02*
X1931255D01*
X1931255D02*
X1930573Y2068150D01*
X1930118Y2067213*
X1930118D02*
X1929891Y2065650D01*
Y2064088*
X1929891D02*
X1930118Y2062838D01*
X1930118D02*
X1930573Y2062213D01*
X1930573D02*
X1931255Y2061900D01*
X1931482*
X1932164Y2062213*
X1932164D02*
X1932618Y2062838D01*
X1932618D02*
X1932845Y2063775D01*
Y2064088*
X1932845D02*
X1932618Y2065025D01*
X1932164Y2065650*
X1931482Y2065963*
X1931482D02*
X1931255D01*
X1931255D02*
X1930573Y2065650D01*
X1930118Y2065025*
X1929891Y2064088*
X1915800Y2058463D02*
Y2051900D01*
Y2058463D02*
X1917845D01*
X1917845D02*
X1918527Y2058150D01*
X1918755Y2057838*
X1918755D02*
X1918982Y2057213D01*
X1918982D02*
Y2056275D01*
X1918755Y2055650*
X1918527Y2055338*
X1918527D02*
X1917845Y2055025D01*
X1915800*
X1922845Y2058463D02*
X1921027Y2051900D01*
X1922845Y2058463D02*
X1924664Y2051900D01*
X1921709Y2054088D02*
X1923982D01*
X1926709Y2057213D02*
X1927164Y2057525D01*
X1927845Y2058463*
X1927845D02*
Y2051900D01*
X1933073Y2058463D02*
X1930800Y2051900D01*
X1929891Y2058463D02*
X1933073D01*
X1939209Y2059713D02*
X1935118Y2049712D01*
X1943073Y2058463D02*
X1941255Y2051900D01*
X1943073Y2058463D02*
X1944891Y2051900D01*
X1941936Y2054088D02*
X1944209D01*
X1946936Y2058463D02*
Y2051900D01*
Y2058463D02*
X1948527D01*
X1948527D02*
X1949209Y2058150D01*
X1949664Y2057525*
X1949891Y2056900*
X1950118Y2055963*
X1950118D02*
Y2054400D01*
X1949891Y2053463*
X1949891D02*
X1949664Y2052838D01*
X1949664D02*
X1949209Y2052213D01*
X1949209D02*
X1948527Y2051900D01*
X1946936*
X1953527Y2058463D02*
X1952845Y2058150D01*
X1952391Y2057213*
X1952391D02*
X1952164Y2055650D01*
Y2054713*
X1952164D02*
X1952391Y2053150D01*
X1952845Y2052213*
X1952845D02*
X1953527Y2051900D01*
X1953982*
X1954664Y2052213*
X1954664D02*
X1955118Y2053150D01*
X1955345Y2054713*
X1955345D02*
Y2055650D01*
X1955118Y2057213*
X1955118D02*
X1954664Y2058150D01*
X1953982Y2058463*
X1953982D02*
X1953527D01*
X1915800Y2048463D02*
Y2041900D01*
Y2048463D02*
X1917845D01*
X1917845D02*
X1918527Y2048150D01*
X1918755Y2047838*
X1918755D02*
X1918982Y2047213D01*
X1918982D02*
Y2046275D01*
X1918755Y2045650*
X1918527Y2045338*
X1918527D02*
X1917845Y2045025D01*
X1915800*
X1922845Y2048463D02*
X1921027Y2041900D01*
X1922845Y2048463D02*
X1924664Y2041900D01*
X1921709Y2044088D02*
X1923982D01*
X1926709Y2047213D02*
X1927164Y2047525D01*
X1927845Y2048463*
X1927845D02*
Y2041900D01*
X1931027Y2048463D02*
X1930345Y2048150D01*
X1930118Y2047525*
Y2046900*
X1930345Y2046275*
X1930800Y2045963*
X1930800D02*
X1931709Y2045650D01*
X1932391Y2045338*
X1932391D02*
X1932845Y2044713D01*
X1932845D02*
X1933073Y2044088D01*
X1933073D02*
Y2043150D01*
X1932845Y2042525*
X1932618Y2042213*
X1932618D02*
X1931936Y2041900D01*
X1931027*
X1930345Y2042213*
X1930345D02*
X1930118Y2042525D01*
X1929891Y2043150*
Y2044088*
X1929891D02*
X1930118Y2044713D01*
X1930118D02*
X1930573Y2045338D01*
X1930573D02*
X1931255Y2045650D01*
X1932164Y2045963*
X1932164D02*
X1932618Y2046275D01*
X1932845Y2046900*
Y2047525*
X1932618Y2048150*
X1931936Y2048463*
X1931936D02*
X1931027D01*
X1939209Y2049713D02*
X1935118Y2039712D01*
X1943073Y2048463D02*
X1941255Y2041900D01*
X1943073Y2048463D02*
X1944891Y2041900D01*
X1941936Y2044088D02*
X1944209D01*
X1946936Y2048463D02*
Y2041900D01*
Y2048463D02*
X1948527D01*
X1948527D02*
X1949209Y2048150D01*
X1949664Y2047525*
X1949891Y2046900*
X1950118Y2045963*
X1950118D02*
Y2044400D01*
X1949891Y2043463*
X1949891D02*
X1949664Y2042838D01*
X1949664D02*
X1949209Y2042213D01*
X1949209D02*
X1948527Y2041900D01*
X1946936*
X1952164Y2047213D02*
X1952618Y2047525D01*
X1953300Y2048463*
X1953300D02*
Y2041900D01*
X1915800Y2038463D02*
Y2031900D01*
Y2038463D02*
X1917845D01*
X1917845D02*
X1918527Y2038150D01*
X1918755Y2037838*
X1918755D02*
X1918982Y2037213D01*
X1918982D02*
Y2036275D01*
X1918755Y2035650*
X1918527Y2035338*
X1918527D02*
X1917845Y2035025D01*
X1915800*
X1922845Y2038463D02*
X1921027Y2031900D01*
X1922845Y2038463D02*
X1924664Y2031900D01*
X1921709Y2034088D02*
X1923982D01*
X1926709Y2037213D02*
X1927164Y2037525D01*
X1927845Y2038463*
X1927845D02*
Y2031900D01*
X1932845Y2036275D02*
X1932618Y2035338D01*
X1932618D02*
X1932164Y2034713D01*
X1932164D02*
X1931482Y2034400D01*
X1931255*
X1930573Y2034713*
X1930573D02*
X1930118Y2035338D01*
X1930118D02*
X1929891Y2036275D01*
Y2036588*
X1929891D02*
X1930118Y2037525D01*
X1930573Y2038150*
X1931255Y2038463*
X1931255D02*
X1931482D01*
X1931482D02*
X1932164Y2038150D01*
X1932618Y2037525*
X1932845Y2036275*
Y2034713*
X1932845D02*
X1932618Y2033150D01*
X1932164Y2032213*
X1932164D02*
X1931482Y2031900D01*
X1931027*
X1930345Y2032213*
X1930345D02*
X1930118Y2032838D01*
X1938982Y2039713D02*
X1934891Y2029712D01*
X1942845Y2038463D02*
X1941027Y2031900D01*
X1942845Y2038463D02*
X1944664Y2031900D01*
X1941709Y2034088D02*
X1943982D01*
X1946709Y2038463D02*
Y2031900D01*
Y2038463D02*
X1948300D01*
X1948300D02*
X1948982Y2038150D01*
X1949436Y2037525*
X1949664Y2036900*
X1949891Y2035963*
X1949891D02*
Y2034400D01*
X1949664Y2033463*
X1949664D02*
X1949436Y2032838D01*
X1949436D02*
X1948982Y2032213D01*
X1948982D02*
X1948300Y2031900D01*
X1946709*
X1952164Y2036900D02*
Y2037213D01*
X1952164D02*
X1952391Y2037838D01*
X1952391D02*
X1952618Y2038150D01*
X1953073Y2038463*
X1953073D02*
X1953982D01*
X1953982D02*
X1954436Y2038150D01*
X1954664Y2037838*
X1954664D02*
X1954891Y2037213D01*
X1954891D02*
Y2036588D01*
X1954891D02*
X1954664Y2035963D01*
X1954664D02*
X1954209Y2035025D01*
X1951936Y2031900*
X1955118*
X1915800Y2028463D02*
Y2021900D01*
Y2028463D02*
X1917845D01*
X1917845D02*
X1918527Y2028150D01*
X1918755Y2027838*
X1918755D02*
X1918982Y2027213D01*
X1918982D02*
Y2026275D01*
X1918755Y2025650*
X1918527Y2025338*
X1918527D02*
X1917845Y2025025D01*
X1915800*
X1922845Y2028463D02*
X1921027Y2021900D01*
X1922845Y2028463D02*
X1924664Y2021900D01*
X1921709Y2024088D02*
X1923982D01*
X1926936Y2026900D02*
Y2027213D01*
X1926936D02*
X1927164Y2027838D01*
X1927164D02*
X1927391Y2028150D01*
X1927845Y2028463*
X1927845D02*
X1928755D01*
X1928755D02*
X1929209Y2028150D01*
X1929436Y2027838*
X1929436D02*
X1929664Y2027213D01*
X1929664D02*
Y2026588D01*
X1929664D02*
X1929436Y2025963D01*
X1929436D02*
X1928982Y2025025D01*
X1926709Y2021900*
X1929891*
X1933300Y2028463D02*
X1932618Y2028150D01*
X1932164Y2027213*
X1932164D02*
X1931936Y2025650D01*
Y2024713*
X1931936D02*
X1932164Y2023150D01*
X1932618Y2022213*
X1932618D02*
X1933300Y2021900D01*
X1933755*
X1934436Y2022213*
X1934436D02*
X1934891Y2023150D01*
X1935118Y2024713*
X1935118D02*
Y2025650D01*
X1934891Y2027213*
X1934891D02*
X1934436Y2028150D01*
X1933755Y2028463*
X1933755D02*
X1933300D01*
X1941255Y2029713D02*
X1937164Y2019712D01*
X1945118Y2028463D02*
X1943300Y2021900D01*
X1945118Y2028463D02*
X1946936Y2021900D01*
X1943982Y2024088D02*
X1946255D01*
X1948982Y2028463D02*
Y2021900D01*
Y2028463D02*
X1950573D01*
X1950573D02*
X1951255Y2028150D01*
X1951709Y2027525*
X1951936Y2026900*
X1952164Y2025963*
X1952164D02*
Y2024400D01*
X1951936Y2023463*
X1951936D02*
X1951709Y2022838D01*
X1951709D02*
X1951255Y2022213D01*
X1951255D02*
X1950573Y2021900D01*
X1948982*
X1954664Y2028463D02*
X1957164D01*
X1957164D02*
X1955800Y2025963D01*
X1955800D02*
X1956482D01*
X1956482D02*
X1956936Y2025650D01*
X1957164Y2025338*
X1957164D02*
X1957391Y2024400D01*
Y2023775*
X1957164Y2022838*
X1957164D02*
X1956709Y2022213D01*
X1956709D02*
X1956027Y2021900D01*
X1955345*
X1954664Y2022213*
X1954664D02*
X1954436Y2022525D01*
X1954209Y2023150*
X1915800Y2018463D02*
Y2011900D01*
Y2018463D02*
X1917845D01*
X1917845D02*
X1918527Y2018150D01*
X1918755Y2017838*
X1918755D02*
X1918982Y2017213D01*
X1918982D02*
Y2016275D01*
X1918755Y2015650*
X1918527Y2015338*
X1918527D02*
X1917845Y2015025D01*
X1915800*
X1922845Y2018463D02*
X1921027Y2011900D01*
X1922845Y2018463D02*
X1924664Y2011900D01*
X1921709Y2014088D02*
X1923982D01*
X1926936Y2016900D02*
Y2017213D01*
X1926936D02*
X1927164Y2017838D01*
X1927164D02*
X1927391Y2018150D01*
X1927845Y2018463*
X1927845D02*
X1928755D01*
X1928755D02*
X1929209Y2018150D01*
X1929436Y2017838*
X1929436D02*
X1929664Y2017213D01*
X1929664D02*
Y2016588D01*
X1929664D02*
X1929436Y2015963D01*
X1929436D02*
X1928982Y2015025D01*
X1926709Y2011900*
X1929891*
X1931936Y2017213D02*
X1932391Y2017525D01*
X1933073Y2018463*
X1933073D02*
Y2011900D01*
X1939209Y2019713D02*
X1935118Y2009712D01*
X1943073Y2018463D02*
X1941255Y2011900D01*
X1943073Y2018463D02*
X1944891Y2011900D01*
X1941936Y2014088D02*
X1944209D01*
X1946936Y2018463D02*
Y2011900D01*
Y2018463D02*
X1948527D01*
X1948527D02*
X1949209Y2018150D01*
X1949664Y2017525*
X1949891Y2016900*
X1950118Y2015963*
X1950118D02*
Y2014400D01*
X1949891Y2013463*
X1949891D02*
X1949664Y2012838D01*
X1949664D02*
X1949209Y2012213D01*
X1949209D02*
X1948527Y2011900D01*
X1946936*
X1953300Y2018463D02*
X1952618Y2018150D01*
X1952391Y2017525*
Y2016900*
X1952618Y2016275*
X1953073Y2015963*
X1953073D02*
X1953982Y2015650D01*
X1954664Y2015338*
X1954664D02*
X1955118Y2014713D01*
X1955118D02*
X1955345Y2014088D01*
X1955345D02*
Y2013150D01*
X1955118Y2012525*
X1954891Y2012213*
X1954891D02*
X1954209Y2011900D01*
X1953300*
X1952618Y2012213*
X1952618D02*
X1952391Y2012525D01*
X1952164Y2013150*
Y2014088*
X1952164D02*
X1952391Y2014713D01*
X1952391D02*
X1952845Y2015338D01*
X1952845D02*
X1953527Y2015650D01*
X1954436Y2015963*
X1954436D02*
X1954891Y2016275D01*
X1955118Y2016900*
Y2017525*
X1954891Y2018150*
X1954209Y2018463*
X1954209D02*
X1953300D01*
X1961482Y2019713D02*
X1957391Y2009712D01*
X1963527Y2018463D02*
Y2011900D01*
Y2018463D02*
X1965345Y2011900D01*
X1967164Y2018463D02*
X1965345Y2011900D01*
X1967164Y2018463D02*
Y2011900D01*
X1970573Y2018463D02*
X1970118Y2018150D01*
X1969664Y2017525*
X1969436Y2016900*
X1969209Y2015963*
X1969209D02*
Y2014400D01*
X1969436Y2013463*
X1969436D02*
X1969664Y2012838D01*
X1969664D02*
X1970118Y2012213D01*
X1970118D02*
X1970573Y2011900D01*
X1971482*
X1971936Y2012213*
X1971936D02*
X1972391Y2012838D01*
X1972391D02*
X1972618Y2013463D01*
X1972618D02*
X1972845Y2014400D01*
Y2015963*
X1972845D02*
X1972618Y2016900D01*
X1972391Y2017525*
X1971936Y2018150*
X1971482Y2018463*
X1971482D02*
X1970573D01*
X1978073Y2017525D02*
X1977618Y2018150D01*
X1976936Y2018463*
X1976936D02*
X1976027D01*
X1976027D02*
X1975345Y2018150D01*
X1974891Y2017525*
Y2016900*
X1975118Y2016275*
X1975345Y2015963*
X1975345D02*
X1975800Y2015650D01*
X1977164Y2015025*
X1977618Y2014713*
X1977618D02*
X1977845Y2014400D01*
X1978073Y2013775*
Y2012838*
X1978073D02*
X1977618Y2012213D01*
X1977618D02*
X1976936Y2011900D01*
X1976027*
X1975345Y2012213*
X1975345D02*
X1974891Y2012838D01*
X1980118Y2018463D02*
Y2011900D01*
X1982164Y2017213D02*
X1982618Y2017525D01*
X1983300Y2018463*
X1983300D02*
Y2011900D01*
X1915800Y2008463D02*
Y2001900D01*
Y2008463D02*
X1917845D01*
X1917845D02*
X1918527Y2008150D01*
X1918755Y2007838*
X1918755D02*
X1918982Y2007213D01*
X1918982D02*
Y2006275D01*
X1918755Y2005650*
X1918527Y2005338*
X1918527D02*
X1917845Y2005025D01*
X1915800*
X1922845Y2008463D02*
X1921027Y2001900D01*
X1922845Y2008463D02*
X1924664Y2001900D01*
X1921709Y2004088D02*
X1923982D01*
X1926936Y2006900D02*
Y2007213D01*
X1926936D02*
X1927164Y2007838D01*
X1927164D02*
X1927391Y2008150D01*
X1927845Y2008463*
X1927845D02*
X1928755D01*
X1928755D02*
X1929209Y2008150D01*
X1929436Y2007838*
X1929436D02*
X1929664Y2007213D01*
X1929664D02*
Y2006588D01*
X1929664D02*
X1929436Y2005963D01*
X1929436D02*
X1928982Y2005025D01*
X1926709Y2001900*
X1929891*
X1932164Y2006900D02*
Y2007213D01*
X1932164D02*
X1932391Y2007838D01*
X1932391D02*
X1932618Y2008150D01*
X1933073Y2008463*
X1933073D02*
X1933982D01*
X1933982D02*
X1934436Y2008150D01*
X1934664Y2007838*
X1934664D02*
X1934891Y2007213D01*
X1934891D02*
Y2006588D01*
X1934891D02*
X1934664Y2005963D01*
X1934664D02*
X1934209Y2005025D01*
X1931936Y2001900*
X1935118*
X1941255Y2009713D02*
X1937164Y1999712D01*
X1945118Y2008463D02*
X1943300Y2001900D01*
X1945118Y2008463D02*
X1946936Y2001900D01*
X1943982Y2004088D02*
X1946255D01*
X1948982Y2008463D02*
Y2001900D01*
Y2008463D02*
X1950573D01*
X1950573D02*
X1951255Y2008150D01*
X1951709Y2007525*
X1951936Y2006900*
X1952164Y2005963*
X1952164D02*
Y2004400D01*
X1951936Y2003463*
X1951936D02*
X1951709Y2002838D01*
X1951709D02*
X1951255Y2002213D01*
X1951255D02*
X1950573Y2001900D01*
X1948982*
X1957164Y2006275D02*
X1956936Y2005338D01*
X1956936D02*
X1956482Y2004713D01*
X1956482D02*
X1955800Y2004400D01*
X1955573*
X1954891Y2004713*
X1954891D02*
X1954436Y2005338D01*
X1954436D02*
X1954209Y2006275D01*
Y2006588*
X1954209D02*
X1954436Y2007525D01*
X1954891Y2008150*
X1955573Y2008463*
X1955573D02*
X1955800D01*
X1955800D02*
X1956482Y2008150D01*
X1956936Y2007525*
X1957164Y2006275*
Y2004713*
X1957164D02*
X1956936Y2003150D01*
X1956482Y2002213*
X1956482D02*
X1955800Y2001900D01*
X1955345*
X1954664Y2002213*
X1954664D02*
X1954436Y2002838D01*
X1963300Y2009713D02*
X1959209Y1999712D01*
X1965345Y2008463D02*
Y2001900D01*
Y2008463D02*
X1967164Y2001900D01*
X1968982Y2008463D02*
X1967164Y2001900D01*
X1968982Y2008463D02*
Y2001900D01*
X1971027Y2008463D02*
Y2001900D01*
X1976255Y2007525D02*
X1975800Y2008150D01*
X1975118Y2008463*
X1975118D02*
X1974209D01*
X1974209D02*
X1973527Y2008150D01*
X1973073Y2007525*
Y2006900*
X1973300Y2006275*
X1973527Y2005963*
X1973527D02*
X1973982Y2005650D01*
X1975345Y2005025*
X1975800Y2004713*
X1975800D02*
X1976027Y2004400D01*
X1976255Y2003775*
Y2002838*
X1976255D02*
X1975800Y2002213D01*
X1975800D02*
X1975118Y2001900D01*
X1974209*
X1973527Y2002213*
X1973527D02*
X1973073Y2002838D01*
X1979664Y2008463D02*
X1979209Y2008150D01*
X1978755Y2007525*
X1978527Y2006900*
X1978300Y2005963*
X1978300D02*
Y2004400D01*
X1978527Y2003463*
X1978527D02*
X1978755Y2002838D01*
X1978755D02*
X1979209Y2002213D01*
X1979209D02*
X1979664Y2001900D01*
X1980573*
X1981027Y2002213*
X1981027D02*
X1981482Y2002838D01*
X1981482D02*
X1981709Y2003463D01*
X1981709D02*
X1981936Y2004400D01*
Y2005963*
X1981936D02*
X1981709Y2006900D01*
X1981482Y2007525*
X1981027Y2008150*
X1980573Y2008463*
X1980573D02*
X1979664D01*
X1983982Y2007213D02*
X1984436Y2007525D01*
X1985118Y2008463*
X1985118D02*
Y2001900D01*
X1915800Y1998463D02*
Y1991900D01*
Y1998463D02*
X1917845D01*
X1917845D02*
X1918527Y1998150D01*
X1918755Y1997838*
X1918755D02*
X1918982Y1997213D01*
X1918982D02*
Y1996275D01*
X1918755Y1995650*
X1918527Y1995338*
X1918527D02*
X1917845Y1995025D01*
X1915800*
X1922845Y1998463D02*
X1921027Y1991900D01*
X1922845Y1998463D02*
X1924664Y1991900D01*
X1921709Y1994088D02*
X1923982D01*
X1926936Y1996900D02*
Y1997213D01*
X1926936D02*
X1927164Y1997838D01*
X1927164D02*
X1927391Y1998150D01*
X1927845Y1998463*
X1927845D02*
X1928755D01*
X1928755D02*
X1929209Y1998150D01*
X1929436Y1997838*
X1929436D02*
X1929664Y1997213D01*
X1929664D02*
Y1996588D01*
X1929664D02*
X1929436Y1995963D01*
X1929436D02*
X1928982Y1995025D01*
X1926709Y1991900*
X1929891*
X1932391Y1998463D02*
X1934891D01*
X1934891D02*
X1933527Y1995963D01*
X1933527D02*
X1934209D01*
X1934209D02*
X1934664Y1995650D01*
X1934891Y1995338*
X1934891D02*
X1935118Y1994400D01*
Y1993775*
X1934891Y1992838*
X1934891D02*
X1934436Y1992213D01*
X1934436D02*
X1933755Y1991900D01*
X1933073*
X1932391Y1992213*
X1932391D02*
X1932164Y1992525D01*
X1931936Y1993150*
X1941255Y1999713D02*
X1937164Y1989712D01*
X1946482Y1997525D02*
X1946027Y1998150D01*
X1945345Y1998463*
X1945345D02*
X1944436D01*
X1944436D02*
X1943755Y1998150D01*
X1943300Y1997525*
Y1996900*
X1943527Y1996275*
X1943755Y1995963*
X1943755D02*
X1944209Y1995650D01*
X1945573Y1995025*
X1946027Y1994713*
X1946027D02*
X1946255Y1994400D01*
X1946482Y1993775*
Y1992838*
X1946482D02*
X1946027Y1992213D01*
X1946027D02*
X1945345Y1991900D01*
X1944436*
X1943755Y1992213*
X1943755D02*
X1943300Y1992838D01*
X1951936Y1996900D02*
X1951709Y1997525D01*
X1951255Y1998150*
X1950800Y1998463*
X1950800D02*
X1949891D01*
X1949891D02*
X1949436Y1998150D01*
X1948982Y1997525*
X1948755Y1996900*
X1948527Y1995963*
X1948527D02*
Y1994400D01*
X1948755Y1993463*
X1948755D02*
X1948982Y1992838D01*
X1948982D02*
X1949436Y1992213D01*
X1949436D02*
X1949891Y1991900D01*
X1950800*
X1951255Y1992213*
X1951255D02*
X1951709Y1992838D01*
X1951709D02*
X1951936Y1993463D01*
X1953982Y1998463D02*
Y1991900D01*
X1957164Y1998463D02*
X1953982Y1994088D01*
X1955118Y1995650D02*
X1957164Y1991900D01*
X1959209Y1997213D02*
X1959664Y1997525D01*
X1960345Y1998463*
X1960345D02*
Y1991900D01*
X1915800Y1988463D02*
Y1981900D01*
Y1988463D02*
X1917845D01*
X1917845D02*
X1918527Y1988150D01*
X1918755Y1987838*
X1918755D02*
X1918982Y1987213D01*
X1918982D02*
Y1986275D01*
X1918755Y1985650*
X1918527Y1985338*
X1918527D02*
X1917845Y1985025D01*
X1915800*
X1922845Y1988463D02*
X1921027Y1981900D01*
X1922845Y1988463D02*
X1924664Y1981900D01*
X1921709Y1984088D02*
X1923982D01*
X1926936Y1986900D02*
Y1987213D01*
X1926936D02*
X1927164Y1987838D01*
X1927164D02*
X1927391Y1988150D01*
X1927845Y1988463*
X1927845D02*
X1928755D01*
X1928755D02*
X1929209Y1988150D01*
X1929436Y1987838*
X1929436D02*
X1929664Y1987213D01*
X1929664D02*
Y1986588D01*
X1929664D02*
X1929436Y1985963D01*
X1929436D02*
X1928982Y1985025D01*
X1926709Y1981900*
X1929891*
X1934209Y1988463D02*
X1931936Y1984088D01*
X1931936D02*
X1935345D01*
X1934209Y1988463D02*
Y1981900D01*
X1941482Y1989713D02*
X1937391Y1979712D01*
X1943527Y1988463D02*
Y1981900D01*
Y1988463D02*
X1946709Y1981900D01*
Y1988463D02*
Y1981900D01*
X1951936Y1987525D02*
X1951482Y1988150D01*
X1950800Y1988463*
X1950800D02*
X1949891D01*
X1949891D02*
X1949209Y1988150D01*
X1948755Y1987525*
Y1986900*
X1948982Y1986275*
X1949209Y1985963*
X1949209D02*
X1949664Y1985650D01*
X1951027Y1985025*
X1951482Y1984713*
X1951482D02*
X1951709Y1984400D01*
X1951936Y1983775*
Y1982838*
X1951936D02*
X1951482Y1982213D01*
X1951482D02*
X1950800Y1981900D01*
X1949891*
X1949209Y1982213*
X1949209D02*
X1948755Y1982838D01*
X1957164Y1987525D02*
X1956709Y1988150D01*
X1956027Y1988463*
X1956027D02*
X1955118D01*
X1955118D02*
X1954436Y1988150D01*
X1953982Y1987525*
Y1986900*
X1954209Y1986275*
X1954436Y1985963*
X1954436D02*
X1954891Y1985650D01*
X1956255Y1985025*
X1956709Y1984713*
X1956709D02*
X1956936Y1984400D01*
X1957164Y1983775*
Y1982838*
X1957164D02*
X1956709Y1982213D01*
X1956709D02*
X1956027Y1981900D01*
X1955118*
X1954436Y1982213*
X1954436D02*
X1953982Y1982838D01*
X1959209Y1987213D02*
X1959664Y1987525D01*
X1960345Y1988463*
X1960345D02*
Y1981900D01*
X1915800Y1978463D02*
Y1971900D01*
Y1978463D02*
X1917845D01*
X1917845D02*
X1918527Y1978150D01*
X1918755Y1977838*
X1918755D02*
X1918982Y1977213D01*
X1918982D02*
Y1976275D01*
X1918755Y1975650*
X1918527Y1975338*
X1918527D02*
X1917845Y1975025D01*
X1915800*
X1922845Y1978463D02*
X1921027Y1971900D01*
X1922845Y1978463D02*
X1924664Y1971900D01*
X1921709Y1974088D02*
X1923982D01*
X1926936Y1976900D02*
Y1977213D01*
X1926936D02*
X1927164Y1977838D01*
X1927164D02*
X1927391Y1978150D01*
X1927845Y1978463*
X1927845D02*
X1928755D01*
X1928755D02*
X1929209Y1978150D01*
X1929436Y1977838*
X1929436D02*
X1929664Y1977213D01*
X1929664D02*
Y1976588D01*
X1929664D02*
X1929436Y1975963D01*
X1929436D02*
X1928982Y1975025D01*
X1926709Y1971900*
X1929891*
X1934891Y1978463D02*
X1932618D01*
X1932618D02*
X1932391Y1975650D01*
X1932618Y1975963*
X1932618D02*
X1933300Y1976275D01*
X1933982*
X1934664Y1975963*
X1934664D02*
X1935118Y1975338D01*
X1935118D02*
X1935345Y1974400D01*
X1935118Y1973775*
X1934891Y1972838*
X1934891D02*
X1934436Y1972213D01*
X1934436D02*
X1933755Y1971900D01*
X1933073*
X1932391Y1972213*
X1932391D02*
X1932164Y1972525D01*
X1931936Y1973150*
X1915800Y1968463D02*
Y1961900D01*
Y1968463D02*
X1917845D01*
X1917845D02*
X1918527Y1968150D01*
X1918755Y1967838*
X1918755D02*
X1918982Y1967213D01*
X1918982D02*
Y1966275D01*
X1918755Y1965650*
X1918527Y1965338*
X1918527D02*
X1917845Y1965025D01*
X1915800*
X1922845Y1968463D02*
X1921027Y1961900D01*
X1922845Y1968463D02*
X1924664Y1961900D01*
X1921709Y1964088D02*
X1923982D01*
X1926936Y1966900D02*
Y1967213D01*
X1926936D02*
X1927164Y1967838D01*
X1927164D02*
X1927391Y1968150D01*
X1927845Y1968463*
X1927845D02*
X1928755D01*
X1928755D02*
X1929209Y1968150D01*
X1929436Y1967838*
X1929436D02*
X1929664Y1967213D01*
X1929664D02*
Y1966588D01*
X1929664D02*
X1929436Y1965963D01*
X1929436D02*
X1928982Y1965025D01*
X1926709Y1961900*
X1929891*
X1934664Y1967525D02*
X1934436Y1968150D01*
X1933755Y1968463*
X1933755D02*
X1933300D01*
X1933300D02*
X1932618Y1968150D01*
X1932164Y1967213*
X1932164D02*
X1931936Y1965650D01*
Y1964088*
X1931936D02*
X1932164Y1962838D01*
X1932164D02*
X1932618Y1962213D01*
X1932618D02*
X1933300Y1961900D01*
X1933527*
X1934209Y1962213*
X1934209D02*
X1934664Y1962838D01*
X1934664D02*
X1934891Y1963775D01*
Y1964088*
X1934891D02*
X1934664Y1965025D01*
X1934209Y1965650*
X1933527Y1965963*
X1933527D02*
X1933300D01*
X1933300D02*
X1932618Y1965650D01*
X1932164Y1965025*
X1931936Y1964088*
X1915800Y1958463D02*
Y1951900D01*
Y1958463D02*
X1917845D01*
X1917845D02*
X1918527Y1958150D01*
X1918755Y1957838*
X1918755D02*
X1918982Y1957213D01*
X1918982D02*
Y1956275D01*
X1918755Y1955650*
X1918527Y1955338*
X1918527D02*
X1917845Y1955025D01*
X1915800*
X1922845Y1958463D02*
X1921027Y1951900D01*
X1922845Y1958463D02*
X1924664Y1951900D01*
X1921709Y1954088D02*
X1923982D01*
X1926936Y1956900D02*
Y1957213D01*
X1926936D02*
X1927164Y1957838D01*
X1927164D02*
X1927391Y1958150D01*
X1927845Y1958463*
X1927845D02*
X1928755D01*
X1928755D02*
X1929209Y1958150D01*
X1929436Y1957838*
X1929436D02*
X1929664Y1957213D01*
X1929664D02*
Y1956588D01*
X1929664D02*
X1929436Y1955963D01*
X1929436D02*
X1928982Y1955025D01*
X1926709Y1951900*
X1929891*
X1935118Y1958463D02*
X1932845Y1951900D01*
X1931936Y1958463D02*
X1935118D01*
X1915800Y1948463D02*
Y1941900D01*
Y1948463D02*
X1917845D01*
X1917845D02*
X1918527Y1948150D01*
X1918755Y1947838*
X1918755D02*
X1918982Y1947213D01*
X1918982D02*
Y1946275D01*
X1918755Y1945650*
X1918527Y1945338*
X1918527D02*
X1917845Y1945025D01*
X1915800*
X1922845Y1948463D02*
X1921027Y1941900D01*
X1922845Y1948463D02*
X1924664Y1941900D01*
X1921709Y1944088D02*
X1923982D01*
X1926936Y1946900D02*
Y1947213D01*
X1926936D02*
X1927164Y1947838D01*
X1927164D02*
X1927391Y1948150D01*
X1927845Y1948463*
X1927845D02*
X1928755D01*
X1928755D02*
X1929209Y1948150D01*
X1929436Y1947838*
X1929436D02*
X1929664Y1947213D01*
X1929664D02*
Y1946588D01*
X1929664D02*
X1929436Y1945963D01*
X1929436D02*
X1928982Y1945025D01*
X1926709Y1941900*
X1929891*
X1933073Y1948463D02*
X1932391Y1948150D01*
X1932164Y1947525*
Y1946900*
X1932391Y1946275*
X1932845Y1945963*
X1932845D02*
X1933755Y1945650D01*
X1934436Y1945338*
X1934436D02*
X1934891Y1944713D01*
X1934891D02*
X1935118Y1944088D01*
X1935118D02*
Y1943150D01*
X1934891Y1942525*
X1934664Y1942213*
X1934664D02*
X1933982Y1941900D01*
X1933073*
X1932391Y1942213*
X1932391D02*
X1932164Y1942525D01*
X1931936Y1943150*
Y1944088*
X1931936D02*
X1932164Y1944713D01*
X1932164D02*
X1932618Y1945338D01*
X1932618D02*
X1933300Y1945650D01*
X1934209Y1945963*
X1934209D02*
X1934664Y1946275D01*
X1934891Y1946900*
Y1947525*
X1934664Y1948150*
X1933982Y1948463*
X1933982D02*
X1933073D01*
X1915800Y1938463D02*
Y1931900D01*
Y1938463D02*
X1917845D01*
X1917845D02*
X1918527Y1938150D01*
X1918755Y1937838*
X1918755D02*
X1918982Y1937213D01*
X1918982D02*
Y1936275D01*
X1918755Y1935650*
X1918527Y1935338*
X1918527D02*
X1917845Y1935025D01*
X1915800*
X1922845Y1938463D02*
X1921027Y1931900D01*
X1922845Y1938463D02*
X1924664Y1931900D01*
X1921709Y1934088D02*
X1923982D01*
X1926936Y1936900D02*
Y1937213D01*
X1926936D02*
X1927164Y1937838D01*
X1927164D02*
X1927391Y1938150D01*
X1927845Y1938463*
X1927845D02*
X1928755D01*
X1928755D02*
X1929209Y1938150D01*
X1929436Y1937838*
X1929436D02*
X1929664Y1937213D01*
X1929664D02*
Y1936588D01*
X1929664D02*
X1929436Y1935963D01*
X1929436D02*
X1928982Y1935025D01*
X1926709Y1931900*
X1929891*
X1934891Y1936275D02*
X1934664Y1935338D01*
X1934664D02*
X1934209Y1934713D01*
X1934209D02*
X1933527Y1934400D01*
X1933300*
X1932618Y1934713*
X1932618D02*
X1932164Y1935338D01*
X1932164D02*
X1931936Y1936275D01*
Y1936588*
X1931936D02*
X1932164Y1937525D01*
X1932618Y1938150*
X1933300Y1938463*
X1933300D02*
X1933527D01*
X1933527D02*
X1934209Y1938150D01*
X1934664Y1937525*
X1934891Y1936275*
Y1934713*
X1934891D02*
X1934664Y1933150D01*
X1934209Y1932213*
X1934209D02*
X1933527Y1931900D01*
X1933073*
X1932391Y1932213*
X1932391D02*
X1932164Y1932838D01*
X1915800Y1928463D02*
Y1921900D01*
Y1928463D02*
X1917845D01*
X1917845D02*
X1918527Y1928150D01*
X1918755Y1927838*
X1918755D02*
X1918982Y1927213D01*
X1918982D02*
Y1926275D01*
X1918755Y1925650*
X1918527Y1925338*
X1918527D02*
X1917845Y1925025D01*
X1915800*
X1922845Y1928463D02*
X1921027Y1921900D01*
X1922845Y1928463D02*
X1924664Y1921900D01*
X1921709Y1924088D02*
X1923982D01*
X1927164Y1928463D02*
X1929664D01*
X1929664D02*
X1928300Y1925963D01*
X1928300D02*
X1928982D01*
X1928982D02*
X1929436Y1925650D01*
X1929664Y1925338*
X1929664D02*
X1929891Y1924400D01*
Y1923775*
X1929664Y1922838*
X1929664D02*
X1929209Y1922213D01*
X1929209D02*
X1928527Y1921900D01*
X1927845*
X1927164Y1922213*
X1927164D02*
X1926936Y1922525D01*
X1926709Y1923150*
X1933300Y1928463D02*
X1932618Y1928150D01*
X1932164Y1927213*
X1932164D02*
X1931936Y1925650D01*
Y1924713*
X1931936D02*
X1932164Y1923150D01*
X1932618Y1922213*
X1932618D02*
X1933300Y1921900D01*
X1933755*
X1934436Y1922213*
X1934436D02*
X1934891Y1923150D01*
X1935118Y1924713*
X1935118D02*
Y1925650D01*
X1934891Y1927213*
X1934891D02*
X1934436Y1928150D01*
X1933755Y1928463*
X1933755D02*
X1933300D01*
X1915800Y1918463D02*
Y1911900D01*
Y1918463D02*
X1917845D01*
X1917845D02*
X1918527Y1918150D01*
X1918755Y1917838*
X1918755D02*
X1918982Y1917213D01*
X1918982D02*
Y1916275D01*
X1918755Y1915650*
X1918527Y1915338*
X1918527D02*
X1917845Y1915025D01*
X1915800*
X1921027Y1918463D02*
Y1911900D01*
Y1918463D02*
X1923073D01*
X1923073D02*
X1923755Y1918150D01*
X1923982Y1917838*
X1923982D02*
X1924209Y1917213D01*
X1924209D02*
Y1916588D01*
X1924209D02*
X1923982Y1915963D01*
X1923982D02*
X1923755Y1915650D01*
X1923073Y1915338*
X1921027D02*
X1923073D01*
X1923073D02*
X1923755Y1915025D01*
X1923982Y1914713*
X1923982D02*
X1924209Y1914088D01*
X1924209D02*
Y1913150D01*
X1923982Y1912525*
X1923755Y1912213*
X1923755D02*
X1923073Y1911900D01*
X1921027*
X1928527Y1918463D02*
X1926255Y1914088D01*
X1926255D02*
X1929664D01*
X1928527Y1918463D02*
Y1911900D01*
X1935800Y1919713D02*
X1931709Y1909712D01*
X1939436Y1918463D02*
Y1911900D01*
X1937845Y1918463D02*
X1941027D01*
X1943073D02*
X1944209Y1911900D01*
X1945345Y1918463D02*
X1944209Y1911900D01*
X1945345Y1918463D02*
X1946482Y1911900D01*
X1947618Y1918463D02*
X1946482Y1911900D01*
X1949664Y1918463D02*
Y1911900D01*
Y1918463D02*
X1951255D01*
X1951255D02*
X1951936Y1918150D01*
X1952391Y1917525*
X1952618Y1916900*
X1952845Y1915963*
X1952845D02*
Y1914400D01*
X1952618Y1913463*
X1952618D02*
X1952391Y1912838D01*
X1952391D02*
X1951936Y1912213D01*
X1951936D02*
X1951255Y1911900D01*
X1949664*
X1954891Y1917213D02*
X1955345Y1917525D01*
X1956027Y1918463*
X1956027D02*
Y1911900D01*
X1915800Y1908463D02*
Y1901900D01*
Y1908463D02*
X1917845D01*
X1917845D02*
X1918527Y1908150D01*
X1918755Y1907838*
X1918755D02*
X1918982Y1907213D01*
X1918982D02*
Y1906275D01*
X1918755Y1905650*
X1918527Y1905338*
X1918527D02*
X1917845Y1905025D01*
X1915800*
X1921027Y1908463D02*
Y1901900D01*
Y1908463D02*
X1923073D01*
X1923073D02*
X1923755Y1908150D01*
X1923982Y1907838*
X1923982D02*
X1924209Y1907213D01*
X1924209D02*
Y1906588D01*
X1924209D02*
X1923982Y1905963D01*
X1923982D02*
X1923755Y1905650D01*
X1923073Y1905338*
X1921027D02*
X1923073D01*
X1923073D02*
X1923755Y1905025D01*
X1923982Y1904713*
X1923982D02*
X1924209Y1904088D01*
X1924209D02*
Y1903150D01*
X1923982Y1902525*
X1923755Y1902213*
X1923755D02*
X1923073Y1901900D01*
X1921027*
X1929209Y1908463D02*
X1926936D01*
X1926936D02*
X1926709Y1905650D01*
X1926936Y1905963*
X1926936D02*
X1927618Y1906275D01*
X1928300*
X1928982Y1905963*
X1928982D02*
X1929436Y1905338D01*
X1929436D02*
X1929664Y1904400D01*
X1929436Y1903775*
X1929209Y1902838*
X1929209D02*
X1928755Y1902213D01*
X1928755D02*
X1928073Y1901900D01*
X1927391*
X1926709Y1902213*
X1926709D02*
X1926482Y1902525D01*
X1926255Y1903150*
X1935800Y1909713D02*
X1931709Y1899712D01*
X1939436Y1908463D02*
Y1901900D01*
X1937845Y1908463D02*
X1941027D01*
X1943073D02*
X1944209Y1901900D01*
X1945345Y1908463D02*
X1944209Y1901900D01*
X1945345Y1908463D02*
X1946482Y1901900D01*
X1947618Y1908463D02*
X1946482Y1901900D01*
X1953073Y1906900D02*
X1952845Y1907525D01*
X1952391Y1908150*
X1951936Y1908463*
X1951936D02*
X1951027D01*
X1951027D02*
X1950573Y1908150D01*
X1950118Y1907525*
X1949891Y1906900*
X1949664Y1905963*
X1949664D02*
Y1904400D01*
X1949891Y1903463*
X1949891D02*
X1950118Y1902838D01*
X1950118D02*
X1950573Y1902213D01*
X1950573D02*
X1951027Y1901900D01*
X1951936*
X1952391Y1902213*
X1952391D02*
X1952845Y1902838D01*
X1952845D02*
X1953073Y1903463D01*
X1955118Y1908463D02*
Y1901900D01*
X1958300Y1908463D02*
X1955118Y1904088D01*
X1956255Y1905650D02*
X1958300Y1901900D01*
X1960345Y1907213D02*
X1960800Y1907525D01*
X1961482Y1908463*
X1961482D02*
Y1901900D01*
X1915800Y1898463D02*
Y1891900D01*
Y1898463D02*
X1917845D01*
X1917845D02*
X1918527Y1898150D01*
X1918755Y1897838*
X1918755D02*
X1918982Y1897213D01*
X1918982D02*
Y1896275D01*
X1918755Y1895650*
X1918527Y1895338*
X1918527D02*
X1917845Y1895025D01*
X1915800*
X1921027Y1898463D02*
Y1891900D01*
Y1898463D02*
X1923073D01*
X1923073D02*
X1923755Y1898150D01*
X1923982Y1897838*
X1923982D02*
X1924209Y1897213D01*
X1924209D02*
Y1896588D01*
X1924209D02*
X1923982Y1895963D01*
X1923982D02*
X1923755Y1895650D01*
X1923073Y1895338*
X1921027D02*
X1923073D01*
X1923073D02*
X1923755Y1895025D01*
X1923982Y1894713*
X1923982D02*
X1924209Y1894088D01*
X1924209D02*
Y1893150D01*
X1923982Y1892525*
X1923755Y1892213*
X1923755D02*
X1923073Y1891900D01*
X1921027*
X1926255Y1897213D02*
X1926709Y1897525D01*
X1927391Y1898463*
X1927391D02*
Y1891900D01*
X1929891Y1898463D02*
X1932391D01*
X1932391D02*
X1931027Y1895963D01*
X1931027D02*
X1931709D01*
X1931709D02*
X1932164Y1895650D01*
X1932391Y1895338*
X1932391D02*
X1932618Y1894400D01*
Y1893775*
X1932391Y1892838*
X1932391D02*
X1931936Y1892213D01*
X1931936D02*
X1931255Y1891900D01*
X1930573*
X1929891Y1892213*
X1929891D02*
X1929664Y1892525D01*
X1929436Y1893150*
X1938755Y1899713D02*
X1934664Y1889712D01*
X1940800Y1898463D02*
Y1891900D01*
Y1898463D02*
X1942391D01*
X1942391D02*
X1943073Y1898150D01*
X1943527Y1897525*
X1943755Y1896900*
X1943982Y1895963*
X1943982D02*
Y1894400D01*
X1943755Y1893463*
X1943755D02*
X1943527Y1892838D01*
X1943527D02*
X1943073Y1892213D01*
X1943073D02*
X1942391Y1891900D01*
X1940800*
X1947845Y1898463D02*
X1946027Y1891900D01*
X1947845Y1898463D02*
X1949664Y1891900D01*
X1946709Y1894088D02*
X1948982D01*
X1955118Y1896900D02*
X1954891Y1897525D01*
X1954436Y1898150*
X1953982Y1898463*
X1953982D02*
X1953073D01*
X1953073D02*
X1952618Y1898150D01*
X1952164Y1897525*
X1951936Y1896900*
X1951709Y1895963*
X1951709D02*
Y1894400D01*
X1951936Y1893463*
X1951936D02*
X1952164Y1892838D01*
X1952164D02*
X1952618Y1892213D01*
X1952618D02*
X1953073Y1891900D01*
X1953982*
X1954436Y1892213*
X1954436D02*
X1954891Y1892838D01*
X1954891D02*
X1955118Y1893463D01*
X1958527Y1898463D02*
X1957845Y1898150D01*
X1957391Y1897213*
X1957391D02*
X1957164Y1895650D01*
Y1894713*
X1957164D02*
X1957391Y1893150D01*
X1957845Y1892213*
X1957845D02*
X1958527Y1891900D01*
X1958982*
X1959664Y1892213*
X1959664D02*
X1960118Y1893150D01*
X1960345Y1894713*
X1960345D02*
Y1895650D01*
X1960118Y1897213*
X1960118D02*
X1959664Y1898150D01*
X1958982Y1898463*
X1958982D02*
X1958527D01*
X1915800Y1888463D02*
Y1881900D01*
Y1888463D02*
X1917845D01*
X1917845D02*
X1918527Y1888150D01*
X1918755Y1887838*
X1918755D02*
X1918982Y1887213D01*
X1918982D02*
Y1886275D01*
X1918755Y1885650*
X1918527Y1885338*
X1918527D02*
X1917845Y1885025D01*
X1915800*
X1921027Y1888463D02*
Y1881900D01*
Y1888463D02*
X1923073D01*
X1923073D02*
X1923755Y1888150D01*
X1923982Y1887838*
X1923982D02*
X1924209Y1887213D01*
X1924209D02*
Y1886588D01*
X1924209D02*
X1923982Y1885963D01*
X1923982D02*
X1923755Y1885650D01*
X1923073Y1885338*
X1921027D02*
X1923073D01*
X1923073D02*
X1923755Y1885025D01*
X1923982Y1884713*
X1923982D02*
X1924209Y1884088D01*
X1924209D02*
Y1883150D01*
X1923982Y1882525*
X1923755Y1882213*
X1923755D02*
X1923073Y1881900D01*
X1921027*
X1926255Y1887213D02*
X1926709Y1887525D01*
X1927391Y1888463*
X1927391D02*
Y1881900D01*
X1931709Y1888463D02*
X1929436Y1884088D01*
X1929436D02*
X1932845D01*
X1931709Y1888463D02*
Y1881900D01*
X1938982Y1889713D02*
X1934891Y1879712D01*
X1941027Y1888463D02*
Y1881900D01*
Y1888463D02*
X1942618D01*
X1942618D02*
X1943300Y1888150D01*
X1943755Y1887525*
X1943982Y1886900*
X1944209Y1885963*
X1944209D02*
Y1884400D01*
X1943982Y1883463*
X1943982D02*
X1943755Y1882838D01*
X1943755D02*
X1943300Y1882213D01*
X1943300D02*
X1942618Y1881900D01*
X1941027*
X1948073Y1888463D02*
X1946255Y1881900D01*
X1948073Y1888463D02*
X1949891Y1881900D01*
X1946936Y1884088D02*
X1949209D01*
X1955345Y1886900D02*
X1955118Y1887525D01*
X1954664Y1888150*
X1954209Y1888463*
X1954209D02*
X1953300D01*
X1953300D02*
X1952845Y1888150D01*
X1952391Y1887525*
X1952164Y1886900*
X1951936Y1885963*
X1951936D02*
Y1884400D01*
X1952164Y1883463*
X1952164D02*
X1952391Y1882838D01*
X1952391D02*
X1952845Y1882213D01*
X1952845D02*
X1953300Y1881900D01*
X1954209*
X1954664Y1882213*
X1954664D02*
X1955118Y1882838D01*
X1955118D02*
X1955345Y1883463D01*
X1957391Y1887213D02*
X1957845Y1887525D01*
X1958527Y1888463*
X1958527D02*
Y1881900D01*
X1942300Y2305863D02*
Y2299300D01*
X1945482Y2305863D02*
X1942300Y2301488D01*
X1943436Y2303050D02*
X1945482Y2299300D01*
X1947755Y2299925D02*
X1947527Y2299613D01*
X1947527D02*
X1947755Y2299300D01*
X1947982Y2299613*
X1947982D02*
X1947755Y2299925D01*
X1955255Y2305863D02*
Y2299300D01*
X1958436Y2305863D02*
X1955255Y2301488D01*
X1956391Y2303050D02*
X1958436Y2299300D01*
X1963209Y2303675D02*
Y2299300D01*
Y2302738D02*
X1962755Y2303363D01*
X1962755D02*
X1962300Y2303675D01*
X1961618*
X1961164Y2303363*
X1961164D02*
X1960709Y2302738D01*
X1960709D02*
X1960482Y2301800D01*
Y2301175*
X1960709Y2300238*
X1960709D02*
X1961164Y2299613D01*
X1961164D02*
X1961618Y2299300D01*
X1962300*
X1962755Y2299613*
X1962755D02*
X1963209Y2300238D01*
X1965255Y2303675D02*
Y2299300D01*
Y2302425D02*
X1965936Y2303363D01*
X1965936D02*
X1966391Y2303675D01*
X1967073*
X1967527Y2303363*
X1967527D02*
X1967755Y2302425D01*
Y2299300*
X1969800Y2301800D02*
X1972527D01*
Y2302425*
X1972300Y2303050*
X1972073Y2303363*
X1972073D02*
X1971618Y2303675D01*
X1970936*
X1970482Y2303363*
X1970482D02*
X1970027Y2302738D01*
X1970027D02*
X1969800Y2301800D01*
Y2301175*
X1970027Y2300238*
X1970027D02*
X1970482Y2299613D01*
X1970482D02*
X1970936Y2299300D01*
X1971618*
X1972073Y2299613*
X1972073D02*
X1972527Y2300238D01*
X1977073Y2302738D02*
X1976845Y2303363D01*
X1976845D02*
X1976164Y2303675D01*
X1975482*
X1974800Y2303363*
X1974800D02*
X1974573Y2302738D01*
X1974573D02*
X1974800Y2302113D01*
X1974800D02*
X1975255Y2301800D01*
X1976391Y2301488*
X1976391D02*
X1976845Y2301175D01*
X1977073Y2300550*
Y2300238*
X1977073D02*
X1976845Y2299613D01*
X1976845D02*
X1976164Y2299300D01*
X1975482*
X1974800Y2299613*
X1974800D02*
X1974573Y2300238D01*
X1979118Y2305863D02*
Y2299300D01*
Y2302425D02*
X1979800Y2303363D01*
X1979800D02*
X1980255Y2303675D01*
X1980936*
X1981391Y2303363*
X1981391D02*
X1981618Y2302425D01*
Y2299300*
X1983664Y2305863D02*
X1983891Y2305550D01*
X1984118Y2305863*
X1984118D02*
X1983891Y2306175D01*
X1983664Y2305863*
X1983891Y2303675D02*
Y2299300D01*
X1986164Y2303675D02*
Y2299300D01*
Y2302425D02*
X1986845Y2303363D01*
X1986845D02*
X1987300Y2303675D01*
X1987982*
X1988436Y2303363*
X1988436D02*
X1988664Y2302425D01*
Y2299300*
X1993436Y2303675D02*
Y2299300D01*
Y2302738D02*
X1992982Y2303363D01*
X1992982D02*
X1992527Y2303675D01*
X1991845*
X1991391Y2303363*
X1991391D02*
X1990936Y2302738D01*
X1990936D02*
X1990709Y2301800D01*
Y2301175*
X1990936Y2300238*
X1990936D02*
X1991391Y2299613D01*
X1991391D02*
X1991845Y2299300D01*
X1992527*
X1992982Y2299613*
X1992982D02*
X1993436Y2300238D01*
X1943891Y2315863D02*
Y2309300D01*
X1942300Y2315863D02*
X1945482D01*
X1947755Y2309925D02*
X1947527Y2309613D01*
X1947527D02*
X1947755Y2309300D01*
X1947982Y2309613*
X1947982D02*
X1947755Y2309925D01*
X1957527Y2315863D02*
Y2310863D01*
X1957527D02*
X1957300Y2309925D01*
X1957073Y2309613*
X1957073D02*
X1956618Y2309300D01*
X1956164*
X1955709Y2309613*
X1955709D02*
X1955482Y2309925D01*
X1955255Y2310863*
X1955255D02*
Y2311488D01*
X1959573Y2311800D02*
X1962300D01*
Y2312425*
X1962073Y2313050*
X1961845Y2313363*
X1961845D02*
X1961391Y2313675D01*
X1960709*
X1960255Y2313363*
X1960255D02*
X1959800Y2312738D01*
X1959800D02*
X1959573Y2311800D01*
Y2311175*
X1959800Y2310238*
X1959800D02*
X1960255Y2309613D01*
X1960255D02*
X1960709Y2309300D01*
X1961391*
X1961845Y2309613*
X1961845D02*
X1962300Y2310238D01*
X1964345Y2313675D02*
Y2309300D01*
Y2312425D02*
X1965027Y2313363D01*
X1965027D02*
X1965482Y2313675D01*
X1966164*
X1966618Y2313363*
X1966618D02*
X1966845Y2312425D01*
Y2309300*
X1968891Y2313675D02*
Y2309300D01*
Y2311800D02*
X1969118Y2312738D01*
X1969118D02*
X1969573Y2313363D01*
X1969573D02*
X1970027Y2313675D01*
X1970709*
X1972755D02*
Y2310550D01*
X1972982Y2309613*
X1972982D02*
X1973436Y2309300D01*
X1974118*
X1974573Y2309613*
X1974573D02*
X1975255Y2310550D01*
Y2313675D02*
Y2309300D01*
X1977300Y2313675D02*
Y2309300D01*
Y2312425D02*
X1977982Y2313363D01*
X1977982D02*
X1978436Y2313675D01*
X1979118*
X1979573Y2313363*
X1979573D02*
X1979800Y2312425D01*
Y2309300*
X1984573Y2313675D02*
Y2308675D01*
X1984345Y2307737*
X1984345D02*
X1984118Y2307425D01*
X1983664Y2307112*
X1983664D02*
X1982982D01*
X1982982D02*
X1982527Y2307425D01*
X1984573Y2312738D02*
X1984118Y2313363D01*
X1984118D02*
X1983664Y2313675D01*
X1982982*
X1982527Y2313363*
X1982527D02*
X1982073Y2312738D01*
X1982073D02*
X1981845Y2311800D01*
Y2311175*
X1982073Y2310238*
X1982073D02*
X1982527Y2309613D01*
X1982527D02*
X1982982Y2309300D01*
X1983664*
X1984118Y2309613*
X1984118D02*
X1984573Y2310238D01*
X1986618Y2313675D02*
Y2309300D01*
Y2311800D02*
X1986845Y2312738D01*
X1986845D02*
X1987300Y2313363D01*
X1987300D02*
X1987755Y2313675D01*
X1988436*
X1991618D02*
X1991164Y2313363D01*
X1991164D02*
X1990709Y2312738D01*
X1990709D02*
X1990482Y2311800D01*
Y2311175*
X1990709Y2310238*
X1990709D02*
X1991164Y2309613D01*
X1991164D02*
X1991618Y2309300D01*
X1992300*
X1992755Y2309613*
X1992755D02*
X1993209Y2310238D01*
X1993209D02*
X1993436Y2311175D01*
Y2311800*
X1993209Y2312738*
X1993209D02*
X1992755Y2313363D01*
X1992755D02*
X1992300Y2313675D01*
X1991618*
X1996164Y2315863D02*
Y2310550D01*
X1996391Y2309613*
X1996391D02*
X1996845Y2309300D01*
X1997300*
X1995482Y2313675D02*
X1997073D01*
X1942300Y2293675D02*
Y2290550D01*
X1942527Y2289613*
X1942527D02*
X1942982Y2289300D01*
X1943664*
X1944118Y2289613*
X1944118D02*
X1944800Y2290550D01*
Y2293675D02*
Y2289300D01*
X1946845Y2295863D02*
Y2289300D01*
Y2295863D02*
X1948664Y2289300D01*
X1950482Y2295863D02*
X1948664Y2289300D01*
X1950482Y2295863D02*
Y2289300D01*
X1952527Y2293675D02*
Y2290550D01*
X1952755Y2289613*
X1952755D02*
X1953209Y2289300D01*
X1953891*
X1954345Y2289613*
X1954345D02*
X1955027Y2290550D01*
Y2293675D02*
Y2289300D01*
X1959800Y2295863D02*
Y2289300D01*
Y2292738D02*
X1959345Y2293363D01*
X1959345D02*
X1958891Y2293675D01*
X1958209*
X1957755Y2293363*
X1957755D02*
X1957300Y2292738D01*
X1957300D02*
X1957073Y2291800D01*
Y2291175*
X1957300Y2290238*
X1957300D02*
X1957755Y2289613D01*
X1957755D02*
X1958209Y2289300D01*
X1958891*
X1959345Y2289613*
X1959345D02*
X1959800Y2290238D01*
X1964573Y2295863D02*
Y2289300D01*
Y2292738D02*
X1964118Y2293363D01*
X1964118D02*
X1963664Y2293675D01*
X1962982*
X1962527Y2293363*
X1962527D02*
X1962073Y2292738D01*
X1962073D02*
X1961845Y2291800D01*
Y2291175*
X1962073Y2290238*
X1962073D02*
X1962527Y2289613D01*
X1962527D02*
X1962982Y2289300D01*
X1963664*
X1964118Y2289613*
X1964118D02*
X1964573Y2290238D01*
X1971845Y2295863D02*
Y2289300D01*
Y2295863D02*
X1973664Y2289300D01*
X1975482Y2295863D02*
X1973664Y2289300D01*
X1975482Y2295863D02*
Y2289300D01*
X1980255Y2293675D02*
Y2289300D01*
Y2292738D02*
X1979800Y2293363D01*
X1979800D02*
X1979345Y2293675D01*
X1978664*
X1978209Y2293363*
X1978209D02*
X1977755Y2292738D01*
X1977755D02*
X1977527Y2291800D01*
Y2291175*
X1977755Y2290238*
X1977755D02*
X1978209Y2289613D01*
X1978209D02*
X1978664Y2289300D01*
X1979345*
X1979800Y2289613*
X1979800D02*
X1980255Y2290238D01*
X1982300Y2293675D02*
Y2289300D01*
Y2291800D02*
X1982527Y2292738D01*
X1982527D02*
X1982982Y2293363D01*
X1982982D02*
X1983436Y2293675D01*
X1984118*
X1986164Y2295863D02*
Y2289300D01*
X1988436Y2293675D02*
X1986164Y2290550D01*
X1987073Y2291800D02*
X1988664Y2289300D01*
X1995936Y2295863D02*
X1997755Y2289300D01*
X1999573Y2295863D02*
X1997755Y2289300D01*
X1942527Y2284300D02*
Y2284613D01*
X1942527D02*
X1942755Y2285238D01*
X1942755D02*
X1942982Y2285550D01*
X1943436Y2285863*
X1943436D02*
X1944345D01*
X1944345D02*
X1944800Y2285550D01*
X1945027Y2285238*
X1945027D02*
X1945255Y2284613D01*
X1945255D02*
Y2283988D01*
X1945255D02*
X1945027Y2283363D01*
X1945027D02*
X1944573Y2282425D01*
X1942300Y2279300*
X1945482*
X1948891Y2285863D02*
X1948209Y2285550D01*
X1947755Y2284613*
X1947755D02*
X1947527Y2283050D01*
Y2282113*
X1947527D02*
X1947755Y2280550D01*
X1948209Y2279613*
X1948209D02*
X1948891Y2279300D01*
X1949345*
X1950027Y2279613*
X1950027D02*
X1950482Y2280550D01*
X1950709Y2282113*
X1950709D02*
Y2283050D01*
X1950482Y2284613*
X1950482D02*
X1950027Y2285550D01*
X1949345Y2285863*
X1949345D02*
X1948891D01*
X1952755Y2284613D02*
X1953209Y2284925D01*
X1953891Y2285863*
X1953891D02*
Y2279300D01*
X1959118Y2285863D02*
X1956845Y2279300D01*
X1955936Y2285863D02*
X1959118D01*
X1954123Y2126422D02*
X1953611Y2126188D01*
X1953611D02*
X1953270Y2125484D01*
X1953100Y2124313*
X1953100D02*
Y2123609D01*
X1953270Y2122438*
X1953270D02*
X1953611Y2121734D01*
X1954123Y2121500*
X1954464*
X1954975Y2121734*
X1955316Y2122438*
X1955316D02*
X1955486Y2123609D01*
Y2124313*
X1955486D02*
X1955316Y2125484D01*
X1954975Y2126188*
X1954975D02*
X1954464Y2126422D01*
X1954123*
X1963800Y2125484D02*
X1964141Y2125719D01*
X1964652Y2126422*
Y2121500*
X1973870Y2125250D02*
Y2125484D01*
X1974041Y2125953*
X1974211Y2126188*
X1974211D02*
X1974552Y2126422D01*
X1975234*
X1975575Y2126188*
X1975575D02*
X1975745Y2125953D01*
X1975916Y2125484*
Y2125016*
X1975745Y2124547*
X1975405Y2123844*
X1973700Y2121500*
X1976086*
X1983841Y2126422D02*
X1985716D01*
X1984693Y2124547*
X1985205*
X1985545Y2124313*
X1985545D02*
X1985716Y2124078D01*
X1985886Y2123375*
Y2122906*
X1985716Y2122203*
X1985375Y2121734*
X1984864Y2121500*
X1984352*
X1983841Y2121734*
X1983670Y2121969*
X1983500Y2122438*
X1971800Y1952763D02*
Y1948075D01*
X1972027Y1947138*
X1972027D02*
X1972482Y1946513D01*
X1972482D02*
X1973164Y1946200D01*
X1973618*
X1974300Y1946513*
X1974300D02*
X1974755Y1947138D01*
X1974755D02*
X1974982Y1948075D01*
Y1952763*
X1979982D02*
X1977709D01*
X1977709D02*
X1977482Y1949950D01*
X1977709Y1950263*
X1977709D02*
X1978391Y1950575D01*
X1979073*
X1979755Y1950263*
X1979755D02*
X1980209Y1949638D01*
X1980209D02*
X1980436Y1948700D01*
X1980209Y1948075*
X1979982Y1947138*
X1979982D02*
X1979527Y1946513D01*
X1979527D02*
X1978845Y1946200D01*
X1978164*
X1977482Y1946513*
X1977482D02*
X1977255Y1946825D01*
X1977027Y1947450*
X1967982Y2172325D02*
X1967527Y2172950D01*
X1966845Y2173263*
X1966845D02*
X1965936D01*
X1965936D02*
X1965255Y2172950D01*
X1964800Y2172325*
Y2171700*
X1965027Y2171075*
X1965255Y2170763*
X1965255D02*
X1965709Y2170450D01*
X1967073Y2169825*
X1967527Y2169513*
X1967527D02*
X1967755Y2169200D01*
X1967982Y2168575*
Y2167638*
X1967982D02*
X1967527Y2167013D01*
X1967527D02*
X1966845Y2166700D01*
X1965936*
X1965255Y2167013*
X1965255D02*
X1964800Y2167638D01*
X1970027Y2173263D02*
X1971164Y2166700D01*
X1972300Y2173263D02*
X1971164Y2166700D01*
X1972300Y2173263D02*
X1973436Y2166700D01*
X1974573Y2173263D02*
X1973436Y2166700D01*
X1976618Y2172013D02*
X1977073Y2172325D01*
X1977755Y2173263*
X1977755D02*
Y2166700D01*
X2003500Y2216963D02*
Y2212275D01*
X2003727Y2211338*
X2003727D02*
X2004182Y2210713D01*
X2004182D02*
X2004864Y2210400D01*
X2005318*
X2006000Y2210713*
X2006000D02*
X2006455Y2211338D01*
X2006455D02*
X2006682Y2212275D01*
Y2216963*
X2011000D02*
X2008727Y2212588D01*
X2008727D02*
X2012136D01*
X2011000Y2216963D02*
Y2210400D01*
G54D45*
X2045800Y1874100D02*
Y1954100D01*
X2085800*
Y1924100*
X2080800*
Y1904100*
X2085800*
Y1874100*
X2045800*
X2040800Y2279900D02*
Y2359900D01*
X2080800*
Y2329900*
X2075800*
Y2309900*
X2080800*
Y2279900*
X2040800*
G54D46*
X1994900Y2073100D02*
X1946900D01*
Y2065100*
X1994900*
Y2073100*
G54D47*
X1968408Y2268392D02*
Y2192408D01*
X2044392*
Y2268392*
X2041439*
X2040849Y2267211*
X2040258Y2268392*
X1968408*
X1957693Y1929393D02*
X1994307D01*
Y1966007*
X1991354*
X1990764Y1964826*
X1990173Y1966007*
X1957693*
Y1929393*
G54D50*
X1985200Y1911022D02*
Y1906100D01*
Y1911022D02*
X1986734D01*
X1987245Y1910788*
X1987245D02*
X1987416Y1910553D01*
X1987586Y1910084*
Y1909381*
X1987416Y1908913*
X1987416D02*
X1987245Y1908678D01*
X1986734Y1908444*
X1985200*
X1989120Y1911022D02*
Y1906100D01*
Y1911022D02*
X1990655D01*
X1991166Y1910788*
X1991166D02*
X1991336Y1910553D01*
X1991507Y1910084*
Y1909616*
X1991336Y1909147*
X1991166Y1908913*
X1991166D02*
X1990655Y1908678D01*
X1989120D02*
X1990655D01*
X1991166Y1908444*
X1991336Y1908209*
X1991507Y1907741*
Y1907038*
X1991507D02*
X1991336Y1906569D01*
X1991166Y1906334*
X1990655Y1906100*
X1989120*
X1993211Y1909850D02*
Y1910084D01*
X1993382Y1910553*
X1993552Y1910788*
X1993552D02*
X1993893Y1911022D01*
X1994575*
X1994916Y1910788*
X1994916D02*
X1995086Y1910553D01*
X1995257Y1910084*
Y1909616*
X1995086Y1909147*
X1994745Y1908444*
X1993041Y1906100*
X1995427*
X1997132Y1909381D02*
X1996961Y1909147D01*
X1997132Y1908913*
X1997132D02*
X1997302Y1909147D01*
X1997132Y1909381*
Y1906569D02*
X1996961Y1906334D01*
X1997132Y1906100*
X1997302Y1906334*
X1997132Y1906569*
X2001223Y1910319D02*
X2000882Y1910788D01*
X2000882D02*
X2000370Y1911022D01*
X1999689*
X1999177Y1910788*
X1999177D02*
X1998836Y1910319D01*
Y1909850*
X1999007Y1909381*
X1999177Y1909147*
X1999518Y1908913*
X1999518D02*
X2000541Y1908444D01*
X2000882Y1908209*
X2001052Y1907975*
X2001223Y1907506*
Y1906803*
X2000882Y1906334*
X2000370Y1906100*
X1999689*
X1999177Y1906334*
X1998836Y1906803*
X2004120Y1911022D02*
X2002757Y1906100D01*
X2004120Y1911022D02*
X2005484Y1906100D01*
X2003268Y1907741D02*
X2004973D01*
X2007018Y1911022D02*
Y1906100D01*
Y1911022D02*
X2008382Y1906100D01*
X2009745Y1911022D02*
X2008382Y1906100D01*
X2009745Y1911022D02*
Y1906100D01*
X2011280Y1905162D02*
X2014859D01*
X2015882Y1911022D02*
Y1906100D01*
Y1911022D02*
X2017416D01*
X2017927Y1910788*
X2017927D02*
X2018098Y1910553D01*
X2018268Y1910084*
Y1909616*
X2018098Y1909147*
X2017927Y1908913*
X2017927D02*
X2017416Y1908678D01*
X2015882*
X2017075D02*
X2018268Y1906100D01*
X2019802Y1911022D02*
Y1906100D01*
Y1911022D02*
X2022018D01*
X2019802Y1908678D02*
X2021166D01*
X2019802Y1906100D02*
X2022018D01*
X2025939Y1910319D02*
X2025598Y1910788D01*
X2025598D02*
X2025086Y1911022D01*
X2024405*
X2023893Y1910788*
X2023893D02*
X2023552Y1910319D01*
Y1909850*
X2023723Y1909381*
X2023893Y1909147*
X2024234Y1908913*
X2024234D02*
X2025257Y1908444D01*
X2025598Y1908209*
X2025768Y1907975*
X2025939Y1907506*
Y1906803*
X2025598Y1906334*
X2025086Y1906100*
X2024405*
X2023893Y1906334*
X2023552Y1906803*
X2027473Y1911022D02*
Y1906100D01*
Y1911022D02*
X2029689D01*
X2027473Y1908678D02*
X2028836D01*
X2027473Y1906100D02*
X2029689D01*
X2032416Y1911022D02*
Y1906100D01*
X2031223Y1911022D02*
X2033609D01*
X2039800Y2410822D02*
Y2407306D01*
X2039970Y2406603*
X2040311Y2406134*
X2040823Y2405900*
X2041164*
X2041675Y2406134*
X2042016Y2406603*
X2042186Y2407306*
Y2410822*
X2044061D02*
X2045936D01*
X2044914Y2408947*
X2045425*
X2045766Y2408713*
X2045766D02*
X2045936Y2408478D01*
X2046107Y2407775*
Y2407306*
X2045936Y2406603*
X2045595Y2406134*
X2045084Y2405900*
X2044573*
X2044061Y2406134*
X2043891Y2406369*
X2043720Y2406838*
X2047811Y2409181D02*
X2047641Y2408947D01*
X2047811Y2408713*
X2047811D02*
X2047982Y2408947D01*
X2047811Y2409181*
Y2406369D02*
X2047641Y2406134D01*
X2047811Y2405900*
X2047982Y2406134*
X2047811Y2406369*
X2049516Y2410822D02*
X2050880Y2405900D01*
X2052243Y2410822D02*
X2050880Y2405900D01*
X2056334Y2409650D02*
X2056164Y2410119D01*
X2055823Y2410588*
X2055823D02*
X2055482Y2410822D01*
X2054800*
X2054459Y2410588*
X2054459D02*
X2054118Y2410119D01*
X2053948Y2409650*
X2053777Y2408947*
Y2407775*
X2053948Y2407072*
X2054118Y2406603*
X2054459Y2406134*
X2054800Y2405900*
X2055482*
X2055823Y2406134*
X2056164Y2406603*
X2056334Y2407072*
X2060425Y2409650D02*
X2060255Y2410119D01*
X2059914Y2410588*
X2059914D02*
X2059573Y2410822D01*
X2058891*
X2058550Y2410588*
X2058550D02*
X2058209Y2410119D01*
X2058039Y2409650*
X2057868Y2408947*
Y2407775*
X2058039Y2407072*
X2058209Y2406603*
X2058550Y2406134*
X2058891Y2405900*
X2059573*
X2059914Y2406134*
X2060255Y2406603*
X2060425Y2407072*
X2062300Y2410822D02*
X2064175D01*
X2063152Y2408947*
X2063664*
X2064005Y2408713*
X2064005D02*
X2064175Y2408478D01*
X2064345Y2407775*
Y2407306*
X2064175Y2406603*
X2063834Y2406134*
X2063323Y2405900*
X2062811*
X2062300Y2406134*
X2062130Y2406369*
X2061959Y2406838*
X2066220Y2410822D02*
X2068095D01*
X2067073Y2408947*
X2067584*
X2067925Y2408713*
X2067925D02*
X2068095Y2408478D01*
X2068266Y2407775*
Y2407306*
X2068095Y2406603*
X2067755Y2406134*
X2067243Y2405900*
X2066732*
X2066220Y2406134*
X2066050Y2406369*
X2065880Y2406838*
X2040400Y2461222D02*
Y2457706D01*
X2040570Y2457003*
X2040911Y2456534*
X2041423Y2456300*
X2041764*
X2042275Y2456534*
X2042616Y2457003*
X2042786Y2457706*
Y2461222*
X2044491Y2460050D02*
Y2460284D01*
X2044661Y2460753*
X2044832Y2460988*
X2044832D02*
X2045173Y2461222D01*
X2045855*
X2046195Y2460988*
X2046195D02*
X2046366Y2460753D01*
X2046536Y2460284*
Y2459816*
X2046366Y2459347*
X2046025Y2458644*
X2044320Y2456300*
X2046707*
X2048411Y2459581D02*
X2048241Y2459347D01*
X2048411Y2459113*
X2048411D02*
X2048582Y2459347D01*
X2048411Y2459581*
Y2456769D02*
X2048241Y2456534D01*
X2048411Y2456300*
X2048582Y2456534*
X2048411Y2456769*
X2050116Y2461222D02*
X2051480Y2456300D01*
X2052843Y2461222D02*
X2051480Y2456300D01*
X2056934Y2460050D02*
X2056764Y2460519D01*
X2056423Y2460988*
X2056423D02*
X2056082Y2461222D01*
X2055400*
X2055059Y2460988*
X2055059D02*
X2054718Y2460519D01*
X2054548Y2460050*
X2054377Y2459347*
Y2458175*
X2054548Y2457472*
X2054718Y2457003*
X2055059Y2456534*
X2055400Y2456300*
X2056082*
X2056423Y2456534*
X2056764Y2457003*
X2056934Y2457472*
X2061025Y2460050D02*
X2060855Y2460519D01*
X2060514Y2460988*
X2060514D02*
X2060173Y2461222D01*
X2059491*
X2059150Y2460988*
X2059150D02*
X2058809Y2460519D01*
X2058639Y2460050*
X2058468Y2459347*
Y2458175*
X2058639Y2457472*
X2058809Y2457003*
X2059150Y2456534*
X2059491Y2456300*
X2060173*
X2060514Y2456534*
X2060855Y2457003*
X2061025Y2457472*
X2062730Y2460050D02*
Y2460284D01*
X2062900Y2460753*
X2063070Y2460988*
X2063070D02*
X2063411Y2461222D01*
X2064093*
X2064434Y2460988*
X2064434D02*
X2064605Y2460753D01*
X2064775Y2460284*
Y2459816*
X2064605Y2459347*
X2064264Y2458644*
X2062559Y2456300*
X2064945*
X2068695Y2461222D02*
X2066991D01*
X2066820Y2459113*
X2066820D02*
X2066991Y2459347D01*
X2067502Y2459581*
X2068014*
X2068525Y2459347*
X2068866Y2458878*
X2069036Y2458175*
X2068866Y2457706*
X2068695Y2457003*
X2068355Y2456534*
X2067843Y2456300*
X2067332*
X2066820Y2456534*
X2066650Y2456769*
X2066480Y2457238*
X1962174Y2463921D02*
Y2460405D01*
X1962345Y2459702*
X1962686Y2459233*
X1963197Y2458999*
X1963538*
X1964049Y2459233*
X1964390Y2459702*
X1964561Y2460405*
Y2463921*
X1966095Y2462983D02*
X1966436Y2463218D01*
X1966947Y2463921*
Y2458999*
X1968651Y2462280D02*
X1968481Y2462046D01*
X1968651Y2461811*
X1968822Y2462046*
X1968651Y2462280*
Y2459468D02*
X1968481Y2459233D01*
X1968651Y2458999*
X1968822Y2459233*
X1968651Y2459468*
X1970356Y2463921D02*
X1971720Y2458999D01*
X1973083Y2463921D02*
X1971720Y2458999D01*
X1977174Y2462749D02*
X1977004Y2463218D01*
X1976663Y2463686*
X1976322Y2463921*
X1975640*
X1975299Y2463686*
X1974958Y2463218*
X1974788Y2462749*
X1974617Y2462046*
Y2460874*
X1974788Y2460171*
X1974958Y2459702*
X1975299Y2459233*
X1975640Y2458999*
X1976322*
X1976663Y2459233*
X1977004Y2459702*
X1977174Y2460171*
X1981265Y2462749D02*
X1981095Y2463218D01*
X1980754Y2463686*
X1980413Y2463921*
X1979731*
X1979390Y2463686*
X1979049Y2463218*
X1978879Y2462749*
X1978708Y2462046*
Y2460874*
X1978879Y2460171*
X1979049Y2459702*
X1979390Y2459233*
X1979731Y2458999*
X1980413*
X1980754Y2459233*
X1981095Y2459702*
X1981265Y2460171*
X1982799Y2462983D02*
X1983140Y2463218D01*
X1983651Y2463921*
Y2458999*
X1985356Y2462749D02*
Y2462983D01*
X1985526Y2463452*
X1985697Y2463686*
X1986038Y2463921*
X1986720*
X1987061Y2463686*
X1987231Y2463452*
X1987401Y2462983*
Y2462515*
X1987231Y2462046*
X1986890Y2461343*
X1985186Y2458999*
X1987572*
X1940800Y2408822D02*
Y2403900D01*
Y2408822D02*
X1942334D01*
X1942845Y2408588*
X1942845D02*
X1943016Y2408353D01*
X1943186Y2407884*
Y2407181*
X1943016Y2406713*
X1943016D02*
X1942845Y2406478D01*
X1942334Y2406244*
X1940800*
X1944720Y2408822D02*
Y2403900D01*
Y2408822D02*
X1946255D01*
X1946766Y2408588*
X1946766D02*
X1946936Y2408353D01*
X1947107Y2407884*
Y2407416*
X1946936Y2406947*
X1946766Y2406713*
X1946766D02*
X1946255Y2406478D01*
X1944720D02*
X1946255D01*
X1946766Y2406244*
X1946936Y2406009*
X1947107Y2405541*
Y2404838*
X1947107D02*
X1946936Y2404369D01*
X1946766Y2404134*
X1946255Y2403900*
X1944720*
X1948641Y2407884D02*
X1948982Y2408119D01*
X1949493Y2408822*
Y2403900*
X1951198Y2407181D02*
X1951027Y2406947D01*
X1951198Y2406713*
X1951198D02*
X1951368Y2406947D01*
X1951198Y2407181*
Y2404369D02*
X1951027Y2404134D01*
X1951198Y2403900*
X1951368Y2404134*
X1951198Y2404369*
X1954607Y2408822D02*
Y2405072D01*
X1954436Y2404369*
X1954266Y2404134*
X1953925Y2403900*
X1953584*
X1953243Y2404134*
X1953073Y2404369*
X1952902Y2405072*
Y2405541*
X1957334Y2408822D02*
Y2403900D01*
X1956141Y2408822D02*
X1958527D01*
X1961425D02*
X1960061Y2403900D01*
X1961425Y2408822D02*
X1962789Y2403900D01*
X1960573Y2405541D02*
X1962277D01*
X1966880Y2407650D02*
X1966709Y2408119D01*
X1966368Y2408588*
X1966368D02*
X1966027Y2408822D01*
X1965345*
X1965005Y2408588*
X1965005D02*
X1964664Y2408119D01*
X1964493Y2407650*
X1964323Y2406947*
Y2405775*
X1964493Y2405072*
X1964664Y2404603*
X1965005Y2404134*
X1965345Y2403900*
X1966027*
X1966368Y2404134*
X1966709Y2404603*
X1966880Y2405072*
Y2405775*
X1966027D02*
X1966880D01*
X1968414Y2402962D02*
X1971993D01*
X1973016Y2408822D02*
Y2403900D01*
Y2408822D02*
X1974550D01*
X1975061Y2408588*
X1975061D02*
X1975232Y2408353D01*
X1975402Y2407884*
Y2407416*
X1975232Y2406947*
X1975061Y2406713*
X1975061D02*
X1974550Y2406478D01*
X1973016*
X1974209D02*
X1975402Y2403900D01*
X1976936Y2408822D02*
Y2403900D01*
Y2408822D02*
X1979152D01*
X1976936Y2406478D02*
X1978300D01*
X1976936Y2403900D02*
X1979152D01*
X1983073Y2408119D02*
X1982732Y2408588D01*
X1982732D02*
X1982220Y2408822D01*
X1981539*
X1981027Y2408588*
X1981027D02*
X1980686Y2408119D01*
Y2407650*
X1980857Y2407181*
X1981027Y2406947*
X1981368Y2406713*
X1981368D02*
X1982391Y2406244D01*
X1982732Y2406009*
X1982902Y2405775*
X1983073Y2405306*
Y2404603*
X1982732Y2404134*
X1982220Y2403900*
X1981539*
X1981027Y2404134*
X1980686Y2404603*
X1984607Y2408822D02*
Y2403900D01*
Y2408822D02*
X1986823D01*
X1984607Y2406478D02*
X1985970D01*
X1984607Y2403900D02*
X1986823D01*
X1989550Y2408822D02*
Y2403900D01*
X1988357Y2408822D02*
X1990743D01*
X1966600Y2427322D02*
Y2422400D01*
X1968645*
X1970180Y2426384D02*
X1970520Y2426619D01*
X1971032Y2427322*
Y2422400*
X1972566Y2426384D02*
X1972907Y2426619D01*
X1973418Y2427322*
Y2422400*
X1977339Y2427322D02*
X1975634Y2422400D01*
X1974952Y2427322D02*
X1977339D01*
X1978873Y2426384D02*
X1979214Y2426619D01*
X1979725Y2427322*
Y2422400*
X1981430Y2426150D02*
Y2426384D01*
X1981600Y2426853*
X1981770Y2427088*
X1981770D02*
X1982111Y2427322D01*
X1982793*
X1983134Y2427088*
X1983134D02*
X1983305Y2426853D01*
X1983475Y2426384*
Y2425916*
X1983305Y2425447*
X1982964Y2424744*
X1981259Y2422400*
X1983645*
X2045000Y2426522D02*
Y2421600D01*
X2047045*
X2048580Y2425584D02*
X2048920Y2425819D01*
X2049432Y2426522*
Y2421600*
X2050966Y2425584D02*
X2051307Y2425819D01*
X2051818Y2426522*
Y2421600*
X2055739Y2426522D02*
X2054034Y2421600D01*
X2053352Y2426522D02*
X2055739D01*
X2057443Y2425350D02*
Y2425584D01*
X2057614Y2426053*
X2057784Y2426288*
X2057784D02*
X2058125Y2426522D01*
X2058807*
X2059148Y2426288*
X2059148D02*
X2059318Y2426053D01*
X2059489Y2425584*
Y2425116*
X2059318Y2424647*
X2058977Y2423944*
X2057273Y2421600*
X2059659*
X2063409Y2426522D02*
X2061705D01*
X2061534Y2424413*
X2061534D02*
X2061705Y2424647D01*
X2062216Y2424881*
X2062727*
X2063239Y2424647*
X2063580Y2424178*
X2063750Y2423475*
X2063580Y2423006*
X2063409Y2422303*
X2063068Y2421834*
X2062557Y2421600*
X2062045*
X2061534Y2421834*
X2061364Y2422069*
X2061193Y2422538*
X2045900Y2375622D02*
Y2370700D01*
X2047945*
X2049480Y2374684D02*
X2049820Y2374919D01*
X2050332Y2375622*
Y2370700*
X2051866Y2374684D02*
X2052207Y2374919D01*
X2052718Y2375622*
Y2370700*
X2056639Y2375622D02*
X2054934Y2370700D01*
X2054252Y2375622D02*
X2056639D01*
X2058514D02*
X2060389D01*
X2059366Y2373747*
X2059877*
X2060218Y2373513*
X2060218D02*
X2060389Y2373278D01*
X2060559Y2372575*
Y2372106*
X2060389Y2371403*
X2060048Y2370934*
X2059536Y2370700*
X2059025*
X2058514Y2370934*
X2058343Y2371169*
X2058173Y2371638*
X2062434Y2375622D02*
X2064309D01*
X2063286Y2373747*
X2063798*
X2064139Y2373513*
X2064139D02*
X2064309Y2373278D01*
X2064480Y2372575*
Y2372106*
X2064309Y2371403*
X2063968Y2370934*
X2063457Y2370700*
X2062945*
X2062434Y2370934*
X2062264Y2371169*
X2062093Y2371638*
X2032800Y2172381D02*
Y2169100D01*
Y2171444D02*
X2033311Y2172147D01*
X2033652Y2172381*
X2034164*
X2034505Y2172147*
X2034675Y2171444*
Y2169100*
Y2171444D02*
X2035186Y2172147D01*
X2035527Y2172381*
X2036039*
X2036380Y2172147*
X2036550Y2171444*
Y2169100*
X2038084Y2170975D02*
X2040130D01*
Y2171444*
X2039959Y2171913*
X2039959D02*
X2039789Y2172147D01*
X2039448Y2172381*
X2038936*
X2038595Y2172147*
X2038255Y2171678*
X2038084Y2170975*
Y2170506*
X2038255Y2169803*
X2038595Y2169334*
X2038936Y2169100*
X2039448*
X2039789Y2169334*
X2040130Y2169803*
X2041664Y2172381D02*
Y2169100D01*
Y2171444D02*
X2042175Y2172147D01*
X2042516Y2172381*
X2043027*
X2043368Y2172147*
X2043539Y2171444*
Y2169100*
Y2171444D02*
X2044050Y2172147D01*
X2044391Y2172381*
X2044902*
X2045243Y2172147*
X2045414Y2171444*
Y2169100*
X2052800Y2034122D02*
Y2029200D01*
X2054845*
X2056380Y2034122D02*
Y2029200D01*
Y2034122D02*
X2058595D01*
X2056380Y2031778D02*
X2057743D01*
X2056380Y2029200D02*
X2058595D01*
X2060130Y2034122D02*
Y2029200D01*
Y2034122D02*
X2061323D01*
X2061834Y2033888*
X2061834D02*
X2062175Y2033419D01*
X2062345Y2032950*
X2062516Y2032247*
Y2031075*
X2062345Y2030372*
X2062175Y2029903*
X2061834Y2029434*
X2061323Y2029200*
X2060130*
X2064050Y2033184D02*
X2064391Y2033419D01*
X2064902Y2034122*
Y2029200*
X2067459Y2034122D02*
X2066948Y2033888D01*
X2066948D02*
X2066607Y2033184D01*
X2066436Y2032013*
X2066436D02*
Y2031309D01*
X2066607Y2030138*
X2066607D02*
X2066948Y2029434D01*
X2067459Y2029200*
X2067800*
X2068311Y2029434*
X2068652Y2030138*
X2068652D02*
X2068823Y2031309D01*
Y2032013*
X2068823D02*
X2068652Y2033184D01*
X2068311Y2033888*
X2068311D02*
X2067800Y2034122D01*
X2067459*
G54D51*
X2032100Y2147081D02*
Y2143800D01*
Y2147081D02*
X2033577D01*
X2032100Y2145519D02*
X2033009D01*
X2032100Y2143800D02*
X2033577D01*
X2034600Y2147081D02*
Y2143800D01*
Y2147081D02*
X2035623D01*
X2035964Y2146925*
X2036077Y2146769*
X2036191Y2146456*
Y2145988*
X2036191D02*
X2036077Y2145675D01*
X2035964Y2145519*
X2035623Y2145363*
X2035623D02*
X2034600D01*
X2038918Y2146300D02*
X2038805Y2146613D01*
X2038805D02*
X2038577Y2146925D01*
X2038350Y2147081*
X2037895*
X2037668Y2146925*
X2037441Y2146613*
X2037441D02*
X2037327Y2146300D01*
X2037214Y2145831*
Y2145050*
X2037327Y2144581*
X2037441Y2144269*
X2037668Y2143956*
X2037895Y2143800*
X2038350*
X2038577Y2143956*
X2038805Y2144269*
X2038918Y2144581*
X2040623Y2147081D02*
X2040395Y2146925D01*
X2040168Y2146613*
X2040168D02*
X2040055Y2146300D01*
X2039941Y2145831*
Y2145050*
X2040055Y2144581*
X2040168Y2144269*
X2040395Y2143956*
X2040623Y2143800*
X2041077*
X2041305Y2143956*
X2041532Y2144269*
X2041645Y2144581*
X2041759Y2145050*
Y2145831*
X2041645Y2146300*
X2041532Y2146613*
X2041532D02*
X2041305Y2146925D01*
X2041077Y2147081*
X2040623*
X2040964Y2144425D02*
X2041645Y2143487D01*
X2042782Y2146456D02*
X2043009Y2146613D01*
X2043009D02*
X2043350Y2147081D01*
Y2143800*
X2045736Y2146613D02*
X2045623Y2146925D01*
X2045282Y2147081*
X2045055*
X2044714Y2146925*
X2044486Y2146456*
X2044373Y2145675*
Y2144894*
X2044486Y2144269*
X2044714Y2143956*
X2045055Y2143800*
X2045168*
X2045509Y2143956*
X2045736Y2144269*
X2045850Y2144738*
X2045850D02*
Y2144894D01*
X2045736Y2145363*
X2045736D02*
X2045509Y2145675D01*
X2045168Y2145831*
X2045055*
X2044714Y2145675*
X2044486Y2145363*
X2044486D02*
X2044373Y2144894D01*
X0Y0D02*
M02*
