*
*
G04 PADS VX.2.3 Build Number: 9191294 generated Gerber (RS-274-X) file*
G04 PC Version=2.1*
*
%IN "uMuddMarkVTesterLayout_"*%
*
%MOIN*%
*
%FSLAX35Y35*%
*
*
*
*
G04 PC Standard Apertures*
*
*
G04 Thermal Relief Aperture macro.*
%AMTER*
1,1,$1,0,0*
1,0,$1-$2,0,0*
21,0,$3,$4,0,0,45*
21,0,$3,$4,0,0,135*
%
*
*
G04 Annular Aperture macro.*
%AMANN*
1,1,$1,0,0*
1,0,$2,0,0*
%
*
*
G04 Odd Aperture macro.*
%AMODD*
1,1,$1,0,0*
1,0,$1-0.005,0,0*
%
*
*
G04 PC Custom Aperture Macros*
*
*
*
*
*
*
G04 PC Aperture Table*
*
%ADD010C,0.001*%
%ADD014R,0.06X0.06*%
%ADD015C,0.06*%
%ADD022C,0.006*%
%ADD023C,0.012*%
%ADD024C,0.03*%
%ADD029C,0.03937*%
%ADD041C,0.181*%
%ADD046C,0.042*%
%ADD051C,0.1*%
*
*
*
*
G04 PC Circuitry*
G04 Layer Name uMuddMarkVTesterLayout_ - circuitry*
%LPD*%
*
*
G04 PC Custom Flashes*
G04 Layer Name uMuddMarkVTesterLayout_ - flashes*
%LPD*%
*
*
G04 PC Circuitry*
G04 Layer Name uMuddMarkVTesterLayout_ - circuitry*
%LPD*%
*
G54D10*
G54D14*
G01X1960000Y2070000D03*
X1940000Y1980000D03*
X1920000D03*
X1910000Y1940000D03*
G54D15*
X1960000Y2060000D03*
Y2050000D03*
Y2040000D03*
Y2030000D03*
Y2020000D03*
Y2010000D03*
Y2000000D03*
Y1990000D03*
Y1980000D03*
X1990000D03*
Y1990000D03*
Y2000000D03*
Y2010000D03*
Y2020000D03*
Y2030000D03*
Y2040000D03*
Y2050000D03*
Y2060000D03*
Y2070000D03*
X1940000Y1990000D03*
Y2000000D03*
Y2010000D03*
Y2020000D03*
Y2030000D03*
Y2040000D03*
Y2050000D03*
Y2060000D03*
Y2070000D03*
X1920000Y1990000D03*
Y2000000D03*
Y2010000D03*
Y2020000D03*
Y2030000D03*
Y2040000D03*
Y2050000D03*
Y2060000D03*
Y2070000D03*
Y1940000D03*
X1910000Y1930000D03*
X1920000D03*
X1910000Y1920000D03*
X1920000D03*
X1910000Y1910000D03*
X1920000D03*
X1910000Y1900000D03*
X1920000D03*
G54D22*
X1895000Y1817500D02*
Y1905000D01*
X1910000Y1920000*
X1925611Y1821805D02*
Y1830663D01*
X1918406Y1837869*
X1933000Y1824700D02*
Y1839627D01*
X1936754Y1843381*
X1933485Y1821805D02*
X1933000Y1824700D01*
X1938740Y1818500D02*
X1949200Y1828960D01*
Y1830630*
X1956439Y1837869*
X1956439D02*
Y1842158D01*
X1938740Y1818500D02*
X1924102D01*
X1920797Y1821805*
X1917737*
X1957107D02*
X1960469Y1825166D01*
X1961154*
X1965000Y1829012*
Y1830682*
X1972187Y1837869*
X1972187D02*
Y1842158D01*
X1972855Y1821805D02*
Y1830663D01*
X1980061Y1837869*
X1980729Y1821805D02*
X1984082Y1825157D01*
X1984767*
X1990000Y1830390*
Y1932500*
X1918406Y1837869D02*
Y1842158D01*
X1921700Y1845453*
Y1871863*
X1924300Y1874463*
X1913800Y1829679D02*
X1910162Y1833317D01*
Y1835828*
X1906594Y1839395*
Y1868994*
X1926280Y1832947D02*
Y1842158D01*
X1930000Y1845879*
Y1885000*
X1921674Y1829679D02*
X1917373Y1833980D01*
X1914719*
X1910531Y1838167*
Y1842158*
X1929548Y1829679D02*
X1926280Y1832947D01*
X1945296Y1829679D02*
X1948565Y1832947D01*
Y1842158*
X1945000Y1845723*
Y1950000*
X1953170Y1829679D02*
X1957471Y1833980D01*
X1960125*
X1964313Y1838167*
Y1842158*
X1980061Y1837869D02*
Y1842158D01*
X1977400Y1844819*
X2000000Y1830000D02*
Y1945000D01*
X1910531Y1842158D02*
X1914400Y1846027D01*
Y1875300*
X1915000Y1875900*
Y1905000*
X1936754Y1843381D02*
Y1912079D01*
X1934200Y1914632*
Y2045800*
X1920000Y2060000*
X1956439Y1842158D02*
X1953800Y1844797D01*
Y1886400*
X1964313Y1842158D02*
X1961000Y1845471D01*
Y1864158*
X1958300Y1866858*
Y1885900*
X1977400Y1844819D02*
Y1862700D01*
X1977500Y1862800*
Y1880000*
X1972187Y1842158D02*
X1968900Y1845445D01*
Y1877100*
X1961700Y1884300*
X1906594Y1868994D02*
X1907500Y1869900D01*
Y1892500*
X1924300Y1874463D02*
Y2031800D01*
X1920000Y2036100*
Y2040000*
X1930000Y1885000D02*
Y2017500D01*
X1953800Y1886400D02*
X1961700Y1894300D01*
X1958300Y1885900D02*
X1961700Y1889300D01*
X1915000Y1952500D02*
Y1991100D01*
X1920000Y1996100*
Y2000000*
X1965000Y1995000D02*
Y2061100D01*
X1960000Y2066100*
Y2070000*
X1955000Y2015000D02*
Y2051100D01*
X1960000Y2056100*
Y2060000*
G54D23*
X1890000Y1815000D02*
Y2030000D01*
X1971579Y1818600D02*
X1968918Y1821261D01*
Y1829679*
X1971579Y1818600D02*
X1974131D01*
X1976800Y1821269*
Y1823781*
X1980700Y1827681*
Y1830634*
X1987835Y1837769*
Y1880165*
X1985000Y1883000*
Y1925000*
X1895000Y2070000D02*
Y2079400D01*
X1895200Y2079600*
Y2089100*
X1892500Y2087500D02*
Y2090700D01*
X1891600Y2091600*
Y2161300*
X1895200Y2089100D02*
X1895000Y2089300D01*
Y2092500*
X1891600Y2161300D02*
Y2221500D01*
G54D24*
X1890000Y1815000D03*
X1895000Y1817500D03*
X2000000Y1830000D03*
X1860000Y1860000D03*
X1880000Y1880000D03*
X1930000Y1885000D03*
X1977500Y1880000D03*
X1907500Y1892500D03*
X1915000Y1905000D03*
X1985000Y1925000D03*
X1990000Y1932500D03*
X1880000Y1940000D03*
X2000000Y1945000D03*
X1880000Y1957500D03*
X1915000Y1952500D03*
X1945000Y1950000D03*
X1880000Y1990000D03*
X1965000Y1995000D03*
X1875000Y2005000D03*
X1900000Y2010000D03*
X1930000Y2017500D03*
X1955000Y2015000D03*
X1890000Y2030000D03*
X1900000Y2050000D03*
X1880000Y2070000D03*
X1895000D03*
X1892500Y2087500D03*
X1900000Y2080000D03*
X1895000Y2092500D03*
X1920000Y2090000D03*
X1970000D03*
X1942500Y2105000D03*
X1970000Y2107500D03*
X1900000Y2110000D03*
Y2127500D03*
X1920000D03*
X1970000D03*
X1880000Y2130000D03*
X1940000D03*
X1960000D03*
G54D29*
X1984666Y1829679D03*
X1980729Y1821805D03*
X1976792Y1829679D03*
X1972855Y1821805D03*
X1968918Y1829679D03*
X1964981Y1821805D03*
X1961044Y1829679D03*
X1957107Y1821805D03*
X1953170Y1829679D03*
X1949233Y1821805D03*
X1945296Y1829679D03*
X1933485Y1821805D03*
X1929548Y1829679D03*
X1925611Y1821805D03*
X1921674Y1829679D03*
X1917737Y1821805D03*
X1913800Y1829679D03*
X1909863Y1821805D03*
X1984666Y1839521D03*
X1980729Y1847395D03*
X1976792Y1839521D03*
X1972855Y1847395D03*
X1968918Y1839521D03*
X1964981Y1847395D03*
X1961044Y1839521D03*
X1957107Y1847395D03*
X1953170Y1839521D03*
X1949233Y1847395D03*
X1945296Y1839521D03*
X1933485Y1847395D03*
X1929548Y1839521D03*
X1925611Y1847395D03*
X1921674Y1839521D03*
X1917737Y1847395D03*
X1913800Y1839521D03*
X1909863Y1847395D03*
G54D41*
X1857200Y2221700D03*
X2031200Y2221800D03*
X2033900Y1824900D03*
X1857800Y1825100D03*
G54D46*
X1966700Y1884300D03*
X1961700D03*
X1966700Y1889300D03*
X1961700D03*
X1966700Y1894300D03*
X1961700D03*
X1966700Y1899300D03*
X1961700D03*
X1966700Y1904300D03*
X1961700D03*
G54D51*
X1978400Y2160500D03*
Y2220700D03*
X1891600Y2161300D03*
Y2221500D03*
X0Y0D02*
M02*
